0
SECTION
2
HEADER
9
$INSUNITS
70
4
9
$ACADVER
1
AC1014
9
$HANDSEED
5
FFFF
0
ENDSEC
0
SECTION
2
TABLES
0
TABLE
2
VPORT
5
8
100
AcDbSymbolTable
0
ENDTAB
0
TABLE
2
LTYPE
5
5
100
AcDbSymbolTable
0
LTYPE
5
14
100
AcDbSymbolTableRecord
100
AcDbLinetypeTableRecord
2
BYBLOCK
70
0
0
LTYPE
5
15
100
AcDbSymbolTableRecord
100
AcDbLinetypeTableRecord
2
BYLAYER
70
0
0
ENDTAB
0
TABLE
2
LAYER
5
2
100
AcDbSymbolTable
70
2
0
LAYER
5
50
100
AcDbSymbolTableRecord
100
AcDbLayerTableRecord
2
0
70
0
6
CONTINUOUS
0
ENDTAB
0
TABLE
2
STYLE
5
3
100
AcDbSymbolTable
70
1
0
STYLE
5
11
100
AcDbSymbolTableRecord
100
AcDbTextStyleTableRecord
2
STANDARD
70
0
0
ENDTAB
0
TABLE
2
VIEW
5
6
100
AcDbSymbolTable
70
0
0
ENDTAB
0
TABLE
2
UCS
5
7
100
AcDbSymbolTable
70
0
0
ENDTAB
0
TABLE
2
APPID
5
9
100
AcDbSymbolTable
70
2
0
APPID
5
12
100
AcDbSymbolTableRecord
100
AcDbRegAppTableRecord
2
ACAD
70
0
0
ENDTAB
0
TABLE
2
DIMSTYLE
5
A
100
AcDbSymbolTable
70
1
0
ENDTAB
0
TABLE
2
BLOCK_RECORD
5
1
100
AcDbSymbolTable
70
1
0
BLOCK_RECORD
5
1F
100
AcDbSymbolTableRecord
100
AcDbBlockTableRecord
2
*MODEL_SPACE
0
BLOCK_RECORD
5
1B
100
AcDbSymbolTableRecord
100
AcDbBlockTableRecord
2
*PAPER_SPACE
0
ENDTAB
0
ENDSEC
0
SECTION
2
BLOCKS
0
BLOCK
5
20
100
AcDbEntity
100
AcDbBlockBegin
2
*MODEL_SPACE
0
ENDBLK
5
21
100
AcDbEntity
100
AcDbBlockEnd
0
BLOCK
5
1C
100
AcDbEntity
100
AcDbBlockBegin
2
*PAPER_SPACE
0
ENDBLK
5
1D
100
AcDbEntity
100
AcDbBlockEnd
0
ENDSEC
0
SECTION
2
ENTITIES
0
LWPOLYLINE
5
100
100
AcDbEntity
8
0
100
AcDbPolyline
90
12
70
1
43
0.0
10
138
20
-114.50000000000001
10
138
20
-125.00000000000001
42
0.41421356237309503
10
139
20
-126.00000000000001
10
178.5
20
-126.00000000000001
42
0.41421356237308982
10
179.50000000000003
20
-125.00000000000001
10
179.50000000000003
20
-114.50000000000001
42
0.99999999999999989
10
178.5
20
-114.50000000000001
10
178.5
20
-124.50000000000001
42
-0.41421356237309503
10
178
20
-125.00000000000001
10
139.5
20
-125.00000000000001
42
-0.41421356237309503
10
139
20
-124.50000000000001
10
139.00000000000003
20
-114.50000000000001
42
0.99999999999999989
0
LWPOLYLINE
5
101
100
AcDbEntity
8
0
100
AcDbPolyline
90
4
70
1
43
0.0
10
78
20
-29.000000000000004
10
108
20
-29.000000000000004
42
0.99999999999999989
10
108
20
-28.000000000000007
10
78
20
-28.000000000000007
42
0.99999999999999989
0
LWPOLYLINE
5
102
100
AcDbEntity
8
0
100
AcDbPolyline
90
4
70
1
43
0.0
10
284
20
-130.5
10
254.00000000000003
20
-130.5
42
0.99999999999999989
10
254.00000000000003
20
-131.50000000000003
10
284
20
-131.50000000000003
42
0.99999999999999989
0
LWPOLYLINE
5
103
100
AcDbEntity
8
0
100
AcDbPolyline
90
4
70
1
43
0.0
10
108
20
-130.5
10
78
20
-130.5
42
0.99999999999999989
10
78
20
-131.50000000000003
10
108
20
-131.50000000000003
42
0.99999999999999989
0
LWPOLYLINE
5
104
100
AcDbEntity
8
0
100
AcDbPolyline
90
4
70
1
43
0.0
10
196
20
-128.5
10
166
20
-128.5
42
0.99999999999999989
10
166
20
-129.50000000000003
10
196
20
-129.50000000000003
42
0.99999999999999989
0
LWPOLYLINE
5
105
100
AcDbEntity
8
0
100
AcDbPolyline
90
4
70
1
43
0.0
10
284
20
-28.000000000000007
10
254.00000000000003
20
-28.000000000000007
42
0.99999999999999989
10
254.00000000000003
20
-29.000000000000004
10
284
20
-29.000000000000004
42
0.99999999999999989
0
LWPOLYLINE
5
106
100
AcDbEntity
8
0
100
AcDbPolyline
90
4
70
1
43
0.0
10
196
20
-28.000000000000007
10
166
20
-28.000000000000007
42
0.99999999999999989
10
166
20
-29.000000000000004
10
196
20
-29.000000000000004
42
0.99999999999999989
0
LWPOLYLINE
5
107
100
AcDbEntity
8
0
100
AcDbPolyline
90
52
70
1
43
0.0
10
361.42499999999995
20
-4.0000000000000036
10
361.42499999999995
20
-139.00000000000003
42
-0.99999999999999989
10
354.47500000000002
20
-139
10
354.47500000000002
20
-135.26875000000001
42
0.41421356237309503
10
353.68125000000009
20
-134.47499999999999
10
273.73125000000005
20
-134.47499999999999
42
0.41421356237309503
10
272.9375
20
-135.26875000000001
10
272.9375
20
-139
42
-0.99999999999999989
10
265.98749999999995
20
-139
10
265.98750000000001
20
-135.26875000000001
42
0.41421356237309503
10
265.19375000000002
20
-134.47499999999999
10
185.24374999999995
20
-134.47499999999999
42
0.41421356237309503
10
184.44999999999996
20
-135.26875000000001
10
184.44999999999996
20
-139
42
-0.99999999999999989
10
177.50000000000003
20
-139
10
177.50000000000003
20
-135.26875000000001
42
0.41421356237309503
10
176.70625000000004
20
-134.47499999999999
10
96.756249999999994
20
-134.47499999999999
42
0.41421356237309503
10
95.962499999999991
20
-135.26875000000001
10
95.962499999999991
20
-139
42
-0.99999999999999989
10
89.012499999999989
20
-139
10
89.012499999999989
20
-135.26875000000001
42
0.41421356237309503
10
88.218749999999986
20
-134.47499999999999
10
8.2687500000000025
20
-134.47499999999999
42
0.41421356237309503
10
7.4750000000000005
20
-135.26875000000001
10
7.4749999999999996
20
-139
42
-0.99999999999999989
10
0.52499999999999436
20
-139
10
0.5249999999999988
20
-3.9999999999999973
42
-0.99999999999999989
10
7.4750000000000014
20
-4.0000000000000027
10
7.4750000000000041
20
-7.7312500000000011
42
0.41421356237309837
10
8.2687500000000114
20
-8.5250000000000004
10
88.218749999999986
20
-8.5250000000000004
42
0.41421356237309503
10
89.012499999999989
20
-7.7312500000000011
10
89.012499999999989
20
-4.0000000000000151
42
-0.99999999999999989
10
95.962499999999991
20
-4.0000000000000142
10
95.962499999999991
20
-7.7312500000000011
42
0.41421356237309503
10
96.756249999999994
20
-8.5250000000000004
10
176.70625000000004
20
-8.5250000000000004
42
0.41421356237309503
10
177.50000000000003
20
-7.7312500000000011
10
177.50000000000003
20
-4.0000000000000027
42
-0.99999999999999989
10
184.44999999999996
20
-4.0000000000000018
10
184.44999999999996
20
-7.7312500000000011
42
0.41421356237309503
10
185.24374999999995
20
-8.5250000000000004
10
265.19375000000002
20
-8.5250000000000004
42
0.41421356237309503
10
265.98750000000001
20
-7.7312500000000011
10
265.98750000000001
20
-4.0000000000000133
42
-0.99999999999999989
10
272.93749999999994
20
-4.000000000000016
10
272.9375
20
-7.7312500000000011
42
0.41421356237309503
10
273.73125000000005
20
-8.5250000000000004
10
353.68125000000009
20
-8.5250000000000004
42
0.41421356237309503
10
354.47500000000002
20
-7.7312500000000011
10
354.47500000000002
20
-3.9999999999999969
42
-0.99999999999999989
0
ENDSEC
0
SECTION
2
OBJECTS
0
DICTIONARY
5
C
100
AcDbDictionary
3
ACAD_GROUP
350
D
3
ACAD_MLINESTYLE
350
17
0
DICTIONARY
5
D
100
AcDbDictionary
0
DICTIONARY
5
1A
330
C
100
AcDbDictionary
0
DICTIONARY
5
17
100
AcDbDictionary
0
ENDSEC
0
EOF
