G04 #@! TF.GenerationSoftware,KiCad,Pcbnew,(5.1.4)-1*
G04 #@! TF.CreationDate,2020-02-17T01:36:26-08:00*
G04 #@! TF.ProjectId,daughterboard,64617567-6874-4657-9262-6f6172642e6b,rev?*
G04 #@! TF.SameCoordinates,Original*
G04 #@! TF.FileFunction,Soldermask,Top*
G04 #@! TF.FilePolarity,Negative*
%FSLAX46Y46*%
G04 Gerber Fmt 4.6, Leading zero omitted, Abs format (unit mm)*
G04 Created by KiCad (PCBNEW (5.1.4)-1) date 2020-02-17 01:36:26*
%MOMM*%
%LPD*%
G04 APERTURE LIST*
%ADD10C,0.100000*%
G04 APERTURE END LIST*
D10*
G36*
X11536694Y-13301860D02*
G01*
X11802437Y-13354719D01*
X12303087Y-13562095D01*
X12483561Y-13682684D01*
X12753660Y-13863158D01*
X13136842Y-14246340D01*
X13317316Y-14516439D01*
X13437905Y-14696913D01*
X13571363Y-15019109D01*
X13645281Y-15197564D01*
X13751000Y-15729049D01*
X13751000Y-16270951D01*
X13716703Y-16443373D01*
X13645281Y-16802437D01*
X13437905Y-17303087D01*
X13322160Y-17476311D01*
X13136842Y-17753660D01*
X12753660Y-18136842D01*
X12490774Y-18312496D01*
X12303087Y-18437905D01*
X11802437Y-18645281D01*
X11536693Y-18698141D01*
X11270951Y-18751000D01*
X10729049Y-18751000D01*
X10463307Y-18698141D01*
X10197563Y-18645281D01*
X9696913Y-18437905D01*
X9509226Y-18312496D01*
X9246340Y-18136842D01*
X8863158Y-17753660D01*
X8677840Y-17476311D01*
X8562095Y-17303087D01*
X8354719Y-16802437D01*
X8283297Y-16443373D01*
X8249000Y-16270951D01*
X8249000Y-15729049D01*
X8354719Y-15197564D01*
X8428637Y-15019109D01*
X8562095Y-14696913D01*
X8682684Y-14516439D01*
X8863158Y-14246340D01*
X9246340Y-13863158D01*
X9516439Y-13682684D01*
X9696913Y-13562095D01*
X10197563Y-13354719D01*
X10463306Y-13301860D01*
X10729049Y-13249000D01*
X11270951Y-13249000D01*
X11536694Y-13301860D01*
X11536694Y-13301860D01*
G37*
G36*
X5759928Y-16476764D02*
G01*
X5781009Y-16483160D01*
X5800445Y-16493548D01*
X5817476Y-16507524D01*
X5831452Y-16524555D01*
X5841840Y-16543991D01*
X5848236Y-16565072D01*
X5851000Y-16593140D01*
X5851000Y-18006860D01*
X5848236Y-18034928D01*
X5841840Y-18056009D01*
X5831452Y-18075445D01*
X5817476Y-18092476D01*
X5800445Y-18106452D01*
X5781009Y-18116840D01*
X5759928Y-18123236D01*
X5731860Y-18126000D01*
X5268140Y-18126000D01*
X5240072Y-18123236D01*
X5218991Y-18116840D01*
X5199555Y-18106452D01*
X5182524Y-18092476D01*
X5168548Y-18075445D01*
X5158160Y-18056009D01*
X5151764Y-18034928D01*
X5149000Y-18006860D01*
X5149000Y-16593140D01*
X5151764Y-16565072D01*
X5158160Y-16543991D01*
X5168548Y-16524555D01*
X5182524Y-16507524D01*
X5199555Y-16493548D01*
X5218991Y-16483160D01*
X5240072Y-16476764D01*
X5268140Y-16474000D01*
X5731860Y-16474000D01*
X5759928Y-16476764D01*
X5759928Y-16476764D01*
G37*
G36*
X4759928Y-16476764D02*
G01*
X4781009Y-16483160D01*
X4800445Y-16493548D01*
X4817476Y-16507524D01*
X4831452Y-16524555D01*
X4841840Y-16543991D01*
X4848236Y-16565072D01*
X4851000Y-16593140D01*
X4851000Y-18006860D01*
X4848236Y-18034928D01*
X4841840Y-18056009D01*
X4831452Y-18075445D01*
X4817476Y-18092476D01*
X4800445Y-18106452D01*
X4781009Y-18116840D01*
X4759928Y-18123236D01*
X4731860Y-18126000D01*
X4268140Y-18126000D01*
X4240072Y-18123236D01*
X4218991Y-18116840D01*
X4199555Y-18106452D01*
X4182524Y-18092476D01*
X4168548Y-18075445D01*
X4158160Y-18056009D01*
X4151764Y-18034928D01*
X4149000Y-18006860D01*
X4149000Y-16593140D01*
X4151764Y-16565072D01*
X4158160Y-16543991D01*
X4168548Y-16524555D01*
X4182524Y-16507524D01*
X4199555Y-16493548D01*
X4218991Y-16483160D01*
X4240072Y-16476764D01*
X4268140Y-16474000D01*
X4731860Y-16474000D01*
X4759928Y-16476764D01*
X4759928Y-16476764D01*
G37*
G36*
X3759928Y-16476764D02*
G01*
X3781009Y-16483160D01*
X3800445Y-16493548D01*
X3817476Y-16507524D01*
X3831452Y-16524555D01*
X3841840Y-16543991D01*
X3848236Y-16565072D01*
X3851000Y-16593140D01*
X3851000Y-18006860D01*
X3848236Y-18034928D01*
X3841840Y-18056009D01*
X3831452Y-18075445D01*
X3817476Y-18092476D01*
X3800445Y-18106452D01*
X3781009Y-18116840D01*
X3759928Y-18123236D01*
X3731860Y-18126000D01*
X3268140Y-18126000D01*
X3240072Y-18123236D01*
X3218991Y-18116840D01*
X3199555Y-18106452D01*
X3182524Y-18092476D01*
X3168548Y-18075445D01*
X3158160Y-18056009D01*
X3151764Y-18034928D01*
X3149000Y-18006860D01*
X3149000Y-16593140D01*
X3151764Y-16565072D01*
X3158160Y-16543991D01*
X3168548Y-16524555D01*
X3182524Y-16507524D01*
X3199555Y-16493548D01*
X3218991Y-16483160D01*
X3240072Y-16476764D01*
X3268140Y-16474000D01*
X3731860Y-16474000D01*
X3759928Y-16476764D01*
X3759928Y-16476764D01*
G37*
G36*
X2759928Y-16476764D02*
G01*
X2781009Y-16483160D01*
X2800445Y-16493548D01*
X2817476Y-16507524D01*
X2831452Y-16524555D01*
X2841840Y-16543991D01*
X2848236Y-16565072D01*
X2851000Y-16593140D01*
X2851000Y-18006860D01*
X2848236Y-18034928D01*
X2841840Y-18056009D01*
X2831452Y-18075445D01*
X2817476Y-18092476D01*
X2800445Y-18106452D01*
X2781009Y-18116840D01*
X2759928Y-18123236D01*
X2731860Y-18126000D01*
X2268140Y-18126000D01*
X2240072Y-18123236D01*
X2218991Y-18116840D01*
X2199555Y-18106452D01*
X2182524Y-18092476D01*
X2168548Y-18075445D01*
X2158160Y-18056009D01*
X2151764Y-18034928D01*
X2149000Y-18006860D01*
X2149000Y-16593140D01*
X2151764Y-16565072D01*
X2158160Y-16543991D01*
X2168548Y-16524555D01*
X2182524Y-16507524D01*
X2199555Y-16493548D01*
X2218991Y-16483160D01*
X2240072Y-16476764D01*
X2268140Y-16474000D01*
X2731860Y-16474000D01*
X2759928Y-16476764D01*
X2759928Y-16476764D01*
G37*
G36*
X19110442Y-15725518D02*
G01*
X19176627Y-15732037D01*
X19346466Y-15783557D01*
X19502991Y-15867222D01*
X19538729Y-15896552D01*
X19640186Y-15979814D01*
X19723448Y-16081271D01*
X19752778Y-16117009D01*
X19836443Y-16273534D01*
X19887963Y-16443373D01*
X19905359Y-16620000D01*
X19887963Y-16796627D01*
X19836443Y-16966466D01*
X19752778Y-17122991D01*
X19735212Y-17144395D01*
X19640186Y-17260186D01*
X19538729Y-17343448D01*
X19502991Y-17372778D01*
X19346466Y-17456443D01*
X19176627Y-17507963D01*
X19110442Y-17514482D01*
X19044260Y-17521000D01*
X18955740Y-17521000D01*
X18889558Y-17514482D01*
X18823373Y-17507963D01*
X18653534Y-17456443D01*
X18497009Y-17372778D01*
X18461271Y-17343448D01*
X18359814Y-17260186D01*
X18264788Y-17144395D01*
X18247222Y-17122991D01*
X18163557Y-16966466D01*
X18112037Y-16796627D01*
X18094641Y-16620000D01*
X18112037Y-16443373D01*
X18163557Y-16273534D01*
X18247222Y-16117009D01*
X18276552Y-16081271D01*
X18359814Y-15979814D01*
X18461271Y-15896552D01*
X18497009Y-15867222D01*
X18653534Y-15783557D01*
X18823373Y-15732037D01*
X18889558Y-15725518D01*
X18955740Y-15719000D01*
X19044260Y-15719000D01*
X19110442Y-15725518D01*
X19110442Y-15725518D01*
G37*
G36*
X19110442Y-13185518D02*
G01*
X19176627Y-13192037D01*
X19346466Y-13243557D01*
X19502991Y-13327222D01*
X19536496Y-13354719D01*
X19640186Y-13439814D01*
X19723448Y-13541271D01*
X19752778Y-13577009D01*
X19836443Y-13733534D01*
X19887963Y-13903373D01*
X19905359Y-14080000D01*
X19887963Y-14256627D01*
X19836443Y-14426466D01*
X19752778Y-14582991D01*
X19728537Y-14612529D01*
X19640186Y-14720186D01*
X19538729Y-14803448D01*
X19502991Y-14832778D01*
X19346466Y-14916443D01*
X19176627Y-14967963D01*
X19110442Y-14974482D01*
X19044260Y-14981000D01*
X18955740Y-14981000D01*
X18889558Y-14974482D01*
X18823373Y-14967963D01*
X18653534Y-14916443D01*
X18497009Y-14832778D01*
X18461271Y-14803448D01*
X18359814Y-14720186D01*
X18271463Y-14612529D01*
X18247222Y-14582991D01*
X18163557Y-14426466D01*
X18112037Y-14256627D01*
X18094641Y-14080000D01*
X18112037Y-13903373D01*
X18163557Y-13733534D01*
X18247222Y-13577009D01*
X18276552Y-13541271D01*
X18359814Y-13439814D01*
X18463504Y-13354719D01*
X18497009Y-13327222D01*
X18653534Y-13243557D01*
X18823373Y-13192037D01*
X18889558Y-13185518D01*
X18955740Y-13179000D01*
X19044260Y-13179000D01*
X19110442Y-13185518D01*
X19110442Y-13185518D01*
G37*
G36*
X7291242Y-12478404D02*
G01*
X7328337Y-12489657D01*
X7362515Y-12507925D01*
X7392481Y-12532519D01*
X7417075Y-12562485D01*
X7435343Y-12596663D01*
X7446596Y-12633758D01*
X7451000Y-12678474D01*
X7451000Y-14171526D01*
X7446596Y-14216242D01*
X7435343Y-14253337D01*
X7417075Y-14287515D01*
X7392481Y-14317481D01*
X7362515Y-14342075D01*
X7328337Y-14360343D01*
X7291242Y-14371596D01*
X7246526Y-14376000D01*
X6353474Y-14376000D01*
X6308758Y-14371596D01*
X6271663Y-14360343D01*
X6237485Y-14342075D01*
X6207519Y-14317481D01*
X6182925Y-14287515D01*
X6164657Y-14253337D01*
X6153404Y-14216242D01*
X6149000Y-14171526D01*
X6149000Y-12678474D01*
X6153404Y-12633758D01*
X6164657Y-12596663D01*
X6182925Y-12562485D01*
X6207519Y-12532519D01*
X6237485Y-12507925D01*
X6271663Y-12489657D01*
X6308758Y-12478404D01*
X6353474Y-12474000D01*
X7246526Y-12474000D01*
X7291242Y-12478404D01*
X7291242Y-12478404D01*
G37*
G36*
X1691242Y-12478404D02*
G01*
X1728337Y-12489657D01*
X1762515Y-12507925D01*
X1792481Y-12532519D01*
X1817075Y-12562485D01*
X1835343Y-12596663D01*
X1846596Y-12633758D01*
X1851000Y-12678474D01*
X1851000Y-14171526D01*
X1846596Y-14216242D01*
X1835343Y-14253337D01*
X1817075Y-14287515D01*
X1792481Y-14317481D01*
X1762515Y-14342075D01*
X1728337Y-14360343D01*
X1691242Y-14371596D01*
X1646526Y-14376000D01*
X753474Y-14376000D01*
X708758Y-14371596D01*
X671663Y-14360343D01*
X637485Y-14342075D01*
X607519Y-14317481D01*
X582925Y-14287515D01*
X564657Y-14253337D01*
X553404Y-14216242D01*
X549000Y-14171526D01*
X549000Y-12678474D01*
X553404Y-12633758D01*
X564657Y-12596663D01*
X582925Y-12562485D01*
X607519Y-12532519D01*
X637485Y-12507925D01*
X671663Y-12489657D01*
X708758Y-12478404D01*
X753474Y-12474000D01*
X1646526Y-12474000D01*
X1691242Y-12478404D01*
X1691242Y-12478404D01*
G37*
G36*
X19110442Y-10645518D02*
G01*
X19176627Y-10652037D01*
X19346466Y-10703557D01*
X19502991Y-10787222D01*
X19538729Y-10816552D01*
X19640186Y-10899814D01*
X19723448Y-11001271D01*
X19752778Y-11037009D01*
X19836443Y-11193534D01*
X19887963Y-11363373D01*
X19905359Y-11540000D01*
X19887963Y-11716627D01*
X19836443Y-11886466D01*
X19752778Y-12042991D01*
X19723448Y-12078729D01*
X19640186Y-12180186D01*
X19538729Y-12263448D01*
X19502991Y-12292778D01*
X19346466Y-12376443D01*
X19176627Y-12427963D01*
X19110443Y-12434481D01*
X19044260Y-12441000D01*
X18955740Y-12441000D01*
X18889557Y-12434481D01*
X18823373Y-12427963D01*
X18653534Y-12376443D01*
X18497009Y-12292778D01*
X18461271Y-12263448D01*
X18359814Y-12180186D01*
X18276552Y-12078729D01*
X18247222Y-12042991D01*
X18163557Y-11886466D01*
X18112037Y-11716627D01*
X18094641Y-11540000D01*
X18112037Y-11363373D01*
X18163557Y-11193534D01*
X18247222Y-11037009D01*
X18276552Y-11001271D01*
X18359814Y-10899814D01*
X18461271Y-10816552D01*
X18497009Y-10787222D01*
X18653534Y-10703557D01*
X18823373Y-10652037D01*
X18889558Y-10645518D01*
X18955740Y-10639000D01*
X19044260Y-10639000D01*
X19110442Y-10645518D01*
X19110442Y-10645518D01*
G37*
G36*
X15662091Y-8978085D02*
G01*
X15696069Y-8988393D01*
X15727390Y-9005134D01*
X15754839Y-9027661D01*
X15777366Y-9055110D01*
X15794107Y-9086431D01*
X15804415Y-9120409D01*
X15808500Y-9161890D01*
X15808500Y-9838110D01*
X15804415Y-9879591D01*
X15794107Y-9913569D01*
X15777366Y-9944890D01*
X15754839Y-9972339D01*
X15727390Y-9994866D01*
X15696069Y-10011607D01*
X15662091Y-10021915D01*
X15620610Y-10026000D01*
X15019390Y-10026000D01*
X14977909Y-10021915D01*
X14943931Y-10011607D01*
X14912610Y-9994866D01*
X14885161Y-9972339D01*
X14862634Y-9944890D01*
X14845893Y-9913569D01*
X14835585Y-9879591D01*
X14831500Y-9838110D01*
X14831500Y-9161890D01*
X14835585Y-9120409D01*
X14845893Y-9086431D01*
X14862634Y-9055110D01*
X14885161Y-9027661D01*
X14912610Y-9005134D01*
X14943931Y-8988393D01*
X14977909Y-8978085D01*
X15019390Y-8974000D01*
X15620610Y-8974000D01*
X15662091Y-8978085D01*
X15662091Y-8978085D01*
G37*
G36*
X14087091Y-8978085D02*
G01*
X14121069Y-8988393D01*
X14152390Y-9005134D01*
X14179839Y-9027661D01*
X14202366Y-9055110D01*
X14219107Y-9086431D01*
X14229415Y-9120409D01*
X14233500Y-9161890D01*
X14233500Y-9838110D01*
X14229415Y-9879591D01*
X14219107Y-9913569D01*
X14202366Y-9944890D01*
X14179839Y-9972339D01*
X14152390Y-9994866D01*
X14121069Y-10011607D01*
X14087091Y-10021915D01*
X14045610Y-10026000D01*
X13444390Y-10026000D01*
X13402909Y-10021915D01*
X13368931Y-10011607D01*
X13337610Y-9994866D01*
X13310161Y-9972339D01*
X13287634Y-9944890D01*
X13270893Y-9913569D01*
X13260585Y-9879591D01*
X13256500Y-9838110D01*
X13256500Y-9161890D01*
X13260585Y-9120409D01*
X13270893Y-9086431D01*
X13287634Y-9055110D01*
X13310161Y-9027661D01*
X13337610Y-9005134D01*
X13368931Y-8988393D01*
X13402909Y-8978085D01*
X13444390Y-8974000D01*
X14045610Y-8974000D01*
X14087091Y-8978085D01*
X14087091Y-8978085D01*
G37*
G36*
X19901000Y-9901000D02*
G01*
X18099000Y-9901000D01*
X18099000Y-8099000D01*
X19901000Y-8099000D01*
X19901000Y-9901000D01*
X19901000Y-9901000D01*
G37*
G36*
X15662091Y-7478085D02*
G01*
X15696069Y-7488393D01*
X15727390Y-7505134D01*
X15754839Y-7527661D01*
X15777366Y-7555110D01*
X15794107Y-7586431D01*
X15804415Y-7620409D01*
X15808500Y-7661890D01*
X15808500Y-8338110D01*
X15804415Y-8379591D01*
X15794107Y-8413569D01*
X15777366Y-8444890D01*
X15754839Y-8472339D01*
X15727390Y-8494866D01*
X15696069Y-8511607D01*
X15662091Y-8521915D01*
X15620610Y-8526000D01*
X15019390Y-8526000D01*
X14977909Y-8521915D01*
X14943931Y-8511607D01*
X14912610Y-8494866D01*
X14885161Y-8472339D01*
X14862634Y-8444890D01*
X14845893Y-8413569D01*
X14835585Y-8379591D01*
X14831500Y-8338110D01*
X14831500Y-7661890D01*
X14835585Y-7620409D01*
X14845893Y-7586431D01*
X14862634Y-7555110D01*
X14885161Y-7527661D01*
X14912610Y-7505134D01*
X14943931Y-7488393D01*
X14977909Y-7478085D01*
X15019390Y-7474000D01*
X15620610Y-7474000D01*
X15662091Y-7478085D01*
X15662091Y-7478085D01*
G37*
G36*
X14087091Y-7478085D02*
G01*
X14121069Y-7488393D01*
X14152390Y-7505134D01*
X14179839Y-7527661D01*
X14202366Y-7555110D01*
X14219107Y-7586431D01*
X14229415Y-7620409D01*
X14233500Y-7661890D01*
X14233500Y-8338110D01*
X14229415Y-8379591D01*
X14219107Y-8413569D01*
X14202366Y-8444890D01*
X14179839Y-8472339D01*
X14152390Y-8494866D01*
X14121069Y-8511607D01*
X14087091Y-8521915D01*
X14045610Y-8526000D01*
X13444390Y-8526000D01*
X13402909Y-8521915D01*
X13368931Y-8511607D01*
X13337610Y-8494866D01*
X13310161Y-8472339D01*
X13287634Y-8444890D01*
X13270893Y-8413569D01*
X13260585Y-8379591D01*
X13256500Y-8338110D01*
X13256500Y-7661890D01*
X13260585Y-7620409D01*
X13270893Y-7586431D01*
X13287634Y-7555110D01*
X13310161Y-7527661D01*
X13337610Y-7505134D01*
X13368931Y-7488393D01*
X13402909Y-7478085D01*
X13444390Y-7474000D01*
X14045610Y-7474000D01*
X14087091Y-7478085D01*
X14087091Y-7478085D01*
G37*
G36*
X15428015Y-4186973D02*
G01*
X15531879Y-4218479D01*
X15559055Y-4233005D01*
X15627600Y-4269643D01*
X15711501Y-4338499D01*
X15780357Y-4422400D01*
X15799354Y-4457942D01*
X15831521Y-4518121D01*
X15863027Y-4621985D01*
X15871000Y-4702933D01*
X15871000Y-5857067D01*
X15863027Y-5938015D01*
X15831521Y-6041879D01*
X15807987Y-6085907D01*
X15780357Y-6137599D01*
X15780354Y-6137603D01*
X15711501Y-6221501D01*
X15642645Y-6278009D01*
X15627599Y-6290357D01*
X15575907Y-6317987D01*
X15531878Y-6341521D01*
X15428014Y-6373027D01*
X15320000Y-6383666D01*
X15211985Y-6373027D01*
X15108121Y-6341521D01*
X15064093Y-6317987D01*
X15012401Y-6290357D01*
X14999643Y-6279887D01*
X14928499Y-6221501D01*
X14859644Y-6137600D01*
X14811230Y-6047024D01*
X14797625Y-6026664D01*
X14780298Y-6009337D01*
X14759924Y-5995723D01*
X14737285Y-5986346D01*
X14713252Y-5981565D01*
X14688748Y-5981565D01*
X14664714Y-5986345D01*
X14642075Y-5995722D01*
X14621701Y-6009336D01*
X14604374Y-6026663D01*
X14590760Y-6047037D01*
X14581383Y-6069676D01*
X14576602Y-6093709D01*
X14576000Y-6105962D01*
X14576000Y-6971000D01*
X7424000Y-6971000D01*
X7424000Y-6105962D01*
X7421598Y-6081577D01*
X7414485Y-6058128D01*
X7402934Y-6036517D01*
X7387389Y-6017575D01*
X7368447Y-6002030D01*
X7346836Y-5990479D01*
X7323387Y-5983366D01*
X7299001Y-5980964D01*
X7274615Y-5983366D01*
X7251166Y-5990479D01*
X7229555Y-6002030D01*
X7210613Y-6017575D01*
X7195068Y-6036517D01*
X7188778Y-6047010D01*
X7140356Y-6137600D01*
X7140355Y-6137602D01*
X7071501Y-6221501D01*
X7002645Y-6278009D01*
X6987599Y-6290357D01*
X6935907Y-6317987D01*
X6891878Y-6341521D01*
X6788014Y-6373027D01*
X6680000Y-6383666D01*
X6571985Y-6373027D01*
X6468121Y-6341521D01*
X6424093Y-6317987D01*
X6372401Y-6290357D01*
X6359643Y-6279887D01*
X6288499Y-6221501D01*
X6219646Y-6137603D01*
X6219643Y-6137599D01*
X6189699Y-6081577D01*
X6168479Y-6041878D01*
X6136973Y-5938014D01*
X6129000Y-5857066D01*
X6129001Y-4702933D01*
X6136974Y-4621985D01*
X6168480Y-4518121D01*
X6200647Y-4457942D01*
X6219644Y-4422400D01*
X6288500Y-4338499D01*
X6372401Y-4269643D01*
X6440946Y-4233005D01*
X6468122Y-4218479D01*
X6571986Y-4186973D01*
X6680000Y-4176334D01*
X6788015Y-4186973D01*
X6891879Y-4218479D01*
X6919055Y-4233005D01*
X6987600Y-4269643D01*
X7071501Y-4338499D01*
X7140357Y-4422400D01*
X7159354Y-4457942D01*
X7191521Y-4518121D01*
X7223027Y-4621985D01*
X7231000Y-4702933D01*
X7231000Y-5294001D01*
X7233402Y-5318387D01*
X7240515Y-5341836D01*
X7252066Y-5363447D01*
X7267611Y-5382389D01*
X7286553Y-5397934D01*
X7308164Y-5409485D01*
X7331613Y-5416598D01*
X7355999Y-5419000D01*
X14644001Y-5419000D01*
X14668387Y-5416598D01*
X14691836Y-5409485D01*
X14713447Y-5397934D01*
X14732389Y-5382389D01*
X14747934Y-5363447D01*
X14759485Y-5341836D01*
X14766598Y-5318387D01*
X14769000Y-5294001D01*
X14769001Y-4702939D01*
X14769001Y-4702933D01*
X14776974Y-4621985D01*
X14808480Y-4518121D01*
X14840647Y-4457942D01*
X14859644Y-4422400D01*
X14928500Y-4338499D01*
X15012401Y-4269643D01*
X15080946Y-4233005D01*
X15108122Y-4218479D01*
X15211986Y-4186973D01*
X15320000Y-4176334D01*
X15428015Y-4186973D01*
X15428015Y-4186973D01*
G37*
G36*
X3469425Y-288479D02*
G01*
X3802437Y-354719D01*
X4303087Y-562095D01*
X4483561Y-682684D01*
X4753660Y-863158D01*
X5136842Y-1246340D01*
X5311685Y-1508012D01*
X5437905Y-1696913D01*
X5571363Y-2019109D01*
X5645281Y-2197564D01*
X5751000Y-2729049D01*
X5751000Y-3270951D01*
X5715186Y-3451000D01*
X5645281Y-3802437D01*
X5437905Y-4303087D01*
X5380867Y-4388450D01*
X5136842Y-4753660D01*
X4753660Y-5136842D01*
X4518454Y-5294001D01*
X4303087Y-5437905D01*
X3802437Y-5645281D01*
X3536694Y-5698140D01*
X3270951Y-5751000D01*
X2729049Y-5751000D01*
X2463306Y-5698140D01*
X2197563Y-5645281D01*
X1696913Y-5437905D01*
X1481546Y-5294001D01*
X1246340Y-5136842D01*
X863158Y-4753660D01*
X619133Y-4388450D01*
X562095Y-4303087D01*
X354719Y-3802437D01*
X284814Y-3451000D01*
X249000Y-3270951D01*
X249000Y-2729049D01*
X354719Y-2197564D01*
X428637Y-2019109D01*
X562095Y-1696913D01*
X688315Y-1508012D01*
X863158Y-1246340D01*
X1246340Y-863158D01*
X1516439Y-682684D01*
X1696913Y-562095D01*
X2197563Y-354719D01*
X2530575Y-288479D01*
X2729049Y-249000D01*
X3270951Y-249000D01*
X3469425Y-288479D01*
X3469425Y-288479D01*
G37*
G36*
X19469425Y-288479D02*
G01*
X19802437Y-354719D01*
X20303087Y-562095D01*
X20483561Y-682684D01*
X20753660Y-863158D01*
X21136842Y-1246340D01*
X21311685Y-1508012D01*
X21437905Y-1696913D01*
X21571363Y-2019109D01*
X21645281Y-2197564D01*
X21751000Y-2729049D01*
X21751000Y-3270951D01*
X21715186Y-3451000D01*
X21645281Y-3802437D01*
X21437905Y-4303087D01*
X21380867Y-4388450D01*
X21136842Y-4753660D01*
X20753660Y-5136842D01*
X20518454Y-5294001D01*
X20303087Y-5437905D01*
X19802437Y-5645281D01*
X19536694Y-5698140D01*
X19270951Y-5751000D01*
X18729049Y-5751000D01*
X18463306Y-5698140D01*
X18197563Y-5645281D01*
X17696913Y-5437905D01*
X17481546Y-5294001D01*
X17246340Y-5136842D01*
X16863158Y-4753660D01*
X16619133Y-4388450D01*
X16562095Y-4303087D01*
X16354719Y-3802437D01*
X16284814Y-3451000D01*
X16249000Y-3270951D01*
X16249000Y-2729049D01*
X16354719Y-2197564D01*
X16428637Y-2019109D01*
X16562095Y-1696913D01*
X16688315Y-1508012D01*
X16863158Y-1246340D01*
X17246340Y-863158D01*
X17516439Y-682684D01*
X17696913Y-562095D01*
X18197563Y-354719D01*
X18530575Y-288479D01*
X18729049Y-249000D01*
X19270951Y-249000D01*
X19469425Y-288479D01*
X19469425Y-288479D01*
G37*
G36*
X8219672Y-4388449D02*
G01*
X8219674Y-4388450D01*
X8219675Y-4388450D01*
X8288103Y-4416793D01*
X8349686Y-4457942D01*
X8402058Y-4510314D01*
X8443207Y-4571897D01*
X8471550Y-4640325D01*
X8471551Y-4640328D01*
X8486000Y-4712966D01*
X8486000Y-4787034D01*
X8477143Y-4831562D01*
X8471550Y-4859675D01*
X8443207Y-4928103D01*
X8402058Y-4989686D01*
X8349686Y-5042058D01*
X8288103Y-5083207D01*
X8219675Y-5111550D01*
X8219674Y-5111550D01*
X8219672Y-5111551D01*
X8147034Y-5126000D01*
X8072966Y-5126000D01*
X8000328Y-5111551D01*
X8000326Y-5111550D01*
X8000325Y-5111550D01*
X7931897Y-5083207D01*
X7870314Y-5042058D01*
X7817942Y-4989686D01*
X7776793Y-4928103D01*
X7748450Y-4859675D01*
X7742858Y-4831562D01*
X7734000Y-4787034D01*
X7734000Y-4712966D01*
X7748449Y-4640328D01*
X7748450Y-4640325D01*
X7776793Y-4571897D01*
X7817942Y-4510314D01*
X7870314Y-4457942D01*
X7931897Y-4416793D01*
X8000325Y-4388450D01*
X8000326Y-4388450D01*
X8000328Y-4388449D01*
X8072966Y-4374000D01*
X8147034Y-4374000D01*
X8219672Y-4388449D01*
X8219672Y-4388449D01*
G37*
G36*
X13999672Y-4388449D02*
G01*
X13999674Y-4388450D01*
X13999675Y-4388450D01*
X14068103Y-4416793D01*
X14129686Y-4457942D01*
X14182058Y-4510314D01*
X14223207Y-4571897D01*
X14251550Y-4640325D01*
X14251551Y-4640328D01*
X14266000Y-4712966D01*
X14266000Y-4787034D01*
X14257143Y-4831562D01*
X14251550Y-4859675D01*
X14223207Y-4928103D01*
X14182058Y-4989686D01*
X14129686Y-5042058D01*
X14068103Y-5083207D01*
X13999675Y-5111550D01*
X13999674Y-5111550D01*
X13999672Y-5111551D01*
X13927034Y-5126000D01*
X13852966Y-5126000D01*
X13780328Y-5111551D01*
X13780326Y-5111550D01*
X13780325Y-5111550D01*
X13711897Y-5083207D01*
X13650314Y-5042058D01*
X13597942Y-4989686D01*
X13556793Y-4928103D01*
X13528450Y-4859675D01*
X13522858Y-4831562D01*
X13514000Y-4787034D01*
X13514000Y-4712966D01*
X13528449Y-4640328D01*
X13528450Y-4640325D01*
X13556793Y-4571897D01*
X13597942Y-4510314D01*
X13650314Y-4457942D01*
X13711897Y-4416793D01*
X13780325Y-4388450D01*
X13780326Y-4388450D01*
X13780328Y-4388449D01*
X13852966Y-4374000D01*
X13927034Y-4374000D01*
X13999672Y-4388449D01*
X13999672Y-4388449D01*
G37*
G36*
X15428015Y-256973D02*
G01*
X15531879Y-288479D01*
X15559055Y-303005D01*
X15627600Y-339643D01*
X15711501Y-408499D01*
X15780357Y-492400D01*
X15816995Y-560945D01*
X15831521Y-588121D01*
X15863027Y-691985D01*
X15871000Y-772933D01*
X15871000Y-1427067D01*
X15863027Y-1508015D01*
X15831521Y-1611879D01*
X15807987Y-1655907D01*
X15786069Y-1696913D01*
X15780356Y-1707600D01*
X15711501Y-1791501D01*
X15642645Y-1848009D01*
X15627599Y-1860357D01*
X15575907Y-1887987D01*
X15531878Y-1911521D01*
X15428014Y-1943027D01*
X15320000Y-1953666D01*
X15211985Y-1943027D01*
X15108121Y-1911521D01*
X15064093Y-1887987D01*
X15012401Y-1860357D01*
X14999643Y-1849887D01*
X14928499Y-1791501D01*
X14859644Y-1707600D01*
X14853932Y-1696913D01*
X14808827Y-1612529D01*
X14808479Y-1611878D01*
X14776973Y-1508014D01*
X14769000Y-1427066D01*
X14769000Y-772933D01*
X14776973Y-691985D01*
X14808480Y-588121D01*
X14822391Y-562095D01*
X14859645Y-492399D01*
X14928500Y-408499D01*
X15012401Y-339643D01*
X15080946Y-303005D01*
X15108122Y-288479D01*
X15211986Y-256973D01*
X15320000Y-246334D01*
X15428015Y-256973D01*
X15428015Y-256973D01*
G37*
G36*
X6788015Y-256973D02*
G01*
X6891879Y-288479D01*
X6919055Y-303005D01*
X6987600Y-339643D01*
X7071501Y-408499D01*
X7140357Y-492400D01*
X7176995Y-560945D01*
X7191521Y-588121D01*
X7223027Y-691985D01*
X7231000Y-772933D01*
X7231000Y-1427067D01*
X7223027Y-1508015D01*
X7191521Y-1611879D01*
X7167987Y-1655907D01*
X7146069Y-1696913D01*
X7140356Y-1707600D01*
X7071501Y-1791501D01*
X7002645Y-1848009D01*
X6987599Y-1860357D01*
X6935907Y-1887987D01*
X6891878Y-1911521D01*
X6788014Y-1943027D01*
X6680000Y-1953666D01*
X6571985Y-1943027D01*
X6468121Y-1911521D01*
X6424093Y-1887987D01*
X6372401Y-1860357D01*
X6359643Y-1849887D01*
X6288499Y-1791501D01*
X6219644Y-1707600D01*
X6213932Y-1696913D01*
X6168827Y-1612529D01*
X6168479Y-1611878D01*
X6136973Y-1508014D01*
X6129000Y-1427066D01*
X6129000Y-772933D01*
X6136973Y-691985D01*
X6168480Y-588121D01*
X6182391Y-562095D01*
X6219645Y-492399D01*
X6288500Y-408499D01*
X6372401Y-339643D01*
X6440946Y-303005D01*
X6468122Y-288479D01*
X6571986Y-256973D01*
X6680000Y-246334D01*
X6788015Y-256973D01*
X6788015Y-256973D01*
G37*
M02*
