G04 #@! TF.GenerationSoftware,KiCad,Pcbnew,(5.1.4)-1*
G04 #@! TF.CreationDate,2020-02-17T01:36:26-08:00*
G04 #@! TF.ProjectId,daughterboard,64617567-6874-4657-9262-6f6172642e6b,rev?*
G04 #@! TF.SameCoordinates,Original*
G04 #@! TF.FileFunction,Paste,Top*
G04 #@! TF.FilePolarity,Positive*
%FSLAX46Y46*%
G04 Gerber Fmt 4.6, Leading zero omitted, Abs format (unit mm)*
G04 Created by KiCad (PCBNEW (5.1.4)-1) date 2020-02-17 01:36:26*
%MOMM*%
%LPD*%
G04 APERTURE LIST*
%ADD10R,0.600000X1.450000*%
%ADD11R,0.300000X1.450000*%
%ADD12C,0.100000*%
%ADD13C,0.875000*%
%ADD14C,0.600000*%
%ADD15C,1.200000*%
G04 APERTURE END LIST*
D10*
X7775000Y-6195000D03*
X14225000Y-6195000D03*
X8550000Y-6195000D03*
X13450000Y-6195000D03*
D11*
X12750000Y-6195000D03*
X9250000Y-6195000D03*
X12250000Y-6195000D03*
X9750000Y-6195000D03*
X11750000Y-6195000D03*
X10250000Y-6195000D03*
X10750000Y-6195000D03*
X11250000Y-6195000D03*
D12*
G36*
X15560191Y-7526053D02*
G01*
X15581426Y-7529203D01*
X15602250Y-7534419D01*
X15622462Y-7541651D01*
X15641868Y-7550830D01*
X15660281Y-7561866D01*
X15677524Y-7574654D01*
X15693430Y-7589070D01*
X15707846Y-7604976D01*
X15720634Y-7622219D01*
X15731670Y-7640632D01*
X15740849Y-7660038D01*
X15748081Y-7680250D01*
X15753297Y-7701074D01*
X15756447Y-7722309D01*
X15757500Y-7743750D01*
X15757500Y-8256250D01*
X15756447Y-8277691D01*
X15753297Y-8298926D01*
X15748081Y-8319750D01*
X15740849Y-8339962D01*
X15731670Y-8359368D01*
X15720634Y-8377781D01*
X15707846Y-8395024D01*
X15693430Y-8410930D01*
X15677524Y-8425346D01*
X15660281Y-8438134D01*
X15641868Y-8449170D01*
X15622462Y-8458349D01*
X15602250Y-8465581D01*
X15581426Y-8470797D01*
X15560191Y-8473947D01*
X15538750Y-8475000D01*
X15101250Y-8475000D01*
X15079809Y-8473947D01*
X15058574Y-8470797D01*
X15037750Y-8465581D01*
X15017538Y-8458349D01*
X14998132Y-8449170D01*
X14979719Y-8438134D01*
X14962476Y-8425346D01*
X14946570Y-8410930D01*
X14932154Y-8395024D01*
X14919366Y-8377781D01*
X14908330Y-8359368D01*
X14899151Y-8339962D01*
X14891919Y-8319750D01*
X14886703Y-8298926D01*
X14883553Y-8277691D01*
X14882500Y-8256250D01*
X14882500Y-7743750D01*
X14883553Y-7722309D01*
X14886703Y-7701074D01*
X14891919Y-7680250D01*
X14899151Y-7660038D01*
X14908330Y-7640632D01*
X14919366Y-7622219D01*
X14932154Y-7604976D01*
X14946570Y-7589070D01*
X14962476Y-7574654D01*
X14979719Y-7561866D01*
X14998132Y-7550830D01*
X15017538Y-7541651D01*
X15037750Y-7534419D01*
X15058574Y-7529203D01*
X15079809Y-7526053D01*
X15101250Y-7525000D01*
X15538750Y-7525000D01*
X15560191Y-7526053D01*
X15560191Y-7526053D01*
G37*
D13*
X15320000Y-8000000D03*
D12*
G36*
X13985191Y-7526053D02*
G01*
X14006426Y-7529203D01*
X14027250Y-7534419D01*
X14047462Y-7541651D01*
X14066868Y-7550830D01*
X14085281Y-7561866D01*
X14102524Y-7574654D01*
X14118430Y-7589070D01*
X14132846Y-7604976D01*
X14145634Y-7622219D01*
X14156670Y-7640632D01*
X14165849Y-7660038D01*
X14173081Y-7680250D01*
X14178297Y-7701074D01*
X14181447Y-7722309D01*
X14182500Y-7743750D01*
X14182500Y-8256250D01*
X14181447Y-8277691D01*
X14178297Y-8298926D01*
X14173081Y-8319750D01*
X14165849Y-8339962D01*
X14156670Y-8359368D01*
X14145634Y-8377781D01*
X14132846Y-8395024D01*
X14118430Y-8410930D01*
X14102524Y-8425346D01*
X14085281Y-8438134D01*
X14066868Y-8449170D01*
X14047462Y-8458349D01*
X14027250Y-8465581D01*
X14006426Y-8470797D01*
X13985191Y-8473947D01*
X13963750Y-8475000D01*
X13526250Y-8475000D01*
X13504809Y-8473947D01*
X13483574Y-8470797D01*
X13462750Y-8465581D01*
X13442538Y-8458349D01*
X13423132Y-8449170D01*
X13404719Y-8438134D01*
X13387476Y-8425346D01*
X13371570Y-8410930D01*
X13357154Y-8395024D01*
X13344366Y-8377781D01*
X13333330Y-8359368D01*
X13324151Y-8339962D01*
X13316919Y-8319750D01*
X13311703Y-8298926D01*
X13308553Y-8277691D01*
X13307500Y-8256250D01*
X13307500Y-7743750D01*
X13308553Y-7722309D01*
X13311703Y-7701074D01*
X13316919Y-7680250D01*
X13324151Y-7660038D01*
X13333330Y-7640632D01*
X13344366Y-7622219D01*
X13357154Y-7604976D01*
X13371570Y-7589070D01*
X13387476Y-7574654D01*
X13404719Y-7561866D01*
X13423132Y-7550830D01*
X13442538Y-7541651D01*
X13462750Y-7534419D01*
X13483574Y-7529203D01*
X13504809Y-7526053D01*
X13526250Y-7525000D01*
X13963750Y-7525000D01*
X13985191Y-7526053D01*
X13985191Y-7526053D01*
G37*
D13*
X13745000Y-8000000D03*
D12*
G36*
X15560191Y-9026053D02*
G01*
X15581426Y-9029203D01*
X15602250Y-9034419D01*
X15622462Y-9041651D01*
X15641868Y-9050830D01*
X15660281Y-9061866D01*
X15677524Y-9074654D01*
X15693430Y-9089070D01*
X15707846Y-9104976D01*
X15720634Y-9122219D01*
X15731670Y-9140632D01*
X15740849Y-9160038D01*
X15748081Y-9180250D01*
X15753297Y-9201074D01*
X15756447Y-9222309D01*
X15757500Y-9243750D01*
X15757500Y-9756250D01*
X15756447Y-9777691D01*
X15753297Y-9798926D01*
X15748081Y-9819750D01*
X15740849Y-9839962D01*
X15731670Y-9859368D01*
X15720634Y-9877781D01*
X15707846Y-9895024D01*
X15693430Y-9910930D01*
X15677524Y-9925346D01*
X15660281Y-9938134D01*
X15641868Y-9949170D01*
X15622462Y-9958349D01*
X15602250Y-9965581D01*
X15581426Y-9970797D01*
X15560191Y-9973947D01*
X15538750Y-9975000D01*
X15101250Y-9975000D01*
X15079809Y-9973947D01*
X15058574Y-9970797D01*
X15037750Y-9965581D01*
X15017538Y-9958349D01*
X14998132Y-9949170D01*
X14979719Y-9938134D01*
X14962476Y-9925346D01*
X14946570Y-9910930D01*
X14932154Y-9895024D01*
X14919366Y-9877781D01*
X14908330Y-9859368D01*
X14899151Y-9839962D01*
X14891919Y-9819750D01*
X14886703Y-9798926D01*
X14883553Y-9777691D01*
X14882500Y-9756250D01*
X14882500Y-9243750D01*
X14883553Y-9222309D01*
X14886703Y-9201074D01*
X14891919Y-9180250D01*
X14899151Y-9160038D01*
X14908330Y-9140632D01*
X14919366Y-9122219D01*
X14932154Y-9104976D01*
X14946570Y-9089070D01*
X14962476Y-9074654D01*
X14979719Y-9061866D01*
X14998132Y-9050830D01*
X15017538Y-9041651D01*
X15037750Y-9034419D01*
X15058574Y-9029203D01*
X15079809Y-9026053D01*
X15101250Y-9025000D01*
X15538750Y-9025000D01*
X15560191Y-9026053D01*
X15560191Y-9026053D01*
G37*
D13*
X15320000Y-9500000D03*
D12*
G36*
X13985191Y-9026053D02*
G01*
X14006426Y-9029203D01*
X14027250Y-9034419D01*
X14047462Y-9041651D01*
X14066868Y-9050830D01*
X14085281Y-9061866D01*
X14102524Y-9074654D01*
X14118430Y-9089070D01*
X14132846Y-9104976D01*
X14145634Y-9122219D01*
X14156670Y-9140632D01*
X14165849Y-9160038D01*
X14173081Y-9180250D01*
X14178297Y-9201074D01*
X14181447Y-9222309D01*
X14182500Y-9243750D01*
X14182500Y-9756250D01*
X14181447Y-9777691D01*
X14178297Y-9798926D01*
X14173081Y-9819750D01*
X14165849Y-9839962D01*
X14156670Y-9859368D01*
X14145634Y-9877781D01*
X14132846Y-9895024D01*
X14118430Y-9910930D01*
X14102524Y-9925346D01*
X14085281Y-9938134D01*
X14066868Y-9949170D01*
X14047462Y-9958349D01*
X14027250Y-9965581D01*
X14006426Y-9970797D01*
X13985191Y-9973947D01*
X13963750Y-9975000D01*
X13526250Y-9975000D01*
X13504809Y-9973947D01*
X13483574Y-9970797D01*
X13462750Y-9965581D01*
X13442538Y-9958349D01*
X13423132Y-9949170D01*
X13404719Y-9938134D01*
X13387476Y-9925346D01*
X13371570Y-9910930D01*
X13357154Y-9895024D01*
X13344366Y-9877781D01*
X13333330Y-9859368D01*
X13324151Y-9839962D01*
X13316919Y-9819750D01*
X13311703Y-9798926D01*
X13308553Y-9777691D01*
X13307500Y-9756250D01*
X13307500Y-9243750D01*
X13308553Y-9222309D01*
X13311703Y-9201074D01*
X13316919Y-9180250D01*
X13324151Y-9160038D01*
X13333330Y-9140632D01*
X13344366Y-9122219D01*
X13357154Y-9104976D01*
X13371570Y-9089070D01*
X13387476Y-9074654D01*
X13404719Y-9061866D01*
X13423132Y-9050830D01*
X13442538Y-9041651D01*
X13462750Y-9034419D01*
X13483574Y-9029203D01*
X13504809Y-9026053D01*
X13526250Y-9025000D01*
X13963750Y-9025000D01*
X13985191Y-9026053D01*
X13985191Y-9026053D01*
G37*
D13*
X13745000Y-9500000D03*
D12*
G36*
X5664703Y-16525722D02*
G01*
X5679264Y-16527882D01*
X5693543Y-16531459D01*
X5707403Y-16536418D01*
X5720710Y-16542712D01*
X5733336Y-16550280D01*
X5745159Y-16559048D01*
X5756066Y-16568934D01*
X5765952Y-16579841D01*
X5774720Y-16591664D01*
X5782288Y-16604290D01*
X5788582Y-16617597D01*
X5793541Y-16631457D01*
X5797118Y-16645736D01*
X5799278Y-16660297D01*
X5800000Y-16675000D01*
X5800000Y-17925000D01*
X5799278Y-17939703D01*
X5797118Y-17954264D01*
X5793541Y-17968543D01*
X5788582Y-17982403D01*
X5782288Y-17995710D01*
X5774720Y-18008336D01*
X5765952Y-18020159D01*
X5756066Y-18031066D01*
X5745159Y-18040952D01*
X5733336Y-18049720D01*
X5720710Y-18057288D01*
X5707403Y-18063582D01*
X5693543Y-18068541D01*
X5679264Y-18072118D01*
X5664703Y-18074278D01*
X5650000Y-18075000D01*
X5350000Y-18075000D01*
X5335297Y-18074278D01*
X5320736Y-18072118D01*
X5306457Y-18068541D01*
X5292597Y-18063582D01*
X5279290Y-18057288D01*
X5266664Y-18049720D01*
X5254841Y-18040952D01*
X5243934Y-18031066D01*
X5234048Y-18020159D01*
X5225280Y-18008336D01*
X5217712Y-17995710D01*
X5211418Y-17982403D01*
X5206459Y-17968543D01*
X5202882Y-17954264D01*
X5200722Y-17939703D01*
X5200000Y-17925000D01*
X5200000Y-16675000D01*
X5200722Y-16660297D01*
X5202882Y-16645736D01*
X5206459Y-16631457D01*
X5211418Y-16617597D01*
X5217712Y-16604290D01*
X5225280Y-16591664D01*
X5234048Y-16579841D01*
X5243934Y-16568934D01*
X5254841Y-16559048D01*
X5266664Y-16550280D01*
X5279290Y-16542712D01*
X5292597Y-16536418D01*
X5306457Y-16531459D01*
X5320736Y-16527882D01*
X5335297Y-16525722D01*
X5350000Y-16525000D01*
X5650000Y-16525000D01*
X5664703Y-16525722D01*
X5664703Y-16525722D01*
G37*
D14*
X5500000Y-17300000D03*
D12*
G36*
X4664703Y-16525722D02*
G01*
X4679264Y-16527882D01*
X4693543Y-16531459D01*
X4707403Y-16536418D01*
X4720710Y-16542712D01*
X4733336Y-16550280D01*
X4745159Y-16559048D01*
X4756066Y-16568934D01*
X4765952Y-16579841D01*
X4774720Y-16591664D01*
X4782288Y-16604290D01*
X4788582Y-16617597D01*
X4793541Y-16631457D01*
X4797118Y-16645736D01*
X4799278Y-16660297D01*
X4800000Y-16675000D01*
X4800000Y-17925000D01*
X4799278Y-17939703D01*
X4797118Y-17954264D01*
X4793541Y-17968543D01*
X4788582Y-17982403D01*
X4782288Y-17995710D01*
X4774720Y-18008336D01*
X4765952Y-18020159D01*
X4756066Y-18031066D01*
X4745159Y-18040952D01*
X4733336Y-18049720D01*
X4720710Y-18057288D01*
X4707403Y-18063582D01*
X4693543Y-18068541D01*
X4679264Y-18072118D01*
X4664703Y-18074278D01*
X4650000Y-18075000D01*
X4350000Y-18075000D01*
X4335297Y-18074278D01*
X4320736Y-18072118D01*
X4306457Y-18068541D01*
X4292597Y-18063582D01*
X4279290Y-18057288D01*
X4266664Y-18049720D01*
X4254841Y-18040952D01*
X4243934Y-18031066D01*
X4234048Y-18020159D01*
X4225280Y-18008336D01*
X4217712Y-17995710D01*
X4211418Y-17982403D01*
X4206459Y-17968543D01*
X4202882Y-17954264D01*
X4200722Y-17939703D01*
X4200000Y-17925000D01*
X4200000Y-16675000D01*
X4200722Y-16660297D01*
X4202882Y-16645736D01*
X4206459Y-16631457D01*
X4211418Y-16617597D01*
X4217712Y-16604290D01*
X4225280Y-16591664D01*
X4234048Y-16579841D01*
X4243934Y-16568934D01*
X4254841Y-16559048D01*
X4266664Y-16550280D01*
X4279290Y-16542712D01*
X4292597Y-16536418D01*
X4306457Y-16531459D01*
X4320736Y-16527882D01*
X4335297Y-16525722D01*
X4350000Y-16525000D01*
X4650000Y-16525000D01*
X4664703Y-16525722D01*
X4664703Y-16525722D01*
G37*
D14*
X4500000Y-17300000D03*
D12*
G36*
X3664703Y-16525722D02*
G01*
X3679264Y-16527882D01*
X3693543Y-16531459D01*
X3707403Y-16536418D01*
X3720710Y-16542712D01*
X3733336Y-16550280D01*
X3745159Y-16559048D01*
X3756066Y-16568934D01*
X3765952Y-16579841D01*
X3774720Y-16591664D01*
X3782288Y-16604290D01*
X3788582Y-16617597D01*
X3793541Y-16631457D01*
X3797118Y-16645736D01*
X3799278Y-16660297D01*
X3800000Y-16675000D01*
X3800000Y-17925000D01*
X3799278Y-17939703D01*
X3797118Y-17954264D01*
X3793541Y-17968543D01*
X3788582Y-17982403D01*
X3782288Y-17995710D01*
X3774720Y-18008336D01*
X3765952Y-18020159D01*
X3756066Y-18031066D01*
X3745159Y-18040952D01*
X3733336Y-18049720D01*
X3720710Y-18057288D01*
X3707403Y-18063582D01*
X3693543Y-18068541D01*
X3679264Y-18072118D01*
X3664703Y-18074278D01*
X3650000Y-18075000D01*
X3350000Y-18075000D01*
X3335297Y-18074278D01*
X3320736Y-18072118D01*
X3306457Y-18068541D01*
X3292597Y-18063582D01*
X3279290Y-18057288D01*
X3266664Y-18049720D01*
X3254841Y-18040952D01*
X3243934Y-18031066D01*
X3234048Y-18020159D01*
X3225280Y-18008336D01*
X3217712Y-17995710D01*
X3211418Y-17982403D01*
X3206459Y-17968543D01*
X3202882Y-17954264D01*
X3200722Y-17939703D01*
X3200000Y-17925000D01*
X3200000Y-16675000D01*
X3200722Y-16660297D01*
X3202882Y-16645736D01*
X3206459Y-16631457D01*
X3211418Y-16617597D01*
X3217712Y-16604290D01*
X3225280Y-16591664D01*
X3234048Y-16579841D01*
X3243934Y-16568934D01*
X3254841Y-16559048D01*
X3266664Y-16550280D01*
X3279290Y-16542712D01*
X3292597Y-16536418D01*
X3306457Y-16531459D01*
X3320736Y-16527882D01*
X3335297Y-16525722D01*
X3350000Y-16525000D01*
X3650000Y-16525000D01*
X3664703Y-16525722D01*
X3664703Y-16525722D01*
G37*
D14*
X3500000Y-17300000D03*
D12*
G36*
X2664703Y-16525722D02*
G01*
X2679264Y-16527882D01*
X2693543Y-16531459D01*
X2707403Y-16536418D01*
X2720710Y-16542712D01*
X2733336Y-16550280D01*
X2745159Y-16559048D01*
X2756066Y-16568934D01*
X2765952Y-16579841D01*
X2774720Y-16591664D01*
X2782288Y-16604290D01*
X2788582Y-16617597D01*
X2793541Y-16631457D01*
X2797118Y-16645736D01*
X2799278Y-16660297D01*
X2800000Y-16675000D01*
X2800000Y-17925000D01*
X2799278Y-17939703D01*
X2797118Y-17954264D01*
X2793541Y-17968543D01*
X2788582Y-17982403D01*
X2782288Y-17995710D01*
X2774720Y-18008336D01*
X2765952Y-18020159D01*
X2756066Y-18031066D01*
X2745159Y-18040952D01*
X2733336Y-18049720D01*
X2720710Y-18057288D01*
X2707403Y-18063582D01*
X2693543Y-18068541D01*
X2679264Y-18072118D01*
X2664703Y-18074278D01*
X2650000Y-18075000D01*
X2350000Y-18075000D01*
X2335297Y-18074278D01*
X2320736Y-18072118D01*
X2306457Y-18068541D01*
X2292597Y-18063582D01*
X2279290Y-18057288D01*
X2266664Y-18049720D01*
X2254841Y-18040952D01*
X2243934Y-18031066D01*
X2234048Y-18020159D01*
X2225280Y-18008336D01*
X2217712Y-17995710D01*
X2211418Y-17982403D01*
X2206459Y-17968543D01*
X2202882Y-17954264D01*
X2200722Y-17939703D01*
X2200000Y-17925000D01*
X2200000Y-16675000D01*
X2200722Y-16660297D01*
X2202882Y-16645736D01*
X2206459Y-16631457D01*
X2211418Y-16617597D01*
X2217712Y-16604290D01*
X2225280Y-16591664D01*
X2234048Y-16579841D01*
X2243934Y-16568934D01*
X2254841Y-16559048D01*
X2266664Y-16550280D01*
X2279290Y-16542712D01*
X2292597Y-16536418D01*
X2306457Y-16531459D01*
X2320736Y-16527882D01*
X2335297Y-16525722D01*
X2350000Y-16525000D01*
X2650000Y-16525000D01*
X2664703Y-16525722D01*
X2664703Y-16525722D01*
G37*
D14*
X2500000Y-17300000D03*
D12*
G36*
X7174505Y-12526204D02*
G01*
X7198773Y-12529804D01*
X7222572Y-12535765D01*
X7245671Y-12544030D01*
X7267850Y-12554520D01*
X7288893Y-12567132D01*
X7308599Y-12581747D01*
X7326777Y-12598223D01*
X7343253Y-12616401D01*
X7357868Y-12636107D01*
X7370480Y-12657150D01*
X7380970Y-12679329D01*
X7389235Y-12702428D01*
X7395196Y-12726227D01*
X7398796Y-12750495D01*
X7400000Y-12774999D01*
X7400000Y-14075001D01*
X7398796Y-14099505D01*
X7395196Y-14123773D01*
X7389235Y-14147572D01*
X7380970Y-14170671D01*
X7370480Y-14192850D01*
X7357868Y-14213893D01*
X7343253Y-14233599D01*
X7326777Y-14251777D01*
X7308599Y-14268253D01*
X7288893Y-14282868D01*
X7267850Y-14295480D01*
X7245671Y-14305970D01*
X7222572Y-14314235D01*
X7198773Y-14320196D01*
X7174505Y-14323796D01*
X7150001Y-14325000D01*
X6449999Y-14325000D01*
X6425495Y-14323796D01*
X6401227Y-14320196D01*
X6377428Y-14314235D01*
X6354329Y-14305970D01*
X6332150Y-14295480D01*
X6311107Y-14282868D01*
X6291401Y-14268253D01*
X6273223Y-14251777D01*
X6256747Y-14233599D01*
X6242132Y-14213893D01*
X6229520Y-14192850D01*
X6219030Y-14170671D01*
X6210765Y-14147572D01*
X6204804Y-14123773D01*
X6201204Y-14099505D01*
X6200000Y-14075001D01*
X6200000Y-12774999D01*
X6201204Y-12750495D01*
X6204804Y-12726227D01*
X6210765Y-12702428D01*
X6219030Y-12679329D01*
X6229520Y-12657150D01*
X6242132Y-12636107D01*
X6256747Y-12616401D01*
X6273223Y-12598223D01*
X6291401Y-12581747D01*
X6311107Y-12567132D01*
X6332150Y-12554520D01*
X6354329Y-12544030D01*
X6377428Y-12535765D01*
X6401227Y-12529804D01*
X6425495Y-12526204D01*
X6449999Y-12525000D01*
X7150001Y-12525000D01*
X7174505Y-12526204D01*
X7174505Y-12526204D01*
G37*
D15*
X6800000Y-13425000D03*
D12*
G36*
X1574505Y-12526204D02*
G01*
X1598773Y-12529804D01*
X1622572Y-12535765D01*
X1645671Y-12544030D01*
X1667850Y-12554520D01*
X1688893Y-12567132D01*
X1708599Y-12581747D01*
X1726777Y-12598223D01*
X1743253Y-12616401D01*
X1757868Y-12636107D01*
X1770480Y-12657150D01*
X1780970Y-12679329D01*
X1789235Y-12702428D01*
X1795196Y-12726227D01*
X1798796Y-12750495D01*
X1800000Y-12774999D01*
X1800000Y-14075001D01*
X1798796Y-14099505D01*
X1795196Y-14123773D01*
X1789235Y-14147572D01*
X1780970Y-14170671D01*
X1770480Y-14192850D01*
X1757868Y-14213893D01*
X1743253Y-14233599D01*
X1726777Y-14251777D01*
X1708599Y-14268253D01*
X1688893Y-14282868D01*
X1667850Y-14295480D01*
X1645671Y-14305970D01*
X1622572Y-14314235D01*
X1598773Y-14320196D01*
X1574505Y-14323796D01*
X1550001Y-14325000D01*
X849999Y-14325000D01*
X825495Y-14323796D01*
X801227Y-14320196D01*
X777428Y-14314235D01*
X754329Y-14305970D01*
X732150Y-14295480D01*
X711107Y-14282868D01*
X691401Y-14268253D01*
X673223Y-14251777D01*
X656747Y-14233599D01*
X642132Y-14213893D01*
X629520Y-14192850D01*
X619030Y-14170671D01*
X610765Y-14147572D01*
X604804Y-14123773D01*
X601204Y-14099505D01*
X600000Y-14075001D01*
X600000Y-12774999D01*
X601204Y-12750495D01*
X604804Y-12726227D01*
X610765Y-12702428D01*
X619030Y-12679329D01*
X629520Y-12657150D01*
X642132Y-12636107D01*
X656747Y-12616401D01*
X673223Y-12598223D01*
X691401Y-12581747D01*
X711107Y-12567132D01*
X732150Y-12554520D01*
X754329Y-12544030D01*
X777428Y-12535765D01*
X801227Y-12529804D01*
X825495Y-12526204D01*
X849999Y-12525000D01*
X1550001Y-12525000D01*
X1574505Y-12526204D01*
X1574505Y-12526204D01*
G37*
D15*
X1200000Y-13425000D03*
M02*
