G04 #@! TF.GenerationSoftware,KiCad,Pcbnew,(5.1.0)-1*
G04 #@! TF.CreationDate,2019-04-26T02:02:26-07:00*
G04 #@! TF.ProjectId,daughterboard,64617567-6874-4657-9262-6f6172642e6b,rev?*
G04 #@! TF.SameCoordinates,Original*
G04 #@! TF.FileFunction,Soldermask,Top*
G04 #@! TF.FilePolarity,Negative*
%FSLAX46Y46*%
G04 Gerber Fmt 4.6, Leading zero omitted, Abs format (unit mm)*
G04 Created by KiCad (PCBNEW (5.1.0)-1) date 2019-04-26 02:02:26*
%MOMM*%
%LPD*%
G04 APERTURE LIST*
%ADD10C,0.100000*%
G04 APERTURE END LIST*
D10*
G36*
X11209588Y-15868140D02*
G01*
X11335734Y-15893232D01*
X11545203Y-15979997D01*
X11733720Y-16105960D01*
X11894040Y-16266280D01*
X12020003Y-16454797D01*
X12106768Y-16664266D01*
X12151000Y-16886636D01*
X12151000Y-17113364D01*
X12106768Y-17335734D01*
X12020003Y-17545203D01*
X11894040Y-17733720D01*
X11733720Y-17894040D01*
X11545203Y-18020003D01*
X11545202Y-18020004D01*
X11545201Y-18020004D01*
X11508169Y-18035343D01*
X11335734Y-18106768D01*
X11224549Y-18128884D01*
X11113365Y-18151000D01*
X10886635Y-18151000D01*
X10775451Y-18128884D01*
X10664266Y-18106768D01*
X10491831Y-18035343D01*
X10454799Y-18020004D01*
X10454798Y-18020004D01*
X10454797Y-18020003D01*
X10266280Y-17894040D01*
X10105960Y-17733720D01*
X9979997Y-17545203D01*
X9893232Y-17335734D01*
X9849000Y-17113364D01*
X9849000Y-16886636D01*
X9893232Y-16664266D01*
X9979997Y-16454797D01*
X10105960Y-16266280D01*
X10266280Y-16105960D01*
X10454797Y-15979997D01*
X10664266Y-15893232D01*
X10790412Y-15868140D01*
X10886635Y-15849000D01*
X11113365Y-15849000D01*
X11209588Y-15868140D01*
X11209588Y-15868140D01*
G37*
G36*
X3691242Y-16753404D02*
G01*
X3728337Y-16764657D01*
X3762515Y-16782925D01*
X3792481Y-16807519D01*
X3817075Y-16837485D01*
X3835343Y-16871663D01*
X3846596Y-16908758D01*
X3851000Y-16953474D01*
X3851000Y-17846526D01*
X3846596Y-17891242D01*
X3835343Y-17928337D01*
X3817075Y-17962515D01*
X3792481Y-17992481D01*
X3762515Y-18017075D01*
X3728337Y-18035343D01*
X3691242Y-18046596D01*
X3646526Y-18051000D01*
X2153474Y-18051000D01*
X2108758Y-18046596D01*
X2071663Y-18035343D01*
X2037485Y-18017075D01*
X2007519Y-17992481D01*
X1982925Y-17962515D01*
X1964657Y-17928337D01*
X1953404Y-17891242D01*
X1949000Y-17846526D01*
X1949000Y-16953474D01*
X1953404Y-16908758D01*
X1964657Y-16871663D01*
X1982925Y-16837485D01*
X2007519Y-16807519D01*
X2037485Y-16782925D01*
X2071663Y-16764657D01*
X2108758Y-16753404D01*
X2153474Y-16749000D01*
X3646526Y-16749000D01*
X3691242Y-16753404D01*
X3691242Y-16753404D01*
G37*
G36*
X7509928Y-15751764D02*
G01*
X7531009Y-15758160D01*
X7550445Y-15768548D01*
X7567476Y-15782524D01*
X7581452Y-15799555D01*
X7591840Y-15818991D01*
X7598236Y-15840072D01*
X7601000Y-15868140D01*
X7601000Y-16331860D01*
X7598236Y-16359928D01*
X7591840Y-16381009D01*
X7581452Y-16400445D01*
X7567476Y-16417476D01*
X7550445Y-16431452D01*
X7531009Y-16441840D01*
X7509928Y-16448236D01*
X7481860Y-16451000D01*
X6068140Y-16451000D01*
X6040072Y-16448236D01*
X6018991Y-16441840D01*
X5999555Y-16431452D01*
X5982524Y-16417476D01*
X5968548Y-16400445D01*
X5958160Y-16381009D01*
X5951764Y-16359928D01*
X5949000Y-16331860D01*
X5949000Y-15868140D01*
X5951764Y-15840072D01*
X5958160Y-15818991D01*
X5968548Y-15799555D01*
X5982524Y-15782524D01*
X5999555Y-15768548D01*
X6018991Y-15758160D01*
X6040072Y-15751764D01*
X6068140Y-15749000D01*
X7481860Y-15749000D01*
X7509928Y-15751764D01*
X7509928Y-15751764D01*
G37*
G36*
X7509928Y-14751764D02*
G01*
X7531009Y-14758160D01*
X7550445Y-14768548D01*
X7567476Y-14782524D01*
X7581452Y-14799555D01*
X7591840Y-14818991D01*
X7598236Y-14840072D01*
X7601000Y-14868140D01*
X7601000Y-15331860D01*
X7598236Y-15359928D01*
X7591840Y-15381009D01*
X7581452Y-15400445D01*
X7567476Y-15417476D01*
X7550445Y-15431452D01*
X7531009Y-15441840D01*
X7509928Y-15448236D01*
X7481860Y-15451000D01*
X6068140Y-15451000D01*
X6040072Y-15448236D01*
X6018991Y-15441840D01*
X5999555Y-15431452D01*
X5982524Y-15417476D01*
X5968548Y-15400445D01*
X5958160Y-15381009D01*
X5951764Y-15359928D01*
X5949000Y-15331860D01*
X5949000Y-14868140D01*
X5951764Y-14840072D01*
X5958160Y-14818991D01*
X5968548Y-14799555D01*
X5982524Y-14782524D01*
X5999555Y-14768548D01*
X6018991Y-14758160D01*
X6040072Y-14751764D01*
X6068140Y-14749000D01*
X7481860Y-14749000D01*
X7509928Y-14751764D01*
X7509928Y-14751764D01*
G37*
G36*
X7509928Y-13751764D02*
G01*
X7531009Y-13758160D01*
X7550445Y-13768548D01*
X7567476Y-13782524D01*
X7581452Y-13799555D01*
X7591840Y-13818991D01*
X7598236Y-13840072D01*
X7601000Y-13868140D01*
X7601000Y-14331860D01*
X7598236Y-14359928D01*
X7591840Y-14381009D01*
X7581452Y-14400445D01*
X7567476Y-14417476D01*
X7550445Y-14431452D01*
X7531009Y-14441840D01*
X7509928Y-14448236D01*
X7481860Y-14451000D01*
X6068140Y-14451000D01*
X6040072Y-14448236D01*
X6018991Y-14441840D01*
X5999555Y-14431452D01*
X5982524Y-14417476D01*
X5968548Y-14400445D01*
X5958160Y-14381009D01*
X5951764Y-14359928D01*
X5949000Y-14331860D01*
X5949000Y-13868140D01*
X5951764Y-13840072D01*
X5958160Y-13818991D01*
X5968548Y-13799555D01*
X5982524Y-13782524D01*
X5999555Y-13768548D01*
X6018991Y-13758160D01*
X6040072Y-13751764D01*
X6068140Y-13749000D01*
X7481860Y-13749000D01*
X7509928Y-13751764D01*
X7509928Y-13751764D01*
G37*
G36*
X7509928Y-12751764D02*
G01*
X7531009Y-12758160D01*
X7550445Y-12768548D01*
X7567476Y-12782524D01*
X7581452Y-12799555D01*
X7591840Y-12818991D01*
X7598236Y-12840072D01*
X7601000Y-12868140D01*
X7601000Y-13331860D01*
X7598236Y-13359928D01*
X7591840Y-13381009D01*
X7581452Y-13400445D01*
X7567476Y-13417476D01*
X7550445Y-13431452D01*
X7531009Y-13441840D01*
X7509928Y-13448236D01*
X7481860Y-13451000D01*
X6068140Y-13451000D01*
X6040072Y-13448236D01*
X6018991Y-13441840D01*
X5999555Y-13431452D01*
X5982524Y-13417476D01*
X5968548Y-13400445D01*
X5958160Y-13381009D01*
X5951764Y-13359928D01*
X5949000Y-13331860D01*
X5949000Y-12868140D01*
X5951764Y-12840072D01*
X5958160Y-12818991D01*
X5968548Y-12799555D01*
X5982524Y-12782524D01*
X5999555Y-12768548D01*
X6018991Y-12758160D01*
X6040072Y-12751764D01*
X6068140Y-12749000D01*
X7481860Y-12749000D01*
X7509928Y-12751764D01*
X7509928Y-12751764D01*
G37*
G36*
X3691242Y-11153404D02*
G01*
X3728337Y-11164657D01*
X3762515Y-11182925D01*
X3792481Y-11207519D01*
X3817075Y-11237485D01*
X3835343Y-11271663D01*
X3846596Y-11308758D01*
X3851000Y-11353474D01*
X3851000Y-12246526D01*
X3846596Y-12291242D01*
X3835343Y-12328337D01*
X3817075Y-12362515D01*
X3792481Y-12392481D01*
X3762515Y-12417075D01*
X3728337Y-12435343D01*
X3691242Y-12446596D01*
X3646526Y-12451000D01*
X2153474Y-12451000D01*
X2108758Y-12446596D01*
X2071663Y-12435343D01*
X2037485Y-12417075D01*
X2007519Y-12392481D01*
X1982925Y-12362515D01*
X1964657Y-12328337D01*
X1953404Y-12291242D01*
X1949000Y-12246526D01*
X1949000Y-11353474D01*
X1953404Y-11308758D01*
X1964657Y-11271663D01*
X1982925Y-11237485D01*
X2007519Y-11207519D01*
X2037485Y-11182925D01*
X2071663Y-11164657D01*
X2108758Y-11153404D01*
X2153474Y-11149000D01*
X3646526Y-11149000D01*
X3691242Y-11153404D01*
X3691242Y-11153404D01*
G37*
G36*
X11751000Y-11851000D02*
G01*
X10649000Y-11851000D01*
X10649000Y-10349000D01*
X11751000Y-10349000D01*
X11751000Y-11851000D01*
X11751000Y-11851000D01*
G37*
G36*
X10131000Y-11851000D02*
G01*
X8829000Y-11851000D01*
X8829000Y-10349000D01*
X10131000Y-10349000D01*
X10131000Y-11851000D01*
X10131000Y-11851000D01*
G37*
G36*
X9851000Y-9651000D02*
G01*
X8749000Y-9651000D01*
X8749000Y-8149000D01*
X9851000Y-8149000D01*
X9851000Y-9651000D01*
X9851000Y-9651000D01*
G37*
G36*
X11751000Y-9651000D02*
G01*
X10649000Y-9651000D01*
X10649000Y-8149000D01*
X11751000Y-8149000D01*
X11751000Y-9651000D01*
X11751000Y-9651000D01*
G37*
G36*
X7809468Y-8153565D02*
G01*
X7848138Y-8165296D01*
X7883777Y-8184346D01*
X7915017Y-8209983D01*
X7940654Y-8241223D01*
X7959704Y-8276862D01*
X7971435Y-8315532D01*
X7976000Y-8361888D01*
X7976000Y-9438112D01*
X7971435Y-9484468D01*
X7959704Y-9523138D01*
X7940654Y-9558777D01*
X7915017Y-9590017D01*
X7883777Y-9615654D01*
X7848138Y-9634704D01*
X7809468Y-9646435D01*
X7763112Y-9651000D01*
X7111888Y-9651000D01*
X7065532Y-9646435D01*
X7026862Y-9634704D01*
X6991223Y-9615654D01*
X6959983Y-9590017D01*
X6934346Y-9558777D01*
X6915296Y-9523138D01*
X6903565Y-9484468D01*
X6899000Y-9438112D01*
X6899000Y-8361888D01*
X6903565Y-8315532D01*
X6915296Y-8276862D01*
X6934346Y-8241223D01*
X6959983Y-8209983D01*
X6991223Y-8184346D01*
X7026862Y-8165296D01*
X7065532Y-8153565D01*
X7111888Y-8149000D01*
X7763112Y-8149000D01*
X7809468Y-8153565D01*
X7809468Y-8153565D01*
G37*
G36*
X5934468Y-8153565D02*
G01*
X5973138Y-8165296D01*
X6008777Y-8184346D01*
X6040017Y-8209983D01*
X6065654Y-8241223D01*
X6084704Y-8276862D01*
X6096435Y-8315532D01*
X6101000Y-8361888D01*
X6101000Y-9438112D01*
X6096435Y-9484468D01*
X6084704Y-9523138D01*
X6065654Y-9558777D01*
X6040017Y-9590017D01*
X6008777Y-9615654D01*
X5973138Y-9634704D01*
X5934468Y-9646435D01*
X5888112Y-9651000D01*
X5236888Y-9651000D01*
X5190532Y-9646435D01*
X5151862Y-9634704D01*
X5116223Y-9615654D01*
X5084983Y-9590017D01*
X5059346Y-9558777D01*
X5040296Y-9523138D01*
X5028565Y-9484468D01*
X5024000Y-9438112D01*
X5024000Y-8361888D01*
X5028565Y-8315532D01*
X5040296Y-8276862D01*
X5059346Y-8241223D01*
X5084983Y-8209983D01*
X5116223Y-8184346D01*
X5151862Y-8165296D01*
X5190532Y-8153565D01*
X5236888Y-8149000D01*
X5888112Y-8149000D01*
X5934468Y-8153565D01*
X5934468Y-8153565D01*
G37*
G36*
X2554591Y-8378085D02*
G01*
X2588569Y-8388393D01*
X2619890Y-8405134D01*
X2647339Y-8427661D01*
X2669866Y-8455110D01*
X2686607Y-8486431D01*
X2696915Y-8520409D01*
X2701000Y-8561890D01*
X2701000Y-9238110D01*
X2696915Y-9279591D01*
X2686607Y-9313569D01*
X2669866Y-9344890D01*
X2647339Y-9372339D01*
X2619890Y-9394866D01*
X2588569Y-9411607D01*
X2554591Y-9421915D01*
X2513110Y-9426000D01*
X1911890Y-9426000D01*
X1870409Y-9421915D01*
X1836431Y-9411607D01*
X1805110Y-9394866D01*
X1777661Y-9372339D01*
X1755134Y-9344890D01*
X1738393Y-9313569D01*
X1728085Y-9279591D01*
X1724000Y-9238110D01*
X1724000Y-8561890D01*
X1728085Y-8520409D01*
X1738393Y-8486431D01*
X1755134Y-8455110D01*
X1777661Y-8427661D01*
X1805110Y-8405134D01*
X1836431Y-8388393D01*
X1870409Y-8378085D01*
X1911890Y-8374000D01*
X2513110Y-8374000D01*
X2554591Y-8378085D01*
X2554591Y-8378085D01*
G37*
G36*
X4129591Y-8378085D02*
G01*
X4163569Y-8388393D01*
X4194890Y-8405134D01*
X4222339Y-8427661D01*
X4244866Y-8455110D01*
X4261607Y-8486431D01*
X4271915Y-8520409D01*
X4276000Y-8561890D01*
X4276000Y-9238110D01*
X4271915Y-9279591D01*
X4261607Y-9313569D01*
X4244866Y-9344890D01*
X4222339Y-9372339D01*
X4194890Y-9394866D01*
X4163569Y-9411607D01*
X4129591Y-9421915D01*
X4088110Y-9426000D01*
X3486890Y-9426000D01*
X3445409Y-9421915D01*
X3411431Y-9411607D01*
X3380110Y-9394866D01*
X3352661Y-9372339D01*
X3330134Y-9344890D01*
X3313393Y-9313569D01*
X3303085Y-9279591D01*
X3299000Y-9238110D01*
X3299000Y-8561890D01*
X3303085Y-8520409D01*
X3313393Y-8486431D01*
X3330134Y-8455110D01*
X3352661Y-8427661D01*
X3380110Y-8405134D01*
X3411431Y-8388393D01*
X3445409Y-8378085D01*
X3486890Y-8374000D01*
X4088110Y-8374000D01*
X4129591Y-8378085D01*
X4129591Y-8378085D01*
G37*
G36*
X16629591Y-6778085D02*
G01*
X16663569Y-6788393D01*
X16694890Y-6805134D01*
X16722339Y-6827661D01*
X16744866Y-6855110D01*
X16761607Y-6886431D01*
X16771915Y-6920409D01*
X16776000Y-6961890D01*
X16776000Y-7638110D01*
X16771915Y-7679591D01*
X16761607Y-7713569D01*
X16744866Y-7744890D01*
X16722339Y-7772339D01*
X16694890Y-7794866D01*
X16663569Y-7811607D01*
X16629591Y-7821915D01*
X16588110Y-7826000D01*
X15986890Y-7826000D01*
X15945409Y-7821915D01*
X15911431Y-7811607D01*
X15880110Y-7794866D01*
X15852661Y-7772339D01*
X15830134Y-7744890D01*
X15813393Y-7713569D01*
X15803085Y-7679591D01*
X15799000Y-7638110D01*
X15799000Y-6961890D01*
X15803085Y-6920409D01*
X15813393Y-6886431D01*
X15830134Y-6855110D01*
X15852661Y-6827661D01*
X15880110Y-6805134D01*
X15911431Y-6788393D01*
X15945409Y-6778085D01*
X15986890Y-6774000D01*
X16588110Y-6774000D01*
X16629591Y-6778085D01*
X16629591Y-6778085D01*
G37*
G36*
X15054591Y-6778085D02*
G01*
X15088569Y-6788393D01*
X15119890Y-6805134D01*
X15147339Y-6827661D01*
X15169866Y-6855110D01*
X15186607Y-6886431D01*
X15196915Y-6920409D01*
X15201000Y-6961890D01*
X15201000Y-7638110D01*
X15196915Y-7679591D01*
X15186607Y-7713569D01*
X15169866Y-7744890D01*
X15147339Y-7772339D01*
X15119890Y-7794866D01*
X15088569Y-7811607D01*
X15054591Y-7821915D01*
X15013110Y-7826000D01*
X14411890Y-7826000D01*
X14370409Y-7821915D01*
X14336431Y-7811607D01*
X14305110Y-7794866D01*
X14277661Y-7772339D01*
X14255134Y-7744890D01*
X14238393Y-7713569D01*
X14228085Y-7679591D01*
X14224000Y-7638110D01*
X14224000Y-6961890D01*
X14228085Y-6920409D01*
X14238393Y-6886431D01*
X14255134Y-6855110D01*
X14277661Y-6827661D01*
X14305110Y-6805134D01*
X14336431Y-6788393D01*
X14370409Y-6778085D01*
X14411890Y-6774000D01*
X15013110Y-6774000D01*
X15054591Y-6778085D01*
X15054591Y-6778085D01*
G37*
G36*
X3879591Y-6403085D02*
G01*
X3913569Y-6413393D01*
X3944890Y-6430134D01*
X3972339Y-6452661D01*
X3994866Y-6480110D01*
X4011607Y-6511431D01*
X4021915Y-6545409D01*
X4026000Y-6586890D01*
X4026000Y-7188110D01*
X4021915Y-7229591D01*
X4011607Y-7263569D01*
X3994866Y-7294890D01*
X3972339Y-7322339D01*
X3944890Y-7344866D01*
X3913569Y-7361607D01*
X3879591Y-7371915D01*
X3838110Y-7376000D01*
X3161890Y-7376000D01*
X3120409Y-7371915D01*
X3086431Y-7361607D01*
X3055110Y-7344866D01*
X3027661Y-7322339D01*
X3005134Y-7294890D01*
X2988393Y-7263569D01*
X2978085Y-7229591D01*
X2974000Y-7188110D01*
X2974000Y-6586890D01*
X2978085Y-6545409D01*
X2988393Y-6511431D01*
X3005134Y-6480110D01*
X3027661Y-6452661D01*
X3055110Y-6430134D01*
X3086431Y-6413393D01*
X3120409Y-6403085D01*
X3161890Y-6399000D01*
X3838110Y-6399000D01*
X3879591Y-6403085D01*
X3879591Y-6403085D01*
G37*
G36*
X14428015Y-4186973D02*
G01*
X14531879Y-4218479D01*
X14559055Y-4233005D01*
X14627600Y-4269643D01*
X14711501Y-4338499D01*
X14780357Y-4422400D01*
X14799354Y-4457942D01*
X14831521Y-4518121D01*
X14863027Y-4621985D01*
X14871000Y-4702933D01*
X14871000Y-5857067D01*
X14863027Y-5938015D01*
X14831521Y-6041879D01*
X14807987Y-6085907D01*
X14780357Y-6137599D01*
X14780354Y-6137603D01*
X14711501Y-6221501D01*
X14642645Y-6278009D01*
X14627599Y-6290357D01*
X14575907Y-6317987D01*
X14531878Y-6341521D01*
X14428014Y-6373027D01*
X14320000Y-6383666D01*
X14211985Y-6373027D01*
X14108121Y-6341521D01*
X14064093Y-6317987D01*
X14012401Y-6290357D01*
X13999643Y-6279887D01*
X13928499Y-6221501D01*
X13859644Y-6137600D01*
X13811230Y-6047024D01*
X13797625Y-6026664D01*
X13780298Y-6009337D01*
X13759924Y-5995723D01*
X13737285Y-5986346D01*
X13713252Y-5981565D01*
X13688748Y-5981565D01*
X13664714Y-5986345D01*
X13642075Y-5995722D01*
X13621701Y-6009336D01*
X13604374Y-6026663D01*
X13590760Y-6047037D01*
X13581383Y-6069676D01*
X13576602Y-6093709D01*
X13576000Y-6105962D01*
X13576000Y-6971000D01*
X6424000Y-6971000D01*
X6424000Y-6105963D01*
X6421598Y-6081577D01*
X6414485Y-6058128D01*
X6402934Y-6036517D01*
X6387389Y-6017575D01*
X6368447Y-6002030D01*
X6346836Y-5990479D01*
X6323387Y-5983366D01*
X6299001Y-5980964D01*
X6274615Y-5983366D01*
X6251166Y-5990479D01*
X6229555Y-6002030D01*
X6210613Y-6017575D01*
X6195068Y-6036517D01*
X6188778Y-6047010D01*
X6140356Y-6137600D01*
X6140355Y-6137602D01*
X6071501Y-6221501D01*
X6002645Y-6278009D01*
X5987599Y-6290357D01*
X5935907Y-6317987D01*
X5891878Y-6341521D01*
X5788014Y-6373027D01*
X5680000Y-6383666D01*
X5571985Y-6373027D01*
X5468121Y-6341521D01*
X5424093Y-6317987D01*
X5372401Y-6290357D01*
X5359643Y-6279887D01*
X5288499Y-6221501D01*
X5219646Y-6137603D01*
X5219643Y-6137599D01*
X5189699Y-6081577D01*
X5168479Y-6041878D01*
X5136973Y-5938014D01*
X5129000Y-5857066D01*
X5129001Y-4702933D01*
X5136974Y-4621985D01*
X5168480Y-4518121D01*
X5200647Y-4457942D01*
X5219644Y-4422400D01*
X5288500Y-4338499D01*
X5372401Y-4269643D01*
X5440946Y-4233005D01*
X5468122Y-4218479D01*
X5571986Y-4186973D01*
X5680000Y-4176334D01*
X5788015Y-4186973D01*
X5891879Y-4218479D01*
X5919055Y-4233005D01*
X5987600Y-4269643D01*
X6071501Y-4338499D01*
X6140357Y-4422400D01*
X6159354Y-4457942D01*
X6191521Y-4518121D01*
X6223027Y-4621985D01*
X6231000Y-4702933D01*
X6231000Y-5294001D01*
X6233402Y-5318387D01*
X6240515Y-5341836D01*
X6252066Y-5363447D01*
X6267611Y-5382389D01*
X6286553Y-5397934D01*
X6308164Y-5409485D01*
X6331613Y-5416598D01*
X6355999Y-5419000D01*
X13644001Y-5419000D01*
X13668387Y-5416598D01*
X13691836Y-5409485D01*
X13713447Y-5397934D01*
X13732389Y-5382389D01*
X13747934Y-5363447D01*
X13759485Y-5341836D01*
X13766598Y-5318387D01*
X13769000Y-5294001D01*
X13769001Y-4702939D01*
X13769001Y-4702933D01*
X13776974Y-4621985D01*
X13808480Y-4518121D01*
X13840647Y-4457942D01*
X13859644Y-4422400D01*
X13928500Y-4338499D01*
X14012401Y-4269643D01*
X14080946Y-4233005D01*
X14108122Y-4218479D01*
X14211986Y-4186973D01*
X14320000Y-4176334D01*
X14428015Y-4186973D01*
X14428015Y-4186973D01*
G37*
G36*
X3879591Y-4828085D02*
G01*
X3913569Y-4838393D01*
X3944890Y-4855134D01*
X3972339Y-4877661D01*
X3994866Y-4905110D01*
X4011607Y-4936431D01*
X4021915Y-4970409D01*
X4026000Y-5011890D01*
X4026000Y-5613110D01*
X4021915Y-5654591D01*
X4011607Y-5688569D01*
X3994866Y-5719890D01*
X3972339Y-5747339D01*
X3944890Y-5769866D01*
X3913569Y-5786607D01*
X3879591Y-5796915D01*
X3838110Y-5801000D01*
X3161890Y-5801000D01*
X3120409Y-5796915D01*
X3086431Y-5786607D01*
X3055110Y-5769866D01*
X3027661Y-5747339D01*
X3005134Y-5719890D01*
X2988393Y-5688569D01*
X2978085Y-5654591D01*
X2974000Y-5613110D01*
X2974000Y-5011890D01*
X2978085Y-4970409D01*
X2988393Y-4936431D01*
X3005134Y-4905110D01*
X3027661Y-4877661D01*
X3055110Y-4855134D01*
X3086431Y-4838393D01*
X3120409Y-4828085D01*
X3161890Y-4824000D01*
X3838110Y-4824000D01*
X3879591Y-4828085D01*
X3879591Y-4828085D01*
G37*
G36*
X7219672Y-4388449D02*
G01*
X7219674Y-4388450D01*
X7219675Y-4388450D01*
X7288103Y-4416793D01*
X7349686Y-4457942D01*
X7402058Y-4510314D01*
X7443207Y-4571897D01*
X7463954Y-4621987D01*
X7471551Y-4640328D01*
X7486000Y-4712966D01*
X7486000Y-4787034D01*
X7472454Y-4855134D01*
X7471550Y-4859675D01*
X7443207Y-4928103D01*
X7402058Y-4989686D01*
X7349686Y-5042058D01*
X7288103Y-5083207D01*
X7219675Y-5111550D01*
X7219674Y-5111550D01*
X7219672Y-5111551D01*
X7147034Y-5126000D01*
X7072966Y-5126000D01*
X7000328Y-5111551D01*
X7000326Y-5111550D01*
X7000325Y-5111550D01*
X6931897Y-5083207D01*
X6870314Y-5042058D01*
X6817942Y-4989686D01*
X6776793Y-4928103D01*
X6748450Y-4859675D01*
X6747547Y-4855134D01*
X6734000Y-4787034D01*
X6734000Y-4712966D01*
X6748449Y-4640328D01*
X6756046Y-4621987D01*
X6776793Y-4571897D01*
X6817942Y-4510314D01*
X6870314Y-4457942D01*
X6931897Y-4416793D01*
X7000325Y-4388450D01*
X7000326Y-4388450D01*
X7000328Y-4388449D01*
X7072966Y-4374000D01*
X7147034Y-4374000D01*
X7219672Y-4388449D01*
X7219672Y-4388449D01*
G37*
G36*
X12999672Y-4388449D02*
G01*
X12999674Y-4388450D01*
X12999675Y-4388450D01*
X13068103Y-4416793D01*
X13129686Y-4457942D01*
X13182058Y-4510314D01*
X13223207Y-4571897D01*
X13243954Y-4621987D01*
X13251551Y-4640328D01*
X13266000Y-4712966D01*
X13266000Y-4787034D01*
X13252454Y-4855134D01*
X13251550Y-4859675D01*
X13223207Y-4928103D01*
X13182058Y-4989686D01*
X13129686Y-5042058D01*
X13068103Y-5083207D01*
X12999675Y-5111550D01*
X12999674Y-5111550D01*
X12999672Y-5111551D01*
X12927034Y-5126000D01*
X12852966Y-5126000D01*
X12780328Y-5111551D01*
X12780326Y-5111550D01*
X12780325Y-5111550D01*
X12711897Y-5083207D01*
X12650314Y-5042058D01*
X12597942Y-4989686D01*
X12556793Y-4928103D01*
X12528450Y-4859675D01*
X12527547Y-4855134D01*
X12514000Y-4787034D01*
X12514000Y-4712966D01*
X12528449Y-4640328D01*
X12536046Y-4621987D01*
X12556793Y-4571897D01*
X12597942Y-4510314D01*
X12650314Y-4457942D01*
X12711897Y-4416793D01*
X12780325Y-4388450D01*
X12780326Y-4388450D01*
X12780328Y-4388449D01*
X12852966Y-4374000D01*
X12927034Y-4374000D01*
X12999672Y-4388449D01*
X12999672Y-4388449D01*
G37*
G36*
X3170455Y-1860356D02*
G01*
X3335734Y-1893232D01*
X3545203Y-1979997D01*
X3733720Y-2105960D01*
X3894040Y-2266280D01*
X4020003Y-2454797D01*
X4106768Y-2664266D01*
X4151000Y-2886636D01*
X4151000Y-3113364D01*
X4106768Y-3335734D01*
X4020003Y-3545203D01*
X3894040Y-3733720D01*
X3733720Y-3894040D01*
X3545203Y-4020003D01*
X3335734Y-4106768D01*
X3224549Y-4128884D01*
X3113365Y-4151000D01*
X2886635Y-4151000D01*
X2775451Y-4128884D01*
X2664266Y-4106768D01*
X2454797Y-4020003D01*
X2266280Y-3894040D01*
X2105960Y-3733720D01*
X1979997Y-3545203D01*
X1893232Y-3335734D01*
X1849000Y-3113364D01*
X1849000Y-2886636D01*
X1893232Y-2664266D01*
X1979997Y-2454797D01*
X2105960Y-2266280D01*
X2266280Y-2105960D01*
X2454797Y-1979997D01*
X2664266Y-1893232D01*
X2829545Y-1860356D01*
X2886635Y-1849000D01*
X3113365Y-1849000D01*
X3170455Y-1860356D01*
X3170455Y-1860356D01*
G37*
G36*
X17170455Y-1860356D02*
G01*
X17335734Y-1893232D01*
X17545203Y-1979997D01*
X17733720Y-2105960D01*
X17894040Y-2266280D01*
X18020003Y-2454797D01*
X18106768Y-2664266D01*
X18151000Y-2886636D01*
X18151000Y-3113364D01*
X18106768Y-3335734D01*
X18020003Y-3545203D01*
X17894040Y-3733720D01*
X17733720Y-3894040D01*
X17545203Y-4020003D01*
X17335734Y-4106768D01*
X17224549Y-4128884D01*
X17113365Y-4151000D01*
X16886635Y-4151000D01*
X16775451Y-4128884D01*
X16664266Y-4106768D01*
X16454797Y-4020003D01*
X16266280Y-3894040D01*
X16105960Y-3733720D01*
X15979997Y-3545203D01*
X15893232Y-3335734D01*
X15849000Y-3113364D01*
X15849000Y-2886636D01*
X15893232Y-2664266D01*
X15979997Y-2454797D01*
X16105960Y-2266280D01*
X16266280Y-2105960D01*
X16454797Y-1979997D01*
X16664266Y-1893232D01*
X16829545Y-1860356D01*
X16886635Y-1849000D01*
X17113365Y-1849000D01*
X17170455Y-1860356D01*
X17170455Y-1860356D01*
G37*
G36*
X5788015Y-256973D02*
G01*
X5891879Y-288479D01*
X5919055Y-303005D01*
X5987600Y-339643D01*
X6071501Y-408499D01*
X6140357Y-492400D01*
X6176995Y-560945D01*
X6191521Y-588121D01*
X6223027Y-691985D01*
X6231000Y-772933D01*
X6231000Y-1427067D01*
X6223027Y-1508015D01*
X6191521Y-1611879D01*
X6140356Y-1707600D01*
X6071501Y-1791501D01*
X6002645Y-1848009D01*
X5987599Y-1860357D01*
X5935907Y-1887987D01*
X5891878Y-1911521D01*
X5788014Y-1943027D01*
X5680000Y-1953666D01*
X5571985Y-1943027D01*
X5468121Y-1911521D01*
X5424093Y-1887987D01*
X5372401Y-1860357D01*
X5358563Y-1849000D01*
X5288499Y-1791501D01*
X5219644Y-1707600D01*
X5168479Y-1611878D01*
X5136973Y-1508014D01*
X5129000Y-1427066D01*
X5129000Y-772933D01*
X5136973Y-691985D01*
X5168480Y-588121D01*
X5168482Y-588118D01*
X5219645Y-492399D01*
X5288500Y-408499D01*
X5372401Y-339643D01*
X5440946Y-303005D01*
X5468122Y-288479D01*
X5571986Y-256973D01*
X5680000Y-246334D01*
X5788015Y-256973D01*
X5788015Y-256973D01*
G37*
G36*
X14428015Y-256973D02*
G01*
X14531879Y-288479D01*
X14559055Y-303005D01*
X14627600Y-339643D01*
X14711501Y-408499D01*
X14780357Y-492400D01*
X14816995Y-560945D01*
X14831521Y-588121D01*
X14863027Y-691985D01*
X14871000Y-772933D01*
X14871000Y-1427067D01*
X14863027Y-1508015D01*
X14831521Y-1611879D01*
X14780356Y-1707600D01*
X14711501Y-1791501D01*
X14642645Y-1848009D01*
X14627599Y-1860357D01*
X14575907Y-1887987D01*
X14531878Y-1911521D01*
X14428014Y-1943027D01*
X14320000Y-1953666D01*
X14211985Y-1943027D01*
X14108121Y-1911521D01*
X14064093Y-1887987D01*
X14012401Y-1860357D01*
X13998563Y-1849000D01*
X13928499Y-1791501D01*
X13859644Y-1707600D01*
X13808479Y-1611878D01*
X13776973Y-1508014D01*
X13769000Y-1427066D01*
X13769000Y-772933D01*
X13776973Y-691985D01*
X13808480Y-588121D01*
X13808482Y-588118D01*
X13859645Y-492399D01*
X13928500Y-408499D01*
X14012401Y-339643D01*
X14080946Y-303005D01*
X14108122Y-288479D01*
X14211986Y-256973D01*
X14320000Y-246334D01*
X14428015Y-256973D01*
X14428015Y-256973D01*
G37*
M02*
