G04 #@! TF.GenerationSoftware,KiCad,Pcbnew,(5.1.2)-1*
G04 #@! TF.CreationDate,2019-06-30T02:02:04-07:00*
G04 #@! TF.ProjectId,daughterboard,64617567-6874-4657-9262-6f6172642e6b,rev?*
G04 #@! TF.SameCoordinates,Original*
G04 #@! TF.FileFunction,Copper,L1,Top*
G04 #@! TF.FilePolarity,Positive*
%FSLAX46Y46*%
G04 Gerber Fmt 4.6, Leading zero omitted, Abs format (unit mm)*
G04 Created by KiCad (PCBNEW (5.1.2)-1) date 2019-06-30 02:02:04*
%MOMM*%
%LPD*%
G04 APERTURE LIST*
%ADD10C,0.800000*%
%ADD11C,5.400000*%
%ADD12O,1.000000X1.600000*%
%ADD13O,1.000000X2.100000*%
%ADD14R,0.300000X1.450000*%
%ADD15R,0.600000X1.450000*%
%ADD16C,0.100000*%
%ADD17C,0.875000*%
%ADD18R,1.200000X1.400000*%
%ADD19R,1.000000X1.400000*%
%ADD20C,0.975000*%
%ADD21R,1.350000X1.350000*%
%ADD22O,1.350000X1.350000*%
%ADD23C,0.381000*%
%ADD24C,0.254000*%
%ADD25C,0.250000*%
G04 APERTURE END LIST*
D10*
X20431891Y-1568109D03*
X19000000Y-975000D03*
X17568109Y-1568109D03*
X16975000Y-3000000D03*
X17568109Y-4431891D03*
X19000000Y-5025000D03*
X20431891Y-4431891D03*
X21025000Y-3000000D03*
D11*
X19000000Y-3000000D03*
D10*
X4431891Y-1568109D03*
X3000000Y-975000D03*
X1568109Y-1568109D03*
X975000Y-3000000D03*
X1568109Y-4431891D03*
X3000000Y-5025000D03*
X4431891Y-4431891D03*
X5025000Y-3000000D03*
D11*
X3000000Y-3000000D03*
D10*
X12431891Y-14568109D03*
X11000000Y-13975000D03*
X9568109Y-14568109D03*
X8975000Y-16000000D03*
X9568109Y-17431891D03*
X11000000Y-18025000D03*
X12431891Y-17431891D03*
X13025000Y-16000000D03*
D11*
X11000000Y-16000000D03*
D12*
X6680000Y-1100000D03*
X15320000Y-1100000D03*
D13*
X6680000Y-5280000D03*
X15320000Y-5280000D03*
D14*
X11250000Y-6195000D03*
X10750000Y-6195000D03*
X10250000Y-6195000D03*
X11750000Y-6195000D03*
X9750000Y-6195000D03*
X12250000Y-6195000D03*
X9250000Y-6195000D03*
X12750000Y-6195000D03*
D15*
X13450000Y-6195000D03*
X8550000Y-6195000D03*
X14225000Y-6195000D03*
X7775000Y-6195000D03*
D16*
G36*
X3527691Y-7926053D02*
G01*
X3548926Y-7929203D01*
X3569750Y-7934419D01*
X3589962Y-7941651D01*
X3609368Y-7950830D01*
X3627781Y-7961866D01*
X3645024Y-7974654D01*
X3660930Y-7989070D01*
X3675346Y-8004976D01*
X3688134Y-8022219D01*
X3699170Y-8040632D01*
X3708349Y-8060038D01*
X3715581Y-8080250D01*
X3720797Y-8101074D01*
X3723947Y-8122309D01*
X3725000Y-8143750D01*
X3725000Y-8656250D01*
X3723947Y-8677691D01*
X3720797Y-8698926D01*
X3715581Y-8719750D01*
X3708349Y-8739962D01*
X3699170Y-8759368D01*
X3688134Y-8777781D01*
X3675346Y-8795024D01*
X3660930Y-8810930D01*
X3645024Y-8825346D01*
X3627781Y-8838134D01*
X3609368Y-8849170D01*
X3589962Y-8858349D01*
X3569750Y-8865581D01*
X3548926Y-8870797D01*
X3527691Y-8873947D01*
X3506250Y-8875000D01*
X3068750Y-8875000D01*
X3047309Y-8873947D01*
X3026074Y-8870797D01*
X3005250Y-8865581D01*
X2985038Y-8858349D01*
X2965632Y-8849170D01*
X2947219Y-8838134D01*
X2929976Y-8825346D01*
X2914070Y-8810930D01*
X2899654Y-8795024D01*
X2886866Y-8777781D01*
X2875830Y-8759368D01*
X2866651Y-8739962D01*
X2859419Y-8719750D01*
X2854203Y-8698926D01*
X2851053Y-8677691D01*
X2850000Y-8656250D01*
X2850000Y-8143750D01*
X2851053Y-8122309D01*
X2854203Y-8101074D01*
X2859419Y-8080250D01*
X2866651Y-8060038D01*
X2875830Y-8040632D01*
X2886866Y-8022219D01*
X2899654Y-8004976D01*
X2914070Y-7989070D01*
X2929976Y-7974654D01*
X2947219Y-7961866D01*
X2965632Y-7950830D01*
X2985038Y-7941651D01*
X3005250Y-7934419D01*
X3026074Y-7929203D01*
X3047309Y-7926053D01*
X3068750Y-7925000D01*
X3506250Y-7925000D01*
X3527691Y-7926053D01*
X3527691Y-7926053D01*
G37*
D17*
X3287500Y-8400000D03*
D16*
G36*
X1952691Y-7926053D02*
G01*
X1973926Y-7929203D01*
X1994750Y-7934419D01*
X2014962Y-7941651D01*
X2034368Y-7950830D01*
X2052781Y-7961866D01*
X2070024Y-7974654D01*
X2085930Y-7989070D01*
X2100346Y-8004976D01*
X2113134Y-8022219D01*
X2124170Y-8040632D01*
X2133349Y-8060038D01*
X2140581Y-8080250D01*
X2145797Y-8101074D01*
X2148947Y-8122309D01*
X2150000Y-8143750D01*
X2150000Y-8656250D01*
X2148947Y-8677691D01*
X2145797Y-8698926D01*
X2140581Y-8719750D01*
X2133349Y-8739962D01*
X2124170Y-8759368D01*
X2113134Y-8777781D01*
X2100346Y-8795024D01*
X2085930Y-8810930D01*
X2070024Y-8825346D01*
X2052781Y-8838134D01*
X2034368Y-8849170D01*
X2014962Y-8858349D01*
X1994750Y-8865581D01*
X1973926Y-8870797D01*
X1952691Y-8873947D01*
X1931250Y-8875000D01*
X1493750Y-8875000D01*
X1472309Y-8873947D01*
X1451074Y-8870797D01*
X1430250Y-8865581D01*
X1410038Y-8858349D01*
X1390632Y-8849170D01*
X1372219Y-8838134D01*
X1354976Y-8825346D01*
X1339070Y-8810930D01*
X1324654Y-8795024D01*
X1311866Y-8777781D01*
X1300830Y-8759368D01*
X1291651Y-8739962D01*
X1284419Y-8719750D01*
X1279203Y-8698926D01*
X1276053Y-8677691D01*
X1275000Y-8656250D01*
X1275000Y-8143750D01*
X1276053Y-8122309D01*
X1279203Y-8101074D01*
X1284419Y-8080250D01*
X1291651Y-8060038D01*
X1300830Y-8040632D01*
X1311866Y-8022219D01*
X1324654Y-8004976D01*
X1339070Y-7989070D01*
X1354976Y-7974654D01*
X1372219Y-7961866D01*
X1390632Y-7950830D01*
X1410038Y-7941651D01*
X1430250Y-7934419D01*
X1451074Y-7929203D01*
X1472309Y-7926053D01*
X1493750Y-7925000D01*
X1931250Y-7925000D01*
X1952691Y-7926053D01*
X1952691Y-7926053D01*
G37*
D17*
X1712500Y-8400000D03*
D18*
X10480000Y-10600000D03*
D19*
X12200000Y-10600000D03*
X12200000Y-8400000D03*
X10300000Y-8400000D03*
D16*
G36*
X7205142Y-7701174D02*
G01*
X7228803Y-7704684D01*
X7252007Y-7710496D01*
X7274529Y-7718554D01*
X7296153Y-7728782D01*
X7316670Y-7741079D01*
X7335883Y-7755329D01*
X7353607Y-7771393D01*
X7369671Y-7789117D01*
X7383921Y-7808330D01*
X7396218Y-7828847D01*
X7406446Y-7850471D01*
X7414504Y-7872993D01*
X7420316Y-7896197D01*
X7423826Y-7919858D01*
X7425000Y-7943750D01*
X7425000Y-8856250D01*
X7423826Y-8880142D01*
X7420316Y-8903803D01*
X7414504Y-8927007D01*
X7406446Y-8949529D01*
X7396218Y-8971153D01*
X7383921Y-8991670D01*
X7369671Y-9010883D01*
X7353607Y-9028607D01*
X7335883Y-9044671D01*
X7316670Y-9058921D01*
X7296153Y-9071218D01*
X7274529Y-9081446D01*
X7252007Y-9089504D01*
X7228803Y-9095316D01*
X7205142Y-9098826D01*
X7181250Y-9100000D01*
X6693750Y-9100000D01*
X6669858Y-9098826D01*
X6646197Y-9095316D01*
X6622993Y-9089504D01*
X6600471Y-9081446D01*
X6578847Y-9071218D01*
X6558330Y-9058921D01*
X6539117Y-9044671D01*
X6521393Y-9028607D01*
X6505329Y-9010883D01*
X6491079Y-8991670D01*
X6478782Y-8971153D01*
X6468554Y-8949529D01*
X6460496Y-8927007D01*
X6454684Y-8903803D01*
X6451174Y-8880142D01*
X6450000Y-8856250D01*
X6450000Y-7943750D01*
X6451174Y-7919858D01*
X6454684Y-7896197D01*
X6460496Y-7872993D01*
X6468554Y-7850471D01*
X6478782Y-7828847D01*
X6491079Y-7808330D01*
X6505329Y-7789117D01*
X6521393Y-7771393D01*
X6539117Y-7755329D01*
X6558330Y-7741079D01*
X6578847Y-7728782D01*
X6600471Y-7718554D01*
X6622993Y-7710496D01*
X6646197Y-7704684D01*
X6669858Y-7701174D01*
X6693750Y-7700000D01*
X7181250Y-7700000D01*
X7205142Y-7701174D01*
X7205142Y-7701174D01*
G37*
D20*
X6937500Y-8400000D03*
D16*
G36*
X5330142Y-7701174D02*
G01*
X5353803Y-7704684D01*
X5377007Y-7710496D01*
X5399529Y-7718554D01*
X5421153Y-7728782D01*
X5441670Y-7741079D01*
X5460883Y-7755329D01*
X5478607Y-7771393D01*
X5494671Y-7789117D01*
X5508921Y-7808330D01*
X5521218Y-7828847D01*
X5531446Y-7850471D01*
X5539504Y-7872993D01*
X5545316Y-7896197D01*
X5548826Y-7919858D01*
X5550000Y-7943750D01*
X5550000Y-8856250D01*
X5548826Y-8880142D01*
X5545316Y-8903803D01*
X5539504Y-8927007D01*
X5531446Y-8949529D01*
X5521218Y-8971153D01*
X5508921Y-8991670D01*
X5494671Y-9010883D01*
X5478607Y-9028607D01*
X5460883Y-9044671D01*
X5441670Y-9058921D01*
X5421153Y-9071218D01*
X5399529Y-9081446D01*
X5377007Y-9089504D01*
X5353803Y-9095316D01*
X5330142Y-9098826D01*
X5306250Y-9100000D01*
X4818750Y-9100000D01*
X4794858Y-9098826D01*
X4771197Y-9095316D01*
X4747993Y-9089504D01*
X4725471Y-9081446D01*
X4703847Y-9071218D01*
X4683330Y-9058921D01*
X4664117Y-9044671D01*
X4646393Y-9028607D01*
X4630329Y-9010883D01*
X4616079Y-8991670D01*
X4603782Y-8971153D01*
X4593554Y-8949529D01*
X4585496Y-8927007D01*
X4579684Y-8903803D01*
X4576174Y-8880142D01*
X4575000Y-8856250D01*
X4575000Y-7943750D01*
X4576174Y-7919858D01*
X4579684Y-7896197D01*
X4585496Y-7872993D01*
X4593554Y-7850471D01*
X4603782Y-7828847D01*
X4616079Y-7808330D01*
X4630329Y-7789117D01*
X4646393Y-7771393D01*
X4664117Y-7755329D01*
X4683330Y-7741079D01*
X4703847Y-7728782D01*
X4725471Y-7718554D01*
X4747993Y-7710496D01*
X4771197Y-7704684D01*
X4794858Y-7701174D01*
X4818750Y-7700000D01*
X5306250Y-7700000D01*
X5330142Y-7701174D01*
X5330142Y-7701174D01*
G37*
D20*
X5062500Y-8400000D03*
D16*
G36*
X18015191Y-7026053D02*
G01*
X18036426Y-7029203D01*
X18057250Y-7034419D01*
X18077462Y-7041651D01*
X18096868Y-7050830D01*
X18115281Y-7061866D01*
X18132524Y-7074654D01*
X18148430Y-7089070D01*
X18162846Y-7104976D01*
X18175634Y-7122219D01*
X18186670Y-7140632D01*
X18195849Y-7160038D01*
X18203081Y-7180250D01*
X18208297Y-7201074D01*
X18211447Y-7222309D01*
X18212500Y-7243750D01*
X18212500Y-7756250D01*
X18211447Y-7777691D01*
X18208297Y-7798926D01*
X18203081Y-7819750D01*
X18195849Y-7839962D01*
X18186670Y-7859368D01*
X18175634Y-7877781D01*
X18162846Y-7895024D01*
X18148430Y-7910930D01*
X18132524Y-7925346D01*
X18115281Y-7938134D01*
X18096868Y-7949170D01*
X18077462Y-7958349D01*
X18057250Y-7965581D01*
X18036426Y-7970797D01*
X18015191Y-7973947D01*
X17993750Y-7975000D01*
X17556250Y-7975000D01*
X17534809Y-7973947D01*
X17513574Y-7970797D01*
X17492750Y-7965581D01*
X17472538Y-7958349D01*
X17453132Y-7949170D01*
X17434719Y-7938134D01*
X17417476Y-7925346D01*
X17401570Y-7910930D01*
X17387154Y-7895024D01*
X17374366Y-7877781D01*
X17363330Y-7859368D01*
X17354151Y-7839962D01*
X17346919Y-7819750D01*
X17341703Y-7798926D01*
X17338553Y-7777691D01*
X17337500Y-7756250D01*
X17337500Y-7243750D01*
X17338553Y-7222309D01*
X17341703Y-7201074D01*
X17346919Y-7180250D01*
X17354151Y-7160038D01*
X17363330Y-7140632D01*
X17374366Y-7122219D01*
X17387154Y-7104976D01*
X17401570Y-7089070D01*
X17417476Y-7074654D01*
X17434719Y-7061866D01*
X17453132Y-7050830D01*
X17472538Y-7041651D01*
X17492750Y-7034419D01*
X17513574Y-7029203D01*
X17534809Y-7026053D01*
X17556250Y-7025000D01*
X17993750Y-7025000D01*
X18015191Y-7026053D01*
X18015191Y-7026053D01*
G37*
D17*
X17775000Y-7500000D03*
D16*
G36*
X16440191Y-7026053D02*
G01*
X16461426Y-7029203D01*
X16482250Y-7034419D01*
X16502462Y-7041651D01*
X16521868Y-7050830D01*
X16540281Y-7061866D01*
X16557524Y-7074654D01*
X16573430Y-7089070D01*
X16587846Y-7104976D01*
X16600634Y-7122219D01*
X16611670Y-7140632D01*
X16620849Y-7160038D01*
X16628081Y-7180250D01*
X16633297Y-7201074D01*
X16636447Y-7222309D01*
X16637500Y-7243750D01*
X16637500Y-7756250D01*
X16636447Y-7777691D01*
X16633297Y-7798926D01*
X16628081Y-7819750D01*
X16620849Y-7839962D01*
X16611670Y-7859368D01*
X16600634Y-7877781D01*
X16587846Y-7895024D01*
X16573430Y-7910930D01*
X16557524Y-7925346D01*
X16540281Y-7938134D01*
X16521868Y-7949170D01*
X16502462Y-7958349D01*
X16482250Y-7965581D01*
X16461426Y-7970797D01*
X16440191Y-7973947D01*
X16418750Y-7975000D01*
X15981250Y-7975000D01*
X15959809Y-7973947D01*
X15938574Y-7970797D01*
X15917750Y-7965581D01*
X15897538Y-7958349D01*
X15878132Y-7949170D01*
X15859719Y-7938134D01*
X15842476Y-7925346D01*
X15826570Y-7910930D01*
X15812154Y-7895024D01*
X15799366Y-7877781D01*
X15788330Y-7859368D01*
X15779151Y-7839962D01*
X15771919Y-7819750D01*
X15766703Y-7798926D01*
X15763553Y-7777691D01*
X15762500Y-7756250D01*
X15762500Y-7243750D01*
X15763553Y-7222309D01*
X15766703Y-7201074D01*
X15771919Y-7180250D01*
X15779151Y-7160038D01*
X15788330Y-7140632D01*
X15799366Y-7122219D01*
X15812154Y-7104976D01*
X15826570Y-7089070D01*
X15842476Y-7074654D01*
X15859719Y-7061866D01*
X15878132Y-7050830D01*
X15897538Y-7041651D01*
X15917750Y-7034419D01*
X15938574Y-7029203D01*
X15959809Y-7026053D01*
X15981250Y-7025000D01*
X16418750Y-7025000D01*
X16440191Y-7026053D01*
X16440191Y-7026053D01*
G37*
D17*
X16200000Y-7500000D03*
D16*
G36*
X3852691Y-6226053D02*
G01*
X3873926Y-6229203D01*
X3894750Y-6234419D01*
X3914962Y-6241651D01*
X3934368Y-6250830D01*
X3952781Y-6261866D01*
X3970024Y-6274654D01*
X3985930Y-6289070D01*
X4000346Y-6304976D01*
X4013134Y-6322219D01*
X4024170Y-6340632D01*
X4033349Y-6360038D01*
X4040581Y-6380250D01*
X4045797Y-6401074D01*
X4048947Y-6422309D01*
X4050000Y-6443750D01*
X4050000Y-6956250D01*
X4048947Y-6977691D01*
X4045797Y-6998926D01*
X4040581Y-7019750D01*
X4033349Y-7039962D01*
X4024170Y-7059368D01*
X4013134Y-7077781D01*
X4000346Y-7095024D01*
X3985930Y-7110930D01*
X3970024Y-7125346D01*
X3952781Y-7138134D01*
X3934368Y-7149170D01*
X3914962Y-7158349D01*
X3894750Y-7165581D01*
X3873926Y-7170797D01*
X3852691Y-7173947D01*
X3831250Y-7175000D01*
X3393750Y-7175000D01*
X3372309Y-7173947D01*
X3351074Y-7170797D01*
X3330250Y-7165581D01*
X3310038Y-7158349D01*
X3290632Y-7149170D01*
X3272219Y-7138134D01*
X3254976Y-7125346D01*
X3239070Y-7110930D01*
X3224654Y-7095024D01*
X3211866Y-7077781D01*
X3200830Y-7059368D01*
X3191651Y-7039962D01*
X3184419Y-7019750D01*
X3179203Y-6998926D01*
X3176053Y-6977691D01*
X3175000Y-6956250D01*
X3175000Y-6443750D01*
X3176053Y-6422309D01*
X3179203Y-6401074D01*
X3184419Y-6380250D01*
X3191651Y-6360038D01*
X3200830Y-6340632D01*
X3211866Y-6322219D01*
X3224654Y-6304976D01*
X3239070Y-6289070D01*
X3254976Y-6274654D01*
X3272219Y-6261866D01*
X3290632Y-6250830D01*
X3310038Y-6241651D01*
X3330250Y-6234419D01*
X3351074Y-6229203D01*
X3372309Y-6226053D01*
X3393750Y-6225000D01*
X3831250Y-6225000D01*
X3852691Y-6226053D01*
X3852691Y-6226053D01*
G37*
D17*
X3612500Y-6700000D03*
D16*
G36*
X5427691Y-6226053D02*
G01*
X5448926Y-6229203D01*
X5469750Y-6234419D01*
X5489962Y-6241651D01*
X5509368Y-6250830D01*
X5527781Y-6261866D01*
X5545024Y-6274654D01*
X5560930Y-6289070D01*
X5575346Y-6304976D01*
X5588134Y-6322219D01*
X5599170Y-6340632D01*
X5608349Y-6360038D01*
X5615581Y-6380250D01*
X5620797Y-6401074D01*
X5623947Y-6422309D01*
X5625000Y-6443750D01*
X5625000Y-6956250D01*
X5623947Y-6977691D01*
X5620797Y-6998926D01*
X5615581Y-7019750D01*
X5608349Y-7039962D01*
X5599170Y-7059368D01*
X5588134Y-7077781D01*
X5575346Y-7095024D01*
X5560930Y-7110930D01*
X5545024Y-7125346D01*
X5527781Y-7138134D01*
X5509368Y-7149170D01*
X5489962Y-7158349D01*
X5469750Y-7165581D01*
X5448926Y-7170797D01*
X5427691Y-7173947D01*
X5406250Y-7175000D01*
X4968750Y-7175000D01*
X4947309Y-7173947D01*
X4926074Y-7170797D01*
X4905250Y-7165581D01*
X4885038Y-7158349D01*
X4865632Y-7149170D01*
X4847219Y-7138134D01*
X4829976Y-7125346D01*
X4814070Y-7110930D01*
X4799654Y-7095024D01*
X4786866Y-7077781D01*
X4775830Y-7059368D01*
X4766651Y-7039962D01*
X4759419Y-7019750D01*
X4754203Y-6998926D01*
X4751053Y-6977691D01*
X4750000Y-6956250D01*
X4750000Y-6443750D01*
X4751053Y-6422309D01*
X4754203Y-6401074D01*
X4759419Y-6380250D01*
X4766651Y-6360038D01*
X4775830Y-6340632D01*
X4786866Y-6322219D01*
X4799654Y-6304976D01*
X4814070Y-6289070D01*
X4829976Y-6274654D01*
X4847219Y-6261866D01*
X4865632Y-6250830D01*
X4885038Y-6241651D01*
X4905250Y-6234419D01*
X4926074Y-6229203D01*
X4947309Y-6226053D01*
X4968750Y-6225000D01*
X5406250Y-6225000D01*
X5427691Y-6226053D01*
X5427691Y-6226053D01*
G37*
D17*
X5187500Y-6700000D03*
D21*
X4100000Y-11600000D03*
D22*
X4100000Y-13600000D03*
X4100000Y-15600000D03*
X4100000Y-17600000D03*
D10*
X8900000Y-10600000D03*
X1200000Y-10600000D03*
X1300000Y-16000000D03*
X1300000Y-13200000D03*
X8550000Y-7500000D03*
X13450000Y-7500000D03*
D23*
X5062500Y-8400000D02*
X3287500Y-8400000D01*
X4100000Y-17600000D02*
X2800000Y-16300000D01*
X2800000Y-10662500D02*
X5062500Y-8400000D01*
X2800000Y-16300000D02*
X2800000Y-10662500D01*
X7595000Y-6195000D02*
X6680000Y-5280000D01*
X7775000Y-6195000D02*
X7595000Y-6195000D01*
X14405000Y-6195000D02*
X15320000Y-5280000D01*
X14225000Y-6195000D02*
X14405000Y-6195000D01*
X8900000Y-10600000D02*
X10480000Y-10600000D01*
D24*
X12200000Y-10400000D02*
X12200000Y-10600000D01*
X11250000Y-9450000D02*
X12200000Y-10400000D01*
X10250000Y-7174000D02*
X10250000Y-6195000D01*
X10326201Y-7250201D02*
X10250000Y-7174000D01*
X10950201Y-7250201D02*
X10326201Y-7250201D01*
X11250000Y-7550000D02*
X10950201Y-7250201D01*
X11250000Y-8550000D02*
X11250000Y-7550000D01*
X11250000Y-6195000D02*
X11250000Y-8550000D01*
X11250000Y-8550000D02*
X11250000Y-9450000D01*
X11782610Y-11971390D02*
X9405320Y-11971390D01*
X12200000Y-10600000D02*
X12200000Y-11554000D01*
X12200000Y-11554000D02*
X11782610Y-11971390D01*
X7005310Y-14371400D02*
X9405320Y-11971390D01*
X4100000Y-13600000D02*
X4871400Y-14371400D01*
X4871400Y-14371400D02*
X7005310Y-14371400D01*
X11750000Y-7950000D02*
X12200000Y-8400000D01*
X11750000Y-6195000D02*
X11750000Y-7950000D01*
X10750000Y-5216000D02*
X10966000Y-5000000D01*
X10750000Y-6195000D02*
X10750000Y-5216000D01*
X11524362Y-5000000D02*
X10966000Y-5000000D01*
X11750000Y-5225638D02*
X11524362Y-5000000D01*
X11750000Y-6195000D02*
X11750000Y-5225638D01*
X12200000Y-8600000D02*
X13030201Y-9430201D01*
X12200000Y-8400000D02*
X12200000Y-8600000D01*
X12165762Y-12428600D02*
X9594690Y-12428600D01*
X13030201Y-11564161D02*
X12165762Y-12428600D01*
X13030201Y-9430201D02*
X13030201Y-11564161D01*
X9594690Y-12428612D02*
X9594690Y-12428600D01*
X7194702Y-14828600D02*
X9594690Y-12428612D01*
X4871400Y-14828600D02*
X7194702Y-14828600D01*
X4100000Y-15600000D02*
X4871400Y-14828600D01*
D25*
X10300000Y-8150000D02*
X10300000Y-8700000D01*
D23*
X13450000Y-6195000D02*
X13450000Y-7500000D01*
X8550000Y-6195000D02*
X8550000Y-7500000D01*
X9400000Y-7500000D02*
X10300000Y-8400000D01*
X8550000Y-7500000D02*
X9400000Y-7500000D01*
X6937500Y-8400000D02*
X10300000Y-8400000D01*
D24*
X12250000Y-5216000D02*
X12250000Y-6195000D01*
X12250000Y-4950000D02*
X12250000Y-5216000D01*
X13400000Y-3800000D02*
X12250000Y-4950000D01*
X15600000Y-3800000D02*
X13400000Y-3800000D01*
X16200000Y-7500000D02*
X16200000Y-4400000D01*
X16200000Y-4400000D02*
X15600000Y-3800000D01*
X8129698Y-3800000D02*
X9250000Y-4920302D01*
X9250000Y-4920302D02*
X9250000Y-5216000D01*
X9250000Y-5216000D02*
X9250000Y-6195000D01*
X5800000Y-4400000D02*
X6400000Y-3800000D01*
X6400000Y-3800000D02*
X8129698Y-3800000D01*
X5800000Y-5500000D02*
X5800000Y-4400000D01*
X5800000Y-6087500D02*
X5187500Y-6700000D01*
X5800000Y-5500000D02*
X5800000Y-6087500D01*
G36*
X21279373Y-5458981D02*
G01*
X21290000Y-5448354D01*
X21290001Y-15965269D01*
X21243048Y-16444133D01*
X21114063Y-16871353D01*
X20904554Y-17265384D01*
X20622501Y-17611214D01*
X20278651Y-17895672D01*
X19886093Y-18107927D01*
X19459788Y-18239891D01*
X18983036Y-18290000D01*
X13448354Y-18290000D01*
X13458981Y-18279373D01*
X13345376Y-18165768D01*
X13783828Y-17865589D01*
X14094296Y-17286644D01*
X14285852Y-16658254D01*
X14351134Y-16004569D01*
X14287634Y-15350707D01*
X14097792Y-14721797D01*
X13788904Y-14142008D01*
X13783828Y-14134411D01*
X13345374Y-13834231D01*
X11179605Y-16000000D01*
X11193748Y-16014143D01*
X11014143Y-16193748D01*
X11000000Y-16179605D01*
X10985858Y-16193748D01*
X10806253Y-16014143D01*
X10820395Y-16000000D01*
X10806253Y-15985858D01*
X10985858Y-15806253D01*
X11000000Y-15820395D01*
X13165769Y-13654626D01*
X12865589Y-13216172D01*
X12587645Y-13067120D01*
X12591154Y-13065245D01*
X12707184Y-12970022D01*
X12731046Y-12940947D01*
X13542552Y-12129440D01*
X13571623Y-12105583D01*
X13666846Y-11989553D01*
X13737603Y-11857176D01*
X13781175Y-11713539D01*
X13792201Y-11601587D01*
X13792201Y-11601585D01*
X13795887Y-11564162D01*
X13792201Y-11526739D01*
X13792201Y-9467624D01*
X13795887Y-9430201D01*
X13787610Y-9346164D01*
X13781175Y-9280823D01*
X13737603Y-9137186D01*
X13683862Y-9036644D01*
X13666846Y-9004808D01*
X13614825Y-8941421D01*
X13571623Y-8888779D01*
X13542548Y-8864918D01*
X13338072Y-8660442D01*
X13338072Y-8533013D01*
X13348061Y-8535000D01*
X13551939Y-8535000D01*
X13751898Y-8495226D01*
X13940256Y-8417205D01*
X14109774Y-8303937D01*
X14253937Y-8159774D01*
X14367205Y-7990256D01*
X14445226Y-7801898D01*
X14485000Y-7601939D01*
X14485000Y-7529250D01*
X14510750Y-7555000D01*
X14525000Y-7558072D01*
X14649482Y-7545812D01*
X14769180Y-7509502D01*
X14879494Y-7450537D01*
X14976185Y-7371185D01*
X15055537Y-7274494D01*
X15114502Y-7164180D01*
X15140806Y-7077468D01*
X15124428Y-7243750D01*
X15124428Y-7756250D01*
X15140892Y-7923408D01*
X15189650Y-8084142D01*
X15268829Y-8232275D01*
X15375385Y-8362115D01*
X15505225Y-8468671D01*
X15653358Y-8547850D01*
X15814092Y-8596608D01*
X15981250Y-8613072D01*
X16418750Y-8613072D01*
X16585908Y-8596608D01*
X16746642Y-8547850D01*
X16894775Y-8468671D01*
X16916430Y-8450900D01*
X16983006Y-8505537D01*
X17093320Y-8564502D01*
X17213018Y-8600812D01*
X17337500Y-8613072D01*
X17489250Y-8610000D01*
X17648000Y-8451250D01*
X17648000Y-7627000D01*
X17902000Y-7627000D01*
X17902000Y-8451250D01*
X18060750Y-8610000D01*
X18212500Y-8613072D01*
X18336982Y-8600812D01*
X18456680Y-8564502D01*
X18566994Y-8505537D01*
X18663685Y-8426185D01*
X18743037Y-8329494D01*
X18802002Y-8219180D01*
X18838312Y-8099482D01*
X18850572Y-7975000D01*
X18847500Y-7785750D01*
X18688750Y-7627000D01*
X17902000Y-7627000D01*
X17648000Y-7627000D01*
X17628000Y-7627000D01*
X17628000Y-7373000D01*
X17648000Y-7373000D01*
X17648000Y-6548750D01*
X17902000Y-6548750D01*
X17902000Y-7373000D01*
X18688750Y-7373000D01*
X18847500Y-7214250D01*
X18850572Y-7025000D01*
X18838312Y-6900518D01*
X18802002Y-6780820D01*
X18743037Y-6670506D01*
X18663685Y-6573815D01*
X18566994Y-6494463D01*
X18456680Y-6435498D01*
X18336982Y-6399188D01*
X18212500Y-6386928D01*
X18060750Y-6390000D01*
X17902000Y-6548750D01*
X17648000Y-6548750D01*
X17489250Y-6390000D01*
X17337500Y-6386928D01*
X17213018Y-6399188D01*
X17093320Y-6435498D01*
X16983006Y-6494463D01*
X16962000Y-6511702D01*
X16962000Y-5531998D01*
X17134411Y-5783828D01*
X17713356Y-6094296D01*
X18341746Y-6285852D01*
X18995431Y-6351134D01*
X19649293Y-6287634D01*
X20278203Y-6097792D01*
X20857992Y-5788904D01*
X20865589Y-5783828D01*
X21165768Y-5345376D01*
X21279373Y-5458981D01*
X21279373Y-5458981D01*
G37*
X21279373Y-5458981D02*
X21290000Y-5448354D01*
X21290001Y-15965269D01*
X21243048Y-16444133D01*
X21114063Y-16871353D01*
X20904554Y-17265384D01*
X20622501Y-17611214D01*
X20278651Y-17895672D01*
X19886093Y-18107927D01*
X19459788Y-18239891D01*
X18983036Y-18290000D01*
X13448354Y-18290000D01*
X13458981Y-18279373D01*
X13345376Y-18165768D01*
X13783828Y-17865589D01*
X14094296Y-17286644D01*
X14285852Y-16658254D01*
X14351134Y-16004569D01*
X14287634Y-15350707D01*
X14097792Y-14721797D01*
X13788904Y-14142008D01*
X13783828Y-14134411D01*
X13345374Y-13834231D01*
X11179605Y-16000000D01*
X11193748Y-16014143D01*
X11014143Y-16193748D01*
X11000000Y-16179605D01*
X10985858Y-16193748D01*
X10806253Y-16014143D01*
X10820395Y-16000000D01*
X10806253Y-15985858D01*
X10985858Y-15806253D01*
X11000000Y-15820395D01*
X13165769Y-13654626D01*
X12865589Y-13216172D01*
X12587645Y-13067120D01*
X12591154Y-13065245D01*
X12707184Y-12970022D01*
X12731046Y-12940947D01*
X13542552Y-12129440D01*
X13571623Y-12105583D01*
X13666846Y-11989553D01*
X13737603Y-11857176D01*
X13781175Y-11713539D01*
X13792201Y-11601587D01*
X13792201Y-11601585D01*
X13795887Y-11564162D01*
X13792201Y-11526739D01*
X13792201Y-9467624D01*
X13795887Y-9430201D01*
X13787610Y-9346164D01*
X13781175Y-9280823D01*
X13737603Y-9137186D01*
X13683862Y-9036644D01*
X13666846Y-9004808D01*
X13614825Y-8941421D01*
X13571623Y-8888779D01*
X13542548Y-8864918D01*
X13338072Y-8660442D01*
X13338072Y-8533013D01*
X13348061Y-8535000D01*
X13551939Y-8535000D01*
X13751898Y-8495226D01*
X13940256Y-8417205D01*
X14109774Y-8303937D01*
X14253937Y-8159774D01*
X14367205Y-7990256D01*
X14445226Y-7801898D01*
X14485000Y-7601939D01*
X14485000Y-7529250D01*
X14510750Y-7555000D01*
X14525000Y-7558072D01*
X14649482Y-7545812D01*
X14769180Y-7509502D01*
X14879494Y-7450537D01*
X14976185Y-7371185D01*
X15055537Y-7274494D01*
X15114502Y-7164180D01*
X15140806Y-7077468D01*
X15124428Y-7243750D01*
X15124428Y-7756250D01*
X15140892Y-7923408D01*
X15189650Y-8084142D01*
X15268829Y-8232275D01*
X15375385Y-8362115D01*
X15505225Y-8468671D01*
X15653358Y-8547850D01*
X15814092Y-8596608D01*
X15981250Y-8613072D01*
X16418750Y-8613072D01*
X16585908Y-8596608D01*
X16746642Y-8547850D01*
X16894775Y-8468671D01*
X16916430Y-8450900D01*
X16983006Y-8505537D01*
X17093320Y-8564502D01*
X17213018Y-8600812D01*
X17337500Y-8613072D01*
X17489250Y-8610000D01*
X17648000Y-8451250D01*
X17648000Y-7627000D01*
X17902000Y-7627000D01*
X17902000Y-8451250D01*
X18060750Y-8610000D01*
X18212500Y-8613072D01*
X18336982Y-8600812D01*
X18456680Y-8564502D01*
X18566994Y-8505537D01*
X18663685Y-8426185D01*
X18743037Y-8329494D01*
X18802002Y-8219180D01*
X18838312Y-8099482D01*
X18850572Y-7975000D01*
X18847500Y-7785750D01*
X18688750Y-7627000D01*
X17902000Y-7627000D01*
X17648000Y-7627000D01*
X17628000Y-7627000D01*
X17628000Y-7373000D01*
X17648000Y-7373000D01*
X17648000Y-6548750D01*
X17902000Y-6548750D01*
X17902000Y-7373000D01*
X18688750Y-7373000D01*
X18847500Y-7214250D01*
X18850572Y-7025000D01*
X18838312Y-6900518D01*
X18802002Y-6780820D01*
X18743037Y-6670506D01*
X18663685Y-6573815D01*
X18566994Y-6494463D01*
X18456680Y-6435498D01*
X18336982Y-6399188D01*
X18212500Y-6386928D01*
X18060750Y-6390000D01*
X17902000Y-6548750D01*
X17648000Y-6548750D01*
X17489250Y-6390000D01*
X17337500Y-6386928D01*
X17213018Y-6399188D01*
X17093320Y-6435498D01*
X16983006Y-6494463D01*
X16962000Y-6511702D01*
X16962000Y-5531998D01*
X17134411Y-5783828D01*
X17713356Y-6094296D01*
X18341746Y-6285852D01*
X18995431Y-6351134D01*
X19649293Y-6287634D01*
X20278203Y-6097792D01*
X20857992Y-5788904D01*
X20865589Y-5783828D01*
X21165768Y-5345376D01*
X21279373Y-5458981D01*
G36*
X1134411Y-5783828D02*
G01*
X1713356Y-6094296D01*
X2341746Y-6285852D01*
X2538234Y-6305475D01*
X2540000Y-6414250D01*
X2698750Y-6573000D01*
X3485500Y-6573000D01*
X3485500Y-6553000D01*
X3739500Y-6553000D01*
X3739500Y-6573000D01*
X3759500Y-6573000D01*
X3759500Y-6827000D01*
X3739500Y-6827000D01*
X3739500Y-6847000D01*
X3485500Y-6847000D01*
X3485500Y-6827000D01*
X2698750Y-6827000D01*
X2540000Y-6985750D01*
X2536928Y-7175000D01*
X2549188Y-7299482D01*
X2585498Y-7419180D01*
X2592215Y-7431747D01*
X2571070Y-7449100D01*
X2504494Y-7394463D01*
X2394180Y-7335498D01*
X2274482Y-7299188D01*
X2150000Y-7286928D01*
X1998250Y-7290000D01*
X1839500Y-7448750D01*
X1839500Y-8273000D01*
X1859500Y-8273000D01*
X1859500Y-8527000D01*
X1839500Y-8527000D01*
X1839500Y-9351250D01*
X1998250Y-9510000D01*
X2150000Y-9513072D01*
X2274482Y-9500812D01*
X2394180Y-9464502D01*
X2504494Y-9405537D01*
X2571070Y-9350900D01*
X2592725Y-9368671D01*
X2740858Y-9447850D01*
X2822463Y-9472605D01*
X2244961Y-10050107D01*
X2213460Y-10075959D01*
X2187609Y-10107459D01*
X2110301Y-10201658D01*
X2033647Y-10345067D01*
X1986445Y-10500674D01*
X1970506Y-10662500D01*
X1974501Y-10703060D01*
X1974500Y-16259449D01*
X1970506Y-16300000D01*
X1974500Y-16340550D01*
X1974500Y-16340552D01*
X1986444Y-16461825D01*
X2008840Y-16535655D01*
X2033647Y-16617433D01*
X2110301Y-16760842D01*
X2140292Y-16797386D01*
X2213459Y-16886541D01*
X2244966Y-16912398D01*
X2797013Y-17464446D01*
X2783662Y-17600000D01*
X2808955Y-17856805D01*
X2883862Y-18103741D01*
X2980583Y-18284692D01*
X2555867Y-18243048D01*
X2128647Y-18114063D01*
X1734616Y-17904554D01*
X1388786Y-17622501D01*
X1104328Y-17278651D01*
X892073Y-16886093D01*
X760109Y-16459788D01*
X710000Y-15983036D01*
X710000Y-9165019D01*
X744463Y-9229494D01*
X823815Y-9326185D01*
X920506Y-9405537D01*
X1030820Y-9464502D01*
X1150518Y-9500812D01*
X1275000Y-9513072D01*
X1426750Y-9510000D01*
X1585500Y-9351250D01*
X1585500Y-8527000D01*
X1565500Y-8527000D01*
X1565500Y-8273000D01*
X1585500Y-8273000D01*
X1585500Y-7448750D01*
X1426750Y-7290000D01*
X1275000Y-7286928D01*
X1150518Y-7299188D01*
X1030820Y-7335498D01*
X920506Y-7394463D01*
X823815Y-7473815D01*
X744463Y-7570506D01*
X710000Y-7634981D01*
X710000Y-5448354D01*
X720627Y-5458981D01*
X834232Y-5345376D01*
X1134411Y-5783828D01*
X1134411Y-5783828D01*
G37*
X1134411Y-5783828D02*
X1713356Y-6094296D01*
X2341746Y-6285852D01*
X2538234Y-6305475D01*
X2540000Y-6414250D01*
X2698750Y-6573000D01*
X3485500Y-6573000D01*
X3485500Y-6553000D01*
X3739500Y-6553000D01*
X3739500Y-6573000D01*
X3759500Y-6573000D01*
X3759500Y-6827000D01*
X3739500Y-6827000D01*
X3739500Y-6847000D01*
X3485500Y-6847000D01*
X3485500Y-6827000D01*
X2698750Y-6827000D01*
X2540000Y-6985750D01*
X2536928Y-7175000D01*
X2549188Y-7299482D01*
X2585498Y-7419180D01*
X2592215Y-7431747D01*
X2571070Y-7449100D01*
X2504494Y-7394463D01*
X2394180Y-7335498D01*
X2274482Y-7299188D01*
X2150000Y-7286928D01*
X1998250Y-7290000D01*
X1839500Y-7448750D01*
X1839500Y-8273000D01*
X1859500Y-8273000D01*
X1859500Y-8527000D01*
X1839500Y-8527000D01*
X1839500Y-9351250D01*
X1998250Y-9510000D01*
X2150000Y-9513072D01*
X2274482Y-9500812D01*
X2394180Y-9464502D01*
X2504494Y-9405537D01*
X2571070Y-9350900D01*
X2592725Y-9368671D01*
X2740858Y-9447850D01*
X2822463Y-9472605D01*
X2244961Y-10050107D01*
X2213460Y-10075959D01*
X2187609Y-10107459D01*
X2110301Y-10201658D01*
X2033647Y-10345067D01*
X1986445Y-10500674D01*
X1970506Y-10662500D01*
X1974501Y-10703060D01*
X1974500Y-16259449D01*
X1970506Y-16300000D01*
X1974500Y-16340550D01*
X1974500Y-16340552D01*
X1986444Y-16461825D01*
X2008840Y-16535655D01*
X2033647Y-16617433D01*
X2110301Y-16760842D01*
X2140292Y-16797386D01*
X2213459Y-16886541D01*
X2244966Y-16912398D01*
X2797013Y-17464446D01*
X2783662Y-17600000D01*
X2808955Y-17856805D01*
X2883862Y-18103741D01*
X2980583Y-18284692D01*
X2555867Y-18243048D01*
X2128647Y-18114063D01*
X1734616Y-17904554D01*
X1388786Y-17622501D01*
X1104328Y-17278651D01*
X892073Y-16886093D01*
X760109Y-16459788D01*
X710000Y-15983036D01*
X710000Y-9165019D01*
X744463Y-9229494D01*
X823815Y-9326185D01*
X920506Y-9405537D01*
X1030820Y-9464502D01*
X1150518Y-9500812D01*
X1275000Y-9513072D01*
X1426750Y-9510000D01*
X1585500Y-9351250D01*
X1585500Y-8527000D01*
X1565500Y-8527000D01*
X1565500Y-8273000D01*
X1585500Y-8273000D01*
X1585500Y-7448750D01*
X1426750Y-7290000D01*
X1275000Y-7286928D01*
X1150518Y-7299188D01*
X1030820Y-7335498D01*
X920506Y-7394463D01*
X823815Y-7473815D01*
X744463Y-7570506D01*
X710000Y-7634981D01*
X710000Y-5448354D01*
X720627Y-5458981D01*
X834232Y-5345376D01*
X1134411Y-5783828D01*
G36*
X9210498Y-9344180D02*
G01*
X9269463Y-9454494D01*
X9347369Y-9549423D01*
X9290498Y-9655820D01*
X9254188Y-9775518D01*
X9241928Y-9900000D01*
X9245000Y-10314250D01*
X9403750Y-10473000D01*
X10353000Y-10473000D01*
X10353000Y-10453000D01*
X10607000Y-10453000D01*
X10607000Y-10473000D01*
X10627000Y-10473000D01*
X10627000Y-10727000D01*
X10607000Y-10727000D01*
X10607000Y-10747000D01*
X10353000Y-10747000D01*
X10353000Y-10727000D01*
X9403750Y-10727000D01*
X9245000Y-10885750D01*
X9242488Y-11224497D01*
X9112305Y-11263988D01*
X9050684Y-11296925D01*
X8979927Y-11334745D01*
X8958660Y-11352199D01*
X8863898Y-11429968D01*
X8840036Y-11459044D01*
X6689680Y-13609400D01*
X5415412Y-13609400D01*
X5416338Y-13600000D01*
X5391045Y-13343195D01*
X5316138Y-13096259D01*
X5194495Y-12868682D01*
X5137369Y-12799074D01*
X5226185Y-12726185D01*
X5305537Y-12629494D01*
X5364502Y-12519180D01*
X5400812Y-12399482D01*
X5413072Y-12275000D01*
X5410000Y-11885750D01*
X5251250Y-11727000D01*
X4227000Y-11727000D01*
X4227000Y-11747000D01*
X3973000Y-11747000D01*
X3973000Y-11727000D01*
X3953000Y-11727000D01*
X3953000Y-11473000D01*
X3973000Y-11473000D01*
X3973000Y-11453000D01*
X4227000Y-11453000D01*
X4227000Y-11473000D01*
X5251250Y-11473000D01*
X5410000Y-11314250D01*
X5413072Y-10925000D01*
X5400812Y-10800518D01*
X5364502Y-10680820D01*
X5305537Y-10570506D01*
X5226185Y-10473815D01*
X5129494Y-10394463D01*
X5019180Y-10335498D01*
X4899482Y-10299188D01*
X4775000Y-10286928D01*
X4385750Y-10290000D01*
X4227002Y-10448748D01*
X4227002Y-10402930D01*
X4891861Y-9738072D01*
X5306250Y-9738072D01*
X5478285Y-9721128D01*
X5643709Y-9670947D01*
X5796164Y-9589458D01*
X5929792Y-9479792D01*
X6000000Y-9394244D01*
X6070208Y-9479792D01*
X6203836Y-9589458D01*
X6356291Y-9670947D01*
X6521715Y-9721128D01*
X6693750Y-9738072D01*
X7181250Y-9738072D01*
X7353285Y-9721128D01*
X7518709Y-9670947D01*
X7671164Y-9589458D01*
X7804792Y-9479792D01*
X7914458Y-9346164D01*
X7978954Y-9225500D01*
X9174497Y-9225500D01*
X9210498Y-9344180D01*
X9210498Y-9344180D01*
G37*
X9210498Y-9344180D02*
X9269463Y-9454494D01*
X9347369Y-9549423D01*
X9290498Y-9655820D01*
X9254188Y-9775518D01*
X9241928Y-9900000D01*
X9245000Y-10314250D01*
X9403750Y-10473000D01*
X10353000Y-10473000D01*
X10353000Y-10453000D01*
X10607000Y-10453000D01*
X10607000Y-10473000D01*
X10627000Y-10473000D01*
X10627000Y-10727000D01*
X10607000Y-10727000D01*
X10607000Y-10747000D01*
X10353000Y-10747000D01*
X10353000Y-10727000D01*
X9403750Y-10727000D01*
X9245000Y-10885750D01*
X9242488Y-11224497D01*
X9112305Y-11263988D01*
X9050684Y-11296925D01*
X8979927Y-11334745D01*
X8958660Y-11352199D01*
X8863898Y-11429968D01*
X8840036Y-11459044D01*
X6689680Y-13609400D01*
X5415412Y-13609400D01*
X5416338Y-13600000D01*
X5391045Y-13343195D01*
X5316138Y-13096259D01*
X5194495Y-12868682D01*
X5137369Y-12799074D01*
X5226185Y-12726185D01*
X5305537Y-12629494D01*
X5364502Y-12519180D01*
X5400812Y-12399482D01*
X5413072Y-12275000D01*
X5410000Y-11885750D01*
X5251250Y-11727000D01*
X4227000Y-11727000D01*
X4227000Y-11747000D01*
X3973000Y-11747000D01*
X3973000Y-11727000D01*
X3953000Y-11727000D01*
X3953000Y-11473000D01*
X3973000Y-11473000D01*
X3973000Y-11453000D01*
X4227000Y-11453000D01*
X4227000Y-11473000D01*
X5251250Y-11473000D01*
X5410000Y-11314250D01*
X5413072Y-10925000D01*
X5400812Y-10800518D01*
X5364502Y-10680820D01*
X5305537Y-10570506D01*
X5226185Y-10473815D01*
X5129494Y-10394463D01*
X5019180Y-10335498D01*
X4899482Y-10299188D01*
X4775000Y-10286928D01*
X4385750Y-10290000D01*
X4227002Y-10448748D01*
X4227002Y-10402930D01*
X4891861Y-9738072D01*
X5306250Y-9738072D01*
X5478285Y-9721128D01*
X5643709Y-9670947D01*
X5796164Y-9589458D01*
X5929792Y-9479792D01*
X6000000Y-9394244D01*
X6070208Y-9479792D01*
X6203836Y-9589458D01*
X6356291Y-9670947D01*
X6521715Y-9721128D01*
X6693750Y-9738072D01*
X7181250Y-9738072D01*
X7353285Y-9721128D01*
X7518709Y-9670947D01*
X7671164Y-9589458D01*
X7804792Y-9479792D01*
X7914458Y-9346164D01*
X7978954Y-9225500D01*
X9174497Y-9225500D01*
X9210498Y-9344180D01*
G36*
X6807000Y-5153000D02*
G01*
X6827000Y-5153000D01*
X6827000Y-5407000D01*
X6807000Y-5407000D01*
X6807000Y-6797954D01*
X6837627Y-6820050D01*
X6836928Y-6920000D01*
X6849188Y-7044482D01*
X6854480Y-7061928D01*
X6693750Y-7061928D01*
X6521715Y-7078872D01*
X6356291Y-7129053D01*
X6223338Y-7200118D01*
X6246608Y-7123408D01*
X6263072Y-6956250D01*
X6263072Y-6882944D01*
X6378126Y-6924119D01*
X6553000Y-6797954D01*
X6553000Y-6216307D01*
X6562000Y-6124926D01*
X6562000Y-6124923D01*
X6565686Y-6087500D01*
X6562000Y-6050077D01*
X6562000Y-5133000D01*
X6807000Y-5133000D01*
X6807000Y-5153000D01*
X6807000Y-5153000D01*
G37*
X6807000Y-5153000D02*
X6827000Y-5153000D01*
X6827000Y-5407000D01*
X6807000Y-5407000D01*
X6807000Y-6797954D01*
X6837627Y-6820050D01*
X6836928Y-6920000D01*
X6849188Y-7044482D01*
X6854480Y-7061928D01*
X6693750Y-7061928D01*
X6521715Y-7078872D01*
X6356291Y-7129053D01*
X6223338Y-7200118D01*
X6246608Y-7123408D01*
X6263072Y-6956250D01*
X6263072Y-6882944D01*
X6378126Y-6924119D01*
X6553000Y-6797954D01*
X6553000Y-6216307D01*
X6562000Y-6124926D01*
X6562000Y-6124923D01*
X6565686Y-6087500D01*
X6562000Y-6050077D01*
X6562000Y-5133000D01*
X6807000Y-5133000D01*
X6807000Y-5153000D01*
G36*
X15438001Y-5427000D02*
G01*
X15193000Y-5427000D01*
X15193000Y-5407000D01*
X15173000Y-5407000D01*
X15173000Y-5153000D01*
X15193000Y-5153000D01*
X15193000Y-5133000D01*
X15438001Y-5133000D01*
X15438001Y-5427000D01*
X15438001Y-5427000D01*
G37*
X15438001Y-5427000D02*
X15193000Y-5427000D01*
X15193000Y-5407000D01*
X15173000Y-5407000D01*
X15173000Y-5153000D01*
X15193000Y-5153000D01*
X15193000Y-5133000D01*
X15438001Y-5133000D01*
X15438001Y-5427000D01*
G36*
X14185000Y-973000D02*
G01*
X15193000Y-973000D01*
X15193000Y-953000D01*
X15447000Y-953000D01*
X15447000Y-973000D01*
X15467000Y-973000D01*
X15467000Y-1227000D01*
X15447000Y-1227000D01*
X15447000Y-2367954D01*
X15621874Y-2494119D01*
X15701787Y-2465520D01*
X15648866Y-2995431D01*
X15653151Y-3039549D01*
X15637426Y-3038000D01*
X15637423Y-3038000D01*
X15600000Y-3034314D01*
X15562577Y-3038000D01*
X13437423Y-3038000D01*
X13400000Y-3034314D01*
X13362577Y-3038000D01*
X13362574Y-3038000D01*
X13250622Y-3049026D01*
X13106985Y-3092598D01*
X13060440Y-3117477D01*
X12974607Y-3163355D01*
X12943348Y-3189009D01*
X12858578Y-3258578D01*
X12834716Y-3287654D01*
X11825454Y-4296916D01*
X11817377Y-4292598D01*
X11673740Y-4249026D01*
X11561788Y-4238000D01*
X11561785Y-4238000D01*
X11524362Y-4234314D01*
X11486939Y-4238000D01*
X11003422Y-4238000D01*
X10965999Y-4234314D01*
X10928576Y-4238000D01*
X10928574Y-4238000D01*
X10816622Y-4249026D01*
X10672985Y-4292598D01*
X10540608Y-4363355D01*
X10424578Y-4458578D01*
X10400716Y-4487654D01*
X10237649Y-4650721D01*
X10208579Y-4674578D01*
X10184722Y-4703648D01*
X10184721Y-4703649D01*
X10113355Y-4790608D01*
X10090784Y-4832836D01*
X10007876Y-4841001D01*
X10000974Y-4770924D01*
X9957402Y-4627287D01*
X9886645Y-4494910D01*
X9791422Y-4378880D01*
X9762353Y-4355024D01*
X8694982Y-3287654D01*
X8671120Y-3258578D01*
X8555090Y-3163355D01*
X8422713Y-3092598D01*
X8279076Y-3049026D01*
X8167124Y-3038000D01*
X8167121Y-3038000D01*
X8129698Y-3034314D01*
X8092275Y-3038000D01*
X6437422Y-3038000D01*
X6399999Y-3034314D01*
X6362576Y-3038000D01*
X6362574Y-3038000D01*
X6347649Y-3039470D01*
X6351134Y-3004569D01*
X6298805Y-2465732D01*
X6378126Y-2494119D01*
X6553000Y-2367954D01*
X6553000Y-1227000D01*
X6807000Y-1227000D01*
X6807000Y-2367954D01*
X6981874Y-2494119D01*
X7204976Y-2414276D01*
X7392764Y-2292369D01*
X7553161Y-2136169D01*
X7680003Y-1951678D01*
X7768415Y-1745987D01*
X7815000Y-1527000D01*
X7815000Y-1227000D01*
X14185000Y-1227000D01*
X14185000Y-1527000D01*
X14231585Y-1745987D01*
X14319997Y-1951678D01*
X14446839Y-2136169D01*
X14607236Y-2292369D01*
X14795024Y-2414276D01*
X15018126Y-2494119D01*
X15193000Y-2367954D01*
X15193000Y-1227000D01*
X14185000Y-1227000D01*
X7815000Y-1227000D01*
X6807000Y-1227000D01*
X6553000Y-1227000D01*
X6533000Y-1227000D01*
X6533000Y-973000D01*
X6553000Y-973000D01*
X6553000Y-953000D01*
X6807000Y-953000D01*
X6807000Y-973000D01*
X7815000Y-973000D01*
X7815000Y-710000D01*
X14185000Y-710000D01*
X14185000Y-973000D01*
X14185000Y-973000D01*
G37*
X14185000Y-973000D02*
X15193000Y-973000D01*
X15193000Y-953000D01*
X15447000Y-953000D01*
X15447000Y-973000D01*
X15467000Y-973000D01*
X15467000Y-1227000D01*
X15447000Y-1227000D01*
X15447000Y-2367954D01*
X15621874Y-2494119D01*
X15701787Y-2465520D01*
X15648866Y-2995431D01*
X15653151Y-3039549D01*
X15637426Y-3038000D01*
X15637423Y-3038000D01*
X15600000Y-3034314D01*
X15562577Y-3038000D01*
X13437423Y-3038000D01*
X13400000Y-3034314D01*
X13362577Y-3038000D01*
X13362574Y-3038000D01*
X13250622Y-3049026D01*
X13106985Y-3092598D01*
X13060440Y-3117477D01*
X12974607Y-3163355D01*
X12943348Y-3189009D01*
X12858578Y-3258578D01*
X12834716Y-3287654D01*
X11825454Y-4296916D01*
X11817377Y-4292598D01*
X11673740Y-4249026D01*
X11561788Y-4238000D01*
X11561785Y-4238000D01*
X11524362Y-4234314D01*
X11486939Y-4238000D01*
X11003422Y-4238000D01*
X10965999Y-4234314D01*
X10928576Y-4238000D01*
X10928574Y-4238000D01*
X10816622Y-4249026D01*
X10672985Y-4292598D01*
X10540608Y-4363355D01*
X10424578Y-4458578D01*
X10400716Y-4487654D01*
X10237649Y-4650721D01*
X10208579Y-4674578D01*
X10184722Y-4703648D01*
X10184721Y-4703649D01*
X10113355Y-4790608D01*
X10090784Y-4832836D01*
X10007876Y-4841001D01*
X10000974Y-4770924D01*
X9957402Y-4627287D01*
X9886645Y-4494910D01*
X9791422Y-4378880D01*
X9762353Y-4355024D01*
X8694982Y-3287654D01*
X8671120Y-3258578D01*
X8555090Y-3163355D01*
X8422713Y-3092598D01*
X8279076Y-3049026D01*
X8167124Y-3038000D01*
X8167121Y-3038000D01*
X8129698Y-3034314D01*
X8092275Y-3038000D01*
X6437422Y-3038000D01*
X6399999Y-3034314D01*
X6362576Y-3038000D01*
X6362574Y-3038000D01*
X6347649Y-3039470D01*
X6351134Y-3004569D01*
X6298805Y-2465732D01*
X6378126Y-2494119D01*
X6553000Y-2367954D01*
X6553000Y-1227000D01*
X6807000Y-1227000D01*
X6807000Y-2367954D01*
X6981874Y-2494119D01*
X7204976Y-2414276D01*
X7392764Y-2292369D01*
X7553161Y-2136169D01*
X7680003Y-1951678D01*
X7768415Y-1745987D01*
X7815000Y-1527000D01*
X7815000Y-1227000D01*
X14185000Y-1227000D01*
X14185000Y-1527000D01*
X14231585Y-1745987D01*
X14319997Y-1951678D01*
X14446839Y-2136169D01*
X14607236Y-2292369D01*
X14795024Y-2414276D01*
X15018126Y-2494119D01*
X15193000Y-2367954D01*
X15193000Y-1227000D01*
X14185000Y-1227000D01*
X7815000Y-1227000D01*
X6807000Y-1227000D01*
X6553000Y-1227000D01*
X6533000Y-1227000D01*
X6533000Y-973000D01*
X6553000Y-973000D01*
X6553000Y-953000D01*
X6807000Y-953000D01*
X6807000Y-973000D01*
X7815000Y-973000D01*
X7815000Y-710000D01*
X14185000Y-710000D01*
X14185000Y-973000D01*
G36*
X19193748Y-2985858D02*
G01*
X19179605Y-3000000D01*
X19193748Y-3014143D01*
X19014143Y-3193748D01*
X19000000Y-3179605D01*
X18985858Y-3193748D01*
X18806253Y-3014143D01*
X18820395Y-3000000D01*
X18806253Y-2985858D01*
X18985858Y-2806253D01*
X19000000Y-2820395D01*
X19014143Y-2806253D01*
X19193748Y-2985858D01*
X19193748Y-2985858D01*
G37*
X19193748Y-2985858D02*
X19179605Y-3000000D01*
X19193748Y-3014143D01*
X19014143Y-3193748D01*
X19000000Y-3179605D01*
X18985858Y-3193748D01*
X18806253Y-3014143D01*
X18820395Y-3000000D01*
X18806253Y-2985858D01*
X18985858Y-2806253D01*
X19000000Y-2820395D01*
X19014143Y-2806253D01*
X19193748Y-2985858D01*
G36*
X3193748Y-2985858D02*
G01*
X3179605Y-3000000D01*
X3193748Y-3014143D01*
X3014143Y-3193748D01*
X3000000Y-3179605D01*
X2985858Y-3193748D01*
X2806253Y-3014143D01*
X2820395Y-3000000D01*
X2806253Y-2985858D01*
X2985858Y-2806253D01*
X3000000Y-2820395D01*
X3014143Y-2806253D01*
X3193748Y-2985858D01*
X3193748Y-2985858D01*
G37*
X3193748Y-2985858D02*
X3179605Y-3000000D01*
X3193748Y-3014143D01*
X3014143Y-3193748D01*
X3000000Y-3179605D01*
X2985858Y-3193748D01*
X2806253Y-3014143D01*
X2820395Y-3000000D01*
X2806253Y-2985858D01*
X2985858Y-2806253D01*
X3000000Y-2820395D01*
X3014143Y-2806253D01*
X3193748Y-2985858D01*
M02*
