G04 #@! TF.GenerationSoftware,KiCad,Pcbnew,(5.1.2)-1*
G04 #@! TF.CreationDate,2019-06-30T02:02:04-07:00*
G04 #@! TF.ProjectId,daughterboard,64617567-6874-4657-9262-6f6172642e6b,rev?*
G04 #@! TF.SameCoordinates,Original*
G04 #@! TF.FileFunction,Soldermask,Top*
G04 #@! TF.FilePolarity,Negative*
%FSLAX46Y46*%
G04 Gerber Fmt 4.6, Leading zero omitted, Abs format (unit mm)*
G04 Created by KiCad (PCBNEW (5.1.2)-1) date 2019-06-30 02:02:04*
%MOMM*%
%LPD*%
G04 APERTURE LIST*
%ADD10C,0.100000*%
G04 APERTURE END LIST*
D10*
G36*
X11536694Y-13301860D02*
G01*
X11802437Y-13354719D01*
X12303087Y-13562095D01*
X12483561Y-13682684D01*
X12753660Y-13863158D01*
X13136842Y-14246340D01*
X13317316Y-14516439D01*
X13437905Y-14696913D01*
X13645281Y-15197563D01*
X13645281Y-15197564D01*
X13751000Y-15729049D01*
X13751000Y-16270951D01*
X13715186Y-16451000D01*
X13645281Y-16802437D01*
X13437905Y-17303087D01*
X13381521Y-17387471D01*
X13136842Y-17753660D01*
X12753660Y-18136842D01*
X12548416Y-18273981D01*
X12303087Y-18437905D01*
X11802437Y-18645281D01*
X11536693Y-18698141D01*
X11270951Y-18751000D01*
X10729049Y-18751000D01*
X10463307Y-18698141D01*
X10197563Y-18645281D01*
X9696913Y-18437905D01*
X9451584Y-18273981D01*
X9246340Y-18136842D01*
X8863158Y-17753660D01*
X8618479Y-17387471D01*
X8562095Y-17303087D01*
X8354719Y-16802437D01*
X8284814Y-16451000D01*
X8249000Y-16270951D01*
X8249000Y-15729049D01*
X8354719Y-15197564D01*
X8354719Y-15197563D01*
X8562095Y-14696913D01*
X8682684Y-14516439D01*
X8863158Y-14246340D01*
X9246340Y-13863158D01*
X9516439Y-13682684D01*
X9696913Y-13562095D01*
X10197563Y-13354719D01*
X10463306Y-13301860D01*
X10729049Y-13249000D01*
X11270951Y-13249000D01*
X11536694Y-13301860D01*
X11536694Y-13301860D01*
G37*
G36*
X4171213Y-16877502D02*
G01*
X4242321Y-16884505D01*
X4379172Y-16926019D01*
X4379175Y-16926020D01*
X4505294Y-16993432D01*
X4615843Y-17084157D01*
X4706568Y-17194706D01*
X4773980Y-17320825D01*
X4773981Y-17320828D01*
X4815495Y-17457679D01*
X4829512Y-17600000D01*
X4815495Y-17742321D01*
X4773981Y-17879172D01*
X4773980Y-17879175D01*
X4706568Y-18005294D01*
X4615843Y-18115843D01*
X4505294Y-18206568D01*
X4379175Y-18273980D01*
X4379172Y-18273981D01*
X4242321Y-18315495D01*
X4171213Y-18322498D01*
X4135660Y-18326000D01*
X4064340Y-18326000D01*
X4028787Y-18322498D01*
X3957679Y-18315495D01*
X3820828Y-18273981D01*
X3820825Y-18273980D01*
X3694706Y-18206568D01*
X3584157Y-18115843D01*
X3493432Y-18005294D01*
X3426020Y-17879175D01*
X3426019Y-17879172D01*
X3384505Y-17742321D01*
X3370488Y-17600000D01*
X3384505Y-17457679D01*
X3426019Y-17320828D01*
X3426020Y-17320825D01*
X3493432Y-17194706D01*
X3584157Y-17084157D01*
X3694706Y-16993432D01*
X3820825Y-16926020D01*
X3820828Y-16926019D01*
X3957679Y-16884505D01*
X4028787Y-16877502D01*
X4064340Y-16874000D01*
X4135660Y-16874000D01*
X4171213Y-16877502D01*
X4171213Y-16877502D01*
G37*
G36*
X4171213Y-14877502D02*
G01*
X4242321Y-14884505D01*
X4379172Y-14926019D01*
X4379175Y-14926020D01*
X4505294Y-14993432D01*
X4615843Y-15084157D01*
X4706568Y-15194706D01*
X4773980Y-15320825D01*
X4773981Y-15320828D01*
X4815495Y-15457679D01*
X4829512Y-15600000D01*
X4815495Y-15742321D01*
X4802132Y-15786371D01*
X4773980Y-15879175D01*
X4706568Y-16005294D01*
X4615843Y-16115843D01*
X4505294Y-16206568D01*
X4379175Y-16273980D01*
X4379172Y-16273981D01*
X4242321Y-16315495D01*
X4171213Y-16322498D01*
X4135660Y-16326000D01*
X4064340Y-16326000D01*
X4028787Y-16322498D01*
X3957679Y-16315495D01*
X3820828Y-16273981D01*
X3820825Y-16273980D01*
X3694706Y-16206568D01*
X3584157Y-16115843D01*
X3493432Y-16005294D01*
X3426020Y-15879175D01*
X3397868Y-15786371D01*
X3384505Y-15742321D01*
X3370488Y-15600000D01*
X3384505Y-15457679D01*
X3426019Y-15320828D01*
X3426020Y-15320825D01*
X3493432Y-15194706D01*
X3584157Y-15084157D01*
X3694706Y-14993432D01*
X3820825Y-14926020D01*
X3820828Y-14926019D01*
X3957679Y-14884505D01*
X4028787Y-14877502D01*
X4064340Y-14874000D01*
X4135660Y-14874000D01*
X4171213Y-14877502D01*
X4171213Y-14877502D01*
G37*
G36*
X4171213Y-12877502D02*
G01*
X4242321Y-12884505D01*
X4379172Y-12926019D01*
X4379175Y-12926020D01*
X4505294Y-12993432D01*
X4615843Y-13084157D01*
X4706568Y-13194706D01*
X4773980Y-13320825D01*
X4773981Y-13320828D01*
X4815495Y-13457679D01*
X4829512Y-13600000D01*
X4815495Y-13742321D01*
X4773981Y-13879172D01*
X4773980Y-13879175D01*
X4706568Y-14005294D01*
X4615843Y-14115843D01*
X4505294Y-14206568D01*
X4379175Y-14273980D01*
X4379172Y-14273981D01*
X4242321Y-14315495D01*
X4171213Y-14322498D01*
X4135660Y-14326000D01*
X4064340Y-14326000D01*
X4028787Y-14322498D01*
X3957679Y-14315495D01*
X3820828Y-14273981D01*
X3820825Y-14273980D01*
X3694706Y-14206568D01*
X3584157Y-14115843D01*
X3493432Y-14005294D01*
X3426020Y-13879175D01*
X3426019Y-13879172D01*
X3384505Y-13742321D01*
X3370488Y-13600000D01*
X3384505Y-13457679D01*
X3426019Y-13320828D01*
X3426020Y-13320825D01*
X3493432Y-13194706D01*
X3584157Y-13084157D01*
X3694706Y-12993432D01*
X3820825Y-12926020D01*
X3820828Y-12926019D01*
X3957679Y-12884505D01*
X4028787Y-12877502D01*
X4064340Y-12874000D01*
X4135660Y-12874000D01*
X4171213Y-12877502D01*
X4171213Y-12877502D01*
G37*
G36*
X4826000Y-12326000D02*
G01*
X3374000Y-12326000D01*
X3374000Y-10874000D01*
X4826000Y-10874000D01*
X4826000Y-12326000D01*
X4826000Y-12326000D01*
G37*
G36*
X11131000Y-11351000D02*
G01*
X9829000Y-11351000D01*
X9829000Y-9849000D01*
X11131000Y-9849000D01*
X11131000Y-11351000D01*
X11131000Y-11351000D01*
G37*
G36*
X12751000Y-11351000D02*
G01*
X11649000Y-11351000D01*
X11649000Y-9849000D01*
X12751000Y-9849000D01*
X12751000Y-11351000D01*
X12751000Y-11351000D01*
G37*
G36*
X7309468Y-7653565D02*
G01*
X7348138Y-7665296D01*
X7383777Y-7684346D01*
X7415017Y-7709983D01*
X7440654Y-7741223D01*
X7459704Y-7776862D01*
X7471435Y-7815532D01*
X7476000Y-7861888D01*
X7476000Y-8938112D01*
X7471435Y-8984468D01*
X7459704Y-9023138D01*
X7440654Y-9058777D01*
X7415017Y-9090017D01*
X7383777Y-9115654D01*
X7348138Y-9134704D01*
X7309468Y-9146435D01*
X7263112Y-9151000D01*
X6611888Y-9151000D01*
X6565532Y-9146435D01*
X6526862Y-9134704D01*
X6491223Y-9115654D01*
X6459983Y-9090017D01*
X6434346Y-9058777D01*
X6415296Y-9023138D01*
X6403565Y-8984468D01*
X6399000Y-8938112D01*
X6399000Y-7861888D01*
X6403565Y-7815532D01*
X6415296Y-7776862D01*
X6434346Y-7741223D01*
X6459983Y-7709983D01*
X6491223Y-7684346D01*
X6526862Y-7665296D01*
X6565532Y-7653565D01*
X6611888Y-7649000D01*
X7263112Y-7649000D01*
X7309468Y-7653565D01*
X7309468Y-7653565D01*
G37*
G36*
X12751000Y-9151000D02*
G01*
X11649000Y-9151000D01*
X11649000Y-7649000D01*
X12751000Y-7649000D01*
X12751000Y-9151000D01*
X12751000Y-9151000D01*
G37*
G36*
X5434468Y-7653565D02*
G01*
X5473138Y-7665296D01*
X5508777Y-7684346D01*
X5540017Y-7709983D01*
X5565654Y-7741223D01*
X5584704Y-7776862D01*
X5596435Y-7815532D01*
X5601000Y-7861888D01*
X5601000Y-8938112D01*
X5596435Y-8984468D01*
X5584704Y-9023138D01*
X5565654Y-9058777D01*
X5540017Y-9090017D01*
X5508777Y-9115654D01*
X5473138Y-9134704D01*
X5434468Y-9146435D01*
X5388112Y-9151000D01*
X4736888Y-9151000D01*
X4690532Y-9146435D01*
X4651862Y-9134704D01*
X4616223Y-9115654D01*
X4584983Y-9090017D01*
X4559346Y-9058777D01*
X4540296Y-9023138D01*
X4528565Y-8984468D01*
X4524000Y-8938112D01*
X4524000Y-7861888D01*
X4528565Y-7815532D01*
X4540296Y-7776862D01*
X4559346Y-7741223D01*
X4584983Y-7709983D01*
X4616223Y-7684346D01*
X4651862Y-7665296D01*
X4690532Y-7653565D01*
X4736888Y-7649000D01*
X5388112Y-7649000D01*
X5434468Y-7653565D01*
X5434468Y-7653565D01*
G37*
G36*
X10851000Y-9151000D02*
G01*
X9749000Y-9151000D01*
X9749000Y-7649000D01*
X10851000Y-7649000D01*
X10851000Y-9151000D01*
X10851000Y-9151000D01*
G37*
G36*
X2054591Y-7878085D02*
G01*
X2088569Y-7888393D01*
X2119890Y-7905134D01*
X2147339Y-7927661D01*
X2169866Y-7955110D01*
X2186607Y-7986431D01*
X2196915Y-8020409D01*
X2201000Y-8061890D01*
X2201000Y-8738110D01*
X2196915Y-8779591D01*
X2186607Y-8813569D01*
X2169866Y-8844890D01*
X2147339Y-8872339D01*
X2119890Y-8894866D01*
X2088569Y-8911607D01*
X2054591Y-8921915D01*
X2013110Y-8926000D01*
X1411890Y-8926000D01*
X1370409Y-8921915D01*
X1336431Y-8911607D01*
X1305110Y-8894866D01*
X1277661Y-8872339D01*
X1255134Y-8844890D01*
X1238393Y-8813569D01*
X1228085Y-8779591D01*
X1224000Y-8738110D01*
X1224000Y-8061890D01*
X1228085Y-8020409D01*
X1238393Y-7986431D01*
X1255134Y-7955110D01*
X1277661Y-7927661D01*
X1305110Y-7905134D01*
X1336431Y-7888393D01*
X1370409Y-7878085D01*
X1411890Y-7874000D01*
X2013110Y-7874000D01*
X2054591Y-7878085D01*
X2054591Y-7878085D01*
G37*
G36*
X3629591Y-7878085D02*
G01*
X3663569Y-7888393D01*
X3694890Y-7905134D01*
X3722339Y-7927661D01*
X3744866Y-7955110D01*
X3761607Y-7986431D01*
X3771915Y-8020409D01*
X3776000Y-8061890D01*
X3776000Y-8738110D01*
X3771915Y-8779591D01*
X3761607Y-8813569D01*
X3744866Y-8844890D01*
X3722339Y-8872339D01*
X3694890Y-8894866D01*
X3663569Y-8911607D01*
X3629591Y-8921915D01*
X3588110Y-8926000D01*
X2986890Y-8926000D01*
X2945409Y-8921915D01*
X2911431Y-8911607D01*
X2880110Y-8894866D01*
X2852661Y-8872339D01*
X2830134Y-8844890D01*
X2813393Y-8813569D01*
X2803085Y-8779591D01*
X2799000Y-8738110D01*
X2799000Y-8061890D01*
X2803085Y-8020409D01*
X2813393Y-7986431D01*
X2830134Y-7955110D01*
X2852661Y-7927661D01*
X2880110Y-7905134D01*
X2911431Y-7888393D01*
X2945409Y-7878085D01*
X2986890Y-7874000D01*
X3588110Y-7874000D01*
X3629591Y-7878085D01*
X3629591Y-7878085D01*
G37*
G36*
X16542091Y-6978085D02*
G01*
X16576069Y-6988393D01*
X16607390Y-7005134D01*
X16634839Y-7027661D01*
X16657366Y-7055110D01*
X16674107Y-7086431D01*
X16684415Y-7120409D01*
X16688500Y-7161890D01*
X16688500Y-7838110D01*
X16684415Y-7879591D01*
X16674107Y-7913569D01*
X16657366Y-7944890D01*
X16634839Y-7972339D01*
X16607390Y-7994866D01*
X16576069Y-8011607D01*
X16542091Y-8021915D01*
X16500610Y-8026000D01*
X15899390Y-8026000D01*
X15857909Y-8021915D01*
X15823931Y-8011607D01*
X15792610Y-7994866D01*
X15765161Y-7972339D01*
X15742634Y-7944890D01*
X15725893Y-7913569D01*
X15715585Y-7879591D01*
X15711500Y-7838110D01*
X15711500Y-7161890D01*
X15715585Y-7120409D01*
X15725893Y-7086431D01*
X15742634Y-7055110D01*
X15765161Y-7027661D01*
X15792610Y-7005134D01*
X15823931Y-6988393D01*
X15857909Y-6978085D01*
X15899390Y-6974000D01*
X16500610Y-6974000D01*
X16542091Y-6978085D01*
X16542091Y-6978085D01*
G37*
G36*
X18117091Y-6978085D02*
G01*
X18151069Y-6988393D01*
X18182390Y-7005134D01*
X18209839Y-7027661D01*
X18232366Y-7055110D01*
X18249107Y-7086431D01*
X18259415Y-7120409D01*
X18263500Y-7161890D01*
X18263500Y-7838110D01*
X18259415Y-7879591D01*
X18249107Y-7913569D01*
X18232366Y-7944890D01*
X18209839Y-7972339D01*
X18182390Y-7994866D01*
X18151069Y-8011607D01*
X18117091Y-8021915D01*
X18075610Y-8026000D01*
X17474390Y-8026000D01*
X17432909Y-8021915D01*
X17398931Y-8011607D01*
X17367610Y-7994866D01*
X17340161Y-7972339D01*
X17317634Y-7944890D01*
X17300893Y-7913569D01*
X17290585Y-7879591D01*
X17286500Y-7838110D01*
X17286500Y-7161890D01*
X17290585Y-7120409D01*
X17300893Y-7086431D01*
X17317634Y-7055110D01*
X17340161Y-7027661D01*
X17367610Y-7005134D01*
X17398931Y-6988393D01*
X17432909Y-6978085D01*
X17474390Y-6974000D01*
X18075610Y-6974000D01*
X18117091Y-6978085D01*
X18117091Y-6978085D01*
G37*
G36*
X5529591Y-6178085D02*
G01*
X5563569Y-6188393D01*
X5594890Y-6205134D01*
X5622339Y-6227661D01*
X5644866Y-6255110D01*
X5661607Y-6286431D01*
X5671915Y-6320409D01*
X5676000Y-6361890D01*
X5676000Y-7038110D01*
X5671915Y-7079591D01*
X5661607Y-7113569D01*
X5644866Y-7144890D01*
X5622339Y-7172339D01*
X5594890Y-7194866D01*
X5563569Y-7211607D01*
X5529591Y-7221915D01*
X5488110Y-7226000D01*
X4886890Y-7226000D01*
X4845409Y-7221915D01*
X4811431Y-7211607D01*
X4780110Y-7194866D01*
X4752661Y-7172339D01*
X4730134Y-7144890D01*
X4713393Y-7113569D01*
X4703085Y-7079591D01*
X4699000Y-7038110D01*
X4699000Y-6361890D01*
X4703085Y-6320409D01*
X4713393Y-6286431D01*
X4730134Y-6255110D01*
X4752661Y-6227661D01*
X4780110Y-6205134D01*
X4811431Y-6188393D01*
X4845409Y-6178085D01*
X4886890Y-6174000D01*
X5488110Y-6174000D01*
X5529591Y-6178085D01*
X5529591Y-6178085D01*
G37*
G36*
X3954591Y-6178085D02*
G01*
X3988569Y-6188393D01*
X4019890Y-6205134D01*
X4047339Y-6227661D01*
X4069866Y-6255110D01*
X4086607Y-6286431D01*
X4096915Y-6320409D01*
X4101000Y-6361890D01*
X4101000Y-7038110D01*
X4096915Y-7079591D01*
X4086607Y-7113569D01*
X4069866Y-7144890D01*
X4047339Y-7172339D01*
X4019890Y-7194866D01*
X3988569Y-7211607D01*
X3954591Y-7221915D01*
X3913110Y-7226000D01*
X3311890Y-7226000D01*
X3270409Y-7221915D01*
X3236431Y-7211607D01*
X3205110Y-7194866D01*
X3177661Y-7172339D01*
X3155134Y-7144890D01*
X3138393Y-7113569D01*
X3128085Y-7079591D01*
X3124000Y-7038110D01*
X3124000Y-6361890D01*
X3128085Y-6320409D01*
X3138393Y-6286431D01*
X3155134Y-6255110D01*
X3177661Y-6227661D01*
X3205110Y-6205134D01*
X3236431Y-6188393D01*
X3270409Y-6178085D01*
X3311890Y-6174000D01*
X3913110Y-6174000D01*
X3954591Y-6178085D01*
X3954591Y-6178085D01*
G37*
G36*
X15428015Y-4186973D02*
G01*
X15531879Y-4218479D01*
X15559055Y-4233005D01*
X15627600Y-4269643D01*
X15711501Y-4338499D01*
X15780357Y-4422400D01*
X15799354Y-4457942D01*
X15831521Y-4518121D01*
X15863027Y-4621985D01*
X15871000Y-4702933D01*
X15871000Y-5857067D01*
X15863027Y-5938015D01*
X15831521Y-6041879D01*
X15807987Y-6085907D01*
X15780357Y-6137599D01*
X15780354Y-6137603D01*
X15711501Y-6221501D01*
X15642645Y-6278009D01*
X15627599Y-6290357D01*
X15575907Y-6317987D01*
X15531878Y-6341521D01*
X15428014Y-6373027D01*
X15320000Y-6383666D01*
X15211985Y-6373027D01*
X15108121Y-6341521D01*
X15064093Y-6317987D01*
X15012401Y-6290357D01*
X14999643Y-6279887D01*
X14928499Y-6221501D01*
X14859644Y-6137600D01*
X14811230Y-6047024D01*
X14797625Y-6026664D01*
X14780298Y-6009337D01*
X14759924Y-5995723D01*
X14737285Y-5986346D01*
X14713252Y-5981565D01*
X14688748Y-5981565D01*
X14664714Y-5986345D01*
X14642075Y-5995722D01*
X14621701Y-6009336D01*
X14604374Y-6026663D01*
X14590760Y-6047037D01*
X14581383Y-6069676D01*
X14576602Y-6093709D01*
X14576000Y-6105962D01*
X14576000Y-6971000D01*
X7424000Y-6971000D01*
X7424000Y-6105962D01*
X7421598Y-6081577D01*
X7414485Y-6058128D01*
X7402934Y-6036517D01*
X7387389Y-6017575D01*
X7368447Y-6002030D01*
X7346836Y-5990479D01*
X7323387Y-5983366D01*
X7299001Y-5980964D01*
X7274615Y-5983366D01*
X7251166Y-5990479D01*
X7229555Y-6002030D01*
X7210613Y-6017575D01*
X7195068Y-6036517D01*
X7188778Y-6047010D01*
X7140356Y-6137600D01*
X7140355Y-6137602D01*
X7071501Y-6221501D01*
X7002645Y-6278009D01*
X6987599Y-6290357D01*
X6935907Y-6317987D01*
X6891878Y-6341521D01*
X6788014Y-6373027D01*
X6680000Y-6383666D01*
X6571985Y-6373027D01*
X6468121Y-6341521D01*
X6424093Y-6317987D01*
X6372401Y-6290357D01*
X6359643Y-6279887D01*
X6288499Y-6221501D01*
X6219646Y-6137603D01*
X6219643Y-6137599D01*
X6189699Y-6081577D01*
X6168479Y-6041878D01*
X6136973Y-5938014D01*
X6129000Y-5857066D01*
X6129001Y-4702933D01*
X6136974Y-4621985D01*
X6168480Y-4518121D01*
X6200647Y-4457942D01*
X6219644Y-4422400D01*
X6288500Y-4338499D01*
X6372401Y-4269643D01*
X6440946Y-4233005D01*
X6468122Y-4218479D01*
X6571986Y-4186973D01*
X6680000Y-4176334D01*
X6788015Y-4186973D01*
X6891879Y-4218479D01*
X6919055Y-4233005D01*
X6987600Y-4269643D01*
X7071501Y-4338499D01*
X7140357Y-4422400D01*
X7159354Y-4457942D01*
X7191521Y-4518121D01*
X7223027Y-4621985D01*
X7231000Y-4702933D01*
X7231000Y-5294001D01*
X7233402Y-5318387D01*
X7240515Y-5341836D01*
X7252066Y-5363447D01*
X7267611Y-5382389D01*
X7286553Y-5397934D01*
X7308164Y-5409485D01*
X7331613Y-5416598D01*
X7355999Y-5419000D01*
X14644001Y-5419000D01*
X14668387Y-5416598D01*
X14691836Y-5409485D01*
X14713447Y-5397934D01*
X14732389Y-5382389D01*
X14747934Y-5363447D01*
X14759485Y-5341836D01*
X14766598Y-5318387D01*
X14769000Y-5294001D01*
X14769001Y-4702939D01*
X14769001Y-4702933D01*
X14776974Y-4621985D01*
X14808480Y-4518121D01*
X14840647Y-4457942D01*
X14859644Y-4422400D01*
X14928500Y-4338499D01*
X15012401Y-4269643D01*
X15080946Y-4233005D01*
X15108122Y-4218479D01*
X15211986Y-4186973D01*
X15320000Y-4176334D01*
X15428015Y-4186973D01*
X15428015Y-4186973D01*
G37*
G36*
X3469425Y-288479D02*
G01*
X3802437Y-354719D01*
X4303087Y-562095D01*
X4483561Y-682684D01*
X4753660Y-863158D01*
X5136842Y-1246340D01*
X5311685Y-1508012D01*
X5437905Y-1696913D01*
X5571363Y-2019109D01*
X5645281Y-2197564D01*
X5751000Y-2729049D01*
X5751000Y-3270951D01*
X5715186Y-3451000D01*
X5645281Y-3802437D01*
X5437905Y-4303087D01*
X5380867Y-4388450D01*
X5136842Y-4753660D01*
X4753660Y-5136842D01*
X4518454Y-5294001D01*
X4303087Y-5437905D01*
X3802437Y-5645281D01*
X3536694Y-5698140D01*
X3270951Y-5751000D01*
X2729049Y-5751000D01*
X2463306Y-5698140D01*
X2197563Y-5645281D01*
X1696913Y-5437905D01*
X1481546Y-5294001D01*
X1246340Y-5136842D01*
X863158Y-4753660D01*
X619133Y-4388450D01*
X562095Y-4303087D01*
X354719Y-3802437D01*
X284814Y-3451000D01*
X249000Y-3270951D01*
X249000Y-2729049D01*
X354719Y-2197564D01*
X428637Y-2019109D01*
X562095Y-1696913D01*
X688315Y-1508012D01*
X863158Y-1246340D01*
X1246340Y-863158D01*
X1516439Y-682684D01*
X1696913Y-562095D01*
X2197563Y-354719D01*
X2530575Y-288479D01*
X2729049Y-249000D01*
X3270951Y-249000D01*
X3469425Y-288479D01*
X3469425Y-288479D01*
G37*
G36*
X19469425Y-288479D02*
G01*
X19802437Y-354719D01*
X20303087Y-562095D01*
X20483561Y-682684D01*
X20753660Y-863158D01*
X21136842Y-1246340D01*
X21311685Y-1508012D01*
X21437905Y-1696913D01*
X21571363Y-2019109D01*
X21645281Y-2197564D01*
X21751000Y-2729049D01*
X21751000Y-3270951D01*
X21715186Y-3451000D01*
X21645281Y-3802437D01*
X21437905Y-4303087D01*
X21380867Y-4388450D01*
X21136842Y-4753660D01*
X20753660Y-5136842D01*
X20518454Y-5294001D01*
X20303087Y-5437905D01*
X19802437Y-5645281D01*
X19536694Y-5698140D01*
X19270951Y-5751000D01*
X18729049Y-5751000D01*
X18463306Y-5698140D01*
X18197563Y-5645281D01*
X17696913Y-5437905D01*
X17481546Y-5294001D01*
X17246340Y-5136842D01*
X16863158Y-4753660D01*
X16619133Y-4388450D01*
X16562095Y-4303087D01*
X16354719Y-3802437D01*
X16284814Y-3451000D01*
X16249000Y-3270951D01*
X16249000Y-2729049D01*
X16354719Y-2197564D01*
X16428637Y-2019109D01*
X16562095Y-1696913D01*
X16688315Y-1508012D01*
X16863158Y-1246340D01*
X17246340Y-863158D01*
X17516439Y-682684D01*
X17696913Y-562095D01*
X18197563Y-354719D01*
X18530575Y-288479D01*
X18729049Y-249000D01*
X19270951Y-249000D01*
X19469425Y-288479D01*
X19469425Y-288479D01*
G37*
G36*
X8219672Y-4388449D02*
G01*
X8219674Y-4388450D01*
X8219675Y-4388450D01*
X8288103Y-4416793D01*
X8349686Y-4457942D01*
X8402058Y-4510314D01*
X8443207Y-4571897D01*
X8471550Y-4640325D01*
X8471551Y-4640328D01*
X8486000Y-4712966D01*
X8486000Y-4787034D01*
X8477143Y-4831562D01*
X8471550Y-4859675D01*
X8443207Y-4928103D01*
X8402058Y-4989686D01*
X8349686Y-5042058D01*
X8288103Y-5083207D01*
X8219675Y-5111550D01*
X8219674Y-5111550D01*
X8219672Y-5111551D01*
X8147034Y-5126000D01*
X8072966Y-5126000D01*
X8000328Y-5111551D01*
X8000326Y-5111550D01*
X8000325Y-5111550D01*
X7931897Y-5083207D01*
X7870314Y-5042058D01*
X7817942Y-4989686D01*
X7776793Y-4928103D01*
X7748450Y-4859675D01*
X7742858Y-4831562D01*
X7734000Y-4787034D01*
X7734000Y-4712966D01*
X7748449Y-4640328D01*
X7748450Y-4640325D01*
X7776793Y-4571897D01*
X7817942Y-4510314D01*
X7870314Y-4457942D01*
X7931897Y-4416793D01*
X8000325Y-4388450D01*
X8000326Y-4388450D01*
X8000328Y-4388449D01*
X8072966Y-4374000D01*
X8147034Y-4374000D01*
X8219672Y-4388449D01*
X8219672Y-4388449D01*
G37*
G36*
X13999672Y-4388449D02*
G01*
X13999674Y-4388450D01*
X13999675Y-4388450D01*
X14068103Y-4416793D01*
X14129686Y-4457942D01*
X14182058Y-4510314D01*
X14223207Y-4571897D01*
X14251550Y-4640325D01*
X14251551Y-4640328D01*
X14266000Y-4712966D01*
X14266000Y-4787034D01*
X14257143Y-4831562D01*
X14251550Y-4859675D01*
X14223207Y-4928103D01*
X14182058Y-4989686D01*
X14129686Y-5042058D01*
X14068103Y-5083207D01*
X13999675Y-5111550D01*
X13999674Y-5111550D01*
X13999672Y-5111551D01*
X13927034Y-5126000D01*
X13852966Y-5126000D01*
X13780328Y-5111551D01*
X13780326Y-5111550D01*
X13780325Y-5111550D01*
X13711897Y-5083207D01*
X13650314Y-5042058D01*
X13597942Y-4989686D01*
X13556793Y-4928103D01*
X13528450Y-4859675D01*
X13522858Y-4831562D01*
X13514000Y-4787034D01*
X13514000Y-4712966D01*
X13528449Y-4640328D01*
X13528450Y-4640325D01*
X13556793Y-4571897D01*
X13597942Y-4510314D01*
X13650314Y-4457942D01*
X13711897Y-4416793D01*
X13780325Y-4388450D01*
X13780326Y-4388450D01*
X13780328Y-4388449D01*
X13852966Y-4374000D01*
X13927034Y-4374000D01*
X13999672Y-4388449D01*
X13999672Y-4388449D01*
G37*
G36*
X6788015Y-256973D02*
G01*
X6891879Y-288479D01*
X6919055Y-303005D01*
X6987600Y-339643D01*
X7071501Y-408499D01*
X7140357Y-492400D01*
X7176995Y-560945D01*
X7191521Y-588121D01*
X7223027Y-691985D01*
X7231000Y-772933D01*
X7231000Y-1427067D01*
X7223027Y-1508015D01*
X7191521Y-1611879D01*
X7167987Y-1655907D01*
X7146069Y-1696913D01*
X7140356Y-1707600D01*
X7071501Y-1791501D01*
X7002645Y-1848009D01*
X6987599Y-1860357D01*
X6935907Y-1887987D01*
X6891878Y-1911521D01*
X6788014Y-1943027D01*
X6680000Y-1953666D01*
X6571985Y-1943027D01*
X6468121Y-1911521D01*
X6424093Y-1887987D01*
X6372401Y-1860357D01*
X6359643Y-1849887D01*
X6288499Y-1791501D01*
X6219644Y-1707600D01*
X6213932Y-1696913D01*
X6168827Y-1612529D01*
X6168479Y-1611878D01*
X6136973Y-1508014D01*
X6129000Y-1427066D01*
X6129000Y-772933D01*
X6136973Y-691985D01*
X6168480Y-588121D01*
X6182391Y-562095D01*
X6219645Y-492399D01*
X6288500Y-408499D01*
X6372401Y-339643D01*
X6440946Y-303005D01*
X6468122Y-288479D01*
X6571986Y-256973D01*
X6680000Y-246334D01*
X6788015Y-256973D01*
X6788015Y-256973D01*
G37*
G36*
X15428015Y-256973D02*
G01*
X15531879Y-288479D01*
X15559055Y-303005D01*
X15627600Y-339643D01*
X15711501Y-408499D01*
X15780357Y-492400D01*
X15816995Y-560945D01*
X15831521Y-588121D01*
X15863027Y-691985D01*
X15871000Y-772933D01*
X15871000Y-1427067D01*
X15863027Y-1508015D01*
X15831521Y-1611879D01*
X15807987Y-1655907D01*
X15786069Y-1696913D01*
X15780356Y-1707600D01*
X15711501Y-1791501D01*
X15642645Y-1848009D01*
X15627599Y-1860357D01*
X15575907Y-1887987D01*
X15531878Y-1911521D01*
X15428014Y-1943027D01*
X15320000Y-1953666D01*
X15211985Y-1943027D01*
X15108121Y-1911521D01*
X15064093Y-1887987D01*
X15012401Y-1860357D01*
X14999643Y-1849887D01*
X14928499Y-1791501D01*
X14859644Y-1707600D01*
X14853932Y-1696913D01*
X14808827Y-1612529D01*
X14808479Y-1611878D01*
X14776973Y-1508014D01*
X14769000Y-1427066D01*
X14769000Y-772933D01*
X14776973Y-691985D01*
X14808480Y-588121D01*
X14822391Y-562095D01*
X14859645Y-492399D01*
X14928500Y-408499D01*
X15012401Y-339643D01*
X15080946Y-303005D01*
X15108122Y-288479D01*
X15211986Y-256973D01*
X15320000Y-246334D01*
X15428015Y-256973D01*
X15428015Y-256973D01*
G37*
M02*
