G04 #@! TF.GenerationSoftware,KiCad,Pcbnew,(5.1.4)-1*
G04 #@! TF.CreationDate,2019-12-12T04:53:30-08:00*
G04 #@! TF.ProjectId,daughterboard,64617567-6874-4657-9262-6f6172642e6b,rev?*
G04 #@! TF.SameCoordinates,Original*
G04 #@! TF.FileFunction,Paste,Top*
G04 #@! TF.FilePolarity,Positive*
%FSLAX46Y46*%
G04 Gerber Fmt 4.6, Leading zero omitted, Abs format (unit mm)*
G04 Created by KiCad (PCBNEW (5.1.4)-1) date 2019-12-12 04:53:30*
%MOMM*%
%LPD*%
G04 APERTURE LIST*
%ADD10R,0.600000X1.450000*%
%ADD11R,0.300000X1.450000*%
%ADD12C,0.100000*%
%ADD13C,0.875000*%
%ADD14R,1.200000X1.400000*%
%ADD15R,1.000000X1.400000*%
%ADD16C,0.975000*%
%ADD17C,0.600000*%
%ADD18C,1.200000*%
G04 APERTURE END LIST*
D10*
X7775000Y-6195000D03*
X14225000Y-6195000D03*
X8550000Y-6195000D03*
X13450000Y-6195000D03*
D11*
X12750000Y-6195000D03*
X9250000Y-6195000D03*
X12250000Y-6195000D03*
X9750000Y-6195000D03*
X11750000Y-6195000D03*
X10250000Y-6195000D03*
X10750000Y-6195000D03*
X11250000Y-6195000D03*
D12*
G36*
X3527691Y-7926053D02*
G01*
X3548926Y-7929203D01*
X3569750Y-7934419D01*
X3589962Y-7941651D01*
X3609368Y-7950830D01*
X3627781Y-7961866D01*
X3645024Y-7974654D01*
X3660930Y-7989070D01*
X3675346Y-8004976D01*
X3688134Y-8022219D01*
X3699170Y-8040632D01*
X3708349Y-8060038D01*
X3715581Y-8080250D01*
X3720797Y-8101074D01*
X3723947Y-8122309D01*
X3725000Y-8143750D01*
X3725000Y-8656250D01*
X3723947Y-8677691D01*
X3720797Y-8698926D01*
X3715581Y-8719750D01*
X3708349Y-8739962D01*
X3699170Y-8759368D01*
X3688134Y-8777781D01*
X3675346Y-8795024D01*
X3660930Y-8810930D01*
X3645024Y-8825346D01*
X3627781Y-8838134D01*
X3609368Y-8849170D01*
X3589962Y-8858349D01*
X3569750Y-8865581D01*
X3548926Y-8870797D01*
X3527691Y-8873947D01*
X3506250Y-8875000D01*
X3068750Y-8875000D01*
X3047309Y-8873947D01*
X3026074Y-8870797D01*
X3005250Y-8865581D01*
X2985038Y-8858349D01*
X2965632Y-8849170D01*
X2947219Y-8838134D01*
X2929976Y-8825346D01*
X2914070Y-8810930D01*
X2899654Y-8795024D01*
X2886866Y-8777781D01*
X2875830Y-8759368D01*
X2866651Y-8739962D01*
X2859419Y-8719750D01*
X2854203Y-8698926D01*
X2851053Y-8677691D01*
X2850000Y-8656250D01*
X2850000Y-8143750D01*
X2851053Y-8122309D01*
X2854203Y-8101074D01*
X2859419Y-8080250D01*
X2866651Y-8060038D01*
X2875830Y-8040632D01*
X2886866Y-8022219D01*
X2899654Y-8004976D01*
X2914070Y-7989070D01*
X2929976Y-7974654D01*
X2947219Y-7961866D01*
X2965632Y-7950830D01*
X2985038Y-7941651D01*
X3005250Y-7934419D01*
X3026074Y-7929203D01*
X3047309Y-7926053D01*
X3068750Y-7925000D01*
X3506250Y-7925000D01*
X3527691Y-7926053D01*
X3527691Y-7926053D01*
G37*
D13*
X3287500Y-8400000D03*
D12*
G36*
X1952691Y-7926053D02*
G01*
X1973926Y-7929203D01*
X1994750Y-7934419D01*
X2014962Y-7941651D01*
X2034368Y-7950830D01*
X2052781Y-7961866D01*
X2070024Y-7974654D01*
X2085930Y-7989070D01*
X2100346Y-8004976D01*
X2113134Y-8022219D01*
X2124170Y-8040632D01*
X2133349Y-8060038D01*
X2140581Y-8080250D01*
X2145797Y-8101074D01*
X2148947Y-8122309D01*
X2150000Y-8143750D01*
X2150000Y-8656250D01*
X2148947Y-8677691D01*
X2145797Y-8698926D01*
X2140581Y-8719750D01*
X2133349Y-8739962D01*
X2124170Y-8759368D01*
X2113134Y-8777781D01*
X2100346Y-8795024D01*
X2085930Y-8810930D01*
X2070024Y-8825346D01*
X2052781Y-8838134D01*
X2034368Y-8849170D01*
X2014962Y-8858349D01*
X1994750Y-8865581D01*
X1973926Y-8870797D01*
X1952691Y-8873947D01*
X1931250Y-8875000D01*
X1493750Y-8875000D01*
X1472309Y-8873947D01*
X1451074Y-8870797D01*
X1430250Y-8865581D01*
X1410038Y-8858349D01*
X1390632Y-8849170D01*
X1372219Y-8838134D01*
X1354976Y-8825346D01*
X1339070Y-8810930D01*
X1324654Y-8795024D01*
X1311866Y-8777781D01*
X1300830Y-8759368D01*
X1291651Y-8739962D01*
X1284419Y-8719750D01*
X1279203Y-8698926D01*
X1276053Y-8677691D01*
X1275000Y-8656250D01*
X1275000Y-8143750D01*
X1276053Y-8122309D01*
X1279203Y-8101074D01*
X1284419Y-8080250D01*
X1291651Y-8060038D01*
X1300830Y-8040632D01*
X1311866Y-8022219D01*
X1324654Y-8004976D01*
X1339070Y-7989070D01*
X1354976Y-7974654D01*
X1372219Y-7961866D01*
X1390632Y-7950830D01*
X1410038Y-7941651D01*
X1430250Y-7934419D01*
X1451074Y-7929203D01*
X1472309Y-7926053D01*
X1493750Y-7925000D01*
X1931250Y-7925000D01*
X1952691Y-7926053D01*
X1952691Y-7926053D01*
G37*
D13*
X1712500Y-8400000D03*
D14*
X10480000Y-10600000D03*
D15*
X12200000Y-10600000D03*
X12200000Y-8400000D03*
X10300000Y-8400000D03*
D12*
G36*
X7205142Y-7701174D02*
G01*
X7228803Y-7704684D01*
X7252007Y-7710496D01*
X7274529Y-7718554D01*
X7296153Y-7728782D01*
X7316670Y-7741079D01*
X7335883Y-7755329D01*
X7353607Y-7771393D01*
X7369671Y-7789117D01*
X7383921Y-7808330D01*
X7396218Y-7828847D01*
X7406446Y-7850471D01*
X7414504Y-7872993D01*
X7420316Y-7896197D01*
X7423826Y-7919858D01*
X7425000Y-7943750D01*
X7425000Y-8856250D01*
X7423826Y-8880142D01*
X7420316Y-8903803D01*
X7414504Y-8927007D01*
X7406446Y-8949529D01*
X7396218Y-8971153D01*
X7383921Y-8991670D01*
X7369671Y-9010883D01*
X7353607Y-9028607D01*
X7335883Y-9044671D01*
X7316670Y-9058921D01*
X7296153Y-9071218D01*
X7274529Y-9081446D01*
X7252007Y-9089504D01*
X7228803Y-9095316D01*
X7205142Y-9098826D01*
X7181250Y-9100000D01*
X6693750Y-9100000D01*
X6669858Y-9098826D01*
X6646197Y-9095316D01*
X6622993Y-9089504D01*
X6600471Y-9081446D01*
X6578847Y-9071218D01*
X6558330Y-9058921D01*
X6539117Y-9044671D01*
X6521393Y-9028607D01*
X6505329Y-9010883D01*
X6491079Y-8991670D01*
X6478782Y-8971153D01*
X6468554Y-8949529D01*
X6460496Y-8927007D01*
X6454684Y-8903803D01*
X6451174Y-8880142D01*
X6450000Y-8856250D01*
X6450000Y-7943750D01*
X6451174Y-7919858D01*
X6454684Y-7896197D01*
X6460496Y-7872993D01*
X6468554Y-7850471D01*
X6478782Y-7828847D01*
X6491079Y-7808330D01*
X6505329Y-7789117D01*
X6521393Y-7771393D01*
X6539117Y-7755329D01*
X6558330Y-7741079D01*
X6578847Y-7728782D01*
X6600471Y-7718554D01*
X6622993Y-7710496D01*
X6646197Y-7704684D01*
X6669858Y-7701174D01*
X6693750Y-7700000D01*
X7181250Y-7700000D01*
X7205142Y-7701174D01*
X7205142Y-7701174D01*
G37*
D16*
X6937500Y-8400000D03*
D12*
G36*
X5330142Y-7701174D02*
G01*
X5353803Y-7704684D01*
X5377007Y-7710496D01*
X5399529Y-7718554D01*
X5421153Y-7728782D01*
X5441670Y-7741079D01*
X5460883Y-7755329D01*
X5478607Y-7771393D01*
X5494671Y-7789117D01*
X5508921Y-7808330D01*
X5521218Y-7828847D01*
X5531446Y-7850471D01*
X5539504Y-7872993D01*
X5545316Y-7896197D01*
X5548826Y-7919858D01*
X5550000Y-7943750D01*
X5550000Y-8856250D01*
X5548826Y-8880142D01*
X5545316Y-8903803D01*
X5539504Y-8927007D01*
X5531446Y-8949529D01*
X5521218Y-8971153D01*
X5508921Y-8991670D01*
X5494671Y-9010883D01*
X5478607Y-9028607D01*
X5460883Y-9044671D01*
X5441670Y-9058921D01*
X5421153Y-9071218D01*
X5399529Y-9081446D01*
X5377007Y-9089504D01*
X5353803Y-9095316D01*
X5330142Y-9098826D01*
X5306250Y-9100000D01*
X4818750Y-9100000D01*
X4794858Y-9098826D01*
X4771197Y-9095316D01*
X4747993Y-9089504D01*
X4725471Y-9081446D01*
X4703847Y-9071218D01*
X4683330Y-9058921D01*
X4664117Y-9044671D01*
X4646393Y-9028607D01*
X4630329Y-9010883D01*
X4616079Y-8991670D01*
X4603782Y-8971153D01*
X4593554Y-8949529D01*
X4585496Y-8927007D01*
X4579684Y-8903803D01*
X4576174Y-8880142D01*
X4575000Y-8856250D01*
X4575000Y-7943750D01*
X4576174Y-7919858D01*
X4579684Y-7896197D01*
X4585496Y-7872993D01*
X4593554Y-7850471D01*
X4603782Y-7828847D01*
X4616079Y-7808330D01*
X4630329Y-7789117D01*
X4646393Y-7771393D01*
X4664117Y-7755329D01*
X4683330Y-7741079D01*
X4703847Y-7728782D01*
X4725471Y-7718554D01*
X4747993Y-7710496D01*
X4771197Y-7704684D01*
X4794858Y-7701174D01*
X4818750Y-7700000D01*
X5306250Y-7700000D01*
X5330142Y-7701174D01*
X5330142Y-7701174D01*
G37*
D16*
X5062500Y-8400000D03*
D12*
G36*
X18027691Y-6626053D02*
G01*
X18048926Y-6629203D01*
X18069750Y-6634419D01*
X18089962Y-6641651D01*
X18109368Y-6650830D01*
X18127781Y-6661866D01*
X18145024Y-6674654D01*
X18160930Y-6689070D01*
X18175346Y-6704976D01*
X18188134Y-6722219D01*
X18199170Y-6740632D01*
X18208349Y-6760038D01*
X18215581Y-6780250D01*
X18220797Y-6801074D01*
X18223947Y-6822309D01*
X18225000Y-6843750D01*
X18225000Y-7356250D01*
X18223947Y-7377691D01*
X18220797Y-7398926D01*
X18215581Y-7419750D01*
X18208349Y-7439962D01*
X18199170Y-7459368D01*
X18188134Y-7477781D01*
X18175346Y-7495024D01*
X18160930Y-7510930D01*
X18145024Y-7525346D01*
X18127781Y-7538134D01*
X18109368Y-7549170D01*
X18089962Y-7558349D01*
X18069750Y-7565581D01*
X18048926Y-7570797D01*
X18027691Y-7573947D01*
X18006250Y-7575000D01*
X17568750Y-7575000D01*
X17547309Y-7573947D01*
X17526074Y-7570797D01*
X17505250Y-7565581D01*
X17485038Y-7558349D01*
X17465632Y-7549170D01*
X17447219Y-7538134D01*
X17429976Y-7525346D01*
X17414070Y-7510930D01*
X17399654Y-7495024D01*
X17386866Y-7477781D01*
X17375830Y-7459368D01*
X17366651Y-7439962D01*
X17359419Y-7419750D01*
X17354203Y-7398926D01*
X17351053Y-7377691D01*
X17350000Y-7356250D01*
X17350000Y-6843750D01*
X17351053Y-6822309D01*
X17354203Y-6801074D01*
X17359419Y-6780250D01*
X17366651Y-6760038D01*
X17375830Y-6740632D01*
X17386866Y-6722219D01*
X17399654Y-6704976D01*
X17414070Y-6689070D01*
X17429976Y-6674654D01*
X17447219Y-6661866D01*
X17465632Y-6650830D01*
X17485038Y-6641651D01*
X17505250Y-6634419D01*
X17526074Y-6629203D01*
X17547309Y-6626053D01*
X17568750Y-6625000D01*
X18006250Y-6625000D01*
X18027691Y-6626053D01*
X18027691Y-6626053D01*
G37*
D13*
X17787500Y-7100000D03*
D12*
G36*
X16452691Y-6626053D02*
G01*
X16473926Y-6629203D01*
X16494750Y-6634419D01*
X16514962Y-6641651D01*
X16534368Y-6650830D01*
X16552781Y-6661866D01*
X16570024Y-6674654D01*
X16585930Y-6689070D01*
X16600346Y-6704976D01*
X16613134Y-6722219D01*
X16624170Y-6740632D01*
X16633349Y-6760038D01*
X16640581Y-6780250D01*
X16645797Y-6801074D01*
X16648947Y-6822309D01*
X16650000Y-6843750D01*
X16650000Y-7356250D01*
X16648947Y-7377691D01*
X16645797Y-7398926D01*
X16640581Y-7419750D01*
X16633349Y-7439962D01*
X16624170Y-7459368D01*
X16613134Y-7477781D01*
X16600346Y-7495024D01*
X16585930Y-7510930D01*
X16570024Y-7525346D01*
X16552781Y-7538134D01*
X16534368Y-7549170D01*
X16514962Y-7558349D01*
X16494750Y-7565581D01*
X16473926Y-7570797D01*
X16452691Y-7573947D01*
X16431250Y-7575000D01*
X15993750Y-7575000D01*
X15972309Y-7573947D01*
X15951074Y-7570797D01*
X15930250Y-7565581D01*
X15910038Y-7558349D01*
X15890632Y-7549170D01*
X15872219Y-7538134D01*
X15854976Y-7525346D01*
X15839070Y-7510930D01*
X15824654Y-7495024D01*
X15811866Y-7477781D01*
X15800830Y-7459368D01*
X15791651Y-7439962D01*
X15784419Y-7419750D01*
X15779203Y-7398926D01*
X15776053Y-7377691D01*
X15775000Y-7356250D01*
X15775000Y-6843750D01*
X15776053Y-6822309D01*
X15779203Y-6801074D01*
X15784419Y-6780250D01*
X15791651Y-6760038D01*
X15800830Y-6740632D01*
X15811866Y-6722219D01*
X15824654Y-6704976D01*
X15839070Y-6689070D01*
X15854976Y-6674654D01*
X15872219Y-6661866D01*
X15890632Y-6650830D01*
X15910038Y-6641651D01*
X15930250Y-6634419D01*
X15951074Y-6629203D01*
X15972309Y-6626053D01*
X15993750Y-6625000D01*
X16431250Y-6625000D01*
X16452691Y-6626053D01*
X16452691Y-6626053D01*
G37*
D13*
X16212500Y-7100000D03*
D12*
G36*
X3852691Y-6226053D02*
G01*
X3873926Y-6229203D01*
X3894750Y-6234419D01*
X3914962Y-6241651D01*
X3934368Y-6250830D01*
X3952781Y-6261866D01*
X3970024Y-6274654D01*
X3985930Y-6289070D01*
X4000346Y-6304976D01*
X4013134Y-6322219D01*
X4024170Y-6340632D01*
X4033349Y-6360038D01*
X4040581Y-6380250D01*
X4045797Y-6401074D01*
X4048947Y-6422309D01*
X4050000Y-6443750D01*
X4050000Y-6956250D01*
X4048947Y-6977691D01*
X4045797Y-6998926D01*
X4040581Y-7019750D01*
X4033349Y-7039962D01*
X4024170Y-7059368D01*
X4013134Y-7077781D01*
X4000346Y-7095024D01*
X3985930Y-7110930D01*
X3970024Y-7125346D01*
X3952781Y-7138134D01*
X3934368Y-7149170D01*
X3914962Y-7158349D01*
X3894750Y-7165581D01*
X3873926Y-7170797D01*
X3852691Y-7173947D01*
X3831250Y-7175000D01*
X3393750Y-7175000D01*
X3372309Y-7173947D01*
X3351074Y-7170797D01*
X3330250Y-7165581D01*
X3310038Y-7158349D01*
X3290632Y-7149170D01*
X3272219Y-7138134D01*
X3254976Y-7125346D01*
X3239070Y-7110930D01*
X3224654Y-7095024D01*
X3211866Y-7077781D01*
X3200830Y-7059368D01*
X3191651Y-7039962D01*
X3184419Y-7019750D01*
X3179203Y-6998926D01*
X3176053Y-6977691D01*
X3175000Y-6956250D01*
X3175000Y-6443750D01*
X3176053Y-6422309D01*
X3179203Y-6401074D01*
X3184419Y-6380250D01*
X3191651Y-6360038D01*
X3200830Y-6340632D01*
X3211866Y-6322219D01*
X3224654Y-6304976D01*
X3239070Y-6289070D01*
X3254976Y-6274654D01*
X3272219Y-6261866D01*
X3290632Y-6250830D01*
X3310038Y-6241651D01*
X3330250Y-6234419D01*
X3351074Y-6229203D01*
X3372309Y-6226053D01*
X3393750Y-6225000D01*
X3831250Y-6225000D01*
X3852691Y-6226053D01*
X3852691Y-6226053D01*
G37*
D13*
X3612500Y-6700000D03*
D12*
G36*
X5427691Y-6226053D02*
G01*
X5448926Y-6229203D01*
X5469750Y-6234419D01*
X5489962Y-6241651D01*
X5509368Y-6250830D01*
X5527781Y-6261866D01*
X5545024Y-6274654D01*
X5560930Y-6289070D01*
X5575346Y-6304976D01*
X5588134Y-6322219D01*
X5599170Y-6340632D01*
X5608349Y-6360038D01*
X5615581Y-6380250D01*
X5620797Y-6401074D01*
X5623947Y-6422309D01*
X5625000Y-6443750D01*
X5625000Y-6956250D01*
X5623947Y-6977691D01*
X5620797Y-6998926D01*
X5615581Y-7019750D01*
X5608349Y-7039962D01*
X5599170Y-7059368D01*
X5588134Y-7077781D01*
X5575346Y-7095024D01*
X5560930Y-7110930D01*
X5545024Y-7125346D01*
X5527781Y-7138134D01*
X5509368Y-7149170D01*
X5489962Y-7158349D01*
X5469750Y-7165581D01*
X5448926Y-7170797D01*
X5427691Y-7173947D01*
X5406250Y-7175000D01*
X4968750Y-7175000D01*
X4947309Y-7173947D01*
X4926074Y-7170797D01*
X4905250Y-7165581D01*
X4885038Y-7158349D01*
X4865632Y-7149170D01*
X4847219Y-7138134D01*
X4829976Y-7125346D01*
X4814070Y-7110930D01*
X4799654Y-7095024D01*
X4786866Y-7077781D01*
X4775830Y-7059368D01*
X4766651Y-7039962D01*
X4759419Y-7019750D01*
X4754203Y-6998926D01*
X4751053Y-6977691D01*
X4750000Y-6956250D01*
X4750000Y-6443750D01*
X4751053Y-6422309D01*
X4754203Y-6401074D01*
X4759419Y-6380250D01*
X4766651Y-6360038D01*
X4775830Y-6340632D01*
X4786866Y-6322219D01*
X4799654Y-6304976D01*
X4814070Y-6289070D01*
X4829976Y-6274654D01*
X4847219Y-6261866D01*
X4865632Y-6250830D01*
X4885038Y-6241651D01*
X4905250Y-6234419D01*
X4926074Y-6229203D01*
X4947309Y-6226053D01*
X4968750Y-6225000D01*
X5406250Y-6225000D01*
X5427691Y-6226053D01*
X5427691Y-6226053D01*
G37*
D13*
X5187500Y-6700000D03*
D12*
G36*
X16364703Y-8725722D02*
G01*
X16379264Y-8727882D01*
X16393543Y-8731459D01*
X16407403Y-8736418D01*
X16420710Y-8742712D01*
X16433336Y-8750280D01*
X16445159Y-8759048D01*
X16456066Y-8768934D01*
X16465952Y-8779841D01*
X16474720Y-8791664D01*
X16482288Y-8804290D01*
X16488582Y-8817597D01*
X16493541Y-8831457D01*
X16497118Y-8845736D01*
X16499278Y-8860297D01*
X16500000Y-8875000D01*
X16500000Y-10125000D01*
X16499278Y-10139703D01*
X16497118Y-10154264D01*
X16493541Y-10168543D01*
X16488582Y-10182403D01*
X16482288Y-10195710D01*
X16474720Y-10208336D01*
X16465952Y-10220159D01*
X16456066Y-10231066D01*
X16445159Y-10240952D01*
X16433336Y-10249720D01*
X16420710Y-10257288D01*
X16407403Y-10263582D01*
X16393543Y-10268541D01*
X16379264Y-10272118D01*
X16364703Y-10274278D01*
X16350000Y-10275000D01*
X16050000Y-10275000D01*
X16035297Y-10274278D01*
X16020736Y-10272118D01*
X16006457Y-10268541D01*
X15992597Y-10263582D01*
X15979290Y-10257288D01*
X15966664Y-10249720D01*
X15954841Y-10240952D01*
X15943934Y-10231066D01*
X15934048Y-10220159D01*
X15925280Y-10208336D01*
X15917712Y-10195710D01*
X15911418Y-10182403D01*
X15906459Y-10168543D01*
X15902882Y-10154264D01*
X15900722Y-10139703D01*
X15900000Y-10125000D01*
X15900000Y-8875000D01*
X15900722Y-8860297D01*
X15902882Y-8845736D01*
X15906459Y-8831457D01*
X15911418Y-8817597D01*
X15917712Y-8804290D01*
X15925280Y-8791664D01*
X15934048Y-8779841D01*
X15943934Y-8768934D01*
X15954841Y-8759048D01*
X15966664Y-8750280D01*
X15979290Y-8742712D01*
X15992597Y-8736418D01*
X16006457Y-8731459D01*
X16020736Y-8727882D01*
X16035297Y-8725722D01*
X16050000Y-8725000D01*
X16350000Y-8725000D01*
X16364703Y-8725722D01*
X16364703Y-8725722D01*
G37*
D17*
X16200000Y-9500000D03*
D12*
G36*
X17364703Y-8725722D02*
G01*
X17379264Y-8727882D01*
X17393543Y-8731459D01*
X17407403Y-8736418D01*
X17420710Y-8742712D01*
X17433336Y-8750280D01*
X17445159Y-8759048D01*
X17456066Y-8768934D01*
X17465952Y-8779841D01*
X17474720Y-8791664D01*
X17482288Y-8804290D01*
X17488582Y-8817597D01*
X17493541Y-8831457D01*
X17497118Y-8845736D01*
X17499278Y-8860297D01*
X17500000Y-8875000D01*
X17500000Y-10125000D01*
X17499278Y-10139703D01*
X17497118Y-10154264D01*
X17493541Y-10168543D01*
X17488582Y-10182403D01*
X17482288Y-10195710D01*
X17474720Y-10208336D01*
X17465952Y-10220159D01*
X17456066Y-10231066D01*
X17445159Y-10240952D01*
X17433336Y-10249720D01*
X17420710Y-10257288D01*
X17407403Y-10263582D01*
X17393543Y-10268541D01*
X17379264Y-10272118D01*
X17364703Y-10274278D01*
X17350000Y-10275000D01*
X17050000Y-10275000D01*
X17035297Y-10274278D01*
X17020736Y-10272118D01*
X17006457Y-10268541D01*
X16992597Y-10263582D01*
X16979290Y-10257288D01*
X16966664Y-10249720D01*
X16954841Y-10240952D01*
X16943934Y-10231066D01*
X16934048Y-10220159D01*
X16925280Y-10208336D01*
X16917712Y-10195710D01*
X16911418Y-10182403D01*
X16906459Y-10168543D01*
X16902882Y-10154264D01*
X16900722Y-10139703D01*
X16900000Y-10125000D01*
X16900000Y-8875000D01*
X16900722Y-8860297D01*
X16902882Y-8845736D01*
X16906459Y-8831457D01*
X16911418Y-8817597D01*
X16917712Y-8804290D01*
X16925280Y-8791664D01*
X16934048Y-8779841D01*
X16943934Y-8768934D01*
X16954841Y-8759048D01*
X16966664Y-8750280D01*
X16979290Y-8742712D01*
X16992597Y-8736418D01*
X17006457Y-8731459D01*
X17020736Y-8727882D01*
X17035297Y-8725722D01*
X17050000Y-8725000D01*
X17350000Y-8725000D01*
X17364703Y-8725722D01*
X17364703Y-8725722D01*
G37*
D17*
X17200000Y-9500000D03*
D12*
G36*
X18364703Y-8725722D02*
G01*
X18379264Y-8727882D01*
X18393543Y-8731459D01*
X18407403Y-8736418D01*
X18420710Y-8742712D01*
X18433336Y-8750280D01*
X18445159Y-8759048D01*
X18456066Y-8768934D01*
X18465952Y-8779841D01*
X18474720Y-8791664D01*
X18482288Y-8804290D01*
X18488582Y-8817597D01*
X18493541Y-8831457D01*
X18497118Y-8845736D01*
X18499278Y-8860297D01*
X18500000Y-8875000D01*
X18500000Y-10125000D01*
X18499278Y-10139703D01*
X18497118Y-10154264D01*
X18493541Y-10168543D01*
X18488582Y-10182403D01*
X18482288Y-10195710D01*
X18474720Y-10208336D01*
X18465952Y-10220159D01*
X18456066Y-10231066D01*
X18445159Y-10240952D01*
X18433336Y-10249720D01*
X18420710Y-10257288D01*
X18407403Y-10263582D01*
X18393543Y-10268541D01*
X18379264Y-10272118D01*
X18364703Y-10274278D01*
X18350000Y-10275000D01*
X18050000Y-10275000D01*
X18035297Y-10274278D01*
X18020736Y-10272118D01*
X18006457Y-10268541D01*
X17992597Y-10263582D01*
X17979290Y-10257288D01*
X17966664Y-10249720D01*
X17954841Y-10240952D01*
X17943934Y-10231066D01*
X17934048Y-10220159D01*
X17925280Y-10208336D01*
X17917712Y-10195710D01*
X17911418Y-10182403D01*
X17906459Y-10168543D01*
X17902882Y-10154264D01*
X17900722Y-10139703D01*
X17900000Y-10125000D01*
X17900000Y-8875000D01*
X17900722Y-8860297D01*
X17902882Y-8845736D01*
X17906459Y-8831457D01*
X17911418Y-8817597D01*
X17917712Y-8804290D01*
X17925280Y-8791664D01*
X17934048Y-8779841D01*
X17943934Y-8768934D01*
X17954841Y-8759048D01*
X17966664Y-8750280D01*
X17979290Y-8742712D01*
X17992597Y-8736418D01*
X18006457Y-8731459D01*
X18020736Y-8727882D01*
X18035297Y-8725722D01*
X18050000Y-8725000D01*
X18350000Y-8725000D01*
X18364703Y-8725722D01*
X18364703Y-8725722D01*
G37*
D17*
X18200000Y-9500000D03*
D12*
G36*
X19364703Y-8725722D02*
G01*
X19379264Y-8727882D01*
X19393543Y-8731459D01*
X19407403Y-8736418D01*
X19420710Y-8742712D01*
X19433336Y-8750280D01*
X19445159Y-8759048D01*
X19456066Y-8768934D01*
X19465952Y-8779841D01*
X19474720Y-8791664D01*
X19482288Y-8804290D01*
X19488582Y-8817597D01*
X19493541Y-8831457D01*
X19497118Y-8845736D01*
X19499278Y-8860297D01*
X19500000Y-8875000D01*
X19500000Y-10125000D01*
X19499278Y-10139703D01*
X19497118Y-10154264D01*
X19493541Y-10168543D01*
X19488582Y-10182403D01*
X19482288Y-10195710D01*
X19474720Y-10208336D01*
X19465952Y-10220159D01*
X19456066Y-10231066D01*
X19445159Y-10240952D01*
X19433336Y-10249720D01*
X19420710Y-10257288D01*
X19407403Y-10263582D01*
X19393543Y-10268541D01*
X19379264Y-10272118D01*
X19364703Y-10274278D01*
X19350000Y-10275000D01*
X19050000Y-10275000D01*
X19035297Y-10274278D01*
X19020736Y-10272118D01*
X19006457Y-10268541D01*
X18992597Y-10263582D01*
X18979290Y-10257288D01*
X18966664Y-10249720D01*
X18954841Y-10240952D01*
X18943934Y-10231066D01*
X18934048Y-10220159D01*
X18925280Y-10208336D01*
X18917712Y-10195710D01*
X18911418Y-10182403D01*
X18906459Y-10168543D01*
X18902882Y-10154264D01*
X18900722Y-10139703D01*
X18900000Y-10125000D01*
X18900000Y-8875000D01*
X18900722Y-8860297D01*
X18902882Y-8845736D01*
X18906459Y-8831457D01*
X18911418Y-8817597D01*
X18917712Y-8804290D01*
X18925280Y-8791664D01*
X18934048Y-8779841D01*
X18943934Y-8768934D01*
X18954841Y-8759048D01*
X18966664Y-8750280D01*
X18979290Y-8742712D01*
X18992597Y-8736418D01*
X19006457Y-8731459D01*
X19020736Y-8727882D01*
X19035297Y-8725722D01*
X19050000Y-8725000D01*
X19350000Y-8725000D01*
X19364703Y-8725722D01*
X19364703Y-8725722D01*
G37*
D17*
X19200000Y-9500000D03*
D12*
G36*
X15274505Y-12476204D02*
G01*
X15298773Y-12479804D01*
X15322572Y-12485765D01*
X15345671Y-12494030D01*
X15367850Y-12504520D01*
X15388893Y-12517132D01*
X15408599Y-12531747D01*
X15426777Y-12548223D01*
X15443253Y-12566401D01*
X15457868Y-12586107D01*
X15470480Y-12607150D01*
X15480970Y-12629329D01*
X15489235Y-12652428D01*
X15495196Y-12676227D01*
X15498796Y-12700495D01*
X15500000Y-12724999D01*
X15500000Y-14025001D01*
X15498796Y-14049505D01*
X15495196Y-14073773D01*
X15489235Y-14097572D01*
X15480970Y-14120671D01*
X15470480Y-14142850D01*
X15457868Y-14163893D01*
X15443253Y-14183599D01*
X15426777Y-14201777D01*
X15408599Y-14218253D01*
X15388893Y-14232868D01*
X15367850Y-14245480D01*
X15345671Y-14255970D01*
X15322572Y-14264235D01*
X15298773Y-14270196D01*
X15274505Y-14273796D01*
X15250001Y-14275000D01*
X14549999Y-14275000D01*
X14525495Y-14273796D01*
X14501227Y-14270196D01*
X14477428Y-14264235D01*
X14454329Y-14255970D01*
X14432150Y-14245480D01*
X14411107Y-14232868D01*
X14391401Y-14218253D01*
X14373223Y-14201777D01*
X14356747Y-14183599D01*
X14342132Y-14163893D01*
X14329520Y-14142850D01*
X14319030Y-14120671D01*
X14310765Y-14097572D01*
X14304804Y-14073773D01*
X14301204Y-14049505D01*
X14300000Y-14025001D01*
X14300000Y-12724999D01*
X14301204Y-12700495D01*
X14304804Y-12676227D01*
X14310765Y-12652428D01*
X14319030Y-12629329D01*
X14329520Y-12607150D01*
X14342132Y-12586107D01*
X14356747Y-12566401D01*
X14373223Y-12548223D01*
X14391401Y-12531747D01*
X14411107Y-12517132D01*
X14432150Y-12504520D01*
X14454329Y-12494030D01*
X14477428Y-12485765D01*
X14501227Y-12479804D01*
X14525495Y-12476204D01*
X14549999Y-12475000D01*
X15250001Y-12475000D01*
X15274505Y-12476204D01*
X15274505Y-12476204D01*
G37*
D18*
X14900000Y-13375000D03*
D12*
G36*
X20874505Y-12476204D02*
G01*
X20898773Y-12479804D01*
X20922572Y-12485765D01*
X20945671Y-12494030D01*
X20967850Y-12504520D01*
X20988893Y-12517132D01*
X21008599Y-12531747D01*
X21026777Y-12548223D01*
X21043253Y-12566401D01*
X21057868Y-12586107D01*
X21070480Y-12607150D01*
X21080970Y-12629329D01*
X21089235Y-12652428D01*
X21095196Y-12676227D01*
X21098796Y-12700495D01*
X21100000Y-12724999D01*
X21100000Y-14025001D01*
X21098796Y-14049505D01*
X21095196Y-14073773D01*
X21089235Y-14097572D01*
X21080970Y-14120671D01*
X21070480Y-14142850D01*
X21057868Y-14163893D01*
X21043253Y-14183599D01*
X21026777Y-14201777D01*
X21008599Y-14218253D01*
X20988893Y-14232868D01*
X20967850Y-14245480D01*
X20945671Y-14255970D01*
X20922572Y-14264235D01*
X20898773Y-14270196D01*
X20874505Y-14273796D01*
X20850001Y-14275000D01*
X20149999Y-14275000D01*
X20125495Y-14273796D01*
X20101227Y-14270196D01*
X20077428Y-14264235D01*
X20054329Y-14255970D01*
X20032150Y-14245480D01*
X20011107Y-14232868D01*
X19991401Y-14218253D01*
X19973223Y-14201777D01*
X19956747Y-14183599D01*
X19942132Y-14163893D01*
X19929520Y-14142850D01*
X19919030Y-14120671D01*
X19910765Y-14097572D01*
X19904804Y-14073773D01*
X19901204Y-14049505D01*
X19900000Y-14025001D01*
X19900000Y-12724999D01*
X19901204Y-12700495D01*
X19904804Y-12676227D01*
X19910765Y-12652428D01*
X19919030Y-12629329D01*
X19929520Y-12607150D01*
X19942132Y-12586107D01*
X19956747Y-12566401D01*
X19973223Y-12548223D01*
X19991401Y-12531747D01*
X20011107Y-12517132D01*
X20032150Y-12504520D01*
X20054329Y-12494030D01*
X20077428Y-12485765D01*
X20101227Y-12479804D01*
X20125495Y-12476204D01*
X20149999Y-12475000D01*
X20850001Y-12475000D01*
X20874505Y-12476204D01*
X20874505Y-12476204D01*
G37*
D18*
X20500000Y-13375000D03*
M02*
