G04 #@! TF.GenerationSoftware,KiCad,Pcbnew,(5.1.2)-1*
G04 #@! TF.CreationDate,2019-05-29T05:34:05-07:00*
G04 #@! TF.ProjectId,daughterboard,64617567-6874-4657-9262-6f6172642e6b,rev?*
G04 #@! TF.SameCoordinates,Original*
G04 #@! TF.FileFunction,Copper,L2,Bot*
G04 #@! TF.FilePolarity,Positive*
%FSLAX46Y46*%
G04 Gerber Fmt 4.6, Leading zero omitted, Abs format (unit mm)*
G04 Created by KiCad (PCBNEW (5.1.2)-1) date 2019-05-29 05:34:05*
%MOMM*%
%LPD*%
G04 APERTURE LIST*
%ADD10C,0.800000*%
%ADD11C,5.400000*%
%ADD12O,1.000000X1.600000*%
%ADD13O,1.000000X2.100000*%
%ADD14C,0.381000*%
%ADD15C,0.254000*%
G04 APERTURE END LIST*
D10*
X4431891Y-1568109D03*
X3000000Y-975000D03*
X1568109Y-1568109D03*
X975000Y-3000000D03*
X1568109Y-4431891D03*
X3000000Y-5025000D03*
X4431891Y-4431891D03*
X5025000Y-3000000D03*
D11*
X3000000Y-3000000D03*
D10*
X12431891Y-14568109D03*
X11000000Y-13975000D03*
X9568109Y-14568109D03*
X8975000Y-16000000D03*
X9568109Y-17431891D03*
X11000000Y-18025000D03*
X12431891Y-17431891D03*
X13025000Y-16000000D03*
D11*
X11000000Y-16000000D03*
D10*
X20431891Y-1568109D03*
X19000000Y-975000D03*
X17568109Y-1568109D03*
X16975000Y-3000000D03*
X17568109Y-4431891D03*
X19000000Y-5025000D03*
X20431891Y-4431891D03*
X21025000Y-3000000D03*
D11*
X19000000Y-3000000D03*
D12*
X6680000Y-1100000D03*
X15320000Y-1100000D03*
D13*
X6680000Y-5280000D03*
X15320000Y-5280000D03*
D10*
X8900000Y-10600000D03*
X8550000Y-7500000D03*
X13450000Y-7500000D03*
D14*
X9115685Y-7500000D02*
X13450000Y-7500000D01*
X8550000Y-7500000D02*
X9115685Y-7500000D01*
D15*
G36*
X14185000Y-973000D02*
G01*
X15193000Y-973000D01*
X15193000Y-953000D01*
X15447000Y-953000D01*
X15447000Y-973000D01*
X15467000Y-973000D01*
X15467000Y-1227000D01*
X15447000Y-1227000D01*
X15447000Y-2367954D01*
X15621874Y-2494119D01*
X15701787Y-2465520D01*
X15648866Y-2995431D01*
X15712366Y-3649293D01*
X15718787Y-3670564D01*
X15621874Y-3635881D01*
X15447000Y-3762046D01*
X15447000Y-5153000D01*
X16455000Y-5153000D01*
X16455000Y-5029098D01*
X16654626Y-5165769D01*
X18820395Y-3000000D01*
X18806253Y-2985858D01*
X18985858Y-2806253D01*
X19000000Y-2820395D01*
X19014143Y-2806253D01*
X19193748Y-2985858D01*
X19179605Y-3000000D01*
X19193748Y-3014143D01*
X19014143Y-3193748D01*
X19000000Y-3179605D01*
X16834231Y-5345374D01*
X17134411Y-5783828D01*
X17713356Y-6094296D01*
X18341746Y-6285852D01*
X18995431Y-6351134D01*
X19649293Y-6287634D01*
X20278203Y-6097792D01*
X20857992Y-5788904D01*
X20865589Y-5783828D01*
X21165768Y-5345376D01*
X21279373Y-5458981D01*
X21290000Y-5448354D01*
X21290001Y-15965269D01*
X21243048Y-16444133D01*
X21114063Y-16871353D01*
X20904554Y-17265384D01*
X20622501Y-17611214D01*
X20278651Y-17895672D01*
X19886093Y-18107927D01*
X19459788Y-18239891D01*
X18983036Y-18290000D01*
X13448354Y-18290000D01*
X13458981Y-18279373D01*
X13345376Y-18165768D01*
X13783828Y-17865589D01*
X14094296Y-17286644D01*
X14285852Y-16658254D01*
X14351134Y-16004569D01*
X14287634Y-15350707D01*
X14097792Y-14721797D01*
X13788904Y-14142008D01*
X13783828Y-14134411D01*
X13345374Y-13834231D01*
X11179605Y-16000000D01*
X11193748Y-16014143D01*
X11014143Y-16193748D01*
X11000000Y-16179605D01*
X10985858Y-16193748D01*
X10806253Y-16014143D01*
X10820395Y-16000000D01*
X8654626Y-13834231D01*
X8216172Y-14134411D01*
X7905704Y-14713356D01*
X7714148Y-15341746D01*
X7648866Y-15995431D01*
X7712366Y-16649293D01*
X7902208Y-17278203D01*
X8211096Y-17857992D01*
X8216172Y-17865589D01*
X8654624Y-18165768D01*
X8541019Y-18279373D01*
X8551646Y-18290000D01*
X3034721Y-18290000D01*
X2555867Y-18243048D01*
X2128647Y-18114063D01*
X1734616Y-17904554D01*
X1388786Y-17622501D01*
X1104328Y-17278651D01*
X892073Y-16886093D01*
X760109Y-16459788D01*
X710000Y-15983036D01*
X710000Y-13654626D01*
X8834231Y-13654626D01*
X11000000Y-15820395D01*
X13165769Y-13654626D01*
X12865589Y-13216172D01*
X12286644Y-12905704D01*
X11658254Y-12714148D01*
X11004569Y-12648866D01*
X10350707Y-12712366D01*
X9721797Y-12902208D01*
X9142008Y-13211096D01*
X9134411Y-13216172D01*
X8834231Y-13654626D01*
X710000Y-13654626D01*
X710000Y-7398061D01*
X7515000Y-7398061D01*
X7515000Y-7601939D01*
X7554774Y-7801898D01*
X7632795Y-7990256D01*
X7746063Y-8159774D01*
X7890226Y-8303937D01*
X8059744Y-8417205D01*
X8248102Y-8495226D01*
X8448061Y-8535000D01*
X8651939Y-8535000D01*
X8851898Y-8495226D01*
X9040256Y-8417205D01*
X9177503Y-8325500D01*
X12822497Y-8325500D01*
X12959744Y-8417205D01*
X13148102Y-8495226D01*
X13348061Y-8535000D01*
X13551939Y-8535000D01*
X13751898Y-8495226D01*
X13940256Y-8417205D01*
X14109774Y-8303937D01*
X14253937Y-8159774D01*
X14367205Y-7990256D01*
X14445226Y-7801898D01*
X14485000Y-7601939D01*
X14485000Y-7398061D01*
X14445226Y-7198102D01*
X14367205Y-7009744D01*
X14253937Y-6840226D01*
X14109774Y-6696063D01*
X13940256Y-6582795D01*
X13751898Y-6504774D01*
X13551939Y-6465000D01*
X13348061Y-6465000D01*
X13148102Y-6504774D01*
X12959744Y-6582795D01*
X12822497Y-6674500D01*
X9177503Y-6674500D01*
X9040256Y-6582795D01*
X8851898Y-6504774D01*
X8651939Y-6465000D01*
X8448061Y-6465000D01*
X8248102Y-6504774D01*
X8059744Y-6582795D01*
X7890226Y-6696063D01*
X7746063Y-6840226D01*
X7632795Y-7009744D01*
X7554774Y-7198102D01*
X7515000Y-7398061D01*
X710000Y-7398061D01*
X710000Y-5448354D01*
X720627Y-5458981D01*
X834232Y-5345376D01*
X1134411Y-5783828D01*
X1713356Y-6094296D01*
X2341746Y-6285852D01*
X2995431Y-6351134D01*
X3649293Y-6287634D01*
X4278203Y-6097792D01*
X4857992Y-5788904D01*
X4865589Y-5783828D01*
X5123577Y-5407000D01*
X5545000Y-5407000D01*
X5545000Y-5957000D01*
X5591585Y-6175987D01*
X5679997Y-6381678D01*
X5806839Y-6566169D01*
X5967236Y-6722369D01*
X6155024Y-6844276D01*
X6378126Y-6924119D01*
X6553000Y-6797954D01*
X6553000Y-5407000D01*
X5545000Y-5407000D01*
X5123577Y-5407000D01*
X5165769Y-5345374D01*
X3000000Y-3179605D01*
X2985858Y-3193748D01*
X2806253Y-3014143D01*
X2820395Y-3000000D01*
X2806253Y-2985858D01*
X2985858Y-2806253D01*
X3000000Y-2820395D01*
X3014143Y-2806253D01*
X3193748Y-2985858D01*
X3179605Y-3000000D01*
X5345374Y-5165769D01*
X5545000Y-5029098D01*
X5545000Y-5153000D01*
X6553000Y-5153000D01*
X6553000Y-3762046D01*
X6807000Y-3762046D01*
X6807000Y-5153000D01*
X6827000Y-5153000D01*
X6827000Y-5407000D01*
X6807000Y-5407000D01*
X6807000Y-6797954D01*
X6981874Y-6924119D01*
X7204976Y-6844276D01*
X7392764Y-6722369D01*
X7553161Y-6566169D01*
X7680003Y-6381678D01*
X7768415Y-6175987D01*
X7815000Y-5957000D01*
X7815000Y-5666904D01*
X7829978Y-5673108D01*
X8015448Y-5710000D01*
X8204552Y-5710000D01*
X8390022Y-5673108D01*
X8564731Y-5600741D01*
X8721964Y-5495681D01*
X8855681Y-5361964D01*
X8960741Y-5204731D01*
X9033108Y-5030022D01*
X9070000Y-4844552D01*
X9070000Y-4655448D01*
X12930000Y-4655448D01*
X12930000Y-4844552D01*
X12966892Y-5030022D01*
X13039259Y-5204731D01*
X13144319Y-5361964D01*
X13278036Y-5495681D01*
X13435269Y-5600741D01*
X13609978Y-5673108D01*
X13795448Y-5710000D01*
X13984552Y-5710000D01*
X14170022Y-5673108D01*
X14185000Y-5666904D01*
X14185000Y-5957000D01*
X14231585Y-6175987D01*
X14319997Y-6381678D01*
X14446839Y-6566169D01*
X14607236Y-6722369D01*
X14795024Y-6844276D01*
X15018126Y-6924119D01*
X15193000Y-6797954D01*
X15193000Y-5407000D01*
X15447000Y-5407000D01*
X15447000Y-6797954D01*
X15621874Y-6924119D01*
X15844976Y-6844276D01*
X16032764Y-6722369D01*
X16193161Y-6566169D01*
X16320003Y-6381678D01*
X16408415Y-6175987D01*
X16455000Y-5957000D01*
X16455000Y-5407000D01*
X15447000Y-5407000D01*
X15193000Y-5407000D01*
X15173000Y-5407000D01*
X15173000Y-5153000D01*
X15193000Y-5153000D01*
X15193000Y-3762046D01*
X15018126Y-3635881D01*
X14795024Y-3715724D01*
X14607236Y-3837631D01*
X14462884Y-3978206D01*
X14344731Y-3899259D01*
X14170022Y-3826892D01*
X13984552Y-3790000D01*
X13795448Y-3790000D01*
X13609978Y-3826892D01*
X13435269Y-3899259D01*
X13278036Y-4004319D01*
X13144319Y-4138036D01*
X13039259Y-4295269D01*
X12966892Y-4469978D01*
X12930000Y-4655448D01*
X9070000Y-4655448D01*
X9033108Y-4469978D01*
X8960741Y-4295269D01*
X8855681Y-4138036D01*
X8721964Y-4004319D01*
X8564731Y-3899259D01*
X8390022Y-3826892D01*
X8204552Y-3790000D01*
X8015448Y-3790000D01*
X7829978Y-3826892D01*
X7655269Y-3899259D01*
X7537116Y-3978206D01*
X7392764Y-3837631D01*
X7204976Y-3715724D01*
X6981874Y-3635881D01*
X6807000Y-3762046D01*
X6553000Y-3762046D01*
X6378126Y-3635881D01*
X6282208Y-3670208D01*
X6285852Y-3658254D01*
X6351134Y-3004569D01*
X6298805Y-2465732D01*
X6378126Y-2494119D01*
X6553000Y-2367954D01*
X6553000Y-1227000D01*
X6807000Y-1227000D01*
X6807000Y-2367954D01*
X6981874Y-2494119D01*
X7204976Y-2414276D01*
X7392764Y-2292369D01*
X7553161Y-2136169D01*
X7680003Y-1951678D01*
X7768415Y-1745987D01*
X7815000Y-1527000D01*
X7815000Y-1227000D01*
X14185000Y-1227000D01*
X14185000Y-1527000D01*
X14231585Y-1745987D01*
X14319997Y-1951678D01*
X14446839Y-2136169D01*
X14607236Y-2292369D01*
X14795024Y-2414276D01*
X15018126Y-2494119D01*
X15193000Y-2367954D01*
X15193000Y-1227000D01*
X14185000Y-1227000D01*
X7815000Y-1227000D01*
X6807000Y-1227000D01*
X6553000Y-1227000D01*
X6533000Y-1227000D01*
X6533000Y-973000D01*
X6553000Y-973000D01*
X6553000Y-953000D01*
X6807000Y-953000D01*
X6807000Y-973000D01*
X7815000Y-973000D01*
X7815000Y-710000D01*
X14185000Y-710000D01*
X14185000Y-973000D01*
X14185000Y-973000D01*
G37*
X14185000Y-973000D02*
X15193000Y-973000D01*
X15193000Y-953000D01*
X15447000Y-953000D01*
X15447000Y-973000D01*
X15467000Y-973000D01*
X15467000Y-1227000D01*
X15447000Y-1227000D01*
X15447000Y-2367954D01*
X15621874Y-2494119D01*
X15701787Y-2465520D01*
X15648866Y-2995431D01*
X15712366Y-3649293D01*
X15718787Y-3670564D01*
X15621874Y-3635881D01*
X15447000Y-3762046D01*
X15447000Y-5153000D01*
X16455000Y-5153000D01*
X16455000Y-5029098D01*
X16654626Y-5165769D01*
X18820395Y-3000000D01*
X18806253Y-2985858D01*
X18985858Y-2806253D01*
X19000000Y-2820395D01*
X19014143Y-2806253D01*
X19193748Y-2985858D01*
X19179605Y-3000000D01*
X19193748Y-3014143D01*
X19014143Y-3193748D01*
X19000000Y-3179605D01*
X16834231Y-5345374D01*
X17134411Y-5783828D01*
X17713356Y-6094296D01*
X18341746Y-6285852D01*
X18995431Y-6351134D01*
X19649293Y-6287634D01*
X20278203Y-6097792D01*
X20857992Y-5788904D01*
X20865589Y-5783828D01*
X21165768Y-5345376D01*
X21279373Y-5458981D01*
X21290000Y-5448354D01*
X21290001Y-15965269D01*
X21243048Y-16444133D01*
X21114063Y-16871353D01*
X20904554Y-17265384D01*
X20622501Y-17611214D01*
X20278651Y-17895672D01*
X19886093Y-18107927D01*
X19459788Y-18239891D01*
X18983036Y-18290000D01*
X13448354Y-18290000D01*
X13458981Y-18279373D01*
X13345376Y-18165768D01*
X13783828Y-17865589D01*
X14094296Y-17286644D01*
X14285852Y-16658254D01*
X14351134Y-16004569D01*
X14287634Y-15350707D01*
X14097792Y-14721797D01*
X13788904Y-14142008D01*
X13783828Y-14134411D01*
X13345374Y-13834231D01*
X11179605Y-16000000D01*
X11193748Y-16014143D01*
X11014143Y-16193748D01*
X11000000Y-16179605D01*
X10985858Y-16193748D01*
X10806253Y-16014143D01*
X10820395Y-16000000D01*
X8654626Y-13834231D01*
X8216172Y-14134411D01*
X7905704Y-14713356D01*
X7714148Y-15341746D01*
X7648866Y-15995431D01*
X7712366Y-16649293D01*
X7902208Y-17278203D01*
X8211096Y-17857992D01*
X8216172Y-17865589D01*
X8654624Y-18165768D01*
X8541019Y-18279373D01*
X8551646Y-18290000D01*
X3034721Y-18290000D01*
X2555867Y-18243048D01*
X2128647Y-18114063D01*
X1734616Y-17904554D01*
X1388786Y-17622501D01*
X1104328Y-17278651D01*
X892073Y-16886093D01*
X760109Y-16459788D01*
X710000Y-15983036D01*
X710000Y-13654626D01*
X8834231Y-13654626D01*
X11000000Y-15820395D01*
X13165769Y-13654626D01*
X12865589Y-13216172D01*
X12286644Y-12905704D01*
X11658254Y-12714148D01*
X11004569Y-12648866D01*
X10350707Y-12712366D01*
X9721797Y-12902208D01*
X9142008Y-13211096D01*
X9134411Y-13216172D01*
X8834231Y-13654626D01*
X710000Y-13654626D01*
X710000Y-7398061D01*
X7515000Y-7398061D01*
X7515000Y-7601939D01*
X7554774Y-7801898D01*
X7632795Y-7990256D01*
X7746063Y-8159774D01*
X7890226Y-8303937D01*
X8059744Y-8417205D01*
X8248102Y-8495226D01*
X8448061Y-8535000D01*
X8651939Y-8535000D01*
X8851898Y-8495226D01*
X9040256Y-8417205D01*
X9177503Y-8325500D01*
X12822497Y-8325500D01*
X12959744Y-8417205D01*
X13148102Y-8495226D01*
X13348061Y-8535000D01*
X13551939Y-8535000D01*
X13751898Y-8495226D01*
X13940256Y-8417205D01*
X14109774Y-8303937D01*
X14253937Y-8159774D01*
X14367205Y-7990256D01*
X14445226Y-7801898D01*
X14485000Y-7601939D01*
X14485000Y-7398061D01*
X14445226Y-7198102D01*
X14367205Y-7009744D01*
X14253937Y-6840226D01*
X14109774Y-6696063D01*
X13940256Y-6582795D01*
X13751898Y-6504774D01*
X13551939Y-6465000D01*
X13348061Y-6465000D01*
X13148102Y-6504774D01*
X12959744Y-6582795D01*
X12822497Y-6674500D01*
X9177503Y-6674500D01*
X9040256Y-6582795D01*
X8851898Y-6504774D01*
X8651939Y-6465000D01*
X8448061Y-6465000D01*
X8248102Y-6504774D01*
X8059744Y-6582795D01*
X7890226Y-6696063D01*
X7746063Y-6840226D01*
X7632795Y-7009744D01*
X7554774Y-7198102D01*
X7515000Y-7398061D01*
X710000Y-7398061D01*
X710000Y-5448354D01*
X720627Y-5458981D01*
X834232Y-5345376D01*
X1134411Y-5783828D01*
X1713356Y-6094296D01*
X2341746Y-6285852D01*
X2995431Y-6351134D01*
X3649293Y-6287634D01*
X4278203Y-6097792D01*
X4857992Y-5788904D01*
X4865589Y-5783828D01*
X5123577Y-5407000D01*
X5545000Y-5407000D01*
X5545000Y-5957000D01*
X5591585Y-6175987D01*
X5679997Y-6381678D01*
X5806839Y-6566169D01*
X5967236Y-6722369D01*
X6155024Y-6844276D01*
X6378126Y-6924119D01*
X6553000Y-6797954D01*
X6553000Y-5407000D01*
X5545000Y-5407000D01*
X5123577Y-5407000D01*
X5165769Y-5345374D01*
X3000000Y-3179605D01*
X2985858Y-3193748D01*
X2806253Y-3014143D01*
X2820395Y-3000000D01*
X2806253Y-2985858D01*
X2985858Y-2806253D01*
X3000000Y-2820395D01*
X3014143Y-2806253D01*
X3193748Y-2985858D01*
X3179605Y-3000000D01*
X5345374Y-5165769D01*
X5545000Y-5029098D01*
X5545000Y-5153000D01*
X6553000Y-5153000D01*
X6553000Y-3762046D01*
X6807000Y-3762046D01*
X6807000Y-5153000D01*
X6827000Y-5153000D01*
X6827000Y-5407000D01*
X6807000Y-5407000D01*
X6807000Y-6797954D01*
X6981874Y-6924119D01*
X7204976Y-6844276D01*
X7392764Y-6722369D01*
X7553161Y-6566169D01*
X7680003Y-6381678D01*
X7768415Y-6175987D01*
X7815000Y-5957000D01*
X7815000Y-5666904D01*
X7829978Y-5673108D01*
X8015448Y-5710000D01*
X8204552Y-5710000D01*
X8390022Y-5673108D01*
X8564731Y-5600741D01*
X8721964Y-5495681D01*
X8855681Y-5361964D01*
X8960741Y-5204731D01*
X9033108Y-5030022D01*
X9070000Y-4844552D01*
X9070000Y-4655448D01*
X12930000Y-4655448D01*
X12930000Y-4844552D01*
X12966892Y-5030022D01*
X13039259Y-5204731D01*
X13144319Y-5361964D01*
X13278036Y-5495681D01*
X13435269Y-5600741D01*
X13609978Y-5673108D01*
X13795448Y-5710000D01*
X13984552Y-5710000D01*
X14170022Y-5673108D01*
X14185000Y-5666904D01*
X14185000Y-5957000D01*
X14231585Y-6175987D01*
X14319997Y-6381678D01*
X14446839Y-6566169D01*
X14607236Y-6722369D01*
X14795024Y-6844276D01*
X15018126Y-6924119D01*
X15193000Y-6797954D01*
X15193000Y-5407000D01*
X15447000Y-5407000D01*
X15447000Y-6797954D01*
X15621874Y-6924119D01*
X15844976Y-6844276D01*
X16032764Y-6722369D01*
X16193161Y-6566169D01*
X16320003Y-6381678D01*
X16408415Y-6175987D01*
X16455000Y-5957000D01*
X16455000Y-5407000D01*
X15447000Y-5407000D01*
X15193000Y-5407000D01*
X15173000Y-5407000D01*
X15173000Y-5153000D01*
X15193000Y-5153000D01*
X15193000Y-3762046D01*
X15018126Y-3635881D01*
X14795024Y-3715724D01*
X14607236Y-3837631D01*
X14462884Y-3978206D01*
X14344731Y-3899259D01*
X14170022Y-3826892D01*
X13984552Y-3790000D01*
X13795448Y-3790000D01*
X13609978Y-3826892D01*
X13435269Y-3899259D01*
X13278036Y-4004319D01*
X13144319Y-4138036D01*
X13039259Y-4295269D01*
X12966892Y-4469978D01*
X12930000Y-4655448D01*
X9070000Y-4655448D01*
X9033108Y-4469978D01*
X8960741Y-4295269D01*
X8855681Y-4138036D01*
X8721964Y-4004319D01*
X8564731Y-3899259D01*
X8390022Y-3826892D01*
X8204552Y-3790000D01*
X8015448Y-3790000D01*
X7829978Y-3826892D01*
X7655269Y-3899259D01*
X7537116Y-3978206D01*
X7392764Y-3837631D01*
X7204976Y-3715724D01*
X6981874Y-3635881D01*
X6807000Y-3762046D01*
X6553000Y-3762046D01*
X6378126Y-3635881D01*
X6282208Y-3670208D01*
X6285852Y-3658254D01*
X6351134Y-3004569D01*
X6298805Y-2465732D01*
X6378126Y-2494119D01*
X6553000Y-2367954D01*
X6553000Y-1227000D01*
X6807000Y-1227000D01*
X6807000Y-2367954D01*
X6981874Y-2494119D01*
X7204976Y-2414276D01*
X7392764Y-2292369D01*
X7553161Y-2136169D01*
X7680003Y-1951678D01*
X7768415Y-1745987D01*
X7815000Y-1527000D01*
X7815000Y-1227000D01*
X14185000Y-1227000D01*
X14185000Y-1527000D01*
X14231585Y-1745987D01*
X14319997Y-1951678D01*
X14446839Y-2136169D01*
X14607236Y-2292369D01*
X14795024Y-2414276D01*
X15018126Y-2494119D01*
X15193000Y-2367954D01*
X15193000Y-1227000D01*
X14185000Y-1227000D01*
X7815000Y-1227000D01*
X6807000Y-1227000D01*
X6553000Y-1227000D01*
X6533000Y-1227000D01*
X6533000Y-973000D01*
X6553000Y-973000D01*
X6553000Y-953000D01*
X6807000Y-953000D01*
X6807000Y-973000D01*
X7815000Y-973000D01*
X7815000Y-710000D01*
X14185000Y-710000D01*
X14185000Y-973000D01*
M02*
