G04 #@! TF.GenerationSoftware,KiCad,Pcbnew,(5.1.2)-1*
G04 #@! TF.CreationDate,2019-07-01T01:58:11-07:00*
G04 #@! TF.ProjectId,daughterboard,64617567-6874-4657-9262-6f6172642e6b,rev?*
G04 #@! TF.SameCoordinates,Original*
G04 #@! TF.FileFunction,Paste,Top*
G04 #@! TF.FilePolarity,Positive*
%FSLAX46Y46*%
G04 Gerber Fmt 4.6, Leading zero omitted, Abs format (unit mm)*
G04 Created by KiCad (PCBNEW (5.1.2)-1) date 2019-07-01 01:58:11*
%MOMM*%
%LPD*%
G04 APERTURE LIST*
%ADD10R,0.300000X1.450000*%
%ADD11R,0.600000X1.450000*%
%ADD12C,0.100000*%
%ADD13C,0.875000*%
%ADD14R,1.200000X1.400000*%
%ADD15R,1.000000X1.400000*%
%ADD16C,0.975000*%
G04 APERTURE END LIST*
D10*
X11250000Y-6195000D03*
X10750000Y-6195000D03*
X10250000Y-6195000D03*
X11750000Y-6195000D03*
X9750000Y-6195000D03*
X12250000Y-6195000D03*
X9250000Y-6195000D03*
X12750000Y-6195000D03*
D11*
X13450000Y-6195000D03*
X8550000Y-6195000D03*
X14225000Y-6195000D03*
X7775000Y-6195000D03*
D12*
G36*
X3527691Y-7926053D02*
G01*
X3548926Y-7929203D01*
X3569750Y-7934419D01*
X3589962Y-7941651D01*
X3609368Y-7950830D01*
X3627781Y-7961866D01*
X3645024Y-7974654D01*
X3660930Y-7989070D01*
X3675346Y-8004976D01*
X3688134Y-8022219D01*
X3699170Y-8040632D01*
X3708349Y-8060038D01*
X3715581Y-8080250D01*
X3720797Y-8101074D01*
X3723947Y-8122309D01*
X3725000Y-8143750D01*
X3725000Y-8656250D01*
X3723947Y-8677691D01*
X3720797Y-8698926D01*
X3715581Y-8719750D01*
X3708349Y-8739962D01*
X3699170Y-8759368D01*
X3688134Y-8777781D01*
X3675346Y-8795024D01*
X3660930Y-8810930D01*
X3645024Y-8825346D01*
X3627781Y-8838134D01*
X3609368Y-8849170D01*
X3589962Y-8858349D01*
X3569750Y-8865581D01*
X3548926Y-8870797D01*
X3527691Y-8873947D01*
X3506250Y-8875000D01*
X3068750Y-8875000D01*
X3047309Y-8873947D01*
X3026074Y-8870797D01*
X3005250Y-8865581D01*
X2985038Y-8858349D01*
X2965632Y-8849170D01*
X2947219Y-8838134D01*
X2929976Y-8825346D01*
X2914070Y-8810930D01*
X2899654Y-8795024D01*
X2886866Y-8777781D01*
X2875830Y-8759368D01*
X2866651Y-8739962D01*
X2859419Y-8719750D01*
X2854203Y-8698926D01*
X2851053Y-8677691D01*
X2850000Y-8656250D01*
X2850000Y-8143750D01*
X2851053Y-8122309D01*
X2854203Y-8101074D01*
X2859419Y-8080250D01*
X2866651Y-8060038D01*
X2875830Y-8040632D01*
X2886866Y-8022219D01*
X2899654Y-8004976D01*
X2914070Y-7989070D01*
X2929976Y-7974654D01*
X2947219Y-7961866D01*
X2965632Y-7950830D01*
X2985038Y-7941651D01*
X3005250Y-7934419D01*
X3026074Y-7929203D01*
X3047309Y-7926053D01*
X3068750Y-7925000D01*
X3506250Y-7925000D01*
X3527691Y-7926053D01*
X3527691Y-7926053D01*
G37*
D13*
X3287500Y-8400000D03*
D12*
G36*
X1952691Y-7926053D02*
G01*
X1973926Y-7929203D01*
X1994750Y-7934419D01*
X2014962Y-7941651D01*
X2034368Y-7950830D01*
X2052781Y-7961866D01*
X2070024Y-7974654D01*
X2085930Y-7989070D01*
X2100346Y-8004976D01*
X2113134Y-8022219D01*
X2124170Y-8040632D01*
X2133349Y-8060038D01*
X2140581Y-8080250D01*
X2145797Y-8101074D01*
X2148947Y-8122309D01*
X2150000Y-8143750D01*
X2150000Y-8656250D01*
X2148947Y-8677691D01*
X2145797Y-8698926D01*
X2140581Y-8719750D01*
X2133349Y-8739962D01*
X2124170Y-8759368D01*
X2113134Y-8777781D01*
X2100346Y-8795024D01*
X2085930Y-8810930D01*
X2070024Y-8825346D01*
X2052781Y-8838134D01*
X2034368Y-8849170D01*
X2014962Y-8858349D01*
X1994750Y-8865581D01*
X1973926Y-8870797D01*
X1952691Y-8873947D01*
X1931250Y-8875000D01*
X1493750Y-8875000D01*
X1472309Y-8873947D01*
X1451074Y-8870797D01*
X1430250Y-8865581D01*
X1410038Y-8858349D01*
X1390632Y-8849170D01*
X1372219Y-8838134D01*
X1354976Y-8825346D01*
X1339070Y-8810930D01*
X1324654Y-8795024D01*
X1311866Y-8777781D01*
X1300830Y-8759368D01*
X1291651Y-8739962D01*
X1284419Y-8719750D01*
X1279203Y-8698926D01*
X1276053Y-8677691D01*
X1275000Y-8656250D01*
X1275000Y-8143750D01*
X1276053Y-8122309D01*
X1279203Y-8101074D01*
X1284419Y-8080250D01*
X1291651Y-8060038D01*
X1300830Y-8040632D01*
X1311866Y-8022219D01*
X1324654Y-8004976D01*
X1339070Y-7989070D01*
X1354976Y-7974654D01*
X1372219Y-7961866D01*
X1390632Y-7950830D01*
X1410038Y-7941651D01*
X1430250Y-7934419D01*
X1451074Y-7929203D01*
X1472309Y-7926053D01*
X1493750Y-7925000D01*
X1931250Y-7925000D01*
X1952691Y-7926053D01*
X1952691Y-7926053D01*
G37*
D13*
X1712500Y-8400000D03*
D14*
X10480000Y-10600000D03*
D15*
X12200000Y-10600000D03*
X12200000Y-8400000D03*
X10300000Y-8400000D03*
D12*
G36*
X7205142Y-7701174D02*
G01*
X7228803Y-7704684D01*
X7252007Y-7710496D01*
X7274529Y-7718554D01*
X7296153Y-7728782D01*
X7316670Y-7741079D01*
X7335883Y-7755329D01*
X7353607Y-7771393D01*
X7369671Y-7789117D01*
X7383921Y-7808330D01*
X7396218Y-7828847D01*
X7406446Y-7850471D01*
X7414504Y-7872993D01*
X7420316Y-7896197D01*
X7423826Y-7919858D01*
X7425000Y-7943750D01*
X7425000Y-8856250D01*
X7423826Y-8880142D01*
X7420316Y-8903803D01*
X7414504Y-8927007D01*
X7406446Y-8949529D01*
X7396218Y-8971153D01*
X7383921Y-8991670D01*
X7369671Y-9010883D01*
X7353607Y-9028607D01*
X7335883Y-9044671D01*
X7316670Y-9058921D01*
X7296153Y-9071218D01*
X7274529Y-9081446D01*
X7252007Y-9089504D01*
X7228803Y-9095316D01*
X7205142Y-9098826D01*
X7181250Y-9100000D01*
X6693750Y-9100000D01*
X6669858Y-9098826D01*
X6646197Y-9095316D01*
X6622993Y-9089504D01*
X6600471Y-9081446D01*
X6578847Y-9071218D01*
X6558330Y-9058921D01*
X6539117Y-9044671D01*
X6521393Y-9028607D01*
X6505329Y-9010883D01*
X6491079Y-8991670D01*
X6478782Y-8971153D01*
X6468554Y-8949529D01*
X6460496Y-8927007D01*
X6454684Y-8903803D01*
X6451174Y-8880142D01*
X6450000Y-8856250D01*
X6450000Y-7943750D01*
X6451174Y-7919858D01*
X6454684Y-7896197D01*
X6460496Y-7872993D01*
X6468554Y-7850471D01*
X6478782Y-7828847D01*
X6491079Y-7808330D01*
X6505329Y-7789117D01*
X6521393Y-7771393D01*
X6539117Y-7755329D01*
X6558330Y-7741079D01*
X6578847Y-7728782D01*
X6600471Y-7718554D01*
X6622993Y-7710496D01*
X6646197Y-7704684D01*
X6669858Y-7701174D01*
X6693750Y-7700000D01*
X7181250Y-7700000D01*
X7205142Y-7701174D01*
X7205142Y-7701174D01*
G37*
D16*
X6937500Y-8400000D03*
D12*
G36*
X5330142Y-7701174D02*
G01*
X5353803Y-7704684D01*
X5377007Y-7710496D01*
X5399529Y-7718554D01*
X5421153Y-7728782D01*
X5441670Y-7741079D01*
X5460883Y-7755329D01*
X5478607Y-7771393D01*
X5494671Y-7789117D01*
X5508921Y-7808330D01*
X5521218Y-7828847D01*
X5531446Y-7850471D01*
X5539504Y-7872993D01*
X5545316Y-7896197D01*
X5548826Y-7919858D01*
X5550000Y-7943750D01*
X5550000Y-8856250D01*
X5548826Y-8880142D01*
X5545316Y-8903803D01*
X5539504Y-8927007D01*
X5531446Y-8949529D01*
X5521218Y-8971153D01*
X5508921Y-8991670D01*
X5494671Y-9010883D01*
X5478607Y-9028607D01*
X5460883Y-9044671D01*
X5441670Y-9058921D01*
X5421153Y-9071218D01*
X5399529Y-9081446D01*
X5377007Y-9089504D01*
X5353803Y-9095316D01*
X5330142Y-9098826D01*
X5306250Y-9100000D01*
X4818750Y-9100000D01*
X4794858Y-9098826D01*
X4771197Y-9095316D01*
X4747993Y-9089504D01*
X4725471Y-9081446D01*
X4703847Y-9071218D01*
X4683330Y-9058921D01*
X4664117Y-9044671D01*
X4646393Y-9028607D01*
X4630329Y-9010883D01*
X4616079Y-8991670D01*
X4603782Y-8971153D01*
X4593554Y-8949529D01*
X4585496Y-8927007D01*
X4579684Y-8903803D01*
X4576174Y-8880142D01*
X4575000Y-8856250D01*
X4575000Y-7943750D01*
X4576174Y-7919858D01*
X4579684Y-7896197D01*
X4585496Y-7872993D01*
X4593554Y-7850471D01*
X4603782Y-7828847D01*
X4616079Y-7808330D01*
X4630329Y-7789117D01*
X4646393Y-7771393D01*
X4664117Y-7755329D01*
X4683330Y-7741079D01*
X4703847Y-7728782D01*
X4725471Y-7718554D01*
X4747993Y-7710496D01*
X4771197Y-7704684D01*
X4794858Y-7701174D01*
X4818750Y-7700000D01*
X5306250Y-7700000D01*
X5330142Y-7701174D01*
X5330142Y-7701174D01*
G37*
D16*
X5062500Y-8400000D03*
D12*
G36*
X18015191Y-7026053D02*
G01*
X18036426Y-7029203D01*
X18057250Y-7034419D01*
X18077462Y-7041651D01*
X18096868Y-7050830D01*
X18115281Y-7061866D01*
X18132524Y-7074654D01*
X18148430Y-7089070D01*
X18162846Y-7104976D01*
X18175634Y-7122219D01*
X18186670Y-7140632D01*
X18195849Y-7160038D01*
X18203081Y-7180250D01*
X18208297Y-7201074D01*
X18211447Y-7222309D01*
X18212500Y-7243750D01*
X18212500Y-7756250D01*
X18211447Y-7777691D01*
X18208297Y-7798926D01*
X18203081Y-7819750D01*
X18195849Y-7839962D01*
X18186670Y-7859368D01*
X18175634Y-7877781D01*
X18162846Y-7895024D01*
X18148430Y-7910930D01*
X18132524Y-7925346D01*
X18115281Y-7938134D01*
X18096868Y-7949170D01*
X18077462Y-7958349D01*
X18057250Y-7965581D01*
X18036426Y-7970797D01*
X18015191Y-7973947D01*
X17993750Y-7975000D01*
X17556250Y-7975000D01*
X17534809Y-7973947D01*
X17513574Y-7970797D01*
X17492750Y-7965581D01*
X17472538Y-7958349D01*
X17453132Y-7949170D01*
X17434719Y-7938134D01*
X17417476Y-7925346D01*
X17401570Y-7910930D01*
X17387154Y-7895024D01*
X17374366Y-7877781D01*
X17363330Y-7859368D01*
X17354151Y-7839962D01*
X17346919Y-7819750D01*
X17341703Y-7798926D01*
X17338553Y-7777691D01*
X17337500Y-7756250D01*
X17337500Y-7243750D01*
X17338553Y-7222309D01*
X17341703Y-7201074D01*
X17346919Y-7180250D01*
X17354151Y-7160038D01*
X17363330Y-7140632D01*
X17374366Y-7122219D01*
X17387154Y-7104976D01*
X17401570Y-7089070D01*
X17417476Y-7074654D01*
X17434719Y-7061866D01*
X17453132Y-7050830D01*
X17472538Y-7041651D01*
X17492750Y-7034419D01*
X17513574Y-7029203D01*
X17534809Y-7026053D01*
X17556250Y-7025000D01*
X17993750Y-7025000D01*
X18015191Y-7026053D01*
X18015191Y-7026053D01*
G37*
D13*
X17775000Y-7500000D03*
D12*
G36*
X16440191Y-7026053D02*
G01*
X16461426Y-7029203D01*
X16482250Y-7034419D01*
X16502462Y-7041651D01*
X16521868Y-7050830D01*
X16540281Y-7061866D01*
X16557524Y-7074654D01*
X16573430Y-7089070D01*
X16587846Y-7104976D01*
X16600634Y-7122219D01*
X16611670Y-7140632D01*
X16620849Y-7160038D01*
X16628081Y-7180250D01*
X16633297Y-7201074D01*
X16636447Y-7222309D01*
X16637500Y-7243750D01*
X16637500Y-7756250D01*
X16636447Y-7777691D01*
X16633297Y-7798926D01*
X16628081Y-7819750D01*
X16620849Y-7839962D01*
X16611670Y-7859368D01*
X16600634Y-7877781D01*
X16587846Y-7895024D01*
X16573430Y-7910930D01*
X16557524Y-7925346D01*
X16540281Y-7938134D01*
X16521868Y-7949170D01*
X16502462Y-7958349D01*
X16482250Y-7965581D01*
X16461426Y-7970797D01*
X16440191Y-7973947D01*
X16418750Y-7975000D01*
X15981250Y-7975000D01*
X15959809Y-7973947D01*
X15938574Y-7970797D01*
X15917750Y-7965581D01*
X15897538Y-7958349D01*
X15878132Y-7949170D01*
X15859719Y-7938134D01*
X15842476Y-7925346D01*
X15826570Y-7910930D01*
X15812154Y-7895024D01*
X15799366Y-7877781D01*
X15788330Y-7859368D01*
X15779151Y-7839962D01*
X15771919Y-7819750D01*
X15766703Y-7798926D01*
X15763553Y-7777691D01*
X15762500Y-7756250D01*
X15762500Y-7243750D01*
X15763553Y-7222309D01*
X15766703Y-7201074D01*
X15771919Y-7180250D01*
X15779151Y-7160038D01*
X15788330Y-7140632D01*
X15799366Y-7122219D01*
X15812154Y-7104976D01*
X15826570Y-7089070D01*
X15842476Y-7074654D01*
X15859719Y-7061866D01*
X15878132Y-7050830D01*
X15897538Y-7041651D01*
X15917750Y-7034419D01*
X15938574Y-7029203D01*
X15959809Y-7026053D01*
X15981250Y-7025000D01*
X16418750Y-7025000D01*
X16440191Y-7026053D01*
X16440191Y-7026053D01*
G37*
D13*
X16200000Y-7500000D03*
D12*
G36*
X3852691Y-6226053D02*
G01*
X3873926Y-6229203D01*
X3894750Y-6234419D01*
X3914962Y-6241651D01*
X3934368Y-6250830D01*
X3952781Y-6261866D01*
X3970024Y-6274654D01*
X3985930Y-6289070D01*
X4000346Y-6304976D01*
X4013134Y-6322219D01*
X4024170Y-6340632D01*
X4033349Y-6360038D01*
X4040581Y-6380250D01*
X4045797Y-6401074D01*
X4048947Y-6422309D01*
X4050000Y-6443750D01*
X4050000Y-6956250D01*
X4048947Y-6977691D01*
X4045797Y-6998926D01*
X4040581Y-7019750D01*
X4033349Y-7039962D01*
X4024170Y-7059368D01*
X4013134Y-7077781D01*
X4000346Y-7095024D01*
X3985930Y-7110930D01*
X3970024Y-7125346D01*
X3952781Y-7138134D01*
X3934368Y-7149170D01*
X3914962Y-7158349D01*
X3894750Y-7165581D01*
X3873926Y-7170797D01*
X3852691Y-7173947D01*
X3831250Y-7175000D01*
X3393750Y-7175000D01*
X3372309Y-7173947D01*
X3351074Y-7170797D01*
X3330250Y-7165581D01*
X3310038Y-7158349D01*
X3290632Y-7149170D01*
X3272219Y-7138134D01*
X3254976Y-7125346D01*
X3239070Y-7110930D01*
X3224654Y-7095024D01*
X3211866Y-7077781D01*
X3200830Y-7059368D01*
X3191651Y-7039962D01*
X3184419Y-7019750D01*
X3179203Y-6998926D01*
X3176053Y-6977691D01*
X3175000Y-6956250D01*
X3175000Y-6443750D01*
X3176053Y-6422309D01*
X3179203Y-6401074D01*
X3184419Y-6380250D01*
X3191651Y-6360038D01*
X3200830Y-6340632D01*
X3211866Y-6322219D01*
X3224654Y-6304976D01*
X3239070Y-6289070D01*
X3254976Y-6274654D01*
X3272219Y-6261866D01*
X3290632Y-6250830D01*
X3310038Y-6241651D01*
X3330250Y-6234419D01*
X3351074Y-6229203D01*
X3372309Y-6226053D01*
X3393750Y-6225000D01*
X3831250Y-6225000D01*
X3852691Y-6226053D01*
X3852691Y-6226053D01*
G37*
D13*
X3612500Y-6700000D03*
D12*
G36*
X5427691Y-6226053D02*
G01*
X5448926Y-6229203D01*
X5469750Y-6234419D01*
X5489962Y-6241651D01*
X5509368Y-6250830D01*
X5527781Y-6261866D01*
X5545024Y-6274654D01*
X5560930Y-6289070D01*
X5575346Y-6304976D01*
X5588134Y-6322219D01*
X5599170Y-6340632D01*
X5608349Y-6360038D01*
X5615581Y-6380250D01*
X5620797Y-6401074D01*
X5623947Y-6422309D01*
X5625000Y-6443750D01*
X5625000Y-6956250D01*
X5623947Y-6977691D01*
X5620797Y-6998926D01*
X5615581Y-7019750D01*
X5608349Y-7039962D01*
X5599170Y-7059368D01*
X5588134Y-7077781D01*
X5575346Y-7095024D01*
X5560930Y-7110930D01*
X5545024Y-7125346D01*
X5527781Y-7138134D01*
X5509368Y-7149170D01*
X5489962Y-7158349D01*
X5469750Y-7165581D01*
X5448926Y-7170797D01*
X5427691Y-7173947D01*
X5406250Y-7175000D01*
X4968750Y-7175000D01*
X4947309Y-7173947D01*
X4926074Y-7170797D01*
X4905250Y-7165581D01*
X4885038Y-7158349D01*
X4865632Y-7149170D01*
X4847219Y-7138134D01*
X4829976Y-7125346D01*
X4814070Y-7110930D01*
X4799654Y-7095024D01*
X4786866Y-7077781D01*
X4775830Y-7059368D01*
X4766651Y-7039962D01*
X4759419Y-7019750D01*
X4754203Y-6998926D01*
X4751053Y-6977691D01*
X4750000Y-6956250D01*
X4750000Y-6443750D01*
X4751053Y-6422309D01*
X4754203Y-6401074D01*
X4759419Y-6380250D01*
X4766651Y-6360038D01*
X4775830Y-6340632D01*
X4786866Y-6322219D01*
X4799654Y-6304976D01*
X4814070Y-6289070D01*
X4829976Y-6274654D01*
X4847219Y-6261866D01*
X4865632Y-6250830D01*
X4885038Y-6241651D01*
X4905250Y-6234419D01*
X4926074Y-6229203D01*
X4947309Y-6226053D01*
X4968750Y-6225000D01*
X5406250Y-6225000D01*
X5427691Y-6226053D01*
X5427691Y-6226053D01*
G37*
D13*
X5187500Y-6700000D03*
M02*
