G04 #@! TF.GenerationSoftware,KiCad,Pcbnew,(5.1.0)-1*
G04 #@! TF.CreationDate,2019-04-26T02:02:26-07:00*
G04 #@! TF.ProjectId,daughterboard,64617567-6874-4657-9262-6f6172642e6b,rev?*
G04 #@! TF.SameCoordinates,Original*
G04 #@! TF.FileFunction,Soldermask,Bot*
G04 #@! TF.FilePolarity,Negative*
%FSLAX46Y46*%
G04 Gerber Fmt 4.6, Leading zero omitted, Abs format (unit mm)*
G04 Created by KiCad (PCBNEW (5.1.0)-1) date 2019-04-26 02:02:26*
%MOMM*%
%LPD*%
G04 APERTURE LIST*
%ADD10C,0.100000*%
G04 APERTURE END LIST*
D10*
G36*
X11224549Y-15871116D02*
G01*
X11335734Y-15893232D01*
X11545203Y-15979997D01*
X11733720Y-16105960D01*
X11894040Y-16266280D01*
X12020003Y-16454797D01*
X12106768Y-16664266D01*
X12151000Y-16886636D01*
X12151000Y-17113364D01*
X12106768Y-17335734D01*
X12020003Y-17545203D01*
X11894040Y-17733720D01*
X11733720Y-17894040D01*
X11545203Y-18020003D01*
X11335734Y-18106768D01*
X11224549Y-18128884D01*
X11113365Y-18151000D01*
X10886635Y-18151000D01*
X10775451Y-18128884D01*
X10664266Y-18106768D01*
X10454797Y-18020003D01*
X10266280Y-17894040D01*
X10105960Y-17733720D01*
X9979997Y-17545203D01*
X9893232Y-17335734D01*
X9849000Y-17113364D01*
X9849000Y-16886636D01*
X9893232Y-16664266D01*
X9979997Y-16454797D01*
X10105960Y-16266280D01*
X10266280Y-16105960D01*
X10454797Y-15979997D01*
X10664266Y-15893232D01*
X10775451Y-15871116D01*
X10886635Y-15849000D01*
X11113365Y-15849000D01*
X11224549Y-15871116D01*
X11224549Y-15871116D01*
G37*
G36*
X5788015Y-4186973D02*
G01*
X5891879Y-4218479D01*
X5919055Y-4233005D01*
X5987600Y-4269643D01*
X6071501Y-4338499D01*
X6140357Y-4422400D01*
X6159354Y-4457942D01*
X6191521Y-4518121D01*
X6223027Y-4621985D01*
X6231000Y-4702933D01*
X6231000Y-5857067D01*
X6223027Y-5938015D01*
X6191521Y-6041879D01*
X6140356Y-6137600D01*
X6071501Y-6221501D01*
X6002645Y-6278009D01*
X5987599Y-6290357D01*
X5935907Y-6317987D01*
X5891878Y-6341521D01*
X5788014Y-6373027D01*
X5680000Y-6383666D01*
X5571985Y-6373027D01*
X5468121Y-6341521D01*
X5424093Y-6317987D01*
X5372401Y-6290357D01*
X5359643Y-6279887D01*
X5288499Y-6221501D01*
X5219644Y-6137600D01*
X5168479Y-6041878D01*
X5136973Y-5938014D01*
X5129000Y-5857066D01*
X5129001Y-4702933D01*
X5136974Y-4621985D01*
X5168480Y-4518121D01*
X5200647Y-4457942D01*
X5219644Y-4422400D01*
X5288500Y-4338499D01*
X5372401Y-4269643D01*
X5440946Y-4233005D01*
X5468122Y-4218479D01*
X5571986Y-4186973D01*
X5680000Y-4176334D01*
X5788015Y-4186973D01*
X5788015Y-4186973D01*
G37*
G36*
X14428015Y-4186973D02*
G01*
X14531879Y-4218479D01*
X14559055Y-4233005D01*
X14627600Y-4269643D01*
X14711501Y-4338499D01*
X14780357Y-4422400D01*
X14799354Y-4457942D01*
X14831521Y-4518121D01*
X14863027Y-4621985D01*
X14871000Y-4702933D01*
X14871000Y-5857067D01*
X14863027Y-5938015D01*
X14831521Y-6041879D01*
X14780356Y-6137600D01*
X14711501Y-6221501D01*
X14642645Y-6278009D01*
X14627599Y-6290357D01*
X14575907Y-6317987D01*
X14531878Y-6341521D01*
X14428014Y-6373027D01*
X14320000Y-6383666D01*
X14211985Y-6373027D01*
X14108121Y-6341521D01*
X14064093Y-6317987D01*
X14012401Y-6290357D01*
X13999643Y-6279887D01*
X13928499Y-6221501D01*
X13859644Y-6137600D01*
X13808479Y-6041878D01*
X13776973Y-5938014D01*
X13769000Y-5857066D01*
X13769001Y-4702933D01*
X13776974Y-4621985D01*
X13808480Y-4518121D01*
X13840647Y-4457942D01*
X13859644Y-4422400D01*
X13928500Y-4338499D01*
X14012401Y-4269643D01*
X14080946Y-4233005D01*
X14108122Y-4218479D01*
X14211986Y-4186973D01*
X14320000Y-4176334D01*
X14428015Y-4186973D01*
X14428015Y-4186973D01*
G37*
G36*
X7219672Y-4388449D02*
G01*
X7219674Y-4388450D01*
X7219675Y-4388450D01*
X7288103Y-4416793D01*
X7349686Y-4457942D01*
X7402058Y-4510314D01*
X7443207Y-4571897D01*
X7471550Y-4640325D01*
X7486000Y-4712967D01*
X7486000Y-4787033D01*
X7471550Y-4859675D01*
X7443207Y-4928103D01*
X7402058Y-4989686D01*
X7349686Y-5042058D01*
X7288103Y-5083207D01*
X7219675Y-5111550D01*
X7219674Y-5111550D01*
X7219672Y-5111551D01*
X7147034Y-5126000D01*
X7072966Y-5126000D01*
X7000328Y-5111551D01*
X7000326Y-5111550D01*
X7000325Y-5111550D01*
X6931897Y-5083207D01*
X6870314Y-5042058D01*
X6817942Y-4989686D01*
X6776793Y-4928103D01*
X6748450Y-4859675D01*
X6734000Y-4787033D01*
X6734000Y-4712967D01*
X6748450Y-4640325D01*
X6776793Y-4571897D01*
X6817942Y-4510314D01*
X6870314Y-4457942D01*
X6931897Y-4416793D01*
X7000325Y-4388450D01*
X7000326Y-4388450D01*
X7000328Y-4388449D01*
X7072966Y-4374000D01*
X7147034Y-4374000D01*
X7219672Y-4388449D01*
X7219672Y-4388449D01*
G37*
G36*
X12999672Y-4388449D02*
G01*
X12999674Y-4388450D01*
X12999675Y-4388450D01*
X13068103Y-4416793D01*
X13129686Y-4457942D01*
X13182058Y-4510314D01*
X13223207Y-4571897D01*
X13251550Y-4640325D01*
X13266000Y-4712967D01*
X13266000Y-4787033D01*
X13251550Y-4859675D01*
X13223207Y-4928103D01*
X13182058Y-4989686D01*
X13129686Y-5042058D01*
X13068103Y-5083207D01*
X12999675Y-5111550D01*
X12999674Y-5111550D01*
X12999672Y-5111551D01*
X12927034Y-5126000D01*
X12852966Y-5126000D01*
X12780328Y-5111551D01*
X12780326Y-5111550D01*
X12780325Y-5111550D01*
X12711897Y-5083207D01*
X12650314Y-5042058D01*
X12597942Y-4989686D01*
X12556793Y-4928103D01*
X12528450Y-4859675D01*
X12514000Y-4787033D01*
X12514000Y-4712967D01*
X12528450Y-4640325D01*
X12556793Y-4571897D01*
X12597942Y-4510314D01*
X12650314Y-4457942D01*
X12711897Y-4416793D01*
X12780325Y-4388450D01*
X12780326Y-4388450D01*
X12780328Y-4388449D01*
X12852966Y-4374000D01*
X12927034Y-4374000D01*
X12999672Y-4388449D01*
X12999672Y-4388449D01*
G37*
G36*
X17170455Y-1860356D02*
G01*
X17335734Y-1893232D01*
X17545203Y-1979997D01*
X17733720Y-2105960D01*
X17894040Y-2266280D01*
X18020003Y-2454797D01*
X18106768Y-2664266D01*
X18151000Y-2886636D01*
X18151000Y-3113364D01*
X18106768Y-3335734D01*
X18020003Y-3545203D01*
X17894040Y-3733720D01*
X17733720Y-3894040D01*
X17545203Y-4020003D01*
X17335734Y-4106768D01*
X17224549Y-4128884D01*
X17113365Y-4151000D01*
X16886635Y-4151000D01*
X16775451Y-4128884D01*
X16664266Y-4106768D01*
X16454797Y-4020003D01*
X16266280Y-3894040D01*
X16105960Y-3733720D01*
X15979997Y-3545203D01*
X15893232Y-3335734D01*
X15849000Y-3113364D01*
X15849000Y-2886636D01*
X15893232Y-2664266D01*
X15979997Y-2454797D01*
X16105960Y-2266280D01*
X16266280Y-2105960D01*
X16454797Y-1979997D01*
X16664266Y-1893232D01*
X16829545Y-1860356D01*
X16886635Y-1849000D01*
X17113365Y-1849000D01*
X17170455Y-1860356D01*
X17170455Y-1860356D01*
G37*
G36*
X3170455Y-1860356D02*
G01*
X3335734Y-1893232D01*
X3545203Y-1979997D01*
X3733720Y-2105960D01*
X3894040Y-2266280D01*
X4020003Y-2454797D01*
X4106768Y-2664266D01*
X4151000Y-2886636D01*
X4151000Y-3113364D01*
X4106768Y-3335734D01*
X4020003Y-3545203D01*
X3894040Y-3733720D01*
X3733720Y-3894040D01*
X3545203Y-4020003D01*
X3335734Y-4106768D01*
X3224549Y-4128884D01*
X3113365Y-4151000D01*
X2886635Y-4151000D01*
X2775451Y-4128884D01*
X2664266Y-4106768D01*
X2454797Y-4020003D01*
X2266280Y-3894040D01*
X2105960Y-3733720D01*
X1979997Y-3545203D01*
X1893232Y-3335734D01*
X1849000Y-3113364D01*
X1849000Y-2886636D01*
X1893232Y-2664266D01*
X1979997Y-2454797D01*
X2105960Y-2266280D01*
X2266280Y-2105960D01*
X2454797Y-1979997D01*
X2664266Y-1893232D01*
X2829545Y-1860356D01*
X2886635Y-1849000D01*
X3113365Y-1849000D01*
X3170455Y-1860356D01*
X3170455Y-1860356D01*
G37*
G36*
X14428015Y-256973D02*
G01*
X14531879Y-288479D01*
X14559055Y-303005D01*
X14627600Y-339643D01*
X14711501Y-408499D01*
X14780357Y-492400D01*
X14816995Y-560945D01*
X14831521Y-588121D01*
X14863027Y-691985D01*
X14871000Y-772933D01*
X14871000Y-1427067D01*
X14863027Y-1508015D01*
X14831521Y-1611879D01*
X14780356Y-1707600D01*
X14711501Y-1791501D01*
X14642645Y-1848009D01*
X14627599Y-1860357D01*
X14575907Y-1887987D01*
X14531878Y-1911521D01*
X14428014Y-1943027D01*
X14320000Y-1953666D01*
X14211985Y-1943027D01*
X14108121Y-1911521D01*
X14064093Y-1887987D01*
X14012401Y-1860357D01*
X13998563Y-1849000D01*
X13928499Y-1791501D01*
X13859644Y-1707600D01*
X13808479Y-1611878D01*
X13776973Y-1508014D01*
X13769000Y-1427066D01*
X13769000Y-772933D01*
X13776973Y-691985D01*
X13808480Y-588121D01*
X13808482Y-588118D01*
X13859645Y-492399D01*
X13928500Y-408499D01*
X14012401Y-339643D01*
X14080946Y-303005D01*
X14108122Y-288479D01*
X14211986Y-256973D01*
X14320000Y-246334D01*
X14428015Y-256973D01*
X14428015Y-256973D01*
G37*
G36*
X5788015Y-256973D02*
G01*
X5891879Y-288479D01*
X5919055Y-303005D01*
X5987600Y-339643D01*
X6071501Y-408499D01*
X6140357Y-492400D01*
X6176995Y-560945D01*
X6191521Y-588121D01*
X6223027Y-691985D01*
X6231000Y-772933D01*
X6231000Y-1427067D01*
X6223027Y-1508015D01*
X6191521Y-1611879D01*
X6140356Y-1707600D01*
X6071501Y-1791501D01*
X6002645Y-1848009D01*
X5987599Y-1860357D01*
X5935907Y-1887987D01*
X5891878Y-1911521D01*
X5788014Y-1943027D01*
X5680000Y-1953666D01*
X5571985Y-1943027D01*
X5468121Y-1911521D01*
X5424093Y-1887987D01*
X5372401Y-1860357D01*
X5358563Y-1849000D01*
X5288499Y-1791501D01*
X5219644Y-1707600D01*
X5168479Y-1611878D01*
X5136973Y-1508014D01*
X5129000Y-1427066D01*
X5129000Y-772933D01*
X5136973Y-691985D01*
X5168480Y-588121D01*
X5168482Y-588118D01*
X5219645Y-492399D01*
X5288500Y-408499D01*
X5372401Y-339643D01*
X5440946Y-303005D01*
X5468122Y-288479D01*
X5571986Y-256973D01*
X5680000Y-246334D01*
X5788015Y-256973D01*
X5788015Y-256973D01*
G37*
M02*
