G04 #@! TF.GenerationSoftware,KiCad,Pcbnew,(5.1.2)-1*
G04 #@! TF.CreationDate,2019-07-01T01:58:11-07:00*
G04 #@! TF.ProjectId,daughterboard,64617567-6874-4657-9262-6f6172642e6b,rev?*
G04 #@! TF.SameCoordinates,Original*
G04 #@! TF.FileFunction,Legend,Top*
G04 #@! TF.FilePolarity,Positive*
%FSLAX46Y46*%
G04 Gerber Fmt 4.6, Leading zero omitted, Abs format (unit mm)*
G04 Created by KiCad (PCBNEW (5.1.2)-1) date 2019-07-01 01:58:11*
%MOMM*%
%LPD*%
G04 APERTURE LIST*
%ADD10C,0.010000*%
%ADD11C,0.120000*%
%ADD12C,0.150000*%
G04 APERTURE END LIST*
D10*
G36*
X18037067Y-14137452D02*
G01*
X18129719Y-14138991D01*
X18197937Y-14143516D01*
X18251113Y-14152306D01*
X18298635Y-14166640D01*
X18323656Y-14176469D01*
X18383357Y-14205351D01*
X18442954Y-14240859D01*
X18494843Y-14277612D01*
X18531415Y-14310228D01*
X18545067Y-14333135D01*
X18534376Y-14353175D01*
X18506631Y-14389038D01*
X18475601Y-14424385D01*
X18406135Y-14499747D01*
X18352834Y-14459808D01*
X18257546Y-14397243D01*
X18168170Y-14359700D01*
X18073363Y-14343061D01*
X18026511Y-14341298D01*
X17956758Y-14343004D01*
X17906587Y-14351225D01*
X17861847Y-14369447D01*
X17824457Y-14391087D01*
X17730111Y-14468155D01*
X17659167Y-14564713D01*
X17612573Y-14674901D01*
X17591278Y-14792855D01*
X17596228Y-14912715D01*
X17628372Y-15028618D01*
X17688658Y-15134702D01*
X17701567Y-15151088D01*
X17781850Y-15223132D01*
X17880433Y-15271716D01*
X17989970Y-15295501D01*
X18103118Y-15293151D01*
X18212533Y-15263326D01*
X18242114Y-15249555D01*
X18298461Y-15219700D01*
X18347705Y-15192150D01*
X18371159Y-15177961D01*
X18393527Y-15166270D01*
X18413869Y-15167738D01*
X18440499Y-15186029D01*
X18481732Y-15224811D01*
X18485272Y-15228281D01*
X18561625Y-15303217D01*
X18524689Y-15342533D01*
X18470890Y-15389176D01*
X18398622Y-15438196D01*
X18321482Y-15481068D01*
X18264944Y-15505373D01*
X18182671Y-15525677D01*
X18082898Y-15537803D01*
X17981256Y-15540579D01*
X17894730Y-15533073D01*
X17769443Y-15495869D01*
X17648240Y-15431265D01*
X17538278Y-15345009D01*
X17446715Y-15242849D01*
X17380710Y-15130532D01*
X17374220Y-15115086D01*
X17355685Y-15062705D01*
X17343891Y-15010665D01*
X17337433Y-14948823D01*
X17334905Y-14867042D01*
X17334684Y-14829966D01*
X17335029Y-14746742D01*
X17337786Y-14687211D01*
X17344985Y-14641200D01*
X17358657Y-14598538D01*
X17380832Y-14549051D01*
X17397575Y-14514861D01*
X17472804Y-14391199D01*
X17565802Y-14292831D01*
X17682577Y-14213873D01*
X17729225Y-14190186D01*
X17780558Y-14166847D01*
X17823164Y-14151532D01*
X17866599Y-14142602D01*
X17920419Y-14138420D01*
X17994181Y-14137351D01*
X18037067Y-14137452D01*
X18037067Y-14137452D01*
G37*
X18037067Y-14137452D02*
X18129719Y-14138991D01*
X18197937Y-14143516D01*
X18251113Y-14152306D01*
X18298635Y-14166640D01*
X18323656Y-14176469D01*
X18383357Y-14205351D01*
X18442954Y-14240859D01*
X18494843Y-14277612D01*
X18531415Y-14310228D01*
X18545067Y-14333135D01*
X18534376Y-14353175D01*
X18506631Y-14389038D01*
X18475601Y-14424385D01*
X18406135Y-14499747D01*
X18352834Y-14459808D01*
X18257546Y-14397243D01*
X18168170Y-14359700D01*
X18073363Y-14343061D01*
X18026511Y-14341298D01*
X17956758Y-14343004D01*
X17906587Y-14351225D01*
X17861847Y-14369447D01*
X17824457Y-14391087D01*
X17730111Y-14468155D01*
X17659167Y-14564713D01*
X17612573Y-14674901D01*
X17591278Y-14792855D01*
X17596228Y-14912715D01*
X17628372Y-15028618D01*
X17688658Y-15134702D01*
X17701567Y-15151088D01*
X17781850Y-15223132D01*
X17880433Y-15271716D01*
X17989970Y-15295501D01*
X18103118Y-15293151D01*
X18212533Y-15263326D01*
X18242114Y-15249555D01*
X18298461Y-15219700D01*
X18347705Y-15192150D01*
X18371159Y-15177961D01*
X18393527Y-15166270D01*
X18413869Y-15167738D01*
X18440499Y-15186029D01*
X18481732Y-15224811D01*
X18485272Y-15228281D01*
X18561625Y-15303217D01*
X18524689Y-15342533D01*
X18470890Y-15389176D01*
X18398622Y-15438196D01*
X18321482Y-15481068D01*
X18264944Y-15505373D01*
X18182671Y-15525677D01*
X18082898Y-15537803D01*
X17981256Y-15540579D01*
X17894730Y-15533073D01*
X17769443Y-15495869D01*
X17648240Y-15431265D01*
X17538278Y-15345009D01*
X17446715Y-15242849D01*
X17380710Y-15130532D01*
X17374220Y-15115086D01*
X17355685Y-15062705D01*
X17343891Y-15010665D01*
X17337433Y-14948823D01*
X17334905Y-14867042D01*
X17334684Y-14829966D01*
X17335029Y-14746742D01*
X17337786Y-14687211D01*
X17344985Y-14641200D01*
X17358657Y-14598538D01*
X17380832Y-14549051D01*
X17397575Y-14514861D01*
X17472804Y-14391199D01*
X17565802Y-14292831D01*
X17682577Y-14213873D01*
X17729225Y-14190186D01*
X17780558Y-14166847D01*
X17823164Y-14151532D01*
X17866599Y-14142602D01*
X17920419Y-14138420D01*
X17994181Y-14137351D01*
X18037067Y-14137452D01*
G36*
X20828729Y-14127914D02*
G01*
X20904180Y-14143375D01*
X20985854Y-14168055D01*
X21064553Y-14198303D01*
X21131081Y-14230470D01*
X21176242Y-14260907D01*
X21184071Y-14268939D01*
X21190105Y-14289360D01*
X21178617Y-14321291D01*
X21147140Y-14371238D01*
X21143016Y-14377161D01*
X21083136Y-14462700D01*
X20964840Y-14402006D01*
X20849975Y-14354203D01*
X20744621Y-14332508D01*
X20652407Y-14337235D01*
X20577290Y-14368474D01*
X20521065Y-14422312D01*
X20495856Y-14482771D01*
X20501762Y-14544389D01*
X20538882Y-14601700D01*
X20572571Y-14629361D01*
X20613790Y-14650046D01*
X20676911Y-14673664D01*
X20750697Y-14696177D01*
X20779175Y-14703597D01*
X20930596Y-14747801D01*
X21050412Y-14798712D01*
X21140540Y-14858211D01*
X21202897Y-14928178D01*
X21239398Y-15010494D01*
X21251961Y-15107039D01*
X21249524Y-15165111D01*
X21225659Y-15277612D01*
X21175597Y-15369126D01*
X21098001Y-15441666D01*
X21044756Y-15473363D01*
X20990230Y-15498839D01*
X20940506Y-15514639D01*
X20883369Y-15523410D01*
X20806606Y-15527799D01*
X20791320Y-15528283D01*
X20721095Y-15529591D01*
X20663401Y-15529252D01*
X20626852Y-15527380D01*
X20619400Y-15525991D01*
X20594735Y-15517956D01*
X20548843Y-15504419D01*
X20508541Y-15493025D01*
X20458779Y-15474975D01*
X20398774Y-15447137D01*
X20336085Y-15413862D01*
X20278268Y-15379499D01*
X20232880Y-15348397D01*
X20207477Y-15324907D01*
X20204579Y-15318069D01*
X20214860Y-15299168D01*
X20241448Y-15263611D01*
X20269962Y-15229231D01*
X20335299Y-15153462D01*
X20397199Y-15200675D01*
X20513977Y-15271797D01*
X20637205Y-15310730D01*
X20727883Y-15319664D01*
X20834463Y-15313091D01*
X20913198Y-15288245D01*
X20964963Y-15244799D01*
X20975799Y-15227256D01*
X20999153Y-15154633D01*
X20989761Y-15090519D01*
X20947672Y-15034974D01*
X20872936Y-14988058D01*
X20765601Y-14949830D01*
X20742848Y-14943883D01*
X20598309Y-14903916D01*
X20484144Y-14862694D01*
X20396880Y-14817870D01*
X20333040Y-14767093D01*
X20289151Y-14708016D01*
X20261738Y-14638287D01*
X20256191Y-14614863D01*
X20246739Y-14497987D01*
X20267135Y-14392614D01*
X20314624Y-14301088D01*
X20386448Y-14225752D01*
X20479851Y-14168953D01*
X20592078Y-14133034D01*
X20720370Y-14120338D01*
X20828729Y-14127914D01*
X20828729Y-14127914D01*
G37*
X20828729Y-14127914D02*
X20904180Y-14143375D01*
X20985854Y-14168055D01*
X21064553Y-14198303D01*
X21131081Y-14230470D01*
X21176242Y-14260907D01*
X21184071Y-14268939D01*
X21190105Y-14289360D01*
X21178617Y-14321291D01*
X21147140Y-14371238D01*
X21143016Y-14377161D01*
X21083136Y-14462700D01*
X20964840Y-14402006D01*
X20849975Y-14354203D01*
X20744621Y-14332508D01*
X20652407Y-14337235D01*
X20577290Y-14368474D01*
X20521065Y-14422312D01*
X20495856Y-14482771D01*
X20501762Y-14544389D01*
X20538882Y-14601700D01*
X20572571Y-14629361D01*
X20613790Y-14650046D01*
X20676911Y-14673664D01*
X20750697Y-14696177D01*
X20779175Y-14703597D01*
X20930596Y-14747801D01*
X21050412Y-14798712D01*
X21140540Y-14858211D01*
X21202897Y-14928178D01*
X21239398Y-15010494D01*
X21251961Y-15107039D01*
X21249524Y-15165111D01*
X21225659Y-15277612D01*
X21175597Y-15369126D01*
X21098001Y-15441666D01*
X21044756Y-15473363D01*
X20990230Y-15498839D01*
X20940506Y-15514639D01*
X20883369Y-15523410D01*
X20806606Y-15527799D01*
X20791320Y-15528283D01*
X20721095Y-15529591D01*
X20663401Y-15529252D01*
X20626852Y-15527380D01*
X20619400Y-15525991D01*
X20594735Y-15517956D01*
X20548843Y-15504419D01*
X20508541Y-15493025D01*
X20458779Y-15474975D01*
X20398774Y-15447137D01*
X20336085Y-15413862D01*
X20278268Y-15379499D01*
X20232880Y-15348397D01*
X20207477Y-15324907D01*
X20204579Y-15318069D01*
X20214860Y-15299168D01*
X20241448Y-15263611D01*
X20269962Y-15229231D01*
X20335299Y-15153462D01*
X20397199Y-15200675D01*
X20513977Y-15271797D01*
X20637205Y-15310730D01*
X20727883Y-15319664D01*
X20834463Y-15313091D01*
X20913198Y-15288245D01*
X20964963Y-15244799D01*
X20975799Y-15227256D01*
X20999153Y-15154633D01*
X20989761Y-15090519D01*
X20947672Y-15034974D01*
X20872936Y-14988058D01*
X20765601Y-14949830D01*
X20742848Y-14943883D01*
X20598309Y-14903916D01*
X20484144Y-14862694D01*
X20396880Y-14817870D01*
X20333040Y-14767093D01*
X20289151Y-14708016D01*
X20261738Y-14638287D01*
X20256191Y-14614863D01*
X20246739Y-14497987D01*
X20267135Y-14392614D01*
X20314624Y-14301088D01*
X20386448Y-14225752D01*
X20479851Y-14168953D01*
X20592078Y-14133034D01*
X20720370Y-14120338D01*
X20828729Y-14127914D01*
G36*
X15734134Y-15499734D02*
G01*
X15497067Y-15499734D01*
X15496894Y-15012900D01*
X15496721Y-14526067D01*
X15289461Y-14843476D01*
X15229101Y-14935102D01*
X15174547Y-15016372D01*
X15128595Y-15083249D01*
X15094037Y-15131695D01*
X15073669Y-15157672D01*
X15069728Y-15160976D01*
X15057066Y-15147563D01*
X15028566Y-15109959D01*
X14987106Y-15052201D01*
X14935560Y-14978326D01*
X14876806Y-14892369D01*
X14849595Y-14852034D01*
X14641934Y-14543000D01*
X14637436Y-15021367D01*
X14632939Y-15499734D01*
X14396400Y-15499734D01*
X14396400Y-14145067D01*
X14661313Y-14145067D01*
X14861519Y-14459257D01*
X14924189Y-14555936D01*
X14979135Y-14637429D01*
X15024051Y-14700530D01*
X15056633Y-14742030D01*
X15074572Y-14758723D01*
X15076686Y-14758488D01*
X15090039Y-14740292D01*
X15118724Y-14698083D01*
X15159769Y-14636340D01*
X15210203Y-14559543D01*
X15267052Y-14472171D01*
X15282352Y-14448530D01*
X15473058Y-14153533D01*
X15603596Y-14148588D01*
X15734134Y-14143642D01*
X15734134Y-15499734D01*
X15734134Y-15499734D01*
G37*
X15734134Y-15499734D02*
X15497067Y-15499734D01*
X15496894Y-15012900D01*
X15496721Y-14526067D01*
X15289461Y-14843476D01*
X15229101Y-14935102D01*
X15174547Y-15016372D01*
X15128595Y-15083249D01*
X15094037Y-15131695D01*
X15073669Y-15157672D01*
X15069728Y-15160976D01*
X15057066Y-15147563D01*
X15028566Y-15109959D01*
X14987106Y-15052201D01*
X14935560Y-14978326D01*
X14876806Y-14892369D01*
X14849595Y-14852034D01*
X14641934Y-14543000D01*
X14637436Y-15021367D01*
X14632939Y-15499734D01*
X14396400Y-15499734D01*
X14396400Y-14145067D01*
X14661313Y-14145067D01*
X14861519Y-14459257D01*
X14924189Y-14555936D01*
X14979135Y-14637429D01*
X15024051Y-14700530D01*
X15056633Y-14742030D01*
X15074572Y-14758723D01*
X15076686Y-14758488D01*
X15090039Y-14740292D01*
X15118724Y-14698083D01*
X15159769Y-14636340D01*
X15210203Y-14559543D01*
X15267052Y-14472171D01*
X15282352Y-14448530D01*
X15473058Y-14153533D01*
X15603596Y-14148588D01*
X15734134Y-14143642D01*
X15734134Y-15499734D01*
G36*
X17004134Y-14924000D02*
G01*
X16326800Y-14924000D01*
X16326800Y-15279600D01*
X17105734Y-15279600D01*
X17105734Y-15499734D01*
X16089733Y-15499734D01*
X16089733Y-14703867D01*
X17004134Y-14703867D01*
X17004134Y-14924000D01*
X17004134Y-14924000D01*
G37*
X17004134Y-14924000D02*
X16326800Y-14924000D01*
X16326800Y-15279600D01*
X17105734Y-15279600D01*
X17105734Y-15499734D01*
X16089733Y-15499734D01*
X16089733Y-14703867D01*
X17004134Y-14703867D01*
X17004134Y-14924000D01*
G36*
X19053067Y-15499734D02*
G01*
X18816000Y-15499734D01*
X18816000Y-14145067D01*
X19053067Y-14145067D01*
X19053067Y-15499734D01*
X19053067Y-15499734D01*
G37*
X19053067Y-15499734D02*
X18816000Y-15499734D01*
X18816000Y-14145067D01*
X19053067Y-14145067D01*
X19053067Y-15499734D01*
G36*
X19950534Y-15499734D02*
G01*
X19713467Y-15499734D01*
X19713467Y-14924000D01*
X19391734Y-14924000D01*
X19391734Y-14703867D01*
X19713467Y-14703867D01*
X19713467Y-14145067D01*
X19950534Y-14145067D01*
X19950534Y-15499734D01*
X19950534Y-15499734D01*
G37*
X19950534Y-15499734D02*
X19713467Y-15499734D01*
X19713467Y-14924000D01*
X19391734Y-14924000D01*
X19391734Y-14703867D01*
X19713467Y-14703867D01*
X19713467Y-14145067D01*
X19950534Y-14145067D01*
X19950534Y-15499734D01*
G36*
X17105734Y-14365200D02*
G01*
X16089733Y-14365200D01*
X16089733Y-14145067D01*
X17105734Y-14145067D01*
X17105734Y-14365200D01*
X17105734Y-14365200D01*
G37*
X17105734Y-14365200D02*
X16089733Y-14365200D01*
X16089733Y-14145067D01*
X17105734Y-14145067D01*
X17105734Y-14365200D01*
G36*
X21339067Y-13400000D02*
G01*
X14260934Y-13400000D01*
X14260934Y-12671867D01*
X15124533Y-12671867D01*
X15361600Y-12671867D01*
X15361600Y-11698340D01*
X15573402Y-12015770D01*
X15634871Y-12107067D01*
X15690444Y-12188033D01*
X15737297Y-12254681D01*
X15772605Y-12303026D01*
X15793547Y-12329082D01*
X15797768Y-12332506D01*
X15810446Y-12318862D01*
X15839016Y-12281024D01*
X15880624Y-12223002D01*
X15932418Y-12148806D01*
X15991543Y-12062446D01*
X16022000Y-12017388D01*
X16233667Y-11702966D01*
X16238160Y-12187416D01*
X16242653Y-12671867D01*
X16479200Y-12671867D01*
X16479200Y-11876000D01*
X16817867Y-11876000D01*
X16817867Y-12671867D01*
X17816933Y-12671867D01*
X17816933Y-12451733D01*
X17054934Y-12451733D01*
X17054934Y-12096134D01*
X17732267Y-12096134D01*
X17732267Y-11876000D01*
X16817867Y-11876000D01*
X16479200Y-11876000D01*
X16479200Y-11317200D01*
X16817867Y-11317200D01*
X16817867Y-11537333D01*
X17833867Y-11537333D01*
X17833867Y-11317200D01*
X18020133Y-11317200D01*
X18020133Y-11537333D01*
X18443467Y-11537333D01*
X18443467Y-12671867D01*
X18697467Y-12671867D01*
X19256694Y-12671867D01*
X19504357Y-12671867D01*
X19731678Y-12130739D01*
X19793169Y-11984914D01*
X19843162Y-11867825D01*
X19882931Y-11776838D01*
X19913748Y-11709322D01*
X19936886Y-11662646D01*
X19953619Y-11634177D01*
X19965218Y-11621285D01*
X19972958Y-11621336D01*
X19975934Y-11625718D01*
X19986511Y-11649766D01*
X20008536Y-11700966D01*
X20040283Y-11775267D01*
X20080027Y-11868622D01*
X20126045Y-11976982D01*
X20176609Y-12096297D01*
X20204671Y-12162612D01*
X20416476Y-12663400D01*
X20539105Y-12668375D01*
X20598591Y-12668954D01*
X20642171Y-12665881D01*
X20661450Y-12659809D01*
X20661734Y-12658832D01*
X20655145Y-12640726D01*
X20636309Y-12594877D01*
X20606621Y-12524537D01*
X20567475Y-12432959D01*
X20520265Y-12323398D01*
X20466386Y-12199106D01*
X20407233Y-12063337D01*
X20369266Y-11976523D01*
X20076798Y-11308734D01*
X19857400Y-11298978D01*
X19600107Y-11888056D01*
X19540372Y-12024790D01*
X19483227Y-12155533D01*
X19430491Y-12276128D01*
X19383984Y-12382419D01*
X19345524Y-12470249D01*
X19316930Y-12535461D01*
X19300020Y-12573900D01*
X19299754Y-12574500D01*
X19256694Y-12671867D01*
X18697467Y-12671867D01*
X18697467Y-11537333D01*
X19120800Y-11537333D01*
X19120800Y-11317200D01*
X18020133Y-11317200D01*
X17833867Y-11317200D01*
X16817867Y-11317200D01*
X16479200Y-11317200D01*
X16347967Y-11317411D01*
X16216733Y-11317622D01*
X16014751Y-11631049D01*
X15941185Y-11743658D01*
X15883573Y-11828281D01*
X15840920Y-11886252D01*
X15812235Y-11918908D01*
X15796524Y-11927582D01*
X15794892Y-11926599D01*
X15780591Y-11907468D01*
X15751023Y-11864418D01*
X15709239Y-11802016D01*
X15658290Y-11724827D01*
X15601229Y-11637418D01*
X15588109Y-11617194D01*
X15399203Y-11325667D01*
X15124533Y-11315831D01*
X15124533Y-12671867D01*
X14260934Y-12671867D01*
X14260934Y-10572134D01*
X21339067Y-10572134D01*
X21339067Y-13400000D01*
X21339067Y-13400000D01*
G37*
X21339067Y-13400000D02*
X14260934Y-13400000D01*
X14260934Y-12671867D01*
X15124533Y-12671867D01*
X15361600Y-12671867D01*
X15361600Y-11698340D01*
X15573402Y-12015770D01*
X15634871Y-12107067D01*
X15690444Y-12188033D01*
X15737297Y-12254681D01*
X15772605Y-12303026D01*
X15793547Y-12329082D01*
X15797768Y-12332506D01*
X15810446Y-12318862D01*
X15839016Y-12281024D01*
X15880624Y-12223002D01*
X15932418Y-12148806D01*
X15991543Y-12062446D01*
X16022000Y-12017388D01*
X16233667Y-11702966D01*
X16238160Y-12187416D01*
X16242653Y-12671867D01*
X16479200Y-12671867D01*
X16479200Y-11876000D01*
X16817867Y-11876000D01*
X16817867Y-12671867D01*
X17816933Y-12671867D01*
X17816933Y-12451733D01*
X17054934Y-12451733D01*
X17054934Y-12096134D01*
X17732267Y-12096134D01*
X17732267Y-11876000D01*
X16817867Y-11876000D01*
X16479200Y-11876000D01*
X16479200Y-11317200D01*
X16817867Y-11317200D01*
X16817867Y-11537333D01*
X17833867Y-11537333D01*
X17833867Y-11317200D01*
X18020133Y-11317200D01*
X18020133Y-11537333D01*
X18443467Y-11537333D01*
X18443467Y-12671867D01*
X18697467Y-12671867D01*
X19256694Y-12671867D01*
X19504357Y-12671867D01*
X19731678Y-12130739D01*
X19793169Y-11984914D01*
X19843162Y-11867825D01*
X19882931Y-11776838D01*
X19913748Y-11709322D01*
X19936886Y-11662646D01*
X19953619Y-11634177D01*
X19965218Y-11621285D01*
X19972958Y-11621336D01*
X19975934Y-11625718D01*
X19986511Y-11649766D01*
X20008536Y-11700966D01*
X20040283Y-11775267D01*
X20080027Y-11868622D01*
X20126045Y-11976982D01*
X20176609Y-12096297D01*
X20204671Y-12162612D01*
X20416476Y-12663400D01*
X20539105Y-12668375D01*
X20598591Y-12668954D01*
X20642171Y-12665881D01*
X20661450Y-12659809D01*
X20661734Y-12658832D01*
X20655145Y-12640726D01*
X20636309Y-12594877D01*
X20606621Y-12524537D01*
X20567475Y-12432959D01*
X20520265Y-12323398D01*
X20466386Y-12199106D01*
X20407233Y-12063337D01*
X20369266Y-11976523D01*
X20076798Y-11308734D01*
X19857400Y-11298978D01*
X19600107Y-11888056D01*
X19540372Y-12024790D01*
X19483227Y-12155533D01*
X19430491Y-12276128D01*
X19383984Y-12382419D01*
X19345524Y-12470249D01*
X19316930Y-12535461D01*
X19300020Y-12573900D01*
X19299754Y-12574500D01*
X19256694Y-12671867D01*
X18697467Y-12671867D01*
X18697467Y-11537333D01*
X19120800Y-11537333D01*
X19120800Y-11317200D01*
X18020133Y-11317200D01*
X17833867Y-11317200D01*
X16817867Y-11317200D01*
X16479200Y-11317200D01*
X16347967Y-11317411D01*
X16216733Y-11317622D01*
X16014751Y-11631049D01*
X15941185Y-11743658D01*
X15883573Y-11828281D01*
X15840920Y-11886252D01*
X15812235Y-11918908D01*
X15796524Y-11927582D01*
X15794892Y-11926599D01*
X15780591Y-11907468D01*
X15751023Y-11864418D01*
X15709239Y-11802016D01*
X15658290Y-11724827D01*
X15601229Y-11637418D01*
X15588109Y-11617194D01*
X15399203Y-11325667D01*
X15124533Y-11315831D01*
X15124533Y-12671867D01*
X14260934Y-12671867D01*
X14260934Y-10572134D01*
X21339067Y-10572134D01*
X21339067Y-13400000D01*
D11*
X2662779Y-8910000D02*
X2337221Y-8910000D01*
X2662779Y-7890000D02*
X2337221Y-7890000D01*
X12800000Y-10700000D02*
X12800000Y-8300000D01*
X9700000Y-8300000D02*
X9700000Y-11250000D01*
X6258578Y-9110000D02*
X5741422Y-9110000D01*
X6258578Y-7690000D02*
X5741422Y-7690000D01*
X17150279Y-8010000D02*
X16824721Y-8010000D01*
X17150279Y-6990000D02*
X16824721Y-6990000D01*
X4237221Y-6190000D02*
X4562779Y-6190000D01*
X4237221Y-7210000D02*
X4562779Y-7210000D01*
X3040000Y-18660000D02*
X5160000Y-18660000D01*
X3040000Y-12600000D02*
X3040000Y-18660000D01*
X5160000Y-12600000D02*
X5160000Y-18660000D01*
X3040000Y-12600000D02*
X5160000Y-12600000D01*
X3040000Y-11600000D02*
X3040000Y-10540000D01*
X3040000Y-10540000D02*
X4100000Y-10540000D01*
D12*
X9261904Y-652380D02*
X9261904Y-1461904D01*
X9309523Y-1557142D01*
X9357142Y-1604761D01*
X9452380Y-1652380D01*
X9642857Y-1652380D01*
X9738095Y-1604761D01*
X9785714Y-1557142D01*
X9833333Y-1461904D01*
X9833333Y-652380D01*
X10261904Y-1604761D02*
X10404761Y-1652380D01*
X10642857Y-1652380D01*
X10738095Y-1604761D01*
X10785714Y-1557142D01*
X10833333Y-1461904D01*
X10833333Y-1366666D01*
X10785714Y-1271428D01*
X10738095Y-1223809D01*
X10642857Y-1176190D01*
X10452380Y-1128571D01*
X10357142Y-1080952D01*
X10309523Y-1033333D01*
X10261904Y-938095D01*
X10261904Y-842857D01*
X10309523Y-747619D01*
X10357142Y-700000D01*
X10452380Y-652380D01*
X10690476Y-652380D01*
X10833333Y-700000D01*
X11595238Y-1128571D02*
X11738095Y-1176190D01*
X11785714Y-1223809D01*
X11833333Y-1319047D01*
X11833333Y-1461904D01*
X11785714Y-1557142D01*
X11738095Y-1604761D01*
X11642857Y-1652380D01*
X11261904Y-1652380D01*
X11261904Y-652380D01*
X11595238Y-652380D01*
X11690476Y-700000D01*
X11738095Y-747619D01*
X11785714Y-842857D01*
X11785714Y-938095D01*
X11738095Y-1033333D01*
X11690476Y-1080952D01*
X11595238Y-1128571D01*
X11261904Y-1128571D01*
X12785714Y-1652380D02*
X12214285Y-1652380D01*
X12500000Y-1652380D02*
X12500000Y-652380D01*
X12404761Y-795238D01*
X12309523Y-890476D01*
X12214285Y-938095D01*
X1333333Y-10257142D02*
X1285714Y-10304761D01*
X1142857Y-10352380D01*
X1047619Y-10352380D01*
X904761Y-10304761D01*
X809523Y-10209523D01*
X761904Y-10114285D01*
X714285Y-9923809D01*
X714285Y-9780952D01*
X761904Y-9590476D01*
X809523Y-9495238D01*
X904761Y-9400000D01*
X1047619Y-9352380D01*
X1142857Y-9352380D01*
X1285714Y-9400000D01*
X1333333Y-9447619D01*
X2285714Y-10352380D02*
X1714285Y-10352380D01*
X2000000Y-10352380D02*
X2000000Y-9352380D01*
X1904761Y-9495238D01*
X1809523Y-9590476D01*
X1714285Y-9638095D01*
X14452380Y-9438095D02*
X13452380Y-9438095D01*
X13452380Y-9200000D01*
X13500000Y-9057142D01*
X13595238Y-8961904D01*
X13690476Y-8914285D01*
X13880952Y-8866666D01*
X14023809Y-8866666D01*
X14214285Y-8914285D01*
X14309523Y-8961904D01*
X14404761Y-9057142D01*
X14452380Y-9200000D01*
X14452380Y-9438095D01*
X14452380Y-7914285D02*
X14452380Y-8485714D01*
X14452380Y-8200000D02*
X13452380Y-8200000D01*
X13595238Y-8295238D01*
X13690476Y-8390476D01*
X13738095Y-8485714D01*
X5666666Y-9928571D02*
X5333333Y-9928571D01*
X5333333Y-10452380D02*
X5333333Y-9452380D01*
X5809523Y-9452380D01*
X6714285Y-10452380D02*
X6142857Y-10452380D01*
X6428571Y-10452380D02*
X6428571Y-9452380D01*
X6333333Y-9595238D01*
X6238095Y-9690476D01*
X6142857Y-9738095D01*
X19333333Y-7902380D02*
X19000000Y-7426190D01*
X18761904Y-7902380D02*
X18761904Y-6902380D01*
X19142857Y-6902380D01*
X19238095Y-6950000D01*
X19285714Y-6997619D01*
X19333333Y-7092857D01*
X19333333Y-7235714D01*
X19285714Y-7330952D01*
X19238095Y-7378571D01*
X19142857Y-7426190D01*
X18761904Y-7426190D01*
X20285714Y-7902380D02*
X19714285Y-7902380D01*
X20000000Y-7902380D02*
X20000000Y-6902380D01*
X19904761Y-7045238D01*
X19809523Y-7140476D01*
X19714285Y-7188095D01*
X1733333Y-7152380D02*
X1400000Y-6676190D01*
X1161904Y-7152380D02*
X1161904Y-6152380D01*
X1542857Y-6152380D01*
X1638095Y-6200000D01*
X1685714Y-6247619D01*
X1733333Y-6342857D01*
X1733333Y-6485714D01*
X1685714Y-6580952D01*
X1638095Y-6628571D01*
X1542857Y-6676190D01*
X1161904Y-6676190D01*
X2114285Y-6247619D02*
X2161904Y-6200000D01*
X2257142Y-6152380D01*
X2495238Y-6152380D01*
X2590476Y-6200000D01*
X2638095Y-6247619D01*
X2685714Y-6342857D01*
X2685714Y-6438095D01*
X2638095Y-6580952D01*
X2066666Y-7152380D01*
X2685714Y-7152380D01*
X1166666Y-13952380D02*
X1166666Y-14666666D01*
X1119047Y-14809523D01*
X1023809Y-14904761D01*
X880952Y-14952380D01*
X785714Y-14952380D01*
X2166666Y-14952380D02*
X1595238Y-14952380D01*
X1880952Y-14952380D02*
X1880952Y-13952380D01*
X1785714Y-14095238D01*
X1690476Y-14190476D01*
X1595238Y-14238095D01*
M02*
