M48
; DRILL file {KiCad (5.1.4)-1} date 12/12/2019 4:53:31 AM
; FORMAT={-:-/ absolute / inch / decimal}
; #@! TF.CreationDate,2019-12-12T04:53:31-08:00
; #@! TF.GenerationSoftware,Kicad,Pcbnew,(5.1.4)-1
; #@! TF.FileFunction,Plated,1,2,PTH
FMAT,2
INCH
T1C0.0157
T2C0.0197
T3C0.0236
T4C0.0315
T5C0.1063
%
G90
G05
T1
X0.0472Y-0.4173
X0.0512Y-0.5197
X0.0512Y-0.6299
X0.2362Y-0.3937
X0.3366Y-0.2953
X0.3504Y-0.4173
X0.3661Y-0.378
X0.5295Y-0.2953
X0.5472Y-0.378
X0.7559Y-0.4331
T2
X0.3533Y-0.6299
X0.3767Y-0.5735
X0.3767Y-0.6863
X0.4331Y-0.5502
X0.4331Y-0.7096
X0.4894Y-0.5735
X0.4894Y-0.6863
X0.5128Y-0.6299
X0.0384Y-0.1181
X0.0617Y-0.0617
X0.0617Y-0.1745
X0.1181Y-0.0384
X0.1181Y-0.1978
X0.1745Y-0.0617
X0.1745Y-0.1745
X0.1978Y-0.1181
X0.6683Y-0.1181
X0.6917Y-0.0617
X0.6917Y-0.1745
X0.748Y-0.0384
X0.748Y-0.1978
X0.8044Y-0.0617
X0.8044Y-0.1745
X0.8278Y-0.1181
T4
X0.1614Y-0.4567
X0.1614Y-0.5354
X0.1614Y-0.6142
X0.1614Y-0.6929
T5
X0.4331Y-0.6299
X0.1181Y-0.1181
X0.748Y-0.1181
T3
G00X0.263Y-0.0551
M15
G01X0.263Y-0.0315
M16
G05
G00X0.263Y-0.2295
M15
G01X0.263Y-0.1862
M16
G05
G00X0.6031Y-0.0551
M15
G01X0.6031Y-0.0315
M16
G05
G00X0.6031Y-0.2295
M15
G01X0.6031Y-0.1862
M16
G05
T0
M30
