G04 #@! TF.GenerationSoftware,KiCad,Pcbnew,(5.1.2)-1*
G04 #@! TF.CreationDate,2019-05-29T05:34:05-07:00*
G04 #@! TF.ProjectId,daughterboard,64617567-6874-4657-9262-6f6172642e6b,rev?*
G04 #@! TF.SameCoordinates,Original*
G04 #@! TF.FileFunction,Copper,L1,Top*
G04 #@! TF.FilePolarity,Positive*
%FSLAX46Y46*%
G04 Gerber Fmt 4.6, Leading zero omitted, Abs format (unit mm)*
G04 Created by KiCad (PCBNEW (5.1.2)-1) date 2019-05-29 05:34:05*
%MOMM*%
%LPD*%
G04 APERTURE LIST*
%ADD10C,0.800000*%
%ADD11C,5.400000*%
%ADD12C,0.100000*%
%ADD13C,0.600000*%
%ADD14C,1.200000*%
%ADD15O,1.000000X1.600000*%
%ADD16O,1.000000X2.100000*%
%ADD17R,0.300000X1.450000*%
%ADD18R,0.600000X1.450000*%
%ADD19C,0.875000*%
%ADD20R,1.200000X1.400000*%
%ADD21R,1.000000X1.400000*%
%ADD22C,0.975000*%
%ADD23C,0.381000*%
%ADD24C,0.254000*%
%ADD25C,0.250000*%
G04 APERTURE END LIST*
D10*
X4431891Y-1568109D03*
X3000000Y-975000D03*
X1568109Y-1568109D03*
X975000Y-3000000D03*
X1568109Y-4431891D03*
X3000000Y-5025000D03*
X4431891Y-4431891D03*
X5025000Y-3000000D03*
D11*
X3000000Y-3000000D03*
D10*
X12431891Y-14568109D03*
X11000000Y-13975000D03*
X9568109Y-14568109D03*
X8975000Y-16000000D03*
X9568109Y-17431891D03*
X11000000Y-18025000D03*
X12431891Y-17431891D03*
X13025000Y-16000000D03*
D11*
X11000000Y-16000000D03*
D10*
X20431891Y-1568109D03*
X19000000Y-975000D03*
X17568109Y-1568109D03*
X16975000Y-3000000D03*
X17568109Y-4431891D03*
X19000000Y-5025000D03*
X20431891Y-4431891D03*
X21025000Y-3000000D03*
D11*
X19000000Y-3000000D03*
D12*
G36*
X7139703Y-12700722D02*
G01*
X7154264Y-12702882D01*
X7168543Y-12706459D01*
X7182403Y-12711418D01*
X7195710Y-12717712D01*
X7208336Y-12725280D01*
X7220159Y-12734048D01*
X7231066Y-12743934D01*
X7240952Y-12754841D01*
X7249720Y-12766664D01*
X7257288Y-12779290D01*
X7263582Y-12792597D01*
X7268541Y-12806457D01*
X7272118Y-12820736D01*
X7274278Y-12835297D01*
X7275000Y-12850000D01*
X7275000Y-13150000D01*
X7274278Y-13164703D01*
X7272118Y-13179264D01*
X7268541Y-13193543D01*
X7263582Y-13207403D01*
X7257288Y-13220710D01*
X7249720Y-13233336D01*
X7240952Y-13245159D01*
X7231066Y-13256066D01*
X7220159Y-13265952D01*
X7208336Y-13274720D01*
X7195710Y-13282288D01*
X7182403Y-13288582D01*
X7168543Y-13293541D01*
X7154264Y-13297118D01*
X7139703Y-13299278D01*
X7125000Y-13300000D01*
X5875000Y-13300000D01*
X5860297Y-13299278D01*
X5845736Y-13297118D01*
X5831457Y-13293541D01*
X5817597Y-13288582D01*
X5804290Y-13282288D01*
X5791664Y-13274720D01*
X5779841Y-13265952D01*
X5768934Y-13256066D01*
X5759048Y-13245159D01*
X5750280Y-13233336D01*
X5742712Y-13220710D01*
X5736418Y-13207403D01*
X5731459Y-13193543D01*
X5727882Y-13179264D01*
X5725722Y-13164703D01*
X5725000Y-13150000D01*
X5725000Y-12850000D01*
X5725722Y-12835297D01*
X5727882Y-12820736D01*
X5731459Y-12806457D01*
X5736418Y-12792597D01*
X5742712Y-12779290D01*
X5750280Y-12766664D01*
X5759048Y-12754841D01*
X5768934Y-12743934D01*
X5779841Y-12734048D01*
X5791664Y-12725280D01*
X5804290Y-12717712D01*
X5817597Y-12711418D01*
X5831457Y-12706459D01*
X5845736Y-12702882D01*
X5860297Y-12700722D01*
X5875000Y-12700000D01*
X7125000Y-12700000D01*
X7139703Y-12700722D01*
X7139703Y-12700722D01*
G37*
D13*
X6500000Y-13000000D03*
D12*
G36*
X7139703Y-13700722D02*
G01*
X7154264Y-13702882D01*
X7168543Y-13706459D01*
X7182403Y-13711418D01*
X7195710Y-13717712D01*
X7208336Y-13725280D01*
X7220159Y-13734048D01*
X7231066Y-13743934D01*
X7240952Y-13754841D01*
X7249720Y-13766664D01*
X7257288Y-13779290D01*
X7263582Y-13792597D01*
X7268541Y-13806457D01*
X7272118Y-13820736D01*
X7274278Y-13835297D01*
X7275000Y-13850000D01*
X7275000Y-14150000D01*
X7274278Y-14164703D01*
X7272118Y-14179264D01*
X7268541Y-14193543D01*
X7263582Y-14207403D01*
X7257288Y-14220710D01*
X7249720Y-14233336D01*
X7240952Y-14245159D01*
X7231066Y-14256066D01*
X7220159Y-14265952D01*
X7208336Y-14274720D01*
X7195710Y-14282288D01*
X7182403Y-14288582D01*
X7168543Y-14293541D01*
X7154264Y-14297118D01*
X7139703Y-14299278D01*
X7125000Y-14300000D01*
X5875000Y-14300000D01*
X5860297Y-14299278D01*
X5845736Y-14297118D01*
X5831457Y-14293541D01*
X5817597Y-14288582D01*
X5804290Y-14282288D01*
X5791664Y-14274720D01*
X5779841Y-14265952D01*
X5768934Y-14256066D01*
X5759048Y-14245159D01*
X5750280Y-14233336D01*
X5742712Y-14220710D01*
X5736418Y-14207403D01*
X5731459Y-14193543D01*
X5727882Y-14179264D01*
X5725722Y-14164703D01*
X5725000Y-14150000D01*
X5725000Y-13850000D01*
X5725722Y-13835297D01*
X5727882Y-13820736D01*
X5731459Y-13806457D01*
X5736418Y-13792597D01*
X5742712Y-13779290D01*
X5750280Y-13766664D01*
X5759048Y-13754841D01*
X5768934Y-13743934D01*
X5779841Y-13734048D01*
X5791664Y-13725280D01*
X5804290Y-13717712D01*
X5817597Y-13711418D01*
X5831457Y-13706459D01*
X5845736Y-13702882D01*
X5860297Y-13700722D01*
X5875000Y-13700000D01*
X7125000Y-13700000D01*
X7139703Y-13700722D01*
X7139703Y-13700722D01*
G37*
D13*
X6500000Y-14000000D03*
D12*
G36*
X7139703Y-14700722D02*
G01*
X7154264Y-14702882D01*
X7168543Y-14706459D01*
X7182403Y-14711418D01*
X7195710Y-14717712D01*
X7208336Y-14725280D01*
X7220159Y-14734048D01*
X7231066Y-14743934D01*
X7240952Y-14754841D01*
X7249720Y-14766664D01*
X7257288Y-14779290D01*
X7263582Y-14792597D01*
X7268541Y-14806457D01*
X7272118Y-14820736D01*
X7274278Y-14835297D01*
X7275000Y-14850000D01*
X7275000Y-15150000D01*
X7274278Y-15164703D01*
X7272118Y-15179264D01*
X7268541Y-15193543D01*
X7263582Y-15207403D01*
X7257288Y-15220710D01*
X7249720Y-15233336D01*
X7240952Y-15245159D01*
X7231066Y-15256066D01*
X7220159Y-15265952D01*
X7208336Y-15274720D01*
X7195710Y-15282288D01*
X7182403Y-15288582D01*
X7168543Y-15293541D01*
X7154264Y-15297118D01*
X7139703Y-15299278D01*
X7125000Y-15300000D01*
X5875000Y-15300000D01*
X5860297Y-15299278D01*
X5845736Y-15297118D01*
X5831457Y-15293541D01*
X5817597Y-15288582D01*
X5804290Y-15282288D01*
X5791664Y-15274720D01*
X5779841Y-15265952D01*
X5768934Y-15256066D01*
X5759048Y-15245159D01*
X5750280Y-15233336D01*
X5742712Y-15220710D01*
X5736418Y-15207403D01*
X5731459Y-15193543D01*
X5727882Y-15179264D01*
X5725722Y-15164703D01*
X5725000Y-15150000D01*
X5725000Y-14850000D01*
X5725722Y-14835297D01*
X5727882Y-14820736D01*
X5731459Y-14806457D01*
X5736418Y-14792597D01*
X5742712Y-14779290D01*
X5750280Y-14766664D01*
X5759048Y-14754841D01*
X5768934Y-14743934D01*
X5779841Y-14734048D01*
X5791664Y-14725280D01*
X5804290Y-14717712D01*
X5817597Y-14711418D01*
X5831457Y-14706459D01*
X5845736Y-14702882D01*
X5860297Y-14700722D01*
X5875000Y-14700000D01*
X7125000Y-14700000D01*
X7139703Y-14700722D01*
X7139703Y-14700722D01*
G37*
D13*
X6500000Y-15000000D03*
D12*
G36*
X7139703Y-15700722D02*
G01*
X7154264Y-15702882D01*
X7168543Y-15706459D01*
X7182403Y-15711418D01*
X7195710Y-15717712D01*
X7208336Y-15725280D01*
X7220159Y-15734048D01*
X7231066Y-15743934D01*
X7240952Y-15754841D01*
X7249720Y-15766664D01*
X7257288Y-15779290D01*
X7263582Y-15792597D01*
X7268541Y-15806457D01*
X7272118Y-15820736D01*
X7274278Y-15835297D01*
X7275000Y-15850000D01*
X7275000Y-16150000D01*
X7274278Y-16164703D01*
X7272118Y-16179264D01*
X7268541Y-16193543D01*
X7263582Y-16207403D01*
X7257288Y-16220710D01*
X7249720Y-16233336D01*
X7240952Y-16245159D01*
X7231066Y-16256066D01*
X7220159Y-16265952D01*
X7208336Y-16274720D01*
X7195710Y-16282288D01*
X7182403Y-16288582D01*
X7168543Y-16293541D01*
X7154264Y-16297118D01*
X7139703Y-16299278D01*
X7125000Y-16300000D01*
X5875000Y-16300000D01*
X5860297Y-16299278D01*
X5845736Y-16297118D01*
X5831457Y-16293541D01*
X5817597Y-16288582D01*
X5804290Y-16282288D01*
X5791664Y-16274720D01*
X5779841Y-16265952D01*
X5768934Y-16256066D01*
X5759048Y-16245159D01*
X5750280Y-16233336D01*
X5742712Y-16220710D01*
X5736418Y-16207403D01*
X5731459Y-16193543D01*
X5727882Y-16179264D01*
X5725722Y-16164703D01*
X5725000Y-16150000D01*
X5725000Y-15850000D01*
X5725722Y-15835297D01*
X5727882Y-15820736D01*
X5731459Y-15806457D01*
X5736418Y-15792597D01*
X5742712Y-15779290D01*
X5750280Y-15766664D01*
X5759048Y-15754841D01*
X5768934Y-15743934D01*
X5779841Y-15734048D01*
X5791664Y-15725280D01*
X5804290Y-15717712D01*
X5817597Y-15711418D01*
X5831457Y-15706459D01*
X5845736Y-15702882D01*
X5860297Y-15700722D01*
X5875000Y-15700000D01*
X7125000Y-15700000D01*
X7139703Y-15700722D01*
X7139703Y-15700722D01*
G37*
D13*
X6500000Y-16000000D03*
D12*
G36*
X3299505Y-11101204D02*
G01*
X3323773Y-11104804D01*
X3347572Y-11110765D01*
X3370671Y-11119030D01*
X3392850Y-11129520D01*
X3413893Y-11142132D01*
X3433599Y-11156747D01*
X3451777Y-11173223D01*
X3468253Y-11191401D01*
X3482868Y-11211107D01*
X3495480Y-11232150D01*
X3505970Y-11254329D01*
X3514235Y-11277428D01*
X3520196Y-11301227D01*
X3523796Y-11325495D01*
X3525000Y-11349999D01*
X3525000Y-12050001D01*
X3523796Y-12074505D01*
X3520196Y-12098773D01*
X3514235Y-12122572D01*
X3505970Y-12145671D01*
X3495480Y-12167850D01*
X3482868Y-12188893D01*
X3468253Y-12208599D01*
X3451777Y-12226777D01*
X3433599Y-12243253D01*
X3413893Y-12257868D01*
X3392850Y-12270480D01*
X3370671Y-12280970D01*
X3347572Y-12289235D01*
X3323773Y-12295196D01*
X3299505Y-12298796D01*
X3275001Y-12300000D01*
X1974999Y-12300000D01*
X1950495Y-12298796D01*
X1926227Y-12295196D01*
X1902428Y-12289235D01*
X1879329Y-12280970D01*
X1857150Y-12270480D01*
X1836107Y-12257868D01*
X1816401Y-12243253D01*
X1798223Y-12226777D01*
X1781747Y-12208599D01*
X1767132Y-12188893D01*
X1754520Y-12167850D01*
X1744030Y-12145671D01*
X1735765Y-12122572D01*
X1729804Y-12098773D01*
X1726204Y-12074505D01*
X1725000Y-12050001D01*
X1725000Y-11349999D01*
X1726204Y-11325495D01*
X1729804Y-11301227D01*
X1735765Y-11277428D01*
X1744030Y-11254329D01*
X1754520Y-11232150D01*
X1767132Y-11211107D01*
X1781747Y-11191401D01*
X1798223Y-11173223D01*
X1816401Y-11156747D01*
X1836107Y-11142132D01*
X1857150Y-11129520D01*
X1879329Y-11119030D01*
X1902428Y-11110765D01*
X1926227Y-11104804D01*
X1950495Y-11101204D01*
X1974999Y-11100000D01*
X3275001Y-11100000D01*
X3299505Y-11101204D01*
X3299505Y-11101204D01*
G37*
D14*
X2625000Y-11700000D03*
D12*
G36*
X3299505Y-16701204D02*
G01*
X3323773Y-16704804D01*
X3347572Y-16710765D01*
X3370671Y-16719030D01*
X3392850Y-16729520D01*
X3413893Y-16742132D01*
X3433599Y-16756747D01*
X3451777Y-16773223D01*
X3468253Y-16791401D01*
X3482868Y-16811107D01*
X3495480Y-16832150D01*
X3505970Y-16854329D01*
X3514235Y-16877428D01*
X3520196Y-16901227D01*
X3523796Y-16925495D01*
X3525000Y-16949999D01*
X3525000Y-17650001D01*
X3523796Y-17674505D01*
X3520196Y-17698773D01*
X3514235Y-17722572D01*
X3505970Y-17745671D01*
X3495480Y-17767850D01*
X3482868Y-17788893D01*
X3468253Y-17808599D01*
X3451777Y-17826777D01*
X3433599Y-17843253D01*
X3413893Y-17857868D01*
X3392850Y-17870480D01*
X3370671Y-17880970D01*
X3347572Y-17889235D01*
X3323773Y-17895196D01*
X3299505Y-17898796D01*
X3275001Y-17900000D01*
X1974999Y-17900000D01*
X1950495Y-17898796D01*
X1926227Y-17895196D01*
X1902428Y-17889235D01*
X1879329Y-17880970D01*
X1857150Y-17870480D01*
X1836107Y-17857868D01*
X1816401Y-17843253D01*
X1798223Y-17826777D01*
X1781747Y-17808599D01*
X1767132Y-17788893D01*
X1754520Y-17767850D01*
X1744030Y-17745671D01*
X1735765Y-17722572D01*
X1729804Y-17698773D01*
X1726204Y-17674505D01*
X1725000Y-17650001D01*
X1725000Y-16949999D01*
X1726204Y-16925495D01*
X1729804Y-16901227D01*
X1735765Y-16877428D01*
X1744030Y-16854329D01*
X1754520Y-16832150D01*
X1767132Y-16811107D01*
X1781747Y-16791401D01*
X1798223Y-16773223D01*
X1816401Y-16756747D01*
X1836107Y-16742132D01*
X1857150Y-16729520D01*
X1879329Y-16719030D01*
X1902428Y-16710765D01*
X1926227Y-16704804D01*
X1950495Y-16701204D01*
X1974999Y-16700000D01*
X3275001Y-16700000D01*
X3299505Y-16701204D01*
X3299505Y-16701204D01*
G37*
D14*
X2625000Y-17300000D03*
D15*
X6680000Y-1100000D03*
X15320000Y-1100000D03*
D16*
X6680000Y-5280000D03*
X15320000Y-5280000D03*
D17*
X11250000Y-6195000D03*
X10750000Y-6195000D03*
X10250000Y-6195000D03*
X11750000Y-6195000D03*
X9750000Y-6195000D03*
X12250000Y-6195000D03*
X9250000Y-6195000D03*
X12750000Y-6195000D03*
D18*
X13450000Y-6195000D03*
X8550000Y-6195000D03*
X14225000Y-6195000D03*
X7775000Y-6195000D03*
D12*
G36*
X3527691Y-9026053D02*
G01*
X3548926Y-9029203D01*
X3569750Y-9034419D01*
X3589962Y-9041651D01*
X3609368Y-9050830D01*
X3627781Y-9061866D01*
X3645024Y-9074654D01*
X3660930Y-9089070D01*
X3675346Y-9104976D01*
X3688134Y-9122219D01*
X3699170Y-9140632D01*
X3708349Y-9160038D01*
X3715581Y-9180250D01*
X3720797Y-9201074D01*
X3723947Y-9222309D01*
X3725000Y-9243750D01*
X3725000Y-9756250D01*
X3723947Y-9777691D01*
X3720797Y-9798926D01*
X3715581Y-9819750D01*
X3708349Y-9839962D01*
X3699170Y-9859368D01*
X3688134Y-9877781D01*
X3675346Y-9895024D01*
X3660930Y-9910930D01*
X3645024Y-9925346D01*
X3627781Y-9938134D01*
X3609368Y-9949170D01*
X3589962Y-9958349D01*
X3569750Y-9965581D01*
X3548926Y-9970797D01*
X3527691Y-9973947D01*
X3506250Y-9975000D01*
X3068750Y-9975000D01*
X3047309Y-9973947D01*
X3026074Y-9970797D01*
X3005250Y-9965581D01*
X2985038Y-9958349D01*
X2965632Y-9949170D01*
X2947219Y-9938134D01*
X2929976Y-9925346D01*
X2914070Y-9910930D01*
X2899654Y-9895024D01*
X2886866Y-9877781D01*
X2875830Y-9859368D01*
X2866651Y-9839962D01*
X2859419Y-9819750D01*
X2854203Y-9798926D01*
X2851053Y-9777691D01*
X2850000Y-9756250D01*
X2850000Y-9243750D01*
X2851053Y-9222309D01*
X2854203Y-9201074D01*
X2859419Y-9180250D01*
X2866651Y-9160038D01*
X2875830Y-9140632D01*
X2886866Y-9122219D01*
X2899654Y-9104976D01*
X2914070Y-9089070D01*
X2929976Y-9074654D01*
X2947219Y-9061866D01*
X2965632Y-9050830D01*
X2985038Y-9041651D01*
X3005250Y-9034419D01*
X3026074Y-9029203D01*
X3047309Y-9026053D01*
X3068750Y-9025000D01*
X3506250Y-9025000D01*
X3527691Y-9026053D01*
X3527691Y-9026053D01*
G37*
D19*
X3287500Y-9500000D03*
D12*
G36*
X1952691Y-9026053D02*
G01*
X1973926Y-9029203D01*
X1994750Y-9034419D01*
X2014962Y-9041651D01*
X2034368Y-9050830D01*
X2052781Y-9061866D01*
X2070024Y-9074654D01*
X2085930Y-9089070D01*
X2100346Y-9104976D01*
X2113134Y-9122219D01*
X2124170Y-9140632D01*
X2133349Y-9160038D01*
X2140581Y-9180250D01*
X2145797Y-9201074D01*
X2148947Y-9222309D01*
X2150000Y-9243750D01*
X2150000Y-9756250D01*
X2148947Y-9777691D01*
X2145797Y-9798926D01*
X2140581Y-9819750D01*
X2133349Y-9839962D01*
X2124170Y-9859368D01*
X2113134Y-9877781D01*
X2100346Y-9895024D01*
X2085930Y-9910930D01*
X2070024Y-9925346D01*
X2052781Y-9938134D01*
X2034368Y-9949170D01*
X2014962Y-9958349D01*
X1994750Y-9965581D01*
X1973926Y-9970797D01*
X1952691Y-9973947D01*
X1931250Y-9975000D01*
X1493750Y-9975000D01*
X1472309Y-9973947D01*
X1451074Y-9970797D01*
X1430250Y-9965581D01*
X1410038Y-9958349D01*
X1390632Y-9949170D01*
X1372219Y-9938134D01*
X1354976Y-9925346D01*
X1339070Y-9910930D01*
X1324654Y-9895024D01*
X1311866Y-9877781D01*
X1300830Y-9859368D01*
X1291651Y-9839962D01*
X1284419Y-9819750D01*
X1279203Y-9798926D01*
X1276053Y-9777691D01*
X1275000Y-9756250D01*
X1275000Y-9243750D01*
X1276053Y-9222309D01*
X1279203Y-9201074D01*
X1284419Y-9180250D01*
X1291651Y-9160038D01*
X1300830Y-9140632D01*
X1311866Y-9122219D01*
X1324654Y-9104976D01*
X1339070Y-9089070D01*
X1354976Y-9074654D01*
X1372219Y-9061866D01*
X1390632Y-9050830D01*
X1410038Y-9041651D01*
X1430250Y-9034419D01*
X1451074Y-9029203D01*
X1472309Y-9026053D01*
X1493750Y-9025000D01*
X1931250Y-9025000D01*
X1952691Y-9026053D01*
X1952691Y-9026053D01*
G37*
D19*
X1712500Y-9500000D03*
D20*
X10480000Y-10600000D03*
D21*
X12200000Y-10600000D03*
X12200000Y-8400000D03*
X10300000Y-8400000D03*
D12*
G36*
X7205142Y-8801174D02*
G01*
X7228803Y-8804684D01*
X7252007Y-8810496D01*
X7274529Y-8818554D01*
X7296153Y-8828782D01*
X7316670Y-8841079D01*
X7335883Y-8855329D01*
X7353607Y-8871393D01*
X7369671Y-8889117D01*
X7383921Y-8908330D01*
X7396218Y-8928847D01*
X7406446Y-8950471D01*
X7414504Y-8972993D01*
X7420316Y-8996197D01*
X7423826Y-9019858D01*
X7425000Y-9043750D01*
X7425000Y-9956250D01*
X7423826Y-9980142D01*
X7420316Y-10003803D01*
X7414504Y-10027007D01*
X7406446Y-10049529D01*
X7396218Y-10071153D01*
X7383921Y-10091670D01*
X7369671Y-10110883D01*
X7353607Y-10128607D01*
X7335883Y-10144671D01*
X7316670Y-10158921D01*
X7296153Y-10171218D01*
X7274529Y-10181446D01*
X7252007Y-10189504D01*
X7228803Y-10195316D01*
X7205142Y-10198826D01*
X7181250Y-10200000D01*
X6693750Y-10200000D01*
X6669858Y-10198826D01*
X6646197Y-10195316D01*
X6622993Y-10189504D01*
X6600471Y-10181446D01*
X6578847Y-10171218D01*
X6558330Y-10158921D01*
X6539117Y-10144671D01*
X6521393Y-10128607D01*
X6505329Y-10110883D01*
X6491079Y-10091670D01*
X6478782Y-10071153D01*
X6468554Y-10049529D01*
X6460496Y-10027007D01*
X6454684Y-10003803D01*
X6451174Y-9980142D01*
X6450000Y-9956250D01*
X6450000Y-9043750D01*
X6451174Y-9019858D01*
X6454684Y-8996197D01*
X6460496Y-8972993D01*
X6468554Y-8950471D01*
X6478782Y-8928847D01*
X6491079Y-8908330D01*
X6505329Y-8889117D01*
X6521393Y-8871393D01*
X6539117Y-8855329D01*
X6558330Y-8841079D01*
X6578847Y-8828782D01*
X6600471Y-8818554D01*
X6622993Y-8810496D01*
X6646197Y-8804684D01*
X6669858Y-8801174D01*
X6693750Y-8800000D01*
X7181250Y-8800000D01*
X7205142Y-8801174D01*
X7205142Y-8801174D01*
G37*
D22*
X6937500Y-9500000D03*
D12*
G36*
X5330142Y-8801174D02*
G01*
X5353803Y-8804684D01*
X5377007Y-8810496D01*
X5399529Y-8818554D01*
X5421153Y-8828782D01*
X5441670Y-8841079D01*
X5460883Y-8855329D01*
X5478607Y-8871393D01*
X5494671Y-8889117D01*
X5508921Y-8908330D01*
X5521218Y-8928847D01*
X5531446Y-8950471D01*
X5539504Y-8972993D01*
X5545316Y-8996197D01*
X5548826Y-9019858D01*
X5550000Y-9043750D01*
X5550000Y-9956250D01*
X5548826Y-9980142D01*
X5545316Y-10003803D01*
X5539504Y-10027007D01*
X5531446Y-10049529D01*
X5521218Y-10071153D01*
X5508921Y-10091670D01*
X5494671Y-10110883D01*
X5478607Y-10128607D01*
X5460883Y-10144671D01*
X5441670Y-10158921D01*
X5421153Y-10171218D01*
X5399529Y-10181446D01*
X5377007Y-10189504D01*
X5353803Y-10195316D01*
X5330142Y-10198826D01*
X5306250Y-10200000D01*
X4818750Y-10200000D01*
X4794858Y-10198826D01*
X4771197Y-10195316D01*
X4747993Y-10189504D01*
X4725471Y-10181446D01*
X4703847Y-10171218D01*
X4683330Y-10158921D01*
X4664117Y-10144671D01*
X4646393Y-10128607D01*
X4630329Y-10110883D01*
X4616079Y-10091670D01*
X4603782Y-10071153D01*
X4593554Y-10049529D01*
X4585496Y-10027007D01*
X4579684Y-10003803D01*
X4576174Y-9980142D01*
X4575000Y-9956250D01*
X4575000Y-9043750D01*
X4576174Y-9019858D01*
X4579684Y-8996197D01*
X4585496Y-8972993D01*
X4593554Y-8950471D01*
X4603782Y-8928847D01*
X4616079Y-8908330D01*
X4630329Y-8889117D01*
X4646393Y-8871393D01*
X4664117Y-8855329D01*
X4683330Y-8841079D01*
X4703847Y-8828782D01*
X4725471Y-8818554D01*
X4747993Y-8810496D01*
X4771197Y-8804684D01*
X4794858Y-8801174D01*
X4818750Y-8800000D01*
X5306250Y-8800000D01*
X5330142Y-8801174D01*
X5330142Y-8801174D01*
G37*
D22*
X5062500Y-9500000D03*
D12*
G36*
X18015191Y-7026053D02*
G01*
X18036426Y-7029203D01*
X18057250Y-7034419D01*
X18077462Y-7041651D01*
X18096868Y-7050830D01*
X18115281Y-7061866D01*
X18132524Y-7074654D01*
X18148430Y-7089070D01*
X18162846Y-7104976D01*
X18175634Y-7122219D01*
X18186670Y-7140632D01*
X18195849Y-7160038D01*
X18203081Y-7180250D01*
X18208297Y-7201074D01*
X18211447Y-7222309D01*
X18212500Y-7243750D01*
X18212500Y-7756250D01*
X18211447Y-7777691D01*
X18208297Y-7798926D01*
X18203081Y-7819750D01*
X18195849Y-7839962D01*
X18186670Y-7859368D01*
X18175634Y-7877781D01*
X18162846Y-7895024D01*
X18148430Y-7910930D01*
X18132524Y-7925346D01*
X18115281Y-7938134D01*
X18096868Y-7949170D01*
X18077462Y-7958349D01*
X18057250Y-7965581D01*
X18036426Y-7970797D01*
X18015191Y-7973947D01*
X17993750Y-7975000D01*
X17556250Y-7975000D01*
X17534809Y-7973947D01*
X17513574Y-7970797D01*
X17492750Y-7965581D01*
X17472538Y-7958349D01*
X17453132Y-7949170D01*
X17434719Y-7938134D01*
X17417476Y-7925346D01*
X17401570Y-7910930D01*
X17387154Y-7895024D01*
X17374366Y-7877781D01*
X17363330Y-7859368D01*
X17354151Y-7839962D01*
X17346919Y-7819750D01*
X17341703Y-7798926D01*
X17338553Y-7777691D01*
X17337500Y-7756250D01*
X17337500Y-7243750D01*
X17338553Y-7222309D01*
X17341703Y-7201074D01*
X17346919Y-7180250D01*
X17354151Y-7160038D01*
X17363330Y-7140632D01*
X17374366Y-7122219D01*
X17387154Y-7104976D01*
X17401570Y-7089070D01*
X17417476Y-7074654D01*
X17434719Y-7061866D01*
X17453132Y-7050830D01*
X17472538Y-7041651D01*
X17492750Y-7034419D01*
X17513574Y-7029203D01*
X17534809Y-7026053D01*
X17556250Y-7025000D01*
X17993750Y-7025000D01*
X18015191Y-7026053D01*
X18015191Y-7026053D01*
G37*
D19*
X17775000Y-7500000D03*
D12*
G36*
X16440191Y-7026053D02*
G01*
X16461426Y-7029203D01*
X16482250Y-7034419D01*
X16502462Y-7041651D01*
X16521868Y-7050830D01*
X16540281Y-7061866D01*
X16557524Y-7074654D01*
X16573430Y-7089070D01*
X16587846Y-7104976D01*
X16600634Y-7122219D01*
X16611670Y-7140632D01*
X16620849Y-7160038D01*
X16628081Y-7180250D01*
X16633297Y-7201074D01*
X16636447Y-7222309D01*
X16637500Y-7243750D01*
X16637500Y-7756250D01*
X16636447Y-7777691D01*
X16633297Y-7798926D01*
X16628081Y-7819750D01*
X16620849Y-7839962D01*
X16611670Y-7859368D01*
X16600634Y-7877781D01*
X16587846Y-7895024D01*
X16573430Y-7910930D01*
X16557524Y-7925346D01*
X16540281Y-7938134D01*
X16521868Y-7949170D01*
X16502462Y-7958349D01*
X16482250Y-7965581D01*
X16461426Y-7970797D01*
X16440191Y-7973947D01*
X16418750Y-7975000D01*
X15981250Y-7975000D01*
X15959809Y-7973947D01*
X15938574Y-7970797D01*
X15917750Y-7965581D01*
X15897538Y-7958349D01*
X15878132Y-7949170D01*
X15859719Y-7938134D01*
X15842476Y-7925346D01*
X15826570Y-7910930D01*
X15812154Y-7895024D01*
X15799366Y-7877781D01*
X15788330Y-7859368D01*
X15779151Y-7839962D01*
X15771919Y-7819750D01*
X15766703Y-7798926D01*
X15763553Y-7777691D01*
X15762500Y-7756250D01*
X15762500Y-7243750D01*
X15763553Y-7222309D01*
X15766703Y-7201074D01*
X15771919Y-7180250D01*
X15779151Y-7160038D01*
X15788330Y-7140632D01*
X15799366Y-7122219D01*
X15812154Y-7104976D01*
X15826570Y-7089070D01*
X15842476Y-7074654D01*
X15859719Y-7061866D01*
X15878132Y-7050830D01*
X15897538Y-7041651D01*
X15917750Y-7034419D01*
X15938574Y-7029203D01*
X15959809Y-7026053D01*
X15981250Y-7025000D01*
X16418750Y-7025000D01*
X16440191Y-7026053D01*
X16440191Y-7026053D01*
G37*
D19*
X16200000Y-7500000D03*
D12*
G36*
X6040191Y-7026053D02*
G01*
X6061426Y-7029203D01*
X6082250Y-7034419D01*
X6102462Y-7041651D01*
X6121868Y-7050830D01*
X6140281Y-7061866D01*
X6157524Y-7074654D01*
X6173430Y-7089070D01*
X6187846Y-7104976D01*
X6200634Y-7122219D01*
X6211670Y-7140632D01*
X6220849Y-7160038D01*
X6228081Y-7180250D01*
X6233297Y-7201074D01*
X6236447Y-7222309D01*
X6237500Y-7243750D01*
X6237500Y-7756250D01*
X6236447Y-7777691D01*
X6233297Y-7798926D01*
X6228081Y-7819750D01*
X6220849Y-7839962D01*
X6211670Y-7859368D01*
X6200634Y-7877781D01*
X6187846Y-7895024D01*
X6173430Y-7910930D01*
X6157524Y-7925346D01*
X6140281Y-7938134D01*
X6121868Y-7949170D01*
X6102462Y-7958349D01*
X6082250Y-7965581D01*
X6061426Y-7970797D01*
X6040191Y-7973947D01*
X6018750Y-7975000D01*
X5581250Y-7975000D01*
X5559809Y-7973947D01*
X5538574Y-7970797D01*
X5517750Y-7965581D01*
X5497538Y-7958349D01*
X5478132Y-7949170D01*
X5459719Y-7938134D01*
X5442476Y-7925346D01*
X5426570Y-7910930D01*
X5412154Y-7895024D01*
X5399366Y-7877781D01*
X5388330Y-7859368D01*
X5379151Y-7839962D01*
X5371919Y-7819750D01*
X5366703Y-7798926D01*
X5363553Y-7777691D01*
X5362500Y-7756250D01*
X5362500Y-7243750D01*
X5363553Y-7222309D01*
X5366703Y-7201074D01*
X5371919Y-7180250D01*
X5379151Y-7160038D01*
X5388330Y-7140632D01*
X5399366Y-7122219D01*
X5412154Y-7104976D01*
X5426570Y-7089070D01*
X5442476Y-7074654D01*
X5459719Y-7061866D01*
X5478132Y-7050830D01*
X5497538Y-7041651D01*
X5517750Y-7034419D01*
X5538574Y-7029203D01*
X5559809Y-7026053D01*
X5581250Y-7025000D01*
X6018750Y-7025000D01*
X6040191Y-7026053D01*
X6040191Y-7026053D01*
G37*
D19*
X5800000Y-7500000D03*
D12*
G36*
X4465191Y-7026053D02*
G01*
X4486426Y-7029203D01*
X4507250Y-7034419D01*
X4527462Y-7041651D01*
X4546868Y-7050830D01*
X4565281Y-7061866D01*
X4582524Y-7074654D01*
X4598430Y-7089070D01*
X4612846Y-7104976D01*
X4625634Y-7122219D01*
X4636670Y-7140632D01*
X4645849Y-7160038D01*
X4653081Y-7180250D01*
X4658297Y-7201074D01*
X4661447Y-7222309D01*
X4662500Y-7243750D01*
X4662500Y-7756250D01*
X4661447Y-7777691D01*
X4658297Y-7798926D01*
X4653081Y-7819750D01*
X4645849Y-7839962D01*
X4636670Y-7859368D01*
X4625634Y-7877781D01*
X4612846Y-7895024D01*
X4598430Y-7910930D01*
X4582524Y-7925346D01*
X4565281Y-7938134D01*
X4546868Y-7949170D01*
X4527462Y-7958349D01*
X4507250Y-7965581D01*
X4486426Y-7970797D01*
X4465191Y-7973947D01*
X4443750Y-7975000D01*
X4006250Y-7975000D01*
X3984809Y-7973947D01*
X3963574Y-7970797D01*
X3942750Y-7965581D01*
X3922538Y-7958349D01*
X3903132Y-7949170D01*
X3884719Y-7938134D01*
X3867476Y-7925346D01*
X3851570Y-7910930D01*
X3837154Y-7895024D01*
X3824366Y-7877781D01*
X3813330Y-7859368D01*
X3804151Y-7839962D01*
X3796919Y-7819750D01*
X3791703Y-7798926D01*
X3788553Y-7777691D01*
X3787500Y-7756250D01*
X3787500Y-7243750D01*
X3788553Y-7222309D01*
X3791703Y-7201074D01*
X3796919Y-7180250D01*
X3804151Y-7160038D01*
X3813330Y-7140632D01*
X3824366Y-7122219D01*
X3837154Y-7104976D01*
X3851570Y-7089070D01*
X3867476Y-7074654D01*
X3884719Y-7061866D01*
X3903132Y-7050830D01*
X3922538Y-7041651D01*
X3942750Y-7034419D01*
X3963574Y-7029203D01*
X3984809Y-7026053D01*
X4006250Y-7025000D01*
X4443750Y-7025000D01*
X4465191Y-7026053D01*
X4465191Y-7026053D01*
G37*
D19*
X4225000Y-7500000D03*
D10*
X8900000Y-10600000D03*
X8550000Y-7500000D03*
X13450000Y-7500000D03*
D23*
X5062500Y-10300000D02*
X5062500Y-9500000D01*
X5062500Y-15437500D02*
X5062500Y-10300000D01*
X5625000Y-16000000D02*
X5062500Y-15437500D01*
X6500000Y-16000000D02*
X5625000Y-16000000D01*
X3287500Y-9500000D02*
X5062500Y-9500000D01*
X8900000Y-10600000D02*
X10480000Y-10600000D01*
X6500000Y-13000000D02*
X8900000Y-10600000D01*
X7595000Y-6195000D02*
X6680000Y-5280000D01*
X7775000Y-6195000D02*
X7595000Y-6195000D01*
X14405000Y-6195000D02*
X15320000Y-5280000D01*
X14225000Y-6195000D02*
X14405000Y-6195000D01*
X11000000Y-16000000D02*
X9500000Y-16000000D01*
X9500000Y-16000000D02*
X7600000Y-17900000D01*
X1712500Y-9500000D02*
X900000Y-10312500D01*
D24*
X12200000Y-10400000D02*
X12200000Y-10600000D01*
X11250000Y-9450000D02*
X12200000Y-10400000D01*
X10250000Y-7174000D02*
X10250000Y-6195000D01*
X10326201Y-7250201D02*
X10250000Y-7174000D01*
X10950201Y-7250201D02*
X10326201Y-7250201D01*
X11250000Y-7550000D02*
X10950201Y-7250201D01*
X11250000Y-8550000D02*
X11250000Y-7550000D01*
X11250000Y-6195000D02*
X11250000Y-8550000D01*
X11250000Y-8550000D02*
X11250000Y-9450000D01*
X6771400Y-14271400D02*
X6500000Y-14000000D01*
X7105310Y-14271400D02*
X6771400Y-14271400D01*
X9405320Y-11971390D02*
X7105310Y-14271400D01*
X11782610Y-11971390D02*
X9405320Y-11971390D01*
X12200000Y-10600000D02*
X12200000Y-11554000D01*
X12200000Y-11554000D02*
X11782610Y-11971390D01*
X11750000Y-7950000D02*
X12200000Y-8400000D01*
X11750000Y-6195000D02*
X11750000Y-7950000D01*
X10750000Y-5216000D02*
X10966000Y-5000000D01*
X10750000Y-6195000D02*
X10750000Y-5216000D01*
X11524362Y-5000000D02*
X10966000Y-5000000D01*
X11750000Y-5225638D02*
X11524362Y-5000000D01*
X11750000Y-6195000D02*
X11750000Y-5225638D01*
X12200000Y-8600000D02*
X13030201Y-9430201D01*
X12200000Y-8400000D02*
X12200000Y-8600000D01*
X6771400Y-14728600D02*
X7294690Y-14728600D01*
X6500000Y-15000000D02*
X6771400Y-14728600D01*
X7294690Y-14728600D02*
X9594690Y-12428600D01*
X12165762Y-12428600D02*
X9594690Y-12428600D01*
X13030201Y-11564161D02*
X12165762Y-12428600D01*
X13030201Y-9430201D02*
X13030201Y-11564161D01*
D25*
X10300000Y-8150000D02*
X10300000Y-8700000D01*
D23*
X13450000Y-6195000D02*
X13450000Y-7500000D01*
X8550000Y-6195000D02*
X8550000Y-7500000D01*
X9400000Y-7500000D02*
X10300000Y-8400000D01*
X8550000Y-7500000D02*
X9400000Y-7500000D01*
X10300000Y-8600000D02*
X10300000Y-8400000D01*
X9400000Y-9500000D02*
X10300000Y-8600000D01*
X6937500Y-9500000D02*
X9400000Y-9500000D01*
D24*
X12250000Y-5216000D02*
X12250000Y-6195000D01*
X12250000Y-4950000D02*
X12250000Y-5216000D01*
X13400000Y-3800000D02*
X12250000Y-4950000D01*
X15600000Y-3800000D02*
X13400000Y-3800000D01*
X16200000Y-7500000D02*
X16200000Y-4400000D01*
X16200000Y-4400000D02*
X15600000Y-3800000D01*
X5800000Y-4400000D02*
X6400000Y-3800000D01*
X9250000Y-5216000D02*
X9250000Y-6195000D01*
X9250000Y-4920302D02*
X9250000Y-5216000D01*
X8129698Y-3800000D02*
X9250000Y-4920302D01*
X6400000Y-3800000D02*
X8129698Y-3800000D01*
X5800000Y-7500000D02*
X5800000Y-4400000D01*
G36*
X744463Y-10329494D02*
G01*
X823815Y-10426185D01*
X920506Y-10505537D01*
X1030820Y-10564502D01*
X1150518Y-10600812D01*
X1275000Y-10613072D01*
X1426750Y-10610000D01*
X1585498Y-10451252D01*
X1585498Y-10556067D01*
X1481613Y-10611595D01*
X1347038Y-10722038D01*
X1236595Y-10856613D01*
X1154528Y-11010149D01*
X1103992Y-11176745D01*
X1086928Y-11349999D01*
X1086928Y-12050001D01*
X1103992Y-12223255D01*
X1154528Y-12389851D01*
X1236595Y-12543387D01*
X1347038Y-12677962D01*
X1481613Y-12788405D01*
X1635149Y-12870472D01*
X1801745Y-12921008D01*
X1974999Y-12938072D01*
X3275001Y-12938072D01*
X3448255Y-12921008D01*
X3614851Y-12870472D01*
X3768387Y-12788405D01*
X3902962Y-12677962D01*
X4013405Y-12543387D01*
X4095472Y-12389851D01*
X4146008Y-12223255D01*
X4163072Y-12050001D01*
X4163072Y-11349999D01*
X4146008Y-11176745D01*
X4095472Y-11010149D01*
X4013405Y-10856613D01*
X3902962Y-10722038D01*
X3768387Y-10611595D01*
X3716113Y-10583654D01*
X3834142Y-10547850D01*
X3982275Y-10468671D01*
X4062417Y-10402901D01*
X4085542Y-10446164D01*
X4195208Y-10579792D01*
X4237001Y-10614091D01*
X4237000Y-15396949D01*
X4233006Y-15437500D01*
X4237000Y-15478050D01*
X4237000Y-15478052D01*
X4248944Y-15599325D01*
X4283454Y-15713088D01*
X4296147Y-15754933D01*
X4372801Y-15898342D01*
X4399370Y-15930716D01*
X4475959Y-16024041D01*
X4507465Y-16049898D01*
X5012606Y-16555039D01*
X5038459Y-16586541D01*
X5071538Y-16613688D01*
X5164157Y-16689699D01*
X5307566Y-16766353D01*
X5438945Y-16806206D01*
X5573418Y-16878084D01*
X5721255Y-16922929D01*
X5875000Y-16938072D01*
X7125000Y-16938072D01*
X7278745Y-16922929D01*
X7426582Y-16878084D01*
X7562829Y-16805258D01*
X7682251Y-16707251D01*
X7717058Y-16664838D01*
X7902208Y-17278203D01*
X8211096Y-17857992D01*
X8216172Y-17865589D01*
X8654624Y-18165768D01*
X8541019Y-18279373D01*
X8551646Y-18290000D01*
X3888294Y-18290000D01*
X3902962Y-18277962D01*
X4013405Y-18143387D01*
X4095472Y-17989851D01*
X4146008Y-17823255D01*
X4163072Y-17650001D01*
X4163072Y-16949999D01*
X4146008Y-16776745D01*
X4095472Y-16610149D01*
X4013405Y-16456613D01*
X3902962Y-16322038D01*
X3768387Y-16211595D01*
X3614851Y-16129528D01*
X3448255Y-16078992D01*
X3275001Y-16061928D01*
X1974999Y-16061928D01*
X1801745Y-16078992D01*
X1635149Y-16129528D01*
X1481613Y-16211595D01*
X1347038Y-16322038D01*
X1236595Y-16456613D01*
X1154528Y-16610149D01*
X1103992Y-16776745D01*
X1086928Y-16949999D01*
X1086928Y-17246470D01*
X892073Y-16886093D01*
X760109Y-16459788D01*
X710000Y-15983036D01*
X710000Y-10265019D01*
X744463Y-10329494D01*
X744463Y-10329494D01*
G37*
X744463Y-10329494D02*
X823815Y-10426185D01*
X920506Y-10505537D01*
X1030820Y-10564502D01*
X1150518Y-10600812D01*
X1275000Y-10613072D01*
X1426750Y-10610000D01*
X1585498Y-10451252D01*
X1585498Y-10556067D01*
X1481613Y-10611595D01*
X1347038Y-10722038D01*
X1236595Y-10856613D01*
X1154528Y-11010149D01*
X1103992Y-11176745D01*
X1086928Y-11349999D01*
X1086928Y-12050001D01*
X1103992Y-12223255D01*
X1154528Y-12389851D01*
X1236595Y-12543387D01*
X1347038Y-12677962D01*
X1481613Y-12788405D01*
X1635149Y-12870472D01*
X1801745Y-12921008D01*
X1974999Y-12938072D01*
X3275001Y-12938072D01*
X3448255Y-12921008D01*
X3614851Y-12870472D01*
X3768387Y-12788405D01*
X3902962Y-12677962D01*
X4013405Y-12543387D01*
X4095472Y-12389851D01*
X4146008Y-12223255D01*
X4163072Y-12050001D01*
X4163072Y-11349999D01*
X4146008Y-11176745D01*
X4095472Y-11010149D01*
X4013405Y-10856613D01*
X3902962Y-10722038D01*
X3768387Y-10611595D01*
X3716113Y-10583654D01*
X3834142Y-10547850D01*
X3982275Y-10468671D01*
X4062417Y-10402901D01*
X4085542Y-10446164D01*
X4195208Y-10579792D01*
X4237001Y-10614091D01*
X4237000Y-15396949D01*
X4233006Y-15437500D01*
X4237000Y-15478050D01*
X4237000Y-15478052D01*
X4248944Y-15599325D01*
X4283454Y-15713088D01*
X4296147Y-15754933D01*
X4372801Y-15898342D01*
X4399370Y-15930716D01*
X4475959Y-16024041D01*
X4507465Y-16049898D01*
X5012606Y-16555039D01*
X5038459Y-16586541D01*
X5071538Y-16613688D01*
X5164157Y-16689699D01*
X5307566Y-16766353D01*
X5438945Y-16806206D01*
X5573418Y-16878084D01*
X5721255Y-16922929D01*
X5875000Y-16938072D01*
X7125000Y-16938072D01*
X7278745Y-16922929D01*
X7426582Y-16878084D01*
X7562829Y-16805258D01*
X7682251Y-16707251D01*
X7717058Y-16664838D01*
X7902208Y-17278203D01*
X8211096Y-17857992D01*
X8216172Y-17865589D01*
X8654624Y-18165768D01*
X8541019Y-18279373D01*
X8551646Y-18290000D01*
X3888294Y-18290000D01*
X3902962Y-18277962D01*
X4013405Y-18143387D01*
X4095472Y-17989851D01*
X4146008Y-17823255D01*
X4163072Y-17650001D01*
X4163072Y-16949999D01*
X4146008Y-16776745D01*
X4095472Y-16610149D01*
X4013405Y-16456613D01*
X3902962Y-16322038D01*
X3768387Y-16211595D01*
X3614851Y-16129528D01*
X3448255Y-16078992D01*
X3275001Y-16061928D01*
X1974999Y-16061928D01*
X1801745Y-16078992D01*
X1635149Y-16129528D01*
X1481613Y-16211595D01*
X1347038Y-16322038D01*
X1236595Y-16456613D01*
X1154528Y-16610149D01*
X1103992Y-16776745D01*
X1086928Y-16949999D01*
X1086928Y-17246470D01*
X892073Y-16886093D01*
X760109Y-16459788D01*
X710000Y-15983036D01*
X710000Y-10265019D01*
X744463Y-10329494D01*
G36*
X21279373Y-5458981D02*
G01*
X21290000Y-5448354D01*
X21290001Y-15965269D01*
X21243048Y-16444133D01*
X21114063Y-16871353D01*
X20904554Y-17265384D01*
X20622501Y-17611214D01*
X20278651Y-17895672D01*
X19886093Y-18107927D01*
X19459788Y-18239891D01*
X18983036Y-18290000D01*
X13448354Y-18290000D01*
X13458981Y-18279373D01*
X13345376Y-18165768D01*
X13783828Y-17865589D01*
X14094296Y-17286644D01*
X14285852Y-16658254D01*
X14351134Y-16004569D01*
X14287634Y-15350707D01*
X14097792Y-14721797D01*
X13788904Y-14142008D01*
X13783828Y-14134411D01*
X13345374Y-13834231D01*
X11179605Y-16000000D01*
X11193748Y-16014143D01*
X11014143Y-16193748D01*
X11000000Y-16179605D01*
X10985858Y-16193748D01*
X10806253Y-16014143D01*
X10820395Y-16000000D01*
X10806253Y-15985858D01*
X10985858Y-15806253D01*
X11000000Y-15820395D01*
X13165769Y-13654626D01*
X12865589Y-13216172D01*
X12587645Y-13067120D01*
X12591154Y-13065245D01*
X12707184Y-12970022D01*
X12731046Y-12940947D01*
X13542552Y-12129440D01*
X13571623Y-12105583D01*
X13666846Y-11989553D01*
X13737603Y-11857176D01*
X13781175Y-11713539D01*
X13792201Y-11601587D01*
X13792201Y-11601585D01*
X13795887Y-11564162D01*
X13792201Y-11526739D01*
X13792201Y-9467624D01*
X13795887Y-9430201D01*
X13789905Y-9369463D01*
X13781175Y-9280823D01*
X13737603Y-9137186D01*
X13696796Y-9060841D01*
X13666846Y-9004808D01*
X13632058Y-8962420D01*
X13571623Y-8888779D01*
X13542548Y-8864918D01*
X13338072Y-8660442D01*
X13338072Y-8533013D01*
X13348061Y-8535000D01*
X13551939Y-8535000D01*
X13751898Y-8495226D01*
X13940256Y-8417205D01*
X14109774Y-8303937D01*
X14253937Y-8159774D01*
X14367205Y-7990256D01*
X14445226Y-7801898D01*
X14485000Y-7601939D01*
X14485000Y-7529250D01*
X14510750Y-7555000D01*
X14525000Y-7558072D01*
X14649482Y-7545812D01*
X14769180Y-7509502D01*
X14879494Y-7450537D01*
X14976185Y-7371185D01*
X15055537Y-7274494D01*
X15114502Y-7164180D01*
X15140806Y-7077468D01*
X15124428Y-7243750D01*
X15124428Y-7756250D01*
X15140892Y-7923408D01*
X15189650Y-8084142D01*
X15268829Y-8232275D01*
X15375385Y-8362115D01*
X15505225Y-8468671D01*
X15653358Y-8547850D01*
X15814092Y-8596608D01*
X15981250Y-8613072D01*
X16418750Y-8613072D01*
X16585908Y-8596608D01*
X16746642Y-8547850D01*
X16894775Y-8468671D01*
X16916430Y-8450900D01*
X16983006Y-8505537D01*
X17093320Y-8564502D01*
X17213018Y-8600812D01*
X17337500Y-8613072D01*
X17489250Y-8610000D01*
X17648000Y-8451250D01*
X17648000Y-7627000D01*
X17902000Y-7627000D01*
X17902000Y-8451250D01*
X18060750Y-8610000D01*
X18212500Y-8613072D01*
X18336982Y-8600812D01*
X18456680Y-8564502D01*
X18566994Y-8505537D01*
X18663685Y-8426185D01*
X18743037Y-8329494D01*
X18802002Y-8219180D01*
X18838312Y-8099482D01*
X18850572Y-7975000D01*
X18847500Y-7785750D01*
X18688750Y-7627000D01*
X17902000Y-7627000D01*
X17648000Y-7627000D01*
X17628000Y-7627000D01*
X17628000Y-7373000D01*
X17648000Y-7373000D01*
X17648000Y-6548750D01*
X17902000Y-6548750D01*
X17902000Y-7373000D01*
X18688750Y-7373000D01*
X18847500Y-7214250D01*
X18850572Y-7025000D01*
X18838312Y-6900518D01*
X18802002Y-6780820D01*
X18743037Y-6670506D01*
X18663685Y-6573815D01*
X18566994Y-6494463D01*
X18456680Y-6435498D01*
X18336982Y-6399188D01*
X18212500Y-6386928D01*
X18060750Y-6390000D01*
X17902000Y-6548750D01*
X17648000Y-6548750D01*
X17489250Y-6390000D01*
X17337500Y-6386928D01*
X17213018Y-6399188D01*
X17093320Y-6435498D01*
X16983006Y-6494463D01*
X16962000Y-6511702D01*
X16962000Y-5531998D01*
X17134411Y-5783828D01*
X17713356Y-6094296D01*
X18341746Y-6285852D01*
X18995431Y-6351134D01*
X19649293Y-6287634D01*
X20278203Y-6097792D01*
X20857992Y-5788904D01*
X20865589Y-5783828D01*
X21165768Y-5345376D01*
X21279373Y-5458981D01*
X21279373Y-5458981D01*
G37*
X21279373Y-5458981D02*
X21290000Y-5448354D01*
X21290001Y-15965269D01*
X21243048Y-16444133D01*
X21114063Y-16871353D01*
X20904554Y-17265384D01*
X20622501Y-17611214D01*
X20278651Y-17895672D01*
X19886093Y-18107927D01*
X19459788Y-18239891D01*
X18983036Y-18290000D01*
X13448354Y-18290000D01*
X13458981Y-18279373D01*
X13345376Y-18165768D01*
X13783828Y-17865589D01*
X14094296Y-17286644D01*
X14285852Y-16658254D01*
X14351134Y-16004569D01*
X14287634Y-15350707D01*
X14097792Y-14721797D01*
X13788904Y-14142008D01*
X13783828Y-14134411D01*
X13345374Y-13834231D01*
X11179605Y-16000000D01*
X11193748Y-16014143D01*
X11014143Y-16193748D01*
X11000000Y-16179605D01*
X10985858Y-16193748D01*
X10806253Y-16014143D01*
X10820395Y-16000000D01*
X10806253Y-15985858D01*
X10985858Y-15806253D01*
X11000000Y-15820395D01*
X13165769Y-13654626D01*
X12865589Y-13216172D01*
X12587645Y-13067120D01*
X12591154Y-13065245D01*
X12707184Y-12970022D01*
X12731046Y-12940947D01*
X13542552Y-12129440D01*
X13571623Y-12105583D01*
X13666846Y-11989553D01*
X13737603Y-11857176D01*
X13781175Y-11713539D01*
X13792201Y-11601587D01*
X13792201Y-11601585D01*
X13795887Y-11564162D01*
X13792201Y-11526739D01*
X13792201Y-9467624D01*
X13795887Y-9430201D01*
X13789905Y-9369463D01*
X13781175Y-9280823D01*
X13737603Y-9137186D01*
X13696796Y-9060841D01*
X13666846Y-9004808D01*
X13632058Y-8962420D01*
X13571623Y-8888779D01*
X13542548Y-8864918D01*
X13338072Y-8660442D01*
X13338072Y-8533013D01*
X13348061Y-8535000D01*
X13551939Y-8535000D01*
X13751898Y-8495226D01*
X13940256Y-8417205D01*
X14109774Y-8303937D01*
X14253937Y-8159774D01*
X14367205Y-7990256D01*
X14445226Y-7801898D01*
X14485000Y-7601939D01*
X14485000Y-7529250D01*
X14510750Y-7555000D01*
X14525000Y-7558072D01*
X14649482Y-7545812D01*
X14769180Y-7509502D01*
X14879494Y-7450537D01*
X14976185Y-7371185D01*
X15055537Y-7274494D01*
X15114502Y-7164180D01*
X15140806Y-7077468D01*
X15124428Y-7243750D01*
X15124428Y-7756250D01*
X15140892Y-7923408D01*
X15189650Y-8084142D01*
X15268829Y-8232275D01*
X15375385Y-8362115D01*
X15505225Y-8468671D01*
X15653358Y-8547850D01*
X15814092Y-8596608D01*
X15981250Y-8613072D01*
X16418750Y-8613072D01*
X16585908Y-8596608D01*
X16746642Y-8547850D01*
X16894775Y-8468671D01*
X16916430Y-8450900D01*
X16983006Y-8505537D01*
X17093320Y-8564502D01*
X17213018Y-8600812D01*
X17337500Y-8613072D01*
X17489250Y-8610000D01*
X17648000Y-8451250D01*
X17648000Y-7627000D01*
X17902000Y-7627000D01*
X17902000Y-8451250D01*
X18060750Y-8610000D01*
X18212500Y-8613072D01*
X18336982Y-8600812D01*
X18456680Y-8564502D01*
X18566994Y-8505537D01*
X18663685Y-8426185D01*
X18743037Y-8329494D01*
X18802002Y-8219180D01*
X18838312Y-8099482D01*
X18850572Y-7975000D01*
X18847500Y-7785750D01*
X18688750Y-7627000D01*
X17902000Y-7627000D01*
X17648000Y-7627000D01*
X17628000Y-7627000D01*
X17628000Y-7373000D01*
X17648000Y-7373000D01*
X17648000Y-6548750D01*
X17902000Y-6548750D01*
X17902000Y-7373000D01*
X18688750Y-7373000D01*
X18847500Y-7214250D01*
X18850572Y-7025000D01*
X18838312Y-6900518D01*
X18802002Y-6780820D01*
X18743037Y-6670506D01*
X18663685Y-6573815D01*
X18566994Y-6494463D01*
X18456680Y-6435498D01*
X18336982Y-6399188D01*
X18212500Y-6386928D01*
X18060750Y-6390000D01*
X17902000Y-6548750D01*
X17648000Y-6548750D01*
X17489250Y-6390000D01*
X17337500Y-6386928D01*
X17213018Y-6399188D01*
X17093320Y-6435498D01*
X16983006Y-6494463D01*
X16962000Y-6511702D01*
X16962000Y-5531998D01*
X17134411Y-5783828D01*
X17713356Y-6094296D01*
X18341746Y-6285852D01*
X18995431Y-6351134D01*
X19649293Y-6287634D01*
X20278203Y-6097792D01*
X20857992Y-5788904D01*
X20865589Y-5783828D01*
X21165768Y-5345376D01*
X21279373Y-5458981D01*
G36*
X9403750Y-10473000D02*
G01*
X10353000Y-10473000D01*
X10353000Y-10453000D01*
X10607000Y-10453000D01*
X10607000Y-10473000D01*
X10627000Y-10473000D01*
X10627000Y-10727000D01*
X10607000Y-10727000D01*
X10607000Y-10747000D01*
X10353000Y-10747000D01*
X10353000Y-10727000D01*
X9403750Y-10727000D01*
X9245000Y-10885750D01*
X9242488Y-11224497D01*
X9112305Y-11263988D01*
X8979928Y-11334745D01*
X8863898Y-11429968D01*
X8840041Y-11459038D01*
X7857103Y-12441977D01*
X7805537Y-12345506D01*
X7726185Y-12248815D01*
X7629494Y-12169463D01*
X7519180Y-12110498D01*
X7399482Y-12074188D01*
X7275000Y-12061928D01*
X6785750Y-12065000D01*
X6627000Y-12223750D01*
X6627000Y-12873000D01*
X6647000Y-12873000D01*
X6647000Y-13061928D01*
X6353000Y-13061928D01*
X6353000Y-12873000D01*
X6373000Y-12873000D01*
X6373000Y-12223750D01*
X6214250Y-12065000D01*
X5888000Y-12062951D01*
X5888000Y-10614090D01*
X5929792Y-10579792D01*
X6000000Y-10494244D01*
X6070208Y-10579792D01*
X6203836Y-10689458D01*
X6356291Y-10770947D01*
X6521715Y-10821128D01*
X6693750Y-10838072D01*
X7181250Y-10838072D01*
X7353285Y-10821128D01*
X7518709Y-10770947D01*
X7671164Y-10689458D01*
X7804792Y-10579792D01*
X7914458Y-10446164D01*
X7978954Y-10325500D01*
X9256250Y-10325500D01*
X9403750Y-10473000D01*
X9403750Y-10473000D01*
G37*
X9403750Y-10473000D02*
X10353000Y-10473000D01*
X10353000Y-10453000D01*
X10607000Y-10453000D01*
X10607000Y-10473000D01*
X10627000Y-10473000D01*
X10627000Y-10727000D01*
X10607000Y-10727000D01*
X10607000Y-10747000D01*
X10353000Y-10747000D01*
X10353000Y-10727000D01*
X9403750Y-10727000D01*
X9245000Y-10885750D01*
X9242488Y-11224497D01*
X9112305Y-11263988D01*
X8979928Y-11334745D01*
X8863898Y-11429968D01*
X8840041Y-11459038D01*
X7857103Y-12441977D01*
X7805537Y-12345506D01*
X7726185Y-12248815D01*
X7629494Y-12169463D01*
X7519180Y-12110498D01*
X7399482Y-12074188D01*
X7275000Y-12061928D01*
X6785750Y-12065000D01*
X6627000Y-12223750D01*
X6627000Y-12873000D01*
X6647000Y-12873000D01*
X6647000Y-13061928D01*
X6353000Y-13061928D01*
X6353000Y-12873000D01*
X6373000Y-12873000D01*
X6373000Y-12223750D01*
X6214250Y-12065000D01*
X5888000Y-12062951D01*
X5888000Y-10614090D01*
X5929792Y-10579792D01*
X6000000Y-10494244D01*
X6070208Y-10579792D01*
X6203836Y-10689458D01*
X6356291Y-10770947D01*
X6521715Y-10821128D01*
X6693750Y-10838072D01*
X7181250Y-10838072D01*
X7353285Y-10821128D01*
X7518709Y-10770947D01*
X7671164Y-10689458D01*
X7804792Y-10579792D01*
X7914458Y-10446164D01*
X7978954Y-10325500D01*
X9256250Y-10325500D01*
X9403750Y-10473000D01*
G36*
X1134411Y-5783828D02*
G01*
X1713356Y-6094296D01*
X2341746Y-6285852D01*
X2995431Y-6351134D01*
X3649293Y-6287634D01*
X4278203Y-6097792D01*
X4857992Y-5788904D01*
X4865589Y-5783828D01*
X5038001Y-5531997D01*
X5038000Y-6511702D01*
X5016994Y-6494463D01*
X4906680Y-6435498D01*
X4786982Y-6399188D01*
X4662500Y-6386928D01*
X4510750Y-6390000D01*
X4352000Y-6548750D01*
X4352000Y-7373000D01*
X4372000Y-7373000D01*
X4372000Y-7627000D01*
X4352000Y-7627000D01*
X4352000Y-7647000D01*
X4098000Y-7647000D01*
X4098000Y-7627000D01*
X3311250Y-7627000D01*
X3152500Y-7785750D01*
X3149428Y-7975000D01*
X3161688Y-8099482D01*
X3197998Y-8219180D01*
X3256963Y-8329494D01*
X3304098Y-8386928D01*
X3068750Y-8386928D01*
X2901592Y-8403392D01*
X2740858Y-8452150D01*
X2592725Y-8531329D01*
X2571070Y-8549100D01*
X2504494Y-8494463D01*
X2394180Y-8435498D01*
X2274482Y-8399188D01*
X2150000Y-8386928D01*
X1998250Y-8390000D01*
X1839500Y-8548750D01*
X1839500Y-9373000D01*
X1859500Y-9373000D01*
X1859500Y-9627000D01*
X1839500Y-9627000D01*
X1839500Y-9647000D01*
X1585500Y-9647000D01*
X1585500Y-9627000D01*
X1565500Y-9627000D01*
X1565500Y-9373000D01*
X1585500Y-9373000D01*
X1585500Y-8548750D01*
X1426750Y-8390000D01*
X1275000Y-8386928D01*
X1150518Y-8399188D01*
X1030820Y-8435498D01*
X920506Y-8494463D01*
X823815Y-8573815D01*
X744463Y-8670506D01*
X710000Y-8734981D01*
X710000Y-7025000D01*
X3149428Y-7025000D01*
X3152500Y-7214250D01*
X3311250Y-7373000D01*
X4098000Y-7373000D01*
X4098000Y-6548750D01*
X3939250Y-6390000D01*
X3787500Y-6386928D01*
X3663018Y-6399188D01*
X3543320Y-6435498D01*
X3433006Y-6494463D01*
X3336315Y-6573815D01*
X3256963Y-6670506D01*
X3197998Y-6780820D01*
X3161688Y-6900518D01*
X3149428Y-7025000D01*
X710000Y-7025000D01*
X710000Y-5448354D01*
X720627Y-5458981D01*
X834232Y-5345376D01*
X1134411Y-5783828D01*
X1134411Y-5783828D01*
G37*
X1134411Y-5783828D02*
X1713356Y-6094296D01*
X2341746Y-6285852D01*
X2995431Y-6351134D01*
X3649293Y-6287634D01*
X4278203Y-6097792D01*
X4857992Y-5788904D01*
X4865589Y-5783828D01*
X5038001Y-5531997D01*
X5038000Y-6511702D01*
X5016994Y-6494463D01*
X4906680Y-6435498D01*
X4786982Y-6399188D01*
X4662500Y-6386928D01*
X4510750Y-6390000D01*
X4352000Y-6548750D01*
X4352000Y-7373000D01*
X4372000Y-7373000D01*
X4372000Y-7627000D01*
X4352000Y-7627000D01*
X4352000Y-7647000D01*
X4098000Y-7647000D01*
X4098000Y-7627000D01*
X3311250Y-7627000D01*
X3152500Y-7785750D01*
X3149428Y-7975000D01*
X3161688Y-8099482D01*
X3197998Y-8219180D01*
X3256963Y-8329494D01*
X3304098Y-8386928D01*
X3068750Y-8386928D01*
X2901592Y-8403392D01*
X2740858Y-8452150D01*
X2592725Y-8531329D01*
X2571070Y-8549100D01*
X2504494Y-8494463D01*
X2394180Y-8435498D01*
X2274482Y-8399188D01*
X2150000Y-8386928D01*
X1998250Y-8390000D01*
X1839500Y-8548750D01*
X1839500Y-9373000D01*
X1859500Y-9373000D01*
X1859500Y-9627000D01*
X1839500Y-9627000D01*
X1839500Y-9647000D01*
X1585500Y-9647000D01*
X1585500Y-9627000D01*
X1565500Y-9627000D01*
X1565500Y-9373000D01*
X1585500Y-9373000D01*
X1585500Y-8548750D01*
X1426750Y-8390000D01*
X1275000Y-8386928D01*
X1150518Y-8399188D01*
X1030820Y-8435498D01*
X920506Y-8494463D01*
X823815Y-8573815D01*
X744463Y-8670506D01*
X710000Y-8734981D01*
X710000Y-7025000D01*
X3149428Y-7025000D01*
X3152500Y-7214250D01*
X3311250Y-7373000D01*
X4098000Y-7373000D01*
X4098000Y-6548750D01*
X3939250Y-6390000D01*
X3787500Y-6386928D01*
X3663018Y-6399188D01*
X3543320Y-6435498D01*
X3433006Y-6494463D01*
X3336315Y-6573815D01*
X3256963Y-6670506D01*
X3197998Y-6780820D01*
X3161688Y-6900518D01*
X3149428Y-7025000D01*
X710000Y-7025000D01*
X710000Y-5448354D01*
X720627Y-5458981D01*
X834232Y-5345376D01*
X1134411Y-5783828D01*
G36*
X15438001Y-5427000D02*
G01*
X15193000Y-5427000D01*
X15193000Y-5407000D01*
X15173000Y-5407000D01*
X15173000Y-5153000D01*
X15193000Y-5153000D01*
X15193000Y-5133000D01*
X15438001Y-5133000D01*
X15438001Y-5427000D01*
X15438001Y-5427000D01*
G37*
X15438001Y-5427000D02*
X15193000Y-5427000D01*
X15193000Y-5407000D01*
X15173000Y-5407000D01*
X15173000Y-5153000D01*
X15193000Y-5153000D01*
X15193000Y-5133000D01*
X15438001Y-5133000D01*
X15438001Y-5427000D01*
G36*
X6807000Y-5153000D02*
G01*
X6827000Y-5153000D01*
X6827000Y-5407000D01*
X6807000Y-5407000D01*
X6807000Y-5427000D01*
X6562000Y-5427000D01*
X6562000Y-5133000D01*
X6807000Y-5133000D01*
X6807000Y-5153000D01*
X6807000Y-5153000D01*
G37*
X6807000Y-5153000D02*
X6827000Y-5153000D01*
X6827000Y-5407000D01*
X6807000Y-5407000D01*
X6807000Y-5427000D01*
X6562000Y-5427000D01*
X6562000Y-5133000D01*
X6807000Y-5133000D01*
X6807000Y-5153000D01*
G36*
X14185000Y-973000D02*
G01*
X15193000Y-973000D01*
X15193000Y-953000D01*
X15447000Y-953000D01*
X15447000Y-973000D01*
X15467000Y-973000D01*
X15467000Y-1227000D01*
X15447000Y-1227000D01*
X15447000Y-2367954D01*
X15621874Y-2494119D01*
X15701787Y-2465520D01*
X15648866Y-2995431D01*
X15653151Y-3039549D01*
X15637426Y-3038000D01*
X15637423Y-3038000D01*
X15600000Y-3034314D01*
X15562577Y-3038000D01*
X13437423Y-3038000D01*
X13400000Y-3034314D01*
X13362577Y-3038000D01*
X13362574Y-3038000D01*
X13250622Y-3049026D01*
X13106985Y-3092598D01*
X13060440Y-3117477D01*
X12974607Y-3163355D01*
X12943348Y-3189009D01*
X12858578Y-3258578D01*
X12834716Y-3287654D01*
X11825454Y-4296916D01*
X11817377Y-4292598D01*
X11673740Y-4249026D01*
X11561788Y-4238000D01*
X11561785Y-4238000D01*
X11524362Y-4234314D01*
X11486939Y-4238000D01*
X11003422Y-4238000D01*
X10965999Y-4234314D01*
X10928576Y-4238000D01*
X10928574Y-4238000D01*
X10816622Y-4249026D01*
X10672985Y-4292598D01*
X10540608Y-4363355D01*
X10424578Y-4458578D01*
X10400716Y-4487654D01*
X10237649Y-4650721D01*
X10208579Y-4674578D01*
X10184722Y-4703648D01*
X10184721Y-4703649D01*
X10113355Y-4790608D01*
X10090784Y-4832836D01*
X10007876Y-4841001D01*
X10000974Y-4770924D01*
X9957402Y-4627287D01*
X9886645Y-4494910D01*
X9791422Y-4378880D01*
X9762353Y-4355024D01*
X8694982Y-3287654D01*
X8671120Y-3258578D01*
X8555090Y-3163355D01*
X8422713Y-3092598D01*
X8279076Y-3049026D01*
X8167124Y-3038000D01*
X8167121Y-3038000D01*
X8129698Y-3034314D01*
X8092275Y-3038000D01*
X6437422Y-3038000D01*
X6399999Y-3034314D01*
X6362576Y-3038000D01*
X6362574Y-3038000D01*
X6347649Y-3039470D01*
X6351134Y-3004569D01*
X6298805Y-2465732D01*
X6378126Y-2494119D01*
X6553000Y-2367954D01*
X6553000Y-1227000D01*
X6807000Y-1227000D01*
X6807000Y-2367954D01*
X6981874Y-2494119D01*
X7204976Y-2414276D01*
X7392764Y-2292369D01*
X7553161Y-2136169D01*
X7680003Y-1951678D01*
X7768415Y-1745987D01*
X7815000Y-1527000D01*
X7815000Y-1227000D01*
X14185000Y-1227000D01*
X14185000Y-1527000D01*
X14231585Y-1745987D01*
X14319997Y-1951678D01*
X14446839Y-2136169D01*
X14607236Y-2292369D01*
X14795024Y-2414276D01*
X15018126Y-2494119D01*
X15193000Y-2367954D01*
X15193000Y-1227000D01*
X14185000Y-1227000D01*
X7815000Y-1227000D01*
X6807000Y-1227000D01*
X6553000Y-1227000D01*
X6533000Y-1227000D01*
X6533000Y-973000D01*
X6553000Y-973000D01*
X6553000Y-953000D01*
X6807000Y-953000D01*
X6807000Y-973000D01*
X7815000Y-973000D01*
X7815000Y-710000D01*
X14185000Y-710000D01*
X14185000Y-973000D01*
X14185000Y-973000D01*
G37*
X14185000Y-973000D02*
X15193000Y-973000D01*
X15193000Y-953000D01*
X15447000Y-953000D01*
X15447000Y-973000D01*
X15467000Y-973000D01*
X15467000Y-1227000D01*
X15447000Y-1227000D01*
X15447000Y-2367954D01*
X15621874Y-2494119D01*
X15701787Y-2465520D01*
X15648866Y-2995431D01*
X15653151Y-3039549D01*
X15637426Y-3038000D01*
X15637423Y-3038000D01*
X15600000Y-3034314D01*
X15562577Y-3038000D01*
X13437423Y-3038000D01*
X13400000Y-3034314D01*
X13362577Y-3038000D01*
X13362574Y-3038000D01*
X13250622Y-3049026D01*
X13106985Y-3092598D01*
X13060440Y-3117477D01*
X12974607Y-3163355D01*
X12943348Y-3189009D01*
X12858578Y-3258578D01*
X12834716Y-3287654D01*
X11825454Y-4296916D01*
X11817377Y-4292598D01*
X11673740Y-4249026D01*
X11561788Y-4238000D01*
X11561785Y-4238000D01*
X11524362Y-4234314D01*
X11486939Y-4238000D01*
X11003422Y-4238000D01*
X10965999Y-4234314D01*
X10928576Y-4238000D01*
X10928574Y-4238000D01*
X10816622Y-4249026D01*
X10672985Y-4292598D01*
X10540608Y-4363355D01*
X10424578Y-4458578D01*
X10400716Y-4487654D01*
X10237649Y-4650721D01*
X10208579Y-4674578D01*
X10184722Y-4703648D01*
X10184721Y-4703649D01*
X10113355Y-4790608D01*
X10090784Y-4832836D01*
X10007876Y-4841001D01*
X10000974Y-4770924D01*
X9957402Y-4627287D01*
X9886645Y-4494910D01*
X9791422Y-4378880D01*
X9762353Y-4355024D01*
X8694982Y-3287654D01*
X8671120Y-3258578D01*
X8555090Y-3163355D01*
X8422713Y-3092598D01*
X8279076Y-3049026D01*
X8167124Y-3038000D01*
X8167121Y-3038000D01*
X8129698Y-3034314D01*
X8092275Y-3038000D01*
X6437422Y-3038000D01*
X6399999Y-3034314D01*
X6362576Y-3038000D01*
X6362574Y-3038000D01*
X6347649Y-3039470D01*
X6351134Y-3004569D01*
X6298805Y-2465732D01*
X6378126Y-2494119D01*
X6553000Y-2367954D01*
X6553000Y-1227000D01*
X6807000Y-1227000D01*
X6807000Y-2367954D01*
X6981874Y-2494119D01*
X7204976Y-2414276D01*
X7392764Y-2292369D01*
X7553161Y-2136169D01*
X7680003Y-1951678D01*
X7768415Y-1745987D01*
X7815000Y-1527000D01*
X7815000Y-1227000D01*
X14185000Y-1227000D01*
X14185000Y-1527000D01*
X14231585Y-1745987D01*
X14319997Y-1951678D01*
X14446839Y-2136169D01*
X14607236Y-2292369D01*
X14795024Y-2414276D01*
X15018126Y-2494119D01*
X15193000Y-2367954D01*
X15193000Y-1227000D01*
X14185000Y-1227000D01*
X7815000Y-1227000D01*
X6807000Y-1227000D01*
X6553000Y-1227000D01*
X6533000Y-1227000D01*
X6533000Y-973000D01*
X6553000Y-973000D01*
X6553000Y-953000D01*
X6807000Y-953000D01*
X6807000Y-973000D01*
X7815000Y-973000D01*
X7815000Y-710000D01*
X14185000Y-710000D01*
X14185000Y-973000D01*
G36*
X3193748Y-2985858D02*
G01*
X3179605Y-3000000D01*
X3193748Y-3014143D01*
X3014143Y-3193748D01*
X3000000Y-3179605D01*
X2985858Y-3193748D01*
X2806253Y-3014143D01*
X2820395Y-3000000D01*
X2806253Y-2985858D01*
X2985858Y-2806253D01*
X3000000Y-2820395D01*
X3014143Y-2806253D01*
X3193748Y-2985858D01*
X3193748Y-2985858D01*
G37*
X3193748Y-2985858D02*
X3179605Y-3000000D01*
X3193748Y-3014143D01*
X3014143Y-3193748D01*
X3000000Y-3179605D01*
X2985858Y-3193748D01*
X2806253Y-3014143D01*
X2820395Y-3000000D01*
X2806253Y-2985858D01*
X2985858Y-2806253D01*
X3000000Y-2820395D01*
X3014143Y-2806253D01*
X3193748Y-2985858D01*
G36*
X19193748Y-2985858D02*
G01*
X19179605Y-3000000D01*
X19193748Y-3014143D01*
X19014143Y-3193748D01*
X19000000Y-3179605D01*
X18985858Y-3193748D01*
X18806253Y-3014143D01*
X18820395Y-3000000D01*
X18806253Y-2985858D01*
X18985858Y-2806253D01*
X19000000Y-2820395D01*
X19014143Y-2806253D01*
X19193748Y-2985858D01*
X19193748Y-2985858D01*
G37*
X19193748Y-2985858D02*
X19179605Y-3000000D01*
X19193748Y-3014143D01*
X19014143Y-3193748D01*
X19000000Y-3179605D01*
X18985858Y-3193748D01*
X18806253Y-3014143D01*
X18820395Y-3000000D01*
X18806253Y-2985858D01*
X18985858Y-2806253D01*
X19000000Y-2820395D01*
X19014143Y-2806253D01*
X19193748Y-2985858D01*
M02*
