M48
; DRILL file {KiCad (5.1.4)-1} date 9/6/2019 1:52:30 AM
; FORMAT={-:-/ absolute / inch / decimal}
; #@! TF.CreationDate,2019-09-06T01:52:30-07:00
; #@! TF.GenerationSoftware,Kicad,Pcbnew,(5.1.4)-1
; #@! TF.FileFunction,Plated,1,2,PTH
FMAT,2
INCH
T1C0.0591
%
G90
G05
T1
X2.2909Y-1.0831
X2.5409Y-0.9831
X3.225Y-0.275
X3.475Y-0.175
X3.225Y-1.775
X3.475Y-1.675
X0.2624Y-2.9
X0.5124Y-2.8
X0.6374Y-2.9
X0.8874Y-2.8
X1.0124Y-2.9
X1.2624Y-2.8
X2.2909Y-0.3331
X2.5409Y-0.2331
X0.2624Y-0.65
X0.5124Y-0.55
X0.6374Y-0.65
X0.8874Y-0.55
X1.0124Y-0.65
X1.2624Y-0.55
X3.225Y-3.65
X3.475Y-3.55
X3.225Y-0.65
X3.475Y-0.55
X0.2624Y-3.65
X0.5124Y-3.55
X0.6374Y-3.65
X0.8874Y-3.55
X1.0124Y-3.65
X1.2624Y-3.55
X2.2909Y-2.5831
X2.5409Y-2.4831
X0.2624Y-0.275
X0.5124Y-0.175
X0.6374Y-0.275
X0.8874Y-0.175
X1.0124Y-0.275
X1.2624Y-0.175
X3.225Y-3.275
X3.475Y-3.175
X2.2909Y-2.9581
X2.5409Y-2.8581
X3.225Y-1.025
X3.475Y-0.925
X2.2909Y-0.7081
X2.5409Y-0.6081
X0.2624Y-1.775
X0.5124Y-1.675
X0.6374Y-1.775
X0.8874Y-1.675
X1.0124Y-1.775
X1.2624Y-1.675
X2.2909Y-1.8331
X2.5409Y-1.7331
X0.2624Y-2.15
X0.5124Y-2.05
X0.6374Y-2.15
X0.8874Y-2.05
X1.0124Y-2.15
X1.2624Y-2.05
X0.2624Y-3.275
X0.5124Y-3.175
X0.6374Y-3.275
X0.8874Y-3.175
X1.0124Y-3.275
X1.2624Y-3.175
X2.2909Y-3.3331
X2.5409Y-3.2331
X3.225Y-2.15
X3.475Y-2.05
X2.2909Y-3.7081
X2.5409Y-3.6081
X0.2624Y-2.525
X0.5124Y-2.425
X0.6374Y-2.525
X0.8874Y-2.425
X1.0124Y-2.525
X1.2624Y-2.425
X3.225Y-2.9
X3.475Y-2.8
X2.2909Y-1.4581
X2.5409Y-1.3581
X3.225Y-2.525
X3.475Y-2.425
X0.2624Y-1.025
X0.5124Y-0.925
X0.6374Y-1.025
X0.8874Y-0.925
X1.0124Y-1.025
X1.2624Y-0.925
X2.2909Y-2.2081
X2.5409Y-2.1081
X0.2624Y-1.4
X0.5124Y-1.3
X0.6374Y-1.4
X0.8874Y-1.3
X1.0124Y-1.4
X1.2624Y-1.3
X3.225Y-1.4
X3.475Y-1.3
T0
M30
