G04 #@! TF.GenerationSoftware,KiCad,Pcbnew,(5.1.4)-1*
G04 #@! TF.CreationDate,2019-09-06T01:52:25-07:00*
G04 #@! TF.ProjectId,testing footprints,74657374-696e-4672-9066-6f6f74707269,rev?*
G04 #@! TF.SameCoordinates,Original*
G04 #@! TF.FileFunction,Legend,Bot*
G04 #@! TF.FilePolarity,Positive*
%FSLAX46Y46*%
G04 Gerber Fmt 4.6, Leading zero omitted, Abs format (unit mm)*
G04 Created by KiCad (PCBNEW (5.1.4)-1) date 2019-09-06 01:52:25*
%MOMM*%
%LPD*%
G04 APERTURE LIST*
%ADD10C,0.150000*%
G04 APERTURE END LIST*
D10*
X20333333Y-3452380D02*
X20666666Y-2976190D01*
X20904761Y-3452380D02*
X20904761Y-2452380D01*
X20523809Y-2452380D01*
X20428571Y-2500000D01*
X20380952Y-2547619D01*
X20333333Y-2642857D01*
X20333333Y-2785714D01*
X20380952Y-2880952D01*
X20428571Y-2928571D01*
X20523809Y-2976190D01*
X20904761Y-2976190D01*
X19904761Y-2928571D02*
X19571428Y-2928571D01*
X19428571Y-3452380D02*
X19904761Y-3452380D01*
X19904761Y-2452380D01*
X19428571Y-2452380D01*
X18666666Y-2928571D02*
X19000000Y-2928571D01*
X19000000Y-3452380D02*
X19000000Y-2452380D01*
X18523809Y-2452380D01*
X18000000Y-2452380D02*
X18000000Y-2690476D01*
X18238095Y-2595238D02*
X18000000Y-2690476D01*
X17761904Y-2595238D01*
X18142857Y-2880952D02*
X18000000Y-2690476D01*
X17857142Y-2880952D01*
X17238095Y-2452380D02*
X17238095Y-2690476D01*
X17476190Y-2595238D02*
X17238095Y-2690476D01*
X17000000Y-2595238D01*
X17380952Y-2880952D02*
X17238095Y-2690476D01*
X17095238Y-2880952D01*
X21333333Y-87702380D02*
X21666666Y-87226190D01*
X21904761Y-87702380D02*
X21904761Y-86702380D01*
X21523809Y-86702380D01*
X21428571Y-86750000D01*
X21380952Y-86797619D01*
X21333333Y-86892857D01*
X21333333Y-87035714D01*
X21380952Y-87130952D01*
X21428571Y-87178571D01*
X21523809Y-87226190D01*
X21904761Y-87226190D01*
X20904761Y-87178571D02*
X20571428Y-87178571D01*
X20428571Y-87702380D02*
X20904761Y-87702380D01*
X20904761Y-86702380D01*
X20428571Y-86702380D01*
X19666666Y-87178571D02*
X20000000Y-87178571D01*
X20000000Y-87702380D02*
X20000000Y-86702380D01*
X19523809Y-86702380D01*
X19000000Y-86702380D02*
X19000000Y-86940476D01*
X19238095Y-86845238D02*
X19000000Y-86940476D01*
X18761904Y-86845238D01*
X19142857Y-87130952D02*
X19000000Y-86940476D01*
X18857142Y-87130952D01*
X18238095Y-86702380D02*
X18238095Y-86940476D01*
X18476190Y-86845238D02*
X18238095Y-86940476D01*
X18000000Y-86845238D01*
X18380952Y-87130952D02*
X18238095Y-86940476D01*
X18095238Y-87130952D01*
X21333333Y-78177380D02*
X21666666Y-77701190D01*
X21904761Y-78177380D02*
X21904761Y-77177380D01*
X21523809Y-77177380D01*
X21428571Y-77225000D01*
X21380952Y-77272619D01*
X21333333Y-77367857D01*
X21333333Y-77510714D01*
X21380952Y-77605952D01*
X21428571Y-77653571D01*
X21523809Y-77701190D01*
X21904761Y-77701190D01*
X20904761Y-77653571D02*
X20571428Y-77653571D01*
X20428571Y-78177380D02*
X20904761Y-78177380D01*
X20904761Y-77177380D01*
X20428571Y-77177380D01*
X19666666Y-77653571D02*
X20000000Y-77653571D01*
X20000000Y-78177380D02*
X20000000Y-77177380D01*
X19523809Y-77177380D01*
X19000000Y-77177380D02*
X19000000Y-77415476D01*
X19238095Y-77320238D02*
X19000000Y-77415476D01*
X18761904Y-77320238D01*
X19142857Y-77605952D02*
X19000000Y-77415476D01*
X18857142Y-77605952D01*
X18238095Y-77177380D02*
X18238095Y-77415476D01*
X18476190Y-77320238D02*
X18238095Y-77415476D01*
X18000000Y-77320238D01*
X18380952Y-77605952D02*
X18238095Y-77415476D01*
X18095238Y-77605952D01*
X21333333Y-68652380D02*
X21666666Y-68176190D01*
X21904761Y-68652380D02*
X21904761Y-67652380D01*
X21523809Y-67652380D01*
X21428571Y-67700000D01*
X21380952Y-67747619D01*
X21333333Y-67842857D01*
X21333333Y-67985714D01*
X21380952Y-68080952D01*
X21428571Y-68128571D01*
X21523809Y-68176190D01*
X21904761Y-68176190D01*
X20904761Y-68128571D02*
X20571428Y-68128571D01*
X20428571Y-68652380D02*
X20904761Y-68652380D01*
X20904761Y-67652380D01*
X20428571Y-67652380D01*
X19666666Y-68128571D02*
X20000000Y-68128571D01*
X20000000Y-68652380D02*
X20000000Y-67652380D01*
X19523809Y-67652380D01*
X19000000Y-67652380D02*
X19000000Y-67890476D01*
X19238095Y-67795238D02*
X19000000Y-67890476D01*
X18761904Y-67795238D01*
X19142857Y-68080952D02*
X19000000Y-67890476D01*
X18857142Y-68080952D01*
X18238095Y-67652380D02*
X18238095Y-67890476D01*
X18476190Y-67795238D02*
X18238095Y-67890476D01*
X18000000Y-67795238D01*
X18380952Y-68080952D02*
X18238095Y-67890476D01*
X18095238Y-68080952D01*
X21333333Y-59127380D02*
X21666666Y-58651190D01*
X21904761Y-59127380D02*
X21904761Y-58127380D01*
X21523809Y-58127380D01*
X21428571Y-58175000D01*
X21380952Y-58222619D01*
X21333333Y-58317857D01*
X21333333Y-58460714D01*
X21380952Y-58555952D01*
X21428571Y-58603571D01*
X21523809Y-58651190D01*
X21904761Y-58651190D01*
X20904761Y-58603571D02*
X20571428Y-58603571D01*
X20428571Y-59127380D02*
X20904761Y-59127380D01*
X20904761Y-58127380D01*
X20428571Y-58127380D01*
X19666666Y-58603571D02*
X20000000Y-58603571D01*
X20000000Y-59127380D02*
X20000000Y-58127380D01*
X19523809Y-58127380D01*
X19000000Y-58127380D02*
X19000000Y-58365476D01*
X19238095Y-58270238D02*
X19000000Y-58365476D01*
X18761904Y-58270238D01*
X19142857Y-58555952D02*
X19000000Y-58365476D01*
X18857142Y-58555952D01*
X18238095Y-58127380D02*
X18238095Y-58365476D01*
X18476190Y-58270238D02*
X18238095Y-58365476D01*
X18000000Y-58270238D01*
X18380952Y-58555952D02*
X18238095Y-58365476D01*
X18095238Y-58555952D01*
X21333333Y-49602380D02*
X21666666Y-49126190D01*
X21904761Y-49602380D02*
X21904761Y-48602380D01*
X21523809Y-48602380D01*
X21428571Y-48650000D01*
X21380952Y-48697619D01*
X21333333Y-48792857D01*
X21333333Y-48935714D01*
X21380952Y-49030952D01*
X21428571Y-49078571D01*
X21523809Y-49126190D01*
X21904761Y-49126190D01*
X20904761Y-49078571D02*
X20571428Y-49078571D01*
X20428571Y-49602380D02*
X20904761Y-49602380D01*
X20904761Y-48602380D01*
X20428571Y-48602380D01*
X19666666Y-49078571D02*
X20000000Y-49078571D01*
X20000000Y-49602380D02*
X20000000Y-48602380D01*
X19523809Y-48602380D01*
X19000000Y-48602380D02*
X19000000Y-48840476D01*
X19238095Y-48745238D02*
X19000000Y-48840476D01*
X18761904Y-48745238D01*
X19142857Y-49030952D02*
X19000000Y-48840476D01*
X18857142Y-49030952D01*
X18238095Y-48602380D02*
X18238095Y-48840476D01*
X18476190Y-48745238D02*
X18238095Y-48840476D01*
X18000000Y-48745238D01*
X18380952Y-49030952D02*
X18238095Y-48840476D01*
X18095238Y-49030952D01*
X21333333Y-40077380D02*
X21666666Y-39601190D01*
X21904761Y-40077380D02*
X21904761Y-39077380D01*
X21523809Y-39077380D01*
X21428571Y-39125000D01*
X21380952Y-39172619D01*
X21333333Y-39267857D01*
X21333333Y-39410714D01*
X21380952Y-39505952D01*
X21428571Y-39553571D01*
X21523809Y-39601190D01*
X21904761Y-39601190D01*
X20904761Y-39553571D02*
X20571428Y-39553571D01*
X20428571Y-40077380D02*
X20904761Y-40077380D01*
X20904761Y-39077380D01*
X20428571Y-39077380D01*
X19666666Y-39553571D02*
X20000000Y-39553571D01*
X20000000Y-40077380D02*
X20000000Y-39077380D01*
X19523809Y-39077380D01*
X19000000Y-39077380D02*
X19000000Y-39315476D01*
X19238095Y-39220238D02*
X19000000Y-39315476D01*
X18761904Y-39220238D01*
X19142857Y-39505952D02*
X19000000Y-39315476D01*
X18857142Y-39505952D01*
X18238095Y-39077380D02*
X18238095Y-39315476D01*
X18476190Y-39220238D02*
X18238095Y-39315476D01*
X18000000Y-39220238D01*
X18380952Y-39505952D02*
X18238095Y-39315476D01*
X18095238Y-39505952D01*
X21333333Y-30552380D02*
X21666666Y-30076190D01*
X21904761Y-30552380D02*
X21904761Y-29552380D01*
X21523809Y-29552380D01*
X21428571Y-29600000D01*
X21380952Y-29647619D01*
X21333333Y-29742857D01*
X21333333Y-29885714D01*
X21380952Y-29980952D01*
X21428571Y-30028571D01*
X21523809Y-30076190D01*
X21904761Y-30076190D01*
X20904761Y-30028571D02*
X20571428Y-30028571D01*
X20428571Y-30552380D02*
X20904761Y-30552380D01*
X20904761Y-29552380D01*
X20428571Y-29552380D01*
X19666666Y-30028571D02*
X20000000Y-30028571D01*
X20000000Y-30552380D02*
X20000000Y-29552380D01*
X19523809Y-29552380D01*
X19000000Y-29552380D02*
X19000000Y-29790476D01*
X19238095Y-29695238D02*
X19000000Y-29790476D01*
X18761904Y-29695238D01*
X19142857Y-29980952D02*
X19000000Y-29790476D01*
X18857142Y-29980952D01*
X18238095Y-29552380D02*
X18238095Y-29790476D01*
X18476190Y-29695238D02*
X18238095Y-29790476D01*
X18000000Y-29695238D01*
X18380952Y-29980952D02*
X18238095Y-29790476D01*
X18095238Y-29980952D01*
X21333333Y-21027380D02*
X21666666Y-20551190D01*
X21904761Y-21027380D02*
X21904761Y-20027380D01*
X21523809Y-20027380D01*
X21428571Y-20075000D01*
X21380952Y-20122619D01*
X21333333Y-20217857D01*
X21333333Y-20360714D01*
X21380952Y-20455952D01*
X21428571Y-20503571D01*
X21523809Y-20551190D01*
X21904761Y-20551190D01*
X20904761Y-20503571D02*
X20571428Y-20503571D01*
X20428571Y-21027380D02*
X20904761Y-21027380D01*
X20904761Y-20027380D01*
X20428571Y-20027380D01*
X19666666Y-20503571D02*
X20000000Y-20503571D01*
X20000000Y-21027380D02*
X20000000Y-20027380D01*
X19523809Y-20027380D01*
X19000000Y-20027380D02*
X19000000Y-20265476D01*
X19238095Y-20170238D02*
X19000000Y-20265476D01*
X18761904Y-20170238D01*
X19142857Y-20455952D02*
X19000000Y-20265476D01*
X18857142Y-20455952D01*
X18238095Y-20027380D02*
X18238095Y-20265476D01*
X18476190Y-20170238D02*
X18238095Y-20265476D01*
X18000000Y-20170238D01*
X18380952Y-20455952D02*
X18238095Y-20265476D01*
X18095238Y-20455952D01*
X21333333Y-11502380D02*
X21666666Y-11026190D01*
X21904761Y-11502380D02*
X21904761Y-10502380D01*
X21523809Y-10502380D01*
X21428571Y-10550000D01*
X21380952Y-10597619D01*
X21333333Y-10692857D01*
X21333333Y-10835714D01*
X21380952Y-10930952D01*
X21428571Y-10978571D01*
X21523809Y-11026190D01*
X21904761Y-11026190D01*
X20904761Y-10978571D02*
X20571428Y-10978571D01*
X20428571Y-11502380D02*
X20904761Y-11502380D01*
X20904761Y-10502380D01*
X20428571Y-10502380D01*
X19666666Y-10978571D02*
X20000000Y-10978571D01*
X20000000Y-11502380D02*
X20000000Y-10502380D01*
X19523809Y-10502380D01*
X19000000Y-10502380D02*
X19000000Y-10740476D01*
X19238095Y-10645238D02*
X19000000Y-10740476D01*
X18761904Y-10645238D01*
X19142857Y-10930952D02*
X19000000Y-10740476D01*
X18857142Y-10930952D01*
X18238095Y-10502380D02*
X18238095Y-10740476D01*
X18476190Y-10645238D02*
X18238095Y-10740476D01*
X18000000Y-10645238D01*
X18380952Y-10930952D02*
X18238095Y-10740476D01*
X18095238Y-10930952D01*
X63333333Y-89177380D02*
X63666666Y-88701190D01*
X63904761Y-89177380D02*
X63904761Y-88177380D01*
X63523809Y-88177380D01*
X63428571Y-88225000D01*
X63380952Y-88272619D01*
X63333333Y-88367857D01*
X63333333Y-88510714D01*
X63380952Y-88605952D01*
X63428571Y-88653571D01*
X63523809Y-88701190D01*
X63904761Y-88701190D01*
X62904761Y-88653571D02*
X62571428Y-88653571D01*
X62428571Y-89177380D02*
X62904761Y-89177380D01*
X62904761Y-88177380D01*
X62428571Y-88177380D01*
X61666666Y-88653571D02*
X62000000Y-88653571D01*
X62000000Y-89177380D02*
X62000000Y-88177380D01*
X61523809Y-88177380D01*
X61000000Y-88177380D02*
X61000000Y-88415476D01*
X61238095Y-88320238D02*
X61000000Y-88415476D01*
X60761904Y-88320238D01*
X61142857Y-88605952D02*
X61000000Y-88415476D01*
X60857142Y-88605952D01*
X60238095Y-88177380D02*
X60238095Y-88415476D01*
X60476190Y-88320238D02*
X60238095Y-88415476D01*
X60000000Y-88320238D01*
X60380952Y-88605952D02*
X60238095Y-88415476D01*
X60095238Y-88605952D01*
X63333333Y-70127380D02*
X63666666Y-69651190D01*
X63904761Y-70127380D02*
X63904761Y-69127380D01*
X63523809Y-69127380D01*
X63428571Y-69175000D01*
X63380952Y-69222619D01*
X63333333Y-69317857D01*
X63333333Y-69460714D01*
X63380952Y-69555952D01*
X63428571Y-69603571D01*
X63523809Y-69651190D01*
X63904761Y-69651190D01*
X62904761Y-69603571D02*
X62571428Y-69603571D01*
X62428571Y-70127380D02*
X62904761Y-70127380D01*
X62904761Y-69127380D01*
X62428571Y-69127380D01*
X61666666Y-69603571D02*
X62000000Y-69603571D01*
X62000000Y-70127380D02*
X62000000Y-69127380D01*
X61523809Y-69127380D01*
X61000000Y-69127380D02*
X61000000Y-69365476D01*
X61238095Y-69270238D02*
X61000000Y-69365476D01*
X60761904Y-69270238D01*
X61142857Y-69555952D02*
X61000000Y-69365476D01*
X60857142Y-69555952D01*
X60238095Y-69127380D02*
X60238095Y-69365476D01*
X60476190Y-69270238D02*
X60238095Y-69365476D01*
X60000000Y-69270238D01*
X60380952Y-69555952D02*
X60238095Y-69365476D01*
X60095238Y-69555952D01*
X63333333Y-51077380D02*
X63666666Y-50601190D01*
X63904761Y-51077380D02*
X63904761Y-50077380D01*
X63523809Y-50077380D01*
X63428571Y-50125000D01*
X63380952Y-50172619D01*
X63333333Y-50267857D01*
X63333333Y-50410714D01*
X63380952Y-50505952D01*
X63428571Y-50553571D01*
X63523809Y-50601190D01*
X63904761Y-50601190D01*
X62904761Y-50553571D02*
X62571428Y-50553571D01*
X62428571Y-51077380D02*
X62904761Y-51077380D01*
X62904761Y-50077380D01*
X62428571Y-50077380D01*
X61666666Y-50553571D02*
X62000000Y-50553571D01*
X62000000Y-51077380D02*
X62000000Y-50077380D01*
X61523809Y-50077380D01*
X61000000Y-50077380D02*
X61000000Y-50315476D01*
X61238095Y-50220238D02*
X61000000Y-50315476D01*
X60761904Y-50220238D01*
X61142857Y-50505952D02*
X61000000Y-50315476D01*
X60857142Y-50505952D01*
X60238095Y-50077380D02*
X60238095Y-50315476D01*
X60476190Y-50220238D02*
X60238095Y-50315476D01*
X60000000Y-50220238D01*
X60380952Y-50505952D02*
X60238095Y-50315476D01*
X60095238Y-50505952D01*
X63333333Y-12977380D02*
X63666666Y-12501190D01*
X63904761Y-12977380D02*
X63904761Y-11977380D01*
X63523809Y-11977380D01*
X63428571Y-12025000D01*
X63380952Y-12072619D01*
X63333333Y-12167857D01*
X63333333Y-12310714D01*
X63380952Y-12405952D01*
X63428571Y-12453571D01*
X63523809Y-12501190D01*
X63904761Y-12501190D01*
X62904761Y-12453571D02*
X62571428Y-12453571D01*
X62428571Y-12977380D02*
X62904761Y-12977380D01*
X62904761Y-11977380D01*
X62428571Y-11977380D01*
X61666666Y-12453571D02*
X62000000Y-12453571D01*
X62000000Y-12977380D02*
X62000000Y-11977380D01*
X61523809Y-11977380D01*
X61000000Y-11977380D02*
X61000000Y-12215476D01*
X61238095Y-12120238D02*
X61000000Y-12215476D01*
X60761904Y-12120238D01*
X61142857Y-12405952D02*
X61000000Y-12215476D01*
X60857142Y-12405952D01*
X60238095Y-11977380D02*
X60238095Y-12215476D01*
X60476190Y-12120238D02*
X60238095Y-12215476D01*
X60000000Y-12120238D01*
X60380952Y-12405952D02*
X60238095Y-12215476D01*
X60095238Y-12405952D01*
X63333333Y-32027380D02*
X63666666Y-31551190D01*
X63904761Y-32027380D02*
X63904761Y-31027380D01*
X63523809Y-31027380D01*
X63428571Y-31075000D01*
X63380952Y-31122619D01*
X63333333Y-31217857D01*
X63333333Y-31360714D01*
X63380952Y-31455952D01*
X63428571Y-31503571D01*
X63523809Y-31551190D01*
X63904761Y-31551190D01*
X62904761Y-31503571D02*
X62571428Y-31503571D01*
X62428571Y-32027380D02*
X62904761Y-32027380D01*
X62904761Y-31027380D01*
X62428571Y-31027380D01*
X61666666Y-31503571D02*
X62000000Y-31503571D01*
X62000000Y-32027380D02*
X62000000Y-31027380D01*
X61523809Y-31027380D01*
X61000000Y-31027380D02*
X61000000Y-31265476D01*
X61238095Y-31170238D02*
X61000000Y-31265476D01*
X60761904Y-31170238D01*
X61142857Y-31455952D02*
X61000000Y-31265476D01*
X60857142Y-31455952D01*
X60238095Y-31027380D02*
X60238095Y-31265476D01*
X60476190Y-31170238D02*
X60238095Y-31265476D01*
X60000000Y-31170238D01*
X60380952Y-31455952D02*
X60238095Y-31265476D01*
X60095238Y-31455952D01*
X63333333Y-79652380D02*
X63666666Y-79176190D01*
X63904761Y-79652380D02*
X63904761Y-78652380D01*
X63523809Y-78652380D01*
X63428571Y-78700000D01*
X63380952Y-78747619D01*
X63333333Y-78842857D01*
X63333333Y-78985714D01*
X63380952Y-79080952D01*
X63428571Y-79128571D01*
X63523809Y-79176190D01*
X63904761Y-79176190D01*
X62904761Y-79128571D02*
X62571428Y-79128571D01*
X62428571Y-79652380D02*
X62904761Y-79652380D01*
X62904761Y-78652380D01*
X62428571Y-78652380D01*
X61666666Y-79128571D02*
X62000000Y-79128571D01*
X62000000Y-79652380D02*
X62000000Y-78652380D01*
X61523809Y-78652380D01*
X61000000Y-78652380D02*
X61000000Y-78890476D01*
X61238095Y-78795238D02*
X61000000Y-78890476D01*
X60761904Y-78795238D01*
X61142857Y-79080952D02*
X61000000Y-78890476D01*
X60857142Y-79080952D01*
X60238095Y-78652380D02*
X60238095Y-78890476D01*
X60476190Y-78795238D02*
X60238095Y-78890476D01*
X60000000Y-78795238D01*
X60380952Y-79080952D02*
X60238095Y-78890476D01*
X60095238Y-79080952D01*
X63333333Y-3452380D02*
X63666666Y-2976190D01*
X63904761Y-3452380D02*
X63904761Y-2452380D01*
X63523809Y-2452380D01*
X63428571Y-2500000D01*
X63380952Y-2547619D01*
X63333333Y-2642857D01*
X63333333Y-2785714D01*
X63380952Y-2880952D01*
X63428571Y-2928571D01*
X63523809Y-2976190D01*
X63904761Y-2976190D01*
X62904761Y-2928571D02*
X62571428Y-2928571D01*
X62428571Y-3452380D02*
X62904761Y-3452380D01*
X62904761Y-2452380D01*
X62428571Y-2452380D01*
X61666666Y-2928571D02*
X62000000Y-2928571D01*
X62000000Y-3452380D02*
X62000000Y-2452380D01*
X61523809Y-2452380D01*
X61000000Y-2452380D02*
X61000000Y-2690476D01*
X61238095Y-2595238D02*
X61000000Y-2690476D01*
X60761904Y-2595238D01*
X61142857Y-2880952D02*
X61000000Y-2690476D01*
X60857142Y-2880952D01*
X60238095Y-2452380D02*
X60238095Y-2690476D01*
X60476190Y-2595238D02*
X60238095Y-2690476D01*
X60000000Y-2595238D01*
X60380952Y-2880952D02*
X60238095Y-2690476D01*
X60095238Y-2880952D01*
X63333333Y-22502380D02*
X63666666Y-22026190D01*
X63904761Y-22502380D02*
X63904761Y-21502380D01*
X63523809Y-21502380D01*
X63428571Y-21550000D01*
X63380952Y-21597619D01*
X63333333Y-21692857D01*
X63333333Y-21835714D01*
X63380952Y-21930952D01*
X63428571Y-21978571D01*
X63523809Y-22026190D01*
X63904761Y-22026190D01*
X62904761Y-21978571D02*
X62571428Y-21978571D01*
X62428571Y-22502380D02*
X62904761Y-22502380D01*
X62904761Y-21502380D01*
X62428571Y-21502380D01*
X61666666Y-21978571D02*
X62000000Y-21978571D01*
X62000000Y-22502380D02*
X62000000Y-21502380D01*
X61523809Y-21502380D01*
X61000000Y-21502380D02*
X61000000Y-21740476D01*
X61238095Y-21645238D02*
X61000000Y-21740476D01*
X60761904Y-21645238D01*
X61142857Y-21930952D02*
X61000000Y-21740476D01*
X60857142Y-21930952D01*
X60238095Y-21502380D02*
X60238095Y-21740476D01*
X60476190Y-21645238D02*
X60238095Y-21740476D01*
X60000000Y-21645238D01*
X60380952Y-21930952D02*
X60238095Y-21740476D01*
X60095238Y-21930952D01*
X63333333Y-60602380D02*
X63666666Y-60126190D01*
X63904761Y-60602380D02*
X63904761Y-59602380D01*
X63523809Y-59602380D01*
X63428571Y-59650000D01*
X63380952Y-59697619D01*
X63333333Y-59792857D01*
X63333333Y-59935714D01*
X63380952Y-60030952D01*
X63428571Y-60078571D01*
X63523809Y-60126190D01*
X63904761Y-60126190D01*
X62904761Y-60078571D02*
X62571428Y-60078571D01*
X62428571Y-60602380D02*
X62904761Y-60602380D01*
X62904761Y-59602380D01*
X62428571Y-59602380D01*
X61666666Y-60078571D02*
X62000000Y-60078571D01*
X62000000Y-60602380D02*
X62000000Y-59602380D01*
X61523809Y-59602380D01*
X61000000Y-59602380D02*
X61000000Y-59840476D01*
X61238095Y-59745238D02*
X61000000Y-59840476D01*
X60761904Y-59745238D01*
X61142857Y-60030952D02*
X61000000Y-59840476D01*
X60857142Y-60030952D01*
X60238095Y-59602380D02*
X60238095Y-59840476D01*
X60476190Y-59745238D02*
X60238095Y-59840476D01*
X60000000Y-59745238D01*
X60380952Y-60030952D02*
X60238095Y-59840476D01*
X60095238Y-60030952D01*
X63333333Y-41552380D02*
X63666666Y-41076190D01*
X63904761Y-41552380D02*
X63904761Y-40552380D01*
X63523809Y-40552380D01*
X63428571Y-40600000D01*
X63380952Y-40647619D01*
X63333333Y-40742857D01*
X63333333Y-40885714D01*
X63380952Y-40980952D01*
X63428571Y-41028571D01*
X63523809Y-41076190D01*
X63904761Y-41076190D01*
X62904761Y-41028571D02*
X62571428Y-41028571D01*
X62428571Y-41552380D02*
X62904761Y-41552380D01*
X62904761Y-40552380D01*
X62428571Y-40552380D01*
X61666666Y-41028571D02*
X62000000Y-41028571D01*
X62000000Y-41552380D02*
X62000000Y-40552380D01*
X61523809Y-40552380D01*
X61000000Y-40552380D02*
X61000000Y-40790476D01*
X61238095Y-40695238D02*
X61000000Y-40790476D01*
X60761904Y-40695238D01*
X61142857Y-40980952D02*
X61000000Y-40790476D01*
X60857142Y-40980952D01*
X60238095Y-40552380D02*
X60238095Y-40790476D01*
X60476190Y-40695238D02*
X60238095Y-40790476D01*
X60000000Y-40695238D01*
X60380952Y-40980952D02*
X60238095Y-40790476D01*
X60095238Y-40980952D01*
X87058333Y-87702380D02*
X87391666Y-87226190D01*
X87629761Y-87702380D02*
X87629761Y-86702380D01*
X87248809Y-86702380D01*
X87153571Y-86750000D01*
X87105952Y-86797619D01*
X87058333Y-86892857D01*
X87058333Y-87035714D01*
X87105952Y-87130952D01*
X87153571Y-87178571D01*
X87248809Y-87226190D01*
X87629761Y-87226190D01*
X86629761Y-87178571D02*
X86296428Y-87178571D01*
X86153571Y-87702380D02*
X86629761Y-87702380D01*
X86629761Y-86702380D01*
X86153571Y-86702380D01*
X85391666Y-87178571D02*
X85725000Y-87178571D01*
X85725000Y-87702380D02*
X85725000Y-86702380D01*
X85248809Y-86702380D01*
X84725000Y-86702380D02*
X84725000Y-86940476D01*
X84963095Y-86845238D02*
X84725000Y-86940476D01*
X84486904Y-86845238D01*
X84867857Y-87130952D02*
X84725000Y-86940476D01*
X84582142Y-87130952D01*
X83963095Y-86702380D02*
X83963095Y-86940476D01*
X84201190Y-86845238D02*
X83963095Y-86940476D01*
X83725000Y-86845238D01*
X84105952Y-87130952D02*
X83963095Y-86940476D01*
X83820238Y-87130952D01*
X87058333Y-68652380D02*
X87391666Y-68176190D01*
X87629761Y-68652380D02*
X87629761Y-67652380D01*
X87248809Y-67652380D01*
X87153571Y-67700000D01*
X87105952Y-67747619D01*
X87058333Y-67842857D01*
X87058333Y-67985714D01*
X87105952Y-68080952D01*
X87153571Y-68128571D01*
X87248809Y-68176190D01*
X87629761Y-68176190D01*
X86629761Y-68128571D02*
X86296428Y-68128571D01*
X86153571Y-68652380D02*
X86629761Y-68652380D01*
X86629761Y-67652380D01*
X86153571Y-67652380D01*
X85391666Y-68128571D02*
X85725000Y-68128571D01*
X85725000Y-68652380D02*
X85725000Y-67652380D01*
X85248809Y-67652380D01*
X84725000Y-67652380D02*
X84725000Y-67890476D01*
X84963095Y-67795238D02*
X84725000Y-67890476D01*
X84486904Y-67795238D01*
X84867857Y-68080952D02*
X84725000Y-67890476D01*
X84582142Y-68080952D01*
X83963095Y-67652380D02*
X83963095Y-67890476D01*
X84201190Y-67795238D02*
X83963095Y-67890476D01*
X83725000Y-67795238D01*
X84105952Y-68080952D02*
X83963095Y-67890476D01*
X83820238Y-68080952D01*
X87058333Y-49602380D02*
X87391666Y-49126190D01*
X87629761Y-49602380D02*
X87629761Y-48602380D01*
X87248809Y-48602380D01*
X87153571Y-48650000D01*
X87105952Y-48697619D01*
X87058333Y-48792857D01*
X87058333Y-48935714D01*
X87105952Y-49030952D01*
X87153571Y-49078571D01*
X87248809Y-49126190D01*
X87629761Y-49126190D01*
X86629761Y-49078571D02*
X86296428Y-49078571D01*
X86153571Y-49602380D02*
X86629761Y-49602380D01*
X86629761Y-48602380D01*
X86153571Y-48602380D01*
X85391666Y-49078571D02*
X85725000Y-49078571D01*
X85725000Y-49602380D02*
X85725000Y-48602380D01*
X85248809Y-48602380D01*
X84725000Y-48602380D02*
X84725000Y-48840476D01*
X84963095Y-48745238D02*
X84725000Y-48840476D01*
X84486904Y-48745238D01*
X84867857Y-49030952D02*
X84725000Y-48840476D01*
X84582142Y-49030952D01*
X83963095Y-48602380D02*
X83963095Y-48840476D01*
X84201190Y-48745238D02*
X83963095Y-48840476D01*
X83725000Y-48745238D01*
X84105952Y-49030952D02*
X83963095Y-48840476D01*
X83820238Y-49030952D01*
X87058333Y-30552380D02*
X87391666Y-30076190D01*
X87629761Y-30552380D02*
X87629761Y-29552380D01*
X87248809Y-29552380D01*
X87153571Y-29600000D01*
X87105952Y-29647619D01*
X87058333Y-29742857D01*
X87058333Y-29885714D01*
X87105952Y-29980952D01*
X87153571Y-30028571D01*
X87248809Y-30076190D01*
X87629761Y-30076190D01*
X86629761Y-30028571D02*
X86296428Y-30028571D01*
X86153571Y-30552380D02*
X86629761Y-30552380D01*
X86629761Y-29552380D01*
X86153571Y-29552380D01*
X85391666Y-30028571D02*
X85725000Y-30028571D01*
X85725000Y-30552380D02*
X85725000Y-29552380D01*
X85248809Y-29552380D01*
X84725000Y-29552380D02*
X84725000Y-29790476D01*
X84963095Y-29695238D02*
X84725000Y-29790476D01*
X84486904Y-29695238D01*
X84867857Y-29980952D02*
X84725000Y-29790476D01*
X84582142Y-29980952D01*
X83963095Y-29552380D02*
X83963095Y-29790476D01*
X84201190Y-29695238D02*
X83963095Y-29790476D01*
X83725000Y-29695238D01*
X84105952Y-29980952D02*
X83963095Y-29790476D01*
X83820238Y-29980952D01*
X87058333Y-11502380D02*
X87391666Y-11026190D01*
X87629761Y-11502380D02*
X87629761Y-10502380D01*
X87248809Y-10502380D01*
X87153571Y-10550000D01*
X87105952Y-10597619D01*
X87058333Y-10692857D01*
X87058333Y-10835714D01*
X87105952Y-10930952D01*
X87153571Y-10978571D01*
X87248809Y-11026190D01*
X87629761Y-11026190D01*
X86629761Y-10978571D02*
X86296428Y-10978571D01*
X86153571Y-11502380D02*
X86629761Y-11502380D01*
X86629761Y-10502380D01*
X86153571Y-10502380D01*
X85391666Y-10978571D02*
X85725000Y-10978571D01*
X85725000Y-11502380D02*
X85725000Y-10502380D01*
X85248809Y-10502380D01*
X84725000Y-10502380D02*
X84725000Y-10740476D01*
X84963095Y-10645238D02*
X84725000Y-10740476D01*
X84486904Y-10645238D01*
X84867857Y-10930952D02*
X84725000Y-10740476D01*
X84582142Y-10930952D01*
X83963095Y-10502380D02*
X83963095Y-10740476D01*
X84201190Y-10645238D02*
X83963095Y-10740476D01*
X83725000Y-10645238D01*
X84105952Y-10930952D02*
X83963095Y-10740476D01*
X83820238Y-10930952D01*
X87058333Y-1977380D02*
X87391666Y-1501190D01*
X87629761Y-1977380D02*
X87629761Y-977380D01*
X87248809Y-977380D01*
X87153571Y-1025000D01*
X87105952Y-1072619D01*
X87058333Y-1167857D01*
X87058333Y-1310714D01*
X87105952Y-1405952D01*
X87153571Y-1453571D01*
X87248809Y-1501190D01*
X87629761Y-1501190D01*
X86629761Y-1453571D02*
X86296428Y-1453571D01*
X86153571Y-1977380D02*
X86629761Y-1977380D01*
X86629761Y-977380D01*
X86153571Y-977380D01*
X85391666Y-1453571D02*
X85725000Y-1453571D01*
X85725000Y-1977380D02*
X85725000Y-977380D01*
X85248809Y-977380D01*
X84725000Y-977380D02*
X84725000Y-1215476D01*
X84963095Y-1120238D02*
X84725000Y-1215476D01*
X84486904Y-1120238D01*
X84867857Y-1405952D02*
X84725000Y-1215476D01*
X84582142Y-1405952D01*
X83963095Y-977380D02*
X83963095Y-1215476D01*
X84201190Y-1120238D02*
X83963095Y-1215476D01*
X83725000Y-1120238D01*
X84105952Y-1405952D02*
X83963095Y-1215476D01*
X83820238Y-1405952D01*
X87058333Y-78177380D02*
X87391666Y-77701190D01*
X87629761Y-78177380D02*
X87629761Y-77177380D01*
X87248809Y-77177380D01*
X87153571Y-77225000D01*
X87105952Y-77272619D01*
X87058333Y-77367857D01*
X87058333Y-77510714D01*
X87105952Y-77605952D01*
X87153571Y-77653571D01*
X87248809Y-77701190D01*
X87629761Y-77701190D01*
X86629761Y-77653571D02*
X86296428Y-77653571D01*
X86153571Y-78177380D02*
X86629761Y-78177380D01*
X86629761Y-77177380D01*
X86153571Y-77177380D01*
X85391666Y-77653571D02*
X85725000Y-77653571D01*
X85725000Y-78177380D02*
X85725000Y-77177380D01*
X85248809Y-77177380D01*
X84725000Y-77177380D02*
X84725000Y-77415476D01*
X84963095Y-77320238D02*
X84725000Y-77415476D01*
X84486904Y-77320238D01*
X84867857Y-77605952D02*
X84725000Y-77415476D01*
X84582142Y-77605952D01*
X83963095Y-77177380D02*
X83963095Y-77415476D01*
X84201190Y-77320238D02*
X83963095Y-77415476D01*
X83725000Y-77320238D01*
X84105952Y-77605952D02*
X83963095Y-77415476D01*
X83820238Y-77605952D01*
X87058333Y-59127380D02*
X87391666Y-58651190D01*
X87629761Y-59127380D02*
X87629761Y-58127380D01*
X87248809Y-58127380D01*
X87153571Y-58175000D01*
X87105952Y-58222619D01*
X87058333Y-58317857D01*
X87058333Y-58460714D01*
X87105952Y-58555952D01*
X87153571Y-58603571D01*
X87248809Y-58651190D01*
X87629761Y-58651190D01*
X86629761Y-58603571D02*
X86296428Y-58603571D01*
X86153571Y-59127380D02*
X86629761Y-59127380D01*
X86629761Y-58127380D01*
X86153571Y-58127380D01*
X85391666Y-58603571D02*
X85725000Y-58603571D01*
X85725000Y-59127380D02*
X85725000Y-58127380D01*
X85248809Y-58127380D01*
X84725000Y-58127380D02*
X84725000Y-58365476D01*
X84963095Y-58270238D02*
X84725000Y-58365476D01*
X84486904Y-58270238D01*
X84867857Y-58555952D02*
X84725000Y-58365476D01*
X84582142Y-58555952D01*
X83963095Y-58127380D02*
X83963095Y-58365476D01*
X84201190Y-58270238D02*
X83963095Y-58365476D01*
X83725000Y-58270238D01*
X84105952Y-58555952D02*
X83963095Y-58365476D01*
X83820238Y-58555952D01*
X87058333Y-40077380D02*
X87391666Y-39601190D01*
X87629761Y-40077380D02*
X87629761Y-39077380D01*
X87248809Y-39077380D01*
X87153571Y-39125000D01*
X87105952Y-39172619D01*
X87058333Y-39267857D01*
X87058333Y-39410714D01*
X87105952Y-39505952D01*
X87153571Y-39553571D01*
X87248809Y-39601190D01*
X87629761Y-39601190D01*
X86629761Y-39553571D02*
X86296428Y-39553571D01*
X86153571Y-40077380D02*
X86629761Y-40077380D01*
X86629761Y-39077380D01*
X86153571Y-39077380D01*
X85391666Y-39553571D02*
X85725000Y-39553571D01*
X85725000Y-40077380D02*
X85725000Y-39077380D01*
X85248809Y-39077380D01*
X84725000Y-39077380D02*
X84725000Y-39315476D01*
X84963095Y-39220238D02*
X84725000Y-39315476D01*
X84486904Y-39220238D01*
X84867857Y-39505952D02*
X84725000Y-39315476D01*
X84582142Y-39505952D01*
X83963095Y-39077380D02*
X83963095Y-39315476D01*
X84201190Y-39220238D02*
X83963095Y-39315476D01*
X83725000Y-39220238D01*
X84105952Y-39505952D02*
X83963095Y-39315476D01*
X83820238Y-39505952D01*
X87058333Y-21027380D02*
X87391666Y-20551190D01*
X87629761Y-21027380D02*
X87629761Y-20027380D01*
X87248809Y-20027380D01*
X87153571Y-20075000D01*
X87105952Y-20122619D01*
X87058333Y-20217857D01*
X87058333Y-20360714D01*
X87105952Y-20455952D01*
X87153571Y-20503571D01*
X87248809Y-20551190D01*
X87629761Y-20551190D01*
X86629761Y-20503571D02*
X86296428Y-20503571D01*
X86153571Y-21027380D02*
X86629761Y-21027380D01*
X86629761Y-20027380D01*
X86153571Y-20027380D01*
X85391666Y-20503571D02*
X85725000Y-20503571D01*
X85725000Y-21027380D02*
X85725000Y-20027380D01*
X85248809Y-20027380D01*
X84725000Y-20027380D02*
X84725000Y-20265476D01*
X84963095Y-20170238D02*
X84725000Y-20265476D01*
X84486904Y-20170238D01*
X84867857Y-20455952D02*
X84725000Y-20265476D01*
X84582142Y-20455952D01*
X83963095Y-20027380D02*
X83963095Y-20265476D01*
X84201190Y-20170238D02*
X83963095Y-20265476D01*
X83725000Y-20170238D01*
X84105952Y-20455952D02*
X83963095Y-20265476D01*
X83820238Y-20455952D01*
M02*
