G04 #@! TF.GenerationSoftware,KiCad,Pcbnew,(5.1.4)-1*
G04 #@! TF.CreationDate,2020-03-17T00:39:42-07:00*
G04 #@! TF.ProjectId,mad cat,6d616420-6361-4742-9e6b-696361645f70,rev?*
G04 #@! TF.SameCoordinates,Original*
G04 #@! TF.FileFunction,Paste,Bot*
G04 #@! TF.FilePolarity,Positive*
%FSLAX46Y46*%
G04 Gerber Fmt 4.6, Leading zero omitted, Abs format (unit mm)*
G04 Created by KiCad (PCBNEW (5.1.4)-1) date 2020-03-17 00:39:42*
%MOMM*%
%LPD*%
G04 APERTURE LIST*
%ADD10R,1.200000X0.900000*%
%ADD11R,0.900000X1.200000*%
%ADD12C,0.100000*%
%ADD13C,0.875000*%
%ADD14C,0.550000*%
%ADD15C,1.200000*%
%ADD16C,0.600000*%
%ADD17R,1.200000X1.200000*%
%ADD18R,1.600000X1.500000*%
%ADD19C,1.150000*%
%ADD20R,1.000000X1.400000*%
%ADD21R,1.200000X1.400000*%
%ADD22C,0.975000*%
G04 APERTURE END LIST*
D10*
X141600000Y-104150000D03*
X141600000Y-107450000D03*
D11*
X347100000Y-99050000D03*
X343800000Y-99050000D03*
D10*
X5700000Y-14150000D03*
X5700000Y-17450000D03*
X27925000Y-12875000D03*
X27925000Y-16175000D03*
X53325000Y-14875000D03*
X53325000Y-18175000D03*
X72375000Y-14875000D03*
X72375000Y-18175000D03*
X91425000Y-14875000D03*
X91425000Y-18175000D03*
X110475000Y-14875000D03*
X110475000Y-18175000D03*
X139050000Y-14875000D03*
X139050000Y-18175000D03*
X158100000Y-14875000D03*
X158100000Y-18175000D03*
X177150000Y-14875000D03*
X177150000Y-18175000D03*
X196200000Y-14875000D03*
X196200000Y-18175000D03*
X224775000Y-14875000D03*
X224775000Y-18175000D03*
X243825000Y-14875000D03*
X243825000Y-18175000D03*
X262875000Y-14875000D03*
X262875000Y-18175000D03*
X281925000Y-14875000D03*
X281925000Y-18175000D03*
X307325000Y-14875000D03*
X307325000Y-18175000D03*
X326375000Y-14875000D03*
X326375000Y-18175000D03*
X345425000Y-14875000D03*
X345425000Y-18175000D03*
X17525000Y-38775000D03*
X17525000Y-42075000D03*
X27925000Y-40275000D03*
X27925000Y-43575000D03*
X46975000Y-40275000D03*
X46975000Y-43575000D03*
X66025000Y-40275000D03*
X66025000Y-43575000D03*
X85075000Y-40275000D03*
X85075000Y-43575000D03*
X104125000Y-40275000D03*
X104125000Y-43575000D03*
X123175000Y-40275000D03*
X123175000Y-43575000D03*
X142225000Y-40275000D03*
X142225000Y-43575000D03*
X161275000Y-40275000D03*
X161275000Y-43575000D03*
X180325000Y-40275000D03*
X180325000Y-43575000D03*
X199375000Y-40275000D03*
X199375000Y-43575000D03*
X218425000Y-40275000D03*
X218425000Y-43575000D03*
X237475000Y-40275000D03*
X237475000Y-43575000D03*
X256525000Y-40275000D03*
X256525000Y-43575000D03*
X285100000Y-40275000D03*
X285100000Y-43575000D03*
X326375000Y-39350000D03*
X326375000Y-42650000D03*
X345425000Y-39350000D03*
X345425000Y-42650000D03*
X17525000Y-57825000D03*
X17525000Y-61125000D03*
X32687500Y-59325000D03*
X32687500Y-62625000D03*
X56500000Y-59325000D03*
X56500000Y-62625000D03*
X75550000Y-59325000D03*
X75550000Y-62625000D03*
X94600000Y-59325000D03*
X94600000Y-62625000D03*
X113650000Y-59325000D03*
X113650000Y-62625000D03*
X132700000Y-59325000D03*
X132700000Y-62625000D03*
X151750000Y-59325000D03*
X151750000Y-62625000D03*
X170800000Y-59325000D03*
X170800000Y-62625000D03*
X189850000Y-59325000D03*
X189850000Y-62625000D03*
X208900000Y-59325000D03*
X208900000Y-62625000D03*
X227950000Y-59325000D03*
X227950000Y-62625000D03*
X247000000Y-59325000D03*
X247000000Y-62625000D03*
X266050000Y-59325000D03*
X266050000Y-62625000D03*
X289862500Y-59325000D03*
X289862500Y-62625000D03*
X294481250Y-40418750D03*
X294481250Y-43718750D03*
X345425000Y-45350000D03*
X345425000Y-48650000D03*
X17525000Y-76875000D03*
X17525000Y-80175000D03*
X35068750Y-78375000D03*
X35068750Y-81675000D03*
X61262500Y-78375000D03*
X61262500Y-81675000D03*
X80312500Y-78375000D03*
X80312500Y-81675000D03*
X99362500Y-78375000D03*
X99362500Y-81675000D03*
X118412500Y-78375000D03*
X118412500Y-81675000D03*
X137462500Y-78375000D03*
X137462500Y-81675000D03*
X156512500Y-78375000D03*
X156512500Y-81675000D03*
X175562500Y-78375000D03*
X175562500Y-81675000D03*
X194612500Y-78375000D03*
X194612500Y-81675000D03*
X213662500Y-78375000D03*
X213662500Y-81675000D03*
X232712500Y-78375000D03*
X232712500Y-81675000D03*
X251762500Y-78375000D03*
X251762500Y-81675000D03*
X268000000Y-78375000D03*
X268000000Y-81675000D03*
X282718750Y-78375000D03*
X282718750Y-81675000D03*
X320025000Y-68850000D03*
X320025000Y-72150000D03*
X345425000Y-78350000D03*
X345425000Y-81650000D03*
X17525000Y-95925000D03*
X17525000Y-99225000D03*
X27925000Y-97425000D03*
X27925000Y-100725000D03*
X51737500Y-97425000D03*
X51737500Y-100725000D03*
X70787500Y-97425000D03*
X70787500Y-100725000D03*
X89837500Y-97425000D03*
X89837500Y-100725000D03*
X108887500Y-94425000D03*
X108887500Y-97725000D03*
X127937500Y-97425000D03*
X127937500Y-100725000D03*
X146987500Y-97425000D03*
X146987500Y-100725000D03*
X166037500Y-97425000D03*
X166037500Y-100725000D03*
X185087500Y-97425000D03*
X185087500Y-100725000D03*
X203137500Y-97425000D03*
X203137500Y-100725000D03*
X223187500Y-97425000D03*
X223187500Y-100725000D03*
X242237500Y-97425000D03*
X242237500Y-100725000D03*
X277812500Y-97568750D03*
X277812500Y-100868750D03*
X292000000Y-97568750D03*
X292000000Y-100868750D03*
X320025000Y-78375000D03*
X320025000Y-81675000D03*
X320025000Y-103775000D03*
X320025000Y-107075000D03*
X17500000Y-121350000D03*
X17500000Y-124650000D03*
X30187500Y-113975000D03*
X30187500Y-117275000D03*
X56500000Y-113850000D03*
X56500000Y-117150000D03*
X80000000Y-113850000D03*
X80000000Y-117150000D03*
X222000000Y-116475000D03*
X222000000Y-119775000D03*
X247000000Y-116475000D03*
X247000000Y-119775000D03*
X270812500Y-116475000D03*
X270812500Y-119775000D03*
X299975000Y-117825000D03*
X299975000Y-121125000D03*
X319025000Y-117825000D03*
X319025000Y-121125000D03*
X338075000Y-117825000D03*
X338075000Y-121125000D03*
D12*
G36*
X112838077Y-107003274D02*
G01*
X112859312Y-107006424D01*
X112880136Y-107011640D01*
X112900348Y-107018872D01*
X112919754Y-107028051D01*
X112938167Y-107039087D01*
X112955410Y-107051875D01*
X112971316Y-107066291D01*
X113333709Y-107428684D01*
X113348125Y-107444590D01*
X113360913Y-107461833D01*
X113371949Y-107480246D01*
X113381128Y-107499652D01*
X113388360Y-107519864D01*
X113393576Y-107540688D01*
X113396726Y-107561923D01*
X113397779Y-107583364D01*
X113396726Y-107604805D01*
X113393576Y-107626040D01*
X113388360Y-107646864D01*
X113381128Y-107667076D01*
X113371949Y-107686482D01*
X113360913Y-107704895D01*
X113348125Y-107722138D01*
X113333709Y-107738044D01*
X113024350Y-108047403D01*
X113008444Y-108061819D01*
X112991201Y-108074607D01*
X112972788Y-108085643D01*
X112953382Y-108094822D01*
X112933170Y-108102054D01*
X112912346Y-108107270D01*
X112891111Y-108110420D01*
X112869670Y-108111473D01*
X112848229Y-108110420D01*
X112826994Y-108107270D01*
X112806170Y-108102054D01*
X112785958Y-108094822D01*
X112766552Y-108085643D01*
X112748139Y-108074607D01*
X112730896Y-108061819D01*
X112714990Y-108047403D01*
X112352597Y-107685010D01*
X112338181Y-107669104D01*
X112325393Y-107651861D01*
X112314357Y-107633448D01*
X112305178Y-107614042D01*
X112297946Y-107593830D01*
X112292730Y-107573006D01*
X112289580Y-107551771D01*
X112288527Y-107530330D01*
X112289580Y-107508889D01*
X112292730Y-107487654D01*
X112297946Y-107466830D01*
X112305178Y-107446618D01*
X112314357Y-107427212D01*
X112325393Y-107408799D01*
X112338181Y-107391556D01*
X112352597Y-107375650D01*
X112661956Y-107066291D01*
X112677862Y-107051875D01*
X112695105Y-107039087D01*
X112713518Y-107028051D01*
X112732924Y-107018872D01*
X112753136Y-107011640D01*
X112773960Y-107006424D01*
X112795195Y-107003274D01*
X112816636Y-107002221D01*
X112838077Y-107003274D01*
X112838077Y-107003274D01*
G37*
D13*
X112843153Y-107556847D03*
D12*
G36*
X113951771Y-105889580D02*
G01*
X113973006Y-105892730D01*
X113993830Y-105897946D01*
X114014042Y-105905178D01*
X114033448Y-105914357D01*
X114051861Y-105925393D01*
X114069104Y-105938181D01*
X114085010Y-105952597D01*
X114447403Y-106314990D01*
X114461819Y-106330896D01*
X114474607Y-106348139D01*
X114485643Y-106366552D01*
X114494822Y-106385958D01*
X114502054Y-106406170D01*
X114507270Y-106426994D01*
X114510420Y-106448229D01*
X114511473Y-106469670D01*
X114510420Y-106491111D01*
X114507270Y-106512346D01*
X114502054Y-106533170D01*
X114494822Y-106553382D01*
X114485643Y-106572788D01*
X114474607Y-106591201D01*
X114461819Y-106608444D01*
X114447403Y-106624350D01*
X114138044Y-106933709D01*
X114122138Y-106948125D01*
X114104895Y-106960913D01*
X114086482Y-106971949D01*
X114067076Y-106981128D01*
X114046864Y-106988360D01*
X114026040Y-106993576D01*
X114004805Y-106996726D01*
X113983364Y-106997779D01*
X113961923Y-106996726D01*
X113940688Y-106993576D01*
X113919864Y-106988360D01*
X113899652Y-106981128D01*
X113880246Y-106971949D01*
X113861833Y-106960913D01*
X113844590Y-106948125D01*
X113828684Y-106933709D01*
X113466291Y-106571316D01*
X113451875Y-106555410D01*
X113439087Y-106538167D01*
X113428051Y-106519754D01*
X113418872Y-106500348D01*
X113411640Y-106480136D01*
X113406424Y-106459312D01*
X113403274Y-106438077D01*
X113402221Y-106416636D01*
X113403274Y-106395195D01*
X113406424Y-106373960D01*
X113411640Y-106353136D01*
X113418872Y-106332924D01*
X113428051Y-106313518D01*
X113439087Y-106295105D01*
X113451875Y-106277862D01*
X113466291Y-106261956D01*
X113775650Y-105952597D01*
X113791556Y-105938181D01*
X113808799Y-105925393D01*
X113827212Y-105914357D01*
X113846618Y-105905178D01*
X113866830Y-105897946D01*
X113887654Y-105892730D01*
X113908889Y-105889580D01*
X113930330Y-105888527D01*
X113951771Y-105889580D01*
X113951771Y-105889580D01*
G37*
D13*
X113956847Y-106443153D03*
D14*
X125202082Y-118858936D03*
D12*
G36*
X124477298Y-118523060D02*
G01*
X124866206Y-118134152D01*
X125926866Y-119194812D01*
X125537958Y-119583720D01*
X124477298Y-118523060D01*
X124477298Y-118523060D01*
G37*
D14*
X125767767Y-118293250D03*
D12*
G36*
X125042983Y-117957374D02*
G01*
X125431891Y-117568466D01*
X126492551Y-118629126D01*
X126103643Y-119018034D01*
X125042983Y-117957374D01*
X125042983Y-117957374D01*
G37*
D14*
X126333452Y-117727565D03*
D12*
G36*
X125608668Y-117391689D02*
G01*
X125997576Y-117002781D01*
X127058236Y-118063441D01*
X126669328Y-118452349D01*
X125608668Y-117391689D01*
X125608668Y-117391689D01*
G37*
D14*
X126899138Y-117161880D03*
D12*
G36*
X126174354Y-116826004D02*
G01*
X126563262Y-116437096D01*
X127623922Y-117497756D01*
X127235014Y-117886664D01*
X126174354Y-116826004D01*
X126174354Y-116826004D01*
G37*
D14*
X127464823Y-116596194D03*
D12*
G36*
X126740039Y-116260318D02*
G01*
X127128947Y-115871410D01*
X128189607Y-116932070D01*
X127800699Y-117320978D01*
X126740039Y-116260318D01*
X126740039Y-116260318D01*
G37*
D14*
X128030509Y-116030509D03*
D12*
G36*
X127305725Y-115694633D02*
G01*
X127694633Y-115305725D01*
X128755293Y-116366385D01*
X128366385Y-116755293D01*
X127305725Y-115694633D01*
X127305725Y-115694633D01*
G37*
D14*
X128596194Y-115464823D03*
D12*
G36*
X127871410Y-115128947D02*
G01*
X128260318Y-114740039D01*
X129320978Y-115800699D01*
X128932070Y-116189607D01*
X127871410Y-115128947D01*
X127871410Y-115128947D01*
G37*
D14*
X129161880Y-114899138D03*
D12*
G36*
X128437096Y-114563262D02*
G01*
X128826004Y-114174354D01*
X129886664Y-115235014D01*
X129497756Y-115623922D01*
X128437096Y-114563262D01*
X128437096Y-114563262D01*
G37*
D14*
X129727565Y-114333452D03*
D12*
G36*
X129002781Y-113997576D02*
G01*
X129391689Y-113608668D01*
X130452349Y-114669328D01*
X130063441Y-115058236D01*
X129002781Y-113997576D01*
X129002781Y-113997576D01*
G37*
D14*
X130293250Y-113767767D03*
D12*
G36*
X129568466Y-113431891D02*
G01*
X129957374Y-113042983D01*
X131018034Y-114103643D01*
X130629126Y-114492551D01*
X129568466Y-113431891D01*
X129568466Y-113431891D01*
G37*
D14*
X130858936Y-113202082D03*
D12*
G36*
X130134152Y-112866206D02*
G01*
X130523060Y-112477298D01*
X131583720Y-113537958D01*
X131194812Y-113926866D01*
X130134152Y-112866206D01*
X130134152Y-112866206D01*
G37*
D14*
X130858936Y-110797918D03*
D12*
G36*
X130523060Y-111522702D02*
G01*
X130134152Y-111133794D01*
X131194812Y-110073134D01*
X131583720Y-110462042D01*
X130523060Y-111522702D01*
X130523060Y-111522702D01*
G37*
D14*
X130293250Y-110232233D03*
D12*
G36*
X129957374Y-110957017D02*
G01*
X129568466Y-110568109D01*
X130629126Y-109507449D01*
X131018034Y-109896357D01*
X129957374Y-110957017D01*
X129957374Y-110957017D01*
G37*
D14*
X129727565Y-109666548D03*
D12*
G36*
X129391689Y-110391332D02*
G01*
X129002781Y-110002424D01*
X130063441Y-108941764D01*
X130452349Y-109330672D01*
X129391689Y-110391332D01*
X129391689Y-110391332D01*
G37*
D14*
X129161880Y-109100862D03*
D12*
G36*
X128826004Y-109825646D02*
G01*
X128437096Y-109436738D01*
X129497756Y-108376078D01*
X129886664Y-108764986D01*
X128826004Y-109825646D01*
X128826004Y-109825646D01*
G37*
D14*
X128596194Y-108535177D03*
D12*
G36*
X128260318Y-109259961D02*
G01*
X127871410Y-108871053D01*
X128932070Y-107810393D01*
X129320978Y-108199301D01*
X128260318Y-109259961D01*
X128260318Y-109259961D01*
G37*
D14*
X128030509Y-107969491D03*
D12*
G36*
X127694633Y-108694275D02*
G01*
X127305725Y-108305367D01*
X128366385Y-107244707D01*
X128755293Y-107633615D01*
X127694633Y-108694275D01*
X127694633Y-108694275D01*
G37*
D14*
X127464823Y-107403806D03*
D12*
G36*
X127128947Y-108128590D02*
G01*
X126740039Y-107739682D01*
X127800699Y-106679022D01*
X128189607Y-107067930D01*
X127128947Y-108128590D01*
X127128947Y-108128590D01*
G37*
D14*
X126899138Y-106838120D03*
D12*
G36*
X126563262Y-107562904D02*
G01*
X126174354Y-107173996D01*
X127235014Y-106113336D01*
X127623922Y-106502244D01*
X126563262Y-107562904D01*
X126563262Y-107562904D01*
G37*
D14*
X126333452Y-106272435D03*
D12*
G36*
X125997576Y-106997219D02*
G01*
X125608668Y-106608311D01*
X126669328Y-105547651D01*
X127058236Y-105936559D01*
X125997576Y-106997219D01*
X125997576Y-106997219D01*
G37*
D14*
X125767767Y-105706750D03*
D12*
G36*
X125431891Y-106431534D02*
G01*
X125042983Y-106042626D01*
X126103643Y-104981966D01*
X126492551Y-105370874D01*
X125431891Y-106431534D01*
X125431891Y-106431534D01*
G37*
D14*
X125202082Y-105141064D03*
D12*
G36*
X124866206Y-105865848D02*
G01*
X124477298Y-105476940D01*
X125537958Y-104416280D01*
X125926866Y-104805188D01*
X124866206Y-105865848D01*
X124866206Y-105865848D01*
G37*
D14*
X122797918Y-105141064D03*
D12*
G36*
X122073134Y-104805188D02*
G01*
X122462042Y-104416280D01*
X123522702Y-105476940D01*
X123133794Y-105865848D01*
X122073134Y-104805188D01*
X122073134Y-104805188D01*
G37*
D14*
X122232233Y-105706750D03*
D12*
G36*
X121507449Y-105370874D02*
G01*
X121896357Y-104981966D01*
X122957017Y-106042626D01*
X122568109Y-106431534D01*
X121507449Y-105370874D01*
X121507449Y-105370874D01*
G37*
D14*
X121666548Y-106272435D03*
D12*
G36*
X120941764Y-105936559D02*
G01*
X121330672Y-105547651D01*
X122391332Y-106608311D01*
X122002424Y-106997219D01*
X120941764Y-105936559D01*
X120941764Y-105936559D01*
G37*
D14*
X121100862Y-106838120D03*
D12*
G36*
X120376078Y-106502244D02*
G01*
X120764986Y-106113336D01*
X121825646Y-107173996D01*
X121436738Y-107562904D01*
X120376078Y-106502244D01*
X120376078Y-106502244D01*
G37*
D14*
X120535177Y-107403806D03*
D12*
G36*
X119810393Y-107067930D02*
G01*
X120199301Y-106679022D01*
X121259961Y-107739682D01*
X120871053Y-108128590D01*
X119810393Y-107067930D01*
X119810393Y-107067930D01*
G37*
D14*
X119969491Y-107969491D03*
D12*
G36*
X119244707Y-107633615D02*
G01*
X119633615Y-107244707D01*
X120694275Y-108305367D01*
X120305367Y-108694275D01*
X119244707Y-107633615D01*
X119244707Y-107633615D01*
G37*
D14*
X119403806Y-108535177D03*
D12*
G36*
X118679022Y-108199301D02*
G01*
X119067930Y-107810393D01*
X120128590Y-108871053D01*
X119739682Y-109259961D01*
X118679022Y-108199301D01*
X118679022Y-108199301D01*
G37*
D14*
X118838120Y-109100862D03*
D12*
G36*
X118113336Y-108764986D02*
G01*
X118502244Y-108376078D01*
X119562904Y-109436738D01*
X119173996Y-109825646D01*
X118113336Y-108764986D01*
X118113336Y-108764986D01*
G37*
D14*
X118272435Y-109666548D03*
D12*
G36*
X117547651Y-109330672D02*
G01*
X117936559Y-108941764D01*
X118997219Y-110002424D01*
X118608311Y-110391332D01*
X117547651Y-109330672D01*
X117547651Y-109330672D01*
G37*
D14*
X117706750Y-110232233D03*
D12*
G36*
X116981966Y-109896357D02*
G01*
X117370874Y-109507449D01*
X118431534Y-110568109D01*
X118042626Y-110957017D01*
X116981966Y-109896357D01*
X116981966Y-109896357D01*
G37*
D14*
X117141064Y-110797918D03*
D12*
G36*
X116416280Y-110462042D02*
G01*
X116805188Y-110073134D01*
X117865848Y-111133794D01*
X117476940Y-111522702D01*
X116416280Y-110462042D01*
X116416280Y-110462042D01*
G37*
D14*
X117141064Y-113202082D03*
D12*
G36*
X116805188Y-113926866D02*
G01*
X116416280Y-113537958D01*
X117476940Y-112477298D01*
X117865848Y-112866206D01*
X116805188Y-113926866D01*
X116805188Y-113926866D01*
G37*
D14*
X117706750Y-113767767D03*
D12*
G36*
X117370874Y-114492551D02*
G01*
X116981966Y-114103643D01*
X118042626Y-113042983D01*
X118431534Y-113431891D01*
X117370874Y-114492551D01*
X117370874Y-114492551D01*
G37*
D14*
X118272435Y-114333452D03*
D12*
G36*
X117936559Y-115058236D02*
G01*
X117547651Y-114669328D01*
X118608311Y-113608668D01*
X118997219Y-113997576D01*
X117936559Y-115058236D01*
X117936559Y-115058236D01*
G37*
D14*
X118838120Y-114899138D03*
D12*
G36*
X118502244Y-115623922D02*
G01*
X118113336Y-115235014D01*
X119173996Y-114174354D01*
X119562904Y-114563262D01*
X118502244Y-115623922D01*
X118502244Y-115623922D01*
G37*
D14*
X119403806Y-115464823D03*
D12*
G36*
X119067930Y-116189607D02*
G01*
X118679022Y-115800699D01*
X119739682Y-114740039D01*
X120128590Y-115128947D01*
X119067930Y-116189607D01*
X119067930Y-116189607D01*
G37*
D14*
X119969491Y-116030509D03*
D12*
G36*
X119633615Y-116755293D02*
G01*
X119244707Y-116366385D01*
X120305367Y-115305725D01*
X120694275Y-115694633D01*
X119633615Y-116755293D01*
X119633615Y-116755293D01*
G37*
D14*
X120535177Y-116596194D03*
D12*
G36*
X120199301Y-117320978D02*
G01*
X119810393Y-116932070D01*
X120871053Y-115871410D01*
X121259961Y-116260318D01*
X120199301Y-117320978D01*
X120199301Y-117320978D01*
G37*
D14*
X121100862Y-117161880D03*
D12*
G36*
X120764986Y-117886664D02*
G01*
X120376078Y-117497756D01*
X121436738Y-116437096D01*
X121825646Y-116826004D01*
X120764986Y-117886664D01*
X120764986Y-117886664D01*
G37*
D14*
X121666548Y-117727565D03*
D12*
G36*
X121330672Y-118452349D02*
G01*
X120941764Y-118063441D01*
X122002424Y-117002781D01*
X122391332Y-117391689D01*
X121330672Y-118452349D01*
X121330672Y-118452349D01*
G37*
D14*
X122232233Y-118293250D03*
D12*
G36*
X121896357Y-119018034D02*
G01*
X121507449Y-118629126D01*
X122568109Y-117568466D01*
X122957017Y-117957374D01*
X121896357Y-119018034D01*
X121896357Y-119018034D01*
G37*
D14*
X122797918Y-118858936D03*
D12*
G36*
X122462042Y-119583720D02*
G01*
X122073134Y-119194812D01*
X123133794Y-118134152D01*
X123522702Y-118523060D01*
X122462042Y-119583720D01*
X122462042Y-119583720D01*
G37*
G36*
X24549505Y-24426204D02*
G01*
X24573773Y-24429804D01*
X24597572Y-24435765D01*
X24620671Y-24444030D01*
X24642850Y-24454520D01*
X24663893Y-24467132D01*
X24683599Y-24481747D01*
X24701777Y-24498223D01*
X24718253Y-24516401D01*
X24732868Y-24536107D01*
X24745480Y-24557150D01*
X24755970Y-24579329D01*
X24764235Y-24602428D01*
X24770196Y-24626227D01*
X24773796Y-24650495D01*
X24775000Y-24674999D01*
X24775000Y-25375001D01*
X24773796Y-25399505D01*
X24770196Y-25423773D01*
X24764235Y-25447572D01*
X24755970Y-25470671D01*
X24745480Y-25492850D01*
X24732868Y-25513893D01*
X24718253Y-25533599D01*
X24701777Y-25551777D01*
X24683599Y-25568253D01*
X24663893Y-25582868D01*
X24642850Y-25595480D01*
X24620671Y-25605970D01*
X24597572Y-25614235D01*
X24573773Y-25620196D01*
X24549505Y-25623796D01*
X24525001Y-25625000D01*
X23224999Y-25625000D01*
X23200495Y-25623796D01*
X23176227Y-25620196D01*
X23152428Y-25614235D01*
X23129329Y-25605970D01*
X23107150Y-25595480D01*
X23086107Y-25582868D01*
X23066401Y-25568253D01*
X23048223Y-25551777D01*
X23031747Y-25533599D01*
X23017132Y-25513893D01*
X23004520Y-25492850D01*
X22994030Y-25470671D01*
X22985765Y-25447572D01*
X22979804Y-25423773D01*
X22976204Y-25399505D01*
X22975000Y-25375001D01*
X22975000Y-24674999D01*
X22976204Y-24650495D01*
X22979804Y-24626227D01*
X22985765Y-24602428D01*
X22994030Y-24579329D01*
X23004520Y-24557150D01*
X23017132Y-24536107D01*
X23031747Y-24516401D01*
X23048223Y-24498223D01*
X23066401Y-24481747D01*
X23086107Y-24467132D01*
X23107150Y-24454520D01*
X23129329Y-24444030D01*
X23152428Y-24435765D01*
X23176227Y-24429804D01*
X23200495Y-24426204D01*
X23224999Y-24425000D01*
X24525001Y-24425000D01*
X24549505Y-24426204D01*
X24549505Y-24426204D01*
G37*
D15*
X23875000Y-25025000D03*
D12*
G36*
X24549505Y-18826204D02*
G01*
X24573773Y-18829804D01*
X24597572Y-18835765D01*
X24620671Y-18844030D01*
X24642850Y-18854520D01*
X24663893Y-18867132D01*
X24683599Y-18881747D01*
X24701777Y-18898223D01*
X24718253Y-18916401D01*
X24732868Y-18936107D01*
X24745480Y-18957150D01*
X24755970Y-18979329D01*
X24764235Y-19002428D01*
X24770196Y-19026227D01*
X24773796Y-19050495D01*
X24775000Y-19074999D01*
X24775000Y-19775001D01*
X24773796Y-19799505D01*
X24770196Y-19823773D01*
X24764235Y-19847572D01*
X24755970Y-19870671D01*
X24745480Y-19892850D01*
X24732868Y-19913893D01*
X24718253Y-19933599D01*
X24701777Y-19951777D01*
X24683599Y-19968253D01*
X24663893Y-19982868D01*
X24642850Y-19995480D01*
X24620671Y-20005970D01*
X24597572Y-20014235D01*
X24573773Y-20020196D01*
X24549505Y-20023796D01*
X24525001Y-20025000D01*
X23224999Y-20025000D01*
X23200495Y-20023796D01*
X23176227Y-20020196D01*
X23152428Y-20014235D01*
X23129329Y-20005970D01*
X23107150Y-19995480D01*
X23086107Y-19982868D01*
X23066401Y-19968253D01*
X23048223Y-19951777D01*
X23031747Y-19933599D01*
X23017132Y-19913893D01*
X23004520Y-19892850D01*
X22994030Y-19870671D01*
X22985765Y-19847572D01*
X22979804Y-19823773D01*
X22976204Y-19799505D01*
X22975000Y-19775001D01*
X22975000Y-19074999D01*
X22976204Y-19050495D01*
X22979804Y-19026227D01*
X22985765Y-19002428D01*
X22994030Y-18979329D01*
X23004520Y-18957150D01*
X23017132Y-18936107D01*
X23031747Y-18916401D01*
X23048223Y-18898223D01*
X23066401Y-18881747D01*
X23086107Y-18867132D01*
X23107150Y-18854520D01*
X23129329Y-18844030D01*
X23152428Y-18835765D01*
X23176227Y-18829804D01*
X23200495Y-18826204D01*
X23224999Y-18825000D01*
X24525001Y-18825000D01*
X24549505Y-18826204D01*
X24549505Y-18826204D01*
G37*
D15*
X23875000Y-19425000D03*
D12*
G36*
X20639703Y-23425722D02*
G01*
X20654264Y-23427882D01*
X20668543Y-23431459D01*
X20682403Y-23436418D01*
X20695710Y-23442712D01*
X20708336Y-23450280D01*
X20720159Y-23459048D01*
X20731066Y-23468934D01*
X20740952Y-23479841D01*
X20749720Y-23491664D01*
X20757288Y-23504290D01*
X20763582Y-23517597D01*
X20768541Y-23531457D01*
X20772118Y-23545736D01*
X20774278Y-23560297D01*
X20775000Y-23575000D01*
X20775000Y-23875000D01*
X20774278Y-23889703D01*
X20772118Y-23904264D01*
X20768541Y-23918543D01*
X20763582Y-23932403D01*
X20757288Y-23945710D01*
X20749720Y-23958336D01*
X20740952Y-23970159D01*
X20731066Y-23981066D01*
X20720159Y-23990952D01*
X20708336Y-23999720D01*
X20695710Y-24007288D01*
X20682403Y-24013582D01*
X20668543Y-24018541D01*
X20654264Y-24022118D01*
X20639703Y-24024278D01*
X20625000Y-24025000D01*
X19375000Y-24025000D01*
X19360297Y-24024278D01*
X19345736Y-24022118D01*
X19331457Y-24018541D01*
X19317597Y-24013582D01*
X19304290Y-24007288D01*
X19291664Y-23999720D01*
X19279841Y-23990952D01*
X19268934Y-23981066D01*
X19259048Y-23970159D01*
X19250280Y-23958336D01*
X19242712Y-23945710D01*
X19236418Y-23932403D01*
X19231459Y-23918543D01*
X19227882Y-23904264D01*
X19225722Y-23889703D01*
X19225000Y-23875000D01*
X19225000Y-23575000D01*
X19225722Y-23560297D01*
X19227882Y-23545736D01*
X19231459Y-23531457D01*
X19236418Y-23517597D01*
X19242712Y-23504290D01*
X19250280Y-23491664D01*
X19259048Y-23479841D01*
X19268934Y-23468934D01*
X19279841Y-23459048D01*
X19291664Y-23450280D01*
X19304290Y-23442712D01*
X19317597Y-23436418D01*
X19331457Y-23431459D01*
X19345736Y-23427882D01*
X19360297Y-23425722D01*
X19375000Y-23425000D01*
X20625000Y-23425000D01*
X20639703Y-23425722D01*
X20639703Y-23425722D01*
G37*
D16*
X20000000Y-23725000D03*
D12*
G36*
X20639703Y-22425722D02*
G01*
X20654264Y-22427882D01*
X20668543Y-22431459D01*
X20682403Y-22436418D01*
X20695710Y-22442712D01*
X20708336Y-22450280D01*
X20720159Y-22459048D01*
X20731066Y-22468934D01*
X20740952Y-22479841D01*
X20749720Y-22491664D01*
X20757288Y-22504290D01*
X20763582Y-22517597D01*
X20768541Y-22531457D01*
X20772118Y-22545736D01*
X20774278Y-22560297D01*
X20775000Y-22575000D01*
X20775000Y-22875000D01*
X20774278Y-22889703D01*
X20772118Y-22904264D01*
X20768541Y-22918543D01*
X20763582Y-22932403D01*
X20757288Y-22945710D01*
X20749720Y-22958336D01*
X20740952Y-22970159D01*
X20731066Y-22981066D01*
X20720159Y-22990952D01*
X20708336Y-22999720D01*
X20695710Y-23007288D01*
X20682403Y-23013582D01*
X20668543Y-23018541D01*
X20654264Y-23022118D01*
X20639703Y-23024278D01*
X20625000Y-23025000D01*
X19375000Y-23025000D01*
X19360297Y-23024278D01*
X19345736Y-23022118D01*
X19331457Y-23018541D01*
X19317597Y-23013582D01*
X19304290Y-23007288D01*
X19291664Y-22999720D01*
X19279841Y-22990952D01*
X19268934Y-22981066D01*
X19259048Y-22970159D01*
X19250280Y-22958336D01*
X19242712Y-22945710D01*
X19236418Y-22932403D01*
X19231459Y-22918543D01*
X19227882Y-22904264D01*
X19225722Y-22889703D01*
X19225000Y-22875000D01*
X19225000Y-22575000D01*
X19225722Y-22560297D01*
X19227882Y-22545736D01*
X19231459Y-22531457D01*
X19236418Y-22517597D01*
X19242712Y-22504290D01*
X19250280Y-22491664D01*
X19259048Y-22479841D01*
X19268934Y-22468934D01*
X19279841Y-22459048D01*
X19291664Y-22450280D01*
X19304290Y-22442712D01*
X19317597Y-22436418D01*
X19331457Y-22431459D01*
X19345736Y-22427882D01*
X19360297Y-22425722D01*
X19375000Y-22425000D01*
X20625000Y-22425000D01*
X20639703Y-22425722D01*
X20639703Y-22425722D01*
G37*
D16*
X20000000Y-22725000D03*
D12*
G36*
X20639703Y-21425722D02*
G01*
X20654264Y-21427882D01*
X20668543Y-21431459D01*
X20682403Y-21436418D01*
X20695710Y-21442712D01*
X20708336Y-21450280D01*
X20720159Y-21459048D01*
X20731066Y-21468934D01*
X20740952Y-21479841D01*
X20749720Y-21491664D01*
X20757288Y-21504290D01*
X20763582Y-21517597D01*
X20768541Y-21531457D01*
X20772118Y-21545736D01*
X20774278Y-21560297D01*
X20775000Y-21575000D01*
X20775000Y-21875000D01*
X20774278Y-21889703D01*
X20772118Y-21904264D01*
X20768541Y-21918543D01*
X20763582Y-21932403D01*
X20757288Y-21945710D01*
X20749720Y-21958336D01*
X20740952Y-21970159D01*
X20731066Y-21981066D01*
X20720159Y-21990952D01*
X20708336Y-21999720D01*
X20695710Y-22007288D01*
X20682403Y-22013582D01*
X20668543Y-22018541D01*
X20654264Y-22022118D01*
X20639703Y-22024278D01*
X20625000Y-22025000D01*
X19375000Y-22025000D01*
X19360297Y-22024278D01*
X19345736Y-22022118D01*
X19331457Y-22018541D01*
X19317597Y-22013582D01*
X19304290Y-22007288D01*
X19291664Y-21999720D01*
X19279841Y-21990952D01*
X19268934Y-21981066D01*
X19259048Y-21970159D01*
X19250280Y-21958336D01*
X19242712Y-21945710D01*
X19236418Y-21932403D01*
X19231459Y-21918543D01*
X19227882Y-21904264D01*
X19225722Y-21889703D01*
X19225000Y-21875000D01*
X19225000Y-21575000D01*
X19225722Y-21560297D01*
X19227882Y-21545736D01*
X19231459Y-21531457D01*
X19236418Y-21517597D01*
X19242712Y-21504290D01*
X19250280Y-21491664D01*
X19259048Y-21479841D01*
X19268934Y-21468934D01*
X19279841Y-21459048D01*
X19291664Y-21450280D01*
X19304290Y-21442712D01*
X19317597Y-21436418D01*
X19331457Y-21431459D01*
X19345736Y-21427882D01*
X19360297Y-21425722D01*
X19375000Y-21425000D01*
X20625000Y-21425000D01*
X20639703Y-21425722D01*
X20639703Y-21425722D01*
G37*
D16*
X20000000Y-21725000D03*
D12*
G36*
X20639703Y-20425722D02*
G01*
X20654264Y-20427882D01*
X20668543Y-20431459D01*
X20682403Y-20436418D01*
X20695710Y-20442712D01*
X20708336Y-20450280D01*
X20720159Y-20459048D01*
X20731066Y-20468934D01*
X20740952Y-20479841D01*
X20749720Y-20491664D01*
X20757288Y-20504290D01*
X20763582Y-20517597D01*
X20768541Y-20531457D01*
X20772118Y-20545736D01*
X20774278Y-20560297D01*
X20775000Y-20575000D01*
X20775000Y-20875000D01*
X20774278Y-20889703D01*
X20772118Y-20904264D01*
X20768541Y-20918543D01*
X20763582Y-20932403D01*
X20757288Y-20945710D01*
X20749720Y-20958336D01*
X20740952Y-20970159D01*
X20731066Y-20981066D01*
X20720159Y-20990952D01*
X20708336Y-20999720D01*
X20695710Y-21007288D01*
X20682403Y-21013582D01*
X20668543Y-21018541D01*
X20654264Y-21022118D01*
X20639703Y-21024278D01*
X20625000Y-21025000D01*
X19375000Y-21025000D01*
X19360297Y-21024278D01*
X19345736Y-21022118D01*
X19331457Y-21018541D01*
X19317597Y-21013582D01*
X19304290Y-21007288D01*
X19291664Y-20999720D01*
X19279841Y-20990952D01*
X19268934Y-20981066D01*
X19259048Y-20970159D01*
X19250280Y-20958336D01*
X19242712Y-20945710D01*
X19236418Y-20932403D01*
X19231459Y-20918543D01*
X19227882Y-20904264D01*
X19225722Y-20889703D01*
X19225000Y-20875000D01*
X19225000Y-20575000D01*
X19225722Y-20560297D01*
X19227882Y-20545736D01*
X19231459Y-20531457D01*
X19236418Y-20517597D01*
X19242712Y-20504290D01*
X19250280Y-20491664D01*
X19259048Y-20479841D01*
X19268934Y-20468934D01*
X19279841Y-20459048D01*
X19291664Y-20450280D01*
X19304290Y-20442712D01*
X19317597Y-20436418D01*
X19331457Y-20431459D01*
X19345736Y-20427882D01*
X19360297Y-20425722D01*
X19375000Y-20425000D01*
X20625000Y-20425000D01*
X20639703Y-20425722D01*
X20639703Y-20425722D01*
G37*
D16*
X20000000Y-20725000D03*
D12*
G36*
X112138077Y-109903274D02*
G01*
X112159312Y-109906424D01*
X112180136Y-109911640D01*
X112200348Y-109918872D01*
X112219754Y-109928051D01*
X112238167Y-109939087D01*
X112255410Y-109951875D01*
X112271316Y-109966291D01*
X112633709Y-110328684D01*
X112648125Y-110344590D01*
X112660913Y-110361833D01*
X112671949Y-110380246D01*
X112681128Y-110399652D01*
X112688360Y-110419864D01*
X112693576Y-110440688D01*
X112696726Y-110461923D01*
X112697779Y-110483364D01*
X112696726Y-110504805D01*
X112693576Y-110526040D01*
X112688360Y-110546864D01*
X112681128Y-110567076D01*
X112671949Y-110586482D01*
X112660913Y-110604895D01*
X112648125Y-110622138D01*
X112633709Y-110638044D01*
X112324350Y-110947403D01*
X112308444Y-110961819D01*
X112291201Y-110974607D01*
X112272788Y-110985643D01*
X112253382Y-110994822D01*
X112233170Y-111002054D01*
X112212346Y-111007270D01*
X112191111Y-111010420D01*
X112169670Y-111011473D01*
X112148229Y-111010420D01*
X112126994Y-111007270D01*
X112106170Y-111002054D01*
X112085958Y-110994822D01*
X112066552Y-110985643D01*
X112048139Y-110974607D01*
X112030896Y-110961819D01*
X112014990Y-110947403D01*
X111652597Y-110585010D01*
X111638181Y-110569104D01*
X111625393Y-110551861D01*
X111614357Y-110533448D01*
X111605178Y-110514042D01*
X111597946Y-110493830D01*
X111592730Y-110473006D01*
X111589580Y-110451771D01*
X111588527Y-110430330D01*
X111589580Y-110408889D01*
X111592730Y-110387654D01*
X111597946Y-110366830D01*
X111605178Y-110346618D01*
X111614357Y-110327212D01*
X111625393Y-110308799D01*
X111638181Y-110291556D01*
X111652597Y-110275650D01*
X111961956Y-109966291D01*
X111977862Y-109951875D01*
X111995105Y-109939087D01*
X112013518Y-109928051D01*
X112032924Y-109918872D01*
X112053136Y-109911640D01*
X112073960Y-109906424D01*
X112095195Y-109903274D01*
X112116636Y-109902221D01*
X112138077Y-109903274D01*
X112138077Y-109903274D01*
G37*
D13*
X112143153Y-110456847D03*
D12*
G36*
X113251771Y-108789580D02*
G01*
X113273006Y-108792730D01*
X113293830Y-108797946D01*
X113314042Y-108805178D01*
X113333448Y-108814357D01*
X113351861Y-108825393D01*
X113369104Y-108838181D01*
X113385010Y-108852597D01*
X113747403Y-109214990D01*
X113761819Y-109230896D01*
X113774607Y-109248139D01*
X113785643Y-109266552D01*
X113794822Y-109285958D01*
X113802054Y-109306170D01*
X113807270Y-109326994D01*
X113810420Y-109348229D01*
X113811473Y-109369670D01*
X113810420Y-109391111D01*
X113807270Y-109412346D01*
X113802054Y-109433170D01*
X113794822Y-109453382D01*
X113785643Y-109472788D01*
X113774607Y-109491201D01*
X113761819Y-109508444D01*
X113747403Y-109524350D01*
X113438044Y-109833709D01*
X113422138Y-109848125D01*
X113404895Y-109860913D01*
X113386482Y-109871949D01*
X113367076Y-109881128D01*
X113346864Y-109888360D01*
X113326040Y-109893576D01*
X113304805Y-109896726D01*
X113283364Y-109897779D01*
X113261923Y-109896726D01*
X113240688Y-109893576D01*
X113219864Y-109888360D01*
X113199652Y-109881128D01*
X113180246Y-109871949D01*
X113161833Y-109860913D01*
X113144590Y-109848125D01*
X113128684Y-109833709D01*
X112766291Y-109471316D01*
X112751875Y-109455410D01*
X112739087Y-109438167D01*
X112728051Y-109419754D01*
X112718872Y-109400348D01*
X112711640Y-109380136D01*
X112706424Y-109359312D01*
X112703274Y-109338077D01*
X112702221Y-109316636D01*
X112703274Y-109295195D01*
X112706424Y-109273960D01*
X112711640Y-109253136D01*
X112718872Y-109232924D01*
X112728051Y-109213518D01*
X112739087Y-109195105D01*
X112751875Y-109177862D01*
X112766291Y-109161956D01*
X113075650Y-108852597D01*
X113091556Y-108838181D01*
X113108799Y-108825393D01*
X113127212Y-108814357D01*
X113146618Y-108805178D01*
X113166830Y-108797946D01*
X113187654Y-108792730D01*
X113208889Y-108789580D01*
X113230330Y-108788527D01*
X113251771Y-108789580D01*
X113251771Y-108789580D01*
G37*
D13*
X113256847Y-109343153D03*
D12*
G36*
X129251771Y-102089580D02*
G01*
X129273006Y-102092730D01*
X129293830Y-102097946D01*
X129314042Y-102105178D01*
X129333448Y-102114357D01*
X129351861Y-102125393D01*
X129369104Y-102138181D01*
X129385010Y-102152597D01*
X129747403Y-102514990D01*
X129761819Y-102530896D01*
X129774607Y-102548139D01*
X129785643Y-102566552D01*
X129794822Y-102585958D01*
X129802054Y-102606170D01*
X129807270Y-102626994D01*
X129810420Y-102648229D01*
X129811473Y-102669670D01*
X129810420Y-102691111D01*
X129807270Y-102712346D01*
X129802054Y-102733170D01*
X129794822Y-102753382D01*
X129785643Y-102772788D01*
X129774607Y-102791201D01*
X129761819Y-102808444D01*
X129747403Y-102824350D01*
X129438044Y-103133709D01*
X129422138Y-103148125D01*
X129404895Y-103160913D01*
X129386482Y-103171949D01*
X129367076Y-103181128D01*
X129346864Y-103188360D01*
X129326040Y-103193576D01*
X129304805Y-103196726D01*
X129283364Y-103197779D01*
X129261923Y-103196726D01*
X129240688Y-103193576D01*
X129219864Y-103188360D01*
X129199652Y-103181128D01*
X129180246Y-103171949D01*
X129161833Y-103160913D01*
X129144590Y-103148125D01*
X129128684Y-103133709D01*
X128766291Y-102771316D01*
X128751875Y-102755410D01*
X128739087Y-102738167D01*
X128728051Y-102719754D01*
X128718872Y-102700348D01*
X128711640Y-102680136D01*
X128706424Y-102659312D01*
X128703274Y-102638077D01*
X128702221Y-102616636D01*
X128703274Y-102595195D01*
X128706424Y-102573960D01*
X128711640Y-102553136D01*
X128718872Y-102532924D01*
X128728051Y-102513518D01*
X128739087Y-102495105D01*
X128751875Y-102477862D01*
X128766291Y-102461956D01*
X129075650Y-102152597D01*
X129091556Y-102138181D01*
X129108799Y-102125393D01*
X129127212Y-102114357D01*
X129146618Y-102105178D01*
X129166830Y-102097946D01*
X129187654Y-102092730D01*
X129208889Y-102089580D01*
X129230330Y-102088527D01*
X129251771Y-102089580D01*
X129251771Y-102089580D01*
G37*
D13*
X129256847Y-102643153D03*
D12*
G36*
X128138077Y-103203274D02*
G01*
X128159312Y-103206424D01*
X128180136Y-103211640D01*
X128200348Y-103218872D01*
X128219754Y-103228051D01*
X128238167Y-103239087D01*
X128255410Y-103251875D01*
X128271316Y-103266291D01*
X128633709Y-103628684D01*
X128648125Y-103644590D01*
X128660913Y-103661833D01*
X128671949Y-103680246D01*
X128681128Y-103699652D01*
X128688360Y-103719864D01*
X128693576Y-103740688D01*
X128696726Y-103761923D01*
X128697779Y-103783364D01*
X128696726Y-103804805D01*
X128693576Y-103826040D01*
X128688360Y-103846864D01*
X128681128Y-103867076D01*
X128671949Y-103886482D01*
X128660913Y-103904895D01*
X128648125Y-103922138D01*
X128633709Y-103938044D01*
X128324350Y-104247403D01*
X128308444Y-104261819D01*
X128291201Y-104274607D01*
X128272788Y-104285643D01*
X128253382Y-104294822D01*
X128233170Y-104302054D01*
X128212346Y-104307270D01*
X128191111Y-104310420D01*
X128169670Y-104311473D01*
X128148229Y-104310420D01*
X128126994Y-104307270D01*
X128106170Y-104302054D01*
X128085958Y-104294822D01*
X128066552Y-104285643D01*
X128048139Y-104274607D01*
X128030896Y-104261819D01*
X128014990Y-104247403D01*
X127652597Y-103885010D01*
X127638181Y-103869104D01*
X127625393Y-103851861D01*
X127614357Y-103833448D01*
X127605178Y-103814042D01*
X127597946Y-103793830D01*
X127592730Y-103773006D01*
X127589580Y-103751771D01*
X127588527Y-103730330D01*
X127589580Y-103708889D01*
X127592730Y-103687654D01*
X127597946Y-103666830D01*
X127605178Y-103646618D01*
X127614357Y-103627212D01*
X127625393Y-103608799D01*
X127638181Y-103591556D01*
X127652597Y-103575650D01*
X127961956Y-103266291D01*
X127977862Y-103251875D01*
X127995105Y-103239087D01*
X128013518Y-103228051D01*
X128032924Y-103218872D01*
X128053136Y-103211640D01*
X128073960Y-103206424D01*
X128095195Y-103203274D01*
X128116636Y-103202221D01*
X128138077Y-103203274D01*
X128138077Y-103203274D01*
G37*
D13*
X128143153Y-103756847D03*
D12*
G36*
X131938077Y-115603274D02*
G01*
X131959312Y-115606424D01*
X131980136Y-115611640D01*
X132000348Y-115618872D01*
X132019754Y-115628051D01*
X132038167Y-115639087D01*
X132055410Y-115651875D01*
X132071316Y-115666291D01*
X132433709Y-116028684D01*
X132448125Y-116044590D01*
X132460913Y-116061833D01*
X132471949Y-116080246D01*
X132481128Y-116099652D01*
X132488360Y-116119864D01*
X132493576Y-116140688D01*
X132496726Y-116161923D01*
X132497779Y-116183364D01*
X132496726Y-116204805D01*
X132493576Y-116226040D01*
X132488360Y-116246864D01*
X132481128Y-116267076D01*
X132471949Y-116286482D01*
X132460913Y-116304895D01*
X132448125Y-116322138D01*
X132433709Y-116338044D01*
X132124350Y-116647403D01*
X132108444Y-116661819D01*
X132091201Y-116674607D01*
X132072788Y-116685643D01*
X132053382Y-116694822D01*
X132033170Y-116702054D01*
X132012346Y-116707270D01*
X131991111Y-116710420D01*
X131969670Y-116711473D01*
X131948229Y-116710420D01*
X131926994Y-116707270D01*
X131906170Y-116702054D01*
X131885958Y-116694822D01*
X131866552Y-116685643D01*
X131848139Y-116674607D01*
X131830896Y-116661819D01*
X131814990Y-116647403D01*
X131452597Y-116285010D01*
X131438181Y-116269104D01*
X131425393Y-116251861D01*
X131414357Y-116233448D01*
X131405178Y-116214042D01*
X131397946Y-116193830D01*
X131392730Y-116173006D01*
X131389580Y-116151771D01*
X131388527Y-116130330D01*
X131389580Y-116108889D01*
X131392730Y-116087654D01*
X131397946Y-116066830D01*
X131405178Y-116046618D01*
X131414357Y-116027212D01*
X131425393Y-116008799D01*
X131438181Y-115991556D01*
X131452597Y-115975650D01*
X131761956Y-115666291D01*
X131777862Y-115651875D01*
X131795105Y-115639087D01*
X131813518Y-115628051D01*
X131832924Y-115618872D01*
X131853136Y-115611640D01*
X131873960Y-115606424D01*
X131895195Y-115603274D01*
X131916636Y-115602221D01*
X131938077Y-115603274D01*
X131938077Y-115603274D01*
G37*
D13*
X131943153Y-116156847D03*
D12*
G36*
X133051771Y-114489580D02*
G01*
X133073006Y-114492730D01*
X133093830Y-114497946D01*
X133114042Y-114505178D01*
X133133448Y-114514357D01*
X133151861Y-114525393D01*
X133169104Y-114538181D01*
X133185010Y-114552597D01*
X133547403Y-114914990D01*
X133561819Y-114930896D01*
X133574607Y-114948139D01*
X133585643Y-114966552D01*
X133594822Y-114985958D01*
X133602054Y-115006170D01*
X133607270Y-115026994D01*
X133610420Y-115048229D01*
X133611473Y-115069670D01*
X133610420Y-115091111D01*
X133607270Y-115112346D01*
X133602054Y-115133170D01*
X133594822Y-115153382D01*
X133585643Y-115172788D01*
X133574607Y-115191201D01*
X133561819Y-115208444D01*
X133547403Y-115224350D01*
X133238044Y-115533709D01*
X133222138Y-115548125D01*
X133204895Y-115560913D01*
X133186482Y-115571949D01*
X133167076Y-115581128D01*
X133146864Y-115588360D01*
X133126040Y-115593576D01*
X133104805Y-115596726D01*
X133083364Y-115597779D01*
X133061923Y-115596726D01*
X133040688Y-115593576D01*
X133019864Y-115588360D01*
X132999652Y-115581128D01*
X132980246Y-115571949D01*
X132961833Y-115560913D01*
X132944590Y-115548125D01*
X132928684Y-115533709D01*
X132566291Y-115171316D01*
X132551875Y-115155410D01*
X132539087Y-115138167D01*
X132528051Y-115119754D01*
X132518872Y-115100348D01*
X132511640Y-115080136D01*
X132506424Y-115059312D01*
X132503274Y-115038077D01*
X132502221Y-115016636D01*
X132503274Y-114995195D01*
X132506424Y-114973960D01*
X132511640Y-114953136D01*
X132518872Y-114932924D01*
X132528051Y-114913518D01*
X132539087Y-114895105D01*
X132551875Y-114877862D01*
X132566291Y-114861956D01*
X132875650Y-114552597D01*
X132891556Y-114538181D01*
X132908799Y-114525393D01*
X132927212Y-114514357D01*
X132946618Y-114505178D01*
X132966830Y-114497946D01*
X132987654Y-114492730D01*
X133008889Y-114489580D01*
X133030330Y-114488527D01*
X133051771Y-114489580D01*
X133051771Y-114489580D01*
G37*
D13*
X133056847Y-115043153D03*
D12*
G36*
X128104805Y-121503274D02*
G01*
X128126040Y-121506424D01*
X128146864Y-121511640D01*
X128167076Y-121518872D01*
X128186482Y-121528051D01*
X128204895Y-121539087D01*
X128222138Y-121551875D01*
X128238044Y-121566291D01*
X128547403Y-121875650D01*
X128561819Y-121891556D01*
X128574607Y-121908799D01*
X128585643Y-121927212D01*
X128594822Y-121946618D01*
X128602054Y-121966830D01*
X128607270Y-121987654D01*
X128610420Y-122008889D01*
X128611473Y-122030330D01*
X128610420Y-122051771D01*
X128607270Y-122073006D01*
X128602054Y-122093830D01*
X128594822Y-122114042D01*
X128585643Y-122133448D01*
X128574607Y-122151861D01*
X128561819Y-122169104D01*
X128547403Y-122185010D01*
X128185010Y-122547403D01*
X128169104Y-122561819D01*
X128151861Y-122574607D01*
X128133448Y-122585643D01*
X128114042Y-122594822D01*
X128093830Y-122602054D01*
X128073006Y-122607270D01*
X128051771Y-122610420D01*
X128030330Y-122611473D01*
X128008889Y-122610420D01*
X127987654Y-122607270D01*
X127966830Y-122602054D01*
X127946618Y-122594822D01*
X127927212Y-122585643D01*
X127908799Y-122574607D01*
X127891556Y-122561819D01*
X127875650Y-122547403D01*
X127566291Y-122238044D01*
X127551875Y-122222138D01*
X127539087Y-122204895D01*
X127528051Y-122186482D01*
X127518872Y-122167076D01*
X127511640Y-122146864D01*
X127506424Y-122126040D01*
X127503274Y-122104805D01*
X127502221Y-122083364D01*
X127503274Y-122061923D01*
X127506424Y-122040688D01*
X127511640Y-122019864D01*
X127518872Y-121999652D01*
X127528051Y-121980246D01*
X127539087Y-121961833D01*
X127551875Y-121944590D01*
X127566291Y-121928684D01*
X127928684Y-121566291D01*
X127944590Y-121551875D01*
X127961833Y-121539087D01*
X127980246Y-121528051D01*
X127999652Y-121518872D01*
X128019864Y-121511640D01*
X128040688Y-121506424D01*
X128061923Y-121503274D01*
X128083364Y-121502221D01*
X128104805Y-121503274D01*
X128104805Y-121503274D01*
G37*
D13*
X128056847Y-122056847D03*
D12*
G36*
X126991111Y-120389580D02*
G01*
X127012346Y-120392730D01*
X127033170Y-120397946D01*
X127053382Y-120405178D01*
X127072788Y-120414357D01*
X127091201Y-120425393D01*
X127108444Y-120438181D01*
X127124350Y-120452597D01*
X127433709Y-120761956D01*
X127448125Y-120777862D01*
X127460913Y-120795105D01*
X127471949Y-120813518D01*
X127481128Y-120832924D01*
X127488360Y-120853136D01*
X127493576Y-120873960D01*
X127496726Y-120895195D01*
X127497779Y-120916636D01*
X127496726Y-120938077D01*
X127493576Y-120959312D01*
X127488360Y-120980136D01*
X127481128Y-121000348D01*
X127471949Y-121019754D01*
X127460913Y-121038167D01*
X127448125Y-121055410D01*
X127433709Y-121071316D01*
X127071316Y-121433709D01*
X127055410Y-121448125D01*
X127038167Y-121460913D01*
X127019754Y-121471949D01*
X127000348Y-121481128D01*
X126980136Y-121488360D01*
X126959312Y-121493576D01*
X126938077Y-121496726D01*
X126916636Y-121497779D01*
X126895195Y-121496726D01*
X126873960Y-121493576D01*
X126853136Y-121488360D01*
X126832924Y-121481128D01*
X126813518Y-121471949D01*
X126795105Y-121460913D01*
X126777862Y-121448125D01*
X126761956Y-121433709D01*
X126452597Y-121124350D01*
X126438181Y-121108444D01*
X126425393Y-121091201D01*
X126414357Y-121072788D01*
X126405178Y-121053382D01*
X126397946Y-121033170D01*
X126392730Y-121012346D01*
X126389580Y-120991111D01*
X126388527Y-120969670D01*
X126389580Y-120948229D01*
X126392730Y-120926994D01*
X126397946Y-120906170D01*
X126405178Y-120885958D01*
X126414357Y-120866552D01*
X126425393Y-120848139D01*
X126438181Y-120830896D01*
X126452597Y-120814990D01*
X126814990Y-120452597D01*
X126830896Y-120438181D01*
X126848139Y-120425393D01*
X126866552Y-120414357D01*
X126885958Y-120405178D01*
X126906170Y-120397946D01*
X126926994Y-120392730D01*
X126948229Y-120389580D01*
X126969670Y-120388527D01*
X126991111Y-120389580D01*
X126991111Y-120389580D01*
G37*
D13*
X126943153Y-120943153D03*
D12*
G36*
X115852691Y-117026053D02*
G01*
X115873926Y-117029203D01*
X115894750Y-117034419D01*
X115914962Y-117041651D01*
X115934368Y-117050830D01*
X115952781Y-117061866D01*
X115970024Y-117074654D01*
X115985930Y-117089070D01*
X116000346Y-117104976D01*
X116013134Y-117122219D01*
X116024170Y-117140632D01*
X116033349Y-117160038D01*
X116040581Y-117180250D01*
X116045797Y-117201074D01*
X116048947Y-117222309D01*
X116050000Y-117243750D01*
X116050000Y-117756250D01*
X116048947Y-117777691D01*
X116045797Y-117798926D01*
X116040581Y-117819750D01*
X116033349Y-117839962D01*
X116024170Y-117859368D01*
X116013134Y-117877781D01*
X116000346Y-117895024D01*
X115985930Y-117910930D01*
X115970024Y-117925346D01*
X115952781Y-117938134D01*
X115934368Y-117949170D01*
X115914962Y-117958349D01*
X115894750Y-117965581D01*
X115873926Y-117970797D01*
X115852691Y-117973947D01*
X115831250Y-117975000D01*
X115393750Y-117975000D01*
X115372309Y-117973947D01*
X115351074Y-117970797D01*
X115330250Y-117965581D01*
X115310038Y-117958349D01*
X115290632Y-117949170D01*
X115272219Y-117938134D01*
X115254976Y-117925346D01*
X115239070Y-117910930D01*
X115224654Y-117895024D01*
X115211866Y-117877781D01*
X115200830Y-117859368D01*
X115191651Y-117839962D01*
X115184419Y-117819750D01*
X115179203Y-117798926D01*
X115176053Y-117777691D01*
X115175000Y-117756250D01*
X115175000Y-117243750D01*
X115176053Y-117222309D01*
X115179203Y-117201074D01*
X115184419Y-117180250D01*
X115191651Y-117160038D01*
X115200830Y-117140632D01*
X115211866Y-117122219D01*
X115224654Y-117104976D01*
X115239070Y-117089070D01*
X115254976Y-117074654D01*
X115272219Y-117061866D01*
X115290632Y-117050830D01*
X115310038Y-117041651D01*
X115330250Y-117034419D01*
X115351074Y-117029203D01*
X115372309Y-117026053D01*
X115393750Y-117025000D01*
X115831250Y-117025000D01*
X115852691Y-117026053D01*
X115852691Y-117026053D01*
G37*
D13*
X115612500Y-117500000D03*
D12*
G36*
X117427691Y-117026053D02*
G01*
X117448926Y-117029203D01*
X117469750Y-117034419D01*
X117489962Y-117041651D01*
X117509368Y-117050830D01*
X117527781Y-117061866D01*
X117545024Y-117074654D01*
X117560930Y-117089070D01*
X117575346Y-117104976D01*
X117588134Y-117122219D01*
X117599170Y-117140632D01*
X117608349Y-117160038D01*
X117615581Y-117180250D01*
X117620797Y-117201074D01*
X117623947Y-117222309D01*
X117625000Y-117243750D01*
X117625000Y-117756250D01*
X117623947Y-117777691D01*
X117620797Y-117798926D01*
X117615581Y-117819750D01*
X117608349Y-117839962D01*
X117599170Y-117859368D01*
X117588134Y-117877781D01*
X117575346Y-117895024D01*
X117560930Y-117910930D01*
X117545024Y-117925346D01*
X117527781Y-117938134D01*
X117509368Y-117949170D01*
X117489962Y-117958349D01*
X117469750Y-117965581D01*
X117448926Y-117970797D01*
X117427691Y-117973947D01*
X117406250Y-117975000D01*
X116968750Y-117975000D01*
X116947309Y-117973947D01*
X116926074Y-117970797D01*
X116905250Y-117965581D01*
X116885038Y-117958349D01*
X116865632Y-117949170D01*
X116847219Y-117938134D01*
X116829976Y-117925346D01*
X116814070Y-117910930D01*
X116799654Y-117895024D01*
X116786866Y-117877781D01*
X116775830Y-117859368D01*
X116766651Y-117839962D01*
X116759419Y-117819750D01*
X116754203Y-117798926D01*
X116751053Y-117777691D01*
X116750000Y-117756250D01*
X116750000Y-117243750D01*
X116751053Y-117222309D01*
X116754203Y-117201074D01*
X116759419Y-117180250D01*
X116766651Y-117160038D01*
X116775830Y-117140632D01*
X116786866Y-117122219D01*
X116799654Y-117104976D01*
X116814070Y-117089070D01*
X116829976Y-117074654D01*
X116847219Y-117061866D01*
X116865632Y-117050830D01*
X116885038Y-117041651D01*
X116905250Y-117034419D01*
X116926074Y-117029203D01*
X116947309Y-117026053D01*
X116968750Y-117025000D01*
X117406250Y-117025000D01*
X117427691Y-117026053D01*
X117427691Y-117026053D01*
G37*
D13*
X117187500Y-117500000D03*
D12*
G36*
X114638077Y-120503274D02*
G01*
X114659312Y-120506424D01*
X114680136Y-120511640D01*
X114700348Y-120518872D01*
X114719754Y-120528051D01*
X114738167Y-120539087D01*
X114755410Y-120551875D01*
X114771316Y-120566291D01*
X115133709Y-120928684D01*
X115148125Y-120944590D01*
X115160913Y-120961833D01*
X115171949Y-120980246D01*
X115181128Y-120999652D01*
X115188360Y-121019864D01*
X115193576Y-121040688D01*
X115196726Y-121061923D01*
X115197779Y-121083364D01*
X115196726Y-121104805D01*
X115193576Y-121126040D01*
X115188360Y-121146864D01*
X115181128Y-121167076D01*
X115171949Y-121186482D01*
X115160913Y-121204895D01*
X115148125Y-121222138D01*
X115133709Y-121238044D01*
X114824350Y-121547403D01*
X114808444Y-121561819D01*
X114791201Y-121574607D01*
X114772788Y-121585643D01*
X114753382Y-121594822D01*
X114733170Y-121602054D01*
X114712346Y-121607270D01*
X114691111Y-121610420D01*
X114669670Y-121611473D01*
X114648229Y-121610420D01*
X114626994Y-121607270D01*
X114606170Y-121602054D01*
X114585958Y-121594822D01*
X114566552Y-121585643D01*
X114548139Y-121574607D01*
X114530896Y-121561819D01*
X114514990Y-121547403D01*
X114152597Y-121185010D01*
X114138181Y-121169104D01*
X114125393Y-121151861D01*
X114114357Y-121133448D01*
X114105178Y-121114042D01*
X114097946Y-121093830D01*
X114092730Y-121073006D01*
X114089580Y-121051771D01*
X114088527Y-121030330D01*
X114089580Y-121008889D01*
X114092730Y-120987654D01*
X114097946Y-120966830D01*
X114105178Y-120946618D01*
X114114357Y-120927212D01*
X114125393Y-120908799D01*
X114138181Y-120891556D01*
X114152597Y-120875650D01*
X114461956Y-120566291D01*
X114477862Y-120551875D01*
X114495105Y-120539087D01*
X114513518Y-120528051D01*
X114532924Y-120518872D01*
X114553136Y-120511640D01*
X114573960Y-120506424D01*
X114595195Y-120503274D01*
X114616636Y-120502221D01*
X114638077Y-120503274D01*
X114638077Y-120503274D01*
G37*
D13*
X114643153Y-121056847D03*
D12*
G36*
X115751771Y-119389580D02*
G01*
X115773006Y-119392730D01*
X115793830Y-119397946D01*
X115814042Y-119405178D01*
X115833448Y-119414357D01*
X115851861Y-119425393D01*
X115869104Y-119438181D01*
X115885010Y-119452597D01*
X116247403Y-119814990D01*
X116261819Y-119830896D01*
X116274607Y-119848139D01*
X116285643Y-119866552D01*
X116294822Y-119885958D01*
X116302054Y-119906170D01*
X116307270Y-119926994D01*
X116310420Y-119948229D01*
X116311473Y-119969670D01*
X116310420Y-119991111D01*
X116307270Y-120012346D01*
X116302054Y-120033170D01*
X116294822Y-120053382D01*
X116285643Y-120072788D01*
X116274607Y-120091201D01*
X116261819Y-120108444D01*
X116247403Y-120124350D01*
X115938044Y-120433709D01*
X115922138Y-120448125D01*
X115904895Y-120460913D01*
X115886482Y-120471949D01*
X115867076Y-120481128D01*
X115846864Y-120488360D01*
X115826040Y-120493576D01*
X115804805Y-120496726D01*
X115783364Y-120497779D01*
X115761923Y-120496726D01*
X115740688Y-120493576D01*
X115719864Y-120488360D01*
X115699652Y-120481128D01*
X115680246Y-120471949D01*
X115661833Y-120460913D01*
X115644590Y-120448125D01*
X115628684Y-120433709D01*
X115266291Y-120071316D01*
X115251875Y-120055410D01*
X115239087Y-120038167D01*
X115228051Y-120019754D01*
X115218872Y-120000348D01*
X115211640Y-119980136D01*
X115206424Y-119959312D01*
X115203274Y-119938077D01*
X115202221Y-119916636D01*
X115203274Y-119895195D01*
X115206424Y-119873960D01*
X115211640Y-119853136D01*
X115218872Y-119832924D01*
X115228051Y-119813518D01*
X115239087Y-119795105D01*
X115251875Y-119777862D01*
X115266291Y-119761956D01*
X115575650Y-119452597D01*
X115591556Y-119438181D01*
X115608799Y-119425393D01*
X115627212Y-119414357D01*
X115646618Y-119405178D01*
X115666830Y-119397946D01*
X115687654Y-119392730D01*
X115708889Y-119389580D01*
X115730330Y-119388527D01*
X115751771Y-119389580D01*
X115751771Y-119389580D01*
G37*
D13*
X115756847Y-119943153D03*
D12*
G36*
X118434264Y-100832733D02*
G01*
X118455499Y-100835883D01*
X118476323Y-100841099D01*
X118496535Y-100848331D01*
X118515941Y-100857510D01*
X118534354Y-100868546D01*
X118551597Y-100881334D01*
X118567503Y-100895750D01*
X118876862Y-101205109D01*
X118891278Y-101221015D01*
X118904066Y-101238258D01*
X118915102Y-101256671D01*
X118924281Y-101276077D01*
X118931513Y-101296289D01*
X118936729Y-101317113D01*
X118939879Y-101338348D01*
X118940932Y-101359789D01*
X118939879Y-101381230D01*
X118936729Y-101402465D01*
X118931513Y-101423289D01*
X118924281Y-101443501D01*
X118915102Y-101462907D01*
X118904066Y-101481320D01*
X118891278Y-101498563D01*
X118876862Y-101514469D01*
X118514469Y-101876862D01*
X118498563Y-101891278D01*
X118481320Y-101904066D01*
X118462907Y-101915102D01*
X118443501Y-101924281D01*
X118423289Y-101931513D01*
X118402465Y-101936729D01*
X118381230Y-101939879D01*
X118359789Y-101940932D01*
X118338348Y-101939879D01*
X118317113Y-101936729D01*
X118296289Y-101931513D01*
X118276077Y-101924281D01*
X118256671Y-101915102D01*
X118238258Y-101904066D01*
X118221015Y-101891278D01*
X118205109Y-101876862D01*
X117895750Y-101567503D01*
X117881334Y-101551597D01*
X117868546Y-101534354D01*
X117857510Y-101515941D01*
X117848331Y-101496535D01*
X117841099Y-101476323D01*
X117835883Y-101455499D01*
X117832733Y-101434264D01*
X117831680Y-101412823D01*
X117832733Y-101391382D01*
X117835883Y-101370147D01*
X117841099Y-101349323D01*
X117848331Y-101329111D01*
X117857510Y-101309705D01*
X117868546Y-101291292D01*
X117881334Y-101274049D01*
X117895750Y-101258143D01*
X118258143Y-100895750D01*
X118274049Y-100881334D01*
X118291292Y-100868546D01*
X118309705Y-100857510D01*
X118329111Y-100848331D01*
X118349323Y-100841099D01*
X118370147Y-100835883D01*
X118391382Y-100832733D01*
X118412823Y-100831680D01*
X118434264Y-100832733D01*
X118434264Y-100832733D01*
G37*
D13*
X118386306Y-101386306D03*
D12*
G36*
X119547958Y-101946427D02*
G01*
X119569193Y-101949577D01*
X119590017Y-101954793D01*
X119610229Y-101962025D01*
X119629635Y-101971204D01*
X119648048Y-101982240D01*
X119665291Y-101995028D01*
X119681197Y-102009444D01*
X119990556Y-102318803D01*
X120004972Y-102334709D01*
X120017760Y-102351952D01*
X120028796Y-102370365D01*
X120037975Y-102389771D01*
X120045207Y-102409983D01*
X120050423Y-102430807D01*
X120053573Y-102452042D01*
X120054626Y-102473483D01*
X120053573Y-102494924D01*
X120050423Y-102516159D01*
X120045207Y-102536983D01*
X120037975Y-102557195D01*
X120028796Y-102576601D01*
X120017760Y-102595014D01*
X120004972Y-102612257D01*
X119990556Y-102628163D01*
X119628163Y-102990556D01*
X119612257Y-103004972D01*
X119595014Y-103017760D01*
X119576601Y-103028796D01*
X119557195Y-103037975D01*
X119536983Y-103045207D01*
X119516159Y-103050423D01*
X119494924Y-103053573D01*
X119473483Y-103054626D01*
X119452042Y-103053573D01*
X119430807Y-103050423D01*
X119409983Y-103045207D01*
X119389771Y-103037975D01*
X119370365Y-103028796D01*
X119351952Y-103017760D01*
X119334709Y-103004972D01*
X119318803Y-102990556D01*
X119009444Y-102681197D01*
X118995028Y-102665291D01*
X118982240Y-102648048D01*
X118971204Y-102629635D01*
X118962025Y-102610229D01*
X118954793Y-102590017D01*
X118949577Y-102569193D01*
X118946427Y-102547958D01*
X118945374Y-102526517D01*
X118946427Y-102505076D01*
X118949577Y-102483841D01*
X118954793Y-102463017D01*
X118962025Y-102442805D01*
X118971204Y-102423399D01*
X118982240Y-102404986D01*
X118995028Y-102387743D01*
X119009444Y-102371837D01*
X119371837Y-102009444D01*
X119387743Y-101995028D01*
X119404986Y-101982240D01*
X119423399Y-101971204D01*
X119442805Y-101962025D01*
X119463017Y-101954793D01*
X119483841Y-101949577D01*
X119505076Y-101946427D01*
X119526517Y-101945374D01*
X119547958Y-101946427D01*
X119547958Y-101946427D01*
G37*
D13*
X119500000Y-102500000D03*
D12*
G36*
X129604805Y-120003274D02*
G01*
X129626040Y-120006424D01*
X129646864Y-120011640D01*
X129667076Y-120018872D01*
X129686482Y-120028051D01*
X129704895Y-120039087D01*
X129722138Y-120051875D01*
X129738044Y-120066291D01*
X130047403Y-120375650D01*
X130061819Y-120391556D01*
X130074607Y-120408799D01*
X130085643Y-120427212D01*
X130094822Y-120446618D01*
X130102054Y-120466830D01*
X130107270Y-120487654D01*
X130110420Y-120508889D01*
X130111473Y-120530330D01*
X130110420Y-120551771D01*
X130107270Y-120573006D01*
X130102054Y-120593830D01*
X130094822Y-120614042D01*
X130085643Y-120633448D01*
X130074607Y-120651861D01*
X130061819Y-120669104D01*
X130047403Y-120685010D01*
X129685010Y-121047403D01*
X129669104Y-121061819D01*
X129651861Y-121074607D01*
X129633448Y-121085643D01*
X129614042Y-121094822D01*
X129593830Y-121102054D01*
X129573006Y-121107270D01*
X129551771Y-121110420D01*
X129530330Y-121111473D01*
X129508889Y-121110420D01*
X129487654Y-121107270D01*
X129466830Y-121102054D01*
X129446618Y-121094822D01*
X129427212Y-121085643D01*
X129408799Y-121074607D01*
X129391556Y-121061819D01*
X129375650Y-121047403D01*
X129066291Y-120738044D01*
X129051875Y-120722138D01*
X129039087Y-120704895D01*
X129028051Y-120686482D01*
X129018872Y-120667076D01*
X129011640Y-120646864D01*
X129006424Y-120626040D01*
X129003274Y-120604805D01*
X129002221Y-120583364D01*
X129003274Y-120561923D01*
X129006424Y-120540688D01*
X129011640Y-120519864D01*
X129018872Y-120499652D01*
X129028051Y-120480246D01*
X129039087Y-120461833D01*
X129051875Y-120444590D01*
X129066291Y-120428684D01*
X129428684Y-120066291D01*
X129444590Y-120051875D01*
X129461833Y-120039087D01*
X129480246Y-120028051D01*
X129499652Y-120018872D01*
X129519864Y-120011640D01*
X129540688Y-120006424D01*
X129561923Y-120003274D01*
X129583364Y-120002221D01*
X129604805Y-120003274D01*
X129604805Y-120003274D01*
G37*
D13*
X129556847Y-120556847D03*
D12*
G36*
X128491111Y-118889580D02*
G01*
X128512346Y-118892730D01*
X128533170Y-118897946D01*
X128553382Y-118905178D01*
X128572788Y-118914357D01*
X128591201Y-118925393D01*
X128608444Y-118938181D01*
X128624350Y-118952597D01*
X128933709Y-119261956D01*
X128948125Y-119277862D01*
X128960913Y-119295105D01*
X128971949Y-119313518D01*
X128981128Y-119332924D01*
X128988360Y-119353136D01*
X128993576Y-119373960D01*
X128996726Y-119395195D01*
X128997779Y-119416636D01*
X128996726Y-119438077D01*
X128993576Y-119459312D01*
X128988360Y-119480136D01*
X128981128Y-119500348D01*
X128971949Y-119519754D01*
X128960913Y-119538167D01*
X128948125Y-119555410D01*
X128933709Y-119571316D01*
X128571316Y-119933709D01*
X128555410Y-119948125D01*
X128538167Y-119960913D01*
X128519754Y-119971949D01*
X128500348Y-119981128D01*
X128480136Y-119988360D01*
X128459312Y-119993576D01*
X128438077Y-119996726D01*
X128416636Y-119997779D01*
X128395195Y-119996726D01*
X128373960Y-119993576D01*
X128353136Y-119988360D01*
X128332924Y-119981128D01*
X128313518Y-119971949D01*
X128295105Y-119960913D01*
X128277862Y-119948125D01*
X128261956Y-119933709D01*
X127952597Y-119624350D01*
X127938181Y-119608444D01*
X127925393Y-119591201D01*
X127914357Y-119572788D01*
X127905178Y-119553382D01*
X127897946Y-119533170D01*
X127892730Y-119512346D01*
X127889580Y-119491111D01*
X127888527Y-119469670D01*
X127889580Y-119448229D01*
X127892730Y-119426994D01*
X127897946Y-119406170D01*
X127905178Y-119385958D01*
X127914357Y-119366552D01*
X127925393Y-119348139D01*
X127938181Y-119330896D01*
X127952597Y-119314990D01*
X128314990Y-118952597D01*
X128330896Y-118938181D01*
X128348139Y-118925393D01*
X128366552Y-118914357D01*
X128385958Y-118905178D01*
X128406170Y-118897946D01*
X128426994Y-118892730D01*
X128448229Y-118889580D01*
X128469670Y-118888527D01*
X128491111Y-118889580D01*
X128491111Y-118889580D01*
G37*
D13*
X128443153Y-119443153D03*
D12*
G36*
X13277691Y-19776053D02*
G01*
X13298926Y-19779203D01*
X13319750Y-19784419D01*
X13339962Y-19791651D01*
X13359368Y-19800830D01*
X13377781Y-19811866D01*
X13395024Y-19824654D01*
X13410930Y-19839070D01*
X13425346Y-19854976D01*
X13438134Y-19872219D01*
X13449170Y-19890632D01*
X13458349Y-19910038D01*
X13465581Y-19930250D01*
X13470797Y-19951074D01*
X13473947Y-19972309D01*
X13475000Y-19993750D01*
X13475000Y-20431250D01*
X13473947Y-20452691D01*
X13470797Y-20473926D01*
X13465581Y-20494750D01*
X13458349Y-20514962D01*
X13449170Y-20534368D01*
X13438134Y-20552781D01*
X13425346Y-20570024D01*
X13410930Y-20585930D01*
X13395024Y-20600346D01*
X13377781Y-20613134D01*
X13359368Y-20624170D01*
X13339962Y-20633349D01*
X13319750Y-20640581D01*
X13298926Y-20645797D01*
X13277691Y-20648947D01*
X13256250Y-20650000D01*
X12743750Y-20650000D01*
X12722309Y-20648947D01*
X12701074Y-20645797D01*
X12680250Y-20640581D01*
X12660038Y-20633349D01*
X12640632Y-20624170D01*
X12622219Y-20613134D01*
X12604976Y-20600346D01*
X12589070Y-20585930D01*
X12574654Y-20570024D01*
X12561866Y-20552781D01*
X12550830Y-20534368D01*
X12541651Y-20514962D01*
X12534419Y-20494750D01*
X12529203Y-20473926D01*
X12526053Y-20452691D01*
X12525000Y-20431250D01*
X12525000Y-19993750D01*
X12526053Y-19972309D01*
X12529203Y-19951074D01*
X12534419Y-19930250D01*
X12541651Y-19910038D01*
X12550830Y-19890632D01*
X12561866Y-19872219D01*
X12574654Y-19854976D01*
X12589070Y-19839070D01*
X12604976Y-19824654D01*
X12622219Y-19811866D01*
X12640632Y-19800830D01*
X12660038Y-19791651D01*
X12680250Y-19784419D01*
X12701074Y-19779203D01*
X12722309Y-19776053D01*
X12743750Y-19775000D01*
X13256250Y-19775000D01*
X13277691Y-19776053D01*
X13277691Y-19776053D01*
G37*
D13*
X13000000Y-20212500D03*
D12*
G36*
X13277691Y-21351053D02*
G01*
X13298926Y-21354203D01*
X13319750Y-21359419D01*
X13339962Y-21366651D01*
X13359368Y-21375830D01*
X13377781Y-21386866D01*
X13395024Y-21399654D01*
X13410930Y-21414070D01*
X13425346Y-21429976D01*
X13438134Y-21447219D01*
X13449170Y-21465632D01*
X13458349Y-21485038D01*
X13465581Y-21505250D01*
X13470797Y-21526074D01*
X13473947Y-21547309D01*
X13475000Y-21568750D01*
X13475000Y-22006250D01*
X13473947Y-22027691D01*
X13470797Y-22048926D01*
X13465581Y-22069750D01*
X13458349Y-22089962D01*
X13449170Y-22109368D01*
X13438134Y-22127781D01*
X13425346Y-22145024D01*
X13410930Y-22160930D01*
X13395024Y-22175346D01*
X13377781Y-22188134D01*
X13359368Y-22199170D01*
X13339962Y-22208349D01*
X13319750Y-22215581D01*
X13298926Y-22220797D01*
X13277691Y-22223947D01*
X13256250Y-22225000D01*
X12743750Y-22225000D01*
X12722309Y-22223947D01*
X12701074Y-22220797D01*
X12680250Y-22215581D01*
X12660038Y-22208349D01*
X12640632Y-22199170D01*
X12622219Y-22188134D01*
X12604976Y-22175346D01*
X12589070Y-22160930D01*
X12574654Y-22145024D01*
X12561866Y-22127781D01*
X12550830Y-22109368D01*
X12541651Y-22089962D01*
X12534419Y-22069750D01*
X12529203Y-22048926D01*
X12526053Y-22027691D01*
X12525000Y-22006250D01*
X12525000Y-21568750D01*
X12526053Y-21547309D01*
X12529203Y-21526074D01*
X12534419Y-21505250D01*
X12541651Y-21485038D01*
X12550830Y-21465632D01*
X12561866Y-21447219D01*
X12574654Y-21429976D01*
X12589070Y-21414070D01*
X12604976Y-21399654D01*
X12622219Y-21386866D01*
X12640632Y-21375830D01*
X12660038Y-21366651D01*
X12680250Y-21359419D01*
X12701074Y-21354203D01*
X12722309Y-21351053D01*
X12743750Y-21350000D01*
X13256250Y-21350000D01*
X13277691Y-21351053D01*
X13277691Y-21351053D01*
G37*
D13*
X13000000Y-21787500D03*
D12*
G36*
X20527691Y-16026053D02*
G01*
X20548926Y-16029203D01*
X20569750Y-16034419D01*
X20589962Y-16041651D01*
X20609368Y-16050830D01*
X20627781Y-16061866D01*
X20645024Y-16074654D01*
X20660930Y-16089070D01*
X20675346Y-16104976D01*
X20688134Y-16122219D01*
X20699170Y-16140632D01*
X20708349Y-16160038D01*
X20715581Y-16180250D01*
X20720797Y-16201074D01*
X20723947Y-16222309D01*
X20725000Y-16243750D01*
X20725000Y-16756250D01*
X20723947Y-16777691D01*
X20720797Y-16798926D01*
X20715581Y-16819750D01*
X20708349Y-16839962D01*
X20699170Y-16859368D01*
X20688134Y-16877781D01*
X20675346Y-16895024D01*
X20660930Y-16910930D01*
X20645024Y-16925346D01*
X20627781Y-16938134D01*
X20609368Y-16949170D01*
X20589962Y-16958349D01*
X20569750Y-16965581D01*
X20548926Y-16970797D01*
X20527691Y-16973947D01*
X20506250Y-16975000D01*
X20068750Y-16975000D01*
X20047309Y-16973947D01*
X20026074Y-16970797D01*
X20005250Y-16965581D01*
X19985038Y-16958349D01*
X19965632Y-16949170D01*
X19947219Y-16938134D01*
X19929976Y-16925346D01*
X19914070Y-16910930D01*
X19899654Y-16895024D01*
X19886866Y-16877781D01*
X19875830Y-16859368D01*
X19866651Y-16839962D01*
X19859419Y-16819750D01*
X19854203Y-16798926D01*
X19851053Y-16777691D01*
X19850000Y-16756250D01*
X19850000Y-16243750D01*
X19851053Y-16222309D01*
X19854203Y-16201074D01*
X19859419Y-16180250D01*
X19866651Y-16160038D01*
X19875830Y-16140632D01*
X19886866Y-16122219D01*
X19899654Y-16104976D01*
X19914070Y-16089070D01*
X19929976Y-16074654D01*
X19947219Y-16061866D01*
X19965632Y-16050830D01*
X19985038Y-16041651D01*
X20005250Y-16034419D01*
X20026074Y-16029203D01*
X20047309Y-16026053D01*
X20068750Y-16025000D01*
X20506250Y-16025000D01*
X20527691Y-16026053D01*
X20527691Y-16026053D01*
G37*
D13*
X20287500Y-16500000D03*
D12*
G36*
X18952691Y-16026053D02*
G01*
X18973926Y-16029203D01*
X18994750Y-16034419D01*
X19014962Y-16041651D01*
X19034368Y-16050830D01*
X19052781Y-16061866D01*
X19070024Y-16074654D01*
X19085930Y-16089070D01*
X19100346Y-16104976D01*
X19113134Y-16122219D01*
X19124170Y-16140632D01*
X19133349Y-16160038D01*
X19140581Y-16180250D01*
X19145797Y-16201074D01*
X19148947Y-16222309D01*
X19150000Y-16243750D01*
X19150000Y-16756250D01*
X19148947Y-16777691D01*
X19145797Y-16798926D01*
X19140581Y-16819750D01*
X19133349Y-16839962D01*
X19124170Y-16859368D01*
X19113134Y-16877781D01*
X19100346Y-16895024D01*
X19085930Y-16910930D01*
X19070024Y-16925346D01*
X19052781Y-16938134D01*
X19034368Y-16949170D01*
X19014962Y-16958349D01*
X18994750Y-16965581D01*
X18973926Y-16970797D01*
X18952691Y-16973947D01*
X18931250Y-16975000D01*
X18493750Y-16975000D01*
X18472309Y-16973947D01*
X18451074Y-16970797D01*
X18430250Y-16965581D01*
X18410038Y-16958349D01*
X18390632Y-16949170D01*
X18372219Y-16938134D01*
X18354976Y-16925346D01*
X18339070Y-16910930D01*
X18324654Y-16895024D01*
X18311866Y-16877781D01*
X18300830Y-16859368D01*
X18291651Y-16839962D01*
X18284419Y-16819750D01*
X18279203Y-16798926D01*
X18276053Y-16777691D01*
X18275000Y-16756250D01*
X18275000Y-16243750D01*
X18276053Y-16222309D01*
X18279203Y-16201074D01*
X18284419Y-16180250D01*
X18291651Y-16160038D01*
X18300830Y-16140632D01*
X18311866Y-16122219D01*
X18324654Y-16104976D01*
X18339070Y-16089070D01*
X18354976Y-16074654D01*
X18372219Y-16061866D01*
X18390632Y-16050830D01*
X18410038Y-16041651D01*
X18430250Y-16034419D01*
X18451074Y-16029203D01*
X18472309Y-16026053D01*
X18493750Y-16025000D01*
X18931250Y-16025000D01*
X18952691Y-16026053D01*
X18952691Y-16026053D01*
G37*
D13*
X18712500Y-16500000D03*
D12*
G36*
X119138077Y-121303274D02*
G01*
X119159312Y-121306424D01*
X119180136Y-121311640D01*
X119200348Y-121318872D01*
X119219754Y-121328051D01*
X119238167Y-121339087D01*
X119255410Y-121351875D01*
X119271316Y-121366291D01*
X119633709Y-121728684D01*
X119648125Y-121744590D01*
X119660913Y-121761833D01*
X119671949Y-121780246D01*
X119681128Y-121799652D01*
X119688360Y-121819864D01*
X119693576Y-121840688D01*
X119696726Y-121861923D01*
X119697779Y-121883364D01*
X119696726Y-121904805D01*
X119693576Y-121926040D01*
X119688360Y-121946864D01*
X119681128Y-121967076D01*
X119671949Y-121986482D01*
X119660913Y-122004895D01*
X119648125Y-122022138D01*
X119633709Y-122038044D01*
X119324350Y-122347403D01*
X119308444Y-122361819D01*
X119291201Y-122374607D01*
X119272788Y-122385643D01*
X119253382Y-122394822D01*
X119233170Y-122402054D01*
X119212346Y-122407270D01*
X119191111Y-122410420D01*
X119169670Y-122411473D01*
X119148229Y-122410420D01*
X119126994Y-122407270D01*
X119106170Y-122402054D01*
X119085958Y-122394822D01*
X119066552Y-122385643D01*
X119048139Y-122374607D01*
X119030896Y-122361819D01*
X119014990Y-122347403D01*
X118652597Y-121985010D01*
X118638181Y-121969104D01*
X118625393Y-121951861D01*
X118614357Y-121933448D01*
X118605178Y-121914042D01*
X118597946Y-121893830D01*
X118592730Y-121873006D01*
X118589580Y-121851771D01*
X118588527Y-121830330D01*
X118589580Y-121808889D01*
X118592730Y-121787654D01*
X118597946Y-121766830D01*
X118605178Y-121746618D01*
X118614357Y-121727212D01*
X118625393Y-121708799D01*
X118638181Y-121691556D01*
X118652597Y-121675650D01*
X118961956Y-121366291D01*
X118977862Y-121351875D01*
X118995105Y-121339087D01*
X119013518Y-121328051D01*
X119032924Y-121318872D01*
X119053136Y-121311640D01*
X119073960Y-121306424D01*
X119095195Y-121303274D01*
X119116636Y-121302221D01*
X119138077Y-121303274D01*
X119138077Y-121303274D01*
G37*
D13*
X119143153Y-121856847D03*
D12*
G36*
X120251771Y-120189580D02*
G01*
X120273006Y-120192730D01*
X120293830Y-120197946D01*
X120314042Y-120205178D01*
X120333448Y-120214357D01*
X120351861Y-120225393D01*
X120369104Y-120238181D01*
X120385010Y-120252597D01*
X120747403Y-120614990D01*
X120761819Y-120630896D01*
X120774607Y-120648139D01*
X120785643Y-120666552D01*
X120794822Y-120685958D01*
X120802054Y-120706170D01*
X120807270Y-120726994D01*
X120810420Y-120748229D01*
X120811473Y-120769670D01*
X120810420Y-120791111D01*
X120807270Y-120812346D01*
X120802054Y-120833170D01*
X120794822Y-120853382D01*
X120785643Y-120872788D01*
X120774607Y-120891201D01*
X120761819Y-120908444D01*
X120747403Y-120924350D01*
X120438044Y-121233709D01*
X120422138Y-121248125D01*
X120404895Y-121260913D01*
X120386482Y-121271949D01*
X120367076Y-121281128D01*
X120346864Y-121288360D01*
X120326040Y-121293576D01*
X120304805Y-121296726D01*
X120283364Y-121297779D01*
X120261923Y-121296726D01*
X120240688Y-121293576D01*
X120219864Y-121288360D01*
X120199652Y-121281128D01*
X120180246Y-121271949D01*
X120161833Y-121260913D01*
X120144590Y-121248125D01*
X120128684Y-121233709D01*
X119766291Y-120871316D01*
X119751875Y-120855410D01*
X119739087Y-120838167D01*
X119728051Y-120819754D01*
X119718872Y-120800348D01*
X119711640Y-120780136D01*
X119706424Y-120759312D01*
X119703274Y-120738077D01*
X119702221Y-120716636D01*
X119703274Y-120695195D01*
X119706424Y-120673960D01*
X119711640Y-120653136D01*
X119718872Y-120632924D01*
X119728051Y-120613518D01*
X119739087Y-120595105D01*
X119751875Y-120577862D01*
X119766291Y-120561956D01*
X120075650Y-120252597D01*
X120091556Y-120238181D01*
X120108799Y-120225393D01*
X120127212Y-120214357D01*
X120146618Y-120205178D01*
X120166830Y-120197946D01*
X120187654Y-120192730D01*
X120208889Y-120189580D01*
X120230330Y-120188527D01*
X120251771Y-120189580D01*
X120251771Y-120189580D01*
G37*
D13*
X120256847Y-120743153D03*
D12*
G36*
X118038077Y-120203274D02*
G01*
X118059312Y-120206424D01*
X118080136Y-120211640D01*
X118100348Y-120218872D01*
X118119754Y-120228051D01*
X118138167Y-120239087D01*
X118155410Y-120251875D01*
X118171316Y-120266291D01*
X118533709Y-120628684D01*
X118548125Y-120644590D01*
X118560913Y-120661833D01*
X118571949Y-120680246D01*
X118581128Y-120699652D01*
X118588360Y-120719864D01*
X118593576Y-120740688D01*
X118596726Y-120761923D01*
X118597779Y-120783364D01*
X118596726Y-120804805D01*
X118593576Y-120826040D01*
X118588360Y-120846864D01*
X118581128Y-120867076D01*
X118571949Y-120886482D01*
X118560913Y-120904895D01*
X118548125Y-120922138D01*
X118533709Y-120938044D01*
X118224350Y-121247403D01*
X118208444Y-121261819D01*
X118191201Y-121274607D01*
X118172788Y-121285643D01*
X118153382Y-121294822D01*
X118133170Y-121302054D01*
X118112346Y-121307270D01*
X118091111Y-121310420D01*
X118069670Y-121311473D01*
X118048229Y-121310420D01*
X118026994Y-121307270D01*
X118006170Y-121302054D01*
X117985958Y-121294822D01*
X117966552Y-121285643D01*
X117948139Y-121274607D01*
X117930896Y-121261819D01*
X117914990Y-121247403D01*
X117552597Y-120885010D01*
X117538181Y-120869104D01*
X117525393Y-120851861D01*
X117514357Y-120833448D01*
X117505178Y-120814042D01*
X117497946Y-120793830D01*
X117492730Y-120773006D01*
X117489580Y-120751771D01*
X117488527Y-120730330D01*
X117489580Y-120708889D01*
X117492730Y-120687654D01*
X117497946Y-120666830D01*
X117505178Y-120646618D01*
X117514357Y-120627212D01*
X117525393Y-120608799D01*
X117538181Y-120591556D01*
X117552597Y-120575650D01*
X117861956Y-120266291D01*
X117877862Y-120251875D01*
X117895105Y-120239087D01*
X117913518Y-120228051D01*
X117932924Y-120218872D01*
X117953136Y-120211640D01*
X117973960Y-120206424D01*
X117995195Y-120203274D01*
X118016636Y-120202221D01*
X118038077Y-120203274D01*
X118038077Y-120203274D01*
G37*
D13*
X118043153Y-120756847D03*
D12*
G36*
X119151771Y-119089580D02*
G01*
X119173006Y-119092730D01*
X119193830Y-119097946D01*
X119214042Y-119105178D01*
X119233448Y-119114357D01*
X119251861Y-119125393D01*
X119269104Y-119138181D01*
X119285010Y-119152597D01*
X119647403Y-119514990D01*
X119661819Y-119530896D01*
X119674607Y-119548139D01*
X119685643Y-119566552D01*
X119694822Y-119585958D01*
X119702054Y-119606170D01*
X119707270Y-119626994D01*
X119710420Y-119648229D01*
X119711473Y-119669670D01*
X119710420Y-119691111D01*
X119707270Y-119712346D01*
X119702054Y-119733170D01*
X119694822Y-119753382D01*
X119685643Y-119772788D01*
X119674607Y-119791201D01*
X119661819Y-119808444D01*
X119647403Y-119824350D01*
X119338044Y-120133709D01*
X119322138Y-120148125D01*
X119304895Y-120160913D01*
X119286482Y-120171949D01*
X119267076Y-120181128D01*
X119246864Y-120188360D01*
X119226040Y-120193576D01*
X119204805Y-120196726D01*
X119183364Y-120197779D01*
X119161923Y-120196726D01*
X119140688Y-120193576D01*
X119119864Y-120188360D01*
X119099652Y-120181128D01*
X119080246Y-120171949D01*
X119061833Y-120160913D01*
X119044590Y-120148125D01*
X119028684Y-120133709D01*
X118666291Y-119771316D01*
X118651875Y-119755410D01*
X118639087Y-119738167D01*
X118628051Y-119719754D01*
X118618872Y-119700348D01*
X118611640Y-119680136D01*
X118606424Y-119659312D01*
X118603274Y-119638077D01*
X118602221Y-119616636D01*
X118603274Y-119595195D01*
X118606424Y-119573960D01*
X118611640Y-119553136D01*
X118618872Y-119532924D01*
X118628051Y-119513518D01*
X118639087Y-119495105D01*
X118651875Y-119477862D01*
X118666291Y-119461956D01*
X118975650Y-119152597D01*
X118991556Y-119138181D01*
X119008799Y-119125393D01*
X119027212Y-119114357D01*
X119046618Y-119105178D01*
X119066830Y-119097946D01*
X119087654Y-119092730D01*
X119108889Y-119089580D01*
X119130330Y-119088527D01*
X119151771Y-119089580D01*
X119151771Y-119089580D01*
G37*
D13*
X119156847Y-119643153D03*
D12*
G36*
X184277691Y-107238553D02*
G01*
X184298926Y-107241703D01*
X184319750Y-107246919D01*
X184339962Y-107254151D01*
X184359368Y-107263330D01*
X184377781Y-107274366D01*
X184395024Y-107287154D01*
X184410930Y-107301570D01*
X184425346Y-107317476D01*
X184438134Y-107334719D01*
X184449170Y-107353132D01*
X184458349Y-107372538D01*
X184465581Y-107392750D01*
X184470797Y-107413574D01*
X184473947Y-107434809D01*
X184475000Y-107456250D01*
X184475000Y-107893750D01*
X184473947Y-107915191D01*
X184470797Y-107936426D01*
X184465581Y-107957250D01*
X184458349Y-107977462D01*
X184449170Y-107996868D01*
X184438134Y-108015281D01*
X184425346Y-108032524D01*
X184410930Y-108048430D01*
X184395024Y-108062846D01*
X184377781Y-108075634D01*
X184359368Y-108086670D01*
X184339962Y-108095849D01*
X184319750Y-108103081D01*
X184298926Y-108108297D01*
X184277691Y-108111447D01*
X184256250Y-108112500D01*
X183743750Y-108112500D01*
X183722309Y-108111447D01*
X183701074Y-108108297D01*
X183680250Y-108103081D01*
X183660038Y-108095849D01*
X183640632Y-108086670D01*
X183622219Y-108075634D01*
X183604976Y-108062846D01*
X183589070Y-108048430D01*
X183574654Y-108032524D01*
X183561866Y-108015281D01*
X183550830Y-107996868D01*
X183541651Y-107977462D01*
X183534419Y-107957250D01*
X183529203Y-107936426D01*
X183526053Y-107915191D01*
X183525000Y-107893750D01*
X183525000Y-107456250D01*
X183526053Y-107434809D01*
X183529203Y-107413574D01*
X183534419Y-107392750D01*
X183541651Y-107372538D01*
X183550830Y-107353132D01*
X183561866Y-107334719D01*
X183574654Y-107317476D01*
X183589070Y-107301570D01*
X183604976Y-107287154D01*
X183622219Y-107274366D01*
X183640632Y-107263330D01*
X183660038Y-107254151D01*
X183680250Y-107246919D01*
X183701074Y-107241703D01*
X183722309Y-107238553D01*
X183743750Y-107237500D01*
X184256250Y-107237500D01*
X184277691Y-107238553D01*
X184277691Y-107238553D01*
G37*
D13*
X184000000Y-107675000D03*
D12*
G36*
X184277691Y-108813553D02*
G01*
X184298926Y-108816703D01*
X184319750Y-108821919D01*
X184339962Y-108829151D01*
X184359368Y-108838330D01*
X184377781Y-108849366D01*
X184395024Y-108862154D01*
X184410930Y-108876570D01*
X184425346Y-108892476D01*
X184438134Y-108909719D01*
X184449170Y-108928132D01*
X184458349Y-108947538D01*
X184465581Y-108967750D01*
X184470797Y-108988574D01*
X184473947Y-109009809D01*
X184475000Y-109031250D01*
X184475000Y-109468750D01*
X184473947Y-109490191D01*
X184470797Y-109511426D01*
X184465581Y-109532250D01*
X184458349Y-109552462D01*
X184449170Y-109571868D01*
X184438134Y-109590281D01*
X184425346Y-109607524D01*
X184410930Y-109623430D01*
X184395024Y-109637846D01*
X184377781Y-109650634D01*
X184359368Y-109661670D01*
X184339962Y-109670849D01*
X184319750Y-109678081D01*
X184298926Y-109683297D01*
X184277691Y-109686447D01*
X184256250Y-109687500D01*
X183743750Y-109687500D01*
X183722309Y-109686447D01*
X183701074Y-109683297D01*
X183680250Y-109678081D01*
X183660038Y-109670849D01*
X183640632Y-109661670D01*
X183622219Y-109650634D01*
X183604976Y-109637846D01*
X183589070Y-109623430D01*
X183574654Y-109607524D01*
X183561866Y-109590281D01*
X183550830Y-109571868D01*
X183541651Y-109552462D01*
X183534419Y-109532250D01*
X183529203Y-109511426D01*
X183526053Y-109490191D01*
X183525000Y-109468750D01*
X183525000Y-109031250D01*
X183526053Y-109009809D01*
X183529203Y-108988574D01*
X183534419Y-108967750D01*
X183541651Y-108947538D01*
X183550830Y-108928132D01*
X183561866Y-108909719D01*
X183574654Y-108892476D01*
X183589070Y-108876570D01*
X183604976Y-108862154D01*
X183622219Y-108849366D01*
X183640632Y-108838330D01*
X183660038Y-108829151D01*
X183680250Y-108821919D01*
X183701074Y-108816703D01*
X183722309Y-108813553D01*
X183743750Y-108812500D01*
X184256250Y-108812500D01*
X184277691Y-108813553D01*
X184277691Y-108813553D01*
G37*
D13*
X184000000Y-109250000D03*
D12*
G36*
X11387627Y-21351053D02*
G01*
X11408862Y-21354203D01*
X11429686Y-21359419D01*
X11449898Y-21366651D01*
X11469304Y-21375830D01*
X11487717Y-21386866D01*
X11504960Y-21399654D01*
X11520866Y-21414070D01*
X11535282Y-21429976D01*
X11548070Y-21447219D01*
X11559106Y-21465632D01*
X11568285Y-21485038D01*
X11575517Y-21505250D01*
X11580733Y-21526074D01*
X11583883Y-21547309D01*
X11584936Y-21568750D01*
X11584936Y-22006250D01*
X11583883Y-22027691D01*
X11580733Y-22048926D01*
X11575517Y-22069750D01*
X11568285Y-22089962D01*
X11559106Y-22109368D01*
X11548070Y-22127781D01*
X11535282Y-22145024D01*
X11520866Y-22160930D01*
X11504960Y-22175346D01*
X11487717Y-22188134D01*
X11469304Y-22199170D01*
X11449898Y-22208349D01*
X11429686Y-22215581D01*
X11408862Y-22220797D01*
X11387627Y-22223947D01*
X11366186Y-22225000D01*
X10853686Y-22225000D01*
X10832245Y-22223947D01*
X10811010Y-22220797D01*
X10790186Y-22215581D01*
X10769974Y-22208349D01*
X10750568Y-22199170D01*
X10732155Y-22188134D01*
X10714912Y-22175346D01*
X10699006Y-22160930D01*
X10684590Y-22145024D01*
X10671802Y-22127781D01*
X10660766Y-22109368D01*
X10651587Y-22089962D01*
X10644355Y-22069750D01*
X10639139Y-22048926D01*
X10635989Y-22027691D01*
X10634936Y-22006250D01*
X10634936Y-21568750D01*
X10635989Y-21547309D01*
X10639139Y-21526074D01*
X10644355Y-21505250D01*
X10651587Y-21485038D01*
X10660766Y-21465632D01*
X10671802Y-21447219D01*
X10684590Y-21429976D01*
X10699006Y-21414070D01*
X10714912Y-21399654D01*
X10732155Y-21386866D01*
X10750568Y-21375830D01*
X10769974Y-21366651D01*
X10790186Y-21359419D01*
X10811010Y-21354203D01*
X10832245Y-21351053D01*
X10853686Y-21350000D01*
X11366186Y-21350000D01*
X11387627Y-21351053D01*
X11387627Y-21351053D01*
G37*
D13*
X11109936Y-21787500D03*
D12*
G36*
X11387627Y-19776053D02*
G01*
X11408862Y-19779203D01*
X11429686Y-19784419D01*
X11449898Y-19791651D01*
X11469304Y-19800830D01*
X11487717Y-19811866D01*
X11504960Y-19824654D01*
X11520866Y-19839070D01*
X11535282Y-19854976D01*
X11548070Y-19872219D01*
X11559106Y-19890632D01*
X11568285Y-19910038D01*
X11575517Y-19930250D01*
X11580733Y-19951074D01*
X11583883Y-19972309D01*
X11584936Y-19993750D01*
X11584936Y-20431250D01*
X11583883Y-20452691D01*
X11580733Y-20473926D01*
X11575517Y-20494750D01*
X11568285Y-20514962D01*
X11559106Y-20534368D01*
X11548070Y-20552781D01*
X11535282Y-20570024D01*
X11520866Y-20585930D01*
X11504960Y-20600346D01*
X11487717Y-20613134D01*
X11469304Y-20624170D01*
X11449898Y-20633349D01*
X11429686Y-20640581D01*
X11408862Y-20645797D01*
X11387627Y-20648947D01*
X11366186Y-20650000D01*
X10853686Y-20650000D01*
X10832245Y-20648947D01*
X10811010Y-20645797D01*
X10790186Y-20640581D01*
X10769974Y-20633349D01*
X10750568Y-20624170D01*
X10732155Y-20613134D01*
X10714912Y-20600346D01*
X10699006Y-20585930D01*
X10684590Y-20570024D01*
X10671802Y-20552781D01*
X10660766Y-20534368D01*
X10651587Y-20514962D01*
X10644355Y-20494750D01*
X10639139Y-20473926D01*
X10635989Y-20452691D01*
X10634936Y-20431250D01*
X10634936Y-19993750D01*
X10635989Y-19972309D01*
X10639139Y-19951074D01*
X10644355Y-19930250D01*
X10651587Y-19910038D01*
X10660766Y-19890632D01*
X10671802Y-19872219D01*
X10684590Y-19854976D01*
X10699006Y-19839070D01*
X10714912Y-19824654D01*
X10732155Y-19811866D01*
X10750568Y-19800830D01*
X10769974Y-19791651D01*
X10790186Y-19784419D01*
X10811010Y-19779203D01*
X10832245Y-19776053D01*
X10853686Y-19775000D01*
X11366186Y-19775000D01*
X11387627Y-19776053D01*
X11387627Y-19776053D01*
G37*
D13*
X11109936Y-20212500D03*
D12*
G36*
X18952691Y-14296244D02*
G01*
X18973926Y-14299394D01*
X18994750Y-14304610D01*
X19014962Y-14311842D01*
X19034368Y-14321021D01*
X19052781Y-14332057D01*
X19070024Y-14344845D01*
X19085930Y-14359261D01*
X19100346Y-14375167D01*
X19113134Y-14392410D01*
X19124170Y-14410823D01*
X19133349Y-14430229D01*
X19140581Y-14450441D01*
X19145797Y-14471265D01*
X19148947Y-14492500D01*
X19150000Y-14513941D01*
X19150000Y-15026441D01*
X19148947Y-15047882D01*
X19145797Y-15069117D01*
X19140581Y-15089941D01*
X19133349Y-15110153D01*
X19124170Y-15129559D01*
X19113134Y-15147972D01*
X19100346Y-15165215D01*
X19085930Y-15181121D01*
X19070024Y-15195537D01*
X19052781Y-15208325D01*
X19034368Y-15219361D01*
X19014962Y-15228540D01*
X18994750Y-15235772D01*
X18973926Y-15240988D01*
X18952691Y-15244138D01*
X18931250Y-15245191D01*
X18493750Y-15245191D01*
X18472309Y-15244138D01*
X18451074Y-15240988D01*
X18430250Y-15235772D01*
X18410038Y-15228540D01*
X18390632Y-15219361D01*
X18372219Y-15208325D01*
X18354976Y-15195537D01*
X18339070Y-15181121D01*
X18324654Y-15165215D01*
X18311866Y-15147972D01*
X18300830Y-15129559D01*
X18291651Y-15110153D01*
X18284419Y-15089941D01*
X18279203Y-15069117D01*
X18276053Y-15047882D01*
X18275000Y-15026441D01*
X18275000Y-14513941D01*
X18276053Y-14492500D01*
X18279203Y-14471265D01*
X18284419Y-14450441D01*
X18291651Y-14430229D01*
X18300830Y-14410823D01*
X18311866Y-14392410D01*
X18324654Y-14375167D01*
X18339070Y-14359261D01*
X18354976Y-14344845D01*
X18372219Y-14332057D01*
X18390632Y-14321021D01*
X18410038Y-14311842D01*
X18430250Y-14304610D01*
X18451074Y-14299394D01*
X18472309Y-14296244D01*
X18493750Y-14295191D01*
X18931250Y-14295191D01*
X18952691Y-14296244D01*
X18952691Y-14296244D01*
G37*
D13*
X18712500Y-14770191D03*
D12*
G36*
X20527691Y-14296244D02*
G01*
X20548926Y-14299394D01*
X20569750Y-14304610D01*
X20589962Y-14311842D01*
X20609368Y-14321021D01*
X20627781Y-14332057D01*
X20645024Y-14344845D01*
X20660930Y-14359261D01*
X20675346Y-14375167D01*
X20688134Y-14392410D01*
X20699170Y-14410823D01*
X20708349Y-14430229D01*
X20715581Y-14450441D01*
X20720797Y-14471265D01*
X20723947Y-14492500D01*
X20725000Y-14513941D01*
X20725000Y-15026441D01*
X20723947Y-15047882D01*
X20720797Y-15069117D01*
X20715581Y-15089941D01*
X20708349Y-15110153D01*
X20699170Y-15129559D01*
X20688134Y-15147972D01*
X20675346Y-15165215D01*
X20660930Y-15181121D01*
X20645024Y-15195537D01*
X20627781Y-15208325D01*
X20609368Y-15219361D01*
X20589962Y-15228540D01*
X20569750Y-15235772D01*
X20548926Y-15240988D01*
X20527691Y-15244138D01*
X20506250Y-15245191D01*
X20068750Y-15245191D01*
X20047309Y-15244138D01*
X20026074Y-15240988D01*
X20005250Y-15235772D01*
X19985038Y-15228540D01*
X19965632Y-15219361D01*
X19947219Y-15208325D01*
X19929976Y-15195537D01*
X19914070Y-15181121D01*
X19899654Y-15165215D01*
X19886866Y-15147972D01*
X19875830Y-15129559D01*
X19866651Y-15110153D01*
X19859419Y-15089941D01*
X19854203Y-15069117D01*
X19851053Y-15047882D01*
X19850000Y-15026441D01*
X19850000Y-14513941D01*
X19851053Y-14492500D01*
X19854203Y-14471265D01*
X19859419Y-14450441D01*
X19866651Y-14430229D01*
X19875830Y-14410823D01*
X19886866Y-14392410D01*
X19899654Y-14375167D01*
X19914070Y-14359261D01*
X19929976Y-14344845D01*
X19947219Y-14332057D01*
X19965632Y-14321021D01*
X19985038Y-14311842D01*
X20005250Y-14304610D01*
X20026074Y-14299394D01*
X20047309Y-14296244D01*
X20068750Y-14295191D01*
X20506250Y-14295191D01*
X20527691Y-14296244D01*
X20527691Y-14296244D01*
G37*
D13*
X20287500Y-14770191D03*
D12*
G36*
X315977691Y-46351053D02*
G01*
X315998926Y-46354203D01*
X316019750Y-46359419D01*
X316039962Y-46366651D01*
X316059368Y-46375830D01*
X316077781Y-46386866D01*
X316095024Y-46399654D01*
X316110930Y-46414070D01*
X316125346Y-46429976D01*
X316138134Y-46447219D01*
X316149170Y-46465632D01*
X316158349Y-46485038D01*
X316165581Y-46505250D01*
X316170797Y-46526074D01*
X316173947Y-46547309D01*
X316175000Y-46568750D01*
X316175000Y-47006250D01*
X316173947Y-47027691D01*
X316170797Y-47048926D01*
X316165581Y-47069750D01*
X316158349Y-47089962D01*
X316149170Y-47109368D01*
X316138134Y-47127781D01*
X316125346Y-47145024D01*
X316110930Y-47160930D01*
X316095024Y-47175346D01*
X316077781Y-47188134D01*
X316059368Y-47199170D01*
X316039962Y-47208349D01*
X316019750Y-47215581D01*
X315998926Y-47220797D01*
X315977691Y-47223947D01*
X315956250Y-47225000D01*
X315443750Y-47225000D01*
X315422309Y-47223947D01*
X315401074Y-47220797D01*
X315380250Y-47215581D01*
X315360038Y-47208349D01*
X315340632Y-47199170D01*
X315322219Y-47188134D01*
X315304976Y-47175346D01*
X315289070Y-47160930D01*
X315274654Y-47145024D01*
X315261866Y-47127781D01*
X315250830Y-47109368D01*
X315241651Y-47089962D01*
X315234419Y-47069750D01*
X315229203Y-47048926D01*
X315226053Y-47027691D01*
X315225000Y-47006250D01*
X315225000Y-46568750D01*
X315226053Y-46547309D01*
X315229203Y-46526074D01*
X315234419Y-46505250D01*
X315241651Y-46485038D01*
X315250830Y-46465632D01*
X315261866Y-46447219D01*
X315274654Y-46429976D01*
X315289070Y-46414070D01*
X315304976Y-46399654D01*
X315322219Y-46386866D01*
X315340632Y-46375830D01*
X315360038Y-46366651D01*
X315380250Y-46359419D01*
X315401074Y-46354203D01*
X315422309Y-46351053D01*
X315443750Y-46350000D01*
X315956250Y-46350000D01*
X315977691Y-46351053D01*
X315977691Y-46351053D01*
G37*
D13*
X315700000Y-46787500D03*
D12*
G36*
X315977691Y-44776053D02*
G01*
X315998926Y-44779203D01*
X316019750Y-44784419D01*
X316039962Y-44791651D01*
X316059368Y-44800830D01*
X316077781Y-44811866D01*
X316095024Y-44824654D01*
X316110930Y-44839070D01*
X316125346Y-44854976D01*
X316138134Y-44872219D01*
X316149170Y-44890632D01*
X316158349Y-44910038D01*
X316165581Y-44930250D01*
X316170797Y-44951074D01*
X316173947Y-44972309D01*
X316175000Y-44993750D01*
X316175000Y-45431250D01*
X316173947Y-45452691D01*
X316170797Y-45473926D01*
X316165581Y-45494750D01*
X316158349Y-45514962D01*
X316149170Y-45534368D01*
X316138134Y-45552781D01*
X316125346Y-45570024D01*
X316110930Y-45585930D01*
X316095024Y-45600346D01*
X316077781Y-45613134D01*
X316059368Y-45624170D01*
X316039962Y-45633349D01*
X316019750Y-45640581D01*
X315998926Y-45645797D01*
X315977691Y-45648947D01*
X315956250Y-45650000D01*
X315443750Y-45650000D01*
X315422309Y-45648947D01*
X315401074Y-45645797D01*
X315380250Y-45640581D01*
X315360038Y-45633349D01*
X315340632Y-45624170D01*
X315322219Y-45613134D01*
X315304976Y-45600346D01*
X315289070Y-45585930D01*
X315274654Y-45570024D01*
X315261866Y-45552781D01*
X315250830Y-45534368D01*
X315241651Y-45514962D01*
X315234419Y-45494750D01*
X315229203Y-45473926D01*
X315226053Y-45452691D01*
X315225000Y-45431250D01*
X315225000Y-44993750D01*
X315226053Y-44972309D01*
X315229203Y-44951074D01*
X315234419Y-44930250D01*
X315241651Y-44910038D01*
X315250830Y-44890632D01*
X315261866Y-44872219D01*
X315274654Y-44854976D01*
X315289070Y-44839070D01*
X315304976Y-44824654D01*
X315322219Y-44811866D01*
X315340632Y-44800830D01*
X315360038Y-44791651D01*
X315380250Y-44784419D01*
X315401074Y-44779203D01*
X315422309Y-44776053D01*
X315443750Y-44775000D01*
X315956250Y-44775000D01*
X315977691Y-44776053D01*
X315977691Y-44776053D01*
G37*
D13*
X315700000Y-45212500D03*
D12*
G36*
X352277691Y-64976053D02*
G01*
X352298926Y-64979203D01*
X352319750Y-64984419D01*
X352339962Y-64991651D01*
X352359368Y-65000830D01*
X352377781Y-65011866D01*
X352395024Y-65024654D01*
X352410930Y-65039070D01*
X352425346Y-65054976D01*
X352438134Y-65072219D01*
X352449170Y-65090632D01*
X352458349Y-65110038D01*
X352465581Y-65130250D01*
X352470797Y-65151074D01*
X352473947Y-65172309D01*
X352475000Y-65193750D01*
X352475000Y-65631250D01*
X352473947Y-65652691D01*
X352470797Y-65673926D01*
X352465581Y-65694750D01*
X352458349Y-65714962D01*
X352449170Y-65734368D01*
X352438134Y-65752781D01*
X352425346Y-65770024D01*
X352410930Y-65785930D01*
X352395024Y-65800346D01*
X352377781Y-65813134D01*
X352359368Y-65824170D01*
X352339962Y-65833349D01*
X352319750Y-65840581D01*
X352298926Y-65845797D01*
X352277691Y-65848947D01*
X352256250Y-65850000D01*
X351743750Y-65850000D01*
X351722309Y-65848947D01*
X351701074Y-65845797D01*
X351680250Y-65840581D01*
X351660038Y-65833349D01*
X351640632Y-65824170D01*
X351622219Y-65813134D01*
X351604976Y-65800346D01*
X351589070Y-65785930D01*
X351574654Y-65770024D01*
X351561866Y-65752781D01*
X351550830Y-65734368D01*
X351541651Y-65714962D01*
X351534419Y-65694750D01*
X351529203Y-65673926D01*
X351526053Y-65652691D01*
X351525000Y-65631250D01*
X351525000Y-65193750D01*
X351526053Y-65172309D01*
X351529203Y-65151074D01*
X351534419Y-65130250D01*
X351541651Y-65110038D01*
X351550830Y-65090632D01*
X351561866Y-65072219D01*
X351574654Y-65054976D01*
X351589070Y-65039070D01*
X351604976Y-65024654D01*
X351622219Y-65011866D01*
X351640632Y-65000830D01*
X351660038Y-64991651D01*
X351680250Y-64984419D01*
X351701074Y-64979203D01*
X351722309Y-64976053D01*
X351743750Y-64975000D01*
X352256250Y-64975000D01*
X352277691Y-64976053D01*
X352277691Y-64976053D01*
G37*
D13*
X352000000Y-65412500D03*
D12*
G36*
X352277691Y-66551053D02*
G01*
X352298926Y-66554203D01*
X352319750Y-66559419D01*
X352339962Y-66566651D01*
X352359368Y-66575830D01*
X352377781Y-66586866D01*
X352395024Y-66599654D01*
X352410930Y-66614070D01*
X352425346Y-66629976D01*
X352438134Y-66647219D01*
X352449170Y-66665632D01*
X352458349Y-66685038D01*
X352465581Y-66705250D01*
X352470797Y-66726074D01*
X352473947Y-66747309D01*
X352475000Y-66768750D01*
X352475000Y-67206250D01*
X352473947Y-67227691D01*
X352470797Y-67248926D01*
X352465581Y-67269750D01*
X352458349Y-67289962D01*
X352449170Y-67309368D01*
X352438134Y-67327781D01*
X352425346Y-67345024D01*
X352410930Y-67360930D01*
X352395024Y-67375346D01*
X352377781Y-67388134D01*
X352359368Y-67399170D01*
X352339962Y-67408349D01*
X352319750Y-67415581D01*
X352298926Y-67420797D01*
X352277691Y-67423947D01*
X352256250Y-67425000D01*
X351743750Y-67425000D01*
X351722309Y-67423947D01*
X351701074Y-67420797D01*
X351680250Y-67415581D01*
X351660038Y-67408349D01*
X351640632Y-67399170D01*
X351622219Y-67388134D01*
X351604976Y-67375346D01*
X351589070Y-67360930D01*
X351574654Y-67345024D01*
X351561866Y-67327781D01*
X351550830Y-67309368D01*
X351541651Y-67289962D01*
X351534419Y-67269750D01*
X351529203Y-67248926D01*
X351526053Y-67227691D01*
X351525000Y-67206250D01*
X351525000Y-66768750D01*
X351526053Y-66747309D01*
X351529203Y-66726074D01*
X351534419Y-66705250D01*
X351541651Y-66685038D01*
X351550830Y-66665632D01*
X351561866Y-66647219D01*
X351574654Y-66629976D01*
X351589070Y-66614070D01*
X351604976Y-66599654D01*
X351622219Y-66586866D01*
X351640632Y-66575830D01*
X351660038Y-66566651D01*
X351680250Y-66559419D01*
X351701074Y-66554203D01*
X351722309Y-66551053D01*
X351743750Y-66550000D01*
X352256250Y-66550000D01*
X352277691Y-66551053D01*
X352277691Y-66551053D01*
G37*
D13*
X352000000Y-66987500D03*
D12*
G36*
X345777691Y-57951053D02*
G01*
X345798926Y-57954203D01*
X345819750Y-57959419D01*
X345839962Y-57966651D01*
X345859368Y-57975830D01*
X345877781Y-57986866D01*
X345895024Y-57999654D01*
X345910930Y-58014070D01*
X345925346Y-58029976D01*
X345938134Y-58047219D01*
X345949170Y-58065632D01*
X345958349Y-58085038D01*
X345965581Y-58105250D01*
X345970797Y-58126074D01*
X345973947Y-58147309D01*
X345975000Y-58168750D01*
X345975000Y-58606250D01*
X345973947Y-58627691D01*
X345970797Y-58648926D01*
X345965581Y-58669750D01*
X345958349Y-58689962D01*
X345949170Y-58709368D01*
X345938134Y-58727781D01*
X345925346Y-58745024D01*
X345910930Y-58760930D01*
X345895024Y-58775346D01*
X345877781Y-58788134D01*
X345859368Y-58799170D01*
X345839962Y-58808349D01*
X345819750Y-58815581D01*
X345798926Y-58820797D01*
X345777691Y-58823947D01*
X345756250Y-58825000D01*
X345243750Y-58825000D01*
X345222309Y-58823947D01*
X345201074Y-58820797D01*
X345180250Y-58815581D01*
X345160038Y-58808349D01*
X345140632Y-58799170D01*
X345122219Y-58788134D01*
X345104976Y-58775346D01*
X345089070Y-58760930D01*
X345074654Y-58745024D01*
X345061866Y-58727781D01*
X345050830Y-58709368D01*
X345041651Y-58689962D01*
X345034419Y-58669750D01*
X345029203Y-58648926D01*
X345026053Y-58627691D01*
X345025000Y-58606250D01*
X345025000Y-58168750D01*
X345026053Y-58147309D01*
X345029203Y-58126074D01*
X345034419Y-58105250D01*
X345041651Y-58085038D01*
X345050830Y-58065632D01*
X345061866Y-58047219D01*
X345074654Y-58029976D01*
X345089070Y-58014070D01*
X345104976Y-57999654D01*
X345122219Y-57986866D01*
X345140632Y-57975830D01*
X345160038Y-57966651D01*
X345180250Y-57959419D01*
X345201074Y-57954203D01*
X345222309Y-57951053D01*
X345243750Y-57950000D01*
X345756250Y-57950000D01*
X345777691Y-57951053D01*
X345777691Y-57951053D01*
G37*
D13*
X345500000Y-58387500D03*
D12*
G36*
X345777691Y-56376053D02*
G01*
X345798926Y-56379203D01*
X345819750Y-56384419D01*
X345839962Y-56391651D01*
X345859368Y-56400830D01*
X345877781Y-56411866D01*
X345895024Y-56424654D01*
X345910930Y-56439070D01*
X345925346Y-56454976D01*
X345938134Y-56472219D01*
X345949170Y-56490632D01*
X345958349Y-56510038D01*
X345965581Y-56530250D01*
X345970797Y-56551074D01*
X345973947Y-56572309D01*
X345975000Y-56593750D01*
X345975000Y-57031250D01*
X345973947Y-57052691D01*
X345970797Y-57073926D01*
X345965581Y-57094750D01*
X345958349Y-57114962D01*
X345949170Y-57134368D01*
X345938134Y-57152781D01*
X345925346Y-57170024D01*
X345910930Y-57185930D01*
X345895024Y-57200346D01*
X345877781Y-57213134D01*
X345859368Y-57224170D01*
X345839962Y-57233349D01*
X345819750Y-57240581D01*
X345798926Y-57245797D01*
X345777691Y-57248947D01*
X345756250Y-57250000D01*
X345243750Y-57250000D01*
X345222309Y-57248947D01*
X345201074Y-57245797D01*
X345180250Y-57240581D01*
X345160038Y-57233349D01*
X345140632Y-57224170D01*
X345122219Y-57213134D01*
X345104976Y-57200346D01*
X345089070Y-57185930D01*
X345074654Y-57170024D01*
X345061866Y-57152781D01*
X345050830Y-57134368D01*
X345041651Y-57114962D01*
X345034419Y-57094750D01*
X345029203Y-57073926D01*
X345026053Y-57052691D01*
X345025000Y-57031250D01*
X345025000Y-56593750D01*
X345026053Y-56572309D01*
X345029203Y-56551074D01*
X345034419Y-56530250D01*
X345041651Y-56510038D01*
X345050830Y-56490632D01*
X345061866Y-56472219D01*
X345074654Y-56454976D01*
X345089070Y-56439070D01*
X345104976Y-56424654D01*
X345122219Y-56411866D01*
X345140632Y-56400830D01*
X345160038Y-56391651D01*
X345180250Y-56384419D01*
X345201074Y-56379203D01*
X345222309Y-56376053D01*
X345243750Y-56375000D01*
X345756250Y-56375000D01*
X345777691Y-56376053D01*
X345777691Y-56376053D01*
G37*
D13*
X345500000Y-56812500D03*
D12*
G36*
X350277691Y-66551053D02*
G01*
X350298926Y-66554203D01*
X350319750Y-66559419D01*
X350339962Y-66566651D01*
X350359368Y-66575830D01*
X350377781Y-66586866D01*
X350395024Y-66599654D01*
X350410930Y-66614070D01*
X350425346Y-66629976D01*
X350438134Y-66647219D01*
X350449170Y-66665632D01*
X350458349Y-66685038D01*
X350465581Y-66705250D01*
X350470797Y-66726074D01*
X350473947Y-66747309D01*
X350475000Y-66768750D01*
X350475000Y-67206250D01*
X350473947Y-67227691D01*
X350470797Y-67248926D01*
X350465581Y-67269750D01*
X350458349Y-67289962D01*
X350449170Y-67309368D01*
X350438134Y-67327781D01*
X350425346Y-67345024D01*
X350410930Y-67360930D01*
X350395024Y-67375346D01*
X350377781Y-67388134D01*
X350359368Y-67399170D01*
X350339962Y-67408349D01*
X350319750Y-67415581D01*
X350298926Y-67420797D01*
X350277691Y-67423947D01*
X350256250Y-67425000D01*
X349743750Y-67425000D01*
X349722309Y-67423947D01*
X349701074Y-67420797D01*
X349680250Y-67415581D01*
X349660038Y-67408349D01*
X349640632Y-67399170D01*
X349622219Y-67388134D01*
X349604976Y-67375346D01*
X349589070Y-67360930D01*
X349574654Y-67345024D01*
X349561866Y-67327781D01*
X349550830Y-67309368D01*
X349541651Y-67289962D01*
X349534419Y-67269750D01*
X349529203Y-67248926D01*
X349526053Y-67227691D01*
X349525000Y-67206250D01*
X349525000Y-66768750D01*
X349526053Y-66747309D01*
X349529203Y-66726074D01*
X349534419Y-66705250D01*
X349541651Y-66685038D01*
X349550830Y-66665632D01*
X349561866Y-66647219D01*
X349574654Y-66629976D01*
X349589070Y-66614070D01*
X349604976Y-66599654D01*
X349622219Y-66586866D01*
X349640632Y-66575830D01*
X349660038Y-66566651D01*
X349680250Y-66559419D01*
X349701074Y-66554203D01*
X349722309Y-66551053D01*
X349743750Y-66550000D01*
X350256250Y-66550000D01*
X350277691Y-66551053D01*
X350277691Y-66551053D01*
G37*
D13*
X350000000Y-66987500D03*
D12*
G36*
X350277691Y-64976053D02*
G01*
X350298926Y-64979203D01*
X350319750Y-64984419D01*
X350339962Y-64991651D01*
X350359368Y-65000830D01*
X350377781Y-65011866D01*
X350395024Y-65024654D01*
X350410930Y-65039070D01*
X350425346Y-65054976D01*
X350438134Y-65072219D01*
X350449170Y-65090632D01*
X350458349Y-65110038D01*
X350465581Y-65130250D01*
X350470797Y-65151074D01*
X350473947Y-65172309D01*
X350475000Y-65193750D01*
X350475000Y-65631250D01*
X350473947Y-65652691D01*
X350470797Y-65673926D01*
X350465581Y-65694750D01*
X350458349Y-65714962D01*
X350449170Y-65734368D01*
X350438134Y-65752781D01*
X350425346Y-65770024D01*
X350410930Y-65785930D01*
X350395024Y-65800346D01*
X350377781Y-65813134D01*
X350359368Y-65824170D01*
X350339962Y-65833349D01*
X350319750Y-65840581D01*
X350298926Y-65845797D01*
X350277691Y-65848947D01*
X350256250Y-65850000D01*
X349743750Y-65850000D01*
X349722309Y-65848947D01*
X349701074Y-65845797D01*
X349680250Y-65840581D01*
X349660038Y-65833349D01*
X349640632Y-65824170D01*
X349622219Y-65813134D01*
X349604976Y-65800346D01*
X349589070Y-65785930D01*
X349574654Y-65770024D01*
X349561866Y-65752781D01*
X349550830Y-65734368D01*
X349541651Y-65714962D01*
X349534419Y-65694750D01*
X349529203Y-65673926D01*
X349526053Y-65652691D01*
X349525000Y-65631250D01*
X349525000Y-65193750D01*
X349526053Y-65172309D01*
X349529203Y-65151074D01*
X349534419Y-65130250D01*
X349541651Y-65110038D01*
X349550830Y-65090632D01*
X349561866Y-65072219D01*
X349574654Y-65054976D01*
X349589070Y-65039070D01*
X349604976Y-65024654D01*
X349622219Y-65011866D01*
X349640632Y-65000830D01*
X349660038Y-64991651D01*
X349680250Y-64984419D01*
X349701074Y-64979203D01*
X349722309Y-64976053D01*
X349743750Y-64975000D01*
X350256250Y-64975000D01*
X350277691Y-64976053D01*
X350277691Y-64976053D01*
G37*
D13*
X350000000Y-65412500D03*
D12*
G36*
X343777691Y-56376053D02*
G01*
X343798926Y-56379203D01*
X343819750Y-56384419D01*
X343839962Y-56391651D01*
X343859368Y-56400830D01*
X343877781Y-56411866D01*
X343895024Y-56424654D01*
X343910930Y-56439070D01*
X343925346Y-56454976D01*
X343938134Y-56472219D01*
X343949170Y-56490632D01*
X343958349Y-56510038D01*
X343965581Y-56530250D01*
X343970797Y-56551074D01*
X343973947Y-56572309D01*
X343975000Y-56593750D01*
X343975000Y-57031250D01*
X343973947Y-57052691D01*
X343970797Y-57073926D01*
X343965581Y-57094750D01*
X343958349Y-57114962D01*
X343949170Y-57134368D01*
X343938134Y-57152781D01*
X343925346Y-57170024D01*
X343910930Y-57185930D01*
X343895024Y-57200346D01*
X343877781Y-57213134D01*
X343859368Y-57224170D01*
X343839962Y-57233349D01*
X343819750Y-57240581D01*
X343798926Y-57245797D01*
X343777691Y-57248947D01*
X343756250Y-57250000D01*
X343243750Y-57250000D01*
X343222309Y-57248947D01*
X343201074Y-57245797D01*
X343180250Y-57240581D01*
X343160038Y-57233349D01*
X343140632Y-57224170D01*
X343122219Y-57213134D01*
X343104976Y-57200346D01*
X343089070Y-57185930D01*
X343074654Y-57170024D01*
X343061866Y-57152781D01*
X343050830Y-57134368D01*
X343041651Y-57114962D01*
X343034419Y-57094750D01*
X343029203Y-57073926D01*
X343026053Y-57052691D01*
X343025000Y-57031250D01*
X343025000Y-56593750D01*
X343026053Y-56572309D01*
X343029203Y-56551074D01*
X343034419Y-56530250D01*
X343041651Y-56510038D01*
X343050830Y-56490632D01*
X343061866Y-56472219D01*
X343074654Y-56454976D01*
X343089070Y-56439070D01*
X343104976Y-56424654D01*
X343122219Y-56411866D01*
X343140632Y-56400830D01*
X343160038Y-56391651D01*
X343180250Y-56384419D01*
X343201074Y-56379203D01*
X343222309Y-56376053D01*
X343243750Y-56375000D01*
X343756250Y-56375000D01*
X343777691Y-56376053D01*
X343777691Y-56376053D01*
G37*
D13*
X343500000Y-56812500D03*
D12*
G36*
X343777691Y-57951053D02*
G01*
X343798926Y-57954203D01*
X343819750Y-57959419D01*
X343839962Y-57966651D01*
X343859368Y-57975830D01*
X343877781Y-57986866D01*
X343895024Y-57999654D01*
X343910930Y-58014070D01*
X343925346Y-58029976D01*
X343938134Y-58047219D01*
X343949170Y-58065632D01*
X343958349Y-58085038D01*
X343965581Y-58105250D01*
X343970797Y-58126074D01*
X343973947Y-58147309D01*
X343975000Y-58168750D01*
X343975000Y-58606250D01*
X343973947Y-58627691D01*
X343970797Y-58648926D01*
X343965581Y-58669750D01*
X343958349Y-58689962D01*
X343949170Y-58709368D01*
X343938134Y-58727781D01*
X343925346Y-58745024D01*
X343910930Y-58760930D01*
X343895024Y-58775346D01*
X343877781Y-58788134D01*
X343859368Y-58799170D01*
X343839962Y-58808349D01*
X343819750Y-58815581D01*
X343798926Y-58820797D01*
X343777691Y-58823947D01*
X343756250Y-58825000D01*
X343243750Y-58825000D01*
X343222309Y-58823947D01*
X343201074Y-58820797D01*
X343180250Y-58815581D01*
X343160038Y-58808349D01*
X343140632Y-58799170D01*
X343122219Y-58788134D01*
X343104976Y-58775346D01*
X343089070Y-58760930D01*
X343074654Y-58745024D01*
X343061866Y-58727781D01*
X343050830Y-58709368D01*
X343041651Y-58689962D01*
X343034419Y-58669750D01*
X343029203Y-58648926D01*
X343026053Y-58627691D01*
X343025000Y-58606250D01*
X343025000Y-58168750D01*
X343026053Y-58147309D01*
X343029203Y-58126074D01*
X343034419Y-58105250D01*
X343041651Y-58085038D01*
X343050830Y-58065632D01*
X343061866Y-58047219D01*
X343074654Y-58029976D01*
X343089070Y-58014070D01*
X343104976Y-57999654D01*
X343122219Y-57986866D01*
X343140632Y-57975830D01*
X343160038Y-57966651D01*
X343180250Y-57959419D01*
X343201074Y-57954203D01*
X343222309Y-57951053D01*
X343243750Y-57950000D01*
X343756250Y-57950000D01*
X343777691Y-57951053D01*
X343777691Y-57951053D01*
G37*
D13*
X343500000Y-58387500D03*
D17*
X317462500Y-43300000D03*
X319462500Y-43300000D03*
D18*
X318462500Y-40050000D03*
D19*
X116487868Y-105643503D03*
D12*
G36*
X116399480Y-106545064D02*
G01*
X115586307Y-105731891D01*
X116576256Y-104741942D01*
X117389429Y-105555115D01*
X116399480Y-106545064D01*
X116399480Y-106545064D01*
G37*
D19*
X118043503Y-104087868D03*
D12*
G36*
X117955115Y-104989429D02*
G01*
X117141942Y-104176256D01*
X118131891Y-103186307D01*
X118945064Y-103999480D01*
X117955115Y-104989429D01*
X117955115Y-104989429D01*
G37*
D19*
X116912132Y-102956497D03*
D12*
G36*
X116823744Y-103858058D02*
G01*
X116010571Y-103044885D01*
X117000520Y-102054936D01*
X117813693Y-102868109D01*
X116823744Y-103858058D01*
X116823744Y-103858058D01*
G37*
D19*
X115356497Y-104512132D03*
D12*
G36*
X115268109Y-105413693D02*
G01*
X114454936Y-104600520D01*
X115444885Y-103610571D01*
X116258058Y-104423744D01*
X115268109Y-105413693D01*
X115268109Y-105413693D01*
G37*
D20*
X22578600Y-30900000D03*
X20678600Y-30900000D03*
X20678600Y-33100000D03*
D21*
X22398600Y-33100000D03*
D12*
G36*
X24380142Y-37751174D02*
G01*
X24403803Y-37754684D01*
X24427007Y-37760496D01*
X24449529Y-37768554D01*
X24471153Y-37778782D01*
X24491670Y-37791079D01*
X24510883Y-37805329D01*
X24528607Y-37821393D01*
X24544671Y-37839117D01*
X24558921Y-37858330D01*
X24571218Y-37878847D01*
X24581446Y-37900471D01*
X24589504Y-37922993D01*
X24595316Y-37946197D01*
X24598826Y-37969858D01*
X24600000Y-37993750D01*
X24600000Y-38481250D01*
X24598826Y-38505142D01*
X24595316Y-38528803D01*
X24589504Y-38552007D01*
X24581446Y-38574529D01*
X24571218Y-38596153D01*
X24558921Y-38616670D01*
X24544671Y-38635883D01*
X24528607Y-38653607D01*
X24510883Y-38669671D01*
X24491670Y-38683921D01*
X24471153Y-38696218D01*
X24449529Y-38706446D01*
X24427007Y-38714504D01*
X24403803Y-38720316D01*
X24380142Y-38723826D01*
X24356250Y-38725000D01*
X23443750Y-38725000D01*
X23419858Y-38723826D01*
X23396197Y-38720316D01*
X23372993Y-38714504D01*
X23350471Y-38706446D01*
X23328847Y-38696218D01*
X23308330Y-38683921D01*
X23289117Y-38669671D01*
X23271393Y-38653607D01*
X23255329Y-38635883D01*
X23241079Y-38616670D01*
X23228782Y-38596153D01*
X23218554Y-38574529D01*
X23210496Y-38552007D01*
X23204684Y-38528803D01*
X23201174Y-38505142D01*
X23200000Y-38481250D01*
X23200000Y-37993750D01*
X23201174Y-37969858D01*
X23204684Y-37946197D01*
X23210496Y-37922993D01*
X23218554Y-37900471D01*
X23228782Y-37878847D01*
X23241079Y-37858330D01*
X23255329Y-37839117D01*
X23271393Y-37821393D01*
X23289117Y-37805329D01*
X23308330Y-37791079D01*
X23328847Y-37778782D01*
X23350471Y-37768554D01*
X23372993Y-37760496D01*
X23396197Y-37754684D01*
X23419858Y-37751174D01*
X23443750Y-37750000D01*
X24356250Y-37750000D01*
X24380142Y-37751174D01*
X24380142Y-37751174D01*
G37*
D22*
X23900000Y-38237500D03*
D12*
G36*
X24380142Y-35876174D02*
G01*
X24403803Y-35879684D01*
X24427007Y-35885496D01*
X24449529Y-35893554D01*
X24471153Y-35903782D01*
X24491670Y-35916079D01*
X24510883Y-35930329D01*
X24528607Y-35946393D01*
X24544671Y-35964117D01*
X24558921Y-35983330D01*
X24571218Y-36003847D01*
X24581446Y-36025471D01*
X24589504Y-36047993D01*
X24595316Y-36071197D01*
X24598826Y-36094858D01*
X24600000Y-36118750D01*
X24600000Y-36606250D01*
X24598826Y-36630142D01*
X24595316Y-36653803D01*
X24589504Y-36677007D01*
X24581446Y-36699529D01*
X24571218Y-36721153D01*
X24558921Y-36741670D01*
X24544671Y-36760883D01*
X24528607Y-36778607D01*
X24510883Y-36794671D01*
X24491670Y-36808921D01*
X24471153Y-36821218D01*
X24449529Y-36831446D01*
X24427007Y-36839504D01*
X24403803Y-36845316D01*
X24380142Y-36848826D01*
X24356250Y-36850000D01*
X23443750Y-36850000D01*
X23419858Y-36848826D01*
X23396197Y-36845316D01*
X23372993Y-36839504D01*
X23350471Y-36831446D01*
X23328847Y-36821218D01*
X23308330Y-36808921D01*
X23289117Y-36794671D01*
X23271393Y-36778607D01*
X23255329Y-36760883D01*
X23241079Y-36741670D01*
X23228782Y-36721153D01*
X23218554Y-36699529D01*
X23210496Y-36677007D01*
X23204684Y-36653803D01*
X23201174Y-36630142D01*
X23200000Y-36606250D01*
X23200000Y-36118750D01*
X23201174Y-36094858D01*
X23204684Y-36071197D01*
X23210496Y-36047993D01*
X23218554Y-36025471D01*
X23228782Y-36003847D01*
X23241079Y-35983330D01*
X23255329Y-35964117D01*
X23271393Y-35946393D01*
X23289117Y-35930329D01*
X23308330Y-35916079D01*
X23328847Y-35903782D01*
X23350471Y-35893554D01*
X23372993Y-35885496D01*
X23396197Y-35879684D01*
X23419858Y-35876174D01*
X23443750Y-35875000D01*
X24356250Y-35875000D01*
X24380142Y-35876174D01*
X24380142Y-35876174D01*
G37*
D22*
X23900000Y-36362500D03*
M02*
