G04 #@! TF.GenerationSoftware,KiCad,Pcbnew,(5.1.4)-1*
G04 #@! TF.CreationDate,2020-03-17T00:39:42-07:00*
G04 #@! TF.ProjectId,mad cat,6d616420-6361-4742-9e6b-696361645f70,rev?*
G04 #@! TF.SameCoordinates,Original*
G04 #@! TF.FileFunction,Profile,NP*
%FSLAX46Y46*%
G04 Gerber Fmt 4.6, Leading zero omitted, Abs format (unit mm)*
G04 Created by KiCad (PCBNEW (5.1.4)-1) date 2020-03-17 00:39:42*
%MOMM*%
%LPD*%
G04 APERTURE LIST*
%ADD10C,0.100000*%
G04 APERTURE END LIST*
D10*
X354475000Y4000000D02*
G75*
G02X361425000Y4000000I3475000J0D01*
G01*
X354475000Y268749D02*
X354475000Y4000000D01*
X354474999Y268749D02*
G75*
G02X353681250Y-525000I-793749J0D01*
G01*
X273731250Y-525000D02*
X353681250Y-525000D01*
X273731251Y-525000D02*
G75*
G02X272937500Y268749I-1J793750D01*
G01*
X272937499Y3999999D02*
X272937500Y268749D01*
X265987501Y3999999D02*
G75*
G02X272937499Y3999999I3474999J0D01*
G01*
X265987500Y268749D02*
X265987500Y3999999D01*
X265987499Y268749D02*
G75*
G02X265193750Y-525000I-793749J0D01*
G01*
X185243749Y-525000D02*
X265193750Y-525000D01*
X185243749Y-525001D02*
G75*
G02X184449999Y268749I0J793750D01*
G01*
X184449999Y3999999D02*
X184449999Y268749D01*
X177500001Y3999999D02*
G75*
G02X184449999Y3999999I3474999J0D01*
G01*
X177500000Y268749D02*
X177500000Y3999999D01*
X177499999Y268749D02*
G75*
G02X176706250Y-525000I-793749J0D01*
G01*
X96756250Y-525000D02*
X176706250Y-525000D01*
X96756251Y-525001D02*
G75*
G02X95962499Y268749I-1J793751D01*
G01*
X95962499Y3999999D02*
X95962499Y268749D01*
X89012499Y3999999D02*
G75*
G02X95962499Y3999999I3475000J0D01*
G01*
X89012499Y268749D02*
X89012499Y3999999D01*
X89012500Y268749D02*
G75*
G02X88218749Y-525000I-793750J1D01*
G01*
X8268750Y-525001D02*
X88218749Y-525000D01*
X8268750Y-525001D02*
G75*
G02X7475000Y268749I0J793750D01*
G01*
X7475000Y4000000D02*
X7475000Y268749D01*
X525000Y4000000D02*
G75*
G02X7475000Y4000000I3475000J0D01*
G01*
X524999Y-131000000D02*
X525000Y4000000D01*
X7474999Y-131000000D02*
G75*
G02X524999Y-131000000I-3475000J0D01*
G01*
X7475001Y-127268749D02*
X7474999Y-131000000D01*
X7475001Y-127268749D02*
G75*
G02X8268750Y-126475000I793749J0D01*
G01*
X88218749Y-126475000D02*
X8268750Y-126475000D01*
X88218750Y-126474999D02*
G75*
G02X89012499Y-127268750I-1J-793750D01*
G01*
X89012499Y-131000000D02*
X89012499Y-127268750D01*
X95962499Y-131000000D02*
G75*
G02X89012499Y-131000000I-3475000J0D01*
G01*
X95962499Y-127268750D02*
X95962499Y-131000000D01*
X95962501Y-127268749D02*
G75*
G02X96756250Y-126475000I793749J0D01*
G01*
X176706250Y-126475000D02*
X96756250Y-126475000D01*
X176706251Y-126474999D02*
G75*
G02X177500000Y-127268750I-1J-793750D01*
G01*
X177500000Y-131000000D02*
X177500000Y-127268750D01*
X184450000Y-131000000D02*
G75*
G02X177500000Y-131000000I-3475000J0D01*
G01*
X184449999Y-127268750D02*
X184449999Y-131000000D01*
X184450000Y-127268749D02*
G75*
G02X185243749Y-126475000I793749J0D01*
G01*
X265193750Y-126475000D02*
X185243749Y-126475000D01*
X265193751Y-126474999D02*
G75*
G02X265987500Y-127268750I-1J-793750D01*
G01*
X265987499Y-131000000D02*
X265987500Y-127268750D01*
X272937501Y-131000000D02*
G75*
G02X265987499Y-131000000I-3475001J0D01*
G01*
X272937500Y-127268750D02*
X272937500Y-131000000D01*
X272937500Y-127268750D02*
G75*
G02X273731250Y-126475000I793750J0D01*
G01*
X353681250Y-126475000D02*
X273731250Y-126475000D01*
X353681251Y-126474999D02*
G75*
G02X354475000Y-127268750I-1J-793750D01*
G01*
X354475000Y-131000000D02*
X354475000Y-127268750D01*
X361425000Y-131000000D02*
G75*
G02X354475000Y-131000000I-3475000J0D01*
G01*
X361425000Y4000000D02*
X361425000Y-131000000D01*
X196000000Y-20000000D02*
G75*
G02X196000000Y-21000000I0J-500000D01*
G01*
X166000000Y-21000000D02*
X196000000Y-21000000D01*
X166000000Y-21000000D02*
G75*
G02X166000000Y-20000000I0J500000D01*
G01*
X196000000Y-20000000D02*
X166000000Y-20000000D01*
X284000000Y-20000000D02*
G75*
G02X284000000Y-21000000I0J-500000D01*
G01*
X254000000Y-21000000D02*
X284000000Y-21000000D01*
X254000000Y-21000000D02*
G75*
G02X254000000Y-20000000I0J500000D01*
G01*
X284000000Y-20000000D02*
X254000000Y-20000000D01*
X196000000Y-120500000D02*
G75*
G02X196000000Y-121500000I0J-500000D01*
G01*
X166000000Y-121500000D02*
X196000000Y-121500000D01*
X166000000Y-121500000D02*
G75*
G02X166000000Y-120500000I0J500000D01*
G01*
X196000000Y-120500000D02*
X166000000Y-120500000D01*
X108000000Y-122500000D02*
G75*
G02X108000000Y-123500000I0J-500000D01*
G01*
X78000000Y-123500000D02*
X108000000Y-123500000D01*
X78000000Y-123500000D02*
G75*
G02X78000000Y-122500000I0J500000D01*
G01*
X108000000Y-122500000D02*
X78000000Y-122500000D01*
X284000000Y-122500000D02*
G75*
G02X284000000Y-123500000I0J-500000D01*
G01*
X254000000Y-123500000D02*
X284000000Y-123500000D01*
X254000000Y-123500000D02*
G75*
G02X254000000Y-122500000I0J500000D01*
G01*
X284000000Y-122500000D02*
X254000000Y-122500000D01*
X78000000Y-21000000D02*
G75*
G02X78000000Y-20000000I0J500000D01*
G01*
X108000000Y-20000000D02*
X78000000Y-20000000D01*
X108000000Y-20000000D02*
G75*
G02X108000000Y-21000000I0J-500000D01*
G01*
X78000000Y-21000000D02*
X108000000Y-21000000D01*
X138000000Y-106500000D02*
G75*
G02X139000000Y-106500000I500000J0D01*
G01*
X139000000Y-116500000D02*
X139000000Y-106500000D01*
X139500000Y-117000000D02*
G75*
G02X139000000Y-116500000I0J500000D01*
G01*
X178000000Y-117000000D02*
X139500000Y-117000000D01*
X178500000Y-116500000D02*
G75*
G02X178000000Y-117000000I-500000J0D01*
G01*
X178500000Y-106500000D02*
X178500000Y-116500000D01*
X178500000Y-106500000D02*
G75*
G02X179500000Y-106500000I500000J0D01*
G01*
X179500000Y-117000000D02*
X179500000Y-106500000D01*
X179500001Y-116999999D02*
G75*
G02X178500000Y-118000000I-1000001J0D01*
G01*
X139000000Y-118000000D02*
X178500000Y-118000000D01*
X139000000Y-118000000D02*
G75*
G02X138000000Y-117000000I0J1000000D01*
G01*
X138000000Y-106500000D02*
X138000000Y-117000000D01*
M02*
