M48
; DRILL file {KiCad (5.1.4)-1} date 3/17/2020 12:39:43 AM
; FORMAT={-:-/ absolute / inch / decimal}
; #@! TF.CreationDate,2020-03-17T00:39:43-07:00
; #@! TF.GenerationSoftware,Kicad,Pcbnew,(5.1.4)-1
; #@! TF.FileFunction,Plated,1,2,PTH
FMAT,2
INCH
T1C0.0157
T2C0.0197
T3C0.0236
T4C0.0394
T5C0.0492
T6C0.0591
T7C0.1063
%
G90
G05
T1
X0.2795Y-0.937
X0.3071Y-0.9843
X0.315Y-0.7362
X0.3465Y-0.7795
X0.3543Y-1.0079
X0.3819Y-0.815
X0.689Y-4.8583
X0.6929Y-1.7126
X0.6929Y-2.4646
X0.6929Y-3.2126
X0.6929Y-3.9646
X0.9673Y-4.6614
X0.9673Y-4.7034
X1.0039Y-4.3898
X1.0079Y-4.6614
X1.0276Y-1.7126
X1.0394Y-3.9646
X1.0669Y-1.1299
X1.0748Y-4.5079
X1.1181Y-4.6181
X1.2126Y-2.4646
X1.3071Y-3.2126
X1.315Y-4.4567
X1.3228Y-4.5551
X1.6063Y-4.6575
X1.6102Y-4.5551
X1.6102Y-4.8386
X1.6575Y-2.7362
X2.0748Y-4.5551
X2.0787Y-4.6654
X2.0827Y-4.8465
X2.252Y-4.0787
X2.3543Y-4.126
X2.437Y-4.2362
X2.5394Y-4.5512
X2.5394Y-4.6614
X2.5394Y-4.8425
X2.9409Y-4.5551
X2.9409Y-4.6654
X2.9488Y-4.8465
X3.8189Y-4.685
X3.9764Y-4.2913
X4.0945Y-4.1929
X4.1732Y-4.2717
X4.2717Y-4.1929
X4.2818Y-3.9471
X4.2874Y-4.378
X4.378Y-4.8189
X4.5709Y-4.5827
X4.6063Y-4.5393
X4.6142Y-4.9291
X4.689Y-4.8701
X4.7756Y-4.9331
X4.7774Y-4.8329
X4.8053Y-4.8049
X4.8701Y-3.9291
X4.9096Y-3.9291
X4.9491Y-3.9291
X4.9882Y-3.2953
X4.9886Y-3.9291
X5.0276Y-1.7835
X5.1024Y-3.8543
X5.2244Y-2.5472
X5.2283Y-3.9291
X5.2283Y-4.1378
X5.2598Y-0.7717
X5.2717Y-3.9291
X5.2795Y-4.0472
X5.3632Y-4.751
X5.3661Y-3.9606
X5.3661Y-4.5433
X5.374Y-4.3465
X5.4667Y-4.0945
X5.4843Y-3.9284
X5.5059Y-4.0689
X5.5591Y-3.9449
X5.6811Y-3.9409
X5.7087Y-4.1535
X5.7244Y-3.9752
X5.8425Y-4.2165
X5.8868Y-4.7589
X5.9724Y-3.8504
X5.9724Y-3.9488
X6.3228Y-3.8465
X6.3228Y-3.9488
X6.4183Y-4.7579
X6.7244Y-3.8425
X6.7244Y-3.9528
X6.9094Y-3.9932
X7.0394Y-3.8425
X7.0394Y-3.9488
X7.2933Y-4.3012
X7.3622Y-4.0866
X7.437Y-3.8386
X7.4409Y-3.9488
X7.6614Y-4.0112
X7.8543Y-3.8346
X7.8583Y-3.9488
X7.9252Y-4.7638
X8.2205Y-3.8386
X8.2244Y-3.9449
X8.2756Y-4.7638
X8.5906Y-3.8346
X8.5906Y-3.9488
X8.937Y-4.6555
X9.0276Y-3.8543
X9.0276Y-3.9449
X9.061Y-4.7874
X9.1614Y-4.752
X9.2421Y-4.7717
X9.4016Y-3.8543
X9.4016Y-3.9449
X9.4094Y-4.6555
X9.5748Y-4.7697
X9.6614Y-4.7874
X9.7776Y-4.8465
X9.9331Y-4.8386
X11.2087Y-4.0236
X11.2126Y-4.126
X11.3249Y-4.815
X11.3346Y-1.7165
X11.4528Y-4.2362
X11.4961Y-4.3386
X11.5827Y-1.8386
X11.6181Y-4.7047
X11.6496Y-4.815
X11.878Y-4.0315
X11.8819Y-4.1299
X12.0Y-4.811
X12.1024Y-4.2402
X12.1063Y-4.3386
X12.2244Y-4.7992
X12.3583Y-4.8228
X12.3824Y-1.842
X12.4331Y-4.7126
X12.4469Y-2.8406
X12.6112Y-4.7687
X12.748Y-4.8228
X12.7677Y-4.1535
X12.7953Y-1.4567
X12.8346Y-3.1142
X13.162Y-3.9218
X13.2283Y-3.9882
X13.2559Y-4.7687
X13.3268Y-4.4252
X13.3701Y-3.2874
X13.5Y-4.6142
X13.5315Y-3.2874
X13.5945Y-4.185
X13.5945Y-4.3386
X13.6417Y-4.8504
X13.6732Y-4.5118
X13.6957Y-3.3807
X13.7126Y-4.9213
X13.7795Y-4.5157
T2
X0.7677Y-1.5709
X0.7874Y-1.0945
X0.8898Y-1.0945
X0.9409Y-1.2165
X0.9409Y-1.3661
X0.9409Y-1.5709
X4.3976Y-4.2835
X4.66Y-4.5852
X4.7717Y-4.6969
X4.9528Y-4.8071
X5.0276Y-4.122
X5.252Y-4.5827
X5.6535Y-4.0925
X12.5379Y-1.5182
X14.0128Y-5.1575
X14.0361Y-5.1011
X14.0361Y-5.2139
X14.0925Y-5.0778
X14.0925Y-5.2372
X14.1489Y-5.1011
X14.1489Y-5.2139
X14.1722Y-5.1575
X3.5615Y-5.1575
X3.5849Y-5.1011
X3.5849Y-5.2139
X3.6412Y-5.0778
X3.6412Y-5.2372
X3.6976Y-5.1011
X3.6976Y-5.2139
X3.721Y-5.1575
X3.5615Y0.1575
X3.5849Y0.2139
X3.5849Y0.1011
X3.6412Y0.2372
X3.6412Y0.0778
X3.6976Y0.2139
X3.6976Y0.1011
X3.721Y0.1575
X14.0128Y0.1575
X14.0361Y0.2139
X14.0361Y0.1011
X14.0925Y0.2372
X14.0925Y0.0778
X14.1489Y0.2139
X14.1489Y0.1011
X14.1722Y0.1575
X10.529Y-5.1575
X10.5524Y-5.1011
X10.5524Y-5.2139
X10.6088Y-5.0778
X10.6088Y-5.2372
X10.6651Y-5.1011
X10.6651Y-5.2139
X10.6885Y-5.1575
X7.0453Y0.1575
X7.0686Y0.2139
X7.0686Y0.1011
X7.125Y0.2372
X7.125Y0.0778
X7.1814Y0.2139
X7.1814Y0.1011
X7.2047Y0.1575
X0.0778Y-5.1575
X0.1011Y-5.1011
X0.1011Y-5.2139
X0.1575Y-5.0778
X0.1575Y-5.2372
X0.2139Y-5.1011
X0.2139Y-5.2139
X0.2372Y-5.1575
X7.0453Y-5.1575
X7.0686Y-5.1011
X7.0686Y-5.2139
X7.125Y-5.0778
X7.125Y-5.2372
X7.1814Y-5.1011
X7.1814Y-5.2139
X7.2047Y-5.1575
X0.0778Y0.1575
X0.1011Y0.2139
X0.1011Y0.1011
X0.1575Y0.2372
X0.1575Y0.0778
X0.2139Y0.2139
X0.2139Y0.1011
X0.2372Y0.1575
X10.529Y0.1575
X10.5524Y0.2139
X10.5524Y0.1011
X10.6088Y0.2372
X10.6088Y0.0778
X10.6651Y0.2139
X10.6651Y0.1011
X10.6885Y0.1575
T3
X4.5157Y-4.573
X4.5748Y-4.7953
X4.7638Y-4.4094
X4.8819Y-4.2913
X4.8819Y-4.4094
X4.8819Y-4.5276
X5.0Y-4.4094
T4
X0.0969Y-0.775
X0.0969Y-0.875
X0.0969Y-0.975
X0.1969Y-0.775
X0.1969Y-0.875
X0.1969Y-0.975
T5
X0.1962Y-0.1433
X0.3726Y-0.6862
X0.3834Y-0.0825
X0.4662Y-0.6558
X0.5599Y-0.6254
X13.5783Y-2.4689
X13.6361Y-2.5486
X13.694Y-2.6282
X14.0401Y-2.1334
X14.1558Y-2.2926
T6
X0.225Y-3.025
X0.475Y-2.925
X12.975Y-1.275
X13.225Y-1.175
X9.1Y-2.025
X9.35Y-1.925
X0.225Y-4.525
X0.475Y-4.425
X5.9125Y-3.525
X6.1625Y-3.425
X0.225Y-4.275
X0.475Y-4.175
X8.35Y-2.025
X8.6Y-1.925
X13.475Y-4.525
X13.725Y-4.425
X0.225Y-1.275
X0.475Y-1.175
X13.725Y-4.275
X13.975Y-4.175
X5.35Y-2.025
X5.6Y-1.925
X7.0375Y-2.775
X7.2875Y-2.675
X10.475Y-0.275
X10.725Y-0.175
X11.2562Y-2.775
X11.5062Y-2.675
X7.975Y-1.275
X8.225Y-1.175
X0.225Y-3.775
X0.475Y-3.675
X7.1Y-0.275
X7.35Y-0.175
X2.225Y-0.275
X2.475Y-0.175
X2.1625Y-3.525
X2.4125Y-3.425
X2.2563Y-4.275
X2.5063Y-4.175
X10.6Y-2.025
X10.85Y-1.925
X8.975Y-0.275
X9.225Y-0.175
X0.225Y-2.025
X0.475Y-1.925
X4.225Y-1.275
X4.475Y-1.175
X4.0375Y-2.775
X4.2875Y-2.675
X13.725Y-2.775
X13.975Y-2.675
X3.1Y-2.025
X3.35Y-1.925
X6.1Y-0.275
X6.35Y-0.175
X3.475Y-1.275
X3.725Y-1.175
X10.7875Y-2.775
X11.0375Y-2.675
X0.225Y-3.525
X0.475Y-3.425
X1.3187Y-4.275
X1.5687Y-4.175
X0.225Y-1.525
X0.475Y-1.425
X6.35Y-0.275
X6.6Y-0.175
X7.975Y-0.275
X8.225Y-0.175
X8.9125Y-3.525
X9.1625Y-3.425
X6.85Y-0.275
X7.1Y-0.175
X11.0687Y-3.525
X11.3187Y-3.425
X1.225Y-0.275
X1.475Y-0.175
X12.725Y-3.775
X12.975Y-3.675
X5.1625Y-3.525
X5.4125Y-3.425
X13.975Y-3.1
X14.075Y-3.35
X11.225Y-4.525
X11.475Y-4.425
X1.4125Y-2.025
X1.6625Y-1.925
X10.7875Y-4.275
X11.0375Y-4.175
X9.6625Y-3.525
X9.9125Y-3.425
X13.725Y-1.275
X13.975Y-1.175
X7.6Y-2.025
X7.85Y-1.925
X6.6625Y-3.525
X6.9125Y-3.425
X3.6625Y-3.525
X3.9125Y-3.425
X3.1938Y-4.275
X3.4438Y-4.175
X0.225Y-2.275
X0.475Y-2.175
X13.725Y-3.525
X13.975Y-3.425
X4.475Y-0.275
X4.725Y-0.175
X13.725Y-2.025
X13.975Y-1.925
X10.225Y-0.275
X10.475Y-0.175
X12.225Y-0.275
X12.475Y-0.175
X3.2875Y-2.775
X3.5375Y-2.675
X9.725Y-0.275
X9.975Y-0.175
X11.225Y-0.275
X11.475Y-0.175
X4.4125Y-3.525
X4.6625Y-3.425
X7.85Y-0.275
X8.1Y-0.175
X9.475Y-0.275
X9.725Y-0.175
X1.4125Y-4.275
X1.6625Y-4.175
X1.225Y-1.275
X1.475Y-1.175
X4.7875Y-2.775
X5.0375Y-2.675
X8.9125Y-4.275
X9.1625Y-4.175
X11.725Y-1.275
X11.975Y-1.175
X4.6Y-2.025
X4.85Y-1.925
X12.675Y-2.4
X12.775Y-2.65
X2.725Y-1.275
X2.975Y-1.175
X8.1625Y-3.525
X8.4125Y-3.425
X5.35Y-0.275
X5.6Y-0.175
X7.225Y-1.275
X7.475Y-1.175
X1.3187Y-2.775
X1.5687Y-2.675
X11.35Y-1.275
X11.6Y-1.175
X1.6937Y-3.525
X1.9437Y-3.425
X12.975Y-2.775
X13.225Y-2.675
X13.725Y-1.025
X13.975Y-0.925
X12.725Y-2.025
X12.975Y-1.925
X11.975Y-4.525
X12.225Y-4.425
X12.975Y-3.525
X13.225Y-3.425
X10.975Y-1.275
X11.225Y-1.175
X2.975Y-0.275
X3.225Y-0.175
X6.2875Y-2.775
X6.5375Y-2.675
X12.975Y-0.275
X13.225Y-0.175
X0.225Y-0.275
X0.475Y-0.175
X5.5375Y-2.775
X5.7875Y-2.675
X8.725Y-0.275
X8.975Y-0.175
X1.3187Y-3.525
X1.5687Y-3.425
X9.85Y-2.025
X10.1Y-1.925
X10.0375Y-2.775
X10.2875Y-2.675
X7.7875Y-2.775
X8.0375Y-2.675
X11.975Y-3.775
X12.225Y-3.675
X2.35Y-2.025
X2.6Y-1.925
X7.4125Y-3.525
X7.6625Y-3.425
X13.975Y-3.85
X14.075Y-4.1
X5.725Y-4.275
X5.975Y-4.175
X6.1Y-4.275
X6.35Y-4.175
X6.475Y-4.275
X6.725Y-4.175
X12.975Y-1.025
X13.225Y-0.925
X2.5375Y-2.775
X2.7875Y-2.675
X6.0062Y-4.275
X6.2562Y-4.175
X3.725Y-0.275
X3.975Y-0.175
X11.5375Y-2.025
X11.7875Y-1.925
X11.725Y-3.525
X11.975Y-3.425
X9.85Y-4.275
X10.1Y-4.175
X5.6Y-0.275
X5.85Y-0.175
X10.225Y-1.275
X10.475Y-1.175
X1.5062Y-2.775
X1.7562Y-2.675
X2.35Y-4.275
X2.6Y-4.175
X6.85Y-2.025
X7.1Y-1.925
X13.725Y-0.275
X13.975Y-0.175
X4.6Y-0.275
X4.85Y-0.175
X10.6937Y-3.525
X10.9437Y-3.425
X1.975Y-1.275
X2.225Y-1.175
X9.2875Y-2.775
X9.5375Y-2.675
X1.975Y-0.275
X2.225Y-0.175
X5.725Y-1.275
X5.975Y-1.175
X12.975Y-2.025
X13.225Y-1.925
X6.475Y-1.275
X6.725Y-1.175
X12.725Y-2.775
X12.975Y-2.675
X11.8812Y-2.35
X11.9812Y-2.6
X3.2875Y-4.275
X3.5375Y-4.175
X6.1Y-2.025
X6.35Y-1.925
X2.725Y-0.275
X2.975Y-0.175
X8.725Y-1.275
X8.975Y-1.175
X13.225Y-2.35
X13.325Y-2.6
X8.5375Y-2.775
X8.7875Y-2.675
X3.475Y-0.275
X3.725Y-0.175
X10.0375Y-4.275
X10.2875Y-4.175
X9.475Y-1.275
X9.725Y-1.175
X12.725Y-4.525
X12.975Y-4.425
X3.85Y-2.025
X4.1Y-1.925
X0.225Y-2.775
X0.475Y-2.675
X4.975Y-1.275
X5.225Y-1.175
X2.9125Y-3.525
X3.1625Y-3.425
T7
X7.125Y0.1575
X0.1575Y0.1575
X10.6088Y0.1575
X3.6412Y0.1575
X14.0925Y0.1575
X0.1575Y-5.1575
X7.125Y-5.1575
X14.0925Y-5.1575
X3.6412Y-5.1575
X10.6088Y-5.1575
T6
G00X13.7247Y-2.2117
M15
G01X13.7661Y-2.1816
M16
G05
G00X13.9839Y-2.5684
M15
G01X14.0253Y-2.5383
M16
G05
G00X0.1732Y-0.4675
M15
G01X0.1574Y-0.4188
M16
G05
G00X0.5926Y-0.3312
M15
G01X0.5768Y-0.2825
M16
G05
T0
M30
