G04 #@! TF.GenerationSoftware,KiCad,Pcbnew,(5.1.4)-1*
G04 #@! TF.CreationDate,2020-03-17T00:39:42-07:00*
G04 #@! TF.ProjectId,mad cat,6d616420-6361-4742-9e6b-696361645f70,rev?*
G04 #@! TF.SameCoordinates,Original*
G04 #@! TF.FileFunction,Paste,Top*
G04 #@! TF.FilePolarity,Positive*
%FSLAX46Y46*%
G04 Gerber Fmt 4.6, Leading zero omitted, Abs format (unit mm)*
G04 Created by KiCad (PCBNEW (5.1.4)-1) date 2020-03-17 00:39:42*
%MOMM*%
%LPD*%
G04 APERTURE LIST*
%ADD10C,0.100000*%
%ADD11C,1.300000*%
%ADD12C,1.500000*%
G04 APERTURE END LIST*
D10*
G36*
X318899504Y-25601204D02*
G01*
X318923773Y-25604804D01*
X318947571Y-25610765D01*
X318970671Y-25619030D01*
X318992849Y-25629520D01*
X319013893Y-25642133D01*
X319033598Y-25656747D01*
X319051777Y-25673223D01*
X319068253Y-25691402D01*
X319082867Y-25711107D01*
X319095480Y-25732151D01*
X319105970Y-25754329D01*
X319114235Y-25777429D01*
X319120196Y-25801227D01*
X319123796Y-25825496D01*
X319125000Y-25850000D01*
X319125000Y-26650000D01*
X319123796Y-26674504D01*
X319120196Y-26698773D01*
X319114235Y-26722571D01*
X319105970Y-26745671D01*
X319095480Y-26767849D01*
X319082867Y-26788893D01*
X319068253Y-26808598D01*
X319051777Y-26826777D01*
X319033598Y-26843253D01*
X319013893Y-26857867D01*
X318992849Y-26870480D01*
X318970671Y-26880970D01*
X318947571Y-26889235D01*
X318923773Y-26895196D01*
X318899504Y-26898796D01*
X318875000Y-26900000D01*
X318050000Y-26900000D01*
X318025496Y-26898796D01*
X318001227Y-26895196D01*
X317977429Y-26889235D01*
X317954329Y-26880970D01*
X317932151Y-26870480D01*
X317911107Y-26857867D01*
X317891402Y-26843253D01*
X317873223Y-26826777D01*
X317856747Y-26808598D01*
X317842133Y-26788893D01*
X317829520Y-26767849D01*
X317819030Y-26745671D01*
X317810765Y-26722571D01*
X317804804Y-26698773D01*
X317801204Y-26674504D01*
X317800000Y-26650000D01*
X317800000Y-25850000D01*
X317801204Y-25825496D01*
X317804804Y-25801227D01*
X317810765Y-25777429D01*
X317819030Y-25754329D01*
X317829520Y-25732151D01*
X317842133Y-25711107D01*
X317856747Y-25691402D01*
X317873223Y-25673223D01*
X317891402Y-25656747D01*
X317911107Y-25642133D01*
X317932151Y-25629520D01*
X317954329Y-25619030D01*
X317977429Y-25610765D01*
X318001227Y-25604804D01*
X318025496Y-25601204D01*
X318050000Y-25600000D01*
X318875000Y-25600000D01*
X318899504Y-25601204D01*
X318899504Y-25601204D01*
G37*
D11*
X318462500Y-26250000D03*
D10*
G36*
X316974504Y-25601204D02*
G01*
X316998773Y-25604804D01*
X317022571Y-25610765D01*
X317045671Y-25619030D01*
X317067849Y-25629520D01*
X317088893Y-25642133D01*
X317108598Y-25656747D01*
X317126777Y-25673223D01*
X317143253Y-25691402D01*
X317157867Y-25711107D01*
X317170480Y-25732151D01*
X317180970Y-25754329D01*
X317189235Y-25777429D01*
X317195196Y-25801227D01*
X317198796Y-25825496D01*
X317200000Y-25850000D01*
X317200000Y-26650000D01*
X317198796Y-26674504D01*
X317195196Y-26698773D01*
X317189235Y-26722571D01*
X317180970Y-26745671D01*
X317170480Y-26767849D01*
X317157867Y-26788893D01*
X317143253Y-26808598D01*
X317126777Y-26826777D01*
X317108598Y-26843253D01*
X317088893Y-26857867D01*
X317067849Y-26870480D01*
X317045671Y-26880970D01*
X317022571Y-26889235D01*
X316998773Y-26895196D01*
X316974504Y-26898796D01*
X316950000Y-26900000D01*
X316125000Y-26900000D01*
X316100496Y-26898796D01*
X316076227Y-26895196D01*
X316052429Y-26889235D01*
X316029329Y-26880970D01*
X316007151Y-26870480D01*
X315986107Y-26857867D01*
X315966402Y-26843253D01*
X315948223Y-26826777D01*
X315931747Y-26808598D01*
X315917133Y-26788893D01*
X315904520Y-26767849D01*
X315894030Y-26745671D01*
X315885765Y-26722571D01*
X315879804Y-26698773D01*
X315876204Y-26674504D01*
X315875000Y-26650000D01*
X315875000Y-25850000D01*
X315876204Y-25825496D01*
X315879804Y-25801227D01*
X315885765Y-25777429D01*
X315894030Y-25754329D01*
X315904520Y-25732151D01*
X315917133Y-25711107D01*
X315931747Y-25691402D01*
X315948223Y-25673223D01*
X315966402Y-25656747D01*
X315986107Y-25642133D01*
X316007151Y-25629520D01*
X316029329Y-25619030D01*
X316052429Y-25610765D01*
X316076227Y-25604804D01*
X316100496Y-25601204D01*
X316125000Y-25600000D01*
X316950000Y-25600000D01*
X316974504Y-25601204D01*
X316974504Y-25601204D01*
G37*
D11*
X316537500Y-26250000D03*
D10*
G36*
X193830878Y-112250903D02*
G01*
X193849079Y-112253603D01*
X193866928Y-112258074D01*
X193884253Y-112264273D01*
X193900887Y-112272140D01*
X193916669Y-112281599D01*
X193931449Y-112292561D01*
X193945083Y-112304917D01*
X193957439Y-112318551D01*
X193968401Y-112333331D01*
X193977860Y-112349113D01*
X193985727Y-112365747D01*
X193991926Y-112383072D01*
X193996397Y-112400921D01*
X193999097Y-112419122D01*
X194000000Y-112437500D01*
X194000000Y-113562500D01*
X193999097Y-113580878D01*
X193996397Y-113599079D01*
X193991926Y-113616928D01*
X193985727Y-113634253D01*
X193977860Y-113650887D01*
X193968401Y-113666669D01*
X193957439Y-113681449D01*
X193945083Y-113695083D01*
X193931449Y-113707439D01*
X193916669Y-113718401D01*
X193900887Y-113727860D01*
X193884253Y-113735727D01*
X193866928Y-113741926D01*
X193849079Y-113746397D01*
X193830878Y-113749097D01*
X193812500Y-113750000D01*
X192187500Y-113750000D01*
X192169122Y-113749097D01*
X192150921Y-113746397D01*
X192133072Y-113741926D01*
X192115747Y-113735727D01*
X192099113Y-113727860D01*
X192083331Y-113718401D01*
X192068551Y-113707439D01*
X192054917Y-113695083D01*
X192042561Y-113681449D01*
X192031599Y-113666669D01*
X192022140Y-113650887D01*
X192014273Y-113634253D01*
X192008074Y-113616928D01*
X192003603Y-113599079D01*
X192000903Y-113580878D01*
X192000000Y-113562500D01*
X192000000Y-112437500D01*
X192000903Y-112419122D01*
X192003603Y-112400921D01*
X192008074Y-112383072D01*
X192014273Y-112365747D01*
X192022140Y-112349113D01*
X192031599Y-112333331D01*
X192042561Y-112318551D01*
X192054917Y-112304917D01*
X192068551Y-112292561D01*
X192083331Y-112281599D01*
X192099113Y-112272140D01*
X192115747Y-112264273D01*
X192133072Y-112258074D01*
X192150921Y-112253603D01*
X192169122Y-112250903D01*
X192187500Y-112250000D01*
X193812500Y-112250000D01*
X193830878Y-112250903D01*
X193830878Y-112250903D01*
G37*
D12*
X193000000Y-113000000D03*
D10*
G36*
X187830878Y-112250903D02*
G01*
X187849079Y-112253603D01*
X187866928Y-112258074D01*
X187884253Y-112264273D01*
X187900887Y-112272140D01*
X187916669Y-112281599D01*
X187931449Y-112292561D01*
X187945083Y-112304917D01*
X187957439Y-112318551D01*
X187968401Y-112333331D01*
X187977860Y-112349113D01*
X187985727Y-112365747D01*
X187991926Y-112383072D01*
X187996397Y-112400921D01*
X187999097Y-112419122D01*
X188000000Y-112437500D01*
X188000000Y-113562500D01*
X187999097Y-113580878D01*
X187996397Y-113599079D01*
X187991926Y-113616928D01*
X187985727Y-113634253D01*
X187977860Y-113650887D01*
X187968401Y-113666669D01*
X187957439Y-113681449D01*
X187945083Y-113695083D01*
X187931449Y-113707439D01*
X187916669Y-113718401D01*
X187900887Y-113727860D01*
X187884253Y-113735727D01*
X187866928Y-113741926D01*
X187849079Y-113746397D01*
X187830878Y-113749097D01*
X187812500Y-113750000D01*
X186187500Y-113750000D01*
X186169122Y-113749097D01*
X186150921Y-113746397D01*
X186133072Y-113741926D01*
X186115747Y-113735727D01*
X186099113Y-113727860D01*
X186083331Y-113718401D01*
X186068551Y-113707439D01*
X186054917Y-113695083D01*
X186042561Y-113681449D01*
X186031599Y-113666669D01*
X186022140Y-113650887D01*
X186014273Y-113634253D01*
X186008074Y-113616928D01*
X186003603Y-113599079D01*
X186000903Y-113580878D01*
X186000000Y-113562500D01*
X186000000Y-112437500D01*
X186000903Y-112419122D01*
X186003603Y-112400921D01*
X186008074Y-112383072D01*
X186014273Y-112365747D01*
X186022140Y-112349113D01*
X186031599Y-112333331D01*
X186042561Y-112318551D01*
X186054917Y-112304917D01*
X186068551Y-112292561D01*
X186083331Y-112281599D01*
X186099113Y-112272140D01*
X186115747Y-112264273D01*
X186133072Y-112258074D01*
X186150921Y-112253603D01*
X186169122Y-112250903D01*
X186187500Y-112250000D01*
X187812500Y-112250000D01*
X187830878Y-112250903D01*
X187830878Y-112250903D01*
G37*
D12*
X187000000Y-113000000D03*
D10*
G36*
X193830878Y-108500903D02*
G01*
X193849079Y-108503603D01*
X193866928Y-108508074D01*
X193884253Y-108514273D01*
X193900887Y-108522140D01*
X193916669Y-108531599D01*
X193931449Y-108542561D01*
X193945083Y-108554917D01*
X193957439Y-108568551D01*
X193968401Y-108583331D01*
X193977860Y-108599113D01*
X193985727Y-108615747D01*
X193991926Y-108633072D01*
X193996397Y-108650921D01*
X193999097Y-108669122D01*
X194000000Y-108687500D01*
X194000000Y-109812500D01*
X193999097Y-109830878D01*
X193996397Y-109849079D01*
X193991926Y-109866928D01*
X193985727Y-109884253D01*
X193977860Y-109900887D01*
X193968401Y-109916669D01*
X193957439Y-109931449D01*
X193945083Y-109945083D01*
X193931449Y-109957439D01*
X193916669Y-109968401D01*
X193900887Y-109977860D01*
X193884253Y-109985727D01*
X193866928Y-109991926D01*
X193849079Y-109996397D01*
X193830878Y-109999097D01*
X193812500Y-110000000D01*
X192187500Y-110000000D01*
X192169122Y-109999097D01*
X192150921Y-109996397D01*
X192133072Y-109991926D01*
X192115747Y-109985727D01*
X192099113Y-109977860D01*
X192083331Y-109968401D01*
X192068551Y-109957439D01*
X192054917Y-109945083D01*
X192042561Y-109931449D01*
X192031599Y-109916669D01*
X192022140Y-109900887D01*
X192014273Y-109884253D01*
X192008074Y-109866928D01*
X192003603Y-109849079D01*
X192000903Y-109830878D01*
X192000000Y-109812500D01*
X192000000Y-108687500D01*
X192000903Y-108669122D01*
X192003603Y-108650921D01*
X192008074Y-108633072D01*
X192014273Y-108615747D01*
X192022140Y-108599113D01*
X192031599Y-108583331D01*
X192042561Y-108568551D01*
X192054917Y-108554917D01*
X192068551Y-108542561D01*
X192083331Y-108531599D01*
X192099113Y-108522140D01*
X192115747Y-108514273D01*
X192133072Y-108508074D01*
X192150921Y-108503603D01*
X192169122Y-108500903D01*
X192187500Y-108500000D01*
X193812500Y-108500000D01*
X193830878Y-108500903D01*
X193830878Y-108500903D01*
G37*
D12*
X193000000Y-109250000D03*
D10*
G36*
X187830878Y-108500903D02*
G01*
X187849079Y-108503603D01*
X187866928Y-108508074D01*
X187884253Y-108514273D01*
X187900887Y-108522140D01*
X187916669Y-108531599D01*
X187931449Y-108542561D01*
X187945083Y-108554917D01*
X187957439Y-108568551D01*
X187968401Y-108583331D01*
X187977860Y-108599113D01*
X187985727Y-108615747D01*
X187991926Y-108633072D01*
X187996397Y-108650921D01*
X187999097Y-108669122D01*
X188000000Y-108687500D01*
X188000000Y-109812500D01*
X187999097Y-109830878D01*
X187996397Y-109849079D01*
X187991926Y-109866928D01*
X187985727Y-109884253D01*
X187977860Y-109900887D01*
X187968401Y-109916669D01*
X187957439Y-109931449D01*
X187945083Y-109945083D01*
X187931449Y-109957439D01*
X187916669Y-109968401D01*
X187900887Y-109977860D01*
X187884253Y-109985727D01*
X187866928Y-109991926D01*
X187849079Y-109996397D01*
X187830878Y-109999097D01*
X187812500Y-110000000D01*
X186187500Y-110000000D01*
X186169122Y-109999097D01*
X186150921Y-109996397D01*
X186133072Y-109991926D01*
X186115747Y-109985727D01*
X186099113Y-109977860D01*
X186083331Y-109968401D01*
X186068551Y-109957439D01*
X186054917Y-109945083D01*
X186042561Y-109931449D01*
X186031599Y-109916669D01*
X186022140Y-109900887D01*
X186014273Y-109884253D01*
X186008074Y-109866928D01*
X186003603Y-109849079D01*
X186000903Y-109830878D01*
X186000000Y-109812500D01*
X186000000Y-108687500D01*
X186000903Y-108669122D01*
X186003603Y-108650921D01*
X186008074Y-108633072D01*
X186014273Y-108615747D01*
X186022140Y-108599113D01*
X186031599Y-108583331D01*
X186042561Y-108568551D01*
X186054917Y-108554917D01*
X186068551Y-108542561D01*
X186083331Y-108531599D01*
X186099113Y-108522140D01*
X186115747Y-108514273D01*
X186133072Y-108508074D01*
X186150921Y-108503603D01*
X186169122Y-108500903D01*
X186187500Y-108500000D01*
X187812500Y-108500000D01*
X187830878Y-108500903D01*
X187830878Y-108500903D01*
G37*
D12*
X187000000Y-109250000D03*
M02*
