M48
; DRILL file {KiCad (5.1.4)-1} date 3/17/2020 12:39:43 AM
; FORMAT={-:-/ absolute / inch / decimal}
; #@! TF.CreationDate,2020-03-17T00:39:43-07:00
; #@! TF.GenerationSoftware,Kicad,Pcbnew,(5.1.4)-1
; #@! TF.FileFunction,NonPlated,1,2,NPTH
FMAT,2
INCH
T1C0.0156
T2C0.0630
T3C0.0650
T4C0.0669
T5C0.0677
T6C0.0681
T7C0.0689
T8C0.1012
T9C0.1200
T10C0.1570
%
G90
G05
T1
X0.375Y-0.375
X13.875Y-2.375
T2
X6.075Y-4.375
T3
X6.05Y-4.375
X6.425Y-4.375
X6.45Y-4.375
T4
X5.9562Y-4.375
T5
X11.4187Y-3.625
T6
X11.7812Y-2.3
X11.7812Y-2.7
T7
X1.6438Y-3.625
X2.0437Y-3.625
X12.925Y-2.875
X13.325Y-2.875
X13.675Y-1.125
X14.075Y-1.125
X12.675Y-2.125
X13.075Y-2.125
X11.925Y-4.625
X12.325Y-4.625
X12.925Y-3.625
X13.325Y-3.625
X10.925Y-1.375
X2.925Y-0.375
X3.325Y-0.375
X6.2375Y-2.875
X6.6375Y-2.875
X12.925Y-0.375
X13.325Y-0.375
X0.175Y-0.375
X0.575Y-0.375
X5.4875Y-2.875
X5.8875Y-2.875
X8.675Y-0.375
X9.075Y-0.375
X1.2688Y-3.625
X9.8Y-2.125
X10.2Y-2.125
X9.9875Y-2.875
X10.3875Y-2.875
X7.7375Y-2.875
X8.1375Y-2.875
X11.925Y-3.875
X12.325Y-3.875
X2.3Y-2.125
X2.7Y-2.125
X7.3625Y-3.625
X7.7625Y-3.625
X13.875Y-3.8
X13.875Y-4.2
X5.675Y-4.375
X6.825Y-4.375
X12.925Y-1.125
X13.325Y-1.125
X2.4875Y-2.875
X2.8875Y-2.875
X6.3563Y-4.375
X3.675Y-0.375
X4.075Y-0.375
X11.4875Y-2.125
X11.8875Y-2.125
X11.675Y-3.625
X12.075Y-3.625
X9.8Y-4.375
X10.2Y-4.375
X5.55Y-0.375
X5.95Y-0.375
X10.175Y-1.375
X10.575Y-1.375
X1.4563Y-2.875
X1.8562Y-2.875
X2.3Y-4.375
X2.7Y-4.375
X6.8Y-2.125
X7.2Y-2.125
X13.675Y-0.375
X14.075Y-0.375
X4.55Y-0.375
X4.95Y-0.375
X10.6437Y-3.625
X11.0437Y-3.625
X1.925Y-1.375
X2.325Y-1.375
X9.2375Y-2.875
X9.6375Y-2.875
X1.925Y-0.375
X2.325Y-0.375
X5.675Y-1.375
X6.075Y-1.375
X12.925Y-2.125
X13.325Y-2.125
X6.425Y-1.375
X6.825Y-1.375
X12.675Y-2.875
X13.075Y-2.875
X3.2375Y-4.375
X3.6375Y-4.375
X6.05Y-2.125
X6.45Y-2.125
X2.675Y-0.375
X3.075Y-0.375
X8.675Y-1.375
X9.075Y-1.375
X13.125Y-2.3
X13.125Y-2.7
X8.4875Y-2.875
X8.8875Y-2.875
X3.425Y-0.375
X3.825Y-0.375
X9.9875Y-4.375
X10.3875Y-4.375
X9.425Y-1.375
X9.825Y-1.375
X12.675Y-4.625
X13.075Y-4.625
X3.8Y-2.125
X4.2Y-2.125
X0.175Y-2.875
X0.575Y-2.875
X4.925Y-1.375
X5.325Y-1.375
X2.8625Y-3.625
X3.2625Y-3.625
X0.175Y-3.125
X0.575Y-3.125
X12.925Y-1.375
X13.325Y-1.375
X9.05Y-2.125
X9.45Y-2.125
X0.175Y-4.625
X0.575Y-4.625
X5.8625Y-3.625
X6.2625Y-3.625
X0.175Y-4.375
X0.575Y-4.375
X8.3Y-2.125
X8.7Y-2.125
X13.425Y-4.625
X13.825Y-4.625
X0.175Y-1.375
X0.575Y-1.375
X13.675Y-4.375
X14.075Y-4.375
X5.3Y-2.125
X5.7Y-2.125
X6.9875Y-2.875
X7.3875Y-2.875
X10.425Y-0.375
X10.825Y-0.375
X11.2062Y-2.875
X11.6062Y-2.875
X7.925Y-1.375
X8.325Y-1.375
X0.175Y-3.875
X0.575Y-3.875
X7.05Y-0.375
X7.45Y-0.375
X2.175Y-0.375
X2.575Y-0.375
X2.1125Y-3.625
X2.5125Y-3.625
X2.2062Y-4.375
X2.6062Y-4.375
X10.55Y-2.125
X10.95Y-2.125
X8.925Y-0.375
X9.325Y-0.375
X0.175Y-2.125
X0.575Y-2.125
X4.175Y-1.375
X4.575Y-1.375
X3.9875Y-2.875
X4.3875Y-2.875
X13.675Y-2.875
X14.075Y-2.875
X3.05Y-2.125
X3.45Y-2.125
X6.05Y-0.375
X6.45Y-0.375
X3.425Y-1.375
X3.825Y-1.375
X10.7375Y-2.875
X11.1375Y-2.875
X0.175Y-3.625
X0.575Y-3.625
X1.2688Y-4.375
X1.6687Y-4.375
X0.175Y-1.625
X0.575Y-1.625
X6.3Y-0.375
X6.7Y-0.375
X7.925Y-0.375
X8.325Y-0.375
X8.8625Y-3.625
X9.2625Y-3.625
X6.8Y-0.375
X7.2Y-0.375
X11.0187Y-3.625
X1.175Y-0.375
X1.575Y-0.375
X12.675Y-3.875
X13.075Y-3.875
X5.1125Y-3.625
X5.5125Y-3.625
X13.875Y-3.05
X13.875Y-3.45
X11.175Y-4.625
X11.575Y-4.625
X1.3625Y-2.125
X1.7625Y-2.125
X10.7375Y-4.375
X11.1375Y-4.375
X9.6125Y-3.625
X10.0125Y-3.625
X13.675Y-1.375
X14.075Y-1.375
X7.55Y-2.125
X7.95Y-2.125
X6.6125Y-3.625
X7.0125Y-3.625
X3.6125Y-3.625
X4.0125Y-3.625
X3.1437Y-4.375
X3.5437Y-4.375
X0.175Y-2.375
X0.575Y-2.375
X13.675Y-3.625
X14.075Y-3.625
X4.425Y-0.375
X4.825Y-0.375
X13.675Y-2.125
X14.075Y-2.125
X10.175Y-0.375
X10.575Y-0.375
X12.175Y-0.375
X12.575Y-0.375
X3.2375Y-2.875
X3.6375Y-2.875
X9.675Y-0.375
X10.075Y-0.375
X11.175Y-0.375
X11.575Y-0.375
X4.3625Y-3.625
X4.7625Y-3.625
X7.8Y-0.375
X8.2Y-0.375
X9.425Y-0.375
X9.825Y-0.375
X1.3625Y-4.375
X1.7625Y-4.375
X1.175Y-1.375
X1.575Y-1.375
X4.7375Y-2.875
X5.1375Y-2.875
X8.8625Y-4.375
X9.2625Y-4.375
X12.075Y-1.375
X4.55Y-2.125
X4.95Y-2.125
X12.875Y-2.3
X12.875Y-2.7
X2.675Y-1.375
X3.075Y-1.375
X8.1125Y-3.625
X8.5125Y-3.625
X5.3Y-0.375
X5.7Y-0.375
X7.175Y-1.375
X7.575Y-1.375
X1.2688Y-2.875
X1.6687Y-2.875
X11.3Y-1.375
X11.7Y-1.375
T8
X12.3543Y-1.0335
X12.6457Y-1.0335
T9
X10.7487Y-3.9
X11.6887Y-3.9
X14.15Y-2.78
X14.15Y-3.72
X13.15Y-2.03
X13.15Y-2.97
X11.03Y-1.1
X11.97Y-1.1
X1.3738Y-3.35
X2.3137Y-3.35
X14.15Y-3.53
X14.15Y-4.47
X4.375Y-4.65
X8.125Y-4.65
X4.1863Y-4.65
X8.1263Y-4.65
X12.0563Y-2.03
X12.0563Y-2.97
X13.4Y-2.03
X13.4Y-2.97
X10.9362Y-3.15
X11.8762Y-3.15
T10
X2.3125Y-3.625
X2.4062Y-4.375
X10.75Y-2.125
X9.125Y-0.375
X0.375Y-2.125
X4.375Y-1.375
X4.1875Y-2.875
X13.875Y-2.875
X3.25Y-2.125
X6.25Y-0.375
X3.625Y-1.375
X10.9375Y-2.875
X0.375Y-3.625
X1.4688Y-4.375
X0.375Y-1.625
X6.5Y-0.375
X8.125Y-0.375
X9.0625Y-3.625
X7.0Y-0.375
X10.7487Y-3.3
X11.2188Y-3.625
X11.6887Y-3.3
X1.375Y-0.375
X12.875Y-3.875
X5.3125Y-3.625
X13.55Y-2.78
X13.55Y-3.72
X13.875Y-3.25
X11.375Y-4.625
X1.5625Y-2.125
X10.9375Y-4.375
X9.8125Y-3.625
X13.875Y-1.375
X7.75Y-2.125
X6.8125Y-3.625
X3.8125Y-3.625
X3.3438Y-4.375
X0.375Y-2.375
X13.875Y-3.625
X4.625Y-0.375
X13.875Y-2.125
X10.375Y-0.375
X12.375Y-0.375
X3.4375Y-2.875
X9.875Y-0.375
X11.375Y-0.375
X4.5625Y-3.625
X8.0Y-0.375
X9.625Y-0.375
X1.5625Y-4.375
X1.375Y-1.375
X4.9375Y-2.875
X9.0625Y-4.375
X11.875Y-1.375
X4.75Y-2.125
X12.55Y-2.03
X12.55Y-2.97
X12.875Y-2.5
X2.875Y-1.375
X8.3125Y-3.625
X5.5Y-0.375
X7.375Y-1.375
X1.4688Y-2.875
X11.03Y-1.7
X11.5Y-1.375
X11.97Y-1.7
X1.3738Y-3.95
X1.8438Y-3.625
X2.3137Y-3.95
X13.125Y-2.875
X13.875Y-1.125
X12.875Y-2.125
X12.125Y-4.625
X13.125Y-3.625
X11.125Y-1.375
X3.125Y-0.375
X6.4375Y-2.875
X13.125Y-0.375
X0.375Y-0.375
X5.6875Y-2.875
X8.875Y-0.375
X1.4688Y-3.625
X10.0Y-2.125
X10.1875Y-2.875
X7.9375Y-2.875
X12.125Y-3.875
X2.5Y-2.125
X7.5625Y-3.625
X13.55Y-3.53
X13.55Y-4.47
X13.875Y-4.0
X4.375Y-4.05
X5.875Y-4.375
X6.25Y-4.375
X6.625Y-4.375
X8.125Y-4.05
X13.125Y-1.125
X2.6875Y-2.875
X4.1863Y-4.05
X6.1562Y-4.375
X8.1263Y-4.05
X3.875Y-0.375
X11.6875Y-2.125
X11.875Y-3.625
X10.0Y-4.375
X5.75Y-0.375
X10.375Y-1.375
X1.6562Y-2.875
X2.5Y-4.375
X7.0Y-2.125
X13.875Y-0.375
X4.75Y-0.375
X10.8438Y-3.625
X2.125Y-1.375
X9.4375Y-2.875
X2.125Y-0.375
X5.875Y-1.375
X13.125Y-2.125
X6.625Y-1.375
X12.875Y-2.875
X11.4562Y-2.03
X11.4562Y-2.97
X11.7812Y-2.5
X3.4375Y-4.375
X6.25Y-2.125
X2.875Y-0.375
X8.875Y-1.375
X12.8Y-2.03
X12.8Y-2.97
X13.125Y-2.5
X8.6875Y-2.875
X3.625Y-0.375
X10.1875Y-4.375
X9.625Y-1.375
X12.875Y-4.625
X4.0Y-2.125
X0.375Y-2.875
X5.125Y-1.375
X3.0625Y-3.625
X0.375Y-3.125
X13.125Y-1.375
X9.25Y-2.125
X0.375Y-4.625
X6.0625Y-3.625
X0.375Y-4.375
X8.5Y-2.125
X13.625Y-4.625
X0.375Y-1.375
X13.875Y-4.375
X5.5Y-2.125
X7.1875Y-2.875
X10.625Y-0.375
X10.9362Y-2.55
X11.4062Y-2.875
X11.8762Y-2.55
X8.125Y-1.375
X0.375Y-3.875
X7.25Y-0.375
X2.375Y-0.375
T0
M30
