M48
; DRILL file {KiCad (5.1.4)-1} date 9/6/2019 1:52:30 AM
; FORMAT={-:-/ absolute / inch / decimal}
; #@! TF.CreationDate,2019-09-06T01:52:30-07:00
; #@! TF.GenerationSoftware,Kicad,Pcbnew,(5.1.4)-1
; #@! TF.FileFunction,NonPlated,1,2,NPTH
FMAT,2
INCH
T1C0.0591
T2C0.0630
T3C0.0638
T4C0.0646
T5C0.0654
T6C0.0661
T7C0.0669
T8C0.0673
T9C0.0677
T10C0.0681
T11C0.0685
T12C0.0689
T13C0.0693
T14C0.0697
T15C0.0701
T16C0.0705
T17C0.0709
T18C0.0984
T19C0.0992
T20C0.1000
T21C0.1008
T22C0.1016
T23C0.1024
T24C0.1031
T25C0.1039
T26C0.1047
T27C0.1055
T28C0.1200
T29C0.1570
%
G90
G05
T1
X0.5874Y-3.75
X0.6124Y-3.75
X0.9624Y-3.75
X0.9874Y-3.75
T2
X0.5874Y-3.375
X0.6124Y-3.375
X0.9624Y-3.375
X0.9874Y-3.375
T3
X0.5874Y-3.0
X0.6124Y-3.0
X0.9624Y-3.0
X0.9874Y-3.0
T4
X0.5874Y-2.625
X0.6124Y-2.625
X0.9624Y-2.625
X0.9874Y-2.625
T5
X0.5874Y-2.25
X0.6124Y-2.25
X0.9624Y-2.25
X0.9874Y-2.25
T6
X0.5874Y-1.875
X0.6124Y-1.875
X0.9624Y-1.875
X0.9874Y-1.875
T7
X0.5874Y-1.5
X0.6124Y-1.5
X0.9624Y-1.5
X0.9874Y-1.5
T8
X3.175Y-3.75
X3.575Y-3.75
X2.2409Y-3.8081
X2.6409Y-3.8081
T9
X3.175Y-3.375
X3.575Y-3.375
X2.2409Y-3.4331
X2.6409Y-3.4331
X0.5874Y-1.125
X0.6124Y-1.125
X0.9624Y-1.125
X0.9874Y-1.125
T10
X2.2409Y-3.0581
X2.6409Y-3.0581
X3.175Y-3.0
X3.575Y-3.0
T11
X2.2409Y-2.6831
X2.6409Y-2.6831
X3.175Y-2.625
X3.575Y-2.625
X0.5874Y-0.75
X0.6124Y-0.75
X0.9624Y-0.75
X0.9874Y-0.75
T12
X0.2124Y-3.0
X1.3624Y-3.0
X0.2124Y-0.75
X1.3624Y-0.75
X0.2124Y-3.75
X1.3624Y-3.75
X0.2124Y-0.375
X1.3624Y-0.375
X0.2124Y-1.875
X1.3624Y-1.875
X0.2124Y-2.25
X1.3624Y-2.25
X0.2124Y-3.375
X1.3624Y-3.375
X3.175Y-2.25
X3.575Y-2.25
X0.2124Y-2.625
X1.3624Y-2.625
X0.2124Y-1.125
X1.3624Y-1.125
X2.2409Y-2.3081
X2.6409Y-2.3081
X0.2124Y-1.5
X1.3624Y-1.5
T13
X3.175Y-1.875
X3.575Y-1.875
X0.5874Y-0.375
X0.6124Y-0.375
X0.9624Y-0.375
X0.9874Y-0.375
X2.2409Y-1.9331
X2.6409Y-1.9331
T14
X2.2409Y-1.5581
X2.6409Y-1.5581
X3.175Y-1.5
X3.575Y-1.5
T15
X2.2409Y-1.1831
X2.6409Y-1.1831
X3.175Y-1.125
X3.575Y-1.125
T16
X3.175Y-0.75
X3.575Y-0.75
X2.2409Y-0.8081
X2.6409Y-0.8081
T17
X3.175Y-0.375
X3.575Y-0.375
X2.2409Y-0.4331
X2.6409Y-0.4331
T18
X1.7293Y-3.75
X2.0207Y-3.75
T19
X1.875Y-3.2293
X1.875Y-3.5207
T20
X1.7293Y-3.0
X2.0207Y-3.0
T21
X1.875Y-2.4793
X1.875Y-2.7707
T22
X1.7293Y-2.25
X2.0207Y-2.25
T23
X1.875Y-1.7293
X1.875Y-2.0207
T24
X1.7293Y-1.5
X2.0207Y-1.5
T25
X1.875Y-0.9793
X1.875Y-1.2707
T26
X1.7293Y-0.75
X2.0207Y-0.75
T27
X1.875Y-0.2293
X1.875Y-0.5207
T28
X2.6624Y-3.275
X2.6624Y-1.025
X2.6624Y-0.65
X2.6624Y-2.15
X2.6624Y-2.525
X2.6624Y-3.65
X2.6624Y-2.9
X2.6624Y-1.4
X2.6624Y-1.775
T29
X2.4409Y-1.1831
X3.375Y-0.375
X3.375Y-1.875
X0.4124Y-3.0
X0.7874Y-3.0
X1.1624Y-3.0
X2.6624Y-2.675
X2.4409Y-0.4331
X0.4124Y-0.75
X0.7874Y-0.75
X1.1624Y-0.75
X2.6624Y-0.425
X3.375Y-3.75
X3.375Y-0.75
X0.4124Y-3.75
X0.7874Y-3.75
X1.1624Y-3.75
X2.6624Y-3.425
X2.4409Y-2.6831
X0.4124Y-0.375
X0.7874Y-0.375
X1.1624Y-0.375
X3.375Y-3.375
X2.4409Y-3.0581
X3.375Y-1.125
X2.4409Y-0.8081
X0.4124Y-1.875
X0.7874Y-1.875
X1.1624Y-1.875
X2.6624Y-1.55
X2.4409Y-1.9331
X0.4124Y-2.25
X0.7874Y-2.25
X1.1624Y-2.25
X2.6624Y-1.925
X0.4124Y-3.375
X0.7874Y-3.375
X1.1624Y-3.375
X2.6624Y-3.05
X2.4409Y-3.4331
X3.375Y-2.25
X2.4409Y-3.8081
X0.4124Y-2.625
X0.7874Y-2.625
X1.1624Y-2.625
X2.6624Y-2.3
X3.375Y-3.0
X2.4409Y-1.5581
X3.375Y-2.625
X0.4124Y-1.125
X0.7874Y-1.125
X1.1624Y-1.125
X2.6624Y-0.8
X2.4409Y-2.3081
X0.4124Y-1.5
X0.7874Y-1.5
X1.1624Y-1.5
X2.6624Y-1.175
X3.375Y-1.5
T0
M30
