G04 #@! TF.GenerationSoftware,KiCad,Pcbnew,(5.1.4)-1*
G04 #@! TF.CreationDate,2019-09-06T01:52:25-07:00*
G04 #@! TF.ProjectId,testing footprints,74657374-696e-4672-9066-6f6f74707269,rev?*
G04 #@! TF.SameCoordinates,Original*
G04 #@! TF.FileFunction,Legend,Top*
G04 #@! TF.FilePolarity,Positive*
%FSLAX46Y46*%
G04 Gerber Fmt 4.6, Leading zero omitted, Abs format (unit mm)*
G04 Created by KiCad (PCBNEW (5.1.4)-1) date 2019-09-06 01:52:25*
%MOMM*%
%LPD*%
G04 APERTURE LIST*
%ADD10C,0.150000*%
%ADD11C,0.120000*%
%ADD12C,0.300000*%
G04 APERTURE END LIST*
D10*
X70620238Y-59077380D02*
X70048809Y-59077380D01*
X70334523Y-59077380D02*
X70334523Y-58077380D01*
X70239285Y-58220238D01*
X70144047Y-58315476D01*
X70048809Y-58363095D01*
X71048809Y-58982142D02*
X71096428Y-59029761D01*
X71048809Y-59077380D01*
X71001190Y-59029761D01*
X71048809Y-58982142D01*
X71048809Y-59077380D01*
X71429761Y-58077380D02*
X72096428Y-58077380D01*
X71667857Y-59077380D01*
X72953571Y-58077380D02*
X72477380Y-58077380D01*
X72429761Y-58553571D01*
X72477380Y-58505952D01*
X72572619Y-58458333D01*
X72810714Y-58458333D01*
X72905952Y-58505952D01*
X72953571Y-58553571D01*
X73001190Y-58648809D01*
X73001190Y-58886904D01*
X72953571Y-58982142D01*
X72905952Y-59029761D01*
X72810714Y-59077380D01*
X72572619Y-59077380D01*
X72477380Y-59029761D01*
X72429761Y-58982142D01*
X70620238Y-40027380D02*
X70048809Y-40027380D01*
X70334523Y-40027380D02*
X70334523Y-39027380D01*
X70239285Y-39170238D01*
X70144047Y-39265476D01*
X70048809Y-39313095D01*
X71048809Y-39932142D02*
X71096428Y-39979761D01*
X71048809Y-40027380D01*
X71001190Y-39979761D01*
X71048809Y-39932142D01*
X71048809Y-40027380D01*
X71429761Y-39027380D02*
X72096428Y-39027380D01*
X71667857Y-40027380D01*
X72382142Y-39027380D02*
X73048809Y-39027380D01*
X72620238Y-40027380D01*
X70620238Y-20977380D02*
X70048809Y-20977380D01*
X70334523Y-20977380D02*
X70334523Y-19977380D01*
X70239285Y-20120238D01*
X70144047Y-20215476D01*
X70048809Y-20263095D01*
X71048809Y-20882142D02*
X71096428Y-20929761D01*
X71048809Y-20977380D01*
X71001190Y-20929761D01*
X71048809Y-20882142D01*
X71048809Y-20977380D01*
X71429761Y-19977380D02*
X72096428Y-19977380D01*
X71667857Y-20977380D01*
X72525000Y-20977380D02*
X72715476Y-20977380D01*
X72810714Y-20929761D01*
X72858333Y-20882142D01*
X72953571Y-20739285D01*
X73001190Y-20548809D01*
X73001190Y-20167857D01*
X72953571Y-20072619D01*
X72905952Y-20025000D01*
X72810714Y-19977380D01*
X72620238Y-19977380D01*
X72525000Y-20025000D01*
X72477380Y-20072619D01*
X72429761Y-20167857D01*
X72429761Y-20405952D01*
X72477380Y-20501190D01*
X72525000Y-20548809D01*
X72620238Y-20596428D01*
X72810714Y-20596428D01*
X72905952Y-20548809D01*
X72953571Y-20501190D01*
X73001190Y-20405952D01*
X70620238Y-30502380D02*
X70048809Y-30502380D01*
X70334523Y-30502380D02*
X70334523Y-29502380D01*
X70239285Y-29645238D01*
X70144047Y-29740476D01*
X70048809Y-29788095D01*
X71048809Y-30407142D02*
X71096428Y-30454761D01*
X71048809Y-30502380D01*
X71001190Y-30454761D01*
X71048809Y-30407142D01*
X71048809Y-30502380D01*
X71429761Y-29502380D02*
X72096428Y-29502380D01*
X71667857Y-30502380D01*
X72620238Y-29930952D02*
X72525000Y-29883333D01*
X72477380Y-29835714D01*
X72429761Y-29740476D01*
X72429761Y-29692857D01*
X72477380Y-29597619D01*
X72525000Y-29550000D01*
X72620238Y-29502380D01*
X72810714Y-29502380D01*
X72905952Y-29550000D01*
X72953571Y-29597619D01*
X73001190Y-29692857D01*
X73001190Y-29740476D01*
X72953571Y-29835714D01*
X72905952Y-29883333D01*
X72810714Y-29930952D01*
X72620238Y-29930952D01*
X72525000Y-29978571D01*
X72477380Y-30026190D01*
X72429761Y-30121428D01*
X72429761Y-30311904D01*
X72477380Y-30407142D01*
X72525000Y-30454761D01*
X72620238Y-30502380D01*
X72810714Y-30502380D01*
X72905952Y-30454761D01*
X72953571Y-30407142D01*
X73001190Y-30311904D01*
X73001190Y-30121428D01*
X72953571Y-30026190D01*
X72905952Y-29978571D01*
X72810714Y-29930952D01*
X70620238Y-87652380D02*
X70048809Y-87652380D01*
X70334523Y-87652380D02*
X70334523Y-86652380D01*
X70239285Y-86795238D01*
X70144047Y-86890476D01*
X70048809Y-86938095D01*
X71048809Y-87557142D02*
X71096428Y-87604761D01*
X71048809Y-87652380D01*
X71001190Y-87604761D01*
X71048809Y-87557142D01*
X71048809Y-87652380D01*
X71429761Y-86652380D02*
X72096428Y-86652380D01*
X71667857Y-87652380D01*
X72429761Y-86747619D02*
X72477380Y-86700000D01*
X72572619Y-86652380D01*
X72810714Y-86652380D01*
X72905952Y-86700000D01*
X72953571Y-86747619D01*
X73001190Y-86842857D01*
X73001190Y-86938095D01*
X72953571Y-87080952D01*
X72382142Y-87652380D01*
X73001190Y-87652380D01*
X70620238Y-68602380D02*
X70048809Y-68602380D01*
X70334523Y-68602380D02*
X70334523Y-67602380D01*
X70239285Y-67745238D01*
X70144047Y-67840476D01*
X70048809Y-67888095D01*
X71048809Y-68507142D02*
X71096428Y-68554761D01*
X71048809Y-68602380D01*
X71001190Y-68554761D01*
X71048809Y-68507142D01*
X71048809Y-68602380D01*
X71429761Y-67602380D02*
X72096428Y-67602380D01*
X71667857Y-68602380D01*
X72905952Y-67935714D02*
X72905952Y-68602380D01*
X72667857Y-67554761D02*
X72429761Y-68269047D01*
X73048809Y-68269047D01*
X70620238Y-49552380D02*
X70048809Y-49552380D01*
X70334523Y-49552380D02*
X70334523Y-48552380D01*
X70239285Y-48695238D01*
X70144047Y-48790476D01*
X70048809Y-48838095D01*
X71048809Y-49457142D02*
X71096428Y-49504761D01*
X71048809Y-49552380D01*
X71001190Y-49504761D01*
X71048809Y-49457142D01*
X71048809Y-49552380D01*
X71429761Y-48552380D02*
X72096428Y-48552380D01*
X71667857Y-49552380D01*
X72905952Y-48552380D02*
X72715476Y-48552380D01*
X72620238Y-48600000D01*
X72572619Y-48647619D01*
X72477380Y-48790476D01*
X72429761Y-48980952D01*
X72429761Y-49361904D01*
X72477380Y-49457142D01*
X72525000Y-49504761D01*
X72620238Y-49552380D01*
X72810714Y-49552380D01*
X72905952Y-49504761D01*
X72953571Y-49457142D01*
X73001190Y-49361904D01*
X73001190Y-49123809D01*
X72953571Y-49028571D01*
X72905952Y-48980952D01*
X72810714Y-48933333D01*
X72620238Y-48933333D01*
X72525000Y-48980952D01*
X72477380Y-49028571D01*
X72429761Y-49123809D01*
X71096428Y-11452380D02*
X70525000Y-11452380D01*
X70810714Y-11452380D02*
X70810714Y-10452380D01*
X70715476Y-10595238D01*
X70620238Y-10690476D01*
X70525000Y-10738095D01*
X71525000Y-11357142D02*
X71572619Y-11404761D01*
X71525000Y-11452380D01*
X71477380Y-11404761D01*
X71525000Y-11357142D01*
X71525000Y-11452380D01*
X72144047Y-10880952D02*
X72048809Y-10833333D01*
X72001190Y-10785714D01*
X71953571Y-10690476D01*
X71953571Y-10642857D01*
X72001190Y-10547619D01*
X72048809Y-10500000D01*
X72144047Y-10452380D01*
X72334523Y-10452380D01*
X72429761Y-10500000D01*
X72477380Y-10547619D01*
X72525000Y-10642857D01*
X72525000Y-10690476D01*
X72477380Y-10785714D01*
X72429761Y-10833333D01*
X72334523Y-10880952D01*
X72144047Y-10880952D01*
X72048809Y-10928571D01*
X72001190Y-10976190D01*
X71953571Y-11071428D01*
X71953571Y-11261904D01*
X72001190Y-11357142D01*
X72048809Y-11404761D01*
X72144047Y-11452380D01*
X72334523Y-11452380D01*
X72429761Y-11404761D01*
X72477380Y-11357142D01*
X72525000Y-11261904D01*
X72525000Y-11071428D01*
X72477380Y-10976190D01*
X72429761Y-10928571D01*
X72334523Y-10880952D01*
X70620238Y-78127380D02*
X70048809Y-78127380D01*
X70334523Y-78127380D02*
X70334523Y-77127380D01*
X70239285Y-77270238D01*
X70144047Y-77365476D01*
X70048809Y-77413095D01*
X71048809Y-78032142D02*
X71096428Y-78079761D01*
X71048809Y-78127380D01*
X71001190Y-78079761D01*
X71048809Y-78032142D01*
X71048809Y-78127380D01*
X71429761Y-77127380D02*
X72096428Y-77127380D01*
X71667857Y-78127380D01*
X72382142Y-77127380D02*
X73001190Y-77127380D01*
X72667857Y-77508333D01*
X72810714Y-77508333D01*
X72905952Y-77555952D01*
X72953571Y-77603571D01*
X73001190Y-77698809D01*
X73001190Y-77936904D01*
X72953571Y-78032142D01*
X72905952Y-78079761D01*
X72810714Y-78127380D01*
X72525000Y-78127380D01*
X72429761Y-78079761D01*
X72382142Y-78032142D01*
X70620238Y-97177380D02*
X70048809Y-97177380D01*
X70334523Y-97177380D02*
X70334523Y-96177380D01*
X70239285Y-96320238D01*
X70144047Y-96415476D01*
X70048809Y-96463095D01*
X71048809Y-97082142D02*
X71096428Y-97129761D01*
X71048809Y-97177380D01*
X71001190Y-97129761D01*
X71048809Y-97082142D01*
X71048809Y-97177380D01*
X71429761Y-96177380D02*
X72096428Y-96177380D01*
X71667857Y-97177380D01*
X73001190Y-97177380D02*
X72429761Y-97177380D01*
X72715476Y-97177380D02*
X72715476Y-96177380D01*
X72620238Y-96320238D01*
X72525000Y-96415476D01*
X72429761Y-96463095D01*
X94345238Y-95702380D02*
X93773809Y-95702380D01*
X94059523Y-95702380D02*
X94059523Y-94702380D01*
X93964285Y-94845238D01*
X93869047Y-94940476D01*
X93773809Y-94988095D01*
X94773809Y-95607142D02*
X94821428Y-95654761D01*
X94773809Y-95702380D01*
X94726190Y-95654761D01*
X94773809Y-95607142D01*
X94773809Y-95702380D01*
X95154761Y-94702380D02*
X95821428Y-94702380D01*
X95392857Y-95702380D01*
X96726190Y-95702380D02*
X96154761Y-95702380D01*
X96440476Y-95702380D02*
X96440476Y-94702380D01*
X96345238Y-94845238D01*
X96250000Y-94940476D01*
X96154761Y-94988095D01*
X94345238Y-76652380D02*
X93773809Y-76652380D01*
X94059523Y-76652380D02*
X94059523Y-75652380D01*
X93964285Y-75795238D01*
X93869047Y-75890476D01*
X93773809Y-75938095D01*
X94773809Y-76557142D02*
X94821428Y-76604761D01*
X94773809Y-76652380D01*
X94726190Y-76604761D01*
X94773809Y-76557142D01*
X94773809Y-76652380D01*
X95154761Y-75652380D02*
X95821428Y-75652380D01*
X95392857Y-76652380D01*
X96107142Y-75652380D02*
X96726190Y-75652380D01*
X96392857Y-76033333D01*
X96535714Y-76033333D01*
X96630952Y-76080952D01*
X96678571Y-76128571D01*
X96726190Y-76223809D01*
X96726190Y-76461904D01*
X96678571Y-76557142D01*
X96630952Y-76604761D01*
X96535714Y-76652380D01*
X96250000Y-76652380D01*
X96154761Y-76604761D01*
X96107142Y-76557142D01*
X94345238Y-57602380D02*
X93773809Y-57602380D01*
X94059523Y-57602380D02*
X94059523Y-56602380D01*
X93964285Y-56745238D01*
X93869047Y-56840476D01*
X93773809Y-56888095D01*
X94773809Y-57507142D02*
X94821428Y-57554761D01*
X94773809Y-57602380D01*
X94726190Y-57554761D01*
X94773809Y-57507142D01*
X94773809Y-57602380D01*
X95154761Y-56602380D02*
X95821428Y-56602380D01*
X95392857Y-57602380D01*
X96678571Y-56602380D02*
X96202380Y-56602380D01*
X96154761Y-57078571D01*
X96202380Y-57030952D01*
X96297619Y-56983333D01*
X96535714Y-56983333D01*
X96630952Y-57030952D01*
X96678571Y-57078571D01*
X96726190Y-57173809D01*
X96726190Y-57411904D01*
X96678571Y-57507142D01*
X96630952Y-57554761D01*
X96535714Y-57602380D01*
X96297619Y-57602380D01*
X96202380Y-57554761D01*
X96154761Y-57507142D01*
X94345238Y-38552380D02*
X93773809Y-38552380D01*
X94059523Y-38552380D02*
X94059523Y-37552380D01*
X93964285Y-37695238D01*
X93869047Y-37790476D01*
X93773809Y-37838095D01*
X94773809Y-38457142D02*
X94821428Y-38504761D01*
X94773809Y-38552380D01*
X94726190Y-38504761D01*
X94773809Y-38457142D01*
X94773809Y-38552380D01*
X95154761Y-37552380D02*
X95821428Y-37552380D01*
X95392857Y-38552380D01*
X96107142Y-37552380D02*
X96773809Y-37552380D01*
X96345238Y-38552380D01*
X94345238Y-19502380D02*
X93773809Y-19502380D01*
X94059523Y-19502380D02*
X94059523Y-18502380D01*
X93964285Y-18645238D01*
X93869047Y-18740476D01*
X93773809Y-18788095D01*
X94773809Y-19407142D02*
X94821428Y-19454761D01*
X94773809Y-19502380D01*
X94726190Y-19454761D01*
X94773809Y-19407142D01*
X94773809Y-19502380D01*
X95154761Y-18502380D02*
X95821428Y-18502380D01*
X95392857Y-19502380D01*
X96250000Y-19502380D02*
X96440476Y-19502380D01*
X96535714Y-19454761D01*
X96583333Y-19407142D01*
X96678571Y-19264285D01*
X96726190Y-19073809D01*
X96726190Y-18692857D01*
X96678571Y-18597619D01*
X96630952Y-18550000D01*
X96535714Y-18502380D01*
X96345238Y-18502380D01*
X96250000Y-18550000D01*
X96202380Y-18597619D01*
X96154761Y-18692857D01*
X96154761Y-18930952D01*
X96202380Y-19026190D01*
X96250000Y-19073809D01*
X96345238Y-19121428D01*
X96535714Y-19121428D01*
X96630952Y-19073809D01*
X96678571Y-19026190D01*
X96726190Y-18930952D01*
X37671428Y-95702380D02*
X37100000Y-95702380D01*
X37385714Y-95702380D02*
X37385714Y-94702380D01*
X37290476Y-94845238D01*
X37195238Y-94940476D01*
X37100000Y-94988095D01*
X38100000Y-95607142D02*
X38147619Y-95654761D01*
X38100000Y-95702380D01*
X38052380Y-95654761D01*
X38100000Y-95607142D01*
X38100000Y-95702380D01*
X39052380Y-94702380D02*
X38576190Y-94702380D01*
X38528571Y-95178571D01*
X38576190Y-95130952D01*
X38671428Y-95083333D01*
X38909523Y-95083333D01*
X39004761Y-95130952D01*
X39052380Y-95178571D01*
X39100000Y-95273809D01*
X39100000Y-95511904D01*
X39052380Y-95607142D01*
X39004761Y-95654761D01*
X38909523Y-95702380D01*
X38671428Y-95702380D01*
X38576190Y-95654761D01*
X38528571Y-95607142D01*
X37195238Y-76652380D02*
X36623809Y-76652380D01*
X36909523Y-76652380D02*
X36909523Y-75652380D01*
X36814285Y-75795238D01*
X36719047Y-75890476D01*
X36623809Y-75938095D01*
X37623809Y-76557142D02*
X37671428Y-76604761D01*
X37623809Y-76652380D01*
X37576190Y-76604761D01*
X37623809Y-76557142D01*
X37623809Y-76652380D01*
X38528571Y-75652380D02*
X38338095Y-75652380D01*
X38242857Y-75700000D01*
X38195238Y-75747619D01*
X38100000Y-75890476D01*
X38052380Y-76080952D01*
X38052380Y-76461904D01*
X38100000Y-76557142D01*
X38147619Y-76604761D01*
X38242857Y-76652380D01*
X38433333Y-76652380D01*
X38528571Y-76604761D01*
X38576190Y-76557142D01*
X38623809Y-76461904D01*
X38623809Y-76223809D01*
X38576190Y-76128571D01*
X38528571Y-76080952D01*
X38433333Y-76033333D01*
X38242857Y-76033333D01*
X38147619Y-76080952D01*
X38100000Y-76128571D01*
X38052380Y-76223809D01*
X39004761Y-75747619D02*
X39052380Y-75700000D01*
X39147619Y-75652380D01*
X39385714Y-75652380D01*
X39480952Y-75700000D01*
X39528571Y-75747619D01*
X39576190Y-75842857D01*
X39576190Y-75938095D01*
X39528571Y-76080952D01*
X38957142Y-76652380D01*
X39576190Y-76652380D01*
X37195238Y-57602380D02*
X36623809Y-57602380D01*
X36909523Y-57602380D02*
X36909523Y-56602380D01*
X36814285Y-56745238D01*
X36719047Y-56840476D01*
X36623809Y-56888095D01*
X37623809Y-57507142D02*
X37671428Y-57554761D01*
X37623809Y-57602380D01*
X37576190Y-57554761D01*
X37623809Y-57507142D01*
X37623809Y-57602380D01*
X38528571Y-56602380D02*
X38338095Y-56602380D01*
X38242857Y-56650000D01*
X38195238Y-56697619D01*
X38100000Y-56840476D01*
X38052380Y-57030952D01*
X38052380Y-57411904D01*
X38100000Y-57507142D01*
X38147619Y-57554761D01*
X38242857Y-57602380D01*
X38433333Y-57602380D01*
X38528571Y-57554761D01*
X38576190Y-57507142D01*
X38623809Y-57411904D01*
X38623809Y-57173809D01*
X38576190Y-57078571D01*
X38528571Y-57030952D01*
X38433333Y-56983333D01*
X38242857Y-56983333D01*
X38147619Y-57030952D01*
X38100000Y-57078571D01*
X38052380Y-57173809D01*
X39480952Y-56602380D02*
X39290476Y-56602380D01*
X39195238Y-56650000D01*
X39147619Y-56697619D01*
X39052380Y-56840476D01*
X39004761Y-57030952D01*
X39004761Y-57411904D01*
X39052380Y-57507142D01*
X39100000Y-57554761D01*
X39195238Y-57602380D01*
X39385714Y-57602380D01*
X39480952Y-57554761D01*
X39528571Y-57507142D01*
X39576190Y-57411904D01*
X39576190Y-57173809D01*
X39528571Y-57078571D01*
X39480952Y-57030952D01*
X39385714Y-56983333D01*
X39195238Y-56983333D01*
X39100000Y-57030952D01*
X39052380Y-57078571D01*
X39004761Y-57173809D01*
X37671428Y-38552380D02*
X37100000Y-38552380D01*
X37385714Y-38552380D02*
X37385714Y-37552380D01*
X37290476Y-37695238D01*
X37195238Y-37790476D01*
X37100000Y-37838095D01*
X38100000Y-38457142D02*
X38147619Y-38504761D01*
X38100000Y-38552380D01*
X38052380Y-38504761D01*
X38100000Y-38457142D01*
X38100000Y-38552380D01*
X38480952Y-37552380D02*
X39147619Y-37552380D01*
X38719047Y-38552380D01*
X37195238Y-19502380D02*
X36623809Y-19502380D01*
X36909523Y-19502380D02*
X36909523Y-18502380D01*
X36814285Y-18645238D01*
X36719047Y-18740476D01*
X36623809Y-18788095D01*
X37623809Y-19407142D02*
X37671428Y-19454761D01*
X37623809Y-19502380D01*
X37576190Y-19454761D01*
X37623809Y-19407142D01*
X37623809Y-19502380D01*
X38004761Y-18502380D02*
X38671428Y-18502380D01*
X38242857Y-19502380D01*
X39480952Y-18835714D02*
X39480952Y-19502380D01*
X39242857Y-18454761D02*
X39004761Y-19169047D01*
X39623809Y-19169047D01*
X94345238Y-86177380D02*
X93773809Y-86177380D01*
X94059523Y-86177380D02*
X94059523Y-85177380D01*
X93964285Y-85320238D01*
X93869047Y-85415476D01*
X93773809Y-85463095D01*
X94773809Y-86082142D02*
X94821428Y-86129761D01*
X94773809Y-86177380D01*
X94726190Y-86129761D01*
X94773809Y-86082142D01*
X94773809Y-86177380D01*
X95154761Y-85177380D02*
X95821428Y-85177380D01*
X95392857Y-86177380D01*
X96154761Y-85272619D02*
X96202380Y-85225000D01*
X96297619Y-85177380D01*
X96535714Y-85177380D01*
X96630952Y-85225000D01*
X96678571Y-85272619D01*
X96726190Y-85367857D01*
X96726190Y-85463095D01*
X96678571Y-85605952D01*
X96107142Y-86177380D01*
X96726190Y-86177380D01*
X94345238Y-67127380D02*
X93773809Y-67127380D01*
X94059523Y-67127380D02*
X94059523Y-66127380D01*
X93964285Y-66270238D01*
X93869047Y-66365476D01*
X93773809Y-66413095D01*
X94773809Y-67032142D02*
X94821428Y-67079761D01*
X94773809Y-67127380D01*
X94726190Y-67079761D01*
X94773809Y-67032142D01*
X94773809Y-67127380D01*
X95154761Y-66127380D02*
X95821428Y-66127380D01*
X95392857Y-67127380D01*
X96630952Y-66460714D02*
X96630952Y-67127380D01*
X96392857Y-66079761D02*
X96154761Y-66794047D01*
X96773809Y-66794047D01*
X94345238Y-48077380D02*
X93773809Y-48077380D01*
X94059523Y-48077380D02*
X94059523Y-47077380D01*
X93964285Y-47220238D01*
X93869047Y-47315476D01*
X93773809Y-47363095D01*
X94773809Y-47982142D02*
X94821428Y-48029761D01*
X94773809Y-48077380D01*
X94726190Y-48029761D01*
X94773809Y-47982142D01*
X94773809Y-48077380D01*
X95154761Y-47077380D02*
X95821428Y-47077380D01*
X95392857Y-48077380D01*
X96630952Y-47077380D02*
X96440476Y-47077380D01*
X96345238Y-47125000D01*
X96297619Y-47172619D01*
X96202380Y-47315476D01*
X96154761Y-47505952D01*
X96154761Y-47886904D01*
X96202380Y-47982142D01*
X96250000Y-48029761D01*
X96345238Y-48077380D01*
X96535714Y-48077380D01*
X96630952Y-48029761D01*
X96678571Y-47982142D01*
X96726190Y-47886904D01*
X96726190Y-47648809D01*
X96678571Y-47553571D01*
X96630952Y-47505952D01*
X96535714Y-47458333D01*
X96345238Y-47458333D01*
X96250000Y-47505952D01*
X96202380Y-47553571D01*
X96154761Y-47648809D01*
X94345238Y-29027380D02*
X93773809Y-29027380D01*
X94059523Y-29027380D02*
X94059523Y-28027380D01*
X93964285Y-28170238D01*
X93869047Y-28265476D01*
X93773809Y-28313095D01*
X94773809Y-28932142D02*
X94821428Y-28979761D01*
X94773809Y-29027380D01*
X94726190Y-28979761D01*
X94773809Y-28932142D01*
X94773809Y-29027380D01*
X95154761Y-28027380D02*
X95821428Y-28027380D01*
X95392857Y-29027380D01*
X96345238Y-28455952D02*
X96250000Y-28408333D01*
X96202380Y-28360714D01*
X96154761Y-28265476D01*
X96154761Y-28217857D01*
X96202380Y-28122619D01*
X96250000Y-28075000D01*
X96345238Y-28027380D01*
X96535714Y-28027380D01*
X96630952Y-28075000D01*
X96678571Y-28122619D01*
X96726190Y-28217857D01*
X96726190Y-28265476D01*
X96678571Y-28360714D01*
X96630952Y-28408333D01*
X96535714Y-28455952D01*
X96345238Y-28455952D01*
X96250000Y-28503571D01*
X96202380Y-28551190D01*
X96154761Y-28646428D01*
X96154761Y-28836904D01*
X96202380Y-28932142D01*
X96250000Y-28979761D01*
X96345238Y-29027380D01*
X96535714Y-29027380D01*
X96630952Y-28979761D01*
X96678571Y-28932142D01*
X96726190Y-28836904D01*
X96726190Y-28646428D01*
X96678571Y-28551190D01*
X96630952Y-28503571D01*
X96535714Y-28455952D01*
X94821428Y-9977380D02*
X94250000Y-9977380D01*
X94535714Y-9977380D02*
X94535714Y-8977380D01*
X94440476Y-9120238D01*
X94345238Y-9215476D01*
X94250000Y-9263095D01*
X95250000Y-9882142D02*
X95297619Y-9929761D01*
X95250000Y-9977380D01*
X95202380Y-9929761D01*
X95250000Y-9882142D01*
X95250000Y-9977380D01*
X95869047Y-9405952D02*
X95773809Y-9358333D01*
X95726190Y-9310714D01*
X95678571Y-9215476D01*
X95678571Y-9167857D01*
X95726190Y-9072619D01*
X95773809Y-9025000D01*
X95869047Y-8977380D01*
X96059523Y-8977380D01*
X96154761Y-9025000D01*
X96202380Y-9072619D01*
X96250000Y-9167857D01*
X96250000Y-9215476D01*
X96202380Y-9310714D01*
X96154761Y-9358333D01*
X96059523Y-9405952D01*
X95869047Y-9405952D01*
X95773809Y-9453571D01*
X95726190Y-9501190D01*
X95678571Y-9596428D01*
X95678571Y-9786904D01*
X95726190Y-9882142D01*
X95773809Y-9929761D01*
X95869047Y-9977380D01*
X96059523Y-9977380D01*
X96154761Y-9929761D01*
X96202380Y-9882142D01*
X96250000Y-9786904D01*
X96250000Y-9596428D01*
X96202380Y-9501190D01*
X96154761Y-9453571D01*
X96059523Y-9405952D01*
X37671428Y-86177380D02*
X37100000Y-86177380D01*
X37385714Y-86177380D02*
X37385714Y-85177380D01*
X37290476Y-85320238D01*
X37195238Y-85415476D01*
X37100000Y-85463095D01*
X38100000Y-86082142D02*
X38147619Y-86129761D01*
X38100000Y-86177380D01*
X38052380Y-86129761D01*
X38100000Y-86082142D01*
X38100000Y-86177380D01*
X39004761Y-85177380D02*
X38814285Y-85177380D01*
X38719047Y-85225000D01*
X38671428Y-85272619D01*
X38576190Y-85415476D01*
X38528571Y-85605952D01*
X38528571Y-85986904D01*
X38576190Y-86082142D01*
X38623809Y-86129761D01*
X38719047Y-86177380D01*
X38909523Y-86177380D01*
X39004761Y-86129761D01*
X39052380Y-86082142D01*
X39100000Y-85986904D01*
X39100000Y-85748809D01*
X39052380Y-85653571D01*
X39004761Y-85605952D01*
X38909523Y-85558333D01*
X38719047Y-85558333D01*
X38623809Y-85605952D01*
X38576190Y-85653571D01*
X38528571Y-85748809D01*
X37195238Y-67127380D02*
X36623809Y-67127380D01*
X36909523Y-67127380D02*
X36909523Y-66127380D01*
X36814285Y-66270238D01*
X36719047Y-66365476D01*
X36623809Y-66413095D01*
X37623809Y-67032142D02*
X37671428Y-67079761D01*
X37623809Y-67127380D01*
X37576190Y-67079761D01*
X37623809Y-67032142D01*
X37623809Y-67127380D01*
X38528571Y-66127380D02*
X38338095Y-66127380D01*
X38242857Y-66175000D01*
X38195238Y-66222619D01*
X38100000Y-66365476D01*
X38052380Y-66555952D01*
X38052380Y-66936904D01*
X38100000Y-67032142D01*
X38147619Y-67079761D01*
X38242857Y-67127380D01*
X38433333Y-67127380D01*
X38528571Y-67079761D01*
X38576190Y-67032142D01*
X38623809Y-66936904D01*
X38623809Y-66698809D01*
X38576190Y-66603571D01*
X38528571Y-66555952D01*
X38433333Y-66508333D01*
X38242857Y-66508333D01*
X38147619Y-66555952D01*
X38100000Y-66603571D01*
X38052380Y-66698809D01*
X39480952Y-66460714D02*
X39480952Y-67127380D01*
X39242857Y-66079761D02*
X39004761Y-66794047D01*
X39623809Y-66794047D01*
X37195238Y-48077380D02*
X36623809Y-48077380D01*
X36909523Y-48077380D02*
X36909523Y-47077380D01*
X36814285Y-47220238D01*
X36719047Y-47315476D01*
X36623809Y-47363095D01*
X37623809Y-47982142D02*
X37671428Y-48029761D01*
X37623809Y-48077380D01*
X37576190Y-48029761D01*
X37623809Y-47982142D01*
X37623809Y-48077380D01*
X38528571Y-47077380D02*
X38338095Y-47077380D01*
X38242857Y-47125000D01*
X38195238Y-47172619D01*
X38100000Y-47315476D01*
X38052380Y-47505952D01*
X38052380Y-47886904D01*
X38100000Y-47982142D01*
X38147619Y-48029761D01*
X38242857Y-48077380D01*
X38433333Y-48077380D01*
X38528571Y-48029761D01*
X38576190Y-47982142D01*
X38623809Y-47886904D01*
X38623809Y-47648809D01*
X38576190Y-47553571D01*
X38528571Y-47505952D01*
X38433333Y-47458333D01*
X38242857Y-47458333D01*
X38147619Y-47505952D01*
X38100000Y-47553571D01*
X38052380Y-47648809D01*
X39195238Y-47505952D02*
X39100000Y-47458333D01*
X39052380Y-47410714D01*
X39004761Y-47315476D01*
X39004761Y-47267857D01*
X39052380Y-47172619D01*
X39100000Y-47125000D01*
X39195238Y-47077380D01*
X39385714Y-47077380D01*
X39480952Y-47125000D01*
X39528571Y-47172619D01*
X39576190Y-47267857D01*
X39576190Y-47315476D01*
X39528571Y-47410714D01*
X39480952Y-47458333D01*
X39385714Y-47505952D01*
X39195238Y-47505952D01*
X39100000Y-47553571D01*
X39052380Y-47601190D01*
X39004761Y-47696428D01*
X39004761Y-47886904D01*
X39052380Y-47982142D01*
X39100000Y-48029761D01*
X39195238Y-48077380D01*
X39385714Y-48077380D01*
X39480952Y-48029761D01*
X39528571Y-47982142D01*
X39576190Y-47886904D01*
X39576190Y-47696428D01*
X39528571Y-47601190D01*
X39480952Y-47553571D01*
X39385714Y-47505952D01*
X37195238Y-29027380D02*
X36623809Y-29027380D01*
X36909523Y-29027380D02*
X36909523Y-28027380D01*
X36814285Y-28170238D01*
X36719047Y-28265476D01*
X36623809Y-28313095D01*
X37623809Y-28932142D02*
X37671428Y-28979761D01*
X37623809Y-29027380D01*
X37576190Y-28979761D01*
X37623809Y-28932142D01*
X37623809Y-29027380D01*
X38004761Y-28027380D02*
X38671428Y-28027380D01*
X38242857Y-29027380D01*
X39004761Y-28122619D02*
X39052380Y-28075000D01*
X39147619Y-28027380D01*
X39385714Y-28027380D01*
X39480952Y-28075000D01*
X39528571Y-28122619D01*
X39576190Y-28217857D01*
X39576190Y-28313095D01*
X39528571Y-28455952D01*
X38957142Y-29027380D01*
X39576190Y-29027380D01*
X37195238Y-9977380D02*
X36623809Y-9977380D01*
X36909523Y-9977380D02*
X36909523Y-8977380D01*
X36814285Y-9120238D01*
X36719047Y-9215476D01*
X36623809Y-9263095D01*
X37623809Y-9882142D02*
X37671428Y-9929761D01*
X37623809Y-9977380D01*
X37576190Y-9929761D01*
X37623809Y-9882142D01*
X37623809Y-9977380D01*
X38004761Y-8977380D02*
X38671428Y-8977380D01*
X38242857Y-9977380D01*
X39480952Y-8977380D02*
X39290476Y-8977380D01*
X39195238Y-9025000D01*
X39147619Y-9072619D01*
X39052380Y-9215476D01*
X39004761Y-9405952D01*
X39004761Y-9786904D01*
X39052380Y-9882142D01*
X39100000Y-9929761D01*
X39195238Y-9977380D01*
X39385714Y-9977380D01*
X39480952Y-9929761D01*
X39528571Y-9882142D01*
X39576190Y-9786904D01*
X39576190Y-9548809D01*
X39528571Y-9453571D01*
X39480952Y-9405952D01*
X39385714Y-9358333D01*
X39195238Y-9358333D01*
X39100000Y-9405952D01*
X39052380Y-9453571D01*
X39004761Y-9548809D01*
D11*
X48625000Y-94340000D02*
X45740000Y-94340000D01*
X45740000Y-94340000D02*
X45740000Y-96160000D01*
X45740000Y-96160000D02*
X48625000Y-96160000D01*
X46715000Y-64790000D02*
X46715000Y-67675000D01*
X48535000Y-64790000D02*
X46715000Y-64790000D01*
X48535000Y-67675000D02*
X48535000Y-64790000D01*
X48625000Y-56240000D02*
X45740000Y-56240000D01*
X45740000Y-56240000D02*
X45740000Y-58060000D01*
X45740000Y-58060000D02*
X48625000Y-58060000D01*
X45740000Y-39010000D02*
X48625000Y-39010000D01*
X45740000Y-37190000D02*
X45740000Y-39010000D01*
X48625000Y-37190000D02*
X45740000Y-37190000D01*
X48625000Y-18140000D02*
X45740000Y-18140000D01*
X45740000Y-18140000D02*
X45740000Y-19960000D01*
X45740000Y-19960000D02*
X48625000Y-19960000D01*
X46715000Y-83840000D02*
X46715000Y-86725000D01*
X48535000Y-83840000D02*
X46715000Y-83840000D01*
X48535000Y-86725000D02*
X48535000Y-83840000D01*
X48625000Y-75290000D02*
X45740000Y-75290000D01*
X45740000Y-75290000D02*
X45740000Y-77110000D01*
X45740000Y-77110000D02*
X48625000Y-77110000D01*
X46715000Y-45740000D02*
X46715000Y-48625000D01*
X48535000Y-45740000D02*
X46715000Y-45740000D01*
X48535000Y-48625000D02*
X48535000Y-45740000D01*
X48535000Y-29575000D02*
X48535000Y-26690000D01*
X48535000Y-26690000D02*
X46715000Y-26690000D01*
X46715000Y-26690000D02*
X46715000Y-29575000D01*
X46715000Y-7640000D02*
X46715000Y-10525000D01*
X48535000Y-7640000D02*
X46715000Y-7640000D01*
X48535000Y-10525000D02*
X48535000Y-7640000D01*
D12*
X26333333Y-1904761D02*
X25952380Y-1904761D01*
X25761904Y-2000000D01*
X25666666Y-2095238D01*
X25476190Y-2380952D01*
X25380952Y-2761904D01*
X25380952Y-3523809D01*
X25476190Y-3714285D01*
X25571428Y-3809523D01*
X25761904Y-3904761D01*
X26142857Y-3904761D01*
X26333333Y-3809523D01*
X26428571Y-3714285D01*
X26523809Y-3523809D01*
X26523809Y-3047619D01*
X26428571Y-2857142D01*
X26333333Y-2761904D01*
X26142857Y-2666666D01*
X25761904Y-2666666D01*
X25571428Y-2761904D01*
X25476190Y-2857142D01*
X25380952Y-3047619D01*
X27380952Y-1904761D02*
X27380952Y-3523809D01*
X27476190Y-3714285D01*
X27571428Y-3809523D01*
X27761904Y-3904761D01*
X28142857Y-3904761D01*
X28333333Y-3809523D01*
X28428571Y-3714285D01*
X28523809Y-3523809D01*
X28523809Y-1904761D01*
X19333333Y-86154761D02*
X18952380Y-86154761D01*
X18761904Y-86250000D01*
X18666666Y-86345238D01*
X18476190Y-86630952D01*
X18380952Y-87011904D01*
X18380952Y-87773809D01*
X18476190Y-87964285D01*
X18571428Y-88059523D01*
X18761904Y-88154761D01*
X19142857Y-88154761D01*
X19333333Y-88059523D01*
X19428571Y-87964285D01*
X19523809Y-87773809D01*
X19523809Y-87297619D01*
X19428571Y-87107142D01*
X19333333Y-87011904D01*
X19142857Y-86916666D01*
X18761904Y-86916666D01*
X18571428Y-87011904D01*
X18476190Y-87107142D01*
X18380952Y-87297619D01*
X20380952Y-86154761D02*
X20380952Y-87773809D01*
X20476190Y-87964285D01*
X20571428Y-88059523D01*
X20761904Y-88154761D01*
X21142857Y-88154761D01*
X21333333Y-88059523D01*
X21428571Y-87964285D01*
X21523809Y-87773809D01*
X21523809Y-86154761D01*
X19333333Y-76629761D02*
X18952380Y-76629761D01*
X18761904Y-76725000D01*
X18666666Y-76820238D01*
X18476190Y-77105952D01*
X18380952Y-77486904D01*
X18380952Y-78248809D01*
X18476190Y-78439285D01*
X18571428Y-78534523D01*
X18761904Y-78629761D01*
X19142857Y-78629761D01*
X19333333Y-78534523D01*
X19428571Y-78439285D01*
X19523809Y-78248809D01*
X19523809Y-77772619D01*
X19428571Y-77582142D01*
X19333333Y-77486904D01*
X19142857Y-77391666D01*
X18761904Y-77391666D01*
X18571428Y-77486904D01*
X18476190Y-77582142D01*
X18380952Y-77772619D01*
X20380952Y-76629761D02*
X20380952Y-78248809D01*
X20476190Y-78439285D01*
X20571428Y-78534523D01*
X20761904Y-78629761D01*
X21142857Y-78629761D01*
X21333333Y-78534523D01*
X21428571Y-78439285D01*
X21523809Y-78248809D01*
X21523809Y-76629761D01*
X19333333Y-67104761D02*
X18952380Y-67104761D01*
X18761904Y-67200000D01*
X18666666Y-67295238D01*
X18476190Y-67580952D01*
X18380952Y-67961904D01*
X18380952Y-68723809D01*
X18476190Y-68914285D01*
X18571428Y-69009523D01*
X18761904Y-69104761D01*
X19142857Y-69104761D01*
X19333333Y-69009523D01*
X19428571Y-68914285D01*
X19523809Y-68723809D01*
X19523809Y-68247619D01*
X19428571Y-68057142D01*
X19333333Y-67961904D01*
X19142857Y-67866666D01*
X18761904Y-67866666D01*
X18571428Y-67961904D01*
X18476190Y-68057142D01*
X18380952Y-68247619D01*
X20380952Y-67104761D02*
X20380952Y-68723809D01*
X20476190Y-68914285D01*
X20571428Y-69009523D01*
X20761904Y-69104761D01*
X21142857Y-69104761D01*
X21333333Y-69009523D01*
X21428571Y-68914285D01*
X21523809Y-68723809D01*
X21523809Y-67104761D01*
X19333333Y-57579761D02*
X18952380Y-57579761D01*
X18761904Y-57675000D01*
X18666666Y-57770238D01*
X18476190Y-58055952D01*
X18380952Y-58436904D01*
X18380952Y-59198809D01*
X18476190Y-59389285D01*
X18571428Y-59484523D01*
X18761904Y-59579761D01*
X19142857Y-59579761D01*
X19333333Y-59484523D01*
X19428571Y-59389285D01*
X19523809Y-59198809D01*
X19523809Y-58722619D01*
X19428571Y-58532142D01*
X19333333Y-58436904D01*
X19142857Y-58341666D01*
X18761904Y-58341666D01*
X18571428Y-58436904D01*
X18476190Y-58532142D01*
X18380952Y-58722619D01*
X20380952Y-57579761D02*
X20380952Y-59198809D01*
X20476190Y-59389285D01*
X20571428Y-59484523D01*
X20761904Y-59579761D01*
X21142857Y-59579761D01*
X21333333Y-59484523D01*
X21428571Y-59389285D01*
X21523809Y-59198809D01*
X21523809Y-57579761D01*
X19333333Y-48054761D02*
X18952380Y-48054761D01*
X18761904Y-48150000D01*
X18666666Y-48245238D01*
X18476190Y-48530952D01*
X18380952Y-48911904D01*
X18380952Y-49673809D01*
X18476190Y-49864285D01*
X18571428Y-49959523D01*
X18761904Y-50054761D01*
X19142857Y-50054761D01*
X19333333Y-49959523D01*
X19428571Y-49864285D01*
X19523809Y-49673809D01*
X19523809Y-49197619D01*
X19428571Y-49007142D01*
X19333333Y-48911904D01*
X19142857Y-48816666D01*
X18761904Y-48816666D01*
X18571428Y-48911904D01*
X18476190Y-49007142D01*
X18380952Y-49197619D01*
X20380952Y-48054761D02*
X20380952Y-49673809D01*
X20476190Y-49864285D01*
X20571428Y-49959523D01*
X20761904Y-50054761D01*
X21142857Y-50054761D01*
X21333333Y-49959523D01*
X21428571Y-49864285D01*
X21523809Y-49673809D01*
X21523809Y-48054761D01*
X19333333Y-38529761D02*
X18952380Y-38529761D01*
X18761904Y-38625000D01*
X18666666Y-38720238D01*
X18476190Y-39005952D01*
X18380952Y-39386904D01*
X18380952Y-40148809D01*
X18476190Y-40339285D01*
X18571428Y-40434523D01*
X18761904Y-40529761D01*
X19142857Y-40529761D01*
X19333333Y-40434523D01*
X19428571Y-40339285D01*
X19523809Y-40148809D01*
X19523809Y-39672619D01*
X19428571Y-39482142D01*
X19333333Y-39386904D01*
X19142857Y-39291666D01*
X18761904Y-39291666D01*
X18571428Y-39386904D01*
X18476190Y-39482142D01*
X18380952Y-39672619D01*
X20380952Y-38529761D02*
X20380952Y-40148809D01*
X20476190Y-40339285D01*
X20571428Y-40434523D01*
X20761904Y-40529761D01*
X21142857Y-40529761D01*
X21333333Y-40434523D01*
X21428571Y-40339285D01*
X21523809Y-40148809D01*
X21523809Y-38529761D01*
X19333333Y-29004761D02*
X18952380Y-29004761D01*
X18761904Y-29100000D01*
X18666666Y-29195238D01*
X18476190Y-29480952D01*
X18380952Y-29861904D01*
X18380952Y-30623809D01*
X18476190Y-30814285D01*
X18571428Y-30909523D01*
X18761904Y-31004761D01*
X19142857Y-31004761D01*
X19333333Y-30909523D01*
X19428571Y-30814285D01*
X19523809Y-30623809D01*
X19523809Y-30147619D01*
X19428571Y-29957142D01*
X19333333Y-29861904D01*
X19142857Y-29766666D01*
X18761904Y-29766666D01*
X18571428Y-29861904D01*
X18476190Y-29957142D01*
X18380952Y-30147619D01*
X20380952Y-29004761D02*
X20380952Y-30623809D01*
X20476190Y-30814285D01*
X20571428Y-30909523D01*
X20761904Y-31004761D01*
X21142857Y-31004761D01*
X21333333Y-30909523D01*
X21428571Y-30814285D01*
X21523809Y-30623809D01*
X21523809Y-29004761D01*
X19333333Y-19479761D02*
X18952380Y-19479761D01*
X18761904Y-19575000D01*
X18666666Y-19670238D01*
X18476190Y-19955952D01*
X18380952Y-20336904D01*
X18380952Y-21098809D01*
X18476190Y-21289285D01*
X18571428Y-21384523D01*
X18761904Y-21479761D01*
X19142857Y-21479761D01*
X19333333Y-21384523D01*
X19428571Y-21289285D01*
X19523809Y-21098809D01*
X19523809Y-20622619D01*
X19428571Y-20432142D01*
X19333333Y-20336904D01*
X19142857Y-20241666D01*
X18761904Y-20241666D01*
X18571428Y-20336904D01*
X18476190Y-20432142D01*
X18380952Y-20622619D01*
X20380952Y-19479761D02*
X20380952Y-21098809D01*
X20476190Y-21289285D01*
X20571428Y-21384523D01*
X20761904Y-21479761D01*
X21142857Y-21479761D01*
X21333333Y-21384523D01*
X21428571Y-21289285D01*
X21523809Y-21098809D01*
X21523809Y-19479761D01*
X19333333Y-9954761D02*
X18952380Y-9954761D01*
X18761904Y-10050000D01*
X18666666Y-10145238D01*
X18476190Y-10430952D01*
X18380952Y-10811904D01*
X18380952Y-11573809D01*
X18476190Y-11764285D01*
X18571428Y-11859523D01*
X18761904Y-11954761D01*
X19142857Y-11954761D01*
X19333333Y-11859523D01*
X19428571Y-11764285D01*
X19523809Y-11573809D01*
X19523809Y-11097619D01*
X19428571Y-10907142D01*
X19333333Y-10811904D01*
X19142857Y-10716666D01*
X18761904Y-10716666D01*
X18571428Y-10811904D01*
X18476190Y-10907142D01*
X18380952Y-11097619D01*
X20380952Y-9954761D02*
X20380952Y-11573809D01*
X20476190Y-11764285D01*
X20571428Y-11859523D01*
X20761904Y-11954761D01*
X21142857Y-11954761D01*
X21333333Y-11859523D01*
X21428571Y-11764285D01*
X21523809Y-11573809D01*
X21523809Y-9954761D01*
D10*
X46625000Y-91547619D02*
X46672619Y-91500000D01*
X46767857Y-91452380D01*
X47005952Y-91452380D01*
X47101190Y-91500000D01*
X47148809Y-91547619D01*
X47196428Y-91642857D01*
X47196428Y-91738095D01*
X47148809Y-91880952D01*
X46577380Y-92452380D01*
X47196428Y-92452380D01*
X47625000Y-92357142D02*
X47672619Y-92404761D01*
X47625000Y-92452380D01*
X47577380Y-92404761D01*
X47625000Y-92357142D01*
X47625000Y-92452380D01*
X48577380Y-91452380D02*
X48101190Y-91452380D01*
X48053571Y-91928571D01*
X48101190Y-91880952D01*
X48196428Y-91833333D01*
X48434523Y-91833333D01*
X48529761Y-91880952D01*
X48577380Y-91928571D01*
X48625000Y-92023809D01*
X48625000Y-92261904D01*
X48577380Y-92357142D01*
X48529761Y-92404761D01*
X48434523Y-92452380D01*
X48196428Y-92452380D01*
X48101190Y-92404761D01*
X48053571Y-92357142D01*
X51172619Y-68151190D02*
X51125000Y-68103571D01*
X51077380Y-68008333D01*
X51077380Y-67770238D01*
X51125000Y-67675000D01*
X51172619Y-67627380D01*
X51267857Y-67579761D01*
X51363095Y-67579761D01*
X51505952Y-67627380D01*
X52077380Y-68198809D01*
X52077380Y-67579761D01*
X51982142Y-67151190D02*
X52029761Y-67103571D01*
X52077380Y-67151190D01*
X52029761Y-67198809D01*
X51982142Y-67151190D01*
X52077380Y-67151190D01*
X51077380Y-66198809D02*
X51077380Y-66675000D01*
X51553571Y-66722619D01*
X51505952Y-66675000D01*
X51458333Y-66579761D01*
X51458333Y-66341666D01*
X51505952Y-66246428D01*
X51553571Y-66198809D01*
X51648809Y-66151190D01*
X51886904Y-66151190D01*
X51982142Y-66198809D01*
X52029761Y-66246428D01*
X52077380Y-66341666D01*
X52077380Y-66579761D01*
X52029761Y-66675000D01*
X51982142Y-66722619D01*
X51077380Y-65294047D02*
X51077380Y-65484523D01*
X51125000Y-65579761D01*
X51172619Y-65627380D01*
X51315476Y-65722619D01*
X51505952Y-65770238D01*
X51886904Y-65770238D01*
X51982142Y-65722619D01*
X52029761Y-65675000D01*
X52077380Y-65579761D01*
X52077380Y-65389285D01*
X52029761Y-65294047D01*
X51982142Y-65246428D01*
X51886904Y-65198809D01*
X51648809Y-65198809D01*
X51553571Y-65246428D01*
X51505952Y-65294047D01*
X51458333Y-65389285D01*
X51458333Y-65579761D01*
X51505952Y-65675000D01*
X51553571Y-65722619D01*
X51648809Y-65770238D01*
X46148809Y-53547619D02*
X46196428Y-53500000D01*
X46291666Y-53452380D01*
X46529761Y-53452380D01*
X46625000Y-53500000D01*
X46672619Y-53547619D01*
X46720238Y-53642857D01*
X46720238Y-53738095D01*
X46672619Y-53880952D01*
X46101190Y-54452380D01*
X46720238Y-54452380D01*
X47148809Y-54357142D02*
X47196428Y-54404761D01*
X47148809Y-54452380D01*
X47101190Y-54404761D01*
X47148809Y-54357142D01*
X47148809Y-54452380D01*
X48101190Y-53452380D02*
X47625000Y-53452380D01*
X47577380Y-53928571D01*
X47625000Y-53880952D01*
X47720238Y-53833333D01*
X47958333Y-53833333D01*
X48053571Y-53880952D01*
X48101190Y-53928571D01*
X48148809Y-54023809D01*
X48148809Y-54261904D01*
X48101190Y-54357142D01*
X48053571Y-54404761D01*
X47958333Y-54452380D01*
X47720238Y-54452380D01*
X47625000Y-54404761D01*
X47577380Y-54357142D01*
X48720238Y-53880952D02*
X48625000Y-53833333D01*
X48577380Y-53785714D01*
X48529761Y-53690476D01*
X48529761Y-53642857D01*
X48577380Y-53547619D01*
X48625000Y-53500000D01*
X48720238Y-53452380D01*
X48910714Y-53452380D01*
X49005952Y-53500000D01*
X49053571Y-53547619D01*
X49101190Y-53642857D01*
X49101190Y-53690476D01*
X49053571Y-53785714D01*
X49005952Y-53833333D01*
X48910714Y-53880952D01*
X48720238Y-53880952D01*
X48625000Y-53928571D01*
X48577380Y-53976190D01*
X48529761Y-54071428D01*
X48529761Y-54261904D01*
X48577380Y-54357142D01*
X48625000Y-54404761D01*
X48720238Y-54452380D01*
X48910714Y-54452380D01*
X49005952Y-54404761D01*
X49053571Y-54357142D01*
X49101190Y-54261904D01*
X49101190Y-54071428D01*
X49053571Y-53976190D01*
X49005952Y-53928571D01*
X48910714Y-53880952D01*
X46148809Y-34547619D02*
X46196428Y-34500000D01*
X46291666Y-34452380D01*
X46529761Y-34452380D01*
X46625000Y-34500000D01*
X46672619Y-34547619D01*
X46720238Y-34642857D01*
X46720238Y-34738095D01*
X46672619Y-34880952D01*
X46101190Y-35452380D01*
X46720238Y-35452380D01*
X47148809Y-35357142D02*
X47196428Y-35404761D01*
X47148809Y-35452380D01*
X47101190Y-35404761D01*
X47148809Y-35357142D01*
X47148809Y-35452380D01*
X48053571Y-34452380D02*
X47863095Y-34452380D01*
X47767857Y-34500000D01*
X47720238Y-34547619D01*
X47625000Y-34690476D01*
X47577380Y-34880952D01*
X47577380Y-35261904D01*
X47625000Y-35357142D01*
X47672619Y-35404761D01*
X47767857Y-35452380D01*
X47958333Y-35452380D01*
X48053571Y-35404761D01*
X48101190Y-35357142D01*
X48148809Y-35261904D01*
X48148809Y-35023809D01*
X48101190Y-34928571D01*
X48053571Y-34880952D01*
X47958333Y-34833333D01*
X47767857Y-34833333D01*
X47672619Y-34880952D01*
X47625000Y-34928571D01*
X47577380Y-35023809D01*
X48529761Y-34547619D02*
X48577380Y-34500000D01*
X48672619Y-34452380D01*
X48910714Y-34452380D01*
X49005952Y-34500000D01*
X49053571Y-34547619D01*
X49101190Y-34642857D01*
X49101190Y-34738095D01*
X49053571Y-34880952D01*
X48482142Y-35452380D01*
X49101190Y-35452380D01*
X46148809Y-15547619D02*
X46196428Y-15500000D01*
X46291666Y-15452380D01*
X46529761Y-15452380D01*
X46625000Y-15500000D01*
X46672619Y-15547619D01*
X46720238Y-15642857D01*
X46720238Y-15738095D01*
X46672619Y-15880952D01*
X46101190Y-16452380D01*
X46720238Y-16452380D01*
X47148809Y-16357142D02*
X47196428Y-16404761D01*
X47148809Y-16452380D01*
X47101190Y-16404761D01*
X47148809Y-16357142D01*
X47148809Y-16452380D01*
X48053571Y-15452380D02*
X47863095Y-15452380D01*
X47767857Y-15500000D01*
X47720238Y-15547619D01*
X47625000Y-15690476D01*
X47577380Y-15880952D01*
X47577380Y-16261904D01*
X47625000Y-16357142D01*
X47672619Y-16404761D01*
X47767857Y-16452380D01*
X47958333Y-16452380D01*
X48053571Y-16404761D01*
X48101190Y-16357142D01*
X48148809Y-16261904D01*
X48148809Y-16023809D01*
X48101190Y-15928571D01*
X48053571Y-15880952D01*
X47958333Y-15833333D01*
X47767857Y-15833333D01*
X47672619Y-15880952D01*
X47625000Y-15928571D01*
X47577380Y-16023809D01*
X49005952Y-15452380D02*
X48815476Y-15452380D01*
X48720238Y-15500000D01*
X48672619Y-15547619D01*
X48577380Y-15690476D01*
X48529761Y-15880952D01*
X48529761Y-16261904D01*
X48577380Y-16357142D01*
X48625000Y-16404761D01*
X48720238Y-16452380D01*
X48910714Y-16452380D01*
X49005952Y-16404761D01*
X49053571Y-16357142D01*
X49101190Y-16261904D01*
X49101190Y-16023809D01*
X49053571Y-15928571D01*
X49005952Y-15880952D01*
X48910714Y-15833333D01*
X48720238Y-15833333D01*
X48625000Y-15880952D01*
X48577380Y-15928571D01*
X48529761Y-16023809D01*
X51172619Y-87201190D02*
X51125000Y-87153571D01*
X51077380Y-87058333D01*
X51077380Y-86820238D01*
X51125000Y-86725000D01*
X51172619Y-86677380D01*
X51267857Y-86629761D01*
X51363095Y-86629761D01*
X51505952Y-86677380D01*
X52077380Y-87248809D01*
X52077380Y-86629761D01*
X51982142Y-86201190D02*
X52029761Y-86153571D01*
X52077380Y-86201190D01*
X52029761Y-86248809D01*
X51982142Y-86201190D01*
X52077380Y-86201190D01*
X51077380Y-85248809D02*
X51077380Y-85725000D01*
X51553571Y-85772619D01*
X51505952Y-85725000D01*
X51458333Y-85629761D01*
X51458333Y-85391666D01*
X51505952Y-85296428D01*
X51553571Y-85248809D01*
X51648809Y-85201190D01*
X51886904Y-85201190D01*
X51982142Y-85248809D01*
X52029761Y-85296428D01*
X52077380Y-85391666D01*
X52077380Y-85629761D01*
X52029761Y-85725000D01*
X51982142Y-85772619D01*
X51172619Y-84820238D02*
X51125000Y-84772619D01*
X51077380Y-84677380D01*
X51077380Y-84439285D01*
X51125000Y-84344047D01*
X51172619Y-84296428D01*
X51267857Y-84248809D01*
X51363095Y-84248809D01*
X51505952Y-84296428D01*
X52077380Y-84867857D01*
X52077380Y-84248809D01*
X46148809Y-72547619D02*
X46196428Y-72500000D01*
X46291666Y-72452380D01*
X46529761Y-72452380D01*
X46625000Y-72500000D01*
X46672619Y-72547619D01*
X46720238Y-72642857D01*
X46720238Y-72738095D01*
X46672619Y-72880952D01*
X46101190Y-73452380D01*
X46720238Y-73452380D01*
X47148809Y-73357142D02*
X47196428Y-73404761D01*
X47148809Y-73452380D01*
X47101190Y-73404761D01*
X47148809Y-73357142D01*
X47148809Y-73452380D01*
X48101190Y-72452380D02*
X47625000Y-72452380D01*
X47577380Y-72928571D01*
X47625000Y-72880952D01*
X47720238Y-72833333D01*
X47958333Y-72833333D01*
X48053571Y-72880952D01*
X48101190Y-72928571D01*
X48148809Y-73023809D01*
X48148809Y-73261904D01*
X48101190Y-73357142D01*
X48053571Y-73404761D01*
X47958333Y-73452380D01*
X47720238Y-73452380D01*
X47625000Y-73404761D01*
X47577380Y-73357142D01*
X49005952Y-72785714D02*
X49005952Y-73452380D01*
X48767857Y-72404761D02*
X48529761Y-73119047D01*
X49148809Y-73119047D01*
X51172619Y-48625000D02*
X51125000Y-48577380D01*
X51077380Y-48482142D01*
X51077380Y-48244047D01*
X51125000Y-48148809D01*
X51172619Y-48101190D01*
X51267857Y-48053571D01*
X51363095Y-48053571D01*
X51505952Y-48101190D01*
X52077380Y-48672619D01*
X52077380Y-48053571D01*
X51982142Y-47625000D02*
X52029761Y-47577380D01*
X52077380Y-47625000D01*
X52029761Y-47672619D01*
X51982142Y-47625000D01*
X52077380Y-47625000D01*
X51077380Y-46720238D02*
X51077380Y-46910714D01*
X51125000Y-47005952D01*
X51172619Y-47053571D01*
X51315476Y-47148809D01*
X51505952Y-47196428D01*
X51886904Y-47196428D01*
X51982142Y-47148809D01*
X52029761Y-47101190D01*
X52077380Y-47005952D01*
X52077380Y-46815476D01*
X52029761Y-46720238D01*
X51982142Y-46672619D01*
X51886904Y-46625000D01*
X51648809Y-46625000D01*
X51553571Y-46672619D01*
X51505952Y-46720238D01*
X51458333Y-46815476D01*
X51458333Y-47005952D01*
X51505952Y-47101190D01*
X51553571Y-47148809D01*
X51648809Y-47196428D01*
X51172619Y-30051190D02*
X51125000Y-30003571D01*
X51077380Y-29908333D01*
X51077380Y-29670238D01*
X51125000Y-29575000D01*
X51172619Y-29527380D01*
X51267857Y-29479761D01*
X51363095Y-29479761D01*
X51505952Y-29527380D01*
X52077380Y-30098809D01*
X52077380Y-29479761D01*
X51982142Y-29051190D02*
X52029761Y-29003571D01*
X52077380Y-29051190D01*
X52029761Y-29098809D01*
X51982142Y-29051190D01*
X52077380Y-29051190D01*
X51077380Y-28146428D02*
X51077380Y-28336904D01*
X51125000Y-28432142D01*
X51172619Y-28479761D01*
X51315476Y-28575000D01*
X51505952Y-28622619D01*
X51886904Y-28622619D01*
X51982142Y-28575000D01*
X52029761Y-28527380D01*
X52077380Y-28432142D01*
X52077380Y-28241666D01*
X52029761Y-28146428D01*
X51982142Y-28098809D01*
X51886904Y-28051190D01*
X51648809Y-28051190D01*
X51553571Y-28098809D01*
X51505952Y-28146428D01*
X51458333Y-28241666D01*
X51458333Y-28432142D01*
X51505952Y-28527380D01*
X51553571Y-28575000D01*
X51648809Y-28622619D01*
X51410714Y-27194047D02*
X52077380Y-27194047D01*
X51029761Y-27432142D02*
X51744047Y-27670238D01*
X51744047Y-27051190D01*
X51172619Y-11001190D02*
X51125000Y-10953571D01*
X51077380Y-10858333D01*
X51077380Y-10620238D01*
X51125000Y-10525000D01*
X51172619Y-10477380D01*
X51267857Y-10429761D01*
X51363095Y-10429761D01*
X51505952Y-10477380D01*
X52077380Y-11048809D01*
X52077380Y-10429761D01*
X51982142Y-10001190D02*
X52029761Y-9953571D01*
X52077380Y-10001190D01*
X52029761Y-10048809D01*
X51982142Y-10001190D01*
X52077380Y-10001190D01*
X51077380Y-9096428D02*
X51077380Y-9286904D01*
X51125000Y-9382142D01*
X51172619Y-9429761D01*
X51315476Y-9525000D01*
X51505952Y-9572619D01*
X51886904Y-9572619D01*
X51982142Y-9525000D01*
X52029761Y-9477380D01*
X52077380Y-9382142D01*
X52077380Y-9191666D01*
X52029761Y-9096428D01*
X51982142Y-9048809D01*
X51886904Y-9001190D01*
X51648809Y-9001190D01*
X51553571Y-9048809D01*
X51505952Y-9096428D01*
X51458333Y-9191666D01*
X51458333Y-9382142D01*
X51505952Y-9477380D01*
X51553571Y-9525000D01*
X51648809Y-9572619D01*
X51505952Y-8429761D02*
X51458333Y-8525000D01*
X51410714Y-8572619D01*
X51315476Y-8620238D01*
X51267857Y-8620238D01*
X51172619Y-8572619D01*
X51125000Y-8525000D01*
X51077380Y-8429761D01*
X51077380Y-8239285D01*
X51125000Y-8144047D01*
X51172619Y-8096428D01*
X51267857Y-8048809D01*
X51315476Y-8048809D01*
X51410714Y-8096428D01*
X51458333Y-8144047D01*
X51505952Y-8239285D01*
X51505952Y-8429761D01*
X51553571Y-8525000D01*
X51601190Y-8572619D01*
X51696428Y-8620238D01*
X51886904Y-8620238D01*
X51982142Y-8572619D01*
X52029761Y-8525000D01*
X52077380Y-8429761D01*
X52077380Y-8239285D01*
X52029761Y-8144047D01*
X51982142Y-8096428D01*
X51886904Y-8048809D01*
X51696428Y-8048809D01*
X51601190Y-8096428D01*
X51553571Y-8144047D01*
X51505952Y-8239285D01*
M02*
