M48
; DRILL file {KiCad (5.1.4)-1} date 12/12/2019 3:40:59 AM
; FORMAT={-:-/ absolute / inch / decimal}
; #@! TF.CreationDate,2019-12-12T03:40:59-08:00
; #@! TF.GenerationSoftware,Kicad,Pcbnew,(5.1.4)-1
; #@! TF.FileFunction,Plated,1,2,PTH
FMAT,2
INCH
T1C0.0118
T2C0.0157
T3C0.0197
T4C0.0236
T5C0.0256
T6C0.0394
T7C0.0591
T8C0.1063
%
G90
G05
T1
X13.2283Y-4.6929
T2
X0.2047Y-0.7165
X0.248Y-0.9882
X0.6379Y-1.0077
X0.689Y-4.8583
X0.6929Y-1.7126
X0.6929Y-2.4646
X0.6929Y-3.2126
X0.6929Y-3.9646
X0.9673Y-4.6614
X0.9673Y-4.7034
X0.9685Y-1.1299
X1.0Y-1.1614
X1.0039Y-4.3898
X1.0079Y-4.6614
X1.0276Y-1.7126
X1.0394Y-3.9646
X1.0748Y-4.5079
X1.1024Y-0.7598
X1.1181Y-4.6181
X1.2126Y-2.4646
X1.3071Y-3.2126
X1.315Y-4.4567
X1.3228Y-4.5551
X1.6063Y-4.6575
X1.6102Y-4.5551
X1.6102Y-4.8386
X1.6575Y-2.7362
X2.0748Y-4.5551
X2.0787Y-4.6654
X2.0827Y-4.8465
X2.252Y-4.0787
X2.3543Y-4.126
X2.437Y-4.2362
X2.5394Y-4.5512
X2.5394Y-4.6614
X2.5394Y-4.8425
X2.9409Y-4.5551
X2.9409Y-4.6654
X2.9488Y-4.8465
X4.1378Y-3.9571
X4.3504Y-3.9284
X4.5709Y-4.5827
X4.5866Y-4.9449
X4.6063Y-4.5393
X4.6654Y-4.8898
X4.6811Y-4.9488
X4.7774Y-4.8329
X4.7953Y-4.8976
X4.8053Y-4.8049
X4.8307Y-4.9331
X4.8701Y-3.9291
X4.9096Y-3.9291
X4.9491Y-3.9291
X4.9882Y-3.2953
X4.9886Y-3.9291
X5.0276Y-1.7835
X5.1024Y-3.8543
X5.2244Y-2.5472
X5.2283Y-3.9291
X5.2283Y-4.1378
X5.2598Y-0.7717
X5.2717Y-3.9291
X5.2717Y-4.0512
X5.3268Y-4.0
X5.374Y-3.9528
X5.4843Y-3.9284
X5.5079Y-4.1378
X5.5591Y-3.9449
X5.6811Y-3.9409
X5.7244Y-3.9752
X5.9724Y-3.8504
X5.9724Y-3.9488
X6.3228Y-3.8465
X6.3228Y-3.9488
X6.7244Y-3.8425
X6.7244Y-3.9528
X6.9094Y-3.9932
X7.0394Y-3.8425
X7.0394Y-3.9488
X7.437Y-3.8386
X7.4409Y-3.9488
X7.6614Y-4.0112
X7.8543Y-3.8346
X7.8583Y-3.9488
X8.2205Y-3.8386
X8.2244Y-3.9449
X8.5906Y-3.8346
X8.5906Y-3.9488
X8.937Y-4.6555
X8.937Y-4.7736
X9.0276Y-3.8543
X9.0276Y-3.9449
X9.1614Y-4.8216
X9.4016Y-3.8543
X9.4016Y-3.9449
X9.4094Y-4.6555
X9.4094Y-4.7835
X9.6614Y-4.8396
X11.2087Y-4.0236
X11.2126Y-4.126
X11.3346Y-1.7165
X11.4528Y-4.2362
X11.4724Y-4.7974
X11.4961Y-4.3386
X11.5827Y-1.8386
X11.6181Y-4.7047
X11.6181Y-4.8268
X11.878Y-4.0315
X11.8819Y-4.1299
X12.1024Y-4.2402
X12.1063Y-4.3386
X12.2244Y-4.8756
X12.4291Y-1.878
X12.4331Y-4.7126
X12.437Y-4.8307
X12.685Y-2.9646
X12.7677Y-4.1535
X12.7953Y-1.4567
X12.8346Y-3.1142
X12.9724Y-4.8936
X13.1417Y-4.7008
X13.1417Y-4.8268
X13.1692Y-4.5157
X13.1692Y-4.8858
X13.2087Y-4.5157
X13.2087Y-4.8858
X13.3425Y-4.4488
X13.3701Y-3.2874
X13.5Y-4.6142
X13.5315Y-3.2874
X13.5394Y-4.2362
X13.5945Y-4.3386
X13.6417Y-4.8504
X13.6732Y-4.5118
X13.6957Y-3.3807
X13.7126Y-4.9213
X13.7795Y-4.5157
T3
X0.7835Y-1.0472
X0.9173Y-1.0472
X4.5197Y-4.2559
X4.66Y-4.5852
X4.7717Y-4.6969
X4.9528Y-4.8071
X5.0276Y-4.122
X5.252Y-4.5827
X12.5571Y-1.5709
X7.0453Y-5.1575
X7.0686Y-5.1011
X7.0686Y-5.2139
X7.125Y-5.0778
X7.125Y-5.2372
X7.1814Y-5.1011
X7.1814Y-5.2139
X7.2047Y-5.1575
X10.529Y-5.1575
X10.5524Y-5.1011
X10.5524Y-5.2139
X10.6088Y-5.0778
X10.6088Y-5.2372
X10.6651Y-5.1011
X10.6651Y-5.2139
X10.6885Y-5.1575
X3.5615Y-5.1575
X3.5849Y-5.1011
X3.5849Y-5.2139
X3.6412Y-5.0778
X3.6412Y-5.2372
X3.6976Y-5.1011
X3.6976Y-5.2139
X3.721Y-5.1575
X3.5615Y0.1575
X3.5849Y0.2139
X3.5849Y0.1011
X3.6412Y0.2372
X3.6412Y0.0778
X3.6976Y0.2139
X3.6976Y0.1011
X3.721Y0.1575
X0.0778Y0.1575
X0.1011Y0.2139
X0.1011Y0.1011
X0.1575Y0.2372
X0.1575Y0.0778
X0.2139Y0.2139
X0.2139Y0.1011
X0.2372Y0.1575
X10.529Y0.1575
X10.5524Y0.2139
X10.5524Y0.1011
X10.6088Y0.2372
X10.6088Y0.0778
X10.6651Y0.2139
X10.6651Y0.1011
X10.6885Y0.1575
X7.0453Y0.1575
X7.0686Y0.2139
X7.0686Y0.1011
X7.125Y0.2372
X7.125Y0.0778
X7.1814Y0.2139
X7.1814Y0.1011
X7.2047Y0.1575
X14.0128Y-5.1575
X14.0361Y-5.1011
X14.0361Y-5.2139
X14.0925Y-5.0778
X14.0925Y-5.2372
X14.1489Y-5.1011
X14.1489Y-5.2139
X14.1722Y-5.1575
X0.0778Y-5.1575
X0.1011Y-5.1011
X0.1011Y-5.2139
X0.1575Y-5.0778
X0.1575Y-5.2372
X0.2139Y-5.1011
X0.2139Y-5.2139
X0.2372Y-5.1575
X14.0128Y0.1575
X14.0361Y0.2139
X14.0361Y0.1011
X14.0925Y0.2372
X14.0925Y0.0778
X14.1489Y0.2139
X14.1489Y0.1011
X14.1722Y0.1575
T4
X4.5157Y-4.573
X4.5748Y-4.7953
X4.6142Y-4.1917
X4.689Y-4.1535
X12.4291Y-1.5236
T5
X0.0931Y-0.825
X0.0931Y-0.875
X0.0931Y-0.925
X0.1431Y-0.825
X0.1431Y-0.875
X0.1431Y-0.925
T6
X13.5647Y-2.3998
X13.6032Y-2.4904
X13.6417Y-2.581
X14.0902Y-2.1767
X14.1671Y-2.3579
X0.152Y-0.1855
X0.3224Y-0.0871
X0.4374Y-0.6799
X0.5226Y-0.6307
X0.6079Y-0.5815
T7
X2.1625Y-3.525
X2.4125Y-3.425
X10.225Y-1.275
X10.475Y-1.175
X12.975Y-2.775
X13.225Y-2.675
X2.9125Y-3.525
X3.1625Y-3.425
X6.35Y-0.275
X6.6Y-0.175
X8.1625Y-3.525
X8.4125Y-3.425
X9.1Y-2.025
X9.35Y-1.925
X8.9125Y-4.275
X9.1625Y-4.175
X1.5062Y-2.775
X1.7562Y-2.675
X0.225Y-2.275
X0.475Y-2.175
X2.2563Y-4.275
X2.5063Y-4.175
X0.225Y-4.275
X0.475Y-4.175
X3.85Y-2.025
X4.1Y-1.925
X7.225Y-1.275
X7.475Y-1.175
X9.475Y-1.275
X9.725Y-1.175
X12.975Y-1.275
X13.225Y-1.175
X6.6625Y-3.525
X6.9125Y-3.425
X1.975Y-1.275
X2.225Y-1.175
X2.725Y-1.275
X2.975Y-1.175
X13.725Y-1.275
X13.975Y-1.175
X8.5375Y-2.775
X8.7875Y-2.675
X8.725Y-1.275
X8.975Y-1.175
X11.975Y-3.775
X12.225Y-3.675
X5.725Y-4.275
X5.975Y-4.175
X6.1Y-4.275
X6.35Y-4.175
X6.475Y-4.275
X6.725Y-4.175
X11.225Y-0.275
X11.475Y-0.175
X9.85Y-4.275
X10.1Y-4.175
X4.475Y-0.275
X4.725Y-0.175
X5.35Y-0.275
X5.6Y-0.175
X13.975Y-3.1
X14.075Y-3.35
X3.1Y-2.025
X3.35Y-1.925
X13.475Y-4.525
X13.725Y-4.425
X0.225Y-0.275
X0.475Y-0.175
X0.225Y-2.025
X0.475Y-1.925
X0.225Y-3.025
X0.475Y-2.925
X3.475Y-1.275
X3.725Y-1.175
X2.725Y-0.275
X2.975Y-0.175
X5.35Y-2.025
X5.6Y-1.925
X2.225Y-0.275
X2.475Y-0.175
X4.6Y-0.275
X4.85Y-0.175
X4.4125Y-3.525
X4.6625Y-3.425
X12.225Y-0.275
X12.475Y-0.175
X13.725Y-2.775
X13.975Y-2.675
X6.0062Y-4.275
X6.2562Y-4.175
X13.225Y-2.35
X13.325Y-2.6
X3.725Y-0.275
X3.975Y-0.175
X9.2875Y-2.775
X9.5375Y-2.675
X1.225Y-1.275
X1.475Y-1.175
X12.975Y-3.525
X13.225Y-3.425
X8.9125Y-3.525
X9.1625Y-3.425
X5.6Y-0.275
X5.85Y-0.175
X7.0375Y-2.775
X7.2875Y-2.675
X6.1Y-2.025
X6.35Y-1.925
X10.0375Y-4.275
X10.2875Y-4.175
X12.975Y-2.025
X13.225Y-1.925
X5.5375Y-2.775
X5.7875Y-2.675
X4.975Y-1.275
X5.225Y-1.175
X11.225Y-4.525
X11.475Y-4.425
X0.225Y-3.775
X0.475Y-3.675
X10.6Y-2.025
X10.85Y-1.925
X5.725Y-1.275
X5.975Y-1.175
X1.4125Y-4.275
X1.6625Y-4.175
X8.725Y-0.275
X8.975Y-0.175
X12.725Y-2.775
X12.975Y-2.675
X11.725Y-1.275
X11.975Y-1.175
X6.475Y-1.275
X6.725Y-1.175
X11.0687Y-3.525
X11.3187Y-3.425
X1.3187Y-3.525
X1.5687Y-3.425
X3.2875Y-2.775
X3.5375Y-2.675
X7.975Y-1.275
X8.225Y-1.175
X1.975Y-0.275
X2.225Y-0.175
X10.6937Y-3.525
X10.9437Y-3.425
X7.1Y-0.275
X7.35Y-0.175
X6.1Y-0.275
X6.35Y-0.175
X2.5375Y-2.775
X2.7875Y-2.675
X11.5375Y-2.025
X11.7875Y-1.925
X12.725Y-2.025
X12.975Y-1.925
X8.975Y-0.275
X9.225Y-0.175
X0.225Y-4.525
X0.475Y-4.425
X7.4125Y-3.525
X7.6625Y-3.425
X1.4125Y-2.025
X1.6625Y-1.925
X0.225Y-1.275
X0.475Y-1.175
X13.725Y-3.525
X13.975Y-3.425
X6.2875Y-2.775
X6.5375Y-2.675
X0.225Y-1.525
X0.475Y-1.425
X6.85Y-0.275
X7.1Y-0.175
X5.1625Y-3.525
X5.4125Y-3.425
X3.6625Y-3.525
X3.9125Y-3.425
X11.2562Y-2.775
X11.5062Y-2.675
X4.225Y-1.275
X4.475Y-1.175
X0.225Y-3.525
X0.475Y-3.425
X1.6937Y-3.525
X1.9437Y-3.425
X9.6625Y-3.525
X9.9125Y-3.425
X8.35Y-2.025
X8.6Y-1.925
X3.2875Y-4.275
X3.5375Y-4.175
X11.975Y-4.525
X12.225Y-4.425
X12.725Y-4.525
X12.975Y-4.425
X5.9125Y-3.525
X6.1625Y-3.425
X2.35Y-2.025
X2.6Y-1.925
X11.8812Y-2.35
X11.9812Y-2.6
X10.0375Y-2.775
X10.2875Y-2.675
X2.975Y-0.275
X3.225Y-0.175
X3.1938Y-4.275
X3.4438Y-4.175
X13.975Y-3.85
X14.075Y-4.1
X7.7875Y-2.775
X8.0375Y-2.675
X13.725Y-1.025
X13.975Y-0.925
X1.225Y-0.275
X1.475Y-0.175
X3.475Y-0.275
X3.725Y-0.175
X10.7875Y-4.275
X11.0375Y-4.175
X12.975Y-1.025
X13.225Y-0.925
X1.3187Y-2.775
X1.5687Y-2.675
X11.35Y-1.275
X11.6Y-1.175
X2.35Y-4.275
X2.6Y-4.175
X10.475Y-0.275
X10.725Y-0.175
X9.475Y-0.275
X9.725Y-0.175
X4.0375Y-2.775
X4.2875Y-2.675
X9.85Y-2.025
X10.1Y-1.925
X13.725Y-4.275
X13.975Y-4.175
X7.85Y-0.275
X8.1Y-0.175
X12.675Y-2.4
X12.775Y-2.65
X10.7875Y-2.775
X11.0375Y-2.675
X4.6Y-2.025
X4.85Y-1.925
X13.725Y-2.025
X13.975Y-1.925
X0.225Y-2.775
X0.475Y-2.675
X9.725Y-0.275
X9.975Y-0.175
X10.975Y-1.275
X11.225Y-1.175
X12.725Y-3.775
X12.975Y-3.675
X6.85Y-2.025
X7.1Y-1.925
X10.225Y-0.275
X10.475Y-0.175
X13.725Y-0.275
X13.975Y-0.175
X4.7875Y-2.775
X5.0375Y-2.675
X7.6Y-2.025
X7.85Y-1.925
X1.3187Y-4.275
X1.5687Y-4.175
X7.975Y-0.275
X8.225Y-0.175
X11.725Y-3.525
X11.975Y-3.425
X12.975Y-0.275
X13.225Y-0.175
T8
X14.0925Y0.1575
X10.6088Y-5.1575
X3.6412Y-5.1575
X0.1575Y0.1575
X7.125Y0.1575
X14.0925Y-5.1575
X7.125Y-5.1575
X3.6412Y0.1575
X10.6088Y0.1575
X0.1575Y-5.1575
T7
G00X13.7653Y-2.1821
M15
G01X13.8124Y-2.1621
M16
G05
G00X13.9376Y-2.5879
M15
G01X13.9847Y-2.5679
M16
G05
G00X0.1969Y-0.5074
M15
G01X0.1713Y-0.4631
M16
G05
G00X0.5787Y-0.2869
M15
G01X0.5531Y-0.2426
M16
G05
T0
M30
