M48
INCH
T1C0.0157
T2C0.0197
T3C0.0236
T4C0.0256
T5C0.0394
T6C0.0591
T7C0.1063
%
G90
G05
T1
X0.0551Y-0.3228
X0.1063Y-0.3976
X0.122Y-0.6969
X0.126Y-0.6024
X0.2953Y-1.0039
X0.3583Y-1.0236
X0.3622Y-1.1614
X0.4409Y-0.5276
X0.5Y-0.4803
X0.5197Y-0.4252
X0.574Y-1.0394
X0.6299Y-4.685
X0.6299Y-4.8031
X0.6417Y-4.5906
X0.7598Y-3.1535
X0.7638Y-2.4055
X0.7638Y-3.9055
X0.7677Y-1.6535
X0.7874Y-1.0551
X0.7913Y-4.689
X0.7913Y-4.811
X0.9134Y-1.0551
X0.9712Y-4.6535
X0.9724Y-1.1457
X0.9724Y-4.7402
X1.0018Y-1.175
X1.0197Y-4.6929
X1.0394Y-4.5433
X1.0709Y-0.4803
X1.0709Y-1.6535
X1.0787Y-4.8386
X1.0984Y-4.5866
X1.1654Y-3.1535
X1.1654Y-3.9055
X1.2598Y-2.3976
X1.4803Y-4.8346
X1.4843Y-4.5669
X1.6102Y-2.5354
X1.6339Y-2.752
X1.6496Y-2.6299
X1.7205Y-2.5709
X1.8228Y-2.7638
X1.9567Y-4.6102
X1.9567Y-4.8346
X2.3228Y-4.6102
X2.3228Y-4.8346
X2.6535Y-4.6102
X2.6575Y-4.8346
X2.9331Y-4.6102
X2.9331Y-4.8346
X3.122Y-4.6535
X4.437Y-4.4764
X4.4921Y-3.9343
X4.5709Y-4.9567
X4.5866Y-4.4094
X4.5866Y-4.5827
X4.6024Y-4.5354
X4.685Y-4.1496
X4.685Y-4.8622
X4.7874Y-4.9567
X4.7992Y-1.0906
X4.8268Y-3.937
X4.8658Y-4.8982
X4.8701Y-3.937
X4.8937Y-4.8701
X4.9134Y-3.937
X4.9567Y-3.937
X4.9764Y-3.374
X5.0039Y-1.9331
X5.0039Y-3.937
X5.0512Y-3.937
X5.2362Y-4.4606
X5.2402Y-4.3504
X5.2874Y-4.0224
X5.2874Y-4.2795
X5.3071Y-3.9528
X5.3228Y-4.0906
X5.3465Y-4.0512
X5.374Y-2.4961
X5.4528Y-3.9488
X5.5591Y-4.2795
X5.6024Y-4.3701
X5.6417Y-4.2835
X6.9094Y-3.9343
X6.9528Y-3.9409
X9.3622Y-4.4409
X9.4449Y-4.3701
X9.4843Y-4.5709
X9.5551Y-4.4921
X9.5669Y-4.7244
X9.5899Y-4.8256
X9.626Y-4.8425
X9.6614Y-4.8616
X9.7087Y-4.7677
X10.0354Y-4.6102
X10.0354Y-4.7008
X10.3425Y-4.6063
X10.3425Y-4.7047
X10.6496Y-4.6063
X10.6496Y-4.7047
X11.0591Y-4.6732
X11.0591Y-4.7677
X11.6614Y-4.6772
X11.6614Y-4.7638
X11.7795Y-4.8701
X11.8622Y-2.7047
X11.8819Y-4.8976
X11.9331Y-2.7756
X12.1024Y-1.2756
X12.1457Y-1.5276
X12.4291Y-1.5
X12.4291Y-4.1969
X12.6693Y-2.2874
X12.7756Y-1.0866
X12.7795Y-2.4016
X12.7835Y-2.2992
X12.8189Y-3.2717
X12.9291Y-2.2402
X12.9724Y-4.9146
X13.0Y-3.2717
X13.0197Y-2.2441
X13.252Y-4.9146
X13.2953Y-4.9213
X13.3203Y-3.9711
X13.4606Y-2.5315
X13.7008Y-2.9843
X13.975Y-3.9711
X14.0197Y-2.0709
X14.0709Y-2.6496
X14.1181Y-2.5118
X14.122Y-1.9764
X14.1969Y-2.6772
X14.2087Y-2.5394
T2
X4.5157Y-4.2598
X4.651Y-4.5958
X4.7677Y-4.7047
X4.9724Y-4.8228
X5.0827Y-4.122
X5.2244Y-4.622
X12.5551Y-1.1693
X3.5615Y0.1575
X3.5849Y0.2139
X3.5849Y0.1011
X3.6412Y0.2372
X3.6412Y0.0778
X3.6976Y0.2139
X3.6976Y0.1011
X3.721Y0.1575
X10.529Y-5.1575
X10.5524Y-5.1011
X10.5524Y-5.2139
X10.6088Y-5.0778
X10.6088Y-5.2372
X10.6651Y-5.1011
X10.6651Y-5.2139
X10.6885Y-5.1575
X14.0128Y0.1575
X14.0361Y0.2139
X14.0361Y0.1011
X14.0925Y0.2372
X14.0925Y0.0778
X14.1489Y0.2139
X14.1489Y0.1011
X14.1722Y0.1575
X7.0453Y0.1575
X7.0686Y0.2139
X7.0686Y0.1011
X7.125Y0.2372
X7.125Y0.0778
X7.1814Y0.2139
X7.1814Y0.1011
X7.2047Y0.1575
X0.0778Y-5.1575
X0.1011Y-5.1011
X0.1011Y-5.2139
X0.1575Y-5.0778
X0.1575Y-5.2372
X0.2139Y-5.1011
X0.2139Y-5.2139
X0.2372Y-5.1575
X14.0128Y-5.1575
X14.0361Y-5.1011
X14.0361Y-5.2139
X14.0925Y-5.0778
X14.0925Y-5.2372
X14.1489Y-5.1011
X14.1489Y-5.2139
X14.1722Y-5.1575
X10.529Y0.1575
X10.5524Y0.2139
X10.5524Y0.1011
X10.6088Y0.2372
X10.6088Y0.0778
X10.6651Y0.2139
X10.6651Y0.1011
X10.6885Y0.1575
X0.0778Y0.1575
X0.1011Y0.2139
X0.1011Y0.1011
X0.1575Y0.2372
X0.1575Y0.0778
X0.2139Y0.2139
X0.2139Y0.1011
X0.2372Y0.1575
X3.5615Y-5.1575
X3.5849Y-5.1011
X3.5849Y-5.2139
X3.6412Y-5.0778
X3.6412Y-5.2372
X3.6976Y-5.1011
X3.6976Y-5.2139
X3.721Y-5.1575
X7.0453Y-5.1575
X7.0686Y-5.1011
X7.0686Y-5.2139
X7.125Y-5.0778
X7.125Y-5.2372
X7.1814Y-5.1011
X7.1814Y-5.2139
X7.2047Y-5.1575
T3
X4.4921Y-4.626
X4.5878Y-4.7925
X4.6201Y-4.2
X12.4291Y-1.1378
T4
X0.0931Y-0.825
X0.0931Y-0.875
X0.0931Y-0.925
X0.1431Y-0.825
X0.1431Y-0.875
X0.1431Y-0.925
T5
X13.5658Y-2.3394
X13.6074Y-2.2502
X13.649Y-2.161
X14.0832Y-2.5807
X14.1664Y-2.4023
X13.5701Y-2.5624
X13.6193Y-2.6476
X13.6685Y-2.7329
X14.0645Y-2.277
X14.1629Y-2.4474
X0.152Y-0.1855
X0.3224Y-0.0871
X0.4374Y-0.6799
X0.5226Y-0.6307
X0.6079Y-0.5815
T6
X5.1625Y-3.525
X5.4125Y-3.425
X7.6Y-2.025
X7.85Y-1.925
X6.1Y-4.275
X6.35Y-4.175
X10.0375Y-2.775
X10.2875Y-2.675
X13.725Y-0.275
X13.975Y-0.175
X7.975Y-0.275
X8.225Y-0.175
X8.975Y-0.275
X9.225Y-0.175
X5.35Y-2.025
X5.6Y-1.925
X12.725Y-4.525
X12.975Y-4.425
X2.5375Y-2.775
X2.7875Y-2.675
X12.975Y-0.275
X13.225Y-0.175
X11.975Y-4.525
X12.225Y-4.425
X1.3187Y-4.275
X1.5687Y-4.175
X5.9125Y-3.525
X6.1625Y-3.425
X10.475Y-0.275
X10.725Y-0.175
X1.4125Y-2.025
X1.6625Y-1.925
X3.2875Y-4.275
X3.5375Y-4.175
X9.2875Y-2.775
X9.5375Y-2.675
X10.0375Y-4.275
X10.2875Y-4.175
X7.975Y-1.275
X8.225Y-1.175
X0.225Y-3.025
X0.475Y-2.925
X11.725Y-3.525
X11.975Y-3.425
X10.225Y-0.275
X10.475Y-0.175
X8.725Y-0.275
X8.975Y-0.175
X0.225Y-2.025
X0.475Y-1.925
X3.2875Y-2.775
X3.5375Y-2.675
X12.725Y-2.775
X12.975Y-2.675
X11.975Y-3.775
X12.225Y-3.675
X11.225Y-0.275
X11.475Y-0.175
X1.3187Y-2.775
X1.5687Y-2.675
X13.725Y-2.025
X13.975Y-1.925
X2.2563Y-4.275
X2.5063Y-4.175
X12.975Y-1.025
X13.225Y-0.925
X12.975Y-3.525
X13.225Y-3.425
X4.0375Y-2.775
X4.2875Y-2.675
X9.6625Y-4.275
X9.9125Y-4.175
X11.35Y-1.275
X11.6Y-1.175
X10.7875Y-4.275
X11.0375Y-4.175
X13.225Y-2.35
X13.325Y-2.6
X11.725Y-1.275
X11.975Y-1.175
X3.725Y-0.275
X3.975Y-0.175
X12.725Y-2.025
X12.975Y-1.925
X3.6625Y-3.525
X3.9125Y-3.425
X4.975Y-1.275
X5.225Y-1.175
X4.7875Y-2.775
X5.0375Y-2.675
X7.1Y-0.275
X7.35Y-0.175
X8.1625Y-3.525
X8.4125Y-3.425
X0.225Y-1.275
X0.475Y-1.175
X1.975Y-0.275
X2.225Y-0.175
X0.225Y-3.525
X0.475Y-3.425
X7.85Y-0.275
X8.1Y-0.175
X8.35Y-2.025
X8.6Y-1.925
X7.0375Y-2.775
X7.2875Y-2.675
X6.35Y-0.275
X6.6Y-0.175
X0.225Y-2.275
X0.475Y-2.175
X13.725Y-3.525
X13.975Y-3.425
X4.4125Y-3.525
X4.6625Y-3.425
X4.225Y-1.275
X4.475Y-1.175
X6.1Y-2.025
X6.35Y-1.925
X11.2562Y-2.775
X11.5062Y-2.675
X1.225Y-0.275
X1.475Y-0.175
X6.475Y-4.275
X6.725Y-4.175
X2.9125Y-3.525
X3.1625Y-3.425
X4.475Y-0.275
X4.725Y-0.175
X9.85Y-2.025
X10.1Y-1.925
X8.9125Y-4.275
X9.1625Y-4.175
X1.5062Y-2.775
X1.7562Y-2.675
X1.975Y-1.275
X2.225Y-1.175
X0.225Y-3.775
X0.475Y-3.675
X12.725Y-3.775
X12.975Y-3.675
X3.85Y-2.025
X4.1Y-1.925
X13.975Y-3.1
X14.075Y-3.35
X12.975Y-2.025
X13.225Y-1.925
X6.0062Y-4.275
X6.2562Y-4.175
X8.725Y-1.275
X8.975Y-1.175
X10.975Y-1.275
X11.225Y-1.175
X5.35Y-0.275
X5.6Y-0.175
X9.475Y-0.275
X9.725Y-0.175
X3.475Y-1.275
X3.725Y-1.175
X13.975Y-4.1
X14.075Y-4.35
X2.5375Y-4.275
X2.7875Y-4.175
X9.475Y-1.275
X9.725Y-1.175
X12.975Y-2.775
X13.225Y-2.675
X2.35Y-4.275
X2.6Y-4.175
X5.6Y-0.275
X5.85Y-0.175
X4.6Y-0.275
X4.85Y-0.175
X1.6937Y-3.525
X1.9437Y-3.425
X3.1Y-2.025
X3.35Y-1.925
X6.2875Y-2.775
X6.5375Y-2.675
X2.1625Y-3.525
X2.4125Y-3.425
X7.225Y-1.275
X7.475Y-1.175
X2.975Y-0.275
X3.225Y-0.175
X6.6625Y-3.525
X6.9125Y-3.425
X6.85Y-2.025
X7.1Y-1.925
X5.5375Y-2.775
X5.7875Y-2.675
X6.1Y-0.275
X6.35Y-0.175
X9.6625Y-3.525
X9.9125Y-3.425
X12.225Y-0.275
X12.475Y-0.175
X10.6Y-2.025
X10.85Y-1.925
X13.475Y-4.525
X13.725Y-4.425
X12.975Y-2.35
X13.075Y-2.6
X0.225Y-4.525
X0.475Y-4.425
X7.4125Y-3.525
X7.6625Y-3.425
X13.725Y-1.025
X13.975Y-0.925
X7.7875Y-2.775
X8.0375Y-2.675
X11.0687Y-3.525
X11.3187Y-3.425
X0.225Y-0.275
X0.475Y-0.175
X5.725Y-4.275
X5.975Y-4.175
X4.6Y-2.025
X4.85Y-1.925
X10.6937Y-3.525
X10.9437Y-3.425
X8.5375Y-2.775
X8.7875Y-2.675
X3.1938Y-4.275
X3.4438Y-4.175
X10.225Y-1.275
X10.475Y-1.175
X2.725Y-0.275
X2.975Y-0.175
X1.4125Y-4.275
X1.6625Y-4.175
X2.725Y-1.275
X2.975Y-1.175
X11.8812Y-2.35
X11.9812Y-2.6
X2.35Y-2.025
X2.6Y-1.925
X1.3187Y-3.525
X1.5687Y-3.425
X5.725Y-1.275
X5.975Y-1.175
X9.85Y-4.275
X10.1Y-4.175
X0.225Y-1.525
X0.475Y-1.425
X6.475Y-1.275
X6.725Y-1.175
X0.225Y-4.275
X0.475Y-4.175
X9.725Y-0.275
X9.975Y-0.175
X1.225Y-1.275
X1.475Y-1.175
X6.85Y-0.275
X7.1Y-0.175
X9.1Y-2.025
X9.35Y-1.925
X0.225Y-2.775
X0.475Y-2.675
X2.225Y-0.275
X2.475Y-0.175
X11.225Y-4.525
X11.475Y-4.425
X8.9125Y-3.525
X9.1625Y-3.425
X11.5375Y-2.025
X11.7875Y-1.925
X10.7875Y-2.775
X11.0375Y-2.675
X3.475Y-0.275
X3.725Y-0.175
T7
X14.0925Y0.1575
X0.1575Y-5.1575
X14.0925Y-5.1575
X10.6088Y0.1575
X0.1575Y0.1575
X3.6412Y-5.1575
X7.125Y-5.1575
X3.6412Y0.1575
X10.6088Y-5.1575
X7.125Y0.1575
T6
G00X13.7426Y-2.3219
M15
G01X13.7869Y-2.2963
M16
G05
G00X13.9631Y-2.7037
M15
G01X14.0074Y-2.6781
M16
G05
G00X0.1969Y-0.5074
M15
G01X0.1713Y-0.4631
M16
G05
G00X0.5787Y-0.2869
M15
G01X0.5531Y-0.2426
M16
G05
G00X13.7586Y-2.564
M15
G01X13.805Y-2.5856
M16
G05
G00X13.945Y-2.1644
M15
G01X13.9914Y-2.186
M16
G05
T0
M30
