G04 #@! TF.GenerationSoftware,KiCad,Pcbnew,(5.1.2)-1*
G04 #@! TF.CreationDate,2019-07-01T01:55:20-07:00*
G04 #@! TF.ProjectId,mad cat,6d616420-6361-4742-9e6b-696361645f70,rev?*
G04 #@! TF.SameCoordinates,Original*
G04 #@! TF.FileFunction,Legend,Top*
G04 #@! TF.FilePolarity,Positive*
%FSLAX46Y46*%
G04 Gerber Fmt 4.6, Leading zero omitted, Abs format (unit mm)*
G04 Created by KiCad (PCBNEW (5.1.2)-1) date 2019-07-01 01:55:20*
%MOMM*%
%LPD*%
G04 APERTURE LIST*
%ADD10C,0.150000*%
%ADD11C,0.010000*%
%ADD12C,0.120000*%
%ADD13C,0.300000*%
G04 APERTURE END LIST*
D10*
X182835595Y-106852380D02*
X182835595Y-105852380D01*
X183216547Y-105852380D01*
X183311785Y-105900000D01*
X183359404Y-105947619D01*
X183407023Y-106042857D01*
X183407023Y-106185714D01*
X183359404Y-106280952D01*
X183311785Y-106328571D01*
X183216547Y-106376190D01*
X182835595Y-106376190D01*
X183835595Y-106852380D02*
X183835595Y-106185714D01*
X183835595Y-106376190D02*
X183883214Y-106280952D01*
X183930833Y-106233333D01*
X184026071Y-106185714D01*
X184121309Y-106185714D01*
X184597500Y-106852380D02*
X184502261Y-106804761D01*
X184454642Y-106757142D01*
X184407023Y-106661904D01*
X184407023Y-106376190D01*
X184454642Y-106280952D01*
X184502261Y-106233333D01*
X184597500Y-106185714D01*
X184740357Y-106185714D01*
X184835595Y-106233333D01*
X184883214Y-106280952D01*
X184930833Y-106376190D01*
X184930833Y-106661904D01*
X184883214Y-106757142D01*
X184835595Y-106804761D01*
X184740357Y-106852380D01*
X184597500Y-106852380D01*
X185216547Y-106185714D02*
X185597500Y-106185714D01*
X185359404Y-105852380D02*
X185359404Y-106709523D01*
X185407023Y-106804761D01*
X185502261Y-106852380D01*
X185597500Y-106852380D01*
X186073690Y-106852380D02*
X185978452Y-106804761D01*
X185930833Y-106757142D01*
X185883214Y-106661904D01*
X185883214Y-106376190D01*
X185930833Y-106280952D01*
X185978452Y-106233333D01*
X186073690Y-106185714D01*
X186216547Y-106185714D01*
X186311785Y-106233333D01*
X186359404Y-106280952D01*
X186407023Y-106376190D01*
X186407023Y-106661904D01*
X186359404Y-106757142D01*
X186311785Y-106804761D01*
X186216547Y-106852380D01*
X186073690Y-106852380D01*
X187597500Y-106852380D02*
X187597500Y-105852380D01*
X187597500Y-106233333D02*
X187692738Y-106185714D01*
X187883214Y-106185714D01*
X187978452Y-106233333D01*
X188026071Y-106280952D01*
X188073690Y-106376190D01*
X188073690Y-106661904D01*
X188026071Y-106757142D01*
X187978452Y-106804761D01*
X187883214Y-106852380D01*
X187692738Y-106852380D01*
X187597500Y-106804761D01*
X188407023Y-106185714D02*
X188645119Y-106852380D01*
X188883214Y-106185714D02*
X188645119Y-106852380D01*
X188549880Y-107090476D01*
X188502261Y-107138095D01*
X188407023Y-107185714D01*
X190597500Y-106757142D02*
X190549880Y-106804761D01*
X190407023Y-106852380D01*
X190311785Y-106852380D01*
X190168928Y-106804761D01*
X190073690Y-106709523D01*
X190026071Y-106614285D01*
X189978452Y-106423809D01*
X189978452Y-106280952D01*
X190026071Y-106090476D01*
X190073690Y-105995238D01*
X190168928Y-105900000D01*
X190311785Y-105852380D01*
X190407023Y-105852380D01*
X190549880Y-105900000D01*
X190597500Y-105947619D01*
X191026071Y-106852380D02*
X191026071Y-105852380D01*
X191454642Y-106852380D02*
X191454642Y-106328571D01*
X191407023Y-106233333D01*
X191311785Y-106185714D01*
X191168928Y-106185714D01*
X191073690Y-106233333D01*
X191026071Y-106280952D01*
X191930833Y-106852380D02*
X191930833Y-106185714D01*
X191930833Y-106376190D02*
X191978452Y-106280952D01*
X192026071Y-106233333D01*
X192121309Y-106185714D01*
X192216547Y-106185714D01*
X192549880Y-106852380D02*
X192549880Y-106185714D01*
X192549880Y-105852380D02*
X192502261Y-105900000D01*
X192549880Y-105947619D01*
X192597500Y-105900000D01*
X192549880Y-105852380D01*
X192549880Y-105947619D01*
X192978452Y-106804761D02*
X193073690Y-106852380D01*
X193264166Y-106852380D01*
X193359404Y-106804761D01*
X193407023Y-106709523D01*
X193407023Y-106661904D01*
X193359404Y-106566666D01*
X193264166Y-106519047D01*
X193121309Y-106519047D01*
X193026071Y-106471428D01*
X192978452Y-106376190D01*
X192978452Y-106328571D01*
X193026071Y-106233333D01*
X193121309Y-106185714D01*
X193264166Y-106185714D01*
X193359404Y-106233333D01*
X195121309Y-105900000D02*
X195026071Y-105852380D01*
X194883214Y-105852380D01*
X194740357Y-105900000D01*
X194645119Y-105995238D01*
X194597500Y-106090476D01*
X194549880Y-106280952D01*
X194549880Y-106423809D01*
X194597500Y-106614285D01*
X194645119Y-106709523D01*
X194740357Y-106804761D01*
X194883214Y-106852380D01*
X194978452Y-106852380D01*
X195121309Y-106804761D01*
X195168928Y-106757142D01*
X195168928Y-106423809D01*
X194978452Y-106423809D01*
X195597500Y-106852380D02*
X195597500Y-106185714D01*
X195597500Y-106376190D02*
X195645119Y-106280952D01*
X195692738Y-106233333D01*
X195787976Y-106185714D01*
X195883214Y-106185714D01*
X196359404Y-106852380D02*
X196264166Y-106804761D01*
X196216547Y-106757142D01*
X196168928Y-106661904D01*
X196168928Y-106376190D01*
X196216547Y-106280952D01*
X196264166Y-106233333D01*
X196359404Y-106185714D01*
X196502261Y-106185714D01*
X196597500Y-106233333D01*
X196645119Y-106280952D01*
X196692738Y-106376190D01*
X196692738Y-106661904D01*
X196645119Y-106757142D01*
X196597500Y-106804761D01*
X196502261Y-106852380D01*
X196359404Y-106852380D01*
X197073690Y-106804761D02*
X197168928Y-106852380D01*
X197359404Y-106852380D01*
X197454642Y-106804761D01*
X197502261Y-106709523D01*
X197502261Y-106661904D01*
X197454642Y-106566666D01*
X197359404Y-106519047D01*
X197216547Y-106519047D01*
X197121309Y-106471428D01*
X197073690Y-106376190D01*
X197073690Y-106328571D01*
X197121309Y-106233333D01*
X197216547Y-106185714D01*
X197359404Y-106185714D01*
X197454642Y-106233333D01*
X197883214Y-106804761D02*
X197978452Y-106852380D01*
X198168928Y-106852380D01*
X198264166Y-106804761D01*
X198311785Y-106709523D01*
X198311785Y-106661904D01*
X198264166Y-106566666D01*
X198168928Y-106519047D01*
X198026071Y-106519047D01*
X197930833Y-106471428D01*
X197883214Y-106376190D01*
X197883214Y-106328571D01*
X197930833Y-106233333D01*
X198026071Y-106185714D01*
X198168928Y-106185714D01*
X198264166Y-106233333D01*
X198740357Y-106852380D02*
X198740357Y-106185714D01*
X198740357Y-106280952D02*
X198787976Y-106233333D01*
X198883214Y-106185714D01*
X199026071Y-106185714D01*
X199121309Y-106233333D01*
X199168928Y-106328571D01*
X199168928Y-106852380D01*
X199168928Y-106328571D02*
X199216547Y-106233333D01*
X199311785Y-106185714D01*
X199454642Y-106185714D01*
X199549880Y-106233333D01*
X199597500Y-106328571D01*
X199597500Y-106852380D01*
X200502261Y-106852380D02*
X200502261Y-106328571D01*
X200454642Y-106233333D01*
X200359404Y-106185714D01*
X200168928Y-106185714D01*
X200073690Y-106233333D01*
X200502261Y-106804761D02*
X200407023Y-106852380D01*
X200168928Y-106852380D01*
X200073690Y-106804761D01*
X200026071Y-106709523D01*
X200026071Y-106614285D01*
X200073690Y-106519047D01*
X200168928Y-106471428D01*
X200407023Y-106471428D01*
X200502261Y-106423809D01*
X200978452Y-106185714D02*
X200978452Y-106852380D01*
X200978452Y-106280952D02*
X201026071Y-106233333D01*
X201121309Y-106185714D01*
X201264166Y-106185714D01*
X201359404Y-106233333D01*
X201407023Y-106328571D01*
X201407023Y-106852380D01*
X182792738Y-104252380D02*
X183364166Y-104252380D01*
X183078452Y-105252380D02*
X183078452Y-104252380D01*
X183697500Y-105252380D02*
X183697500Y-104585714D01*
X183697500Y-104252380D02*
X183649880Y-104300000D01*
X183697500Y-104347619D01*
X183745119Y-104300000D01*
X183697500Y-104252380D01*
X183697500Y-104347619D01*
X184173690Y-105252380D02*
X184173690Y-104585714D01*
X184173690Y-104680952D02*
X184221309Y-104633333D01*
X184316547Y-104585714D01*
X184459404Y-104585714D01*
X184554642Y-104633333D01*
X184602261Y-104728571D01*
X184602261Y-105252380D01*
X184602261Y-104728571D02*
X184649880Y-104633333D01*
X184745119Y-104585714D01*
X184887976Y-104585714D01*
X184983214Y-104633333D01*
X185030833Y-104728571D01*
X185030833Y-105252380D01*
X185507023Y-105252380D02*
X185507023Y-104252380D01*
X185507023Y-104633333D02*
X185602261Y-104585714D01*
X185792738Y-104585714D01*
X185887976Y-104633333D01*
X185935595Y-104680952D01*
X185983214Y-104776190D01*
X185983214Y-105061904D01*
X185935595Y-105157142D01*
X185887976Y-105204761D01*
X185792738Y-105252380D01*
X185602261Y-105252380D01*
X185507023Y-105204761D01*
X186792738Y-105204761D02*
X186697500Y-105252380D01*
X186507023Y-105252380D01*
X186411785Y-105204761D01*
X186364166Y-105109523D01*
X186364166Y-104728571D01*
X186411785Y-104633333D01*
X186507023Y-104585714D01*
X186697500Y-104585714D01*
X186792738Y-104633333D01*
X186840357Y-104728571D01*
X186840357Y-104823809D01*
X186364166Y-104919047D01*
X187268928Y-105252380D02*
X187268928Y-104585714D01*
X187268928Y-104776190D02*
X187316547Y-104680952D01*
X187364166Y-104633333D01*
X187459404Y-104585714D01*
X187554642Y-104585714D01*
X188554642Y-104252380D02*
X188792738Y-105252380D01*
X188983214Y-104538095D01*
X189173690Y-105252380D01*
X189411785Y-104252380D01*
X189935595Y-105252380D02*
X189840357Y-105204761D01*
X189792738Y-105157142D01*
X189745119Y-105061904D01*
X189745119Y-104776190D01*
X189792738Y-104680952D01*
X189840357Y-104633333D01*
X189935595Y-104585714D01*
X190078452Y-104585714D01*
X190173690Y-104633333D01*
X190221309Y-104680952D01*
X190268928Y-104776190D01*
X190268928Y-105061904D01*
X190221309Y-105157142D01*
X190173690Y-105204761D01*
X190078452Y-105252380D01*
X189935595Y-105252380D01*
X190840357Y-105252380D02*
X190745119Y-105204761D01*
X190697500Y-105109523D01*
X190697500Y-104252380D01*
X191078452Y-104585714D02*
X191459404Y-104585714D01*
X191221309Y-105252380D02*
X191221309Y-104395238D01*
X191268928Y-104300000D01*
X191364166Y-104252380D01*
X191459404Y-104252380D01*
D11*
G36*
X209170334Y-110024334D02*
G01*
X206630334Y-110024334D01*
X206630334Y-109474000D01*
X209170334Y-109474000D01*
X209170334Y-110024334D01*
X209170334Y-110024334D01*
G37*
X209170334Y-110024334D02*
X206630334Y-110024334D01*
X206630334Y-109474000D01*
X209170334Y-109474000D01*
X209170334Y-110024334D01*
G36*
X216282334Y-112860667D02*
G01*
X215689667Y-112860667D01*
X215689667Y-111421334D01*
X214885334Y-111421334D01*
X214885334Y-110871000D01*
X215689667Y-110871000D01*
X215689667Y-109474000D01*
X216282334Y-109474000D01*
X216282334Y-112860667D01*
X216282334Y-112860667D01*
G37*
X216282334Y-112860667D02*
X215689667Y-112860667D01*
X215689667Y-111421334D01*
X214885334Y-111421334D01*
X214885334Y-110871000D01*
X215689667Y-110871000D01*
X215689667Y-109474000D01*
X216282334Y-109474000D01*
X216282334Y-112860667D01*
G36*
X214038667Y-112860667D02*
G01*
X213446000Y-112860667D01*
X213446000Y-109474000D01*
X214038667Y-109474000D01*
X214038667Y-112860667D01*
X214038667Y-112860667D01*
G37*
X214038667Y-112860667D02*
X213446000Y-112860667D01*
X213446000Y-109474000D01*
X214038667Y-109474000D01*
X214038667Y-112860667D01*
G36*
X208916334Y-111421334D02*
G01*
X207223000Y-111421334D01*
X207223000Y-112310334D01*
X209170334Y-112310334D01*
X209170334Y-112860667D01*
X206630334Y-112860667D01*
X206630334Y-110871000D01*
X208916334Y-110871000D01*
X208916334Y-111421334D01*
X208916334Y-111421334D01*
G37*
X208916334Y-111421334D02*
X207223000Y-111421334D01*
X207223000Y-112310334D01*
X209170334Y-112310334D01*
X209170334Y-112860667D01*
X206630334Y-112860667D01*
X206630334Y-110871000D01*
X208916334Y-110871000D01*
X208916334Y-111421334D01*
G36*
X205741334Y-112860667D02*
G01*
X205148667Y-112860667D01*
X205148235Y-111643584D01*
X205147803Y-110426500D01*
X204629652Y-111220023D01*
X204478751Y-111449089D01*
X204342368Y-111652264D01*
X204227486Y-111819455D01*
X204141093Y-111940570D01*
X204090172Y-112005514D01*
X204080320Y-112013773D01*
X204048664Y-111980240D01*
X203977415Y-111886231D01*
X203873764Y-111741836D01*
X203744900Y-111557147D01*
X203598014Y-111342255D01*
X203529986Y-111241417D01*
X203010834Y-110468834D01*
X202999591Y-111664750D01*
X202988348Y-112860667D01*
X202397000Y-112860667D01*
X202397000Y-109474000D01*
X203059281Y-109474000D01*
X203559798Y-110259476D01*
X203716471Y-110501174D01*
X203853837Y-110704907D01*
X203966128Y-110862657D01*
X204047582Y-110966408D01*
X204092431Y-111008141D01*
X204097715Y-111007552D01*
X204131096Y-110962064D01*
X204202809Y-110856541D01*
X204305423Y-110702184D01*
X204431508Y-110510190D01*
X204573631Y-110291761D01*
X204611880Y-110232659D01*
X205088645Y-109495167D01*
X205414989Y-109482803D01*
X205741334Y-109470439D01*
X205741334Y-112860667D01*
X205741334Y-112860667D01*
G37*
X205741334Y-112860667D02*
X205148667Y-112860667D01*
X205148235Y-111643584D01*
X205147803Y-110426500D01*
X204629652Y-111220023D01*
X204478751Y-111449089D01*
X204342368Y-111652264D01*
X204227486Y-111819455D01*
X204141093Y-111940570D01*
X204090172Y-112005514D01*
X204080320Y-112013773D01*
X204048664Y-111980240D01*
X203977415Y-111886231D01*
X203873764Y-111741836D01*
X203744900Y-111557147D01*
X203598014Y-111342255D01*
X203529986Y-111241417D01*
X203010834Y-110468834D01*
X202999591Y-111664750D01*
X202988348Y-112860667D01*
X202397000Y-112860667D01*
X202397000Y-109474000D01*
X203059281Y-109474000D01*
X203559798Y-110259476D01*
X203716471Y-110501174D01*
X203853837Y-110704907D01*
X203966128Y-110862657D01*
X204047582Y-110966408D01*
X204092431Y-111008141D01*
X204097715Y-111007552D01*
X204131096Y-110962064D01*
X204202809Y-110856541D01*
X204305423Y-110702184D01*
X204431508Y-110510190D01*
X204573631Y-110291761D01*
X204611880Y-110232659D01*
X205088645Y-109495167D01*
X205414989Y-109482803D01*
X205741334Y-109470439D01*
X205741334Y-112860667D01*
G36*
X218477822Y-109431119D02*
G01*
X218666450Y-109469772D01*
X218870634Y-109531470D01*
X219067382Y-109607091D01*
X219233702Y-109687509D01*
X219346605Y-109763600D01*
X219366176Y-109783679D01*
X219381261Y-109834733D01*
X219352542Y-109914561D01*
X219273849Y-110039427D01*
X219263541Y-110054236D01*
X219113839Y-110268083D01*
X218818100Y-110116349D01*
X218530936Y-109996840D01*
X218267551Y-109942602D01*
X218037016Y-109954420D01*
X217849226Y-110032518D01*
X217708662Y-110167112D01*
X217645640Y-110318261D01*
X217660405Y-110472305D01*
X217753205Y-110615584D01*
X217837427Y-110684736D01*
X217940474Y-110736449D01*
X218098278Y-110795493D01*
X218282743Y-110851775D01*
X218353938Y-110870326D01*
X218732489Y-110980836D01*
X219032029Y-111108114D01*
X219257350Y-111256861D01*
X219413241Y-111431779D01*
X219504495Y-111637569D01*
X219535902Y-111878932D01*
X219529811Y-112024111D01*
X219470146Y-112305363D01*
X219344991Y-112534148D01*
X219151003Y-112715498D01*
X219017890Y-112794742D01*
X218881576Y-112858431D01*
X218757265Y-112897931D01*
X218614423Y-112919859D01*
X218422515Y-112930832D01*
X218384300Y-112932040D01*
X218208736Y-112935312D01*
X218064502Y-112934464D01*
X217973131Y-112929782D01*
X217954500Y-112926310D01*
X217892837Y-112906224D01*
X217778107Y-112872381D01*
X217677353Y-112843896D01*
X217552947Y-112798770D01*
X217402936Y-112729176D01*
X217246212Y-112645988D01*
X217101669Y-112560080D01*
X216988199Y-112482326D01*
X216924693Y-112423600D01*
X216917448Y-112406507D01*
X216943150Y-112359253D01*
X217009619Y-112270361D01*
X217080905Y-112184410D01*
X217244248Y-111994987D01*
X217398996Y-112113019D01*
X217690941Y-112290825D01*
X217999012Y-112388157D01*
X218225707Y-112410494D01*
X218492157Y-112394062D01*
X218688994Y-112331946D01*
X218818407Y-112223331D01*
X218845497Y-112179473D01*
X218903883Y-111997916D01*
X218880403Y-111837631D01*
X218775181Y-111698768D01*
X218588339Y-111581477D01*
X218320001Y-111485908D01*
X218263119Y-111471040D01*
X217901772Y-111371122D01*
X217616361Y-111268069D01*
X217398199Y-111156008D01*
X217238600Y-111029067D01*
X217128877Y-110881372D01*
X217060344Y-110707052D01*
X217046477Y-110648491D01*
X217022847Y-110356301D01*
X217073838Y-110092868D01*
X217192559Y-109864052D01*
X217372119Y-109675714D01*
X217605628Y-109533716D01*
X217886194Y-109443917D01*
X218206926Y-109412179D01*
X218477822Y-109431119D01*
X218477822Y-109431119D01*
G37*
X218477822Y-109431119D02*
X218666450Y-109469772D01*
X218870634Y-109531470D01*
X219067382Y-109607091D01*
X219233702Y-109687509D01*
X219346605Y-109763600D01*
X219366176Y-109783679D01*
X219381261Y-109834733D01*
X219352542Y-109914561D01*
X219273849Y-110039427D01*
X219263541Y-110054236D01*
X219113839Y-110268083D01*
X218818100Y-110116349D01*
X218530936Y-109996840D01*
X218267551Y-109942602D01*
X218037016Y-109954420D01*
X217849226Y-110032518D01*
X217708662Y-110167112D01*
X217645640Y-110318261D01*
X217660405Y-110472305D01*
X217753205Y-110615584D01*
X217837427Y-110684736D01*
X217940474Y-110736449D01*
X218098278Y-110795493D01*
X218282743Y-110851775D01*
X218353938Y-110870326D01*
X218732489Y-110980836D01*
X219032029Y-111108114D01*
X219257350Y-111256861D01*
X219413241Y-111431779D01*
X219504495Y-111637569D01*
X219535902Y-111878932D01*
X219529811Y-112024111D01*
X219470146Y-112305363D01*
X219344991Y-112534148D01*
X219151003Y-112715498D01*
X219017890Y-112794742D01*
X218881576Y-112858431D01*
X218757265Y-112897931D01*
X218614423Y-112919859D01*
X218422515Y-112930832D01*
X218384300Y-112932040D01*
X218208736Y-112935312D01*
X218064502Y-112934464D01*
X217973131Y-112929782D01*
X217954500Y-112926310D01*
X217892837Y-112906224D01*
X217778107Y-112872381D01*
X217677353Y-112843896D01*
X217552947Y-112798770D01*
X217402936Y-112729176D01*
X217246212Y-112645988D01*
X217101669Y-112560080D01*
X216988199Y-112482326D01*
X216924693Y-112423600D01*
X216917448Y-112406507D01*
X216943150Y-112359253D01*
X217009619Y-112270361D01*
X217080905Y-112184410D01*
X217244248Y-111994987D01*
X217398996Y-112113019D01*
X217690941Y-112290825D01*
X217999012Y-112388157D01*
X218225707Y-112410494D01*
X218492157Y-112394062D01*
X218688994Y-112331946D01*
X218818407Y-112223331D01*
X218845497Y-112179473D01*
X218903883Y-111997916D01*
X218880403Y-111837631D01*
X218775181Y-111698768D01*
X218588339Y-111581477D01*
X218320001Y-111485908D01*
X218263119Y-111471040D01*
X217901772Y-111371122D01*
X217616361Y-111268069D01*
X217398199Y-111156008D01*
X217238600Y-111029067D01*
X217128877Y-110881372D01*
X217060344Y-110707052D01*
X217046477Y-110648491D01*
X217022847Y-110356301D01*
X217073838Y-110092868D01*
X217192559Y-109864052D01*
X217372119Y-109675714D01*
X217605628Y-109533716D01*
X217886194Y-109443917D01*
X218206926Y-109412179D01*
X218477822Y-109431119D01*
G36*
X211498667Y-109454962D02*
G01*
X211730296Y-109458810D01*
X211900843Y-109470124D01*
X212033781Y-109492099D01*
X212152588Y-109527933D01*
X212215139Y-109552507D01*
X212364391Y-109624710D01*
X212513386Y-109713481D01*
X212643106Y-109805363D01*
X212734537Y-109886902D01*
X212768667Y-109944170D01*
X212741941Y-109994271D01*
X212672576Y-110083928D01*
X212595002Y-110172296D01*
X212421336Y-110360701D01*
X212288085Y-110260853D01*
X212049865Y-110104440D01*
X211826425Y-110010584D01*
X211589407Y-109968986D01*
X211472278Y-109964578D01*
X211297896Y-109968843D01*
X211172467Y-109989395D01*
X211060618Y-110034951D01*
X210967142Y-110089050D01*
X210731276Y-110281720D01*
X210553917Y-110523116D01*
X210437433Y-110798585D01*
X210384194Y-111093471D01*
X210396570Y-111393120D01*
X210476930Y-111682877D01*
X210627644Y-111948088D01*
X210659916Y-111989052D01*
X210860626Y-112169163D01*
X211107082Y-112290623D01*
X211380925Y-112350086D01*
X211663795Y-112344210D01*
X211937333Y-112269648D01*
X212011284Y-112235220D01*
X212152153Y-112160584D01*
X212275262Y-112091708D01*
X212333898Y-112056236D01*
X212389816Y-112027009D01*
X212440672Y-112030677D01*
X212507248Y-112076406D01*
X212610330Y-112173360D01*
X212619179Y-112182037D01*
X212810062Y-112369375D01*
X212717723Y-112467665D01*
X212583224Y-112584273D01*
X212402554Y-112706823D01*
X212209705Y-112814004D01*
X212068360Y-112874765D01*
X211862678Y-112925526D01*
X211613244Y-112955839D01*
X211359140Y-112962780D01*
X211142826Y-112944015D01*
X210829608Y-112851006D01*
X210526599Y-112689496D01*
X210251694Y-112473855D01*
X210022787Y-112218455D01*
X209857774Y-111937663D01*
X209841549Y-111899047D01*
X209795211Y-111768097D01*
X209765728Y-111637995D01*
X209749583Y-111483392D01*
X209743261Y-111278937D01*
X209742710Y-111186248D01*
X209743572Y-110978189D01*
X209750465Y-110829360D01*
X209768463Y-110714333D01*
X209802643Y-110607677D01*
X209858079Y-110483961D01*
X209899937Y-110398486D01*
X210088011Y-110089330D01*
X210320504Y-109843410D01*
X210612443Y-109646017D01*
X210729063Y-109586798D01*
X210857395Y-109528452D01*
X210963909Y-109490162D01*
X211072496Y-109467837D01*
X211207047Y-109457384D01*
X211391452Y-109454711D01*
X211498667Y-109454962D01*
X211498667Y-109454962D01*
G37*
X211498667Y-109454962D02*
X211730296Y-109458810D01*
X211900843Y-109470124D01*
X212033781Y-109492099D01*
X212152588Y-109527933D01*
X212215139Y-109552507D01*
X212364391Y-109624710D01*
X212513386Y-109713481D01*
X212643106Y-109805363D01*
X212734537Y-109886902D01*
X212768667Y-109944170D01*
X212741941Y-109994271D01*
X212672576Y-110083928D01*
X212595002Y-110172296D01*
X212421336Y-110360701D01*
X212288085Y-110260853D01*
X212049865Y-110104440D01*
X211826425Y-110010584D01*
X211589407Y-109968986D01*
X211472278Y-109964578D01*
X211297896Y-109968843D01*
X211172467Y-109989395D01*
X211060618Y-110034951D01*
X210967142Y-110089050D01*
X210731276Y-110281720D01*
X210553917Y-110523116D01*
X210437433Y-110798585D01*
X210384194Y-111093471D01*
X210396570Y-111393120D01*
X210476930Y-111682877D01*
X210627644Y-111948088D01*
X210659916Y-111989052D01*
X210860626Y-112169163D01*
X211107082Y-112290623D01*
X211380925Y-112350086D01*
X211663795Y-112344210D01*
X211937333Y-112269648D01*
X212011284Y-112235220D01*
X212152153Y-112160584D01*
X212275262Y-112091708D01*
X212333898Y-112056236D01*
X212389816Y-112027009D01*
X212440672Y-112030677D01*
X212507248Y-112076406D01*
X212610330Y-112173360D01*
X212619179Y-112182037D01*
X212810062Y-112369375D01*
X212717723Y-112467665D01*
X212583224Y-112584273D01*
X212402554Y-112706823D01*
X212209705Y-112814004D01*
X212068360Y-112874765D01*
X211862678Y-112925526D01*
X211613244Y-112955839D01*
X211359140Y-112962780D01*
X211142826Y-112944015D01*
X210829608Y-112851006D01*
X210526599Y-112689496D01*
X210251694Y-112473855D01*
X210022787Y-112218455D01*
X209857774Y-111937663D01*
X209841549Y-111899047D01*
X209795211Y-111768097D01*
X209765728Y-111637995D01*
X209749583Y-111483392D01*
X209743261Y-111278937D01*
X209742710Y-111186248D01*
X209743572Y-110978189D01*
X209750465Y-110829360D01*
X209768463Y-110714333D01*
X209802643Y-110607677D01*
X209858079Y-110483961D01*
X209899937Y-110398486D01*
X210088011Y-110089330D01*
X210320504Y-109843410D01*
X210612443Y-109646017D01*
X210729063Y-109586798D01*
X210857395Y-109528452D01*
X210963909Y-109490162D01*
X211072496Y-109467837D01*
X211207047Y-109457384D01*
X211391452Y-109454711D01*
X211498667Y-109454962D01*
G36*
X200195667Y-114681000D02*
G01*
X182500334Y-114681000D01*
X182500334Y-112860667D01*
X184659334Y-112860667D01*
X185252000Y-112860667D01*
X185252000Y-110426849D01*
X185781504Y-111220425D01*
X185935178Y-111448667D01*
X186074110Y-111651081D01*
X186191242Y-111817702D01*
X186279513Y-111938565D01*
X186331867Y-112003705D01*
X186342420Y-112012264D01*
X186374114Y-111978156D01*
X186445539Y-111883561D01*
X186549560Y-111738505D01*
X186679045Y-111553015D01*
X186826857Y-111337115D01*
X186903000Y-111224471D01*
X187432167Y-110438415D01*
X187443399Y-111649541D01*
X187454632Y-112860667D01*
X188046000Y-112860667D01*
X188046000Y-110871000D01*
X188892667Y-110871000D01*
X188892667Y-112860667D01*
X191390334Y-112860667D01*
X191390334Y-112310334D01*
X189485334Y-112310334D01*
X189485334Y-111421334D01*
X191178667Y-111421334D01*
X191178667Y-110871000D01*
X188892667Y-110871000D01*
X188046000Y-110871000D01*
X188046000Y-109474000D01*
X188892667Y-109474000D01*
X188892667Y-110024334D01*
X191432667Y-110024334D01*
X191432667Y-109474000D01*
X191898334Y-109474000D01*
X191898334Y-110024334D01*
X192956667Y-110024334D01*
X192956667Y-112860667D01*
X193591667Y-112860667D01*
X194989734Y-112860667D01*
X195608891Y-112860667D01*
X196177196Y-111507847D01*
X196330922Y-111143286D01*
X196455905Y-110850561D01*
X196555326Y-110623094D01*
X196632369Y-110454305D01*
X196690215Y-110337615D01*
X196732046Y-110266443D01*
X196761045Y-110234211D01*
X196780394Y-110234339D01*
X196787834Y-110245294D01*
X196814277Y-110305415D01*
X196869339Y-110433414D01*
X196948707Y-110619168D01*
X197048068Y-110852556D01*
X197163111Y-111123454D01*
X197289523Y-111421742D01*
X197359678Y-111587531D01*
X197889189Y-112839500D01*
X198195761Y-112851938D01*
X198344476Y-112853385D01*
X198453427Y-112845702D01*
X198501625Y-112830522D01*
X198502334Y-112828079D01*
X198485862Y-112782815D01*
X198438773Y-112668192D01*
X198364553Y-112492341D01*
X198266687Y-112263397D01*
X198148663Y-111989494D01*
X198013966Y-111678764D01*
X197866083Y-111339342D01*
X197771165Y-111122307D01*
X197039996Y-109452834D01*
X196765748Y-109440639D01*
X196491500Y-109428445D01*
X195848268Y-110901139D01*
X195698929Y-111242974D01*
X195556067Y-111569831D01*
X195424228Y-111871319D01*
X195307961Y-112137046D01*
X195211810Y-112356621D01*
X195140324Y-112519653D01*
X195098049Y-112615749D01*
X195097385Y-112617250D01*
X194989734Y-112860667D01*
X193591667Y-112860667D01*
X193591667Y-110024334D01*
X194650000Y-110024334D01*
X194650000Y-109474000D01*
X191898334Y-109474000D01*
X191432667Y-109474000D01*
X188892667Y-109474000D01*
X188046000Y-109474000D01*
X187717917Y-109474528D01*
X187389834Y-109475055D01*
X186884877Y-110258621D01*
X186700962Y-110540144D01*
X186556931Y-110751701D01*
X186450301Y-110896630D01*
X186378588Y-110978269D01*
X186339309Y-110999956D01*
X186335229Y-110997496D01*
X186299478Y-110949669D01*
X186225557Y-110842045D01*
X186121097Y-110686040D01*
X185993726Y-110493068D01*
X185851072Y-110274544D01*
X185818273Y-110223986D01*
X185346008Y-109495167D01*
X185002671Y-109482871D01*
X184659334Y-109470576D01*
X184659334Y-112860667D01*
X182500334Y-112860667D01*
X182500334Y-107611334D01*
X200195667Y-107611334D01*
X200195667Y-114681000D01*
X200195667Y-114681000D01*
G37*
X200195667Y-114681000D02*
X182500334Y-114681000D01*
X182500334Y-112860667D01*
X184659334Y-112860667D01*
X185252000Y-112860667D01*
X185252000Y-110426849D01*
X185781504Y-111220425D01*
X185935178Y-111448667D01*
X186074110Y-111651081D01*
X186191242Y-111817702D01*
X186279513Y-111938565D01*
X186331867Y-112003705D01*
X186342420Y-112012264D01*
X186374114Y-111978156D01*
X186445539Y-111883561D01*
X186549560Y-111738505D01*
X186679045Y-111553015D01*
X186826857Y-111337115D01*
X186903000Y-111224471D01*
X187432167Y-110438415D01*
X187443399Y-111649541D01*
X187454632Y-112860667D01*
X188046000Y-112860667D01*
X188046000Y-110871000D01*
X188892667Y-110871000D01*
X188892667Y-112860667D01*
X191390334Y-112860667D01*
X191390334Y-112310334D01*
X189485334Y-112310334D01*
X189485334Y-111421334D01*
X191178667Y-111421334D01*
X191178667Y-110871000D01*
X188892667Y-110871000D01*
X188046000Y-110871000D01*
X188046000Y-109474000D01*
X188892667Y-109474000D01*
X188892667Y-110024334D01*
X191432667Y-110024334D01*
X191432667Y-109474000D01*
X191898334Y-109474000D01*
X191898334Y-110024334D01*
X192956667Y-110024334D01*
X192956667Y-112860667D01*
X193591667Y-112860667D01*
X194989734Y-112860667D01*
X195608891Y-112860667D01*
X196177196Y-111507847D01*
X196330922Y-111143286D01*
X196455905Y-110850561D01*
X196555326Y-110623094D01*
X196632369Y-110454305D01*
X196690215Y-110337615D01*
X196732046Y-110266443D01*
X196761045Y-110234211D01*
X196780394Y-110234339D01*
X196787834Y-110245294D01*
X196814277Y-110305415D01*
X196869339Y-110433414D01*
X196948707Y-110619168D01*
X197048068Y-110852556D01*
X197163111Y-111123454D01*
X197289523Y-111421742D01*
X197359678Y-111587531D01*
X197889189Y-112839500D01*
X198195761Y-112851938D01*
X198344476Y-112853385D01*
X198453427Y-112845702D01*
X198501625Y-112830522D01*
X198502334Y-112828079D01*
X198485862Y-112782815D01*
X198438773Y-112668192D01*
X198364553Y-112492341D01*
X198266687Y-112263397D01*
X198148663Y-111989494D01*
X198013966Y-111678764D01*
X197866083Y-111339342D01*
X197771165Y-111122307D01*
X197039996Y-109452834D01*
X196765748Y-109440639D01*
X196491500Y-109428445D01*
X195848268Y-110901139D01*
X195698929Y-111242974D01*
X195556067Y-111569831D01*
X195424228Y-111871319D01*
X195307961Y-112137046D01*
X195211810Y-112356621D01*
X195140324Y-112519653D01*
X195098049Y-112615749D01*
X195097385Y-112617250D01*
X194989734Y-112860667D01*
X193591667Y-112860667D01*
X193591667Y-110024334D01*
X194650000Y-110024334D01*
X194650000Y-109474000D01*
X191898334Y-109474000D01*
X191432667Y-109474000D01*
X188892667Y-109474000D01*
X188046000Y-109474000D01*
X187717917Y-109474528D01*
X187389834Y-109475055D01*
X186884877Y-110258621D01*
X186700962Y-110540144D01*
X186556931Y-110751701D01*
X186450301Y-110896630D01*
X186378588Y-110978269D01*
X186339309Y-110999956D01*
X186335229Y-110997496D01*
X186299478Y-110949669D01*
X186225557Y-110842045D01*
X186121097Y-110686040D01*
X185993726Y-110493068D01*
X185851072Y-110274544D01*
X185818273Y-110223986D01*
X185346008Y-109495167D01*
X185002671Y-109482871D01*
X184659334Y-109470576D01*
X184659334Y-112860667D01*
X182500334Y-112860667D01*
X182500334Y-107611334D01*
X200195667Y-107611334D01*
X200195667Y-114681000D01*
D12*
X318500000Y-25340000D02*
X315615000Y-25340000D01*
X315615000Y-25340000D02*
X315615000Y-27160000D01*
X315615000Y-27160000D02*
X318500000Y-27160000D01*
D10*
X316380952Y-22702380D02*
X315904761Y-22702380D01*
X315904761Y-21702380D01*
X316714285Y-22178571D02*
X317047619Y-22178571D01*
X317190476Y-22702380D02*
X316714285Y-22702380D01*
X316714285Y-21702380D01*
X317190476Y-21702380D01*
X317619047Y-22702380D02*
X317619047Y-21702380D01*
X317857142Y-21702380D01*
X318000000Y-21750000D01*
X318095238Y-21845238D01*
X318142857Y-21940476D01*
X318190476Y-22130952D01*
X318190476Y-22273809D01*
X318142857Y-22464285D01*
X318095238Y-22559523D01*
X318000000Y-22654761D01*
X317857142Y-22702380D01*
X317619047Y-22702380D01*
X319142857Y-22702380D02*
X318571428Y-22702380D01*
X318857142Y-22702380D02*
X318857142Y-21702380D01*
X318761904Y-21845238D01*
X318666666Y-21940476D01*
X318571428Y-21988095D01*
D13*
X149752380Y-104604761D02*
X149371428Y-104604761D01*
X149180952Y-104700000D01*
X149085714Y-104795238D01*
X148895238Y-105080952D01*
X148800000Y-105461904D01*
X148800000Y-106223809D01*
X148895238Y-106414285D01*
X148990476Y-106509523D01*
X149180952Y-106604761D01*
X149561904Y-106604761D01*
X149752380Y-106509523D01*
X149847619Y-106414285D01*
X149942857Y-106223809D01*
X149942857Y-105747619D01*
X149847619Y-105557142D01*
X149752380Y-105461904D01*
X149561904Y-105366666D01*
X149180952Y-105366666D01*
X148990476Y-105461904D01*
X148895238Y-105557142D01*
X148800000Y-105747619D01*
X150800000Y-106414285D02*
X150895238Y-106509523D01*
X150800000Y-106604761D01*
X150704761Y-106509523D01*
X150800000Y-106414285D01*
X150800000Y-106604761D01*
X151657142Y-104795238D02*
X151752380Y-104700000D01*
X151942857Y-104604761D01*
X152419047Y-104604761D01*
X152609523Y-104700000D01*
X152704761Y-104795238D01*
X152800000Y-104985714D01*
X152800000Y-105176190D01*
X152704761Y-105461904D01*
X151561904Y-106604761D01*
X152800000Y-106604761D01*
X154609523Y-104604761D02*
X153657142Y-104604761D01*
X153561904Y-105557142D01*
X153657142Y-105461904D01*
X153847619Y-105366666D01*
X154323809Y-105366666D01*
X154514285Y-105461904D01*
X154609523Y-105557142D01*
X154704761Y-105747619D01*
X154704761Y-106223809D01*
X154609523Y-106414285D01*
X154514285Y-106509523D01*
X154323809Y-106604761D01*
X153847619Y-106604761D01*
X153657142Y-106509523D01*
X153561904Y-106414285D01*
X155561904Y-104604761D02*
X155561904Y-106223809D01*
X155657142Y-106414285D01*
X155752380Y-106509523D01*
X155942857Y-106604761D01*
X156323809Y-106604761D01*
X156514285Y-106509523D01*
X156609523Y-106414285D01*
X156704761Y-106223809D01*
X156704761Y-104604761D01*
X163933333Y-106604761D02*
X163552380Y-106604761D01*
X163361904Y-106700000D01*
X163266666Y-106795238D01*
X163076190Y-107080952D01*
X162980952Y-107461904D01*
X162980952Y-108223809D01*
X163076190Y-108414285D01*
X163171428Y-108509523D01*
X163361904Y-108604761D01*
X163742857Y-108604761D01*
X163933333Y-108509523D01*
X164028571Y-108414285D01*
X164123809Y-108223809D01*
X164123809Y-107747619D01*
X164028571Y-107557142D01*
X163933333Y-107461904D01*
X163742857Y-107366666D01*
X163361904Y-107366666D01*
X163171428Y-107461904D01*
X163076190Y-107557142D01*
X162980952Y-107747619D01*
X164980952Y-106604761D02*
X164980952Y-108223809D01*
X165076190Y-108414285D01*
X165171428Y-108509523D01*
X165361904Y-108604761D01*
X165742857Y-108604761D01*
X165933333Y-108509523D01*
X166028571Y-108414285D01*
X166123809Y-108223809D01*
X166123809Y-106604761D01*
M02*
