G04 #@! TF.GenerationSoftware,KiCad,Pcbnew,(5.1.0)-1*
G04 #@! TF.CreationDate,2019-05-22T02:08:41-07:00*
G04 #@! TF.ProjectId,mad cat,6d616420-6361-4742-9e6b-696361645f70,rev?*
G04 #@! TF.SameCoordinates,Original*
G04 #@! TF.FileFunction,Copper,L1,Top*
G04 #@! TF.FilePolarity,Positive*
%FSLAX46Y46*%
G04 Gerber Fmt 4.6, Leading zero omitted, Abs format (unit mm)*
G04 Created by KiCad (PCBNEW (5.1.0)-1) date 2019-05-22 02:08:41*
%MOMM*%
%LPD*%
G04 APERTURE LIST*
%ADD10C,2.000000*%
%ADD11C,0.100000*%
%ADD12R,1.000000X1.000000*%
%ADD13O,1.000000X1.000000*%
%ADD14C,1.000000*%
%ADD15C,4.000000*%
%ADD16C,1.300000*%
%ADD17C,2.250000*%
%ADD18C,1.200000*%
%ADD19C,0.800000*%
%ADD20C,0.508000*%
%ADD21C,0.381000*%
%ADD22C,0.254000*%
%ADD23C,0.250000*%
G04 APERTURE END LIST*
D10*
X344679809Y-65084936D03*
X345929809Y-67250000D03*
D11*
G36*
X345563784Y-68616025D02*
G01*
X344563784Y-66883975D01*
X346295834Y-65883975D01*
X347295834Y-67616025D01*
X345563784Y-68616025D01*
X345563784Y-68616025D01*
G37*
D10*
X347179809Y-69415064D03*
D11*
G36*
X350210018Y-57352398D02*
G01*
X350307511Y-57363614D01*
X350403434Y-57384331D01*
X350496865Y-57414351D01*
X350586904Y-57453384D01*
X350672683Y-57501055D01*
X350753377Y-57556904D01*
X350828207Y-57620393D01*
X350896455Y-57690911D01*
X350957462Y-57767779D01*
X351010641Y-57850257D01*
X351039042Y-57903043D01*
X351039043Y-57903045D01*
X351078571Y-57992868D01*
X351109104Y-58086133D01*
X351130349Y-58181941D01*
X351142100Y-58279370D01*
X351144245Y-58377482D01*
X351136764Y-58475332D01*
X351119727Y-58571977D01*
X351093299Y-58666487D01*
X351057735Y-58757951D01*
X351013378Y-58845489D01*
X350960653Y-58928258D01*
X350900070Y-59005461D01*
X350832211Y-59076353D01*
X350757731Y-59140253D01*
X350644616Y-59216285D01*
X349605385Y-59816285D01*
X349518092Y-59861123D01*
X349426824Y-59897189D01*
X349332461Y-59924136D01*
X349235911Y-59941704D01*
X349138104Y-59949724D01*
X349039982Y-59948118D01*
X348942489Y-59936902D01*
X348846566Y-59916185D01*
X348753135Y-59886165D01*
X348663096Y-59847132D01*
X348577317Y-59799461D01*
X348496623Y-59743612D01*
X348421793Y-59680123D01*
X348353545Y-59609605D01*
X348292538Y-59532737D01*
X348239359Y-59450259D01*
X348210958Y-59397473D01*
X348210957Y-59397471D01*
X348171429Y-59307648D01*
X348140896Y-59214383D01*
X348119651Y-59118575D01*
X348107900Y-59021146D01*
X348105755Y-58923034D01*
X348113236Y-58825184D01*
X348130273Y-58728539D01*
X348156701Y-58634029D01*
X348192265Y-58542565D01*
X348236622Y-58455027D01*
X348289347Y-58372258D01*
X348349930Y-58295055D01*
X348417789Y-58224163D01*
X348492269Y-58160263D01*
X348605384Y-58084231D01*
X349644615Y-57484231D01*
X349731908Y-57439393D01*
X349823176Y-57403327D01*
X349917539Y-57376380D01*
X350014089Y-57358812D01*
X350111896Y-57350792D01*
X350210018Y-57352398D01*
X350210018Y-57352398D01*
G37*
D10*
X349625000Y-58650258D03*
D11*
G36*
X355810018Y-67051882D02*
G01*
X355907511Y-67063098D01*
X356003434Y-67083815D01*
X356096865Y-67113835D01*
X356186904Y-67152868D01*
X356272683Y-67200539D01*
X356353377Y-67256388D01*
X356428207Y-67319877D01*
X356496455Y-67390395D01*
X356557462Y-67467263D01*
X356610641Y-67549741D01*
X356639042Y-67602527D01*
X356639043Y-67602529D01*
X356678571Y-67692352D01*
X356709104Y-67785617D01*
X356730349Y-67881425D01*
X356742100Y-67978854D01*
X356744245Y-68076966D01*
X356736764Y-68174816D01*
X356719727Y-68271461D01*
X356693299Y-68365971D01*
X356657735Y-68457435D01*
X356613378Y-68544973D01*
X356560653Y-68627742D01*
X356500070Y-68704945D01*
X356432211Y-68775837D01*
X356357731Y-68839737D01*
X356244616Y-68915769D01*
X355205385Y-69515769D01*
X355118092Y-69560607D01*
X355026824Y-69596673D01*
X354932461Y-69623620D01*
X354835911Y-69641188D01*
X354738104Y-69649208D01*
X354639982Y-69647602D01*
X354542489Y-69636386D01*
X354446566Y-69615669D01*
X354353135Y-69585649D01*
X354263096Y-69546616D01*
X354177317Y-69498945D01*
X354096623Y-69443096D01*
X354021793Y-69379607D01*
X353953545Y-69309089D01*
X353892538Y-69232221D01*
X353839359Y-69149743D01*
X353810958Y-69096957D01*
X353810957Y-69096955D01*
X353771429Y-69007132D01*
X353740896Y-68913867D01*
X353719651Y-68818059D01*
X353707900Y-68720630D01*
X353705755Y-68622518D01*
X353713236Y-68524668D01*
X353730273Y-68428023D01*
X353756701Y-68333513D01*
X353792265Y-68242049D01*
X353836622Y-68154511D01*
X353889347Y-68071742D01*
X353949930Y-67994539D01*
X354017789Y-67923647D01*
X354092269Y-67859747D01*
X354205384Y-67783715D01*
X355244615Y-67183715D01*
X355331908Y-67138877D01*
X355423176Y-67102811D01*
X355517539Y-67075864D01*
X355614089Y-67058296D01*
X355711896Y-67050276D01*
X355810018Y-67051882D01*
X355810018Y-67051882D01*
G37*
D10*
X355225000Y-68349742D03*
X357237178Y-57834936D03*
X359737178Y-62165064D03*
D12*
X2365000Y-20955000D03*
D13*
X3635000Y-20955000D03*
X2365000Y-22225000D03*
X3635000Y-22225000D03*
X2365000Y-23495000D03*
D14*
X3635000Y-23495000D03*
D15*
X5000000Y5000000D03*
X356950000Y-132000000D03*
X5000000Y-132000000D03*
X180975000Y-132000000D03*
X92987500Y-132000000D03*
X268962500Y-132000000D03*
X356950000Y5000000D03*
X268962500Y5000000D03*
X180975000Y5000000D03*
X92987500Y5000000D03*
D10*
X11109936Y-17270191D03*
X13275000Y-16020191D03*
D11*
G36*
X14641025Y-16386216D02*
G01*
X12908975Y-17386216D01*
X11908975Y-15654166D01*
X13641025Y-14654166D01*
X14641025Y-16386216D01*
X14641025Y-16386216D01*
G37*
D10*
X15440064Y-14770191D03*
D11*
G36*
X4500332Y-10813236D02*
G01*
X4596977Y-10830273D01*
X4691487Y-10856701D01*
X4782951Y-10892265D01*
X4870489Y-10936622D01*
X4953258Y-10989347D01*
X5030461Y-11049930D01*
X5101353Y-11117789D01*
X5165253Y-11192269D01*
X5241285Y-11305384D01*
X5841285Y-12344615D01*
X5886123Y-12431908D01*
X5922189Y-12523176D01*
X5949136Y-12617539D01*
X5966704Y-12714089D01*
X5974724Y-12811896D01*
X5973118Y-12910018D01*
X5961902Y-13007511D01*
X5941185Y-13103434D01*
X5911165Y-13196865D01*
X5872132Y-13286904D01*
X5824461Y-13372683D01*
X5768612Y-13453377D01*
X5705123Y-13528207D01*
X5634605Y-13596455D01*
X5557737Y-13657462D01*
X5475259Y-13710641D01*
X5422473Y-13739042D01*
X5422471Y-13739043D01*
X5332648Y-13778571D01*
X5239383Y-13809104D01*
X5143575Y-13830349D01*
X5046146Y-13842100D01*
X4948034Y-13844245D01*
X4850184Y-13836764D01*
X4753539Y-13819727D01*
X4659029Y-13793299D01*
X4567565Y-13757735D01*
X4480027Y-13713378D01*
X4397258Y-13660653D01*
X4320055Y-13600070D01*
X4249163Y-13532211D01*
X4185263Y-13457731D01*
X4109231Y-13344616D01*
X3509231Y-12305385D01*
X3464393Y-12218092D01*
X3428327Y-12126824D01*
X3401380Y-12032461D01*
X3383812Y-11935911D01*
X3375792Y-11838104D01*
X3377398Y-11739982D01*
X3388614Y-11642489D01*
X3409331Y-11546566D01*
X3439351Y-11453135D01*
X3478384Y-11363096D01*
X3526055Y-11277317D01*
X3581904Y-11196623D01*
X3645393Y-11121793D01*
X3715911Y-11053545D01*
X3792779Y-10992538D01*
X3875257Y-10939359D01*
X3928043Y-10910958D01*
X3928045Y-10910957D01*
X4017868Y-10871429D01*
X4111133Y-10840896D01*
X4206941Y-10819651D01*
X4304370Y-10807900D01*
X4402482Y-10805755D01*
X4500332Y-10813236D01*
X4500332Y-10813236D01*
G37*
D10*
X4675258Y-12325000D03*
D11*
G36*
X14199816Y-5213236D02*
G01*
X14296461Y-5230273D01*
X14390971Y-5256701D01*
X14482435Y-5292265D01*
X14569973Y-5336622D01*
X14652742Y-5389347D01*
X14729945Y-5449930D01*
X14800837Y-5517789D01*
X14864737Y-5592269D01*
X14940769Y-5705384D01*
X15540769Y-6744615D01*
X15585607Y-6831908D01*
X15621673Y-6923176D01*
X15648620Y-7017539D01*
X15666188Y-7114089D01*
X15674208Y-7211896D01*
X15672602Y-7310018D01*
X15661386Y-7407511D01*
X15640669Y-7503434D01*
X15610649Y-7596865D01*
X15571616Y-7686904D01*
X15523945Y-7772683D01*
X15468096Y-7853377D01*
X15404607Y-7928207D01*
X15334089Y-7996455D01*
X15257221Y-8057462D01*
X15174743Y-8110641D01*
X15121957Y-8139042D01*
X15121955Y-8139043D01*
X15032132Y-8178571D01*
X14938867Y-8209104D01*
X14843059Y-8230349D01*
X14745630Y-8242100D01*
X14647518Y-8244245D01*
X14549668Y-8236764D01*
X14453023Y-8219727D01*
X14358513Y-8193299D01*
X14267049Y-8157735D01*
X14179511Y-8113378D01*
X14096742Y-8060653D01*
X14019539Y-8000070D01*
X13948647Y-7932211D01*
X13884747Y-7857731D01*
X13808715Y-7744616D01*
X13208715Y-6705385D01*
X13163877Y-6618092D01*
X13127811Y-6526824D01*
X13100864Y-6432461D01*
X13083296Y-6335911D01*
X13075276Y-6238104D01*
X13076882Y-6139982D01*
X13088098Y-6042489D01*
X13108815Y-5946566D01*
X13138835Y-5853135D01*
X13177868Y-5763096D01*
X13225539Y-5677317D01*
X13281388Y-5596623D01*
X13344877Y-5521793D01*
X13415395Y-5453545D01*
X13492263Y-5392538D01*
X13574741Y-5339359D01*
X13627527Y-5310958D01*
X13627529Y-5310957D01*
X13717352Y-5271429D01*
X13810617Y-5240896D01*
X13906425Y-5219651D01*
X14003854Y-5207900D01*
X14101966Y-5205755D01*
X14199816Y-5213236D01*
X14199816Y-5213236D01*
G37*
D10*
X14374742Y-6725000D03*
X3859936Y-4712822D03*
X8190064Y-2212822D03*
X346684237Y-54889594D03*
X345627692Y-57155363D03*
D11*
G36*
X344298766Y-57639053D02*
G01*
X345144002Y-55826437D01*
X346956618Y-56671673D01*
X346111382Y-58484289D01*
X344298766Y-57639053D01*
X344298766Y-57639053D01*
G37*
D10*
X344571146Y-59421133D03*
D11*
G36*
X354318767Y-53998620D02*
G01*
X354416196Y-54010371D01*
X354512004Y-54031616D01*
X354605269Y-54062149D01*
X354670496Y-54089796D01*
X355758065Y-54596938D01*
X355844864Y-54642726D01*
X355926757Y-54696802D01*
X356002955Y-54758643D01*
X356072724Y-54827656D01*
X356135394Y-54903175D01*
X356190359Y-54984473D01*
X356237091Y-55070767D01*
X356275140Y-55161226D01*
X356304139Y-55254979D01*
X356323809Y-55351123D01*
X356333960Y-55448732D01*
X356334495Y-55546866D01*
X356325409Y-55644579D01*
X356306789Y-55740932D01*
X356278814Y-55834996D01*
X356229874Y-55950460D01*
X356229873Y-55950462D01*
X356181732Y-56035977D01*
X356125440Y-56116363D01*
X356061540Y-56190843D01*
X355990648Y-56258702D01*
X355913445Y-56319285D01*
X355830676Y-56372010D01*
X355743138Y-56416367D01*
X355651674Y-56451931D01*
X355557164Y-56478359D01*
X355460519Y-56495396D01*
X355362669Y-56502877D01*
X355264557Y-56500732D01*
X355167128Y-56488981D01*
X355071320Y-56467736D01*
X354978055Y-56437203D01*
X354912828Y-56409556D01*
X353825259Y-55902414D01*
X353738460Y-55856626D01*
X353656567Y-55802550D01*
X353580369Y-55740709D01*
X353510600Y-55671696D01*
X353447930Y-55596177D01*
X353392965Y-55514879D01*
X353346233Y-55428585D01*
X353308184Y-55338126D01*
X353279185Y-55244373D01*
X353259515Y-55148229D01*
X353249364Y-55050620D01*
X353248829Y-54952486D01*
X353257915Y-54854773D01*
X353276535Y-54758420D01*
X353304510Y-54664356D01*
X353353450Y-54548892D01*
X353353451Y-54548890D01*
X353401592Y-54463375D01*
X353457884Y-54382989D01*
X353521784Y-54308509D01*
X353592676Y-54240650D01*
X353669879Y-54180067D01*
X353752648Y-54127342D01*
X353840186Y-54082985D01*
X353931650Y-54047421D01*
X354026160Y-54020993D01*
X354122805Y-54003956D01*
X354220655Y-53996475D01*
X354318767Y-53998620D01*
X354318767Y-53998620D01*
G37*
D10*
X354791662Y-55249676D03*
D11*
G36*
X349585443Y-64149268D02*
G01*
X349682872Y-64161019D01*
X349778680Y-64182264D01*
X349871945Y-64212797D01*
X349937172Y-64240444D01*
X351024741Y-64747586D01*
X351111540Y-64793374D01*
X351193433Y-64847450D01*
X351269631Y-64909291D01*
X351339400Y-64978304D01*
X351402070Y-65053823D01*
X351457035Y-65135121D01*
X351503767Y-65221415D01*
X351541816Y-65311874D01*
X351570815Y-65405627D01*
X351590485Y-65501771D01*
X351600636Y-65599380D01*
X351601171Y-65697514D01*
X351592085Y-65795227D01*
X351573465Y-65891580D01*
X351545490Y-65985644D01*
X351496550Y-66101108D01*
X351496549Y-66101110D01*
X351448408Y-66186625D01*
X351392116Y-66267011D01*
X351328216Y-66341491D01*
X351257324Y-66409350D01*
X351180121Y-66469933D01*
X351097352Y-66522658D01*
X351009814Y-66567015D01*
X350918350Y-66602579D01*
X350823840Y-66629007D01*
X350727195Y-66646044D01*
X350629345Y-66653525D01*
X350531233Y-66651380D01*
X350433804Y-66639629D01*
X350337996Y-66618384D01*
X350244731Y-66587851D01*
X350179504Y-66560204D01*
X349091935Y-66053062D01*
X349005136Y-66007274D01*
X348923243Y-65953198D01*
X348847045Y-65891357D01*
X348777276Y-65822344D01*
X348714606Y-65746825D01*
X348659641Y-65665527D01*
X348612909Y-65579233D01*
X348574860Y-65488774D01*
X348545861Y-65395021D01*
X348526191Y-65298877D01*
X348516040Y-65201268D01*
X348515505Y-65103134D01*
X348524591Y-65005421D01*
X348543211Y-64909068D01*
X348571186Y-64815004D01*
X348620126Y-64699540D01*
X348620127Y-64699538D01*
X348668268Y-64614023D01*
X348724560Y-64533637D01*
X348788460Y-64459157D01*
X348859352Y-64391298D01*
X348936555Y-64330715D01*
X349019324Y-64277990D01*
X349106862Y-64233633D01*
X349198326Y-64198069D01*
X349292836Y-64171641D01*
X349389481Y-64154604D01*
X349487331Y-64147123D01*
X349585443Y-64149268D01*
X349585443Y-64149268D01*
G37*
D10*
X350058338Y-65400324D03*
X359825700Y-61017558D03*
X357712609Y-65549097D03*
D11*
G36*
X316974504Y-24751204D02*
G01*
X316998773Y-24754804D01*
X317022571Y-24760765D01*
X317045671Y-24769030D01*
X317067849Y-24779520D01*
X317088893Y-24792133D01*
X317108598Y-24806747D01*
X317126777Y-24823223D01*
X317143253Y-24841402D01*
X317157867Y-24861107D01*
X317170480Y-24882151D01*
X317180970Y-24904329D01*
X317189235Y-24927429D01*
X317195196Y-24951227D01*
X317198796Y-24975496D01*
X317200000Y-25000000D01*
X317200000Y-25800000D01*
X317198796Y-25824504D01*
X317195196Y-25848773D01*
X317189235Y-25872571D01*
X317180970Y-25895671D01*
X317170480Y-25917849D01*
X317157867Y-25938893D01*
X317143253Y-25958598D01*
X317126777Y-25976777D01*
X317108598Y-25993253D01*
X317088893Y-26007867D01*
X317067849Y-26020480D01*
X317045671Y-26030970D01*
X317022571Y-26039235D01*
X316998773Y-26045196D01*
X316974504Y-26048796D01*
X316950000Y-26050000D01*
X316125000Y-26050000D01*
X316100496Y-26048796D01*
X316076227Y-26045196D01*
X316052429Y-26039235D01*
X316029329Y-26030970D01*
X316007151Y-26020480D01*
X315986107Y-26007867D01*
X315966402Y-25993253D01*
X315948223Y-25976777D01*
X315931747Y-25958598D01*
X315917133Y-25938893D01*
X315904520Y-25917849D01*
X315894030Y-25895671D01*
X315885765Y-25872571D01*
X315879804Y-25848773D01*
X315876204Y-25824504D01*
X315875000Y-25800000D01*
X315875000Y-25000000D01*
X315876204Y-24975496D01*
X315879804Y-24951227D01*
X315885765Y-24927429D01*
X315894030Y-24904329D01*
X315904520Y-24882151D01*
X315917133Y-24861107D01*
X315931747Y-24841402D01*
X315948223Y-24823223D01*
X315966402Y-24806747D01*
X315986107Y-24792133D01*
X316007151Y-24779520D01*
X316029329Y-24769030D01*
X316052429Y-24760765D01*
X316076227Y-24754804D01*
X316100496Y-24751204D01*
X316125000Y-24750000D01*
X316950000Y-24750000D01*
X316974504Y-24751204D01*
X316974504Y-24751204D01*
G37*
D16*
X316537500Y-25400000D03*
D11*
G36*
X318899504Y-24751204D02*
G01*
X318923773Y-24754804D01*
X318947571Y-24760765D01*
X318970671Y-24769030D01*
X318992849Y-24779520D01*
X319013893Y-24792133D01*
X319033598Y-24806747D01*
X319051777Y-24823223D01*
X319068253Y-24841402D01*
X319082867Y-24861107D01*
X319095480Y-24882151D01*
X319105970Y-24904329D01*
X319114235Y-24927429D01*
X319120196Y-24951227D01*
X319123796Y-24975496D01*
X319125000Y-25000000D01*
X319125000Y-25800000D01*
X319123796Y-25824504D01*
X319120196Y-25848773D01*
X319114235Y-25872571D01*
X319105970Y-25895671D01*
X319095480Y-25917849D01*
X319082867Y-25938893D01*
X319068253Y-25958598D01*
X319051777Y-25976777D01*
X319033598Y-25993253D01*
X319013893Y-26007867D01*
X318992849Y-26020480D01*
X318970671Y-26030970D01*
X318947571Y-26039235D01*
X318923773Y-26045196D01*
X318899504Y-26048796D01*
X318875000Y-26050000D01*
X318050000Y-26050000D01*
X318025496Y-26048796D01*
X318001227Y-26045196D01*
X317977429Y-26039235D01*
X317954329Y-26030970D01*
X317932151Y-26020480D01*
X317911107Y-26007867D01*
X317891402Y-25993253D01*
X317873223Y-25976777D01*
X317856747Y-25958598D01*
X317842133Y-25938893D01*
X317829520Y-25917849D01*
X317819030Y-25895671D01*
X317810765Y-25872571D01*
X317804804Y-25848773D01*
X317801204Y-25824504D01*
X317800000Y-25800000D01*
X317800000Y-25000000D01*
X317801204Y-24975496D01*
X317804804Y-24951227D01*
X317810765Y-24927429D01*
X317819030Y-24904329D01*
X317829520Y-24882151D01*
X317842133Y-24861107D01*
X317856747Y-24841402D01*
X317873223Y-24823223D01*
X317891402Y-24806747D01*
X317911107Y-24792133D01*
X317932151Y-24779520D01*
X317954329Y-24769030D01*
X317977429Y-24760765D01*
X318001227Y-24754804D01*
X318025496Y-24751204D01*
X318050000Y-24750000D01*
X318875000Y-24750000D01*
X318899504Y-24751204D01*
X318899504Y-24751204D01*
G37*
D16*
X318462500Y-25400000D03*
D17*
X316865000Y-4445000D03*
X310515000Y-6985000D03*
X348615000Y-6985000D03*
X354965000Y-4445000D03*
X335915000Y-4445000D03*
X329565000Y-6985000D03*
X148590000Y-4445000D03*
X142240000Y-6985000D03*
X100965000Y-4445000D03*
X94615000Y-6985000D03*
X253365000Y-4445000D03*
X247015000Y-6985000D03*
X272415000Y-4445000D03*
X266065000Y-6985000D03*
X186690000Y-4445000D03*
X180340000Y-6985000D03*
X227965000Y-6985000D03*
X234315000Y-4445000D03*
X62865000Y-4445000D03*
X56515000Y-6985000D03*
X199390000Y-6985000D03*
X205740000Y-4445000D03*
X81915000Y-4445000D03*
X75565000Y-6985000D03*
X161290000Y-6985000D03*
X167640000Y-4445000D03*
X37465000Y-4445000D03*
X31115000Y-6985000D03*
X113665000Y-6985000D03*
X120015000Y-4445000D03*
X12065000Y-4445000D03*
X5715000Y-6985000D03*
X285115000Y-6985000D03*
X291465000Y-4445000D03*
X208915000Y-29845000D03*
X202565000Y-32385000D03*
X56515000Y-29845000D03*
X50165000Y-32385000D03*
X259715000Y-32385000D03*
X266065000Y-29845000D03*
X227965000Y-29845000D03*
X221615000Y-32385000D03*
X107315000Y-32385000D03*
X113665000Y-29845000D03*
X189865000Y-29845000D03*
X183515000Y-32385000D03*
X37465000Y-29845000D03*
X31115000Y-32385000D03*
X69215000Y-32385000D03*
X75565000Y-29845000D03*
X151765000Y-29845000D03*
X145415000Y-32385000D03*
X329565000Y-26035000D03*
X335915000Y-23495000D03*
X12065000Y-29845000D03*
X5715000Y-32385000D03*
X348615000Y-26035000D03*
X354965000Y-23495000D03*
X132715000Y-29845000D03*
X126365000Y-32385000D03*
X88265000Y-32385000D03*
X94615000Y-29845000D03*
X288290000Y-32385000D03*
X294640000Y-29845000D03*
X247015000Y-29845000D03*
X240665000Y-32385000D03*
X164465000Y-32385000D03*
X170815000Y-29845000D03*
X297815000Y-32385000D03*
X304165000Y-29845000D03*
X78740000Y-51435000D03*
X85090000Y-48895000D03*
X231140000Y-51435000D03*
X237490000Y-48895000D03*
X35877500Y-51435000D03*
X42227500Y-48895000D03*
X299402500Y-48895000D03*
X293052500Y-51435000D03*
X193040000Y-51435000D03*
X199390000Y-48895000D03*
X173990000Y-51435000D03*
X180340000Y-48895000D03*
X212090000Y-51435000D03*
X218440000Y-48895000D03*
X275590000Y-48895000D03*
X269240000Y-51435000D03*
X135890000Y-51435000D03*
X142240000Y-48895000D03*
X154940000Y-51435000D03*
X161290000Y-48895000D03*
X250190000Y-51435000D03*
X256540000Y-48895000D03*
X123190000Y-48895000D03*
X116840000Y-51435000D03*
X5715000Y-51435000D03*
X12065000Y-48895000D03*
X104140000Y-48895000D03*
X97790000Y-51435000D03*
X348615000Y-51435000D03*
X354965000Y-48895000D03*
X66040000Y-48895000D03*
X59690000Y-51435000D03*
X108902500Y-67945000D03*
X102552500Y-70485000D03*
X140652500Y-70485000D03*
X147002500Y-67945000D03*
X166052500Y-67945000D03*
X159702500Y-70485000D03*
X5715000Y-70485000D03*
X12065000Y-67945000D03*
X127952500Y-67945000D03*
X121602500Y-70485000D03*
X280352500Y-67945000D03*
X274002500Y-70485000D03*
X254952500Y-70485000D03*
X261302500Y-67945000D03*
X185102500Y-67945000D03*
X178752500Y-70485000D03*
X235902500Y-70485000D03*
X242252500Y-67945000D03*
X38258750Y-70485000D03*
X44608750Y-67945000D03*
X70802500Y-67945000D03*
X64452500Y-70485000D03*
X223202500Y-67945000D03*
X216852500Y-70485000D03*
X357505000Y-85090000D03*
X354965000Y-78740000D03*
X89852500Y-67945000D03*
X83502500Y-70485000D03*
X292258750Y-67945000D03*
X285908750Y-70485000D03*
X329565000Y-59690000D03*
X332105000Y-66040000D03*
X204152500Y-67945000D03*
X197802500Y-70485000D03*
X169227500Y-89535000D03*
X175577500Y-86995000D03*
X323215000Y-95885000D03*
X329565000Y-93345000D03*
X73977500Y-89535000D03*
X80327500Y-86995000D03*
X156527500Y-86995000D03*
X150177500Y-89535000D03*
X43021250Y-89535000D03*
X49371250Y-86995000D03*
X137477500Y-86995000D03*
X131127500Y-89535000D03*
X99377500Y-86995000D03*
X93027500Y-89535000D03*
X5715000Y-89535000D03*
X12065000Y-86995000D03*
X251777500Y-86995000D03*
X245427500Y-89535000D03*
X112077500Y-89535000D03*
X118427500Y-86995000D03*
X188277500Y-89535000D03*
X194627500Y-86995000D03*
X304165000Y-86995000D03*
X297815000Y-89535000D03*
X54927500Y-89535000D03*
X61277500Y-86995000D03*
X232727500Y-86995000D03*
X226377500Y-89535000D03*
X207327500Y-89535000D03*
X213677500Y-86995000D03*
X277971250Y-86995000D03*
X271621250Y-89535000D03*
X304165000Y-114935000D03*
X310515000Y-112395000D03*
X161290000Y-106045000D03*
X154940000Y-108585000D03*
X348615000Y-112395000D03*
X342265000Y-114935000D03*
X323215000Y-114935000D03*
X329565000Y-112395000D03*
X89852500Y-106045000D03*
X83502500Y-108585000D03*
X256540000Y-106045000D03*
X250190000Y-108585000D03*
X226377500Y-108585000D03*
X232727500Y-106045000D03*
X280352500Y-106045000D03*
X274002500Y-108585000D03*
X35877500Y-108585000D03*
X42227500Y-106045000D03*
X59690000Y-108585000D03*
X66040000Y-106045000D03*
X5715000Y-108585000D03*
X12065000Y-106045000D03*
X227965000Y-4445000D03*
X221615000Y-6985000D03*
X247015000Y-4445000D03*
X240665000Y-6985000D03*
X259715000Y-6985000D03*
X266065000Y-4445000D03*
X56515000Y-4445000D03*
X50165000Y-6985000D03*
X75565000Y-4445000D03*
X69215000Y-6985000D03*
X88265000Y-6985000D03*
X94615000Y-4445000D03*
X116840000Y-6985000D03*
X123190000Y-4445000D03*
X142240000Y-4445000D03*
X135890000Y-6985000D03*
X154940000Y-6985000D03*
X161290000Y-4445000D03*
X173990000Y-6985000D03*
X180340000Y-4445000D03*
X202565000Y-6985000D03*
X208915000Y-4445000D03*
X278765000Y-32385000D03*
X285115000Y-29845000D03*
X39846250Y-67945000D03*
X33496250Y-70485000D03*
X304323750Y-66040000D03*
X301783750Y-59690000D03*
X338455000Y-66040000D03*
X335915000Y-59690000D03*
X354965000Y-86995000D03*
X348615000Y-89535000D03*
X39846250Y-86995000D03*
X33496250Y-89535000D03*
X287496250Y-86995000D03*
X281146250Y-89535000D03*
X304165000Y-95885000D03*
X310515000Y-93345000D03*
X335915000Y-86995000D03*
X329565000Y-89535000D03*
X5715000Y-114935000D03*
X12065000Y-112395000D03*
X39846250Y-106045000D03*
X33496250Y-108585000D03*
X261302500Y-106045000D03*
X254952500Y-108585000D03*
X245427500Y-108585000D03*
X251777500Y-106045000D03*
X291465000Y-112395000D03*
X285115000Y-114935000D03*
X357505000Y-110490000D03*
X354965000Y-104140000D03*
X57308750Y-108585000D03*
X63658750Y-106045000D03*
X70802500Y-106045000D03*
X64452500Y-108585000D03*
X81121250Y-108585000D03*
X87471250Y-106045000D03*
X158908750Y-106045000D03*
X152558750Y-108585000D03*
X164465000Y-108585000D03*
X170815000Y-106045000D03*
X151765000Y-106045000D03*
X145415000Y-108585000D03*
X5715000Y-38735000D03*
X12065000Y-36195000D03*
X12065000Y-55245000D03*
X5715000Y-57785000D03*
X5715000Y-76835000D03*
X12065000Y-74295000D03*
X12065000Y-93345000D03*
X5715000Y-95885000D03*
D18*
X114700000Y-118000000D03*
X116455347Y-121805861D03*
X353300000Y-72600000D03*
X344100000Y-34300000D03*
X27500000Y-22200000D03*
X22312810Y-22162810D03*
X117331215Y-106641766D03*
X120237258Y-110500000D03*
X315700000Y-28900000D03*
X323057201Y-18757201D03*
X3300000Y-19300000D03*
X7800000Y-19300000D03*
D14*
X118134314Y-116734314D03*
X121100000Y-119500000D03*
D19*
X23200000Y-26800000D03*
X20000000Y-26800000D03*
D14*
X126300000Y-122500000D03*
X132700000Y-117400000D03*
X129100000Y-104700000D03*
X114700000Y-108200000D03*
D19*
X129000000Y-17900000D03*
X125900000Y-100000000D03*
X29600000Y-16500000D03*
X3000000Y-16600000D03*
X124800000Y-100000000D03*
X127100000Y-44100000D03*
X19500000Y-42000000D03*
X27200000Y-42000000D03*
X130500000Y-101300000D03*
X136500000Y-63400000D03*
X19400000Y-61100000D03*
X32000000Y-60900000D03*
X307400000Y-32400000D03*
X308500000Y-38800000D03*
X130800000Y-100200000D03*
X141300000Y-81700000D03*
X19300000Y-80100000D03*
X29600000Y-80100000D03*
X19400000Y-99200000D03*
X29600000Y-99200000D03*
X19400000Y-118200000D03*
X28500000Y-118100000D03*
X134300000Y-102169800D03*
X142300000Y-111000000D03*
X132800000Y-110200000D03*
X79300000Y-118200000D03*
X24700000Y-29100000D03*
X14579000Y-26400000D03*
X7500000Y-25500000D03*
D14*
X318900000Y-29700000D03*
D19*
X299200000Y-123700000D03*
X175500000Y-99930200D03*
X28200000Y-122000000D03*
X114100000Y-99930200D03*
X301800000Y-124398190D03*
X194700000Y-100000000D03*
X243583262Y-122569350D03*
X122600000Y-100000000D03*
X244500000Y-123000000D03*
X135200000Y-103900000D03*
X123700000Y-100000000D03*
X135800000Y-102900000D03*
X245400000Y-123483770D03*
X116500000Y-116401600D03*
X124300000Y-123700000D03*
X336600000Y-124830200D03*
X348000000Y-75800000D03*
X329500000Y-124830200D03*
X116900000Y-115200000D03*
X123590629Y-124413843D03*
X337700000Y-125000000D03*
X341900000Y-64300000D03*
X26200000Y-122800000D03*
X27200000Y-122400000D03*
X315700000Y-38100000D03*
X315700000Y-106600000D03*
D20*
X114700000Y-118000000D02*
X114700000Y-120050514D01*
X114700000Y-120050514D02*
X116455347Y-121805861D01*
X345929809Y-67250000D02*
X347950000Y-67250000D01*
X347950000Y-67250000D02*
X353300000Y-72600000D01*
X344100000Y-35148528D02*
X344100000Y-34300000D01*
X344100000Y-54424294D02*
X344100000Y-35148528D01*
X345627692Y-55951986D02*
X344100000Y-54424294D01*
X345627692Y-57155363D02*
X345627692Y-55951986D01*
X27500000Y-22200000D02*
X22350000Y-22200000D01*
X22350000Y-22200000D02*
X22312810Y-22162810D01*
X117331215Y-106641766D02*
X120237258Y-109547809D01*
X120237258Y-109547809D02*
X120237258Y-110500000D01*
X316537500Y-28062500D02*
X315700000Y-28900000D01*
X316537500Y-25400000D02*
X316537500Y-28062500D01*
X323057201Y-18880299D02*
X323057201Y-18757201D01*
X316537500Y-25400000D02*
X323057201Y-18880299D01*
X3300000Y-19300000D02*
X7800000Y-19300000D01*
D21*
X118134314Y-116734314D02*
X120900000Y-119500000D01*
X120900000Y-119500000D02*
X121100000Y-119500000D01*
X23200000Y-26800000D02*
X20000000Y-26800000D01*
X124100000Y-122500000D02*
X121100000Y-119500000D01*
X126300000Y-122500000D02*
X124100000Y-122500000D01*
X126799999Y-122999999D02*
X128600001Y-122999999D01*
X126300000Y-122500000D02*
X126799999Y-122999999D01*
X132700000Y-118900000D02*
X128600001Y-122999999D01*
X132700000Y-117400000D02*
X132700000Y-118900000D01*
X129100000Y-104700000D02*
X131400000Y-107000000D01*
X131400000Y-116100000D02*
X132700000Y-117400000D01*
X131400000Y-107000000D02*
X131400000Y-116100000D01*
X118134314Y-116734314D02*
X118134314Y-115134314D01*
X114700000Y-111700000D02*
X114700000Y-108200000D01*
X118134314Y-115134314D02*
X114700000Y-111700000D01*
D22*
X126403408Y-97096592D02*
X123785580Y-94478764D01*
X126403408Y-99496592D02*
X126403408Y-97096592D01*
X123785580Y-94478764D02*
X123785582Y-86521234D01*
X123785582Y-86521234D02*
X128053408Y-82253408D01*
X128053408Y-82253408D02*
X129396199Y-80910617D01*
X129396199Y-80910617D02*
X136042790Y-74264026D01*
X136042790Y-74264026D02*
X136042790Y-64242790D01*
X136042790Y-64242790D02*
X129000000Y-57200000D01*
X129000000Y-57200000D02*
X127557210Y-55757210D01*
X127557210Y-55757210D02*
X127557210Y-45000000D01*
X127557210Y-45000000D02*
X128100000Y-44457210D01*
X128100000Y-44457210D02*
X128100000Y-36900000D01*
X128100000Y-36900000D02*
X127400000Y-36200000D01*
X127400000Y-36200000D02*
X127400000Y-33800000D01*
X127400000Y-33800000D02*
X129000000Y-32200000D01*
X129000000Y-32200000D02*
X129000000Y-17900000D01*
X125900000Y-100000000D02*
X126403408Y-99496592D01*
X3000000Y-16600000D02*
X4400000Y-16600000D01*
X4400000Y-16600000D02*
X8300000Y-12700000D01*
X25800000Y-12700000D02*
X29600000Y-16500000D01*
X8300000Y-12700000D02*
X25800000Y-12700000D01*
X124800000Y-96139776D02*
X123328371Y-94668145D01*
X124800000Y-100000000D02*
X124800000Y-96139776D01*
X123328371Y-94668145D02*
X123328373Y-86331851D01*
X123328373Y-86331851D02*
X128938990Y-80721234D01*
X128938990Y-80721234D02*
X135585580Y-74074644D01*
X135585580Y-74074644D02*
X135585580Y-64432172D01*
X135585580Y-64432172D02*
X127100000Y-55946592D01*
X127100000Y-55946592D02*
X127100000Y-44100000D01*
X19500000Y-42000000D02*
X27200000Y-42000000D01*
X130500000Y-101300000D02*
X129926704Y-100726704D01*
X129926704Y-99973296D02*
X124242790Y-94289382D01*
X129926704Y-100726704D02*
X129926704Y-99973296D01*
X124242791Y-86710617D02*
X129853408Y-81100000D01*
X124242790Y-88157210D02*
X124242791Y-86710617D01*
X124242790Y-94289382D02*
X124242790Y-88157210D01*
X129853408Y-81100000D02*
X136500000Y-74453408D01*
X136500000Y-74453408D02*
X136500000Y-63400000D01*
X19400000Y-61100000D02*
X31800000Y-61100000D01*
X31800000Y-61100000D02*
X32000000Y-60900000D01*
X308500000Y-33500000D02*
X307400000Y-32400000D01*
X308500000Y-38800000D02*
X308500000Y-33500000D01*
X130800000Y-100200000D02*
X124700000Y-94100000D01*
X124700000Y-87700000D02*
X124700000Y-86900000D01*
X124700000Y-94100000D02*
X124700000Y-87700000D01*
X124700000Y-86900000D02*
X129900000Y-81700000D01*
X129900000Y-81700000D02*
X141300000Y-81700000D01*
X19300000Y-80100000D02*
X29600000Y-80100000D01*
X19400000Y-99200000D02*
X29600000Y-99200000D01*
X19400000Y-118200000D02*
X28400000Y-118200000D01*
X28400000Y-118200000D02*
X28500000Y-118100000D01*
X134300000Y-102169800D02*
X134300000Y-104100000D01*
X134300000Y-104100000D02*
X134900000Y-104700000D01*
X135500000Y-104700000D02*
X135842790Y-104357210D01*
X134900000Y-104700000D02*
X135500000Y-104700000D01*
X135842790Y-104357210D02*
X140540618Y-104357210D01*
X140540618Y-104357210D02*
X142300000Y-106116592D01*
X142300000Y-106116592D02*
X142300000Y-111000000D01*
X134300000Y-108700000D02*
X132800000Y-110200000D01*
X134300000Y-104100000D02*
X134300000Y-108700000D01*
X134300000Y-102169800D02*
X123569800Y-102169800D01*
X123569800Y-102169800D02*
X120900000Y-99500000D01*
X120900000Y-99500000D02*
X115700000Y-99500000D01*
X115700000Y-99500000D02*
X114500000Y-100700000D01*
X113700000Y-100700000D02*
X113387410Y-100387410D01*
X114500000Y-100700000D02*
X113700000Y-100700000D01*
X113387410Y-100387410D02*
X104359182Y-100387410D01*
X87101198Y-118200000D02*
X79300000Y-118200000D01*
X104359182Y-100387410D02*
X104359182Y-100942016D01*
X104359182Y-100942016D02*
X87101198Y-118200000D01*
X354965000Y-4445000D02*
X354965000Y-48895000D01*
X359825700Y-53755700D02*
X359825700Y-61017558D01*
X354965000Y-48895000D02*
X359825700Y-53755700D01*
X359737178Y-61106080D02*
X359825700Y-61017558D01*
X359737178Y-62165064D02*
X359737178Y-61106080D01*
X359737178Y-62165064D02*
X359737178Y-66662822D01*
X357505000Y-68895000D02*
X359737178Y-66662822D01*
X357505000Y-85090000D02*
X357505000Y-68895000D01*
X355600000Y-86995000D02*
X354965000Y-86995000D01*
X357505000Y-85090000D02*
X355600000Y-86995000D01*
X354965000Y-86995000D02*
X354965000Y-100865000D01*
X357505000Y-103405000D02*
X357505000Y-110490000D01*
X354965000Y-100865000D02*
X357505000Y-103405000D01*
X350520000Y-110490000D02*
X357505000Y-110490000D01*
X348615000Y-112395000D02*
X350520000Y-110490000D01*
X17279000Y-29100000D02*
X14579000Y-26400000D01*
X24700000Y-29100000D02*
X17279000Y-29100000D01*
X7500000Y-24820000D02*
X3635000Y-20955000D01*
X7500000Y-25500000D02*
X7500000Y-24820000D01*
D21*
X318462500Y-29262500D02*
X318900000Y-29700000D01*
X318462500Y-25400000D02*
X318462500Y-29262500D01*
D22*
X291465000Y-4445000D02*
X304400000Y-17380000D01*
X304400000Y-17380000D02*
X304400000Y-22453408D01*
X304400000Y-22453408D02*
X301953408Y-24900000D01*
X271010000Y-24900000D02*
X266065000Y-29845000D01*
X301953408Y-24900000D02*
X271010000Y-24900000D01*
X266065000Y-39370000D02*
X275590000Y-48895000D01*
X266065000Y-29845000D02*
X266065000Y-39370000D01*
X275590000Y-48895000D02*
X275590000Y-58490000D01*
X280352500Y-63252500D02*
X280352500Y-67945000D01*
X275590000Y-58490000D02*
X280352500Y-63252500D01*
X280352500Y-84613750D02*
X277971250Y-86995000D01*
X280352500Y-67945000D02*
X280352500Y-84613750D01*
X277971250Y-86995000D02*
X287496250Y-86995000D01*
X277971250Y-103663750D02*
X280352500Y-106045000D01*
X277971250Y-86995000D02*
X277971250Y-103663750D01*
X286702500Y-112395000D02*
X291465000Y-112395000D01*
X280352500Y-106045000D02*
X286702500Y-112395000D01*
X299200000Y-120130000D02*
X291465000Y-112395000D01*
X299200000Y-123700000D02*
X299200000Y-120130000D01*
X173990000Y-6985000D02*
X178875000Y-2100000D01*
X184345000Y-2100000D02*
X186690000Y-4445000D01*
X178875000Y-2100000D02*
X184345000Y-2100000D01*
X173990000Y-26670000D02*
X170815000Y-29845000D01*
X173990000Y-6985000D02*
X173990000Y-26670000D01*
X170815000Y-39370000D02*
X180340000Y-48895000D01*
X170815000Y-29845000D02*
X170815000Y-39370000D01*
X180340000Y-63182500D02*
X185102500Y-67945000D01*
X180340000Y-48895000D02*
X180340000Y-63182500D01*
X185102500Y-77470000D02*
X175577500Y-86995000D01*
X185102500Y-67945000D02*
X185102500Y-77470000D01*
X175500000Y-87072500D02*
X175577500Y-86995000D01*
X175500000Y-99930200D02*
X175500000Y-87072500D01*
X28200000Y-122000000D02*
X30400000Y-119800000D01*
X30400000Y-119800000D02*
X41500000Y-119800000D01*
X55255000Y-106045000D02*
X63658750Y-106045000D01*
X41500000Y-119800000D02*
X55255000Y-106045000D01*
X63658750Y-106045000D02*
X66040000Y-106045000D01*
X63658750Y-107791250D02*
X64452500Y-108585000D01*
X63658750Y-106045000D02*
X63658750Y-107791250D01*
X50165000Y-6985000D02*
X55050000Y-2100000D01*
X60520000Y-2100000D02*
X62865000Y-4445000D01*
X55050000Y-2100000D02*
X60520000Y-2100000D01*
X51670000Y-25000000D02*
X56515000Y-29845000D01*
X33266592Y-25000000D02*
X51670000Y-25000000D01*
X48574010Y-6985000D02*
X40759010Y-14800000D01*
X40759010Y-14800000D02*
X34046592Y-14800000D01*
X34046592Y-14800000D02*
X29857210Y-18989382D01*
X29857210Y-18989382D02*
X29857210Y-21590618D01*
X50165000Y-6985000D02*
X48574010Y-6985000D01*
X29857210Y-21590618D02*
X33266592Y-25000000D01*
X56515000Y-39370000D02*
X66040000Y-48895000D01*
X56515000Y-29845000D02*
X56515000Y-39370000D01*
X66040000Y-63182500D02*
X70802500Y-67945000D01*
X66040000Y-48895000D02*
X66040000Y-63182500D01*
X70802500Y-77470000D02*
X61277500Y-86995000D01*
X70802500Y-67945000D02*
X70802500Y-77470000D01*
X61277500Y-103663750D02*
X63658750Y-106045000D01*
X61277500Y-86995000D02*
X61277500Y-103663750D01*
X69215000Y-6985000D02*
X74100000Y-2100000D01*
X79570000Y-2100000D02*
X81915000Y-4445000D01*
X74100000Y-2100000D02*
X79570000Y-2100000D01*
X81915000Y-4445000D02*
X81915000Y-9215000D01*
X81915000Y-9215000D02*
X90700000Y-18000000D01*
X83255000Y-29845000D02*
X90700000Y-22400000D01*
X75565000Y-29845000D02*
X83255000Y-29845000D01*
X90700000Y-18000000D02*
X90700000Y-22400000D01*
X75565000Y-39370000D02*
X85090000Y-48895000D01*
X75565000Y-29845000D02*
X75565000Y-39370000D01*
X85090000Y-63182500D02*
X89852500Y-67945000D01*
X85090000Y-48895000D02*
X85090000Y-63182500D01*
X89852500Y-77470000D02*
X80327500Y-86995000D01*
X89852500Y-67945000D02*
X89852500Y-77470000D01*
X86346251Y-104920001D02*
X87471250Y-106045000D01*
X80111601Y-98685351D02*
X86346251Y-104920001D01*
X80111601Y-87210899D02*
X80111601Y-98685351D01*
X80327500Y-86995000D02*
X80111601Y-87210899D01*
X87471250Y-106045000D02*
X89852500Y-106045000D01*
X89852500Y-106045000D02*
X98055000Y-106045000D01*
X104169800Y-99930200D02*
X114100000Y-99930200D01*
X98055000Y-106045000D02*
X104169800Y-99930200D01*
X316865000Y-4445000D02*
X316865000Y-10635000D01*
X293049010Y-29845000D02*
X285115000Y-29845000D01*
X294640000Y-29845000D02*
X293049010Y-29845000D01*
X294640000Y-44132500D02*
X299402500Y-48895000D01*
X294640000Y-29845000D02*
X294640000Y-44132500D01*
X304323750Y-53816250D02*
X304323750Y-55776250D01*
X299402500Y-48895000D02*
X304323750Y-53816250D01*
X304323750Y-66040000D02*
X304323750Y-55776250D01*
X294913750Y-70600000D02*
X292258750Y-67945000D01*
X301354740Y-70600000D02*
X294913750Y-70600000D01*
X304323750Y-86836250D02*
X304165000Y-86995000D01*
X304323750Y-67630990D02*
X301354740Y-70600000D01*
X304323750Y-67323750D02*
X304323750Y-67630990D01*
X304323750Y-67323750D02*
X304323750Y-86836250D01*
X304323750Y-66040000D02*
X304323750Y-67323750D01*
X304165000Y-86995000D02*
X310515000Y-93345000D01*
X310515000Y-94935990D02*
X310515000Y-112395000D01*
X310515000Y-93345000D02*
X310515000Y-94935990D01*
X310515000Y-112395000D02*
X310515000Y-120485000D01*
X306601810Y-124398190D02*
X301800000Y-124398190D01*
X310515000Y-120485000D02*
X306601810Y-124398190D01*
X297655000Y-29845000D02*
X294640000Y-29845000D01*
X316865000Y-10635000D02*
X297655000Y-29845000D01*
X205740000Y-4445000D02*
X208915000Y-4445000D01*
X189865000Y-29845000D02*
X209900000Y-9810000D01*
X210039999Y-9670001D02*
X209900000Y-9810000D01*
X210039999Y-5569999D02*
X210039999Y-9670001D01*
X208915000Y-4445000D02*
X210039999Y-5569999D01*
X189865000Y-39370000D02*
X199390000Y-48895000D01*
X189865000Y-29845000D02*
X189865000Y-39370000D01*
X199390000Y-63182500D02*
X204152500Y-67945000D01*
X199390000Y-48895000D02*
X199390000Y-63182500D01*
X204152500Y-77470000D02*
X194627500Y-86995000D01*
X204152500Y-67945000D02*
X204152500Y-77470000D01*
X194700000Y-87067500D02*
X194627500Y-86995000D01*
X194700000Y-100000000D02*
X194700000Y-87067500D01*
X221615000Y-6985000D02*
X226500000Y-2100000D01*
X231970000Y-2100000D02*
X234315000Y-4445000D01*
X226500000Y-2100000D02*
X231970000Y-2100000D01*
X221615000Y-17145000D02*
X208915000Y-29845000D01*
X221615000Y-6985000D02*
X221615000Y-17145000D01*
X208915000Y-39370000D02*
X218440000Y-48895000D01*
X208915000Y-29845000D02*
X208915000Y-39370000D01*
X218440000Y-63182500D02*
X223202500Y-67945000D01*
X218440000Y-48895000D02*
X218440000Y-63182500D01*
X223202500Y-77470000D02*
X213677500Y-86995000D01*
X223202500Y-67945000D02*
X223202500Y-77470000D01*
X215268490Y-86995000D02*
X230600000Y-102326510D01*
X213677500Y-86995000D02*
X215268490Y-86995000D01*
X230600000Y-102326510D02*
X230600000Y-106900000D01*
X230600000Y-106900000D02*
X233600000Y-109900000D01*
X233600000Y-112586088D02*
X243583262Y-122569350D01*
X233600000Y-109900000D02*
X233600000Y-112586088D01*
X88265000Y-6985000D02*
X93150000Y-2100000D01*
X98620000Y-2100000D02*
X100965000Y-4445000D01*
X93150000Y-2100000D02*
X98620000Y-2100000D01*
X100965000Y-23495000D02*
X94615000Y-29845000D01*
X100965000Y-4445000D02*
X100965000Y-23495000D01*
X94615000Y-39370000D02*
X104140000Y-48895000D01*
X94615000Y-29845000D02*
X94615000Y-39370000D01*
X104140000Y-63182500D02*
X108902500Y-67945000D01*
X104140000Y-48895000D02*
X104140000Y-63182500D01*
X108902500Y-77470000D02*
X99377500Y-86995000D01*
X108902500Y-67945000D02*
X108902500Y-77470000D01*
X99377500Y-86995000D02*
X107082500Y-94700000D01*
X117300000Y-94700000D02*
X122600000Y-100000000D01*
X107082500Y-94700000D02*
X117300000Y-94700000D01*
X240665000Y-6985000D02*
X245550000Y-2100000D01*
X251020000Y-2100000D02*
X253365000Y-4445000D01*
X245550000Y-2100000D02*
X251020000Y-2100000D01*
X240665000Y-17145000D02*
X227965000Y-29845000D01*
X240665000Y-6985000D02*
X240665000Y-17145000D01*
X227965000Y-39370000D02*
X237490000Y-48895000D01*
X227965000Y-29845000D02*
X227965000Y-39370000D01*
X237490000Y-63182500D02*
X242252500Y-67945000D01*
X237490000Y-48895000D02*
X237490000Y-63182500D01*
X242252500Y-77470000D02*
X232727500Y-86995000D01*
X242252500Y-67945000D02*
X242252500Y-77470000D01*
X232727500Y-88585990D02*
X232727500Y-106045000D01*
X232727500Y-86995000D02*
X232727500Y-88585990D01*
X244500000Y-117817500D02*
X244500000Y-123000000D01*
X232727500Y-106045000D02*
X244500000Y-117817500D01*
X154940000Y-6985000D02*
X159825000Y-2100000D01*
X165295000Y-2100000D02*
X167640000Y-4445000D01*
X159825000Y-2100000D02*
X165295000Y-2100000D01*
X154940000Y-26670000D02*
X151765000Y-29845000D01*
X154940000Y-6985000D02*
X154940000Y-26670000D01*
X151765000Y-39370000D02*
X161290000Y-48895000D01*
X151765000Y-29845000D02*
X151765000Y-39370000D01*
X161290000Y-63182500D02*
X166052500Y-67945000D01*
X161290000Y-48895000D02*
X161290000Y-63182500D01*
X166052500Y-77470000D02*
X156527500Y-86995000D01*
X166052500Y-67945000D02*
X166052500Y-77470000D01*
X156527500Y-103663750D02*
X158908750Y-106045000D01*
X156527500Y-86995000D02*
X156527500Y-103663750D01*
X158908750Y-106045000D02*
X170815000Y-106045000D01*
X150336250Y-103663750D02*
X156527500Y-103663750D01*
X145415000Y-108585000D02*
X150336250Y-103663750D01*
X140730000Y-103900000D02*
X145415000Y-108585000D01*
X135200000Y-103900000D02*
X140730000Y-103900000D01*
X120015000Y-4445000D02*
X123190000Y-4445000D01*
X124314999Y-5569999D02*
X123190000Y-4445000D01*
X113665000Y-29845000D02*
X124314999Y-19195001D01*
X124314999Y-19195001D02*
X124314999Y-5569999D01*
X113665000Y-39370000D02*
X123190000Y-48895000D01*
X113665000Y-29845000D02*
X113665000Y-39370000D01*
X123190000Y-63182500D02*
X127952500Y-67945000D01*
X123190000Y-48895000D02*
X123190000Y-63182500D01*
X127952500Y-77470000D02*
X118427500Y-86995000D01*
X127952500Y-67945000D02*
X127952500Y-77470000D01*
X118427500Y-94727500D02*
X123700000Y-100000000D01*
X118427500Y-86995000D02*
X118427500Y-94727500D01*
X135890000Y-6985000D02*
X140775000Y-2100000D01*
X146245000Y-2100000D02*
X148590000Y-4445000D01*
X140775000Y-2100000D02*
X146245000Y-2100000D01*
X135890000Y-26670000D02*
X132715000Y-29845000D01*
X135890000Y-6985000D02*
X135890000Y-26670000D01*
X132715000Y-39370000D02*
X142240000Y-48895000D01*
X132715000Y-29845000D02*
X132715000Y-39370000D01*
X142240000Y-63182500D02*
X147002500Y-67945000D01*
X142240000Y-48895000D02*
X142240000Y-63182500D01*
X147002500Y-77470000D02*
X137477500Y-86995000D01*
X147002500Y-67945000D02*
X147002500Y-77470000D01*
X137477500Y-101222500D02*
X137477500Y-86995000D01*
X135800000Y-102900000D02*
X137477500Y-101222500D01*
X259715000Y-6985000D02*
X264600000Y-2100000D01*
X270070000Y-2100000D02*
X272415000Y-4445000D01*
X264600000Y-2100000D02*
X270070000Y-2100000D01*
X259715000Y-6985000D02*
X256015000Y-6985000D01*
X256015000Y-6985000D02*
X254000000Y-9000000D01*
X254000000Y-9000000D02*
X254000000Y-15400000D01*
X247015000Y-22385000D02*
X247015000Y-29845000D01*
X254000000Y-15400000D02*
X247015000Y-22385000D01*
X247015000Y-39370000D02*
X256540000Y-48895000D01*
X247015000Y-29845000D02*
X247015000Y-39370000D01*
X256540000Y-63182500D02*
X261302500Y-67945000D01*
X256540000Y-48895000D02*
X256540000Y-63182500D01*
X261302500Y-77470000D02*
X251777500Y-86995000D01*
X261302500Y-67945000D02*
X261302500Y-77470000D01*
X251777500Y-101282500D02*
X256540000Y-106045000D01*
X251777500Y-86995000D02*
X251777500Y-101282500D01*
X254952500Y-107632500D02*
X254952500Y-108585000D01*
X256540000Y-106045000D02*
X254952500Y-107632500D01*
X251777500Y-102235000D02*
X245427500Y-108585000D01*
X251777500Y-101282500D02*
X251777500Y-102235000D01*
X245400000Y-108612500D02*
X245427500Y-108585000D01*
X245400000Y-123483770D02*
X245400000Y-108612500D01*
X116500000Y-116401600D02*
X116500000Y-116967285D01*
X124283643Y-123683643D02*
X124300000Y-123700000D01*
X123216357Y-123683643D02*
X124283643Y-123683643D01*
X116500000Y-116967285D02*
X123216357Y-123683643D01*
X336836500Y-124593700D02*
X336836500Y-96223589D01*
X336600000Y-124830200D02*
X336836500Y-124593700D01*
X336836500Y-96223589D02*
X348571400Y-84488689D01*
X348571400Y-84488689D02*
X348571400Y-76394690D01*
X348571400Y-76394690D02*
X348571400Y-76371400D01*
X348571400Y-76371400D02*
X348000000Y-75800000D01*
X338455000Y-66040000D02*
X338455000Y-47955000D01*
X335915000Y-45415000D02*
X335915000Y-23495000D01*
X338455000Y-47955000D02*
X335915000Y-45415000D01*
X335915000Y-4445000D02*
X335915000Y-23495000D01*
X333695990Y-66040000D02*
X338455000Y-66040000D01*
X332105000Y-66040000D02*
X333695990Y-66040000D01*
X335915000Y-68580000D02*
X338455000Y-66040000D01*
X335915000Y-86995000D02*
X335915000Y-68580000D01*
X329565000Y-112395000D02*
X335915000Y-106045000D01*
X329565000Y-93345000D02*
X335915000Y-99695000D01*
X335915000Y-106045000D02*
X335915000Y-86995000D01*
X329500000Y-112460000D02*
X329565000Y-112395000D01*
X329500000Y-124830200D02*
X329500000Y-112460000D01*
X116620902Y-115200000D02*
X115700000Y-116120902D01*
X116900000Y-115200000D02*
X116620902Y-115200000D01*
X115700000Y-116813877D02*
X116042791Y-117156668D01*
X115700000Y-116120902D02*
X115700000Y-116813877D01*
X116042791Y-117156668D02*
X121743062Y-122856939D01*
X123317639Y-124140853D02*
X123590629Y-124413843D01*
X121743062Y-122856939D02*
X123026975Y-124140853D01*
X123026975Y-124140853D02*
X123317639Y-124140853D01*
X337700000Y-125000000D02*
X337293700Y-124593700D01*
X337293700Y-124593700D02*
X337293700Y-96412969D01*
X337293700Y-96412969D02*
X349028600Y-84678069D01*
X349028600Y-84678069D02*
X349028600Y-76205310D01*
X349028600Y-76205310D02*
X349028600Y-75628600D01*
X349028600Y-75628600D02*
X346600000Y-73200000D01*
X346600000Y-73200000D02*
X343000000Y-73200000D01*
X343000000Y-73200000D02*
X341600000Y-71800000D01*
X341600000Y-71800000D02*
X341600000Y-64600000D01*
X341600000Y-64600000D02*
X341900000Y-64300000D01*
X12065000Y-29845000D02*
X12065000Y-112395000D01*
X22700000Y-126300000D02*
X26200000Y-122800000D01*
X17500000Y-126300000D02*
X22700000Y-126300000D01*
X12065000Y-120865000D02*
X17500000Y-126300000D01*
X12065000Y-112395000D02*
X12065000Y-120865000D01*
X27200000Y-121834315D02*
X27200000Y-122400000D01*
X29691525Y-119342790D02*
X27200000Y-121834315D01*
X41310618Y-119342790D02*
X29691525Y-119342790D01*
X46700000Y-113953408D02*
X41310618Y-119342790D01*
X46700000Y-110517500D02*
X46700000Y-113953408D01*
X42227500Y-106045000D02*
X46700000Y-110517500D01*
X37465000Y-4445000D02*
X37465000Y-10735000D01*
X37465000Y-10735000D02*
X29400000Y-18800000D01*
X29400000Y-21780000D02*
X37465000Y-29845000D01*
X29400000Y-18800000D02*
X29400000Y-21780000D01*
X37465000Y-44132500D02*
X42227500Y-48895000D01*
X37465000Y-29845000D02*
X37465000Y-44132500D01*
X42227500Y-65563750D02*
X44608750Y-67945000D01*
X42227500Y-48895000D02*
X42227500Y-65563750D01*
X38417500Y-65563750D02*
X42227500Y-65563750D01*
X33496250Y-70485000D02*
X38417500Y-65563750D01*
X44608750Y-82232500D02*
X49371250Y-86995000D01*
X44608750Y-67945000D02*
X44608750Y-82232500D01*
X44608750Y-82232500D02*
X39846250Y-86995000D01*
X49371250Y-98901250D02*
X42227500Y-106045000D01*
X49371250Y-86995000D02*
X49371250Y-98901250D01*
X39846250Y-106045000D02*
X42227500Y-106045000D01*
X3635000Y-23495000D02*
X8040000Y-27900000D01*
X29400000Y-23700000D02*
X29400000Y-21780000D01*
X8040000Y-27900000D02*
X12900000Y-27900000D01*
X12900000Y-27900000D02*
X15700000Y-30700000D01*
X15700000Y-30700000D02*
X24600000Y-30700000D01*
X29400000Y-25900000D02*
X29400000Y-23700000D01*
X24600000Y-30700000D02*
X29400000Y-25900000D01*
X346766503Y-55180201D02*
X346580067Y-54993765D01*
X347286828Y-55700526D02*
X346766503Y-55180201D01*
X344679809Y-65084936D02*
X347286828Y-62477917D01*
X347286828Y-62477917D02*
X347286828Y-55700526D01*
D23*
X315700000Y-106034315D02*
X315700000Y-38100000D01*
X315700000Y-106600000D02*
X315700000Y-106034315D01*
M02*
