G04 #@! TF.GenerationSoftware,KiCad,Pcbnew,(5.1.2)-1*
G04 #@! TF.CreationDate,2019-06-14T23:33:35-07:00*
G04 #@! TF.ProjectId,mad cat,6d616420-6361-4742-9e6b-696361645f70,rev?*
G04 #@! TF.SameCoordinates,Original*
G04 #@! TF.FileFunction,Legend,Top*
G04 #@! TF.FilePolarity,Positive*
%FSLAX46Y46*%
G04 Gerber Fmt 4.6, Leading zero omitted, Abs format (unit mm)*
G04 Created by KiCad (PCBNEW (5.1.2)-1) date 2019-06-14 23:33:35*
%MOMM*%
%LPD*%
G04 APERTURE LIST*
%ADD10C,0.120000*%
%ADD11C,0.150000*%
%ADD12C,0.300000*%
G04 APERTURE END LIST*
D10*
X315615000Y-26310000D02*
X318500000Y-26310000D01*
X315615000Y-24490000D02*
X315615000Y-26310000D01*
X318500000Y-24490000D02*
X315615000Y-24490000D01*
D11*
X316380952Y-21852380D02*
X315904761Y-21852380D01*
X315904761Y-20852380D01*
X316714285Y-21328571D02*
X317047619Y-21328571D01*
X317190476Y-21852380D02*
X316714285Y-21852380D01*
X316714285Y-20852380D01*
X317190476Y-20852380D01*
X317619047Y-21852380D02*
X317619047Y-20852380D01*
X317857142Y-20852380D01*
X318000000Y-20900000D01*
X318095238Y-20995238D01*
X318142857Y-21090476D01*
X318190476Y-21280952D01*
X318190476Y-21423809D01*
X318142857Y-21614285D01*
X318095238Y-21709523D01*
X318000000Y-21804761D01*
X317857142Y-21852380D01*
X317619047Y-21852380D01*
X319142857Y-21852380D02*
X318571428Y-21852380D01*
X318857142Y-21852380D02*
X318857142Y-20852380D01*
X318761904Y-20995238D01*
X318666666Y-21090476D01*
X318571428Y-21138095D01*
D12*
X157952380Y-102904761D02*
X157571428Y-102904761D01*
X157380952Y-103000000D01*
X157285714Y-103095238D01*
X157095238Y-103380952D01*
X157000000Y-103761904D01*
X157000000Y-104523809D01*
X157095238Y-104714285D01*
X157190476Y-104809523D01*
X157380952Y-104904761D01*
X157761904Y-104904761D01*
X157952380Y-104809523D01*
X158047619Y-104714285D01*
X158142857Y-104523809D01*
X158142857Y-104047619D01*
X158047619Y-103857142D01*
X157952380Y-103761904D01*
X157761904Y-103666666D01*
X157380952Y-103666666D01*
X157190476Y-103761904D01*
X157095238Y-103857142D01*
X157000000Y-104047619D01*
X159000000Y-104714285D02*
X159095238Y-104809523D01*
X159000000Y-104904761D01*
X158904761Y-104809523D01*
X159000000Y-104714285D01*
X159000000Y-104904761D01*
X159857142Y-103095238D02*
X159952380Y-103000000D01*
X160142857Y-102904761D01*
X160619047Y-102904761D01*
X160809523Y-103000000D01*
X160904761Y-103095238D01*
X161000000Y-103285714D01*
X161000000Y-103476190D01*
X160904761Y-103761904D01*
X159761904Y-104904761D01*
X161000000Y-104904761D01*
X162809523Y-102904761D02*
X161857142Y-102904761D01*
X161761904Y-103857142D01*
X161857142Y-103761904D01*
X162047619Y-103666666D01*
X162523809Y-103666666D01*
X162714285Y-103761904D01*
X162809523Y-103857142D01*
X162904761Y-104047619D01*
X162904761Y-104523809D01*
X162809523Y-104714285D01*
X162714285Y-104809523D01*
X162523809Y-104904761D01*
X162047619Y-104904761D01*
X161857142Y-104809523D01*
X161761904Y-104714285D01*
X163761904Y-102904761D02*
X163761904Y-104523809D01*
X163857142Y-104714285D01*
X163952380Y-104809523D01*
X164142857Y-104904761D01*
X164523809Y-104904761D01*
X164714285Y-104809523D01*
X164809523Y-104714285D01*
X164904761Y-104523809D01*
X164904761Y-102904761D01*
X146785714Y-106404761D02*
X148119047Y-106404761D01*
X147261904Y-108404761D01*
X148880952Y-106404761D02*
X148880952Y-108023809D01*
X148976190Y-108214285D01*
X149071428Y-108309523D01*
X149261904Y-108404761D01*
X149642857Y-108404761D01*
X149833333Y-108309523D01*
X149928571Y-108214285D01*
X150023809Y-108023809D01*
X150023809Y-106404761D01*
X165785714Y-106404761D02*
X167119047Y-106404761D01*
X166261904Y-108404761D01*
X167880952Y-106404761D02*
X167880952Y-108023809D01*
X167976190Y-108214285D01*
X168071428Y-108309523D01*
X168261904Y-108404761D01*
X168642857Y-108404761D01*
X168833333Y-108309523D01*
X168928571Y-108214285D01*
X169023809Y-108023809D01*
X169023809Y-106404761D01*
M02*
