G04 #@! TF.GenerationSoftware,KiCad,Pcbnew,(5.1.2)-1*
G04 #@! TF.CreationDate,2019-06-17T05:48:02-07:00*
G04 #@! TF.ProjectId,mad cat,6d616420-6361-4742-9e6b-696361645f70,rev?*
G04 #@! TF.SameCoordinates,Original*
G04 #@! TF.FileFunction,Legend,Top*
G04 #@! TF.FilePolarity,Positive*
%FSLAX46Y46*%
G04 Gerber Fmt 4.6, Leading zero omitted, Abs format (unit mm)*
G04 Created by KiCad (PCBNEW (5.1.2)-1) date 2019-06-17 05:48:02*
%MOMM*%
%LPD*%
G04 APERTURE LIST*
%ADD10C,0.150000*%
%ADD11C,0.010000*%
%ADD12C,0.120000*%
%ADD13C,0.300000*%
G04 APERTURE END LIST*
D10*
X182835595Y-106852380D02*
X182835595Y-105852380D01*
X183216547Y-105852380D01*
X183311785Y-105900000D01*
X183359404Y-105947619D01*
X183407023Y-106042857D01*
X183407023Y-106185714D01*
X183359404Y-106280952D01*
X183311785Y-106328571D01*
X183216547Y-106376190D01*
X182835595Y-106376190D01*
X183835595Y-106852380D02*
X183835595Y-106185714D01*
X183835595Y-106376190D02*
X183883214Y-106280952D01*
X183930833Y-106233333D01*
X184026071Y-106185714D01*
X184121309Y-106185714D01*
X184597500Y-106852380D02*
X184502261Y-106804761D01*
X184454642Y-106757142D01*
X184407023Y-106661904D01*
X184407023Y-106376190D01*
X184454642Y-106280952D01*
X184502261Y-106233333D01*
X184597500Y-106185714D01*
X184740357Y-106185714D01*
X184835595Y-106233333D01*
X184883214Y-106280952D01*
X184930833Y-106376190D01*
X184930833Y-106661904D01*
X184883214Y-106757142D01*
X184835595Y-106804761D01*
X184740357Y-106852380D01*
X184597500Y-106852380D01*
X185216547Y-106185714D02*
X185597500Y-106185714D01*
X185359404Y-105852380D02*
X185359404Y-106709523D01*
X185407023Y-106804761D01*
X185502261Y-106852380D01*
X185597500Y-106852380D01*
X186073690Y-106852380D02*
X185978452Y-106804761D01*
X185930833Y-106757142D01*
X185883214Y-106661904D01*
X185883214Y-106376190D01*
X185930833Y-106280952D01*
X185978452Y-106233333D01*
X186073690Y-106185714D01*
X186216547Y-106185714D01*
X186311785Y-106233333D01*
X186359404Y-106280952D01*
X186407023Y-106376190D01*
X186407023Y-106661904D01*
X186359404Y-106757142D01*
X186311785Y-106804761D01*
X186216547Y-106852380D01*
X186073690Y-106852380D01*
X187597500Y-106852380D02*
X187597500Y-105852380D01*
X187597500Y-106233333D02*
X187692738Y-106185714D01*
X187883214Y-106185714D01*
X187978452Y-106233333D01*
X188026071Y-106280952D01*
X188073690Y-106376190D01*
X188073690Y-106661904D01*
X188026071Y-106757142D01*
X187978452Y-106804761D01*
X187883214Y-106852380D01*
X187692738Y-106852380D01*
X187597500Y-106804761D01*
X188407023Y-106185714D02*
X188645119Y-106852380D01*
X188883214Y-106185714D02*
X188645119Y-106852380D01*
X188549880Y-107090476D01*
X188502261Y-107138095D01*
X188407023Y-107185714D01*
X190597500Y-106757142D02*
X190549880Y-106804761D01*
X190407023Y-106852380D01*
X190311785Y-106852380D01*
X190168928Y-106804761D01*
X190073690Y-106709523D01*
X190026071Y-106614285D01*
X189978452Y-106423809D01*
X189978452Y-106280952D01*
X190026071Y-106090476D01*
X190073690Y-105995238D01*
X190168928Y-105900000D01*
X190311785Y-105852380D01*
X190407023Y-105852380D01*
X190549880Y-105900000D01*
X190597500Y-105947619D01*
X191026071Y-106852380D02*
X191026071Y-106185714D01*
X191026071Y-106376190D02*
X191073690Y-106280952D01*
X191121309Y-106233333D01*
X191216547Y-106185714D01*
X191311785Y-106185714D01*
X191787976Y-106852380D02*
X191692738Y-106804761D01*
X191645119Y-106757142D01*
X191597500Y-106661904D01*
X191597500Y-106376190D01*
X191645119Y-106280952D01*
X191692738Y-106233333D01*
X191787976Y-106185714D01*
X191930833Y-106185714D01*
X192026071Y-106233333D01*
X192073690Y-106280952D01*
X192121309Y-106376190D01*
X192121309Y-106661904D01*
X192073690Y-106757142D01*
X192026071Y-106804761D01*
X191930833Y-106852380D01*
X191787976Y-106852380D01*
X192549880Y-106852380D02*
X192549880Y-105852380D01*
X192645119Y-106471428D02*
X192930833Y-106852380D01*
X192930833Y-106185714D02*
X192549880Y-106566666D01*
X193216547Y-106185714D02*
X193597500Y-106185714D01*
X193359404Y-105852380D02*
X193359404Y-106709523D01*
X193407023Y-106804761D01*
X193502261Y-106852380D01*
X193597500Y-106852380D01*
X194073690Y-106852380D02*
X193978452Y-106804761D01*
X193930833Y-106757142D01*
X193883214Y-106661904D01*
X193883214Y-106376190D01*
X193930833Y-106280952D01*
X193978452Y-106233333D01*
X194073690Y-106185714D01*
X194216547Y-106185714D01*
X194311785Y-106233333D01*
X194359404Y-106280952D01*
X194407023Y-106376190D01*
X194407023Y-106661904D01*
X194359404Y-106757142D01*
X194311785Y-106804761D01*
X194216547Y-106852380D01*
X194073690Y-106852380D01*
X182792738Y-104252380D02*
X183364166Y-104252380D01*
X183078452Y-105252380D02*
X183078452Y-104252380D01*
X183697500Y-105252380D02*
X183697500Y-104585714D01*
X183697500Y-104252380D02*
X183649880Y-104300000D01*
X183697500Y-104347619D01*
X183745119Y-104300000D01*
X183697500Y-104252380D01*
X183697500Y-104347619D01*
X184173690Y-105252380D02*
X184173690Y-104585714D01*
X184173690Y-104680952D02*
X184221309Y-104633333D01*
X184316547Y-104585714D01*
X184459404Y-104585714D01*
X184554642Y-104633333D01*
X184602261Y-104728571D01*
X184602261Y-105252380D01*
X184602261Y-104728571D02*
X184649880Y-104633333D01*
X184745119Y-104585714D01*
X184887976Y-104585714D01*
X184983214Y-104633333D01*
X185030833Y-104728571D01*
X185030833Y-105252380D01*
X185507023Y-105252380D02*
X185507023Y-104252380D01*
X185507023Y-104633333D02*
X185602261Y-104585714D01*
X185792738Y-104585714D01*
X185887976Y-104633333D01*
X185935595Y-104680952D01*
X185983214Y-104776190D01*
X185983214Y-105061904D01*
X185935595Y-105157142D01*
X185887976Y-105204761D01*
X185792738Y-105252380D01*
X185602261Y-105252380D01*
X185507023Y-105204761D01*
X186792738Y-105204761D02*
X186697500Y-105252380D01*
X186507023Y-105252380D01*
X186411785Y-105204761D01*
X186364166Y-105109523D01*
X186364166Y-104728571D01*
X186411785Y-104633333D01*
X186507023Y-104585714D01*
X186697500Y-104585714D01*
X186792738Y-104633333D01*
X186840357Y-104728571D01*
X186840357Y-104823809D01*
X186364166Y-104919047D01*
X187268928Y-105252380D02*
X187268928Y-104585714D01*
X187268928Y-104776190D02*
X187316547Y-104680952D01*
X187364166Y-104633333D01*
X187459404Y-104585714D01*
X187554642Y-104585714D01*
X188554642Y-104252380D02*
X188792738Y-105252380D01*
X188983214Y-104538095D01*
X189173690Y-105252380D01*
X189411785Y-104252380D01*
X189935595Y-105252380D02*
X189840357Y-105204761D01*
X189792738Y-105157142D01*
X189745119Y-105061904D01*
X189745119Y-104776190D01*
X189792738Y-104680952D01*
X189840357Y-104633333D01*
X189935595Y-104585714D01*
X190078452Y-104585714D01*
X190173690Y-104633333D01*
X190221309Y-104680952D01*
X190268928Y-104776190D01*
X190268928Y-105061904D01*
X190221309Y-105157142D01*
X190173690Y-105204761D01*
X190078452Y-105252380D01*
X189935595Y-105252380D01*
X190840357Y-105252380D02*
X190745119Y-105204761D01*
X190697500Y-105109523D01*
X190697500Y-104252380D01*
X191078452Y-104585714D02*
X191459404Y-104585714D01*
X191221309Y-105252380D02*
X191221309Y-104395238D01*
X191268928Y-104300000D01*
X191364166Y-104252380D01*
X191459404Y-104252380D01*
D11*
G36*
X209370334Y-110024334D02*
G01*
X206830334Y-110024334D01*
X206830334Y-109474000D01*
X209370334Y-109474000D01*
X209370334Y-110024334D01*
X209370334Y-110024334D01*
G37*
X209370334Y-110024334D02*
X206830334Y-110024334D01*
X206830334Y-109474000D01*
X209370334Y-109474000D01*
X209370334Y-110024334D01*
G36*
X216482334Y-112860667D02*
G01*
X215889667Y-112860667D01*
X215889667Y-111421334D01*
X215085334Y-111421334D01*
X215085334Y-110871000D01*
X215889667Y-110871000D01*
X215889667Y-109474000D01*
X216482334Y-109474000D01*
X216482334Y-112860667D01*
X216482334Y-112860667D01*
G37*
X216482334Y-112860667D02*
X215889667Y-112860667D01*
X215889667Y-111421334D01*
X215085334Y-111421334D01*
X215085334Y-110871000D01*
X215889667Y-110871000D01*
X215889667Y-109474000D01*
X216482334Y-109474000D01*
X216482334Y-112860667D01*
G36*
X214238667Y-112860667D02*
G01*
X213646000Y-112860667D01*
X213646000Y-109474000D01*
X214238667Y-109474000D01*
X214238667Y-112860667D01*
X214238667Y-112860667D01*
G37*
X214238667Y-112860667D02*
X213646000Y-112860667D01*
X213646000Y-109474000D01*
X214238667Y-109474000D01*
X214238667Y-112860667D01*
G36*
X209116334Y-111421334D02*
G01*
X207423000Y-111421334D01*
X207423000Y-112310334D01*
X209370334Y-112310334D01*
X209370334Y-112860667D01*
X206830334Y-112860667D01*
X206830334Y-110871000D01*
X209116334Y-110871000D01*
X209116334Y-111421334D01*
X209116334Y-111421334D01*
G37*
X209116334Y-111421334D02*
X207423000Y-111421334D01*
X207423000Y-112310334D01*
X209370334Y-112310334D01*
X209370334Y-112860667D01*
X206830334Y-112860667D01*
X206830334Y-110871000D01*
X209116334Y-110871000D01*
X209116334Y-111421334D01*
G36*
X205941334Y-112860667D02*
G01*
X205348667Y-112860667D01*
X205348235Y-111643584D01*
X205347803Y-110426500D01*
X204829652Y-111220023D01*
X204678751Y-111449089D01*
X204542368Y-111652264D01*
X204427486Y-111819455D01*
X204341093Y-111940570D01*
X204290172Y-112005514D01*
X204280320Y-112013773D01*
X204248664Y-111980240D01*
X204177415Y-111886231D01*
X204073764Y-111741836D01*
X203944900Y-111557147D01*
X203798014Y-111342255D01*
X203729986Y-111241417D01*
X203210834Y-110468834D01*
X203199591Y-111664750D01*
X203188348Y-112860667D01*
X202597000Y-112860667D01*
X202597000Y-109474000D01*
X203259281Y-109474000D01*
X203759798Y-110259476D01*
X203916471Y-110501174D01*
X204053837Y-110704907D01*
X204166128Y-110862657D01*
X204247582Y-110966408D01*
X204292431Y-111008141D01*
X204297715Y-111007552D01*
X204331096Y-110962064D01*
X204402809Y-110856541D01*
X204505423Y-110702184D01*
X204631508Y-110510190D01*
X204773631Y-110291761D01*
X204811880Y-110232659D01*
X205288645Y-109495167D01*
X205614989Y-109482803D01*
X205941334Y-109470439D01*
X205941334Y-112860667D01*
X205941334Y-112860667D01*
G37*
X205941334Y-112860667D02*
X205348667Y-112860667D01*
X205348235Y-111643584D01*
X205347803Y-110426500D01*
X204829652Y-111220023D01*
X204678751Y-111449089D01*
X204542368Y-111652264D01*
X204427486Y-111819455D01*
X204341093Y-111940570D01*
X204290172Y-112005514D01*
X204280320Y-112013773D01*
X204248664Y-111980240D01*
X204177415Y-111886231D01*
X204073764Y-111741836D01*
X203944900Y-111557147D01*
X203798014Y-111342255D01*
X203729986Y-111241417D01*
X203210834Y-110468834D01*
X203199591Y-111664750D01*
X203188348Y-112860667D01*
X202597000Y-112860667D01*
X202597000Y-109474000D01*
X203259281Y-109474000D01*
X203759798Y-110259476D01*
X203916471Y-110501174D01*
X204053837Y-110704907D01*
X204166128Y-110862657D01*
X204247582Y-110966408D01*
X204292431Y-111008141D01*
X204297715Y-111007552D01*
X204331096Y-110962064D01*
X204402809Y-110856541D01*
X204505423Y-110702184D01*
X204631508Y-110510190D01*
X204773631Y-110291761D01*
X204811880Y-110232659D01*
X205288645Y-109495167D01*
X205614989Y-109482803D01*
X205941334Y-109470439D01*
X205941334Y-112860667D01*
G36*
X218677822Y-109431119D02*
G01*
X218866450Y-109469772D01*
X219070634Y-109531470D01*
X219267382Y-109607091D01*
X219433702Y-109687509D01*
X219546605Y-109763600D01*
X219566176Y-109783679D01*
X219581261Y-109834733D01*
X219552542Y-109914561D01*
X219473849Y-110039427D01*
X219463541Y-110054236D01*
X219313839Y-110268083D01*
X219018100Y-110116349D01*
X218730936Y-109996840D01*
X218467551Y-109942602D01*
X218237016Y-109954420D01*
X218049226Y-110032518D01*
X217908662Y-110167112D01*
X217845640Y-110318261D01*
X217860405Y-110472305D01*
X217953205Y-110615584D01*
X218037427Y-110684736D01*
X218140474Y-110736449D01*
X218298278Y-110795493D01*
X218482743Y-110851775D01*
X218553938Y-110870326D01*
X218932489Y-110980836D01*
X219232029Y-111108114D01*
X219457350Y-111256861D01*
X219613241Y-111431779D01*
X219704495Y-111637569D01*
X219735902Y-111878932D01*
X219729811Y-112024111D01*
X219670146Y-112305363D01*
X219544991Y-112534148D01*
X219351003Y-112715498D01*
X219217890Y-112794742D01*
X219081576Y-112858431D01*
X218957265Y-112897931D01*
X218814423Y-112919859D01*
X218622515Y-112930832D01*
X218584300Y-112932040D01*
X218408736Y-112935312D01*
X218264502Y-112934464D01*
X218173131Y-112929782D01*
X218154500Y-112926310D01*
X218092837Y-112906224D01*
X217978107Y-112872381D01*
X217877353Y-112843896D01*
X217752947Y-112798770D01*
X217602936Y-112729176D01*
X217446212Y-112645988D01*
X217301669Y-112560080D01*
X217188199Y-112482326D01*
X217124693Y-112423600D01*
X217117448Y-112406507D01*
X217143150Y-112359253D01*
X217209619Y-112270361D01*
X217280905Y-112184410D01*
X217444248Y-111994987D01*
X217598996Y-112113019D01*
X217890941Y-112290825D01*
X218199012Y-112388157D01*
X218425707Y-112410494D01*
X218692157Y-112394062D01*
X218888994Y-112331946D01*
X219018407Y-112223331D01*
X219045497Y-112179473D01*
X219103883Y-111997916D01*
X219080403Y-111837631D01*
X218975181Y-111698768D01*
X218788339Y-111581477D01*
X218520001Y-111485908D01*
X218463119Y-111471040D01*
X218101772Y-111371122D01*
X217816361Y-111268069D01*
X217598199Y-111156008D01*
X217438600Y-111029067D01*
X217328877Y-110881372D01*
X217260344Y-110707052D01*
X217246477Y-110648491D01*
X217222847Y-110356301D01*
X217273838Y-110092868D01*
X217392559Y-109864052D01*
X217572119Y-109675714D01*
X217805628Y-109533716D01*
X218086194Y-109443917D01*
X218406926Y-109412179D01*
X218677822Y-109431119D01*
X218677822Y-109431119D01*
G37*
X218677822Y-109431119D02*
X218866450Y-109469772D01*
X219070634Y-109531470D01*
X219267382Y-109607091D01*
X219433702Y-109687509D01*
X219546605Y-109763600D01*
X219566176Y-109783679D01*
X219581261Y-109834733D01*
X219552542Y-109914561D01*
X219473849Y-110039427D01*
X219463541Y-110054236D01*
X219313839Y-110268083D01*
X219018100Y-110116349D01*
X218730936Y-109996840D01*
X218467551Y-109942602D01*
X218237016Y-109954420D01*
X218049226Y-110032518D01*
X217908662Y-110167112D01*
X217845640Y-110318261D01*
X217860405Y-110472305D01*
X217953205Y-110615584D01*
X218037427Y-110684736D01*
X218140474Y-110736449D01*
X218298278Y-110795493D01*
X218482743Y-110851775D01*
X218553938Y-110870326D01*
X218932489Y-110980836D01*
X219232029Y-111108114D01*
X219457350Y-111256861D01*
X219613241Y-111431779D01*
X219704495Y-111637569D01*
X219735902Y-111878932D01*
X219729811Y-112024111D01*
X219670146Y-112305363D01*
X219544991Y-112534148D01*
X219351003Y-112715498D01*
X219217890Y-112794742D01*
X219081576Y-112858431D01*
X218957265Y-112897931D01*
X218814423Y-112919859D01*
X218622515Y-112930832D01*
X218584300Y-112932040D01*
X218408736Y-112935312D01*
X218264502Y-112934464D01*
X218173131Y-112929782D01*
X218154500Y-112926310D01*
X218092837Y-112906224D01*
X217978107Y-112872381D01*
X217877353Y-112843896D01*
X217752947Y-112798770D01*
X217602936Y-112729176D01*
X217446212Y-112645988D01*
X217301669Y-112560080D01*
X217188199Y-112482326D01*
X217124693Y-112423600D01*
X217117448Y-112406507D01*
X217143150Y-112359253D01*
X217209619Y-112270361D01*
X217280905Y-112184410D01*
X217444248Y-111994987D01*
X217598996Y-112113019D01*
X217890941Y-112290825D01*
X218199012Y-112388157D01*
X218425707Y-112410494D01*
X218692157Y-112394062D01*
X218888994Y-112331946D01*
X219018407Y-112223331D01*
X219045497Y-112179473D01*
X219103883Y-111997916D01*
X219080403Y-111837631D01*
X218975181Y-111698768D01*
X218788339Y-111581477D01*
X218520001Y-111485908D01*
X218463119Y-111471040D01*
X218101772Y-111371122D01*
X217816361Y-111268069D01*
X217598199Y-111156008D01*
X217438600Y-111029067D01*
X217328877Y-110881372D01*
X217260344Y-110707052D01*
X217246477Y-110648491D01*
X217222847Y-110356301D01*
X217273838Y-110092868D01*
X217392559Y-109864052D01*
X217572119Y-109675714D01*
X217805628Y-109533716D01*
X218086194Y-109443917D01*
X218406926Y-109412179D01*
X218677822Y-109431119D01*
G36*
X211698667Y-109454962D02*
G01*
X211930296Y-109458810D01*
X212100843Y-109470124D01*
X212233781Y-109492099D01*
X212352588Y-109527933D01*
X212415139Y-109552507D01*
X212564391Y-109624710D01*
X212713386Y-109713481D01*
X212843106Y-109805363D01*
X212934537Y-109886902D01*
X212968667Y-109944170D01*
X212941941Y-109994271D01*
X212872576Y-110083928D01*
X212795002Y-110172296D01*
X212621336Y-110360701D01*
X212488085Y-110260853D01*
X212249865Y-110104440D01*
X212026425Y-110010584D01*
X211789407Y-109968986D01*
X211672278Y-109964578D01*
X211497896Y-109968843D01*
X211372467Y-109989395D01*
X211260618Y-110034951D01*
X211167142Y-110089050D01*
X210931276Y-110281720D01*
X210753917Y-110523116D01*
X210637433Y-110798585D01*
X210584194Y-111093471D01*
X210596570Y-111393120D01*
X210676930Y-111682877D01*
X210827644Y-111948088D01*
X210859916Y-111989052D01*
X211060626Y-112169163D01*
X211307082Y-112290623D01*
X211580925Y-112350086D01*
X211863795Y-112344210D01*
X212137333Y-112269648D01*
X212211284Y-112235220D01*
X212352153Y-112160584D01*
X212475262Y-112091708D01*
X212533898Y-112056236D01*
X212589816Y-112027009D01*
X212640672Y-112030677D01*
X212707248Y-112076406D01*
X212810330Y-112173360D01*
X212819179Y-112182037D01*
X213010062Y-112369375D01*
X212917723Y-112467665D01*
X212783224Y-112584273D01*
X212602554Y-112706823D01*
X212409705Y-112814004D01*
X212268360Y-112874765D01*
X212062678Y-112925526D01*
X211813244Y-112955839D01*
X211559140Y-112962780D01*
X211342826Y-112944015D01*
X211029608Y-112851006D01*
X210726599Y-112689496D01*
X210451694Y-112473855D01*
X210222787Y-112218455D01*
X210057774Y-111937663D01*
X210041549Y-111899047D01*
X209995211Y-111768097D01*
X209965728Y-111637995D01*
X209949583Y-111483392D01*
X209943261Y-111278937D01*
X209942710Y-111186248D01*
X209943572Y-110978189D01*
X209950465Y-110829360D01*
X209968463Y-110714333D01*
X210002643Y-110607677D01*
X210058079Y-110483961D01*
X210099937Y-110398486D01*
X210288011Y-110089330D01*
X210520504Y-109843410D01*
X210812443Y-109646017D01*
X210929063Y-109586798D01*
X211057395Y-109528452D01*
X211163909Y-109490162D01*
X211272496Y-109467837D01*
X211407047Y-109457384D01*
X211591452Y-109454711D01*
X211698667Y-109454962D01*
X211698667Y-109454962D01*
G37*
X211698667Y-109454962D02*
X211930296Y-109458810D01*
X212100843Y-109470124D01*
X212233781Y-109492099D01*
X212352588Y-109527933D01*
X212415139Y-109552507D01*
X212564391Y-109624710D01*
X212713386Y-109713481D01*
X212843106Y-109805363D01*
X212934537Y-109886902D01*
X212968667Y-109944170D01*
X212941941Y-109994271D01*
X212872576Y-110083928D01*
X212795002Y-110172296D01*
X212621336Y-110360701D01*
X212488085Y-110260853D01*
X212249865Y-110104440D01*
X212026425Y-110010584D01*
X211789407Y-109968986D01*
X211672278Y-109964578D01*
X211497896Y-109968843D01*
X211372467Y-109989395D01*
X211260618Y-110034951D01*
X211167142Y-110089050D01*
X210931276Y-110281720D01*
X210753917Y-110523116D01*
X210637433Y-110798585D01*
X210584194Y-111093471D01*
X210596570Y-111393120D01*
X210676930Y-111682877D01*
X210827644Y-111948088D01*
X210859916Y-111989052D01*
X211060626Y-112169163D01*
X211307082Y-112290623D01*
X211580925Y-112350086D01*
X211863795Y-112344210D01*
X212137333Y-112269648D01*
X212211284Y-112235220D01*
X212352153Y-112160584D01*
X212475262Y-112091708D01*
X212533898Y-112056236D01*
X212589816Y-112027009D01*
X212640672Y-112030677D01*
X212707248Y-112076406D01*
X212810330Y-112173360D01*
X212819179Y-112182037D01*
X213010062Y-112369375D01*
X212917723Y-112467665D01*
X212783224Y-112584273D01*
X212602554Y-112706823D01*
X212409705Y-112814004D01*
X212268360Y-112874765D01*
X212062678Y-112925526D01*
X211813244Y-112955839D01*
X211559140Y-112962780D01*
X211342826Y-112944015D01*
X211029608Y-112851006D01*
X210726599Y-112689496D01*
X210451694Y-112473855D01*
X210222787Y-112218455D01*
X210057774Y-111937663D01*
X210041549Y-111899047D01*
X209995211Y-111768097D01*
X209965728Y-111637995D01*
X209949583Y-111483392D01*
X209943261Y-111278937D01*
X209942710Y-111186248D01*
X209943572Y-110978189D01*
X209950465Y-110829360D01*
X209968463Y-110714333D01*
X210002643Y-110607677D01*
X210058079Y-110483961D01*
X210099937Y-110398486D01*
X210288011Y-110089330D01*
X210520504Y-109843410D01*
X210812443Y-109646017D01*
X210929063Y-109586798D01*
X211057395Y-109528452D01*
X211163909Y-109490162D01*
X211272496Y-109467837D01*
X211407047Y-109457384D01*
X211591452Y-109454711D01*
X211698667Y-109454962D01*
G36*
X200395667Y-114681000D02*
G01*
X182700334Y-114681000D01*
X182700334Y-112860667D01*
X184859334Y-112860667D01*
X185452000Y-112860667D01*
X185452000Y-110426849D01*
X185981504Y-111220425D01*
X186135178Y-111448667D01*
X186274110Y-111651081D01*
X186391242Y-111817702D01*
X186479513Y-111938565D01*
X186531867Y-112003705D01*
X186542420Y-112012264D01*
X186574114Y-111978156D01*
X186645539Y-111883561D01*
X186749560Y-111738505D01*
X186879045Y-111553015D01*
X187026857Y-111337115D01*
X187103000Y-111224471D01*
X187632167Y-110438415D01*
X187643399Y-111649541D01*
X187654632Y-112860667D01*
X188246000Y-112860667D01*
X188246000Y-110871000D01*
X189092667Y-110871000D01*
X189092667Y-112860667D01*
X191590334Y-112860667D01*
X191590334Y-112310334D01*
X189685334Y-112310334D01*
X189685334Y-111421334D01*
X191378667Y-111421334D01*
X191378667Y-110871000D01*
X189092667Y-110871000D01*
X188246000Y-110871000D01*
X188246000Y-109474000D01*
X189092667Y-109474000D01*
X189092667Y-110024334D01*
X191632667Y-110024334D01*
X191632667Y-109474000D01*
X192098334Y-109474000D01*
X192098334Y-110024334D01*
X193156667Y-110024334D01*
X193156667Y-112860667D01*
X193791667Y-112860667D01*
X195189734Y-112860667D01*
X195808891Y-112860667D01*
X196377196Y-111507847D01*
X196530922Y-111143286D01*
X196655905Y-110850561D01*
X196755326Y-110623094D01*
X196832369Y-110454305D01*
X196890215Y-110337615D01*
X196932046Y-110266443D01*
X196961045Y-110234211D01*
X196980394Y-110234339D01*
X196987834Y-110245294D01*
X197014277Y-110305415D01*
X197069339Y-110433414D01*
X197148707Y-110619168D01*
X197248068Y-110852556D01*
X197363111Y-111123454D01*
X197489523Y-111421742D01*
X197559678Y-111587531D01*
X198089189Y-112839500D01*
X198395761Y-112851938D01*
X198544476Y-112853385D01*
X198653427Y-112845702D01*
X198701625Y-112830522D01*
X198702334Y-112828079D01*
X198685862Y-112782815D01*
X198638773Y-112668192D01*
X198564553Y-112492341D01*
X198466687Y-112263397D01*
X198348663Y-111989494D01*
X198213966Y-111678764D01*
X198066083Y-111339342D01*
X197971165Y-111122307D01*
X197239996Y-109452834D01*
X196965748Y-109440639D01*
X196691500Y-109428445D01*
X196048268Y-110901139D01*
X195898929Y-111242974D01*
X195756067Y-111569831D01*
X195624228Y-111871319D01*
X195507961Y-112137046D01*
X195411810Y-112356621D01*
X195340324Y-112519653D01*
X195298049Y-112615749D01*
X195297385Y-112617250D01*
X195189734Y-112860667D01*
X193791667Y-112860667D01*
X193791667Y-110024334D01*
X194850000Y-110024334D01*
X194850000Y-109474000D01*
X192098334Y-109474000D01*
X191632667Y-109474000D01*
X189092667Y-109474000D01*
X188246000Y-109474000D01*
X187917917Y-109474528D01*
X187589834Y-109475055D01*
X187084877Y-110258621D01*
X186900962Y-110540144D01*
X186756931Y-110751701D01*
X186650301Y-110896630D01*
X186578588Y-110978269D01*
X186539309Y-110999956D01*
X186535229Y-110997496D01*
X186499478Y-110949669D01*
X186425557Y-110842045D01*
X186321097Y-110686040D01*
X186193726Y-110493068D01*
X186051072Y-110274544D01*
X186018273Y-110223986D01*
X185546008Y-109495167D01*
X185202671Y-109482871D01*
X184859334Y-109470576D01*
X184859334Y-112860667D01*
X182700334Y-112860667D01*
X182700334Y-107611334D01*
X200395667Y-107611334D01*
X200395667Y-114681000D01*
X200395667Y-114681000D01*
G37*
X200395667Y-114681000D02*
X182700334Y-114681000D01*
X182700334Y-112860667D01*
X184859334Y-112860667D01*
X185452000Y-112860667D01*
X185452000Y-110426849D01*
X185981504Y-111220425D01*
X186135178Y-111448667D01*
X186274110Y-111651081D01*
X186391242Y-111817702D01*
X186479513Y-111938565D01*
X186531867Y-112003705D01*
X186542420Y-112012264D01*
X186574114Y-111978156D01*
X186645539Y-111883561D01*
X186749560Y-111738505D01*
X186879045Y-111553015D01*
X187026857Y-111337115D01*
X187103000Y-111224471D01*
X187632167Y-110438415D01*
X187643399Y-111649541D01*
X187654632Y-112860667D01*
X188246000Y-112860667D01*
X188246000Y-110871000D01*
X189092667Y-110871000D01*
X189092667Y-112860667D01*
X191590334Y-112860667D01*
X191590334Y-112310334D01*
X189685334Y-112310334D01*
X189685334Y-111421334D01*
X191378667Y-111421334D01*
X191378667Y-110871000D01*
X189092667Y-110871000D01*
X188246000Y-110871000D01*
X188246000Y-109474000D01*
X189092667Y-109474000D01*
X189092667Y-110024334D01*
X191632667Y-110024334D01*
X191632667Y-109474000D01*
X192098334Y-109474000D01*
X192098334Y-110024334D01*
X193156667Y-110024334D01*
X193156667Y-112860667D01*
X193791667Y-112860667D01*
X195189734Y-112860667D01*
X195808891Y-112860667D01*
X196377196Y-111507847D01*
X196530922Y-111143286D01*
X196655905Y-110850561D01*
X196755326Y-110623094D01*
X196832369Y-110454305D01*
X196890215Y-110337615D01*
X196932046Y-110266443D01*
X196961045Y-110234211D01*
X196980394Y-110234339D01*
X196987834Y-110245294D01*
X197014277Y-110305415D01*
X197069339Y-110433414D01*
X197148707Y-110619168D01*
X197248068Y-110852556D01*
X197363111Y-111123454D01*
X197489523Y-111421742D01*
X197559678Y-111587531D01*
X198089189Y-112839500D01*
X198395761Y-112851938D01*
X198544476Y-112853385D01*
X198653427Y-112845702D01*
X198701625Y-112830522D01*
X198702334Y-112828079D01*
X198685862Y-112782815D01*
X198638773Y-112668192D01*
X198564553Y-112492341D01*
X198466687Y-112263397D01*
X198348663Y-111989494D01*
X198213966Y-111678764D01*
X198066083Y-111339342D01*
X197971165Y-111122307D01*
X197239996Y-109452834D01*
X196965748Y-109440639D01*
X196691500Y-109428445D01*
X196048268Y-110901139D01*
X195898929Y-111242974D01*
X195756067Y-111569831D01*
X195624228Y-111871319D01*
X195507961Y-112137046D01*
X195411810Y-112356621D01*
X195340324Y-112519653D01*
X195298049Y-112615749D01*
X195297385Y-112617250D01*
X195189734Y-112860667D01*
X193791667Y-112860667D01*
X193791667Y-110024334D01*
X194850000Y-110024334D01*
X194850000Y-109474000D01*
X192098334Y-109474000D01*
X191632667Y-109474000D01*
X189092667Y-109474000D01*
X188246000Y-109474000D01*
X187917917Y-109474528D01*
X187589834Y-109475055D01*
X187084877Y-110258621D01*
X186900962Y-110540144D01*
X186756931Y-110751701D01*
X186650301Y-110896630D01*
X186578588Y-110978269D01*
X186539309Y-110999956D01*
X186535229Y-110997496D01*
X186499478Y-110949669D01*
X186425557Y-110842045D01*
X186321097Y-110686040D01*
X186193726Y-110493068D01*
X186051072Y-110274544D01*
X186018273Y-110223986D01*
X185546008Y-109495167D01*
X185202671Y-109482871D01*
X184859334Y-109470576D01*
X184859334Y-112860667D01*
X182700334Y-112860667D01*
X182700334Y-107611334D01*
X200395667Y-107611334D01*
X200395667Y-114681000D01*
D12*
X315615000Y-26310000D02*
X318500000Y-26310000D01*
X315615000Y-24490000D02*
X315615000Y-26310000D01*
X318500000Y-24490000D02*
X315615000Y-24490000D01*
D10*
X316380952Y-21852380D02*
X315904761Y-21852380D01*
X315904761Y-20852380D01*
X316714285Y-21328571D02*
X317047619Y-21328571D01*
X317190476Y-21852380D02*
X316714285Y-21852380D01*
X316714285Y-20852380D01*
X317190476Y-20852380D01*
X317619047Y-21852380D02*
X317619047Y-20852380D01*
X317857142Y-20852380D01*
X318000000Y-20900000D01*
X318095238Y-20995238D01*
X318142857Y-21090476D01*
X318190476Y-21280952D01*
X318190476Y-21423809D01*
X318142857Y-21614285D01*
X318095238Y-21709523D01*
X318000000Y-21804761D01*
X317857142Y-21852380D01*
X317619047Y-21852380D01*
X319142857Y-21852380D02*
X318571428Y-21852380D01*
X318857142Y-21852380D02*
X318857142Y-20852380D01*
X318761904Y-20995238D01*
X318666666Y-21090476D01*
X318571428Y-21138095D01*
D13*
X149752380Y-104604761D02*
X149371428Y-104604761D01*
X149180952Y-104700000D01*
X149085714Y-104795238D01*
X148895238Y-105080952D01*
X148800000Y-105461904D01*
X148800000Y-106223809D01*
X148895238Y-106414285D01*
X148990476Y-106509523D01*
X149180952Y-106604761D01*
X149561904Y-106604761D01*
X149752380Y-106509523D01*
X149847619Y-106414285D01*
X149942857Y-106223809D01*
X149942857Y-105747619D01*
X149847619Y-105557142D01*
X149752380Y-105461904D01*
X149561904Y-105366666D01*
X149180952Y-105366666D01*
X148990476Y-105461904D01*
X148895238Y-105557142D01*
X148800000Y-105747619D01*
X150800000Y-106414285D02*
X150895238Y-106509523D01*
X150800000Y-106604761D01*
X150704761Y-106509523D01*
X150800000Y-106414285D01*
X150800000Y-106604761D01*
X151657142Y-104795238D02*
X151752380Y-104700000D01*
X151942857Y-104604761D01*
X152419047Y-104604761D01*
X152609523Y-104700000D01*
X152704761Y-104795238D01*
X152800000Y-104985714D01*
X152800000Y-105176190D01*
X152704761Y-105461904D01*
X151561904Y-106604761D01*
X152800000Y-106604761D01*
X154609523Y-104604761D02*
X153657142Y-104604761D01*
X153561904Y-105557142D01*
X153657142Y-105461904D01*
X153847619Y-105366666D01*
X154323809Y-105366666D01*
X154514285Y-105461904D01*
X154609523Y-105557142D01*
X154704761Y-105747619D01*
X154704761Y-106223809D01*
X154609523Y-106414285D01*
X154514285Y-106509523D01*
X154323809Y-106604761D01*
X153847619Y-106604761D01*
X153657142Y-106509523D01*
X153561904Y-106414285D01*
X155561904Y-104604761D02*
X155561904Y-106223809D01*
X155657142Y-106414285D01*
X155752380Y-106509523D01*
X155942857Y-106604761D01*
X156323809Y-106604761D01*
X156514285Y-106509523D01*
X156609523Y-106414285D01*
X156704761Y-106223809D01*
X156704761Y-104604761D01*
X163933333Y-106604761D02*
X163552380Y-106604761D01*
X163361904Y-106700000D01*
X163266666Y-106795238D01*
X163076190Y-107080952D01*
X162980952Y-107461904D01*
X162980952Y-108223809D01*
X163076190Y-108414285D01*
X163171428Y-108509523D01*
X163361904Y-108604761D01*
X163742857Y-108604761D01*
X163933333Y-108509523D01*
X164028571Y-108414285D01*
X164123809Y-108223809D01*
X164123809Y-107747619D01*
X164028571Y-107557142D01*
X163933333Y-107461904D01*
X163742857Y-107366666D01*
X163361904Y-107366666D01*
X163171428Y-107461904D01*
X163076190Y-107557142D01*
X162980952Y-107747619D01*
X164980952Y-106604761D02*
X164980952Y-108223809D01*
X165076190Y-108414285D01*
X165171428Y-108509523D01*
X165361904Y-108604761D01*
X165742857Y-108604761D01*
X165933333Y-108509523D01*
X166028571Y-108414285D01*
X166123809Y-108223809D01*
X166123809Y-106604761D01*
M02*
