M48
INCH
T1C0.0118
T2C0.0157
T3C0.0197
T4C0.0236
T5C0.0256
T6C0.0394
T7C0.0591
T8C0.1063
%
G90
G05
T1
X0.0606Y-4.3626
X0.061Y-4.8604
X0.0614Y-1.4604
X0.0614Y-3.6488
X0.0615Y-4.1494
X0.0616Y0.004
X0.0616Y-4.2892
X0.0618Y-1.1635
X0.0623Y-1.2483
X0.0624Y-2.4411
X0.0625Y-1.3871
X0.0626Y-5.0047
X0.0628Y-2.7389
X0.0633Y-3.4382
X0.0634Y-2.3721
X0.0635Y-2.0907
X0.0648Y-3.5031
X0.0649Y-1.7404
X0.0654Y-4.426
X0.0666Y-3.5836
X0.0667Y-4.7785
X0.0668Y-3.7929
X0.0677Y-2.0147
X0.0686Y-4.9346
X0.0689Y-3.0822
X0.0693Y-3.2245
X0.0694Y-3.7264
X0.0695Y-4.0719
X0.0695Y-4.5648
X0.0697Y-2.8671
X0.0699Y-4.6389
X0.07Y-1.5235
X0.0701Y-4.0015
X0.0702Y-2.313
X0.0708Y-2.1694
X0.071Y-3.2974
X0.0716Y-3.0165
X0.0716Y-1.8734
X0.0718Y-2.5181
X0.0723Y-2.6604
X0.0725Y-4.506
X0.0726Y-1.3098
X0.073Y-1.6587
X0.0731Y-1.8067
X0.0731Y-3.8589
X0.0733Y-4.7163
X0.0734Y-3.9375
X0.0735Y-3.3598
X0.0739Y-1.601
X0.0746Y-2.2413
X0.0748Y-2.5811
X0.0749Y-2.9411
X0.0749Y-1.9469
X0.0756Y-3.1579
X0.076Y-4.2125
X0.0765Y-1.1025
X0.0766Y-1.0239
X0.0766Y-2.805
X0.0772Y-0.0801
X0.0964Y-4.5302
X0.0976Y-1.8453
X0.0977Y-1.2025
X0.0984Y-4.2598
X0.0994Y-1.7046
X0.0997Y-2.974
X0.1004Y-4.1149
X0.1006Y-3.4758
X0.1008Y-2.6873
X0.1011Y-4.9656
X0.1012Y-4.7412
X0.1014Y-1.067
X0.1025Y-2.4897
X0.1029Y-1.776
X0.104Y-2.7715
X0.1041Y-4.8847
X0.1041Y-4.8141
X0.1041Y-3.758
X0.1042Y-4.4676
X0.1043Y-1.4833
X0.1044Y-4.0327
X0.1045Y-4.1816
X0.1048Y-1.9083
X0.1051Y-1.2818
X0.106Y-3.3332
X0.1062Y-0.0368
X0.1063Y-3.4033
X0.1065Y-3.9661
X0.1066Y-2.6278
X0.1078Y-2.5564
X0.1082Y-1.1313
X0.1083Y-0.2854
X0.1089Y-1.9823
X0.1093Y-3.5413
X0.1098Y-3.256
X0.1131Y-2.2734
X0.1311Y-1.8028
X0.132Y-3.2977
X0.1323Y-2.5815
X0.1333Y-1.7398
X0.1364Y-4.9292
X0.1372Y-1.1023
X0.1395Y-2.6519
X0.1401Y-4.0109
X0.1403Y-4.1536
X0.1432Y-3.4422
X0.1432Y-4.8569
X0.1452Y-4.7772
X0.1456Y-3.3722
X0.1462Y-2.5098
X0.1464Y-1.8755
X0.1475Y-1.172
X0.148Y-4.0823
X0.1481Y-3.234
X0.1665Y-4.0485
X0.167Y-0.6454
X0.169Y-1.9209
X0.17Y-2.6325
X0.1703Y-4.1123
X0.1713Y-0.029
X0.1714Y-2.5476
X0.1729Y-1.8412
X0.1754Y-4.9685
X0.1759Y-3.2586
X0.1764Y-4.8234
X0.1765Y-2.4759
X0.1776Y-4.8853
X0.1791Y-1.7669
X0.1792Y-3.3378
X0.1798Y-1.1422
X0.1819Y-3.3992
X0.1823Y-4.7151
X0.184Y-3.9691
X0.2037Y-3.2349
X0.2055Y-2.5918
X0.2072Y-4.8562
X0.2073Y-1.8114
X0.2074Y-4.9214
X0.2077Y-4.0132
X0.2106Y-2.6608
X0.2108Y-3.3671
X0.2117Y-1.1706
X0.2117Y-4.7433
X0.2119Y-1.8746
X0.2122Y-3.3025
X0.213Y-2.5159
X0.2148Y-4.0758
X0.2178Y-4.1416
X0.218Y-1.7319
X0.2381Y-4.892
X0.239Y-2.6185
X0.24Y-1.9164
X0.2409Y-2.5464
X0.2414Y-1.8451
X0.2416Y-3.4014
X0.2416Y-4.1095
X0.2422Y-1.7009
X0.2425Y-1.766
X0.2427Y-1.139
X0.2429Y-2.4866
X0.2431Y-4.0432
X0.2448Y-0.0094
X0.246Y-4.97
X0.2495Y-3.3252
X0.2495Y-3.2552
X0.2509Y-4.7806
X0.2548Y-3.9706
X0.2747Y-4.0075
X0.2755Y-4.9301
X0.2765Y-3.364
X0.2771Y-1.8174
X0.2775Y-2.5109
X0.2775Y-4.1556
X0.2788Y-1.8746
X0.2845Y-4.0744
X0.2851Y-2.5964
X0.2868Y-3.3024
X0.2871Y-4.8166
X0.2872Y-1.1709
X0.2901Y-2.6562
X0.3082Y-0.1784
X0.3091Y-4.8618
X0.3135Y-2.7017
X0.316Y-2.5587
X0.3161Y-1.7709
X0.3166Y-2.6197
X0.3172Y-3.4046
X0.3175Y-1.9233
X0.3181Y-4.1038
X0.3182Y-0.5256
X0.3189Y-4.0468
X0.3208Y-1.2066
X0.3217Y-3.3341
X0.3225Y-1.1272
X0.3233Y-1.8464
X0.3234Y-3.2645
X0.3238Y-4.1885
X0.346Y-1.1801
X0.3475Y-1.8794
X0.3487Y-4.0799
X0.3487Y-4.2145
X0.3504Y-1.8101
X0.3507Y-2.5138
X0.352Y-3.4416
X0.3537Y-3.3597
X0.3555Y-2.5843
X0.3562Y-3.3049
X0.3562Y-4.8249
X0.3566Y-4.8864
X0.3575Y-1.9547
X0.3577Y-2.7301
X0.3591Y-0.2059
X0.3594Y-4.1431
X0.3598Y-2.6677
X0.3611Y-0.8935
X0.3791Y-0.5297
X0.3811Y-4.86
X0.3824Y-1.8484
X0.3852Y-3.2675
X0.3855Y-2.5576
X0.3876Y-4.0337
X0.3932Y-1.7729
X0.3934Y-4.9303
X0.3962Y-3.335
X0.4171Y-0.0811
X0.4184Y-4.8241
X0.425Y-2.5132
X0.4267Y-0.8931
X0.4278Y-3.2998
X0.4281Y-4.8994
X0.4293Y-1.8065
X0.4522Y-0.8588
X0.4522Y-0.5014
X0.4554Y-4.9249
X0.4568Y-0.9251
X0.4607Y-4.8486
X0.4903Y-4.8266
X0.4906Y-0.458
X0.4912Y-4.8952
X0.4949Y-4.5402
X0.4959Y-4.7165
X0.496Y-0.0749
X0.4994Y-0.9573
X0.5001Y-0.8928
X0.5212Y-2.4847
X0.5228Y-4.9268
X0.5234Y-1.2691
X0.5297Y-3.9684
X0.5298Y-0.8151
X0.5299Y-3.2997
X0.5319Y-0.9198
X0.5325Y-1.8043
X0.533Y-2.5508
X0.5346Y-4.0433
X0.5369Y-3.2183
X0.5377Y-1.7311
X0.5383Y-4.8555
X0.5563Y-4.7225
X0.5581Y-4.2592
X0.5592Y-4.0739
X0.5594Y-1.853
X0.5608Y-4.8837
X0.5617Y-2.7742
X0.5618Y-2.0184
X0.564Y-0.0642
X0.5654Y-2.5829
X0.5663Y-1.7723
X0.567Y-2.5143
X0.5677Y-4.8216
X0.5679Y-3.9992
X0.5702Y-3.3382
X0.571Y-0.8871
X0.5718Y-3.2643
X0.5722Y-3.5154
X0.5927Y-2.5596
X0.594Y-0.1098
X0.5951Y-4.8487
X0.5956Y-2.6863
X0.5961Y-4.9314
X0.5968Y-1.2043
X0.5968Y-3.4313
X0.5969Y-3.3034
X0.5983Y-1.9525
X0.5983Y-1.1435
X0.5993Y-2.6322
X0.5997Y-4.1774
X0.6003Y-3.3708
X0.6008Y-1.8886
X0.6013Y-3.2319
X0.6016Y-1.8051
X0.602Y-2.4821
X0.6025Y-4.1135
X0.6027Y-2.9846
X0.603Y-2.2357
X0.6054Y-3.9712
X0.6058Y-1.2782
X0.6063Y-1.7395
X0.607Y-4.0486
X0.6073Y-4.4671
X0.6082Y-3.7199
X0.627Y-0.1513
X0.6274Y-3.3993
X0.6275Y-2.7256
X0.6283Y-0.0718
X0.6315Y-4.5031
X0.6317Y-3.4759
X0.6321Y-4.2925
X0.6327Y-4.0846
X0.6354Y-4.1552
X0.6359Y-2.659
X0.6363Y-2.5919
X0.6363Y-1.168
X0.6365Y-1.2474
X0.6372Y-0.8858
X0.6375Y-1.9835
X0.6389Y-1.8452
X0.6394Y-4.71
X0.6418Y-0.7093
X0.6421Y-3.3318
X0.643Y-1.9071
X0.6446Y-4.2166
X0.6625Y-3.3034
X0.6633Y-4.1786
X0.6637Y-2.1571
X0.664Y-2.5603
X0.6649Y-4.4023
X0.665Y-1.4134
X0.6652Y-0.2869
X0.6652Y-4.1156
X0.6654Y-1.1987
X0.666Y-2.7715
X0.6668Y-0.3581
X0.6669Y-3.5776
X0.6669Y-3.715
X0.6676Y-3.442
X0.6676Y-4.3324
X0.6684Y-2.9017
X0.6694Y-0.117
X0.6696Y-3.6513
X0.6705Y-4.2465
X0.6718Y-1.8782
X0.6719Y-1.341
X0.672Y-0.1753
X0.6733Y-3.3674
X0.6745Y-3.5042
X0.6745Y-2.0157
X0.6753Y-0.6775
X0.6755Y-2.6299
X0.6758Y-2.8425
X0.6761Y-2.0865
X0.6767Y-4.4577
X0.6771Y-1.9563
X0.6772Y-1.8092
X0.6774Y-1.2836
X0.6777Y-2.6895
X0.6789Y-4.0442
X0.6789Y-4.5371
X0.6984Y-0.0699
X0.6984Y-0.8525
X0.6986Y-3.5539
X0.6992Y-4.0698
X0.6994Y-4.4944
X0.6998Y-1.8419
X0.7007Y-2.7324
X0.7008Y-3.4682
X0.7009Y-2.8753
X0.7018Y-1.3789
X0.7019Y-0.1411
X0.7024Y-2.5823
X0.7033Y-0.2191
X0.7034Y-2.7929
X0.7034Y-1.4552
X0.7039Y-2.6603
X0.704Y-1.2462
X0.7041Y-2.0545
X0.7044Y-0.9254
X0.7056Y-4.4327
X0.7059Y-0.5717
X0.7059Y-0.7102
X0.7064Y-3.3244
X0.7066Y-4.5728
X0.7073Y-1.9131
X0.7074Y-2.1249
X0.708Y-3.68
X0.7083Y-1.9834
X0.7083Y-0.3155
X0.7084Y-2.9375
X0.7088Y-4.1481
X0.7093Y-2.2015
X0.7104Y-1.3055
X0.7116Y-4.2218
X0.7122Y-4.3537
X0.7124Y-4.2845
X0.7126Y-0.6311
X0.7135Y-3.6223
X0.7149Y-3.4102
X0.7334Y-4.3929
X0.7336Y-2.3347
X0.7336Y-4.6067
X0.7341Y-4.1114
X0.7343Y-2.6865
X0.7343Y-2.8374
X0.7344Y-1.2095
X0.7345Y-0.1136
X0.7347Y-0.6791
X0.7356Y-2.0225
X0.7359Y-3.3009
X0.7359Y-4.1861
X0.7367Y-4.4598
X0.7369Y-4.5421
X0.7393Y-4.2535
X0.7398Y-4.039
X0.74Y-0.1753
X0.7401Y-3.8238
X0.7405Y-0.246
X0.7406Y-3.5847
X0.7407Y-2.1697
X0.7412Y-2.0847
X0.7418Y-1.8866
X0.7419Y-3.723
X0.7425Y-2.6306
X0.7433Y-3.0796
X0.7441Y-1.282
X0.7442Y-2.9028
X0.7443Y-1.9532
X0.7455Y-1.4183
X0.7461Y-4.3278
X0.7463Y-3.4458
X0.7469Y-1.3489
X0.7475Y-2.7614
X0.7478Y-1.5891
X0.7482Y-0.3605
X0.7484Y-3.3754
X0.749Y-2.5534
X0.749Y-3.6521
X0.7498Y-3.5128
X0.7502Y-0.6072
X0.7502Y-1.8008
X0.7697Y-2.5963
X0.7698Y-4.5778
X0.7699Y-4.2106
X0.7703Y-3.5485
X0.7705Y-2.7989
X0.7709Y-3.4809
X0.7712Y-2.0522
X0.7712Y-3.0092
X0.7718Y-2.6523
X0.7718Y-4.1438
X0.7727Y-4.083
X0.773Y-0.5693
X0.7731Y-1.4583
X0.7734Y-1.6336
X0.7735Y-2.2781
X0.7736Y-3.3259
X0.7737Y-3.6185
X0.7746Y-3.4112
X0.7747Y-2.948
X0.7754Y-0.6325
X0.7754Y-2.2066
X0.7756Y-1.2335
X0.7758Y-1.3878
X0.7762Y-0.7102
X0.7762Y-4.7821
X0.7768Y-1.9908
X0.7772Y-3.7639
X0.7775Y-0.2116
X0.7789Y-0.2775
X0.7797Y-3.8597
X0.7798Y-3.1145
X0.7803Y-1.5278
X0.7805Y-0.0648
X0.7814Y-2.8693
X0.7815Y-1.8414
X0.7819Y-0.1405
X0.7825Y-4.9233
X0.7827Y-4.5082
X0.7833Y-2.1198
X0.7833Y-2.3737
X0.7834Y-1.309
X0.7838Y-4.4291
X0.784Y-3.6871
X0.7843Y-4.2874
X0.7849Y-4.3621
X0.7851Y-1.9147
X0.7863Y-2.7347
X0.8043Y-0.3194
X0.8052Y-0.1148
X0.8107Y-0.6744
X0.8136Y-0.1772
X0.8148Y-0.2562
X0.8161Y-0.6105
X0.8195Y-0.3862
X0.8397Y-0.2211
X0.8427Y-0.0716
X0.843Y-0.4289
X0.8448Y-0.7049
X0.8469Y-4.9244
X0.8471Y-0.2918
X0.8487Y-0.639
X0.8492Y-0.1378
X0.855Y-0.3512
X0.8751Y-0.1811
X0.8758Y-0.3984
X0.876Y-0.4624
X0.8769Y-0.2549
X0.8791Y-0.1073
X0.882Y-0.6737
X0.8858Y-0.3213
X0.9105Y-0.2095
X0.9126Y-0.064
X0.9141Y-0.4998
X0.9148Y-0.4188
X0.9166Y-4.9309
X0.9182Y-0.3622
X0.922Y-0.1438
X0.9225Y-0.9186
X0.9266Y-0.86
X0.9276Y-0.2915
X0.946Y-0.3896
X0.9485Y-0.1071
X0.9489Y-0.3196
X0.9543Y-0.1877
X0.9556Y-0.4636
X0.9591Y-0.2487
X0.9598Y-0.5272
X0.9635Y-0.8812
X0.9839Y-0.4922
X0.9853Y-0.213
X0.9892Y-0.5711
X0.9893Y-0.0655
X0.9916Y-0.4292
X0.9968Y-0.1456
X0.998Y-0.3615
X0.9982Y-0.281
X1.0171Y-1.9556
X1.0174Y-1.5935
X1.0176Y-0.3992
X1.0176Y-3.4693
X1.0178Y-2.0161
X1.0181Y-2.3778
X1.0182Y-2.3033
X1.0184Y-0.1725
X1.0184Y-2.1628
X1.0188Y-2.9401
X1.0191Y-2.8745
X1.0193Y-3.1529
X1.0193Y-2.2417
X1.0195Y-0.1152
X1.0201Y-2.7322
X1.0201Y-0.4704
X1.0203Y-3.7652
X1.0204Y-3.6155
X1.0208Y-1.8014
X1.0215Y-1.5337
X1.0227Y-4.2592
X1.0239Y-4.1776
X1.0248Y-3.2551
X1.0249Y-3.692
X1.0251Y-3.0873
X1.0252Y-1.2452
X1.0255Y-3.5407
X1.0258Y-1.3848
X1.0265Y-3.3975
X1.027Y-4.1094
X1.0271Y-1.4477
X1.0272Y-4.3207
X1.0272Y-0.6028
X1.0275Y-2.0906
X1.0284Y-3.8266
X1.0285Y-4.047
X1.0286Y-0.5413
X1.0288Y-0.2548
X1.0295Y-3.3402
X1.0299Y-2.5931
X1.0304Y-0.3272
X1.0308Y-3.014
X1.0327Y-1.3216
X1.0329Y-2.7967
X1.033Y-1.8742
X1.0335Y-2.5204
X1.0343Y-2.6578
X1.0526Y-1.2777
X1.053Y-1.0579
X1.055Y-2.1293
X1.0559Y-3.3759
X1.0561Y-4.1511
X1.0561Y-2.7638
X1.0562Y-4.2207
X1.0566Y-3.5752
X1.0568Y-1.9823
X1.0571Y-1.4907
X1.0573Y-0.4261
X1.0576Y-2.2656
X1.0584Y-0.3582
X1.0586Y-2.8352
X1.0588Y-2.4073
X1.059Y-3.0554
X1.0591Y-1.3483
X1.0603Y-2.0652
X1.0608Y-3.7288
X1.0613Y-0.1487
X1.0615Y-0.0805
X1.062Y-3.651
X1.0624Y-4.0709
X1.0627Y-2.9106
X1.0632Y-4.2903
X1.0634Y-1.4202
X1.0635Y-2.349
X1.064Y-3.4381
X1.0644Y-0.2232
X1.0644Y-2.6267
X1.0651Y-3.1139
X1.0652Y-1.8468
X1.0652Y-1.9117
X1.0653Y-2.6968
X1.0658Y-2.1969
X1.0661Y-3.5092
X1.0661Y-0.2841
X1.0685Y-3.2942
X1.069Y-0.5013
X1.0692Y-2.5451
X1.0694Y-2.971
X1.0876Y-4.0452
X1.0878Y-1.7775
X1.0881Y-2.0235
X1.0882Y-4.2607
X1.0884Y-3.2573
X1.0885Y-4.1872
X1.0888Y-1.9569
X1.089Y-2.5816
X1.0895Y-2.7303
X1.0897Y-0.5246
X1.0898Y-0.2461
X1.09Y-3.6891
X1.0923Y-3.4713
X1.0926Y-2.299
X1.0948Y-1.1074
X1.0953Y-3.1624
X1.0954Y-0.922
X1.0955Y-0.4604
X1.0965Y-3.7537
X1.0969Y-2.158
X1.0974Y-0.8509
X1.0982Y-0.1043
X1.0982Y-0.9903
X1.0984Y-3.3253
X1.0988Y-2.7993
X1.0994Y-4.1207
X1.1005Y-3.4113
X1.1007Y-1.8727
X1.1014Y-2.866
X1.1018Y-0.1788
X1.1021Y-2.9382
X1.1022Y-3.0787
X1.1029Y-2.0843
X1.103Y-3.6174
X1.103Y-2.3772
X1.1037Y-3.0163
X1.1037Y-3.5422
X1.1037Y-2.2314
X1.1037Y-2.6589
X1.1045Y-4.3236
X1.1047Y-1.2144
X1.1048Y-2.5089
X1.1233Y-2.5585
X1.1233Y-1.9845
X1.1237Y-4.2198
X1.124Y-0.8866
X1.124Y-3.5044
X1.1243Y-2.2758
X1.1245Y-2.9745
X1.1262Y-1.9092
X1.1264Y-0.9515
X1.1268Y-2.4079
X1.1268Y-2.0552
X1.1285Y-3.6437
X1.1291Y-2.6234
X1.13Y-0.0774
X1.1301Y-4.1544
X1.1301Y-2.7037
X1.1308Y-2.8364
X1.1321Y-2.1267
X1.1321Y-3.3729
X1.133Y-4.0807
X1.133Y-3.2954
X1.1336Y-3.5826
X1.1336Y-2.7637
X1.1346Y-4.2891
X1.1347Y-4.8565
X1.1352Y-3.1232
X1.1358Y-1.024
X1.1358Y-3.725
X1.1365Y-0.4908
X1.1375Y-0.1381
X1.1375Y-2.2019
X1.1383Y-1.8062
X1.1386Y-2.3331
X1.1402Y-3.4441
X1.1405Y-2.9063
X1.1406Y-3.0515
X1.1589Y-3.0141
X1.1592Y-3.2647
X1.1597Y-3.1514
X1.1599Y-2.6517
X1.1622Y-3.0918
X1.1626Y-2.5971
X1.1629Y-2.2339
X1.1631Y-2.3684
X1.1634Y-1.7705
X1.1636Y-2.1643
X1.1638Y-3.5454
X1.1645Y-4.2466
X1.1646Y-0.8236
X1.1649Y-0.1089
X1.1651Y-2.014
X1.1654Y-4.1749
X1.166Y-3.9012
X1.1661Y-1.8498
X1.1663Y-2.7999
X1.1665Y-2.9346
X1.1666Y-2.8748
X1.1673Y-0.92
X1.1675Y-3.6899
X1.1677Y-1.4936
X1.168Y-1.9491
X1.169Y-1.628
X1.1691Y-3.6168
X1.1692Y-4.1111
X1.1707Y-3.3321
X1.1709Y-3.3995
X1.1733Y-1.0688
X1.1733Y-3.4795
X1.1733Y-1.5653
X1.1736Y-0.9911
X1.1739Y-2.0953
X1.1745Y-0.6326
X1.175Y-2.3038
X1.1752Y-0.4571
X1.1756Y-3.7569
X1.1759Y-2.7346
X1.1941Y-2.5546
X1.1943Y-4.2188
X1.1948Y-2.7718
X1.1948Y-0.783
X1.1948Y-0.9598
X1.1949Y-2.9734
X1.1949Y-1.1061
X1.1951Y-1.6628
X1.1965Y-1.8775
X1.1967Y-2.3433
X1.1973Y-0.0689
X1.1975Y-1.0265
X1.1978Y-0.5989
X1.1985Y-2.1924
X1.2024Y-3.7994
X1.2025Y-2.6222
X1.2032Y-2.2704
X1.2041Y-0.6762
X1.2046Y-3.3722
X1.2058Y-2.05
X1.206Y-3.0431
X1.2061Y-0.1458
X1.2064Y-3.7204
X1.2065Y-3.2995
X1.2067Y-1.6018
X1.2072Y-2.6917
X1.2082Y-2.1204
X1.2091Y-1.9861
X1.2097Y-3.9333
X1.2098Y-4.1473
X1.2103Y-1.8117
X1.2105Y-0.8483
X1.2108Y-3.1234
X1.2111Y-1.5182
X1.2114Y-4.8627
X1.2115Y-3.6598
X1.2298Y-3.3313
X1.2298Y-1.7799
X1.232Y-1.6404
X1.2331Y-0.8886
X1.2343Y-1.5528
X1.2348Y-4.1136
X1.2355Y-0.9949
X1.2356Y-2.6603
X1.2367Y-3.8919
X1.2385Y-2.1578
X1.2391Y-3.4014
X1.2401Y-2.0147
X1.2405Y-0.113
X1.2406Y-3.6895
X1.2409Y-1.8455
X1.2414Y-2.094
X1.2417Y-3.0913
X1.2421Y-3.0158
X1.2427Y-3.2575
X1.2442Y-1.0695
X1.2444Y-1.9146
X1.2445Y-0.6357
X1.2454Y-2.5974
X1.2456Y-4.1806
X1.2458Y-3.1508
X1.2458Y-3.9767
X1.2459Y-0.817
X1.2464Y-0.5617
X1.2466Y-1.4892
X1.2466Y-2.2412
X1.247Y-3.7572
X1.2648Y-3.0498
X1.2653Y-0.6059
X1.2655Y-0.8558
X1.2658Y-3.1263
X1.2661Y-1.9476
X1.2672Y-0.7731
X1.2675Y-1.8813
X1.2681Y-1.676
X1.2689Y-3.6582
X1.2689Y-4.8495
X1.2697Y-0.0758
X1.2726Y-1.0378
X1.2728Y-0.6813
X1.2734Y-1.0962
X1.2755Y-2.6214
X1.2758Y-0.1501
X1.2758Y-1.5291
X1.2768Y-0.9201
X1.2784Y-0.4923
X1.2799Y-2.971
X1.28Y-1.5883
X1.2809Y-4.1405
X1.2813Y-2.5581
X1.2814Y-1.8163
X1.3006Y-1.985
X1.3015Y-0.6401
X1.3017Y-1.5602
X1.3017Y-0.1123
X1.3018Y-1.7691
X1.3021Y-0.8147
X1.3027Y-0.9594
X1.305Y-2.588
X1.3052Y-2.524
X1.3067Y-3.0891
X1.3075Y-1.0644
X1.3083Y-1.8516
X1.3095Y-4.1153
X1.3113Y-0.5397
X1.3113Y-0.884
X1.3127Y-0.1818
X1.3133Y-1.9241
X1.3139Y-3.0098
X1.3146Y-1.6353
X1.3357Y-0.6784
X1.3399Y-2.2408
X1.3411Y-4.8624
X1.3415Y-0.7885
X1.3415Y-0.9277
X1.3416Y-1.1029
X1.3424Y-0.5686
X1.3424Y-2.555
X1.343Y-1.5177
X1.3438Y-0.0789
X1.3441Y-2.3103
X1.3458Y-1.2128
X1.3476Y-1.6749
X1.3477Y-0.1459
X1.3478Y-0.8513
X1.3481Y-1.8027
X1.3498Y-1.8718
X1.3499Y-0.2161
X1.35Y-1.5902
X1.3513Y-2.3745
X1.3516Y-1.0006
X1.3721Y-1.7822
X1.3722Y-4.1159
X1.3729Y-1.5666
X1.3754Y-1.6339
X1.3757Y-0.9528
X1.3769Y-1.0379
X1.378Y-2.511
X1.3788Y-0.8837
X1.3792Y-0.6122
X1.3796Y-1.8405
X1.3801Y-0.8129
X1.3814Y-0.1101
X1.3818Y-2.277
X1.3833Y-1.9126
X1.3841Y-2.3337
X1.3878Y-1.2349
X1.3879Y-0.5323
X1.3883Y-2.417
X1.407Y-0.8504
X1.4086Y-0.0703
X1.4099Y-0.932
X1.411Y-0.6314
X1.412Y-3.019
X1.4122Y-2.2399
X1.4123Y-1.5979
X1.4129Y-2.3769
X1.4133Y-0.7823
X1.4138Y-4.8612
X1.4138Y-2.6923
X1.4148Y-1.0612
X1.4164Y-0.5743
X1.418Y-2.3082
X1.419Y-1.8727
X1.4201Y-4.5392
X1.4201Y-0.9875
X1.4213Y-1.8124
X1.4238Y-1.526
X1.4458Y-3.0465
X1.446Y-1.9118
X1.4464Y-1.8481
X1.4523Y-2.5189
X1.4554Y-2.2688
X1.4556Y-3.1157
X1.4568Y-2.6566
X1.4568Y-4.5705
X1.4569Y-4.1185
X1.4572Y-2.4144
X1.4595Y-2.3369
X1.4775Y-4.5424
X1.4781Y-4.8497
X1.4785Y-3.2574
X1.4786Y-3.0105
X1.4869Y-2.369
X1.4883Y-3.0872
X1.4884Y-3.1507
X1.4903Y-0.0801
X1.4939Y-2.3008
X1.4944Y-1.8791
X1.5135Y-0.542
X1.514Y-3.1165
X1.5145Y-0.9983
X1.5148Y-4.5695
X1.5156Y-0.4676
X1.5158Y-0.2792
X1.5178Y-1.9116
X1.5179Y-1.6314
X1.5179Y-3.0536
X1.5179Y-2.336
X1.5187Y-3.9433
X1.5188Y-2.4096
X1.5201Y-0.7805
X1.5209Y-1.0573
X1.5215Y-1.9939
X1.5219Y-3.2931
X1.5234Y-2.5097
X1.5239Y-1.5655
X1.5252Y-2.2671
X1.5279Y-0.6009
X1.5283Y-3.9999
X1.5296Y-0.8575
X1.5296Y-1.4828
X1.5299Y-0.9273
X1.5299Y-1.2715
X1.5493Y-0.9532
X1.5507Y-0.4897
X1.5511Y-0.6374
X1.5525Y-3.8268
X1.5535Y-3.1493
X1.5538Y-0.5665
X1.556Y-1.5296
X1.5561Y-3.3323
X1.5566Y-1.6685
X1.5572Y-2.3017
X1.5581Y-1.9514
X1.5589Y-3.9638
X1.5599Y-0.8208
X1.5602Y-0.0741
X1.5603Y-2.3681
X1.5608Y-0.8916
X1.5614Y-3.2571
X1.5631Y-3.0771
X1.5642Y-1.5937
X1.5646Y-3.0153
X1.5647Y-1.0355
X1.5655Y-3.8967
X1.5846Y-0.7882
X1.585Y-0.6691
X1.5851Y-1.0612
X1.5851Y-0.2501
X1.5852Y-1.1287
X1.5865Y-1.4944
X1.5874Y-2.418
X1.5889Y-4.0082
X1.589Y-2.5113
X1.5907Y-0.9277
X1.5908Y-0.1046
X1.592Y-0.1817
X1.5921Y-2.3467
X1.5921Y-1.5542
X1.5926Y-0.5273
X1.5926Y-1.2863
X1.5931Y-0.9989
X1.5935Y-3.8719
X1.594Y-3.9327
X1.5943Y-1.6372
X1.5961Y-3.2937
X1.5963Y-3.055
X1.5986Y-3.1163
X1.5987Y-0.8488
X1.5991Y-2.2663
X1.5991Y-0.6068
X1.5992Y-1.2148
X1.6002Y-3.7624
X1.6191Y-1.2436
X1.6204Y-1.1034
X1.6205Y-1.52
X1.6206Y-1.5924
X1.6218Y-3.0114
X1.6225Y-0.2153
X1.6246Y-3.0915
X1.6248Y-0.4685
X1.6251Y-0.0794
X1.6254Y-0.8931
X1.6261Y-0.9622
X1.6274Y-3.7182
X1.6283Y-0.2825
X1.6293Y-3.9044
X1.6294Y-3.9634
X1.6296Y-3.1588
X1.6306Y-1.7696
X1.6314Y-1.0261
X1.6316Y-3.7969
X1.6318Y-0.5612
X1.6321Y-1.6602
X1.6331Y-1.1757
X1.6337Y-0.6337
X1.6347Y-0.8138
X1.6355Y-0.1496
X1.6546Y-1.0007
X1.6547Y-3.9365
X1.6549Y-1.8015
X1.6554Y-1.2043
X1.6563Y-0.777
X1.6578Y-0.3123
X1.6579Y-0.2557
X1.6602Y-1.5661
X1.6606Y-1.3847
X1.6612Y-1.4606
X1.6619Y-3.0454
X1.6621Y-1.6325
X1.6632Y-0.9301
X1.6635Y-0.6776
X1.6643Y-0.4256
X1.6652Y-1.1314
X1.6661Y-3.7616
X1.6663Y-0.4996
X1.6673Y-4.0116
X1.6673Y-3.1135
X1.6674Y-0.6054
X1.6678Y-0.1855
X1.6688Y-1.2703
X1.6691Y-0.8504
X1.6709Y-3.821
X1.6717Y-0.1125
X1.6719Y-1.0573
X1.69Y-3.8715
X1.69Y-0.2894
X1.6907Y-0.9538
X1.6909Y-1.6652
X1.6922Y-3.7146
X1.6922Y-1.1748
X1.6939Y-0.0802
X1.6944Y-1.7702
X1.6944Y-0.883
X1.6954Y-4.5324
X1.6956Y-3.0133
X1.6968Y-4.8506
X1.6981Y-0.6372
X1.6989Y-3.7998
X1.6993Y-1.0963
X1.6995Y-1.0276
X1.6998Y-0.3645
X1.701Y-3.093
X1.7021Y-1.3164
X1.7025Y-3.406
X1.7029Y-0.8096
X1.7038Y-1.6015
X1.7039Y-0.4693
X1.7043Y-1.4846
X1.7047Y-1.244
X1.7048Y-0.1484
X1.7057Y-0.2068
X1.7057Y-3.9619
X1.7061Y-0.5295
X1.7064Y-1.4107
X1.7262Y-0.5739
X1.7263Y-0.6785
X1.727Y-1.0714
X1.7285Y-1.3501
X1.7292Y-1.5266
X1.7296Y-1.6263
X1.7301Y-1.4543
X1.7308Y-0.1084
X1.731Y-0.2541
X1.732Y-0.8567
X1.7328Y-2.3826
X1.7329Y-2.0266
X1.7347Y-3.8995
X1.7348Y-0.7809
X1.7359Y-1.1445
X1.7363Y-0.3894
X1.7369Y-0.9893
X1.737Y-3.7504
X1.7373Y-2.2389
X1.7374Y-1.2019
X1.7377Y-4.5774
X1.7383Y-1.81
X1.7388Y-0.328
X1.739Y-1.279
X1.7395Y-0.5019
X1.7398Y-2.3127
X1.742Y-0.1841
X1.7421Y-2.513
X1.7421Y-0.9203
X1.7422Y-3.3692
X1.7424Y-3.8256
X1.7619Y-3.3398
X1.7623Y-3.9434
X1.7633Y-0.28
X1.7634Y-0.3648
X1.7634Y-0.9668
X1.7669Y-1.6755
X1.7671Y-0.4281
X1.7676Y-0.8151
X1.7687Y-3.4098
X1.7689Y-1.0359
X1.7694Y-4.221
X1.7696Y-1.4835
X1.7698Y-3.8619
X1.7698Y-3.8011
X1.771Y-1.56
X1.7711Y-1.9083
X1.7712Y-0.0722
X1.7728Y-1.9796
X1.7729Y-0.1479
X1.773Y-2.5506
X1.7731Y-1.3097
X1.7732Y-1.8444
X1.7732Y-1.0982
X1.7739Y-1.1634
X1.775Y-1.7654
X1.7751Y-0.53
X1.7753Y-2.2617
X1.7761Y-0.2112
X1.7763Y-4.8538
X1.7763Y-4.1404
X1.7765Y-2.4192
X1.7769Y-1.3765
X1.7769Y-0.8802
X1.7771Y-2.3493
X1.7778Y-4.5433
X1.7778Y-0.6119
X1.7781Y-1.2503
X1.7975Y-1.137
X1.7985Y-2.9808
X1.7987Y-0.1852
X1.7988Y-2.3029
X1.799Y-0.7896
X1.7991Y-0.5677
X1.7995Y-2.3744
X1.8011Y-2.0168
X1.8015Y-0.648
X1.8016Y-0.916
X1.8019Y-3.3598
X1.8025Y-4.2468
X1.8031Y-1.8714
X1.8042Y-1.808
X1.8056Y-2.2269
X1.8058Y-1.9453
X1.8063Y-3.8249
X1.8072Y-3.9059
X1.8073Y-3.4389
X1.8073Y-0.3247
X1.8084Y-0.9853
X1.8092Y-3.1226
X1.81Y-1.0645
X1.8105Y-0.1088
X1.8105Y-0.3944
X1.8112Y-1.2819
X1.8117Y-0.4691
X1.8118Y-4.1891
X1.8121Y-2.521
X1.8125Y-1.5201
X1.8126Y-4.5738
X1.8126Y-1.207
X1.8127Y-3.0517
X1.8127Y-1.4281
X1.813Y-0.855
X1.8132Y-1.3479
X1.8135Y-0.2418
X1.8318Y-3.4768
X1.8324Y-4.1178
X1.8334Y-4.2173
X1.8336Y-1.9179
X1.8342Y-2.7634
X1.8358Y-1.1628
X1.8358Y-0.8119
X1.8363Y-3.0164
X1.8363Y-1.2389
X1.8366Y-2.2701
X1.8366Y-3.0884
X1.8368Y-0.213
X1.8389Y-0.076
X1.8393Y-4.2942
X1.84Y-1.0223
X1.84Y-2.4187
X1.8405Y-1.9792
X1.8411Y-4.5422
X1.8416Y-1.0942
X1.8422Y-3.4002
X1.8426Y-0.6013
X1.843Y-2.2019
X1.8431Y-2.3409
X1.8431Y-0.8951
X1.8434Y-3.7605
X1.8438Y-4.8606
X1.8445Y-3.8593
X1.845Y-1.7782
X1.8453Y-0.283
X1.8461Y-3.1614
X1.8467Y-0.9579
X1.8469Y-1.8522
X1.8477Y-2.5551
X1.848Y-0.671
X1.848Y-0.1426
X1.8491Y-0.5004
X1.8681Y-0.6396
X1.8685Y-1.1981
X1.8687Y-4.3975
X1.869Y-3.0422
X1.8692Y-2.5885
X1.8701Y-4.5709
X1.8703Y-2.1597
X1.8705Y-4.3219
X1.8716Y-2.659
X1.8718Y-0.1073
X1.8733Y-2.0161
X1.8733Y-1.0651
X1.8735Y-2.7222
X1.8741Y-0.5261
X1.8743Y-2.982
X1.8746Y-4.1548
X1.8747Y-1.947
X1.8747Y-3.1286
X1.8767Y-2.2279
X1.8769Y-2.523
X1.877Y-1.8874
X1.8771Y-2.0982
X1.8774Y-1.8144
X1.8786Y-0.7734
X1.8796Y-2.3762
X1.8801Y-4.2558
X1.8805Y-1.1299
X1.8806Y-3.7975
X1.8814Y-0.1825
X1.8828Y-0.9242
X1.8829Y-0.9956
X1.8833Y-0.8541
X1.8835Y-2.303
X1.9027Y-2.4088
X1.9036Y-4.5355
X1.9038Y-0.8213
X1.904Y-2.0553
X1.9042Y-4.8594
X1.9049Y-2.3457
X1.9056Y-1.8361
X1.9067Y-1.6388
X1.9078Y-0.5723
X1.908Y-0.1453
X1.9082Y-0.6719
X1.9089Y-0.4954
X1.9098Y-4.1871
X1.9102Y-3.0932
X1.9103Y-1.1713
X1.9104Y-3.0149
X1.9107Y-1.4903
X1.9108Y-2.2039
X1.9109Y-0.9595
X1.911Y-4.3559
X1.9115Y-2.2623
X1.9132Y-4.295
X1.9135Y-2.7738
X1.9143Y-1.0369
X1.9144Y-1.7758
X1.9149Y-0.0783
X1.9154Y-2.5513
X1.9157Y-2.1259
X1.9158Y-1.0952
X1.9162Y-3.164
X1.9163Y-1.9167
X1.9166Y-2.6154
X1.9167Y-0.8963
X1.9171Y-4.4286
X1.9177Y-2.7011
X1.9182Y-3.2676
X1.9191Y-1.9822
X1.9198Y-1.5534
X1.9201Y-4.1113
X1.9382Y-1.0024
X1.9384Y-2.0299
X1.9405Y-2.3735
X1.9423Y-4.222
X1.9424Y-2.1684
X1.9427Y-2.5904
X1.9435Y-1.5192
X1.9439Y-2.7235
X1.9442Y-4.5695
X1.9461Y-2.9342
X1.9464Y-2.7948
X1.9467Y-1.8756
X1.9468Y-2.0948
X1.9472Y-2.2347
X1.9485Y-2.3067
X1.9498Y-1.6753
X1.9507Y-1.9455
X1.9509Y-2.5244
X1.9511Y-1.0578
X1.9514Y-4.3956
X1.9516Y-2.8715
X1.9519Y-3.2996
X1.9523Y-1.8016
X1.9525Y-1.1312
X1.9531Y-4.3208
X1.9534Y-3.05
X1.9537Y-0.1004
X1.9538Y-4.1434
X1.9548Y-2.6649
X1.9554Y-1.5976
X1.9555Y-3.1184
X1.9735Y-2.192
X1.9737Y-3.7261
X1.9739Y-1.7787
X1.974Y-2.3343
X1.9754Y-1.0368
X1.9755Y-2.1268
X1.9763Y-4.3638
X1.9768Y-1.6347
X1.9772Y-1.9848
X1.9789Y-3.266
X1.979Y-2.5614
X1.9793Y-1.0988
X1.98Y-4.8564
X1.9801Y-0.1401
X1.9812Y-2.6908
X1.982Y-3.0849
X1.9836Y-1.9096
X1.9838Y-1.4945
X1.9846Y-3.1594
X1.9847Y-1.1735
X1.9848Y-2.8438
X1.9852Y-4.0712
X1.9857Y-0.0799
X1.9857Y-2.0496
X1.986Y-2.4106
X1.9862Y-2.616
X1.9863Y-2.7716
X1.9871Y-4.5355
X1.9878Y-2.2627
X1.988Y-4.1792
X1.9889Y-1.5669
X1.989Y-2.9814
X1.9896Y-4.2559
X1.9905Y-2.8987
X1.9906Y-1.8432
X2.009Y-2.9475
X2.0091Y-2.375
X2.0091Y-1.6735
X2.0097Y-2.8028
X2.01Y-2.0884
X2.0114Y-1.5927
X2.0123Y-3.0183
X2.0128Y-1.1294
X2.0129Y-0.773
X2.0138Y-3.1115
X2.0138Y-4.2822
X2.0152Y-4.106
X2.0161Y-0.6472
X2.0164Y-2.6627
X2.0165Y-3.7508
X2.0169Y-2.5902
X2.0171Y-1.9593
X2.0176Y-1.875
X2.0177Y-2.0212
X2.0178Y-1.5249
X2.0189Y-1.8179
X2.019Y-0.1132
X2.0191Y-2.2989
X2.0192Y-2.1582
X2.0195Y-4.0356
X2.0197Y-1.0711
X2.0202Y-2.5237
X2.0207Y-3.2997
X2.0211Y-4.2199
X2.0215Y-2.8787
X2.0219Y-0.5027
X2.0229Y-0.5737
X2.0237Y-0.8533
X2.0248Y-2.735
X2.0265Y-2.2356
X2.0448Y-3.7292
X2.0453Y-4.2578
X2.046Y-1.637
X2.0462Y-2.8382
X2.0464Y-0.5292
X2.0466Y-2.5485
X2.0466Y-4.4587
X2.0477Y-1.8425
X2.0478Y-1.5601
X2.0483Y-2.1259
X2.0486Y-4.0764
X2.05Y-3.4795
X2.0514Y-1.101
X2.0515Y-2.333
X2.0516Y-2.8989
X2.0533Y-2.6912
X2.0538Y-3.1611
X2.0545Y-2.7737
X2.0551Y-1.9235
X2.0552Y-3.3393
X2.0557Y-3.2599
X2.0559Y-1.9774
X2.0563Y-1.7654
X2.0564Y-2.1924
X2.0564Y-0.8254
X2.0566Y-4.1522
X2.0573Y-2.6195
X2.0576Y-0.8966
X2.0581Y-0.0723
X2.0584Y-2.4172
X2.0586Y-1.1734
X2.0591Y-2.0497
X2.0599Y-2.2677
X2.061Y-3.4011
X2.0614Y-2.9734
X2.0618Y-3.0405
X2.0818Y-2.7268
X2.0819Y-1.8162
X2.082Y-1.5985
X2.082Y-1.8819
X2.082Y-2.1587
X2.0821Y-1.5204
X2.0822Y-2.6556
X2.0841Y-2.3135
X2.0855Y-1.1392
X2.0863Y-2.9446
X2.088Y-1.9518
X2.088Y-1.2098
X2.088Y-3.0081
X2.0882Y-2.099
X2.0889Y-2.7926
X2.0892Y-2.0225
X2.0904Y-4.0382
X2.0906Y-3.09
X2.091Y-0.9153
X2.0914Y-3.3754
X2.092Y-4.1105
X2.0921Y-4.1845
X2.0925Y-0.7819
X2.0931Y-0.853
X2.0934Y-1.6655
X2.0937Y-2.226
X2.094Y-2.8687
X2.0945Y-2.5974
X2.0964Y-3.2983
X2.0965Y-2.3763
X2.0972Y-2.5159
X2.1153Y-2.1231
X2.1173Y-0.2216
X2.1178Y-2.6261
X2.1185Y-1.8389
X2.1188Y-0.9625
X2.1193Y-3.3372
X2.1206Y-1.985
X2.1215Y-1.1699
X2.1217Y-2.8427
X2.1218Y-0.8232
X2.1226Y-3.2666
X2.1227Y-2.1949
X2.1228Y-3.0529
X2.1247Y-4.0855
X2.1249Y-2.0587
X2.1252Y-0.8869
X2.1253Y-2.4063
X2.1255Y-2.3376
X2.1255Y-4.1394
X2.1257Y-3.9714
X2.1257Y-3.1175
X2.1261Y-2.9845
X2.1269Y-1.9141
X2.1271Y-1.5643
X2.1279Y-1.2333
X2.1285Y-2.6867
X2.1286Y-3.4041
X2.129Y-4.2113
X2.1291Y-2.9012
X2.1295Y-1.638
X2.1298Y-2.762
X2.1299Y-1.7789
X2.1304Y-2.2668
X2.1315Y-2.5612
X2.1326Y-4.4712
X2.151Y-4.5654
X2.1517Y-2.938
X2.1518Y-1.8106
X2.1521Y-2.7274
X2.1527Y-2.3813
X2.1529Y-0.7849
X2.1531Y-2.5223
X2.1532Y-0.9898
X2.1534Y-3.3698
X2.1538Y-1.5315
X2.1541Y-2.0949
X2.1551Y-3.2948
X2.1555Y-3.0158
X2.1557Y-2.5799
X2.1559Y-1.6738
X2.1582Y-1.8784
X2.1596Y-0.9242
X2.1608Y-2.8012
X2.1614Y-3.1617
X2.1619Y-0.8538
X2.162Y-1.949
X2.1621Y-3.9432
X2.1623Y-2.1555
X2.1626Y-2.8808
X2.1627Y-4.19
X2.1633Y-2.6624
X2.1636Y-4.8605
X2.1636Y-4.0087
X2.1637Y-0.6485
X2.1642Y-3.081
X2.1653Y-4.5042
X2.1656Y-4.1116
X2.1657Y-2.0214
X2.1663Y-2.2273
X2.1666Y-2.3074
X2.1672Y-1.6021
X2.1867Y-0.6687
X2.187Y-2.9776
X2.1883Y-1.9106
X2.1884Y-2.8426
X2.1887Y-3.3278
X2.1898Y-1.7683
X2.19Y-0.821
X2.1903Y-0.9528
X2.1906Y-0.8896
X2.1914Y-1.9865
X2.1925Y-4.1525
X2.194Y-2.5519
X2.1941Y-3.2663
X2.1942Y-3.113
X2.1946Y-2.6921
X2.1959Y-2.7597
X2.1977Y-2.6234
X2.1981Y-2.915
X2.1986Y-1.6336
X2.1987Y-3.0523
X2.2001Y-1.0345
X2.2022Y-0.5997
X2.2028Y-3.4015
X2.2029Y-1.8455
X2.2219Y-2.8094
X2.2221Y-4.8498
X2.2233Y-2.9445
X2.2236Y-0.5675
X2.2243Y-3.0151
X2.2251Y-3.7608
X2.2261Y-2.5177
X2.2264Y-0.8588
X2.228Y-0.918
X2.2281Y-2.8641
X2.2283Y-3.0864
X2.2286Y-2.7272
X2.2303Y-1.0691
X2.2312Y-1.673
X2.2314Y-1.8161
X2.2325Y-1.8797
X2.2325Y-2.5829
X2.2325Y-3.1472
X2.233Y-0.6437
X2.2335Y-1.9516
X2.2369Y-1.0011
X2.2369Y-2.662
X2.2375Y-0.7879
X2.2576Y-2.8433
X2.2588Y-1.4848
X2.2593Y-0.8885
X2.2621Y-1.025
X2.2622Y-2.9146
X2.263Y-0.8083
X2.263Y-3.4714
X2.2657Y-0.6078
X2.266Y-0.9551
X2.2665Y-2.9814
X2.2665Y-2.6231
X2.2668Y-0.4973
X2.2672Y-2.6958
X2.2678Y-2.5535
X2.2679Y-1.2819
X2.268Y-3.0559
X2.2705Y-2.7736
X2.2708Y-1.9174
X2.2724Y-2.2373
X2.2728Y-3.1158
X2.273Y-0.6794
X2.2733Y-1.7761
X2.2738Y-1.8533
X2.2928Y-4.8546
X2.2929Y-2.8792
X2.2947Y-0.8579
X2.2949Y-1.8126
X2.2975Y-2.5886
X2.2977Y-2.5177
X2.298Y-0.6321
X2.2995Y-4.5781
X2.3005Y-0.7877
X2.3008Y-1.0682
X2.3025Y-0.9227
X2.3026Y-1.0008
X2.3026Y-2.4068
X2.303Y-0.5263
X2.3035Y-2.9373
X2.3041Y-2.6605
X2.3055Y-3.0216
X2.3065Y-3.0922
X2.3067Y-2.7286
X2.3072Y-2.8098
X2.3072Y-3.1499
X2.309Y-4.4997
X2.3091Y-2.3492
X2.3094Y-1.5312
X2.3095Y-1.8769
X2.31Y-2.2618
X2.3278Y-0.6727
X2.3279Y-1.5636
X2.3285Y-0.2078
X2.3286Y-2.7651
X2.3294Y-2.6915
X2.33Y-1.9081
X2.3305Y-2.2256
X2.333Y-2.3714
X2.3333Y-2.3043
X2.3336Y-2.8434
X2.3337Y-2.6293
X2.3346Y-4.5439
X2.3353Y-1.1746
X2.3358Y-2.903
X2.3369Y-0.9516
X2.3378Y-2.5486
X2.3394Y-1.2476
X2.3398Y-1.1055
X2.34Y-1.4916
X2.3401Y-0.8801
X2.3423Y-2.9811
X2.3423Y-1.0242
X2.3425Y-3.0412
X2.3429Y-0.8205
X2.3432Y-1.7769
X2.3443Y-0.1355
X2.3443Y-0.5669
X2.3446Y-3.1146
X2.3448Y-1.8401
X2.3641Y-1.2768
X2.3663Y-0.6092
X2.3677Y-0.9298
X2.3685Y-2.724
X2.3692Y-3.008
X2.3707Y-1.588
X2.3707Y-1.1344
X2.372Y-1.875
X2.3723Y-0.5264
X2.3725Y-2.523
X2.3748Y-1.199
X2.3749Y-0.7893
X2.3749Y-2.4186
X2.3749Y-2.8002
X2.3753Y-2.5924
X2.3754Y-0.1765
X2.3763Y-2.873
X2.3779Y-2.2618
X2.3779Y-1.5323
X2.3781Y-2.3381
X2.3785Y-1.8157
X2.3792Y-2.6588
X2.3797Y-4.8509
X2.3799Y-1.0003
X2.3799Y-0.8582
X2.38Y-4.5726
X2.3803Y-1.0675
X2.3808Y-2.9416
X2.3995Y-2.692
X2.4013Y-1.8449
X2.4022Y-0.9514
X2.4027Y-2.6255
X2.4033Y-1.0958
X2.4038Y-0.8928
X2.4066Y-1.175
X2.4073Y-0.8117
X2.4091Y-1.2495
X2.4094Y-2.3023
X2.4114Y-1.9089
X2.4115Y-1.0248
X2.4115Y-1.5663
X2.4124Y-1.6361
X2.4141Y-0.6335
X2.4143Y-1.4521
X2.4147Y-2.38
X2.4148Y-0.5663
X2.4152Y-2.7717
X2.4153Y-2.5528
X2.4161Y-4.5404
X2.4345Y-1.067
X2.4354Y-2.4042
X2.4358Y-1.2078
X2.4365Y-0.6777
X2.4368Y-3.303
X2.4373Y-0.8441
X2.4378Y-0.9215
X2.4379Y-4.5643
X2.4391Y-2.6657
X2.4392Y-1.8865
X2.4413Y-2.2768
X2.4416Y-2.5901
X2.4419Y-1.3489
X2.442Y-1.0009
X2.4424Y-0.7776
X2.443Y-1.5973
X2.4436Y-1.2823
X2.4439Y-0.5303
X2.4459Y-2.5182
X2.4473Y-1.1433
X2.4477Y-1.4978
X2.4485Y-0.5956
X2.4487Y-4.8547
X2.4506Y-2.3375
X2.451Y-4.0737
X2.4514Y-1.9516
X2.4515Y-1.4107
X2.47Y-3.7262
X2.4701Y-0.882
X2.4703Y-2.3028
X2.4723Y-1.6244
X2.4728Y-2.9854
X2.4731Y-1.0239
X2.4736Y-2.5484
X2.4743Y-3.8594
X2.4752Y-3.1144
X2.4754Y-1.9816
X2.4761Y-1.5236
X2.4767Y-1.9105
X2.4772Y-0.0677
X2.4791Y-1.3204
X2.4795Y-3.0429
X2.4804Y-2.6217
X2.4821Y-1.3923
X2.4822Y-0.5752
X2.4827Y-3.9348
X2.4832Y-0.6428
X2.4837Y-0.8174
X2.4842Y-0.4931
X2.4842Y-1.4555
X2.4846Y-1.2377
X2.4856Y-1.1065
X2.4856Y-2.3721
X2.4864Y-0.9581
X2.4865Y-1.1754
X2.5049Y-0.2876
X2.5052Y-0.6048
X2.5057Y-2.4082
X2.5058Y-1.4856
X2.5065Y-1.0596
X2.5071Y-3.1509
X2.5088Y-1.0007
X2.5088Y-2.6676
X2.5091Y-3.9636
X2.5091Y-0.8448
X2.5093Y-0.6669
X2.5111Y-3.9074
X2.5112Y-3.7587
X2.5113Y-0.5296
X2.5113Y-1.3527
X2.5114Y-1.1439
X2.5117Y-0.4647
X2.5127Y-2.3361
X2.5146Y-2.2757
X2.5148Y-0.928
X2.5156Y-3.47
X2.5165Y-3.0827
X2.5176Y-1.1992
X2.5176Y-2.5849
X2.518Y-1.5633
X2.5183Y-3.0097
X2.5184Y-2.5134
X2.5188Y-1.2862
X2.5194Y-1.4181
X2.5206Y-3.4027
X2.5208Y-1.6757
X2.5217Y-0.7888
X2.5411Y-1.0337
X2.5426Y-2.3786
X2.543Y-1.0922
X2.5432Y-0.0642
X2.5435Y-2.9754
X2.5447Y-1.1724
X2.5464Y-2.5451
X2.5467Y-3.0576
X2.5474Y-0.9517
X2.548Y-3.8572
X2.5486Y-2.6154
X2.5489Y-1.2394
X2.5489Y-1.3178
X2.5492Y-0.5035
X2.5495Y-1.5259
X2.5495Y-3.7192
X2.5521Y-0.813
X2.5525Y-0.8887
X2.5536Y-3.3746
X2.5539Y-1.3797
X2.5545Y-3.5139
X2.5553Y-3.4439
X2.5558Y-3.9398
X2.556Y-1.4597
X2.556Y-4.01
X2.5565Y-2.3124
X2.557Y-0.5699
X2.557Y-0.636
X2.5581Y-3.1206
X2.5758Y-0.1146
X2.5762Y-3.0923
X2.5765Y-3.021
X2.5774Y-0.5988
X2.5781Y-1.0675
X2.5786Y-0.7875
X2.5788Y-1.2004
X2.5795Y-3.3948
X2.5798Y-3.7529
X2.5806Y-3.5466
X2.5829Y-2.6653
X2.5833Y-0.2521
X2.5839Y-0.5305
X2.584Y-0.9997
X2.5842Y-1.1436
X2.5846Y-4.0375
X2.5846Y-3.9624
X2.5846Y-2.5852
X2.5851Y-1.2863
X2.5856Y-0.6675
X2.5858Y-0.4657
X2.5861Y-0.8516
X2.5869Y-0.9162
X2.588Y-3.3372
X2.5885Y-0.1753
X2.589Y-3.4817
X2.5894Y-1.7817
X2.5932Y-3.9027
X2.6125Y-2.6933
X2.6128Y-1.03
X2.614Y-1.8129
X2.6154Y-2.6189
X2.6182Y-1.2414
X2.6184Y-0.6343
X2.6184Y-0.8894
X2.6185Y-4.5335
X2.6187Y-4.4598
X2.6198Y-3.3629
X2.6199Y-1.1747
X2.6201Y-0.0755
X2.6205Y-3.4402
X2.6206Y-1.1067
X2.6215Y-0.5046
X2.6219Y-0.5771
X2.622Y-4.8625
X2.6225Y-3.0406
X2.6228Y-3.5091
X2.624Y-3.3045
X2.6241Y-3.72
X2.6246Y-3.6496
X2.6248Y-4.0144
X2.625Y-0.9669
X2.6252Y-0.1364
X2.6253Y-3.5883
X2.6261Y-3.9322
X2.6272Y-0.8168
X2.6285Y-0.2234
X2.6289Y-3.1229
X2.6469Y-0.5421
X2.6473Y-4.0495
X2.6486Y-1.7658
X2.6497Y-2.7367
X2.6498Y-3.0877
X2.6498Y-4.507
X2.6501Y-0.9275
X2.651Y-3.6231
X2.6515Y-1.4917
X2.6515Y-1.562
X2.6523Y-2.3711
X2.6525Y-3.341
X2.6528Y-0.6112
X2.6529Y-2.3036
X2.6533Y-3.9726
X2.6533Y-4.574
X2.6552Y-2.6522
X2.656Y-1.0008
X2.6561Y-0.8476
X2.6561Y-3.4104
X2.6562Y-0.1837
X2.6564Y-3.7603
X2.6569Y-0.1128
X2.6569Y-1.1439
X2.6576Y-3.6843
X2.658Y-1.6367
X2.6585Y-3.5491
X2.6586Y-3.0128
X2.6587Y-0.6762
X2.6594Y-1.0718
X2.6595Y-3.4816
X2.6607Y-2.2424
X2.6636Y-0.7874
X2.6829Y-1.6619
X2.6836Y-2.0296
X2.6843Y-3.7881
X2.6848Y-0.14
X2.6849Y-2.2655
X2.685Y-4.2487
X2.6855Y-2.3393
X2.6861Y-4.8608
X2.6871Y-4.0069
X2.6875Y-4.076
X2.6876Y-3.5853
X2.6877Y-3.3741
X2.6883Y-3.513
X2.6888Y-0.0738
X2.6892Y-3.4396
X2.6893Y-4.5422
X2.6902Y-1.598
X2.6904Y-3.2692
X2.6905Y-1.0261
X2.6921Y-3.0417
X2.6921Y-1.5234
X2.6922Y-4.4698
X2.6925Y-2.4054
X2.6927Y-3.7144
X2.6928Y-1.1074
X2.6947Y-3.6573
X2.6952Y-1.1635
X2.6952Y-1.8111
X2.7183Y-3.4699
X2.7195Y-1.6236
X2.7196Y-0.1013
X2.72Y-3.7667
X2.7203Y-3.3052
X2.7204Y-1.5533
X2.7206Y-4.4939
X2.7209Y-2.3673
X2.7214Y-2.3078
X2.7223Y-3.5372
X2.7245Y-3.6822
X2.7258Y-1.7685
X2.7261Y-0.1867
X2.7262Y-1.8457
X2.7265Y-3.019
X2.7268Y-4.5706
X2.7283Y-2.2263
X2.73Y-1.1393
X2.7302Y-3.6082
X2.7305Y-1.9816
X2.733Y-1.0734
X2.7334Y-4.0341
X2.7336Y-4.113
X2.7337Y-1.4869
X2.7338Y-3.4019
X2.7339Y-1.9074
X2.7341Y-3.8334
X2.7348Y-4.1828
X2.7536Y-3.2673
X2.7546Y-1.802
X2.757Y-4.8626
X2.7573Y-1.6714
X2.758Y-1.096
X2.7601Y-2.5248
X2.7601Y-4.1542
X2.7604Y-3.5063
X2.7605Y-4.2255
X2.7624Y-3.4435
X2.7626Y-4.4651
X2.7629Y-1.9569
X2.7636Y-4.2877
X2.7647Y-1.8841
X2.7647Y-1.1771
X2.7649Y-3.3252
X2.7657Y-0.1369
X2.7658Y-2.0258
X2.7662Y-2.342
X2.7679Y-2.2688
X2.7679Y-4.5366
X2.7687Y-1.5949
X2.7693Y-1.5248
X2.7705Y-4.0686
X2.7706Y-2.4062
X2.7706Y-0.0808
X2.7888Y-4.5707
X2.7904Y-4.1852
X2.7904Y-4.3286
X2.7912Y-1.9088
X2.7918Y-3.3007
X2.7923Y-2.304
X2.7933Y-3.4696
X2.7947Y-3.114
X2.7953Y-2.3695
X2.7954Y-1.9859
X2.7961Y-4.5029
X2.7961Y-1.8357
X2.7963Y-0.1074
X2.7975Y-3.3624
X2.7976Y-1.7772
X2.7985Y-0.8465
X2.7993Y-0.6431
X2.7994Y-2.2076
X2.8001Y-2.0612
X2.8007Y-4.3871
X2.801Y-4.1165
X2.8016Y-1.633
X2.8035Y-0.7852
X2.8043Y-4.0487
X2.8049Y-2.5496
X2.8053Y-4.2516
X2.8055Y-1.1376
X2.8057Y-0.9311
X2.8059Y-2.1273
X2.806Y-0.5353
X2.806Y-1.5658
X2.8242Y-0.9592
X2.8245Y-0.072
X2.8251Y-0.8241
X2.8261Y-1.8846
X2.8265Y-4.8604
X2.8265Y-2.9822
X2.8267Y-1.944
X2.8268Y-3.8918
X2.8277Y-3.3376
X2.8286Y-3.2639
X2.8299Y-2.0921
X2.83Y-1.6591
X2.83Y-2.0277
X2.8301Y-1.6051
X2.8302Y-1.5334
X2.8308Y-2.2336
X2.831Y-3.7226
X2.8314Y-2.1668
X2.8326Y-2.4081
X2.834Y-4.3616
X2.835Y-3.0474
X2.8355Y-4.1467
X2.8355Y-4.2232
X2.8355Y-2.5201
X2.8358Y-4.2854
X2.8365Y-3.1468
X2.8378Y-2.3366
X2.8382Y-0.896
X2.8384Y-4.4348
X2.8386Y-4.5359
X2.8398Y-1.8047
X2.8408Y-1.1671
X2.8412Y-4.0825
X2.8413Y-3.3976
X2.8596Y-1.5543
X2.8601Y-0.7824
X2.8613Y-3.374
X2.8626Y-1.7747
X2.8634Y-4.3274
X2.8637Y-3.0203
X2.8648Y-4.1104
X2.8648Y-2.2675
X2.866Y-1.8443
X2.8669Y-2.3741
X2.868Y-1.9943
X2.8681Y-4.4029
X2.8694Y-1.6262
X2.8706Y-3.0836
X2.871Y-4.2479
X2.8714Y-2.1363
X2.8716Y-1.2053
X2.872Y-4.4588
X2.8722Y-2.5456
X2.8722Y-0.2208
X2.8723Y-3.8221
X2.8737Y-4.0004
X2.8746Y-3.3018
X2.8749Y-3.7584
X2.8749Y-0.9895
X2.8749Y-0.8445
X2.8753Y-2.1989
X2.8758Y-0.9251
X2.876Y-2.0595
X2.876Y-1.9226
X2.8762Y-2.766
X2.8763Y-4.1862
X2.8764Y-4.5672
X2.895Y-0.8094
X2.8957Y-1.8727
X2.8965Y-0.9506
X2.8974Y-3.3378
X2.8976Y-3.0504
X2.8978Y-1.9495
X2.8986Y-1.811
X2.8986Y-2.5854
X2.8989Y-2.4168
X2.899Y-2.3099
X2.9024Y-2.2423
X2.9027Y-4.362
X2.9031Y-0.6476
X2.9034Y-4.1414
X2.9043Y-1.0377
X2.9043Y-2.1578
X2.9047Y-4.2887
X2.9049Y-3.7154
X2.9052Y-1.6671
X2.9052Y-2.5132
X2.9058Y-2.0166
X2.9071Y-2.9735
X2.9072Y-2.0841
X2.9073Y-1.5219
X2.908Y-3.2599
X2.9084Y-2.7385
X2.9088Y-3.4057
X2.9088Y-4.0367
X2.9089Y-3.8694
X2.9094Y-4.431
X2.9095Y-0.8963
X2.9105Y-2.6569
X2.9109Y-3.1172
X2.9117Y-1.5947
X2.9117Y-4.2259
X2.9124Y-3.7863
X2.9302Y-3.1598
X2.9306Y-2.7611
X2.9308Y-4.0847
X2.9315Y-3.8318
X2.9317Y-0.854
X2.9326Y-3.3688
X2.9332Y-0.6018
X2.9333Y-0.6768
X2.9334Y-3.8991
X2.934Y-1.9182
X2.9345Y-0.7801
X2.9348Y-4.4724
X2.9358Y-3.0906
X2.936Y-3.9976
X2.9363Y-1.0568
X2.938Y-3.2972
X2.9381Y-0.9293
X2.9387Y-2.6933
X2.9389Y-2.6323
X2.94Y-1.778
X2.941Y-1.8526
X2.9411Y-4.1846
X2.9412Y-3.0209
X2.9415Y-2.549
X2.9426Y-3.7559
X2.9433Y-4.2488
X2.9438Y-1.6336
X2.9443Y-1.9802
X2.9452Y-4.3236
X2.9469Y-4.3906
X2.9471Y-1.0011
X2.9669Y-4.4296
X2.9676Y-3.4081
X2.9683Y-4.3554
X2.969Y-4.2129
X2.9707Y-2.5885
X2.9708Y-0.8206
X2.9708Y-3.8678
X2.9717Y-3.1278
X2.9718Y-3.336
X2.9721Y-2.7337
X2.9731Y-1.0249
X2.9738Y-4.1052
X2.975Y-4.2943
X2.9752Y-3.793
X2.9757Y-2.9351
X2.976Y-2.5092
X2.9769Y-0.6395
X2.9772Y-1.8115
X2.9776Y-0.9558
X2.9778Y-1.8809
X2.9784Y-4.045
X2.9784Y-3.0498
X2.979Y-2.8057
X2.9792Y-1.6611
X2.9797Y-0.8825
X2.9802Y-0.5604
X2.9818Y-2.6606
X2.9818Y-1.9447
X2.9828Y-2.8809
X2.9829Y-3.2594
X3.0019Y-2.772
X3.0023Y-2.6225
X3.0024Y-2.7007
X3.0025Y-2.9782
X3.0033Y-0.6109
X3.0045Y-0.9965
X3.0049Y-0.9303
X3.0052Y-3.3624
X3.0058Y-1.7723
X3.0061Y-2.9129
X3.0071Y-4.4595
X3.0073Y-3.0768
X3.0076Y-4.5291
X3.0081Y-3.1596
X3.0086Y-4.1545
X3.0086Y-3.896
X3.0089Y-2.8419
X3.0097Y-4.3183
X3.0107Y-0.5267
X3.0108Y-4.0126
X3.0112Y-3.4404
X3.012Y-2.5515
X3.0132Y-3.8264
X3.0135Y-3.2937
X3.014Y-4.3949
X3.0149Y-0.668
X3.0162Y-4.085
X3.0164Y-1.0738
X3.0174Y-4.2581
X3.0175Y-1.924
X3.0184Y-1.8375
X3.0367Y-3.41
X3.0367Y-2.6596
X3.0382Y-0.8823
X3.0389Y-2.3017
X3.0399Y-3.4724
X3.04Y-3.0183
X3.0403Y-1.0331
X3.0406Y-2.8771
X3.0422Y-0.6442
X3.0425Y-3.1289
X3.0432Y-1.8074
X3.0433Y-2.242
X3.0433Y-3.8704
X3.0433Y-2.592
X3.0439Y-2.3721
X3.0442Y-4.0442
X3.0443Y-4.1063
X3.0447Y-4.5036
X3.045Y-3.7943
X3.0463Y-1.4858
X3.0464Y-2.7974
X3.0471Y-4.5689
X3.0477Y-1.2809
X3.049Y-2.5154
X3.0492Y-1.8792
X3.0496Y-0.9609
X3.0512Y-3.2693
X3.0513Y-0.574
X3.0517Y-2.9463
X3.0531Y-3.3281
X3.0532Y-4.1899
X3.0537Y-2.73
X3.0721Y-1.1396
X3.0723Y-0.6752
X3.0725Y-0.9211
X3.0728Y-2.6261
X3.0731Y-0.2232
X3.0733Y-4.0118
X3.0748Y-2.556
X3.0751Y-1.8474
X3.0757Y-2.8992
X3.0764Y-1.7823
X3.0767Y-2.336
X3.0784Y-0.1513
X3.0788Y-0.9986
X3.0788Y-1.9143
X3.0788Y-4.5431
X3.079Y-2.8433
X3.0791Y-2.2743
X3.0798Y-3.8935
X3.0801Y-3.1549
X3.0812Y-3.042
X3.0817Y-0.6055
X3.0825Y-2.4038
X3.0833Y-4.1498
X3.0844Y-3.8216
X3.0849Y-2.6877
X3.0854Y-1.5224
X3.0859Y-1.0702
X3.0859Y-4.2192
X3.0869Y-1.1992
X3.087Y-3.2932
X3.0878Y-2.9705
X3.0888Y-0.5346
X3.0889Y-4.0713
X3.0893Y-2.7603
X3.109Y-1.0219
X3.1095Y-2.582
X3.1102Y-2.947
X3.1112Y-3.0209
X3.112Y-4.1036
X3.1122Y-0.9609
X3.1126Y-3.7859
X3.1129Y-1.8068
X3.1134Y-1.872
X3.1136Y-2.5145
X3.1166Y-2.8663
X3.1182Y-2.8081
X3.1183Y-2.3115
X3.1188Y-3.8569
X3.1193Y-1.4978
X3.1199Y-0.6432
X3.1202Y-2.735
X3.1216Y-4.0396
X3.1217Y-4.1873
X3.1219Y-0.8816
X3.122Y-2.2264
X3.122Y-0.1726
X3.1228Y-1.2337
X3.1228Y-2.6648
X3.123Y-1.5686
X3.1233Y-1.1724
X3.1235Y-1.0918
X3.1239Y-2.379
X3.1245Y-0.5709
X3.1432Y-2.2635
X3.1432Y-2.4113
X3.1455Y-0.9902
X3.1479Y-3.2886
X3.148Y-2.5521
X3.1487Y-1.142
X3.149Y-2.3471
X3.149Y-0.6838
X3.1495Y-4.0115
X3.1507Y-1.5323
X3.1525Y-2.6192
X3.1526Y-4.0742
X3.1531Y-1.8426
X3.1543Y-2.763
X3.1548Y-1.057
X3.155Y-1.59
X3.1551Y-1.9137
X3.1557Y-0.6029
X3.1558Y-1.4508
X3.1563Y-0.9268
X3.1566Y-0.5302
X3.1575Y-4.1484
X3.1588Y-2.6953
X3.1595Y-1.2767
X3.1598Y-1.2014
X3.1787Y-2.5161
X3.1811Y-1.9532
X3.1813Y-2.5926
X3.1814Y-1.3762
X3.1815Y-0.8899
X3.1817Y-1.5541
X3.1818Y-1.245
X3.1828Y-0.5645
X3.1829Y-1.0301
X3.1829Y-1.8812
X3.1848Y-1.1665
X3.1857Y-2.6666
X3.1859Y-2.3726
X3.186Y-1.4813
X3.1861Y-1.3158
X3.1867Y-2.727
X3.1867Y-1.0983
X3.1898Y-0.96
X3.191Y-0.6375
X3.1915Y-1.6277
X3.1925Y-4.0501
X3.194Y-4.104
X3.1959Y-2.3089
X3.2139Y-3.1271
X3.2146Y-1.4123
X3.2156Y-3.0478
X3.2157Y-0.9209
X3.2174Y-0.5972
X3.218Y-1.3408
X3.2184Y-0.6783
X3.2189Y-3.8647
X3.2192Y-3.7185
X3.2193Y-1.9945
X3.2204Y-1.2154
X3.2211Y-4.5359
X3.2224Y-2.6233
X3.2231Y-2.5479
X3.2232Y-2.2662
X3.2232Y-1.0574
X3.2234Y-0.9985
X3.2242Y-2.3338
X3.2243Y-4.1504
X3.2252Y-1.1406
X3.2261Y-2.4059
X3.2261Y-4.4597
X3.2264Y-1.5879
X3.2266Y-1.9191
X3.2267Y-1.2766
X3.2274Y-2.9727
X3.2287Y-4.0681
X3.2299Y-1.5187
X3.23Y-1.6694
X3.2301Y-3.7969
X3.2308Y-0.0781
X3.2309Y-0.495
X3.2497Y-3.092
X3.2504Y-1.4583
X3.2504Y-2.5947
X3.251Y-0.2783
X3.2516Y-2.3
X3.2518Y-0.4638
X3.2521Y-2.3738
X3.2527Y-1.6343
X3.2553Y-1.3895
X3.2555Y-1.3117
X3.2559Y-0.6362
X3.256Y-1.178
X3.2561Y-3.1545
X3.2568Y-3.5034
X3.2569Y-0.9533
X3.2579Y-4.5058
X3.2588Y-1.2416
X3.2588Y-3.8326
X3.2591Y-1.0245
X3.262Y-2.5238
X3.2623Y-3.7553
X3.2624Y-3.894
X3.2633Y-2.6644
X3.2634Y-1.5599
X3.2644Y-4.5679
X3.2648Y-4.1173
X3.2653Y-0.5404
X3.2654Y-1.098
X3.2661Y-0.8882
X3.2662Y-3.016
X3.285Y-0.0656
X3.2854Y-3.434
X3.2856Y-1.6668
X3.2859Y-3.0446
X3.286Y-3.7293
X3.286Y-2.2681
X3.2868Y-0.9254
X3.2869Y-2.344
X3.2885Y-4.1391
X3.2889Y-1.2687
X3.2893Y-1.0569
X3.2899Y-1.421
X3.2912Y-3.1138
X3.2913Y-0.5002
X3.2919Y-1.3507
X3.2925Y-3.8594
X3.2932Y-2.6314
X3.296Y-4.5326
X3.2967Y-3.7854
X3.297Y-0.5748
X3.2974Y-1.135
X3.2977Y-1.4859
X3.2982Y-2.5612
X3.3006Y-1.5905
X3.3012Y-0.9935
X3.3013Y-0.6694
X3.3018Y-1.2149
X3.3019Y-3.3731
X3.3021Y-2.9699
X3.3229Y-1.1727
X3.323Y-0.1004
X3.3235Y-3.8282
X3.3248Y-3.4039
X3.3257Y-0.5252
X3.327Y-3.3296
X3.3273Y-3.8943
X3.3274Y-1.0228
X3.328Y-3.0808
X3.3284Y-2.6622
X3.3286Y-1.0939
X3.3292Y-1.7649
X3.3293Y-0.8799
X3.3297Y-2.5833
X3.3308Y-3.4661
X3.3312Y-0.4587
X3.3321Y-4.5794
X3.3335Y-0.1854
X3.3343Y-0.611
X3.3352Y-3.0207
X3.3354Y-0.9636
X3.3364Y-0.2512
X3.3365Y-3.7508
X3.3371Y-1.2484
X3.3555Y-3.0531
X3.3574Y-3.2913
X3.3585Y-4.5311
X3.3592Y-3.652
X3.3592Y-3.4355
X3.3595Y-1.1298
X3.3597Y-3.112
X3.3605Y-1.2053
X3.3622Y-0.2219
X3.363Y-3.7969
X3.3642Y-0.1417
X3.3645Y-3.3693
X3.3654Y-0.0686
X3.3656Y-3.582
X3.3659Y-0.9217
X3.3665Y-0.5066
X3.3684Y-3.7196
X3.3689Y-3.5041
X3.3705Y-0.5608
X3.3705Y-2.6316
X3.3712Y-1.073
X3.3713Y-1.8064
X3.3719Y-0.9973
X3.3725Y-0.6334
X3.373Y-3.8702
X3.391Y-1.4895
X3.3913Y-1.781
X3.3918Y-2.2255
X3.3919Y-0.5971
X3.3921Y-0.6773
X3.3923Y-0.1001
X3.3933Y-3.404
X3.3937Y-3.6128
X3.3942Y-3.5478
X3.3942Y-2.6581
X3.3945Y-3.0074
X3.3957Y-0.9541
X3.3958Y-3.3298
X3.3981Y-3.0853
X3.3989Y-2.7332
X3.3995Y-3.828
X3.3996Y-1.1717
X3.3997Y-3.8936
X3.3999Y-3.6889
X3.4013Y-0.5343
X3.4026Y-0.1732
X3.4028Y-1.0282
X3.4034Y-3.4746
X3.4043Y-2.3724
X3.4046Y-2.3016
X3.4047Y-1.0916
X3.4051Y-3.7571
X3.4076Y-0.8805
X3.4081Y-3.999
X3.4264Y-0.9173
X3.4273Y-3.0565
X3.428Y-3.4415
X3.4286Y-3.7285
X3.4288Y-1.5924
X3.429Y-3.5097
X3.4295Y-1.0589
X3.4305Y-3.8564
X3.4306Y-3.7872
X3.431Y-3.5844
X3.4319Y-0.0808
X3.4322Y-1.1382
X3.4339Y-2.3403
X3.434Y-2.6904
X3.434Y-3.3675
X3.4341Y-0.9981
X3.4343Y-2.4087
X3.4344Y-1.6675
X3.4351Y-0.4558
X3.4351Y-3.6451
X3.4353Y-0.6467
X3.4354Y-2.2676
X3.4404Y-2.0221
X3.4407Y-3.2535
X3.4409Y-0.1413
X3.4411Y-1.8136
X3.4426Y-0.5764
X3.4428Y-4.0476
X3.4429Y-1.5316
X3.4617Y-2.3757
X3.4622Y-3.4113
X3.4629Y-3.9043
X3.463Y-0.6057
X3.4643Y-0.1114
X3.4646Y-3.7591
X3.4648Y-3.5365
X3.4673Y-0.5058
X3.468Y-1.5561
X3.468Y-3.6922
X3.468Y-1.7701
X3.4681Y-1.9084
X3.469Y-0.8874
X3.4694Y-2.2997
X3.4698Y-3.6156
X3.4702Y-4.0006
X3.4709Y-1.6251
X3.472Y-3.4804
X3.4723Y-3.0078
X3.4726Y-0.9617
X3.474Y-0.1789
X3.4744Y-1.9942
X3.4746Y-1.107
X3.4746Y-1.8405
X3.4746Y-3.2957
X3.4749Y-1.0356
X3.4775Y-1.4892
X3.4775Y-1.172
X3.4777Y-3.8279
X3.4782Y-2.2395
X3.4791Y-0.6668
X3.4971Y-3.4431
X3.4973Y-4.0416
X3.4973Y-0.1382
X3.4977Y-2.4098
X3.4997Y-4.746
X3.5Y-3.3256
X3.501Y-2.0214
X3.5015Y-0.075
X3.5022Y-1.0718
X3.5036Y-1.9526
X3.5044Y-1.8873
X3.5057Y-0.9929
X3.506Y-0.4678
X3.5064Y-2.2646
X3.5069Y-2.515
X3.5087Y-1.6692
X3.5103Y-0.5247
X3.5106Y-1.1359
X3.5112Y-0.6374
X3.5118Y-1.5303
X3.5136Y-1.8165
X3.5138Y-3.2643
X3.5139Y-0.9162
X3.514Y-1.5935
X3.5142Y-3.5129
X3.5142Y-2.3381
X3.5331Y-1.1764
X3.5348Y-1.7811
X3.5354Y-0.6697
X3.5365Y-1.0235
X3.5367Y-2.1227
X3.5378Y-1.0941
X3.5384Y-2.0531
X3.5399Y-0.114
X3.5399Y-3.3662
X3.5405Y-4.0773
X3.5406Y-2.5514
X3.5408Y-3.1112
X3.5412Y-1.6295
X3.5415Y-1.9132
X3.542Y-1.8509
X3.5425Y-0.9667
X3.5427Y-3.4679
X3.544Y-0.886
X3.5444Y-0.5775
X3.5449Y-1.562
X3.5464Y-2.3678
X3.5476Y-0.5004
X3.5476Y-2.2007
X3.5478Y-3.3011
X3.5489Y-2.2986
X3.55Y-1.9818
X3.5501Y-4.7061
X3.568Y-1.136
X3.5681Y-2.0883
X3.5685Y-3.2619
X3.5686Y-3.3374
X3.5688Y-2.9715
X3.5689Y-1.5299
X3.5691Y-1.8161
X3.5693Y-1.9521
X3.5702Y-0.9245
X3.5704Y-1.5906
X3.5713Y-3.1601
X3.5717Y-1.198
X3.572Y-1.6726
X3.5748Y-2.4055
X3.5749Y-1.0572
X3.5768Y-1.8796
X3.577Y-2.2342
X3.5773Y-4.0434
X3.5784Y-2.0223
X3.5787Y-1.0002
X3.5823Y-0.5368
X3.5825Y-2.3436
X3.5825Y-2.5091
X3.5827Y-3.0541
X3.5834Y-0.0001
X3.5842Y-2.1717
X3.5845Y-3.7212
X3.5846Y-3.398
X3.5847Y-0.0772
X3.5849Y-4.7475
X3.5849Y-4.6768
X3.6035Y-1.0246
X3.6061Y-3.0824
X3.6068Y-0.2229
X3.6073Y-2.1243
X3.6078Y-1.6333
X3.6083Y-2.1931
X3.6087Y-1.9236
X3.6088Y-3.3043
X3.6094Y-3.7612
X3.6094Y-3.8331
X3.6101Y-1.5533
X3.6102Y-1.0956
X3.6116Y-1.8375
X3.613Y-3.9699
X3.613Y-2.2738
X3.6138Y-4.7092
X3.6158Y-3.0083
X3.6159Y-1.1715
X3.6163Y-4.6458
X3.6164Y-2.0639
X3.6165Y-0.8851
X3.6171Y-4.0719
X3.6177Y-0.9604
X3.6188Y-1.7686
X3.619Y-2.7682
X3.6201Y-1.9838
X3.6205Y-2.5566
X3.6205Y-3.3696
X3.6205Y-0.0424
X3.6206Y-2.3844
X3.639Y-1.594
X3.6397Y-1.9567
X3.6409Y-4.7431
X3.6424Y-2.4188
X3.643Y-1.8172
X3.6435Y-4.6869
X3.6435Y-2.0258
X3.6457Y-2.5247
X3.6469Y-4.2254
X3.6475Y-3.4093
X3.6486Y-1.5264
X3.6492Y-3.1156
X3.6493Y-0.9236
X3.6501Y-3.7989
X3.6509Y-1.0625
X3.6515Y-3.3243
X3.6522Y-3.7298
X3.6523Y-3.0412
X3.6523Y-2.0843
X3.6524Y-2.2426
X3.6525Y-4.0035
X3.653Y-2.6634
X3.6532Y-0.6432
X3.6533Y-1.6658
X3.6533Y-2.7376
X3.6534Y-2.3082
X3.6534Y-2.9733
X3.6535Y-3.2675
X3.654Y-2.5895
X3.6544Y-1.8833
X3.6548Y-0.9993
X3.655Y-2.1706
X3.6556Y-4.6135
X3.6563Y-4.121
X3.6744Y-2.7604
X3.6753Y-2.6188
X3.6756Y-1.7717
X3.6761Y-1.6254
X3.6772Y-3.0889
X3.6778Y-3.3717
X3.6786Y-2.1938
X3.679Y-1.9149
X3.6811Y-1.5528
X3.6813Y-2.0546
X3.6836Y-0.8901
X3.6843Y-1.0371
X3.6847Y-3.3035
X3.6866Y-4.7142
X3.6867Y-2.2679
X3.6869Y-2.6929
X3.6871Y-1.9853
X3.6876Y-2.1197
X3.6877Y-3.9629
X3.6879Y-4.0499
X3.6887Y-3.8203
X3.6888Y-4.6501
X3.689Y-3.7591
X3.6891Y-0.0314
X3.6893Y-0.6726
X3.6897Y-4.2479
X3.6897Y-2.552
X3.6897Y-3.0144
X3.6898Y-3.163
X3.6898Y-1.8525
X3.6903Y-0.9546
X3.71Y-1.9441
X3.7101Y-4.7454
X3.7106Y-0.6099
X3.7124Y-3.3959
X3.7132Y-1.0586
X3.7138Y-3.7853
X3.7152Y-0.9864
X3.7168Y-3.0526
X3.7173Y-2.9409
X3.7173Y-1.8797
X3.7179Y-3.1192
X3.7191Y-3.2681
X3.7195Y-3.33
X3.7204Y-2.5243
X3.7206Y-2.7244
X3.7206Y-1.8022
X3.7213Y-0.9279
X3.7215Y-2.8066
X3.7218Y-4.2808
X3.7231Y-4.2176
X3.7249Y-0.0094
X3.7255Y-4.6811
X3.7257Y-3.999
X3.7261Y-4.6026
X3.7263Y-2.6613
X3.7271Y-2.5932
X3.7272Y-1.6646
X3.746Y-3.4442
X3.7465Y-3.831
X3.7483Y-4.178
X3.7487Y-0.6362
X3.7488Y-1.848
X3.7493Y-1.0266
X3.7498Y-3.1537
X3.7499Y-0.5654
X3.7503Y-2.9008
X3.7513Y-1.7671
X3.7517Y-2.9807
X3.7541Y-3.3693
X3.7545Y-0.8802
X3.7547Y-4.2558
X3.7548Y-2.8337
X3.7555Y-3.7565
X3.7565Y-3.0871
X3.7568Y-4.7088
X3.7577Y-2.5523
X3.7578Y-4.6482
X3.7586Y-2.7739
X3.7599Y-0.9671
X3.7618Y-1.9195
X3.7618Y-3.9669
X3.7624Y-2.7037
X3.7624Y-2.624
X3.7628Y-3.2886
X3.7807Y-3.4729
X3.7813Y-2.7377
X3.7814Y-4.4033
X3.7815Y-3.4017
X3.7829Y-2.2403
X3.7833Y-1.4835
X3.7838Y-4.1479
X3.7838Y-2.9386
X3.7866Y-1.2727
X3.7871Y-1.0607
X3.7896Y-2.6663
X3.7897Y-3.2532
X3.7909Y-4.2112
X3.7911Y-1.8711
X3.7914Y-3.3375
X3.7916Y-4.6121
X3.7916Y-4.6868
X3.7918Y-0.9258
X3.7921Y-1.8147
X3.7922Y-3.1183
X3.7926Y-3.017
X3.7931Y-2.8771
X3.7934Y-0.6683
X3.7944Y-2.3085
X3.7949Y-2.798
X3.7951Y-2.5244
X3.7956Y-1.0004
X3.7959Y-0.612
X3.7971Y-2.5897
X3.7973Y-2.3846
X3.7974Y-4.7504
X3.7978Y-3.7937
X3.798Y-0.5066
X3.8166Y-4.7216
X3.8173Y-0.6457
X3.8179Y-4.3638
X3.8191Y-3.8249
X3.8192Y-2.2722
X3.8196Y-2.8281
X3.8203Y-4.1771
X3.8204Y-1.0966
X3.8206Y-1.7665
X3.821Y-2.7604
X3.8216Y-2.698
X3.822Y-0.1791
X3.8226Y-2.3397
X3.8238Y-2.9017
X3.8243Y-4.1133
X3.8244Y-4.6478
X3.8256Y-2.6233
X3.8261Y-1.0375
X3.8271Y-2.5495
X3.8275Y-1.5228
X3.8276Y-1.9085
X3.8288Y-0.9535
X3.829Y-3.1618
X3.8298Y-0.8835
X3.8305Y-0.5385
X3.8305Y-1.2386
X3.8323Y-3.2986
X3.8325Y-2.9736
X3.8328Y-2.4134
X3.8329Y-1.8441
X3.8332Y-3.0566
X3.8514Y-2.9425
X3.8516Y-2.8739
X3.8523Y-2.7324
X3.8523Y-0.6709
X3.8532Y-1.5575
X3.8537Y-1.066
X3.8539Y-1.4973
X3.8541Y-4.6158
X3.8544Y-0.5603
X3.8545Y-3.7854
X3.8548Y-2.7924
X3.8552Y-2.6549
X3.8562Y-1.1376
X3.8564Y-4.6831
X3.858Y-0.206
X3.8604Y-2.3773
X3.8605Y-4.7532
X3.8609Y-4.3226
X3.8622Y-1.8816
X3.8625Y-0.1428
X3.8627Y-0.9963
X3.8629Y-2.5871
X3.864Y-2.3018
X3.8648Y-1.2732
X3.8655Y-3.0204
X3.866Y-2.2351
X3.8664Y-4.0693
X3.8667Y-4.3933
X3.8672Y-1.8013
X3.8676Y-0.9277
X3.868Y-4.1481
X3.869Y-2.515
X3.8868Y-2.6305
X3.8869Y-1.4522
X3.8875Y-2.3333
X3.8877Y-4.284
X3.8881Y-1.0941
X3.8892Y-2.2711
X3.8893Y-1.9112
X3.8904Y-1.2498
X3.8912Y-0.6091
X3.8915Y-2.4049
X3.8917Y-2.7707
X3.893Y-3.305
X3.8932Y-4.6388
X3.8934Y-4.7142
X3.8934Y-4.1181
X3.8936Y-1.8361
X3.8937Y-4.3652
X3.8939Y-1.5214
X3.8951Y-3.7661
X3.8953Y-4.0426
X3.896Y-1.5942
X3.897Y-3.8365
X3.8971Y-0.8809
X3.8979Y-0.5329
X3.9015Y-2.5481
X3.902Y-1.0231
X3.9028Y-2.6948
X3.9038Y-0.9668
X3.9229Y-1.2721
X3.9229Y-0.6446
X3.9239Y-1.638
X3.9239Y-4.6863
X3.9245Y-2.3736
X3.9249Y-1.4836
X3.9263Y-4.0836
X3.9277Y-4.3966
X3.9288Y-4.6118
X3.9298Y-2.5963
X3.9303Y-1.3566
X3.9306Y-1.5543
X3.9307Y-2.3084
X3.9308Y-2.651
X3.9314Y-1.8753
X3.9335Y-0.9934
X3.9339Y-4.3161
X3.934Y-4.0117
X3.9343Y-3.7939
X3.9346Y-4.2595
X3.935Y-4.7542
X3.9354Y-1.4277
X3.9366Y-2.7348
X3.9373Y-1.1427
X3.9373Y-1.0727
X3.9373Y-2.5183
X3.9374Y-3.7262
X3.9376Y-0.564
X3.9386Y-0.9271
X3.9577Y-1.3861
X3.9578Y-1.53
X3.9581Y-2.5586
X3.9584Y-1.2503
X3.9585Y-1.4539
X3.9589Y-0.5973
X3.9594Y-3.1515
X3.9597Y-0.6684
X3.9619Y-2.4169
X3.9623Y-3.9676
X3.9632Y-1.1065
X3.9633Y-2.347
X3.9646Y-1.9938
X3.9646Y-4.033
X3.9655Y-4.642
X3.9668Y-0.9529
X3.9674Y-0.8851
X3.9679Y-0.5046
X3.9683Y-1.9076
X3.9683Y-2.6209
X3.9687Y-0.0641
X3.9689Y-1.6598
X3.97Y-4.217
X3.9705Y-4.7139
X3.9711Y-1.3189
X3.9712Y-2.2723
X3.9723Y-4.3574
X3.9731Y-1.0355
X3.9732Y-3.8289
X3.9733Y-4.295
X3.9737Y-1.5879
X3.9738Y-3.7657
X3.9751Y-2.9862
X3.9753Y-3.2957
X3.9951Y-2.5196
X3.9955Y-3.796
X3.9955Y-1.4824
X3.9955Y-4.3265
X3.996Y-1.6348
X3.9962Y-0.9916
X3.9979Y-1.3504
X3.998Y-1.1323
X3.9982Y-4.3948
X3.9989Y-4.6741
X3.9993Y-0.9187
X4.0003Y-1.5622
X4.0006Y-3.0111
X4.0009Y-1.0582
X4.0012Y-3.0884
X4.0021Y-4.7442
X4.0039Y-0.4539
X4.0049Y-4.2566
X4.0062Y-3.7223
X4.0067Y-1.418
X4.0068Y-0.2862
X4.0072Y-2.3113
X4.0073Y-4.0036
X4.0075Y-2.3706
X4.0081Y-2.6518
X4.0081Y-4.1845
X4.0088Y-4.6085
X4.0088Y-1.2805
X4.0091Y-0.531
X4.0092Y-2.5961
X4.0103Y-0.6483
X4.0286Y-2.6209
X4.0287Y-1.458
X4.0318Y-1.0256
X4.0321Y-0.9657
X4.0322Y-4.1395
X4.0329Y-1.5907
X4.0334Y-0.5738
X4.0342Y-3.7543
X4.0355Y-2.4199
X4.0356Y-4.2955
X4.0356Y-4.3566
X4.0363Y-1.3847
X4.0371Y-1.5328
X4.0373Y-1.237
X4.0378Y-2.9743
X4.038Y-0.683
X4.0385Y-3.4029
X4.0393Y-3.4805
X4.0394Y-0.4898
X4.0395Y-2.3446
X4.0401Y-2.5582
X4.0406Y-4.6487
X4.0409Y-1.6639
X4.042Y-3.8221
X4.0426Y-3.0516
X4.0432Y-3.1184
X4.0438Y-2.2617
X4.0441Y-4.2175
X4.0443Y-0.8933
X4.0447Y-4.7085
X4.0447Y-1.3069
X4.045Y-0.0682
X4.0459Y-1.1007
X4.0646Y-3.7223
X4.0646Y-0.4567
X4.0648Y-1.1326
X4.0652Y-0.2508
X4.0653Y-2.5857
X4.067Y-1.0567
X4.0671Y-0.1127
X4.0703Y-3.0848
X4.0707Y-4.1844
X4.0715Y-2.6636
X4.0719Y-0.9922
X4.0745Y-3.1537
X4.0751Y-3.5064
X4.0761Y-3.7961
X4.0769Y-0.6097
X4.0772Y-1.7752
X4.0775Y-1.2814
X4.0777Y-4.3199
X4.0784Y-3.4445
X4.0792Y-4.3886
X4.0793Y-0.9151
X4.0794Y-0.5274
X4.0801Y-4.2511
X4.0811Y-4.7469
X4.0814Y-3.0077
X4.0817Y-3.3645
X4.0997Y-3.1182
X4.1018Y-2.6232
X4.1027Y-3.7541
X4.1028Y-3.4749
X4.103Y-4.2213
X4.1035Y-1.0304
X4.1036Y-3.8266
X4.1047Y-0.6415
X4.1059Y-0.9512
X4.1065Y-1.108
X4.1067Y-0.067
X4.1072Y-0.503
X4.1089Y-3.0449
X4.1093Y-3.5538
X4.1115Y-0.5716
X4.1115Y-4.3665
X4.1135Y-1.2434
X4.1146Y-3.4018
X4.1149Y-0.8812
X4.115Y-1.808
X4.1167Y-4.2811
X4.1169Y-3.327
X4.137Y-2.383
X4.1378Y-0.6763
X4.1382Y-4.3224
X4.1391Y-3.4471
X4.1395Y-3.5832
X4.1397Y-2.2384
X4.1398Y-2.7392
X4.14Y-0.4654
X4.1406Y-3.2985
X4.1427Y-4.3892
X4.1429Y-0.9892
X4.1434Y-3.078
X4.1436Y-3.7899
X4.1443Y-0.6114
X4.146Y-1.7746
X4.1464Y-4.2612
X4.148Y-0.9285
X4.1482Y-0.1159
X4.149Y-1.4932
X4.1494Y-3.0071
X4.1502Y-3.3732
X4.1517Y-1.0647
X4.1519Y-0.5307
X4.1523Y-2.3104
X4.1523Y-3.5101
X4.1525Y-2.6581
X4.1712Y-2.6876
X4.1717Y-0.6317
X4.1719Y-1.6016
X4.1729Y-3.6171
X4.1732Y-2.0271
X4.1736Y-0.5687
X4.1737Y-3.3951
X4.1738Y-0.1432
X4.1739Y-0.4343
X4.1753Y-1.5286
X4.1772Y-3.3298
X4.1776Y-3.0407
X4.1783Y-2.3417
X4.1783Y-3.4747
X4.18Y-0.9515
X4.1802Y-4.3563
X4.1807Y-3.8237
X4.1821Y-4.2937
X4.1823Y-2.405
X4.1824Y-3.5529
X4.1824Y-0.3622
X4.1834Y-1.6685
X4.1839Y-1.8042
X4.184Y-0.0782
X4.1851Y-0.5068
X4.186Y-2.2703
X4.1861Y-1.0277
X4.1865Y-4.1803
X4.1868Y-0.8792
X4.2074Y-0.1711
X4.2076Y-3.2554
X4.2081Y-1.6287
X4.2082Y-3.0071
X4.209Y-0.108
X4.2094Y-0.4608
X4.2103Y-3.5032
X4.2117Y-4.3944
X4.2119Y-1.7821
X4.2123Y-0.9243
X4.213Y-4.3235
X4.2131Y-4.2123
X4.2134Y-1.9803
X4.2146Y-1.8522
X4.2146Y-1.4819
X4.2161Y-1.5617
X4.2166Y-0.6816
X4.2168Y-3.6431
X4.2185Y-0.9958
X4.2185Y-2.2341
X4.2196Y-2.3095
X4.2197Y-3.3706
X4.2198Y-0.5369
X4.2205Y-0.599
X4.2207Y-0.3834
X4.2212Y-3.4418
X4.2221Y-1.9095
X4.2221Y-2.3837
X4.2229Y-3.5832
X4.2422Y-2.272
X4.2436Y-0.2099
X4.244Y-1.9496
X4.2445Y-3.4714
X4.2455Y-1.6644
X4.2457Y-0.8891
X4.2459Y-2.0172
X4.2459Y-4.1743
X4.2465Y-0.1429
X4.2472Y-3.3044
X4.2476Y-1.45
X4.2482Y-0.5028
X4.2482Y-1.8145
X4.2484Y-2.3347
X4.249Y-2.5096
X4.2501Y-0.0772
X4.2504Y-3.6151
X4.2515Y-2.4149
X4.2519Y-0.6456
X4.2522Y-0.9533
X4.2525Y-1.8747
X4.254Y-4.2479
X4.2542Y-4.3673
X4.2543Y-3.4085
X4.2543Y-0.563
X4.2554Y-1.1756
X4.2556Y-1.5966
X4.2564Y-1.533
X4.2576Y-0.4357
X4.2576Y-3.5377
X4.2773Y-0.5408
X4.2775Y-3.4371
X4.2777Y-1.9162
X4.278Y-4.2184
X4.2783Y-2.5498
X4.2798Y-0.2447
X4.2801Y-1.7784
X4.2801Y-1.5649
X4.2816Y-0.178
X4.2819Y-4.3985
X4.2827Y-2.3078
X4.2829Y-2.0583
X4.2831Y-4.7493
X4.2838Y-3.5109
X4.2838Y-0.9157
X4.2846Y-3.3329
X4.2847Y-2.2065
X4.2848Y-1.9925
X4.2852Y-0.4652
X4.2854Y-1.8456
X4.2859Y-2.1303
X4.286Y-2.3758
X4.2867Y-3.2623
X4.2885Y-1.6338
X4.2888Y-0.1043
X4.2896Y-0.5987
X4.2903Y-1.1294
X4.2914Y-4.2903
X4.2926Y-0.6801
X4.3133Y-0.0649
X4.3135Y-2.1693
X4.3151Y-0.2907
X4.3157Y-3.2955
X4.3165Y-1.6045
X4.3166Y-2.0988
X4.3171Y-2.0222
X4.3173Y-1.1726
X4.3193Y-0.1514
X4.3194Y-1.529
X4.3203Y-2.2301
X4.3204Y-0.2073
X4.3208Y-1.6652
X4.3217Y-4.3242
X4.3224Y-1.9468
X4.3236Y-3.1228
X4.3243Y-3.3636
X4.3244Y-1.8769
X4.3245Y-2.5093
X4.3265Y-2.4146
X4.3272Y-4.19
X4.3277Y-2.3336
X4.3281Y-1.093
X4.3283Y-4.2456
X4.3293Y-1.8017
X4.3297Y-0.8917
X4.3477Y-0.101
X4.3486Y-3.2698
X4.349Y-2.2671
X4.3499Y-4.855
X4.3499Y-2.1205
X4.3503Y-3.7257
X4.351Y-1.98
X4.3513Y-2.5574
X4.3514Y-2.06
X4.3518Y-3.4078
X4.3521Y-2.7605
X4.3528Y-0.8241
X4.3533Y-0.1827
X4.3542Y-2.3706
X4.3553Y-1.7816
X4.3554Y-2.9844
X4.3558Y-1.0604
X4.3563Y-1.8513
X4.3577Y-3.0554
X4.3582Y-3.1641
X4.3585Y-0.2488
X4.3586Y-1.9207
X4.3589Y-4.3555
X4.3593Y-1.5677
X4.3593Y-3.3327
X4.3596Y-4.2935
X4.3605Y-1.6275
X4.3607Y-2.2064
X4.3641Y-1.1286
X4.3641Y-1.211
X4.3644Y-4.7886
X4.3644Y-4.2268
X4.3844Y-2.243
X4.3854Y-2.5244
X4.3854Y-2.5948
X4.3856Y-2.4114
X4.3879Y-1.8176
X4.3881Y-1.942
X4.3884Y-4.8222
X4.3894Y-2.0174
X4.3897Y-3.0933
X4.3898Y-2.7245
X4.3909Y-1.5247
X4.3909Y-0.0779
X4.3923Y-1.0271
X4.3924Y-3.3613
X4.3936Y-2.0902
X4.3945Y-1.8798
X4.3949Y-3.0211
X4.395Y-2.6649
X4.3956Y-1.5918
X4.3968Y-3.7656
X4.3969Y-0.1409
X4.3972Y-1.6669
X4.3974Y-2.2983
X4.3996Y-3.836
X4.4001Y-3.3059
X4.4005Y-2.1564
X4.4191Y-2.2685
X4.4198Y-1.0588
X4.42Y-3.8001
X4.4208Y-3.3362
X4.4213Y-4.8554
X4.4216Y-2.2004
X4.4223Y-2.6942
X4.423Y-0.0998
X4.4236Y-3.113
X4.4242Y-2.6204
X4.4244Y-2.77
X4.4249Y-1.6284
X4.426Y-4.7812
X4.428Y-1.0006
X4.4295Y-1.9825
X4.4296Y-2.1363
X4.4296Y-3.7173
X4.4307Y-1.7728
X4.4318Y-3.2645
X4.4326Y-2.5471
X4.4337Y-1.5608
X4.4339Y-1.9212
X4.4344Y-2.0659
X4.4355Y-1.8416
X4.4356Y-3.0459
X4.4357Y-2.9703
X4.4358Y-3.4099
X4.4543Y-1.8041
X4.4544Y-0.8542
X4.4551Y-3.7545
X4.4553Y-1.8822
X4.4559Y-0.7798
X4.4569Y-0.9213
X4.457Y-2.6547
X4.4573Y-1.0269
X4.4585Y-3.0803
X4.4586Y-1.9484
X4.4595Y-0.5056
X4.4597Y-2.5148
X4.4602Y-0.5601
X4.462Y-0.1501
X4.4625Y-2.5831
X4.4631Y-3.2934
X4.4631Y-0.0642
X4.4635Y-2.018
X4.4646Y-1.6686
X4.4647Y-0.6468
X4.4653Y-2.7256
X4.4653Y-2.7992
X4.4659Y-3.0111
X4.4664Y-3.1608
X4.4684Y-3.3603
X4.4705Y-3.8253
X4.4892Y-3.0474
X4.4894Y-2.6168
X4.4905Y-1.9935
X4.4911Y-0.6109
X4.492Y-3.7985
X4.4927Y-0.9556
X4.4935Y-1.063
X4.4938Y-3.3407
X4.4962Y-1.8388
X4.4969Y-2.9055
X4.497Y-0.8874
X4.4984Y-1.924
X4.4985Y-3.2609
X4.4986Y-2.5469
X4.5003Y-2.6927
X4.5009Y-3.1275
X4.5014Y-0.1065
X4.5015Y-2.7718
X4.5032Y-1.7707
X4.5036Y-2.9837
X4.5036Y-3.4022
X4.5043Y-0.8197
X4.5045Y-2.8425
X4.5048Y-0.6666
X4.5059Y-0.5328
X4.5248Y-0.7889
X4.5252Y-3.4351
X4.5255Y-0.989
X4.5265Y-2.9433
X4.5269Y-0.9228
X4.5282Y-3.1493
X4.5287Y-3.8361
X4.5288Y-0.0737
X4.5289Y-0.8541
X4.5293Y-3.2982
X4.5295Y-2.2374
X4.5303Y-2.7239
X4.5308Y-2.3826
X4.5312Y-0.6347
X4.5314Y-1.8067
X4.5325Y-3.3606
X4.5325Y-0.5696
X4.5333Y-1.8738
X4.5337Y-3.0872
X4.5344Y-2.8034
X4.5346Y-4.0336
X4.5348Y-3.0145
X4.5354Y-2.6529
X4.5356Y-2.3131
X4.536Y-2.8645
X4.537Y-2.5818
X4.5392Y-2.5212
X4.5408Y-1.4855
X4.541Y-1.2761
X4.541Y-0.506
X4.5418Y-0.1466
X4.5605Y-0.9649
X4.5606Y-2.2712
X4.5611Y-0.6034
X4.5621Y-2.5537
X4.5624Y-3.764
X4.5633Y-2.9026
X4.5647Y-1.8384
X4.5647Y-0.8206
X4.566Y-2.3426
X4.5661Y-2.8362
X4.5686Y-1.2333
X4.569Y-0.881
X4.5691Y-1.9117
X4.5698Y-3.2657
X4.57Y-2.4052
X4.5704Y-0.6739
X4.5704Y-1.5219
X4.5708Y-2.6313
X4.5716Y-1.7688
X4.5717Y-3.3328
X4.5728Y-0.5364
X4.5737Y-2.7019
X4.5744Y-0.1064
X4.5745Y-3.1131
X4.575Y-3.0539
X4.5771Y-2.7627
X4.5772Y-2.9718
X4.5957Y-0.6425
X4.5971Y-2.8029
X4.5975Y-2.2997
X4.5977Y-0.1399
X4.5983Y-2.5129
X4.5989Y-0.9283
X4.5996Y-2.5962
X4.5999Y-3.0206
X4.6013Y-3.2924
X4.6016Y-2.6598
X4.6022Y-2.2316
X4.6024Y-0.5689
X4.6025Y-1.1387
X4.6031Y-1.2773
X4.6032Y-0.78
X4.6073Y-3.1518
X4.6075Y-2.9356
X4.6083Y-3.0898
X4.6086Y-2.8724
X4.6087Y-1.8148
X4.6096Y-1.5651
X4.6098Y-0.0764
X4.6102Y-4.9268
X4.6105Y-1.4954
X4.6106Y-0.8471
X4.6107Y-1.8798
X4.6108Y-2.3722
X4.612Y-3.7899
X4.6124Y-1.2088
X4.6132Y-2.7347
X4.632Y-1.2374
X4.6321Y-3.7602
X4.6331Y-0.5341
X4.6339Y-1.5975
X4.634Y-0.6664
X4.635Y-0.6117
X4.6355Y-3.8358
X4.6356Y-1.1747
X4.6361Y-1.8431
X4.6365Y-0.891
X4.6376Y-4.9001
X4.6394Y-2.6973
X4.6396Y-2.3364
X4.6406Y-2.7649
X4.6411Y-0.8133
X4.6429Y-1.9147
X4.644Y-2.4057
X4.6443Y-2.6271
X4.646Y-1.102
X4.6465Y-1.5304
X4.6465Y-2.2692
X4.6483Y-2.5508
X4.668Y-1.8814
X4.668Y-0.6415
X4.6688Y-2.3771
X4.6702Y-1.2104
X4.6715Y-0.7837
X4.6719Y-2.6554
X4.6726Y-1.2782
X4.6731Y-1.1298
X4.6744Y-4.919
X4.6756Y-1.0621
X4.6758Y-2.5895
X4.676Y-0.5648
X4.6765Y-1.6259
X4.6768Y-0.0763
X4.6769Y-2.2975
X4.6775Y-2.7336
X4.6791Y-2.5205
X4.6794Y-1.5661
X4.6795Y-1.341
X4.6796Y-0.8521
X4.6797Y-1.4189
X4.6815Y-4.8618
X4.6825Y-1.4891
X4.6827Y-3.7163
X4.6827Y-3.3056
X4.6835Y-3.795
X4.7019Y-1.4475
X4.7025Y-0.5283
X4.7026Y-0.6813
X4.7043Y-1.3837
X4.7047Y-2.3459
X4.7054Y-1.5214
X4.7057Y-1.9163
X4.7068Y-2.4086
X4.7076Y-3.7516
X4.708Y-0.8253
X4.7092Y-1.6613
X4.7095Y-1.0373
X4.7105Y-0.6009
X4.7117Y-2.6325
X4.7127Y-1.9795
X4.7134Y-1.3124
X4.7136Y-1.6025
X4.7143Y-2.2672
X4.7161Y-2.5606
X4.7173Y-3.1592
X4.7186Y-1.1625
X4.7188Y-1.1068
X4.7192Y-1.2486
X4.7192Y-2.9729
X4.7193Y-3.8297
X4.7381Y-1.5679
X4.7382Y-0.7903
X4.7382Y-1.416
X4.739Y-2.5898
X4.7392Y-3.0187
X4.7394Y-1.4856
X4.74Y-0.0711
X4.7411Y-1.9553
X4.7421Y-1.6292
X4.7432Y-1.0023
X4.7437Y-1.0591
X4.745Y-2.3755
X4.7459Y-2.301
X4.7464Y-3.7883
X4.7499Y-4.4683
X4.7512Y-0.6369
X4.7512Y-2.6609
X4.7515Y-3.0768
X4.752Y-1.2805
X4.7522Y-3.72
X4.7525Y-1.1289
X4.7534Y-0.5751
X4.7541Y-2.5216
X4.7544Y-1.2088
X4.7544Y-1.3538
X4.7744Y-3.1205
X4.7753Y-3.4023
X4.776Y-3.8223
X4.7761Y-1.0268
X4.777Y-1.5339
X4.7778Y-0.5358
X4.7778Y-0.9657
X4.7781Y-4.3238
X4.7781Y-1.0934
X4.7788Y-2.2631
X4.7796Y-0.6081
X4.7801Y-2.5579
X4.7806Y-2.6301
X4.781Y-2.4038
X4.7813Y-1.1716
X4.7817Y-3.0449
X4.7822Y-1.321
X4.7835Y-4.4011
X4.7853Y-3.7624
X4.7854Y-1.237
X4.7858Y-1.4566
X4.7859Y-1.5893
X4.7872Y-2.3422
X4.7875Y-1.6677
X4.7876Y-0.6694
X4.7883Y-2.9856
X4.7896Y-1.3772
X4.8087Y-3.7222
X4.8107Y-1.0637
X4.8107Y-0.9294
X4.8119Y-0.568
X4.8152Y-3.0867
X4.8154Y-3.7874
X4.8162Y-0.0749
X4.8173Y-3.0163
X4.8187Y-3.375
X4.8193Y-2.6648
X4.8193Y-4.3666
X4.8193Y-2.5921
X4.8197Y-1.1446
X4.821Y-1.7795
X4.8214Y-3.1609
X4.8217Y-4.4256
X4.8236Y-3.4388
X4.8243Y-4.2842
X4.8246Y-0.9968
X4.825Y-0.6429
X4.8448Y-3.3372
X4.8451Y-0.8938
X4.8467Y-3.1277
X4.8468Y-0.9584
X4.847Y-1.0316
X4.8472Y-4.3284
X4.8476Y-3.8203
X4.848Y-0.4954
X4.8485Y-3.7529
X4.8502Y-4.2548
X4.8513Y-1.0975
X4.8526Y-3.0512
X4.8536Y-4.4682
X4.8548Y-4.5414
X4.8559Y-4.3972
X4.8564Y-1.8145
X4.858Y-3.4783
X4.8593Y-2.6238
X4.8608Y-0.6068
X4.8611Y-3.3988
X4.8793Y-4.509
X4.8802Y-4.3546
X4.8803Y-0.8537
X4.8818Y-2.2374
X4.882Y-2.6524
X4.8825Y-2.7327
X4.8826Y-3.0104
X4.8843Y-1.7804
X4.8845Y-3.0786
X4.8856Y-2.3819
X4.8869Y-0.9979
X4.8882Y-0.9295
X4.8888Y-0.0685
X4.8898Y-1.0574
X4.8905Y-2.299
X4.8924Y-4.4228
X4.8936Y-4.2815
X4.9148Y-1.03
X4.915Y-1.6366
X4.9164Y-3.0413
X4.918Y-0.822
X4.9194Y-2.4199
X4.9196Y-2.025
X4.9203Y-0.964
X4.9239Y-2.6989
X4.924Y-4.3325
X4.9242Y-4.2558
X4.9246Y-1.8083
X4.9249Y-4.4687
X4.9259Y-4.5376
X4.926Y-2.2647
X4.9291Y-2.3439
X4.9293Y-4.3935
X4.9317Y-0.8852
X4.9498Y-0.4648
X4.9502Y-2.3783
X4.9502Y-1.9903
X4.9504Y-1.6647
X4.952Y-0.9289
X4.9531Y-0.2929
X4.9534Y-4.8992
X4.9538Y-0.597
X4.9544Y-0.9866
X4.9553Y-2.2299
X4.9557Y-4.3562
X4.9557Y-0.5376
X4.9583Y-1.8462
X4.9587Y-2.3003
X4.9588Y-1.9201
X4.9588Y-0.143
X4.9595Y-4.295
X4.9596Y-0.2218
X4.9599Y-0.844
X4.9636Y-0.6665
X4.9647Y-1.1631
X4.965Y-0.7815
X4.9666Y-4.4961
X4.9668Y-3.0209
X4.9668Y-0.0777
X4.9675Y-4.4385
X4.9868Y-0.4905
X4.9889Y-0.9574
X4.9906Y-1.141
X4.9907Y-2.5223
X4.9908Y-1.4549
X4.9924Y-4.4579
X4.9937Y-4.3239
X4.9946Y-2.3443
X4.9947Y-1.9488
X4.995Y-0.8847
X4.9954Y-0.5651
X4.9959Y-2.417
X4.996Y-0.1829
X4.9962Y-2.2715
X4.9974Y-0.1083
X4.9993Y-0.8206
X4.9993Y-2.0227
X4.9995Y-0.2497
X5.0003Y-0.6402
X5.0005Y-1.8786
X5.0027Y-4.4039
X5.0215Y-0.066
X5.0218Y-0.1411
X5.0224Y-0.6807
X5.0226Y-0.2827
X5.0239Y-3.3705
X5.0241Y-2.3729
X5.0255Y-0.8488
X5.0256Y-4.9002
X5.0256Y-0.4693
X5.0272Y-0.9212
X5.0274Y-0.604
X5.0286Y-1.9828
X5.0287Y-0.2111
X5.0296Y-2.559
X5.0302Y-1.1631
X5.0304Y-2.0567
X5.0312Y-2.2969
X5.0312Y-0.7798
X5.0312Y-1.9199
X5.0319Y-4.4333
X5.0325Y-3.4315
X5.0344Y-4.3664
X5.0345Y-2.2
X5.0348Y-1.4893
X5.0353Y-1.107
X5.0369Y-0.5412
X5.0561Y-2.0234
X5.0562Y-0.3863
X5.0569Y-0.6364
X5.0572Y-1.1442
X5.0574Y-0.3154
X5.0585Y-2.3331
X5.0611Y-0.5758
X5.0619Y-1.9577
X5.0634Y-1.5307
X5.0647Y-0.8135
X5.0648Y-0.1014
X5.0651Y-0.1786
X5.0652Y-2.0962
X5.0653Y-0.2429
X5.0654Y-2.2431
X5.0665Y-2.4031
X5.0665Y-1.072
X5.0685Y-2.1596
X5.0693Y-3.4072
X5.07Y-0.8865
X5.0706Y-0.5059
X5.0706Y-2.5147
X5.0729Y-3.2951
X5.0916Y-1.0997
X5.095Y-0.3651
X5.095Y-0.2134
X5.0959Y-0.2909
X5.0961Y-3.3384
X5.0967Y-0.4355
X5.0971Y-0.1522
X5.0973Y-1.1719
X5.0976Y-2.3695
X5.0979Y-2.2659
X5.0979Y-4.8217
X5.0993Y-1.9916
X5.0994Y-0.8548
X5.0995Y-0.6729
X5.1011Y-2.0602
X5.1016Y-4.8995
X5.1028Y-0.0689
X5.1054Y-1.5577
X5.1055Y-2.2062
X5.1059Y-2.9697
X5.1062Y-1.0356
X5.1068Y-2.5546
X5.1068Y-0.6122
X5.1069Y-3.2569
X5.1075Y-2.1349
X5.1079Y-0.7903
X5.108Y-0.5305
X5.1294Y-0.8165
X5.1301Y-2.7373
X5.1313Y-3.3683
X5.1317Y-0.3164
X5.1339Y-1.5935
X5.1352Y-3.2918
X5.1359Y-0.6379
X5.1376Y-1.073
X5.1384Y-0.1833
X5.1396Y-0.3924
X5.1406Y-0.1057
X5.1406Y-1.5239
X5.1421Y-1.0021
X5.1428Y-0.2527
X5.1434Y-0.5711
X5.144Y-0.4606
X5.1626Y-1.6351
X5.1635Y-0.4344
X5.1651Y-0.145
X5.1653Y-0.3588
X5.1677Y-0.6102
X5.1698Y-0.4964
X5.1711Y-0.7773
X5.1723Y-3.2571
X5.1739Y-0.0763
X5.1751Y-0.2895
X5.1754Y-1.5572
X5.1756Y-0.9604
X5.176Y-3.4081
X5.1781Y-1.0265
X5.1785Y-3.7181
X5.1786Y-0.6772
X5.1789Y-0.2079
X5.1791Y-3.3412
X5.1986Y-3.2945
X5.1988Y-0.3901
X5.1988Y-0.248
X5.2013Y-0.5313
X5.2022Y-3.121
X5.203Y-1.9461
X5.2034Y-3.3612
X5.2038Y-1.816
X5.204Y-0.1143
X5.2066Y-0.999
X5.2068Y-0.3189
X5.2074Y-0.9275
X5.2089Y-0.6404
X5.2091Y-1.8876
X5.2096Y-0.4549
X5.21Y-3.7493
X5.2105Y-0.1824
X5.2128Y-1.061
X5.2133Y-1.6717
X5.2334Y-0.6722
X5.2336Y-0.8901
X5.2336Y-0.0811
X5.2337Y-0.1464
X5.2351Y-0.9518
X5.236Y-3.3299
X5.2365Y-1.0379
X5.2377Y-1.9812
X5.239Y-0.5721
X5.2396Y-1.8468
X5.2398Y-1.7681
X5.2399Y-3.1593
X5.2413Y-0.2919
X5.2437Y-3.7995
X5.2464Y-0.2233
X5.2472Y-1.9156
X5.2475Y-0.491
X5.2478Y-3.2668
X5.248Y-3.4008
X5.2484Y-3.0769
X5.2691Y-2.239
X5.2699Y-0.9246
X5.27Y-1.8845
X5.2701Y-0.9884
X5.2703Y-3.8204
X5.2711Y-0.529
X5.2713Y-2.7603
X5.2717Y-0.1015
X5.2719Y-1.2736
X5.2719Y-3.1195
X5.2725Y-2.4187
X5.2728Y-2.6279
X5.2734Y-3.4472
X5.2739Y-2.9132
X5.2749Y-3.2899
X5.2757Y-1.4896
X5.2769Y-3.0553
X5.278Y-2.6935
X5.2782Y-0.6019
X5.2813Y-3.3766
X5.2814Y-1.8028
X5.2819Y-0.8526
X5.2828Y-0.1717
X5.2852Y-2.8389
X5.2858Y-2.9824
X5.3045Y-0.077
X5.305Y-3.2616
X5.3052Y-2.7927
X5.3055Y-4.6749
X5.3064Y-3.1599
X5.3068Y-2.9365
X5.3073Y-1.9143
X5.3073Y-2.5165
X5.3092Y-0.6471
X5.3095Y-0.951
X5.3099Y-2.2749
X5.3117Y-1.5321
X5.3128Y-2.5868
X5.3131Y-0.5758
X5.3132Y-2.738
X5.3134Y-2.8729
X5.3134Y-3.7604
X5.3136Y-3.4826
X5.3151Y-3.3327
X5.3159Y-1.8359
X5.3166Y-2.6559
X5.3166Y-2.3361
X5.3174Y-3.0213
X5.3174Y-0.5018
X5.3178Y-0.8914
X5.3199Y-1.7711
X5.3208Y-3.088
X5.3213Y-0.1426
X5.3218Y-4.3519
X5.3399Y-4.7069
X5.3402Y-2.7602
X5.3405Y-2.3116
X5.3421Y-0.1831
X5.3426Y-2.3693
X5.3429Y-1.2795
X5.3432Y-4.4688
X5.3433Y-2.2311
X5.3451Y-2.9855
X5.3454Y-1.1437
X5.3456Y-1.2127
X5.3466Y-3.0412
X5.3481Y-4.5327
X5.3491Y-4.4038
X5.3492Y-1.4914
X5.3498Y-3.7946
X5.3516Y-2.5521
X5.3526Y-1.8051
X5.353Y-1.5528
X5.3534Y-4.2895
X5.3541Y-0.1104
X5.3542Y-2.9107
X5.3543Y-3.1154
X5.3547Y-4.602
X5.3552Y-2.6892
X5.3553Y-2.6161
X5.3553Y-3.2965
X5.3567Y-2.8371
X5.3571Y-1.8804
X5.3756Y-1.178
X5.3767Y-2.5188
X5.3784Y-1.9134
X5.379Y-4.6822
X5.3795Y-1.847
X5.3796Y-1.2362
X5.3813Y-0.1378
X5.3815Y-1.5256
X5.3824Y-2.734
X5.3839Y-1.6023
X5.3845Y-4.7472
X5.3845Y-2.2742
X5.3851Y-2.348
X5.386Y-0.0643
X5.3906Y-2.6601
X5.3909Y-2.4035
X5.3921Y-1.093
X5.3926Y-2.58
X5.4109Y-0.5415
X5.4111Y-1.5684
X5.4113Y-0.1017
X5.4138Y-1.2734
X5.4141Y-3.2896
X5.4147Y-1.4979
X5.4152Y-4.7213
X5.4157Y-1.6241
X5.416Y-0.7887
X5.42Y-2.3829
X5.4201Y-1.8741
X5.4203Y-1.3457
X5.421Y-2.617
X5.4214Y-2.5601
X5.4217Y-1.415
X5.4219Y-0.9883
X5.4228Y-1.1399
X5.4228Y-0.9269
X5.4257Y-2.6888
X5.4263Y-1.2055
X5.4265Y-0.6469
X5.4273Y-2.2996
X5.4275Y-0.8555
X5.4276Y-1.073
X5.4475Y-0.8829
X5.448Y-3.7305
X5.4483Y-1.0366
X5.4486Y-2.6559
X5.4492Y-2.2641
X5.4498Y-2.4128
X5.4499Y-3.164
X5.4509Y-1.9927
X5.4509Y-2.5125
X5.4533Y-0.0711
X5.4534Y-1.3093
X5.4534Y-0.9583
X5.4539Y-1.5994
X5.4572Y-2.3486
X5.4572Y-1.9227
X5.4576Y-1.101
X5.4589Y-1.1705
X5.4592Y-1.2389
X5.4612Y-1.3779
X5.4613Y-1.6669
X5.4618Y-0.8141
X5.4618Y-3.8006
X5.4624Y-2.586
X5.4626Y-1.5314
X5.4626Y-2.973
X5.4631Y-4.7579
X5.4636Y-1.4564
X5.4823Y-2.5561
X5.4836Y-1.2027
X5.4839Y-0.2189
X5.4842Y-0.8597
X5.4848Y-0.9997
X5.4848Y-3.8365
X5.485Y-3.0922
X5.487Y-1.496
X5.4882Y-1.0593
X5.4888Y-1.1345
X5.4892Y-0.9264
X5.4896Y-3.753
X5.4896Y-1.5544
X5.4905Y-1.9545
X5.491Y-0.7767
X5.4911Y-3.0095
X5.4916Y-1.6262
X5.4921Y-1.416
X5.4941Y-2.3698
X5.4945Y-2.3111
X5.4946Y-1.3466
X5.495Y-4.7116
X5.4958Y-2.6163
X5.4965Y-3.5037
X5.4966Y-1.2737
X5.518Y-3.4775
X5.5197Y-2.4177
X5.5198Y-4.7451
X5.5198Y-1.448
X5.5199Y-0.821
X5.5199Y-0.9572
X5.5201Y-1.2478
X5.5216Y-1.6624
X5.5224Y-2.2763
X5.5225Y-3.7983
X5.523Y-1.5962
X5.5231Y-2.6507
X5.5236Y-0.8854
X5.5239Y-0.6461
X5.5243Y-2.5104
X5.5248Y-1.3806
X5.5257Y-2.5838
X5.5281Y-2.3397
X5.5283Y-3.3964
X5.5285Y-3.128
X5.5285Y-2.9757
X5.5288Y-3.7273
X5.5294Y-1.5237
X5.53Y-1.178
X5.5309Y-1.3214
X5.5327Y-3.0405
X5.5328Y-1.0315
X5.533Y-1.1026
X5.5522Y-0.9307
X5.5523Y-3.1596
X5.5525Y-1.4232
X5.553Y-1.1383
X5.5547Y-4.7075
X5.5566Y-1.4869
X5.5571Y-3.017
X5.5584Y-0.7789
X5.5589Y-0.683
X5.5595Y-1.0731
X5.5607Y-3.091
X5.561Y-1.211
X5.5612Y-2.624
X5.5613Y-2.3084
X5.5619Y-3.8326
X5.5627Y-2.5484
X5.5629Y-0.9971
X5.5643Y-2.3708
X5.5656Y-1.7762
X5.5658Y-3.4377
X5.5672Y-1.3509
X5.5674Y-1.2748
X5.5675Y-3.3741
X5.5682Y-0.8504
X5.5683Y-3.7613
X5.5687Y-3.5136
X5.5882Y-3.338
X5.5895Y-4.4356
X5.5901Y-3.1216
X5.5904Y-4.3646
X5.5923Y-1.1011
X5.5924Y-0.8919
X5.5926Y-0.6066
X5.5928Y-4.2197
X5.5931Y-3.4793
X5.5935Y-1.1734
X5.5936Y-2.6542
X5.5936Y-4.7426
X5.5942Y-3.0433
X5.5946Y-4.2898
X5.595Y-1.8137
X5.5999Y-3.7921
X5.6002Y-0.8109
X5.6005Y-1.0256
X5.6008Y-3.554
X5.604Y-3.6942
X5.6043Y-1.2497
X5.6049Y-3.3968
X5.6049Y-2.591
X5.6052Y-0.9638
X5.6231Y-3.4448
X5.6233Y-0.9161
X5.6241Y-3.5861
X5.6246Y-4.4694
X5.6249Y-1.7812
X5.6253Y-2.6322
X5.6258Y-1.0701
X5.626Y-4.3923
X5.6268Y-3.3017
X5.6275Y-4.1413
X5.6277Y-3.5014
X5.6283Y-0.577
X5.629Y-2.6889
X5.6292Y-1.131
X5.6294Y-3.7214
X5.6295Y-3.8369
X5.631Y-4.2626
X5.632Y-4.3192
X5.6323Y-4.0842
X5.6335Y-0.8561
X5.6354Y-1.0023
X5.6358Y-4.7187
X5.6375Y-3.3673
X5.6381Y-3.6514
X5.6385Y-1.1983
X5.6393Y-0.6444
X5.64Y-3.0772
X5.6402Y-3.0205
X5.6407Y-0.7869
X5.6592Y-1.6306
X5.6601Y-1.5567
X5.6604Y-3.5397
X5.6605Y-0.6811
X5.6605Y-4.3519
X5.6606Y-3.609
X5.6611Y-4.2956
X5.6611Y-2.6671
X5.6622Y-3.3245
X5.6631Y-3.0553
X5.6633Y-3.4723
X5.6648Y-2.2291
X5.6652Y-2.306
X5.6658Y-1.4877
X5.666Y-2.3839
X5.6669Y-1.8106
X5.6675Y-3.4066
X5.6691Y-2.0284
X5.6708Y-1.1758
X5.6714Y-0.8128
X5.672Y-1.1003
X5.6734Y-2.7301
X5.6743Y-0.9568
X5.6745Y-4.184
X5.6745Y-3.689
X5.6747Y-0.8801
X5.675Y-0.5994
X5.6751Y-1.0291
X5.6752Y-0.5014
X5.6754Y-3.7605
X5.6755Y-4.7487
X5.6756Y-4.1138
X5.6946Y-0.5283
X5.6946Y-3.6448
X5.6947Y-3.2615
X5.6956Y-3.0127
X5.6957Y-1.8409
X5.6967Y-3.7234
X5.6971Y-1.99
X5.6983Y-1.6597
X5.6991Y-3.4385
X5.6992Y-1.1322
X5.6994Y-2.2611
X5.6999Y-1.0568
X5.7002Y-0.2127
X5.7023Y-0.9308
X5.7024Y-3.5837
X5.7025Y-0.6382
X5.703Y-1.589
X5.7034Y-2.3393
X5.7047Y-0.1442
X5.7058Y-1.517
X5.706Y-3.794
X5.7064Y-3.5045
X5.7065Y-4.3297
X5.7069Y-0.9907
X5.7077Y-4.7131
X5.7079Y-0.8605
X5.7083Y-4.2201
X5.7092Y-1.7714
X5.7093Y-1.9173
X5.7096Y-3.3708
X5.7105Y-4.1544
X5.7106Y-0.7814
X5.7114Y-2.403
X5.7296Y-3.6839
X5.7302Y-4.7496
X5.7305Y-1.4921
X5.7309Y-0.1803
X5.7316Y-2.029
X5.7329Y-4.1178
X5.733Y-0.5689
X5.7331Y-1.8129
X5.7335Y-0.8229
X5.736Y-3.6212
X5.736Y-3.4096
X5.7363Y-1.5601
X5.7372Y-2.2334
X5.7377Y-1.8763
X5.7377Y-3.5527
X5.738Y-3.4811
X5.7384Y-0.9517
X5.7385Y-1.6317
X5.7398Y-4.1776
X5.7401Y-3.3003
X5.7403Y-2.38
X5.741Y-1.1069
X5.7413Y-1.9459
X5.7426Y-2.5233
X5.7435Y-2.2965
X5.7436Y-1.1769
X5.7439Y-3.7615
X5.7442Y-0.8844
X5.7451Y-1.0269
X5.7459Y-4.2558
X5.7469Y-0.6717
X5.7655Y-1.1274
X5.7662Y-1.5986
X5.7669Y-1.6685
X5.7673Y-2.3489
X5.7675Y-1.0567
X5.7676Y-1.9928
X5.7684Y-1.9105
X5.7694Y-2.5527
X5.7707Y-1.5267
X5.7708Y-0.9936
X5.7716Y-0.9184
X5.7721Y-0.5367
X5.7726Y-1.8389
X5.7728Y-3.5106
X5.7728Y-0.6099
X5.7749Y-3.4442
X5.7755Y-4.7226
X5.7761Y-2.4124
X5.7767Y-0.8596
X5.7772Y-4.212
X5.7773Y-4.4617
X5.7788Y-4.1496
X5.7794Y-3.2655
X5.7796Y-4.2867
X5.7801Y-0.7729
X5.7809Y-3.3305
X5.7812Y-1.7791
X5.7815Y-2.2709
X5.8002Y-1.5558
X5.8003Y-0.8214
X5.8004Y-1.624
X5.8018Y-3.2957
X5.8029Y-2.3774
X5.803Y-1.1683
X5.8045Y-4.746
X5.8047Y-2.3115
X5.8048Y-0.8868
X5.8048Y-2.1592
X5.8048Y-3.4752
X5.8052Y-0.6337
X5.8062Y-2.5192
X5.8068Y-4.1743
X5.8071Y-3.1158
X5.8091Y-0.567
X5.8099Y-1.8065
X5.8112Y-4.2465
X5.8126Y-1.8743
X5.8127Y-2.2334
X5.8132Y-1.0965
X5.8141Y-3.3658
X5.8144Y-2.0994
X5.8147Y-2.0159
X5.8154Y-1.9466
X5.8161Y-1.0296
X5.8173Y-0.9522
X5.8175Y-4.4322
X5.8369Y-4.1533
X5.8372Y-1.5302
X5.8376Y-2.2694
X5.8381Y-2.9714
X5.8383Y-2.3357
X5.8383Y-4.4648
X5.8386Y-4.3992
X5.8387Y-3.1614
X5.839Y-0.6116
X5.8394Y-3.3313
X5.8398Y-3.0423
X5.84Y-0.9197
X5.8402Y-3.785
X5.8408Y-3.4024
X5.8412Y-0.7729
X5.8414Y-1.6626
X5.8416Y-2.126
X5.8418Y-2.5616
X5.8428Y-2.1932
X5.8435Y-3.2646
X5.8439Y-1.6024
X5.8441Y-2.052
X5.8458Y-4.7125
X5.846Y-1.2145
X5.846Y-3.7247
X5.8469Y-4.2123
X5.8472Y-0.068
X5.8482Y-1.0586
X5.8485Y-0.5068
X5.8489Y-0.845
X5.8495Y-0.9951
X5.85Y-1.8503
X5.8507Y-0.6733
X5.8509Y-2.4128
X5.8514Y-1.9802
X5.8516Y-1.1358
X5.8522Y-1.9215
X5.8533Y-1.7749
X5.8718Y-1.023
X5.8721Y-3.0841
X5.8724Y-3.8273
X5.8741Y-1.8002
X5.8749Y-2.1628
X5.8751Y-0.8208
X5.8754Y-2.3786
X5.8754Y-3.7621
X5.8768Y-0.8854
X5.8769Y-0.5334
X5.8771Y-0.6431
X5.878Y-0.2912
X5.8786Y-2.026
X5.8787Y-1.9473
X5.879Y-2.5909
X5.8791Y-1.8839
X5.8807Y-2.7744
X5.8811Y-1.1032
X5.8812Y-3.2936
X5.8813Y-1.6322
X5.882Y-2.0958
X5.8832Y-4.7538
X5.884Y-0.9586
X5.8843Y-2.5166
X5.8846Y-1.5678
X5.8846Y-3.3731
X5.8851Y-4.1748
X5.8855Y-1.239
X5.8858Y-3.022
X5.8864Y-0.4669
X5.8871Y-2.2325
X5.8877Y-2.3061
X5.9066Y-0.8544
X5.9081Y-2.1202
X5.9084Y-2.1965
X5.9084Y-3.328
X5.9088Y-1.0672
X5.9099Y-2.7013
X5.9107Y-2.3393
X5.9109Y-2.987
X5.9117Y-1.9939
X5.9128Y-4.1413
X5.9129Y-2.6154
X5.9132Y-2.4172
X5.9133Y-3.0444
X5.9134Y-0.5776
X5.9136Y-2.274
X5.9137Y-4.7216
X5.9138Y-1.9222
X5.9139Y-3.2548
X5.9141Y-0.6748
X5.9142Y-3.4063
X5.9144Y-1.8376
X5.9146Y-1.5968
X5.9163Y-0.4997
X5.9164Y-3.1278
X5.9175Y-3.7236
X5.9177Y-0.9262
X5.9183Y-2.5462
X5.9183Y-0.7821
X5.9186Y-2.0596
X5.9192Y-1.5245
X5.92Y-0.0813
X5.9203Y-0.995
X5.9206Y-1.6743
X5.9224Y-4.4584
X5.9236Y-1.78
X5.943Y-2.5884
X5.9436Y-1.636
X5.9436Y-3.7636
X5.9437Y-1.0228
X5.9446Y-2.6565
X5.9453Y-1.8741
X5.946Y-0.8231
X5.9475Y-0.4573
X5.9488Y-3.2885
X5.9496Y-3.3619
X5.9497Y-0.8947
X5.9508Y-0.5372
X5.9523Y-0.6112
X5.9527Y-1.9591
X5.9532Y-3.1555
X5.9537Y-3.0206
X5.9546Y-2.5182
X5.9547Y-3.0874
X5.9552Y-0.18
X5.9552Y-2.0255
X5.9555Y-1.8077
X5.9563Y-2.722
X5.9563Y-0.1052
X5.9577Y-0.9529
X5.9592Y-4.7452
X5.9594Y-0.2467
X5.9785Y-0.0774
X5.9789Y-1.9086
X5.98Y-4.1456
X5.982Y-1.6744
X5.9821Y-4.4673
X5.9828Y-3.2687
X5.9829Y-2.5546
X5.983Y-2.7586
X5.983Y-0.631
X5.983Y-0.9996
X5.9832Y-2.978
X5.9835Y-0.5747
X5.9838Y-0.5002
X5.9846Y-3.0518
X5.9851Y-1.0684
X5.9852Y-4.7132
X5.9865Y-3.1114
X5.9868Y-2.6884
X5.9872Y-0.2178
X5.9888Y-0.9181
X5.9888Y-1.9809
X5.9889Y-2.6308
X5.9905Y-3.4099
X5.9909Y-0.1367
X5.9916Y-0.8538
X5.9921Y-2.9023
X5.9922Y-1.8412
X5.9931Y-0.7862
X5.9942Y-3.326
X5.9943Y-1.7802
X5.9945Y-2.8317
X6.0133Y-2.8788
X6.0139Y-0.6077
X6.0144Y-1.4909
X6.0145Y-0.5354
X6.0145Y-2.236
X6.0147Y-2.662
X6.0163Y-3.3646
X6.017Y-1.0249
X6.0175Y-2.951
X6.0176Y-2.5803
X6.0179Y-1.8098
X6.019Y-2.8092
X6.0192Y-1.2859
X6.0195Y-2.5182
X6.02Y-0.1004
X6.0201Y-2.7247
X6.0209Y-3.008
X6.021Y-0.8166
X6.0215Y-2.4121
X6.0224Y-3.1522
X6.0227Y-3.0836
X6.0246Y-0.8948
X6.0249Y-0.1846
X6.0259Y-1.8761
X6.0264Y-0.6671
X6.0265Y-3.4475
X6.0274Y-3.3054
X6.0287Y-0.9589
X6.0304Y-4.7429
X6.0488Y-3.3313
X6.0489Y-0.9229
X6.0495Y-2.9124
X6.0499Y-0.9985
X6.0501Y-2.558
X6.0507Y-3.12
X6.0513Y-2.7656
X6.0517Y-2.3371
X6.0525Y-1.9133
X6.0528Y-0.6432
X6.0532Y-0.8542
X6.0533Y-1.8418
X6.0544Y-3.7614
X6.0549Y-2.9797
X6.0552Y-0.078
X6.0553Y-2.6995
X6.0581Y-0.1451
X6.0583Y-4.7058
X6.0588Y-3.0524
X6.0594Y-1.7679
X6.0597Y-4.1489
X6.06Y-2.6237
X6.0618Y-3.8353
X6.0618Y-0.4606
X6.0619Y-0.5677
X6.062Y-3.48
X6.0628Y-3.2635
X6.0634Y-2.2729
X6.0646Y-2.8356
X6.0651Y-0.7812
X6.0656Y-1.534
X6.0659Y-3.4033
X6.0847Y-1.5576
X6.0853Y-1.8746
X6.0873Y-2.2345
X6.0884Y-1.4975
X6.0888Y-0.0996
X6.0891Y-2.8754
X6.0897Y-1.2131
X6.0921Y-2.9474
X6.0923Y-3.0838
X6.0932Y-3.7991
X6.0933Y-1.1304
X6.0938Y-2.6566
X6.0941Y-3.0177
X6.0947Y-2.5948
X6.095Y-1.2695
X6.0952Y-2.3063
X6.0962Y-3.2935
X6.0966Y-3.1591
X6.0966Y-2.7959
X6.0976Y-2.3702
X6.099Y-1.8167
X6.0995Y-2.7302
X6.101Y-2.5093
X6.1011Y-4.7471
X6.1196Y-1.0948
X6.1199Y-2.7691
X6.1207Y-1.1742
X6.1219Y-2.5525
X6.1232Y-0.1363
X6.1253Y-1.92
X6.1255Y-4.7203
X6.1264Y-1.8434
X6.127Y-1.2351
X6.1277Y-2.6221
X6.1287Y-4.1478
X6.1299Y-2.2719
X6.1303Y-2.7035
X6.1308Y-2.3491
X6.133Y-1.6026
X6.1339Y-0.0779
X6.1341Y-1.5341
X6.1344Y-2.408
X6.1563Y-1.4532
X6.1574Y-2.6635
X6.1584Y-1.8832
X6.1585Y-2.5223
X6.1595Y-0.995
X6.1599Y-0.6376
X6.1601Y-2.3759
X6.1602Y-0.8569
X6.1603Y-0.7763
X6.1613Y-1.6242
X6.1617Y-1.3849
X6.1625Y-0.1003
X6.1636Y-0.5608
X6.1645Y-4.7418
X6.1648Y-0.9153
X6.1657Y-1.2702
X6.1662Y-1.2084
X6.1664Y-2.7253
X6.1674Y-0.49
X6.1695Y-1.1352
X6.1699Y-2.5939
X6.17Y-2.2991
X6.1701Y-1.0599
X6.172Y-1.5522
X6.1721Y-3.3009
X6.1905Y-1.6657
X6.1908Y-2.273
X6.1922Y-0.8145
X6.1929Y-2.5531
X6.193Y-1.2484
X6.1931Y-1.9123
X6.1936Y-4.7148
X6.1953Y-0.9515
X6.1958Y-2.9855
X6.1964Y-1.4137
X6.1967Y-1.1653
X6.1999Y-0.532
X6.2007Y-0.0781
X6.2009Y-1.0979
X6.2013Y-2.6304
X6.2016Y-1.0318
X6.2023Y-2.3371
X6.2028Y-2.6959
X6.2036Y-0.8838
X6.2051Y-1.6033
X6.2057Y-1.4867
X6.2059Y-2.4078
X6.2075Y-1.3068
X6.2259Y-1.2094
X6.2263Y-0.9315
X6.2272Y-0.7749
X6.229Y-3.0867
X6.2298Y-1.6233
X6.2299Y-3.0126
X6.2303Y-3.792
X6.2311Y-3.7215
X6.2312Y-2.5094
X6.232Y-1.2848
X6.2339Y-1.0613
X6.2346Y-3.156
X6.2357Y-1.521
X6.2371Y-2.5957
X6.2375Y-2.3118
X6.2378Y-2.6649
X6.2382Y-0.8554
X6.2383Y-1.1375
X6.2387Y-2.3705
X6.2388Y-0.211
X6.239Y-0.9992
X6.2395Y-1.4623
X6.2418Y-1.3509
X6.2426Y-1.9444
X6.2429Y-4.7489
X6.2615Y-1.2382
X6.262Y-3.1242
X6.2622Y-1.4943
X6.2622Y-0.819
X6.2628Y-1.1741
X6.2634Y-2.5602
X6.2653Y-1.5659
X6.2661Y-1.3087
X6.2663Y-0.6448
X6.2668Y-2.4073
X6.2668Y-3.048
X6.268Y-1.0239
X6.2691Y-2.2742
X6.2698Y-1.3788
X6.2701Y-2.629
X6.2705Y-0.9664
X6.2712Y-3.4758
X6.2712Y-2.9783
X6.2716Y-4.7118
X6.2724Y-2.3429
X6.2732Y-0.8906
X6.2761Y-1.0975
X6.2773Y-1.6657
X6.2779Y-3.7611
X6.2783Y-3.4066
X6.2965Y-1.7727
X6.2965Y-2.5871
X6.2973Y-4.7414
X6.2975Y-1.2709
X6.2984Y-3.7179
X6.2995Y-3.0063
X6.2997Y-0.8468
X6.3022Y-0.9211
X6.3023Y-1.353
X6.3027Y-3.5111
X6.3028Y-3.3609
X6.303Y-3.1551
X6.3036Y-1.5179
X6.3038Y-0.9996
X6.3066Y-2.3065
X6.3072Y-1.1365
X6.3076Y-1.0724
X6.3076Y-0.67
X6.3082Y-0.788
X6.3085Y-3.0797
X6.3088Y-0.5962
X6.3091Y-2.3771
X6.3096Y-1.4163
X6.3105Y-1.2105
X6.3116Y-2.6658
X6.3122Y-3.4477
X6.3334Y-3.5431
X6.3344Y-4.0811
X6.3348Y-0.5707
X6.3351Y-1.0231
X6.3368Y-3.7597
X6.3369Y-0.823
X6.339Y-0.8877
X6.3402Y-3.4123
X6.3406Y-1.1701
X6.3408Y-0.9578
X6.3428Y-1.0965
X6.3436Y-2.5598
X6.3463Y-1.8166
X6.3463Y-3.1169
X6.3468Y-3.4727
X6.3469Y-3.0545
X6.347Y-4.7117
X6.3471Y-3.3373
X6.3474Y-2.619
X6.3486Y-1.2357
X6.3492Y-0.6457
X6.368Y-3.0835
X6.369Y-3.723
X6.3691Y-0.9288
X6.3695Y-3.6541
X6.3703Y-3.0056
X6.3719Y-3.3614
X6.372Y-1.0027
X6.3742Y-4.4686
X6.375Y-1.7702
X6.3763Y-1.2031
X6.3766Y-3.3059
X6.377Y-1.0609
X6.377Y-1.1293
X6.3792Y-0.5979
X6.3797Y-0.5417
X6.3802Y-2.6608
X6.3806Y-0.6707
X6.3808Y-4.7485
X6.3824Y-3.5862
X6.3826Y-3.513
X6.3829Y-0.7896
X6.3836Y-0.8568
X6.3842Y-3.4355
X6.3846Y-2.5958
X6.4029Y-2.307
X6.4029Y-3.0445
X6.4032Y-4.0846
X6.4035Y-1.1801
X6.4046Y-2.7011
X6.4052Y-3.6104
X6.4053Y-2.0138
X6.4058Y-1.6262
X6.4063Y-0.5604
X6.4069Y-3.4668
X6.4077Y-4.7207
X6.4077Y-2.2394
X6.4086Y-3.3274
X6.4091Y-0.8896
X6.4098Y-3.5418
X6.41Y-2.6203
X6.4102Y-3.8336
X6.4109Y-0.6464
X6.4111Y-1.4842
X6.413Y-1.0314
X6.4135Y-2.3809
X6.4135Y-3.7663
X6.4136Y-1.5614
X6.4143Y-1.0938
X6.4153Y-0.5059
X6.417Y-1.804
X6.4172Y-3.4016
X6.4175Y-0.8193
X6.4177Y-3.6957
X6.4182Y-0.9573
X6.4382Y-3.4341
X6.4383Y-0.6705
X6.4385Y-3.6499
X6.4389Y-4.7481
X6.4391Y-3.7909
X6.4407Y-3.5165
X6.4411Y-3.5863
X6.4411Y-0.5984
X6.4423Y-1.5986
X6.4433Y-3.7141
X6.4434Y-0.9914
X6.4439Y-1.8456
X6.444Y-2.3485
X6.4443Y-2.2774
X6.4454Y-2.4111
X6.4461Y-1.6755
X6.4463Y-3.0171
X6.4469Y-0.5362
X6.4478Y-4.1051
X6.4483Y-0.1819
X6.449Y-1.1353
X6.4492Y-1.7656
X6.4501Y-1.0659
X6.4502Y-1.5198
X6.4526Y-3.3689
X6.4536Y-4.2967
X6.4542Y-3.2565
X6.4549Y-1.9946
X6.4551Y-4.4743
X6.4734Y-1.8138
X6.4752Y-3.6085
X6.4755Y-1.1646
X6.4772Y-3.2904
X6.4776Y-1.5668
X6.478Y-2.3683
X6.4784Y-1.0315
X6.4786Y-0.6452
X6.4801Y-1.6377
X6.4806Y-0.1473
X6.4806Y-3.5396
X6.4809Y-4.0713
X6.481Y-1.9421
X6.4815Y-3.6933
X6.4816Y-3.7585
X6.4827Y-1.1006
X6.4827Y-0.5665
X6.4839Y-1.4944
X6.4857Y-2.0283
X6.486Y-2.3078
X6.4861Y-4.1535
X6.4876Y-3.4711
X6.4889Y-2.2315
X6.4902Y-1.8735
X6.4904Y-3.407
X6.4908Y-0.2094
X6.5101Y-1.9184
X6.5109Y-0.5982
X6.5143Y-3.3245
X6.515Y-0.5346
X6.5154Y-1.0707
X6.5156Y-1.6692
X6.5158Y-1.8532
X6.518Y-4.1068
X6.5181Y-1.7809
X6.5183Y-4.1836
X6.5195Y-1.9895
X6.5204Y-3.2653
X6.5207Y-2.5144
X6.5209Y-0.89
X6.5219Y-2.3329
X6.5229Y-3.4308
X6.524Y-1.6039
X6.5249Y-1.5185
X6.5256Y-2.2688
X6.5258Y-2.4169
X6.5258Y-3.5152
X6.5259Y-1.1367
X6.5464Y-1.8846
X6.5502Y-1.5622
X6.5511Y-1.8041
X6.5514Y-2.0305
X6.5518Y-1.955
X6.5523Y-3.3668
X6.5528Y-2.0954
X6.5528Y-2.1696
X6.5532Y-2.2983
X6.5542Y-2.5553
X6.5545Y-2.2287
X6.5546Y-0.5723
X6.5551Y-4.0844
X6.5554Y-3.2905
X6.5565Y-1.1021
X6.5581Y-1.6244
X6.5604Y-2.3726
X6.5605Y-3.4675
X6.5606Y-3.1222
X6.5607Y-1.1737
X6.5611Y-0.9314
X6.5799Y-0.4896
X6.5807Y-2.1291
X6.5819Y-2.3326
X6.5821Y-3.721
X6.5829Y-3.2572
X6.5829Y-1.1394
X6.5836Y-1.7672
X6.5847Y-2.9797
X6.5854Y-0.9655
X6.5868Y-3.0428
X6.5881Y-0.8909
X6.5886Y-1.9797
X6.5889Y-2.4073
X6.5894Y-1.2069
X6.5897Y-3.3301
X6.5901Y-1.5189
X6.5904Y-3.1527
X6.5905Y-1.85
X6.5908Y-2.0624
X6.5928Y-3.4105
X6.5935Y-1.6023
X6.5938Y-1.6614
X6.5955Y-1.9073
X6.5959Y-2.2736
X6.5964Y-2.1909
X6.5972Y-2.5106
X6.5973Y-0.0718
X6.6161Y-3.3015
X6.6167Y-1.8116
X6.617Y-4.0841
X6.618Y-1.2485
X6.6193Y-3.0197
X6.6199Y-1.5531
X6.6208Y-1.6378
X6.6209Y-2.3017
X6.6212Y-0.9971
X6.6213Y-1.1705
X6.6214Y-0.9236
X6.6224Y-1.9552
X6.6231Y-0.2827
X6.6232Y-3.3673
X6.6246Y-2.242
X6.625Y-0.4638
X6.6268Y-2.7651
X6.6274Y-1.8761
X6.6278Y-3.0805
X6.6283Y-3.8238
X6.6287Y-0.5257
X6.6296Y-2.0954
X6.6308Y-2.166
X6.6309Y-3.7615
X6.6309Y-2.0226
X6.6323Y-2.5588
X6.6327Y-2.3698
X6.6517Y-0.0717
X6.6517Y-0.8885
X6.6531Y-1.8489
X6.654Y-2.3482
X6.6549Y-1.534
X6.6551Y-3.3329
X6.6556Y-3.3971
X6.6561Y-0.9545
X6.6563Y-2.5141
X6.6565Y-3.0552
X6.6573Y-2.0576
X6.6575Y-2.1221
X6.6594Y-2.4059
X6.6603Y-0.4905
X6.6612Y-3.7205
X6.6616Y-2.5846
X6.6618Y-1.9179
X6.6618Y-2.7306
X6.6629Y-2.66
X6.6632Y-1.6003
X6.6637Y-1.6758
X6.6638Y-3.2677
X6.6642Y-1.7696
X6.6647Y-1.0309
X6.6649Y-2.981
X6.665Y-3.7966
X6.6651Y-3.1257
X6.6652Y-2.2047
X6.6663Y-2.2693
X6.6682Y-1.988
X6.6861Y-0.2434
X6.6863Y-3.1499
X6.6869Y-3.2973
X6.6869Y-1.0585
X6.6881Y-3.0106
X6.6881Y-1.8767
X6.6891Y-2.5559
X6.6898Y-3.0805
X6.6902Y-1.6348
X6.6903Y-2.6871
X6.6907Y-2.6311
X6.6921Y-0.918
X6.6922Y-0.6442
X6.6928Y-2.0224
X6.6946Y-0.1019
X6.6946Y-1.9441
X6.695Y-2.7731
X6.6961Y-3.3705
X6.6979Y-0.4697
X6.6986Y-3.7521
X6.6992Y-1.813
X6.7006Y-4.0766
X6.702Y-0.9921
X6.7224Y-1.7767
X6.7224Y-3.3378
X6.7233Y-0.0646
X6.7242Y-4.1075
X6.7245Y-0.8956
X6.7247Y-2.7983
X6.7247Y-2.7314
X6.7263Y-0.1389
X6.7283Y-3.0523
X6.7287Y-1.916
X6.7287Y-3.1212
X6.7293Y-0.2088
X6.7299Y-1.9919
X6.7303Y-2.8704
X6.7312Y-3.3999
X6.7317Y-3.2663
X6.7325Y-1.0233
X6.7352Y-1.8441
X6.7358Y-2.5178
X6.7363Y-0.6685
X6.7367Y-1.6724
X6.7373Y-0.5987
X6.7374Y-0.9557
X6.7383Y-2.5879
X6.7387Y-2.6615
X6.7391Y-2.9402
X6.7573Y-0.9931
X6.7574Y-3.3608
X6.758Y-2.9727
X6.7585Y-1.805
X6.7593Y-0.1154
X6.7613Y-0.1784
X6.7616Y-2.5449
X6.762Y-1.2688
X6.7631Y-1.0692
X6.7633Y-0.6442
X6.7637Y-3.2946
X6.7651Y-4.3527
X6.7654Y-3.4382
X6.7655Y-2.8434
X6.766Y-2.7602
X6.7663Y-0.5728
X6.7675Y-3.085
X6.768Y-4.082
X6.7682Y-2.2292
X6.7706Y-2.6868
X6.7709Y-1.4914
X6.771Y-0.9286
X6.7711Y-2.8999
X6.7717Y-3.1467
X6.772Y-1.8745
X6.7745Y-2.6156
X6.7933Y-3.4739
X6.795Y-0.9576
X6.7956Y-1.5233
X6.7958Y-2.651
X6.7959Y-3.3377
X6.7962Y-3.011
X6.7964Y-2.2761
X6.7964Y-1.778
X6.7971Y-2.5089
X6.7976Y-1.8505
X6.7984Y-1.9096
X6.7992Y-0.5276
X6.8006Y-0.6715
X6.8016Y-4.3323
X6.8025Y-4.1158
X6.8035Y-0.0809
X6.8035Y-3.1157
X6.8038Y-2.7379
X6.8038Y-2.8073
X6.8039Y-2.5918
X6.8042Y-2.3427
X6.8043Y-3.791
X6.8045Y-1.0215
X6.8063Y-0.89
X6.8067Y-2.9423
X6.8073Y-3.4119
X6.8074Y-3.2532
X6.8078Y-2.8808
X6.808Y-0.1453
X6.8084Y-0.6126
X6.8085Y-2.4183
X6.8279Y-1.2132
X6.828Y-4.3533
X6.8292Y-4.2181
X6.8294Y-1.4818
X6.8297Y-4.2959
X6.8305Y-3.1578
X6.8313Y-0.5696
X6.8317Y-4.0683
X6.8317Y-0.6345
X6.8324Y-1.5632
X6.8325Y-1.8879
X6.833Y-1.8089
X6.8334Y-2.6968
X6.835Y-2.2284
X6.835Y-4.1553
X6.8352Y-3.3011
X6.8357Y-2.6247
X6.8362Y-0.9989
X6.8366Y-1.1402
X6.837Y-2.8291
X6.8382Y-2.9801
X6.8394Y-2.5528
X6.8399Y-2.3762
X6.8401Y-0.4945
X6.841Y-3.0484
X6.8412Y-1.0653
X6.8416Y-3.8215
X6.8417Y-2.7581
X6.8422Y-1.274
X6.8426Y-2.307
X6.8445Y-0.9281
X6.8446Y-0.1151
X6.8446Y-2.9002
X6.8653Y-4.1773
X6.866Y-2.801
X6.8661Y-2.6669
X6.8664Y-2.5851
X6.8665Y-1.8487
X6.8665Y-0.5413
X6.8667Y-1.9134
X6.8669Y-2.4169
X6.8677Y-2.5101
X6.8685Y-1.5213
X6.8692Y-0.9669
X6.8698Y-2.3348
X6.8701Y-2.9368
X6.8705Y-1.0937
X6.8712Y-1.2407
X6.8712Y-4.1171
X6.8713Y-1.1797
X6.8715Y-0.0734
X6.8716Y-4.2559
X6.8726Y-2.7384
X6.8729Y-2.8706
X6.8736Y-0.6689
X6.8737Y-4.3189
X6.8743Y-2.268
X6.8745Y-3.7533
X6.8748Y-0.4558
X6.8753Y-0.1521
X6.8754Y-0.8813
X6.8764Y-0.6114
X6.8768Y-3.0115
X6.8771Y-1.5892
X6.8774Y-1.0209
X6.8995Y-1.2707
X6.8998Y-2.3001
X6.9001Y-1.1287
X6.9015Y-2.6944
X6.9021Y-1.63
X6.9028Y-1.0645
X6.903Y-2.5525
X6.9032Y-4.2105
X6.9055Y-1.4468
X6.9064Y-0.5027
X6.9086Y-2.6212
X6.9095Y-0.9975
X6.91Y-3.298
X6.91Y-0.1154
X6.9104Y-1.888
X6.9108Y-2.3804
X6.9121Y-4.297
X6.9126Y-4.0826
X6.913Y-1.2031
X6.9132Y-4.3601
X6.9139Y-0.5676
X6.9141Y-1.5602
X6.9142Y-4.1538
X6.9144Y-0.9295
X6.915Y-2.7675
X6.9152Y-1.8047
X6.9159Y-0.6381
X6.9353Y-2.6597
X6.9363Y-0.0684
X6.9369Y-1.3798
X6.9374Y-0.9592
X6.9381Y-2.4045
X6.9388Y-4.3871
X6.9411Y-1.1072
X6.9419Y-1.1746
X6.9422Y-1.4832
X6.9431Y-4.5286
X6.9434Y-4.1152
X6.945Y-4.3193
X6.9451Y-1.9118
X6.9459Y-4.1791
X6.947Y-2.5943
X6.9475Y-1.8471
X6.9478Y-4.2574
X6.9483Y-1.0231
X6.9485Y-2.5252
X6.9487Y-2.3399
X6.9487Y-4.4709
X6.9489Y-1.24
X6.9491Y-0.5295
X6.9505Y-2.2714
X6.9515Y-1.3198
X6.9516Y-0.8878
X6.9517Y-1.5992
X6.9726Y-1.531
X6.973Y-4.0831
X6.9738Y-2.6275
X6.9739Y-1.4129
X6.9748Y-3.1268
X6.9751Y-1.064
X6.9769Y-1.274
X6.9776Y-1.8843
X6.9785Y-2.3693
X6.9785Y-2.5619
X6.9798Y-2.9711
X6.9799Y-1.3524
X6.9807Y-0.9175
X6.9812Y-2.3133
X6.9815Y-1.6316
X6.9818Y-1.1995
X6.9847Y-1.9486
X6.9849Y-0.9983
X6.9851Y-3.0484
X6.9866Y-3.7283
X6.9871Y-1.1424
X7.005Y-4.1119
X7.0051Y-2.6528
X7.0064Y-1.457
X7.0068Y-1.0367
X7.0077Y-1.2484
X7.0086Y-1.3218
X7.0105Y-1.0919
X7.0113Y-0.9522
X7.0123Y-2.5107
X7.0127Y-3.018
X7.0132Y-3.7641
X7.0135Y-1.5632
X7.0136Y-2.3365
X7.0142Y-2.2732
X7.0144Y-3.3948
X7.0148Y-3.0865
X7.0156Y-1.3904
X7.016Y-3.4713
X7.0179Y-3.1507
X7.0195Y-1.1693
X7.0199Y-1.6621
X7.0201Y-2.4062
X7.0208Y-0.8825
X7.0209Y-2.5884
X7.0404Y-4.0788
X7.0431Y-1.2713
X7.0431Y-3.441
X7.0436Y-1.1981
X7.0439Y-0.6818
X7.0441Y-3.7157
X7.0453Y-1.1354
X7.0455Y-2.6231
X7.0484Y-3.1116
X7.0486Y-0.9287
X7.0494Y-1.3405
X7.0498Y-2.3803
X7.0511Y-1.0572
X7.0514Y-0.998
X7.0533Y-2.5575
X7.0533Y-3.3662
X7.054Y-2.9768
X7.0564Y-1.4946
X7.0565Y-3.0568
X7.0566Y0.0056
X7.0573Y-0.6125
X7.0573Y-3.5134
X7.0573Y-2.2965
X7.0575Y-1.4255
X7.076Y-0.6437
X7.0777Y-0.5657
X7.0779Y-0.9522
X7.0806Y-1.2429
X7.0807Y-1.7685
X7.0814Y-3.7509
X7.0818Y-0.8859
X7.083Y-4.1198
X7.0846Y-3.4678
X7.0848Y-2.5801
X7.0854Y-3.0153
X7.0864Y-3.4118
X7.089Y-3.3315
X7.0893Y-0.0361
X7.0903Y-1.1069
X7.0903Y-1.0352
X7.0917Y-2.6539
X7.0918Y-3.0871
X7.0923Y-1.1773
X7.0929Y-3.5501
X7.1127Y-0.6777
X7.1127Y-3.1181
X7.1131Y-0.5303
X7.1138Y-3.5737
X7.1141Y-4.0679
X7.1154Y-3.0528
X7.1156Y-1.0673
X7.1161Y-3.2918
X7.1164Y-3.7946
X7.1167Y-1.1322
X7.1168Y-1.8066
X7.1188Y-3.4376
X7.1189Y-3.5079
X7.1192Y-2.6273
X7.1195Y-3.9629
X7.1206Y-0.9882
X7.1208Y-3.6562
X7.1209Y-3.3765
X7.122Y-0.9247
X7.1238Y-3.7137
X7.1243Y-0.5984
X7.1247Y-4.6809
X7.1256Y-2.6862
X7.1279Y-1.2012
X7.1467Y-1.1746
X7.1471Y-3.826
X7.1472Y-0.4897
X7.1476Y-2.733
X7.1485Y-4.1757
X7.149Y-2.6542
X7.1519Y-0.8964
X7.1521Y-1.5551
X7.1524Y-0.9636
X7.1527Y-2.232
X7.1533Y-3.7541
X7.1537Y-0.0388
X7.1539Y-3.0189
X7.1544Y-0.6366
X7.1544Y-4.5394
X7.1544Y-3.6201
X7.1545Y-1.625
X7.1549Y-1.7723
X7.1551Y-4.1188
X7.1559Y-2.3124
X7.1562Y-4.3889
X7.1563Y-2.3672
X7.1566Y-4.6045
X7.1568Y-1.0995
X7.1584Y-4.3331
X7.1589Y-3.3411
X7.1597Y-1.0344
X7.1598Y-4.4715
X7.1599Y-3.4031
X7.1607Y-1.4977
X7.1614Y-3.6859
X7.1626Y-3.5399
X7.1629Y-3.4687
X7.1636Y-4.2591
X7.1637Y-0.5651
X7.1641Y-3.0884
X7.1829Y-1.8143
X7.1831Y-3.0512
X7.1845Y-1.0732
X7.1861Y-4.2836
X7.1879Y-4.637
X7.1879Y-0.5353
X7.1879Y-3.4403
X7.1885Y-3.658
X7.189Y-3.9733
X7.189Y-4.5648
X7.1899Y-4.2175
X7.1899Y-2.0169
X7.1901Y-0.6063
X7.1911Y-4.0848
X7.1912Y-3.3744
X7.1919Y-4.3555
X7.193Y-3.5032
X7.1938Y-2.3445
X7.1939Y-4.1489
X7.1943Y-0.6734
X7.1947Y-1.5914
X7.1947Y-0.9891
X7.195Y-2.406
X7.1954Y-0.001
X7.1959Y-3.728
X7.1961Y-4.4972
X7.1961Y-1.6661
X7.1968Y-2.2752
X7.1969Y-3.587
X7.1977Y-1.528
X7.1983Y-3.2637
X7.1985Y-0.9168
X7.1986Y-1.1418
X7.1987Y-4.4341
X7.1989Y-3.7957
X7.2177Y-4.3239
X7.2188Y-0.6469
X7.2193Y-1.5524
X7.2196Y-3.407
X7.2198Y-3.2889
X7.221Y-1.4892
X7.2214Y-4.1099
X7.2217Y-1.6294
X7.2231Y-1.7652
X7.2237Y-2.3087
X7.224Y-0.8911
X7.2245Y-0.21
X7.2247Y-4.4691
X7.2248Y-1.1
X7.2248Y-3.7509
X7.225Y-3.6125
X7.2258Y-4.5309
X7.226Y-4.1879
X7.2266Y-3.8253
X7.2272Y-4.6779
X7.228Y-3.6944
X7.2281Y-0.9522
X7.2284Y-1.8408
X7.2294Y-1.9827
X7.2295Y-2.3792
X7.2295Y-1.9226
X7.2296Y-3.4706
X7.2297Y-3.0181
X7.2299Y-4.4002
X7.2304Y-0.5728
X7.231Y-4.2586
X7.2318Y-1.0355
X7.2322Y-2.2273
X7.2324Y-4.6098
X7.2342Y-0.1464
X7.2344Y-3.5524
X7.2345Y-1.1719
X7.2537Y-0.6685
X7.2545Y-4.3596
X7.2554Y-2.0176
X7.2562Y-0.5337
X7.2564Y-1.955
X7.2568Y-2.5242
X7.2572Y-4.1523
X7.2573Y-4.0721
X7.2579Y-2.3378
X7.2579Y-3.2646
X7.2583Y-4.5729
X7.2592Y-1.6004
X7.2593Y-3.4344
X7.2595Y-4.2865
X7.2599Y-1.0574
X7.2605Y-3.33
X7.261Y-3.5063
X7.2616Y-0.6096
X7.2623Y-1.5311
X7.2635Y-1.8098
X7.2638Y-4.6474
X7.2638Y-4.4383
X7.2643Y-1.6645
X7.265Y-1.8812
X7.2656Y-0.9968
X7.2664Y-0.9183
X7.2673Y-2.4162
X7.2685Y-2.2749
X7.2703Y-4.5027
X7.2705Y-1.1301
X7.2706Y-4.2232
X7.2892Y-3.4808
X7.2897Y-1.0365
X7.2903Y-4.3913
X7.2903Y-2.0616
X7.2908Y-4.5303
X7.2911Y-4.1852
X7.2918Y-3.122
X7.2926Y-0.5626
X7.2932Y-1.9227
X7.2938Y-2.3797
X7.2939Y-0.9581
X7.294Y-1.7774
X7.2941Y-4.3275
X7.2947Y-2.3047
X7.295Y-2.5481
X7.296Y-4.4663
X7.2964Y-3.3034
X7.2966Y-2.1338
X7.2967Y-0.6334
X7.2967Y-1.167
X7.2969Y-4.1083
X7.2974Y-2.1929
X7.2992Y-4.2575
X7.2993Y-1.5545
X7.3009Y-3.3685
X7.3014Y-4.6163
X7.3024Y-0.8926
X7.3035Y-1.1067
X7.3039Y-1.8419
X7.3047Y-1.6255
X7.3056Y-1.9822
X7.3056Y-4.6759
X7.324Y-1.0679
X7.3243Y-1.5266
X7.3246Y-2.0235
X7.3257Y-4.2816
X7.326Y-1.5969
X7.3265Y-1.6684
X7.3276Y-2.0874
X7.3285Y-4.2234
X7.3291Y-4.6407
X7.3299Y-2.3489
X7.3301Y-3.0417
X7.3301Y-4.5081
X7.3304Y-0.6091
X7.3308Y-4.4231
X7.3312Y-0.0648
X7.3315Y-2.4137
X7.3316Y-4.3543
X7.332Y-4.5762
X7.3322Y-1.9576
X7.3323Y-1.8093
X7.3341Y-0.9283
X7.3343Y-2.2352
X7.3348Y-3.4015
X7.3353Y-3.3319
X7.3354Y-3.159
X7.3355Y-2.9765
X7.3367Y-3.2597
X7.3371Y-4.1506
X7.3372Y-2.1548
X7.3375Y-0.4985
X7.3376Y-1.1327
X7.3402Y-1.2102
X7.3402Y-3.7265
X7.3404Y-4.073
X7.3407Y-0.6697
X7.3408Y-2.5099
X7.3412Y-1.875
X7.3413Y-0.9867
X7.3595Y-4.4607
X7.3597Y-0.5284
X7.3603Y-1.9192
X7.3607Y-1.095
X7.3613Y-3.0867
X7.3617Y-4.6748
X7.3618Y-1.6382
X7.362Y-4.1069
X7.362Y-1.9831
X7.3626Y-4.3246
X7.3628Y-4.6053
X7.3633Y-0.6414
X7.3645Y-2.7696
X7.3653Y-3.0191
X7.3657Y-1.8453
X7.3659Y-3.29
X7.3665Y-0.9672
X7.3666Y-3.83
X7.3667Y-4.1908
X7.367Y-2.0581
X7.3672Y-2.2052
X7.3677Y-2.384
X7.368Y-1.766
X7.3685Y-1.0272
X7.3687Y-3.974
X7.3699Y-2.5599
X7.37Y-0.2889
X7.3723Y-1.1733
X7.3725Y-0.892
X7.3726Y-4.2537
X7.373Y-4.5295
X7.373Y-3.7543
X7.3735Y-2.1232
X7.3743Y-2.2708
X7.3747Y-1.2446
X7.3759Y-4.3884
X7.3761Y-3.3644
X7.3762Y-1.5535
X7.3977Y-4.6431
X7.3981Y-2.42
X7.3981Y-1.877
X7.3981Y-0.5061
X7.3983Y-0.9316
X7.3985Y-1.8075
X7.3991Y-1.6667
X7.3993Y-2.0899
X7.401Y-3.716
X7.401Y-3.3305
X7.4012Y-4.2814
X7.4016Y-3.0421
X7.4017Y-1.0736
X7.4017Y-4.5038
X7.402Y-0.0785
X7.4021Y-2.5885
X7.4022Y-2.9871
X7.4024Y-0.668
X7.4037Y-2.0229
X7.405Y-2.5265
X7.4053Y-0.5749
X7.4069Y-0.9946
X7.4071Y-1.5293
X7.4075Y-3.4008
X7.4077Y-4.2216
X7.4077Y-4.5654
X7.4077Y-2.2403
X7.4082Y-1.9471
X7.4084Y-2.2967
X7.4088Y-3.1121
X7.4091Y-1.5935
X7.4092Y-4.1515
X7.4093Y-2.6618
X7.4096Y-4.3665
X7.4098Y-4.4292
X7.4098Y-2.7307
X7.4106Y-3.2571
X7.4106Y-2.1713
X7.4107Y-4.0776
X7.4303Y-3.7624
X7.4307Y-0.9624
X7.431Y-3.1573
X7.4332Y-0.5386
X7.4338Y-1.7786
X7.4339Y-4.546
X7.434Y-2.5587
X7.4348Y-1.6295
X7.4368Y-4.4017
X7.4369Y-4.1104
X7.4374Y-3.0873
X7.4389Y-3.3757
X7.4394Y-4.6813
X7.4397Y-0.604
X7.4403Y-4.6165
X7.4404Y-1.9167
X7.4431Y-3.0084
X7.4434Y-2.699
X7.4444Y-3.2988
X7.4445Y-2.6243
X7.4449Y-0.254
X7.4451Y-4.2561
X7.4451Y-1.0379
X7.4452Y-1.8385
X7.4453Y-4.1909
X7.4455Y-4.3269
X7.446Y-2.7571
X7.4461Y-1.992
X7.4464Y-4.4608
X7.4466Y-0.4672
X7.4469Y-0.8865
X7.4659Y-0.6444
X7.466Y-4.4246
X7.4668Y-2.731
X7.467Y-4.2173
X7.4672Y-0.5722
X7.4673Y-0.9886
X7.4674Y-4.282
X7.4676Y-4.5766
X7.4677Y-3.1141
X7.468Y-1.8061
X7.4683Y-3.4018
X7.4696Y-2.509
X7.4703Y-2.6523
X7.4708Y-4.1499
X7.4719Y-3.0553
X7.472Y-4.0732
X7.4725Y-0.1477
X7.4734Y-0.4961
X7.4739Y-1.8783
X7.4741Y-4.3658
X7.4742Y-2.9468
X7.4743Y-2.5943
X7.4752Y-3.3279
X7.477Y-0.0801
X7.477Y-3.2532
X7.4773Y-4.5107
X7.4793Y-0.2187
X7.4804Y-4.6517
X7.4815Y-1.9455
X7.4816Y-2.801
X7.4821Y-1.0618
X7.4823Y-1.673
X7.4828Y-2.8692
X7.4829Y-0.9183
X7.5019Y-4.5387
X7.5019Y-4.6706
X7.5024Y-3.3013
X7.5025Y-1.8416
X7.5038Y-0.1125
X7.5043Y-4.2625
X7.5056Y-3.7923
X7.5057Y-4.3193
X7.506Y-0.184
X7.506Y-0.2498
X7.5069Y-2.9037
X7.5073Y-3.0826
X7.5075Y-2.843
X7.5076Y-1.0279
X7.509Y-4.4698
X7.5101Y-4.1068
X7.5109Y-0.6794
X7.5109Y-1.9211
X7.5127Y-4.6094
X7.5134Y-1.7818
X7.5137Y-2.5604
X7.5144Y-2.7021
X7.5155Y-4.3912
X7.5156Y-0.9651
X7.5157Y-2.6203
X7.5161Y-3.3649
X7.5165Y-0.5271
X7.5167Y-3.969
X7.5168Y-3.1489
X7.517Y-2.7649
X7.5172Y-4.1908
X7.5172Y-0.5982
X7.5175Y-0.8939
X7.5178Y-2.9848
X7.5178Y-3.4447
X7.5182Y-0.4591
X7.5367Y-4.2916
X7.5375Y-4.3674
X7.5378Y-0.4337
X7.5383Y-4.4346
X7.5398Y-1.8003
X7.5408Y-3.2667
X7.5409Y-2.9442
X7.5413Y-2.7262
X7.5415Y-3.8351
X7.5415Y-2.3099
X7.5417Y-3.4084
X7.5419Y-0.0761
X7.542Y-3.3346
X7.5422Y-0.6468
X7.5428Y-1.0692
X7.543Y-2.87
X7.5432Y-4.6511
X7.5444Y-2.7929
X7.545Y-4.2208
X7.5454Y-0.3627
X7.5457Y-0.2214
X7.5459Y-1.4945
X7.5463Y-2.5909
X7.5466Y-0.566
X7.5466Y-2.6628
X7.547Y-2.3747
X7.5479Y-1.8774
X7.5479Y-3.125
X7.5479Y-0.4973
X7.548Y-0.1407
X7.5483Y-0.9986
X7.5484Y-4.0753
X7.5485Y-4.5043
X7.5487Y-2.2428
X7.5509Y-4.1548
X7.5509Y-2.5126
X7.5511Y-3.4737
X7.552Y-0.2822
X7.5522Y-4.5762
X7.5528Y-0.9193
X7.553Y-1.2852
X7.5532Y-3.0096
X7.5727Y-3.154
X7.5736Y-0.4571
X7.5736Y-2.6171
X7.5739Y-4.3921
X7.5744Y-2.6932
X7.575Y-1.0972
X7.5751Y-0.8881
X7.5754Y-2.9734
X7.5755Y-4.6734
X7.5759Y-3.3004
X7.5764Y-1.8433
X7.5767Y-0.2476
X7.5767Y-0.3916
X7.5771Y-0.1009
X7.5775Y-3.7944
X7.5776Y-1.7715
X7.5777Y-1.2443
X7.5779Y-0.6782
X7.578Y-1.9095
X7.5786Y-3.0517
X7.5789Y-4.2564
X7.5791Y-4.1748
X7.5794Y-4.5299
X7.58Y-1.0243
X7.5801Y-4.1202
X7.5805Y-4.4616
X7.5809Y-0.3238
X7.5811Y-2.7622
X7.5812Y-2.4189
X7.5815Y-2.5599
X7.5824Y-0.1746
X7.5826Y-0.9667
X7.584Y-4.3248
X7.5843Y-0.5291
X7.5857Y-3.9782
X7.5862Y-2.3487
X7.5864Y-4.6134
X7.5874Y-2.2673
X7.5878Y-1.5208
X7.5885Y-0.5991
X7.5886Y-2.9038
X7.5892Y-2.833
X7.6076Y-4.578
X7.6087Y-3.8298
X7.609Y-4.2254
X7.609Y-2.3036
X7.6098Y-1.1425
X7.6099Y-1.485
X7.6103Y-4.4238
X7.6104Y-0.9894
X7.6104Y-0.4243
X7.6104Y-2.875
X7.6107Y-1.0623
X7.611Y-0.6332
X7.6114Y-0.4936
X7.6115Y-2.5814
X7.6123Y-1.2837
X7.6131Y-2.7955
X7.6133Y-4.6353
X7.6135Y-0.2122
X7.614Y-2.6549
X7.6144Y-1.8149
X7.6145Y-4.3594
X7.6149Y-0.2895
X7.616Y-2.3686
X7.6164Y-0.5624
X7.6169Y-2.7284
X7.6171Y-3.009
X7.6173Y-1.878
X7.6185Y-2.2429
X7.6186Y-1.5597
X7.6186Y-0.0705
X7.6206Y-4.2939
X7.622Y-0.1357
X7.6232Y-2.5195
X7.6234Y-0.9222
X7.6237Y-4.1522
X7.6237Y-4.5009
X7.6244Y-2.9507
X7.6249Y-0.3519
X7.6431Y-1.2433
X7.6435Y-0.5328
X7.6437Y-4.6878
X7.645Y-0.1835
X7.6453Y-4.3163
X7.6458Y-4.3911
X7.6459Y-1.0316
X7.6464Y-0.6821
X7.6467Y-0.1125
X7.6468Y-1.4476
X7.6481Y-0.8815
X7.6482Y-1.6007
X7.6505Y-1.5217
X7.6508Y-0.2507
X7.6512Y-0.9589
X7.6513Y-0.3884
X7.6516Y-2.7617
X7.6523Y-0.3164
X7.6524Y-2.5446
X7.653Y-1.1078
X7.6534Y-4.4698
X7.6536Y-2.6953
X7.6537Y-0.6019
X7.6537Y-4.5403
X7.6541Y-2.6244
X7.6546Y-4.1093
X7.6547Y-0.4568
X7.6558Y-1.8402
X7.6559Y-4.1918
X7.6559Y-2.3423
X7.6566Y-1.9144
X7.6577Y-2.418
X7.6578Y-3.3059
X7.6584Y-4.2498
X7.6589Y-4.6109
X7.6593Y-2.2748
X7.6782Y-4.2979
X7.6787Y-0.211
X7.679Y-4.5066
X7.6794Y-0.9194
X7.6807Y-4.2244
X7.6812Y-0.4205
X7.6815Y-4.6423
X7.6822Y-0.0718
X7.6842Y-1.627
X7.6851Y-4.1425
X7.6855Y-1.4266
X7.6858Y-0.3613
X7.6864Y-0.1525
X7.6865Y-1.0695
X7.6869Y-1.9499
X7.6872Y-2.3081
X7.6874Y-2.3743
X7.6876Y-1.5654
X7.6885Y-1.2724
X7.6895Y-1.8817
X7.6903Y-2.652
X7.6914Y-4.4379
X7.6921Y-4.5685
X7.693Y-2.5872
X7.6937Y-4.3527
X7.6938Y-2.5133
X7.6939Y-1.3464
X7.6945Y-0.9948
X7.6948Y-0.4903
X7.6949Y-2.7249
X7.6951Y-1.4846
X7.6953Y-0.2929
X7.7142Y-3.7886
X7.7143Y-1.4542
X7.7149Y-1.3125
X7.7151Y-3.7185
X7.7151Y-4.4623
X7.7153Y-2.6238
X7.7156Y-1.5888
X7.716Y-1.9932
X7.7162Y-2.9837
X7.7174Y-4.3184
X7.7176Y-4.5386
X7.7178Y-1.52
X7.718Y-0.8811
X7.7185Y-2.347
X7.7196Y-1.6718
X7.7205Y-2.4106
X7.7207Y-0.1733
X7.721Y-4.1819
X7.7213Y-1.2409
X7.7215Y-4.6112
X7.722Y-3.127
X7.7224Y-0.9625
X7.7225Y-2.552
X7.7225Y-0.2522
X7.7234Y-3.0575
X7.7237Y-1.9131
X7.7243Y-0.1155
X7.7256Y-1.3845
X7.7259Y-4.6875
X7.7262Y-1.0277
X7.7282Y-4.2581
X7.7288Y-4.0806
X7.7304Y-2.2757
X7.7307Y-4.3933
X7.7504Y-0.07
X7.7506Y-4.565
X7.751Y-3.9716
X7.7514Y-3.7553
X7.752Y-1.5534
X7.7524Y-4.2973
X7.753Y-3.5039
X7.7536Y-3.1602
X7.7546Y-4.3667
X7.7547Y-4.225
X7.7551Y-1.4121
X7.7552Y-2.5826
X7.7557Y-4.4331
X7.7558Y-1.4988
X7.7563Y-4.1186
X7.7574Y-4.5068
X7.7577Y-2.3007
X7.7588Y-3.09
X7.7602Y-0.141
X7.7626Y-3.8347
X7.7632Y-1.6248
X7.7633Y-1.3558
X7.7636Y-3.0067
X7.7637Y-1.2806
X7.7639Y-2.3681
X7.7648Y-1.2014
X7.7648Y-4.6377
X7.7649Y-2.6635
X7.7656Y-2.5097
X7.7662Y-0.9181
X7.7663Y-1.0024
X7.7849Y-1.526
X7.7857Y-4.7425
X7.7864Y-0.1155
X7.7864Y-2.6216
X7.7865Y-0.5967
X7.7867Y-1.3759
X7.7871Y-4.1469
X7.7878Y-3.3614
X7.7879Y-4.6011
X7.7883Y-2.2751
X7.7887Y-1.661
X7.7888Y-0.5278
X7.7889Y-2.3436
X7.7891Y-4.671
X7.7898Y-3.0527
X7.7898Y-1.454
X7.7904Y-3.1133
X7.7906Y-2.5511
X7.7907Y-0.8886
X7.7911Y-0.6821
X7.7912Y-3.4367
X7.7919Y-4.0831
X7.7929Y-1.2488
X7.7946Y-0.8124
X7.7959Y-1.59
X7.7961Y-4.4634
X7.7961Y-2.9698
X7.7976Y-0.9642
X7.7984Y-3.7204
X7.7984Y-4.2532
X7.7994Y-1.1638
X7.7998Y-4.3873
X7.8003Y-4.5459
X7.8005Y-4.316
X7.8013Y-0.4597
X7.8017Y-1.3103
X7.8205Y-0.927
X7.8208Y-1.1297
X7.8214Y-4.116
X7.8221Y-4.5648
X7.8225Y-2.5889
X7.8225Y-4.7127
X7.823Y-0.856
X7.8234Y-1.2841
X7.8236Y-0.5028
X7.8236Y-3.7595
X7.824Y-1.2069
X7.8241Y-0.7748
X7.8241Y-3.4116
X7.8242Y-0.0798
X7.825Y-3.4721
X7.8252Y-4.64
X7.8261Y-4.2824
X7.8276Y-0.6466
X7.8282Y-3.0823
X7.8292Y-4.1859
X7.8299Y-3.3342
X7.8307Y-0.1446
X7.8313Y-4.3528
X7.8315Y-4.4268
X7.8318Y-3.0219
X7.8338Y-1.7805
X7.8356Y-4.4961
X7.8367Y-0.5682
X7.8369Y-2.6598
X7.8555Y-0.8869
X7.8562Y-4.2227
X7.8576Y-3.5182
X7.8586Y-4.1502
X7.859Y-3.1146
X7.8593Y-0.115
X7.8596Y-3.6538
X7.86Y-4.3192
X7.861Y-1.238
X7.8616Y-4.537
X7.8618Y-1.8033
X7.8627Y-4.4605
X7.8636Y-4.6057
X7.8639Y-2.6247
X7.8651Y-4.7501
X7.8655Y-0.6677
X7.8669Y-3.3766
X7.8673Y-3.434
X7.8673Y-4.6815
X7.8687Y-4.3981
X7.8687Y-0.5374
X7.869Y-0.6109
X7.8697Y-3.7142
X7.87Y-0.817
X7.8703Y-1.1728
X7.8715Y-3.0503
X7.8717Y-0.4653
X7.872Y-3.573
X7.872Y-3.2974
X7.8721Y-4.079
X7.8722Y-1.1013
X7.8913Y-4.2556
X7.8934Y-3.4064
X7.8935Y-3.5534
X7.8939Y-0.0741
X7.8941Y-1.1333
X7.8948Y-0.1516
X7.8953Y-3.3321
X7.8965Y-1.494
X7.8965Y-4.5794
X7.8966Y-4.5002
X7.8972Y-3.0784
X7.8977Y-4.1068
X7.8982Y-4.4286
X7.899Y-4.6375
X7.8992Y-2.6632
X7.8992Y-3.6075
X7.8996Y-2.2966
X7.8996Y-2.3773
X7.9006Y-2.729
X7.901Y-4.1776
X7.9011Y-1.7732
X7.9012Y-3.0077
X7.9014Y-3.4728
X7.9014Y-4.3543
X7.9035Y-1.0664
X7.904Y-3.6881
X7.9055Y-4.7189
X7.9065Y-0.5679
X7.9067Y-0.638
X7.9075Y-3.7502
X7.9075Y-0.8458
X7.9077Y-0.5005
X7.9084Y-2.2261
X7.9084Y-0.779
X7.9262Y-0.5288
X7.9269Y-1.5202
X7.927Y-4.148
X7.9274Y-1.099
X7.9276Y-0.6678
X7.928Y-3.6453
X7.9286Y-4.3984
X7.929Y-0.8089
X7.9296Y-3.7271
X7.9296Y-3.4465
X7.9297Y-3.5138
X7.9297Y-1.6044
X7.9301Y-1.0365
X7.9302Y-0.6007
X7.9303Y-3.5794
X7.9306Y-2.2632
X7.9308Y-2.3443
X7.9314Y-2.0174
X7.9315Y-4.2933
X7.933Y-4.0793
X7.933Y-1.1701
X7.9339Y-3.05
X7.9339Y-2.7034
X7.9346Y-3.2625
X7.9362Y-4.7561
X7.9371Y-3.7968
X7.9372Y-4.2272
X7.9397Y-1.8084
X7.9399Y-4.4641
X7.9403Y-1.6761
X7.9404Y-0.1108
X7.9417Y-3.9748
X7.9421Y-4.5375
X7.9423Y-3.3713
X7.9426Y-4.6726
X7.9437Y-4.6007
X7.9438Y-2.415
X7.9618Y-4.1051
X7.9624Y-3.537
X7.9645Y-1.1359
X7.9648Y-1.8467
X7.9651Y-3.6884
X7.9654Y-4.1823
X7.9655Y-3.6127
X7.9656Y-4.7217
X7.9659Y-0.6467
X7.9663Y-0.0787
X7.9667Y-1.5554
X7.9671Y-3.7607
X7.9672Y-4.2616
X7.968Y-1.9851
X7.9684Y-3.401
X7.9696Y-3.2915
X7.9704Y-3.8243
X7.9708Y-1.0593
X7.9716Y-3.0082
X7.9723Y-1.7752
X7.9725Y-4.4334
X7.9738Y-1.491
X7.974Y-1.6298
X7.9744Y-4.3317
X7.9745Y-2.3766
X7.9746Y-1.911
X7.9749Y-4.5101
X7.9758Y-2.3111
X7.9762Y-0.9904
X7.9763Y-0.7846
X7.9767Y-0.135
X7.9768Y-4.5744
X7.9776Y-0.5723
X7.9782Y-4.6426
X7.9782Y-2.2278
X7.9786Y-3.4691
X7.9973Y-4.4748
X7.9984Y-1.0248
X7.9995Y-3.5016
X8.0001Y-1.8012
X8.0007Y-4.6807
X8.0013Y-3.4417
X8.0014Y-4.6106
X8.0015Y-2.2638
X8.0018Y-4.145
X8.0019Y-0.9613
X8.0026Y-1.6714
X8.0028Y-4.5431
X8.0045Y-1.5283
X8.0052Y-2.5194
X8.0064Y-4.2112
X8.0064Y-3.3289
X8.0072Y-0.6664
X8.0075Y-1.1695
X8.0076Y-2.4138
X8.0077Y-1.0966
X8.008Y-1.9464
X8.0084Y-0.6107
X8.0088Y-0.1038
X8.0092Y-2.3465
X8.0094Y-0.5351
X8.0103Y-1.8769
X8.0115Y-4.7423
X8.0118Y-4.3601
X8.0125Y-2.0152
X8.0129Y-1.5919
X8.0139Y-4.2828
X8.0141Y-3.2561
X8.0335Y-1.061
X8.0348Y-0.561
X8.0349Y-2.3742
X8.0352Y-4.4025
X8.0356Y-3.4788
X8.0361Y-3.3662
X8.0367Y-4.5054
X8.0369Y-3.1197
X8.037Y-1.5597
X8.0373Y-1.8446
X8.0376Y-2.312
X8.0396Y-3.2972
X8.0401Y-1.7656
X8.0402Y-1.6308
X8.0406Y-0.6426
X8.0406Y-1.1296
X8.043Y-4.1887
X8.0433Y-0.9296
X8.0436Y-1.0003
X8.0436Y-2.1304
X8.0445Y-2.1937
X8.0446Y-2.0639
X8.0452Y-1.9896
X8.0459Y-4.3187
X8.0482Y-2.5516
X8.0486Y-0.0761
X8.0488Y-1.9146
X8.0502Y-4.2521
X8.0692Y-1.9588
X8.0696Y-4.4332
X8.0697Y-1.1043
X8.0698Y-3.3996
X8.0703Y-1.8838
X8.0706Y-1.8028
X8.0708Y-0.6095
X8.0726Y-0.881
X8.0739Y-1.03
X8.0746Y-2.4182
X8.0752Y-1.6015
X8.0759Y-2.17
X8.0761Y-3.7139
X8.0762Y-2.3455
X8.0773Y-2.9847
X8.0773Y-3.3348
X8.0779Y-3.1554
X8.0779Y-3.0437
X8.0783Y-2.0263
X8.0784Y-4.2908
X8.0784Y-0.9569
X8.0789Y-2.2371
X8.0791Y-1.1706
X8.0809Y-1.6761
X8.0811Y-0.5373
X8.0814Y-2.5237
X8.0816Y-3.2632
X8.0838Y-4.2099
X8.0845Y-4.3567
X8.0849Y-1.5205
X8.085Y-2.0876
X8.0852Y-0.6691
X8.1034Y-1.6403
X8.1042Y-2.194
X8.1066Y-0.8468
X8.1073Y-0.9208
X8.1078Y-0.0644
X8.1081Y-2.3734
X8.1083Y-1.9862
X8.1089Y-1.9201
X8.1091Y-1.1309
X8.1093Y-2.2715
X8.1101Y-3.7619
X8.1101Y-2.1298
X8.111Y-2.5592
X8.1114Y-2.7669
X8.1134Y-1.0024
X8.1139Y-1.848
X8.1149Y-4.3933
X8.1152Y-0.5727
X8.1154Y-4.2529
X8.1155Y-0.6323
X8.1159Y-1.7739
X8.1174Y-3.3721
X8.1184Y-3.0888
X8.1185Y-4.4631
X8.1185Y-1.2063
X8.1187Y-4.3186
X8.1187Y-1.066
X8.1193Y-1.5574
X8.1195Y-3.2992
X8.1199Y-2.0624
X8.1203Y-3.8254
X8.1209Y-3.006
X8.1393Y-2.156
X8.1394Y-0.5994
X8.1401Y-3.7884
X8.1407Y-4.2895
X8.1408Y-1.5898
X8.1415Y-4.4933
X8.1416Y-4.4238
X8.1418Y-2.9854
X8.1426Y-1.5257
X8.1436Y-3.3346
X8.1441Y-1.8041
X8.1441Y-2.0223
X8.1443Y-0.5357
X8.1444Y-2.6584
X8.1446Y-2.5221
X8.1458Y-3.725
X8.1467Y-4.3643
X8.1468Y-2.243
X8.1481Y-1.6671
X8.15Y-3.2593
X8.1503Y-3.1214
X8.1506Y-2.5825
X8.1512Y-0.9653
X8.1512Y-1.0214
X8.1517Y-2.4157
X8.1519Y-3.0445
X8.1523Y-2.3117
X8.1539Y-1.885
X8.1544Y-0.8221
X8.1544Y-0.8833
X8.1549Y-3.4036
X8.155Y-2.7364
X8.1552Y-1.9519
X8.1559Y-2.0917
X8.1564Y-4.22
X8.175Y-1.7739
X8.1757Y-1.9895
X8.1761Y-1.0662
X8.1763Y-1.5685
X8.1769Y-3.3667
X8.1774Y-2.5522
X8.1778Y-1.6245
X8.1781Y-1.8452
X8.1782Y-2.2723
X8.1789Y-4.3268
X8.1791Y-0.9278
X8.1807Y-0.0747
X8.1824Y-3.7629
X8.1832Y-2.7743
X8.1834Y-4.4007
X8.1839Y-4.2474
X8.1844Y-3.0808
X8.1844Y-3.0163
X8.1848Y-2.2017
X8.1853Y-1.913
X8.1853Y-2.6234
X8.186Y-0.7843
X8.1864Y-2.7018
X8.1865Y-0.5664
X8.1873Y-3.2983
X8.1878Y-2.1366
X8.1886Y-2.0544
X8.1889Y-3.1603
X8.1894Y-0.8508
X8.1895Y-1.0003
X8.1899Y-4.4602
X8.2105Y-0.8086
X8.2108Y-1.6701
X8.2119Y-2.7325
X8.2123Y-1.0238
X8.2125Y-4.4992
X8.2126Y-2.5958
X8.2127Y-2.5117
X8.2128Y-0.9608
X8.2147Y-2.6645
X8.2149Y-4.1802
X8.215Y-1.8824
X8.2153Y-3.0445
X8.2156Y-4.2887
X8.2171Y-1.948
X8.2172Y-3.255
X8.2178Y-3.3331
X8.2188Y-2.9516
X8.2191Y-0.8887
X8.2196Y-4.4383
X8.22Y-2.8035
X8.2223Y-0.4955
X8.2239Y-4.753
X8.2242Y-4.3571
X8.2244Y-3.4054
X8.2249Y-1.8083
X8.2264Y-3.1129
X8.2457Y-0.8512
X8.246Y-0.0815
X8.2462Y-3.0786
X8.2475Y-1.0638
X8.2483Y-2.984
X8.2488Y-3.3712
X8.2498Y-4.2253
X8.2499Y-1.7824
X8.2503Y-1.9233
X8.2513Y-4.6157
X8.2516Y-2.5482
X8.2521Y-4.1501
X8.2525Y-2.7027
X8.2539Y-3.4364
X8.2553Y-2.9093
X8.2556Y-1.8422
X8.2556Y-3.1639
X8.256Y-0.7856
X8.256Y-0.9314
X8.2575Y-3.7573
X8.2586Y-4.394
X8.2588Y-1.0005
X8.2589Y-4.3319
X8.2591Y-4.4618
X8.2595Y-2.8307
X8.2596Y-2.6239
X8.26Y-3.2943
X8.2613Y-4.5422
X8.2614Y-2.765
X8.2622Y-4.6829
X8.2806Y-1.8822
X8.2808Y-2.7379
X8.2831Y-3.2685
X8.2843Y-1.0319
X8.2844Y-2.3792
X8.286Y-4.1845
X8.2864Y-3.7846
X8.2867Y-4.6406
X8.287Y-3.0134
X8.2885Y-1.4908
X8.2886Y-2.5114
X8.2894Y-0.8884
X8.2895Y-1.8113
X8.2895Y-3.9659
X8.2898Y-2.3086
X8.2903Y-4.51
X8.2906Y-2.6618
X8.291Y-1.2829
X8.2916Y-0.8251
X8.292Y-3.3276
X8.292Y-2.5881
X8.2929Y-2.9374
X8.293Y-2.2401
X8.2939Y-4.5718
X8.2941Y-4.7112
X8.2944Y-3.4815
X8.2944Y-2.8741
X8.2964Y-4.2615
X8.2965Y-4.3642
X8.2966Y-3.1212
X8.2971Y-4.4322
X8.2972Y-2.7997
X8.2975Y-3.4058
X8.2981Y-4.12
X8.2982Y-0.9534
X8.3161Y-1.2439
X8.3167Y-2.9012
X8.3168Y-2.2664
X8.3175Y-1.8485
X8.3178Y-2.6206
X8.3184Y-1.1644
X8.3198Y-4.2128
X8.3205Y-0.8604
X8.3208Y-0.9307
X8.3209Y-4.7495
X8.3216Y-2.9821
X8.322Y-3.2935
X8.3223Y-4.284
X8.3224Y-4.0711
X8.3224Y-4.1397
X8.3234Y-0.0649
X8.3239Y-4.4707
X8.3252Y-0.9905
X8.3253Y-0.1862
X8.3253Y-2.5493
X8.3269Y-2.6933
X8.3271Y-3.8237
X8.3271Y-4.6104
X8.3286Y-2.8383
X8.3287Y-4.4039
X8.3288Y-0.6046
X8.3289Y-0.6839
X8.329Y-0.2503
X8.3291Y-1.5236
X8.3292Y-4.6816
X8.3295Y-0.7872
X8.3296Y-4.5432
X8.3301Y-2.3466
X8.3302Y-1.9171
X8.3307Y-2.4174
X8.331Y-1.7723
X8.3319Y-3.1622
X8.332Y-0.47
X8.3324Y-2.77
X8.3333Y-3.0529
X8.3335Y-0.5339
X8.3514Y-0.8844
X8.3514Y-1.1303
X8.3523Y-1.4946
X8.3523Y-2.8748
X8.3524Y-4.2498
X8.3525Y-3.0108
X8.353Y-1.5524
X8.3537Y-4.7091
X8.3549Y-2.5214
X8.3551Y-4.568
X8.3558Y-4.498
X8.356Y-4.438
X8.356Y-2.3727
X8.3567Y-0.8096
X8.3568Y-0.9529
X8.3569Y-2.2412
X8.3571Y-2.667
X8.3579Y-2.3063
X8.3582Y-0.5688
X8.359Y-1.2044
X8.3599Y-2.9473
X8.3606Y-0.1135
X8.3608Y-0.2119
X8.3624Y-1.2805
X8.3625Y-3.7909
X8.3627Y-0.5031
X8.3628Y-0.6376
X8.363Y-1.817
X8.3633Y-3.9706
X8.3644Y-4.1816
X8.3646Y-4.3303
X8.3663Y-2.7285
X8.367Y-4.1096
X8.3672Y-1.8741
X8.3672Y-4.635
X8.3673Y-2.8026
X8.3689Y-2.5965
X8.3869Y-0.674
X8.387Y-4.1558
X8.3873Y-4.2113
X8.3877Y-0.6069
X8.3877Y-3.7616
X8.3904Y-4.6811
X8.3906Y-2.4147
X8.391Y-1.1674
X8.3917Y-0.2468
X8.3923Y-4.5406
X8.3923Y-1.6001
X8.3924Y-0.5288
X8.395Y-0.0664
X8.3951Y-3.2942
X8.3957Y-4.7564
X8.3963Y-4.0818
X8.3964Y-1.242
X8.397Y-0.1407
X8.3972Y-2.3349
X8.3974Y-0.7765
X8.3983Y-1.4516
X8.3987Y-4.3522
X8.3987Y-3.8344
X8.3991Y-0.8601
X8.3993Y-4.613
X8.3996Y-2.547
X8.3996Y-4.4635
X8.4005Y-1.5277
X8.4006Y-2.6915
X8.4008Y-1.1054
X8.4009Y-4.2824
X8.4016Y-2.7686
X8.4019Y-0.457
X8.402Y-1.9221
X8.4028Y-2.2722
X8.4032Y-2.6232
X8.4036Y-0.9218
X8.4043Y-1.8399
X8.4233Y-3.7139
X8.4235Y-0.6432
X8.4249Y-3.962
X8.4253Y-4.57
X8.4266Y-2.5182
X8.4275Y-1.8798
X8.4278Y-0.1041
X8.4285Y-0.5709
X8.4285Y-4.6376
X8.4285Y-4.3948
X8.4294Y-4.1059
X8.43Y-2.3805
X8.4301Y-0.1811
X8.4305Y-1.4884
X8.4305Y-1.4125
X8.4308Y-4.3281
X8.4308Y-1.1396
X8.4317Y-1.2781
X8.4334Y-0.3549
X8.4335Y-2.5895
X8.4335Y-2.6564
X8.4336Y-4.1788
X8.4336Y-0.8131
X8.4336Y-4.7093
X8.4338Y-0.5032
X8.4338Y-0.4297
X8.4338Y-1.6251
X8.4345Y-4.5066
X8.4346Y-1.2079
X8.4347Y-1.0688
X8.4369Y-0.8815
X8.437Y-3.797
X8.4385Y-4.2571
X8.4385Y-2.313
X8.4386Y-2.7271
X8.4391Y-1.3513
X8.4394Y-0.2824
X8.4399Y-1.5669
X8.4579Y-4.211
X8.4583Y-2.9769
X8.4585Y-1.0273
X8.4586Y-0.8512
X8.4587Y-4.2943
X8.4591Y-0.3912
X8.4594Y-1.1785
X8.46Y-0.6777
X8.4601Y-0.1508
X8.4608Y-2.2719
X8.4613Y-0.2208
X8.4632Y-4.0786
X8.4647Y-4.424
X8.4652Y-2.627
X8.4653Y-4.7431
X8.4656Y-1.6683
X8.4661Y-1.2401
X8.4661Y-4.601
X8.4661Y-1.5286
X8.4666Y-2.5463
X8.467Y-1.5897
X8.4673Y-3.8308
X8.468Y-0.0659
X8.4681Y-4.539
X8.4681Y-4.3609
X8.4685Y-1.306
X8.4689Y-3.1476
X8.4691Y-1.3784
X8.4696Y-0.6045
X8.4702Y-2.3422
X8.4706Y-2.4031
X8.4711Y-0.4548
X8.4717Y-0.5314
X8.4717Y-1.1067
X8.4725Y-4.673
X8.4727Y-4.1474
X8.4731Y-1.9785
X8.4731Y-1.9172
X8.474Y-3.3006
X8.474Y-0.7798
X8.4748Y-0.3148
X8.4748Y-3.7492
X8.4754Y-1.4478
X8.4941Y-4.1894
X8.4944Y-0.4202
X8.4945Y-4.6442
X8.4954Y-2.297
X8.4955Y-4.1095
X8.4972Y-3.0221
X8.4975Y-0.4903
X8.4975Y-0.8188
X8.4981Y-1.3571
X8.4983Y-0.1155
X8.4986Y-4.5645
X8.4989Y-2.5928
X8.4993Y-0.9945
X8.4996Y-3.9793
X8.4998Y-1.0663
X8.5Y-1.6314
X8.5001Y-1.4189
X8.5007Y-1.1373
X8.5013Y-2.5184
X8.5021Y-0.1875
X8.5022Y-1.2795
X8.5031Y-0.6338
X8.5034Y-1.2021
X8.5036Y-4.3175
X8.5036Y-0.5733
X8.5041Y-3.8021
X8.5045Y-1.5676
X8.5049Y-0.3488
X8.5067Y-2.3694
X8.507Y-1.4891
X8.5076Y-3.7259
X8.5084Y-0.2567
X8.5084Y-2.6611
X8.5085Y-3.0835
X8.51Y-4.4682
X8.5101Y-4.7124
X8.5102Y-4.3889
X8.5105Y-4.2496
X8.5286Y-0.5396
X8.5287Y-2.4074
X8.5287Y-4.3675
X8.5298Y-1.389
X8.5303Y-0.3832
X8.5309Y-3.1175
X8.5309Y-3.0413
X8.5311Y-0.5998
X8.5312Y-4.6825
X8.5313Y-0.4673
X8.5318Y-3.4696
X8.5335Y-4.2911
X8.5336Y-4.0758
X8.5341Y-1.4589
X8.5345Y-0.9544
X8.5349Y-2.9812
X8.5352Y-4.7416
X8.5353Y-2.2696
X8.5353Y-1.2458
X8.5355Y-4.5055
X8.5371Y-1.026
X8.5375Y-2.3342
X8.5376Y-0.1507
X8.5381Y-1.3194
X8.5382Y-4.2256
X8.5384Y-0.684
X8.5385Y-2.6233
X8.5386Y-3.3993
X8.5389Y-0.0747
X8.539Y-1.5315
X8.5395Y-0.2935
X8.5405Y-1.6651
X8.5422Y-4.6027
X8.5433Y-1.5969
X8.5439Y-0.7788
X8.5442Y-1.0918
X8.5443Y-2.5615
X8.5444Y-1.1775
X8.5445Y-3.755
X8.545Y-4.1393
X8.5453Y-0.2213
X8.5461Y-4.4356
X8.564Y-3.0102
X8.5649Y-0.4271
X8.5653Y-0.1033
X8.5663Y-0.9268
X8.5666Y-4.1204
X8.5666Y-4.2526
X8.5673Y-0.5647
X8.5675Y-3.3615
X8.568Y-0.9896
X8.5682Y-1.2731
X8.5698Y-1.2097
X8.5698Y-3.7228
X8.5699Y-2.5837
X8.5703Y-3.1638
X8.5706Y-4.542
X8.5708Y-2.6635
X8.5712Y-0.1848
X8.5717Y-4.6449
X8.5734Y-1.061
X8.5738Y-3.0783
X8.5746Y-0.2482
X8.5748Y-4.473
X8.5748Y-1.143
X8.5754Y-4.3942
X8.5759Y-4.7137
X8.5763Y-0.6381
X8.5774Y-4.1781
X8.5779Y-1.7822
X8.5791Y-0.3209
X8.5799Y-3.4416
X8.5806Y-0.4933
X8.5814Y-4.328
X8.5814Y-3.5024
X8.5995Y-0.5421
X8.5995Y-4.1563
X8.6006Y-3.4033
X8.6015Y-4.3651
X8.6021Y-3.12
X8.6026Y-4.434
X8.6028Y-1.105
X8.6045Y-0.4569
X8.6046Y-0.0716
X8.6048Y-4.2169
X8.6058Y-3.3331
X8.6072Y-3.4792
X8.6076Y-3.0479
X8.6076Y-3.7498
X8.6078Y-0.2167
X8.608Y-3.5423
X8.6086Y-0.6119
X8.6092Y-4.2841
X8.6102Y-1.2367
X8.6105Y-4.566
X8.6106Y-2.6304
X8.6125Y-0.9521
X8.614Y-1.0341
X8.6143Y-4.0702
X8.6144Y-0.1393
X8.6147Y-4.5005
X8.6152Y-0.2771
X8.6156Y-4.6791
X8.6161Y-1.8176
X8.6162Y-0.8888
X8.617Y-1.1674
X8.6171Y-0.6709
X8.635Y-2.7224
X8.6351Y-3.0075
X8.6353Y-1.0014
X8.6361Y-3.3057
X8.6363Y-4.605
X8.6364Y-0.5773
X8.6365Y-4.1783
X8.6371Y-0.1082
X8.6375Y-4.5324
X8.6376Y-3.5141
X8.6392Y-2.3123
X8.6399Y-1.0608
X8.64Y-4.4618
X8.64Y-1.496
X8.6411Y-3.572
X8.6414Y-0.845
X8.6416Y-4.399
X8.6419Y-3.374
X8.6432Y-4.2585
X8.6442Y-2.3818
X8.6444Y-2.2328
X8.6451Y-4.3265
X8.6474Y-3.4391
X8.6481Y-0.923
X8.6482Y-4.1144
X8.6486Y-0.1874
X8.6491Y-2.6584
X8.6496Y-0.4902
X8.6501Y-3.091
X8.6509Y-1.7734
X8.6511Y-0.6332
X8.6514Y-1.1337
X8.6704Y-1.1693
X8.6707Y-0.8186
X8.6709Y-4.5684
X8.6714Y-2.4081
X8.6716Y-0.8886
X8.6717Y-1.6022
X8.6719Y-1.6675
X8.672Y-4.6443
X8.6724Y-4.5026
X8.6735Y-4.1481
X8.6735Y-2.2694
X8.6737Y-2.6921
X8.674Y-0.5422
X8.6742Y-3.3954
X8.6745Y-1.804
X8.6757Y-3.7884
X8.6769Y-1.0312
X8.677Y-2.3423
X8.6779Y-4.2859
X8.6781Y-4.4338
X8.6782Y-3.9687
X8.6785Y-2.0276
X8.6791Y-1.0959
X8.6803Y-0.1424
X8.6809Y-1.528
X8.6814Y-4.3548
X8.6814Y-0.0774
X8.6816Y-3.5468
X8.6818Y-3.0455
X8.6823Y-3.4796
X8.6829Y-0.6054
X8.6833Y-3.6229
X8.6846Y-0.4628
X8.6858Y-0.9534
X8.686Y-4.223
X8.6861Y-3.3252
X8.6869Y-4.0707
X8.7059Y-3.2561
X8.706Y-2.3007
X8.7071Y-1.5584
X8.708Y-2.378
X8.7086Y-4.1078
X8.7087Y-3.0221
X8.7088Y-0.1017
X8.7091Y-1.7781
X8.7092Y-0.9877
X8.7093Y-1.6342
X8.7097Y-0.7765
X8.7099Y-1.9849
X8.7108Y-3.5843
X8.7112Y-0.8579
X8.7126Y-1.0639
X8.7129Y-4.1821
X8.7138Y-1.9241
X8.7148Y-3.6473
X8.7151Y-4.2471
X8.7155Y-2.2291
X8.7166Y-3.3768
X8.7166Y-1.1281
X8.7166Y-1.8425
X8.7193Y-4.3185
X8.7194Y-4.7916
X8.721Y-3.4406
X8.7211Y-3.5143
X8.7214Y-0.9184
X8.7214Y-1.491
X8.7413Y-1.1791
X8.7417Y-3.4793
X8.7421Y-1.459
X8.7422Y-1.6716
X8.7423Y-3.623
X8.7424Y-1.8791
X8.7427Y-4.2974
X8.743Y-1.8157
X8.744Y-4.2258
X8.7454Y-0.0815
X8.7457Y-1.0221
X8.747Y-0.8853
X8.7473Y-0.8221
X8.7477Y-1.5285
X8.748Y-0.9531
X8.7483Y-2.4099
X8.7484Y-2.0206
X8.7486Y-1.6038
X8.7493Y-2.5203
X8.7512Y-1.0976
X8.7533Y-3.292
X8.7535Y-4.1409
X8.7537Y-3.5525
X8.7541Y-2.2676
X8.7543Y-3.4035
X8.7547Y-4.0789
X8.7574Y-0.1404
X8.7575Y-2.337
X8.7581Y-1.9435
X8.7779Y-3.2532
X8.7786Y-2.3795
X8.7794Y-1.7806
X8.7797Y-0.8458
X8.7798Y-3.3342
X8.7802Y-3.4448
X8.7803Y-0.5057
X8.7809Y-0.7887
X8.7827Y-1.9087
X8.7831Y-1.9894
X8.7841Y-2.0516
X8.7847Y-2.1244
X8.7851Y-4.2601
X8.7854Y-4.6481
X8.7855Y-4.109
X8.7855Y-2.5479
X8.7862Y-0.9317
X8.7869Y-4.7916
X8.7871Y-1.8528
X8.7873Y-1.6284
X8.7873Y-4.4715
X8.7882Y-0.9871
X8.7887Y-0.1006
X8.7894Y-1.0565
X8.7898Y-2.2044
X8.7901Y-4.1911
X8.7905Y-1.5551
X8.7914Y-1.1437
X8.7923Y-3.5024
X8.7923Y-2.2982
X8.8125Y-1.5334
X8.8132Y-4.5088
X8.8132Y-0.9505
X8.8132Y-2.4199
X8.8144Y-2.0987
X8.8152Y-2.3404
X8.8161Y-1.1733
X8.8165Y-0.5348
X8.8173Y-3.369
X8.8176Y-2.1594
X8.8178Y-2.5223
X8.8184Y-1.6707
X8.8186Y-4.5643
X8.8187Y-0.882
X8.8205Y-1.8065
X8.8209Y-0.8202
X8.821Y-4.0681
X8.8215Y-2.2344
X8.8221Y-3.294
X8.8223Y-1.6029
X8.8225Y-4.1432
X8.8235Y-1.8845
X8.8238Y-1.0928
X8.8248Y-1.958
X8.8256Y-3.1196
X8.8266Y-1.038
X8.8278Y-2.0279
X8.8283Y-0.0641
X8.8475Y-1.1989
X8.8487Y-2.7642
X8.8496Y-3.2556
X8.8498Y-3.335
X8.8504Y-0.9201
X8.8507Y-1.5538
X8.8526Y-2.3787
X8.8534Y-1.0562
X8.8539Y-2.5514
X8.8541Y-2.0564
X8.8542Y-0.997
X8.8546Y-0.8536
X8.8547Y-3.0484
X8.8549Y-4.7818
X8.8551Y-3.156
X8.8559Y-2.1954
X8.8572Y-1.9895
X8.8574Y-2.1253
X8.8577Y-2.978
X8.8578Y-4.5402
X8.858Y-3.7154
X8.8582Y-2.2646
X8.8594Y-0.7805
X8.8599Y-1.8507
X8.8601Y-1.6319
X8.8607Y-1.9161
X8.8628Y-4.6025
X8.8634Y-4.4682
X8.8634Y-1.7728
X8.8634Y-1.1432
X8.864Y-4.1044
X8.865Y-3.3981
X8.8831Y-0.8168
X8.8833Y-2.667
X8.8834Y-2.4165
X8.8842Y-2.0924
X8.8843Y-2.5883
X8.8847Y-3.3059
X8.8855Y-4.1548
X8.8864Y-3.0163
X8.8873Y-2.7385
X8.8875Y-2.5266
X8.8907Y-1.958
X8.8915Y-4.0754
X8.8921Y-1.8826
X8.8923Y-1.668
X8.8925Y-2.0138
X8.8934Y-3.8373
X8.8936Y-4.5749
X8.894Y-1.5248
X8.894Y-1.0348
X8.8958Y-2.157
X8.8959Y-2.2998
X8.896Y-0.9565
X8.8963Y-3.3655
X8.8968Y-1.8081
X8.8972Y-3.0835
X8.8973Y-2.2277
X8.8977Y-4.4956
X8.8982Y-0.8844
X8.8987Y-3.7507
X8.8988Y-1.5903
X8.9002Y-0.648
X8.9189Y-1.992
X8.9196Y-0.9154
X8.9216Y-3.0508
X8.9217Y-2.7665
X8.9225Y-1.8525
X8.9235Y-4.4594
X8.9235Y-0.9952
X8.9239Y-2.1285
X8.9247Y-2.5554
X8.925Y-4.5355
X8.9263Y-1.6279
X8.9263Y-0.6736
X8.9267Y-1.0622
X8.9272Y-3.7937
X8.9277Y-2.7003
X8.9277Y-2.9751
X8.9279Y-2.057
X8.9282Y-3.1277
X8.929Y-3.4121
X8.929Y-1.766
X8.9304Y-3.7269
X8.9306Y-3.3254
X8.9306Y-2.1915
X8.9319Y-1.9135
X8.9325Y-1.5622
X8.9326Y-2.6209
X8.9326Y-3.2601
X8.9333Y-0.8567
X8.9351Y-0.7813
X8.9352Y-0.5989
X8.9357Y-2.2728
X8.9358Y-4.1119
X8.9539Y-2.5102
X8.9547Y-0.8213
X8.9559Y-0.643
X8.957Y-3.3656
X8.9574Y-3.8252
X8.9583Y-3.0831
X8.9584Y-0.8838
X8.9594Y-2.7314
X8.9603Y-1.6631
X8.9625Y-1.8718
X8.9629Y-3.0089
X8.9632Y-2.015
X8.9641Y-2.6572
X8.965Y-1.954
X8.9651Y-4.5643
X8.9651Y-3.295
X8.9657Y-1.0217
X8.9661Y-2.8048
X8.9665Y-0.9595
X8.9666Y-4.5033
X8.9676Y-0.5642
X8.9683Y-3.1514
X8.9685Y-2.588
X8.9691Y-1.8079
X8.9704Y-3.7628
X8.9713Y-4.1508
X8.9905Y-2.7014
X8.9907Y-2.9083
X8.9908Y-3.3305
X8.9908Y-1.8477
X8.9915Y-0.8502
X8.9928Y-3.4118
X8.9935Y-2.8423
X8.994Y-0.7741
X8.9943Y-2.6231
X8.9946Y-1.0009
X8.9947Y-4.5438
X8.9951Y-3.2626
X8.9955Y-4.1187
X8.9955Y-1.0565
X8.9961Y-1.7695
X8.9964Y-4.1844
X8.9982Y-3.1192
X8.9997Y-0.6745
X8.9998Y-0.5985
X9.002Y-0.5348
X9.0022Y-2.5607
X9.0023Y-2.9865
X9.0041Y-2.7673
X9.0043Y-1.9843
X9.005Y-3.0483
X9.0059Y-1.9121
X9.0061Y-0.9293
X9.0252Y-2.5948
X9.0262Y-2.7367
X9.0266Y-2.3827
X9.0269Y-2.8008
X9.0284Y-4.6368
X9.0286Y-2.2383
X9.0288Y-0.6317
X9.0289Y-3.1612
X9.0295Y-0.5064
X9.0297Y-1.8096
X9.0306Y-1.4863
X9.0312Y-0.5672
X9.0313Y-3.3635
X9.032Y-2.8778
X9.0324Y-2.5104
X9.0331Y-2.9494
X9.0336Y-0.9603
X9.0344Y-4.5772
X9.0349Y-0.8249
X9.037Y-2.3117
X9.0372Y-1.2842
X9.0377Y-4.139
X9.0385Y-0.8867
X9.0389Y-1.0352
X9.0405Y-2.6517
X9.0411Y-3.0933
X9.0412Y-3.4456
X9.0412Y-3.0094
X9.0413Y-1.8774
X9.0416Y-4.2117
X9.0417Y-3.2894
X9.0417Y-4.7908
X9.0634Y-0.999
X9.0639Y-2.4111
X9.0655Y-3.0515
X9.0663Y-1.5333
X9.0664Y-1.8369
X9.0671Y-3.1281
X9.0672Y-2.3451
X9.0674Y-0.6667
X9.0686Y-4.6047
X9.0701Y-1.7771
X9.0705Y-0.9229
X9.0709Y-1.2369
X9.0709Y-0.5284
X9.071Y-2.8412
X9.072Y-3.3376
X9.0723Y-2.6949
X9.0723Y-3.2649
X9.0723Y-2.9703
X9.0727Y-0.8606
X9.073Y-2.2682
X9.073Y-0.7816
X9.0731Y-2.7571
X9.0749Y-2.9041
X9.075Y-0.5961
X9.0761Y-2.5581
X9.0763Y-2.6222
X9.0765Y-1.9168
X9.0774Y-3.7642
X9.0777Y-4.534
X9.0962Y-1.2741
X9.0963Y-3.019
X9.097Y-1.8815
X9.0985Y-2.8791
X9.0985Y-1.1412
X9.0993Y-2.8089
X9.0994Y-3.7994
X9.0994Y-2.6631
X9.0996Y-1.1985
X9.1009Y-0.8802
X9.1023Y-0.1445
X9.1023Y-0.9512
X9.1029Y-3.2984
X9.103Y-2.3016
X9.1031Y-0.5624
X9.1032Y-2.5218
X9.1036Y-3.966
X9.1038Y-3.0859
X9.1049Y-4.5771
X9.1051Y-2.2378
X9.1051Y-4.645
X9.1055Y-2.5945
X9.1055Y-2.3819
X9.1057Y-3.156
X9.1064Y-1.8042
X9.1084Y-2.944
X9.1094Y-0.8197
X9.1096Y-0.6482
X9.1102Y-0.2176
X9.1102Y-2.7318
X9.1106Y-1.5591
X9.1128Y-1.4914
X9.1317Y-1.84
X9.1327Y-1.9123
X9.1329Y-2.341
X9.1333Y-0.6044
X9.1343Y-2.2767
X9.1351Y-0.6701
X9.1353Y-0.8579
X9.1363Y-2.7643
X9.1383Y-2.4132
X9.1389Y-1.5309
X9.1401Y-1.1731
X9.1418Y-1.5908
X9.1431Y-0.7812
X9.1434Y-2.6166
X9.1439Y-0.5336
X9.144Y-2.7013
X9.1463Y-1.1035
X9.1465Y-1.2508
X9.1478Y-2.5521
X9.148Y-0.926
X9.1675Y-1.4921
X9.1691Y-2.7237
X9.1694Y-1.566
X9.1694Y-1.0585
X9.1701Y-1.637
X9.1705Y-2.5171
X9.1711Y-1.8729
X9.1715Y-0.6335
X9.1737Y-3.9715
X9.1745Y-1.2695
X9.1747Y-1.4146
X9.1753Y-2.6518
X9.1756Y-2.3794
X9.1763Y-1.3398
X9.1767Y-0.5632
X9.1776Y-2.3021
X9.1787Y-0.884
X9.1788Y-0.8148
X9.1794Y-2.5935
X9.1811Y-1.2074
X9.1824Y-1.1343
X9.1827Y-3.3003
X9.2018Y-2.2709
X9.203Y-0.8596
X9.2032Y-4.4697
X9.2037Y-2.6251
X9.2042Y-1.1016
X9.2058Y-1.9076
X9.2063Y-2.5515
X9.2071Y-0.0719
X9.2077Y-1.3199
X9.2077Y-0.6839
X9.2087Y-0.6118
X9.2089Y-0.4985
X9.2117Y-1.0345
X9.2117Y-3.1584
X9.2124Y-1.2489
X9.2128Y-2.4108
X9.2137Y-1.9917
X9.2147Y-1.5996
X9.215Y-1.4499
X9.2152Y-0.7749
X9.2158Y-1.6656
X9.2162Y-4.6096
X9.2167Y-4.5332
X9.2168Y-2.9717
X9.2183Y-2.3477
X9.2186Y-3.7227
X9.219Y-1.3879
X9.2191Y-1.1797
X9.2194Y-1.5186
X9.2376Y-1.2035
X9.2381Y-3.0191
X9.2386Y-4.5656
X9.2392Y-1.0724
X9.2396Y-2.5941
X9.2398Y-0.2907
X9.2401Y-0.4572
X9.2408Y-1.4827
X9.2417Y-4.2456
X9.243Y-0.5334
X9.2431Y-1.1336
X9.2434Y-2.5195
X9.2438Y-3.0896
X9.2438Y-4.6461
X9.2442Y-3.5079
X9.2455Y-3.7617
X9.2462Y-1.5666
X9.2465Y-4.7923
X9.2474Y-2.3712
X9.2482Y-0.9874
X9.2485Y-2.6675
X9.2491Y-0.8251
X9.2494Y-1.3486
X9.2498Y-4.501
X9.2502Y-1.9427
X9.2514Y-1.4241
X9.252Y-1.6375
X9.2527Y-1.2723
X9.2529Y-0.6451
X9.2534Y-4.068
X9.2547Y-2.3002
X9.2727Y-4.5369
X9.2727Y-0.967
X9.2735Y-2.3486
X9.2739Y-2.5532
X9.274Y-4.4607
X9.2763Y-0.0654
X9.2767Y-1.1013
X9.2767Y-4.1795
X9.2768Y-3.4714
X9.2769Y-1.2413
X9.277Y-1.6713
X9.2777Y-1.0375
X9.2779Y-1.446
X9.2782Y-2.2692
X9.2785Y-3.0532
X9.2792Y-1.305
X9.2797Y-0.5739
X9.2803Y-0.6822
X9.2809Y-2.6204
X9.2812Y-2.9771
X9.2818Y-4.1091
X9.2828Y-3.7894
X9.2837Y-3.7172
X9.2843Y-3.4119
X9.285Y-0.4911
X9.2853Y-1.5938
X9.286Y-4.6055
X9.2862Y-2.4124
X9.2869Y-3.1136
X9.2874Y-0.7774
X9.2876Y-1.1665
X9.2878Y-1.531
X9.2881Y-1.377
X9.3087Y-0.4671
X9.3098Y-3.5121
X9.31Y-0.5971
X9.3107Y-4.6416
X9.3121Y-1.277
X9.3126Y-4.2179
X9.3128Y-3.018
X9.3136Y-1.1376
X9.3137Y-0.994
X9.3151Y-1.0663
X9.3151Y-4.7838
X9.3152Y-3.7619
X9.3162Y-4.1406
X9.3179Y-2.6552
X9.3183Y-4.0735
X9.3186Y-3.4434
X9.3189Y-0.5289
X9.3193Y-2.5841
X9.3199Y-0.1128
X9.3199Y-0.9272
X9.3203Y-1.2126
X9.3203Y-4.5004
X9.3207Y-3.8374
X9.3208Y-1.7669
X9.3218Y-4.5686
X9.3225Y-3.0863
X9.3244Y-3.1512
X9.3245Y-0.257
X9.3251Y-3.3707
X9.3438Y-1.027
X9.3443Y-0.143
X9.345Y-0.5694
X9.3453Y-3.1189
X9.3456Y-3.6931
X9.3467Y-3.4108
X9.3471Y-1.2432
X9.3473Y-2.6258
X9.3496Y-0.9658
X9.3497Y-3.3386
X9.3499Y-3.6167
X9.3501Y-0.0761
X9.3506Y-3.0428
X9.3506Y-4.1883
X9.3519Y-1.0947
X9.3538Y-0.2119
X9.3539Y-4.1063
X9.3541Y-0.8905
X9.3552Y-4.2622
X9.356Y-4.3265
X9.3561Y-0.5007
X9.3561Y-1.8015
X9.3565Y-1.1766
X9.3565Y-0.6457
X9.3569Y-4.535
X9.3575Y-3.5456
X9.3577Y-3.4705
X9.3594Y-4.4321
X9.3797Y-2.7245
X9.38Y-3.5792
X9.3802Y-2.3774
X9.3804Y-2.3133
X9.3805Y-3.3768
X9.3809Y-0.1729
X9.381Y-0.8589
X9.3811Y-3.6446
X9.3817Y-1.7691
X9.3819Y-4.1495
X9.3835Y-4.2146
X9.3839Y-3.4337
X9.3846Y-2.2335
X9.3846Y-0.998
X9.3851Y-0.5352
X9.3858Y-4.2806
X9.3859Y-3.5037
X9.3864Y-1.1366
X9.3872Y-1.4889
X9.3885Y-3.0856
X9.3887Y-3.3013
X9.3891Y-2.6632
X9.3892Y-4.4601
X9.3905Y-0.5971
X9.3918Y-3.716
X9.3925Y-0.1082
X9.3928Y-4.5722
X9.394Y-1.0568
X9.3944Y-3.0064
X9.3952Y-0.9258
X9.3954Y-4.3681
X9.4145Y-2.2641
X9.4145Y-4.3211
X9.4145Y-0.8131
X9.4148Y-1.0354
X9.4148Y-0.5615
X9.4151Y-0.9664
X9.416Y-3.7562
X9.4162Y-4.2454
X9.4167Y-1.5326
X9.4171Y-3.4678
X9.4172Y-1.674
X9.4176Y-0.6409
X9.4178Y-3.6782
X9.4201Y-3.6074
X9.4204Y-2.3386
X9.421Y-2.0196
X9.4216Y-3.5526
X9.4224Y-4.1831
X9.4224Y-2.4196
X9.4247Y-1.8171
X9.4255Y-4.403
X9.4264Y-1.1058
X9.4266Y-0.14
X9.4271Y-4.5059
X9.4271Y-0.8916
X9.4276Y-2.7029
X9.4293Y-3.0526
X9.4294Y-1.1753
X9.4301Y-0.4617
X9.4302Y-1.5957
X9.4313Y-0.0685
X9.4315Y-3.403
X9.4321Y-3.3401
X9.4505Y-2.3737
X9.4508Y-3.3616
X9.451Y-1.4936
X9.4514Y-1.9194
X9.4515Y-0.1097
X9.452Y-0.9931
X9.4525Y-4.43
X9.4531Y-2.2309
X9.4534Y-3.7233
X9.4555Y-4.3613
X9.4556Y-3.5066
X9.4557Y-1.5527
X9.4558Y-3.0146
X9.4559Y-1.8441
X9.4566Y-3.5834
X9.458Y-3.2567
X9.4588Y-3.796
X9.4596Y-0.7888
X9.4599Y-1.7721
X9.461Y-1.0706
X9.4611Y-0.851
X9.4613Y-4.5365
X9.4614Y-1.1379
X9.4619Y-3.6586
X9.4634Y-4.2153
X9.4638Y-3.4395
X9.464Y-2.3111
X9.4651Y-0.9152
X9.4651Y-4.2874
X9.4664Y-1.6357
X9.4675Y-1.9855
X9.4869Y-1.4589
X9.4873Y-3.4782
X9.4878Y-4.4586
X9.4888Y-4.793
X9.4891Y-1.6013
X9.4897Y-2.2709
X9.4897Y-3.7653
X9.4897Y-3.2981
X9.4899Y-3.5367
X9.4902Y-1.8063
X9.4903Y-3.6133
X9.4904Y-1.946
X9.4905Y-2.0251
X9.4909Y-0.9635
X9.4919Y-0.1449
X9.492Y-1.1633
X9.4925Y-2.3401
X9.4945Y-1.6729
X9.4949Y-1.8727
X9.4952Y-0.0666
X9.4956Y-0.8815
X9.496Y-1.0293
X9.4961Y-2.4122
X9.4966Y-4.2563
X9.4969Y-4.6405
X9.4971Y-2.5225
X9.4987Y-4.3965
X9.4988Y-3.6814
X9.4996Y-0.8094
X9.5005Y-4.3272
X9.5012Y-1.5206
X9.5014Y-4.5734
X9.5019Y-1.1009
X9.5023Y-3.397
X9.5218Y-0.787
X9.5236Y-2.0632
X9.5247Y-4.4278
X9.5256Y-4.5095
X9.5258Y-1.5684
X9.526Y-4.6001
X9.5267Y-0.1008
X9.5269Y-1.0009
X9.5269Y-1.9858
X9.5275Y-4.2821
X9.5284Y-1.1426
X9.5285Y-2.3105
X9.5291Y-0.4973
X9.5297Y-1.4848
X9.53Y-2.549
X9.5309Y-3.3348
X9.531Y-1.7771
X9.5315Y-0.9193
X9.5315Y-0.8529
X9.5316Y-1.6275
X9.5326Y-3.5113
X9.5342Y-1.0698
X9.535Y-2.3837
X9.5352Y-4.3553
X9.5353Y-1.9214
X9.5369Y-1.8395
X9.5369Y-3.269
X9.5373Y-2.1918
X9.5374Y-3.442
X9.5561Y-0.809
X9.5566Y-4.465
X9.5567Y-3.3653
X9.5575Y-1.5276
X9.5579Y-1.0918
X9.5589Y-2.1665
X9.5597Y-4.3963
X9.5599Y-2.3396
X9.5599Y-2.0924
X9.5603Y-0.8832
X9.5611Y-1.8148
X9.5611Y-4.5412
X9.5622Y-0.527
X9.5626Y-2.2291
X9.5627Y-4.6442
X9.5645Y-4.0686
X9.5649Y-3.289
X9.5651Y-3.1125
X9.5654Y-2.4044
X9.5663Y-4.3197
X9.5663Y-1.9468
X9.5665Y-1.8731
X9.5688Y-1.6758
X9.5691Y-1.6037
X9.5693Y-0.9505
X9.5695Y-1.1725
X9.5714Y-1.0251
X9.5715Y-4.7835
X9.5723Y-2.0281
X9.5724Y-2.5157
X9.5737Y-0.0719
X9.5921Y-3.1563
X9.5933Y-2.9832
X9.5946Y-2.1366
X9.5948Y-0.7765
X9.5949Y-1.7763
X9.595Y-3.3378
X9.5958Y-1.0029
X9.5959Y-3.4084
X9.596Y-0.9161
X9.596Y-1.562
X9.5972Y-2.0493
X9.5978Y-4.4344
X9.5983Y-1.8526
X9.5991Y-1.9908
X9.5992Y-3.8571
X9.5999Y-0.8603
X9.6005Y-1.9175
X9.6013Y-3.0576
X9.6014Y-2.5611
X9.6015Y-4.3661
X9.602Y-2.2645
X9.6034Y-2.3761
X9.6035Y-3.7888
X9.6039Y-1.2113
X9.6052Y-4.1035
X9.6061Y-2.1934
X9.6065Y-1.633
X9.6073Y-3.2583
X9.6073Y-3.7176
X9.6086Y-4.5769
X9.609Y-4.4936
X9.609Y-1.1361
X9.6092Y-1.0645
X9.6279Y-0.953
X9.6282Y-4.0856
X9.6288Y-2.408
X9.6288Y-4.1468
X9.6292Y-1.5335
X9.6304Y-3.9082
X9.6323Y-1.663
X9.6324Y-3.0837
X9.6329Y-2.7378
X9.6338Y-1.1037
X9.634Y-3.0076
X9.6342Y-3.7559
X9.6348Y-1.0292
X9.6361Y-2.2415
X9.6363Y-1.872
X9.6372Y-1.9553
X9.6372Y-3.36
X9.6377Y-3.8324
X9.6378Y-2.5914
X9.6383Y-1.8127
X9.6387Y-1.5917
X9.6402Y-2.0283
X9.6415Y-2.5159
X9.6433Y-2.1568
X9.6434Y-0.8227
X9.6442Y-2.3134
X9.6442Y-2.093
X9.6444Y-3.2919
X9.6447Y-0.8954
X9.6625Y-0.9167
X9.6629Y-3.4063
X9.6632Y-2.5467
X9.6653Y-4.1821
X9.6655Y-0.9915
X9.6674Y-4.1054
X9.6678Y-1.0618
X9.6681Y-3.3415
X9.6696Y-3.1246
X9.6698Y-2.9862
X9.67Y-1.6251
X9.6709Y-2.7633
X9.6715Y-1.983
X9.6718Y-2.0531
X9.6726Y-1.8361
X9.6726Y-3.7907
X9.6727Y-2.2019
X9.6727Y-3.9433
X9.6731Y-0.6072
X9.6733Y-0.8573
X9.6742Y-1.9218
X9.6743Y-1.7729
X9.6744Y-1.567
X9.6758Y-3.0465
X9.6758Y-3.7304
X9.6761Y-2.695
X9.6777Y-0.6729
X9.6777Y-2.6186
X9.6778Y-2.2633
X9.6787Y-3.8589
X9.6799Y-3.2621
X9.6799Y-2.1257
X9.6801Y-0.7796
X9.6999Y-0.6402
X9.7011Y-0.811
X9.7011Y-3.3
X9.702Y-1.9458
X9.7031Y-2.6666
X9.7035Y-4.0743
X9.7047Y-3.8365
X9.7051Y-2.0139
X9.7054Y-4.1397
X9.7056Y-3.0785
X9.7059Y-1.8101
X9.706Y-0.5634
X9.7079Y-1.8766
X9.7087Y-3.1472
X9.7114Y-2.7273
X9.7116Y-2.5881
X9.7127Y-2.5125
X9.7128Y-3.0077
X9.7131Y-3.3602
X9.7136Y-0.8929
X9.7138Y-3.8969
X9.7138Y-1.6596
X9.7142Y-3.7653
X9.7336Y-2.689
X9.7343Y-1.9184
X9.7347Y-2.7607
X9.7356Y-3.3324
X9.7357Y-1.782
X9.7361Y-3.8582
X9.737Y-0.6768
X9.7374Y-3.0531
X9.7389Y-3.2569
X9.7396Y-3.7906
X9.74Y-0.6036
X9.7402Y-2.5587
X9.7411Y-2.9778
X9.7423Y-3.4106
X9.7433Y-1.9856
X9.7437Y-2.904
X9.7447Y-4.7889
X9.7459Y-3.1158
X9.7462Y-2.6275
X9.7472Y-4.1104
X9.7472Y-0.8598
X9.7482Y-2.8394
X9.7498Y-1.8396
X9.7505Y-0.5413
X9.7507Y-3.9272
X9.7509Y-0.7798
X9.7693Y-2.2292
X9.7694Y-0.9977
X9.7695Y-2.8677
X9.7695Y-1.0608
X9.7699Y-1.2757
X9.7703Y-3.1633
X9.7713Y-2.5904
X9.7721Y-0.819
X9.7725Y-3.0168
X9.7727Y-4.826
X9.7734Y-3.3042
X9.7742Y-2.4067
X9.7743Y-0.5063
X9.7745Y-2.9376
X9.7746Y-3.8357
X9.7751Y-1.8051
X9.7756Y-4.6356
X9.7758Y-3.4317
X9.7758Y-2.5102
X9.776Y-4.4592
X9.7761Y-0.6463
X9.7766Y-2.6672
X9.7771Y-0.5763
X9.7772Y-3.9029
X9.7776Y-2.7943
X9.7799Y-2.7238
X9.7808Y-3.0861
X9.7809Y-3.3707
X9.782Y-1.498
X9.7835Y-4.0771
X9.786Y-1.8783
X9.8059Y-0.9615
X9.8066Y-2.6978
X9.8075Y-2.3475
X9.8078Y-3.0427
X9.8081Y-1.5324
X9.8087Y-3.26
X9.8089Y-2.9109
X9.8096Y-2.844
X9.8102Y-4.11
X9.811Y-2.2772
X9.8112Y-0.6037
X9.8118Y-2.7646
X9.812Y-0.5336
X9.8122Y-1.7653
X9.8124Y-1.9119
X9.8126Y-3.8722
X9.8126Y-3.9308
X9.8133Y-2.6273
X9.8141Y-3.7629
X9.8144Y-1.8447
X9.8151Y-0.7735
X9.8159Y-4.5686
X9.8169Y-1.0956
X9.817Y-0.6815
X9.8173Y-4.7809
X9.8184Y-2.9832
X9.8185Y-4.501
X9.8187Y-3.4724
X9.8187Y-3.3249
X9.819Y-1.029
X9.8208Y-2.56
X9.821Y-3.1258
X9.8398Y-4.4681
X9.84Y-3.7882
X9.8406Y-4.0734
X9.8408Y-0.2122
X9.8409Y-4.5367
X9.8409Y-0.6456
X9.8417Y-2.6591
X9.842Y-0.9181
X9.842Y-2.9374
X9.8422Y-1.2818
X9.8423Y-1.0692
X9.8424Y-1.1295
X9.8425Y-1.8102
X9.843Y-1.8718
X9.8443Y-2.3677
X9.845Y-2.5968
X9.8455Y-2.8058
X9.8456Y-1.2087
X9.8464Y-2.2311
X9.8464Y-3.2921
X9.8479Y-0.1416
X9.8485Y-4.6042
X9.8487Y-2.5171
X9.8499Y-3.8961
X9.8501Y-0.5739
X9.8506Y-2.2974
X9.852Y-3.077
X9.853Y-4.822
X9.8538Y-0.9854
X9.8555Y-2.7234
X9.8557Y-3.1524
X9.8559Y-2.8713
X9.8562Y-3.022
X9.8562Y-1.4836
X9.8569Y-1.5676
X9.8751Y-2.3398
X9.8753Y-3.7645
X9.8761Y-2.5522
X9.8766Y-2.4188
X9.8784Y-3.8237
X9.8793Y-1.5968
X9.8796Y-4.7884
X9.8802Y-4.6365
X9.8805Y-2.266
X9.8811Y-0.6763
X9.8813Y-1.0962
X9.8818Y-1.848
X9.8832Y-0.8849
X9.8833Y-1.9145
X9.8834Y-3.9267
X9.885Y-0.963
X9.8854Y-1.03
X9.8855Y-4.1105
X9.8856Y-4.5738
X9.8857Y-2.7719
X9.886Y-0.6107
X9.8881Y-1.2453
X9.8885Y-4.4976
X9.8897Y-1.1699
X9.89Y-2.6986
X9.89Y-0.5303
X9.8901Y-2.6228
X9.8912Y-1.5172
X9.9111Y-1.3547
X9.9114Y-2.5802
X9.9118Y-0.5699
X9.9119Y-2.5198
X9.9119Y-2.3038
X9.912Y-1.6286
X9.9128Y-2.3779
X9.9139Y-1.8791
X9.9142Y-1.5566
X9.9145Y-1.1395
X9.9146Y-0.9965
X9.916Y-2.6637
X9.917Y-0.8557
X9.9173Y-1.0728
X9.9177Y-1.4944
X9.9183Y-4.0769
X9.9185Y-4.5348
X9.9187Y-1.2083
X9.9194Y-1.2818
X9.9209Y-3.2947
X9.9211Y-4.6039
X9.9218Y-2.7235
X9.9227Y-3.7974
X9.9237Y-0.9256
X9.9245Y-3.8662
X9.9255Y-0.6358
X9.9278Y-1.4237
X9.9464Y-1.0983
X9.9465Y-1.9095
X9.9469Y-1.9891
X9.948Y-1.6729
X9.9482Y-1.382
X9.9496Y-2.2666
X9.9496Y-0.536
X9.9496Y-1.0289
X9.95Y-0.6005
X9.9503Y-1.1625
X9.9504Y-0.8924
X9.9517Y-4.1185
X9.9519Y-2.5531
X9.9537Y-4.5786
X9.9548Y-3.8269
X9.9562Y-3.1529
X9.9563Y-2.4157
X9.9567Y-1.5948
X9.9576Y-1.5198
X9.9577Y-3.8921
X9.9583Y-1.3178
X9.9587Y-2.6251
X9.9592Y-1.239
X9.9598Y-1.4466
X9.9598Y-2.7003
X9.9617Y-2.3348
X9.9628Y-0.0678
X9.9628Y-2.9759
X9.9629Y-4.6492
X9.9632Y-0.9526
X9.9636Y-3.7205
X9.9816Y-1.3471
X9.9834Y-1.1302
X9.9836Y-2.6588
X9.9843Y-0.9293
X9.9846Y-1.2711
X9.9851Y-1.9445
X9.9854Y-2.3138
X9.9854Y-0.5045
X9.9861Y-3.0906
X9.9874Y-2.5132
X9.9876Y-1.4214
X9.9881Y-1.6394
X9.9887Y-1.2003
X9.9893Y-3.9286
X9.9893Y-4.5314
X9.991Y-1.0719
X9.9915Y-4.6077
X9.9935Y-0.5657
X9.9937Y-1.5646
X9.994Y-2.3764
X9.9954Y-3.8662
X9.9961Y-4.0832
X9.9976Y-0.9999
X9.9979Y-3.7636
X9.9981Y-3.0078
X9.9982Y-1.4827
X9.9985Y-2.5812
X10.0177Y-1.1025
X10.018Y-2.2693
X10.02Y-2.405
X10.0211Y-2.6239
X10.0213Y-2.9842
X10.0216Y-0.962
X10.0219Y-1.4505
X10.0236Y-3.1199
X10.0241Y-3.902
X10.0256Y-1.5309
X10.0265Y-3.4092
X10.0269Y-0.8846
X10.0273Y-3.7263
X10.028Y-1.6587
X10.0283Y-1.026
X10.0283Y-3.7959
X10.0285Y-1.2365
X10.0288Y-4.6478
X10.0301Y-3.0452
X10.0304Y-1.3154
X10.0315Y-2.5467
X10.0317Y-1.6003
X10.0326Y-0.0808
X10.0328Y-2.3327
X10.0328Y-1.3836
X10.0329Y-4.5653
X10.0331Y-0.2784
X10.0335Y-1.1736
X10.0343Y-0.5368
X10.0522Y-1.2826
X10.0533Y-3.7624
X10.0543Y-2.5943
X10.0546Y-3.3721
X10.0548Y-2.6653
X10.0558Y-3.824
X10.0559Y-4.5996
X10.0561Y-3.0883
X10.0569Y-2.3051
X10.0579Y-3.9292
X10.0584Y-3.0146
X10.0596Y-1.4827
X10.0613Y-2.3689
X10.0621Y-1.7807
X10.0631Y-1.3397
X10.0637Y-0.9856
X10.0638Y-4.53
X10.064Y-1.4167
X10.0642Y-1.2076
X10.0646Y-0.4967
X10.0657Y-0.929
X10.0672Y-3.1486
X10.0672Y-3.4465
X10.0684Y-1.1348
X10.0695Y-1.0623
X10.0881Y-4.0835
X10.0887Y-1.0984
X10.0927Y-1.248
X10.093Y-0.0726
X10.0936Y-3.481
X10.0938Y-3.7847
X10.0945Y-0.2159
X10.0948Y-3.0425
X10.0948Y-3.1284
X10.0951Y-3.3982
X10.0955Y-0.1457
X10.0959Y-0.8794
X10.0971Y-3.6788
X10.0976Y-3.861
X10.0977Y-0.9605
X10.0983Y-1.8174
X10.0988Y-4.5797
X10.0993Y-1.0324
X10.1008Y-4.4967
X10.1013Y-1.167
X10.1019Y-3.3371
X10.1028Y-2.6224
X10.1042Y-4.6463
X10.1236Y-3.0084
X10.1251Y-0.1722
X10.1252Y-3.5108
X10.1257Y-0.927
X10.1259Y-4.6035
X10.1263Y-3.4316
X10.1268Y-1.1438
X10.1274Y-1.1993
X10.1275Y-2.6539
X10.1282Y-3.0766
X10.13Y-4.5342
X10.1325Y-3.3763
X10.1336Y-0.6405
X10.1336Y-0.1091
X10.1357Y-3.2927
X10.137Y-3.8207
X10.1372Y-3.7278
X10.1378Y-1.0633
X10.1387Y-3.9065
X10.1391Y-0.989
X10.1402Y-1.77
X10.1605Y-0.6081
X10.1608Y-1.8024
X10.161Y-2.3727
X10.1627Y-4.573
X10.1628Y-3.3964
X10.1634Y-2.2426
X10.1648Y-3.5465
X10.1661Y-0.9533
X10.1662Y-1.1773
X10.1663Y-1.1077
X10.1667Y-0.8964
X10.1668Y-0.1357
X10.167Y-1.4873
X10.1672Y-1.5685
X10.1673Y-1.6234
X10.1693Y-2.0236
X10.1706Y-4.635
X10.1709Y-2.3006
X10.1712Y-0.0791
X10.1713Y-3.8656
X10.1714Y-1.0264
X10.1723Y-3.9299
X10.1727Y-0.6824
X10.1729Y-4.0799
X10.1732Y-3.34
X10.1734Y-3.4784
X10.1746Y-3.0561
X10.1751Y-2.6944
X10.1761Y-3.7652
X10.1952Y-3.5148
X10.1954Y-3.4445
X10.1968Y-3.5822
X10.1968Y-1.9842
X10.197Y-0.115
X10.1983Y-1.6627
X10.1997Y-3.9084
X10.2002Y-2.3359
X10.2008Y-1.1434
X10.2016Y-3.0079
X10.2018Y-1.0701
X10.2021Y-1.5195
X10.2028Y-0.9912
X10.2048Y-3.2611
X10.2062Y-0.5634
X10.2063Y-4.6152
X10.2064Y-4.5461
X10.2064Y-0.9153
X10.2064Y-3.791
X10.2065Y-1.911
X10.2072Y-1.7774
X10.2072Y-1.5882
X10.2086Y-1.85
X10.2088Y-3.3746
X10.2089Y-2.4072
X10.2098Y-0.6383
X10.211Y-2.274
X10.2297Y-0.9591
X10.2298Y-0.0795
X10.2299Y-3.407
X10.2318Y-3.622
X10.2325Y-0.61
X10.2353Y-3.9307
X10.2359Y-1.8031
X10.236Y-3.8302
X10.2375Y-3.2901
X10.238Y-1.5654
X10.2384Y-1.1077
X10.2396Y-3.5494
X10.2401Y-2.3103
X10.2405Y-4.6503
X10.2412Y-2.0291
X10.2412Y-0.6732
X10.2413Y-1.6249
X10.2415Y-0.8801
X10.2415Y-1.9527
X10.2421Y-1.8831
X10.2422Y-0.1503
X10.2424Y-0.5356
X10.2427Y-1.4813
X10.2433Y-2.378
X10.2438Y-1.0364
X10.244Y-2.5113
X10.2448Y-2.2294
X10.2457Y-1.1723
X10.2466Y-4.5719
X10.247Y-3.4671
X10.2663Y-2.3374
X10.2663Y-4.6017
X10.2664Y-1.0732
X10.2669Y-2.4107
X10.2675Y-0.6328
X10.268Y-1.8373
X10.2682Y-0.1136
X10.27Y-0.49
X10.2704Y-3.6472
X10.2708Y-3.2543
X10.2719Y-1.6635
X10.2723Y-0.9857
X10.2738Y-1.5995
X10.2744Y-3.3395
X10.2745Y-1.9184
X10.2753Y-0.5648
X10.2755Y-1.9854
X10.2761Y-3.5749
X10.2768Y-0.9252
X10.2772Y-1.1287
X10.2776Y-2.5612
X10.2783Y-1.518
X10.2787Y-3.8702
X10.2791Y-4.5086
X10.2792Y-3.5113
X10.2806Y-1.781
X10.2809Y-3.4425
X10.2824Y-2.2653
X10.3008Y-3.8978
X10.3012Y-2.0985
X10.3014Y-1.567
X10.3015Y-1.8714
X10.3016Y-3.4789
X10.3023Y-1.635
X10.3032Y-2.3712
X10.3035Y-0.9577
X10.3044Y-3.6869
X10.3047Y-2.3024
X10.3064Y-1.1765
X10.3077Y-1.9547
X10.3078Y-1.8007
X10.3078Y-0.0789
X10.3079Y-3.3765
X10.3085Y-1.0333
X10.3088Y-3.5436
X10.3108Y-0.8859
X10.3124Y-4.4651
X10.3127Y-1.0916
X10.3131Y-2.0149
X10.3141Y-4.5352
X10.3145Y-3.2999
X10.3156Y-2.1603
X10.3157Y-0.5285
X10.3157Y-3.1243
X10.3159Y-3.6241
X10.3163Y-2.2364
X10.3167Y-2.5234
X10.317Y-4.2848
X10.3172Y-4.6424
X10.3366Y-1.9165
X10.3367Y-3.2546
X10.3369Y-3.409
X10.3372Y-1.5224
X10.3372Y-2.3476
X10.3375Y-3.3379
X10.3376Y-3.5063
X10.3382Y-2.985
X10.3383Y-3.9266
X10.3383Y-1.0738
X10.3384Y-2.0605
X10.3392Y-1.7774
X10.3397Y-2.4041
X10.3412Y-2.135
X10.3415Y-0.9981
X10.342Y-3.0546
X10.3427Y-2.196
X10.3435Y-4.503
X10.344Y-1.6688
X10.3444Y-3.1572
X10.3449Y-4.5793
X10.345Y-2.5572
X10.3455Y-3.7275
X10.3464Y-2.2734
X10.3476Y-1.9891
X10.3476Y-1.1298
X10.348Y-0.9172
X10.3496Y-3.576
X10.3496Y-1.2081
X10.3514Y-4.0786
X10.3522Y-1.5985
X10.3525Y-3.6549
X10.3529Y-1.8464
X10.3712Y-1.814
X10.3713Y-3.6935
X10.3716Y-0.9574
X10.3717Y-1.1043
X10.3723Y-1.9555
X10.3724Y-0.8888
X10.3724Y-2.2387
X10.3725Y-2.0911
X10.3735Y-1.0299
X10.3735Y-1.246
X10.3745Y-2.7713
X10.3753Y-1.8796
X10.3761Y-4.2609
X10.3767Y-3.0775
X10.3787Y-3.5425
X10.3788Y-1.633
X10.3788Y-2.3047
X10.3801Y-2.0272
X10.3801Y-3.0117
X10.3811Y-4.6026
X10.3815Y-2.3825
X10.3824Y-2.5194
X10.3826Y-4.4701
X10.3849Y-4.5403
X10.3852Y-2.1595
X10.3855Y-1.5559
X10.3859Y-3.7572
X10.3865Y-3.3039
X10.3869Y-2.5941
X10.3869Y-3.6246
X10.3884Y-3.4315
X10.3885Y-3.3733
X10.4066Y-4.5654
X10.4068Y-3.1262
X10.4069Y-2.3407
X10.4071Y-1.9107
X10.4081Y-1.7657
X10.4088Y-0.675
X10.4096Y-4.2112
X10.4098Y-4.1482
X10.41Y-3.337
X10.4109Y-1.6697
X10.4117Y-2.9811
X10.4118Y-2.2691
X10.4119Y-4.0759
X10.4135Y-3.4769
X10.4136Y-1.5328
X10.4137Y-3.0405
X10.414Y-4.649
X10.4154Y-3.2599
X10.4156Y-2.6171
X10.4164Y-1.9855
X10.4166Y-3.6444
X10.418Y-1.5906
X10.4184Y-2.0593
X10.4186Y-0.6113
X10.4186Y-3.3963
X10.4191Y-3.794
X10.4198Y-3.7278
X10.4202Y-2.196
X10.4205Y-2.4146
X10.4206Y-2.1353
X10.4206Y-1.0581
X10.4213Y-3.589
X10.4213Y-1.8456
X10.4226Y-0.9314
X10.4228Y-0.9942
X10.4228Y-2.698
X10.4238Y-4.5057
X10.4242Y-2.5575
X10.4422Y-3.5041
X10.4423Y-4.2513
X10.4428Y-4.5286
X10.444Y-3.29
X10.4443Y-3.6126
X10.4448Y-3.835
X10.4451Y-1.6374
X10.446Y-1.8873
X10.4462Y-4.614
X10.4472Y-2.0209
X10.4482Y-2.5106
X10.4486Y-2.5896
X10.4492Y-1.8027
X10.4493Y-2.6602
X10.4502Y-4.177
X10.4504Y-4.1055
X10.4511Y-3.0896
X10.4519Y-4.4699
X10.4525Y-1.0285
X10.4527Y-3.0057
X10.4531Y-1.951
X10.4532Y-0.6466
X10.455Y-0.5621
X10.4554Y-3.1556
X10.456Y-3.7562
X10.4569Y-3.3718
X10.457Y-0.8854
X10.457Y-0.9565
X10.4575Y-3.4356
X10.4582Y-3.6891
X10.4595Y-2.7351
X10.4774Y-3.0504
X10.478Y-2.9018
X10.4781Y-1.9793
X10.4782Y-4.1507
X10.4783Y-4.5812
X10.4783Y-4.4266
X10.4784Y-3.5484
X10.4784Y-0.9882
X10.4788Y-3.2681
X10.4791Y-3.6573
X10.4794Y-0.6104
X10.4797Y-0.5354
X10.4819Y-3.7884
X10.4822Y-4.4953
X10.4825Y-3.8619
X10.4827Y-1.0715
X10.4835Y-2.5548
X10.4836Y-1.9068
X10.4837Y-1.7648
X10.4842Y-3.4077
X10.4847Y-4.221
X10.4847Y-2.6898
X10.4848Y-0.9315
X10.4855Y-4.3607
X10.4859Y-3.336
X10.4867Y-2.771
X10.487Y-1.6732
X10.4876Y-4.2958
X10.4894Y-3.7187
X10.49Y-2.9777
X10.4904Y-3.1144
X10.4929Y-3.4727
X10.4932Y-2.6167
X10.4936Y-2.8414
X10.4939Y-1.8376
X10.4946Y-4.6403
X10.4947Y-0.6785
X10.5134Y-3.8233
X10.5135Y-2.8048
X10.5138Y-4.39
X10.5139Y-4.1097
X10.5144Y-0.5663
X10.515Y-3.6867
X10.5152Y-3.5087
X10.5156Y-4.6022
X10.5159Y-3.3627
X10.516Y-4.4669
X10.5161Y-1.0371
X10.5169Y-2.4106
X10.5194Y-2.8651
X10.5198Y-1.2816
X10.521Y-1.8069
X10.5219Y-0.6388
X10.5222Y-2.7387
X10.5225Y-0.9637
X10.5229Y-0.5053
X10.5232Y-1.49
X10.5241Y-2.2374
X10.5243Y-2.513
X10.5244Y-4.3285
X10.5247Y0.0012
X10.525Y-3.8975
X10.5255Y-0.884
X10.5256Y-3.4408
X10.5257Y-2.5861
X10.5259Y-3.0087
X10.5267Y-3.7601
X10.5273Y-3.5834
X10.5274Y-1.8768
X10.5276Y-4.2578
X10.5281Y-3.3051
X10.5283Y-2.6673
X10.5285Y-4.5326
X10.5289Y-2.9435
X10.5294Y-4.1769
X10.5295Y-3.1565
X10.5297Y-3.0882
X10.5486Y-3.7887
X10.5488Y-0.0297
X10.5498Y-1.846
X10.5499Y-3.1136
X10.5502Y-2.9725
X10.5502Y-2.626
X10.5506Y-3.2575
X10.5522Y-2.6937
X10.5526Y-2.3487
X10.5527Y-4.3628
X10.5528Y-4.4264
X10.5531Y-4.1553
X10.5532Y-3.7228
X10.5537Y-4.5692
X10.5552Y-1.7788
X10.5553Y-3.8585
X10.5556Y-1.5326
X10.5558Y-3.0469
X10.556Y-2.548
X10.5565Y-4.6511
X10.5568Y-0.928
X10.5575Y-3.6184
X10.5576Y-4.2212
X10.5587Y-2.2672
X10.5589Y-0.9949
X10.5591Y-4.2965
X10.5596Y-2.7725
X10.5601Y-2.9095
X10.561Y-0.5408
X10.5634Y-3.3955
X10.5636Y-0.6034
X10.5637Y-1.9083
X10.5641Y-3.4687
X10.5645Y-4.4932
X10.5647Y-0.6801
X10.5653Y-2.8335
X10.5653Y-3.9413
X10.5655Y-3.5494
X10.5655Y-3.3342
X10.5837Y-4.2521
X10.584Y-3.4328
X10.5842Y-2.3689
X10.5853Y-4.3175
X10.5874Y-4.1792
X10.5879Y-4.6047
X10.588Y-0.5601
X10.588Y-3.8222
X10.5882Y-3.077
X10.5883Y-2.6551
X10.5893Y-2.7943
X10.5894Y-4.4731
X10.5896Y-3.7495
X10.5899Y-1.2062
X10.59Y-3.5071
X10.5908Y-2.2315
X10.5913Y-2.7308
X10.5925Y-3.1479
X10.5926Y-1.4932
X10.5931Y-0.9502
X10.5933Y-4.5459
X10.5941Y-2.3032
X10.5945Y-1.2816
X10.595Y-3.3597
X10.595Y-0.6476
X10.5954Y-2.5264
X10.5955Y-2.5868
X10.5963Y-0.1398
X10.5965Y-1.8743
X10.5978Y-0.2149
X10.5981Y-1.1381
X10.5984Y-3.293
X10.5988Y-1.813
X10.599Y-2.9376
X10.599Y-0.8908
X10.5993Y-3.0191
X10.5997Y-2.8768
X10.6004Y-3.891
X10.6004Y-1.5687
X10.6008Y-4.3932
X10.6201Y-0.668
X10.6201Y-0.0437
X10.6207Y-1.1082
X10.621Y-2.2676
X10.6213Y-0.1729
X10.6219Y-1.604
X10.6226Y-0.5401
X10.6232Y-4.2851
X10.6233Y-2.625
X10.6239Y-4.224
X10.6253Y-0.5975
X10.6258Y-1.1756
X10.6262Y-3.4046
X10.627Y-1.8532
X10.6281Y-2.6932
X10.6288Y-1.5254
X10.6289Y-2.3362
X10.6298Y-3.8599
X10.6302Y-1.2391
X10.6325Y-2.7716
X10.6327Y-3.7251
X10.6339Y-0.9248
X10.634Y-3.7987
X10.6341Y-1.9194
X10.6351Y-2.5538
X10.6357Y-2.4161
X10.6368Y-3.329
X10.6546Y-0.8925
X10.6563Y-1.2002
X10.6582Y-2.7296
X10.6594Y-1.8754
X10.6597Y-3.7561
X10.6606Y-1.5664
X10.6609Y-1.628
X10.6622Y-1.0689
X10.6625Y-2.5266
X10.6635Y-2.308
X10.6643Y-1.4533
X10.6648Y-4.2618
X10.666Y-1.1442
X10.6669Y-0.5668
X10.667Y-2.3684
X10.6671Y-0.6351
X10.6679Y-2.5884
X10.6691Y-1.3775
X10.6693Y-3.834
X10.6711Y-2.6523
X10.6715Y-1.2854
X10.6905Y-1.3061
X10.6908Y-2.5515
X10.6909Y-2.9851
X10.6918Y-3.7273
X10.6921Y-1.175
X10.6932Y-0.6105
X10.6933Y-0.5314
X10.6935Y-1.9113
X10.6958Y-2.2633
X10.697Y-1.5953
X10.6975Y-2.6172
X10.6983Y-0.6808
X10.6984Y-1.4197
X10.6987Y-1.4976
X10.7005Y-2.7027
X10.7015Y-1.0208
X10.7018Y-2.4055
X10.7018Y-4.465
X10.7037Y-2.3369
X10.7042Y-3.7946
X10.7047Y-1.1085
X10.7056Y-1.2418
X10.7057Y-0.0721
X10.7062Y-1.6651
X10.7065Y0.0063
X10.7263Y-4.6427
X10.7264Y-1.9494
X10.7279Y-3.7614
X10.7307Y-2.6663
X10.7308Y-0.496
X10.731Y-2.3119
X10.731Y-1.2084
X10.7311Y-2.5199
X10.7329Y-1.6338
X10.7337Y-1.2687
X10.7343Y-2.5837
X10.7346Y-0.6333
X10.7347Y-2.3762
X10.7368Y-0.991
X10.7372Y-3.0865
X10.7378Y-3.0162
X10.7382Y-1.4503
X10.7403Y-4.5048
X10.7406Y-1.143
X10.7406Y-1.0563
X10.7408Y-1.3478
X10.7414Y-1.5344
X10.7418Y-0.575
X10.7429Y-4.5808
X10.7624Y-2.3456
X10.7625Y-3.7978
X10.7625Y-1.4943
X10.7627Y-4.5385
X10.7643Y-2.986
X10.7643Y-0.5319
X10.7648Y-1.3159
X10.7655Y-4.4749
X10.7669Y-1.3906
X10.768Y-4.6083
X10.7681Y-0.6063
X10.7693Y-1.6648
X10.7695Y-2.408
X10.7698Y-0.95
X10.77Y-0.6831
X10.7718Y-1.5672
X10.7725Y-1.0918
X10.7733Y-0.0786
X10.7746Y-1.0254
X10.7746Y-2.5495
X10.7747Y-2.6207
X10.775Y-2.2708
X10.7755Y-3.2282
X10.7756Y-3.0432
X10.7759Y-0.4604
X10.7759Y-1.2507
X10.7764Y-1.1675
X10.7779Y-0.2845
X10.7971Y-1.5933
X10.7971Y-1.1271
X10.7972Y-2.6513
X10.7981Y-1.0589
X10.7983Y-3.4822
X10.8Y-1.5178
X10.8002Y-3.0183
X10.8012Y-0.5625
X10.8016Y-1.2131
X10.8017Y-1.3508
X10.802Y-4.5021
X10.802Y-2.5812
X10.8032Y-0.641
X10.806Y-1.7696
X10.8066Y-2.3019
X10.8069Y-4.6396
X10.8071Y-0.994
X10.8087Y-1.4147
X10.8089Y-4.5785
X10.8091Y-0.9151
X10.8092Y-2.3789
X10.8113Y-1.2738
X10.8119Y-2.5114
X10.8133Y-0.5066
X10.8319Y-1.5697
X10.8337Y-2.4199
X10.8337Y-1.0941
X10.8339Y-1.4483
X10.8352Y-1.308
X10.8355Y-1.0351
X10.8358Y-0.6699
X10.8373Y-0.5352
X10.8378Y-4.6167
X10.8386Y-1.8126
X10.8392Y-3.7599
X10.8414Y-4.5406
X10.842Y-0.1418
X10.8421Y-0.2153
X10.845Y-0.6074
X10.8454Y-3.8255
X10.8461Y-0.9553
X10.8462Y-1.2361
X10.8468Y-1.1703
X10.8475Y-0.0778
X10.8477Y-0.2926
X10.8675Y-1.747
X10.8676Y-1.2084
X10.8701Y-0.5681
X10.8709Y-3.8596
X10.8714Y-4.5681
X10.8737Y-4.6482
X10.8738Y-1.4853
X10.8745Y-0.9226
X10.876Y-0.1012
X10.8768Y-3.3384
X10.8773Y-3.0056
X10.8779Y-3.8013
X10.8787Y-1.0654
X10.8793Y-1.1319
X10.8806Y-1.2738
X10.8814Y-0.4934
X10.883Y-0.642
X10.8832Y-0.995
X10.884Y-0.1719
X10.8848Y-0.2496
X10.9027Y-0.9555
X10.9034Y-1.8019
X10.9048Y-0.2768
X10.9056Y-0.6054
X10.9066Y-1.0374
X10.9068Y-2.729
X10.9074Y-1.529
X10.9089Y-4.6084
X10.9092Y-2.2378
X10.91Y-0.4639
X10.9104Y-3.7507
X10.9106Y-1.1762
X10.9113Y-0.1379
X10.9137Y-0.6677
X10.9138Y-0.54
X10.914Y-0.074
X10.9158Y-2.0134
X10.9159Y-0.2071
X10.9197Y-1.0988
X10.9198Y-4.5326
X10.9397Y-0.9246
X10.9398Y-0.5033
X10.9398Y-1.4973
X10.9409Y-4.5744
X10.9432Y-0.1081
X10.944Y-0.6361
X10.9441Y-0.5733
X10.9463Y-0.3229
X10.9478Y-1.9817
X10.9485Y-3.0182
X10.9486Y-2.2766
X10.9501Y-0.9918
X10.9512Y-0.1764
X10.9527Y-0.2566
X10.9541Y-4.6454
X10.9551Y-0.3867
X10.9554Y-1.8455
X10.9739Y-0.0806
X10.9761Y-1.9471
X10.9771Y-4.0422
X10.9775Y-0.9603
X10.9797Y-0.1525
X10.9803Y-1.5282
X10.9813Y-3.7247
X10.9814Y-0.2789
X10.9817Y-1.8717
X10.9819Y-0.6067
X10.9828Y-4.5336
X10.984Y-0.42
X10.9847Y-2.0287
X10.9849Y-4.6058
X10.9855Y-2.2311
X10.9872Y-0.5337
X10.9883Y-0.6815
X10.9886Y-0.3605
X10.9887Y-3.9058
X10.9906Y-2.3027
X10.9907Y-0.2157
X11.0101Y-0.323
X11.0106Y-0.9244
X11.0109Y-4.6374
X11.0129Y-0.1816
X11.0131Y-2.2708
X11.0136Y-0.4577
X11.0137Y-0.2438
X11.0145Y-0.3997
X11.0149Y-1.9148
X11.0158Y-1.8529
X11.0166Y-3.7571
X11.0202Y-1.4861
X11.0206Y-1.9943
X11.0209Y-2.3388
X11.0226Y-4.0086
X11.0232Y-4.5096
X11.024Y-0.5717
X11.0241Y-0.6418
X11.0258Y-4.5732
X11.0262Y-3.9366
X11.0263Y-0.1033
X11.0451Y-1.8859
X11.0452Y-0.1435
X11.0458Y-0.2234
X11.0459Y-3.7247
X11.0459Y-4.6089
X11.0461Y-0.4969
X11.0485Y-0.4189
X11.0488Y-0.9601
X11.0498Y-2.0904
X11.0506Y-4.5421
X11.0512Y-0.2884
X11.0525Y-2.2369
X11.0526Y-3.8992
X11.0526Y-2.3004
X11.0529Y-2.3821
X11.0553Y-1.9489
X11.0557Y-0.3481
X11.0589Y-2.1703
X11.0589Y-3.9616
X11.0599Y-2.0143
X11.061Y-4.0353
X11.0613Y-1.5278
X11.0619Y-0.0768
X11.0812Y-3.371
X11.0816Y-3.3041
X11.0831Y-0.1839
X11.0841Y-4.4597
X11.0846Y-4.0004
X11.0849Y-2.13
X11.0859Y-3.8612
X11.0866Y-1.837
X11.0868Y-2.2676
X11.0881Y-2.3343
X11.089Y-2.9836
X11.0906Y-2.549
X11.095Y-2.1921
X11.0955Y-3.9414
X11.0958Y-2.0498
X11.0959Y-1.9112
X11.0961Y-0.1094
X11.0964Y-0.2478
X11.0967Y-1.9822
X11.0968Y-2.4115
X11.0971Y-0.9196
X11.1164Y-2.0249
X11.1169Y-2.7736
X11.1183Y-3.0089
X11.1184Y-4.4947
X11.1187Y-0.2135
X11.1192Y-1.9464
X11.1219Y-3.3331
X11.1221Y-2.3741
X11.1223Y-0.1407
X11.1231Y-3.9066
X11.1232Y-0.9636
X11.1247Y-2.2297
X11.1256Y-3.8366
X11.1262Y-0.0808
X11.1264Y-3.9719
X11.1281Y-1.8743
X11.1283Y-2.3065
X11.1291Y-2.5875
X11.13Y-2.5236
X11.131Y-4.0388
X11.1318Y-2.0847
X11.1326Y-1.5168
X11.1328Y-2.1646
X11.1516Y-2.6891
X11.1524Y-2.2702
X11.1529Y-2.9728
X11.1531Y-3.7503
X11.1532Y-1.0019
X11.1544Y-2.3327
X11.1548Y-3.8645
X11.1554Y-1.7693
X11.1555Y-2.4201
X11.1569Y-2.5477
X11.1569Y-2.12
X11.1575Y-0.6416
X11.158Y-3.3655
X11.1588Y-3.2892
X11.1589Y-0.182
X11.159Y-3.9289
X11.159Y-2.197
X11.1593Y-0.9276
X11.1608Y-0.5634
X11.1639Y-0.4914
X11.164Y-0.1076
X11.1646Y-2.6181
X11.1646Y-1.9812
X11.1658Y-1.9108
X11.1667Y-1.068
X11.1675Y-1.8412
X11.1681Y-2.0502
X11.1867Y-0.6788
X11.1884Y-2.0129
X11.1885Y-0.957
X11.1887Y-2.1611
X11.1896Y-2.2262
X11.1908Y-1.8152
X11.1914Y-2.5204
X11.1923Y-3.159
X11.1927Y-2.5971
X11.1931Y-3.4667
X11.1938Y-3.2531
X11.1945Y-0.0685
X11.1948Y-1.8739
X11.195Y-3.3405
X11.1952Y-2.3006
X11.1956Y-2.6642
X11.1958Y-3.7961
X11.1958Y-3.9063
X11.1976Y-1.0364
X11.1977Y-2.3747
X11.1977Y-0.1365
X11.1982Y-1.9543
X11.1997Y-0.611
X11.201Y-0.5306
X11.2015Y-2.0993
X11.2225Y-2.2007
X11.2227Y-2.4147
X11.2237Y-3.9381
X11.2239Y-0.9925
X11.2241Y-0.5711
X11.2244Y-3.2916
X11.2267Y-0.1872
X11.2268Y-2.6285
X11.2279Y-0.9309
X11.228Y-3.127
X11.228Y-1.0586
X11.2289Y-2.0502
X11.229Y-2.1222
X11.2313Y-2.2668
X11.2315Y-2.558
X11.2324Y-1.9871
X11.233Y-3.8318
X11.2332Y-1.8478
X11.2349Y-1.9168
X11.2351Y-0.1106
X11.2372Y-1.7821
X11.2375Y-0.6467
X11.2382Y-2.3319
X11.2391Y-0.4695
X11.257Y-3.1535
X11.2577Y-2.2995
X11.2596Y-0.8885
X11.2621Y-1.499
X11.2625Y-4.403
X11.2627Y-0.5056
X11.2628Y-0.6062
X11.2632Y-3.2554
X11.2643Y-1.8093
X11.2648Y-0.1385
X11.2649Y-2.3731
X11.2651Y-2.0878
X11.2651Y-2.6554
X11.2652Y-4.3278
X11.2653Y-2.5811
X11.2661Y-0.0816
X11.2666Y-0.9575
X11.2677Y-1.945
X11.2685Y-3.0883
X11.2694Y-1.0249
X11.2697Y-2.235
X11.2698Y-3.7966
X11.27Y-2.1708
X11.2707Y-3.8646
X11.2707Y-0.6782
X11.2709Y-2.5129
X11.2711Y-2.0263
X11.2722Y-1.8716
X11.2928Y-0.855
X11.2947Y-4.4364
X11.2952Y-4.3674
X11.2954Y-0.115
X11.2955Y-0.642
X11.2957Y-1.0731
X11.2959Y-1.8479
X11.2984Y-2.5525
X11.3003Y-3.1171
X11.3004Y-3.0568
X11.3005Y-1.5184
X11.3018Y-2.4101
X11.3021Y-3.3005
X11.3033Y-4.1484
X11.3035Y-0.9932
X11.3067Y-2.6283
X11.3082Y-1.5951
X11.3095Y-0.5276
X11.3095Y-0.9299
X11.31Y-0.1823
X11.3281Y-1.8095
X11.3296Y-3.0764
X11.3307Y-0.9554
X11.331Y-3.1507
X11.3312Y-0.8097
X11.3317Y-1.627
X11.3341Y-2.5856
X11.3358Y-0.8907
X11.336Y-4.4715
X11.3363Y-0.0816
X11.3366Y-1.5594
X11.337Y-1.4833
X11.3372Y-1.0922
X11.3385Y-1.0228
X11.3395Y-0.564
X11.3399Y-4.1863
X11.3409Y-3.2569
X11.3415Y-2.5129
X11.342Y-0.2227
X11.3423Y-0.1368
X11.343Y-4.4036
X11.3633Y-1.1411
X11.3635Y-3.7176
X11.3651Y-0.9254
X11.3657Y-3.1193
X11.3668Y-0.8502
X11.367Y-3.9267
X11.3685Y-2.5506
X11.3689Y-4.2244
X11.3691Y-2.2321
X11.3696Y-0.1804
X11.3701Y-0.7743
X11.3716Y-1.5986
X11.372Y-4.4271
X11.3748Y-0.1042
X11.3748Y-3.7997
X11.3753Y-1.0016
X11.3766Y-4.1507
X11.3769Y-3.8615
X11.378Y-2.169
X11.3781Y-0.6097
X11.3782Y-1.0708
X11.3787Y-0.5329
X11.3793Y-1.5259
X11.3798Y-3.2905
X11.3992Y-1.0341
X11.3994Y-3.3323
X11.4001Y-1.1004
X11.4005Y-2.1955
X11.4014Y-0.9543
X11.4015Y-3.9651
X11.4021Y-0.8131
X11.4034Y-2.2772
X11.4056Y-3.2601
X11.4063Y-1.6263
X11.4071Y-3.7585
X11.4072Y-0.0803
X11.4083Y-1.5617
X11.4083Y-1.6976
X11.4086Y-0.885
X11.4087Y-3.5124
X11.412Y-3.8268
X11.4137Y-2.7348
X11.4144Y-3.1534
X11.4152Y-0.5669
X11.4154Y-3.9045
X11.4161Y-2.5187
X11.4347Y-3.1257
X11.4347Y-0.8569
X11.4349Y-1.6622
X11.4378Y-1.0721
X11.4387Y-0.9921
X11.4391Y-3.4317
X11.4391Y-0.7871
X11.4422Y-1.601
X11.4429Y-1.5279
X11.443Y-1.1329
X11.4431Y-3.719
X11.4431Y-2.239
X11.4454Y-3.7959
X11.4461Y-3.8554
X11.4471Y-3.9327
X11.4479Y-0.9216
X11.448Y-3.3758
X11.4504Y-3.3037
X11.4701Y-3.4046
X11.4712Y-3.3389
X11.4717Y-1.0982
X11.4718Y-3.9048
X11.4729Y-0.9555
X11.4729Y-0.0716
X11.4735Y-0.8256
X11.4746Y-1.6379
X11.4748Y-3.8328
X11.4774Y-3.7647
X11.4786Y-0.8868
X11.4807Y-1.5676
X11.4818Y-3.258
X11.4838Y-1.0279
X11.4838Y-1.6997
X11.4838Y-3.4736
X11.4841Y-3.1641
X11.4849Y-2.3833
X11.4863Y-3.9647
X11.5049Y-3.3005
X11.505Y-1.0565
X11.5053Y-0.5323
X11.5053Y-3.3766
X11.5053Y-3.4401
X11.5061Y-0.9209
X11.5071Y-3.5119
X11.5072Y-3.5793
X11.5082Y-4.5343
X11.5083Y-0.4664
X11.5095Y-3.115
X11.5104Y-0.6674
X11.515Y-0.6108
X11.5183Y-1.5888
X11.5185Y-1.6709
X11.5187Y-0.9956
X11.5187Y-0.2836
X11.5199Y-0.7801
X11.5218Y-0.8456
X11.5222Y-1.5333
X11.541Y-3.2589
X11.5427Y-0.9502
X11.5427Y-3.3394
X11.5445Y-3.162
X11.5452Y-0.4988
X11.5465Y-0.8183
X11.5478Y-3.4677
X11.5484Y-1.0233
X11.5505Y-0.5619
X11.5516Y-0.0803
X11.5519Y-0.8962
X11.5528Y-4.8246
X11.5538Y-3.5394
X11.5558Y-3.3949
X11.5572Y-0.632
X11.577Y-0.542
X11.5773Y-1.9152
X11.5774Y-2.5515
X11.5784Y-3.0504
X11.5788Y-4.4371
X11.579Y-0.1077
X11.5808Y-3.1236
X11.5808Y-3.6864
X11.5825Y-0.1846
X11.5831Y-0.4613
X11.5866Y-4.3619
X11.5872Y-4.1419
X11.5872Y-3.5032
X11.5894Y-3.4389
X11.5896Y-4.5064
X11.5901Y-2.232
X11.5908Y-0.2519
X11.5914Y-3.7518
X11.593Y-0.5986
X11.6128Y-0.1454
X11.6137Y-4.466
X11.6145Y-2.9804
X11.6151Y-0.5681
X11.6152Y-3.7925
X11.6154Y-0.0648
X11.6168Y-2.52
X11.6186Y-3.474
X11.619Y-3.7177
X11.6224Y-0.4956
X11.6224Y-3.0921
X11.6231Y-2.6643
X11.6235Y-2.589
X11.6239Y-0.2062
X11.6257Y-4.1762
X11.627Y-4.3893
X11.6476Y-0.1151
X11.6478Y-2.6192
X11.6499Y-4.4251
X11.6504Y-0.8521
X11.6505Y-0.9235
X11.6512Y-1.9926
X11.6513Y-0.1855
X11.6514Y-0.4639
X11.6521Y-1.0565
X11.6522Y-1.4987
X11.6538Y-2.6938
X11.655Y-1.9128
X11.6552Y-0.5277
X11.6567Y-3.757
X11.6586Y-4.5076
X11.6596Y-3.0072
X11.6614Y-0.2495
X11.662Y-0.9999
X11.6621Y-4.1438
X11.6623Y-4.2268
X11.664Y-0.7778
X11.6824Y-4.6843
X11.6831Y-1.6397
X11.6831Y-0.8084
X11.6838Y-0.4945
X11.6847Y-4.8192
X11.6857Y-1.7018
X11.6868Y-1.0951
X11.6871Y-0.8944
X11.6876Y-0.2804
X11.6877Y-2.8685
X11.6881Y-4.5306
X11.6884Y-4.1752
X11.6893Y-0.9506
X11.6898Y-0.0747
X11.69Y-2.9501
X11.6906Y-0.2203
X11.6907Y-4.4609
X11.6921Y-3.7139
X11.6924Y-0.4276
X11.6928Y-4.6019
X11.6931Y-3.2276
X11.6951Y-0.1387
X11.6953Y-1.0333
X11.6959Y-3.8011
X11.6978Y-3.0478
X11.698Y-0.3513
X11.7192Y-4.4991
X11.7199Y-2.9089
X11.7207Y-0.8496
X11.7208Y-4.2102
X11.7209Y-4.7188
X11.7221Y-0.7901
X11.7223Y-3.7597
X11.723Y-4.6458
X11.7239Y-0.2513
X11.7241Y-0.3891
X11.7247Y-0.1724
X11.725Y-2.8388
X11.7277Y-4.5679
X11.7278Y-0.925
X11.7288Y-1.7415
X11.7294Y-0.3144
X11.7305Y-0.4612
X11.7313Y-1.0609
X11.7314Y-1.1388
X11.7315Y-4.1517
X11.7323Y-0.1113
X11.7329Y-2.9752
X11.7337Y-0.9992
X11.7337Y-3.1997
X11.7343Y-1.6615
X11.7532Y-2.8759
X11.7532Y-1.7716
X11.7536Y-2.9398
X11.7541Y-3.7171
X11.7543Y-0.9659
X11.7544Y-1.0931
X11.755Y-0.0808
X11.7553Y-1.7065
X11.7556Y-1.6312
X11.7575Y-0.1492
X11.7586Y-1.0372
X11.7592Y-4.532
X11.761Y-0.6722
X11.7611Y-4.8227
X11.7612Y-0.8799
X11.7614Y-0.2061
X11.7624Y-0.2892
X11.7626Y-4.4744
X11.7669Y-3.795
X11.767Y-0.3484
X11.767Y-0.4296
X11.7673Y-1.1764
X11.7675Y-0.8223
X11.7704Y-4.185
X11.7902Y-4.2213
X11.7902Y-0.3134
X11.7903Y-0.1166
X11.7906Y-0.9862
X11.7906Y-2.8284
X11.7908Y-1.7413
X11.7908Y-1.6695
X11.7927Y-2.9043
X11.7935Y-0.6432
X11.7959Y-4.4994
X11.7961Y-0.2452
X11.7976Y-0.3936
X11.7983Y-0.7744
X11.8012Y-0.8576
X11.802Y-4.3251
X11.8035Y-0.1723
X11.8038Y-3.8354
X11.8041Y-0.9305
X11.8044Y-3.7594
X11.8056Y-1.0704
X11.8059Y-4.1533
X11.8252Y-4.4637
X11.8262Y-0.6129
X11.8268Y-0.3636
X11.8277Y-0.2823
X11.828Y-4.828
X11.8291Y-1.0377
X11.8291Y-0.1508
X11.8293Y-0.8232
X11.83Y-0.6753
X11.8305Y-3.3736
X11.831Y-0.2232
X11.8316Y-0.9654
X11.8332Y-4.3599
X11.8344Y-0.8873
X11.8347Y-1.701
X11.8363Y-3.8642
X11.8365Y-3.431
X11.8378Y-3.7867
X11.8383Y-0.0655
X11.8405Y-2.8648
X11.8406Y-3.942
X11.841Y-1.7741
X11.8596Y-2.7965
X11.8598Y-3.0571
X11.8609Y-3.7564
X11.8611Y-0.1873
X11.8622Y-3.3298
X11.8629Y-0.5747
X11.8631Y-4.7081
X11.8633Y-3.3989
X11.8655Y-2.226
X11.8661Y-0.7782
X11.8663Y-0.8455
X11.869Y-0.9289
X11.8696Y-0.3184
X11.8698Y-3.4744
X11.8721Y-4.3165
X11.8726Y-0.1162
X11.8735Y-4.2266
X11.8744Y-1.0006
X11.8752Y-0.6383
X11.8755Y-0.2424
X11.8953Y-0.2086
X11.8961Y-2.8342
X11.8969Y-0.9515
X11.8991Y-0.5997
X11.9005Y-0.8081
X11.9011Y-0.1449
X11.9011Y-0.0751
X11.9014Y-0.6672
X11.9017Y-2.7617
X11.9018Y-0.2919
X11.9048Y-0.8825
X11.9054Y-4.3559
X11.9092Y-4.8205
X11.9101Y-0.5392
X11.9104Y-1.8745
X11.9121Y-3.0158
X11.9311Y-0.8476
X11.9319Y-0.2447
X11.9332Y-4.7087
X11.9337Y-1.9195
X11.9339Y-0.921
X11.9353Y-0.634
X11.9354Y-3.9628
X11.937Y-0.5604
X11.9379Y-0.1799
X11.9409Y-2.7321
X11.9413Y-3.0556
X11.9425Y-4.3193
X11.9434Y-2.2314
X11.9454Y-2.4444
X11.9457Y-0.1074
X11.946Y-0.4915
X11.9468Y-0.7817
X11.9474Y-4.2205
X11.9658Y-0.8951
X11.968Y-0.4584
X11.9693Y-1.4928
X11.9698Y-4.1472
X11.9706Y-0.6801
X11.9709Y-0.5254
X11.9721Y-0.6014
X11.9744Y-4.8138
X11.9746Y-0.8156
X11.9757Y-1.5605
X11.9778Y-1.8796
X11.9779Y-3.9978
X11.9784Y-4.3644
X11.9793Y-0.2078
X11.9797Y-0.9565
X11.9804Y-0.1351
X11.9809Y-0.0702
X12.0018Y-0.4186
X12.0026Y-4.1847
X12.0028Y-0.175
X12.0047Y-1.5225
X12.0048Y-0.8499
X12.0048Y-0.6316
X12.0052Y-4.0439
X12.0055Y-3.963
X12.0058Y-1.4592
X12.0062Y-1.3761
X12.0075Y-0.7786
X12.0108Y-1.3167
X12.0117Y-0.4912
X12.0141Y-0.5671
X12.0149Y-0.1028
X12.0153Y-4.324
X12.0176Y-0.9187
X12.0374Y-3.2894
X12.0377Y-3.1574
X12.0405Y-0.3864
X12.0405Y-1.8775
X12.041Y-2.1659
X12.0412Y-0.891
X12.0424Y-3.0833
X12.0424Y-0.1476
X12.0427Y-1.4886
X12.0428Y-2.4428
X12.0433Y-2.7706
X12.0452Y-0.0816
X12.0452Y-2.3073
X12.0453Y-1.4108
X12.0466Y-2.2292
X12.0468Y-0.82
X12.0477Y-4.1563
X12.0479Y-4.0108
X12.0482Y-1.2149
X12.0484Y-0.5251
X12.0485Y-1.5632
X12.0487Y-1.3537
X12.0497Y-3.2323
X12.05Y-2.3826
X12.0521Y-0.4554
X12.0534Y-0.961
X12.0536Y-2.703
X12.0541Y-4.8126
X12.0727Y-1.3907
X12.0734Y-1.175
X12.0738Y-2.3436
X12.0738Y-1.5955
X12.0741Y-2.4833
X12.0742Y-4.0428
X12.0758Y-3.398
X12.0759Y-0.9188
X12.0769Y-1.5316
X12.0771Y-0.8609
X12.0774Y-2.6632
X12.0776Y-3.2673
X12.0788Y-2.7233
X12.0807Y-3.3356
X12.0808Y-3.7298
X12.0818Y-2.8003
X12.0829Y-1.4593
X12.0835Y-0.7737
X12.0841Y-0.988
X12.0843Y-4.4598
X12.0845Y-0.116
X12.0846Y-2.5959
X12.0848Y-1.3164
X12.0853Y-3.1249
X12.0855Y-3.1959
X12.086Y-2.4152
X12.0863Y-2.2737
X12.0873Y-2.1985
X12.1077Y-3.2215
X12.1079Y-3.3023
X12.1084Y-3.1516
X12.1085Y-2.6197
X12.1088Y-0.8824
X12.1088Y-2.3732
X12.1096Y-1.4869
X12.1112Y-1.0966
X12.1127Y-3.4453
X12.1129Y-1.5657
X12.1131Y-1.2134
X12.114Y-3.3712
X12.1146Y-1.8742
X12.1151Y-2.2326
X12.1155Y-1.3459
X12.1159Y-1.0264
X12.116Y-4.1441
X12.1165Y-2.1654
X12.1166Y-2.4423
X12.1199Y-0.0648
X12.1205Y-2.686
X12.1209Y-4.8128
X12.1213Y-3.0889
X12.1214Y-0.8243
X12.1217Y-0.9551
X12.122Y-2.5092
X12.1227Y-2.3031
X12.1232Y-1.4143
X12.1247Y-2.7642
X12.1438Y-0.1037
X12.1445Y-0.9942
X12.1452Y-2.1366
X12.1465Y-2.7925
X12.147Y-1.5243
X12.1482Y-0.6452
X12.1483Y-0.4934
X12.1488Y-3.1265
X12.1496Y-3.3413
X12.1506Y-2.5515
X12.1509Y-1.0662
X12.151Y-1.129
X12.1513Y-3.2602
X12.1514Y-2.1934
X12.1522Y-1.4522
X12.1528Y-2.724
X12.1537Y-3.4789
X12.1537Y-1.3773
X12.1541Y-4.0401
X12.1546Y-2.4093
X12.1549Y-0.7887
X12.1551Y-2.4801
X12.1552Y-3.1828
X12.156Y-1.8455
X12.156Y-0.9316
X12.1566Y-0.8569
X12.1573Y-2.6607
X12.1582Y-2.3425
X12.1584Y-1.3069
X12.1586Y-2.2777
X12.1588Y-3.4016
X12.1784Y-2.1639
X12.1785Y-0.6814
X12.1786Y-0.8245
X12.1787Y-2.513
X12.179Y-1.3529
X12.179Y-1.104
X12.1796Y-1.7682
X12.1797Y-4.1561
X12.1803Y-3.5072
X12.1808Y-3.2957
X12.1814Y-0.0694
X12.1821Y-2.3699
X12.1822Y-2.7668
X12.1829Y-3.3703
X12.1832Y-2.4427
X12.1837Y-1.4249
X12.1852Y-3.1523
X12.1854Y-3.0523
X12.1861Y-4.213
X12.1864Y-1.0246
X12.1866Y-2.9006
X12.1872Y-3.4327
X12.1872Y-2.2993
X12.1874Y-2.2266
X12.1881Y-1.9775
X12.189Y-0.8904
X12.1891Y-2.9714
X12.1895Y-1.8759
X12.1896Y-1.7051
X12.19Y-1.4911
X12.1901Y-2.0551
X12.1911Y-3.2238
X12.1924Y-0.9644
X12.193Y-2.6899
X12.1948Y-1.1709
X12.1949Y-0.5286
X12.195Y-0.5982
X12.1957Y-2.5974
X12.2148Y-2.7262
X12.2149Y-4.3238
X12.2163Y-0.4933
X12.2165Y-1.1316
X12.2167Y-1.3201
X12.2177Y-3.4712
X12.2177Y-2.4807
X12.2177Y-2.4049
X12.2179Y-2.9431
X12.2196Y-1.3808
X12.22Y-3.187
X12.2208Y-2.6217
X12.2214Y-0.7781
X12.2218Y-3.4018
X12.222Y-1.2066
X12.2223Y-3.2636
X12.2226Y-1.7343
X12.2227Y-0.9878
X12.2232Y-3.539
X12.2243Y-1.0674
X12.2248Y-1.4518
X12.2249Y-2.0239
X12.225Y-2.7948
X12.2268Y-0.9147
X12.2274Y-0.8451
X12.2275Y-2.2639
X12.2283Y-3.9991
X12.2285Y-0.571
X12.2286Y-2.5456
X12.2293Y-3.3399
X12.2295Y-1.8151
X12.2299Y-1.663
X12.2302Y-2.1908
X12.2302Y-3.0153
X12.2304Y-4.1788
X12.2306Y-2.1008
X12.2306Y-2.3383
X12.2307Y-0.1166
X12.2308Y-3.0897
X12.2312Y-0.6478
X12.2499Y-1.3534
X12.2507Y-3.1249
X12.2509Y-1.4158
X12.2511Y-2.5934
X12.2513Y-0.6054
X12.2514Y-4.2203
X12.2517Y-4.1459
X12.2525Y-1.7097
X12.2533Y-3.513
X12.2542Y-3.0409
X12.2554Y-2.3705
X12.2563Y-0.0741
X12.2565Y-3.2973
X12.257Y-1.7715
X12.2574Y-0.5409
X12.2574Y-2.0581
X12.2582Y-2.9871
X12.2586Y-2.2323
X12.259Y-2.3026
X12.2595Y-1.8434
X12.2601Y-2.909
X12.2602Y-3.4307
X12.2615Y-2.451
X12.2617Y-0.891
X12.2618Y-1.6232
X12.2621Y-2.5144
X12.2625Y-2.6524
X12.2625Y-0.6831
X12.2625Y-0.8134
X12.2626Y-4.0387
X12.2631Y-3.2332
X12.2631Y-1.9897
X12.2636Y-2.7692
X12.2638Y-3.9741
X12.2639Y-3.3634
X12.2653Y-2.1282
X12.2654Y-1.1754
X12.2661Y-0.9501
X12.2667Y-3.7915
X12.2846Y-0.6402
X12.2857Y-1.3077
X12.2863Y-1.6643
X12.2864Y-2.0844
X12.2866Y-2.9489
X12.2867Y-3.0897
X12.2869Y-1.8817
X12.2891Y-1.804
X12.2891Y-0.1165
X12.2905Y-3.5485
X12.291Y-2.6891
X12.2912Y-2.0165
X12.2914Y-0.9181
X12.2919Y-1.1358
X12.2933Y-1.7367
X12.2942Y-2.6319
X12.2946Y-1.2032
X12.295Y-0.5057
X12.2953Y-2.1584
X12.2954Y-2.474
X12.2958Y-4.0069
X12.2958Y-2.2635
X12.2959Y-2.4051
X12.2965Y-4.1843
X12.2966Y-0.5615
X12.2973Y-4.3173
X12.2973Y-4.8123
X12.2977Y-3.3319
X12.2982Y-0.784
X12.2983Y-1.591
X12.2985Y-2.5512
X12.2985Y-3.1559
X12.2987Y-2.3404
X12.2992Y-3.2682
X12.2993Y-3.0137
X12.3005Y-0.8551
X12.3006Y-1.3806
X12.3008Y-3.4073
X12.3021Y-3.4808
X12.3212Y-1.704
X12.3222Y-1.6305
X12.3246Y-0.6751
X12.3254Y-4.2116
X12.3255Y-0.5327
X12.3269Y-4.5061
X12.3273Y-4.7106
X12.3283Y-4.0401
X12.3295Y-1.7789
X12.3305Y-1.3521
X12.3318Y-4.3576
X12.3327Y-0.8118
X12.3336Y-4.1427
X12.3337Y-0.0731
X12.3338Y-3.9636
X12.3339Y-4.8611
X12.334Y-1.5652
X12.3341Y-4.4348
X12.335Y-0.8898
X12.3364Y-1.8459
X12.3364Y-0.2159
X12.3372Y-1.1631
X12.3373Y-0.6025
X12.3566Y-1.666
X12.3573Y-4.4696
X12.3599Y-0.5757
X12.3601Y-1.2107
X12.3623Y-4.3194
X12.3637Y-0.1152
X12.3654Y-0.7782
X12.3661Y-4.184
X12.3672Y-0.8499
X12.3687Y-1.3178
X12.3698Y-0.6409
X12.3706Y-1.7462
X12.3713Y-4.4039
X12.3713Y-4.8235
X12.3716Y-1.8175
X12.3722Y-4.0015
X12.3729Y-0.9311
X12.3919Y-2.049
X12.3942Y-0.8179
X12.3943Y-2.4909
X12.395Y-0.6095
X12.3952Y-3.2666
X12.3956Y-2.2785
X12.3958Y-4.4991
X12.3963Y-3.613
X12.3964Y-4.1404
X12.3969Y-0.8879
X12.3971Y-3.1959
X12.3973Y-3.0541
X12.3975Y-2.9769
X12.3976Y-2.6287
X12.3977Y-2.1947
X12.399Y-4.3626
X12.399Y-0.6687
X12.3991Y-4.4307
X12.4013Y-0.5266
X12.4015Y-1.9791
X12.4019Y-2.1357
X12.4024Y-3.9734
X12.403Y-2.9095
X12.4032Y-4.2154
X12.4033Y-1.174
X12.4034Y-2.3474
X12.4034Y-2.6894
X12.4034Y-3.4728
X12.4044Y-2.558
X12.4046Y-2.4162
X12.4047Y-0.0701
X12.405Y-3.5371
X12.4056Y-3.1269
X12.4057Y-3.324
X12.4063Y-3.6821
X12.4071Y-3.4104
X12.4073Y-2.7737
X12.4084Y-1.3484
X12.4268Y-3.6431
X12.4276Y-3.0915
X12.428Y-4.4688
X12.4285Y-3.1585
X12.4308Y-2.6603
X12.4317Y-4.5375
X12.4318Y-0.7812
X12.4322Y-2.2388
X12.4345Y-2.7293
X12.4345Y-3.3724
X12.4347Y-3.4304
X12.4353Y-2.3686
X12.4359Y-4.3171
X12.4362Y-2.4462
X12.4366Y-3.2189
X12.4367Y-3.3009
X12.4371Y-0.6358
X12.4375Y-4.6114
X12.4375Y-2.1694
X12.4377Y-3.7194
X12.4383Y-0.8539
X12.4399Y-0.9181
X12.4403Y-4.1914
X12.4414Y-0.5758
X12.4419Y-3.5744
X12.4423Y-4.4035
X12.4432Y-2.2987
X12.4433Y-3.5115
X12.4433Y-2.5146
X12.4434Y-2.805
X12.4434Y-2.5828
X12.4619Y-0.6061
X12.4619Y-0.8198
X12.4635Y-4.5022
X12.464Y-2.3337
X12.4642Y-0.074
X12.4645Y-3.1217
X12.4652Y-2.2785
X12.4653Y-4.5734
X12.4655Y-3.4709
X12.4668Y-3.4024
X12.4681Y-0.6736
X12.4682Y-2.6235
X12.4688Y-2.5606
X12.469Y-3.5421
X12.4696Y-0.9499
X12.4708Y-2.1956
X12.4714Y-2.7612
X12.4716Y-0.8886
X12.472Y-3.3387
X12.4725Y-3.7571
X12.4729Y-3.1968
X12.4732Y-3.6864
X12.4737Y-2.406
X12.4742Y-3.2557
X12.4745Y-4.3675
X12.4747Y-2.6918
X12.4747Y-4.4305
X12.4755Y-2.4802
X12.4763Y-4.2125
X12.4769Y-3.6243
X12.4777Y-0.4967
X12.4785Y-4.6386
X12.4973Y-0.292
X12.4974Y-2.6648
X12.4979Y-2.7957
X12.4981Y-0.4705
X12.4985Y-3.5778
X12.4985Y-2.5178
X12.4986Y-4.8267
X12.4987Y-0.6346
X12.4997Y-1.7788
X12.5004Y-4.7086
X12.5006Y-2.723
X12.5007Y-0.9265
X12.5008Y-3.2285
X12.5008Y-0.7812
X12.5014Y-3.7179
X12.5019Y-2.3121
X12.5053Y-1.6998
X12.5054Y-3.6551
X12.5056Y-3.3613
X12.5059Y-3.5118
X12.506Y-3.4425
X12.506Y-4.3952
X12.5067Y-2.5829
X12.5072Y-4.5332
X12.5074Y-0.8499
X12.5076Y-4.3207
X12.5082Y-3.1544
X12.5102Y-4.4688
X12.5106Y-3.2926
X12.5116Y-2.2356
X12.5118Y-3.7954
X12.5124Y-0.5417
X12.514Y-2.378
X12.5143Y-2.4501
X12.5332Y-2.5523
X12.5336Y-2.7614
X12.5338Y-2.3396
X12.5342Y-4.1164
X12.5353Y-3.4812
X12.5359Y-0.8859
X12.5362Y-4.3685
X12.5363Y-0.6785
X12.5364Y-0.0753
X12.5364Y-3.5398
X12.5368Y-4.8476
X12.537Y-3.6925
X12.5372Y-2.6968
X12.5372Y-3.8289
X12.5375Y-3.753
X12.5377Y-3.3344
X12.5379Y-0.9542
X12.538Y-0.566
X12.538Y-2.4778
X12.5397Y-2.2735
X12.5414Y-3.1148
X12.5416Y-2.6299
X12.5436Y-3.257
X12.5437Y-3.3986
X12.5439Y-3.1876
X12.544Y-4.4241
X12.5455Y-2.4172
X12.5461Y-4.5101
X12.5478Y-0.4907
X12.548Y-0.8184
X12.5483Y-2.1553
X12.5495Y-3.6187
X12.5498Y-1.7389
X12.568Y-2.5099
X12.5683Y-0.7746
X12.5687Y-2.3028
X12.5713Y-4.8266
X12.5718Y-4.3235
X12.5725Y-0.8438
X12.5726Y-0.2448
X12.5728Y-4.3951
X12.5735Y-0.1713
X12.5751Y-4.4725
X12.5755Y-0.5998
X12.5757Y-0.5246
X12.5763Y-1.8817
X12.5766Y-2.5915
X12.5766Y-0.4592
X12.5821Y-2.1975
X12.5823Y-0.9216
X12.583Y-0.1108
X12.5851Y-1.7011
X12.6037Y-1.8506
X12.6041Y-4.358
X12.6052Y-4.7198
X12.6056Y-0.1449
X12.6075Y-0.4935
X12.6079Y-0.8918
X12.6084Y-4.8588
X12.6089Y-0.2164
X12.6091Y-4.4361
X12.6093Y-1.4963
X12.6124Y-0.6325
X12.6141Y-2.2281
X12.6154Y-0.5769
X12.6159Y-0.8122
X12.6177Y-1.1732
X12.6184Y-1.7439
X12.6185Y-1.3413
X12.6203Y-0.078
X12.6204Y-2.5464
X12.6388Y-4.3927
X12.6392Y-3.5116
X12.6392Y-1.6591
X12.6395Y-0.1042
X12.6402Y-0.9205
X12.6407Y-2.5947
X12.6412Y-0.2432
X12.6419Y-4.3218
X12.642Y-1.2087
X12.6424Y-3.4343
X12.6431Y-3.6562
X12.6435Y-1.5196
X12.6438Y-0.469
X12.6443Y-2.2716
X12.6451Y-4.8181
X12.6452Y-3.1523
X12.646Y-2.5152
X12.6461Y-0.7729
X12.6463Y-1.8824
X12.6469Y-0.1732
X12.6499Y-0.8477
X12.6515Y-3.5829
X12.6521Y-1.1276
X12.6527Y-3.3659
X12.6527Y-3.3045
X12.6537Y-1.5928
X12.6538Y-0.6128
X12.6541Y-0.5368
X12.6557Y-0.678
X12.6746Y-1.9172
X12.6748Y-1.6245
X12.6753Y-0.4246
X12.6754Y-3.6086
X12.676Y-4.8516
X12.6763Y-0.3527
X12.6769Y-0.1499
X12.679Y-3.5384
X12.6795Y-4.7226
X12.6811Y-0.2064
X12.6826Y-3.4004
X12.6832Y-1.8502
X12.6834Y-4.3667
X12.6841Y-1.2468
X12.6854Y-0.2921
X12.6857Y-3.1886
X12.6867Y-0.882
X12.6883Y-1.5584
X12.6884Y-0.5627
X12.6885Y-3.2704
X12.6887Y-3.3348
X12.6889Y-1.1716
X12.689Y-0.8151
X12.6893Y-0.6388
X12.6897Y-3.4764
X12.6899Y-0.5052
X12.6899Y-2.5469
X12.6901Y-1.7066
X12.6908Y-0.0674
X12.6908Y-3.128
X12.6919Y-2.2428
X12.7105Y-0.6762
X12.7107Y-4.2901
X12.7133Y-0.2563
X12.7134Y-3.582
X12.7136Y-1.2043
X12.7138Y-1.7437
X12.7146Y-3.4321
X12.7148Y-3.3668
X12.7153Y-1.8737
X12.7158Y-4.8229
X12.7171Y-0.931
X12.7173Y-3.5022
X12.718Y-2.5121
X12.7184Y-0.7886
X12.7184Y-1.6677
X12.7185Y-3.1472
X12.7187Y-2.2745
X12.7189Y-4.3928
X12.719Y-3.2958
X12.7201Y-0.6
X12.7201Y-1.2761
X12.7202Y-1.5908
X12.7206Y-0.1063
X12.7207Y-0.3975
X12.7221Y-0.4626
X12.7226Y-0.8488
X12.7241Y-0.1864
X12.7246Y-3.2325
X12.7252Y-1.133
X12.7269Y-0.5247
X12.7273Y-0.3273
X12.7458Y-0.3554
X12.7462Y-0.8828
X12.7463Y-0.2838
X12.7463Y-1.3082
X12.7464Y-0.2183
X12.7468Y-0.5051
X12.749Y-0.9512
X12.7496Y-0.8183
X12.7508Y-1.1051
X12.7511Y-4.3323
X12.7517Y-3.4816
X12.7519Y-3.1973
X12.7524Y-1.0235
X12.7542Y-0.6477
X12.7548Y-3.3325
X12.755Y-1.167
X12.7551Y-3.2552
X12.7555Y-3.3987
X12.7565Y-0.5676
X12.7565Y-4.7124
X12.7567Y-3.124
X12.7568Y-1.9124
X12.7573Y-4.8595
X12.7577Y-0.1515
X12.7578Y-1.6287
X12.7587Y-1.837
X12.7589Y-2.3071
X12.7593Y-2.235
X12.7601Y-0.0674
X12.7607Y-3.5454
X12.7609Y-4.0393
X12.7616Y-1.2419
X12.7619Y-0.4238
X12.7626Y-1.7105
X12.7805Y-1.3423
X12.7805Y-0.3904
X12.7817Y-3.5102
X12.7825Y-3.3665
X12.7834Y-0.9907
X12.7837Y-4.0773
X12.7842Y-0.2505
X12.7856Y-0.8589
X12.7858Y-4.3595
X12.7859Y-1.7434
X12.7862Y-0.9248
X12.7868Y-4.0053
X12.7871Y-1.1306
X12.7895Y-4.8227
X12.7899Y-1.0723
X12.7915Y-0.4652
X12.7916Y-3.2209
X12.7924Y-0.1026
X12.7927Y-1.2134
X12.7938Y-3.4318
X12.7938Y-0.527
X12.795Y-0.7777
X12.7956Y-1.6726
X12.7958Y-1.8744
X12.796Y-1.2742
X12.7965Y-0.1786
X12.797Y-0.3293
X12.7971Y-0.5973
X12.7975Y-0.6838
X12.7977Y-4.4376
X12.7981Y-3.2985
X12.8161Y-3.1863
X12.8184Y-3.6898
X12.819Y-0.07
X12.8207Y-4.0463
X12.8209Y-0.9504
X12.8209Y-0.1428
X12.8219Y-0.8846
X12.822Y-1.3088
X12.8224Y-0.2819
X12.8226Y-0.2075
X12.8244Y-1.1755
X12.8245Y-1.0238
X12.8254Y-0.8198
X12.8255Y-1.8462
X12.8259Y-4.4729
X12.8277Y-1.3852
X12.8281Y-3.4759
X12.8289Y-4.4014
X12.8289Y-1.2507
X12.831Y-1.1082
X12.8325Y-3.3241
X12.833Y-3.2537
X12.8331Y-3.3994
X12.8332Y-4.8586
X12.8524Y-1.7302
X12.8527Y-4.8281
X12.855Y-3.4394
X12.8558Y-0.7759
X12.8559Y-4.2123
X12.8568Y-0.1121
X12.8573Y-0.25
X12.8573Y-0.8591
X12.8577Y-0.9302
X12.8587Y-3.3759
X12.8588Y-3.2293
X12.8592Y-3.7265
X12.8596Y-0.1736
X12.8599Y-4.4345
X12.8612Y-0.9896
X12.8635Y-1.881
X12.8651Y-1.2721
X12.8652Y-4.1558
X12.8654Y-4.0691
X12.8672Y-1.2016
X12.8675Y-3.3024
X12.8876Y-0.881
X12.8888Y-4.1097
X12.8892Y-0.8222
X12.8897Y-3.3988
X12.8932Y-3.3321
X12.8936Y-4.2569
X12.8938Y-4.1892
X12.894Y-0.6363
X12.8968Y-4.8568
X12.8974Y-4.037
X12.8986Y-0.1466
X12.899Y-3.2538
X12.9023Y-0.4962
X12.9034Y-0.064
X12.9224Y-0.4709
X12.9233Y-3.3598
X12.9243Y-4.2138
X12.9246Y-4.0785
X12.9267Y-0.5279
X12.9268Y-0.6814
X12.9277Y-3.0902
X12.9334Y-4.1411
X12.9337Y-3.3004
X12.9348Y-0.9187
X12.9363Y-4.2947
X12.9363Y-0.7834
X12.9375Y-0.853
X12.9385Y-0.1044
X12.9395Y-0.6061
X12.958Y-4.187
X12.9584Y-3.1223
X12.9592Y-4.2622
X12.96Y-0.0658
X12.96Y-2.3112
X12.9608Y-3.0174
X12.961Y-3.4
X12.962Y-4.0042
X12.9639Y-3.3411
X12.9644Y-4.3191
X12.9658Y-0.503
X12.9695Y-4.1034
X12.97Y-0.6391
X12.9703Y-0.5689
X12.974Y-0.1374
X12.9746Y-0.8082
X12.9751Y-0.8819
X12.9935Y-2.9796
X12.9937Y-4.2184
X12.995Y-0.4589
X12.9954Y-1.4983
X12.9963Y-3.9729
X12.997Y-0.54
X12.9978Y-4.2901
X12.998Y-0.1132
X12.9996Y-3.7999
X13.0001Y-0.8581
X13.0001Y-4.1508
X13.0009Y-0.6061
X13.0016Y-1.5607
X13.0026Y-0.6835
X13.0037Y-3.3662
X13.0041Y-3.1579
X13.0041Y-0.9222
X13.006Y-0.7807
X13.0061Y-4.0394
X13.0089Y-3.0427
X13.0107Y-2.339
X13.0297Y-4.3311
X13.0312Y-0.4919
X13.0314Y-4.2563
X13.0323Y-3.0782
X13.033Y-0.8894
X13.0339Y-4.0128
X13.0339Y-3.3966
X13.0355Y-0.5722
X13.0378Y-4.8265
X13.0388Y-1.6036
X13.0388Y-4.1759
X13.0388Y-4.0826
X13.0399Y-1.7467
X13.0406Y-0.6327
X13.042Y-3.1837
X13.0425Y-1.5234
X13.0429Y-0.8113
X13.0435Y-0.1387
X13.044Y-0.0676
X13.0442Y-3.3271
X13.064Y-0.9149
X13.0674Y-1.5594
X13.0676Y-3.1131
X13.0689Y-4.7215
X13.0695Y-0.1115
X13.0695Y-4.3538
X13.0696Y-4.1119
X13.0702Y-4.4346
X13.0703Y-0.1807
X13.0707Y-0.7876
X13.0707Y-3.4331
X13.071Y-4.2132
X13.072Y-1.8425
X13.072Y-3.2266
X13.0721Y-4.0342
X13.0724Y-0.8542
X13.0732Y-3.3599
X13.0764Y-0.5408
X13.0766Y-4.4998
X13.0768Y-3.9703
X13.0771Y-0.6676
X13.0781Y-1.6286
X13.0783Y-0.6044
X13.079Y-4.2816
X13.1007Y-4.0747
X13.1009Y-4.2553
X13.1009Y-0.8229
X13.103Y-3.1485
X13.1035Y-1.522
X13.1043Y-0.0707
X13.1053Y-3.3974
X13.1064Y-0.9544
X13.1089Y-0.5678
X13.1098Y-1.8755
X13.1099Y-0.6335
X13.1113Y-1.7465
X13.1114Y-1.604
X13.1117Y-4.1526
X13.1119Y-3.4823
X13.1128Y-0.1521
X13.1144Y-4.0067
X13.1145Y-4.4004
X13.1162Y-3.341
X13.1164Y-4.3321
X13.1165Y-0.8882
X13.117Y-0.2213
X13.1349Y-3.0935
X13.1364Y-1.8509
X13.139Y-0.528
X13.1396Y-0.7773
X13.1432Y-0.6731
X13.1433Y-3.7946
X13.1456Y-0.5967
X13.1465Y-3.1836
X13.1478Y-1.6344
X13.1513Y-1.5648
X13.1725Y-3.1183
X13.1737Y-0.5673
X13.1745Y-1.5266
X13.1753Y-0.6387
X13.1762Y-0.8186
X13.1772Y-1.5878
X13.1795Y-3.8218
X13.1806Y-0.074
X13.1818Y-3.2285
X13.2121Y-3.1629
X13.2143Y-3.7546
X13.2283Y-4.6929
X13.2451Y-3.1904
X13.2514Y-3.7238
X13.2531Y-3.7861
X13.2533Y-0.0803
X13.2536Y-2.229
X13.2771Y-1.0308
X13.2775Y-0.5056
X13.279Y-3.9622
X13.2803Y-2.0242
X13.2807Y-1.4937
X13.2809Y-4.8911
X13.2815Y-0.5635
X13.2827Y-1.2837
X13.2832Y-2.4546
X13.2839Y-4.0395
X13.2841Y-0.6428
X13.285Y-4.814
X13.2852Y-1.5649
X13.2868Y-3.2296
X13.2876Y-3.7659
X13.2886Y-0.7871
X13.3124Y-1.2362
X13.3133Y-4.9329
X13.3138Y-4.3311
X13.3143Y-1.5269
X13.3147Y-4.8536
X13.3147Y-3.9271
X13.3149Y-0.811
X13.3151Y-0.9916
X13.3151Y-1.7421
X13.3158Y-3.5183
X13.3159Y-0.9286
X13.3192Y-3.7187
X13.3207Y-0.2413
X13.321Y-0.6096
X13.321Y-0.0687
X13.322Y-1.5891
X13.3221Y-0.1713
X13.3241Y-4.0112
X13.3242Y-4.2588
X13.3252Y-0.5407
X13.3262Y-0.6746
X13.3273Y-1.8368
X13.3286Y-0.4572
X13.3491Y-0.4964
X13.3497Y-4.7105
X13.3506Y-1.0207
X13.3529Y-1.8748
X13.3534Y-0.1095
X13.3544Y-1.5587
X13.3548Y-0.6404
X13.355Y-0.8566
X13.3554Y-3.8955
X13.3561Y-4.2929
X13.3572Y-4.8279
X13.3584Y-4.2229
X13.3607Y-1.4891
X13.3618Y-0.7771
X13.3619Y-4.8991
X13.3625Y-4.3549
X13.3627Y-0.2174
X13.3627Y-1.6406
X13.3631Y-3.9749
X13.3635Y-1.2738
X13.3637Y-0.5658
X13.3648Y-0.9622
X13.3831Y-0.998
X13.3834Y-1.2108
X13.3844Y-3.8681
X13.3852Y-4.2575
X13.3856Y-1.8394
X13.3858Y-0.6718
X13.3873Y-0.0671
X13.3877Y-0.1431
X13.3887Y-4.9194
X13.3888Y-2.226
X13.3893Y-0.8227
X13.3898Y-4.8631
X13.39Y-1.5232
X13.3901Y-1.7432
X13.3913Y-1.5969
X13.3925Y-0.5399
X13.3929Y-0.6073
X13.3944Y-4.1915
X13.3955Y-4.7497
X13.3957Y-2.3092
X13.3977Y-2.769
X13.3978Y-0.2551
X13.3987Y-2.4475
X13.3988Y-0.4702
X13.3997Y-3.9266
X13.3999Y-2.3786
X13.4Y-0.891
X13.4001Y-4.3268
X13.4184Y-1.0323
X13.4191Y-2.403
X13.4193Y-0.6476
X13.4196Y-0.4336
X13.42Y-0.1023
X13.4203Y-4.8929
X13.4204Y-4.1471
X13.4205Y-3.8984
X13.4212Y-1.1039
X13.4221Y-1.2347
X13.4232Y-2.3462
X13.4233Y-1.3169
X13.4234Y-0.2827
X13.425Y-1.4475
X13.4251Y-0.1704
X13.4254Y-4.354
X13.4263Y-2.2672
X13.4281Y-2.478
X13.4285Y-0.5652
X13.4312Y-3.8338
X13.4313Y-0.4987
X13.4314Y-1.8804
X13.4314Y-1.6259
X13.4318Y-0.856
X13.4321Y-1.1749
X13.4323Y-4.787
X13.4323Y-0.7856
X13.4331Y-1.5677
X13.4334Y-4.2227
X13.4338Y-1.3768
X13.4344Y-0.3543
X13.435Y-4.7182
X13.4355Y-0.9241
X13.4356Y-4.2911
X13.4358Y-2.1917
X13.4543Y-0.9502
X13.4549Y-4.8272
X13.4559Y-0.6838
X13.456Y-4.1149
X13.4563Y-0.3912
X13.4565Y-0.8966
X13.4565Y-0.3248
X13.4566Y-1.8487
X13.4573Y-0.2167
X13.4576Y-1.286
X13.4579Y-1.2062
X13.4595Y-0.8197
X13.4598Y-1.4146
X13.4603Y-0.6016
X13.4616Y-1.5981
X13.462Y-4.3271
X13.4631Y-0.5344
X13.4633Y-1.3411
X13.4641Y-1.0581
X13.4642Y-0.1459
X13.4648Y-4.1823
X13.466Y-4.7428
X13.4674Y-1.7425
X13.4692Y-1.1422
X13.4694Y-3.8695
X13.4704Y-1.4925
X13.4705Y-0.0736
X13.4706Y-4.258
X13.4708Y-0.4699
X13.4712Y-4.9261
X13.4898Y-1.001
X13.4902Y-0.7834
X13.4913Y-1.311
X13.4913Y-0.8518
X13.4917Y-1.2474
X13.4927Y-1.3831
X13.4927Y-1.4475
X13.4929Y-0.2572
X13.4948Y-0.9211
X13.4951Y-1.5327
X13.4952Y-4.794
X13.4961Y-0.6448
X13.4981Y-0.5721
X13.4983Y-1.0985
X13.4985Y-4.7075
X13.4993Y-0.3591
X13.4996Y-4.0846
X13.5006Y-0.1827
X13.502Y-4.861
X13.5022Y-1.1769
X13.5024Y-1.8752
X13.5047Y-0.4239
X13.5048Y-0.1062
X13.505Y-0.5029
X13.5064Y-4.1412
X13.5066Y-1.6387
X13.5255Y-0.2126
X13.5257Y-1.4206
X13.5257Y-1.3461
X13.5261Y-4.8831
X13.5272Y-0.5398
X13.5276Y-1.1989
X13.5279Y-0.6796
X13.5282Y-2.1616
X13.5283Y-0.1516
X13.5294Y-0.9655
X13.5302Y-4.7479
X13.5303Y-0.078
X13.5304Y-4.8139
X13.5311Y-1.2768
X13.5311Y-0.612
X13.5314Y-4.0398
X13.5317Y-0.8194
X13.5323Y-1.4858
X13.5325Y-1.554
X13.5341Y-1.838
X13.5346Y-4.1039
X13.5349Y-0.2834
X13.5353Y-1.1342
X13.5353Y-0.4678
X13.5365Y-0.8862
X13.537Y-1.0362
X13.5378Y-0.3948
X13.5405Y-1.7316
X13.5417Y-2.6214
X13.5608Y-2.1268
X13.5611Y-4.0104
X13.562Y-1.4552
X13.5623Y-4.8478
X13.5641Y-0.2558
X13.5657Y-1.3192
X13.566Y-4.7779
X13.5662Y-1.3777
X13.5673Y-0.787
X13.5712Y-0.9219
X13.5714Y-4.148
X13.5721Y-4.0754
X13.5721Y-1.1634
X13.5748Y-0.104
X13.575Y-1.0582
X13.5764Y-0.1778
X13.5772Y-0.8532
X13.5773Y-1.242
X13.5777Y-0.9975
X13.5956Y-3.9734
X13.5975Y-1.2043
X13.5977Y-0.9643
X13.5983Y-4.1078
X13.5995Y-1.2738
X13.6026Y-0.0745
X13.6035Y-0.212
X13.604Y-1.0258
X13.604Y-4.0399
X13.6072Y-0.8175
X13.6085Y-1.9915
X13.6086Y-4.1797
X13.609Y-0.1411
X13.6093Y-2.9865
X13.6101Y-0.8931
X13.6338Y-0.7903
X13.6354Y-4.7906
X13.6365Y-0.4949
X13.6379Y-4.1495
X13.6398Y-4.0034
X13.6401Y-4.0829
X13.6405Y-0.1751
X13.6435Y-0.8533
X13.6436Y-0.9269
X13.6463Y-0.111
X13.6664Y-1.6999
X13.6694Y-3.1964
X13.6696Y-0.456
X13.6702Y-1.7686
X13.6703Y-2.3358
X13.6711Y-0.8932
X13.6717Y-0.6835
X13.6717Y-0.1447
X13.672Y-0.7487
X13.6731Y-3.9716
X13.6744Y-2.4551
X13.6748Y-3.1185
X13.6751Y-0.0727
X13.6758Y-1.6312
X13.6776Y-0.5364
X13.6784Y-0.6006
X13.6788Y-4.0409
X13.6789Y-0.8189
X13.679Y-1.5674
X13.6823Y-3.8249
X13.6829Y-2.2723
X13.6839Y-1.841
X13.684Y-4.1126
X13.7032Y-2.3017
X13.7042Y-1.5292
X13.7045Y-0.1041
X13.7049Y-1.5918
X13.7054Y-3.301
X13.7059Y-1.6755
X13.7072Y-1.8745
X13.7098Y-0.5644
X13.7099Y-0.7169
X13.71Y-0.5031
X13.71Y-0.8524
X13.7121Y-0.9176
X13.7144Y-3.2251
X13.7146Y-3.1644
X13.7148Y-3.0898
X13.7155Y-2.3747
X13.7171Y-1.7458
X13.7187Y-0.6343
X13.7187Y-0.7775
X13.7191Y-1.8067
X13.7372Y-1.9075
X13.7382Y-0.076
X13.7391Y-1.7738
X13.7395Y-3.1256
X13.7402Y-0.6669
X13.7408Y-2.4053
X13.741Y-1.4954
X13.7434Y-0.4658
X13.7437Y-2.4879
X13.7465Y-2.345
X13.7471Y-0.8196
X13.7481Y-0.5386
X13.7491Y-0.1448
X13.7494Y-0.6081
X13.7502Y-1.6997
X13.7504Y-0.7529
X13.7515Y-1.8396
X13.7519Y-1.561
X13.7532Y-0.8922
X13.754Y-1.6354
X13.7734Y-0.8609
X13.7735Y-1.5964
X13.7744Y-1.6644
X13.7746Y-1.8813
X13.7747Y-3.8333
X13.7751Y-2.2981
X13.7753Y-0.5649
X13.7755Y-1.735
X13.7756Y-0.7066
X13.776Y-2.4442
X13.7765Y-1.8048
X13.7791Y-0.7872
X13.7794Y-3.7589
X13.7803Y-4.1411
X13.7804Y-4.8909
X13.7813Y-0.4944
X13.7841Y-4.8284
X13.7843Y-0.9298
X13.7848Y-0.1039
X13.7853Y-0.6422
X13.7859Y-1.5244
X13.7863Y-4.7526
X13.789Y-2.5197
X13.7897Y-2.3752
X13.8086Y-1.6283
X13.8087Y-0.8936
X13.8096Y-0.5383
X13.8098Y-4.9321
X13.8099Y-1.8493
X13.8106Y-0.0785
X13.8113Y-2.4076
X13.8128Y-0.75
X13.8129Y-2.481
X13.8131Y-1.914
X13.8134Y-0.1376
X13.8154Y-4.7838
X13.8155Y-2.6994
X13.8175Y-0.819
X13.8184Y-0.6821
X13.8187Y-1.7096
X13.8216Y-4.8572
X13.8223Y-1.7673
X13.8226Y-1.5612
X13.824Y-4.7225
X13.8245Y-0.5956
X13.8252Y-2.3342
X13.844Y-4.8273
X13.845Y-1.67
X13.8462Y-4.7502
X13.8468Y-0.6485
X13.8477Y-1.8078
X13.8491Y-2.2764
X13.8491Y-0.9304
X13.8492Y-2.5255
X13.8498Y-0.7762
X13.8524Y-1.5218
X13.8531Y-2.7343
X13.8533Y-2.3697
X13.854Y-4.8939
X13.8543Y-1.7335
X13.8545Y-0.1849
X13.8547Y-0.707
X13.856Y-0.5717
X13.8574Y-1.5921
X13.8576Y-1.9514
X13.8583Y-0.109
X13.861Y-0.8439
X13.8612Y-1.8718
X13.8612Y-2.4497
X13.8799Y-0.668
X13.8803Y-2.4837
X13.8806Y-4.9325
X13.8818Y-2.3059
X13.8819Y-2.4111
X13.882Y-1.7747
X13.8831Y-0.747
X13.8861Y-4.7836
X13.8871Y-4.5336
X13.8913Y-1.8502
X13.8913Y-1.6389
X13.8918Y-0.8128
X13.8921Y-4.7187
X13.8925Y-0.6062
X13.8943Y-1.5565
X13.8958Y-0.0695
X13.8962Y-0.535
X13.8962Y-4.8506
X13.8965Y-1.6977
X13.9145Y-4.8873
X13.9148Y-1.5255
X13.915Y-1.6643
X13.9155Y-1.6027
X13.9173Y-0.7191
X13.9178Y-0.5729
X13.9194Y-1.7339
X13.9196Y-0.7891
X13.9209Y-4.6445
X13.9219Y-2.2648
X13.9219Y-4.7579
X13.9248Y-1.8072
X13.9251Y-4.8279
X13.9285Y-2.3317
X13.9294Y-0.6331
X13.9298Y-4.5693
X13.9305Y-2.455
X13.9521Y-0.0726
X13.9529Y-2.3846
X13.9535Y-4.8591
X13.9553Y-4.7929
X13.9594Y-4.5041
X13.9609Y-4.679
X13.9636Y-4.6141
X13.964Y-4.9335
X13.9661Y-2.3059
X13.9885Y-4.8946
X13.9897Y-4.9607
X13.9902Y-0.0087
X13.9903Y-2.2761
X13.9917Y-4.5323
X13.9978Y-4.7153
X13.9981Y-2.4073
X13.9984Y-2.344
X13.9989Y-4.6388
X14.0014Y-4.4614
X14.0028Y-4.824
X14.0209Y-0.7738
X14.0209Y-3.2225
X14.0218Y-1.2787
X14.0223Y-1.778
X14.0228Y-4.7572
X14.024Y-1.5665
X14.0243Y-0.0321
X14.0245Y-2.4457
X14.0245Y-0.4974
X14.0251Y-1.6385
X14.0256Y-2.2987
X14.0259Y-1.4817
X14.0267Y-4.565
X14.0277Y-1.0214
X14.0278Y-4.5104
X14.0283Y-0.712
X14.0289Y-0.6422
X14.0298Y-4.8515
X14.0322Y-2.3831
X14.0345Y-4.6815
X14.0348Y-3.9618
X14.0352Y-4.927
X14.0378Y-0.5689
X14.038Y-1.7031
X14.0567Y-0.2576
X14.0571Y-1.5965
X14.0582Y-2.4791
X14.0584Y-4.2565
X14.0592Y-0.073
X14.0599Y-4.6107
X14.0617Y-0.8253
X14.0622Y-0.6025
X14.0623Y-2.3441
X14.0629Y-0.5339
X14.0643Y-4.7189
X14.0661Y-0.678
X14.0665Y-2.0293
X14.0667Y-4.7937
X14.0681Y-1.8054
X14.069Y-0.748
X14.0699Y-2.415
X14.07Y-1.733
X14.0703Y-0.4559
X14.0712Y-4.893
X14.0713Y-1.5289
X14.0716Y-1.663
X14.0731Y-4.96
X14.0923Y-4.9183
X14.0933Y-1.7821
X14.094Y-1.9827
X14.0941Y-1.5607
X14.0944Y-0.9902
X14.0951Y-0.6412
X14.0964Y-0.7075
X14.0973Y-1.7058
X14.0974Y-1.4983
X14.0983Y-2.9746
X14.0986Y-0.0454
X14.0991Y-0.9164
X14.0993Y-1.9177
X14.0998Y-0.8486
X14.1003Y-4.2249
X14.1007Y-0.1735
X14.1013Y-1.6362
X14.1025Y-0.5698
X14.1046Y-2.6216
X14.1055Y-4.6363
X14.1057Y-4.7482
X14.1059Y-0.7849
X14.1068Y-0.5045
X14.107Y-1.8396
X14.1082Y-1.2418
X14.1083Y-2.4434
X14.1084Y-4.8192
X14.1086Y-0.108
X14.127Y-0.288
X14.1281Y-4.6044
X14.1285Y-0.7511
X14.1289Y-0.8865
X14.1293Y-0.6705
X14.1295Y-1.6672
X14.1296Y-4.6877
X14.1298Y-4.7941
X14.1303Y-4.9673
X14.1305Y-2.0217
X14.1311Y-0.6004
X14.1312Y-2.6569
X14.1316Y-0.4695
X14.1321Y-1.6042
X14.133Y-1.8775
X14.1336Y-1.5188
X14.1343Y-2.5905
X14.1348Y-3.2214
X14.1354Y-0.215
X14.1365Y-0.5411
X14.1365Y-3.0062
X14.1375Y-1.9505
X14.1379Y-4.8612
X14.1381Y-4.2481
X14.1393Y-0.0816
X14.1396Y-1.2749
X14.1403Y-3.9421
X14.1407Y-1.0316
X14.141Y-0.8113
X14.1417Y-3.8682
X14.1418Y-1.817
X14.1422Y-0.9541
X14.1426Y-3.1488
X14.1426Y-0.1505
X14.1435Y-1.7444
X14.1443Y-3.0844
X14.1628Y-0.1856
X14.1633Y-1.313
X14.1641Y-1.4568
X14.1643Y-0.9942
X14.1652Y-0.2566
X14.1652Y-1.3778
X14.1654Y0.0068
X14.1662Y-0.4929
X14.1665Y-4.6394
X14.1667Y-1.1395
X14.1668Y-4.1898
X14.1672Y-4.2828
X14.1681Y-1.7705
X14.1681Y-0.5685
X14.1682Y-4.8127
X14.1689Y-2.5576
X14.1694Y-3.047
X14.1696Y-3.2672
X14.1696Y-1.836
X14.1698Y-4.7082
X14.1698Y-1.9845
X14.17Y-4.0373
X14.1706Y-1.5593
X14.1709Y-2.0608
X14.171Y-0.6477
X14.1712Y-2.9767
X14.1719Y-4.8929
X14.1721Y-1.0584
X14.1724Y-2.6244
X14.1725Y-3.1207
X14.1732Y-3.9009
X14.1735Y-0.9235
X14.1748Y-0.3224
X14.1753Y-3.9652
X14.1756Y-1.9093
X14.1762Y-1.2012
X14.1762Y-0.7069
X14.1764Y-0.387
X14.1768Y-1.709
X14.1773Y-0.7733
X14.1777Y-2.9087
X14.1777Y-0.1032
X14.1789Y-1.6275
X14.1797Y-0.8548
X14.1798Y-5.0013
X14.1801Y-3.1975
T2
X0.2047Y-0.7165
X0.248Y-0.9882
X0.6299Y-0.9834
X0.689Y-4.8583
X0.6929Y-1.7126
X0.6929Y-2.4646
X0.6929Y-3.2126
X0.6929Y-3.9646
X0.9673Y-4.6614
X0.9673Y-4.7034
X0.9685Y-1.1299
X1.0Y-1.1614
X1.0039Y-4.3898
X1.0079Y-4.6614
X1.0276Y-1.7126
X1.0394Y-3.9646
X1.0748Y-4.5079
X1.1024Y-0.7598
X1.1181Y-4.6181
X1.2126Y-2.4646
X1.3071Y-3.2126
X1.315Y-4.4567
X1.3228Y-4.5551
X1.6063Y-4.6575
X1.6102Y-4.5551
X1.6102Y-4.8386
X1.6575Y-2.7362
X2.0748Y-4.5551
X2.0787Y-4.6654
X2.0827Y-4.8465
X2.252Y-4.0787
X2.3543Y-4.126
X2.437Y-4.2362
X2.5394Y-4.5512
X2.5394Y-4.6614
X2.5394Y-4.8425
X2.9409Y-4.5551
X2.9409Y-4.6654
X2.9488Y-4.8465
X4.1378Y-3.9571
X4.3504Y-3.9284
X4.5709Y-4.5827
X4.6063Y-4.5393
X4.7774Y-4.8329
X4.8053Y-4.8049
X4.8701Y-3.9291
X4.9096Y-3.9291
X4.9491Y-3.9291
X4.9882Y-3.2953
X4.9886Y-3.9291
X5.0276Y-1.7835
X5.1024Y-3.8543
X5.2244Y-2.5472
X5.2283Y-3.9291
X5.2283Y-4.1378
X5.2598Y-0.7717
X5.2717Y-3.9291
X5.4843Y-3.9284
X5.5512Y-4.1378
X5.7244Y-3.9752
X5.9724Y-3.8504
X5.9724Y-3.9488
X6.3228Y-3.8465
X6.3228Y-3.9488
X6.7244Y-3.8425
X6.7244Y-3.9528
X6.9094Y-3.9932
X7.0394Y-3.8425
X7.0394Y-3.9488
X7.437Y-3.8386
X7.4409Y-3.9488
X7.6614Y-4.0112
X7.8543Y-3.8346
X7.8583Y-3.9488
X8.2205Y-3.8386
X8.2244Y-3.9449
X8.5906Y-3.8346
X8.5906Y-3.9488
X8.937Y-4.6555
X8.937Y-4.7736
X9.0276Y-3.8543
X9.0276Y-3.9449
X9.1614Y-4.8216
X9.4016Y-3.8543
X9.4016Y-3.9449
X9.4094Y-4.6555
X9.4094Y-4.7835
X9.6614Y-4.8396
X11.2087Y-4.0236
X11.2126Y-4.126
X11.3346Y-1.7165
X11.4528Y-4.2362
X11.4724Y-4.7974
X11.4961Y-4.3386
X11.5827Y-1.8386
X11.6181Y-4.7047
X11.6181Y-4.8268
X11.878Y-4.0315
X11.8819Y-4.1299
X12.1024Y-4.2402
X12.1063Y-4.3386
X12.2244Y-4.8756
X12.4291Y-1.878
X12.4331Y-4.7126
X12.437Y-4.8307
X12.685Y-2.9646
X12.7677Y-4.1535
X12.7953Y-1.4567
X12.8346Y-3.1142
X12.9724Y-4.8936
X13.1417Y-4.7008
X13.1417Y-4.8268
X13.1692Y-4.5157
X13.1692Y-4.8858
X13.2087Y-4.5157
X13.2087Y-4.8858
X13.3425Y-4.4488
X13.3701Y-3.2874
X13.5Y-4.6142
X13.5315Y-3.2874
X13.5394Y-4.2362
X13.5945Y-4.3386
X13.6417Y-4.8504
X13.6732Y-4.5118
X13.6957Y-3.3807
X13.7126Y-4.9213
X13.7795Y-4.5157
T3
X0.7835Y-1.0472
X0.9173Y-1.0472
X4.5197Y-4.2559
X4.66Y-4.5852
X4.7717Y-4.6969
X4.9528Y-4.8071
X5.0276Y-4.122
X5.252Y-4.5827
X12.5571Y-1.5709
X14.0128Y0.1575
X14.0361Y0.2139
X14.0361Y0.1011
X14.0925Y0.2372
X14.0925Y0.0778
X14.1489Y0.2139
X14.1489Y0.1011
X14.1722Y0.1575
X7.0453Y0.1575
X7.0686Y0.2139
X7.0686Y0.1011
X7.125Y0.2372
X7.125Y0.0778
X7.1814Y0.2139
X7.1814Y0.1011
X7.2047Y0.1575
X0.0778Y-5.1575
X0.1011Y-5.1011
X0.1011Y-5.2139
X0.1575Y-5.0778
X0.1575Y-5.2372
X0.2139Y-5.1011
X0.2139Y-5.2139
X0.2372Y-5.1575
X3.5615Y-5.1575
X3.5849Y-5.1011
X3.5849Y-5.2139
X3.6412Y-5.0778
X3.6412Y-5.2372
X3.6976Y-5.1011
X3.6976Y-5.2139
X3.721Y-5.1575
X10.529Y0.1575
X10.5524Y0.2139
X10.5524Y0.1011
X10.6088Y0.2372
X10.6088Y0.0778
X10.6651Y0.2139
X10.6651Y0.1011
X10.6885Y0.1575
X3.5615Y0.1575
X3.5849Y0.2139
X3.5849Y0.1011
X3.6412Y0.2372
X3.6412Y0.0778
X3.6976Y0.2139
X3.6976Y0.1011
X3.721Y0.1575
X7.0453Y-5.1575
X7.0686Y-5.1011
X7.0686Y-5.2139
X7.125Y-5.0778
X7.125Y-5.2372
X7.1814Y-5.1011
X7.1814Y-5.2139
X7.2047Y-5.1575
X10.529Y-5.1575
X10.5524Y-5.1011
X10.5524Y-5.2139
X10.6088Y-5.0778
X10.6088Y-5.2372
X10.6651Y-5.1011
X10.6651Y-5.2139
X10.6885Y-5.1575
X14.0128Y-5.1575
X14.0361Y-5.1011
X14.0361Y-5.2139
X14.0925Y-5.0778
X14.0925Y-5.2372
X14.1489Y-5.1011
X14.1489Y-5.2139
X14.1722Y-5.1575
X0.0778Y0.1575
X0.1011Y0.2139
X0.1011Y0.1011
X0.1575Y0.2372
X0.1575Y0.0778
X0.2139Y0.2139
X0.2139Y0.1011
X0.2372Y0.1575
T4
X4.5039Y-4.626
X4.5748Y-4.7953
X4.6148Y-4.1917
X4.689Y-4.1535
X12.4291Y-1.5236
T5
X0.0931Y-0.825
X0.0931Y-0.875
X0.0931Y-0.925
X0.1431Y-0.825
X0.1431Y-0.875
X0.1431Y-0.925
T6
X0.152Y-0.1855
X0.3224Y-0.0871
X0.4374Y-0.6799
X0.5226Y-0.6307
X0.6079Y-0.5815
X13.5647Y-2.3998
X13.6032Y-2.4904
X13.6417Y-2.581
X14.0902Y-2.1767
X14.1671Y-2.3579
T7
X2.975Y-0.275
X3.225Y-0.175
X2.2563Y-4.275
X2.5063Y-4.175
X8.1625Y-3.525
X8.4125Y-3.425
X0.225Y-1.525
X0.475Y-1.425
X12.975Y-2.775
X13.225Y-2.675
X10.225Y-0.275
X10.475Y-0.175
X5.9125Y-3.525
X6.1625Y-3.425
X2.725Y-1.275
X2.975Y-1.175
X7.0375Y-2.775
X7.2875Y-2.675
X8.35Y-2.025
X8.6Y-1.925
X12.975Y-3.525
X13.225Y-3.425
X3.475Y-0.275
X3.725Y-0.175
X0.225Y-2.275
X0.475Y-2.175
X10.6Y-2.025
X10.85Y-1.925
X2.5375Y-2.775
X2.7875Y-2.675
X6.85Y-0.275
X7.1Y-0.175
X5.35Y-2.025
X5.6Y-1.925
X0.225Y-1.275
X0.475Y-1.175
X1.225Y-1.275
X1.475Y-1.175
X12.725Y-4.525
X12.975Y-4.425
X4.7875Y-2.775
X5.0375Y-2.675
X2.225Y-0.275
X2.475Y-0.175
X0.225Y-4.275
X0.475Y-4.175
X4.6Y-0.275
X4.85Y-0.175
X13.975Y-3.1
X14.075Y-3.35
X1.975Y-1.275
X2.225Y-1.175
X12.975Y-1.275
X13.225Y-1.175
X13.725Y-0.275
X13.975Y-0.175
X1.3187Y-2.775
X1.5687Y-2.675
X2.35Y-2.025
X2.6Y-1.925
X13.725Y-1.025
X13.975Y-0.925
X8.725Y-0.275
X8.975Y-0.175
X12.675Y-2.4
X12.775Y-2.65
X10.0375Y-2.775
X10.2875Y-2.675
X10.225Y-1.275
X10.475Y-1.175
X8.9125Y-3.525
X9.1625Y-3.425
X12.975Y-2.025
X13.225Y-1.925
X4.0375Y-2.775
X4.2875Y-2.675
X5.725Y-1.275
X5.975Y-1.175
X1.4125Y-4.275
X1.6625Y-4.175
X4.4125Y-3.525
X4.6625Y-3.425
X9.1Y-2.025
X9.35Y-1.925
X1.6937Y-3.525
X1.9437Y-3.425
X12.975Y-1.025
X13.225Y-0.925
X7.4125Y-3.525
X7.6625Y-3.425
X11.225Y-0.275
X11.475Y-0.175
X13.725Y-1.275
X13.975Y-1.175
X2.9125Y-3.525
X3.1625Y-3.425
X3.6625Y-3.525
X3.9125Y-3.425
X6.475Y-1.275
X6.725Y-1.175
X8.975Y-0.275
X9.225Y-0.175
X3.85Y-2.025
X4.1Y-1.925
X7.85Y-0.275
X8.1Y-0.175
X11.225Y-4.525
X11.475Y-4.425
X5.35Y-0.275
X5.6Y-0.175
X6.2875Y-2.775
X6.5375Y-2.675
X11.675Y-1.275
X11.775Y-1.525
X13.975Y-3.85
X14.075Y-4.1
X5.5375Y-2.775
X5.7875Y-2.675
X7.975Y-0.275
X8.225Y-0.175
X3.2875Y-2.775
X3.5375Y-2.675
X6.85Y-2.025
X7.1Y-1.925
X2.725Y-0.275
X2.975Y-0.175
X9.2875Y-2.775
X9.5375Y-2.675
X1.225Y-0.275
X1.475Y-0.175
X6.1Y-4.275
X6.35Y-4.175
X6.1Y-0.275
X6.35Y-0.175
X9.6625Y-3.525
X9.9125Y-3.425
X4.225Y-1.275
X4.475Y-1.175
X11.8812Y-2.35
X11.9812Y-2.6
X0.225Y-3.025
X0.475Y-2.925
X13.725Y-2.025
X13.975Y-1.925
X8.725Y-1.275
X8.975Y-1.175
X1.975Y-0.275
X2.225Y-0.175
X0.225Y-4.525
X0.475Y-4.425
X2.1625Y-3.525
X2.4125Y-3.425
X4.975Y-1.275
X5.225Y-1.175
X11.975Y-3.775
X12.225Y-3.675
X9.85Y-4.275
X10.1Y-4.175
X12.725Y-2.775
X12.975Y-2.675
X10.7875Y-2.775
X11.0375Y-2.675
X7.225Y-1.275
X7.475Y-1.175
X1.3187Y-4.275
X1.5687Y-4.175
X2.35Y-4.275
X2.6Y-4.175
X7.6Y-2.025
X7.85Y-1.925
X1.2688Y-3.525
X1.3687Y-3.775
X5.1625Y-3.525
X5.4125Y-3.425
X3.475Y-1.275
X3.725Y-1.175
X0.225Y-3.525
X0.475Y-3.425
X8.9125Y-4.275
X9.1625Y-4.175
X6.6625Y-3.525
X6.9125Y-3.425
X7.975Y-1.275
X8.225Y-1.175
X3.725Y-0.275
X3.975Y-0.175
X10.6937Y-3.525
X10.9437Y-3.425
X7.1Y-0.275
X7.35Y-0.175
X6.0062Y-4.275
X6.2562Y-4.175
X11.725Y-3.525
X11.975Y-3.425
X9.475Y-1.275
X9.725Y-1.175
X4.475Y-0.275
X4.725Y-0.175
X4.6Y-2.025
X4.85Y-1.925
X11.5375Y-2.025
X11.7875Y-1.925
X9.475Y-0.275
X9.725Y-0.175
X13.225Y-2.35
X13.325Y-2.6
X9.85Y-2.025
X10.1Y-1.925
X11.2562Y-2.775
X11.5062Y-2.675
X10.975Y-1.275
X11.225Y-1.175
X0.225Y-3.775
X0.475Y-3.675
X5.6Y-0.275
X5.85Y-0.175
X11.0687Y-3.525
X11.3187Y-3.425
X13.475Y-4.525
X13.725Y-4.425
X7.7875Y-2.775
X8.0375Y-2.675
X10.0375Y-4.275
X10.2875Y-4.175
X10.475Y-0.275
X10.725Y-0.175
X6.725Y-4.225
X6.825Y-4.475
X0.225Y-2.775
X0.475Y-2.675
X6.1Y-2.025
X6.35Y-1.925
X11.35Y-1.275
X11.6Y-1.175
X3.1938Y-4.275
X3.4438Y-4.175
X3.2875Y-4.275
X3.5375Y-4.175
X12.725Y-3.775
X12.975Y-3.675
X1.5062Y-2.775
X1.7562Y-2.675
X9.725Y-0.275
X9.975Y-0.175
X13.725Y-4.275
X13.975Y-4.175
X0.225Y-2.025
X0.475Y-1.925
X12.975Y-0.275
X13.225Y-0.175
X12.725Y-2.025
X12.975Y-1.925
X3.1Y-2.025
X3.35Y-1.925
X0.225Y-0.275
X0.475Y-0.175
X12.225Y-0.275
X12.475Y-0.175
X13.725Y-2.775
X13.975Y-2.675
X11.975Y-4.525
X12.225Y-4.425
X6.35Y-0.275
X6.6Y-0.175
X10.7875Y-4.275
X11.0375Y-4.175
X8.5375Y-2.775
X8.7875Y-2.675
X1.4125Y-2.025
X1.6625Y-1.925
X13.725Y-3.525
X13.975Y-3.425
T8
X3.6412Y-5.1575
X10.6088Y0.1575
X3.6412Y0.1575
X7.125Y-5.1575
X10.6088Y-5.1575
X14.0925Y-5.1575
X0.1575Y0.1575
X14.0925Y0.1575
X7.125Y0.1575
X0.1575Y-5.1575
T7
G00X0.1969Y-0.5074
M15
G01X0.1713Y-0.4631
M16
G05
G00X0.5787Y-0.2869
M15
G01X0.5531Y-0.2426
M16
G05
G00X13.7653Y-2.1821
M15
G01X13.8124Y-2.1621
M16
G05
G00X13.9376Y-2.5879
M15
G01X13.9847Y-2.5679
M16
G05
T0
M30
