M48
; DRILL file {KiCad (5.1.2)-1} date 7/1/2019 1:55:23 AM
; FORMAT={-:-/ absolute / inch / decimal}
; #@! TF.CreationDate,2019-07-01T01:55:23-07:00
; #@! TF.GenerationSoftware,Kicad,Pcbnew,(5.1.2)-1
; #@! TF.FileFunction,Plated,1,2,PTH
FMAT,2
INCH
T1C0.0118
T2C0.0157
T3C0.0197
T4C0.0236
T5C0.0256
T6C0.0394
T7C0.0591
T8C0.1063
%
G90
G05
T1
X0.0608Y-3.8678
X0.0609Y-4.7145
X0.0613Y-4.8575
X0.062Y-3.5831
X0.0626Y-0.0054
X0.0631Y-2.7291
X0.064Y-3.4316
X0.0641Y-2.4414
X0.0657Y-1.311
X0.0662Y-1.8761
X0.0666Y-4.1478
X0.0667Y-4.9919
X0.068Y-2.5947
X0.0693Y-2.1564
X0.0694Y-4.4229
X0.07Y-3.7277
X0.0701Y-4.5777
X0.0704Y-1.1797
X0.0716Y-3.1588
X0.0722Y-3.0095
X0.0724Y-2.017
X0.0727Y-1.5947
X0.0732Y-4.2956
X0.0734Y-1.7452
X0.0734Y-2.3053
X0.0747Y-3.304
X0.0751Y-1.4595
X0.0763Y-2.867
X0.0764Y-4.0084
X0.0773Y-1.0327
X0.0957Y-0.2783
X0.1335Y-2.5231
X0.1342Y-2.652
X0.1349Y-1.8106
X0.1365Y-4.794
X0.1376Y-0.6423
X0.1389Y-3.3692
X0.1402Y-4.9353
X0.1416Y-1.1035
X0.1428Y-4.0814
X0.1448Y-3.2263
X0.1721Y-0.0418
X0.1732Y-3.9714
X0.1741Y-1.9071
X0.2053Y-2.5889
X0.2073Y-1.172
X0.2074Y-3.2966
X0.2116Y-1.7431
X0.2135Y-4.1478
X0.2143Y-4.8624
X0.238Y-3.4101
X0.2399Y-4.0414
X0.2414Y-2.4876
X0.2471Y-4.9692
X0.2524Y-1.8467
X0.2794Y-2.6624
X0.3089Y-1.7743
X0.3107Y-1.9203
X0.3121Y-2.5491
X0.3125Y-1.1401
X0.3164Y-0.1835
X0.3174Y-3.2613
X0.3197Y-4.8197
X0.3231Y-0.528
X0.3255Y-4.1085
X0.3517Y-3.3728
X0.3527Y-0.894
X0.3535Y-2.7374
X0.3569Y-4.9305
X0.3594Y-4.21
X0.3935Y-4.0365
X0.3946Y-1.8363
X0.4144Y-2.5172
X0.4147Y-3.2898
X0.4192Y-0.0803
X0.4295Y-4.8594
X0.4554Y-0.8471
X0.4634Y-0.4893
X0.4864Y-4.932
X0.4872Y-4.718
X0.4941Y-4.529
X0.4942Y-0.9569
X0.5232Y-3.223
X0.5238Y-4.8203
X0.5245Y-1.7431
X0.5344Y-2.491
X0.5348Y-1.2734
X0.5375Y-3.9691
X0.557Y-2.0302
X0.5591Y-0.8865
X0.5616Y-3.5075
X0.5618Y-0.0733
X0.5658Y-4.2626
X0.5659Y-2.7637
X0.5674Y-3.3371
X0.5687Y-1.8369
X0.5709Y-2.5943
X0.5733Y-4.0706
X0.5949Y-2.2396
X0.6004Y-3.717
X0.6022Y-2.9704
X0.605Y-1.1304
X0.6069Y-4.8899
X0.607Y-4.4615
X0.6335Y-0.1485
X0.6338Y-4.7063
X0.6346Y-1.917
X0.6358Y-3.4092
X0.6359Y-2.6635
X0.6373Y-1.2365
X0.6377Y-4.1535
X0.6444Y-0.702
X0.6628Y-3.0781
X0.6641Y-0.2844
X0.6643Y-1.6
X0.6644Y-2.3494
X0.6668Y-4.5377
X0.6672Y-3.5444
X0.6688Y-1.8052
X0.6702Y-3.2981
X0.671Y-4.0359
X0.6724Y-3.8339
X0.673Y-1.3469
X0.6739Y-4.2819
X0.6742Y-2.0528
X0.6758Y-2.8013
X0.6775Y-2.5537
X0.7012Y-1.4591
X0.7028Y-3.6451
X0.7046Y-4.3876
X0.7082Y-2.1547
X0.7093Y-2.9126
X0.7111Y-0.0649
X0.7123Y-0.5603
X0.7131Y-0.8587
X0.7334Y-0.3475
X0.7432Y-4.6114
X0.7432Y-0.1838
X0.7436Y-1.202
X0.745Y-4.118
X0.7461Y-1.8789
X0.7498Y-0.6675
X0.7505Y-2.6315
X0.7506Y-3.3623
X0.7688Y-1.5278
X0.7695Y-4.7917
X0.7709Y-2.9758
X0.7731Y-3.4661
X0.7733Y-2.3812
X0.7734Y-3.7243
X0.7735Y-1.9787
X0.7798Y-2.2388
X0.7803Y-4.458
X0.7808Y-4.2191
X0.7815Y-2.7246
X0.7845Y-1.3118
X0.7846Y-3.1268
X0.7848Y-4.9343
X0.7861Y-3.8657
X0.8156Y-0.2518
X0.8156Y-0.607
X0.816Y-0.1036
X0.8449Y-0.7108
X0.8554Y-0.3956
X0.8822Y-0.1787
X0.9106Y-4.9293
X0.9179Y-0.4642
X0.9194Y-0.8487
X0.9206Y-0.2924
X0.9242Y-0.0675
X0.9855Y-0.5416
X0.9919Y-0.3507
X0.9953Y-0.1501
X1.0171Y-4.034
X1.0175Y-3.8357
X1.0184Y-2.5155
X1.0187Y-2.6631
X1.0215Y-1.3826
X1.0222Y-2.0895
X1.0223Y-1.8012
X1.0227Y-3.2652
X1.024Y-2.2273
X1.0242Y-1.2403
X1.0248Y-2.7923
X1.027Y-2.384
X1.0283Y-1.5305
X1.0285Y-4.1888
X1.0291Y-3.0926
X1.0293Y-3.692
X1.0302Y-1.9587
X1.0314Y-3.4087
X1.0316Y-3.5384
X1.032Y-0.2469
X1.0324Y-4.327
X1.0325Y-2.9506
X1.0625Y-0.6366
X1.0634Y-0.4275
X1.0674Y-0.0803
X1.0688Y-1.0692
X1.0892Y-2.8696
X1.0901Y-3.3326
X1.0906Y-0.8523
X1.0935Y-4.1173
X1.0948Y-0.1722
X1.0964Y-3.1587
X1.0967Y-2.1661
X1.0981Y-2.7385
X1.0983Y-3.9016
X1.0985Y-2.5925
X1.0987Y-4.2521
X1.0991Y-1.8817
X1.0998Y-3.7632
X1.1013Y-2.0239
X1.1016Y-3.0111
X1.1027Y-2.3062
X1.1038Y-3.4828
X1.1043Y-3.6166
X1.1255Y-0.9524
X1.1312Y-2.411
X1.1313Y-4.8619
X1.1356Y-1.2069
X1.1404Y-1.7661
X1.1405Y-0.5061
X1.1602Y-3.2631
X1.1606Y-1.105
X1.1606Y-1.4819
X1.1607Y-1.9514
X1.163Y-2.0855
X1.164Y-2.2399
X1.1663Y-4.1769
X1.167Y-0.1014
X1.1673Y-2.6521
X1.1683Y-3.5479
X1.1704Y-0.6666
X1.171Y-3.679
X1.1715Y-3.405
X1.1718Y-2.805
X1.175Y-2.9435
X1.1753Y-3.0877
X1.1759Y-1.6239
X1.1943Y-3.9268
X1.1961Y-2.5586
X1.1963Y-0.7817
X1.2008Y-3.7966
X1.2044Y-1.8402
X1.2106Y-2.3319
X1.2307Y-2.0219
X1.2311Y-2.1655
X1.2322Y-3.1578
X1.2327Y-0.5741
X1.2385Y-0.8802
X1.2426Y-3.009
X1.2436Y-1.0284
X1.2445Y-3.334
X1.2449Y-4.106
X1.2457Y-1.5661
X1.2667Y-1.9175
X1.2707Y-0.0687
X1.2714Y-3.6432
X1.2743Y-4.8602
X1.2744Y-2.6153
X1.2775Y-1.6724
X1.3006Y-0.1858
X1.3028Y-0.8244
X1.3032Y-1.7691
X1.3037Y-2.4152
X1.3047Y-0.6478
X1.3131Y-3.0852
X1.3132Y-1.1062
X1.3143Y-0.9642
X1.3358Y-1.2139
X1.3386Y-0.5272
X1.3436Y-2.2416
X1.3439Y-2.5147
X1.3525Y-1.5202
X1.3768Y-0.1001
X1.3772Y-2.3324
X1.3778Y-1.0315
X1.3812Y-3.1517
X1.3839Y-4.1146
X1.3841Y-0.8863
X1.3846Y-1.6386
X1.3866Y-1.8433
X1.4071Y-4.5313
X1.4116Y-0.7748
X1.4119Y-2.6872
X1.4163Y-3.0095
X1.4167Y-4.8539
X1.4204Y-0.6085
X1.4462Y-1.9227
X1.4528Y-2.412
X1.4549Y-2.2633
X1.4804Y-0.0808
X1.4849Y-2.523
X1.4905Y-3.0783
X1.4947Y-3.2677
X1.5151Y-0.4628
X1.5157Y-1.989
X1.518Y-4.5744
X1.5218Y-0.955
X1.5222Y-1.2719
X1.5224Y-1.6359
X1.5233Y-0.2825
X1.5267Y-2.3424
X1.528Y-3.936
X1.529Y-1.4848
X1.5293Y-0.8127
X1.5295Y-0.6379
X1.5498Y-3.8308
X1.5498Y-3.0097
X1.559Y-3.1513
X1.5604Y-3.3282
X1.5627Y-1.066
X1.5842Y-1.1668
X1.5883Y-1.5541
X1.5926Y-0.529
X1.5946Y-4.0003
X1.5953Y-2.276
X1.5963Y-0.1128
X1.5969Y-2.4039
X1.5972Y-0.8888
X1.6214Y-1.0017
X1.6216Y-3.7304
X1.6221Y-3.0841
X1.6237Y-3.9005
X1.6287Y-0.6753
X1.6306Y-1.8038
X1.6335Y-1.6742
X1.6365Y-0.2229
X1.6557Y-0.7823
X1.6604Y-0.4567
X1.6626Y-1.2488
X1.6634Y-1.3803
X1.6645Y-1.1015
X1.6663Y-0.3168
X1.6906Y-0.9306
X1.6925Y-3.0137
X1.6939Y-4.539
X1.6947Y-4.8529
X1.6985Y-3.9758
X1.6987Y-3.7984
X1.6993Y-3.4028
X1.6996Y-0.0648
X1.7046Y-0.5625
X1.707Y-1.4895
X1.7259Y-2.2366
X1.726Y-1.3166
X1.7271Y-2.3763
X1.7283Y-1.0233
X1.7285Y-1.1725
X1.7297Y-2.5153
X1.738Y-2.014
X1.7396Y-0.1792
X1.74Y-0.387
X1.7402Y-1.5882
X1.741Y-1.7685
X1.7637Y-0.4925
X1.7651Y-3.3316
X1.7697Y-1.8826
X1.7703Y-0.6472
X1.772Y-4.142
X1.7734Y-3.8666
X1.7734Y-0.8143
X1.7743Y-1.4105
X1.7752Y-0.2931
X1.7988Y-3.4337
X1.8025Y-2.3128
X1.8035Y-2.9774
X1.8046Y-3.1198
X1.8057Y-1.1079
X1.8058Y-1.2374
X1.8065Y-0.1116
X1.8069Y-1.5334
X1.8081Y-4.2608
X1.8112Y-4.5703
X1.8113Y-0.9533
X1.8353Y-2.7694
X1.8358Y-1.811
X1.8372Y-2.4154
X1.8376Y-0.2121
X1.841Y-2.1954
X1.8411Y-2.5531
X1.8431Y-3.7653
X1.8436Y-0.5617
X1.8466Y-4.8626
X1.848Y-1.9518
X1.8684Y-3.0505
X1.8696Y-4.1167
X1.8755Y-0.6711
X1.8762Y-1.1778
X1.8774Y-4.3242
X1.8776Y-0.8606
X1.8806Y-1.0332
X1.8809Y-2.6577
X1.8839Y-2.0653
X1.9045Y-0.078
X1.9052Y-4.4265
X1.9074Y-3.1546
X1.9075Y-4.2106
X1.9104Y-2.2751
X1.9128Y-3.2887
X1.9145Y-1.631
X1.9157Y-1.884
X1.9165Y-1.4833
X1.9194Y-0.4905
X1.9388Y-2.1267
X1.9448Y-2.3695
X1.9479Y-2.5132
X1.9509Y-1.0964
X1.9513Y-1.7673
X1.9513Y-2.7291
X1.9521Y-1.9798
X1.9543Y-4.5403
X1.9543Y-2.8731
X1.9741Y-4.0822
X1.9744Y-0.1399
X1.9749Y-4.8516
X1.9754Y-2.6153
X1.9775Y-3.7245
X1.9843Y-1.5606
X1.9898Y-4.2924
X1.9904Y-2.9771
X2.0089Y-1.6613
X2.0111Y-2.0502
X2.0167Y-2.7942
X2.0191Y-1.1708
X2.0192Y-1.8456
X2.0194Y-3.0919
X2.0202Y-0.5349
X2.0214Y-3.9032
X2.0228Y-3.2649
X2.0235Y-2.1929
X2.025Y-4.1832
X2.0251Y-0.7754
X2.0454Y-0.6466
X2.0472Y-2.3029
X2.0513Y-0.8864
X2.0564Y-2.9163
X2.0581Y-4.4611
X2.0591Y-2.6924
X2.0599Y-1.9458
X2.0601Y-3.5033
X2.0604Y-0.0742
X2.0606Y-2.5445
X2.0619Y-3.3607
X2.0801Y-2.1266
X2.0873Y-3.1552
X2.0875Y-4.0345
X2.0886Y-1.5241
X2.0887Y-1.7805
X2.0934Y-4.2601
X2.0969Y-2.4173
X2.0971Y-3.0216
X2.1154Y-3.3006
X2.1184Y-2.2278
X2.1202Y-1.2489
X2.1203Y-0.957
X2.1213Y-4.1498
X2.1253Y-2.6234
X2.1262Y-1.8788
X2.1269Y-2.0251
X2.1296Y-1.6362
X2.1302Y-0.823
X2.1306Y-0.2073
X2.1315Y-2.7719
X2.1512Y-0.6673
X2.1524Y-2.875
X2.1547Y-3.4048
X2.1568Y-4.503
X2.1584Y-3.9427
X2.1603Y-4.8476
X2.1628Y-2.3331
X2.1664Y-3.0854
X2.1669Y-2.5161
X2.1877Y-2.6875
X2.1904Y-1.8119
X2.1958Y-2.9706
X2.197Y-1.9441
X2.1983Y-0.8809
X2.202Y-1.0347
X2.2225Y-1.661
X2.2264Y-3.7644
X2.2296Y-2.8096
X2.2302Y-0.5692
X2.2335Y-3.155
X2.234Y-0.7861
X2.2344Y-2.5869
X2.2345Y-2.4093
X2.257Y-0.954
X2.2576Y-4.5449
X2.2578Y-2.8994
X2.2608Y-3.0503
X2.2631Y-1.4817
X2.2634Y-1.8882
X2.2647Y-3.4802
X2.2666Y-2.2299
X2.2704Y-1.2743
X2.2924Y-0.6347
X2.2939Y-2.6548
X2.3008Y-4.8597
X2.3034Y-1.7758
X2.3036Y-1.0725
X2.3038Y-0.8557
X2.3081Y-2.5144
X2.3085Y-2.3396
X2.3294Y-1.5643
X2.3294Y-2.7667
X2.3312Y-0.5288
X2.3315Y-1.1716
X2.3356Y-2.9753
X2.3414Y-0.142
X2.3438Y-3.125
X2.3653Y-2.266
X2.3655Y-4.5782
X2.3665Y-2.8793
X2.368Y-2.4069
X2.372Y-1.8401
X2.3735Y-2.5935
X2.3756Y-0.9261
X2.376Y-0.7817
X2.4029Y-1.2363
X2.4092Y-1.0318
X2.4144Y-0.603
X2.4144Y-1.6386
X2.4149Y-1.4565
X2.4151Y-2.6975
X2.4342Y-1.3456
X2.4376Y-1.9194
X2.438Y-2.3434
X2.4408Y-3.151
X2.4415Y-0.8547
X2.4427Y-1.1351
X2.4433Y-4.071
X2.4462Y-3.3042
X2.4477Y-4.8589
X2.4485Y-2.5111
X2.4697Y-0.0696
X2.4697Y-1.5193
X2.4704Y-0.5063
X2.4712Y-3.7192
X2.4713Y-3.8661
X2.475Y-0.6829
X2.4753Y-0.9651
X2.4766Y-2.9746
X2.4871Y-2.6232
X2.5051Y-3.0792
X2.5082Y-1.2031
X2.5113Y-3.4074
X2.5139Y-3.9655
X2.5142Y-0.2927
X2.5148Y-1.6738
X2.5164Y-1.065
X2.5168Y-2.2698
X2.5171Y-2.4151
X2.5183Y-0.7742
X2.5208Y-1.4189
X2.5469Y-3.506
X2.5478Y-1.3118
X2.5515Y-0.5621
X2.5522Y-0.8889
X2.556Y-2.5498
X2.5765Y-3.8996
X2.5769Y-0.1112
X2.5784Y-1.769
X2.5796Y-1.1361
X2.5807Y-3.7522
X2.582Y-0.4573
X2.5832Y-2.6576
X2.5845Y-3.0098
X2.5858Y-4.048
X2.591Y-3.332
X2.5916Y-0.998
X2.6115Y-4.8649
X2.6141Y-3.1221
X2.6153Y-0.8165
X2.6166Y-1.2342
X2.6176Y-0.6447
X2.6187Y-3.4446
X2.6234Y-0.2217
X2.6253Y-3.5894
X2.6258Y-4.4639
X2.6475Y-4.5802
X2.6481Y-0.9203
X2.6511Y-1.0657
X2.6562Y-2.734
X2.6574Y-2.2391
X2.658Y-3.6888
X2.659Y-1.4964
X2.6592Y-3.9696
X2.661Y-0.5286
X2.662Y-1.6366
X2.6622Y-2.3721
X2.6849Y-4.2613
X2.6864Y-3.7889
X2.6882Y-0.0651
X2.6894Y-1.8028
X2.6918Y-3.2566
X2.6927Y-4.0742
X2.6935Y-1.1629
X2.6994Y-3.0482
X2.6996Y-3.5026
X2.6997Y-2.0186
X2.7239Y-3.6222
X2.7278Y-4.498
X2.7292Y-3.369
X2.7316Y-1.9108
X2.7326Y-2.2999
X2.7342Y-0.1764
X2.7346Y-1.5675
X2.7546Y-3.8917
X2.7595Y-4.1486
X2.7599Y-2.5536
X2.7645Y-4.8592
X2.7651Y-1.1001
X2.7662Y-1.6671
X2.7676Y-2.4056
X2.7884Y-0.9266
X2.7902Y-4.0405
X2.7918Y-1.7768
X2.7921Y-0.78
X2.7929Y-3.2925
X2.795Y-3.4314
X2.7953Y-3.1219
X2.7963Y-1.9883
X2.7987Y-4.4373
X2.7994Y-4.5785
X2.8006Y-0.5286
X2.8038Y-4.2912
X2.8047Y-0.111
X2.8051Y-2.1318
X2.8259Y-1.1714
X2.8266Y-1.8729
X2.8273Y-3.7259
X2.8283Y-1.5269
X2.8308Y-2.9703
X2.8325Y-2.2385
X2.8391Y-0.6475
X2.8626Y-2.51
X2.8646Y-0.8553
X2.8666Y-2.3475
X2.8677Y-3.8245
X2.8686Y-1.6351
X2.8687Y-1.0019
X2.8713Y-2.0619
X2.8713Y-2.7692
X2.8715Y-4.5097
X2.8736Y-4.352
X2.8751Y-4.1081
X2.8765Y-0.2067
X2.8767Y-3.368
X2.8957Y-1.8077
X2.897Y-3.2686
X2.8979Y-3.0568
X2.9005Y-2.1575
X2.9046Y-4.2122
X2.9057Y-1.9571
X2.9076Y-4.0005
X2.9091Y-2.6176
X2.9332Y-3.7528
X2.9342Y-3.9047
X2.9368Y-0.7816
X2.9382Y-1.0674
X2.9383Y-0.6078
X2.9397Y-2.4074
X2.9402Y-4.4239
X2.9405Y-0.9181
X2.9406Y-3.1507
X2.9667Y-4.0749
X2.9675Y-1.8805
X2.9689Y-1.6586
X2.9692Y-2.6908
X2.9712Y-2.5474
X2.9725Y-2.8787
X2.9745Y-3.336
X2.9756Y-4.2826
X3.0045Y-1.7751
X3.0096Y-4.4975
X3.0096Y-0.5364
X3.0107Y-0.6827
X3.011Y-4.1829
X3.0123Y-1.002
X3.0128Y-3.4459
X3.0179Y-2.985
X3.0183Y-3.8216
X3.0372Y-2.7638
X3.0382Y-3.0772
X3.0385Y-3.2685
X3.0404Y-2.2351
X3.0407Y-2.6217
X3.0411Y-4.0059
X3.044Y-2.38
X3.0469Y-1.4929
X3.0505Y-1.2859
X3.0512Y-0.8834
X3.0749Y-4.564
X3.0754Y-0.1484
X3.0778Y-3.8998
X3.079Y-0.604
X3.0824Y-2.9136
X3.0832Y-1.843
X3.0871Y-4.1152
X3.0872Y-2.5091
X3.0882Y-1.0737
X3.1091Y-1.556
X3.1116Y-2.2994
X3.1136Y-3.7894
X3.1144Y-3.0194
X3.1147Y-1.1641
X3.1172Y-2.6988
X3.1201Y-3.1535
X3.1239Y-0.9519
X3.1464Y-3.296
X3.1478Y-2.4128
X3.1493Y-2.5909
X3.151Y-4.0417
X3.151Y-1.9072
X3.1561Y-0.6801
X3.1563Y-0.5331
X3.1601Y-1.4501
X3.1808Y-4.5325
X3.1869Y-0.891
X3.187Y-1.0213
X3.1882Y-1.6279
X3.1916Y-1.2337
X3.1918Y-4.1458
X3.214Y-1.5338
X3.2179Y-0.0816
X3.2192Y-3.126
X3.2193Y-1.144
X3.2203Y-2.5193
X3.223Y-1.989
X3.2238Y-0.6022
X3.2246Y-3.7302
X3.2273Y-3.8712
X3.2287Y-1.3541
X3.229Y-2.6676
X3.2295Y-2.2684
X3.2309Y-2.9814
X3.2503Y-4.0757
X3.2506Y-2.3777
X3.2543Y-0.4703
X3.2633Y-0.9544
X3.2638Y-0.2939
X3.2651Y-3.5171
X3.2846Y-3.795
X3.2871Y-4.5754
X3.2887Y-1.0714
X3.295Y-1.2065
X3.2954Y-1.5918
X3.2955Y-3.0454
X3.2956Y-1.4259
X3.2984Y-0.6836
X3.2992Y-3.3705
X3.3018Y-2.5924
X3.3238Y-3.9084
X3.3274Y-0.8882
X3.3316Y-1.7681
X3.3351Y-4.1426
X3.336Y-0.1063
X3.3361Y-0.5269
X3.3585Y-3.1201
X3.3596Y-3.4399
X3.3596Y-3.7251
X3.3601Y-3.2889
X3.3662Y-2.6681
X3.3698Y-0.9868
X3.3711Y-1.1338
X3.3714Y-0.2078
X3.3723Y-3.583
X3.3908Y-3.0133
X3.3916Y-1.4959
X3.3954Y-2.3745
X3.4058Y-0.6102
X3.4073Y-4.01
X3.4083Y-3.8199
X3.4084Y-2.2347
X3.427Y-3.3757
X3.4284Y-0.0813
X3.4285Y-3.6555
X3.429Y-0.9148
X3.432Y-2.7354
X3.4354Y-1.0693
X3.4355Y-0.4702
X3.4379Y-3.5044
X3.4387Y-1.8053
X3.4387Y-1.5939
X3.4433Y-2.0191
X3.4642Y-1.1684
X3.4662Y-3.2623
X3.4676Y-3.7538
X3.4678Y-2.3064
X3.4703Y-0.6706
X3.4737Y-0.1857
X3.4763Y-3.8945
X3.4769Y-1.9084
X3.4976Y-1.5168
X3.4978Y-3.4422
X3.5001Y-4.7415
X3.5012Y-4.0422
X3.5078Y-2.4195
X3.5091Y-0.9865
X3.5123Y-2.5503
X3.5124Y-0.5351
X3.5127Y-1.6711
X3.5333Y-1.0973
X3.542Y-0.891
X3.5427Y-3.1228
X3.5451Y-1.7789
X3.5466Y-0.1147
X3.5474Y-3.3302
X3.5477Y-1.987
X3.5485Y-2.1193
X3.5712Y-2.2361
X3.5743Y-1.8867
X3.5772Y-0.0056
X3.5793Y-2.9765
X3.5801Y-1.2057
X3.5809Y-3.7259
X3.5816Y-0.6441
X3.5827Y-4.6794
X3.5853Y-1.6022
X3.6069Y-3.4099
X3.6093Y-0.219
X3.6096Y-2.7579
X3.6119Y-3.9762
X3.6125Y-0.9545
X3.6127Y-2.0573
X3.6143Y-3.8291
X3.6157Y-3.2571
X3.616Y-2.3447
X3.6202Y-2.51
X3.6399Y-1.0656
X3.6411Y-1.9546
X3.6419Y-4.6122
X3.6421Y-2.163
X3.6432Y-2.6196
X3.6455Y-1.8143
X3.6456Y-4.2209
X3.6484Y-1.5295
X3.6487Y-3.0525
X3.654Y-4.0747
X3.6556Y-1.6741
X3.6559Y-4.7588
X3.6795Y-2.2771
X3.6795Y-3.3274
X3.6852Y-0.6834
X3.6887Y-3.7558
X3.689Y-2.4071
X3.6912Y-0.8854
X3.6917Y-0.0448
X3.6919Y-3.1579
X3.7108Y-4.2808
X3.7109Y-1.8865
X3.7109Y-2.5486
X3.7133Y-4.0042
X3.7173Y-4.6841
X3.7181Y-2.9474
X3.7245Y-2.696
X3.7264Y-0.9946
X3.7525Y-4.1781
X3.7531Y-3.0856
X3.7538Y-3.4001
X3.7542Y-2.8033
X3.7547Y-1.7728
X3.7557Y-3.8215
X3.7574Y-3.2593
X3.7588Y-0.5718
X3.7807Y-1.2796
X3.7812Y-4.3961
X3.7866Y-0.9284
X3.7876Y-2.3691
X3.7882Y-2.6186
X3.7905Y-4.7472
X3.7921Y-4.6082
X3.795Y-1.0589
X3.7961Y-1.4853
X3.798Y-2.2374
X3.8178Y-1.8498
X3.8204Y-0.6474
X3.8218Y-0.1798
X3.8233Y-2.7323
X3.8236Y-3.0142
X3.8276Y-2.5215
X3.8282Y-2.8788
X3.8289Y-3.1549
X3.8328Y-4.1156
X3.8333Y-3.3376
X3.8562Y-1.5522
X3.8564Y-4.3222
X3.8576Y-0.5406
X3.8577Y-3.7976
X3.8625Y-4.6707
X3.8639Y-0.9915
X3.8657Y-2.2979
X3.8677Y-1.1429
X3.8918Y-2.4041
X3.8971Y-1.2507
X3.8973Y-1.4636
X3.8982Y-1.9084
X3.8985Y-4.0424
X3.9014Y-2.5806
X3.9036Y-0.8809
X3.9229Y-1.0629
X3.924Y-2.6929
X3.9266Y-4.7443
X3.927Y-4.6076
X3.9294Y-1.3494
X3.9302Y-0.6125
X3.9325Y-4.3957
X3.9368Y-1.6258
X3.9369Y-4.2526
X3.9385Y-3.2901
X3.9394Y-3.724
X3.9585Y-1.5252
X3.9587Y-0.959
X3.9591Y-2.2612
X3.9612Y-3.9663
X3.963Y-3.1598
X3.9644Y-1.9788
X3.9652Y-2.9814
X3.9674Y-0.0769
X3.9689Y-0.5022
X3.9701Y-3.8368
X3.9716Y-2.5232
X3.9939Y-1.1398
X3.9958Y-1.2811
X3.9997Y-4.1901
X4.001Y-1.4147
X4.0021Y-4.3206
X4.0023Y-2.3684
X4.0032Y-0.2843
X4.0065Y-4.6758
X4.0096Y-2.632
X4.0099Y-0.679
X4.0291Y-3.4104
X4.0315Y-0.5666
X4.032Y-3.7611
X4.0359Y-1.0343
X4.0368Y-1.5899
X4.0407Y-3.0426
X4.0441Y-0.8863
X4.069Y-0.1012
X4.0692Y-4.3992
X4.0694Y-0.4703
X4.077Y-1.7793
X4.0776Y-4.7472
X4.0787Y-3.5022
X4.0787Y-4.2556
X4.0814Y-2.5611
X4.0995Y-0.9645
X4.1024Y-3.116
X4.1032Y-1.0981
X4.1035Y-1.2386
X4.1067Y-2.6651
X4.1101Y-3.3326
X4.1148Y-0.6391
X4.1166Y-3.8352
X4.1401Y-2.2417
X4.1402Y-4.32
X4.1406Y-1.4927
X4.1409Y-3.0215
X4.1459Y-0.5357
X4.1486Y-3.5758
X4.1488Y-2.3712
X4.1502Y-3.4353
X4.1725Y-0.8894
X4.1751Y-1.8079
X4.1756Y-2.7274
X4.1806Y-1.5928
X4.1811Y-0.3539
X4.1819Y-4.1795
X4.1819Y-1.036
X4.182Y-0.0676
X4.1823Y-2.019
X4.2059Y-3.6593
X4.2099Y-2.2991
X4.2137Y-1.9166
X4.2139Y-0.454
X4.2152Y-3.2646
X4.2172Y-0.1812
X4.2173Y-4.3923
X4.223Y-0.5964
X4.2232Y-3.5047
X4.2462Y-1.1717
X4.2467Y-2.4195
X4.2496Y-0.9507
X4.2515Y-4.2597
X4.2515Y-1.4472
X4.2521Y-1.6728
X4.2564Y-3.3666
X4.2584Y-2.5507
X4.2805Y-1.7811
X4.2818Y-0.2542
X4.2855Y-1.5618
X4.2856Y-0.6821
X4.2866Y-4.7435
X4.2881Y-0.5374
X4.2882Y-1.9775
X4.2894Y-0.1068
X4.2921Y-2.1332
X4.3122Y-3.4362
X4.3123Y-4.1746
X4.3128Y-1.0986
X4.3146Y-2.2417
X4.3181Y-1.8763
X4.3245Y-0.8847
X4.3255Y-4.3268
X4.3267Y-3.1138
X4.3278Y-3.2905
X4.3518Y-2.0518
X4.3532Y-2.5101
X4.354Y-0.1861
X4.3541Y-2.774
X4.3556Y-3.7234
X4.3587Y-1.6335
X4.3588Y-2.9731
X4.3592Y-4.8223
X4.3625Y-1.2047
X4.3626Y-2.3469
X4.3839Y-1.529
X4.3844Y-2.6207
X4.3879Y-2.1685
X4.3912Y-1.8177
X4.392Y-1.0212
X4.3926Y-3.3735
X4.3945Y-3.8224
X4.398Y-1.9472
X4.3986Y-0.0704
X4.4186Y-3.2684
X4.4197Y-3.0411
X4.4222Y-2.2632
X4.4313Y-2.4029
X4.4554Y-1.6597
X4.4562Y-3.7578
X4.4564Y-0.7887
X4.4565Y-3.1483
X4.4568Y-2.5599
X4.4612Y-0.151
X4.4612Y-2.6916
X4.4625Y-0.6419
X4.4669Y-2.0131
X4.4682Y-0.5029
X4.4691Y-0.9147
X4.4708Y-1.8863
X4.4908Y-3.3388
X4.4911Y-1.7818
X4.4948Y-2.9369
X4.4966Y-2.7941
X4.4989Y-1.0605
X4.5248Y-0.0733
X4.5257Y-3.4453
X4.5271Y-1.2706
X4.5281Y-1.4904
X4.5283Y-0.5776
X4.5294Y-2.2291
X4.5303Y-2.3801
X4.5344Y-4.0345
X4.5348Y-2.6249
X4.5351Y-3.8362
X4.5392Y-0.8473
X4.5402Y-3.0881
X4.5604Y-0.9644
X4.561Y-1.8461
X4.5619Y-2.8686
X4.5668Y-2.5236
X4.5677Y-3.2643
X4.5689Y-2.7216
X4.5736Y-0.6721
X4.5969Y-2.3037
X4.5988Y-0.1436
X4.6008Y-4.9299
X4.6012Y-2.9727
X4.6021Y-1.1422
X4.6065Y-0.784
X4.6093Y-3.1524
X4.613Y-1.5534
X4.6359Y-1.2474
X4.6386Y-2.4079
X4.642Y-2.5876
X4.6446Y-0.5337
X4.6458Y-0.8848
X4.6471Y-3.7504
X4.6479Y-1.9164
X4.67Y-3.3038
X4.6726Y-4.8505
X4.6743Y-0.6315
X4.6762Y-0.0744
X4.6773Y-1.3549
X4.6796Y-1.0708
X4.6811Y-1.6402
X4.6816Y-1.4876
X4.6837Y-2.696
X4.7077Y-2.5211
X4.7079Y-2.2635
X4.7089Y-3.8317
X4.7129Y-1.1724
X4.7175Y-3.0187
X4.7178Y-0.8236
X4.718Y-1.9915
X4.7382Y-2.3769
X4.7385Y-3.7243
X4.7387Y-1.2849
X4.7397Y-4.4717
X4.7398Y-0.5724
X4.7407Y-2.6321
X4.7524Y-1.0019
X4.7534Y-3.1212
X4.7538Y-1.4239
X4.7539Y-1.5665
X4.7729Y-0.6771
X4.7733Y-4.3235
X4.7758Y-1.1014
X4.7784Y-1.6745
X4.7892Y-3.3978
X4.8083Y-0.0663
X4.8111Y-0.9183
X4.8152Y-2.5525
X4.8172Y-2.9818
X4.8206Y-3.8004
X4.8229Y-1.7666
X4.8463Y-3.0791
X4.8472Y-1.0377
X4.8481Y-4.5356
X4.8493Y-3.3369
X4.8528Y-4.256
X4.8566Y-2.6535
X4.8567Y-0.5055
X4.8571Y-4.3997
X4.8604Y-3.4736
X4.8908Y-2.2312
X4.8934Y-0.8587
X4.8944Y-2.3818
X4.9154Y-2.7333
X4.9173Y-4.3184
X4.922Y-4.4619
X4.923Y-2.0196
X4.9231Y-3.0151
X4.9259Y-0.9596
X4.9263Y-1.6247
X4.932Y-1.8044
X4.9509Y-1.9194
X4.9511Y-1.1663
X4.9525Y-2.3045
X4.9533Y-0.2222
X4.9562Y-0.5981
X4.9574Y-0.782
X4.9616Y-0.4552
X4.9643Y-0.0669
X4.9658Y-4.897
X4.9861Y-2.5455
X4.9885Y-2.4174
X4.9936Y-1.463
X4.9936Y-4.3914
X4.9954Y-0.8911
X5.0279Y-0.6806
X5.029Y-2.1947
X5.0305Y-0.2775
X5.0306Y-1.0973
X5.0311Y-0.5247
X5.0318Y-0.1373
X5.033Y-1.9899
X5.0335Y-3.367
X5.0567Y-2.3481
X5.0674Y-2.0914
X5.0719Y-0.8239
X5.0729Y-1.5204
X5.0735Y-0.3946
X5.0919Y-3.2628
X5.0931Y-1.1687
X5.0943Y-4.8268
X5.0974Y-1.0299
X5.1073Y-2.9737
X5.1074Y-0.2184
X5.1082Y-0.5985
X5.109Y-0.0817
X5.1294Y-3.4121
X5.1304Y-0.4667
X5.1343Y-0.3229
X5.1434Y-2.7265
X5.1435Y-1.6033
X5.1652Y-0.6767
X5.1675Y-0.9557
X5.171Y-0.1476
X5.179Y-3.7138
X5.199Y-1.816
X5.2002Y-3.2978
X5.2008Y-1.0728
X5.2008Y-1.6727
X5.2026Y-3.1169
X5.204Y-0.5287
X5.2059Y-1.9431
X5.207Y-0.2568
X5.2079Y-0.3936
X5.2386Y-2.4069
X5.2387Y-0.0644
X5.2402Y-0.8954
X5.2417Y-3.7927
X5.2494Y-3.436
X5.2688Y-0.1848
X5.2724Y-0.9989
X5.2741Y-1.4967
X5.2756Y-1.2738
X5.2781Y-1.8867
X5.2786Y-3.0472
X5.2791Y-0.6126
X5.2803Y-2.6211
X5.2806Y-2.2418
X5.2813Y-2.9096
X5.2848Y-2.7586
X5.3057Y-3.3282
X5.3082Y-3.1601
X5.3118Y-4.3522
X5.315Y-4.6823
X5.3154Y-2.3477
X5.3155Y-0.4974
X5.3179Y-1.7714
X5.3203Y-2.5201
X5.3452Y-1.1404
X5.3482Y-2.987
X5.3486Y-0.1085
X5.3496Y-2.6957
X5.3506Y-3.828
X5.3527Y-2.8429
X5.3527Y-1.554
X5.3532Y-4.4725
X5.3782Y-2.4155
X5.3808Y-4.7416
X5.3811Y-2.2698
X5.3819Y-1.8357
X5.3823Y-2.5813
X5.3824Y-1.2477
X5.4106Y-0.5345
X5.4106Y-0.9224
X5.415Y-1.6279
X5.419Y-3.3044
X5.4222Y-1.4963
X5.4231Y-0.783
X5.4239Y-1.0624
X5.4256Y-1.3555
X5.446Y-0.068
X5.446Y-1.9138
X5.4483Y-2.5167
X5.4492Y-3.7265
X5.4498Y-1.1735
X5.4556Y-3.0125
X5.4557Y-3.1627
X5.4591Y-0.6459
X5.4613Y-2.6557
X5.4634Y-2.3438
X5.4818Y-1.2836
X5.4864Y-0.9949
X5.4865Y-3.8251
X5.4872Y-0.2149
X5.4884Y-1.4202
X5.4903Y-3.5039
X5.491Y-0.8539
X5.4939Y-4.7129
X5.4952Y-1.5524
X5.5186Y-1.1036
X5.522Y-1.6613
X5.5227Y-2.2647
X5.5227Y-3.0813
X5.5234Y-2.5816
X5.5256Y-3.4041
X5.5313Y-2.4163
X5.5546Y-1.3523
X5.5567Y-2.9817
X5.5575Y-0.9313
X5.5604Y-3.752
X5.5606Y-1.1991
X5.5645Y-1.7648
X5.5669Y-0.6748
X5.5672Y-1.4981
X5.5883Y-1.0294
X5.5934Y-0.7842
X5.5949Y-2.6602
X5.5965Y-4.7566
X5.601Y-3.4669
X5.6012Y-4.3637
X5.6034Y-3.3372
X5.6042Y-4.2101
X5.6235Y-4.4606
X5.6237Y-3.5873
X5.6242Y-3.8319
X5.634Y-4.0758
X5.635Y-0.5617
X5.6361Y-3.0531
X5.6392Y-1.1438
X5.6593Y-2.7262
X5.6602Y-1.8071
X5.6617Y-1.6713
X5.6625Y-3.4017
X5.6634Y-2.3745
X5.6635Y-2.0252
X5.6683Y-2.23
X5.6711Y-3.6883
X5.6724Y-0.8449
X5.6741Y-1.5331
X5.6758Y-4.288
X5.6959Y-0.6394
X5.7019Y-0.1517
X5.7038Y-4.7105
X5.7069Y-4.1464
X5.7079Y-3.5158
X5.708Y-1.9151
X5.7105Y-3.2693
X5.7116Y-0.9641
X5.7344Y-3.7659
X5.7355Y-0.7804
X5.7373Y-2.3024
X5.7376Y-1.0649
X5.7389Y-0.5393
X5.7395Y-3.6111
X5.7414Y-1.6008
X5.7423Y-3.0213
X5.7463Y-2.5262
X5.765Y-3.3248
X5.7662Y-1.9854
X5.7715Y-1.4942
X5.7721Y-4.2148
X5.7727Y-1.1702
X5.7781Y-0.8912
X5.7792Y-2.4143
X5.7812Y-1.7679
X5.7824Y-4.4596
X5.8012Y-3.4378
X5.8014Y-0.9865
X5.8025Y-1.8845
X5.8037Y-2.0868
X5.8065Y-2.238
X5.8069Y-1.6617
X5.8079Y-0.6003
X5.8108Y-3.1218
X5.8118Y-4.7563
X5.8357Y-4.4037
X5.8381Y-1.5576
X5.8395Y-3.7238
X5.8413Y-2.9811
X5.8422Y-0.0652
X5.8453Y-4.1527
X5.8464Y-0.5058
X5.8477Y-1.0986
X5.8488Y-2.3318
X5.8504Y-3.2582
X5.8512Y-2.5535
X5.8515Y-0.8113
X5.8722Y-3.8242
X5.8799Y-2.1554
X5.8812Y-0.6805
X5.8847Y-1.942
X5.8849Y-0.9181
X5.8865Y-1.8044
X5.8871Y-2.7678
X5.8872Y-1.2373
X5.8873Y-0.2927
X5.8876Y-3.3625
X5.9087Y-4.7218
X5.9113Y-2.2688
X5.9122Y-1.0275
X5.9138Y-2.6227
X5.9159Y-2.4064
X5.9164Y-0.5706
X5.9197Y-1.6374
X5.92Y-4.4656
X5.923Y-3.0553
X5.9239Y-2.0595
X5.9426Y-3.3044
X5.9436Y-1.888
X5.9463Y-3.7501
X5.9497Y-0.1109
X5.9528Y-2.509
X5.9538Y-0.7882
X5.957Y-3.1533
X5.9596Y-0.4605
X5.9793Y-2.985
X5.9795Y-1.9887
X5.9803Y-3.4118
X5.9819Y-2.6971
X5.9824Y-0.2085
X5.9831Y-4.1478
X5.9853Y-0.6379
X5.9918Y-1.7797
X5.9949Y-0.8964
X5.995Y-2.8385
X6.015Y-2.5931
X6.0151Y-0.5296
X6.0168Y-2.226
X6.0184Y-1.4936
X6.0233Y-3.0915
X6.0256Y-1.2829
X6.0274Y-0.9894
X6.0275Y-4.746
X6.0484Y-0.0745
X6.0485Y-3.483
X6.0493Y-2.3416
X6.0544Y-1.8526
X6.0566Y-0.8179
X6.0572Y-3.265
X6.0578Y-2.7731
X6.0604Y-3.7998
X6.0648Y-2.9078
X6.085Y-3.1479
X6.0877Y-1.5627
X6.0908Y-3.0193
X6.0984Y-2.5192
X6.0993Y-2.6617
X6.101Y-1.1315
X6.1271Y-1.2457
X6.1274Y-4.1412
X6.1285Y-2.2702
X6.1296Y-1.9121
X6.131Y-2.4153
X6.1347Y-0.1493
X6.1359Y-4.72
X6.1609Y-0.7799
X6.1617Y-2.5885
X6.1618Y-1.6377
X6.1631Y-0.6377
X6.1647Y-1.0623
X6.1674Y-0.4946
X6.1699Y-0.9223
X6.1699Y-3.2931
X6.1708Y-1.3769
X6.1722Y-2.7284
X6.1914Y-1.4858
X6.1962Y-2.3464
X6.199Y-1.1786
X6.2027Y-0.0745
X6.207Y-2.9731
X6.2262Y-3.0872
X6.2267Y-1.2717
X6.227Y-2.6595
X6.2294Y-0.8579
X6.2324Y-2.5141
X6.2362Y-1.9561
X6.2365Y-0.9883
X6.2373Y-3.7186
X6.2391Y-0.2145
X6.2398Y-4.7489
X6.2634Y-2.4098
X6.2636Y-2.2769
X6.264Y-1.415
X6.2705Y-1.1057
X6.2759Y-1.5619
X6.2779Y-3.3992
X6.2964Y-2.5855
X6.2977Y-3.5012
X6.299Y-1.7659
X6.2992Y-3.1529
X6.3004Y-0.596
X6.3074Y-3.012
X6.3094Y-0.7785
X6.3112Y-0.9211
X6.3136Y-1.2127
X6.333Y-4.0851
X6.337Y-3.3322
X6.3383Y-4.7195
X6.3403Y-3.7584
X6.3448Y-1.0318
X6.3686Y-1.1354
X6.3694Y-3.0921
X6.3695Y-0.5351
X6.3697Y-3.4398
X6.3702Y-2.6674
X6.3761Y-4.4723
X6.3775Y-3.5792
X6.3802Y-0.8529
X6.3825Y-0.6687
X6.4033Y-0.9653
X6.4043Y-1.4972
X6.4072Y-1.8055
X6.4087Y-3.8225
X6.4125Y-2.3788
X6.4156Y-3.6822
X6.4156Y-2.2371
X6.4196Y-2.0269
X6.4198Y-1.6301
X6.4381Y-3.0172
X6.4381Y-3.5026
X6.4385Y-1.0661
X6.4389Y-4.7575
X6.4403Y-4.2978
X6.4432Y-0.1827
X6.4447Y-4.1113
X6.4461Y-3.2661
X6.4502Y-0.5962
X6.4749Y-2.3136
X6.4759Y-1.8811
X6.476Y-3.3619
X6.477Y-1.1757
X6.4852Y-1.5672
X6.4874Y-3.6236
X6.4879Y-3.7518
X6.509Y-2.5522
X6.5093Y-4.1901
X6.5126Y-2.4176
X6.5145Y-0.5334
X6.517Y-1.6736
X6.5182Y-0.8964
X6.5246Y-1.9831
X6.5526Y-4.0843
X6.5552Y-3.4383
X6.5553Y-2.0869
X6.5558Y-3.126
X6.5562Y-1.7737
X6.5592Y-3.3019
X6.5595Y-1.1022
X6.5598Y-2.2272
X6.58Y-0.9605
X6.5804Y-2.3419
X6.5822Y-2.9815
X6.584Y-1.9145
X6.5856Y-1.2108
X6.5912Y-1.5321
X6.593Y-0.0665
X6.5967Y-3.7295
X6.6155Y-0.2818
X6.6161Y-1.6286
X6.6203Y-3.8251
X6.6268Y-2.7594
X6.6288Y-0.4684
X6.6294Y-3.365
X6.6299Y-2.5206
X6.6314Y-2.1709
X6.6322Y-2.0245
X6.6524Y-0.8913
X6.654Y-2.4086
X6.6545Y-1.8154
X6.6554Y-2.6223
X6.6577Y-2.2688
X6.6627Y-3.0503
X6.6668Y-3.2638
X6.6671Y-1.0299
X6.6867Y-3.1505
X6.6878Y-4.0702
X6.689Y-1.9517
X6.6946Y-0.6438
X6.6949Y-0.1024
X6.6981Y-3.7595
X6.7239Y-3.3285
X6.7267Y-2.8341
X6.7282Y-2.5537
X6.7296Y-0.965
X6.7352Y-0.2232
X6.7363Y-2.6934
X6.7378Y-2.9805
X6.7384Y-1.6755
X6.7594Y-3.4347
X6.7615Y-1.0607
X6.7632Y-1.2721
X6.7641Y-0.5616
X6.7692Y-1.771
X6.7696Y-2.2289
X6.7713Y-3.086
X6.7727Y-1.4923
X6.7742Y-4.3577
X6.7935Y-2.3375
X6.7938Y-2.6317
X6.7945Y-2.7595
X6.7952Y-4.1043
X6.7963Y-1.8725
X6.7974Y-0.6692
X6.7983Y-2.9127
X6.799Y-3.2624
X6.8049Y-0.8932
X6.8049Y-3.8004
X6.8081Y-0.065
X6.8279Y-3.1552
X6.8284Y-1.1355
X6.8308Y-0.9917
X6.8381Y-1.5668
X6.8386Y-4.2235
X6.839Y-3.0224
X6.8398Y-0.4951
X6.8431Y-2.5193
X6.8639Y-2.6933
X6.872Y-2.4039
X6.874Y-1.8044
X6.8741Y-1.2469
X6.8742Y-2.2646
X6.8742Y-2.828
X6.8746Y-4.333
X6.8785Y-0.6127
X6.8786Y-0.1482
X6.8989Y-4.0813
X6.8989Y-1.4556
X6.899Y-1.6351
X6.899Y-1.0672
X6.9073Y-3.2888
X6.9124Y-0.9289
X6.9156Y-1.9076
X6.9162Y-2.5844
X6.9353Y-2.3328
X6.9356Y-4.1877
X6.936Y-4.5393
X6.9426Y-1.3143
X6.9452Y-0.5394
X6.9476Y-4.3881
X6.9505Y-0.0732
X6.9515Y-1.1697
X6.9721Y-2.6594
X6.9746Y-0.6359
X6.9772Y-0.999
X6.9775Y-3.118
X6.9787Y-1.9775
X6.9805Y-2.9841
X6.9828Y-3.7296
X6.9851Y-2.5176
X6.9867Y-1.519
X7.006Y-1.3764
X7.0086Y-1.6701
X7.0139Y-4.1126
X7.0143Y-1.1062
X7.0151Y-2.4061
X7.0191Y-2.2629
X7.0199Y-3.4079
X7.0211Y-1.2346
X7.0216Y-0.8842
X7.0414Y-3.5021
X7.0464Y-2.583
X7.0509Y-0.0102
X7.054Y-3.0513
X7.0782Y-0.9618
X7.0819Y-1.7674
X7.0822Y-3.3303
X7.0861Y-0.5621
X7.0894Y-3.7597
X7.0907Y-1.17
X7.1124Y-3.1289
X7.1126Y-1.0569
X7.1151Y-2.6602
X7.1154Y-4.685
X7.1166Y-0.6677
X7.118Y-3.4318
X7.1253Y-3.581
X7.1285Y-3.9728
X7.1476Y-4.2235
X7.1482Y-0.4931
X7.1504Y-4.0811
X7.1514Y-3.011
X7.1519Y-4.36
X7.152Y-3.8358
X7.1521Y-2.3734
X7.1572Y-2.2269
X7.1578Y-3.6798
X7.1593Y-4.5014
X7.161Y-1.4943
X7.1622Y-0.8901
X7.1631Y-1.6392
X7.1639Y-0.038
X7.1824Y-2.016
X7.1827Y-0.9998
X7.185Y-1.8112
X7.1867Y-4.6134
X7.1904Y-0.6031
X7.1908Y-1.1279
X7.1912Y-3.5041
X7.1963Y-3.2627
X7.2183Y-3.614
X7.2189Y-0.1446
X7.2202Y-1.5588
X7.2244Y-2.3109
X7.2252Y-1.9234
X7.226Y-4.2931
X7.2292Y-3.3641
X7.2296Y-4.1513
X7.2301Y-4.4266
X7.2322Y-3.7659
X7.2571Y-4.5439
X7.259Y-0.5299
X7.2613Y-1.0709
X7.2618Y-0.678
X7.2654Y-2.5612
X7.2654Y-0.9189
X7.2661Y-4.6736
X7.2665Y-1.664
X7.2707Y-2.4149
X7.289Y-3.3
X7.2892Y-2.1226
X7.2897Y-1.1766
X7.2935Y-1.7795
X7.2948Y-3.4422
X7.2948Y-4.3649
X7.2955Y-1.9936
X7.296Y-4.0732
X7.304Y-3.1189
X7.3043Y-4.22
X7.3245Y-0.6071
X7.3249Y-0.986
X7.3279Y-2.9821
X7.3307Y-4.6082
X7.3313Y-3.722
X7.3317Y-1.5307
X7.3348Y-0.0757
X7.3352Y-2.243
X7.3354Y-1.8837
X7.3401Y-4.4744
X7.3619Y-2.058
X7.3621Y-0.8822
X7.3626Y-3.8369
X7.3649Y-0.5057
X7.3659Y-1.2342
X7.3683Y-2.7739
X7.3692Y-3.3705
X7.3704Y-4.2982
X7.3725Y-1.092
X7.3731Y-4.1552
X7.3737Y-0.2892
X7.3754Y-3.9779
X7.3755Y-1.6406
X7.3763Y-2.3474
X7.3763Y-2.5232
X7.3969Y-4.5341
X7.3987Y-2.1672
X7.4032Y-1.8056
X7.4033Y-4.6808
X7.4048Y-4.3895
X7.4051Y-2.6176
X7.4087Y-1.9431
X7.4095Y-3.2605
X7.4105Y-3.0573
X7.412Y-0.6838
X7.4337Y-4.0715
X7.4363Y-4.2234
X7.4389Y-0.5622
X7.4407Y-3.7627
X7.4417Y-3.1571
X7.4469Y-0.957
X7.4471Y-2.4202
X7.466Y-2.8768
X7.4677Y-4.3175
X7.475Y-3.3275
X7.4751Y-2.6999
X7.4755Y-2.5486
X7.478Y-4.6126
X7.4784Y-1.6597
X7.48Y-1.0648
X7.481Y-1.8749
X7.4813Y-0.0794
X7.4826Y-4.4735
X7.4832Y-0.2093
X7.502Y-4.1498
X7.503Y-0.8965
X7.5032Y-2.9866
X7.5055Y-3.9786
X7.5067Y-3.8354
X7.5069Y-1.7664
X7.5078Y-0.4568
X7.5151Y-3.4445
X7.5175Y-0.6483
X7.537Y-1.2732
X7.5384Y-2.233
X7.5403Y-1.4924
X7.5404Y-2.6152
X7.5406Y-3.0931
X7.5409Y-2.7626
X7.541Y-4.6838
X7.5413Y-3.2605
X7.5414Y-4.5329
X7.5432Y-2.37
X7.5441Y-4.2595
X7.5474Y-4.4003
X7.5486Y-0.9875
X7.5496Y-0.286
X7.5508Y-0.1418
X7.5726Y-2.5199
X7.5736Y-0.3875
X7.5743Y-1.8469
X7.5765Y-1.1072
X7.5768Y-4.071
X7.5838Y-2.9079
X7.5878Y-0.5399
X7.609Y-2.6888
X7.6094Y-0.9165
X7.6114Y-4.186
X7.6126Y-3.7867
X7.6144Y-0.6785
X7.616Y-3.1602
X7.617Y-2.3054
X7.6177Y-4.4669
X7.6184Y-0.0803
X7.6185Y-0.2059
X7.6198Y-1.5549
X7.6218Y-4.3313
X7.6224Y-4.6119
X7.6232Y-3.0155
X7.6433Y-3.2944
X7.6449Y-1.0383
X7.6473Y-2.42
X7.6494Y-2.5847
X7.6524Y-1.9213
X7.6538Y-0.4654
X7.6549Y-1.459
X7.6567Y-0.3273
X7.6575Y-1.2398
X7.6783Y-4.2476
X7.6813Y-1.6334
X7.6829Y-1.3447
X7.6843Y-4.1203
X7.6852Y-0.1522
X7.6883Y-4.6797
X7.6892Y-4.3934
X7.6933Y-4.5452
X7.7141Y-0.891
X7.7188Y-0.6365
X7.7198Y-2.9763
X7.7208Y-0.2441
X7.7221Y-2.6562
X7.7235Y-3.1133
X7.7244Y-1.9921
X7.7244Y-2.5155
X7.7253Y-3.7268
X7.7275Y-1.5232
X7.7308Y-2.2778
X7.7498Y-0.0695
X7.7522Y-4.6121
X7.7536Y-0.9891
X7.7542Y-1.2057
X7.7562Y-3.9677
X7.7576Y-4.189
X7.7578Y-3.8268
X7.7582Y-1.4205
X7.7603Y-4.3263
X7.7638Y-2.3774
X7.7646Y-4.4668
X7.766Y-3.5077
X7.7854Y-2.5854
X7.7868Y-1.5887
X7.7873Y-0.8126
X7.7878Y-0.457
X7.7902Y-3.0555
X7.7919Y-1.3062
X7.7975Y-4.7075
X7.7975Y-4.0814
X7.7996Y-3.3595
X7.822Y-4.5377
X7.8233Y-0.5776
X7.8265Y-4.261
X7.8315Y-4.3973
X7.8328Y-0.152
X7.8339Y-1.7805
X7.8342Y-0.9269
X7.8362Y-1.1282
X7.8374Y-3.7559
X7.8587Y-3.1253
X7.8593Y-3.4372
X7.8595Y-2.6574
X7.8616Y-0.682
X7.8632Y-3.2904
X7.8643Y-4.6407
X7.868Y-1.2453
X7.8698Y-3.5896
X7.8706Y-4.1451
X7.8926Y-1.4897
X7.8944Y-4.4629
X7.8944Y-3.6845
X7.8974Y-0.79
X7.8992Y-0.4947
X7.9002Y-4.3326
X7.9005Y-2.2404
X7.9024Y-2.3821
X7.903Y-0.0662
X7.9036Y-3.0097
X7.904Y-1.0644
X7.9045Y-4.7492
X7.9263Y-1.5961
X7.927Y-3.3638
X7.9273Y-1.8164
X7.9277Y-0.607
X7.9304Y-2.024
X7.9334Y-3.9699
X7.9342Y-4.215
X7.9353Y-3.796
X7.9404Y-4.5762
X7.9404Y-3.5156
X7.9429Y-2.7372
X7.943Y-1.1637
X7.9625Y-2.3049
X7.9631Y-0.1437
X7.9652Y-4.6726
X7.9701Y-1.9072
X7.9712Y-4.1206
X7.9716Y-1.0005
X7.9718Y-4.4021
X7.9731Y-3.2577
X7.9753Y-3.614
X7.9979Y-3.4446
X7.9997Y-2.5589
X8.0004Y-1.5201
X8.0006Y-2.4181
X8.0019Y-0.6809
X8.0045Y-4.5107
X8.0053Y-1.6689
X8.008Y-4.2892
X8.0123Y-1.0988
X8.0137Y-0.5333
X8.0326Y-2.1274
X8.0339Y-3.3403
X8.0343Y-1.7681
X8.0358Y-1.9906
X8.0401Y-3.1258
X8.0423Y-0.9294
X8.0481Y-0.0794
X8.0485Y-4.1766
X8.0498Y-4.7427
X8.0686Y-1.031
X8.0708Y-2.9766
X8.0722Y-1.8799
X8.0767Y-4.3684
X8.0779Y-3.7263
X8.0787Y-2.2262
X8.0808Y-1.1801
X8.0845Y-0.6001
X8.0848Y-1.5945
X8.1046Y-3.4062
X8.1068Y-4.4641
X8.1089Y-3.8276
X8.1104Y-2.5165
X8.1131Y-2.0515
X8.1142Y-0.8594
X8.1147Y-4.2486
X8.1165Y-2.3455
X8.1181Y-2.7675
X8.1185Y-3.2532
X8.1389Y-2.6316
X8.141Y-3.0503
X8.1428Y-0.953
X8.146Y-1.5205
X8.1464Y-1.9505
X8.1475Y-1.664
X8.1479Y-0.5344
X8.1507Y-1.815
X8.1512Y-2.1673
X8.1763Y-2.4103
X8.1766Y-4.3282
X8.177Y-3.1553
X8.1771Y-0.7781
X8.1772Y-3.7572
X8.1827Y-2.2654
X8.1854Y-0.078
X8.1858Y-1.0642
X8.1893Y-3.341
X8.2104Y-2.9345
X8.2116Y-2.7028
X8.2145Y-1.8733
X8.2157Y-4.4313
X8.2176Y-2.5508
X8.2187Y-0.8922
X8.2188Y-4.7413
X8.221Y-4.1787
X8.2457Y-3.266
X8.2484Y-2.8064
X8.2518Y-3.4121
X8.2559Y-0.9901
X8.258Y-3.0835
X8.2607Y-4.5311
X8.2613Y-1.7683
X8.2807Y-2.2283
X8.2837Y-4.2627
X8.2862Y-1.4814
X8.2874Y-2.3681
X8.2879Y-3.9655
X8.2898Y-2.6241
X8.2915Y-4.6419
X8.2926Y-3.7949
X8.2959Y-0.8178
X8.2961Y-4.1082
X8.2977Y-1.2794
X8.3166Y-0.0696
X8.317Y-0.9299
X8.3177Y-1.1742
X8.3186Y-0.2555
X8.3187Y-2.8708
X8.3209Y-3.0161
X8.3211Y-0.4701
X8.3214Y-1.8364
X8.3219Y-2.7217
X8.3256Y-3.1626
X8.3265Y-2.5178
X8.3286Y-4.3538
X8.3302Y-0.6065
X8.3329Y-3.3239
X8.3518Y-4.1859
X8.353Y-4.468
X8.3552Y-2.3121
X8.3631Y-1.5557
X8.3632Y-4.7213
X8.3913Y-4.2924
X8.3928Y-2.4117
X8.3929Y-0.6812
X8.3933Y-3.7564
X8.3937Y-0.8521
X8.3941Y-0.1422
X8.3946Y-4.0792
X8.3964Y-1.2341
X8.3974Y-0.5274
X8.3998Y-1.4501
X8.4006Y-1.0966
X8.4034Y-1.92
X8.404Y-4.5778
X8.4043Y-2.5964
X8.4223Y-2.7007
X8.4256Y-0.4266
X8.4273Y-1.356
X8.4348Y-3.9783
X8.4354Y-3.3051
X8.4358Y-4.3968
X8.4374Y-0.2863
X8.4383Y-1.6324
X8.458Y-4.5083
X8.4611Y-3.1539
X8.4637Y-1.5176
X8.4663Y-1.9878
X8.4665Y-2.9761
X8.4671Y-0.5975
X8.4683Y-0.0671
X8.4691Y-4.6472
X8.4698Y-3.8317
X8.4703Y-2.2642
X8.4707Y-2.5179
X8.4716Y-1.1656
X8.4725Y-0.7874
X8.4739Y-4.1503
X8.4745Y-1.0286
X8.497Y-2.6305
X8.5004Y-0.3481
X8.5027Y-0.1873
X8.5032Y-1.4113
X8.504Y-4.7478
X8.5049Y-1.284
X8.5049Y-2.3769
X8.5077Y-4.2533
X8.5089Y-3.729
X8.5099Y-0.5061
X8.5291Y-0.673
X8.53Y-4.5758
X8.5314Y-3.3993
X8.5323Y-0.9502
X8.5346Y-4.3647
X8.5375Y-1.5903
X8.539Y-1.096
X8.5442Y-3.0456
X8.5447Y-4.0739
X8.5646Y-1.7724
X8.5662Y-1.211
X8.5668Y-4.4699
X8.5675Y-4.1873
X8.5719Y-0.4302
X8.5734Y-0.1067
X8.5758Y-4.6855
X8.5771Y-0.2526
X8.5788Y-2.5562
X8.5813Y-0.5617
X8.5816Y-3.5017
X8.6026Y-3.3408
X8.6045Y-0.8842
X8.6054Y-3.1275
X8.6074Y-3.764
X8.6075Y-4.2931
X8.6151Y-1.0355
X8.6163Y-2.6621
X8.6385Y-3.4377
X8.6387Y-1.4915
X8.641Y-0.1798
X8.6417Y-3.0097
X8.6423Y-2.3815
X8.6424Y-0.6457
X8.6435Y-2.23
X8.6436Y-3.5756
X8.6443Y-1.1418
X8.6463Y-4.5456
X8.6481Y-4.3956
X8.65Y-0.5059
X8.6509Y-4.1069
X8.6704Y-0.8189
X8.6733Y-0.0646
X8.6735Y-4.2215
X8.6771Y-1.5904
X8.6784Y-3.9771
X8.6784Y-0.9513
X8.6786Y-4.638
X8.6804Y-2.0228
X8.6816Y-1.8152
X8.6841Y-2.7261
X8.687Y-3.823
X8.7066Y-3.6565
X8.708Y-1.9174
X8.709Y-3.5126
X8.7103Y-2.3038
X8.7193Y-1.0616
X8.7196Y-3.258
X8.7225Y-4.3331
X8.7232Y-4.7926
X8.7418Y-1.6586
X8.7433Y-4.0826
X8.7458Y-0.1461
X8.7461Y-1.1772
X8.7465Y-2.4049
X8.7473Y-2.5612
X8.7508Y-0.8922
X8.751Y-3.3731
X8.7549Y-1.4491
X8.7772Y-4.1768
X8.7793Y-0.5001
X8.7801Y-4.4617
X8.7821Y-1.5669
X8.7889Y-0.7903
X8.7898Y-2.1245
X8.7911Y-1.7825
X8.7916Y-1.9845
X8.7919Y-0.9996
X8.8131Y-4.5756
X8.8188Y-0.6345
X8.8209Y-3.3004
X8.8243Y-3.1286
X8.8245Y-1.1077
X8.8252Y-1.883
X8.8269Y-2.2411
X8.8284Y-0.0676
X8.8286Y-3.4306
X8.8492Y-2.5218
X8.8498Y-2.7675
X8.8537Y-1.2015
X8.8565Y-2.9708
X8.8582Y-4.7766
X8.8584Y-0.85
X8.8602Y-4.1094
X8.8633Y-1.6256
X8.8633Y-3.7226
X8.8641Y-2.3339
X8.8643Y-2.0572
X8.8835Y-2.1661
X8.8839Y-2.6226
X8.8879Y-0.9546
X8.8917Y-3.8369
X8.8935Y-1.8138
X8.8936Y-1.5299
X8.8951Y-3.3617
X8.8976Y-4.5078
X8.8998Y-1.9468
X8.9247Y-0.7787
X8.9251Y-1.073
X8.9271Y-0.5977
X8.9277Y-3.0413
X8.9296Y-2.2702
X8.9321Y-3.2614
X8.9343Y-2.4088
X8.957Y-2.0275
X8.9584Y-2.7027
X8.959Y-1.8811
X8.9596Y-2.5462
X8.9614Y-0.8907
X8.9628Y-3.7638
X8.9642Y-4.1402
X8.9661Y-1.6701
X8.9683Y-4.5792
X8.971Y-3.1526
X8.9955Y-2.8053
X8.9959Y-0.9878
X8.9994Y-0.6763
X8.9995Y-3.3319
X9.0012Y-0.534
X9.0034Y-1.7751
X9.0061Y-2.9465
X9.0254Y-3.4354
X9.0275Y-4.2218
X9.0291Y-4.793
X9.0295Y-2.2428
X9.0326Y-2.6276
X9.0331Y-1.484
X9.0338Y-4.6481
X9.0342Y-2.3699
X9.0388Y-1.2818
X9.0396Y-3.085
X9.0416Y-0.8175
X9.0637Y-4.531
X9.0637Y-2.7305
X9.0643Y-2.5161
X9.0649Y-0.9163
X9.0682Y-2.8789
X9.0697Y-1.852
X9.0713Y-3.2662
X9.0772Y-0.603
X9.0964Y-2.9774
X9.1043Y-0.1522
X9.1052Y-3.7863
X9.1053Y-1.128
X9.1072Y-3.9782
X9.1096Y-1.5602
X9.1109Y-2.3004
X9.1114Y-3.1569
X9.1324Y-2.5885
X9.1365Y-1.9108
X9.1386Y-2.418
X9.1403Y-0.5304
X9.1476Y-0.6745
X9.1477Y-1.2337
X9.148Y-0.8462
X9.1694Y-3.3045
X9.1748Y-1.6253
X9.1768Y-1.3515
X9.1774Y-2.6958
X9.1829Y-1.0707
X9.184Y-1.4843
X9.2049Y-0.6091
X9.2051Y-3.0158
X9.2065Y-1.1753
X9.2087Y-4.6144
X9.2093Y-0.7775
X9.2102Y-4.4629
X9.2103Y-3.7165
X9.2114Y-2.2637
X9.2128Y-1.9873
X9.216Y-2.5227
X9.217Y-0.0741
X9.238Y-4.2626
X9.2394Y-1.4265
X9.2401Y-4.0732
X9.2404Y-1.2707
X9.2409Y-1.5657
X9.2424Y-0.2883
X9.2433Y-3.5111
X9.2483Y-0.4657
X9.2503Y-0.9875
X9.2532Y-2.3753
X9.2538Y-2.6175
X9.2541Y-4.7845
X9.2547Y-3.1154
X9.2746Y-3.802
X9.2775Y-4.5347
X9.2776Y-3.4062
X9.2797Y-1.6759
X9.2822Y-1.1029
X9.2858Y-0.678
X9.3094Y-4.1478
X9.3114Y-2.9702
X9.3132Y-0.1087
X9.3139Y-0.9301
X9.3181Y-4.6397
X9.3182Y-1.2141
X9.3212Y-0.5251
X9.3216Y-1.7786
X9.3237Y-2.5501
X9.345Y-2.6592
X9.3454Y-3.4801
X9.3469Y-3.0868
X9.3486Y-3.3275
X9.3499Y-4.436
X9.352Y-1.0374
X9.3543Y-3.6108
X9.3583Y-0.2206
X9.3591Y-4.2891
X9.3799Y-0.6118
X9.3826Y-0.8526
X9.3833Y-4.5737
X9.3846Y-2.2322
X9.3856Y-3.7295
X9.3869Y-1.4834
X9.3912Y-2.3767
X9.3923Y-1.142
X9.4151Y-1.5983
X9.4158Y-4.3548
X9.4171Y-3.0081
X9.4171Y-0.9574
X9.4176Y-4.176
X9.4202Y-0.0797
X9.426Y-2.0165
X9.4279Y-1.8092
X9.4287Y-0.4694
X9.4308Y-3.3961
X9.431Y-2.7251
X9.4319Y-3.5388
X9.451Y-3.6536
X9.4526Y-1.9137
X9.454Y-2.2978
X9.4554Y-4.4671
X9.4614Y-3.7939
X9.4618Y-1.0626
X9.4651Y-3.2588
X9.4652Y-0.7867
X9.4875Y-1.1775
X9.4884Y-4.253
X9.4908Y-0.8876
X9.4947Y-2.4122
X9.4969Y-4.7902
X9.4972Y-0.1508
X9.499Y-2.5555
X9.4994Y-1.4529
X9.5011Y-1.6667
X9.5011Y-4.617
X9.5016Y-3.4762
X9.5209Y-1.5668
X9.5214Y-2.2049
X9.5228Y-0.5024
X9.523Y-4.3909
X9.5254Y-3.9075
X9.5273Y-1.9928
X9.5274Y-1.7725
X9.5287Y-3.3252
X9.5304Y-0.9865
X9.5567Y-2.3372
X9.5586Y-3.1221
X9.5625Y-1.1045
X9.5661Y-4.0835
X9.5667Y-4.5088
X9.5688Y-0.8092
X9.5707Y-0.0798
X9.5707Y-0.6351
X9.5712Y-2.0839
X9.5731Y-1.8773
X9.5982Y-1.2042
X9.599Y-3.3996
X9.6026Y-3.2533
X9.6028Y-4.6433
X9.603Y-0.9273
X9.6033Y-2.5176
X9.6042Y-4.3171
X9.6049Y-1.6357
X9.6055Y-3.724
X9.6061Y-2.9752
X9.6274Y-2.7325
X9.6286Y-1.947
X9.6302Y-3.8368
X9.635Y-1.0369
X9.6359Y-2.1635
X9.6402Y-1.5231
X9.6405Y-1.8009
X9.6409Y-4.1513
X9.6417Y-2.4089
X9.6667Y-3.0468
X9.6683Y-0.6123
X9.6702Y-2.5916
X9.6707Y-0.7841
X9.6708Y-2.2671
X9.6793Y-3.3361
X9.6795Y-2.059
X9.68Y-3.9429
X9.7047Y-1.6651
X9.7057Y-3.7664
X9.706Y-4.0745
X9.708Y-1.8833
X9.7138Y-3.158
X9.7151Y-0.88
X9.7341Y-3.2684
X9.7343Y-2.5227
X9.7354Y-1.9872
X9.7385Y-1.7675
X9.7385Y-4.7888
X9.7397Y-2.9397
X9.7415Y-3.8635
X9.7434Y-4.6422
X9.7462Y-3.3978
X9.7463Y-0.5287
X9.7488Y-2.7945
X9.7497Y-2.6608
X9.7503Y-0.6682
X9.7695Y-2.2428
X9.7701Y-0.9957
X9.7718Y-1.2768
X9.775Y-3.0862
X9.7781Y-2.4143
X9.7796Y-4.4685
X9.7813Y-0.8151
X9.7835Y-1.4976
X9.8053Y-2.7324
X9.8083Y-2.592
X9.8094Y-0.6077
X9.8102Y-1.8503
X9.812Y-3.4749
X9.813Y-3.7908
X9.8141Y-3.9281
X9.8149Y-4.1103
X9.815Y-3.3346
X9.8172Y-2.8675
X9.8176Y-4.5646
X9.8202Y-1.0934
X9.8411Y-3.1597
X9.8468Y-0.1437
X9.8472Y-4.819
X9.8495Y-2.9849
X9.8517Y-0.9206
X9.8536Y-2.299
X9.8543Y-1.2038
X9.8549Y-1.555
X9.8757Y-0.5296
X9.879Y-1.9228
X9.8808Y-2.5144
X9.8809Y-2.6621
X9.8823Y-4.4957
X9.8829Y-0.6715
X9.8845Y-4.6435
X9.8851Y-1.0229
X9.8901Y-3.8669
X9.9147Y-1.13
X9.9159Y-0.8522
X9.9181Y-1.4248
X9.9182Y-3.766
X9.9191Y-1.2693
X9.9209Y-3.2907
X9.9231Y-2.3725
X9.9233Y-4.0707
X9.9277Y-1.6395
X9.947Y-0.5956
X9.9522Y-1.5239
X9.9549Y-2.2706
X9.9576Y-0.0768
X9.9594Y-4.5816
X9.9611Y-3.9414
X9.9616Y-1.9944
X9.9625Y-2.5972
X9.9626Y-3.0055
X9.9636Y-0.9664
X9.9828Y-0.5022
X9.9895Y-1.0718
X9.9897Y-3.8228
X9.9903Y-1.3459
X9.9955Y-3.1127
X9.9965Y-1.1994
X10.023Y-3.412
X10.0247Y-2.6548
X10.0275Y-0.2921
X10.0294Y-2.5238
X10.0301Y-4.6498
X10.0302Y-1.453
X10.0304Y-3.7198
X10.0314Y-0.8853
X10.0321Y-2.3346
X10.0333Y-1.6033
X10.0525Y-3.9036
X10.0585Y-1.1309
X10.0629Y-0.9945
X10.0647Y-4.5297
X10.0666Y-1.7797
X10.067Y-1.2688
X10.0692Y-2.9715
X10.0879Y-4.083
X10.088Y-3.7912
X10.0896Y-0.2219
X10.093Y-3.4668
X10.094Y-3.3375
X10.0977Y-2.588
X10.099Y-0.0807
X10.1003Y-3.0835
X10.1237Y-1.2004
X10.1272Y-1.058
X10.128Y-0.9223
X10.1316Y-2.6914
X10.1331Y-0.6365
X10.1395Y-4.6042
X10.1586Y-0.1481
X10.1632Y-1.6235
X10.1637Y-2.2275
X10.1671Y-3.0125
X10.1671Y-2.3705
X10.1726Y-2.0251
X10.1736Y-3.5441
X10.1737Y-3.4027
X10.1739Y-3.8607
X10.175Y-1.8086
X10.1757Y-1.491
X10.1949Y-1.144
X10.1967Y-4.5405
X10.2028Y-0.9956
X10.2033Y-0.5632
X10.2058Y-3.2623
X10.2096Y-1.9177
X10.2301Y-2.2999
X10.2345Y-0.6755
X10.2389Y-3.467
X10.2404Y-1.5609
X10.2408Y-3.9296
X10.2439Y-3.6132
X10.2443Y-2.5205
X10.2444Y-4.6382
X10.2447Y-0.0677
X10.2455Y-0.8925
X10.2667Y-1.9873
X10.2687Y-1.6617
X10.2721Y-1.0733
X10.2741Y-1.8358
X10.2775Y-0.5009
X10.2785Y-3.3388
X10.2814Y-2.416
X10.3027Y-3.5368
X10.3035Y-3.1225
X10.3061Y-2.2291
X10.307Y-4.4652
X10.3109Y-3.6783
X10.3112Y-4.2818
X10.3128Y-0.95
X10.3147Y-1.1716
X10.3168Y-2.0859
X10.3357Y-3.2631
X10.3361Y-3.4087
X10.3375Y-0.6396
X10.3385Y-1.5238
X10.3388Y-4.5653
X10.3388Y-2.9796
X10.3416Y-1.9235
X10.35Y-2.3453
X10.3503Y-2.5461
X10.3505Y-1.7791
X10.3516Y-4.084
X10.3716Y-1.2459
X10.3723Y-2.7647
X10.3726Y-3.7665
X10.3763Y-2.0241
X10.3805Y-1.6291
X10.3818Y-0.8839
X10.3845Y-1.0239
X10.3878Y-3.6171
X10.3885Y-2.1616
X10.4079Y-3.3348
X10.4086Y-4.1533
X10.4103Y-2.6165
X10.4107Y-2.4136
X10.411Y-3.4744
X10.4142Y-1.8449
X10.4146Y-4.6448
X10.4188Y-2.2734
X10.419Y-4.5102
X10.4192Y-3.0475
X10.4466Y-3.1471
X10.4469Y-4.2462
X10.4472Y-1.9513
X10.4482Y-0.5674
X10.4523Y-0.9654
X10.4568Y-3.8267
X10.4572Y-3.6822
X10.4575Y-2.5215
X10.4815Y-2.8431
X10.4832Y-2.9835
X10.4862Y-3.2664
X10.4911Y-4.5806
X10.4913Y-4.3594
X10.4923Y-1.0735
X10.4927Y-3.4031
X10.4931Y-2.6867
X10.4937Y-1.6734
X10.4938Y-3.5364
X10.494Y-0.6837
X10.5134Y-2.5928
X10.5139Y-1.2709
X10.5162Y-0.8881
X10.5194Y-1.4937
X10.5206Y-3.9026
X10.5215Y-2.2288
X10.5217Y0.0043
X10.5221Y-3.7496
X10.5255Y-0.4999
X10.5256Y-3.0865
X10.5276Y-4.1165
X10.5279Y-4.4739
X10.528Y-1.7784
X10.5493Y-4.2184
X10.5513Y-1.8821
X10.5529Y-2.9018
X10.5539Y-2.3404
X10.5559Y-3.6108
X10.5587Y-4.637
X10.5622Y-0.6116
X10.5627Y-3.4807
X10.5636Y-0.9885
X10.5637Y-3.3388
X10.5637Y-2.7704
X10.5857Y-0.1381
X10.5881Y-1.1271
X10.5898Y-3.0149
X10.5905Y-3.1519
X10.5915Y-1.5667
X10.5953Y-2.5236
X10.5966Y-4.3331
X10.5979Y-3.827
X10.5983Y-4.5351
X10.6012Y-2.6575
X10.621Y-3.4096
X10.6213Y-0.0416
X10.6246Y-1.8103
X10.6267Y-1.2428
X10.6268Y-2.2679
X10.6275Y-0.927
X10.6276Y-2.4106
X10.6323Y-0.6796
X10.6339Y-3.7192
X10.6352Y-0.529
X10.655Y-2.583
X10.6558Y-4.2617
X10.658Y-1.907
X10.6586Y-2.731
X10.6625Y-1.391
X10.6653Y-1.064
X10.6705Y-1.6251
X10.6916Y-1.4894
X10.6926Y-1.1647
X10.6935Y-4.6361
X10.6948Y-3.7923
X10.6971Y-2.3405
X10.7026Y-2.9797
X10.7051Y-4.4593
X10.7055Y-0.6104
X10.7265Y-3.0838
X10.7275Y-1.2743
X10.7319Y-2.5163
X10.7332Y-1.9813
X10.7335Y-0.5038
X10.7379Y-0.0803
X10.7382Y-0.9956
X10.7419Y-2.6601
X10.7633Y-2.27
X10.7638Y-1.0972
X10.764Y-3.2305
X10.7646Y-0.6743
X10.7658Y-1.4196
X10.7703Y-1.5675
X10.7728Y-0.2896
X10.7729Y-2.4069
X10.7784Y-4.5435
X10.7993Y-2.5865
X10.8022Y-1.2152
X10.8028Y-3.0106
X10.8058Y-0.9265
X10.8059Y-1.7664
X10.8073Y-0.5659
X10.8088Y-3.4791
X10.8324Y-3.7594
X10.8388Y-0.1045
X10.8419Y-1.0219
X10.8441Y-4.6081
X10.8447Y-1.4828
X10.845Y-1.3184
X10.8676Y-3.3352
X10.8712Y-0.6483
X10.8718Y-1.1372
X10.8749Y-0.5034
X10.8767Y-0.2162
X10.8807Y-3.8566
X10.9033Y-1.8163
X10.9048Y-2.7362
X10.9048Y-0.9504
X10.906Y-2.0256
X10.9132Y-4.529
X10.9151Y-2.2391
X10.9392Y-0.4259
X10.9396Y-0.2837
X10.9445Y-3.015
X10.9487Y-0.5744
X10.9547Y-1.5285
X10.9554Y-4.6388
X10.9555Y-0.068
X10.9771Y-2.306
X10.9779Y-4.0416
X10.9787Y-0.6776
X10.9799Y-3.8968
X10.9868Y-1.8883
X10.9892Y-0.1735
X10.9894Y-3.717
X11.0179Y-0.351
X11.018Y-0.9295
X11.0193Y-0.496
X11.0225Y-4.5041
X11.0255Y-1.9799
X11.0465Y-4.6134
X11.0481Y-2.2344
X11.0483Y-3.9696
X11.0514Y-2.0967
X11.0529Y-0.1053
X11.055Y-0.2486
X11.0594Y-2.3737
X11.08Y-3.3031
X11.0809Y-3.86
X11.0823Y-0.648
X11.0839Y-2.9777
X11.0842Y-1.8363
X11.0854Y-2.5567
X11.0856Y-1.5213
X11.117Y-2.1701
X11.1187Y-1.9521
X11.1187Y-2.7606
X11.1232Y-4.4733
X11.1268Y-4.0343
X11.13Y-0.1782
X11.1304Y-0.9535
X11.1312Y-2.2995
X11.1508Y-0.4952
X11.1574Y-1.071
X11.1576Y-3.7606
X11.1591Y-1.772
X11.1615Y-3.9303
X11.162Y-2.6225
X11.1623Y-3.3734
X11.1632Y-2.0659
X11.1636Y-0.0696
X11.1677Y-2.4168
X11.1919Y-0.6101
X11.1953Y-2.2383
X11.1975Y-1.8754
X11.2004Y-3.1641
X11.2005Y-3.4751
X11.2031Y-2.5195
X11.2228Y-1.9838
X11.2231Y-3.2542
X11.2252Y-3.8329
X11.227Y-0.922
X11.2278Y-0.1472
X11.2307Y-2.1203
X11.2318Y-2.3483
X11.2621Y-0.5311
X11.2643Y-1.8012
X11.2644Y-4.3327
X11.2657Y-3.0882
X11.2663Y-2.5835
X11.2671Y-1.4915
X11.2676Y-0.674
X11.2694Y-1.0306
X11.2925Y-0.8566
X11.2967Y-4.155
X11.3004Y-4.4315
X11.3047Y-1.5942
X11.3072Y-2.4124
X11.31Y-0.0795
X11.3294Y-2.524
X11.3304Y-0.9578
X11.3307Y-3.1623
X11.3332Y-1.093
X11.3389Y-3.2976
X11.3428Y-0.6094
X11.3432Y-0.1747
X11.3696Y-1.527
X11.3709Y-3.7239
X11.3727Y-2.164
X11.3732Y-3.8621
X11.375Y-4.2213
X11.3792Y-0.7742
X11.402Y-2.7215
X11.4034Y-1.0355
X11.4074Y-1.6359
X11.408Y-3.501
X11.4121Y-3.9637
X11.413Y-0.8932
X11.4135Y-0.5323
X11.4138Y-2.2785
X11.4353Y-3.1242
X11.4359Y-3.802
X11.4375Y-3.4055
X11.438Y-0.0755
X11.4426Y-3.2614
X11.4489Y-1.1338
X11.4727Y-0.9651
X11.4753Y-2.383
X11.4763Y-1.7105
X11.4779Y-3.9042
X11.4796Y-0.8155
X11.4862Y-1.5592
X11.5052Y-0.4644
X11.5111Y-3.4687
X11.5134Y-1.0717
X11.5145Y-0.6125
X11.5167Y-0.2903
X11.5167Y-3.3241
X11.5199Y-4.5353
X11.5461Y-3.164
X11.5464Y-0.8914
X11.5501Y-4.8274
X11.5759Y-2.5534
X11.577Y-0.2225
X11.5795Y-3.6958
X11.5809Y-3.2603
X11.5817Y-4.3553
X11.5845Y-3.0526
X11.5848Y-0.0808
X11.5861Y-1.9173
X11.588Y-2.2417
X11.5903Y-0.5401
X11.5913Y-4.1555
X11.6184Y-2.6643
X11.622Y-3.7867
X11.6247Y-4.4746
X11.6483Y-2.975
X11.6499Y-0.14
X11.653Y-0.2879
X11.6548Y-1.0592
X11.6554Y-0.9301
X11.6602Y-0.4659
X11.6603Y-0.7827
X11.661Y-1.4896
X11.6628Y-4.2199
X11.6643Y-1.9815
X11.6838Y-2.8778
X11.6884Y-3.2232
X11.689Y-4.5425
X11.6892Y-4.8147
X11.6924Y-4.6816
X11.6979Y-1.6313
X11.6989Y-3.7313
X11.7193Y-1.7301
X11.7214Y-0.222
X11.7231Y-0.9898
X11.7255Y-0.0737
X11.7272Y-0.353
X11.7284Y-4.1463
X11.7319Y-1.134
X11.7334Y-0.854
X11.7591Y-2.9359
X11.7637Y-0.6815
X11.766Y-3.8018
X11.7665Y-4.4671
X11.7905Y-4.7196
X11.7979Y-4.2195
X11.7983Y-0.1464
X11.8013Y-1.6687
X11.8019Y-2.8352
X11.8042Y-0.7783
X11.8042Y-0.2898
X11.8051Y-4.3582
X11.8051Y-1.0641
X11.8058Y-0.9292
X11.8061Y-0.4256
X11.8333Y-1.7739
X11.8348Y-3.3756
X11.8357Y-4.8247
X11.8382Y-3.8667
X11.8383Y-0.6129
X11.8616Y-0.2202
X11.8618Y-0.9929
X11.8621Y-2.2407
X11.8644Y-3.0424
X11.8684Y-3.4779
X11.8686Y-0.348
X11.87Y-0.0799
X11.872Y-3.7539
X11.8767Y-0.8609
X11.8995Y-0.6698
X11.9008Y-4.3261
X11.9015Y-2.7674
X11.9026Y-1.8763
X11.9111Y-0.5384
X11.9318Y-0.9268
X11.9389Y-4.7203
X11.9413Y-2.4451
X11.9417Y-0.2933
X11.9428Y-4.2263
X11.9457Y-0.789
X11.9475Y-3.9628
X11.9475Y-0.1371
X11.9672Y-0.4669
X11.9726Y-4.8274
X11.9786Y-0.6054
X11.9824Y-1.4867
X12.0019Y-4.3629
X12.006Y-0.8602
X12.0094Y-0.2227
X12.0116Y-0.0661
X12.0143Y-1.3117
X12.0156Y-4.0435
X12.0365Y-1.4123
X12.0367Y-2.3087
X12.0374Y-2.4752
X12.0376Y-0.3849
X12.038Y-4.1458
X12.0405Y-0.9553
X12.042Y-1.2115
X12.0421Y-3.0844
X12.0458Y-0.5286
X12.0492Y-1.5656
X12.0497Y-2.1618
X12.0501Y-2.6894
X12.0512Y-1.8843
X12.0516Y-3.2232
X12.0757Y-2.596
X12.0775Y-0.1389
X12.078Y-0.7759
X12.0794Y-4.4747
X12.085Y-3.7307
X12.0854Y-0.6359
X12.0871Y-2.8011
X12.0878Y-3.336
X12.1089Y-0.8858
X12.1092Y-2.2395
X12.1117Y-1.349
X12.1137Y-4.8204
X12.1137Y-2.3836
X12.1152Y-1.0375
X12.1166Y-1.4892
X12.1182Y-3.4456
X12.1206Y-3.1625
X12.1453Y-4.0415
X12.1496Y-0.066
X12.1516Y-2.6565
X12.1547Y-3.2632
X12.156Y-0.5029
X12.1566Y-1.1386
X12.1585Y-1.8432
X12.1586Y-2.5159
X12.1591Y-2.1313
X12.1791Y-3.0481
X12.1792Y-2.9146
X12.1806Y-3.3714
X12.1827Y-4.1473
X12.1846Y-1.7096
X12.1859Y-2.2994
X12.186Y-0.8113
X12.186Y-3.5161
X12.1871Y-2.7736
X12.188Y-1.4169
X12.1892Y-0.6129
X12.1911Y-1.9901
X12.1932Y-0.9627
X12.2141Y-1.0717
X12.2194Y-2.5838
X12.2266Y-1.2016
X12.2276Y-3.1991
X12.2278Y-4.3284
X12.2308Y-2.1953
X12.2309Y-2.4176
X12.2492Y-1.633
X12.2492Y-4.2139
X12.2497Y-3.7959
X12.2498Y-0.5273
X12.2523Y-1.3063
X12.2526Y-2.062
X12.2527Y-2.9796
X12.2584Y-0.1119
X12.2597Y-1.7648
X12.262Y-3.3052
X12.2635Y-3.966
X12.2654Y-3.4466
X12.2662Y-2.703
X12.2665Y-0.88
X12.2666Y-0.6785
X12.2882Y-2.278
X12.2933Y-3.0812
X12.2945Y-2.4897
X12.2965Y-0.773
X12.2972Y-4.819
X12.2979Y-1.136
X12.2993Y-3.5433
X12.3016Y-1.8719
X12.3223Y-0.6012
X12.3233Y-0.2091
X12.3265Y-1.5533
X12.3275Y-4.3566
X12.3289Y-1.3825
X12.3321Y-1.7023
X12.3334Y-4.0364
X12.3335Y-4.5022
X12.3343Y-4.7195
X12.3625Y-1.8063
X12.3639Y-0.845
X12.3675Y-1.2023
X12.369Y-4.1498
X12.3709Y-0.0811
X12.3934Y-2.3066
X12.3936Y-3.199
X12.3937Y-2.594
X12.3952Y-2.7294
X12.3963Y-1.9934
X12.3965Y-2.4539
X12.3972Y-3.3303
X12.3973Y-0.6673
X12.3978Y-3.4728
X12.3982Y-3.6156
X12.3985Y-2.1203
X12.3987Y-3.0452
X12.4028Y-2.8992
X12.4062Y-3.965
X12.4076Y-4.4261
X12.4081Y-1.3133
X12.4084Y-0.528
X12.4268Y-0.7813
X12.4273Y-4.5292
X12.4308Y-0.9281
X12.4308Y-4.2259
X12.4331Y-3.7207
X12.4621Y-2.5198
X12.4665Y-2.2049
X12.4668Y-2.3769
X12.4685Y-4.6452
X12.4686Y-4.3258
X12.4688Y-2.6625
X12.4718Y-3.2655
X12.4723Y-3.5479
X12.4723Y-3.3978
X12.4735Y-2.8044
X12.474Y-0.6025
X12.478Y-3.12
X12.5034Y-1.7021
X12.5048Y-0.0756
X12.5048Y-0.8559
X12.5072Y-4.8138
X12.5078Y-3.6545
X12.5097Y-4.4747
X12.513Y-0.2881
X12.5133Y-0.4567
X12.5147Y-3.7866
X12.5332Y-2.2637
X12.5341Y-3.3356
X12.5375Y-2.5856
X12.5388Y-4.7127
X12.54Y-0.6821
X12.5449Y-3.478
X12.545Y-2.7387
X12.5457Y-4.1194
X12.5464Y-2.447
X12.5485Y-0.9644
X12.5495Y-3.1969
X12.5684Y-1.8791
X12.5697Y-0.1351
X12.5726Y-4.3593
X12.5783Y-0.7875
X12.5797Y-0.5318
X12.6071Y-0.2431
X12.6121Y-1.4924
X12.6126Y-1.3472
X12.6142Y-2.5166
X12.6157Y-0.8931
X12.6188Y-1.1788
X12.6207Y-1.7445
X12.6209Y-4.8537
X12.6401Y-0.4616
X12.6454Y-0.61
X12.6468Y-2.2376
X12.6471Y-3.3051
X12.6491Y-0.0794
X12.6533Y-3.443
X12.6537Y-3.584
X12.6541Y-3.1563
X12.6544Y-1.5949
X12.6556Y-4.4397
X12.6748Y-1.8447
X12.6813Y-0.177
X12.6828Y-1.2367
X12.6846Y-4.7147
X12.6888Y-0.3152
X12.6902Y-0.8197
X12.6915Y-4.3297
X12.7119Y-0.6786
X12.7122Y-3.5057
X12.7137Y-1.6665
X12.7141Y-0.9261
X12.7169Y-0.5404
X12.719Y-2.5476
X12.7202Y-3.2265
X12.7224Y-1.137
X12.727Y-4.8149
X12.727Y-3.3627
X12.7466Y-3.1212
X12.7477Y-0.1081
X12.748Y-4.3976
X12.7487Y-1.3098
X12.7498Y-4.047
X12.7541Y-1.9109
X12.7561Y-0.3962
X12.7571Y-1.03
X12.7599Y-0.2431
X12.7625Y-2.2708
X12.7809Y-0.5988
X12.7812Y-3.4381
X12.7845Y-3.3046
X12.7864Y-1.7319
X12.7931Y-1.206
X12.798Y-0.7873
X12.8174Y-1.0933
X12.8176Y-4.4626
X12.8209Y-3.1903
X12.822Y-3.6889
X12.8228Y-1.8466
X12.824Y-4.8583
X12.8241Y-0.1754
X12.8307Y-1.3839
X12.8323Y-0.8839
X12.8516Y-0.9919
X12.8599Y-1.2828
X12.8605Y-3.3739
X12.8611Y-0.0762
X12.8648Y-4.2124
X12.8662Y-4.0696
X12.8931Y-3.2601
X12.894Y-0.8251
X12.901Y-0.4964
X12.9025Y-0.6365
X12.9263Y-0.9282
X12.9307Y-4.1504
X12.9313Y-3.0865
X12.9361Y-4.2842
X12.9365Y-0.1434
X12.9577Y-0.5775
X12.967Y-3.3404
X12.9675Y-3.999
X12.975Y-2.297
X12.9943Y-0.0815
X12.9946Y-0.8437
X12.9981Y-1.4917
X12.9995Y-0.683
X13.001Y-4.2183
X13.0032Y-3.7939
X13.0036Y-0.4655
X13.0061Y-2.9741
X13.0078Y-3.1493
X13.0317Y-4.0758
X13.0331Y-3.3997
X13.0357Y-4.8181
X13.0408Y-4.3218
X13.0424Y-1.7443
X13.0433Y-1.6024
X13.0462Y-0.1754
X13.0648Y-3.2235
X13.0662Y-0.5265
X13.0678Y-4.7105
X13.0686Y-1.8427
X13.0779Y-0.7902
X13.0783Y-3.0893
X13.0787Y-0.9213
X13.0791Y-4.4335
X13.0795Y-3.979
X13.1009Y-3.4657
X13.1051Y-0.6398
X13.1129Y-0.1117
X13.1144Y-3.3377
X13.1162Y-4.1518
X13.1169Y-1.5169
X13.1366Y-1.6362
X13.1418Y-3.7988
X13.1522Y-3.1538
X13.1808Y-0.5634
X13.187Y-0.8136
X13.2072Y-3.2252
X13.2077Y-0.074
X13.2283Y-4.6929
X13.2532Y-3.7211
X13.258Y-2.2378
X13.2777Y-4.829
X13.2829Y-3.9676
X13.2837Y-1.0234
X13.2844Y-0.7884
X13.2855Y-2.024
X13.2858Y-0.6317
X13.2864Y-1.2711
X13.2913Y-2.447
X13.2915Y-1.4924
X13.2917Y-0.5033
X13.3154Y-0.1006
X13.3163Y-4.9266
X13.3164Y-3.5092
X13.3176Y-0.9272
X13.3222Y-4.2587
X13.325Y-4.7113
X13.3261Y-1.6007
X13.3275Y-1.743
X13.3297Y-0.2481
X13.3531Y-4.3529
X13.3535Y-1.8482
X13.3536Y-0.5618
X13.3583Y-3.8925
X13.3836Y-2.7578
X13.384Y-0.8127
X13.3862Y-2.3805
X13.3869Y-1.2151
X13.3889Y-0.9893
X13.3906Y-4.7788
X13.391Y-0.4598
X13.3984Y-2.2321
X13.3992Y-0.6769
X13.4001Y-4.1908
X13.4005Y-1.5186
X13.4006Y-0.1716
X13.4198Y-2.4911
X13.4222Y-4.8842
X13.4227Y-1.1017
X13.4248Y-0.287
X13.4255Y-3.8358
X13.4268Y-1.3106
X13.428Y-1.6266
X13.4306Y-4.2963
X13.4335Y-0.0774
X13.455Y-0.5403
X13.4576Y-1.8797
X13.4583Y-0.894
X13.4587Y-0.3907
X13.4627Y-1.4212
X13.464Y-1.7346
X13.4661Y-4.1146
X13.49Y-1.036
X13.4926Y-0.6313
X13.4962Y-4.7058
X13.4968Y-0.7732
X13.5004Y-0.152
X13.5011Y-1.177
X13.5035Y-1.5564
X13.5262Y-2.1596
X13.5284Y-0.2574
X13.5291Y-1.2712
X13.53Y-0.4687
X13.5346Y-2.6256
X13.5371Y-4.0365
X13.5423Y-4.8283
X13.5643Y-1.3876
X13.5645Y-1.843
X13.5657Y-1.1004
X13.5666Y-0.0756
X13.5703Y-4.1394
X13.571Y-0.8583
X13.6009Y-1.9838
X13.6051Y-1.2114
X13.6058Y-3.1557
X13.6078Y-0.9619
X13.6093Y-2.9837
X13.6111Y-3.8599
X13.6114Y-0.1782
X13.6339Y-0.7729
X13.6377Y-0.642
X13.6421Y-0.5058
X13.6463Y-4.7857
X13.6465Y-3.9654
X13.6698Y-1.703
X13.6732Y-3.2305
X13.6734Y-1.5604
X13.6735Y-2.2706
X13.6738Y-0.1017
X13.6746Y-1.8784
X13.6778Y-0.8861
X13.6791Y-4.0807
X13.68Y-2.4535
X13.7052Y-0.7055
X13.7065Y-3.0874
X13.7128Y-0.5693
X13.7387Y-0.8219
X13.7393Y-1.6348
X13.7393Y-1.7817
X13.7414Y-2.5126
X13.746Y-0.4611
X13.7501Y-1.4915
X13.7512Y-2.3356
X13.7753Y-1.9232
X13.7764Y-0.0683
X13.7765Y-3.7607
X13.777Y-4.8858
X13.7791Y-0.9195
X13.7793Y-0.641
X13.782Y-4.1393
X13.7878Y-4.758
X13.811Y-1.5592
X13.8168Y-1.703
X13.8173Y-0.5252
X13.8174Y-0.7472
X13.8222Y-2.4043
X13.8232Y-0.1837
X13.8256Y-2.6907
X13.8445Y-2.2657
X13.855Y-4.8141
X13.855Y-0.8595
X13.8552Y-1.9823
X13.857Y-1.8067
X13.8824Y-4.5446
X13.8878Y-4.7079
X13.8916Y-4.9331
X13.8925Y-0.6059
X13.8952Y-2.489
X13.8959Y-1.6393
X13.9198Y-0.0777
X13.92Y-2.3353
X13.927Y-0.7076
X13.9304Y-1.7453
X13.9305Y-1.5221
X13.9542Y-4.7885
X13.963Y-4.6056
X13.9858Y-4.4701
X13.9879Y-2.4042
X13.9898Y-4.8896
X13.993Y0.002
X13.9962Y-2.2714
X14.0211Y-3.9786
X14.0212Y-0.646
X14.0221Y-1.7685
X14.0229Y-0.7759
X14.0249Y-0.4925
X14.0273Y-1.0347
X14.0288Y-1.2799
X14.0299Y-3.2333
X14.0319Y-1.6359
X14.0331Y-1.4888
X14.0334Y-4.6836
X14.0573Y-0.2585
X14.0668Y-2.0254
X14.0674Y-2.4836
X14.0681Y-4.2594
X14.0684Y-4.5817
X14.0697Y-2.3438
X14.0706Y-4.9701
X14.0713Y-4.8156
X14.0724Y-0.0759
X14.0947Y-0.5657
X14.0949Y-1.8524
X14.0975Y-0.8552
X14.0994Y-0.713
X14.1001Y-1.5693
X14.1034Y-2.6298
X14.1076Y-2.9706
X14.1079Y-1.7005
X14.1274Y-4.8925
X14.13Y-1.9454
X14.133Y-3.0873
X14.1333Y-4.6352
X14.1371Y-0.4707
X14.1407Y-3.8703
X14.1432Y-0.9537
X14.1432Y-1.2436
X14.1437Y-0.1486
X14.1628Y-4.3281
X14.1652Y-1.4888
X14.1664Y-1.7761
X14.167Y-2.5566
X14.1689Y-4.7522
X14.169Y-0.7817
X14.1705Y-4.1888
X14.1711Y-3.9751
X14.1714Y-0.6398
X14.1728Y-2.8999
X14.175Y-1.0643
X14.175Y-0.292
X14.1752Y-0.0016
X14.1762Y-4.9966
X14.1763Y-3.1867
X14.1764Y-1.3506
X14.1767Y-1.6342
X14.1791Y-2.057
T2
X0.2047Y-0.7165
X0.248Y-0.9882
X0.6299Y-0.9834
X0.689Y-4.8583
X0.6929Y-1.7126
X0.6929Y-2.4646
X0.6929Y-3.2126
X0.6929Y-3.9646
X0.9673Y-4.6614
X0.9673Y-4.7034
X0.9685Y-1.1299
X1.0Y-1.1614
X1.0039Y-4.3898
X1.0079Y-4.6614
X1.0276Y-1.7126
X1.0394Y-3.9646
X1.0748Y-4.5079
X1.1024Y-0.7598
X1.1181Y-4.6181
X1.2126Y-2.4646
X1.3071Y-3.2126
X1.315Y-4.4567
X1.3228Y-4.5551
X1.6063Y-4.6575
X1.6102Y-4.5551
X1.6102Y-4.8386
X1.6575Y-2.7362
X2.0748Y-4.5551
X2.0787Y-4.6654
X2.0827Y-4.8465
X2.252Y-4.0787
X2.3543Y-4.126
X2.437Y-4.2362
X2.5394Y-4.5512
X2.5394Y-4.6614
X2.5394Y-4.8425
X2.9409Y-4.5551
X2.9409Y-4.6654
X2.9488Y-4.8465
X4.1378Y-3.9571
X4.3504Y-3.9284
X4.5709Y-4.5827
X4.6063Y-4.5393
X4.7774Y-4.8329
X4.8053Y-4.8049
X4.8701Y-3.9291
X4.9096Y-3.9291
X4.9491Y-3.9291
X4.9882Y-3.2953
X4.9886Y-3.9291
X5.0276Y-1.7835
X5.1024Y-3.8543
X5.2244Y-2.5472
X5.2283Y-3.9291
X5.2283Y-4.1378
X5.2598Y-0.7717
X5.2717Y-3.9291
X5.4843Y-3.9284
X5.5512Y-4.1378
X5.7244Y-3.9752
X5.9724Y-3.8504
X5.9724Y-3.9488
X6.3228Y-3.8465
X6.3228Y-3.9488
X6.7244Y-3.8425
X6.7244Y-3.9528
X6.9094Y-3.9932
X7.0394Y-3.8425
X7.0394Y-3.9488
X7.437Y-3.8386
X7.4409Y-3.9488
X7.6614Y-4.0112
X7.8543Y-3.8346
X7.8583Y-3.9488
X8.2205Y-3.8386
X8.2244Y-3.9449
X8.5906Y-3.8346
X8.5906Y-3.9488
X8.937Y-4.6555
X8.937Y-4.7736
X9.0276Y-3.8543
X9.0276Y-3.9449
X9.1614Y-4.8216
X9.4016Y-3.8543
X9.4016Y-3.9449
X9.4094Y-4.6555
X9.4094Y-4.7835
X9.6614Y-4.8396
X11.2087Y-4.0236
X11.2126Y-4.126
X11.3346Y-1.7165
X11.4528Y-4.2362
X11.4724Y-4.7974
X11.4961Y-4.3386
X11.5827Y-1.8386
X11.6181Y-4.7047
X11.6181Y-4.8268
X11.878Y-4.0315
X11.8819Y-4.1299
X12.1024Y-4.2402
X12.1063Y-4.3386
X12.2244Y-4.8756
X12.4291Y-1.878
X12.4331Y-4.7126
X12.437Y-4.8307
X12.685Y-2.9646
X12.7677Y-4.1535
X12.7953Y-1.4567
X12.8346Y-3.1142
X12.9724Y-4.8936
X13.1417Y-4.7008
X13.1417Y-4.8268
X13.1692Y-4.5157
X13.1692Y-4.8858
X13.2087Y-4.5157
X13.2087Y-4.8858
X13.3425Y-4.4488
X13.3701Y-3.2874
X13.5Y-4.6142
X13.5315Y-3.2874
X13.5394Y-4.2362
X13.5945Y-4.3386
X13.6417Y-4.8504
X13.6732Y-4.5118
X13.6957Y-3.3807
X13.7126Y-4.9213
X13.7795Y-4.5157
T3
X0.7835Y-1.0472
X0.9173Y-1.0472
X4.5197Y-4.2559
X4.66Y-4.5852
X4.7717Y-4.6969
X4.9528Y-4.8071
X5.0276Y-4.122
X5.252Y-4.5827
X12.5571Y-1.5709
X0.0778Y0.1575
X0.1011Y0.2139
X0.1011Y0.1011
X0.1575Y0.2372
X0.1575Y0.0778
X0.2139Y0.2139
X0.2139Y0.1011
X0.2372Y0.1575
X7.0453Y0.1575
X7.0686Y0.2139
X7.0686Y0.1011
X7.125Y0.2372
X7.125Y0.0778
X7.1814Y0.2139
X7.1814Y0.1011
X7.2047Y0.1575
X3.5615Y-5.1575
X3.5849Y-5.1011
X3.5849Y-5.2139
X3.6412Y-5.0778
X3.6412Y-5.2372
X3.6976Y-5.1011
X3.6976Y-5.2139
X3.721Y-5.1575
X3.5615Y0.1575
X3.5849Y0.2139
X3.5849Y0.1011
X3.6412Y0.2372
X3.6412Y0.0778
X3.6976Y0.2139
X3.6976Y0.1011
X3.721Y0.1575
X14.0128Y0.1575
X14.0361Y0.2139
X14.0361Y0.1011
X14.0925Y0.2372
X14.0925Y0.0778
X14.1489Y0.2139
X14.1489Y0.1011
X14.1722Y0.1575
X7.0453Y-5.1575
X7.0686Y-5.1011
X7.0686Y-5.2139
X7.125Y-5.0778
X7.125Y-5.2372
X7.1814Y-5.1011
X7.1814Y-5.2139
X7.2047Y-5.1575
X10.529Y0.1575
X10.5524Y0.2139
X10.5524Y0.1011
X10.6088Y0.2372
X10.6088Y0.0778
X10.6651Y0.2139
X10.6651Y0.1011
X10.6885Y0.1575
X10.529Y-5.1575
X10.5524Y-5.1011
X10.5524Y-5.2139
X10.6088Y-5.0778
X10.6088Y-5.2372
X10.6651Y-5.1011
X10.6651Y-5.2139
X10.6885Y-5.1575
X14.0128Y-5.1575
X14.0361Y-5.1011
X14.0361Y-5.2139
X14.0925Y-5.0778
X14.0925Y-5.2372
X14.1489Y-5.1011
X14.1489Y-5.2139
X14.1722Y-5.1575
X0.0778Y-5.1575
X0.1011Y-5.1011
X0.1011Y-5.2139
X0.1575Y-5.0778
X0.1575Y-5.2372
X0.2139Y-5.1011
X0.2139Y-5.2139
X0.2372Y-5.1575
T4
X4.5039Y-4.626
X4.5748Y-4.7953
X4.6148Y-4.1917
X4.689Y-4.1535
X12.4291Y-1.5236
T5
X0.0931Y-0.825
X0.0931Y-0.875
X0.0931Y-0.925
X0.1431Y-0.825
X0.1431Y-0.875
X0.1431Y-0.925
T6
X13.5647Y-2.3998
X13.6032Y-2.4904
X13.6417Y-2.581
X14.0902Y-2.1767
X14.1671Y-2.3579
X0.152Y-0.1855
X0.3224Y-0.0871
X0.4374Y-0.6799
X0.5226Y-0.6307
X0.6079Y-0.5815
T7
X0.225Y-3.775
X0.475Y-3.675
X10.6Y-2.025
X10.85Y-1.925
X13.475Y-4.525
X13.725Y-4.425
X12.725Y-3.775
X12.975Y-3.675
X6.85Y-2.025
X7.1Y-1.925
X7.225Y-1.275
X7.475Y-1.175
X13.725Y-3.525
X13.975Y-3.425
X0.225Y-3.525
X0.475Y-3.425
X8.1625Y-3.525
X8.4125Y-3.425
X6.2875Y-2.775
X6.5375Y-2.675
X9.475Y-1.275
X9.725Y-1.175
X9.475Y-0.275
X9.725Y-0.175
X1.3187Y-4.275
X1.5687Y-4.175
X2.9125Y-3.525
X3.1625Y-3.425
X0.225Y-3.025
X0.475Y-2.925
X2.225Y-0.275
X2.475Y-0.175
X2.2563Y-4.275
X2.5063Y-4.175
X3.2875Y-4.275
X3.5375Y-4.175
X4.0375Y-2.775
X4.2875Y-2.675
X13.725Y-2.025
X13.975Y-1.925
X13.725Y-0.275
X13.975Y-0.175
X12.975Y-2.025
X13.225Y-1.925
X13.225Y-2.35
X13.325Y-2.6
X6.1Y-0.275
X6.35Y-0.175
X11.5375Y-2.025
X11.7875Y-1.925
X1.2688Y-3.525
X1.3687Y-3.775
X13.975Y-3.1
X14.075Y-3.35
X3.6625Y-3.525
X3.9125Y-3.425
X0.225Y-4.275
X0.475Y-4.175
X4.7875Y-2.775
X5.0375Y-2.675
X11.35Y-1.275
X11.6Y-1.175
X3.1938Y-4.275
X3.4438Y-4.175
X2.5375Y-2.775
X2.7875Y-2.675
X0.225Y-4.525
X0.475Y-4.425
X0.225Y-2.025
X0.475Y-1.925
X11.225Y-0.275
X11.475Y-0.175
X0.225Y-0.275
X0.475Y-0.175
X13.725Y-1.275
X13.975Y-1.175
X11.2562Y-2.775
X11.5062Y-2.675
X10.0375Y-4.275
X10.2875Y-4.175
X6.35Y-0.275
X6.6Y-0.175
X10.6937Y-3.525
X10.9437Y-3.425
X1.225Y-1.275
X1.475Y-1.175
X2.1625Y-3.525
X2.4125Y-3.425
X6.475Y-1.275
X6.725Y-1.175
X11.975Y-4.525
X12.225Y-4.425
X4.475Y-0.275
X4.725Y-0.175
X9.1Y-2.025
X9.35Y-1.925
X0.225Y-1.275
X0.475Y-1.175
X8.975Y-0.275
X9.225Y-0.175
X1.4125Y-4.275
X1.6625Y-4.175
X12.725Y-2.025
X12.975Y-1.925
X3.475Y-0.275
X3.725Y-0.175
X1.5062Y-2.775
X1.7562Y-2.675
X8.725Y-1.275
X8.975Y-1.175
X12.725Y-2.775
X12.975Y-2.675
X12.675Y-2.4
X12.775Y-2.65
X7.4125Y-3.525
X7.6625Y-3.425
X8.5375Y-2.775
X8.7875Y-2.675
X7.1Y-0.275
X7.35Y-0.175
X10.225Y-0.275
X10.475Y-0.175
X11.975Y-3.775
X12.225Y-3.675
X8.9125Y-3.525
X9.1625Y-3.425
X11.725Y-3.525
X11.975Y-3.425
X10.475Y-0.275
X10.725Y-0.175
X10.975Y-1.275
X11.225Y-1.175
X11.675Y-1.275
X11.775Y-1.525
X4.6Y-0.275
X4.85Y-0.175
X9.2875Y-2.775
X9.5375Y-2.675
X3.725Y-0.275
X3.975Y-0.175
X11.8812Y-2.35
X11.9812Y-2.6
X3.1Y-2.025
X3.35Y-1.925
X6.85Y-0.275
X7.1Y-0.175
X8.35Y-2.025
X8.6Y-1.925
X12.225Y-0.275
X12.475Y-0.175
X11.0687Y-3.525
X11.3187Y-3.425
X7.7875Y-2.775
X8.0375Y-2.675
X6.6625Y-3.525
X6.9125Y-3.425
X0.225Y-2.275
X0.475Y-2.175
X1.225Y-0.275
X1.475Y-0.175
X6.725Y-4.225
X6.825Y-4.475
X3.2875Y-2.775
X3.5375Y-2.675
X7.85Y-0.275
X8.1Y-0.175
X8.9125Y-4.275
X9.1625Y-4.175
X6.1Y-4.275
X6.35Y-4.175
X10.225Y-1.275
X10.475Y-1.175
X10.7875Y-2.775
X11.0375Y-2.675
X13.725Y-1.025
X13.975Y-0.925
X12.725Y-4.525
X12.975Y-4.425
X11.225Y-4.525
X11.475Y-4.425
X2.725Y-1.275
X2.975Y-1.175
X9.6625Y-3.525
X9.9125Y-3.425
X5.6Y-0.275
X5.85Y-0.175
X9.85Y-4.275
X10.1Y-4.175
X9.725Y-0.275
X9.975Y-0.175
X2.725Y-0.275
X2.975Y-0.175
X7.6Y-2.025
X7.85Y-1.925
X3.475Y-1.275
X3.725Y-1.175
X8.725Y-0.275
X8.975Y-0.175
X13.975Y-3.85
X14.075Y-4.1
X5.35Y-0.275
X5.6Y-0.175
X6.1Y-2.025
X6.35Y-1.925
X12.975Y-1.025
X13.225Y-0.925
X6.0062Y-4.275
X6.2562Y-4.175
X12.975Y-3.525
X13.225Y-3.425
X5.9125Y-3.525
X6.1625Y-3.425
X10.0375Y-2.775
X10.2875Y-2.675
X2.975Y-0.275
X3.225Y-0.175
X1.975Y-0.275
X2.225Y-0.175
X0.225Y-2.775
X0.475Y-2.675
X2.35Y-4.275
X2.6Y-4.175
X3.85Y-2.025
X4.1Y-1.925
X12.975Y-0.275
X13.225Y-0.175
X13.725Y-4.275
X13.975Y-4.175
X1.4125Y-2.025
X1.6625Y-1.925
X5.1625Y-3.525
X5.4125Y-3.425
X2.35Y-2.025
X2.6Y-1.925
X13.725Y-2.775
X13.975Y-2.675
X5.35Y-2.025
X5.6Y-1.925
X7.975Y-0.275
X8.225Y-0.175
X4.6Y-2.025
X4.85Y-1.925
X1.975Y-1.275
X2.225Y-1.175
X12.975Y-2.775
X13.225Y-2.675
X9.85Y-2.025
X10.1Y-1.925
X1.6937Y-3.525
X1.9437Y-3.425
X4.975Y-1.275
X5.225Y-1.175
X12.975Y-1.275
X13.225Y-1.175
X7.0375Y-2.775
X7.2875Y-2.675
X0.225Y-1.525
X0.475Y-1.425
X10.7875Y-4.275
X11.0375Y-4.175
X7.975Y-1.275
X8.225Y-1.175
X5.5375Y-2.775
X5.7875Y-2.675
X5.725Y-1.275
X5.975Y-1.175
X4.4125Y-3.525
X4.6625Y-3.425
X1.3187Y-2.775
X1.5687Y-2.675
X4.225Y-1.275
X4.475Y-1.175
T8
X3.6412Y-5.1575
X7.125Y-5.1575
X0.1575Y-5.1575
X0.1575Y0.1575
X7.125Y0.1575
X3.6412Y0.1575
X14.0925Y0.1575
X10.6088Y0.1575
X10.6088Y-5.1575
X14.0925Y-5.1575
T7
G00X0.1969Y-0.5074
M15
G01X0.1713Y-0.4631
M16
G05
G00X0.5787Y-0.2869
M15
G01X0.5531Y-0.2426
M16
G05
G00X13.7653Y-2.1821
M15
G01X13.8124Y-2.1621
M16
G05
G00X13.9376Y-2.5879
M15
G01X13.9847Y-2.5679
M16
G05
T0
M30
