G04 #@! TF.GenerationSoftware,KiCad,Pcbnew,(5.1.2)-1*
G04 #@! TF.CreationDate,2019-05-29T10:00:31-07:00*
G04 #@! TF.ProjectId,mad cat,6d616420-6361-4742-9e6b-696361645f70,rev?*
G04 #@! TF.SameCoordinates,Original*
G04 #@! TF.FileFunction,Legend,Top*
G04 #@! TF.FilePolarity,Positive*
%FSLAX46Y46*%
G04 Gerber Fmt 4.6, Leading zero omitted, Abs format (unit mm)*
G04 Created by KiCad (PCBNEW (5.1.2)-1) date 2019-05-29 10:00:31*
%MOMM*%
%LPD*%
G04 APERTURE LIST*
%ADD10C,0.010000*%
%ADD11C,0.120000*%
%ADD12C,0.150000*%
%ADD13C,0.300000*%
G04 APERTURE END LIST*
D10*
G36*
X210170334Y-109899334D02*
G01*
X207630334Y-109899334D01*
X207630334Y-109349000D01*
X210170334Y-109349000D01*
X210170334Y-109899334D01*
X210170334Y-109899334D01*
G37*
X210170334Y-109899334D02*
X207630334Y-109899334D01*
X207630334Y-109349000D01*
X210170334Y-109349000D01*
X210170334Y-109899334D01*
G36*
X217282334Y-112735667D02*
G01*
X216689667Y-112735667D01*
X216689667Y-111296334D01*
X215885334Y-111296334D01*
X215885334Y-110746000D01*
X216689667Y-110746000D01*
X216689667Y-109349000D01*
X217282334Y-109349000D01*
X217282334Y-112735667D01*
X217282334Y-112735667D01*
G37*
X217282334Y-112735667D02*
X216689667Y-112735667D01*
X216689667Y-111296334D01*
X215885334Y-111296334D01*
X215885334Y-110746000D01*
X216689667Y-110746000D01*
X216689667Y-109349000D01*
X217282334Y-109349000D01*
X217282334Y-112735667D01*
G36*
X215038667Y-112735667D02*
G01*
X214446000Y-112735667D01*
X214446000Y-109349000D01*
X215038667Y-109349000D01*
X215038667Y-112735667D01*
X215038667Y-112735667D01*
G37*
X215038667Y-112735667D02*
X214446000Y-112735667D01*
X214446000Y-109349000D01*
X215038667Y-109349000D01*
X215038667Y-112735667D01*
G36*
X209916334Y-111296334D02*
G01*
X208223000Y-111296334D01*
X208223000Y-112185334D01*
X210170334Y-112185334D01*
X210170334Y-112735667D01*
X207630334Y-112735667D01*
X207630334Y-110746000D01*
X209916334Y-110746000D01*
X209916334Y-111296334D01*
X209916334Y-111296334D01*
G37*
X209916334Y-111296334D02*
X208223000Y-111296334D01*
X208223000Y-112185334D01*
X210170334Y-112185334D01*
X210170334Y-112735667D01*
X207630334Y-112735667D01*
X207630334Y-110746000D01*
X209916334Y-110746000D01*
X209916334Y-111296334D01*
G36*
X206741334Y-112735667D02*
G01*
X206148667Y-112735667D01*
X206148235Y-111518584D01*
X206147803Y-110301500D01*
X205629652Y-111095023D01*
X205478751Y-111324089D01*
X205342368Y-111527264D01*
X205227486Y-111694455D01*
X205141093Y-111815570D01*
X205090172Y-111880514D01*
X205080320Y-111888773D01*
X205048664Y-111855240D01*
X204977415Y-111761231D01*
X204873764Y-111616836D01*
X204744900Y-111432147D01*
X204598014Y-111217255D01*
X204529986Y-111116417D01*
X204010834Y-110343834D01*
X203999591Y-111539750D01*
X203988348Y-112735667D01*
X203397000Y-112735667D01*
X203397000Y-109349000D01*
X204059281Y-109349000D01*
X204559798Y-110134476D01*
X204716471Y-110376174D01*
X204853837Y-110579907D01*
X204966128Y-110737657D01*
X205047582Y-110841408D01*
X205092431Y-110883141D01*
X205097715Y-110882552D01*
X205131096Y-110837064D01*
X205202809Y-110731541D01*
X205305423Y-110577184D01*
X205431508Y-110385190D01*
X205573631Y-110166761D01*
X205611880Y-110107659D01*
X206088645Y-109370167D01*
X206414989Y-109357803D01*
X206741334Y-109345439D01*
X206741334Y-112735667D01*
X206741334Y-112735667D01*
G37*
X206741334Y-112735667D02*
X206148667Y-112735667D01*
X206148235Y-111518584D01*
X206147803Y-110301500D01*
X205629652Y-111095023D01*
X205478751Y-111324089D01*
X205342368Y-111527264D01*
X205227486Y-111694455D01*
X205141093Y-111815570D01*
X205090172Y-111880514D01*
X205080320Y-111888773D01*
X205048664Y-111855240D01*
X204977415Y-111761231D01*
X204873764Y-111616836D01*
X204744900Y-111432147D01*
X204598014Y-111217255D01*
X204529986Y-111116417D01*
X204010834Y-110343834D01*
X203999591Y-111539750D01*
X203988348Y-112735667D01*
X203397000Y-112735667D01*
X203397000Y-109349000D01*
X204059281Y-109349000D01*
X204559798Y-110134476D01*
X204716471Y-110376174D01*
X204853837Y-110579907D01*
X204966128Y-110737657D01*
X205047582Y-110841408D01*
X205092431Y-110883141D01*
X205097715Y-110882552D01*
X205131096Y-110837064D01*
X205202809Y-110731541D01*
X205305423Y-110577184D01*
X205431508Y-110385190D01*
X205573631Y-110166761D01*
X205611880Y-110107659D01*
X206088645Y-109370167D01*
X206414989Y-109357803D01*
X206741334Y-109345439D01*
X206741334Y-112735667D01*
G36*
X219477822Y-109306119D02*
G01*
X219666450Y-109344772D01*
X219870634Y-109406470D01*
X220067382Y-109482091D01*
X220233702Y-109562509D01*
X220346605Y-109638600D01*
X220366176Y-109658679D01*
X220381261Y-109709733D01*
X220352542Y-109789561D01*
X220273849Y-109914427D01*
X220263541Y-109929236D01*
X220113839Y-110143083D01*
X219818100Y-109991349D01*
X219530936Y-109871840D01*
X219267551Y-109817602D01*
X219037016Y-109829420D01*
X218849226Y-109907518D01*
X218708662Y-110042112D01*
X218645640Y-110193261D01*
X218660405Y-110347305D01*
X218753205Y-110490584D01*
X218837427Y-110559736D01*
X218940474Y-110611449D01*
X219098278Y-110670493D01*
X219282743Y-110726775D01*
X219353938Y-110745326D01*
X219732489Y-110855836D01*
X220032029Y-110983114D01*
X220257350Y-111131861D01*
X220413241Y-111306779D01*
X220504495Y-111512569D01*
X220535902Y-111753932D01*
X220529811Y-111899111D01*
X220470146Y-112180363D01*
X220344991Y-112409148D01*
X220151003Y-112590498D01*
X220017890Y-112669742D01*
X219881576Y-112733431D01*
X219757265Y-112772931D01*
X219614423Y-112794859D01*
X219422515Y-112805832D01*
X219384300Y-112807040D01*
X219208736Y-112810312D01*
X219064502Y-112809464D01*
X218973131Y-112804782D01*
X218954500Y-112801310D01*
X218892837Y-112781224D01*
X218778107Y-112747381D01*
X218677353Y-112718896D01*
X218552947Y-112673770D01*
X218402936Y-112604176D01*
X218246212Y-112520988D01*
X218101669Y-112435080D01*
X217988199Y-112357326D01*
X217924693Y-112298600D01*
X217917448Y-112281507D01*
X217943150Y-112234253D01*
X218009619Y-112145361D01*
X218080905Y-112059410D01*
X218244248Y-111869987D01*
X218398996Y-111988019D01*
X218690941Y-112165825D01*
X218999012Y-112263157D01*
X219225707Y-112285494D01*
X219492157Y-112269062D01*
X219688994Y-112206946D01*
X219818407Y-112098331D01*
X219845497Y-112054473D01*
X219903883Y-111872916D01*
X219880403Y-111712631D01*
X219775181Y-111573768D01*
X219588339Y-111456477D01*
X219320001Y-111360908D01*
X219263119Y-111346040D01*
X218901772Y-111246122D01*
X218616361Y-111143069D01*
X218398199Y-111031008D01*
X218238600Y-110904067D01*
X218128877Y-110756372D01*
X218060344Y-110582052D01*
X218046477Y-110523491D01*
X218022847Y-110231301D01*
X218073838Y-109967868D01*
X218192559Y-109739052D01*
X218372119Y-109550714D01*
X218605628Y-109408716D01*
X218886194Y-109318917D01*
X219206926Y-109287179D01*
X219477822Y-109306119D01*
X219477822Y-109306119D01*
G37*
X219477822Y-109306119D02*
X219666450Y-109344772D01*
X219870634Y-109406470D01*
X220067382Y-109482091D01*
X220233702Y-109562509D01*
X220346605Y-109638600D01*
X220366176Y-109658679D01*
X220381261Y-109709733D01*
X220352542Y-109789561D01*
X220273849Y-109914427D01*
X220263541Y-109929236D01*
X220113839Y-110143083D01*
X219818100Y-109991349D01*
X219530936Y-109871840D01*
X219267551Y-109817602D01*
X219037016Y-109829420D01*
X218849226Y-109907518D01*
X218708662Y-110042112D01*
X218645640Y-110193261D01*
X218660405Y-110347305D01*
X218753205Y-110490584D01*
X218837427Y-110559736D01*
X218940474Y-110611449D01*
X219098278Y-110670493D01*
X219282743Y-110726775D01*
X219353938Y-110745326D01*
X219732489Y-110855836D01*
X220032029Y-110983114D01*
X220257350Y-111131861D01*
X220413241Y-111306779D01*
X220504495Y-111512569D01*
X220535902Y-111753932D01*
X220529811Y-111899111D01*
X220470146Y-112180363D01*
X220344991Y-112409148D01*
X220151003Y-112590498D01*
X220017890Y-112669742D01*
X219881576Y-112733431D01*
X219757265Y-112772931D01*
X219614423Y-112794859D01*
X219422515Y-112805832D01*
X219384300Y-112807040D01*
X219208736Y-112810312D01*
X219064502Y-112809464D01*
X218973131Y-112804782D01*
X218954500Y-112801310D01*
X218892837Y-112781224D01*
X218778107Y-112747381D01*
X218677353Y-112718896D01*
X218552947Y-112673770D01*
X218402936Y-112604176D01*
X218246212Y-112520988D01*
X218101669Y-112435080D01*
X217988199Y-112357326D01*
X217924693Y-112298600D01*
X217917448Y-112281507D01*
X217943150Y-112234253D01*
X218009619Y-112145361D01*
X218080905Y-112059410D01*
X218244248Y-111869987D01*
X218398996Y-111988019D01*
X218690941Y-112165825D01*
X218999012Y-112263157D01*
X219225707Y-112285494D01*
X219492157Y-112269062D01*
X219688994Y-112206946D01*
X219818407Y-112098331D01*
X219845497Y-112054473D01*
X219903883Y-111872916D01*
X219880403Y-111712631D01*
X219775181Y-111573768D01*
X219588339Y-111456477D01*
X219320001Y-111360908D01*
X219263119Y-111346040D01*
X218901772Y-111246122D01*
X218616361Y-111143069D01*
X218398199Y-111031008D01*
X218238600Y-110904067D01*
X218128877Y-110756372D01*
X218060344Y-110582052D01*
X218046477Y-110523491D01*
X218022847Y-110231301D01*
X218073838Y-109967868D01*
X218192559Y-109739052D01*
X218372119Y-109550714D01*
X218605628Y-109408716D01*
X218886194Y-109318917D01*
X219206926Y-109287179D01*
X219477822Y-109306119D01*
G36*
X212498667Y-109329962D02*
G01*
X212730296Y-109333810D01*
X212900843Y-109345124D01*
X213033781Y-109367099D01*
X213152588Y-109402933D01*
X213215139Y-109427507D01*
X213364391Y-109499710D01*
X213513386Y-109588481D01*
X213643106Y-109680363D01*
X213734537Y-109761902D01*
X213768667Y-109819170D01*
X213741941Y-109869271D01*
X213672576Y-109958928D01*
X213595002Y-110047296D01*
X213421336Y-110235701D01*
X213288085Y-110135853D01*
X213049865Y-109979440D01*
X212826425Y-109885584D01*
X212589407Y-109843986D01*
X212472278Y-109839578D01*
X212297896Y-109843843D01*
X212172467Y-109864395D01*
X212060618Y-109909951D01*
X211967142Y-109964050D01*
X211731276Y-110156720D01*
X211553917Y-110398116D01*
X211437433Y-110673585D01*
X211384194Y-110968471D01*
X211396570Y-111268120D01*
X211476930Y-111557877D01*
X211627644Y-111823088D01*
X211659916Y-111864052D01*
X211860626Y-112044163D01*
X212107082Y-112165623D01*
X212380925Y-112225086D01*
X212663795Y-112219210D01*
X212937333Y-112144648D01*
X213011284Y-112110220D01*
X213152153Y-112035584D01*
X213275262Y-111966708D01*
X213333898Y-111931236D01*
X213389816Y-111902009D01*
X213440672Y-111905677D01*
X213507248Y-111951406D01*
X213610330Y-112048360D01*
X213619179Y-112057037D01*
X213810062Y-112244375D01*
X213717723Y-112342665D01*
X213583224Y-112459273D01*
X213402554Y-112581823D01*
X213209705Y-112689004D01*
X213068360Y-112749765D01*
X212862678Y-112800526D01*
X212613244Y-112830839D01*
X212359140Y-112837780D01*
X212142826Y-112819015D01*
X211829608Y-112726006D01*
X211526599Y-112564496D01*
X211251694Y-112348855D01*
X211022787Y-112093455D01*
X210857774Y-111812663D01*
X210841549Y-111774047D01*
X210795211Y-111643097D01*
X210765728Y-111512995D01*
X210749583Y-111358392D01*
X210743261Y-111153937D01*
X210742710Y-111061248D01*
X210743572Y-110853189D01*
X210750465Y-110704360D01*
X210768463Y-110589333D01*
X210802643Y-110482677D01*
X210858079Y-110358961D01*
X210899937Y-110273486D01*
X211088011Y-109964330D01*
X211320504Y-109718410D01*
X211612443Y-109521017D01*
X211729063Y-109461798D01*
X211857395Y-109403452D01*
X211963909Y-109365162D01*
X212072496Y-109342837D01*
X212207047Y-109332384D01*
X212391452Y-109329711D01*
X212498667Y-109329962D01*
X212498667Y-109329962D01*
G37*
X212498667Y-109329962D02*
X212730296Y-109333810D01*
X212900843Y-109345124D01*
X213033781Y-109367099D01*
X213152588Y-109402933D01*
X213215139Y-109427507D01*
X213364391Y-109499710D01*
X213513386Y-109588481D01*
X213643106Y-109680363D01*
X213734537Y-109761902D01*
X213768667Y-109819170D01*
X213741941Y-109869271D01*
X213672576Y-109958928D01*
X213595002Y-110047296D01*
X213421336Y-110235701D01*
X213288085Y-110135853D01*
X213049865Y-109979440D01*
X212826425Y-109885584D01*
X212589407Y-109843986D01*
X212472278Y-109839578D01*
X212297896Y-109843843D01*
X212172467Y-109864395D01*
X212060618Y-109909951D01*
X211967142Y-109964050D01*
X211731276Y-110156720D01*
X211553917Y-110398116D01*
X211437433Y-110673585D01*
X211384194Y-110968471D01*
X211396570Y-111268120D01*
X211476930Y-111557877D01*
X211627644Y-111823088D01*
X211659916Y-111864052D01*
X211860626Y-112044163D01*
X212107082Y-112165623D01*
X212380925Y-112225086D01*
X212663795Y-112219210D01*
X212937333Y-112144648D01*
X213011284Y-112110220D01*
X213152153Y-112035584D01*
X213275262Y-111966708D01*
X213333898Y-111931236D01*
X213389816Y-111902009D01*
X213440672Y-111905677D01*
X213507248Y-111951406D01*
X213610330Y-112048360D01*
X213619179Y-112057037D01*
X213810062Y-112244375D01*
X213717723Y-112342665D01*
X213583224Y-112459273D01*
X213402554Y-112581823D01*
X213209705Y-112689004D01*
X213068360Y-112749765D01*
X212862678Y-112800526D01*
X212613244Y-112830839D01*
X212359140Y-112837780D01*
X212142826Y-112819015D01*
X211829608Y-112726006D01*
X211526599Y-112564496D01*
X211251694Y-112348855D01*
X211022787Y-112093455D01*
X210857774Y-111812663D01*
X210841549Y-111774047D01*
X210795211Y-111643097D01*
X210765728Y-111512995D01*
X210749583Y-111358392D01*
X210743261Y-111153937D01*
X210742710Y-111061248D01*
X210743572Y-110853189D01*
X210750465Y-110704360D01*
X210768463Y-110589333D01*
X210802643Y-110482677D01*
X210858079Y-110358961D01*
X210899937Y-110273486D01*
X211088011Y-109964330D01*
X211320504Y-109718410D01*
X211612443Y-109521017D01*
X211729063Y-109461798D01*
X211857395Y-109403452D01*
X211963909Y-109365162D01*
X212072496Y-109342837D01*
X212207047Y-109332384D01*
X212391452Y-109329711D01*
X212498667Y-109329962D01*
G36*
X201195667Y-114556000D02*
G01*
X183500334Y-114556000D01*
X183500334Y-112735667D01*
X185659334Y-112735667D01*
X186252000Y-112735667D01*
X186252000Y-110301849D01*
X186781504Y-111095425D01*
X186935178Y-111323667D01*
X187074110Y-111526081D01*
X187191242Y-111692702D01*
X187279513Y-111813565D01*
X187331867Y-111878705D01*
X187342420Y-111887264D01*
X187374114Y-111853156D01*
X187445539Y-111758561D01*
X187549560Y-111613505D01*
X187679045Y-111428015D01*
X187826857Y-111212115D01*
X187903000Y-111099471D01*
X188432167Y-110313415D01*
X188443399Y-111524541D01*
X188454632Y-112735667D01*
X189046000Y-112735667D01*
X189046000Y-110746000D01*
X189892667Y-110746000D01*
X189892667Y-112735667D01*
X192390334Y-112735667D01*
X192390334Y-112185334D01*
X190485334Y-112185334D01*
X190485334Y-111296334D01*
X192178667Y-111296334D01*
X192178667Y-110746000D01*
X189892667Y-110746000D01*
X189046000Y-110746000D01*
X189046000Y-109349000D01*
X189892667Y-109349000D01*
X189892667Y-109899334D01*
X192432667Y-109899334D01*
X192432667Y-109349000D01*
X192898334Y-109349000D01*
X192898334Y-109899334D01*
X193956667Y-109899334D01*
X193956667Y-112735667D01*
X194591667Y-112735667D01*
X195989734Y-112735667D01*
X196608891Y-112735667D01*
X197177196Y-111382847D01*
X197330922Y-111018286D01*
X197455905Y-110725561D01*
X197555326Y-110498094D01*
X197632369Y-110329305D01*
X197690215Y-110212615D01*
X197732046Y-110141443D01*
X197761045Y-110109211D01*
X197780394Y-110109339D01*
X197787834Y-110120294D01*
X197814277Y-110180415D01*
X197869339Y-110308414D01*
X197948707Y-110494168D01*
X198048068Y-110727556D01*
X198163111Y-110998454D01*
X198289523Y-111296742D01*
X198359678Y-111462531D01*
X198889189Y-112714500D01*
X199195761Y-112726938D01*
X199344476Y-112728385D01*
X199453427Y-112720702D01*
X199501625Y-112705522D01*
X199502334Y-112703079D01*
X199485862Y-112657815D01*
X199438773Y-112543192D01*
X199364553Y-112367341D01*
X199266687Y-112138397D01*
X199148663Y-111864494D01*
X199013966Y-111553764D01*
X198866083Y-111214342D01*
X198771165Y-110997307D01*
X198039996Y-109327834D01*
X197765748Y-109315639D01*
X197491500Y-109303445D01*
X196848268Y-110776139D01*
X196698929Y-111117974D01*
X196556067Y-111444831D01*
X196424228Y-111746319D01*
X196307961Y-112012046D01*
X196211810Y-112231621D01*
X196140324Y-112394653D01*
X196098049Y-112490749D01*
X196097385Y-112492250D01*
X195989734Y-112735667D01*
X194591667Y-112735667D01*
X194591667Y-109899334D01*
X195650000Y-109899334D01*
X195650000Y-109349000D01*
X192898334Y-109349000D01*
X192432667Y-109349000D01*
X189892667Y-109349000D01*
X189046000Y-109349000D01*
X188717917Y-109349528D01*
X188389834Y-109350055D01*
X187884877Y-110133621D01*
X187700962Y-110415144D01*
X187556931Y-110626701D01*
X187450301Y-110771630D01*
X187378588Y-110853269D01*
X187339309Y-110874956D01*
X187335229Y-110872496D01*
X187299478Y-110824669D01*
X187225557Y-110717045D01*
X187121097Y-110561040D01*
X186993726Y-110368068D01*
X186851072Y-110149544D01*
X186818273Y-110098986D01*
X186346008Y-109370167D01*
X186002671Y-109357871D01*
X185659334Y-109345576D01*
X185659334Y-112735667D01*
X183500334Y-112735667D01*
X183500334Y-107486334D01*
X201195667Y-107486334D01*
X201195667Y-114556000D01*
X201195667Y-114556000D01*
G37*
X201195667Y-114556000D02*
X183500334Y-114556000D01*
X183500334Y-112735667D01*
X185659334Y-112735667D01*
X186252000Y-112735667D01*
X186252000Y-110301849D01*
X186781504Y-111095425D01*
X186935178Y-111323667D01*
X187074110Y-111526081D01*
X187191242Y-111692702D01*
X187279513Y-111813565D01*
X187331867Y-111878705D01*
X187342420Y-111887264D01*
X187374114Y-111853156D01*
X187445539Y-111758561D01*
X187549560Y-111613505D01*
X187679045Y-111428015D01*
X187826857Y-111212115D01*
X187903000Y-111099471D01*
X188432167Y-110313415D01*
X188443399Y-111524541D01*
X188454632Y-112735667D01*
X189046000Y-112735667D01*
X189046000Y-110746000D01*
X189892667Y-110746000D01*
X189892667Y-112735667D01*
X192390334Y-112735667D01*
X192390334Y-112185334D01*
X190485334Y-112185334D01*
X190485334Y-111296334D01*
X192178667Y-111296334D01*
X192178667Y-110746000D01*
X189892667Y-110746000D01*
X189046000Y-110746000D01*
X189046000Y-109349000D01*
X189892667Y-109349000D01*
X189892667Y-109899334D01*
X192432667Y-109899334D01*
X192432667Y-109349000D01*
X192898334Y-109349000D01*
X192898334Y-109899334D01*
X193956667Y-109899334D01*
X193956667Y-112735667D01*
X194591667Y-112735667D01*
X195989734Y-112735667D01*
X196608891Y-112735667D01*
X197177196Y-111382847D01*
X197330922Y-111018286D01*
X197455905Y-110725561D01*
X197555326Y-110498094D01*
X197632369Y-110329305D01*
X197690215Y-110212615D01*
X197732046Y-110141443D01*
X197761045Y-110109211D01*
X197780394Y-110109339D01*
X197787834Y-110120294D01*
X197814277Y-110180415D01*
X197869339Y-110308414D01*
X197948707Y-110494168D01*
X198048068Y-110727556D01*
X198163111Y-110998454D01*
X198289523Y-111296742D01*
X198359678Y-111462531D01*
X198889189Y-112714500D01*
X199195761Y-112726938D01*
X199344476Y-112728385D01*
X199453427Y-112720702D01*
X199501625Y-112705522D01*
X199502334Y-112703079D01*
X199485862Y-112657815D01*
X199438773Y-112543192D01*
X199364553Y-112367341D01*
X199266687Y-112138397D01*
X199148663Y-111864494D01*
X199013966Y-111553764D01*
X198866083Y-111214342D01*
X198771165Y-110997307D01*
X198039996Y-109327834D01*
X197765748Y-109315639D01*
X197491500Y-109303445D01*
X196848268Y-110776139D01*
X196698929Y-111117974D01*
X196556067Y-111444831D01*
X196424228Y-111746319D01*
X196307961Y-112012046D01*
X196211810Y-112231621D01*
X196140324Y-112394653D01*
X196098049Y-112490749D01*
X196097385Y-112492250D01*
X195989734Y-112735667D01*
X194591667Y-112735667D01*
X194591667Y-109899334D01*
X195650000Y-109899334D01*
X195650000Y-109349000D01*
X192898334Y-109349000D01*
X192432667Y-109349000D01*
X189892667Y-109349000D01*
X189046000Y-109349000D01*
X188717917Y-109349528D01*
X188389834Y-109350055D01*
X187884877Y-110133621D01*
X187700962Y-110415144D01*
X187556931Y-110626701D01*
X187450301Y-110771630D01*
X187378588Y-110853269D01*
X187339309Y-110874956D01*
X187335229Y-110872496D01*
X187299478Y-110824669D01*
X187225557Y-110717045D01*
X187121097Y-110561040D01*
X186993726Y-110368068D01*
X186851072Y-110149544D01*
X186818273Y-110098986D01*
X186346008Y-109370167D01*
X186002671Y-109357871D01*
X185659334Y-109345576D01*
X185659334Y-112735667D01*
X183500334Y-112735667D01*
X183500334Y-107486334D01*
X201195667Y-107486334D01*
X201195667Y-114556000D01*
D11*
X315615000Y-26310000D02*
X318500000Y-26310000D01*
X315615000Y-24490000D02*
X315615000Y-26310000D01*
X318500000Y-24490000D02*
X315615000Y-24490000D01*
D12*
X316380952Y-21852380D02*
X315904761Y-21852380D01*
X315904761Y-20852380D01*
X316714285Y-21328571D02*
X317047619Y-21328571D01*
X317190476Y-21852380D02*
X316714285Y-21852380D01*
X316714285Y-20852380D01*
X317190476Y-20852380D01*
X317619047Y-21852380D02*
X317619047Y-20852380D01*
X317857142Y-20852380D01*
X318000000Y-20900000D01*
X318095238Y-20995238D01*
X318142857Y-21090476D01*
X318190476Y-21280952D01*
X318190476Y-21423809D01*
X318142857Y-21614285D01*
X318095238Y-21709523D01*
X318000000Y-21804761D01*
X317857142Y-21852380D01*
X317619047Y-21852380D01*
X319142857Y-21852380D02*
X318571428Y-21852380D01*
X318857142Y-21852380D02*
X318857142Y-20852380D01*
X318761904Y-20995238D01*
X318666666Y-21090476D01*
X318571428Y-21138095D01*
D13*
X158083333Y-102029761D02*
X157702380Y-102029761D01*
X157511904Y-102125000D01*
X157416666Y-102220238D01*
X157226190Y-102505952D01*
X157130952Y-102886904D01*
X157130952Y-103648809D01*
X157226190Y-103839285D01*
X157321428Y-103934523D01*
X157511904Y-104029761D01*
X157892857Y-104029761D01*
X158083333Y-103934523D01*
X158178571Y-103839285D01*
X158273809Y-103648809D01*
X158273809Y-103172619D01*
X158178571Y-102982142D01*
X158083333Y-102886904D01*
X157892857Y-102791666D01*
X157511904Y-102791666D01*
X157321428Y-102886904D01*
X157226190Y-102982142D01*
X157130952Y-103172619D01*
X159130952Y-102029761D02*
X159130952Y-103648809D01*
X159226190Y-103839285D01*
X159321428Y-103934523D01*
X159511904Y-104029761D01*
X159892857Y-104029761D01*
X160083333Y-103934523D01*
X160178571Y-103839285D01*
X160273809Y-103648809D01*
X160273809Y-102029761D01*
X153321130Y-113904761D02*
X152940178Y-113904761D01*
X152749702Y-114000000D01*
X152654464Y-114095238D01*
X152463988Y-114380952D01*
X152368750Y-114761904D01*
X152368750Y-115523809D01*
X152463988Y-115714285D01*
X152559226Y-115809523D01*
X152749702Y-115904761D01*
X153130654Y-115904761D01*
X153321130Y-115809523D01*
X153416369Y-115714285D01*
X153511607Y-115523809D01*
X153511607Y-115047619D01*
X153416369Y-114857142D01*
X153321130Y-114761904D01*
X153130654Y-114666666D01*
X152749702Y-114666666D01*
X152559226Y-114761904D01*
X152463988Y-114857142D01*
X152368750Y-115047619D01*
X154368750Y-115714285D02*
X154463988Y-115809523D01*
X154368750Y-115904761D01*
X154273511Y-115809523D01*
X154368750Y-115714285D01*
X154368750Y-115904761D01*
X155225892Y-114095238D02*
X155321130Y-114000000D01*
X155511607Y-113904761D01*
X155987797Y-113904761D01*
X156178273Y-114000000D01*
X156273511Y-114095238D01*
X156368750Y-114285714D01*
X156368750Y-114476190D01*
X156273511Y-114761904D01*
X155130654Y-115904761D01*
X156368750Y-115904761D01*
X158178273Y-113904761D02*
X157225892Y-113904761D01*
X157130654Y-114857142D01*
X157225892Y-114761904D01*
X157416369Y-114666666D01*
X157892559Y-114666666D01*
X158083035Y-114761904D01*
X158178273Y-114857142D01*
X158273511Y-115047619D01*
X158273511Y-115523809D01*
X158178273Y-115714285D01*
X158083035Y-115809523D01*
X157892559Y-115904761D01*
X157416369Y-115904761D01*
X157225892Y-115809523D01*
X157130654Y-115714285D01*
X159130654Y-113904761D02*
X159130654Y-115523809D01*
X159225892Y-115714285D01*
X159321130Y-115809523D01*
X159511607Y-115904761D01*
X159892559Y-115904761D01*
X160083035Y-115809523D01*
X160178273Y-115714285D01*
X160273511Y-115523809D01*
X160273511Y-113904761D01*
X166560714Y-102029761D02*
X167894047Y-102029761D01*
X167036904Y-104029761D01*
X168655952Y-102029761D02*
X168655952Y-103648809D01*
X168751190Y-103839285D01*
X168846428Y-103934523D01*
X169036904Y-104029761D01*
X169417857Y-104029761D01*
X169608333Y-103934523D01*
X169703571Y-103839285D01*
X169798809Y-103648809D01*
X169798809Y-102029761D01*
X147510714Y-102029761D02*
X148844047Y-102029761D01*
X147986904Y-104029761D01*
X149605952Y-102029761D02*
X149605952Y-103648809D01*
X149701190Y-103839285D01*
X149796428Y-103934523D01*
X149986904Y-104029761D01*
X150367857Y-104029761D01*
X150558333Y-103934523D01*
X150653571Y-103839285D01*
X150748809Y-103648809D01*
X150748809Y-102029761D01*
M02*
