M48
; DRILL file {KiCad (5.1.2)-1} date 6/25/2019 3:37:32 AM
; FORMAT={-:-/ absolute / inch / decimal}
; #@! TF.CreationDate,2019-06-25T03:37:32-07:00
; #@! TF.GenerationSoftware,Kicad,Pcbnew,(5.1.2)-1
; #@! TF.FileFunction,Plated,1,2,PTH
FMAT,2
INCH
T1C0.0118
T2C0.0157
T3C0.0197
T4C0.0236
T5C0.0256
T6C0.0394
T7C0.0591
T8C0.1063
%
G90
G05
T1
X0.06Y-4.7118
X0.0605Y-1.807
X0.0606Y-4.4993
X0.0607Y-2.7971
X0.0611Y-2.157
X0.0618Y-1.024
X0.0619Y-3.6534
X0.0624Y-1.8773
X0.0626Y-3.4393
X0.0626Y-2.2415
X0.0633Y-2.7359
X0.0638Y-3.3597
X0.0638Y-2.5167
X0.0645Y-1.2478
X0.0646Y-1.6644
X0.0652Y-3.7949
X0.0652Y-4.3591
X0.0658Y-2.87
X0.0661Y-3.3002
X0.0664Y-1.597
X0.0665Y-3.1511
X0.0665Y-1.4597
X0.0667Y-1.3783
X0.0674Y-2.4457
X0.0676Y-3.7215
X0.0676Y-3.5799
X0.0677Y-0.0095
X0.0683Y-3.0212
X0.0683Y-3.5159
X0.0685Y-1.1684
X0.0687Y-2.3691
X0.0689Y-4.1489
X0.0694Y-2.0894
X0.07Y-4.2906
X0.0706Y-4.6503
X0.0711Y-3.8599
X0.0712Y-1.3194
X0.0714Y-4.8589
X0.0719Y-2.6612
X0.0719Y-1.74
X0.072Y-5.0066
X0.0725Y-4.4321
X0.0727Y-3.9295
X0.0731Y-2.5941
X0.0735Y-4.5666
X0.0738Y-1.0963
X0.0739Y-4.785
X0.0744Y-3.0857
X0.0749Y-4.2245
X0.075Y-4.0096
X0.0752Y-4.9346
X0.0752Y-2.9453
X0.0756Y-3.2206
X0.0756Y-1.5344
X0.0758Y-4.0702
X0.0769Y-1.949
X0.077Y-2.3008
X0.0771Y-2.0289
X0.0958Y-4.7489
X0.0959Y-2.7665
X0.096Y-4.0352
X0.0961Y-4.1901
X0.0962Y-3.2546
X0.0969Y-4.8916
X0.0986Y-4.4734
X0.0988Y-2.2767
X0.099Y-4.8141
X0.1002Y-2.6917
X0.1007Y-1.278
X0.1009Y-1.9232
X0.1031Y-1.8524
X0.1038Y-3.5522
X0.104Y-3.3282
X0.1043Y-1.4916
X0.1046Y-1.2095
X0.1051Y-4.255
X0.1051Y-2.4816
X0.1052Y-3.754
X0.1053Y-1.7659
X0.1054Y-0.0444
X0.1055Y-1.0585
X0.1061Y-4.5321
X0.1063Y-1.9863
X0.1067Y-4.9678
X0.1074Y-3.9739
X0.1075Y-2.9703
X0.109Y-1.1333
X0.1093Y-1.7023
X0.1103Y-2.6319
X0.1109Y-4.1059
X0.1116Y-3.4027
X0.1124Y-2.5544
X0.1127Y-3.4786
X0.1312Y-4.7901
X0.1327Y-1.8885
X0.1332Y-4.8564
X0.1339Y-1.1069
X0.1348Y-2.6597
X0.1348Y-4.0841
X0.1352Y-4.9335
X0.1357Y-1.8135
X0.1377Y-4.0117
X0.1405Y-4.1452
X0.1412Y-1.7343
X0.1423Y-3.2884
X0.1428Y-3.2223
X0.1431Y-3.3605
X0.1432Y-1.1722
X0.1454Y-3.4353
X0.1472Y-2.5187
X0.1484Y-2.5973
X0.1666Y-0.6461
X0.1697Y-4.8242
X0.1708Y-1.8472
X0.1715Y-2.4845
X0.1718Y-3.2553
X0.1729Y-4.1171
X0.1735Y-4.0329
X0.1743Y-4.7205
X0.1752Y-3.3369
X0.1778Y-2.5449
X0.1782Y-3.3999
X0.1788Y-4.9696
X0.1789Y-1.9152
X0.1791Y-3.9754
X0.1804Y-2.6328
X0.1813Y-1.1277
X0.1828Y-1.7812
X0.1834Y-4.8863
X0.2018Y-3.303
X0.2035Y-2.526
X0.2039Y-1.1756
X0.2042Y-1.8121
X0.205Y-4.8545
X0.2053Y-3.2326
X0.2058Y-4.7486
X0.2075Y-3.3672
X0.2105Y-2.592
X0.2109Y-4.0774
X0.2114Y-4.001
X0.2116Y-1.7374
X0.2121Y-2.6584
X0.2164Y-4.1443
X0.2172Y-1.8801
X0.2187Y-4.924
X0.2385Y-1.918
X0.2394Y-3.9784
X0.2404Y-1.1442
X0.2414Y-4.1131
X0.2414Y-1.8492
X0.2415Y0.0015
X0.2422Y-2.5492
X0.2423Y-1.7057
X0.2432Y-1.7817
X0.2444Y-4.7802
X0.2462Y-3.3283
X0.2469Y-3.2533
X0.2474Y-4.9606
X0.2482Y-2.4776
X0.2486Y-3.399
X0.2487Y-4.8961
X0.253Y-2.6156
X0.2545Y-4.047
X0.2754Y-3.3665
X0.2782Y-1.8735
X0.2801Y-1.801
X0.2804Y-4.0684
X0.2815Y-4.829
X0.2823Y-2.6545
X0.2826Y-4.0024
X0.2842Y-2.5124
X0.2862Y-1.1753
X0.2865Y-2.5828
X0.288Y-3.2943
X0.2886Y-4.1424
X0.2888Y-4.9325
X0.3092Y-3.3394
X0.3102Y-1.8484
X0.312Y-3.2685
X0.3124Y-4.1088
X0.3126Y-2.5489
X0.3134Y-4.0409
X0.3149Y-1.7792
X0.316Y-4.1761
X0.3174Y-1.1342
X0.3181Y-1.2147
X0.3206Y-4.8519
X0.3213Y-2.7006
X0.3215Y-1.9235
X0.3221Y-2.6201
X0.3239Y-3.4013
X0.346Y-2.6601
X0.3464Y-4.8188
X0.3484Y-2.5875
X0.3507Y-4.8847
X0.351Y-3.3757
X0.3542Y-4.0704
X0.3547Y-2.7374
X0.3547Y-2.5215
X0.3552Y-1.9549
X0.356Y-1.8735
X0.3584Y-3.4309
X0.3587Y-0.8859
X0.3589Y-3.3033
X0.3592Y-4.2121
X0.3595Y-1.8009
X0.36Y-1.178
X0.3606Y-4.1496
X0.3803Y-3.2613
X0.3811Y-2.5492
X0.3824Y-4.8476
X0.3825Y-1.7789
X0.3833Y-4.9191
X0.3859Y-3.3262
X0.3917Y-1.8455
X0.3953Y-4.0432
X0.4162Y-2.5124
X0.4216Y-4.8271
X0.4283Y-0.8799
X0.4295Y-3.3041
X0.4304Y-4.8901
X0.4314Y-1.8045
X0.4504Y-0.9227
X0.4527Y-0.8505
X0.4603Y-4.933
X0.4607Y-4.8543
X0.4853Y-0.8882
X0.489Y-0.9636
X0.4919Y-4.8204
X0.4946Y-4.8849
X0.4981Y-4.5362
X0.5004Y-4.7195
X0.521Y-1.8044
X0.5212Y-0.9215
X0.5226Y-1.2792
X0.5229Y-1.7368
X0.5257Y-2.4821
X0.5282Y-4.9186
X0.5299Y-3.2264
X0.5358Y-0.8136
X0.5366Y-3.9702
X0.5368Y-4.8484
X0.5371Y-2.5482
X0.5378Y-4.0341
X0.5384Y-3.2979
X0.5561Y-0.8882
X0.5573Y-1.8482
X0.5586Y-4.8136
X0.5588Y-3.3411
X0.5589Y-4.2613
X0.5604Y-2.024
X0.5606Y-4.0729
X0.5613Y-2.5262
X0.5634Y-4.9004
X0.5663Y-3.5163
X0.5666Y-4.0132
X0.569Y-2.7735
X0.571Y-4.7199
X0.5723Y-3.2693
X0.5723Y-2.5847
X0.5729Y-1.781
X0.5915Y-3.2959
X0.5919Y-4.9335
X0.5921Y-1.942
X0.5922Y-1.2029
X0.5926Y-3.9753
X0.5933Y-3.7157
X0.5938Y-4.856
X0.5942Y-3.4307
X0.5945Y-4.1132
X0.5952Y-2.6296
X0.5964Y-1.2793
X0.5964Y-0.0995
X0.5974Y-2.6928
X0.599Y-4.1841
X0.5993Y-2.9793
X0.5997Y-3.3625
X0.6008Y-3.2211
X0.6022Y-2.4803
X0.6029Y-2.5481
X0.6032Y-4.0351
X0.6038Y-2.2331
X0.6049Y-1.7314
X0.6079Y-1.8079
X0.608Y-1.1297
X0.608Y-1.8834
X0.609Y-4.4729
X0.627Y-0.8913
X0.6284Y-1.2356
X0.6285Y-3.3949
X0.6291Y-2.7313
X0.6298Y-1.8482
X0.63Y-1.1674
X0.6345Y-3.3391
X0.6351Y-4.5071
X0.6369Y-2.66
X0.6372Y-4.2241
X0.6373Y-1.9786
X0.6375Y-2.5807
X0.6376Y-3.4752
X0.6387Y-1.9219
X0.64Y-4.2891
X0.6405Y-4.0841
X0.6413Y-4.7178
X0.6416Y-4.1501
X0.6634Y-0.7036
X0.6635Y-1.9444
X0.6644Y-4.4695
X0.6645Y-4.112
X0.6649Y-2.6211
X0.6649Y-2.6896
X0.6659Y-1.4232
X0.6664Y-1.2027
X0.6667Y-2.8307
X0.6696Y-3.3697
X0.6709Y-2.9016
X0.6721Y-4.1918
X0.6725Y-4.035
X0.6725Y-2.1711
X0.6726Y-2.5608
X0.6726Y-2.0922
X0.6733Y-2.7651
X0.6749Y-3.4352
X0.6755Y-3.3053
X0.6762Y-1.3409
X0.6768Y-3.5108
X0.6774Y-4.5331
X0.6775Y-3.659
X0.6776Y-3.7256
X0.6776Y-1.8009
X0.6778Y-4.3165
X0.6781Y-2.0262
X0.6784Y-4.4032
X0.6786Y-1.2761
X0.6787Y-0.1096
X0.6791Y-0.2128
X0.6797Y-4.2601
X0.6798Y-3.5815
X0.68Y-1.8715
X0.6986Y-2.1933
X0.6994Y-1.2402
X0.6998Y-1.8493
X0.7Y-3.466
X0.702Y-2.1207
X0.7026Y-1.4535
X0.7039Y-2.806
X0.7043Y-1.3147
X0.7043Y-0.3211
X0.7046Y-0.9261
X0.7047Y-4.2848
X0.7055Y-3.396
X0.7063Y-3.6175
X0.7068Y-0.8485
X0.7069Y-3.6902
X0.7071Y-4.2182
X0.708Y-4.3645
X0.7083Y-0.2507
X0.709Y-1.3781
X0.7091Y-2.0537
X0.7095Y-2.7229
X0.7098Y-3.5476
X0.7098Y-2.5939
X0.7099Y-4.4301
X0.7105Y-2.9399
X0.7108Y-4.5676
X0.7109Y-1.9824
X0.7118Y-1.9192
X0.7122Y-4.4965
X0.7125Y-3.3268
X0.7137Y-2.8738
X0.7146Y-4.0706
X0.7146Y-4.156
X0.7147Y-2.6659
X0.7154Y-0.6826
X0.7333Y-3.0897
X0.7338Y-2.0971
X0.7339Y-0.7194
X0.734Y-3.7213
X0.7344Y-0.2914
X0.7348Y-1.589
X0.7351Y-2.6272
X0.7354Y-4.3894
X0.7355Y-3.654
X0.7363Y-3.3637
X0.7364Y-3.2928
X0.7366Y-3.8264
X0.7371Y-1.4153
X0.7372Y-1.9536
X0.7373Y-3.5125
X0.7381Y-4.255
X0.7386Y-2.0221
X0.7392Y-2.1616
X0.7393Y-2.7037
X0.7406Y-4.3191
X0.741Y-4.4682
X0.7417Y-4.6145
X0.7436Y-0.1
X0.7439Y-2.8317
X0.744Y-2.7733
X0.7443Y-3.4393
X0.7443Y-1.3486
X0.745Y-4.0342
X0.7452Y-4.1863
X0.7456Y-2.5474
X0.7457Y-4.1064
X0.7471Y-3.5774
X0.7476Y-4.5387
X0.7477Y-2.335
X0.748Y-1.8806
X0.7483Y-1.1986
X0.7484Y-2.9016
X0.7486Y-1.2746
X0.7493Y-1.8135
X0.7501Y-0.349
X0.7501Y-0.222
X0.7689Y-2.7383
X0.7695Y-4.5796
X0.7696Y-2.1291
X0.7699Y-2.5871
X0.7701Y-4.3633
X0.7706Y-2.274
X0.7707Y-1.9203
X0.7707Y-0.245
X0.7719Y-2.7975
X0.7724Y-2.3805
X0.7728Y-2.8737
X0.773Y-4.7903
X0.773Y-4.0733
X0.7735Y-4.2266
X0.7736Y-3.1178
X0.7737Y-4.4306
X0.7739Y-1.9854
X0.7747Y-1.4553
X0.7751Y-1.388
X0.7753Y-1.3066
X0.7757Y-3.8671
X0.7761Y-3.5489
X0.7764Y-3.6922
X0.7776Y-2.193
X0.7782Y-1.2369
X0.7785Y-0.3156
X0.7793Y-0.6723
X0.7795Y-3.3396
X0.7801Y-1.8434
X0.7801Y-2.9498
X0.7804Y-3.398
X0.7812Y-4.1398
X0.782Y-0.6022
X0.7823Y-1.6398
X0.7831Y-3.6102
X0.7831Y-4.2805
X0.7835Y-4.5023
X0.7841Y-1.5284
X0.7842Y-2.6643
X0.7846Y-3.4806
X0.7848Y-4.9334
X0.785Y-3.7585
X0.7851Y-3.006
X0.7852Y-2.0497
X0.8047Y-0.7083
X0.8147Y-0.2171
X0.8195Y-0.6412
X0.8209Y-0.2773
X0.8217Y-0.113
X0.8425Y-0.2432
X0.8451Y-4.9334
X0.8504Y-0.6705
X0.9153Y-4.9261
X0.9157Y-0.9234
X0.9227Y-0.8591
X0.9552Y-0.0739
X0.9628Y-0.8952
X0.9829Y-0.1079
X1.0169Y-2.8087
X1.017Y-2.5853
X1.0173Y-2.873
X1.0176Y-4.3303
X1.0192Y-3.2658
X1.0199Y-1.4522
X1.0203Y-1.3903
X1.0204Y-3.5455
X1.0211Y-4.12
X1.0215Y-2.0139
X1.023Y-2.5257
X1.0231Y-3.617
X1.0239Y-4.2597
X1.025Y-1.5978
X1.0255Y-3.477
X1.0255Y-2.6511
X1.026Y-2.0874
X1.026Y-3.0794
X1.0266Y-1.9451
X1.0279Y-2.7285
X1.0286Y-1.8098
X1.0286Y-4.042
X1.0288Y-4.1823
X1.0288Y-2.2379
X1.03Y-0.081
X1.0305Y-0.6029
X1.0306Y-2.9392
X1.0306Y-2.3036
X1.0308Y-3.3982
X1.031Y-3.3245
X1.031Y-3.1519
X1.0314Y-3.0151
X1.0314Y-3.7534
X1.032Y-1.5193
X1.0326Y-1.3092
X1.0335Y-3.8205
X1.0335Y-2.3772
X1.0337Y-2.1643
X1.034Y-3.6857
X1.034Y-1.2449
X1.034Y-1.8831
X1.0523Y-3.5126
X1.0524Y-2.7624
X1.0536Y-2.1911
X1.0536Y-1.8511
X1.0539Y-1.4922
X1.0539Y-2.4186
X1.0551Y-2.9852
X1.0552Y-1.2735
X1.0552Y-2.2714
X1.0553Y-3.7151
X1.0559Y-3.4372
X1.0571Y-2.3354
X1.0575Y-3.2944
X1.0581Y-2.0483
X1.059Y-2.6203
X1.0593Y-3.0505
X1.0594Y-1.4232
X1.0606Y-4.22
X1.061Y-2.1344
X1.0616Y-2.702
X1.0623Y-3.1283
X1.0623Y-1.9199
X1.0625Y-4.0818
X1.0645Y-3.5891
X1.0648Y-1.0676
X1.0656Y-2.8377
X1.0658Y-0.1097
X1.0659Y-4.2948
X1.0664Y-3.3646
X1.0674Y-2.8997
X1.0679Y-3.6474
X1.0691Y-2.5487
X1.0691Y-4.1507
X1.0696Y-1.3464
X1.0698Y-1.9871
X1.0879Y-3.7598
X1.0879Y-1.2063
X1.0886Y-1.9573
X1.0897Y-0.0789
X1.0902Y-2.8774
X1.0903Y-3.2702
X1.0903Y-3.4752
X1.0905Y-3.3329
X1.0926Y-0.9952
X1.0937Y-3.0072
X1.0937Y-2.5902
X1.0938Y-4.1902
X1.094Y-2.5243
X1.094Y-2.722
X1.095Y-2.0992
X1.0959Y-4.0356
X1.096Y-3.1636
X1.0966Y-0.9162
X1.097Y-4.2461
X1.0977Y-4.1051
X1.0984Y-2.0246
X1.0987Y-3.6075
X1.0994Y-3.0852
X1.1007Y-2.9345
X1.1009Y-4.3203
X1.1011Y-2.7988
X1.1011Y-1.8861
X1.1012Y-2.2988
X1.1013Y-0.8511
X1.1014Y-3.4058
X1.1019Y-3.6858
X1.1024Y-2.6646
X1.1028Y-1.1068
X1.1029Y-3.539
X1.1032Y-2.2277
X1.1036Y-1.7822
X1.1046Y-2.3795
X1.1053Y-2.172
X1.123Y-1.8158
X1.1235Y-3.5099
X1.1246Y-1.0266
X1.1254Y-3.2993
X1.1254Y-3.715
X1.1254Y-2.2778
X1.1259Y-2.198
X1.1271Y-2.3458
X1.1272Y-3.0545
X1.1273Y-2.9121
X1.1279Y-2.7012
X1.128Y-2.4029
X1.1292Y-4.0738
X1.1293Y-1.9161
X1.1302Y-1.9894
X1.1303Y-3.574
X1.1304Y-2.5472
X1.1313Y-0.8855
X1.1319Y-3.1168
X1.1324Y-2.6213
X1.1332Y-0.1031
X1.1333Y-4.2189
X1.1346Y-2.0631
X1.135Y-4.2809
X1.1354Y-0.9648
X1.1359Y-4.1434
X1.1361Y-3.3707
X1.1362Y-2.8287
X1.1364Y-2.9864
X1.1369Y-2.7606
X1.1374Y-4.8545
X1.1376Y-3.6592
X1.1398Y-3.4414
X1.1398Y-2.1262
X1.1586Y-2.7317
X1.1586Y-1.6248
X1.1587Y-3.6873
X1.1591Y-0.6362
X1.1595Y-3.0162
X1.1598Y-2.1604
X1.1615Y-1.0723
X1.162Y-0.9184
X1.1622Y-4.2553
X1.1622Y-2.5877
X1.1629Y-2.0908
X1.1632Y-1.482
X1.1646Y-3.6184
X1.1647Y-1.8478
X1.1648Y-2.6571
X1.165Y-3.7556
X1.1658Y-3.9023
X1.166Y-1.5644
X1.1661Y-3.0878
X1.1662Y-1.7803
X1.1664Y-2.8801
X1.1669Y-3.1494
X1.1685Y-2.3735
X1.1688Y-4.1864
X1.1692Y-4.1077
X1.1695Y-3.266
X1.1697Y-3.4038
X1.1702Y-2.9432
X1.1705Y-2.8051
X1.1708Y-3.4739
X1.1709Y-0.1482
X1.171Y-2.0248
X1.1717Y-0.9968
X1.1717Y-3.5477
X1.172Y-1.944
X1.1732Y-2.2379
X1.1738Y-2.2966
X1.1743Y-3.3259
X1.1758Y-0.0671
X1.1758Y-0.8158
X1.1943Y-1.1083
X1.1943Y-1.5242
X1.1956Y-3.9423
X1.1958Y-2.7579
X1.196Y-2.6272
X1.1966Y-3.7196
X1.1967Y-3.7962
X1.1969Y-3.6458
X1.197Y-0.6125
X1.1976Y-1.8806
X1.1996Y-0.1093
X1.2006Y-2.3469
X1.2007Y-4.1404
X1.2011Y-1.0222
X1.2011Y-4.2101
X1.2034Y-3.3619
X1.2034Y-1.6736
X1.2035Y-0.9506
X1.2038Y-2.2777
X1.2039Y-4.8572
X1.2041Y-3.2894
X1.2048Y-2.1274
X1.2051Y-1.9776
X1.2053Y-0.7891
X1.2058Y-3.1215
X1.2066Y-2.064
X1.2068Y-2.2028
X1.2072Y-0.8575
X1.2084Y-1.5879
X1.2089Y-0.6687
X1.2094Y-2.5562
X1.2098Y-2.9849
X1.2099Y-2.6953
X1.2112Y-3.0487
X1.2116Y-1.8173
X1.2296Y-3.1639
X1.2297Y-1.9194
X1.2299Y-3.8972
X1.2316Y-1.4895
X1.2317Y-2.2348
X1.2319Y-1.8391
X1.2324Y-1.7752
X1.2335Y-1.0625
X1.234Y-0.068
X1.2345Y-2.5855
X1.2359Y-4.1068
X1.2362Y-3.9634
X1.2372Y-1.6402
X1.2372Y-3.335
X1.2372Y-0.9937
X1.2379Y-0.8084
X1.2389Y-3.7575
X1.2393Y-3.4109
X1.24Y-3.2622
X1.2412Y-0.8828
X1.2415Y-0.1413
X1.2418Y-3.6866
X1.2419Y-0.633
X1.2419Y-2.0239
X1.2423Y-2.0968
X1.243Y-4.1786
X1.244Y-2.1705
X1.2448Y-2.6653
X1.2451Y-3.084
X1.2455Y-1.5536
X1.2459Y-3.0137
X1.247Y-0.5625
X1.2666Y-0.9234
X1.2674Y-1.9522
X1.2682Y-1.8734
X1.2686Y-3.049
X1.27Y-0.6043
X1.2708Y-0.5008
X1.2717Y-1.5337
X1.2743Y-1.1007
X1.2745Y-2.9871
X1.2753Y-1.5952
X1.2753Y-0.8593
X1.2755Y-1.6663
X1.2776Y-1.8039
X1.2777Y-4.8539
X1.2778Y-0.7765
X1.2785Y-3.6495
X1.2793Y-4.1432
X1.2794Y-2.5505
X1.2794Y-1.0221
X1.2808Y-2.6183
X1.2815Y-0.678
X1.2816Y-3.1161
X1.2824Y-0.1013
X1.3005Y-3.09
X1.3008Y-0.5311
X1.3026Y-0.8852
X1.3029Y-1.9195
X1.3032Y-4.1064
X1.3046Y-1.8362
X1.3046Y-0.1433
X1.3051Y-2.5092
X1.3056Y-0.6486
X1.3114Y-1.7793
X1.3116Y-1.6406
X1.3117Y-2.5897
X1.3123Y-0.0788
X1.3125Y-1.5629
X1.3135Y-0.955
X1.3137Y-0.8118
X1.314Y-1.9857
X1.3163Y-1.0716
X1.3163Y-3.0207
X1.3364Y-2.5576
X1.3371Y-0.1098
X1.3372Y-1.2057
X1.3376Y-0.928
X1.3382Y-4.8485
X1.3385Y-1.6595
X1.3403Y-1.8831
X1.3405Y-0.9964
X1.3411Y-0.78
X1.3411Y-0.1848
X1.3414Y-1.1003
X1.3428Y-2.3696
X1.3431Y-1.5269
X1.346Y-2.2393
X1.3472Y-1.5906
X1.348Y-0.6699
X1.3491Y-2.312
X1.3511Y-1.8015
X1.3518Y-0.5753
X1.3527Y-0.8586
X1.3713Y-1.6319
X1.3715Y-0.0719
X1.3734Y-0.9535
X1.3735Y-1.2506
X1.3736Y-0.6045
X1.3747Y-2.2664
X1.3749Y-0.5299
X1.3765Y-1.562
X1.3768Y-1.7798
X1.3768Y-2.523
X1.379Y-1.0259
X1.3794Y-2.4158
X1.3806Y-1.8379
X1.3808Y-1.923
X1.3813Y-4.113
X1.3848Y-2.3362
X1.3857Y-0.879
X1.3858Y-0.8171
X1.4125Y-4.5317
X1.413Y-1.5952
X1.4131Y-4.8524
X1.4138Y-2.38
X1.4141Y-1.0594
X1.4142Y-0.6403
X1.4148Y-2.6985
X1.4156Y-1.5221
X1.4158Y-2.3138
X1.4164Y-3.0184
X1.4193Y-2.2334
X1.4199Y-0.9997
X1.4201Y-0.9211
X1.4207Y-1.8795
X1.4226Y-1.8099
X1.4232Y-0.7795
X1.4233Y-0.5773
X1.4239Y-0.8569
X1.4443Y-1.8384
X1.4458Y-0.0692
X1.4465Y-2.5103
X1.4469Y-3.0475
X1.447Y-2.2723
X1.4482Y-3.1233
X1.4486Y-4.1082
X1.4506Y-4.5752
X1.4531Y-2.6531
X1.4568Y-2.3442
X1.4577Y-2.4137
X1.4585Y-1.9159
X1.4809Y-2.2963
X1.4828Y-4.852
X1.4855Y-3.2659
X1.4874Y-3.1613
X1.4874Y-3.0198
X1.4892Y-4.5426
X1.4908Y-3.0842
X1.4914Y-1.8788
X1.4932Y-2.3793
X1.5131Y-0.5306
X1.5136Y-3.9393
X1.514Y-0.7767
X1.5151Y-3.0509
X1.5158Y-2.2683
X1.5172Y-1.9117
X1.5189Y-4.5728
X1.5198Y-0.6111
X1.5199Y-1.4974
X1.52Y-1.6332
X1.5206Y-3.1212
X1.5213Y-4.0144
X1.5218Y-0.2924
X1.5231Y-1.9893
X1.5232Y-0.4693
X1.5238Y-0.0712
X1.5246Y-1.2848
X1.5253Y-2.3373
X1.5254Y-1.5533
X1.5266Y-2.5151
X1.5274Y-0.8588
X1.5289Y-0.9854
X1.5296Y-0.915
X1.5296Y-3.2906
X1.5296Y-2.4058
X1.53Y-1.0619
X1.5482Y-0.6321
X1.5483Y-0.8184
X1.5484Y-2.3796
X1.5485Y-3.9747
X1.5492Y-1.5899
X1.5493Y-0.5626
X1.5503Y-0.9617
X1.5506Y-3.3294
X1.5507Y-1.0253
X1.551Y-3.2703
X1.5512Y-0.5024
X1.5543Y-3.1583
X1.555Y-3.0168
X1.5555Y-1.6652
X1.5564Y-1.5337
X1.5565Y-0.8932
X1.5579Y-3.8961
X1.5584Y-3.0837
X1.5605Y-1.9442
X1.5606Y-3.8268
X1.5625Y-2.3089
X1.5839Y-1.492
X1.584Y-0.9257
X1.5841Y-3.2991
X1.5843Y-1.0574
X1.5851Y-2.4173
X1.5852Y-3.1116
X1.5861Y-3.7664
X1.5862Y-0.99
X1.5867Y-0.5957
X1.587Y-3.8622
X1.5871Y-0.6784
X1.5881Y-0.0734
X1.5883Y-0.5423
X1.5892Y-1.2052
X1.5928Y-0.147
X1.593Y-0.783
X1.5934Y-0.844
X1.5953Y-4.0014
X1.596Y-1.5673
X1.596Y-2.3442
X1.5964Y-2.5256
X1.5969Y-0.2149
X1.5969Y-1.633
X1.5977Y-2.2683
X1.5985Y-3.9356
X1.5986Y-1.1308
X1.5997Y-1.2729
X1.6001Y-3.0579
X1.6205Y-0.884
X1.6205Y-0.1002
X1.6215Y-0.4568
X1.6229Y-3.0066
X1.6241Y-3.0784
X1.6247Y-1.0354
X1.6249Y-3.9793
X1.6255Y-1.77
X1.6263Y-3.7985
X1.6267Y-0.8258
X1.6272Y-1.0924
X1.6286Y-3.7213
X1.6292Y-0.2503
X1.6292Y-1.6714
X1.6295Y-1.2487
X1.6315Y-0.6447
X1.6317Y-0.1864
X1.6318Y-1.5904
X1.632Y-0.964
X1.6336Y-1.1642
X1.6343Y-3.9056
X1.6344Y-1.5221
X1.6345Y-3.1586
X1.6359Y-0.5653
X1.6546Y-1.2116
X1.6547Y-0.4903
X1.6547Y-0.5967
X1.6549Y-3.9421
X1.6562Y-0.073
X1.6563Y-3.0557
X1.6576Y-1.5562
X1.6576Y-0.6797
X1.6592Y-0.8544
X1.6601Y-1.3913
X1.6603Y-0.2795
X1.6614Y-4.0011
X1.662Y-0.1455
X1.6624Y-0.9321
X1.6624Y-0.2135
X1.6627Y-1.4537
X1.6657Y-0.7838
X1.6679Y-3.7633
X1.668Y-0.4218
X1.6681Y-1.8094
X1.6681Y-3.1276
X1.6683Y-0.9883
X1.669Y-1.2824
X1.6697Y-1.1425
X1.6699Y-1.0717
X1.6717Y-3.8225
X1.6718Y-1.6332
X1.6902Y-1.0247
X1.6903Y-0.3238
X1.6903Y-0.5284
X1.6918Y-1.3188
X1.6926Y-0.8228
X1.6937Y-3.0085
X1.694Y-1.4915
X1.6941Y-3.9705
X1.6949Y-3.7948
X1.6957Y-4.8555
X1.6962Y-4.5415
X1.697Y-1.24
X1.6983Y-3.7196
X1.6994Y-1.1631
X1.7003Y-3.4107
X1.7006Y-0.6452
X1.7007Y-1.6705
X1.701Y-0.1052
X1.7015Y-1.768
X1.7028Y-3.0863
X1.7031Y-3.8658
X1.704Y-0.1785
X1.7043Y-1.5989
X1.7043Y-0.4679
X1.7048Y-1.0952
X1.705Y-0.963
X1.7053Y-0.2486
X1.7056Y-0.394
X1.7057Y-0.8807
X1.7062Y-1.4201
X1.7272Y-0.2179
X1.7273Y-3.8917
X1.728Y-3.7523
X1.7283Y-1.3515
X1.7286Y-0.3557
X1.7288Y-1.2132
X1.7288Y-0.4973
X1.7289Y-0.2768
X1.7296Y-1.2807
X1.7297Y-0.4322
X1.7298Y-0.679
X1.7305Y-1.8112
X1.7312Y-1.139
X1.7315Y-2.5091
X1.7329Y-2.0202
X1.7332Y-2.3708
X1.7339Y-1.5208
X1.7339Y-2.3076
X1.7342Y-0.8506
X1.7344Y-0.0658
X1.7347Y-4.5643
X1.7356Y-1.0686
X1.7365Y-0.5648
X1.7366Y-0.7786
X1.7373Y-0.9932
X1.7385Y-0.9306
X1.7388Y-3.3702
X1.739Y-3.8269
X1.7401Y-0.1398
X1.7408Y-2.2423
X1.7421Y-1.6276
X1.7431Y-1.4531
X1.7614Y-1.5531
X1.7614Y-4.2152
X1.7616Y-0.1093
X1.7621Y-3.7859
X1.7626Y-0.8936
X1.763Y-0.9529
X1.7631Y-3.4016
X1.7633Y-0.613
X1.7634Y-3.8613
X1.7636Y-0.3188
X1.7644Y-2.4106
X1.7646Y-0.1718
X1.7652Y-3.339
X1.7656Y-2.5587
X1.7656Y-1.25
X1.767Y-0.2421
X1.7673Y-4.1423
X1.7679Y-1.4972
X1.7684Y-1.098
X1.7685Y-2.2677
X1.77Y-0.4557
X1.7708Y-4.5399
X1.771Y-1.0256
X1.7713Y-2.3463
X1.7715Y-1.8445
X1.7717Y-3.9324
X1.7727Y-1.3797
X1.7735Y-1.1753
X1.7738Y-1.9884
X1.7738Y-1.772
X1.7741Y-0.5267
X1.7745Y-1.67
X1.7751Y-1.9115
X1.7763Y-1.3051
X1.7765Y-0.8156
X1.7769Y-4.8647
X1.7775Y-0.4
X1.7964Y-2.3024
X1.7964Y-3.8972
X1.7967Y-2.0188
X1.7975Y-0.5775
X1.7977Y-1.0684
X1.7979Y-2.5194
X1.7983Y-1.8176
X1.7987Y-0.0801
X1.7989Y-0.4289
X1.799Y-1.8813
X1.7991Y-0.139
X1.7997Y-2.2287
X1.8002Y-3.4472
X1.8006Y-1.2123
X1.8007Y-1.341
X1.8007Y-3.3701
X1.8009Y-0.3509
X1.8011Y-3.0408
X1.8018Y-4.1784
X1.8026Y-0.7793
X1.8035Y-0.2827
X1.8041Y-4.2553
X1.8043Y-3.1165
X1.8048Y-0.2062
X1.8052Y-0.9218
X1.8064Y-0.4945
X1.8084Y-4.5782
X1.8085Y-0.994
X1.8085Y-0.8537
X1.8089Y-1.4225
X1.8103Y-1.132
X1.8106Y-2.9776
X1.8106Y-1.9568
X1.8106Y-2.3778
X1.8125Y-1.2802
X1.8131Y-3.8353
X1.8133Y-0.6477
X1.8138Y-1.5312
X1.8317Y-3.7652
X1.8321Y-0.6006
X1.8322Y-2.5486
X1.8325Y-0.1045
X1.8333Y-0.5364
X1.8353Y-1.9068
X1.8355Y-4.8525
X1.836Y-4.1093
X1.8367Y-1.0322
X1.8368Y-2.2649
X1.8375Y-1.1765
X1.8375Y-1.9835
X1.838Y-1.8495
X1.8386Y-0.953
X1.8392Y-3.0826
X1.8399Y-0.8253
X1.8405Y-3.4684
X1.8405Y-0.8827
X1.8411Y-2.1999
X1.8427Y-4.546
X1.8431Y-0.6754
X1.8433Y-2.4053
X1.8438Y-3.014
X1.8442Y-1.0973
X1.8442Y-3.8587
X1.8445Y-2.762
X1.8459Y-0.2416
X1.8468Y-3.1512
X1.8468Y-3.408
X1.8482Y-1.7696
X1.8484Y-0.1814
X1.8484Y-4.2908
X1.849Y-1.2479
X1.8492Y-0.4646
X1.8493Y-4.2144
X1.8494Y-2.3485
X1.8672Y-2.1602
X1.8676Y-1.1414
X1.8693Y-0.0789
X1.8694Y-1.0602
X1.8695Y-2.7323
X1.8707Y-3.1231
X1.8708Y-0.1456
X1.871Y-3.7849
X1.8711Y-0.5066
X1.8712Y-2.9705
X1.8713Y-0.9856
X1.8716Y-2.0299
X1.8723Y-0.786
X1.8724Y-0.9203
X1.8725Y-4.5719
X1.8727Y-1.214
X1.8732Y-1.8717
X1.8735Y-4.1417
X1.8746Y-2.298
X1.8746Y-0.8528
X1.8748Y-2.2262
X1.8756Y-0.2781
X1.8761Y-4.3228
X1.8774Y-1.9435
X1.8782Y-0.6394
X1.8783Y-2.6596
X1.8785Y-0.2082
X1.8786Y-4.3926
X1.8795Y-3.0432
X1.88Y-2.0943
X1.8803Y-2.52
X1.8818Y-2.3711
X1.8819Y-2.5799
X1.8827Y-0.5703
X1.8829Y-4.2523
X1.8847Y-1.8171
X1.9034Y-0.1757
X1.9036Y-2.554
X1.9047Y-0.8249
X1.9049Y-4.1893
X1.9058Y-4.2845
X1.9059Y-4.8598
X1.9059Y-4.4382
X1.9059Y-3.0143
X1.9062Y-2.4048
X1.9066Y-1.635
X1.908Y-1.9824
X1.9095Y-0.9534
X1.9097Y-3.081
X1.91Y-1.0333
X1.9113Y-1.555
X1.9114Y-1.4818
X1.9117Y-4.3625
X1.9119Y-2.203
X1.9127Y-1.7684
X1.9127Y-2.2648
X1.913Y-0.8947
X1.9134Y-1.844
X1.9139Y-2.1267
X1.914Y-4.5349
X1.9157Y-4.1141
X1.916Y-1.1655
X1.9161Y-0.5998
X1.9163Y-3.1581
X1.9164Y-2.6248
X1.9165Y-2.0628
X1.9174Y-2.335
X1.9177Y-1.0931
X1.9183Y-0.1004
X1.9184Y-0.6817
X1.9187Y-2.7616
X1.9189Y-3.259
X1.9191Y-1.9228
X1.9192Y-0.5327
X1.9202Y-2.6958
X1.9385Y-4.2202
X1.9394Y-1.1433
X1.94Y-1.8048
X1.9406Y-4.5765
X1.9417Y-2.2964
X1.9426Y-2.3761
X1.9427Y-0.1467
X1.9428Y-2.6662
X1.9435Y-4.3972
X1.9443Y-2.7263
X1.9447Y-2.0947
X1.9457Y-2.5954
X1.9457Y-3.1227
X1.9469Y-1.9556
X1.9471Y-2.0286
X1.9481Y-2.1629
X1.9492Y-1.5936
X1.9495Y-4.1455
X1.9499Y-2.939
X1.9501Y-2.5233
X1.9503Y-2.8634
X1.9507Y-0.9954
X1.9512Y-4.3175
X1.9514Y-3.0532
X1.9531Y-1.8851
X1.9538Y-3.2893
X1.954Y-1.6643
X1.9542Y-0.0802
X1.9548Y-1.534
X1.955Y-2.229
X1.955Y-1.0649
X1.9551Y-2.7979
X1.9735Y-2.1922
X1.9743Y-2.411
X1.9753Y-3.158
X1.9754Y-4.5416
X1.9757Y-2.267
X1.976Y-0.1043
X1.9771Y-2.5568
X1.9781Y-3.2644
X1.9782Y-2.8987
X1.979Y-1.5534
X1.98Y-1.848
X1.9802Y-1.9913
X1.981Y-2.7623
X1.9814Y-1.6261
X1.9817Y-1.7672
X1.9817Y-1.173
X1.9821Y-4.3633
X1.9824Y-4.1894
X1.9828Y-2.9746
X1.9843Y-1.4955
X1.9846Y-2.8342
X1.9847Y-2.7001
X1.9857Y-1.0927
X1.9858Y-1.0329
X1.9865Y-3.7197
X1.9867Y-2.3383
X1.9887Y-2.064
X1.9894Y-4.2538
X1.9896Y-4.8548
X1.9899Y-2.6186
X1.9905Y-3.0884
X1.9906Y-2.1288
X1.9906Y-1.9125
X1.991Y-4.082
X2.0096Y-1.0697
X2.0103Y-3.3011
X2.0106Y-3.118
X2.0113Y-1.8141
X2.0118Y-2.8743
X2.0123Y-4.0436
X2.0126Y-2.5223
X2.0133Y-3.0186
X2.014Y-2.3784
X2.0142Y-0.4935
X2.0147Y-0.7901
X2.0148Y-0.1465
X2.0148Y-1.9506
X2.0158Y-0.5651
X2.0159Y-3.7653
X2.017Y-2.7355
X2.0171Y-1.8816
X2.0178Y-2.8098
X2.0178Y-1.6675
X2.0184Y-2.1572
X2.0185Y-1.5294
X2.0194Y-4.211
X2.0195Y-2.0225
X2.02Y-4.1038
X2.0204Y-1.1308
X2.0207Y-1.5982
X2.0212Y-2.5886
X2.0213Y-2.2339
X2.0227Y-0.0704
X2.0233Y-0.6484
X2.024Y-4.2957
X2.0241Y-2.9447
X2.0242Y-2.095
X2.0247Y-2.6531
X2.0247Y-2.307
X2.0261Y-0.8495
X2.0443Y-1.566
X2.0448Y-0.1074
X2.045Y-1.6285
X2.0479Y-2.6904
X2.0482Y-1.9882
X2.0486Y-1.852
X2.0487Y-0.5326
X2.0493Y-1.0922
X2.0496Y-3.3957
X2.0498Y-2.617
X2.0506Y-3.4723
X2.0506Y-3.0576
X2.051Y-2.0557
X2.0515Y-1.1752
X2.0515Y-2.1263
X2.0523Y-2.7718
X2.0526Y-4.1522
X2.0527Y-0.8174
X2.0528Y-2.405
X2.0531Y-2.2746
X2.0544Y-3.2564
X2.0544Y-2.8422
X2.0545Y-4.462
X2.0554Y-2.5543
X2.0559Y-2.3402
X2.057Y-4.2516
X2.0581Y-3.3241
X2.059Y-2.1963
X2.0596Y-1.9216
X2.0597Y-2.9837
X2.0599Y-1.7791
X2.0599Y-4.0708
X2.0609Y-0.8807
X2.0612Y-3.1635
X2.0613Y-3.7153
X2.0615Y-2.9109
X2.08Y-1.588
X2.0804Y-4.0484
X2.0816Y-2.7244
X2.0828Y-1.9592
X2.0828Y-3.0932
X2.0833Y-2.1702
X2.0834Y-2.5916
X2.0839Y-2.5144
X2.084Y-4.1123
X2.0855Y-2.3698
X2.0866Y-2.8022
X2.0869Y-1.1305
X2.0875Y-2.8731
X2.0881Y-2.0903
X2.0882Y-1.5177
X2.0889Y-0.8571
X2.0891Y-2.0264
X2.0906Y-1.8131
X2.0906Y-1.6681
X2.0906Y-0.9173
X2.0906Y-2.6673
X2.0906Y-1.2101
X2.091Y-0.0711
X2.0919Y-3.3059
X2.0943Y-2.3041
X2.0948Y-3.3722
X2.0951Y-2.241
X2.096Y-0.7746
X2.0965Y-2.9453
X2.0965Y-4.1768
X2.0967Y-1.8817
X2.0969Y-3.0208
X2.1161Y-4.2149
X2.1165Y-0.8215
X2.1165Y-3.9631
X2.117Y-0.9586
X2.1187Y-4.0812
X2.1192Y-0.2091
X2.1198Y-2.9696
X2.1202Y-3.3978
X2.1207Y-2.549
X2.1211Y-1.907
X2.1211Y-2.1193
X2.1213Y-1.8465
X2.1219Y-3.2531
X2.1234Y-2.7002
X2.1237Y-1.6361
X2.1241Y-2.346
X2.125Y-2.6179
X2.1257Y-2.1971
X2.1257Y-2.8363
X2.1272Y-2.9042
X2.1281Y-1.1712
X2.1282Y-0.8839
X2.1283Y-3.1238
X2.1286Y-1.2409
X2.129Y-1.7728
X2.1293Y-2.275
X2.1294Y-4.144
X2.1295Y-1.5672
X2.13Y-2.7593
X2.131Y-3.0484
X2.1313Y-4.4727
X2.1316Y-1.9833
X2.1317Y-3.3309
X2.1328Y-2.4107
X2.1329Y-2.0575
X2.1506Y-4.5014
X2.1509Y-3.9422
X2.1517Y-4.5796
X2.1531Y-3.296
X2.1546Y-1.5337
X2.1547Y-2.8064
X2.1549Y-3.019
X2.1553Y-2.6511
X2.1559Y-1.5937
X2.1564Y-3.1583
X2.1568Y-2.157
X2.1572Y-0.927
X2.1585Y-4.1819
X2.1591Y-2.3726
X2.1592Y-4.8634
X2.16Y-2.5889
X2.1606Y-2.5218
X2.161Y-1.6646
X2.1615Y-4.1124
X2.1616Y-1.807
X2.1621Y-2.7357
X2.1623Y-2.0285
X2.1626Y-0.9873
X2.1629Y-4.0103
X2.1638Y-2.0952
X2.1642Y-2.9347
X2.1642Y-0.7773
X2.1644Y-3.3654
X2.1648Y-2.3072
X2.1653Y-3.0873
X2.1654Y-2.2262
X2.1654Y-2.8742
X2.1666Y-1.8809
X2.1668Y-1.9554
X2.1668Y-0.6345
X2.1682Y-0.8606
X2.1862Y-3.2625
X2.1864Y-1.7704
X2.1865Y-1.9179
X2.1866Y-1.8512
X2.187Y-0.8123
X2.19Y-2.7669
X2.1901Y-3.4067
X2.1901Y-2.6169
X2.1907Y-0.9621
X2.191Y-2.838
X2.1922Y-0.8929
X2.1953Y-2.9163
X2.1957Y-3.1214
X2.1965Y-1.9931
X2.2005Y-2.7016
X2.2006Y-4.1546
X2.2015Y-1.0326
X2.2018Y-0.608
X2.2022Y-2.5458
X2.2026Y-1.6333
X2.2031Y-3.3413
X2.2033Y-2.9732
X2.2037Y-0.6808
X2.2037Y-3.0571
X2.2215Y-0.779
X2.2233Y-0.8563
X2.2239Y-2.518
X2.2241Y-2.9465
X2.2243Y-3.0099
X2.2246Y-4.8645
X2.2253Y-0.6406
X2.2263Y-3.0816
X2.2263Y-1.0674
X2.2264Y-2.7251
X2.2275Y-3.159
X2.2296Y-0.9887
X2.2296Y-0.5745
X2.2309Y-1.9495
X2.2313Y-2.5864
X2.2315Y-1.6681
X2.2325Y-0.9299
X2.2356Y-2.6534
X2.2363Y-3.7498
X2.2373Y-2.8806
X2.2378Y-1.8817
X2.2378Y-1.801
X2.2386Y-2.7976
X2.2573Y-2.8991
X2.2581Y-2.831
X2.2615Y-2.9826
X2.2624Y-1.9231
X2.2625Y-0.5035
X2.2632Y-3.0573
X2.2635Y-2.6251
X2.2638Y-0.6688
X2.2645Y-1.8432
X2.2645Y-2.242
X2.265Y-1.4858
X2.2651Y-1.7685
X2.2661Y-2.6982
X2.2668Y-0.887
X2.2691Y-0.8167
X2.2705Y-2.7704
X2.2709Y-1.0231
X2.2714Y-1.2854
X2.2723Y-3.1125
X2.2724Y-0.6129
X2.2727Y-3.4773
X2.2736Y-2.5448
X2.2744Y-0.9563
X2.2924Y-4.505
X2.2927Y-2.7265
X2.2928Y-2.3383
X2.2929Y-1.8168
X2.2929Y-1.5272
X2.2943Y-0.5284
X2.2944Y-2.5185
X2.2948Y-3.1588
X2.2954Y-0.9202
X2.296Y-0.6329
X2.2963Y-2.9436
X2.2966Y-3.0881
X2.2969Y-4.8561
X2.2971Y-1.8761
X2.2993Y-2.2634
X2.2999Y-4.5721
X2.3008Y-1.064
X2.3016Y-3.0189
X2.3026Y-2.407
X2.3026Y-2.8805
X2.3044Y-0.7795
X2.3051Y-0.8503
X2.3057Y-2.6625
X2.3064Y-0.9878
X2.3065Y-2.586
X2.3075Y-2.7971
X2.3283Y-1.0222
X2.3288Y-1.5536
X2.329Y-2.3702
X2.3298Y-0.5693
X2.332Y-1.4843
X2.3324Y-0.1382
X2.3324Y-2.3102
X2.3329Y-2.6939
X2.3331Y-0.8123
X2.3335Y-1.1787
X2.3343Y-1.8518
X2.3345Y-2.6253
X2.3361Y-0.6749
X2.3374Y-2.2321
X2.3383Y-4.5371
X2.3393Y-3.1183
X2.3399Y-2.9122
X2.3402Y-0.9506
X2.3404Y-2.7622
X2.341Y-2.5497
X2.3415Y-1.7825
X2.3422Y-1.9166
X2.3423Y-3.0427
X2.3428Y-0.896
X2.3437Y-1.2343
X2.3438Y-2.9787
X2.3441Y-2.832
X2.3446Y-0.2218
X2.3447Y-1.105
X2.364Y-0.1789
X2.3648Y-0.778
X2.3649Y-1.5952
X2.3657Y-2.9488
X2.3661Y-2.7272
X2.3665Y-1.1342
X2.3669Y-3.0061
X2.3675Y-0.8559
X2.3681Y-1.8126
X2.3681Y-4.5791
X2.3683Y-0.9995
X2.3689Y-2.8668
X2.3691Y-2.8008
X2.3693Y-2.2731
X2.3698Y-0.9236
X2.3714Y-4.8642
X2.3726Y-1.5244
X2.3728Y-1.0734
X2.3733Y-1.2795
X2.3743Y-2.659
X2.3747Y-2.5801
X2.3752Y-2.4131
X2.3766Y-0.5321
X2.3766Y-1.8774
X2.3783Y-1.2031
X2.3793Y-0.613
X2.3797Y-2.5109
X2.3806Y-2.3372
X2.3988Y-2.6193
X2.3996Y-2.5584
X2.401Y-1.6236
X2.4023Y-1.033
X2.4038Y-1.4495
X2.4043Y-0.8083
X2.4049Y-2.763
X2.4064Y-0.967
X2.407Y-0.5706
X2.4073Y-2.3781
X2.4081Y-2.6993
X2.4082Y-1.8503
X2.4086Y-0.6309
X2.4105Y-1.095
X2.4106Y-1.241
X2.4108Y-1.5542
X2.4116Y-2.3027
X2.414Y-0.8826
X2.4142Y-4.531
X2.415Y-1.1746
X2.4158Y-1.9106
X2.4342Y-1.597
X2.435Y-1.4925
X2.438Y-1.2821
X2.4383Y-0.9284
X2.4384Y-0.9865
X2.4398Y-2.5966
X2.44Y-2.3339
X2.4403Y-1.3541
X2.4404Y-4.0818
X2.4412Y-1.4222
X2.4419Y-2.6666
X2.4423Y-4.5673
X2.4425Y-1.8835
X2.4427Y-1.1994
X2.4456Y-3.2956
X2.4459Y-1.1285
X2.4464Y-2.4192
X2.4467Y-0.5368
X2.4467Y-0.6761
X2.4473Y-0.8456
X2.4486Y-2.5219
X2.4488Y-0.7801
X2.4491Y-2.269
X2.4499Y-1.9502
X2.4507Y-0.5975
X2.4507Y-4.8573
X2.4508Y-1.061
X2.4704Y-3.8636
X2.4721Y-0.8807
X2.4722Y-2.6302
X2.4728Y-0.642
X2.4729Y-1.0982
X2.4737Y-1.9077
X2.4752Y-2.5585
X2.4757Y-0.496
X2.4767Y-0.5629
X2.4781Y-1.5262
X2.4781Y-2.369
X2.4786Y-1.3161
X2.4786Y-0.821
X2.4789Y-0.0684
X2.4789Y-1.2427
X2.4796Y-3.9385
X2.4798Y-1.4543
X2.4803Y-1.3886
X2.4811Y-3.0574
X2.4814Y-1.9944
X2.4834Y-3.719
X2.4839Y-3.1167
X2.4844Y-2.3056
X2.4844Y-2.9839
X2.4846Y-1.0217
X2.4858Y-1.174
X2.4862Y-1.6393
X2.4865Y-0.9637
X2.5051Y-2.515
X2.5052Y-2.2617
X2.5054Y-0.6684
X2.5057Y-2.3398
X2.5057Y-3.0122
X2.5062Y-0.541
X2.5064Y-1.0653
X2.5073Y-1.564
X2.5073Y-3.892
X2.5079Y-0.9921
X2.508Y-0.6016
X2.5084Y-1.3491
X2.5093Y-3.4727
X2.5103Y-2.4086
X2.5118Y-3.7638
X2.5122Y-1.1411
X2.513Y-0.8511
X2.513Y-0.7852
X2.5131Y-2.5935
X2.5138Y-1.4243
X2.5149Y-1.2085
X2.5152Y-2.6541
X2.5155Y-1.4949
X2.5155Y-3.9712
X2.5158Y-0.9144
X2.518Y-1.283
X2.5184Y-3.076
X2.5185Y-3.1572
X2.52Y-3.4038
X2.5201Y-0.2786
X2.5214Y-1.6701
X2.5215Y-0.4637
X2.5404Y-2.5598
X2.5409Y-3.7241
X2.542Y-3.3605
X2.542Y-1.1679
X2.5422Y-2.9845
X2.5438Y-0.5621
X2.5447Y-2.3699
X2.5451Y-1.1076
X2.5452Y-0.6463
X2.5453Y-0.8115
X2.5458Y-1.3047
X2.5462Y-3.5061
X2.547Y-1.0302
X2.5471Y-0.9574
X2.5486Y-3.9355
X2.5487Y-2.6227
X2.5509Y-3.4467
X2.551Y-3.8664
X2.551Y-0.5001
X2.5513Y-0.8895
X2.5528Y-0.0654
X2.5529Y-1.4629
X2.5544Y-2.3048
X2.556Y-1.5198
X2.556Y-3.0529
X2.5568Y-3.1141
X2.5576Y-1.2433
X2.5578Y-4.0145
X2.5579Y-1.3793
X2.5764Y-3.9005
X2.5774Y-1.1358
X2.5785Y-3.4758
X2.5787Y-0.8438
X2.5805Y-3.5424
X2.5807Y-3.9697
X2.5809Y-1.7652
X2.5823Y-0.6675
X2.5826Y-2.6514
X2.5827Y-4.0412
X2.5828Y-1.0624
X2.583Y-1.0022
X2.5833Y-3.3379
X2.5834Y-0.5993
X2.5837Y-0.9272
X2.5837Y-0.4696
X2.5855Y-3.0054
X2.586Y-0.181
X2.5872Y-0.7879
X2.5883Y-0.5252
X2.5903Y-0.2417
X2.5908Y-2.5823
X2.5912Y-3.754
X2.5912Y-1.2
X2.5919Y-3.396
X2.592Y-3.0878
X2.5928Y-0.1132
X2.5932Y-1.2737
X2.6116Y-1.0933
X2.6116Y-3.1183
X2.612Y-0.8149
X2.6121Y-0.6476
X2.6121Y-0.8885
X2.6131Y-3.572
X2.6141Y-2.6174
X2.615Y-4.5305
X2.615Y-4.0027
X2.6151Y-3.7139
X2.6153Y-3.6522
X2.6162Y-0.1483
X2.6165Y-1.2419
X2.6168Y-3.4391
X2.617Y-0.5698
X2.6172Y-3.2903
X2.6175Y-3.9297
X2.6188Y-4.467
X2.6206Y-0.2159
X2.622Y-2.691
X2.622Y-0.9632
X2.6222Y-1.1701
X2.6235Y-3.0447
X2.6238Y-1.0318
X2.6251Y-3.5187
X2.6252Y-3.3671
X2.6266Y-0.0681
X2.6275Y-1.8178
X2.6277Y-4.8544
X2.628Y-0.4986
X2.6475Y-3.0783
X2.6479Y-4.0389
X2.6501Y-0.6683
X2.6501Y-1.5696
X2.6513Y-0.1813
X2.6514Y-2.7387
X2.6515Y-0.5301
X2.6516Y-1.6255
X2.6519Y-1.0572
X2.6526Y-1.7749
X2.6528Y-3.4033
X2.653Y-0.7794
X2.6531Y-2.6618
X2.6533Y-3.9704
X2.6541Y-2.3026
X2.6542Y-1.4863
X2.6545Y-3.3354
X2.655Y-2.2393
X2.6555Y-3.6133
X2.6567Y-0.8473
X2.6574Y-0.6091
X2.6576Y-0.11
X2.6578Y-4.5033
X2.6583Y-3.4702
X2.6589Y-1.1374
X2.6595Y-3.547
X2.6598Y-1.0014
X2.6604Y-0.9296
X2.6618Y-4.5798
X2.6628Y-2.3717
X2.6631Y-3.0174
X2.6633Y-3.6925
X2.6639Y-3.7617
X2.6821Y-0.0797
X2.6823Y-1.8117
X2.6825Y-2.2711
X2.6853Y-4.541
X2.6854Y-3.5052
X2.6858Y-4.4741
X2.686Y-4.8637
X2.6868Y-3.5811
X2.687Y-1.5326
X2.6872Y-2.4115
X2.6896Y-3.2563
X2.6901Y-0.1496
X2.6908Y-4.0851
X2.6909Y-3.6455
X2.6916Y-1.0356
X2.6919Y-3.7991
X2.6935Y-1.6014
X2.6937Y-3.7301
X2.6948Y-3.3734
X2.6959Y-1.6749
X2.6967Y-1.0982
X2.6973Y-2.0289
X2.6976Y-3.0531
X2.6979Y-1.1735
X2.6983Y-4.0041
X2.6995Y-2.3391
X2.6997Y-4.251
X2.6997Y-3.4405
X2.7177Y-3.018
X2.7194Y-4.5756
X2.7202Y-1.1426
X2.7206Y-1.7803
X2.722Y-3.4068
X2.7221Y-0.1071
X2.7222Y-2.3785
X2.7224Y-1.5662
X2.7242Y-3.7574
X2.7242Y-4.0496
X2.7244Y-4.1189
X2.727Y-1.9837
X2.7274Y-3.5409
X2.7274Y-2.2369
X2.7284Y-2.2986
X2.7294Y-1.4946
X2.7295Y-4.5106
X2.7296Y-1.9078
X2.7301Y-3.8233
X2.7306Y-3.6799
X2.7321Y-0.185
X2.7329Y-1.8493
X2.7332Y-4.1813
X2.734Y-1.6281
X2.7347Y-3.6118
X2.7348Y-3.4701
X2.735Y-1.0605
X2.7351Y-3.2926
X2.7532Y-1.5251
X2.7542Y-1.887
X2.7542Y-1.1653
X2.7566Y-1.0926
X2.7567Y-2.341
X2.7589Y-2.0222
X2.7596Y-1.9554
X2.7611Y-2.2668
X2.7611Y-0.1411
X2.7621Y-4.8621
X2.7625Y-4.2202
X2.7625Y-2.4088
X2.7627Y-4.47
X2.763Y-0.0731
X2.7634Y-3.2702
X2.7638Y-3.5157
X2.7676Y-3.4421
X2.7683Y-2.5212
X2.7684Y-4.289
X2.7687Y-4.1483
X2.7689Y-4.533
X2.7691Y-1.8084
X2.7694Y-1.5975
X2.7695Y-1.6588
X2.77Y-4.0763
X2.7702Y-3.3365
X2.7895Y-2.1196
X2.7897Y-4.3274
X2.7902Y-1.8518
X2.7917Y-2.5615
X2.793Y-3.3626
X2.7936Y-4.5646
X2.7937Y-3.4807
X2.7938Y-1.7799
X2.7951Y-1.14
X2.7952Y-0.8566
X2.7962Y-1.9075
X2.7971Y-0.7795
X2.7972Y-1.5523
X2.7975Y-0.6452
X2.7976Y-0.5281
X2.7977Y-0.9295
X2.7986Y-2.1998
X2.7987Y-0.1082
X2.7996Y-4.1857
X2.8002Y-1.9921
X2.8002Y-2.0574
X2.8002Y-4.1068
X2.802Y-3.2897
X2.8021Y-4.0498
X2.8021Y-3.1149
X2.8022Y-2.3057
X2.8035Y-2.3815
X2.8036Y-1.6267
X2.8046Y-4.2468
X2.8057Y-4.5088
X2.806Y-4.3895
X2.8243Y-1.6726
X2.8247Y-0.0796
X2.8255Y-1.8722
X2.8256Y-4.2914
X2.8256Y-2.3466
X2.8257Y-3.7274
X2.8268Y-2.9867
X2.8272Y-4.4395
X2.8282Y-2.0161
X2.8291Y-3.4096
X2.8306Y-3.9031
X2.8311Y-3.26
X2.8317Y-1.8008
X2.8317Y-4.363
X2.8318Y-4.5348
X2.8328Y-0.8871
X2.8329Y-0.8254
X2.833Y-4.2149
X2.8334Y-2.4155
X2.8338Y-2.236
X2.8342Y-2.1579
X2.8345Y-3.3369
X2.8351Y-1.5233
X2.8359Y-2.5174
X2.8367Y-4.0851
X2.8369Y-1.9594
X2.8379Y-0.9657
X2.8379Y-3.1494
X2.8387Y-1.1633
X2.8393Y-1.6042
X2.8394Y-2.0875
X2.8395Y-4.8633
X2.8406Y-4.1429
X2.8411Y-3.0406
X2.8598Y-2.2011
X2.8603Y-4.0094
X2.8612Y-4.4005
X2.8622Y-0.7844
X2.8629Y-0.8523
X2.8631Y-4.118
X2.8638Y-4.2506
X2.8638Y-2.1328
X2.8639Y-2.0607
X2.8647Y-4.4704
X2.8649Y-0.9199
X2.8651Y-2.276
X2.8652Y-1.5539
X2.8655Y-4.3203
X2.8657Y-2.3746
X2.8659Y-3.0216
X2.8665Y-1.6269
X2.8665Y-3.8373
X2.8668Y-1.914
X2.8676Y-3.7543
X2.8679Y-2.5461
X2.8682Y-1.85
X2.8687Y-1.9887
X2.8688Y-1.2113
X2.869Y-3.3697
X2.8708Y-2.7596
X2.8718Y-1.78
X2.8727Y-0.9999
X2.8742Y-3.2984
X2.8748Y-4.1878
X2.8749Y-4.5748
X2.8752Y-0.2214
X2.8757Y-3.088
X2.8954Y-1.6691
X2.8961Y-1.8049
X2.8973Y-2.1615
X2.8993Y-4.4359
X2.8995Y-1.5247
X2.8996Y-1.885
X2.8999Y-2.4151
X2.9Y-0.8122
X2.9003Y-2.3135
X2.9009Y-2.0213
X2.9009Y-2.24
X2.901Y-0.6401
X2.9017Y-4.2821
X2.9018Y-4.3516
X2.9018Y-2.0918
X2.9019Y-3.3306
X2.902Y-3.1169
X2.903Y-4.2154
X2.904Y-3.8697
X2.9042Y-2.666
X2.905Y-4.0352
X2.9052Y-3.2592
X2.9055Y-4.1471
X2.9058Y-2.9743
X2.9067Y-1.0287
X2.9076Y-3.0484
X2.9084Y-2.5114
X2.9088Y-0.8887
X2.9105Y-1.5911
X2.9111Y-1.9507
X2.9114Y-3.403
X2.9114Y-3.7975
X2.9116Y-0.9502
X2.9117Y-3.7237
X2.9118Y-2.5813
X2.912Y-2.7243
X2.9317Y-1.7718
X2.9317Y-4.4653
X2.9327Y-1.0027
X2.9338Y-0.6759
X2.9352Y-3.8206
X2.9362Y-2.6987
X2.9367Y-0.9178
X2.9367Y-3.7545
X2.9368Y-0.8547
X2.9376Y-4.3305
X2.9383Y-0.5995
X2.9386Y-4.0014
X2.9387Y-2.7645
X2.9391Y-3.8939
X2.9397Y-1.0577
X2.9402Y-2.6266
X2.9412Y-1.8496
X2.9417Y-2.5486
X2.9417Y-1.9852
X2.9418Y-3.009
X2.9422Y-3.0812
X2.943Y-4.2482
X2.943Y-1.9162
X2.9443Y-4.3869
X2.9443Y-4.182
X2.9456Y-3.2967
X2.9465Y-3.1526
X2.9465Y-0.7809
X2.9467Y-3.3696
X2.9467Y-4.0836
X2.9469Y-1.6289
X2.9657Y-0.5611
X2.9663Y-2.6606
X2.9664Y-4.1199
X2.9671Y-1.8088
X2.9674Y-2.8783
X2.9677Y-0.6384
X2.968Y-1.6645
X2.9681Y-0.89
X2.9691Y-3.2675
X2.9701Y-3.8616
X2.9701Y-4.2177
X2.9704Y-3.3982
X2.9709Y-3.1159
X2.9732Y-4.0414
X2.9732Y-1.8835
X2.9733Y-0.8141
X2.9734Y-3.786
X2.974Y-1.0382
X2.9741Y-2.7986
X2.9743Y-1.957
X2.9751Y-3.0558
X2.9757Y-2.5216
X2.9757Y-4.291
X2.9776Y-2.5852
X2.9799Y-4.4394
X2.9807Y-2.7223
X2.9817Y-3.3288
X2.9823Y-4.3579
X2.9824Y-0.9625
X2.9828Y-2.9375
X3.0023Y-1.9096
X3.003Y-3.8353
X3.003Y-2.7658
X3.0035Y-0.5294
X3.0046Y-4.0092
X3.005Y-4.5344
X3.0075Y-0.9956
X3.0076Y-3.3657
X3.0092Y-3.4325
X3.0093Y-0.684
X3.0115Y-4.1465
X3.0116Y-2.9841
X3.0116Y-4.4748
X3.0117Y-4.0818
X3.0119Y-3.9013
X3.0126Y-1.8415
X3.0127Y-4.3282
X3.013Y-3.0831
X3.0132Y-0.6008
X3.0133Y-0.9312
X3.0141Y-2.9142
X3.0151Y-2.6246
X3.0157Y-4.2558
X3.0158Y-1.0697
X3.016Y-2.7031
X3.0166Y-4.3897
X3.0166Y-1.7717
X3.0179Y-2.8366
X3.0181Y-2.5503
X3.0183Y-3.2888
X3.0183Y-3.1603
X3.037Y-4.5803
X3.037Y-2.8706
X3.0371Y-2.7389
X3.0371Y-2.9514
X3.0374Y-3.1287
X3.0376Y-4.1917
X3.0379Y-3.3388
X3.038Y-3.4707
X3.0398Y-1.8162
X3.0399Y-2.3001
X3.0415Y-3.2593
X3.0419Y-3.0103
X3.0421Y-2.3743
X3.0423Y-3.8606
X3.0437Y-0.8807
X3.0448Y-2.2315
X3.0456Y-0.6348
X3.0457Y-4.0386
X3.0464Y-2.5143
X3.0465Y-1.4975
X3.0469Y-4.1064
X3.0498Y-3.7924
X3.0501Y-0.5777
X3.0504Y-4.4955
X3.0507Y-3.3998
X3.0517Y-2.5826
X3.052Y-1.2829
X3.0524Y-1.0354
X3.0529Y-0.9595
X3.053Y-2.6608
X3.053Y-2.7993
X3.0535Y-1.8731
X3.072Y-0.2203
X3.0722Y-3.8267
X3.0723Y-1.7659
X3.073Y-4.1558
X3.0733Y-2.9702
X3.0735Y-0.532
X3.0737Y-3.9018
X3.0752Y-0.1461
X3.076Y-2.9108
X3.0769Y-0.9258
X3.0771Y-4.0817
X3.0776Y-2.5565
X3.0781Y-1.5306
X3.0796Y-1.9117
X3.0799Y-3.1467
X3.0802Y-4.5379
X3.0803Y-3.3028
X3.0807Y-1.8508
X3.0811Y-1.0011
X3.0812Y-0.6715
X3.0817Y-2.3426
X3.0824Y-2.6317
X3.0826Y-4.0011
X3.0832Y-2.7585
X3.0835Y-0.6082
X3.0845Y-2.2661
X3.0849Y-1.2131
X3.0852Y-2.7016
X3.0863Y-1.135
X3.0869Y-1.0566
X3.0877Y-4.215
X3.0879Y-2.8331
X3.0882Y-2.415
X3.0885Y-3.0471
X3.1077Y-4.1059
X3.1084Y-2.3797
X3.1091Y-2.5929
X3.1094Y-2.7221
X3.1094Y-1.8071
X3.1094Y-1.49
X3.1099Y-3.0093
X3.1123Y-2.2979
X3.1129Y-0.9596
X3.1144Y-2.6532
X3.1146Y-3.8721
X3.1147Y-2.941
X3.1153Y-1.2352
X3.1158Y-0.8875
X3.1165Y-1.5654
X3.1167Y-4.0418
X3.1169Y-0.1755
X3.117Y-1.1731
X3.1175Y-1.882
X3.118Y-2.8699
X3.12Y-0.6398
X3.1201Y-4.1767
X3.1207Y-1.0322
X3.1213Y-0.5607
X3.1232Y-2.7958
X3.1234Y-1.1039
X3.1235Y-2.2327
X3.1241Y-3.7937
X3.1243Y-2.51
X3.1432Y-1.5224
X3.1436Y-0.6048
X3.144Y-1.274
X3.1458Y-4.1533
X3.1467Y-2.3396
X3.1471Y-1.9178
X3.1472Y-1.4495
X3.1474Y-1.057
X3.1479Y-4.0822
X3.148Y-2.2777
X3.1491Y-1.2063
X3.1495Y-4.0053
X3.1499Y-0.9863
X3.1507Y-0.929
X3.1527Y-1.8507
X3.153Y-1.5885
X3.155Y-3.2947
X3.1563Y-0.5391
X3.1568Y-2.4189
X3.1569Y-1.1328
X3.157Y-0.6789
X3.1573Y-2.6157
X3.1594Y-2.5592
X3.1599Y-2.6988
X3.1604Y-2.7585
X3.1783Y-4.0331
X3.1786Y-1.8778
X3.1805Y-2.7332
X3.1813Y-0.9632
X3.1831Y-1.2398
X3.1833Y-4.1075
X3.1836Y-2.3787
X3.1848Y-1.5535
X3.1859Y-1.3817
X3.1865Y-1.1762
X3.1873Y-2.594
X3.188Y-1.3061
X3.1889Y-2.3071
X3.1892Y-1.6272
X3.1893Y-2.5227
X3.1897Y-1.1031
X3.1899Y-1.9506
X3.1901Y-1.4953
X3.1906Y-1.0276
X3.1918Y-2.6614
X3.1925Y-0.5628
X3.1936Y-0.6447
X3.1949Y-0.8873
X3.2137Y-2.2755
X3.2142Y-0.6683
X3.2145Y-1.2135
X3.2147Y-1.9092
X3.2153Y-2.9831
X3.2157Y-1.2814
X3.217Y-1.4244
X3.217Y-3.8643
X3.2178Y-4.068
X3.2178Y-0.0654
X3.2181Y-4.5366
X3.2181Y-4.1506
X3.2184Y-0.4902
X3.2184Y-3.7989
X3.219Y-1.5211
X3.2208Y-1.0675
X3.2211Y-2.5486
X3.2212Y-1.1338
X3.2221Y-2.3471
X3.2227Y-1.6607
X3.2246Y-2.4168
X3.2247Y-0.9855
X3.2256Y-1.6032
X3.228Y-1.9901
X3.2287Y-4.4591
X3.2287Y-3.7292
X3.2289Y-2.6199
X3.229Y-0.6038
X3.2293Y-3.1177
X3.2298Y-1.3516
X3.2311Y-3.0431
X3.2312Y-0.9271
X3.2493Y-0.5293
X3.2495Y-3.9021
X3.2504Y-2.6575
X3.2507Y-0.4649
X3.2513Y-1.4537
X3.2519Y-3.1642
X3.2524Y-1.0364
X3.2526Y-3.8231
X3.2527Y-1.093
X3.2533Y-2.5247
X3.2554Y-1.1764
X3.2559Y-1.5594
X3.2559Y-4.4963
X3.2563Y-0.2818
X3.2578Y-0.6471
X3.258Y-3.012
X3.2592Y-1.2502
X3.2597Y-1.3814
X3.2609Y-1.6333
X3.2611Y-2.3091
X3.2614Y-1.3156
X3.2628Y-2.5802
X3.263Y-3.5155
X3.2633Y-2.3808
X3.2633Y-3.0896
X3.2641Y-4.1156
X3.2644Y-3.7527
X3.2651Y-0.8805
X3.2652Y-4.564
X3.2663Y-0.9592
X3.2852Y-1.0611
X3.2853Y-1.4864
X3.2858Y-1.3433
X3.2866Y-0.4985
X3.2868Y-4.1523
X3.2872Y-1.2121
X3.2874Y-1.6748
X3.2892Y-1.2852
X3.2897Y-3.126
X3.29Y-0.573
X3.2901Y-3.4411
X3.2901Y-1.4195
X3.291Y-3.3746
X3.2911Y-2.5498
X3.2912Y-2.6157
X3.2919Y-3.872
X3.2934Y-0.0811
X3.2945Y-2.9853
X3.2958Y-2.3403
X3.2965Y-3.7236
X3.2969Y-1.5876
X3.2988Y-3.0486
X3.3002Y-0.9151
X3.3004Y-1.1286
X3.3009Y-0.6736
X3.3013Y-0.9925
X3.3017Y-4.5394
X3.3019Y-2.2756
X3.3021Y-3.7936
X3.3208Y-3.7652
X3.3222Y-2.6674
X3.3224Y-1.0997
X3.3228Y-0.1747
X3.3231Y-4.5737
X3.3242Y-0.2551
X3.3248Y-3.4105
X3.3255Y-1.1719
X3.326Y-3.0091
X3.3269Y-2.5962
X3.3275Y-0.4574
X3.3276Y-1.2359
X3.3282Y-1.0208
X3.329Y-3.3366
X3.3313Y-0.5365
X3.3322Y-3.8343
X3.3328Y-3.0841
X3.3338Y-0.1037
X3.3342Y-1.7651
X3.3354Y-3.901
X3.3358Y-0.8965
X3.3358Y-3.4751
X3.3371Y-0.9622
X3.3374Y-0.6028
X3.3558Y-3.4446
X3.3558Y-3.8706
X3.3565Y-3.3594
X3.3574Y-3.658
X3.3578Y-0.5061
X3.3586Y-0.2078
X3.3587Y-1.802
X3.3591Y-2.6218
X3.3592Y-1.0719
X3.3597Y-3.1154
X3.3598Y-1.2075
X3.3598Y-3.2896
X3.3602Y-0.5758
X3.3607Y-0.1469
X3.3609Y-3.793
X3.3614Y-4.5296
X3.3647Y-0.0767
X3.3655Y-0.9281
X3.3657Y-0.9866
X3.3706Y-1.1343
X3.371Y-3.5109
X3.3726Y-3.5824
X3.3729Y-3.7149
X3.3729Y-3.0428
X3.3729Y-0.6353
X3.3909Y-1.7775
X3.3912Y-1.0289
X3.3916Y-3.0173
X3.3917Y-2.302
X3.3928Y-1.1657
X3.3934Y-3.6226
X3.3935Y-3.4788
X3.3936Y-2.6611
X3.3943Y-1.1004
X3.3947Y-0.1157
X3.3949Y-3.8292
X3.3966Y-2.7359
X3.3968Y-2.2348
X3.3969Y-1.4896
X3.3981Y-3.6911
X3.3989Y-0.6769
X3.4001Y-2.384
X3.4003Y-0.8852
X3.4011Y-3.3293
X3.4015Y-3.0919
X3.4028Y-3.8992
X3.403Y-3.547
X3.403Y-0.9675
X3.4037Y-3.7504
X3.4043Y-4.0022
X3.4048Y-0.1849
X3.4078Y-0.5985
X3.4078Y-0.541
X3.4082Y-3.4037
X3.4264Y-2.3413
X3.4271Y-0.9927
X3.4277Y-3.5132
X3.4295Y-0.6448
X3.4298Y-3.5733
X3.4302Y-0.1465
X3.4307Y-1.1309
X3.4309Y-1.5248
X3.4318Y-3.6535
X3.4318Y-3.7847
X3.4319Y-3.0516
X3.432Y-3.2638
X3.432Y-0.5613
X3.4323Y-3.8726
X3.433Y-4.0351
X3.4336Y-0.4607
X3.4338Y-3.7185
X3.4341Y-3.4358
X3.4354Y-1.662
X3.4356Y-1.0695
X3.4372Y-2.4055
X3.4374Y-3.3607
X3.4376Y-0.9253
X3.4387Y-0.0673
X3.4393Y-1.5918
X3.4399Y-2.7001
X3.44Y-2.2627
X3.4415Y-2.0152
X3.4427Y-1.8035
X3.4617Y-0.1867
X3.4621Y-0.6769
X3.4629Y-1.029
X3.4632Y-3.4691
X3.4634Y-3.6881
X3.4646Y-3.6237
X3.4647Y-1.5692
X3.4654Y-3.542
X3.4654Y-3.4
X3.4657Y-3.8272
X3.4667Y-1.4822
X3.4673Y-1.9156
X3.4679Y-4.0005
X3.4683Y-0.1018
X3.469Y-3.9056
X3.4692Y-0.6125
X3.4694Y-0.9542
X3.4699Y-1.0924
X3.471Y-2.2311
X3.472Y-0.4912
X3.4728Y-3.7529
X3.4731Y-1.8394
X3.4739Y-3.0155
X3.475Y-1.9805
X3.4759Y-3.3058
X3.4762Y-2.381
X3.4764Y-0.8953
X3.4777Y-1.7817
X3.4787Y-1.6307
X3.4789Y-1.1634
X3.4789Y-2.2992
X3.4974Y-0.9274
X3.4981Y-1.661
X3.4986Y-1.605
X3.4989Y-0.0765
X3.4993Y-3.2604
X3.5002Y-2.0274
X3.5003Y-1.8081
X3.5005Y-0.4542
X3.5011Y-0.1507
X3.5016Y-3.5058
X3.5016Y-1.5201
X3.5024Y-2.4148
X3.5041Y-4.7568
X3.5047Y-4.036
X3.5063Y-2.3393
X3.5063Y-0.6319
X3.5065Y-3.4475
X3.5073Y-1.8751
X3.5074Y-2.5164
X3.5079Y-1.0721
X3.5087Y-0.5415
X3.5089Y-1.1294
X3.5113Y-2.2609
X3.5114Y-3.3314
X3.5115Y-0.9881
X3.5147Y-1.9492
X3.5335Y-2.0572
X3.5351Y-1.1792
X3.5353Y-2.5581
X3.536Y-0.8892
X3.5364Y-2.1985
X3.5374Y-1.6282
X3.5385Y-1.9785
X3.5385Y-1.8483
X3.5407Y-2.306
X3.5415Y-0.676
X3.5416Y-4.0805
X3.5416Y-0.5727
X3.5416Y-3.1121
X3.5434Y-1.5692
X3.5437Y-3.3024
X3.5453Y-2.1308
X3.5459Y-1.0294
X3.5461Y-3.3701
X3.5462Y-1.0958
X3.5463Y-1.7782
X3.5468Y-0.9585
X3.5477Y-4.7063
X3.549Y-0.5002
X3.5494Y-0.1028
X3.5496Y-1.9088
X3.5497Y-2.3736
X3.5502Y-3.4684
X3.5681Y-1.9572
X3.5685Y-1.884
X3.5687Y-1.8139
X3.5687Y-2.9829
X3.5694Y-2.0994
X3.5696Y-0.5381
X3.5698Y-2.0257
X3.5699Y-1.6693
X3.5714Y-3.73
X3.5715Y-1.1404
X3.5717Y-3.1579
X3.5718Y-1.5243
X3.5742Y-2.1563
X3.5749Y-2.2334
X3.5752Y-2.3375
X3.5758Y-3.334
X3.5765Y-3.2557
X3.5772Y-0.9284
X3.5772Y-4.0395
X3.579Y-1.0736
X3.58Y-2.5118
X3.5802Y-0.9865
X3.5811Y-0.0723
X3.5814Y-4.7431
X3.5832Y-2.4175
X3.5834Y-0.0107
X3.5835Y-3.4087
X3.5839Y-4.6761
X3.5842Y-1.59
X3.5843Y-3.047
X3.5853Y-1.2102
X3.604Y-2.7587
X3.6042Y-2.1243
X3.6054Y-0.0356
X3.6056Y-1.6337
X3.6066Y-1.0341
X3.6071Y-2.0528
X3.6076Y-1.1629
X3.6078Y-3.0869
X3.6089Y-2.27
X3.6089Y-1.8457
X3.609Y-1.5542
X3.6101Y-0.8909
X3.6106Y-4.6498
X3.6108Y-4.7166
X3.611Y-3.9772
X3.6111Y-3.304
X3.6116Y-2.5579
X3.6133Y-3.013
X3.6149Y-3.3643
X3.6157Y-1.9798
X3.6158Y-2.3695
X3.6161Y-1.1017
X3.6173Y-2.2067
X3.6174Y-1.9161
X3.6176Y-3.8269
X3.6193Y-0.963
X3.6196Y-0.2126
X3.6197Y-3.7609
X3.6203Y-4.0742
X3.6205Y-1.7761
X3.6394Y-0.6322
X3.64Y-2.9811
X3.6408Y-2.3112
X3.6409Y-2.1601
X3.6409Y-1.5909
X3.6412Y-2.5931
X3.6428Y-1.8065
X3.6429Y-0.991
X3.6431Y-3.4076
X3.6443Y-4.6014
X3.6444Y-2.0923
X3.6445Y-1.6646
X3.6457Y-2.4202
X3.6474Y-4.6828
X3.6475Y-3.7878
X3.6478Y-1.0721
X3.6482Y-3.7298
X3.6489Y-0.925
X3.6497Y-3.2701
X3.6501Y-3.1216
X3.6514Y-4.0079
X3.6518Y-4.2262
X3.6519Y-4.7426
X3.6526Y-3.054
X3.6541Y-2.2369
X3.6543Y-3.333
X3.6543Y-1.9444
X3.6546Y-2.7383
X3.655Y-2.6565
X3.6556Y-4.1042
X3.6556Y-1.8765
X3.6558Y-1.5344
X3.656Y-2.0279
X3.6562Y-2.5214
X3.6745Y-3.0175
X3.6753Y-0.0337
X3.6756Y-3.2919
X3.676Y-1.9113
X3.676Y-2.1196
X3.6762Y-1.0257
X3.6763Y-1.7769
X3.6767Y-1.8471
X3.6784Y-2.7682
X3.6799Y-4.6488
X3.68Y-3.3711
X3.6807Y-1.5672
X3.6808Y-3.9637
X3.6813Y-4.2532
X3.6815Y-0.6763
X3.6817Y-2.0616
X3.6826Y-3.0788
X3.6827Y-3.8224
X3.6831Y-2.6984
X3.6835Y-3.7657
X3.6839Y-4.7215
X3.6855Y-1.6247
X3.6858Y-2.2003
X3.6859Y-2.6183
X3.6862Y-1.9859
X3.6865Y-2.555
X3.6875Y-2.2654
X3.6877Y-0.9599
X3.6884Y-0.8906
X3.6887Y-4.0486
X3.6919Y-3.1516
X3.7103Y-0.9296
X3.7119Y-4.2141
X3.7122Y-1.9483
X3.7122Y-1.0007
X3.7123Y-2.7963
X3.7124Y-3.0478
X3.7124Y-4.2938
X3.7125Y-3.3383
X3.7144Y-4.6718
X3.7146Y-2.7353
X3.7155Y-2.9456
X3.7158Y-3.1185
X3.7159Y-1.8757
X3.718Y-4.0042
X3.7195Y-4.6166
X3.7195Y-1.6658
X3.7198Y-1.809
X3.7221Y-3.2638
X3.7247Y-3.8008
X3.7248Y-3.4028
X3.7251Y-4.7498
X3.7254Y-0.0082
X3.7257Y-0.599
X3.7258Y-2.5147
X3.7267Y-2.6573
X3.7268Y-1.0646
X3.7271Y-2.5957
X3.7456Y-4.7144
X3.7472Y-2.8289
X3.7474Y-3.4416
X3.7475Y-1.8463
X3.7475Y-2.69
X3.7489Y-1.9241
X3.7492Y-3.8247
X3.7493Y-4.439
X3.7504Y-3.0804
X3.7516Y-0.8825
X3.7518Y-2.9865
X3.7527Y-4.2552
X3.7531Y-3.9639
X3.7534Y-0.5614
X3.755Y-2.6218
X3.7557Y-2.5576
X3.7564Y-2.9118
X3.7566Y-1.0275
X3.757Y-1.7754
X3.7573Y-3.3766
X3.7574Y-3.2885
X3.7576Y-0.9606
X3.7578Y-4.1751
X3.7579Y-3.1574
X3.7585Y-0.6442
X3.759Y-2.7712
X3.7591Y-3.755
X3.7615Y-4.6417
X3.7814Y-3.1272
X3.7817Y-2.6553
X3.7825Y-4.607
X3.7829Y-4.224
X3.7832Y-2.7345
X3.7836Y-3.3976
X3.7838Y-4.1471
X3.7838Y-3.4749
X3.7839Y-3.7954
X3.7841Y-1.8031
X3.785Y-1.0564
X3.7853Y-0.9978
X3.7855Y-0.6775
X3.7856Y-4.687
X3.7858Y-4.3938
X3.7859Y-0.9241
X3.7869Y-2.8752
X3.7883Y-0.4953
X3.7887Y-1.2741
X3.7887Y-3.3354
X3.7888Y-3.2578
X3.7908Y-1.878
X3.791Y-3.0152
X3.7916Y-2.3807
X3.7925Y-2.2377
X3.7926Y-2.9429
X3.7928Y-0.6128
X3.7951Y-2.797
X3.7955Y-1.4932
X3.7957Y-4.7413
X3.7962Y-2.513
X3.7963Y-2.303
X3.7975Y-2.5812
X3.8161Y-3.8286
X3.8163Y-2.7602
X3.8168Y-2.6888
X3.8174Y-2.9775
X3.8177Y-2.2657
X3.8188Y-1.2391
X3.8192Y-2.561
X3.8192Y-1.5337
X3.8193Y-2.4106
X3.8195Y-0.64
X3.8196Y-2.9155
X3.8202Y-4.1129
X3.8217Y-0.5306
X3.8224Y-3.1626
X3.8227Y-1.8457
X3.8228Y-4.71
X3.823Y-2.8413
X3.8231Y-2.6288
X3.8233Y-4.1773
X3.8234Y-2.3408
X3.8243Y-4.36
X3.8243Y-0.9578
X3.8261Y-4.4299
X3.8282Y-1.1027
X3.8285Y-1.9131
X3.8299Y-3.0475
X3.8301Y-4.6373
X3.8305Y-1.7741
X3.8312Y-0.1863
X3.8314Y-3.2931
X3.8322Y-0.8928
X3.8332Y-1.0304
X3.8515Y-0.5633
X3.8518Y-1.4904
X3.8519Y-2.3779
X3.8538Y-0.6692
X3.8543Y-1.8745
X3.8543Y-2.81
X3.8555Y-1.0655
X3.857Y-4.1494
X3.8574Y-2.5167
X3.859Y-4.6874
X3.8592Y-4.3326
X3.8596Y-2.2387
X3.8596Y-2.2979
X3.8605Y-3.7881
X3.8613Y-0.2149
X3.8615Y-2.6652
X3.8623Y-4.0827
X3.8625Y-4.4044
X3.8628Y-2.9506
X3.8631Y-1.2764
X3.8632Y-3.0106
X3.8638Y-0.1365
X3.8638Y-2.5862
X3.8648Y-2.8693
X3.8659Y-1.8171
X3.8668Y-4.7524
X3.8674Y-1.136
X3.8678Y-2.729
X3.8679Y-1.5576
X3.868Y-1.0008
X3.8681Y-0.9309
X3.8682Y-4.6156
X3.8883Y-1.2342
X3.8891Y-2.6283
X3.8894Y-0.9626
X3.8912Y-1.8404
X3.8935Y-4.2855
X3.8941Y-4.6484
X3.8947Y-2.2761
X3.8954Y-2.4143
X3.8958Y-0.895
X3.8958Y-4.3573
X3.8962Y-2.5492
X3.8975Y-4.4292
X3.8983Y-1.5942
X3.8985Y-0.5338
X3.8994Y-1.9131
X3.8994Y-3.7515
X3.8994Y-1.4604
X3.8998Y-2.6949
X3.9Y-4.1092
X3.9003Y-2.3444
X3.9004Y-1.0958
X3.9007Y-3.2973
X3.9017Y-3.827
X3.9026Y-0.5964
X3.9029Y-1.5305
X3.9031Y-4.0339
X3.9039Y-2.76
X3.9042Y-1.0334
X3.9042Y-4.7196
X3.9244Y-1.1318
X3.9244Y-4.0131
X3.9245Y-0.637
X3.9246Y-1.0673
X3.9249Y-1.3451
X3.925Y-4.3227
X3.9255Y-4.403
X3.9257Y-3.714
X3.926Y-2.7321
X3.9272Y-1.5531
X3.9285Y-4.7562
X3.9302Y-1.0008
X3.9302Y-2.3735
X3.9304Y-4.6725
X3.9308Y-2.3099
X3.9309Y-2.6581
X3.9319Y-4.2514
X3.9325Y-1.4955
X3.9326Y-1.6386
X3.9341Y-1.4162
X3.9342Y-3.7953
X3.9343Y-2.5236
X3.935Y-4.611
X3.9353Y-1.2842
X3.9358Y-1.8884
X3.9365Y-0.9242
X3.9369Y-2.5818
X3.9374Y-4.0705
X3.9399Y-0.564
X3.9585Y-3.164
X3.9589Y-1.6006
X3.96Y-1.4562
X3.9609Y-4.2915
X3.9625Y-2.5584
X3.9627Y-4.0442
X3.963Y-1.31
X3.9635Y-3.8269
X3.9644Y-4.6394
X3.9645Y-0.6095
X3.9659Y-1.9084
X3.9665Y-1.0355
X3.9674Y-0.882
X3.9674Y-4.4254
X3.9676Y-2.9811
X3.9677Y-3.9633
X3.9679Y-2.3356
X3.968Y-1.6661
X3.9684Y-3.7514
X3.9685Y-0.4912
X3.969Y-1.3841
X3.9699Y-3.306
X3.9701Y-1.2352
X3.9705Y-2.623
X3.971Y-4.2239
X3.9715Y-1.1052
X3.9718Y-1.5293
X3.9722Y-1.99
X3.9723Y-0.0642
X3.9728Y-4.7085
X3.973Y-0.6796
X3.9739Y-2.2766
X3.9742Y-2.4156
X3.9749Y-4.3643
X3.975Y-0.9663
X3.9936Y-4.3906
X3.9943Y-4.7492
X3.9947Y-3.0795
X3.9952Y-3.7173
X3.9955Y-0.2848
X3.9956Y-1.3426
X3.9958Y-3.0219
X3.997Y-4.2471
X3.9972Y-0.9905
X3.9979Y-2.6554
X3.9994Y-0.6352
X4.0004Y-0.9305
X4.0008Y-1.4854
X4.0009Y-4.1824
X4.0027Y-0.5338
X4.0029Y-2.3109
X4.0032Y-1.0703
X4.0034Y-2.5183
X4.0056Y-3.7906
X4.0057Y-1.555
X4.0061Y-1.6381
X4.0065Y-0.4595
X4.0073Y-2.3693
X4.0076Y-4.6728
X4.0079Y-1.4218
X4.0084Y-4.3179
X4.0094Y-4.0145
X4.0096Y-2.5798
X4.0098Y-4.6166
X4.01Y-1.2774
X4.0108Y-1.1392
X4.0295Y-1.2396
X4.0304Y-3.8271
X4.031Y-0.6756
X4.0311Y-3.0505
X4.0312Y-1.4608
X4.0314Y-4.2908
X4.0332Y-1.59
X4.0335Y-1.3865
X4.0346Y-1.0216
X4.0346Y-4.6373
X4.0349Y-2.2651
X4.0353Y-3.1136
X4.0357Y-2.5494
X4.0367Y-3.405
X4.0383Y-1.3083
X4.0384Y-0.0729
X4.0389Y-4.2125
X4.0395Y-2.333
X4.04Y-3.4741
X4.0402Y-4.7212
X4.0405Y-0.889
X4.0409Y-2.4027
X4.0415Y-1.0985
X4.0419Y-2.6164
X4.0429Y-1.5336
X4.0429Y-1.6615
X4.0434Y-0.5608
X4.0436Y-4.1538
X4.0442Y-0.9655
X4.0443Y-2.9855
X4.0445Y-3.7575
X4.0451Y-0.4995
X4.0459Y-4.4305
X4.046Y-4.3642
X4.0657Y-0.4549
X4.0662Y-1.0572
X4.0668Y-4.1788
X4.0682Y-0.9298
X4.0687Y-0.9903
X4.0688Y-0.2517
X4.0688Y-3.7244
X4.0692Y-3.5105
X4.0699Y-3.4365
X4.0706Y-3.0773
X4.0717Y-1.2858
X4.072Y-3.1554
X4.0723Y-0.6096
X4.0729Y-1.1395
X4.0731Y-3.011
X4.074Y-1.7801
X4.0742Y-2.5935
X4.0742Y-0.538
X4.0749Y-2.6507
X4.0762Y-4.321
X4.0771Y-3.3697
X4.0782Y-0.1029
X4.0783Y-4.3979
X4.0786Y-4.748
X4.0807Y-4.2482
X4.0809Y-3.7912
X4.0998Y-2.6284
X4.1018Y-4.3635
X4.1022Y-3.762
X4.1029Y-4.2271
X4.1032Y-4.2919
X4.1037Y-0.6444
X4.1038Y-3.4832
X4.1052Y-0.9649
X4.1058Y-0.0743
X4.1062Y-0.8867
X4.107Y-3.3306
X4.1101Y-1.2338
X4.1112Y-0.506
X4.1118Y-3.5419
X4.1137Y-3.0574
X4.1146Y-1.0304
X4.115Y-1.1039
X4.1152Y-0.5679
X4.1155Y-3.8221
X4.1163Y-3.1172
X4.1164Y-4.4384
X4.1165Y-3.4066
X4.1165Y-1.8171
X4.1361Y-1.0646
X4.1379Y-2.7369
X4.1386Y-2.2281
X4.1397Y-1.4956
X4.1409Y-0.538
X4.141Y-3.7996
X4.1433Y-3.5038
X4.1435Y-0.9173
X4.144Y-4.2501
X4.1442Y-0.1012
X4.1455Y-4.3202
X4.1472Y-3.3028
X4.1477Y-1.7819
X4.1481Y-2.6562
X4.1489Y-3.5739
X4.1489Y-3.3734
X4.1496Y-2.3028
X4.1499Y-3.4468
X4.15Y-0.5983
X4.1501Y-0.6785
X4.1503Y-3.019
X4.1507Y-0.468
X4.1512Y-4.3903
X4.1513Y-3.0907
X4.1514Y-2.3737
X4.1515Y-1.0027
X4.1712Y-2.4162
X4.1714Y-0.8844
X4.1722Y-0.6443
X4.1724Y-3.6225
X4.1731Y-2.023
X4.1737Y-3.0553
X4.176Y-3.8236
X4.1765Y-0.1462
X4.1768Y-0.0722
X4.1772Y-3.4797
X4.1775Y-3.5456
X4.1778Y-1.6755
X4.1787Y-0.4216
X4.1793Y-3.4112
X4.1796Y-2.6984
X4.1796Y-3.3251
X4.1801Y-1.8021
X4.1806Y-4.1818
X4.1812Y-4.4381
X4.1815Y-1.5998
X4.1831Y-2.2714
X4.1835Y-4.2928
X4.1844Y-0.5656
X4.1846Y-4.3606
X4.1855Y-1.5314
X4.1868Y-2.3412
X4.187Y-0.9504
X4.1872Y-0.4928
X4.1875Y-0.3584
X4.1876Y-1.026
X4.2067Y-2.3803
X4.2067Y-0.4004
X4.2078Y-2.2995
X4.2083Y-3.5055
X4.2085Y-4.2206
X4.2086Y-3.2536
X4.209Y-1.6399
X4.2101Y-1.8469
X4.212Y-4.4029
X4.2132Y-3.5739
X4.2133Y-1.7702
X4.2141Y-0.4546
X4.2142Y-0.6804
X4.2146Y-3.6541
X4.2158Y-0.5297
X4.2159Y-4.3172
X4.2162Y-1.9935
X4.2166Y-3.3761
X4.2176Y-1.9208
X4.2177Y-0.6072
X4.2188Y-3.0077
X4.2191Y-1.4847
X4.2197Y-0.9972
X4.2201Y-2.2416
X4.2201Y-0.1765
X4.222Y-1.5562
X4.2223Y-0.1011
X4.223Y-3.4407
X4.2234Y-0.916
X4.2413Y-1.959
X4.2432Y-3.3993
X4.2438Y-1.4478
X4.244Y-0.2208
X4.2441Y-2.342
X4.2445Y-1.6652
X4.2445Y-2.4173
X4.2448Y-1.8777
X4.2452Y-0.5751
X4.2459Y-0.0648
X4.2468Y-1.1631
X4.2474Y-0.4962
X4.2482Y-2.265
X4.2482Y-4.2544
X4.2486Y-0.8933
X4.2487Y-0.9649
X4.2491Y-2.0302
X4.2498Y-2.5179
X4.2501Y-1.5266
X4.2504Y-3.554
X4.2516Y-3.4773
X4.2519Y-0.4307
X4.2522Y-4.4318
X4.2537Y-3.2908
X4.2538Y-3.6234
X4.2544Y-4.3522
X4.2544Y-0.639
X4.2546Y-1.8164
X4.2551Y-0.1469
X4.2576Y-4.1809
X4.2584Y-1.5892
X4.2772Y-3.4358
X4.2779Y-2.3109
X4.2779Y-4.2952
X4.2781Y-2.3847
X4.2787Y-1.9077
X4.2799Y-3.3401
X4.2801Y-4.4038
X4.2822Y-2.0638
X4.2831Y-3.5039
X4.2833Y-1.6285
X4.2841Y-1.9903
X4.2844Y-4.2122
X4.2844Y-1.8495
X4.2846Y-0.5964
X4.287Y-2.1286
X4.288Y-0.4614
X4.288Y-4.7481
X4.2881Y-0.257
X4.2886Y-0.9294
X4.2898Y-2.2064
X4.2898Y-3.2605
X4.29Y-0.6669
X4.2905Y-1.5684
X4.2909Y-0.5289
X4.2922Y-0.1034
X4.2922Y-1.1322
X4.2922Y-2.5613
X4.293Y-1.7809
X4.2934Y-0.1848
X4.3123Y-3.3058
X4.3133Y-4.3189
X4.3161Y-0.0674
X4.3168Y-1.883
X4.3176Y-2.509
X4.3177Y-0.8954
X4.319Y-2.0911
X4.3193Y-2.2377
X4.3194Y-0.2173
X4.3198Y-1.1785
X4.32Y-1.1075
X4.3205Y-0.2887
X4.3217Y-3.1282
X4.3222Y-2.0252
X4.3225Y-3.3599
X4.3226Y-2.4197
X4.3231Y-2.1617
X4.3235Y-0.1525
X4.3235Y-4.1874
X4.3238Y-1.526
X4.3238Y-2.3445
X4.3253Y-1.6627
X4.3256Y-1.9489
X4.3262Y-1.8091
X4.3273Y-1.5878
X4.3292Y-4.25
X4.3485Y-2.5528
X4.349Y-1.6358
X4.3496Y-3.1488
X4.3497Y-2.2662
X4.3497Y-4.7938
X4.3501Y-0.2517
X4.3514Y-3.3286
X4.352Y-4.2244
X4.3524Y-2.136
X4.3528Y-1.9793
X4.3528Y-2.2013
X4.3528Y-0.1039
X4.353Y-3.7247
X4.3532Y-1.1389
X4.3539Y-0.1782
X4.3554Y-2.3777
X4.3557Y-1.5642
X4.3563Y-4.3534
X4.3564Y-1.2104
X4.358Y-0.8178
X4.3595Y-1.7799
X4.3598Y-2.051
X4.3603Y-3.0424
X4.3606Y-1.0579
X4.3609Y-3.4094
X4.3616Y-2.982
X4.3627Y-1.9115
X4.3634Y-2.7601
X4.3636Y-3.255
X4.3638Y-4.8558
X4.3647Y-4.2957
X4.365Y-1.8474
X4.3834Y-3.0103
X4.384Y-2.6588
X4.3854Y-1.9438
X4.3858Y-2.1627
X4.3875Y-2.5159
X4.3879Y-1.52
X4.3881Y-0.0691
X4.3885Y-1.5895
X4.3885Y-3.302
X4.3893Y-1.8175
X4.3902Y-3.8356
X4.3905Y-1.665
X4.3905Y-3.3676
X4.3911Y-1.0305
X4.3922Y-0.1492
X4.3931Y-3.7638
X4.3932Y-2.7286
X4.3933Y-2.0975
X4.3943Y-2.2353
X4.3943Y-2.5801
X4.3959Y-2.4071
X4.398Y-1.8714
X4.398Y-2.0286
X4.3996Y-2.3068
X4.4003Y-3.0836
X4.4189Y-0.9907
X4.4197Y-3.336
X4.4201Y-3.4105
X4.4202Y-0.1126
X4.4204Y-2.9768
X4.4211Y-1.9833
X4.4211Y-3.1129
X4.4221Y-2.5449
X4.4231Y-1.0698
X4.4235Y-2.269
X4.4265Y-2.2059
X4.4281Y-2.7634
X4.4284Y-1.9163
X4.4289Y-3.7274
X4.4302Y-2.1274
X4.431Y-3.0407
X4.4319Y-1.7725
X4.4324Y-1.8401
X4.4334Y-1.5675
X4.4339Y-3.2671
X4.4347Y-3.7933
X4.4349Y-2.0653
X4.4355Y-2.7021
X4.4358Y-2.6284
X4.4359Y-1.6299
X4.455Y-2.7372
X4.4551Y-2.6515
X4.4557Y-2.8029
X4.4569Y-1.9582
X4.4573Y-3.3704
X4.4579Y-0.6377
X4.4581Y-3.8205
X4.4592Y-1.6627
X4.4601Y-3.093
X4.4612Y-0.0701
X4.4615Y-3.007
X4.4628Y-3.1535
X4.4635Y-1.0241
X4.4636Y-3.7548
X4.4645Y-0.7881
X4.4648Y-0.8454
X4.4655Y-0.1467
X4.4655Y-0.5032
X4.4669Y-1.8737
X4.4678Y-1.8075
X4.4682Y-0.5771
X4.4686Y-0.9313
X4.4689Y-2.5916
X4.4697Y-2.5151
X4.4702Y-3.2946
X4.4708Y-2.0258
X4.4711Y-4.4588
X4.4892Y-0.9583
X4.4939Y-0.8143
X4.494Y-0.676
X4.4942Y-2.835
X4.4944Y-2.7001
X4.4947Y-1.9157
X4.4955Y-1.0573
X4.4963Y-2.5594
X4.4971Y-0.1105
X4.4977Y-0.6072
X4.4989Y-1.8453
X4.4999Y-0.5339
X4.5001Y-2.9144
X4.5003Y-2.6173
X4.5007Y-1.7795
X4.5009Y-1.9872
X4.5013Y-2.9794
X4.5016Y-3.1124
X4.5025Y-3.0423
X4.5033Y-0.8811
X4.5047Y-3.7917
X4.5056Y-2.7699
X4.5058Y-3.3973
X4.5064Y-3.3274
X4.5065Y-3.2571
X4.5261Y-2.3781
X4.5262Y-2.5918
X4.527Y-0.7898
X4.5273Y-3.3007
X4.5273Y-2.6509
X4.5275Y-2.8764
X4.5281Y-0.152
X4.5283Y-2.7293
X4.5295Y-3.4322
X4.53Y-1.4895
X4.5306Y-2.936
X4.5313Y-0.496
X4.5315Y-2.3126
X4.5317Y-3.0215
X4.5322Y-2.5262
X4.5329Y-0.6372
X4.5331Y-4.0373
X4.5345Y-1.8743
X4.5366Y-0.577
X4.5368Y-0.0783
X4.5369Y-3.1635
X4.5384Y-2.234
X4.5392Y-0.9255
X4.5395Y-1.0024
X4.5401Y-0.8525
X4.5402Y-3.3751
X4.5403Y-3.8324
X4.5405Y-1.2845
X4.5411Y-2.799
X4.5412Y-3.0881
X4.542Y-1.8044
X4.5606Y-1.237
X4.561Y-2.548
X4.5621Y-1.8488
X4.5637Y-1.5178
X4.5637Y-2.6995
X4.5671Y-2.2677
X4.5673Y-3.2683
X4.5682Y-0.1073
X4.5685Y-1.9199
X4.5688Y-3.128
X4.5698Y-2.4069
X4.5698Y-2.6172
X4.5699Y-2.8997
X4.571Y-0.8813
X4.5722Y-3.3397
X4.5722Y-3.7627
X4.5723Y-1.7696
X4.5728Y-3.0502
X4.5745Y-2.9733
X4.5755Y-0.6682
X4.5756Y-2.7586
X4.576Y-2.3325
X4.5769Y-0.9574
X4.5769Y-2.8313
X4.577Y-0.6089
X4.577Y-0.54
X4.5776Y-0.8213
X4.5971Y-0.8545
X4.5978Y-0.0687
X4.5979Y-3.1481
X4.5981Y-1.2028
X4.5981Y-2.3822
X4.5997Y-2.5151
X4.6003Y-1.5694
X4.6004Y-2.7275
X4.6016Y-0.7878
X4.6017Y-1.8147
X4.6025Y-1.2798
X4.6037Y-1.8834
X4.6037Y-3.7957
X4.6038Y-1.1275
X4.6055Y-2.2347
X4.606Y-2.6657
X4.6063Y-0.5696
X4.6065Y-2.9477
X4.6068Y-3.0833
X4.6069Y-2.5827
X4.609Y-2.2987
X4.61Y-0.9313
X4.6101Y-2.8688
X4.6103Y-0.6437
X4.6104Y-2.8061
X4.6105Y-0.1504
X4.6107Y-3.0148
X4.6108Y-1.4886
X4.6114Y-3.2899
X4.6318Y-0.6818
X4.6323Y-1.1769
X4.6346Y-1.5209
X4.6367Y-1.25
X4.6371Y-3.8286
X4.6379Y-1.105
X4.6387Y-3.7656
X4.6389Y-0.819
X4.6389Y-1.5963
X4.6398Y-2.5598
X4.6414Y-1.8507
X4.6416Y-2.3432
X4.6417Y-0.6019
X4.6423Y-0.8945
X4.6437Y-2.6251
X4.6455Y-0.5348
X4.6459Y-2.4122
X4.6464Y-2.2613
X4.6469Y-2.7652
X4.647Y-2.6912
X4.6477Y-1.9087
X4.6674Y-3.7899
X4.6682Y-2.5147
X4.6691Y-1.6381
X4.6697Y-0.0816
X4.6716Y-2.5935
X4.6722Y-3.3042
X4.6726Y-1.0711
X4.6727Y-0.7819
X4.6737Y-2.662
X4.6764Y-1.27
X4.6771Y-1.3429
X4.6773Y-4.9327
X4.6774Y-1.425
X4.6778Y-3.7227
X4.6779Y-2.3096
X4.678Y-0.5671
X4.6781Y-4.8561
X4.6782Y-2.376
X4.6786Y-0.8493
X4.6798Y-0.6366
X4.68Y-1.8858
X4.6804Y-1.5536
X4.6818Y-1.1342
X4.6825Y-1.21
X4.6825Y-2.73
X4.6834Y-1.4874
X4.702Y-3.8289
X4.7037Y-0.5275
X4.704Y-2.5604
X4.7047Y-1.9076
X4.7065Y-1.3101
X4.7073Y-1.5178
X4.7073Y-1.448
X4.7097Y-3.149
X4.7102Y-1.1702
X4.7104Y-3.7547
X4.7128Y-0.5996
X4.7131Y-2.4062
X4.7132Y-2.6175
X4.7138Y-2.3468
X4.7139Y-1.0984
X4.7146Y-1.3779
X4.7148Y-2.9774
X4.7152Y-0.8179
X4.716Y-1.5895
X4.7163Y-2.2785
X4.7163Y-1.6749
X4.7168Y-1.0379
X4.7171Y-0.6814
X4.7177Y-1.9894
X4.7186Y-1.2447
X4.7388Y-2.3825
X4.7388Y-1.3421
X4.7394Y-2.5953
X4.7396Y-1.9594
X4.7401Y-0.6352
X4.7405Y-1.2806
X4.7407Y-1.4182
X4.7411Y-1.5546
X4.7437Y-3.7986
X4.7439Y-0.5711
X4.7445Y-1.4989
X4.7449Y-1.0639
X4.7452Y-0.773
X4.7462Y-2.3078
X4.7462Y-4.4598
X4.7481Y-3.0207
X4.7485Y-2.5207
X4.7487Y-0.0775
X4.7505Y-1.2059
X4.7517Y-3.0918
X4.7523Y-1.001
X4.7535Y-1.6245
X4.7538Y-2.66
X4.7547Y-1.137
X4.7547Y-3.7154
X4.7726Y-2.2665
X4.7729Y-1.6621
X4.7732Y-3.0446
X4.7732Y-3.1136
X4.7742Y-2.6198
X4.7751Y-1.5961
X4.7761Y-3.7503
X4.7762Y-1.2475
X4.7766Y-1.4557
X4.7777Y-0.5255
X4.7788Y-3.4023
X4.779Y-1.0368
X4.779Y-1.5244
X4.7818Y-4.3204
X4.7826Y-2.9815
X4.7829Y-0.607
X4.7831Y-4.4
X4.7842Y-2.4141
X4.7844Y-0.958
X4.7845Y-2.3354
X4.7854Y-0.6741
X4.7868Y-1.0947
X4.7878Y-1.176
X4.7879Y-1.3086
X4.7882Y-3.8253
X4.7887Y-1.3753
X4.79Y-2.5497
X4.809Y-2.5958
X4.8098Y-3.3759
X4.812Y-4.4389
X4.8131Y-3.1613
X4.8135Y-3.7197
X4.8138Y-2.6614
X4.8144Y-0.9937
X4.8158Y-4.358
X4.8163Y-0.0646
X4.8165Y-0.6445
X4.8171Y-3.4407
X4.8171Y-0.5717
X4.8186Y-1.0565
X4.8195Y-4.2922
X4.8197Y-3.0866
X4.8216Y-1.7762
X4.823Y-0.9266
X4.8234Y-3.8007
X4.8238Y-1.1337
X4.8244Y-3.0193
X4.8439Y-0.8889
X4.8442Y-3.8283
X4.8448Y-3.7505
X4.8448Y-4.5338
X4.8471Y-3.327
X4.8479Y-4.2614
X4.8481Y-0.4963
X4.8494Y-0.6107
X4.8496Y-3.3997
X4.8525Y-1.807
X4.8539Y-0.9567
X4.854Y-1.0953
X4.8547Y-2.6202
X4.8561Y-1.0213
X4.8575Y-3.1185
X4.8599Y-4.4635
X4.8605Y-4.3977
X4.8606Y-4.3284
X4.8608Y-3.0472
X4.861Y-3.4803
X4.8832Y-4.4996
X4.884Y-1.7734
X4.8843Y-2.3055
X4.8844Y-2.7345
X4.8866Y-4.2808
X4.8871Y-0.9965
X4.8882Y-3.0084
X4.889Y-4.3526
X4.8896Y-2.378
X4.8899Y-4.4244
X4.8911Y-0.8439
X4.8922Y-1.0614
X4.894Y-2.2272
X4.8943Y-0.9304
X4.8944Y-2.6575
X4.8946Y-3.0879
X4.8952Y-0.0754
X4.9149Y-2.27
X4.9153Y-3.0556
X4.9181Y-2.3446
X4.9188Y-4.5453
X4.9193Y-1.8096
X4.92Y-2.0261
X4.9223Y-2.4175
X4.9225Y-4.4042
X4.9229Y-4.3291
X4.9241Y-4.2619
X4.9243Y-4.4717
X4.9248Y-0.8902
X4.925Y-1.6383
X4.926Y-1.0256
X4.9283Y-0.957
X4.9294Y-0.8127
X4.9301Y-2.7
X4.9501Y-0.0693
X4.9505Y-1.6737
X4.9518Y-2.2332
X4.9546Y-4.2913
X4.9561Y-4.4989
X4.9564Y-0.5306
X4.9564Y-0.8586
X4.9565Y-1.1679
X4.9569Y-0.1479
X4.9574Y-4.356
X4.9605Y-1.9887
X4.9609Y-1.0008
X4.9612Y-0.7778
X4.9624Y-0.6052
X4.9629Y-0.9309
X4.9632Y-0.6734
X4.9632Y-4.4339
X4.9637Y-1.8482
X4.9645Y-2.3075
X4.9647Y-0.2109
X4.9649Y-3.0173
X4.9654Y-1.9149
X4.9658Y-2.3728
X4.9659Y-0.4704
X4.9672Y-0.2786
X4.9863Y-2.2785
X4.9866Y-1.144
X4.9873Y-0.8932
X4.9877Y-0.4895
X4.988Y-4.3904
X4.9889Y-0.1048
X4.9889Y-2.4104
X4.9894Y-0.8208
X4.9907Y-0.2546
X4.9907Y-1.4589
X4.9913Y-4.3178
X4.9915Y-1.9578
X4.992Y-1.8861
X4.9924Y-0.573
X4.9948Y-0.1868
X4.9951Y-2.3339
X4.9961Y-0.6372
X4.9977Y-0.9671
X4.9993Y-2.0156
X5.0011Y-2.5157
X5.0014Y-4.4595
X5.0219Y-2.374
X5.0223Y-4.4259
X5.0231Y-2.2063
X5.0238Y-1.914
X5.0253Y-1.1797
X5.0254Y-1.4962
X5.0257Y-0.6106
X5.0263Y-3.4036
X5.0265Y-4.8857
X5.0269Y-0.1517
X5.0279Y-0.8494
X5.0284Y-0.2137
X5.0286Y-0.681
X5.0297Y-0.2879
X5.0299Y-0.7735
X5.0324Y-2.3101
X5.0325Y-1.9862
X5.0331Y-4.3669
X5.0332Y-2.0506
X5.0333Y-0.0717
X5.0334Y-0.4623
X5.0353Y-0.5264
X5.0365Y-0.9277
X5.0369Y-2.5471
X5.0377Y-1.0918
X5.0382Y-3.4728
X5.0563Y-0.8207
X5.0569Y-1.5188
X5.0573Y-3.3387
X5.0573Y-0.8808
X5.0577Y-0.1019
X5.0579Y-1.0703
X5.0583Y-0.5658
X5.0588Y-2.0837
X5.0595Y-0.3175
X5.0596Y-2.023
X5.0596Y-0.392
X5.0601Y-2.1716
X5.0619Y-2.5139
X5.0636Y-2.2367
X5.0645Y-3.4434
X5.0646Y-1.95
X5.0653Y-1.1326
X5.0671Y-0.6455
X5.0717Y-0.1844
X5.072Y-2.3439
X5.073Y-0.2541
X5.0732Y-0.4919
X5.0735Y-2.4177
X5.0921Y-1.1745
X5.0922Y-0.7837
X5.0936Y-0.6025
X5.0947Y-1.1088
X5.0964Y-3.2896
X5.0969Y-4.8854
X5.0971Y-1.0269
X5.0971Y-0.2778
X5.0975Y-3.3761
X5.0996Y-4.8201
X5.1Y-0.2141
X5.1009Y-2.1287
X5.1011Y-1.5651
X5.102Y-0.4267
X5.1022Y-2.2049
X5.1026Y-0.3516
X5.1047Y-0.1411
X5.1047Y-0.5322
X5.1069Y-0.0703
X5.1069Y-2.9697
X5.1077Y-0.8552
X5.1082Y-1.9813
X5.1083Y-2.2754
X5.1084Y-2.5504
X5.1087Y-2.3791
X5.1087Y-0.6748
X5.1088Y-2.0599
X5.1277Y-0.813
X5.1279Y-1.597
X5.1282Y-2.722
X5.1292Y-3.2592
X5.1312Y-0.2548
X5.132Y-0.4618
X5.1321Y-1.0712
X5.133Y-0.5728
X5.1334Y-0.1
X5.134Y-3.3413
X5.1359Y-0.6434
X5.1365Y-1.0013
X5.1375Y-0.3227
X5.1376Y-1.5325
X5.1402Y-0.1811
X5.1427Y-3.405
X5.1443Y-0.3946
X5.1652Y-0.1385
X5.1653Y-0.0777
X5.1665Y-3.3736
X5.1669Y-0.3493
X5.1683Y-0.2873
X5.1684Y-3.2989
X5.1699Y-0.4204
X5.1705Y-1.6284
X5.1707Y-1.5553
X5.1711Y-0.5968
X5.173Y-0.6832
X5.1751Y-1.0308
X5.1757Y-0.2184
X5.1758Y-0.7737
X5.179Y-0.9535
X5.1795Y-0.5021
X5.1795Y-3.7236
X5.1997Y-0.541
X5.2015Y-0.115
X5.2019Y-3.7656
X5.2026Y-1.6713
X5.2031Y-1.8729
X5.2032Y-0.3943
X5.205Y-0.1751
X5.2052Y-3.4034
X5.2056Y-1.9494
X5.2063Y-3.3408
X5.2075Y-0.4604
X5.208Y-1.0702
X5.2114Y-0.9998
X5.2124Y-0.3259
X5.2125Y-0.2479
X5.2129Y-1.8109
X5.2138Y-0.9293
X5.2139Y-3.2629
X5.2141Y-3.1162
X5.215Y-0.6459
X5.2338Y-3.3628
X5.2339Y-1.9882
X5.2346Y-3.787
X5.2352Y-3.4404
X5.2355Y-0.1483
X5.236Y-0.28
X5.2366Y-0.8939
X5.2389Y-1.8449
X5.24Y-0.9575
X5.2411Y-1.0342
X5.2412Y-1.7799
X5.2415Y-3.0775
X5.2421Y-3.2952
X5.2433Y-0.0687
X5.244Y-0.5034
X5.244Y-3.1589
X5.246Y-1.9164
X5.2472Y-0.2203
X5.2485Y-0.5669
X5.2497Y-0.6771
X5.2689Y-2.2395
X5.2709Y-2.404
X5.2717Y-0.1878
X5.2717Y-1.282
X5.2718Y-3.1154
X5.2723Y-3.0448
X5.2724Y-2.9714
X5.2731Y-3.4093
X5.2735Y-0.8599
X5.2749Y-2.8348
X5.2771Y-1.8829
X5.2776Y-0.6044
X5.2793Y-0.9924
X5.2815Y-2.7695
X5.2816Y-3.8227
X5.2817Y-3.3296
X5.2818Y-1.8043
X5.282Y-3.2617
X5.2821Y-1.4871
X5.2839Y-0.9266
X5.2841Y-0.5371
X5.2848Y-2.6884
X5.285Y-2.9052
X5.2856Y-3.4704
X5.286Y-0.113
X5.2862Y-2.6262
X5.3062Y-2.7372
X5.3069Y-0.5608
X5.3071Y-2.5834
X5.3088Y-0.4936
X5.3091Y-3.361
X5.3095Y-1.7748
X5.3096Y-4.6713
X5.3107Y-2.8702
X5.3109Y-2.653
X5.312Y-2.9414
X5.3121Y-3.0164
X5.3128Y-1.9196
X5.3129Y-3.7554
X5.313Y-2.2655
X5.3138Y-2.7924
X5.3141Y-2.5249
X5.3147Y-0.633
X5.3157Y-0.0768
X5.3158Y-3.1553
X5.3168Y-1.528
X5.317Y-1.848
X5.3179Y-0.896
X5.3185Y-4.3598
X5.3188Y-2.3361
X5.3189Y-3.0791
X5.3195Y-3.4443
X5.3198Y-0.1417
X5.32Y-3.3056
X5.3201Y-0.9639
X5.3405Y-3.0576
X5.3416Y-1.4816
X5.3416Y-1.2131
X5.3417Y-2.9766
X5.342Y-4.5315
X5.3431Y-2.8332
X5.3433Y-3.2577
X5.3438Y-2.3698
X5.3441Y-0.1732
X5.3443Y-2.3072
X5.3443Y-2.6203
X5.3454Y-4.6164
X5.3461Y-2.6864
X5.3462Y-2.2393
X5.3462Y-4.7198
X5.3465Y-1.8142
X5.3484Y-2.7706
X5.3486Y-4.4734
X5.3491Y-1.5662
X5.3493Y-3.7925
X5.3511Y-3.1154
X5.3522Y-0.1155
X5.3527Y-2.909
X5.3528Y-4.3928
X5.3544Y-1.2811
X5.3552Y-4.2831
X5.3559Y-2.5564
X5.356Y-1.8773
X5.3569Y-1.1338
X5.3752Y-2.3372
X5.3759Y-3.297
X5.3763Y-2.4048
X5.3774Y-4.6725
X5.3779Y-1.914
X5.3784Y-2.6523
X5.3786Y-1.2368
X5.3795Y-0.0647
X5.3809Y-2.2695
X5.3814Y-1.5953
X5.3836Y-2.5947
X5.3847Y-1.5185
X5.3851Y-1.1714
X5.3885Y-1.8385
X5.3887Y-0.1404
X5.389Y-2.5205
X5.3905Y-1.097
X5.3909Y-2.7279
X5.391Y-4.7449
X5.411Y-1.4971
X5.411Y-2.619
X5.4118Y-0.7768
X5.4119Y-1.1405
X5.415Y-1.5526
X5.4152Y-2.3801
X5.4165Y-2.312
X5.4175Y-1.4242
X5.4176Y-1.8875
X5.4187Y-0.6411
X5.4209Y-1.6319
X5.4216Y-0.9266
X5.4218Y-0.5281
X5.4221Y-2.5447
X5.4222Y-0.8473
X5.4223Y-1.0701
X5.4225Y-0.1076
X5.4232Y-4.7086
X5.4256Y-2.6971
X5.4258Y-0.9973
X5.4259Y-1.199
X5.4261Y-1.273
X5.4273Y-1.3516
X5.4484Y-1.0945
X5.4486Y-1.2342
X5.449Y-3.3054
X5.4494Y-2.3477
X5.4498Y-1.1722
X5.4502Y-1.4462
X5.4509Y-1.3916
X5.4511Y-1.9144
X5.4515Y-2.5128
X5.4523Y-2.5924
X5.453Y-2.9801
X5.4532Y-2.6656
X5.4534Y-0.8829
X5.4536Y-3.7245
X5.4544Y-1.5929
X5.4548Y-1.034
X5.4554Y-3.1623
X5.4555Y-0.8163
X5.4561Y-1.9791
X5.4561Y-1.5233
X5.4568Y-0.9541
X5.4594Y-2.4109
X5.4597Y-2.2716
X5.4601Y-1.3134
X5.461Y-3.8019
X5.4613Y-0.073
X5.4623Y-4.7521
X5.463Y-1.6591
X5.4814Y-1.9531
X5.4817Y-2.6264
X5.4819Y-1.3481
X5.482Y-0.9178
X5.4836Y-1.4221
X5.4836Y-2.302
X5.485Y-3.5184
X5.4862Y-4.7115
X5.4877Y-1.1295
X5.4878Y-1.6235
X5.4893Y-1.208
X5.49Y-0.2229
X5.4904Y-1.2691
X5.4905Y-0.78
X5.4913Y-1.0564
X5.4913Y-3.084
X5.4916Y-3.7538
X5.493Y-0.8445
X5.493Y-2.383
X5.4937Y-3.0214
X5.4941Y-1.5633
X5.4948Y-3.8359
X5.495Y-1.4923
X5.4979Y-2.5498
X5.4986Y-0.9881
X5.5178Y-1.1753
X5.5187Y-1.3063
X5.5188Y-3.0459
X5.5193Y-1.5198
X5.5198Y-1.0298
X5.521Y-2.4182
X5.5212Y-3.118
X5.5216Y-0.8957
X5.5223Y-2.9802
X5.5224Y-2.5225
X5.5232Y-3.4774
X5.5243Y-1.3782
X5.5244Y-1.5933
X5.5246Y-1.245
X5.5257Y-3.7847
X5.5265Y-0.6449
X5.5267Y-3.4002
X5.5268Y-0.8098
X5.5277Y-2.2631
X5.5279Y-2.333
X5.5283Y-1.4543
X5.5284Y-1.0965
X5.5307Y-2.5882
X5.5309Y-0.9504
X5.5312Y-1.6752
X5.5316Y-4.7533
X5.5335Y-3.7138
X5.5337Y-2.6572
X5.5525Y-1.3554
X5.5526Y-0.6742
X5.5528Y-1.0019
X5.553Y-1.2032
X5.5533Y-1.1372
X5.5539Y-0.9261
X5.5542Y-2.3748
X5.5543Y-3.5124
X5.5564Y-2.6275
X5.5567Y-3.7502
X5.5568Y-4.7093
X5.5569Y-2.308
X5.5587Y-3.1511
X5.5592Y-3.4443
X5.5594Y-1.7753
X5.5596Y-1.4978
X5.5599Y-3.0138
X5.5603Y-1.2714
X5.5603Y-3.0773
X5.5604Y-3.3676
X5.5615Y-0.8553
X5.5672Y-1.4134
X5.5678Y-1.0629
X5.5682Y-0.7764
X5.5688Y-2.5446
X5.5879Y-3.4732
X5.5884Y-3.0537
X5.5887Y-0.958
X5.5891Y-1.2494
X5.5899Y-4.2133
X5.59Y-4.7478
X5.5904Y-1.8024
X5.5923Y-1.1088
X5.5924Y-3.1194
X5.5947Y-3.5376
X5.5956Y-0.822
X5.5977Y-2.6524
X5.5979Y-4.3635
X5.5991Y-2.591
X5.5993Y-1.1748
X5.5993Y-3.4024
X5.6018Y-1.0281
X5.6018Y-4.296
X5.6028Y-3.3293
X5.603Y-0.5972
X5.603Y-4.4354
X5.6032Y-0.8954
X5.6036Y-3.6835
X5.623Y-3.017
X5.6235Y-0.9892
X5.6235Y-0.8536
X5.6242Y-4.3284
X5.6248Y-4.255
X5.6259Y-0.7882
X5.626Y-0.6447
X5.6263Y-3.6556
X5.6275Y-2.6311
X5.6279Y-4.4591
X5.629Y-3.7172
X5.6302Y-3.5728
X5.632Y-4.3995
X5.6322Y-1.2064
X5.6327Y-3.2992
X5.633Y-3.3657
X5.6336Y-1.0564
X5.6352Y-1.7734
X5.6361Y-3.5119
X5.6368Y-1.1297
X5.6376Y-2.7012
X5.6379Y-3.4365
X5.6382Y-4.0813
X5.6387Y-3.0801
X5.6387Y-0.5772
X5.6388Y-4.1416
X5.6394Y-0.9215
X5.6406Y-4.7175
X5.6588Y-1.8087
X5.6591Y-2.66
X5.6599Y-2.241
X5.6603Y-1.092
X5.6615Y-2.3756
X5.6618Y-4.3688
X5.6621Y-2.0303
X5.6627Y-1.6406
X5.6631Y-3.6957
X5.6635Y-3.4681
X5.664Y-3.3991
X5.664Y-3.6106
X5.6655Y-4.1108
X5.6658Y-0.9517
X5.6659Y-3.7521
X5.666Y-1.49
X5.6665Y-1.557
X5.6672Y-1.0288
X5.6674Y-0.889
X5.6677Y-0.6023
X5.6687Y-4.7421
X5.6695Y-4.2851
X5.6695Y-2.73
X5.6704Y-0.4972
X5.6714Y-3.5462
X5.6715Y-4.1886
X5.6726Y-2.3064
X5.6739Y-0.6767
X5.6744Y-3.332
X5.6754Y-3.0487
X5.6756Y-0.8098
X5.6759Y-1.1688
X5.6945Y-4.2256
X5.6948Y-0.5281
X5.6953Y-1.9093
X5.6969Y-3.7297
X5.6974Y-1.1364
X5.6976Y-3.0055
X5.6977Y-4.1452
X5.6993Y-3.2646
X5.6997Y-1.9801
X5.7Y-1.524
X5.7005Y-0.7815
X5.7017Y-2.2718
X5.7026Y-2.414
X5.7034Y-0.988
X5.704Y-3.517
X5.704Y-0.9207
X5.704Y-0.1367
X5.7045Y-1.7792
X5.705Y-1.5996
X5.7052Y-3.4458
X5.7073Y-4.7108
X5.7074Y-1.8493
X5.7082Y-0.8569
X5.7082Y-1.0587
X5.7084Y-0.2134
X5.709Y-4.3297
X5.709Y-3.3705
X5.7094Y-1.6629
X5.7095Y-3.5728
X5.7095Y-3.6491
X5.7097Y-0.6471
X5.7112Y-2.3328
X5.7116Y-3.7899
X5.7321Y-1.098
X5.7329Y-3.6896
X5.733Y-0.9622
X5.7336Y-1.9502
X5.7344Y-1.4861
X5.7346Y-0.1834
X5.7348Y-3.5492
X5.7351Y-4.251
X5.7353Y-4.7468
X5.736Y-1.0288
X5.7365Y-1.6387
X5.7372Y-0.8187
X5.7374Y-2.2255
X5.7381Y-0.8791
X5.7385Y-4.1861
X5.7387Y-1.5597
X5.7389Y-2.3695
X5.7397Y-4.1072
X5.7402Y-1.8172
X5.7406Y-3.4752
X5.741Y-3.3964
X5.7411Y-2.5172
X5.742Y-0.6761
X5.7421Y-2.0167
X5.7436Y-2.3078
X5.7446Y-3.3044
X5.7453Y-3.7541
X5.7457Y-1.1779
X5.7459Y-1.879
X5.7464Y-3.6095
X5.7466Y-0.561
X5.7659Y-3.259
X5.7663Y-1.9942
X5.7672Y-0.6007
X5.7672Y-4.2924
X5.7674Y-0.8588
X5.768Y-1.9206
X5.7697Y-1.7741
X5.77Y-2.4186
X5.7703Y-2.3483
X5.7714Y-4.2173
X5.7716Y-0.7764
X5.7719Y-3.3287
X5.7733Y-2.267
X5.7737Y-4.156
X5.7739Y-3.5036
X5.7757Y-1.0005
X5.7758Y-1.8422
X5.7763Y-2.5599
X5.7763Y-1.0693
X5.7763Y-0.5251
X5.7768Y-1.6611
X5.777Y-0.9254
X5.7771Y-1.5237
X5.7785Y-1.6046
X5.7794Y-4.4631
X5.7808Y-1.1436
X5.7817Y-4.7187
X5.7819Y-3.4465
X5.8009Y-1.1733
X5.801Y-3.1219
X5.8015Y-1.8825
X5.8016Y-1.0256
X5.8036Y-2.3111
X5.8048Y-1.1062
X5.8054Y-4.4256
X5.8057Y-4.1787
X5.8057Y-0.9627
X5.8081Y-0.5602
X5.8084Y-3.2938
X5.8088Y-4.2523
X5.8088Y-1.8123
X5.81Y-3.3724
X5.8114Y-1.6391
X5.8126Y-1.9457
X5.8127Y-2.3767
X5.813Y-2.1631
X5.8139Y-1.5676
X5.8143Y-3.4666
X5.8155Y-4.7558
X5.8155Y-2.0966
X5.8155Y-0.8255
X5.8156Y-2.0174
X5.8157Y-2.5263
X5.8158Y-0.8827
X5.8162Y-2.2364
X5.8172Y-0.6317
X5.8357Y-0.931
X5.8373Y-0.0676
X5.8381Y-3.3991
X5.8384Y-4.1452
X5.839Y-2.4153
X5.8401Y-1.1313
X5.8403Y-1.77
X5.8411Y-3.2578
X5.8413Y-0.7742
X5.8418Y-2.5609
X5.8422Y-3.3348
X5.8426Y-4.4709
X5.8429Y-2.2069
X5.843Y-3.1519
X5.8443Y-1.668
X5.8444Y-0.6818
X5.8445Y-2.0608
X5.8449Y-1.5287
X5.8451Y-4.7149
X5.8453Y-3.7235
X5.8461Y-0.8591
X5.8462Y-2.9811
X5.8462Y-1.9876
X5.8463Y-2.3329
X5.8487Y-1.847
X5.849Y-1.2134
X5.8497Y-1.9186
X5.8498Y-3.7948
X5.8499Y-0.4992
X5.85Y-0.6002
X5.8505Y-1.0734
X5.8516Y-4.2178
X5.8518Y-2.1354
X5.8518Y-0.9984
X5.8519Y-1.6049
X5.8521Y-3.0438
X5.8527Y-4.3975
X5.8528Y-2.2774
X5.8711Y-2.2423
X5.8713Y-1.9485
X5.8714Y-0.8232
X5.8716Y-4.1916
X5.8726Y-3.0865
X5.8738Y-1.8056
X5.8738Y-3.753
X5.874Y-2.3067
X5.8742Y-0.2767
X5.8743Y-0.9578
X5.8753Y-0.5313
X5.8764Y-1.0239
X5.8769Y-0.4685
X5.8776Y-3.0136
X5.8802Y-2.0158
X5.8825Y-1.2501
X5.8825Y-1.1054
X5.8828Y-1.6298
X5.8837Y-1.553
X5.8844Y-1.8745
X5.8844Y-3.366
X5.8853Y-2.7591
X5.8861Y-2.158
X5.8865Y-3.2922
X5.8866Y-3.8356
X5.8869Y-2.5851
X5.8873Y-0.8906
X5.8874Y-2.3754
X5.8877Y-0.6471
X5.8878Y-2.5234
X5.8879Y-2.0953
X5.8885Y-4.745
X5.9069Y-2.6174
X5.907Y-3.7154
X5.9071Y-1.9207
X5.9072Y-2.1939
X5.9075Y-1.5892
X5.9077Y-4.462
X5.9086Y-2.6909
X5.9101Y-2.3335
X5.9103Y-3.398
X5.9104Y-0.7884
X5.911Y-0.8565
X5.9115Y-3.1209
X5.9119Y-2.4114
X5.9124Y-1.7769
X5.9125Y-3.333
X5.9127Y-1.5222
X5.9131Y-0.6807
X5.914Y-0.9929
X5.9145Y-3.0533
X5.9155Y-4.1428
X5.9167Y-1.6684
X5.9168Y-2.2721
X5.9175Y-0.4953
X5.9175Y-1.07
X5.9175Y-2.1255
X5.9191Y-4.7139
X5.9191Y-0.9304
X5.9201Y-3.26
X5.9232Y-0.5733
X5.9233Y-1.8416
X5.9233Y-2.061
X5.9234Y-2.5543
X5.9236Y-1.9774
X5.9237Y-2.9733
X5.9238Y-0.0816
X5.9421Y-3.1532
X5.9422Y-2.5225
X5.9431Y-3.2885
X5.9455Y-2.6561
X5.9456Y-2.5899
X5.9459Y-1.8735
X5.9465Y-0.8818
X5.9472Y-0.1057
X5.9478Y-0.8143
X5.9484Y-0.4542
X5.9495Y-3.3595
X5.9498Y-1.0223
X5.9499Y-3.0833
X5.9509Y-0.6078
X5.9517Y-2.0169
X5.9527Y-2.7363
X5.9533Y-1.6236
X5.9538Y-3.0172
X5.955Y-0.1849
X5.9558Y-1.8174
X5.9559Y-0.2481
X5.957Y-4.7514
X5.9574Y-3.758
X5.9575Y-0.9595
X5.9583Y-1.9508
X5.9594Y-0.5395
X5.9783Y-2.694
X5.9784Y-0.782
X5.9787Y-4.7165
X5.9793Y-0.5753
X5.9799Y-0.9988
X5.98Y-0.6343
X5.98Y-0.1507
X5.9804Y-1.6716
X5.9805Y-0.5041
X5.9807Y-1.0609
X5.9809Y-1.9937
X5.9819Y-3.1149
X5.9819Y-3.4024
X5.9827Y-1.7679
X5.9835Y-4.1425
X5.985Y-4.4669
X5.9851Y-0.9295
X5.9854Y-2.8368
X5.9855Y-1.8515
X5.9856Y-2.9847
X5.9857Y-3.3364
X5.986Y-2.9024
X5.986Y-1.9194
X5.9872Y-2.5487
X5.9875Y-2.621
X5.9894Y-0.0795
X5.9898Y-0.2073
X5.9932Y-3.2548
X5.9934Y-0.8599
X5.9948Y-2.759
X5.9948Y-3.0444
X6.0141Y-3.3679
X6.0145Y-2.8746
X6.0166Y-1.8815
X6.0175Y-1.492
X6.0192Y-0.1737
X6.0193Y-3.2953
X6.0196Y-3.0058
X6.02Y-3.1548
X6.0201Y-2.723
X6.021Y-3.0863
X6.0212Y-2.2341
X6.0229Y-2.6525
X6.0238Y-1.0232
X6.0241Y-4.7567
X6.0253Y-2.5942
X6.0256Y-0.5289
X6.0258Y-0.6747
X6.0259Y-0.8863
X6.0259Y-0.8083
X6.026Y-1.2695
X6.0269Y-0.6117
X6.0274Y-3.4432
X6.0287Y-2.5232
X6.029Y-2.8023
X6.0295Y-1.8081
X6.0295Y-0.1167
X6.0299Y-0.9542
X6.03Y-2.9388
X6.0305Y-2.406
X6.0487Y-1.7728
X6.0488Y-0.069
X6.0489Y-2.6304
X6.0489Y-3.4822
X6.0496Y-0.786
X6.0511Y-2.3374
X6.0517Y-0.8476
X6.0535Y-2.2612
X6.0542Y-2.7001
X6.0546Y-2.7715
X6.0551Y-3.4102
X6.0556Y-3.3368
X6.0556Y-2.5549
X6.0559Y-0.5605
X6.0562Y-1.9178
X6.0564Y-0.9219
X6.0575Y-3.0547
X6.0576Y-0.6437
X6.0594Y-1.525
X6.0609Y-3.2653
X6.0619Y-2.8292
X6.0623Y-2.9123
X6.0626Y-0.4546
X6.0629Y-2.9716
X6.064Y-1.0016
X6.0648Y-1.8366
X6.0652Y-4.7135
X6.0657Y-4.143
X6.0657Y-3.1192
X6.0658Y-0.1394
X6.0658Y-3.8324
X6.0659Y-3.7583
X6.0843Y-2.5143
X6.0858Y-2.3804
X6.0862Y-2.2972
X6.0884Y-2.2307
X6.0889Y-1.2751
X6.089Y-1.8021
X6.0894Y-1.1273
X6.0897Y-3.0104
X6.0904Y-1.2154
X6.0908Y-4.7505
X6.0918Y-3.0834
X6.0924Y-2.5938
X6.0939Y-2.6516
X6.0944Y-3.1591
X6.0951Y-2.8068
X6.0951Y-2.8668
X6.0964Y-3.7944
X6.0964Y-0.1032
X6.0965Y-2.9367
X6.097Y-1.565
X6.0992Y-2.7233
X6.0993Y-1.4871
X6.1002Y-3.3052
X6.1009Y-1.8882
X6.1198Y-2.3356
X6.1201Y-1.6051
X6.1214Y-2.6269
X6.1215Y-2.2758
X6.1242Y-4.7088
X6.1246Y-1.8419
X6.1255Y-2.5579
X6.1265Y-1.9175
X6.1273Y-1.2369
X6.1283Y-2.7599
X6.1285Y-2.4115
X6.1303Y-2.702
X6.1303Y-4.1465
X6.1321Y-0.0734
X6.1326Y-0.1393
X6.1353Y-1.1788
X6.1366Y-1.1008
X6.1367Y-1.529
X6.155Y-1.0677
X6.1556Y-2.7359
X6.1566Y-1.1305
X6.1576Y-2.3045
X6.1587Y-1.8734
X6.1588Y-0.4982
X6.1593Y-2.5172
X6.1598Y-2.667
X6.16Y-0.5616
X6.16Y-2.3785
X6.1601Y-1.5546
X6.1611Y-0.994
X6.1612Y-3.3054
X6.162Y-0.7734
X6.1626Y-0.8445
X6.1626Y-1.2834
X6.1627Y-2.5818
X6.1645Y-1.4624
X6.1645Y-0.1086
X6.1649Y-4.7481
X6.1652Y-1.2038
X6.1666Y-1.6312
X6.1703Y-1.385
X6.1707Y-0.6361
X6.1714Y-0.9266
X6.1917Y-2.6952
X6.193Y-2.56
X6.1941Y-2.9806
X6.1944Y-0.0756
X6.1959Y-1.3113
X6.1959Y-2.6274
X6.1989Y-1.9163
X6.1992Y-0.8892
X6.1993Y-1.419
X6.1995Y-2.2705
X6.1998Y-0.5306
X6.2011Y-0.9548
X6.2013Y-2.4063
X6.202Y-1.4839
X6.202Y-1.2359
X6.2042Y-4.7231
X6.2047Y-1.6044
X6.2056Y-2.3329
X6.2062Y-0.8221
X6.2067Y-1.1642
X6.2073Y-1.6739
X6.2074Y-1.0921
X6.2076Y-1.0324
X6.2265Y-3.0808
X6.2267Y-3.7173
X6.2273Y-0.9903
X6.2276Y-1.1988
X6.228Y-3.7857
X6.2283Y-0.2076
X6.2283Y-2.299
X6.229Y-2.3799
X6.2294Y-0.79
X6.2296Y-1.958
X6.2303Y-1.4611
X6.2304Y-4.7497
X6.2317Y-1.6323
X6.234Y-2.5964
X6.235Y-3.0109
X6.2362Y-2.6652
X6.2383Y-0.8475
X6.2386Y-1.3496
X6.2393Y-3.1542
X6.2397Y-2.5184
X6.2401Y-1.0668
X6.2405Y-1.2772
X6.2407Y-1.1436
X6.2411Y-1.5285
X6.2418Y-0.9223
X6.2611Y-2.5501
X6.2619Y-3.1189
X6.2622Y-3.7512
X6.2634Y-2.2722
X6.2634Y-0.8178
X6.2639Y-2.6174
X6.2653Y-4.709
X6.2671Y-3.4028
X6.2675Y-1.2334
X6.2677Y-3.0472
X6.2678Y-3.4741
X6.2685Y-1.3139
X6.2685Y-0.9534
X6.2689Y-2.3429
X6.2691Y-1.1079
X6.2696Y-1.1728
X6.2706Y-1.667
X6.2712Y-2.4085
X6.2716Y-2.9782
X6.2725Y-1.5657
X6.2726Y-1.375
X6.2729Y-1.0275
X6.2755Y-1.4842
X6.2756Y-0.8824
X6.277Y-0.6403
X6.2967Y-0.6711
X6.2969Y-3.7312
X6.2977Y-0.6044
X6.2979Y-2.3847
X6.2984Y-3.0116
X6.3019Y-0.8519
X6.3026Y-2.5913
X6.3039Y-1.0701
X6.3043Y-2.3123
X6.305Y-2.6644
X6.3065Y-3.4437
X6.307Y-3.5054
X6.3072Y-1.5309
X6.3076Y-4.7448
X6.3077Y-3.0895
X6.3079Y-3.3752
X6.3095Y-3.1638
X6.3096Y-0.788
X6.3096Y-1.7773
X6.3108Y-1.2825
X6.3122Y-1.4269
X6.3128Y-1.3444
X6.3128Y-0.9996
X6.3129Y-1.1329
X6.3132Y-1.2128
X6.3139Y-0.9315
X6.3363Y-3.0409
X6.3367Y-0.6484
X6.337Y-3.4067
X6.3371Y-2.6282
X6.3378Y-1.0928
X6.338Y-3.4711
X6.3381Y-3.5365
X6.3402Y-3.7537
X6.3408Y-3.3342
X6.3409Y-1.1783
X6.3436Y-2.5532
X6.3437Y-4.0827
X6.344Y-1.2435
X6.3447Y-0.8942
X6.3449Y-3.1228
X6.3467Y-0.8215
X6.3475Y-1.0358
X6.3477Y-1.8073
X6.3479Y-0.9671
X6.3481Y-0.5775
X6.3491Y-4.7114
X6.3689Y-2.5876
X6.3695Y-1.7788
X6.3706Y-3.5748
X6.3715Y-2.659
X6.372Y-0.606
X6.3737Y-3.7193
X6.3756Y-4.4621
X6.3757Y-3.298
X6.377Y-3.4469
X6.3776Y-0.8454
X6.3777Y-1.1299
X6.3778Y-3.5152
X6.3781Y-0.678
X6.3784Y-3.647
X6.3786Y-3.3602
X6.3796Y-3.0909
X6.3796Y-1.0728
X6.3808Y-3.0147
X6.3809Y-0.9309
X6.3832Y-4.7559
X6.3837Y-0.7755
X6.384Y-1.0022
X6.384Y-1.2028
X6.3841Y-0.5328
X6.4035Y-2.6863
X6.4035Y-1.803
X6.4042Y-1.1088
X6.4043Y-3.4731
X6.4046Y-3.6947
X6.405Y-1.561
X6.4051Y-0.6383
X6.4051Y-0.813
X6.4055Y-0.956
X6.4061Y-3.3999
X6.4074Y-3.7526
X6.4091Y-3.0532
X6.411Y-2.2284
X6.4113Y-2.3139
X6.4114Y-1.6294
X6.4115Y-0.4946
X6.4116Y-3.546
X6.4127Y-1.0364
X6.413Y-4.0836
X6.4132Y-1.4857
X6.4137Y-4.7213
X6.4151Y-2.0258
X6.4153Y-2.3741
X6.4169Y-0.8873
X6.4169Y-0.574
X6.4172Y-1.1656
X6.4177Y-3.6101
X6.4179Y-3.3295
X6.4191Y-2.62
X6.4191Y-3.8229
X6.438Y-3.3635
X6.4382Y-4.4588
X6.4408Y-2.4119
X6.441Y-0.5254
X6.4411Y-4.1043
X6.4421Y-1.6594
X6.4432Y-3.7855
X6.4438Y-0.9861
X6.445Y-2.2755
X6.4458Y-3.5721
X6.4459Y-4.287
X6.446Y-3.6455
X6.446Y-1.0619
X6.4463Y-1.5342
X6.4467Y-1.6022
X6.4478Y-3.0161
X6.4482Y-4.7514
X6.449Y-0.6814
X6.4491Y-1.8395
X6.4514Y-0.6046
X6.4514Y-3.517
X6.4524Y-2.3355
X6.454Y-3.7153
X6.4541Y-1.9799
X6.4548Y-3.2599
X6.4551Y-1.7658
X6.4552Y-0.1705
X6.4554Y-1.1333
X6.4555Y-3.4383
X6.4744Y-3.6112
X6.4744Y-2.0231
X6.4763Y-3.4064
X6.478Y-1.9459
X6.4786Y-0.6327
X6.4791Y-4.0778
X6.4803Y-3.2896
X6.4811Y-1.0312
X6.4812Y-3.5433
X6.4818Y-2.2402
X6.4823Y-1.8838
X6.4826Y-0.211
X6.4828Y-0.1515
X6.4837Y-1.6348
X6.484Y-0.5661
X6.4843Y-1.812
X6.486Y-2.3838
X6.4861Y-1.562
X6.4862Y-3.4738
X6.4863Y-3.7574
X6.4866Y-2.3002
X6.4872Y-1.4859
X6.4894Y-1.0965
X6.4894Y-4.1426
X6.4903Y-3.6817
X6.4906Y-1.1666
X6.5104Y-1.9784
X6.5115Y-0.5416
X6.5134Y-1.7691
X6.5134Y-3.3411
X6.5148Y-1.0682
X6.5177Y-2.5163
X6.5184Y-3.438
X6.5185Y-2.3318
X6.5186Y-4.1764
X6.5197Y-1.6667
X6.5198Y-3.5175
X6.5216Y-1.8473
X6.522Y-1.1333
X6.522Y-0.8826
X6.5223Y-4.1157
X6.5224Y-3.2617
X6.5224Y-0.6039
X6.5224Y-2.4185
X6.523Y-1.911
X6.5233Y-2.277
X6.5233Y-1.5928
X6.5252Y-1.5282
X6.5445Y-2.3021
X6.5449Y-0.5724
X6.5456Y-2.5588
X6.5457Y-3.473
X6.5459Y-3.3623
X6.546Y-1.8073
X6.5462Y-0.9159
X6.5463Y-1.8759
X6.5465Y-2.2416
X6.5466Y-1.5537
X6.5476Y-4.0747
X6.5495Y-1.0956
X6.5497Y-2.3791
X6.5521Y-1.6266
X6.5527Y-2.1594
X6.5529Y-3.1119
X6.555Y-1.177
X6.5577Y-2.0207
X6.561Y-1.9491
X6.5611Y-2.0837
X6.5613Y-3.2911
X6.5798Y-2.2742
X6.58Y-3.0528
X6.5812Y-0.497
X6.5818Y-0.0757
X6.5819Y-1.842
X6.5832Y-2.975
X6.5836Y-2.2
X6.584Y-0.9664
X6.5846Y-3.2704
X6.585Y-3.7292
X6.5853Y-1.6753
X6.589Y-1.1983
X6.59Y-2.3409
X6.5902Y-2.1268
X6.5909Y-3.1473
X6.5913Y-2.0556
X6.5919Y-1.9912
X6.5929Y-1.7797
X6.5929Y-3.406
X6.593Y-1.6031
X6.5934Y-2.5132
X6.5943Y-0.8947
X6.5944Y-2.4028
X6.5945Y-3.3355
X6.5957Y-1.1295
X6.5958Y-1.9191
X6.5965Y-1.5196
X6.6153Y-2.766
X6.6154Y-1.2354
X6.6157Y-2.095
X6.6158Y-3.0764
X6.6161Y-0.5313
X6.6164Y-1.6366
X6.6168Y-0.9859
X6.6172Y-3.7579
X6.6173Y-1.8869
X6.62Y-1.8173
X6.6207Y-3.0183
X6.6218Y-2.0143
X6.6223Y-2.311
X6.6226Y-4.0779
X6.6234Y-1.1639
X6.625Y-1.5671
X6.6253Y-2.23
X6.6255Y-2.1678
X6.6258Y-2.5499
X6.6276Y-3.2937
X6.6277Y-2.3686
X6.6278Y-3.3638
X6.6279Y-0.2939
X6.6292Y-1.9445
X6.6293Y-0.917
X6.6298Y-0.4704
X6.6306Y-3.8336
X6.6514Y-3.714
X6.6514Y-1.9831
X6.6531Y-1.7759
X6.6544Y-2.9718
X6.6547Y-3.4058
X6.6549Y-3.2552
X6.6555Y-1.5926
X6.6556Y-0.879
X6.656Y-0.9651
X6.6561Y-3.1263
X6.6562Y-2.0653
X6.6568Y-2.6527
X6.6571Y-1.5186
X6.6572Y-2.198
X6.6573Y-2.5817
X6.6573Y-3.0433
X6.6574Y-2.2729
X6.6578Y-1.8361
X6.6588Y-2.1277
X6.6594Y-2.7345
X6.6596Y-0.5021
X6.6614Y-1.6608
X6.6638Y-3.3272
X6.6643Y-2.417
X6.6648Y-2.5213
X6.665Y-0.0798
X6.6653Y-1.9165
X6.6671Y-3.7949
X6.6671Y-2.3422
X6.6676Y-1.0292
X6.6863Y-2.6166
X6.6887Y-1.9533
X6.6888Y-3.7526
X6.689Y-1.6251
X6.6891Y-4.0845
X6.6901Y-0.2478
X6.6918Y-2.0163
X6.6919Y-0.99
X6.6922Y-3.3632
X6.6925Y-1.0653
X6.6941Y-2.6998
X6.6942Y-2.5482
X6.6945Y-3.2959
X6.6947Y-3.0893
X6.6969Y-1.8818
X6.6981Y-0.4572
X6.6985Y-0.1032
X6.6985Y-3.1579
X6.7002Y-3.0173
X6.7008Y-2.7655
X6.7023Y-1.8159
X6.7024Y-0.921
X6.7028Y-0.639
X6.7218Y-3.0567
X6.7233Y-3.3373
X6.7235Y-1.0343
X6.7241Y-2.6626
X6.7246Y-1.7683
X6.7263Y-0.6723
X6.7274Y-1.9948
X6.7292Y-3.254
X6.7297Y-2.5131
X6.73Y-0.9542
X6.7304Y-1.6746
X6.7307Y-2.7322
X6.731Y-3.4007
X6.7316Y-0.2106
X6.7319Y-2.944
X6.7333Y-0.6082
X6.7341Y-2.8099
X6.7345Y-2.5844
X6.7347Y-4.1145
X6.735Y-1.8393
X6.7356Y-2.8692
X6.737Y-0.1401
X6.7377Y-3.128
X6.7377Y-1.916
X6.7377Y-0.0741
X6.7391Y-0.8899
X6.7584Y-0.5641
X6.7588Y-2.5562
X6.761Y-1.4988
X6.7612Y-4.0802
X6.7624Y-0.9204
X6.7646Y-2.2346
X6.7648Y-3.294
X6.7648Y-3.3758
X6.765Y-0.6366
X6.7651Y-0.1862
X6.7652Y-1.2799
X6.7655Y-4.3684
X6.7659Y-3.1625
X6.7662Y-1.812
X6.767Y-1.0005
X6.7677Y-1.0728
X6.7677Y-3.0765
X6.7678Y-2.8316
X6.7683Y-0.1076
X6.7705Y-2.6162
X6.7708Y-2.9101
X6.7715Y-2.6889
X6.7722Y-2.772
X6.7725Y-2.982
X6.7734Y-3.4455
X6.7737Y-1.8805
X6.7935Y-1.8531
X6.7944Y-3.2615
X6.7952Y-3.7859
X6.7955Y-3.3961
X6.7964Y-2.2767
X6.7966Y-3.0123
X6.7971Y-3.1246
X6.7985Y-2.8074
X6.7995Y-3.3287
X6.7995Y-2.6522
X6.7997Y-2.9398
X6.7998Y-2.877
X6.8Y-0.9659
X6.8002Y-0.0765
X6.8002Y-1.7709
X6.8008Y-0.8923
X6.8014Y-0.6126
X6.8021Y-0.6686
X6.8026Y-0.5279
X6.8027Y-1.9225
X6.8028Y-4.1126
X6.8029Y-0.1517
X6.8048Y-2.3452
X6.8049Y-1.024
X6.8049Y-2.7354
X6.8069Y-4.3185
X6.8075Y-2.5946
X6.8084Y-3.4694
X6.8085Y-1.518
X6.8088Y-2.5239
X6.8088Y-2.407
X6.8287Y-2.3713
X6.8289Y-1.8855
X6.8289Y-2.6931
X6.8299Y-1.278
X6.8311Y-1.213
X6.8312Y-3.1614
X6.8315Y-0.9924
X6.8318Y-2.7658
X6.8321Y-4.3598
X6.8322Y-4.2179
X6.8332Y-1.1312
X6.834Y-1.4879
X6.8341Y-0.1006
X6.8343Y-1.0565
X6.8346Y-0.4915
X6.8346Y-4.2906
X6.8351Y-0.6372
X6.8353Y-3.053
X6.8354Y-4.1415
X6.8354Y-1.8142
X6.8358Y-2.5513
X6.8374Y-2.2335
X6.8375Y-0.9207
X6.838Y-4.0836
X6.8384Y-2.6298
X6.839Y-2.3027
X6.8397Y-2.8436
X6.8408Y-1.5593
X6.8412Y-0.566
X6.8413Y-3.837
X6.8414Y-2.9736
X6.845Y-3.2889
X6.8452Y-2.904
X6.8634Y-1.098
X6.8635Y-4.322
X6.8636Y-4.1805
X6.8642Y-3.0098
X6.8645Y-3.7604
X6.8649Y-1.2393
X6.8652Y-2.2636
X6.8656Y-1.5251
X6.8657Y-0.596
X6.8667Y-2.5858
X6.8669Y-0.9508
X6.8672Y-1.0375
X6.8704Y-0.6815
X6.871Y-1.9136
X6.8716Y-0.4652
X6.8728Y-0.8867
X6.8737Y-1.1686
X6.8751Y-0.0709
X6.8753Y-2.416
X6.8754Y-2.9401
X6.8757Y-4.256
X6.8769Y-2.5154
X6.8771Y-2.3341
X6.8774Y-0.5261
X6.8776Y-0.1518
X6.878Y-2.6518
X6.8782Y-1.6047
X6.8786Y-2.7927
X6.8795Y-4.1081
X6.8802Y-2.7289
X6.8805Y-2.8759
X6.8809Y-1.8461
X6.8986Y-0.6381
X6.8999Y-0.5054
X6.9001Y-2.3811
X6.9002Y-1.6233
X6.9014Y-2.619
X6.9019Y-1.5694
X6.9022Y-4.2862
X6.9023Y-2.7741
X6.9026Y-0.9228
X6.9049Y-1.1361
X6.9051Y-2.5582
X6.9057Y-0.5774
X6.9063Y-1.8156
X6.9079Y-2.7034
X6.9079Y-1.2848
X6.9087Y-4.36
X6.909Y-2.3131
X6.9092Y-4.2109
X6.9096Y-4.1479
X6.9097Y-0.1163
X6.9103Y-4.0801
X6.9109Y-1.204
X6.9111Y-1.0693
X6.9124Y-0.9961
X6.9125Y-1.8828
X6.913Y-3.302
X6.916Y-1.4525
X6.9355Y-0.8962
X6.9356Y-2.3478
X6.9372Y-1.1769
X6.9376Y-4.3213
X6.9376Y-1.0347
X6.9389Y-4.1062
X6.9391Y-1.1032
X6.9395Y-2.661
X6.9411Y-0.9557
X6.9415Y-1.9235
X6.9422Y-1.2427
X6.9434Y-1.4841
X6.944Y-1.8404
X6.9461Y-4.1759
X6.9463Y-1.3214
X6.9464Y-1.3872
X6.9465Y-2.4037
X6.9466Y-2.2626
X6.947Y-4.3884
X6.9485Y-0.0778
X6.9489Y-2.587
X6.9499Y-4.4633
X6.9501Y-4.2545
X6.9504Y-4.5301
X6.9508Y-0.5286
X6.951Y-2.5232
X6.9513Y-1.5987
X6.9699Y-1.0583
X6.9699Y-2.3802
X6.971Y-2.6301
X6.9725Y-3.1282
X6.9733Y-1.2037
X6.9761Y-1.1279
X6.9764Y-1.9444
X6.9772Y-1.421
X6.9774Y-1.6336
X6.9786Y-2.9778
X6.9789Y-1.8864
X6.9798Y-3.0415
X6.9803Y-0.931
X6.9805Y-1.2708
X6.982Y-2.3126
X6.983Y-3.7228
X6.9845Y-2.5582
X6.9846Y-1.3519
X6.9856Y-1.5203
X6.9857Y-4.0826
X6.9859Y-0.991
X7.0058Y-2.417
X7.0068Y-1.4511
X7.0072Y-1.3765
X7.0073Y-3.4073
X7.0075Y-3.4694
X7.0078Y-0.8965
X7.0097Y-1.1776
X7.0099Y-3.1566
X7.0104Y-3.0103
X7.0107Y-2.5903
X7.0109Y-1.2461
X7.0138Y-1.6613
X7.0148Y-3.0798
X7.0157Y-1.557
X7.0163Y-1.0936
X7.0168Y-1.0247
X7.0171Y-1.311
X7.0172Y-4.1047
X7.0178Y-2.343
X7.0187Y-0.9528
X7.0209Y-2.519
X7.0211Y-2.6559
X7.0216Y-2.2617
X7.0221Y-3.7576
X7.0447Y-1.0568
X7.0452Y-2.3841
X7.0459Y-0.6749
X7.0461Y-4.069
X7.0472Y-1.4212
X7.0473Y-1.2059
X7.0476Y-2.306
X7.0482Y-0.9222
X7.0483Y-2.5555
X7.0485Y-3.1154
X7.0486Y-3.7173
X7.0497Y-1.4843
X7.0507Y-3.4374
X7.0531Y-3.0533
X7.0533Y-0.9947
X7.0543Y-2.9697
X7.0554Y-1.1365
X7.056Y-2.6175
X7.0561Y-3.3768
X7.0569Y-0.6051
X7.0569Y-1.3406
X7.0575Y-3.5165
X7.0575Y-1.2826
X7.0578Y0.0016
X7.076Y-1.771
X7.0783Y-2.5966
X7.0792Y-3.7543
X7.0796Y-3.0107
X7.0823Y-3.408
X7.0829Y-3.3293
X7.0837Y-4.1148
X7.0856Y-3.4827
X7.086Y-1.172
X7.0873Y-0.5749
X7.0874Y-1.0338
X7.0879Y-2.6662
X7.0886Y-3.5416
X7.0895Y-1.2453
X7.0897Y-0.6478
X7.0904Y-0.963
X7.0908Y-1.1064
X7.0912Y-3.0769
X7.0928Y-0.8863
X7.0934Y-0.0362
X7.1117Y-4.0781
X7.112Y-4.6831
X7.113Y-1.2021
X7.113Y-1.1422
X7.1132Y-3.6458
X7.1133Y-3.2925
X7.1133Y-0.6802
X7.1134Y-3.4424
X7.1142Y-0.917
X7.1159Y-0.5325
X7.1171Y-3.368
X7.1179Y-2.6865
X7.1184Y-3.9745
X7.1191Y-0.9951
X7.1196Y-0.6062
X7.1204Y-1.8072
X7.121Y-3.7846
X7.1212Y-3.1124
X7.1213Y-3.0544
X7.1229Y-3.7231
X7.1248Y-3.5833
X7.1258Y-3.5136
X7.1265Y-1.0647
X7.1282Y-2.6275
X7.1469Y-4.6041
X7.1471Y-4.3321
X7.1474Y-0.0297
X7.148Y-4.1772
X7.148Y-1.5532
X7.1482Y-4.5376
X7.1485Y-4.1074
X7.1487Y-3.8226
X7.1491Y-2.661
X7.1496Y-1.482
X7.1501Y-0.8879
X7.1508Y-1.6244
X7.1512Y-4.3993
X7.1521Y-2.3011
X7.154Y-0.9547
X7.154Y-1.038
X7.1541Y-4.4633
X7.1545Y-3.0093
X7.1545Y-4.2452
X7.1562Y-2.2415
X7.1564Y-0.5703
X7.1567Y-3.6202
X7.1584Y-1.1039
X7.1587Y-3.4832
X7.1596Y-3.077
X7.1601Y-1.7819
X7.1601Y-3.5376
X7.1609Y-3.3301
X7.1609Y-3.6887
X7.1617Y-0.5012
X7.162Y-2.7292
X7.1624Y-0.6408
X7.1626Y-2.3773
X7.1628Y-3.7572
X7.1631Y-3.4118
X7.1639Y-1.1706
X7.1823Y-4.4352
X7.1824Y-2.0221
X7.1829Y-3.5881
X7.1829Y-3.977
X7.1837Y-4.0842
X7.1845Y-1.5952
X7.1855Y-2.3376
X7.1859Y-4.287
X7.1884Y-4.1422
X7.1887Y-3.3735
X7.189Y-3.7193
X7.1904Y-0.0021
X7.1904Y-1.0614
X7.1904Y-0.6056
X7.191Y-3.056
X7.1917Y-4.4962
X7.1922Y-3.6558
X7.1932Y-4.2186
X7.1934Y-4.3683
X7.1938Y-3.7988
X7.1941Y-4.6456
X7.1941Y-4.5653
X7.1943Y-3.2583
X7.1944Y-1.6627
X7.1954Y-1.1354
X7.1962Y-1.8119
X7.1964Y-3.4403
X7.1966Y-0.9186
X7.1966Y-3.5122
X7.1967Y-2.4155
X7.197Y-0.9897
X7.1977Y-0.679
X7.1979Y-0.5346
X7.199Y-1.5203
X7.1997Y-2.2619
X7.2178Y-4.5398
X7.2184Y-4.1746
X7.2197Y-3.7618
X7.2202Y-2.2332
X7.2209Y-3.5433
X7.2215Y-1.636
X7.222Y-1.0921
X7.2223Y-3.4697
X7.2225Y-4.3293
X7.2225Y-4.6093
X7.2231Y-4.2607
X7.2237Y-3.6847
X7.224Y-0.8892
X7.2246Y-1.7805
X7.2249Y-0.5649
X7.225Y-3.6235
X7.2257Y-0.965
X7.2258Y-0.6439
X7.2265Y-1.4929
X7.2269Y-1.8509
X7.2279Y-4.1144
X7.2288Y-3.3005
X7.2291Y-1.1745
X7.2293Y-0.2192
X7.2295Y-2.3096
X7.2296Y-3.822
X7.2297Y-4.4601
X7.2299Y-1.9824
X7.2316Y-1.9116
X7.2318Y-0.1399
X7.2323Y-3.3984
X7.2324Y-1.0343
X7.2325Y-2.3676
X7.2328Y-3.0208
X7.2329Y-4.3923
X7.2342Y-1.5638
X7.2352Y-4.678
X7.2534Y-1.8749
X7.2543Y-3.2672
X7.2552Y-2.3326
X7.2552Y-0.5996
X7.2565Y-4.3524
X7.2566Y-4.0842
X7.2566Y-3.3283
X7.2568Y-0.6712
X7.2572Y-1.949
X7.2581Y-4.5764
X7.2597Y-2.4027
X7.2599Y-3.4431
X7.2601Y-1.0592
X7.2602Y-1.8106
X7.261Y-1.1283
X7.2624Y-4.4389
X7.2625Y-2.2736
X7.2634Y-0.5388
X7.2636Y-2.5243
X7.2637Y-1.5322
X7.2639Y-0.9171
X7.2659Y-1.6644
X7.2662Y-1.5906
X7.2678Y-3.502
X7.2683Y-4.5098
X7.2684Y-4.6469
X7.2684Y-4.2237
X7.2686Y-4.1442
X7.2691Y-2.0237
X7.27Y-1.0028
X7.2706Y-4.283
X7.2888Y-3.2891
X7.29Y-4.4672
X7.2911Y-1.85
X7.2915Y-0.9504
X7.2918Y-4.673
X7.2921Y-2.0632
X7.2922Y-2.3021
X7.2934Y-1.03
X7.2934Y-4.6038
X7.2936Y-4.1075
X7.294Y-1.5676
X7.2944Y-3.4804
X7.2948Y-0.5774
X7.2964Y-2.1966
X7.2979Y-0.6364
X7.2987Y-1.9927
X7.2991Y-1.7794
X7.2998Y-0.8835
X7.3002Y-1.9163
X7.3003Y-1.1691
X7.3004Y-2.3682
X7.3013Y-4.5432
X7.302Y-1.6286
X7.3022Y-3.3767
X7.303Y-2.5462
X7.3031Y-4.2565
X7.3032Y-4.3885
X7.3034Y-1.0937
X7.3046Y-2.1294
X7.3052Y-4.1799
X7.3056Y-3.123
X7.3056Y-4.3214
X7.3241Y-2.0925
X7.3251Y-1.0725
X7.3252Y-3.0415
X7.3253Y-4.638
X7.3254Y-0.9855
X7.3263Y-2.1562
X7.3268Y-4.5063
X7.3268Y-3.3378
X7.3279Y-1.8166
X7.3282Y-0.6685
X7.3291Y-2.0192
X7.3295Y-4.1515
X7.3298Y-2.5225
X7.3307Y-2.2374
X7.3307Y-1.5312
X7.3311Y-1.8752
X7.3312Y-3.258
X7.3313Y-2.413
X7.3317Y-1.2005
X7.3319Y-1.5919
X7.3322Y-1.6727
X7.3323Y-3.3979
X7.3326Y-1.1282
X7.3328Y-4.5812
X7.3334Y-0.9249
X7.3348Y-0.6026
X7.335Y-4.3612
X7.3354Y-4.2827
X7.3369Y-4.2248
X7.337Y-3.7207
X7.338Y-2.3368
X7.3381Y-3.1546
X7.3382Y-4.433
X7.3383Y-1.9442
X7.3385Y-4.071
X7.3388Y-2.9861
X7.3399Y-0.0657
X7.341Y-0.5026
X7.3605Y-1.2425
X7.3609Y-1.0297
X7.3615Y-0.6346
X7.3618Y-1.9224
X7.362Y-0.2911
X7.3628Y-2.0485
X7.3633Y-1.9836
X7.3633Y-4.611
X7.3633Y-4.2485
X7.3637Y-0.9584
X7.3644Y-0.881
X7.3655Y-4.1827
X7.3661Y-3.8289
X7.3662Y-1.7649
X7.3679Y-3.3677
X7.3683Y-2.2062
X7.3685Y-3.0881
X7.3685Y-0.5287
X7.3685Y-2.2781
X7.3685Y-2.1279
X7.3691Y-4.3238
X7.3709Y-4.3934
X7.3709Y-2.552
X7.3713Y-2.7693
X7.3716Y-1.6343
X7.3718Y-4.467
X7.3724Y-1.1641
X7.3731Y-4.6877
X7.3733Y-4.5345
X7.3734Y-4.1083
X7.3737Y-3.9622
X7.3738Y-3.0171
X7.3746Y-2.3781
X7.375Y-3.2946
X7.3754Y-1.562
X7.3755Y-1.1019
X7.3762Y-3.7654
X7.3763Y-1.8426
X7.3955Y-2.4058
X7.3967Y-0.4985
X7.3972Y-0.918
X7.3974Y-0.673
X7.3975Y-4.2952
X7.3977Y-2.653
X7.3986Y-4.0737
X7.3988Y-3.3265
X7.3989Y-4.2118
X7.399Y-0.5663
X7.3992Y-2.5166
X7.4005Y-4.6401
X7.4012Y-0.0736
X7.4015Y-3.2646
X7.4036Y-4.4306
X7.4039Y-1.6724
X7.4041Y-1.5993
X7.4044Y-2.0254
X7.4045Y-4.3631
X7.405Y-3.1187
X7.4052Y-3.4047
X7.4054Y-3.056
X7.4057Y-3.7162
X7.406Y-4.5765
X7.4062Y-2.7233
X7.4063Y-1.8771
X7.4066Y-2.5864
X7.4071Y-2.1669
X7.4073Y-1.8014
X7.4074Y-1.0644
X7.4091Y-4.4977
X7.4099Y-2.0971
X7.4101Y-2.3094
X7.4101Y-4.1521
X7.4104Y-1.5318
X7.4112Y-2.9831
X7.4114Y-0.9903
X7.4121Y-1.9559
X7.4123Y-2.2398
X7.4302Y-4.6819
X7.4311Y-3.3705
X7.4312Y-1.0354
X7.4313Y-3.7603
X7.433Y-0.895
X7.4332Y-1.8426
X7.4348Y-1.7711
X7.435Y-4.3987
X7.4355Y-2.6958
X7.4362Y-0.966
X7.4363Y-0.6087
X7.4371Y-3.0175
X7.4373Y-2.6152
X7.4383Y-0.4548
X7.4384Y-0.5407
X7.4392Y-2.7631
X7.4402Y-1.6324
X7.4414Y-4.2516
X7.4422Y-4.1751
X7.4423Y-3.1527
X7.4427Y-4.6125
X7.4428Y-1.9796
X7.4428Y-3.3009
X7.4432Y-1.9171
X7.4432Y-0.2562
X7.4441Y-4.3283
X7.4448Y-4.1054
X7.446Y-3.0883
X7.446Y-4.5289
X7.4469Y-2.5539
X7.447Y-4.4734
X7.4656Y-1.0608
X7.4658Y-2.804
X7.4662Y-4.4345
X7.4667Y-0.1361
X7.4675Y-4.2148
X7.4675Y-0.5774
X7.4682Y-0.5066
X7.4683Y-3.3986
X7.469Y-3.2695
X7.4692Y-3.1262
X7.4695Y-2.7258
X7.4697Y-1.8887
X7.4699Y-2.5152
X7.4706Y-4.1521
X7.4712Y-0.915
X7.4712Y-0.0662
X7.4716Y-1.943
X7.4716Y-0.6372
X7.474Y-0.9922
X7.4754Y-4.0775
X7.4777Y-1.6734
X7.4782Y-4.6387
X7.4784Y-3.3319
X7.4787Y-2.8644
X7.4788Y-4.5662
X7.479Y-2.5904
X7.4792Y-1.8016
X7.4792Y-4.5102
X7.4792Y-4.3604
X7.48Y-2.9406
X7.4802Y-0.2223
X7.4806Y-4.2847
X7.4819Y-3.0444
X7.4827Y-2.666
X7.501Y-0.1779
X7.5016Y-1.7716
X7.5019Y-4.676
X7.5019Y-0.5398
X7.5036Y-4.2534
X7.5045Y-3.4375
X7.5059Y-1.845
X7.5065Y-3.9717
X7.507Y-0.6117
X7.5071Y-1.0279
X7.5073Y-4.1905
X7.5075Y-2.9801
X7.5075Y-0.9615
X7.5077Y-0.6794
X7.5078Y-4.3204
X7.5092Y-4.6091
X7.5092Y-2.5444
X7.5094Y-2.8429
X7.5095Y-2.6214
X7.5095Y-3.3605
X7.5095Y-2.6906
X7.5101Y-4.395
X7.5104Y-4.5361
X7.5109Y-0.4691
X7.5114Y-3.1611
X7.5116Y-0.1095
X7.512Y-0.8813
X7.5134Y-3.2944
X7.5139Y-2.902
X7.5142Y-2.7585
X7.5158Y-1.9224
X7.5165Y-4.1131
X7.5167Y-3.0804
X7.5181Y-0.2443
X7.5184Y-3.7946
X7.5184Y-4.4726
X7.5369Y-2.9517
X7.537Y-0.1447
X7.537Y-1.8779
X7.537Y-2.5892
X7.5371Y-3.4058
X7.5375Y-0.638
X7.5389Y-1.0622
X7.539Y-3.0157
X7.5393Y-2.2995
X7.5404Y-0.4222
X7.5404Y-4.4969
X7.5407Y-0.5665
X7.5407Y-3.8215
X7.5411Y-0.2144
X7.5411Y-2.7226
X7.5415Y-0.078
X7.5416Y-2.5142
X7.5418Y-0.2778
X7.5429Y-3.3367
X7.5435Y-2.8637
X7.5437Y-0.9198
X7.5442Y-4.4388
X7.5442Y-3.1171
X7.5444Y-4.5693
X7.5451Y-1.4847
X7.5463Y-0.9855
X7.5473Y-4.2862
X7.5475Y-2.3678
X7.5476Y-0.495
X7.5477Y-4.0732
X7.5484Y-3.258
X7.5497Y-4.3558
X7.5507Y-1.2773
X7.5508Y-0.3549
X7.5511Y-4.2195
X7.5513Y-4.1477
X7.552Y-2.2352
X7.5523Y-1.8116
X7.5523Y-2.8045
X7.5529Y-4.6419
X7.5532Y-2.6514
X7.5533Y-3.4743
X7.5719Y-1.2383
X7.5721Y-1.1044
X7.5723Y-2.9073
X7.5727Y-4.259
X7.5735Y-2.9732
X7.5737Y-4.4021
X7.5746Y-0.6731
X7.5747Y-1.8464
X7.5748Y-0.2564
X7.5758Y-0.1817
X7.5761Y-2.5609
X7.5767Y-4.6803
X7.5771Y-2.4188
X7.5777Y-2.334
X7.5779Y-2.6262
X7.5784Y-3.9761
X7.5786Y-0.9509
X7.5787Y-2.7653
X7.5791Y-0.4556
X7.5798Y-0.107
X7.5804Y-2.8315
X7.5815Y-1.7797
X7.582Y-2.2749
X7.582Y-4.1775
X7.582Y-0.5269
X7.5823Y-0.8837
X7.5825Y-4.1069
X7.5826Y-0.5956
X7.5827Y-1.5216
X7.583Y-0.313
X7.5832Y-3.7955
X7.5842Y-4.4745
X7.5843Y-0.3871
X7.585Y-4.3215
X7.5854Y-3.1489
X7.5854Y-4.5404
X7.5869Y-2.6974
X7.5878Y-1.0302
X7.5878Y-3.305
X7.5878Y-1.915
X7.5894Y-3.0417
X7.5896Y-4.6113
X7.6073Y-1.8035
X7.6074Y-0.2168
X7.6081Y-1.0648
X7.6097Y-2.9414
X7.6105Y-0.2933
X7.6123Y-1.1391
X7.6129Y-0.4257
X7.6141Y-4.15
X7.615Y-0.0776
X7.6152Y-4.6481
X7.6155Y-4.5078
X7.6155Y-0.6469
X7.6159Y-4.2169
X7.6162Y-1.0004
X7.6165Y-0.5776
X7.617Y-1.2725
X7.6171Y-1.4853
X7.6171Y-2.7939
X7.6173Y-4.3523
X7.6176Y-2.8668
X7.6183Y-2.6599
X7.6186Y-0.3511
X7.6186Y-1.8802
X7.6196Y-2.5215
X7.6196Y-2.734
X7.6202Y-3.0064
X7.6204Y-4.2871
X7.6209Y-1.5552
X7.621Y-3.8285
X7.6216Y-2.313
X7.6217Y-0.1463
X7.6221Y-2.2409
X7.6227Y-0.4934
X7.6232Y-2.3778
X7.6235Y-4.4224
X7.6236Y-2.5921
X7.6236Y-4.5737
X7.6244Y-0.9199
X7.6431Y-0.9596
X7.6431Y-1.0207
X7.6433Y-4.5365
X7.6436Y-0.4689
X7.6449Y-0.8898
X7.6451Y-4.6796
X7.6452Y-1.1007
X7.646Y-1.4586
X7.6461Y-4.6168
X7.6469Y-4.4618
X7.6471Y-2.546
X7.6471Y-4.3917
X7.6477Y-0.2415
X7.6481Y-2.7582
X7.6482Y-2.4199
X7.6493Y-1.248
X7.6495Y-2.3476
X7.6499Y-2.6956
X7.65Y-4.1161
X7.6503Y-0.5277
X7.6511Y-4.2626
X7.6527Y-1.6045
X7.6534Y-4.1824
X7.6537Y-1.8404
X7.6539Y-2.6269
X7.6544Y-0.6112
X7.6548Y-0.1765
X7.6554Y-2.2636
X7.6556Y-3.2968
X7.6567Y-0.3221
X7.6577Y-4.3204
X7.6583Y-1.9219
X7.6586Y-0.6685
X7.6594Y-1.5225
X7.6598Y-0.1157
X7.6599Y-0.3875
X7.6783Y-1.64
X7.6785Y-2.375
X7.6787Y-0.1421
X7.679Y-4.1409
X7.6795Y-0.4237
X7.6807Y-1.3506
X7.6814Y-2.7299
X7.6828Y-2.6535
X7.684Y-0.9978
X7.6841Y-1.4879
X7.6847Y-1.9485
X7.685Y-1.8734
X7.685Y-0.2797
X7.6854Y-2.3114
X7.6862Y-0.3528
X7.6886Y-1.5591
X7.6889Y-2.5825
X7.6891Y-1.2815
X7.691Y-1.4254
X7.6918Y-4.6463
X7.6922Y-4.216
X7.6923Y-0.0641
X7.6925Y-0.9215
X7.6929Y-4.4249
X7.6936Y-4.3585
X7.6939Y-0.2207
X7.6943Y-0.5024
X7.6943Y-4.5771
X7.6955Y-4.5045
X7.6955Y-1.0561
X7.6956Y-4.2976
X7.6958Y-2.5126
X7.7138Y-1.9225
X7.7139Y-2.2717
X7.7141Y-4.0834
X7.7143Y-4.3205
X7.7149Y-1.2412
X7.7152Y-3.1113
X7.7169Y-1.3885
X7.7183Y-4.6732
X7.7184Y-0.258
X7.7209Y-1.9908
X7.7214Y-0.8887
X7.7225Y-1.6715
X7.7225Y-2.5612
X7.7225Y-1.4463
X7.7227Y-1.3099
X7.7228Y-1.022
X7.7228Y-4.1916
X7.7231Y-2.6246
X7.7232Y-4.3957
X7.7234Y-4.4652
X7.7242Y-1.5954
X7.7248Y-4.5337
X7.7266Y-1.519
X7.7268Y-3.0458
X7.7268Y-2.4069
X7.7269Y-4.2562
X7.728Y-2.3387
X7.7286Y-3.726
X7.7288Y-0.1059
X7.7297Y-4.6164
X7.7304Y-0.1769
X7.7306Y-3.8008
X7.7307Y-2.9818
X7.731Y-0.9637
X7.7495Y-1.5589
X7.7499Y-2.5826
X7.7505Y-3.0117
X7.7515Y-2.3793
X7.7518Y-4.2273
X7.753Y-3.7541
X7.7536Y-1.285
X7.7537Y-4.1067
X7.7539Y-3.5086
X7.7549Y-1.4977
X7.7559Y-4.6352
X7.7561Y-2.6513
X7.7578Y-2.3072
X7.7581Y-3.1469
X7.7591Y-1.001
X7.7594Y-1.2039
X7.7595Y-3.9636
X7.7607Y-1.4212
X7.7613Y-3.0763
X7.7613Y-4.2807
X7.7618Y-0.1465
X7.7618Y-4.3549
X7.7625Y-3.8232
X7.7626Y-0.9213
X7.7627Y-4.4238
X7.7631Y-0.0724
X7.7632Y-2.511
X7.7645Y-4.4956
X7.7647Y-1.3537
X7.7662Y-1.6404
X7.7665Y-4.5646
X7.7849Y-2.9824
X7.7855Y-2.6157
X7.7859Y-3.4465
X7.786Y-0.8231
X7.7861Y-4.0737
X7.7868Y-3.1273
X7.7871Y-1.4626
X7.7876Y-4.6788
X7.7884Y-4.2502
X7.7886Y-2.5447
X7.7887Y-4.1502
X7.789Y-4.5312
X7.7895Y-2.2715
X7.7896Y-4.7477
X7.7898Y-4.6011
X7.7915Y-2.3373
X7.7923Y-0.671
X7.7923Y-0.1011
X7.7926Y-1.176
X7.7927Y-3.3689
X7.7933Y-0.4662
X7.7942Y-3.0456
X7.7949Y-1.6721
X7.7952Y-1.2453
X7.7964Y-0.525
X7.7965Y-3.7282
X7.7966Y-4.3178
X7.7966Y-0.6076
X7.7974Y-1.3079
X7.7983Y-4.3968
X7.7984Y-1.3842
X7.7994Y-1.5178
X7.8009Y-0.8827
X7.8012Y-4.4705
X7.8013Y-1.5893
X7.8021Y-0.9651
X7.8201Y-0.4968
X7.8207Y-3.0768
X7.821Y-3.3329
X7.8211Y-4.6419
X7.8213Y-4.3592
X7.8222Y-3.4714
X7.8232Y-3.3988
X7.8233Y-4.2843
X7.8236Y-4.5778
X7.8243Y-4.1186
X7.8245Y-4.4241
X7.8251Y-0.6391
X7.8254Y-0.7878
X7.826Y-1.2826
X7.83Y-3.0101
X7.8307Y-1.2108
X7.8316Y-2.5883
X7.8318Y-4.1763
X7.8319Y-1.768
X7.8324Y-0.9146
X7.8333Y-0.5666
X7.8336Y-2.6601
X7.8343Y-1.1365
X7.8343Y-4.4983
X7.8356Y-3.7507
X7.8356Y-0.8581
X7.836Y-0.1479
X7.8369Y-0.0689
X7.8372Y-4.7205
X7.8554Y-0.1147
X7.8556Y-4.5355
X7.8566Y-4.601
X7.8576Y-1.8154
X7.8576Y-3.6505
X7.8579Y-3.5858
X7.8581Y-4.6794
X7.8589Y-4.749
X7.8596Y-3.7236
X7.8604Y-4.3921
X7.8607Y-3.3634
X7.8608Y-0.5368
X7.8608Y-0.8951
X7.8611Y-0.6711
X7.8616Y-4.0774
X7.8618Y-0.4542
X7.8629Y-3.2973
X7.8656Y-3.1262
X7.8657Y-4.1388
X7.8659Y-1.1752
X7.8661Y-0.5984
X7.8673Y-3.4422
X7.8678Y-2.6301
X7.8679Y-0.8244
X7.8683Y-1.2507
X7.871Y-4.3207
X7.872Y-4.217
X7.8722Y-3.5122
X7.8725Y-1.0972
X7.8728Y-4.4752
X7.873Y-3.0559
X7.8909Y-0.8502
X7.8914Y-4.7116
X7.8915Y-2.3022
X7.8924Y-1.7773
X7.8928Y-3.0901
X7.8931Y-4.6407
X7.8942Y-0.4982
X7.895Y-0.0781
X7.8954Y-4.354
X7.8968Y-2.7361
X7.8978Y-1.4832
X7.8978Y-3.695
X7.8986Y-4.428
X7.8987Y-4.5737
X7.8996Y-4.1208
X7.8997Y-2.3703
X7.9005Y-3.3949
X7.9007Y-0.1437
X7.9013Y-3.6242
X7.9019Y-3.5462
X7.9023Y-3.4662
X7.9023Y-3.0156
X7.9034Y-2.239
X7.9035Y-2.6627
X7.9039Y-4.5017
X7.9047Y-0.6312
X7.905Y-4.1745
X7.9054Y-0.7799
X7.9058Y-3.3405
X7.906Y-4.2623
X7.9064Y-1.0594
X7.907Y-1.1408
X7.9073Y-0.5692
X7.9074Y-3.7535
X7.9266Y-0.5982
X7.9267Y-3.5165
X7.9271Y-4.0704
X7.9285Y-1.5169
X7.9286Y-3.582
X7.9295Y-4.2916
X7.9298Y-4.2165
X7.9299Y-0.6802
X7.9301Y-4.5397
X7.9304Y-4.6018
X7.9308Y-0.5399
X7.931Y-3.7142
X7.9316Y-1.6636
X7.9323Y-0.1091
X7.9326Y-4.7503
X7.9331Y-4.6868
X7.9332Y-1.095
X7.9337Y-3.6587
X7.9339Y-1.1757
X7.9345Y-4.1542
X7.9346Y-2.3361
X7.9354Y-2.0216
X7.9357Y-4.4021
X7.9357Y-3.798
X7.9362Y-1.0307
X7.9363Y-1.5911
X7.9367Y-1.8037
X7.9369Y-3.4433
X7.937Y-0.8135
X7.937Y-4.4617
X7.9379Y-3.3744
X7.9394Y-2.273
X7.9396Y-2.7002
X7.9421Y-3.0454
X7.9426Y-2.4091
X7.9433Y-3.9659
X7.9435Y-3.2699
X7.9617Y-4.1847
X7.9618Y-1.7688
X7.9619Y-0.6364
X7.962Y-1.1303
X7.9622Y-4.4263
X7.9626Y-3.4786
X7.9632Y-3.2986
X7.9634Y-4.3221
X7.9636Y-4.7113
X7.9645Y-2.3798
X7.9652Y-1.9836
X7.9656Y-3.5438
X7.9673Y-2.2256
X7.9674Y-0.7889
X7.9679Y-1.9121
X7.9692Y-1.0606
X7.9697Y-1.4956
X7.9699Y-4.5003
X7.9705Y-3.686
X7.9707Y-3.8231
X7.9713Y-0.1349
X7.9714Y-0.0715
X7.9722Y-0.9875
X7.9725Y-4.2577
X7.9726Y-1.5586
X7.973Y-1.8388
X7.9739Y-1.634
X7.9744Y-3.0072
X7.9745Y-3.402
X7.975Y-2.304
X7.9751Y-4.1053
X7.9754Y-3.7658
X7.976Y-4.6493
X7.9762Y-4.5815
X7.9767Y-0.5633
X7.9778Y-3.6201
X7.9972Y-3.3259
X7.9974Y-4.218
X7.9977Y-0.5972
X7.9979Y-2.2661
X7.9983Y-1.6658
X7.9984Y-0.963
X7.9986Y-4.2902
X8.0013Y-1.8856
X8.0021Y-3.4384
X8.0027Y-0.5267
X8.0031Y-2.3343
X8.0036Y-1.0223
X8.0037Y-1.8108
X8.004Y-1.5902
X8.0069Y-4.6015
X8.007Y-1.9561
X8.007Y-3.5087
X8.0072Y-4.7427
X8.0072Y-1.5285
X8.0074Y-1.1753
X8.0079Y-4.3625
X8.0079Y-2.4161
X8.008Y-1.0936
X8.0084Y-2.516
X8.0086Y-2.0196
X8.0102Y-0.6758
X8.0105Y-3.261
X8.0111Y-0.1104
X8.0112Y-4.4728
X8.0114Y-4.5355
X8.0116Y-4.6749
X8.0122Y-4.1498
X8.0326Y-3.2891
X8.0327Y-2.3083
X8.0333Y-2.1975
X8.0357Y-4.39
X8.0357Y-1.5617
X8.0363Y-1.7754
X8.0377Y-4.2469
X8.0377Y-1.8429
X8.0392Y-4.1831
X8.0393Y-2.1262
X8.0395Y-1.6378
X8.0399Y-1.9105
X8.0406Y-1.1314
X8.0408Y-0.9206
X8.0412Y-0.0747
X8.0426Y-2.3742
X8.0427Y-4.4998
X8.0443Y-1.0009
X8.0462Y-1.0628
X8.0467Y-4.3336
X8.047Y-3.1116
X8.0474Y-2.5513
X8.0488Y-3.4798
X8.0488Y-2.0631
X8.049Y-0.6466
X8.0492Y-1.9846
X8.0497Y-0.564
X8.0499Y-3.369
X8.0689Y-3.0452
X8.069Y-2.1553
X8.0702Y-4.2867
X8.0707Y-1.1041
X8.0709Y-2.3429
X8.0714Y-1.5998
X8.0715Y-3.731
X8.0718Y-0.5315
X8.0724Y-3.3247
X8.0732Y-1.5314
X8.074Y-1.8794
X8.0743Y-2.2406
X8.0758Y-3.1522
X8.0759Y-4.4295
X8.0761Y-1.1773
X8.0762Y-2.1004
X8.077Y-2.9822
X8.0772Y-1.9555
X8.078Y-2.0232
X8.078Y-3.4013
X8.0781Y-4.3667
X8.0792Y-0.8877
X8.0799Y-2.4093
X8.0807Y-1.6744
X8.0809Y-4.2206
X8.0809Y-0.6055
X8.0816Y-1.8159
X8.0817Y-0.953
X8.0824Y-1.0209
X8.0829Y-0.674
X8.0831Y-2.5136
X8.0847Y-3.2661
X8.1052Y-2.7728
X8.1068Y-1.1415
X8.1069Y-1.5565
X8.1069Y-2.2015
X8.107Y-4.3267
X8.1078Y-1.8487
X8.1079Y-2.5453
X8.1082Y-1.9792
X8.1086Y-1.9124
X8.1094Y-0.5731
X8.1096Y-1.0658
X8.1111Y-0.6329
X8.1114Y-4.2519
X8.1119Y-0.9969
X8.1119Y-2.1316
X8.1131Y-0.8557
X8.1137Y-3.8286
X8.1139Y-0.0787
X8.1143Y-3.7626
X8.1148Y-1.2069
X8.115Y-3.0156
X8.1153Y-2.3813
X8.1154Y-3.0894
X8.1161Y-3.3629
X8.1168Y-2.0547
X8.1188Y-2.2772
X8.1193Y-1.6351
X8.1194Y-4.3997
X8.1196Y-1.7733
X8.1201Y-3.305
X8.1208Y-4.4736
X8.1209Y-0.9233
X8.1394Y-4.4996
X8.1395Y-2.6539
X8.1396Y-3.3392
X8.1401Y-2.7342
X8.1424Y-0.9525
X8.1428Y-1.676
X8.1441Y-1.5274
X8.1443Y-2.515
X8.1447Y-1.8019
X8.1449Y-1.8711
X8.145Y-0.8254
X8.1453Y-0.5995
X8.1456Y-2.3128
X8.1457Y-3.8004
X8.1468Y-3.2704
X8.1469Y-2.4175
X8.1469Y-3.1227
X8.1472Y-4.3571
X8.1479Y-3.0471
X8.1484Y-3.4058
X8.1487Y-2.5908
X8.149Y-2.1641
X8.1497Y-2.0902
X8.1497Y-4.4282
X8.1518Y-1.5898
X8.1525Y-0.8874
X8.1529Y-1.9507
X8.154Y-2.2325
X8.1546Y-2.9813
X8.1547Y-3.7291
X8.155Y-2.0258
X8.1554Y-0.5312
X8.1557Y-4.2139
X8.1558Y-4.2876
X8.1564Y-1.0227
X8.1743Y-1.9084
X8.1753Y-4.2578
X8.1753Y-0.9928
X8.1769Y-0.8439
X8.1775Y-4.3166
X8.1776Y-0.9304
X8.1777Y-3.3735
X8.1781Y-4.4721
X8.1783Y-0.5722
X8.1783Y-4.3892
X8.1786Y-0.0687
X8.1796Y-3.0838
X8.1801Y-2.7005
X8.1806Y-2.1248
X8.1807Y-3.7533
X8.181Y-1.993
X8.182Y-2.197
X8.1821Y-3.1601
X8.1824Y-0.7878
X8.1832Y-3.0079
X8.1834Y-1.5699
X8.1852Y-1.6357
X8.1856Y-2.6322
X8.1859Y-3.2916
X8.1871Y-2.5471
X8.1875Y-2.7666
X8.1899Y-1.7663
X8.1901Y-1.0692
X8.1906Y-2.2655
X8.1908Y-2.0565
X8.1914Y-1.8373
X8.2108Y-3.4004
X8.211Y-2.7377
X8.211Y-4.5074
X8.2117Y-1.0321
X8.2123Y-3.3366
X8.2149Y-2.6533
X8.2164Y-0.4911
X8.217Y-4.1774
X8.22Y-4.752
X8.22Y-2.8059
X8.2202Y-1.8773
X8.2205Y-1.8129
X8.2209Y-2.9518
X8.221Y-3.123
X8.2214Y-1.9506
X8.2218Y-0.8243
X8.2219Y-2.5105
X8.2223Y-2.5911
X8.2226Y-4.3644
X8.2226Y-0.8943
X8.2239Y-3.2601
X8.2243Y-4.439
X8.2245Y-3.0441
X8.2246Y-0.9595
X8.2263Y-1.6614
X8.2269Y-4.2873
X8.2455Y-3.4315
X8.2456Y-4.6714
X8.246Y-4.6055
X8.2463Y-3.0821
X8.2467Y-0.8527
X8.2468Y-2.8378
X8.2479Y-0.0666
X8.2482Y-4.2177
X8.2489Y-1.772
X8.2499Y-1.8377
X8.2499Y-4.3869
X8.2514Y-4.4679
X8.2517Y-0.9924
X8.2519Y-0.9217
X8.2533Y-2.9016
X8.2536Y-2.7658
X8.2537Y-4.5327
X8.2539Y-4.3326
X8.2544Y-4.1564
X8.2548Y-3.1589
X8.256Y-2.6158
X8.2562Y-1.073
X8.2562Y-1.9167
X8.2564Y-3.3613
X8.2566Y-2.7003
X8.2566Y-3.7619
X8.2572Y-2.9753
X8.2579Y-3.3009
X8.2608Y-2.5579
X8.2625Y-0.7898
X8.2807Y-0.9566
X8.2816Y-2.2319
X8.2818Y-3.9647
X8.2825Y-3.3398
X8.2825Y-1.281
X8.2826Y-2.7325
X8.2832Y-0.8236
X8.2838Y-2.3128
X8.285Y-3.269
X8.285Y-3.4801
X8.2873Y-4.5743
X8.2874Y-2.376
X8.2877Y-2.58
X8.2879Y-4.249
X8.2879Y-1.4914
X8.2887Y-4.1876
X8.2927Y-2.8796
X8.2933Y-3.0158
X8.2934Y-4.6442
X8.2935Y-1.815
X8.2937Y-3.7976
X8.2939Y-4.716
X8.2941Y-2.8042
X8.2942Y-2.5126
X8.2942Y-2.941
X8.2949Y-1.8874
X8.295Y-1.0242
X8.2963Y-4.3622
X8.2963Y-2.6659
X8.2964Y-4.433
X8.2965Y-3.4039
X8.2976Y-4.1073
X8.2976Y-0.8863
X8.2979Y-3.122
X8.2982Y-4.5026
X8.3162Y-1.8444
X8.3162Y-3.8252
X8.3164Y-0.4635
X8.3177Y-2.5531
X8.3178Y-1.2481
X8.318Y-0.9862
X8.3181Y-3.1597
X8.3188Y-1.9184
X8.32Y-0.5976
X8.3201Y-2.4081
X8.3203Y-2.9057
X8.3203Y-2.8402
X8.3208Y-0.5385
X8.322Y-3.0498
X8.3233Y-2.6209
X8.3234Y-0.0726
X8.3236Y-4.1546
X8.3237Y-0.9264
X8.3247Y-0.2497
X8.3247Y-0.7856
X8.3255Y-0.6743
X8.3262Y-1.5205
X8.3264Y-4.5427
X8.3265Y-2.3359
X8.3269Y-4.6004
X8.327Y-1.1731
X8.327Y-2.7592
X8.3274Y-4.2912
X8.3275Y-3.3041
X8.328Y-4.7539
X8.3285Y-4.3963
X8.3286Y-0.8588
X8.329Y-0.1743
X8.3294Y-2.9701
X8.3306Y-2.2674
X8.3309Y-4.6716
X8.3317Y-2.7011
X8.3319Y-4.0712
X8.3329Y-4.4645
X8.3331Y-4.2203
X8.3335Y-1.7716
X8.3515Y-1.1324
X8.3518Y-3.0086
X8.3526Y-4.4272
X8.3532Y-1.2093
X8.3534Y-2.8719
X8.354Y-4.1046
X8.3545Y-2.9368
X8.3557Y-4.5712
X8.3558Y-1.8143
X8.356Y-0.5036
X8.356Y-0.2212
X8.3569Y-4.5042
X8.3572Y-4.3274
X8.358Y-1.5537
X8.3593Y-0.8799
X8.3609Y-3.9661
X8.3621Y-0.5681
X8.3624Y-2.2376
X8.3626Y-2.3745
X8.3636Y-2.5251
X8.3638Y-0.6417
X8.3638Y-0.8155
X8.364Y-3.7981
X8.3642Y-0.1108
X8.3644Y-4.6401
X8.3652Y-2.6569
X8.3653Y-0.9659
X8.3653Y-1.8754
X8.3655Y-4.7076
X8.3661Y-2.5947
X8.3663Y-2.2987
X8.3671Y-4.1847
X8.3675Y-1.2843
X8.3678Y-2.8062
X8.3678Y-4.2551
X8.3682Y-2.7282
X8.3686Y-1.4903
X8.387Y-4.6725
X8.3875Y-1.4498
X8.3882Y-1.8513
X8.3884Y-4.3624
X8.3887Y-1.2443
X8.3894Y-0.5306
X8.3895Y-4.2819
X8.3899Y-2.3465
X8.3906Y-1.5948
X8.3908Y-0.5981
X8.3911Y-2.549
X8.3912Y-4.2245
X8.3915Y-1.9151
X8.3917Y-1.1737
X8.3925Y-0.6755
X8.3928Y-0.1407
X8.393Y-4.4664
X8.3936Y-2.6928
X8.3948Y-4.0843
X8.397Y-0.0763
X8.3971Y-2.7717
X8.3976Y-2.2718
X8.3976Y-0.9224
X8.3981Y-1.5338
X8.3985Y-2.6193
X8.3987Y-0.7768
X8.3989Y-1.0996
X8.3992Y-4.6162
X8.3995Y-4.7429
X8.3996Y-0.2558
X8.4013Y-0.845
X8.4016Y-4.529
X8.4019Y-2.4054
X8.4024Y-3.2937
X8.4032Y-3.8362
X8.4036Y-0.4554
X8.4038Y-4.156
X8.4043Y-3.7633
X8.4223Y-4.5092
X8.4232Y-0.1706
X8.4232Y-2.3056
X8.4239Y-0.5692
X8.424Y-0.1004
X8.4242Y-4.1092
X8.4247Y-0.6464
X8.4251Y-1.6397
X8.4252Y-2.5225
X8.4261Y-1.4881
X8.4261Y-0.3547
X8.4268Y-3.972
X8.4276Y-1.2836
X8.4283Y-1.1387
X8.4283Y-1.352
X8.4287Y-2.7232
X8.4295Y-1.4279
X8.4295Y-0.2844
X8.4298Y-2.5834
X8.4312Y-4.3193
X8.4317Y-4.3883
X8.4319Y-2.3776
X8.4319Y-0.4193
X8.4331Y-3.7175
X8.4338Y-4.2571
X8.434Y-4.5713
X8.4345Y-1.0666
X8.4352Y-4.1886
X8.4359Y-1.2094
X8.4364Y-1.5613
X8.4368Y-4.7099
X8.437Y-0.8175
X8.4372Y-2.6623
X8.4376Y-0.8832
X8.4377Y-1.8836
X8.4378Y-3.785
X8.4394Y-4.6519
X8.4399Y-0.491
X8.458Y-0.1478
X8.4585Y-1.4475
X8.4586Y-3.8257
X8.4588Y-1.3799
X8.46Y-3.2904
X8.4605Y-4.2204
X8.461Y-0.8509
X8.4611Y-0.3219
X8.4612Y-1.3107
X8.4613Y-4.6013
X8.4614Y-4.1562
X8.4619Y-0.2142
X8.4622Y-4.3612
X8.4623Y-1.2389
X8.4634Y-0.7841
X8.4642Y-0.0723
X8.4644Y-4.2941
X8.4646Y-2.3377
X8.4648Y-0.4704
X8.4655Y-1.5258
X8.4656Y-4.6746
X8.4661Y-4.7457
X8.4663Y-1.6589
X8.4665Y-3.7618
X8.4666Y-0.6029
X8.4668Y-2.4182
X8.4668Y-1.1714
X8.4673Y-4.4396
X8.4681Y-1.5913
X8.4681Y-4.0723
X8.4684Y-2.6224
X8.4685Y-3.1525
X8.4688Y-2.2723
X8.4688Y-1.9919
X8.4693Y-1.0278
X8.47Y-1.0995
X8.4707Y-1.9089
X8.4719Y-0.5302
X8.4719Y-0.3866
X8.4727Y-2.5536
X8.4735Y-0.6667
X8.4746Y-4.5336
X8.4752Y-2.981
X8.4938Y-3.8
X8.494Y-1.351
X8.4944Y-4.4651
X8.4945Y-4.7141
X8.4948Y-1.1424
X8.4948Y-0.1869
X8.4973Y-0.4896
X8.4976Y-0.567
X8.4977Y-4.5681
X8.4984Y-2.5251
X8.4984Y-3.0064
X8.4995Y-4.25
X8.4995Y-3.7239
X8.4995Y-1.5632
X8.4996Y-4.1063
X8.4996Y-1.6335
X8.5002Y-1.2722
X8.5015Y-0.4342
X8.5016Y-0.3568
X8.5028Y-1.2019
X8.5029Y-1.071
X8.5038Y-1.4222
X8.5039Y-0.1068
X8.5044Y-2.2986
X8.5044Y-0.819
X8.5049Y-4.3167
X8.5051Y-3.9698
X8.5057Y-4.6427
X8.506Y-2.6651
X8.5067Y-4.4014
X8.5072Y-0.9955
X8.5078Y-0.2504
X8.5079Y-2.5822
X8.5086Y-2.3684
X8.5086Y-3.0881
X8.5088Y-0.6398
X8.5092Y-1.489
X8.5095Y-4.1812
X8.529Y-2.277
X8.5293Y-0.2811
X8.5303Y-0.6737
X8.5312Y-4.6021
X8.5315Y-3.0486
X8.5315Y-2.3419
X8.5319Y-2.9831
X8.532Y-3.1268
X8.5327Y-1.5206
X8.5332Y-0.0712
X8.5337Y-4.2233
X8.5339Y-4.4308
X8.5341Y-0.7869
X8.5341Y-2.6283
X8.5349Y-4.3542
X8.5349Y-2.4158
X8.5357Y-0.4675
X8.5361Y-3.478
X8.5365Y-2.549
X8.5365Y-1.6641
X8.5371Y-1.0216
X8.5375Y-1.591
X8.5377Y-3.4107
X8.5378Y-4.5034
X8.5387Y-4.2934
X8.5391Y-4.0818
X8.5391Y-1.4592
X8.5391Y-0.3839
X8.5392Y-1.3172
X8.5401Y-3.7578
X8.541Y-4.6705
X8.5411Y-0.966
X8.5415Y-0.2174
X8.5419Y-1.1724
X8.5424Y-0.1441
X8.5434Y-1.238
X8.5446Y-0.5261
X8.5447Y-1.1009
X8.545Y-4.1548
X8.5452Y-0.6086
X8.5452Y-1.3806
X8.5459Y-4.7433
X8.564Y-4.723
X8.5654Y-3.1493
X8.5658Y-0.1826
X8.5664Y-1.7664
X8.5673Y-0.4338
X8.5673Y-4.6385
X8.5678Y-3.5044
X8.5683Y-3.4459
X8.5697Y-1.2049
X8.5698Y-0.9302
X8.5701Y-1.1282
X8.5707Y-0.1029
X8.5714Y-0.5741
X8.5719Y-4.3993
X8.5723Y-4.5425
X8.5731Y-2.5869
X8.5733Y-4.3241
X8.5746Y-0.3259
X8.5749Y-0.2458
X8.5751Y-3.3691
X8.5758Y-2.6543
X8.576Y-0.6428
X8.576Y-0.4946
X8.576Y-3.0799
X8.577Y-1.2775
X8.5779Y-1.0683
X8.5788Y-3.7162
X8.5793Y-4.1205
X8.5794Y-4.4618
X8.5798Y-3.0121
X8.58Y-1.0
X8.5803Y-4.2457
X8.5812Y-4.1891
X8.5995Y-4.5724
X8.6006Y-3.0502
X8.6006Y-0.5978
X8.6006Y-0.1453
X8.6009Y-1.1007
X8.601Y-1.2408
X8.6011Y-0.2097
X8.6018Y-4.6866
X8.6019Y-1.8135
X8.6025Y-0.9535
X8.6033Y-4.2153
X8.6042Y-3.4099
X8.6045Y-0.8914
X8.6046Y-4.1443
X8.605Y-3.3313
X8.6082Y-4.4967
X8.6091Y-3.481
X8.6091Y-1.0329
X8.6093Y-0.467
X8.6102Y-4.0763
X8.6105Y-3.1114
X8.6106Y-0.5275
X8.6118Y-3.7546
X8.6123Y-2.6272
X8.6124Y-4.2859
X8.613Y-4.355
X8.6134Y-0.6818
X8.6141Y-4.4398
X8.6143Y-0.2781
X8.6144Y-0.0778
X8.6155Y-3.5402
X8.6158Y-1.1794
X8.6348Y-2.6506
X8.6353Y-4.3238
X8.6363Y-0.5029
X8.637Y-1.0577
X8.6387Y-1.498
X8.6389Y-3.4433
X8.6392Y-1.143
X8.6397Y-0.9916
X8.6402Y-4.6059
X8.6402Y-4.1203
X8.6407Y-3.0087
X8.6418Y-3.2947
X8.6422Y-4.1874
X8.6429Y-3.5071
X8.6429Y-2.3071
X8.6439Y-0.1878
X8.644Y-2.3809
X8.6456Y-0.6434
X8.6457Y-4.4636
X8.646Y-4.3979
X8.6465Y-4.5341
X8.6468Y-3.577
X8.6476Y-4.2486
X8.6476Y-1.7781
X8.6488Y-0.57
X8.649Y-0.844
X8.6498Y-0.9186
X8.6501Y-2.7331
X8.6502Y-3.0824
X8.651Y-0.1015
X8.6514Y-2.2421
X8.6517Y-3.3651
X8.6704Y-2.6954
X8.6709Y-3.9682
X8.6713Y-3.3413
X8.6724Y-3.614
X8.673Y-0.5383
X8.6732Y-0.9501
X8.6735Y-1.0365
X8.6738Y-3.0412
X8.6738Y-4.1515
X8.6744Y-3.5369
X8.6745Y-4.2246
X8.6748Y-0.8236
X8.675Y-4.6497
X8.6755Y-2.2625
X8.6757Y-1.5186
X8.6761Y-4.5746
X8.6769Y-1.6689
X8.6773Y-4.4341
X8.6774Y-0.1471
X8.6779Y-3.4725
X8.678Y-1.5913
X8.6781Y-1.8169
X8.6796Y-4.3527
X8.6798Y-4.2862
X8.6803Y-4.0789
X8.6808Y-2.3383
X8.6809Y-3.4075
X8.6823Y-2.4187
X8.6828Y-2.022
X8.683Y-1.1777
X8.6836Y-0.8922
X8.684Y-0.0719
X8.6858Y-3.7927
X8.6866Y-1.0931
X8.687Y-0.4601
X8.687Y-0.5977
X8.6877Y-4.5015
X8.707Y-4.7814
X8.7078Y-1.1355
X8.7093Y-1.8376
X8.7101Y-0.7851
X8.7102Y-1.5604
X8.7102Y-3.3755
X8.7106Y-4.1082
X8.7107Y-1.78
X8.711Y-0.8533
X8.7115Y-2.2281
X8.7117Y-1.9854
X8.7129Y-0.9995
X8.7132Y-4.1846
X8.7144Y-0.1056
X8.7145Y-1.0693
X8.7147Y-2.298
X8.7148Y-1.9066
X8.7152Y-4.2538
X8.7171Y-3.6592
X8.7171Y-3.0073
X8.7173Y-1.6397
X8.7177Y-0.9157
X8.7193Y-4.3235
X8.72Y-2.3794
X8.7207Y-3.2698
X8.7209Y-3.5817
X8.7211Y-3.4472
X8.7213Y-1.4928
X8.7224Y-3.5142
X8.7418Y-0.0749
X8.7419Y-4.1448
X8.742Y-0.1405
X8.7421Y-1.9476
X8.7422Y-3.2961
X8.7426Y-1.5287
X8.7429Y-4.0741
X8.7443Y-1.4514
X8.7447Y-3.5501
X8.7451Y-0.9543
X8.7451Y-2.0141
X8.7462Y-1.1781
X8.7469Y-1.8172
X8.7471Y-1.0247
X8.7473Y-2.5114
X8.7473Y-3.4664
X8.7491Y-1.6715
X8.7498Y-3.3968
X8.75Y-3.6239
X8.7512Y-1.8829
X8.7516Y-0.8117
X8.752Y-2.2693
X8.7531Y-1.096
X8.7539Y-2.3328
X8.7547Y-4.2939
X8.7554Y-2.4187
X8.757Y-1.6017
X8.7573Y-0.8961
X8.7582Y-4.2255
X8.7783Y-4.2604
X8.7786Y-2.2049
X8.7787Y-2.1335
X8.7789Y-0.9871
X8.7789Y-0.7786
X8.7789Y-0.1067
X8.7791Y-0.9281
X8.7792Y-1.5609
X8.7792Y-4.1104
X8.7798Y-1.1315
X8.78Y-4.7834
X8.7808Y-2.3008
X8.7826Y-0.8443
X8.7833Y-1.9223
X8.784Y-1.9947
X8.7843Y-2.0613
X8.7849Y-1.0663
X8.785Y-1.8406
X8.7853Y-1.7712
X8.7871Y-3.2656
X8.7893Y-2.557
X8.7894Y-1.6332
X8.7901Y-4.6407
X8.7904Y-0.5007
X8.7908Y-2.3706
X8.7926Y-4.4678
X8.7934Y-3.5105
X8.7935Y-3.3294
X8.794Y-4.1852
X8.794Y-3.4451
X8.8121Y-1.1753
X8.8128Y-4.5001
X8.8138Y-2.0191
X8.8142Y-1.9584
X8.8145Y-1.0374
X8.8146Y-1.8832
X8.8154Y-1.5888
X8.8154Y-2.0946
X8.8162Y-2.169
X8.8163Y-1.8118
X8.8175Y-4.1507
X8.818Y-1.0949
X8.8185Y-0.9502
X8.8197Y-2.3353
X8.82Y-3.3735
X8.8212Y-0.0772
X8.8216Y-2.4159
X8.8216Y-3.3047
X8.8226Y-3.1118
X8.8235Y-2.5119
X8.8245Y-4.5641
X8.826Y-0.8247
X8.8264Y-1.6654
X8.8265Y-4.0734
X8.827Y-2.2306
X8.8276Y-0.5275
X8.8277Y-0.8865
X8.8295Y-1.5283
X8.8475Y-1.8362
X8.8484Y-2.557
X8.8488Y-1.7651
X8.8489Y-2.7686
X8.85Y-3.0541
X8.8503Y-2.1923
X8.8509Y-3.1591
X8.8511Y-4.1077
X8.8515Y-2.2735
X8.852Y-4.7872
X8.8521Y-1.5673
X8.8521Y-1.0588
X8.8521Y-1.2006
X8.8553Y-0.8584
X8.8553Y-3.3316
X8.8556Y-3.4068
X8.8557Y-4.4666
X8.8574Y-0.9943
X8.8587Y-4.5354
X8.8593Y-1.9156
X8.8609Y-3.2604
X8.8616Y-1.9826
X8.8618Y-0.7766
X8.8618Y-2.0642
X8.8623Y-1.6343
X8.8626Y-4.6163
X8.8633Y-0.9216
X8.8635Y-2.1364
X8.8637Y-2.9727
X8.8645Y-2.3747
X8.8649Y-3.7141
X8.865Y-1.1277
X8.8829Y-2.4197
X8.8837Y-1.6633
X8.8849Y-3.3033
X8.885Y-2.6623
X8.8853Y-0.9609
X8.8854Y-4.1558
X8.8858Y-1.8018
X8.8859Y-2.7276
X8.8861Y-0.8853
X8.8866Y-2.0916
X8.8871Y-3.0225
X8.8878Y-1.9489
X8.891Y-3.7645
X8.891Y-0.8148
X8.8915Y-2.2987
X8.8932Y-1.5934
X8.8933Y-2.1695
X8.8941Y-0.6476
X8.8946Y-4.4932
X8.8946Y-3.8337
X8.8948Y-1.8803
X8.895Y-1.5223
X8.8961Y-2.5224
X8.8966Y-2.2323
X8.8974Y-1.0356
X8.8978Y-4.0765
X8.8983Y-2.0151
X8.8989Y-2.5859
X8.8992Y-4.5644
X8.8993Y-3.0902
X8.8997Y-3.3652
X8.9192Y-3.3385
X8.9193Y-3.0544
X8.9203Y-1.0715
X8.9203Y-0.7867
X8.9208Y-2.6276
X8.9213Y-1.9866
X8.9225Y-2.7006
X8.9226Y-1.8455
X8.9236Y-3.2633
X8.9238Y-4.1063
X8.9246Y-3.7913
X8.9246Y-2.9836
X8.9249Y-2.0505
X8.9252Y-0.6736
X8.9252Y-1.9098
X8.9262Y-2.2672
X8.927Y-1.7678
X8.9286Y-2.1282
X8.9293Y-2.5545
X8.93Y-0.5982
X8.9308Y-3.3958
X8.9311Y-4.5363
X8.9311Y-4.4589
X8.9314Y-2.7617
X8.9314Y-0.8523
X8.9315Y-3.1265
X8.9322Y-0.9876
X8.9326Y-1.6329
X8.9329Y-2.1963
X8.933Y-3.7232
X8.9336Y-0.9303
X8.9349Y-1.5541
X8.954Y-1.9438
X8.9554Y-0.892
X8.9557Y-1.0295
X8.9569Y-3.153
X8.9582Y-2.7935
X8.9596Y-3.2969
X8.9597Y-2.7263
X8.9601Y-3.7557
X8.9607Y-0.573
X8.9615Y-3.0829
X8.9626Y-0.9603
X8.9626Y-1.6758
X8.9644Y-2.0294
X8.9644Y-3.8219
X8.9646Y-4.506
X8.9653Y-2.5163
X8.9654Y-4.1544
X8.9668Y-2.5888
X8.9671Y-4.5768
X8.9685Y-3.0093
X8.9692Y-3.3662
X8.9692Y-1.8761
X8.9693Y-0.8091
X8.9694Y-0.6313
X8.9703Y-1.8174
X8.971Y-2.6657
X8.9898Y-2.984
X8.9899Y-0.6693
X8.9901Y-2.7033
X8.9906Y-1.8419
X8.9915Y-1.9145
X8.9916Y-3.4027
X8.9919Y-4.1822
X8.9929Y-2.7737
X8.9931Y-3.1182
X8.9937Y-0.8611
X8.9943Y-1.7731
X8.995Y-0.5401
X8.997Y-4.5329
X8.9974Y-0.7868
X8.9978Y-2.6244
X8.9986Y-4.1194
X9.0013Y-0.6017
X9.0017Y-3.3258
X9.0034Y-2.8299
X9.0039Y-1.0687
X9.0042Y-0.9266
X9.0046Y-3.0404
X9.0053Y-3.2549
X9.006Y-1.0004
X9.0063Y-2.9037
X9.0063Y-1.9928
X9.0064Y-2.5469
X9.0248Y-3.0055
X9.0272Y-3.079
X9.0272Y-0.569
X9.0273Y-1.8129
X9.0281Y-2.586
X9.0302Y-3.2955
X9.0302Y-4.6414
X9.0305Y-2.6565
X9.0306Y-1.2753
X9.0307Y-1.031
X9.0315Y-2.5201
X9.0315Y-3.3704
X9.0321Y-4.7777
X9.0324Y-2.801
X9.0329Y-2.8766
X9.0335Y-0.9544
X9.0342Y-3.149
X9.0346Y-2.3776
X9.0356Y-4.5687
X9.036Y-2.7292
X9.037Y-3.439
X9.0373Y-2.2391
X9.0393Y-2.3048
X9.0396Y-0.5038
X9.0398Y-1.8789
X9.0403Y-4.1532
X9.041Y-1.4881
X9.0413Y-2.9376
X9.0414Y-0.6371
X9.0419Y-0.823
X9.0421Y-0.8925
X9.0422Y-4.2175
X9.0601Y-4.5287
X9.0606Y-3.3352
X9.0617Y-0.8453
X9.0618Y-2.8319
X9.062Y-0.6751
X9.0621Y-0.9985
X9.0638Y-2.9719
X9.0642Y-1.7678
X9.066Y-3.1252
X9.0667Y-2.7689
X9.0668Y-2.2762
X9.0669Y-0.7839
X9.067Y-2.419
X9.068Y-2.3446
X9.0685Y-1.8383
X9.0691Y-3.0531
X9.0693Y-2.9011
X9.0698Y-1.5176
X9.0702Y-0.5304
X9.0718Y-4.6122
X9.0722Y-2.5485
X9.0727Y-3.2628
X9.0738Y-3.7564
X9.0743Y-2.6177
X9.0746Y-0.6098
X9.0747Y-1.9105
X9.0749Y-0.9163
X9.0749Y-2.6904
X9.0774Y-1.2407
X9.0962Y-2.2278
X9.0968Y-2.9365
X9.0969Y-2.6595
X9.0971Y-2.5828
X9.0971Y-0.9656
X9.0981Y-3.7894
X9.0984Y-2.7303
X9.099Y-0.6459
X9.0995Y-1.1374
X9.0997Y-3.2963
X9.0999Y-0.5613
X9.1005Y-1.273
X9.1026Y-3.975
X9.1033Y-2.3
X9.1034Y-0.8949
X9.104Y-3.1468
X9.1041Y-1.4959
X9.1055Y-2.3831
X9.1055Y-4.5808
X9.1066Y-1.1986
X9.1067Y-1.5537
X9.1072Y-3.0213
X9.1074Y-4.6506
X9.1074Y-0.1444
X9.1074Y-2.5153
X9.1075Y-0.8216
X9.1077Y-1.8887
X9.1096Y-3.0909
X9.1112Y-1.8146
X9.112Y-2.8685
X9.1122Y-2.8084
X9.1126Y-0.2224
X9.1318Y-0.8563
X9.1321Y-2.5526
X9.1323Y-2.404
X9.1333Y-1.9221
X9.1342Y-0.6096
X9.1357Y-1.177
X9.1361Y-2.2672
X9.1396Y-2.7698
X9.1404Y-1.8517
X9.1408Y-2.3396
X9.1425Y-1.591
X9.1435Y-1.0977
X9.1437Y-1.2439
X9.1439Y-1.5248
X9.1445Y-0.9271
X9.1447Y-2.6186
X9.1447Y-0.6801
X9.1458Y-0.7773
X9.1459Y-0.5338
X9.1466Y-2.6995
X9.1677Y-1.2066
X9.1679Y-1.4212
X9.1683Y-2.5973
X9.1685Y-2.3702
X9.1685Y-1.6252
X9.1694Y-0.6345
X9.17Y-3.9699
X9.171Y-0.8831
X9.1716Y-1.3469
X9.1731Y-2.7215
X9.1747Y-1.8802
X9.176Y-1.0694
X9.1775Y-3.2947
X9.1783Y-2.5234
X9.1784Y-1.1432
X9.179Y-0.8131
X9.1798Y-1.5631
X9.1803Y-2.6574
X9.1811Y-1.2777
X9.1815Y-0.5651
X9.182Y-1.4891
X9.1828Y-2.3005
X9.2019Y-0.7882
X9.202Y-1.1057
X9.2024Y-1.1636
X9.203Y-4.6118
X9.2041Y-2.338
X9.205Y-0.6112
X9.2055Y-0.8513
X9.2069Y-1.3892
X9.2073Y-0.6825
X9.2079Y-1.9833
X9.2089Y-3.7308
X9.2095Y-1.5988
X9.2101Y-1.6593
X9.2101Y-2.2729
X9.2102Y-4.5291
X9.2104Y-0.0764
X9.2106Y-1.2478
X9.2111Y-2.5614
X9.2112Y-2.6244
X9.2118Y-1.9124
X9.2124Y-0.4919
X9.2128Y-2.4181
X9.2133Y-2.9834
X9.2139Y-1.3154
X9.2152Y-1.453
X9.2156Y-1.5344
X9.216Y-1.0236
X9.2186Y-3.1642
X9.2186Y-4.472
X9.2389Y-4.7886
X9.2394Y-0.2904
X9.2395Y-0.6327
X9.2397Y-1.4143
X9.2401Y-3.5129
X9.2404Y-1.9511
X9.2407Y-3.766
X9.2408Y-1.1381
X9.2414Y-0.8139
X9.2423Y-1.1989
X9.2424Y-0.4617
X9.2432Y-1.2825
X9.2439Y-1.0696
X9.2448Y-1.6274
X9.2448Y-1.3453
X9.245Y-2.5953
X9.2457Y-3.0889
X9.2463Y-0.5419
X9.249Y-2.3693
X9.2495Y-1.483
X9.2499Y-4.2553
X9.2503Y-4.0748
X9.2507Y-2.5187
X9.2517Y-0.9882
X9.2523Y-2.6632
X9.2525Y-4.4958
X9.2531Y-3.0133
X9.2537Y-4.5739
X9.2538Y-4.6418
X9.2539Y-2.3138
X9.2543Y-1.5601
X9.2727Y-1.3053
X9.2731Y-1.5196
X9.2732Y-1.1687
X9.2737Y-4.1841
X9.2746Y-3.7282
X9.2755Y-2.6172
X9.2763Y-3.1263
X9.2775Y-2.4148
X9.278Y-1.5955
X9.2785Y-3.4706
X9.2793Y-0.6754
X9.2807Y-0.0732
X9.2817Y-2.5618
X9.2824Y-1.2344
X9.2825Y-4.6119
X9.2832Y-4.4646
X9.2833Y-1.3826
X9.2836Y-0.5747
X9.2839Y-3.0449
X9.2849Y-4.1053
X9.2852Y-3.4038
X9.2853Y-2.3458
X9.2855Y-3.7911
X9.2861Y-4.5378
X9.2874Y-1.0973
X9.2877Y-1.4503
X9.2878Y-0.9625
X9.2889Y-0.7889
X9.2893Y-2.2712
X9.2896Y-1.6596
X9.2898Y-1.0242
X9.2901Y-2.9839
X9.2901Y-0.4912
X9.3082Y-0.9906
X9.3084Y-4.4948
X9.3085Y-4.5738
X9.3088Y-0.9218
X9.3092Y-1.7781
X9.3097Y-3.1474
X9.3101Y-4.1475
X9.3103Y-3.7586
X9.3103Y-3.5061
X9.3119Y-0.1081
X9.3124Y-4.7808
X9.3126Y-1.2068
X9.3126Y-3.4468
X9.313Y-3.0846
X9.3132Y-3.8362
X9.3155Y-3.0068
X9.3156Y-4.2246
X9.3157Y-1.0576
X9.3165Y-0.5992
X9.3168Y-1.1293
X9.3177Y-2.5943
X9.3177Y-2.6556
X9.3183Y-0.2509
X9.3183Y-3.3755
X9.3213Y-1.283
X9.3223Y-4.6421
X9.3229Y-0.5306
X9.3252Y-4.0775
X9.3257Y-0.4543
X9.3442Y-0.8832
X9.3443Y-1.0288
X9.346Y-0.9602
X9.3473Y-3.4832
X9.3479Y-0.1492
X9.3481Y-3.3282
X9.3499Y-3.6939
X9.3499Y-4.1174
X9.35Y-1.1698
X9.35Y-3.1196
X9.3504Y-0.5605
X9.3512Y-3.3992
X9.352Y-4.5462
X9.3527Y-4.4399
X9.3531Y-0.0688
X9.3536Y-0.5035
X9.3536Y-4.2484
X9.3551Y-4.1845
X9.3561Y-1.8045
X9.3563Y-1.2374
X9.3568Y-0.2228
X9.3572Y-3.5415
X9.3577Y-0.6386
X9.3594Y-4.323
X9.3602Y-1.1047
X9.3603Y-3.6115
X9.3606Y-2.6188
X9.3612Y-3.0561
X9.3793Y-3.6529
X9.3797Y-4.4698
X9.3805Y-3.3692
X9.3813Y-0.9974
X9.3821Y-4.1441
X9.3821Y-1.778
X9.3826Y-1.4942
X9.383Y-3.7232
X9.3837Y-3.4464
X9.385Y-2.2321
X9.3851Y-0.1842
X9.3871Y-4.352
X9.3885Y-3.0864
X9.3888Y-3.2922
X9.389Y-2.6583
X9.389Y-3.5887
X9.3892Y-4.2147
X9.3898Y-2.3007
X9.3898Y-0.9281
X9.3906Y-0.8564
X9.3926Y-4.5661
X9.3931Y-2.3699
X9.3933Y-0.5423
X9.3934Y-2.7275
X9.3938Y-0.5971
X9.3943Y-4.2925
X9.3944Y-1.0587
X9.3948Y-1.1369
X9.395Y-3.0223
X9.3958Y-3.5096
X9.3958Y-0.1159
X9.4155Y-3.5466
X9.4169Y-3.4713
X9.4179Y-1.1016
X9.4183Y-4.3334
X9.4187Y-2.7028
X9.4193Y-0.6313
X9.4199Y-4.4949
X9.42Y-0.0801
X9.4206Y-3.4101
X9.4207Y-3.6108
X9.421Y-4.2626
X9.422Y-1.5308
X9.4221Y-1.6736
X9.4224Y-0.8213
X9.4237Y-0.8929
X9.4238Y-2.3404
X9.4243Y-0.4609
X9.4247Y-1.0379
X9.4253Y-2.0237
X9.4256Y-3.687
X9.4257Y-3.7513
X9.4259Y-3.0545
X9.426Y-1.8146
X9.4261Y-2.4122
X9.4265Y-0.9569
X9.4272Y-4.3916
X9.4274Y-3.3363
X9.4276Y-0.5708
X9.4283Y-0.1483
X9.4286Y-4.1785
X9.4304Y-1.5979
X9.4305Y-2.2777
X9.4317Y-1.1643
X9.4505Y-2.378
X9.4513Y-0.9163
X9.452Y-1.8533
X9.453Y-3.4395
X9.4531Y-0.8594
X9.4534Y-0.7782
X9.4535Y-2.3088
X9.4547Y-3.7978
X9.4552Y-3.5035
X9.4579Y-3.5802
X9.4583Y-1.5599
X9.4586Y-1.7769
X9.4589Y-0.112
X9.4592Y-1.0731
X9.4598Y-4.5427
X9.4614Y-3.0199
X9.4619Y-2.2344
X9.4621Y-0.9944
X9.4622Y-1.4938
X9.4623Y-3.3661
X9.4626Y-1.1443
X9.4627Y-4.3622
X9.4637Y-4.2886
X9.4642Y-1.9097
X9.4644Y-4.439
X9.4657Y-4.2234
X9.4661Y-1.6232
X9.4661Y-3.2564
X9.4662Y-3.6586
X9.4672Y-3.7235
X9.4674Y-1.9825
X9.4859Y-3.4752
X9.4861Y-2.4101
X9.4863Y-1.0945
X9.4869Y-4.257
X9.4871Y-4.3956
X9.4871Y-2.0149
X9.4873Y-1.8107
X9.4883Y-1.8732
X9.4887Y-4.3218
X9.4901Y-3.758
X9.4903Y-1.6039
X9.4905Y-1.6619
X9.4916Y-4.4712
X9.4919Y-0.8082
X9.4922Y-2.3402
X9.4935Y-1.4485
X9.4944Y-1.1695
X9.4948Y-1.9437
X9.495Y-0.1518
X9.4953Y-3.4109
X9.4954Y-3.6955
X9.496Y-4.7941
X9.4963Y-4.5749
X9.4966Y-1.5306
X9.4969Y-4.6375
X9.4973Y-2.2668
X9.4977Y-1.0222
X9.498Y-2.5209
X9.4991Y-0.961
X9.4994Y-0.8807
X9.5007Y-0.0641
X9.5008Y-3.6209
X9.502Y-3.5398
X9.5028Y-3.2916
X9.5215Y-0.988
X9.5223Y-2.3722
X9.5226Y-4.2855
X9.5235Y-1.0575
X9.5246Y-1.8421
X9.526Y-4.4237
X9.5279Y-1.4815
X9.5281Y-0.9196
X9.5284Y-3.5122
X9.5286Y-4.5057
X9.5288Y-1.6303
X9.5293Y-2.3061
X9.5304Y-0.1012
X9.5305Y-3.3393
X9.5312Y-2.0643
X9.5322Y-3.4413
X9.5324Y-1.5566
X9.5327Y-1.9221
X9.5328Y-0.8527
X9.5329Y-4.3524
X9.534Y-4.6056
X9.5347Y-0.7902
X9.5356Y-1.1353
X9.5356Y-2.5537
X9.5359Y-3.2605
X9.5364Y-1.7666
X9.5364Y-0.4958
X9.5372Y-1.9801
X9.5381Y-2.2062
X9.5565Y-1.1052
X9.5567Y-3.1281
X9.5571Y-1.8094
X9.5577Y-4.6438
X9.5583Y-1.0255
X9.5592Y-3.3707
X9.5595Y-4.3968
X9.5602Y-0.8849
X9.5613Y-2.1581
X9.5613Y-1.8736
X9.5622Y-1.9464
X9.563Y-2.3319
X9.5632Y-2.0981
X9.5639Y-3.2886
X9.564Y-0.8234
X9.5643Y-1.5966
X9.5644Y-0.9576
X9.5645Y-4.7888
X9.5649Y-1.5206
X9.5653Y-1.6737
X9.5653Y-2.2266
X9.5656Y-4.4589
X9.5666Y-2.4127
X9.5682Y-4.5373
X9.5685Y-0.5398
X9.5688Y-4.3329
X9.5719Y-4.0733
X9.572Y-1.1752
X9.5723Y-0.064
X9.5732Y-2.512
X9.5738Y-2.0155
X9.5919Y-2.0562
X9.5943Y-2.5583
X9.5944Y-3.7226
X9.5944Y-1.0712
X9.5948Y-3.0428
X9.595Y-1.1995
X9.5951Y-1.9155
X9.5952Y-3.4016
X9.5957Y-0.7851
X9.5962Y-2.2623
X9.5963Y-3.2536
X9.5967Y-1.782
X9.5979Y-4.5713
X9.5985Y-4.4308
X9.5993Y-1.1407
X9.5995Y-1.6357
X9.6002Y-0.8461
X9.6012Y-3.8006
X9.602Y-4.1198
X9.6024Y-4.5018
X9.6028Y-2.9827
X9.6029Y-2.3765
X9.6031Y-4.3631
X9.605Y-0.9872
X9.6052Y-1.9816
X9.6055Y-0.9158
X9.6062Y-1.5613
X9.6067Y-1.8506
X9.6068Y-2.1959
X9.607Y-3.8712
X9.6076Y-2.1258
X9.6084Y-3.1519
X9.6087Y-3.336
X9.6278Y-1.5917
X9.6278Y-2.0863
X9.6281Y-1.107
X9.6289Y-2.2386
X9.6307Y-2.4146
X9.631Y-2.7257
X9.6313Y-3.7565
X9.6319Y-1.5267
X9.6321Y-3.8252
X9.6322Y-3.3698
X9.633Y-3.2962
X9.6331Y-2.5926
X9.6351Y-4.1431
X9.6359Y-0.8096
X9.6362Y-3.0074
X9.6376Y-0.8865
X9.6379Y-2.1671
X9.6381Y-0.9527
X9.6386Y-1.9485
X9.6402Y-1.8078
X9.6405Y-4.0843
X9.6409Y-2.0156
X9.6415Y-1.0309
X9.6415Y-3.0772
X9.6415Y-3.9
X9.6429Y-2.2965
X9.6433Y-1.8817
X9.6436Y-1.6658
X9.6446Y-2.5239
X9.6625Y-1.9111
X9.6627Y-3.8
X9.6643Y-2.556
X9.6646Y-3.7302
X9.6649Y-1.6302
X9.6653Y-0.9301
X9.6661Y-1.9858
X9.667Y-2.2039
X9.6673Y-3.0526
X9.6684Y-1.5572
X9.6685Y-2.1335
X9.6688Y-2.6328
X9.6692Y-3.2555
X9.6692Y-0.7825
X9.6701Y-4.1791
X9.6705Y-1.8501
X9.6718Y-3.9388
X9.6721Y-3.8557
X9.6723Y-1.7765
X9.6731Y-0.9963
X9.6743Y-2.9825
X9.6745Y-2.7728
X9.6746Y-3.4089
X9.6749Y-0.8565
X9.6752Y-2.2683
X9.6757Y-0.609
X9.676Y-4.1208
X9.6764Y-1.0594
X9.6768Y-2.0575
X9.6776Y-3.1197
X9.679Y-3.3368
X9.6796Y-2.6874
X9.6797Y-0.6729
X9.6986Y-3.0848
X9.6997Y-4.1436
X9.7Y-2.7261
X9.7008Y-3.8368
X9.702Y-1.6754
X9.7023Y-0.8949
X9.7026Y-0.6402
X9.7033Y-3.9059
X9.7037Y-0.561
X9.705Y-2.5841
X9.7063Y-2.5154
X9.7078Y-1.8023
X9.7088Y-3.7588
X9.7096Y-3.299
X9.7096Y-3.1576
X9.7102Y-1.8729
X9.7103Y-2.0195
X9.7109Y-3.3656
X9.7139Y-4.0841
X9.7147Y-3.0082
X9.7147Y-0.8202
X9.7147Y-1.9457
X9.7149Y-2.6621
X9.7334Y-1.7681
X9.7351Y-2.9105
X9.7361Y-2.6318
X9.7363Y-3.7995
X9.7364Y-0.6109
X9.7369Y-2.9715
X9.7381Y-3.9412
X9.7388Y-4.7848
X9.739Y-2.5578
X9.7393Y-2.6881
X9.7397Y-2.7717
X9.7403Y-3.2567
X9.7421Y-0.8497
X9.7434Y-3.1213
X9.7436Y-1.9781
X9.7437Y-3.3363
X9.7437Y-4.1051
X9.7446Y-0.7816
X9.7448Y-2.8407
X9.7452Y-3.0452
X9.7461Y-1.9069
X9.7468Y-1.8427
X9.7471Y-3.4108
X9.7486Y-0.5306
X9.7498Y-0.6715
X9.7506Y-3.8626
X9.7693Y-0.642
X9.7706Y-2.7246
X9.7716Y-1.2819
X9.7723Y-3.021
X9.7733Y-3.8276
X9.7745Y-0.49
X9.7748Y-2.5192
X9.7758Y-0.9956
X9.7762Y-1.0591
X9.7764Y-2.404
X9.7789Y-4.0724
X9.779Y-3.9051
X9.7793Y-3.1578
X9.7796Y-2.9512
X9.7798Y-0.8099
X9.7803Y-3.3037
X9.7804Y-3.0935
X9.7804Y-2.8793
X9.7808Y-2.667
X9.7813Y-1.8144
X9.7821Y-4.6462
X9.7825Y-2.2254
X9.7827Y-4.4736
X9.783Y-0.567
X9.7836Y-2.8084
X9.7837Y-1.8779
X9.7843Y-1.4968
X9.7848Y-3.4433
X9.7856Y-4.8263
X9.7863Y-2.5937
X9.7863Y-3.3661
X9.8042Y-3.2703
X9.8044Y-3.9378
X9.8045Y-3.3346
X9.8046Y-3.479
X9.8061Y-1.9189
X9.8062Y-4.7869
X9.8073Y-0.9607
X9.808Y-1.5211
X9.8085Y-4.5021
X9.8095Y-2.9022
X9.8104Y-0.6734
X9.8107Y-1.1007
X9.8108Y-2.2716
X9.8112Y-0.7733
X9.8116Y-3.8588
X9.8146Y-0.6032
X9.8149Y-1.7757
X9.8157Y-2.9768
X9.8158Y-2.7003
X9.8169Y-1.8497
X9.8171Y-3.0474
X9.8179Y-0.54
X9.8185Y-1.0297
X9.819Y-3.7602
X9.819Y-2.8335
X9.8191Y-4.5688
X9.8192Y-4.1105
X9.8195Y-2.3337
X9.8201Y-2.5499
X9.8211Y-2.621
X9.8218Y-3.1242
X9.8218Y-2.7662
X9.8396Y-4.8287
X9.8396Y-3.0204
X9.8397Y-1.5631
X9.8403Y-1.4923
X9.8406Y-0.5677
X9.8408Y-4.5433
X9.8409Y-1.0709
X9.8424Y-2.7251
X9.8429Y-4.0827
X9.843Y-1.8719
X9.8433Y-1.1397
X9.8435Y-3.7896
X9.8437Y-1.8119
X9.8438Y-4.617
X9.8443Y-2.6649
X9.8443Y-0.631
X9.8449Y-1.2688
X9.846Y-2.8648
X9.846Y-2.5251
X9.8463Y-2.3051
X9.8469Y-0.9157
X9.8474Y-2.3701
X9.8476Y-3.1601
X9.8478Y-4.4595
X9.8496Y-2.5819
X9.8496Y-3.0774
X9.8505Y-3.2933
X9.8507Y-0.2061
X9.8509Y-2.9485
X9.852Y-1.2153
X9.8531Y-3.8964
X9.8535Y-2.8099
X9.8539Y-2.2422
X9.8559Y-0.1442
X9.8569Y-0.9927
X9.8754Y-2.2728
X9.8762Y-4.7918
X9.8763Y-4.5693
X9.877Y-1.8511
X9.8771Y-4.4953
X9.8772Y-0.9542
X9.8787Y-0.8832
X9.8792Y-1.5916
X9.8794Y-0.6795
X9.8798Y-0.5272
X9.8814Y-3.8275
X9.8819Y-2.3384
X9.882Y-3.7502
X9.8822Y-1.0268
X9.8829Y-2.6976
X9.8842Y-1.1029
X9.8843Y-4.638
X9.8846Y-2.5482
X9.8855Y-2.4173
X9.886Y-0.599
X9.8866Y-2.7676
X9.8873Y-1.5174
X9.8884Y-4.1102
X9.8892Y-3.9312
X9.8893Y-1.2472
X9.8893Y-1.9109
X9.892Y-2.6308
X9.8922Y-1.1741
X9.9107Y-1.3525
X9.9108Y-1.2151
X9.9118Y-0.932
X9.9121Y-2.3039
X9.9138Y-3.302
X9.9138Y-2.5264
X9.9138Y-0.6419
X9.914Y-1.626
X9.9158Y-0.5603
X9.9159Y-1.2702
X9.9172Y-2.6674
X9.9177Y-0.9953
X9.9186Y-1.0597
X9.9186Y-4.5291
X9.9188Y-3.8002
X9.9192Y-2.3713
X9.9198Y-0.861
X9.9201Y-4.6051
X9.9201Y-1.4957
X9.9214Y-1.878
X9.9223Y-1.4229
X9.9228Y-2.7234
X9.9229Y-1.559
X9.9246Y-3.8632
X9.9257Y-1.1349
X9.9272Y-4.0808
X9.9277Y-2.5968
X9.9461Y-0.9507
X9.9466Y-2.9753
X9.9474Y-2.6187
X9.9475Y-1.9852
X9.9476Y-4.5689
X9.9479Y-1.0276
X9.9488Y-3.8947
X9.9491Y-2.3437
X9.9509Y-0.5269
X9.9512Y-1.4594
X9.9518Y-1.6725
X9.9529Y-1.3856
X9.9531Y-1.9235
X9.9557Y-1.5241
X9.9558Y-0.0705
X9.956Y-2.6892
X9.9561Y-2.2707
X9.9564Y-3.8345
X9.9568Y-2.4104
X9.9577Y-1.2424
X9.9578Y-3.1523
X9.9579Y-4.1184
X9.9579Y-1.5952
X9.9582Y-1.1701
X9.96Y-2.5614
X9.9601Y-1.0967
X9.9601Y-4.6446
X9.9604Y-0.8797
X9.9613Y-1.3151
X9.9619Y-0.597
X9.9633Y-3.7271
X9.9827Y-3.8638
X9.9829Y-2.5155
X9.9829Y-2.6541
X9.9834Y-1.1424
X9.9836Y-1.0677
X9.9836Y-0.9893
X9.9837Y-2.3836
X9.984Y-1.6332
X9.9866Y-1.569
X9.9871Y-4.6092
X9.9881Y-1.2822
X9.9881Y-0.5022
X9.9891Y-1.201
X9.9905Y-3.0934
X9.9916Y-3.7567
X9.9919Y-1.3562
X9.9921Y-0.5637
X9.9923Y-2.5831
X9.9927Y-0.9157
X9.9928Y-4.5444
X9.993Y-1.4214
X9.9936Y-3.9319
X9.994Y-1.4878
X9.9941Y-2.3044
X9.9953Y-1.9461
X9.9958Y-3.02
X9.9981Y-4.0813
X10.0169Y-2.4107
X10.0181Y-1.0978
X10.0187Y-2.5498
X10.0199Y-1.5199
X10.0213Y-0.8893
X10.0218Y-1.3117
X10.022Y-0.283
X10.0222Y-2.2764
X10.0226Y-0.5411
X10.0228Y-3.8003
X10.0234Y-1.5915
X10.0235Y-3.0483
X10.0239Y-1.1709
X10.0249Y-4.644
X10.0252Y-1.4516
X10.0256Y-2.3416
X10.0261Y-3.4111
X10.0272Y-3.1264
X10.0279Y-1.249
X10.028Y-0.0643
X10.0293Y-1.0371
X10.0295Y-3.7291
X10.0307Y-1.38
X10.032Y-1.6669
X10.033Y-3.8965
X10.0331Y-0.962
X10.0333Y-4.5771
X10.0339Y-2.9697
X10.0341Y-2.619
X10.0525Y-3.1506
X10.0536Y-4.5319
X10.0536Y-3.7519
X10.0545Y-1.1432
X10.0554Y-1.2726
X10.0555Y-3.3717
X10.0557Y-4.6062
X10.0557Y-1.059
X10.0559Y-1.77
X10.0588Y-1.3561
X10.06Y-1.0004
X10.0604Y-3.8213
X10.0608Y-1.4264
X10.0617Y-3.0211
X10.0627Y-2.5801
X10.0634Y-2.3018
X10.0635Y-3.9338
X10.0636Y-0.9214
X10.0637Y-2.6516
X10.0644Y-0.5011
X10.0645Y-2.3777
X10.0648Y-3.4413
X10.0666Y-1.4956
X10.0674Y-3.0864
X10.0698Y-1.2106
X10.0896Y-3.476
X10.0896Y-1.8059
X10.0898Y-3.405
X10.0903Y-3.0455
X10.0907Y-1.0919
X10.0919Y-3.3243
X10.0932Y-0.8912
X10.0933Y-0.9576
X10.0952Y-0.2217
X10.0957Y-1.1698
X10.0958Y-4.647
X10.097Y-3.8572
X10.098Y-3.7939
X10.0986Y-3.6922
X10.0987Y-1.2411
X10.0996Y-4.0781
X10.1002Y-0.0695
X10.1007Y-1.0285
X10.1027Y-2.6281
X10.1033Y-3.128
X10.1044Y-0.1419
X10.1051Y-4.5721
X10.1052Y-4.5078
X10.1236Y-2.6518
X10.124Y-3.4307
X10.1249Y-0.1734
X10.1249Y-0.9877
X10.1266Y-3.8292
X10.127Y-1.7741
X10.1281Y-0.9193
X10.1298Y-1.0616
X10.1299Y-3.3701
X10.1301Y-0.105
X10.1304Y-3.2892
X10.1304Y-3.7136
X10.1311Y-1.2043
X10.1312Y-4.5385
X10.1313Y-1.1397
X10.1326Y-0.6379
X10.1355Y-3.0152
X10.1363Y-3.899
X10.1364Y-3.0769
X10.1392Y-4.6002
X10.1393Y-3.501
X10.1601Y-1.6349
X10.1603Y-0.9558
X10.1609Y-1.8171
X10.161Y-0.8844
X10.1614Y-3.3333
X10.1614Y-3.9317
X10.1633Y-1.5621
X10.1636Y-1.1801
X10.1639Y-3.4749
X10.1643Y-1.0287
X10.1644Y-2.6905
X10.1646Y-0.6025
X10.1647Y-3.7518
X10.1649Y-2.298
X10.1657Y-0.1371
X10.166Y-1.483
X10.1675Y-4.5648
X10.1675Y-3.8603
X10.1698Y-4.0817
X10.1706Y-0.6734
X10.1713Y-3.0533
X10.1721Y-2.3742
X10.1724Y-2.0279
X10.173Y-3.5524
X10.1731Y-4.6474
X10.1741Y-0.0712
X10.1742Y-3.3998
X10.175Y-1.1057
X10.1756Y-2.2411
X10.1952Y-0.6455
X10.196Y-1.78
X10.1961Y-3.0171
X10.1961Y-2.4068
X10.1962Y-3.9066
X10.1963Y-1.9872
X10.1973Y-1.6711
X10.1997Y-1.1274
X10.1997Y-4.5338
X10.2009Y-1.0567
X10.201Y-0.573
X10.2011Y-0.1012
X10.2013Y-3.5094
X10.2031Y-0.9967
X10.2036Y-3.2672
X10.2042Y-1.8484
X10.2054Y-0.9213
X10.206Y-3.3597
X10.207Y-3.79
X10.2078Y-2.3356
X10.2078Y-3.4381
X10.2081Y-1.9186
X10.2085Y-2.2638
X10.2085Y-1.5172
X10.2096Y-3.5864
X10.2113Y-4.6051
X10.2114Y-1.5901
X10.2295Y-0.6116
X10.2297Y-2.522
X10.2306Y-4.5669
X10.2307Y-1.4945
X10.2311Y-3.8242
X10.2312Y-1.0374
X10.2327Y-0.9561
X10.2327Y-1.8051
X10.2334Y-1.8777
X10.2335Y-3.4027
X10.2339Y-2.0222
X10.2354Y-3.6169
X10.2358Y-1.6332
X10.2362Y-0.1472
X10.2368Y-4.6374
X10.2369Y-3.5506
X10.2373Y-1.1738
X10.238Y-2.3839
X10.2396Y-0.5404
X10.2397Y-3.9319
X10.24Y-2.2314
X10.2409Y-1.5566
X10.2411Y-1.0953
X10.2412Y-0.8872
X10.2413Y-3.4761
X10.2423Y-2.2988
X10.2431Y-0.0814
X10.2431Y-1.9581
X10.2457Y-0.6714
X10.2462Y-3.2916
X10.2674Y-2.5486
X10.2683Y-2.3369
X10.2683Y-2.4027
X10.2683Y-1.9871
X10.2684Y-3.3353
X10.2695Y-0.5745
X10.2711Y-2.2638
X10.2715Y-0.6342
X10.2718Y-4.6054
X10.272Y-1.0724
X10.272Y-3.6578
X10.272Y-3.5726
X10.2724Y-0.9144
X10.2729Y-1.7696
X10.2743Y-1.1291
X10.2748Y-3.8729
X10.2754Y-3.4426
X10.2772Y-0.9945
X10.2778Y-1.5172
X10.278Y-1.8466
X10.2781Y-1.5962
X10.2794Y-0.1077
X10.2795Y-1.9179
X10.2802Y-1.6655
X10.2803Y-0.5063
X10.2803Y-4.5015
X10.2815Y-3.2601
X10.2824Y-3.5031
X10.3003Y-2.3829
X10.301Y-3.1142
X10.3012Y-3.4829
X10.3013Y-4.533
X10.302Y-2.5144
X10.3039Y-0.8806
X10.304Y-4.6477
X10.3044Y-3.2939
X10.3049Y-3.6085
X10.3063Y-2.2428
X10.3069Y-4.4718
X10.307Y-3.369
X10.3076Y-1.6313
X10.3084Y-1.1633
X10.3085Y-1.809
X10.3097Y-3.5446
X10.3104Y-2.3102
X10.3107Y-3.8984
X10.3114Y-1.0315
X10.3123Y-1.5648
X10.3124Y-0.0763
X10.3134Y-1.9475
X10.3137Y-2.0913
X10.3144Y-2.0267
X10.3145Y-0.9634
X10.3146Y-2.1559
X10.3148Y-4.2921
X10.316Y-0.5384
X10.3161Y-1.1078
X10.3171Y-1.8789
X10.3177Y-3.6884
X10.3361Y-3.5168
X10.3362Y-3.254
X10.3367Y-1.7668
X10.3376Y-3.6434
X10.3378Y-2.2017
X10.3379Y-3.7248
X10.3379Y-1.8434
X10.3387Y-2.5618
X10.3403Y-1.5939
X10.3407Y-3.3262
X10.3412Y-1.129
X10.3415Y-1.0563
X10.3416Y-2.42
X10.3424Y-3.1485
X10.3429Y-1.9126
X10.3435Y-1.5171
X10.3447Y-2.9699
X10.3449Y-3.397
X10.3451Y-4.4986
X10.3463Y-2.3416
X10.347Y-4.5708
X10.3474Y-2.1265
X10.3478Y-4.0856
X10.348Y-3.574
X10.3481Y-1.6642
X10.349Y-2.0503
X10.351Y-3.9333
X10.3519Y-1.9801
X10.352Y-0.9856
X10.352Y-3.0547
X10.3527Y-2.2661
X10.3529Y-1.2035
X10.3531Y-0.9153
X10.3723Y-3.6892
X10.3731Y-0.8927
X10.3735Y-1.9547
X10.3738Y-3.0127
X10.375Y-3.3619
X10.3752Y-3.2939
X10.3753Y-2.3056
X10.3757Y-4.2478
X10.3773Y-2.0888
X10.3775Y-1.812
X10.3786Y-2.0171
X10.3786Y-4.4737
X10.3787Y-3.6228
X10.38Y-3.4412
X10.3803Y-1.0254
X10.3808Y-2.3741
X10.3826Y-1.6335
X10.3827Y-4.6119
X10.383Y-3.7631
X10.3834Y-2.1715
X10.3839Y-2.2304
X10.3847Y-3.0905
X10.3854Y-1.5683
X10.3854Y-0.9537
X10.3858Y-1.2341
X10.3861Y-1.8867
X10.3869Y-4.5421
X10.3872Y-3.5482
X10.3873Y-2.5956
X10.3882Y-1.0991
X10.3888Y-2.7696
X10.3888Y-2.5132
X10.4066Y-2.2636
X10.4069Y-2.415
X10.407Y-3.6473
X10.4079Y-2.5469
X10.4082Y-1.98
X10.4083Y-1.6708
X10.4085Y-3.7304
X10.4087Y-3.4033
X10.4088Y-1.0715
X10.409Y-0.5976
X10.4096Y-0.9954
X10.4098Y-4.0844
X10.4098Y-3.0418
X10.4112Y-3.4726
X10.4124Y-3.3249
X10.4132Y-2.1307
X10.4132Y-2.1943
X10.4135Y-4.505
X10.4137Y-3.2549
X10.4137Y-4.1529
X10.4149Y-3.5757
X10.4149Y-2.0653
X10.4152Y-4.2171
X10.4176Y-3.8013
X10.418Y-0.92
X10.4185Y-2.6153
X10.4193Y-2.3427
X10.4193Y-1.7824
X10.4195Y-1.5989
X10.4199Y-4.5691
X10.4202Y-2.6978
X10.4209Y-1.9219
X10.4216Y-3.1133
X10.422Y-2.9761
X10.4238Y-4.6416
X10.424Y-1.5322
X10.424Y-1.8405
X10.4241Y-0.6675
X10.4435Y-1.6328
X10.4439Y-4.5377
X10.445Y-3.0919
X10.445Y-4.2623
X10.4456Y-2.5903
X10.4459Y-1.8062
X10.4461Y-1.8731
X10.4472Y-1.9444
X10.4474Y-3.0053
X10.4475Y-0.5773
X10.4477Y-2.0207
X10.4487Y-3.8297
X10.4496Y-4.468
X10.4501Y-3.6896
X10.4502Y-3.1628
X10.4503Y-0.8835
X10.4513Y-1.0331
X10.4531Y-4.1054
X10.4532Y-3.7516
X10.4532Y-2.5111
X10.4533Y-2.7359
X10.4535Y-4.1887
X10.4536Y-0.6315
X10.454Y-3.5025
X10.4542Y-3.617
X10.4543Y-3.3658
X10.4545Y-3.295
X10.4547Y-2.655
X10.4568Y-4.6132
X10.4585Y-0.9564
X10.4587Y-3.446
X10.4784Y-0.9309
X10.4784Y-2.9801
X10.4784Y-2.6162
X10.4791Y-1.6752
X10.4791Y-3.4676
X10.4797Y-1.9851
X10.4816Y-3.8662
X10.4816Y-2.9067
X10.4817Y-0.9993
X10.4818Y-4.1553
X10.482Y-3.5397
X10.4831Y-1.9207
X10.4835Y-3.6435
X10.4847Y-3.3297
X10.4856Y-0.5326
X10.4856Y-1.0593
X10.4865Y-3.7264
X10.4874Y-3.3966
X10.4875Y-2.7645
X10.4888Y-0.6055
X10.4895Y-2.5477
X10.49Y-3.1278
X10.4903Y-3.8
X10.4909Y-2.8316
X10.4912Y-2.6929
X10.4917Y-1.852
X10.4919Y-4.4363
X10.4922Y-0.6677
X10.4925Y-4.5753
X10.4926Y-4.3654
X10.4927Y-3.0496
X10.4929Y-4.2099
X10.493Y-3.2687
X10.4939Y-4.6493
X10.4943Y-1.7718
X10.4945Y-4.5015
X10.4947Y-4.293
X10.5134Y-3.0094
X10.5137Y-3.4317
X10.5146Y-0.6318
X10.5147Y-3.3053
X10.5148Y-3.8949
X10.5154Y-1.2822
X10.5156Y-3.5886
X10.5164Y-4.5395
X10.5168Y-3.1511
X10.5171Y-4.4036
X10.5183Y-2.5917
X10.5183Y-1.8032
X10.5184Y-0.4961
X10.5184Y-2.8688
X10.5189Y-4.2594
X10.5193Y-4.118
X10.5196Y-0.5651
X10.5199Y-1.038
X10.52Y-2.7968
X10.5204Y-1.8761
X10.5209Y-3.8207
X10.5227Y-3.0764
X10.523Y-0.9539
X10.5232Y-0.8815
X10.5235Y-2.7328
X10.5243Y-2.6637
X10.5247Y-2.2344
X10.5249Y-4.6129
X10.5259Y-3.7547
X10.5262Y-4.3333
X10.5267Y-2.4145
X10.5268Y-4.1849
X10.5268Y-2.5188
X10.5269Y-0.0009
X10.5275Y-1.4838
X10.5278Y-4.4725
X10.5279Y-2.9437
X10.5298Y-3.5135
X10.5299Y-3.3679
X10.5301Y-3.6843
X10.5486Y-2.5553
X10.5497Y-0.9939
X10.5499Y-3.612
X10.5508Y-2.6251
X10.5512Y-3.7267
X10.5519Y-3.2657
X10.5519Y-2.9066
X10.5521Y-2.7716
X10.5524Y-1.5222
X10.5527Y-4.5789
X10.5528Y-4.2246
X10.5533Y-2.6892
X10.5533Y-0.5257
X10.5546Y-3.3988
X10.555Y-3.8007
X10.5555Y-3.5521
X10.5557Y-0.5966
X10.5557Y-1.9135
X10.556Y-2.8336
X10.5561Y-0.6824
X10.5564Y-3.8703
X10.5566Y-4.4332
X10.5576Y-2.3428
X10.5581Y-3.4707
X10.5587Y-1.8357
X10.5587Y-0.0369
X10.5588Y-2.9807
X10.559Y-4.6377
X10.5594Y-1.7823
X10.5595Y-4.3588
X10.5601Y-0.9161
X10.5603Y-2.2725
X10.561Y-3.3395
X10.5611Y-3.1129
X10.5613Y-3.9318
X10.562Y-3.0515
X10.5622Y-4.1541
X10.5636Y-4.5099
X10.5638Y-4.2822
X10.5846Y-1.5612
X10.5848Y-4.4653
X10.5857Y-3.5144
X10.5858Y-0.2157
X10.586Y-2.3825
X10.5863Y-3.4343
X10.5874Y-4.2592
X10.5875Y-4.1858
X10.5884Y-2.8757
X10.5884Y-1.1431
X10.5885Y-4.3174
X10.5887Y-2.2328
X10.5889Y-2.9368
X10.5893Y-2.7287
X10.5895Y-3.0164
X10.5899Y-4.5317
X10.5905Y-3.8308
X10.5911Y-1.8817
X10.5912Y-1.2058
X10.5922Y-2.6647
X10.5924Y-2.5226
X10.5924Y-4.3983
X10.5929Y-2.3085
X10.5938Y-0.1486
X10.5942Y-3.2911
X10.595Y-3.1558
X10.5952Y-0.6349
X10.5953Y-0.952
X10.5958Y-0.563
X10.5964Y-4.6095
X10.5966Y-3.8917
X10.5974Y-1.8061
X10.5986Y-0.8806
X10.5992Y-3.0818
X10.6002Y-2.8046
X10.6002Y-2.5917
X10.6003Y-1.4986
X10.6004Y-3.3627
X10.6007Y-3.7574
X10.6014Y-1.2787
X10.6192Y-0.0447
X10.6195Y-0.9223
X10.62Y-1.8417
X10.6203Y-2.6325
X10.6211Y-3.7248
X10.6214Y-1.6049
X10.6215Y-3.7949
X10.6219Y-1.2465
X10.6221Y-4.2819
X10.6226Y-2.3491
X10.6231Y-2.4134
X10.6234Y-3.3984
X10.624Y-0.175
X10.6241Y-0.5999
X10.6244Y-0.6732
X10.6247Y-2.7024
X10.6255Y-1.9122
X10.6258Y-3.8598
X10.6261Y-1.0999
X10.6284Y-2.2775
X10.6285Y-1.5191
X10.6291Y-3.3361
X10.63Y-2.7727
X10.6315Y-4.2184
X10.6339Y-1.1646
X10.6346Y-2.5548
X10.6367Y-0.5253
X10.6559Y-1.2721
X10.6561Y-1.0665
X10.6563Y-2.655
X10.6579Y-2.5181
X10.6585Y-3.8306
X10.6585Y-0.8824
X10.659Y-3.7515
X10.6591Y-1.6393
X10.6624Y-1.1999
X10.6627Y-2.3823
X10.6639Y-2.7257
X10.665Y-1.5617
X10.6655Y-1.4619
X10.6655Y-0.5625
X10.6658Y-2.3033
X10.667Y-2.584
X10.6672Y-0.6339
X10.6681Y-1.1404
X10.6696Y-1.8759
X10.6698Y-1.392
X10.6706Y-4.2628
X10.6901Y-0.5381
X10.6917Y-1.1037
X10.6922Y-2.9718
X10.6925Y-1.9074
X10.6937Y-3.7219
X10.694Y-0.0688
X10.6944Y-0.6094
X10.6957Y0.0055
X10.6962Y-1.3167
X10.6965Y-3.8002
X10.6966Y-2.2708
X10.6978Y-2.3387
X10.6985Y-1.6653
X10.6993Y-0.6695
X10.6997Y-1.2365
X10.7011Y-1.1752
X10.7024Y-2.6224
X10.7034Y-4.4729
X10.7045Y-1.4864
X10.7046Y-1.0217
X10.7053Y-1.5911
X10.7057Y-2.419
X10.7063Y-1.4216
X10.7071Y-2.6953
X10.7075Y-2.5589
X10.7271Y-2.6545
X10.7273Y-3.7527
X10.7285Y-1.5219
X10.7289Y-1.6277
X10.7295Y-0.637
X10.7301Y-4.6405
X10.7311Y-3.0215
X10.7319Y-1.2106
X10.7325Y-3.083
X10.7328Y-4.4958
X10.7331Y-2.3009
X10.734Y-0.5019
X10.7343Y-1.2714
X10.7349Y-1.1348
X10.7365Y-2.5206
X10.7375Y-1.3401
X10.7383Y-1.4484
X10.7391Y-1.0681
X10.7394Y-1.9547
X10.7399Y-2.5803
X10.7399Y-0.5669
X10.742Y-0.9966
X10.7425Y-2.3766
X10.7428Y-4.5779
X10.7612Y-4.4649
X10.7617Y-0.0705
X10.7625Y-0.6098
X10.7631Y-3.05
X10.7632Y-3.2265
X10.7636Y-2.2623
X10.7648Y-2.4189
X10.7649Y-0.9603
X10.7656Y-1.4867
X10.7657Y-0.468
X10.7659Y-1.5543
X10.767Y-1.3837
X10.7676Y-4.5384
X10.7677Y-2.3481
X10.768Y-1.313
X10.7689Y-0.5421
X10.7695Y-1.0992
X10.7705Y-0.2895
X10.7709Y-3.7897
X10.7715Y-2.984
X10.7717Y-2.6293
X10.7733Y-1.1791
X10.7736Y-4.6148
X10.7743Y-1.6749
X10.7753Y-0.678
X10.7763Y-1.0261
X10.7772Y-2.5519
X10.7779Y-1.2351
X10.7964Y-3.022
X10.7965Y-4.5714
X10.7972Y-3.4807
X10.8002Y-4.5027
X10.801Y-1.2704
X10.8012Y-1.7662
X10.8022Y-1.1281
X10.8033Y-2.661
X10.8034Y-2.5844
X10.8049Y-0.4911
X10.8053Y-1.4244
X10.8054Y-2.3805
X10.8055Y-0.5669
X10.8058Y-1.3473
X10.8062Y-1.5245
X10.8088Y-1.605
X10.8091Y-0.6467
X10.8101Y-0.9195
X10.8108Y-4.6371
X10.8109Y-2.2965
X10.8111Y-2.5253
X10.8133Y-1.1985
X10.8135Y-1.0677
X10.8137Y-0.9963
X10.8317Y-0.1389
X10.8321Y-0.2903
X10.8326Y-0.5264
X10.8337Y-4.6118
X10.8357Y-0.0791
X10.836Y-0.9658
X10.8361Y-1.1756
X10.8361Y-1.1085
X10.8363Y-0.6082
X10.8375Y-1.5555
X10.8379Y-1.2448
X10.8379Y-0.6727
X10.8384Y-4.5385
X10.8392Y-2.406
X10.8401Y-1.8016
X10.8401Y-1.4512
X10.8407Y-0.206
X10.8442Y-1.0218
X10.8445Y-3.8322
X10.8469Y-1.3114
X10.8482Y-3.7507
X10.8674Y-3.336
X10.8683Y-3.868
X10.8686Y-1.0737
X10.8688Y-1.7365
X10.8695Y-0.9275
X10.8697Y-1.269
X10.8719Y-1.4922
X10.8722Y-0.6346
X10.8731Y-0.9962
X10.8732Y-4.5641
X10.8735Y-0.2584
X10.8776Y-3.7994
X10.8779Y-0.5029
X10.8782Y-1.2146
X10.8807Y-0.177
X10.8814Y-1.1386
X10.8814Y-0.5685
X10.8817Y-3.0191
X10.8836Y-0.1158
X10.8844Y-4.6491
X10.9026Y-2.2415
X10.9034Y-0.2094
X10.9037Y-0.6686
X10.905Y-1.0979
X10.9056Y-1.8161
X10.9056Y-4.5436
X10.9064Y-1.0292
X10.907Y-3.7566
X10.9079Y-0.9542
X10.9082Y-0.53
X10.9088Y-0.6064
X10.9096Y-1.5337
X10.9103Y-0.076
X10.9116Y-2.0147
X10.9137Y-0.2772
X10.9139Y-1.1687
X10.9156Y-4.6148
X10.9187Y-0.1455
X10.9189Y-2.728
X10.9198Y-0.4696
X10.938Y-4.576
X10.9389Y-1.4871
X10.9404Y-4.6446
X10.9417Y-0.3875
X10.9418Y-0.2535
X10.9418Y-1.8393
X10.9421Y-0.1059
X10.9442Y-0.9881
X10.9444Y-0.9254
X10.945Y-1.9898
X10.9457Y-2.2679
X10.9498Y-0.631
X10.953Y-0.3183
X10.954Y-0.576
X10.9547Y-0.1825
X10.9548Y-3.0182
X10.9548Y-0.5016
X10.9734Y-0.6068
X10.9736Y-0.3553
X10.9738Y-0.0744
X10.9743Y-1.9516
X10.9743Y-0.2141
X10.9754Y-2.0254
X10.977Y-0.4249
X10.9786Y-0.9529
X10.9797Y-4.5286
X10.9803Y-4.6063
X10.9829Y-0.6671
X10.9829Y-0.1425
X10.983Y-3.7232
X10.9835Y-3.8909
X10.9841Y-4.0398
X10.9847Y-2.2315
X10.9852Y-0.532
X10.9874Y-2.3138
X10.9884Y-0.2793
X10.9903Y-1.5289
X10.991Y-1.8821
X11.0099Y-0.32
X11.0102Y-4.5685
X11.0121Y-0.3893
X11.0131Y-4.5027
X11.0134Y-2.2736
X11.0137Y-0.6396
X11.0161Y-4.639
X11.0172Y-0.2501
X11.0175Y-0.919
X11.0196Y-0.4677
X11.0197Y-0.1013
X11.0219Y-1.8365
X11.022Y-2.3412
X11.0221Y-0.5696
X11.0245Y-4.0028
X11.0252Y-1.9184
X11.0254Y-3.7661
X11.0261Y-1.4837
X11.0261Y-0.1767
X11.0264Y-3.9331
X11.0265Y-1.9947
X11.0456Y-2.304
X11.0469Y-2.3847
X11.0477Y-3.9646
X11.0484Y-0.218
X11.049Y-1.8766
X11.0492Y-2.1574
X11.0526Y-0.1459
X11.0535Y-0.4986
X11.0553Y-0.9523
X11.0554Y-4.0434
X11.0565Y-0.0704
X11.0565Y-2.101
X11.0571Y-0.2862
X11.0574Y-3.7234
X11.0575Y-0.4346
X11.0579Y-2.0158
X11.0585Y-2.236
X11.0587Y-0.3489
X11.0602Y-4.6018
X11.0602Y-1.9515
X11.0609Y-4.5337
X11.0617Y-1.5253
X11.0619Y-3.8933
X11.0812Y-2.5556
X11.0836Y-2.4042
X11.0843Y-3.9433
X11.0847Y-1.9068
X11.0851Y-0.2463
X11.0851Y-3.3606
X11.0853Y-3.2952
X11.0856Y-3.8558
X11.0875Y-2.9761
X11.0895Y-4.0008
X11.0901Y-2.207
X11.0916Y-2.2769
X11.0936Y-0.1115
X11.0938Y-4.4751
X11.0939Y-0.9252
X11.0948Y-2.3465
X11.0953Y-2.0548
X11.0957Y-1.8508
X11.0958Y-2.1241
X11.0963Y-0.176
X11.097Y-1.9797
X11.1153Y-1.888
X11.1171Y-2.5237
X11.1171Y-2.2267
X11.1174Y-2.7704
X11.1183Y-1.5219
X11.119Y-3.9058
X11.1219Y-4.4987
X11.123Y-0.9663
X11.1231Y-2.3056
X11.1242Y-2.5887
X11.125Y-0.0666
X11.1256Y-3.9755
X11.1263Y-0.1403
X11.1267Y-3.3263
X11.1282Y-2.0875
X11.1285Y-2.0302
X11.1299Y-3.8199
X11.1301Y-2.1654
X11.1303Y-2.3758
X11.1307Y-1.9595
X11.1312Y-0.2062
X11.1324Y-3.0177
X11.1328Y-4.0339
X11.1513Y-3.8598
X11.1519Y-3.3698
X11.1521Y-0.5688
X11.1531Y-2.7034
X11.1537Y-0.1852
X11.1541Y-1.9888
X11.1546Y-1.9068
X11.1547Y-2.41
X11.1559Y-0.4993
X11.1561Y-2.1261
X11.1566Y-0.9148
X11.1568Y-1.0629
X11.157Y-3.7501
X11.1576Y-2.9805
X11.1597Y-2.3322
X11.1604Y-1.7795
X11.1621Y-0.6331
X11.1624Y-0.9986
X11.163Y-2.0546
X11.1634Y-2.6161
X11.1634Y-3.2892
X11.1638Y-2.2627
X11.1657Y-0.1011
X11.1659Y-2.5598
X11.1672Y-2.2001
X11.1681Y-1.8483
X11.1683Y-3.9349
X11.1864Y-3.1528
X11.1888Y-0.5407
X11.1899Y-0.6692
X11.1901Y-2.3845
X11.1903Y-2.0177
X11.1908Y-3.7852
X11.1909Y-1.8158
X11.191Y-1.8821
X11.1914Y-3.2608
X11.1939Y-2.1591
X11.195Y-2.3005
X11.1957Y-2.2349
X11.1958Y-0.1354
X11.1967Y-2.6598
X11.1969Y-2.5886
X11.1973Y-3.3357
X11.1977Y-3.4746
X11.1988Y-0.9623
X11.1989Y-2.0844
X11.1991Y-1.0229
X11.1993Y-1.947
X11.2Y-2.5176
X11.2006Y-0.0672
X11.2017Y-0.613
X11.2022Y-3.8917
X11.2224Y-0.9234
X11.2224Y-0.4626
X11.2224Y-0.6461
X11.2239Y-2.6262
X11.2242Y-0.1792
X11.2243Y-1.9813
X11.225Y-3.8266
X11.227Y-0.1114
X11.2271Y-0.988
X11.2275Y-1.0643
X11.2295Y-3.9358
X11.2298Y-1.9236
X11.231Y-2.205
X11.231Y-0.5705
X11.2312Y-1.8478
X11.2315Y-2.4154
X11.2317Y-2.1352
X11.2331Y-3.2946
X11.2341Y-1.7688
X11.2342Y-2.3468
X11.2369Y-3.1127
X11.238Y-2.5543
X11.2383Y-2.0633
X11.2384Y-2.2633
X11.2571Y-2.1594
X11.2576Y-3.8562
X11.2579Y-0.8957
X11.2591Y-2.3099
X11.2591Y-2.3809
X11.2594Y-2.5137
X11.2602Y-3.798
X11.2613Y-1.8811
X11.2619Y-0.6053
X11.2619Y-1.8104
X11.262Y-0.9547
X11.2621Y-0.1398
X11.263Y-1.037
X11.2634Y-4.4035
X11.2652Y-1.9467
X11.2662Y-4.3335
X11.2669Y-3.1541
X11.2676Y-2.2259
X11.2679Y-0.6776
X11.2686Y-1.4822
X11.2687Y-3.0777
X11.2707Y-0.4975
X11.2719Y-2.0845
X11.2725Y-2.5833
X11.2729Y-2.0215
X11.2734Y-3.2558
X11.274Y-0.0649
X11.2744Y-2.6588
X11.2924Y-1.6622
X11.2926Y-4.1467
X11.293Y-3.1206
X11.2938Y-1.8478
X11.2944Y-0.9901
X11.2951Y-0.1719
X11.2958Y-1.5201
X11.2966Y-1.7803
X11.297Y-0.5292
X11.2972Y-0.1152
X11.2989Y-4.3664
X11.2994Y-4.4366
X11.301Y-1.5897
X11.3021Y-2.5459
X11.3023Y-1.0629
X11.3033Y-0.6316
X11.3052Y-3.0571
X11.306Y-3.2974
X11.3068Y-0.8519
X11.3088Y-2.6284
X11.3093Y-2.4195
X11.3093Y-0.9212
X11.328Y-0.073
X11.3295Y-2.5913
X11.3321Y-1.0976
X11.3322Y-3.1546
X11.3322Y-0.9636
X11.333Y-3.0921
X11.334Y-1.5683
X11.3346Y-1.0346
X11.3365Y-1.4894
X11.337Y-3.2553
X11.3372Y-2.5117
X11.3386Y-0.1515
X11.3399Y-1.6389
X11.3416Y-0.2109
X11.3426Y-4.1916
X11.3438Y-4.4005
X11.3444Y-4.4738
X11.3444Y-1.8151
X11.3445Y-0.5639
X11.345Y-0.8832
X11.3451Y-0.8212
X11.3638Y-4.216
X11.3641Y-2.171
X11.3646Y-3.1202
X11.3648Y-0.5389
X11.3661Y-0.1872
X11.3663Y-0.5961
X11.3666Y-4.1397
X11.3669Y-4.4352
X11.3669Y-1.0713
X11.3711Y-3.9428
X11.3713Y-3.724
X11.3714Y-1.7769
X11.3714Y-1.5253
X11.3719Y-0.8475
X11.3727Y-0.9183
X11.3733Y-3.8676
X11.3743Y-3.3033
X11.3758Y-1.5987
X11.3759Y-1.0021
X11.3762Y-3.8015
X11.3779Y-0.7767
X11.3782Y-2.2286
X11.3786Y-2.5594
X11.3794Y-1.1399
X11.38Y-0.1123
X11.3991Y-1.0378
X11.4Y-2.2002
X11.4009Y-2.7271
X11.4012Y-0.5699
X11.4019Y-3.2678
X11.4025Y-0.892
X11.4034Y-2.2679
X11.4045Y-3.9662
X11.4054Y-1.1049
X11.4057Y-3.5171
X11.4067Y-0.9501
X11.4075Y-1.558
X11.4083Y-3.3271
X11.4085Y-0.0689
X11.4088Y-3.8911
X11.4095Y-0.8245
X11.4109Y-1.743
X11.4121Y-3.1592
X11.4124Y-3.7503
X11.4145Y-2.5164
X11.4156Y-3.8255
X11.4342Y-0.9285
X11.4347Y-1.526
X11.4356Y-2.2414
X11.4365Y-3.2912
X11.4376Y-0.8487
X11.4393Y-1.0022
X11.4406Y-3.12
X11.4409Y-3.7928
X11.4429Y-3.8705
X11.4431Y-3.9276
X11.4435Y-1.7063
X11.4442Y-3.3649
X11.4452Y-3.7272
X11.4472Y-1.1381
X11.4472Y-3.4358
X11.4486Y-0.7745
X11.4506Y-1.0673
X11.4701Y-2.3742
X11.4705Y-0.8959
X11.4714Y-3.1556
X11.4721Y-3.8974
X11.4751Y-1.6624
X11.4753Y-3.264
X11.4754Y-3.7639
X11.4758Y-3.3283
X11.476Y-3.4789
X11.4774Y-0.9574
X11.4785Y-1.8825
X11.4801Y-2.441
X11.4813Y-1.0308
X11.4828Y-3.4029
X11.4849Y-3.8294
X11.4854Y-3.9671
X11.486Y-0.0667
X11.4866Y-0.821
X11.4869Y-1.1052
X11.5052Y-0.9305
X11.5075Y-2.4029
X11.5085Y-3.3676
X11.5089Y-0.4566
X11.5106Y-0.6037
X11.5111Y-3.123
X11.512Y-0.2864
X11.5132Y-3.2917
X11.5135Y-1.063
X11.514Y-0.5399
X11.5143Y-4.5431
X11.5144Y-0.7807
X11.5167Y-3.5161
X11.518Y-3.4333
X11.5183Y-1.6365
X11.5195Y-0.853
X11.5201Y-3.5748
X11.5208Y-0.9975
X11.5211Y-1.8431
X11.522Y-0.6839
X11.5422Y-1.8171
X11.5424Y-0.893
X11.5429Y-0.9653
X11.5446Y-0.6452
X11.5451Y-3.15
X11.5459Y-0.8117
X11.5463Y-2.341
X11.5471Y-1.8849
X11.5472Y-1.0231
X11.5474Y-0.5715
X11.5489Y-4.8293
X11.5503Y-0.067
X11.5509Y-3.2676
X11.5521Y-0.5017
X11.5523Y-3.4828
X11.5524Y-3.5402
X11.5529Y-3.405
X11.555Y-3.3302
X11.5771Y-0.2585
X11.5773Y-0.6122
X11.582Y-0.1019
X11.5823Y-2.3124
X11.5823Y-3.6888
X11.5836Y-3.0496
X11.5838Y-3.7525
X11.5848Y-2.546
X11.5859Y-3.1254
X11.5861Y-1.8465
X11.5862Y-3.5105
X11.5863Y-0.1807
X11.5869Y-0.5361
X11.5881Y-4.426
X11.5881Y-4.3549
X11.5899Y-1.9077
X11.5909Y-3.4388
X11.5915Y-4.5007
X11.5917Y-4.1493
X11.5931Y-0.4588
X11.5934Y-2.2422
X11.6122Y-0.5018
X11.6156Y-4.3891
X11.6184Y-0.5693
X11.6189Y-4.4631
X11.619Y-3.0885
X11.62Y-2.6533
X11.6201Y-2.5243
X11.6208Y-0.2099
X11.6211Y-3.467
X11.6225Y-3.7155
X11.6229Y-1.8848
X11.6229Y-0.1513
X11.6237Y-2.5873
X11.6237Y-3.7926
X11.6243Y-2.9811
X11.6251Y-2.3475
X11.6257Y-2.2752
X11.626Y-0.0721
X11.6261Y-4.1836
X11.6479Y-0.9986
X11.6502Y-0.9226
X11.6507Y-1.0729
X11.6511Y-0.7801
X11.6521Y-4.1484
X11.6537Y-2.3083
X11.6538Y-2.6188
X11.6539Y-2.6885
X11.6552Y-3.009
X11.6555Y-4.5042
X11.6578Y-0.1058
X11.6593Y-0.1877
X11.6593Y-3.7496
X11.6599Y-4.4331
X11.6602Y-1.9151
X11.6615Y-0.4649
X11.6617Y-0.5252
X11.6618Y-0.8534
X11.6631Y-0.2534
X11.6639Y-1.9862
X11.6643Y-4.2185
X11.6821Y-2.875
X11.6829Y-3.2213
X11.684Y-1.1067
X11.6844Y-1.0311
X11.6846Y-0.2818
X11.6855Y-0.3483
X11.6867Y-3.7277
X11.6872Y-0.9634
X11.6886Y-4.4696
X11.6899Y-0.4916
X11.6902Y-3.0482
X11.6906Y-4.8145
X11.6907Y-4.5383
X11.6907Y-3.7882
X11.6926Y-0.433
X11.6944Y-0.8091
X11.695Y-2.9399
X11.6955Y-0.8796
X11.6958Y-4.6806
X11.6964Y-0.0721
X11.6965Y-0.2096
X11.6969Y-4.1781
X11.6986Y-0.1468
X11.6988Y-4.6002
X11.7187Y-3.1844
X11.7191Y-0.176
X11.7195Y-0.7744
X11.7197Y-3.7546
X11.7204Y-4.6374
X11.7235Y-2.9067
X11.7245Y-2.9751
X11.7245Y-2.8342
X11.7249Y-4.2273
X11.7254Y-0.2581
X11.7259Y-0.8504
X11.7264Y-0.928
X11.7264Y-1.1305
X11.7269Y-0.3943
X11.7274Y-0.9987
X11.7281Y-1.0672
X11.729Y-0.315
X11.7313Y-4.1424
X11.7335Y-4.5658
X11.7337Y-4.4949
X11.7337Y-0.1112
X11.7345Y-0.4574
X11.7349Y-4.7184
X11.7534Y-0.89
X11.7534Y-3.7193
X11.7537Y-2.8804
X11.7537Y-3.7963
X11.7548Y-4.1874
X11.7564Y-1.6269
X11.7581Y-0.9594
X11.7589Y-1.0331
X11.7589Y-0.2826
X11.7604Y-1.1727
X11.7606Y-0.6828
X11.7614Y-0.3602
X11.7617Y-0.8138
X11.7634Y-0.2091
X11.7641Y-0.4248
X11.765Y-1.1013
X11.7667Y-0.1406
X11.7669Y-2.9447
X11.767Y-1.774
X11.7672Y-4.5373
X11.7682Y-4.4628
X11.7697Y-0.0737
X11.77Y-4.8155
X11.7898Y-3.7512
X11.7912Y-2.9143
X11.7923Y-0.1045
X11.7936Y-4.5046
X11.7936Y-4.2246
X11.7938Y-1.6657
X11.7942Y-0.9985
X11.7953Y-4.3168
X11.7964Y-0.9309
X11.7978Y-1.8105
X11.7985Y-1.0711
X11.7986Y-3.8256
X11.7989Y-0.1833
X11.7991Y-0.8507
X11.8001Y-0.6369
X11.8006Y-2.8324
X11.8011Y-0.3964
X11.8016Y-0.2532
X11.8016Y-4.1427
X11.8032Y-0.7901
X11.8045Y-0.3287
X11.824Y-0.8814
X11.8253Y-3.9417
X11.8266Y-3.7958
X11.8282Y-0.1517
X11.8285Y-0.6817
X11.8289Y-0.2195
X11.8293Y-3.8679
X11.8298Y-0.2926
X11.8298Y-3.4452
X11.83Y-4.8258
X11.8301Y-4.3604
X11.8319Y-0.0752
X11.8319Y-2.875
X11.8328Y-4.4749
X11.8346Y-0.8098
X11.8349Y-0.9648
X11.8383Y-3.3631
X11.8386Y-0.613
X11.8395Y-1.7777
X11.8406Y-1.0382
X11.8409Y-0.3604
X11.8594Y-0.5691
X11.8616Y-3.7495
X11.8627Y-1.813
X11.8633Y-4.7167
X11.8643Y-4.3268
X11.8649Y-0.1708
X11.865Y-0.3149
X11.8651Y-2.2294
X11.8653Y-3.478
X11.8655Y-3.4041
X11.8673Y-1.0018
X11.8705Y-0.1163
X11.8709Y-4.2236
X11.8709Y-0.9248
X11.8721Y-3.0557
X11.8724Y-2.7927
X11.8742Y-0.2482
X11.8746Y-3.3389
X11.8759Y-0.779
X11.8761Y-0.6374
X11.8768Y-0.8578
X11.8948Y-4.8176
X11.895Y-0.5331
X11.8952Y-0.0656
X11.8987Y-0.6818
X11.8998Y-2.8427
X11.9002Y-0.6067
X11.9016Y-0.953
X11.9028Y-0.2226
X11.9052Y-3.0222
X11.9053Y-2.7569
X11.9055Y-0.1475
X11.906Y-4.3612
X11.9063Y-0.2864
X11.9069Y-0.8929
X11.908Y-1.9104
X11.9095Y-0.8226
X11.91Y-1.8408
X11.9311Y-2.8085
X11.9319Y-2.974
X11.9323Y-4.7133
X11.9327Y-2.4441
X11.9332Y-4.2207
X11.9337Y-0.1036
X11.9338Y-0.1858
X11.9351Y-0.6366
X11.9371Y-0.7754
X11.9381Y-3.9743
X11.9386Y-3.0542
X11.9386Y-0.5737
X11.939Y-2.2385
X11.9418Y-0.8594
X11.9434Y-4.3317
X11.9437Y-0.2423
X11.9442Y-0.9272
X11.9445Y-1.948
X11.945Y-2.7381
X11.9455Y-0.5026
X11.9474Y-1.8869
X11.9673Y-0.2168
X11.9678Y-0.4609
X11.9691Y-4.8158
X11.9695Y-4.1558
X11.9712Y-0.1402
X11.9736Y-4.0031
X11.9742Y-0.5423
X11.9744Y-1.8417
X11.9749Y-0.078
X11.9765Y-1.9134
X11.9773Y-0.9522
X11.9775Y-0.6702
X11.9789Y-4.3668
X11.9792Y-1.5585
X11.9807Y-0.6042
X11.9811Y-0.8234
X11.9813Y-2.771
X11.9826Y-0.8873
X11.9828Y-3.077
X12.0013Y-1.8758
X12.0015Y-2.7386
X12.0026Y-0.9183
X12.0028Y-3.974
X12.0033Y-1.3883
X12.0037Y-0.4298
X12.0053Y-3.1862
X12.006Y-0.5703
X12.0066Y-4.1768
X12.0066Y-0.6366
X12.0067Y-0.1076
X12.0085Y-0.4919
X12.0089Y-0.1874
X12.0099Y-1.3121
X12.011Y-0.7734
X12.0113Y-3.1127
X12.0115Y-4.3172
X12.0132Y-3.2693
X12.0144Y-4.0388
X12.0156Y-0.8542
X12.0172Y-2.7972
X12.0186Y-1.4518
X12.0365Y-0.5367
X12.0365Y-1.8503
X12.0368Y-0.8252
X12.037Y-2.1701
X12.0385Y-4.1438
X12.0394Y-0.0646
X12.0409Y-4.8173
X12.0416Y-2.7721
X12.0428Y-2.372
X12.0429Y-4.0073
X12.0431Y-2.6869
X12.0435Y-2.4553
X12.0462Y-0.4619
X12.0475Y-1.4269
X12.048Y-3.226
X12.048Y-0.1395
X12.0494Y-3.1582
X12.0499Y-2.3085
X12.0504Y-1.2122
X12.0505Y-0.9525
X12.0513Y-1.346
X12.0521Y-1.5583
X12.0531Y-3.088
X12.0535Y-1.9234
X12.0538Y-0.8825
X12.0538Y-2.2289
X12.0539Y-0.3848
X12.0722Y-0.8561
X12.0728Y-2.338
X12.0742Y-2.4829
X12.075Y-0.9172
X12.075Y-2.731
X12.0755Y-3.1279
X12.0786Y-0.7747
X12.0788Y-3.7222
X12.0797Y-2.4072
X12.0801Y-2.2062
X12.0814Y-2.801
X12.0815Y-1.3217
X12.0818Y-3.1927
X12.0827Y-1.3784
X12.0832Y-3.4027
X12.0833Y-0.1026
X12.0836Y-1.1753
X12.0843Y-4.4584
X12.0849Y-0.9901
X12.0851Y-4.0474
X12.0851Y-1.4634
X12.0853Y-1.8725
X12.0883Y-1.5949
X12.0886Y-2.2623
X12.1085Y-1.7089
X12.1097Y-1.9196
X12.1106Y-2.5905
X12.1117Y-0.894
X12.1119Y-4.1471
X12.1119Y-3.4327
X12.1128Y-2.3803
X12.1136Y-1.0362
X12.1142Y-1.3417
X12.1143Y-0.0751
X12.1143Y-0.8083
X12.1143Y-2.2255
X12.1143Y-2.5257
X12.1148Y-0.9514
X12.116Y-3.16
X12.1169Y-4.8192
X12.1175Y-1.6285
X12.1176Y-2.4539
X12.1184Y-3.0922
X12.1191Y-2.3127
X12.1197Y-1.2013
X12.1203Y-1.4189
X12.1204Y-3.3609
X12.1206Y-1.8499
X12.1213Y-1.107
X12.1234Y-2.7698
X12.124Y-1.5611
X12.1244Y-2.1684
X12.1434Y-1.67
X12.1451Y-3.4023
X12.1456Y-2.4086
X12.1464Y-1.5973
X12.1471Y-1.062
X12.1478Y-3.1189
X12.1478Y-1.7366
X12.148Y-0.8604
X12.1487Y-0.7815
X12.1494Y-2.1191
X12.1512Y-2.2691
X12.1521Y-1.3873
X12.1526Y-1.461
X12.1526Y-4.0378
X12.1529Y-0.647
X12.1533Y-0.4935
X12.1534Y-0.9211
X12.1545Y-2.4744
X12.155Y-2.6218
X12.1558Y-1.8841
X12.1572Y-2.1946
X12.1573Y-2.3482
X12.1583Y-3.3247
X12.1583Y-0.9965
X12.1591Y-0.1025
X12.1594Y-1.3156
X12.1596Y-3.4752
X12.1597Y-2.5564
X12.16Y-1.132
X12.1783Y-0.5354
X12.1783Y-1.5585
X12.1786Y-2.3691
X12.179Y-2.4516
X12.179Y-2.5867
X12.1797Y-1.7003
X12.1798Y-4.1432
X12.1806Y-0.68
X12.1809Y-1.4149
X12.183Y-2.0516
X12.1836Y-2.2388
X12.1838Y-2.5131
X12.184Y-3.3021
X12.1856Y-4.2105
X12.1859Y-3.4379
X12.187Y-3.5052
X12.1873Y-0.6006
X12.1877Y-0.8196
X12.1888Y-1.9079
X12.1897Y-2.6525
X12.19Y-1.843
X12.1901Y-2.1574
X12.1902Y-0.0734
X12.1905Y-1.3506
X12.1909Y-3.3684
X12.1916Y-1.0964
X12.1927Y-1.0293
X12.1932Y-0.9596
X12.1944Y-0.8804
X12.1948Y-2.3054
X12.1955Y-1.9776
X12.1956Y-1.1733
X12.1958Y-1.6393
X12.2136Y-3.5403
X12.2141Y-3.2626
X12.2149Y-1.376
X12.2149Y-1.5982
X12.2167Y-0.8599
X12.2168Y-2.0166
X12.217Y-2.1908
X12.217Y-3.3322
X12.2174Y-2.4188
X12.2176Y-0.4972
X12.2185Y-0.9978
X12.219Y-0.5631
X12.2193Y-0.7762
X12.2194Y-4.1851
X12.2197Y-3.4698
X12.2199Y-1.6589
X12.2199Y-4.013
X12.2218Y-0.109
X12.222Y-1.446
X12.2229Y-2.3359
X12.2242Y-1.8789
X12.2245Y-3.4008
X12.2248Y-1.1338
X12.2249Y-2.5454
X12.2253Y-1.7386
X12.2253Y-2.2707
X12.226Y-1.3091
X12.2273Y-0.6367
X12.2276Y-2.4791
X12.2283Y-2.7001
X12.2286Y-1.9426
X12.2286Y-1.0734
X12.2287Y-1.215
X12.2298Y-4.3209
X12.2303Y-0.9296
X12.2305Y-2.0924
X12.2309Y-2.6314
X12.2499Y-2.1208
X12.2503Y-2.0548
X12.2504Y-3.1196
X12.2504Y-1.916
X12.2505Y-3.5156
X12.2513Y-3.3601
X12.2513Y-1.3562
X12.2532Y-2.7342
X12.2536Y-3.0443
X12.2537Y-4.2103
X12.2538Y-0.53
X12.2545Y-0.081
X12.2546Y-4.1481
X12.2554Y-2.6573
X12.2559Y-1.9802
X12.2561Y-3.3045
X12.2561Y-2.2304
X12.2562Y-3.9791
X12.2563Y-3.7951
X12.2566Y-2.3786
X12.2566Y-2.9119
X12.257Y-1.0921
X12.2575Y-1.4193
X12.2589Y-0.8933
X12.259Y-3.4427
X12.2598Y-3.1839
X12.26Y-0.6728
X12.2602Y-4.0501
X12.2602Y-1.6255
X12.2613Y-2.4516
X12.2635Y-0.5978
X12.2638Y-0.8218
X12.2638Y-2.3016
X12.2648Y-2.5198
X12.2648Y-1.6947
X12.2649Y-2.5941
X12.2656Y-1.1723
X12.2658Y-2.9827
X12.2849Y-0.785
X12.2886Y-1.4513
X12.2887Y-4.8239
X12.2909Y-1.3769
X12.2917Y-0.5026
X12.2927Y-0.1114
X12.2928Y-0.8507
X12.294Y-4.3298
X12.2947Y-1.1332
X12.2952Y-4.1768
X12.2955Y-1.3084
X12.2976Y-4.0062
X12.2987Y-0.6362
X12.3006Y-0.561
X12.3012Y-1.2097
X12.3209Y-0.5268
X12.3213Y-0.071
X12.3234Y-4.3665
X12.3234Y-0.221
X12.3237Y-4.2262
X12.3242Y-0.8156
X12.3246Y-1.1729
X12.3253Y-4.8629
X12.3258Y-4.4224
X12.3259Y-1.3397
X12.3267Y-0.5969
X12.3277Y-4.7102
X12.3309Y-4.5089
X12.3314Y-0.6685
X12.3316Y-0.8958
X12.3332Y-4.14
X12.3336Y-3.9652
X12.3362Y-4.0332
X12.3376Y-1.4242
X12.3562Y-2.0271
X12.3569Y-4.3196
X12.3571Y-3.4773
X12.3579Y-3.2611
X12.358Y-4.8133
X12.3585Y-2.1643
X12.3592Y-0.6467
X12.3592Y-0.8573
X12.3592Y-3.0547
X12.3595Y-2.0849
X12.3596Y-3.3291
X12.3606Y-4.4008
X12.3607Y-1.9539
X12.3608Y-4.4705
X12.3608Y-3.6088
X12.3609Y-2.9846
X12.3609Y-2.5173
X12.361Y-2.227
X12.3613Y-0.1131
X12.3619Y-3.397
X12.3625Y-1.3893
X12.3625Y-1.7114
X12.3629Y-1.6392
X12.3634Y-2.5935
X12.3635Y-2.4498
X12.3635Y-1.8837
X12.3636Y-2.7339
X12.3637Y-3.5531
X12.3639Y-2.3123
X12.3646Y-0.5651
X12.3662Y-3.1239
X12.3669Y-4.0102
X12.3678Y-3.1852
X12.3684Y-2.9095
X12.3706Y-2.371
X12.3709Y-0.7822
X12.3721Y-2.6661
X12.3727Y-4.1802
X12.3909Y-0.0734
X12.3911Y-2.7003
X12.3915Y-2.1319
X12.3923Y-2.4885
X12.3924Y-1.7302
X12.3934Y-1.5935
X12.3938Y-3.2338
X12.3938Y-3.2931
X12.3949Y-4.4399
X12.3951Y-2.2037
X12.3952Y-3.9746
X12.3952Y-3.1471
X12.3956Y-0.6093
X12.3956Y-2.7614
X12.3959Y-2.0484
X12.396Y-3.517
X12.3962Y-1.8529
X12.3962Y-3.3665
X12.3964Y-1.6718
X12.3966Y-2.2756
X12.3976Y-3.577
X12.3979Y-1.9848
X12.3981Y-4.1547
X12.3986Y-2.332
X12.3988Y-3.4381
X12.399Y-0.8176
X12.399Y-0.534
X12.4006Y-3.0077
X12.4008Y-2.5562
X12.4019Y-3.6434
X12.4019Y-4.3522
X12.402Y-2.4161
X12.4023Y-4.5064
X12.404Y-3.0787
X12.4043Y-4.218
X12.4054Y-0.881
X12.4063Y-2.9367
X12.4073Y-0.6719
X12.4075Y-2.626
X12.4082Y-1.91
X12.4273Y-3.1924
X12.4276Y-2.5902
X12.4288Y-4.5323
X12.4292Y-4.3198
X12.4295Y-4.1847
X12.4301Y-3.4801
X12.4306Y-2.668
X12.4318Y-0.5623
X12.4322Y-4.392
X12.4324Y-3.3372
X12.4326Y-1.7088
X12.433Y-3.6144
X12.4331Y-0.8489
X12.4332Y-2.165
X12.4336Y-2.8031
X12.434Y-2.453
X12.4345Y-2.3139
X12.4346Y-3.3973
X12.4355Y-3.6824
X12.4364Y-2.3843
X12.4367Y-4.4603
X12.4373Y-3.5465
X12.4376Y-2.5128
X12.4382Y-2.2328
X12.4384Y-0.7843
X12.4386Y-4.6127
X12.4392Y-0.6422
X12.4393Y-3.122
X12.44Y-1.632
X12.4402Y-2.7327
X12.4433Y-1.8795
X12.4437Y-3.2671
X12.4625Y-3.6571
X12.4626Y-0.6664
X12.4627Y-4.2126
X12.4631Y-2.6244
X12.4634Y-3.5155
X12.4641Y-3.3668
X12.4653Y-3.2227
X12.4659Y-1.5608
X12.4661Y-4.4285
X12.4663Y-3.5726
X12.467Y-3.7279
X12.4672Y-2.3333
X12.4677Y-4.5658
X12.4678Y-1.8481
X12.4699Y-2.4737
X12.4705Y-2.4197
X12.4708Y-4.3555
X12.4714Y-0.8811
X12.4714Y-3.1624
X12.4716Y-0.6118
X12.4722Y-0.492
X12.4728Y-4.646
X12.4741Y-3.4433
X12.4755Y-3.2949
X12.4757Y-2.5511
X12.4764Y-1.6621
X12.4765Y-1.7343
X12.4766Y-4.5023
X12.4772Y-0.0673
X12.4775Y-2.7664
X12.4778Y-0.8169
X12.4778Y-2.7024
X12.4781Y-2.1959
X12.4783Y-2.2678
X12.4973Y-2.2373
X12.4974Y-2.5245
X12.4975Y-2.7317
X12.498Y-3.6182
X12.4985Y-0.6412
X12.4996Y-0.7732
X12.4997Y-3.7656
X12.5002Y-4.3292
X12.5014Y-4.8131
X12.5017Y-2.5946
X12.5023Y-3.1954
X12.5033Y-1.7069
X12.5033Y-0.465
X12.5038Y-2.3085
X12.5041Y-2.3739
X12.5061Y-0.5418
X12.5062Y-3.4017
X12.5064Y-1.589
X12.5072Y-0.2781
X12.5077Y-1.4224
X12.5084Y-2.4503
X12.5088Y-2.805
X12.509Y-3.3277
X12.5103Y-3.4831
X12.5104Y-1.3563
X12.5106Y-0.8597
X12.5108Y-3.5437
X12.5112Y-4.7203
X12.5113Y-0.9188
X12.5114Y-3.1194
X12.5118Y-2.6572
X12.5119Y-4.4655
X12.5121Y-4.3944
X12.5126Y-3.688
X12.5126Y-4.5371
X12.5132Y-3.2703
X12.5147Y-1.8844
X12.533Y-1.38
X12.5334Y-4.4374
X12.535Y-0.5735
X12.5351Y-1.5679
X12.5353Y-1.6233
X12.5354Y-4.3603
X12.5356Y-3.6534
X12.5371Y-0.8913
X12.5373Y-3.72
X12.5375Y-4.1089
X12.5375Y-2.3436
X12.5385Y-2.6275
X12.5388Y-2.7607
X12.539Y-3.2322
X12.5395Y-0.6692
X12.54Y-3.5846
X12.5401Y-3.4461
X12.541Y-0.0769
X12.5412Y-3.1569
X12.5414Y-3.293
X12.5415Y-2.2714
X12.5427Y-4.8556
X12.5427Y-4.5027
X12.5429Y-3.3634
X12.5433Y-3.5126
X12.5441Y-1.7401
X12.5444Y-2.5488
X12.5445Y-0.5027
X12.5445Y-2.4092
X12.5451Y-2.482
X12.5452Y-2.155
X12.5469Y-1.4473
X12.5473Y-2.6875
X12.5495Y-0.8186
X12.5496Y-1.8478
X12.569Y-4.4036
X12.5697Y-2.5942
X12.5703Y-0.1138
X12.5716Y-0.1717
X12.5724Y-1.4272
X12.5734Y-2.1967
X12.5739Y-0.8564
X12.5744Y-4.3225
X12.5749Y-1.8819
X12.5749Y-2.5197
X12.5751Y-0.5974
X12.5753Y-1.341
X12.5758Y-2.3086
X12.577Y-4.8203
X12.5796Y-0.7811
X12.5812Y-1.6661
X12.5818Y-0.4692
X12.5821Y-0.2517
X12.5842Y-0.53
X12.5846Y-1.5934
X12.5848Y-4.4697
X12.6038Y-4.369
X12.6039Y-0.6385
X12.604Y-0.5024
X12.6051Y-1.6343
X12.6064Y-4.7164
X12.6067Y-0.8173
X12.6067Y-0.5731
X12.6071Y-0.0695
X12.611Y-1.3781
X12.6134Y-1.4565
X12.6145Y-0.1521
X12.6149Y-1.8531
X12.6149Y-1.6943
X12.615Y-4.4268
X12.6158Y-0.8874
X12.6188Y-2.2322
X12.6189Y-4.8631
X12.6193Y-1.5614
X12.6208Y-2.5515
X12.6209Y-0.2216
X12.6389Y-1.736
X12.6394Y-0.8573
X12.64Y-4.3974
X12.6415Y-0.6073
X12.6427Y-1.422
X12.6428Y-1.8785
X12.6437Y-3.4454
X12.6441Y-3.2912
X12.6445Y-2.2696
X12.6446Y-3.5078
X12.6448Y-0.1776
X12.6454Y-3.5849
X12.6455Y-3.3619
X12.6456Y-1.3081
X12.6458Y-0.6671
X12.646Y-0.1079
X12.6464Y-0.456
X12.6475Y-1.6038
X12.6489Y-3.6532
X12.649Y-4.3258
X12.6491Y-4.8251
X12.6492Y-2.5828
X12.65Y-3.1609
X12.6522Y-1.668
X12.6526Y-2.5259
X12.654Y-1.0989
X12.6549Y-0.2573
X12.6555Y-0.7849
X12.6557Y-0.5261
X12.6743Y-3.2676
X12.6759Y-0.6387
X12.6759Y-4.8482
X12.6764Y-0.4305
X12.6774Y-3.613
X12.6776Y-1.8405
X12.6784Y-4.3585
X12.68Y-0.0776
X12.6804Y-0.5722
X12.6807Y-1.3469
X12.6809Y-0.8087
X12.6823Y-3.546
X12.6842Y-3.4053
X12.6844Y-1.277
X12.6854Y-2.2389
X12.6855Y-0.8931
X12.6857Y-1.6955
X12.686Y-1.6386
X12.686Y-1.449
X12.6868Y-3.1163
X12.6868Y-0.1523
X12.6868Y-1.9164
X12.6872Y-0.2157
X12.6877Y-0.2856
X12.6882Y-2.5501
X12.6882Y-0.4959
X12.6888Y-4.7221
X12.6897Y-3.325
X12.6899Y-0.3644
X12.691Y-3.4667
X12.6917Y-3.1957
X12.7099Y-1.2356
X12.7109Y-0.2469
X12.7115Y-3.2238
X12.7122Y-0.4005
X12.7127Y-0.6108
X12.713Y-4.293
X12.7135Y-3.1556
X12.7138Y-1.8865
X12.7158Y-0.5351
X12.7166Y-3.3767
X12.7169Y-1.6663
X12.717Y-3.5807
X12.7181Y-1.4909
X12.7187Y-0.1032
X12.7188Y-3.4343
X12.7203Y-1.3184
X12.7216Y-0.7862
X12.7219Y-3.5038
X12.723Y-4.396
X12.7233Y-0.6832
X12.7239Y-4.8293
X12.7241Y-1.3779
X12.7241Y-0.8481
X12.7245Y-0.4548
X12.7257Y-3.3058
X12.7262Y-2.515
X12.7262Y-1.7418
X12.7267Y-2.2675
X12.7272Y-0.1754
X12.7272Y-0.325
X12.7454Y-1.4221
X12.746Y-1.2086
X12.7465Y-1.909
X12.748Y-0.1378
X12.7487Y-1.5177
X12.7489Y-0.4914
X12.7489Y-3.3249
X12.7489Y-4.8588
X12.7492Y-0.0696
X12.7505Y-2.2347
X12.7506Y-0.8167
X12.751Y-4.715
X12.7512Y-1.7027
X12.7519Y-0.2833
X12.753Y-4.333
X12.7531Y-2.3046
X12.7533Y-3.2672
X12.7538Y-1.3396
X12.7541Y-1.8468
X12.7557Y-3.4093
X12.7565Y-3.191
X12.7566Y-3.4742
X12.7573Y-0.6432
X12.7574Y-0.5746
X12.7577Y-1.0296
X12.759Y-1.2769
X12.7594Y-0.351
X12.7599Y-0.9603
X12.7608Y-3.5376
X12.7608Y-0.4229
X12.761Y-0.8929
X12.7611Y-3.1132
X12.7619Y-0.222
X12.7808Y-1.3066
X12.7814Y-1.739
X12.7816Y-0.3233
X12.7818Y-0.3955
X12.782Y-0.1824
X12.7828Y-1.2352
X12.7834Y-0.4617
X12.7836Y-1.1757
X12.7843Y-3.3669
X12.786Y-3.2952
X12.7863Y-3.5165
X12.7872Y-0.8485
X12.7872Y-0.9995
X12.7881Y-0.6093
X12.7885Y-0.7846
X12.7888Y-0.1013
X12.7901Y-0.2534
X12.7904Y-0.9297
X12.7909Y-0.675
X12.7923Y-1.4597
X12.7939Y-1.5596
X12.7942Y-3.432
X12.7951Y-4.4338
X12.7952Y-4.8225
X12.7955Y-4.0025
X12.7957Y-1.8739
X12.796Y-3.2259
X12.7969Y-1.3832
X12.7971Y-4.3544
X12.7978Y-0.5335
X12.817Y-1.2132
X12.8171Y-3.472
X12.8173Y-0.2885
X12.8193Y-3.4035
X12.8194Y-0.9529
X12.8205Y-0.8134
X12.8211Y-0.1374
X12.8212Y-1.8396
X12.8216Y-0.8832
X12.8217Y-4.0406
X12.8231Y-1.4234
X12.8276Y-1.4988
X12.8276Y-1.3423
X12.8277Y-1.2727
X12.8279Y-4.4038
X12.8285Y-1.1326
X12.8307Y-3.2687
X12.8311Y-3.1984
X12.8313Y-0.0816
X12.8318Y-4.463
X12.8333Y-0.2204
X12.8333Y-3.6843
X12.8334Y-3.3341
X12.8334Y-4.8554
X12.8527Y-0.8557
X12.854Y-4.8168
X12.854Y-0.9249
X12.8543Y-3.3735
X12.8544Y-1.8799
X12.8545Y-3.7249
X12.8577Y-4.0685
X12.8584Y-0.1091
X12.8592Y-3.4431
X12.8597Y-3.2974
X12.861Y-0.1848
X12.8617Y-4.1803
X12.8623Y-4.4253
X12.8642Y-1.7336
X12.8653Y-0.7848
X12.8658Y-1.2405
X12.867Y-0.2509
X12.8682Y-3.2259
X12.8869Y-0.8233
X12.8904Y-0.8934
X12.8907Y-3.2586
X12.892Y-4.8563
X12.8934Y-3.3949
X12.8936Y-4.1108
X12.8937Y-0.0662
X12.8937Y-3.3354
X12.8952Y-0.6478
X12.8964Y-4.2122
X12.8971Y-4.034
X12.9034Y-0.1476
X12.9036Y-0.4905
X12.9234Y-4.0815
X12.9236Y-1.7302
X12.925Y-0.7729
X12.9284Y-3.3615
X12.929Y-0.1128
X12.9296Y-0.4641
X12.93Y-4.1458
X12.9329Y-1.6399
X12.9332Y-0.6083
X12.9338Y-3.3043
X12.9349Y-0.8526
X12.9354Y-4.2464
X12.9358Y-0.5404
X12.9381Y-1.5654
X12.9381Y-3.0819
X12.9398Y-0.6672
X12.9578Y-4.2826
X12.9581Y-1.5996
X12.9583Y-0.1444
X12.9588Y-3.9983
X12.9603Y-4.1888
X12.9639Y-1.5271
X12.9672Y-0.4999
X12.9676Y-3.3984
X12.9685Y-0.8139
X12.9687Y-3.3265
X12.9699Y-0.5621
X12.9722Y-3.011
X12.9723Y-0.0793
X12.9724Y-4.1163
X12.9725Y-0.6415
X12.9729Y-3.1213
X12.974Y-0.8821
X12.9742Y-2.3134
X12.994Y-1.4873
X12.9948Y-0.5356
X12.9965Y-0.7755
X12.9965Y-0.46
X12.9967Y-1.7414
X12.9977Y-4.1564
X12.9981Y-4.0471
X12.999Y-3.7849
X13.0014Y-3.367
X13.0014Y-3.0483
X13.0017Y-2.9702
X13.0024Y-0.68
X13.0027Y-0.1127
X13.0052Y-0.8469
X13.0058Y-4.2244
X13.0059Y-0.5993
X13.0065Y-2.3455
X13.0069Y-1.554
X13.0093Y-3.1528
X13.0096Y-3.977
X13.0107Y-1.6239
X13.0294Y-0.4944
X13.0295Y-0.5777
X13.0298Y-0.6385
X13.0306Y-0.8203
X13.0308Y-3.3947
X13.0313Y-4.0705
X13.0315Y-4.1817
X13.036Y-4.0017
X13.0374Y-4.2467
X13.0375Y-3.3371
X13.0378Y-1.5931
X13.038Y-4.8156
X13.0391Y-4.3318
X13.0424Y-1.5227
X13.0434Y-3.0801
X13.0442Y-0.8903
X13.0444Y-0.0735
X13.045Y-0.1383
X13.046Y-3.189
X13.0643Y-3.3649
X13.0644Y-4.4384
X13.0646Y-1.5683
X13.0647Y-4.3632
X13.0649Y-4.4981
X13.065Y-1.6388
X13.0652Y-3.118
X13.0666Y-3.9735
X13.0682Y-0.53
X13.0683Y-4.0344
X13.0684Y-1.7362
X13.0688Y-0.6119
X13.0692Y-4.1076
X13.0693Y-4.2829
X13.0724Y-1.8419
X13.0735Y-0.8527
X13.0748Y-0.0996
X13.0753Y-3.2313
X13.078Y-4.2158
X13.0782Y-4.717
X13.0784Y-3.4398
X13.0797Y-0.7779
X13.0805Y-0.679
X13.0809Y-0.1832
X13.0996Y-3.1553
X13.0999Y-0.8246
X13.1004Y-4.0718
X13.1011Y-0.8827
X13.1016Y-1.5256
X13.1019Y-0.5713
X13.1026Y-0.638
X13.1046Y-4.0127
X13.106Y-1.8848
X13.1063Y-0.2158
X13.1072Y-0.0707
X13.1091Y-3.3374
X13.1092Y-4.3191
X13.1093Y-3.4759
X13.1104Y-4.394
X13.1107Y-3.4017
X13.111Y-4.2532
X13.1112Y-0.1516
X13.1119Y-4.1498
X13.1161Y-1.5968
X13.1356Y-0.6774
X13.1363Y-1.7454
X13.1392Y-0.6106
X13.1424Y-1.5651
X13.1431Y-0.528
X13.1437Y-3.7956
X13.1441Y-0.7756
X13.1447Y-1.6315
X13.1487Y-3.1972
X13.1491Y-3.0844
X13.1507Y-1.8422
X13.1705Y-1.6038
X13.1734Y-0.8174
X13.1743Y-0.5667
X13.18Y-0.0762
X13.1824Y-0.6333
X13.1832Y-1.5172
X13.1841Y-3.2262
X13.1852Y-3.126
X13.1874Y-3.8235
X13.214Y-3.7616
X13.2215Y-3.1512
X13.2283Y-4.6929
X13.2447Y-3.185
X13.2505Y-0.0686
X13.2522Y-3.7871
X13.2545Y-3.7246
X13.2563Y-2.2382
X13.2771Y-3.7667
X13.2783Y-1.0342
X13.2788Y-2.0229
X13.2796Y-0.5029
X13.2813Y-1.2699
X13.284Y-3.229
X13.2848Y-4.8929
X13.2858Y-4.0399
X13.2863Y-4.8135
X13.2875Y-1.5608
X13.2894Y-1.4938
X13.29Y-3.9658
X13.2908Y-0.7755
X13.2924Y-2.4486
X13.2929Y-0.6361
X13.2942Y-0.5685
X13.3143Y-1.8507
X13.3151Y-3.9997
X13.3151Y-3.502
X13.3158Y-1.5273
X13.3181Y-4.9212
X13.3183Y-0.9213
X13.3188Y-0.6837
X13.3205Y-0.5398
X13.3214Y-0.4566
X13.3214Y-3.7222
X13.3218Y-4.8609
X13.3223Y-4.2626
X13.3224Y-0.9978
X13.3227Y-4.3324
X13.3232Y-3.935
X13.3263Y-0.2471
X13.3272Y-0.8255
X13.3273Y-1.7371
X13.3275Y-1.2387
X13.3278Y-0.1817
X13.3281Y-1.5911
X13.3292Y-0.6
X13.3296Y-0.0746
X13.3483Y-1.4949
X13.3506Y-0.8488
X13.3515Y-4.3682
X13.3524Y-4.8864
X13.3524Y-1.2781
X13.3528Y-1.5616
X13.3533Y-1.8739
X13.3541Y-0.4998
X13.3545Y-4.8159
X13.3555Y-1.6262
X13.3561Y-1.0253
X13.3567Y-3.9758
X13.3582Y-0.6486
X13.3584Y-4.2931
X13.3588Y-0.5605
X13.3588Y-4.7101
X13.3595Y-0.7764
X13.362Y-4.2108
X13.3635Y-0.9508
X13.364Y-3.8996
X13.3647Y-0.117
X13.3649Y-0.2096
X13.3831Y-4.8558
X13.384Y-2.299
X13.3855Y-3.932
X13.3865Y-1.1989
X13.388Y-2.3695
X13.3898Y-0.6075
X13.39Y-1.7374
X13.3901Y-2.448
X13.3901Y-2.7614
X13.3913Y-0.9959
X13.3914Y-0.0726
X13.3919Y-4.9345
X13.3919Y-0.8222
X13.3923Y-4.1854
X13.3926Y-0.1488
X13.3932Y-1.8475
X13.3945Y-0.8895
X13.395Y-1.5891
X13.3951Y-3.8647
X13.3956Y-1.5217
X13.3958Y-4.2475
X13.3959Y-0.2573
X13.397Y-0.4561
X13.3975Y-2.2288
X13.3984Y-4.7552
X13.3985Y-0.6714
X13.4003Y-0.5259
X13.4004Y-4.3225
X13.4186Y-2.3486
X13.4194Y-3.821
X13.42Y-0.2854
X13.4211Y-4.8856
X13.422Y-1.6352
X13.4221Y-0.4903
X13.4222Y-1.1709
X13.4229Y-2.2716
X13.4236Y-1.2427
X13.4238Y-4.1482
X13.4241Y-0.1732
X13.4241Y-1.3162
X13.4247Y-0.3603
X13.425Y-0.4351
X13.4263Y-2.4878
X13.4266Y-4.3581
X13.4267Y-1.034
X13.427Y-4.2244
X13.4271Y-1.5689
X13.4271Y-3.9075
X13.4276Y-1.8798
X13.4277Y-0.773
X13.4282Y-1.3759
X13.4284Y-0.6462
X13.4291Y-4.2936
X13.4291Y-0.8444
X13.4292Y-0.568
X13.4299Y-4.7861
X13.4308Y-1.1011
X13.4312Y-0.1079
X13.4314Y-2.191
X13.4322Y-4.7169
X13.4323Y-0.9168
X13.4354Y-1.4587
X13.436Y-2.4044
X13.4549Y-1.4123
X13.4556Y-1.2712
X13.4557Y-4.7421
X13.4558Y-4.9354
X13.456Y-4.1875
X13.4561Y-0.5991
X13.4562Y-0.9511
X13.4564Y-1.2129
X13.4573Y-0.0761
X13.4577Y-0.6751
X13.4604Y-0.5407
X13.4606Y-4.1148
X13.4608Y-4.8212
X13.4617Y-1.6002
X13.4619Y-0.3972
X13.4622Y-1.0713
X13.4623Y-0.2138
X13.4625Y-4.3217
X13.4631Y-0.8126
X13.4633Y-1.7326
X13.4635Y-0.8947
X13.4641Y-1.847
X13.4678Y-1.4817
X13.4681Y-0.4618
X13.4683Y-1.3438
X13.4691Y-3.8692
X13.4701Y-1.1287
X13.4712Y-0.3243
X13.4712Y-4.2617
X13.4712Y-0.1512
X13.4912Y-4.1463
X13.4917Y-0.4212
X13.492Y-1.5246
X13.4922Y-0.2458
X13.4927Y-0.7821
X13.4928Y-0.1152
X13.4953Y-1.8745
X13.4962Y-1.4629
X13.497Y-0.5725
X13.4975Y-1.1051
X13.4982Y-4.7064
X13.4983Y-1.3044
X13.4997Y-1.3859
X13.5003Y-0.9319
X13.5007Y-0.4945
X13.5008Y-4.7801
X13.5018Y-0.349
X13.502Y-4.0736
X13.5021Y-0.9999
X13.5022Y-1.6319
X13.5028Y-0.634
X13.5039Y-1.2381
X13.504Y-4.8491
X13.5051Y-0.8593
X13.5052Y-0.18
X13.5053Y-1.1659
X13.525Y-0.4699
X13.525Y-1.128
X13.5262Y-4.0453
X13.5267Y-0.6667
X13.5275Y-0.9498
X13.5279Y-1.2109
X13.5281Y-1.742
X13.5286Y-0.8254
X13.5291Y-4.7467
X13.5299Y-1.414
X13.5304Y-1.4935
X13.5324Y-2.6279
X13.5328Y-1.3545
X13.5354Y-0.8797
X13.5355Y-0.1402
X13.5364Y-0.2174
X13.5368Y-1.5581
X13.5372Y-4.111
X13.5375Y-0.385
X13.5377Y-4.8215
X13.5391Y-2.1618
X13.5398Y-0.6033
X13.5398Y-1.8403
X13.5402Y-4.8948
X13.5408Y-1.2762
X13.5408Y-0.5375
X13.5413Y-0.0647
X13.5414Y-0.2927
X13.5421Y-1.0231
X13.5604Y-4.0119
X13.561Y-0.9159
X13.5612Y-4.8614
X13.5613Y-4.7926
X13.5625Y-1.1715
X13.5639Y-1.3804
X13.5642Y-0.9895
X13.5658Y-0.7892
X13.5669Y-0.181
X13.5677Y-0.2489
X13.5684Y-0.1106
X13.569Y-0.8592
X13.5709Y-4.1513
X13.571Y-1.4613
X13.574Y-1.0589
X13.5748Y-1.238
X13.5766Y-4.0753
X13.5767Y-1.3128
X13.5961Y-1.2146
X13.5967Y-0.2094
X13.5987Y-0.8951
X13.5988Y-1.2826
X13.5991Y-0.81
X13.5997Y-1.0225
X13.6024Y-2.9842
X13.6024Y-4.1783
X13.6038Y-3.9767
X13.6091Y-0.9637
X13.6098Y-4.0441
X13.6113Y-4.1197
X13.6115Y-0.1452
X13.6119Y-0.0672
X13.6309Y-0.856
X13.6328Y-0.4944
X13.6339Y-0.7794
X13.6358Y-0.1118
X13.6389Y-4.7909
X13.6425Y-0.1775
X13.6449Y-3.9993
X13.6449Y-0.9302
X13.6454Y-4.0713
X13.6475Y-4.1447
X13.6665Y-0.8188
X13.6668Y-0.8828
X13.667Y-1.5555
X13.6687Y-1.7092
X13.6691Y-2.3745
X13.6715Y-3.8222
X13.6717Y-3.9701
X13.6718Y-3.1267
X13.672Y-0.6668
X13.6726Y-4.1099
X13.6733Y-0.0762
X13.6737Y-1.6329
X13.6756Y-0.139
X13.6771Y-0.4617
X13.6776Y-3.192
X13.6792Y-0.5337
X13.6808Y-0.6103
X13.6813Y-0.7532
X13.6839Y-4.0399
X13.7076Y-0.9173
X13.7078Y-1.5262
X13.7079Y-3.0771
X13.7079Y-3.2196
X13.7099Y-3.1578
X13.7101Y-0.5743
X13.7122Y-0.786
X13.7123Y-0.8487
X13.713Y-0.6385
X13.7157Y-0.7157
X13.717Y-0.497
X13.7171Y-3.2936
X13.7179Y-0.1017
X13.7194Y-1.5978
X13.7392Y-1.9147
X13.7396Y-0.5313
X13.7417Y-3.1188
X13.7418Y-0.8847
X13.7425Y-0.7373
X13.7428Y-0.1368
X13.7456Y-0.0735
X13.7474Y-0.4673
X13.7481Y-1.5552
X13.7503Y-1.4989
X13.7511Y-0.6837
X13.7523Y-0.6062
X13.7529Y-0.8244
X13.7751Y-0.5039
X13.7751Y-0.7046
X13.7771Y-0.9283
X13.7773Y-4.7413
X13.781Y-4.8934
X13.7824Y-1.5302
X13.7835Y-0.858
X13.7835Y-4.8138
X13.7836Y-4.1546
X13.7838Y-3.7629
X13.7851Y-0.1027
X13.7867Y-0.7784
X13.7879Y-3.8229
X13.7886Y-0.5753
X13.7891Y-0.6445
X13.8082Y-0.8943
X13.8089Y-0.0768
X13.8103Y-0.1485
X13.8116Y-1.9214
X13.8131Y-4.7061
X13.8142Y-0.5355
X13.8142Y-0.6727
X13.8149Y-4.8482
X13.8159Y-0.7507
X13.8164Y-0.6089
X13.8167Y-4.9308
X13.8168Y-4.7883
X13.8206Y-2.7013
X13.8208Y-1.5599
X13.8243Y-0.8232
X13.8461Y-1.5335
X13.8468Y-0.1138
X13.8476Y-0.9298
X13.8489Y-4.7528
X13.8498Y-2.7335
X13.8509Y-1.9579
X13.8511Y-4.8869
X13.8529Y-4.8199
X13.8533Y-0.1831
X13.8536Y-0.7759
X13.854Y-0.6323
X13.8555Y-0.7182
X13.8581Y-0.566
X13.8592Y-1.589
X13.8595Y-0.8442
X13.884Y-1.5531
X13.8864Y-4.8522
X13.8879Y-0.8128
X13.8892Y-4.7134
X13.8894Y-0.6699
X13.8896Y-0.5328
X13.89Y-0.7501
X13.8901Y-0.0769
X13.8906Y-0.6
X13.8908Y-4.9277
X13.8929Y-4.7924
X13.8963Y-4.5451
X13.9145Y-0.6472
X13.9177Y-4.7555
X13.9178Y-4.817
X13.9199Y-0.7183
X13.924Y-0.7867
X13.926Y-4.5814
X13.9261Y-4.8837
X13.9266Y-4.6523
X13.9291Y-1.5205
X13.931Y-0.5606
X13.9516Y-4.6122
X13.9559Y-4.6721
X13.9561Y-4.8542
X13.9571Y-4.7937
X13.9592Y-4.4966
X13.9628Y-0.0807
X13.9674Y-4.9346
X13.9856Y-4.9668
X13.9862Y-4.5426
X13.99Y-4.8141
X13.991Y0.0038
X13.9929Y-4.6357
X13.9936Y-4.4606
X13.9951Y-4.7067
X14.0015Y-4.8882
X14.0227Y-1.5673
X14.0232Y-0.7118
X14.0236Y-0.7801
X14.0258Y-4.5058
X14.0276Y-1.4935
X14.0296Y-4.576
X14.0297Y-0.0293
X14.0314Y-4.6753
X14.0316Y-1.0275
X14.0323Y-0.4973
X14.0345Y-3.9739
X14.0347Y-4.8551
X14.0353Y-4.7436
X14.0359Y-0.561
X14.0362Y-3.2237
X14.0363Y-0.6406
X14.0371Y-1.2739
X14.0372Y-4.9288
X14.0564Y-0.8085
X14.0571Y-0.248
X14.0588Y-0.7473
X14.0596Y-0.5962
X14.0596Y-4.7138
X14.0609Y-4.7856
X14.0627Y-1.8414
X14.0634Y-4.9547
X14.0638Y-0.6674
X14.0646Y-0.5255
X14.0664Y-2.4528
X14.0665Y-1.6007
X14.0668Y-1.5203
X14.0675Y-0.4674
X14.069Y-4.8919
X14.0716Y-0.0669
X14.0717Y-4.6087
X14.0725Y-4.2458
X14.0932Y-1.9564
X14.0932Y-0.6473
X14.094Y-0.179
X14.0942Y-4.7482
X14.095Y-1.4873
X14.0953Y-0.5056
X14.0963Y-0.7037
X14.0965Y-4.2159
X14.097Y-1.7692
X14.0986Y-4.9232
X14.0994Y-2.9752
X14.1004Y-1.6276
X14.1008Y-1.8804
X14.1013Y-2.6165
X14.1019Y-0.0394
X14.1023Y-0.7887
X14.1027Y-4.6444
X14.1037Y-0.1009
X14.1041Y-1.562
X14.1041Y-4.8279
X14.1044Y-0.9872
X14.1051Y-0.9258
X14.1068Y-1.6955
X14.1079Y-0.8478
X14.1089Y-0.5736
X14.1092Y-1.2365
X14.1272Y-1.2771
X14.1282Y-0.6086
X14.1283Y-4.2562
X14.1283Y-0.2063
X14.129Y-1.6601
X14.1315Y-4.7877
X14.1316Y-4.6065
X14.132Y-0.6773
X14.1323Y-1.592
X14.1324Y-4.8582
X14.1324Y-1.9122
X14.1329Y-4.6792
X14.1335Y-1.9797
X14.1335Y-0.2814
X14.1337Y-3.1509
X14.1337Y-3.9426
X14.1339Y-2.6638
X14.1356Y-0.8796
X14.1358Y-1.8135
X14.1359Y-3.0808
X14.1365Y-0.9517
X14.1369Y-1.5254
X14.1369Y-0.0705
X14.1372Y-1.7393
X14.1377Y-0.1353
X14.138Y-0.4606
X14.1382Y-0.8209
X14.1386Y-3.0181
X14.1397Y-2.5962
X14.1406Y-3.2221
X14.1411Y-0.7525
X14.1419Y-3.8581
X14.1419Y-4.9663
X14.1431Y-0.5302
X14.1447Y-1.025
X14.1626Y-3.9675
X14.1634Y-0.4897
X14.1637Y-3.048
X14.1638Y-1.7808
X14.1648Y-4.6349
X14.1649Y-0.5745
X14.165Y-0.3187
X14.165Y-3.1921
X14.1652Y-1.1373
X14.1657Y-0.9266
X14.1658Y-1.2109
X14.1665Y-4.7121
X14.1667Y-1.706
X14.1672Y-1.4587
X14.1677Y-4.2853
X14.1678Y-3.2701
X14.1678Y-3.1162
X14.1681Y-0.4005
X14.1683Y-2.973
X14.1686Y-4.8968
X14.1691Y-1.6334
X14.1702Y-0.9888
X14.1704Y-2.9058
X14.1714Y-0.714
X14.1715Y-0.7888
X14.1719Y-0.0103
X14.1724Y-0.2514
X14.1726Y-4.0407
X14.1728Y-5.0048
X14.173Y-0.8437
X14.1733Y-1.378
X14.1734Y-0.1841
X14.1741Y-4.8122
X14.1743Y-1.9536
X14.1752Y-0.1156
X14.1757Y-1.3065
X14.1763Y-1.8399
X14.177Y-0.6373
X14.1773Y-1.0571
X14.1774Y-2.6181
X14.1783Y-1.5599
X14.1792Y-3.8954
X14.1796Y-2.5494
X14.1799Y-4.1903
X14.1799Y-2.016
T2
X0.2047Y-0.7165
X0.248Y-0.9882
X0.3268Y-1.0039
X0.6299Y-0.9834
X0.689Y-4.8583
X0.6929Y-1.7126
X0.6929Y-2.4646
X0.6929Y-3.2126
X0.6929Y-3.9646
X0.7008Y-0.5866
X0.9673Y-4.6614
X0.9673Y-4.7034
X0.9685Y-1.1299
X1.0Y-1.1614
X1.0039Y-4.3898
X1.0079Y-4.6614
X1.0276Y-1.7126
X1.0394Y-3.9646
X1.0748Y-4.5079
X1.1024Y-0.7598
X1.1181Y-4.6181
X1.2126Y-2.4646
X1.3071Y-3.2126
X1.315Y-4.4567
X1.3228Y-4.5551
X1.6063Y-4.6575
X1.6102Y-4.5551
X1.6102Y-4.8386
X1.6575Y-2.7362
X2.0748Y-4.5551
X2.0787Y-4.6654
X2.0827Y-4.8465
X2.252Y-4.0787
X2.3543Y-4.126
X2.437Y-4.2362
X2.5394Y-4.5512
X2.5394Y-4.6614
X2.5394Y-4.8425
X2.9409Y-4.5551
X2.9409Y-4.6654
X2.9488Y-4.8465
X4.1378Y-3.9571
X4.3504Y-3.9284
X4.4252Y-4.8386
X4.5709Y-4.5827
X4.5984Y-4.9488
X4.6063Y-4.5393
X4.7774Y-4.8329
X4.8053Y-4.8049
X4.811Y-4.9213
X4.8701Y-3.9291
X4.9096Y-3.9291
X4.9488Y-4.874
X4.9491Y-3.9291
X4.9764Y-3.315
X4.9886Y-3.9291
X5.0276Y-1.7835
X5.1024Y-3.8543
X5.2244Y-2.5472
X5.2283Y-3.9291
X5.2283Y-4.1378
X5.2598Y-0.7717
X5.2717Y-3.9291
X5.2913Y-4.0512
X5.4843Y-3.9284
X5.5512Y-4.1378
X5.6102Y-3.8425
X5.6142Y-3.9409
X5.7244Y-3.9752
X5.9724Y-3.8504
X5.9724Y-3.9488
X6.3228Y-3.8465
X6.3228Y-3.9488
X6.7244Y-3.8425
X6.7244Y-3.9528
X6.9094Y-3.9932
X7.0394Y-3.8425
X7.0394Y-3.9488
X7.437Y-3.8386
X7.4409Y-3.9488
X7.6614Y-4.0112
X7.8543Y-3.8346
X7.8583Y-3.9488
X8.2205Y-3.8386
X8.2244Y-3.9449
X8.5906Y-3.8346
X8.5906Y-3.9488
X8.937Y-4.6555
X8.937Y-4.7736
X9.0276Y-3.8543
X9.0276Y-3.9449
X9.1614Y-4.8216
X9.4016Y-3.8543
X9.4016Y-3.9449
X9.4094Y-4.6555
X9.4094Y-4.7835
X9.6614Y-4.8396
X11.2087Y-4.0236
X11.2126Y-4.126
X11.4528Y-4.2362
X11.4724Y-4.7974
X11.4961Y-4.3386
X11.6181Y-4.7047
X11.6181Y-4.8268
X11.6693Y-1.5236
X11.685Y-1.6575
X11.878Y-4.0315
X11.8819Y-4.1299
X12.1024Y-4.2402
X12.1063Y-4.3386
X12.2244Y-4.8756
X12.4291Y-1.4843
X12.4331Y-4.7126
X12.437Y-4.8307
X12.685Y-2.9646
X12.7638Y-2.9173
X12.7913Y-4.1299
X12.8031Y-2.7283
X12.8346Y-3.1142
X12.9724Y-4.8936
X13.1417Y-4.7008
X13.1417Y-4.8268
X13.1692Y-4.5157
X13.1692Y-4.8858
X13.2087Y-4.5157
X13.2087Y-4.8858
X13.3425Y-4.4488
X13.3701Y-3.2874
X13.5Y-4.6142
X13.5315Y-3.2874
X13.5394Y-4.2362
X13.5945Y-4.3386
X13.6417Y-4.8504
X13.6575Y-2.7165
X13.6732Y-4.5118
X13.6957Y-3.3807
X13.7126Y-4.9213
X13.7795Y-4.5157
X14.063Y-2.2992
T3
X0.7835Y-1.0472
X0.9173Y-1.0472
X4.5197Y-4.2559
X4.66Y-4.5852
X4.7717Y-4.6969
X4.9528Y-4.8071
X5.0276Y-4.122
X5.252Y-4.5827
X12.5571Y-1.1772
X10.529Y-5.1575
X10.5524Y-5.1011
X10.5524Y-5.2139
X10.6088Y-5.0778
X10.6088Y-5.2372
X10.6651Y-5.1011
X10.6651Y-5.2139
X10.6885Y-5.1575
X7.0453Y-5.1575
X7.0686Y-5.1011
X7.0686Y-5.2139
X7.125Y-5.0778
X7.125Y-5.2372
X7.1814Y-5.1011
X7.1814Y-5.2139
X7.2047Y-5.1575
X0.0778Y0.1575
X0.1011Y0.2139
X0.1011Y0.1011
X0.1575Y0.2372
X0.1575Y0.0778
X0.2139Y0.2139
X0.2139Y0.1011
X0.2372Y0.1575
X10.529Y0.1575
X10.5524Y0.2139
X10.5524Y0.1011
X10.6088Y0.2372
X10.6088Y0.0778
X10.6651Y0.2139
X10.6651Y0.1011
X10.6885Y0.1575
X0.0778Y-5.1575
X0.1011Y-5.1011
X0.1011Y-5.2139
X0.1575Y-5.0778
X0.1575Y-5.2372
X0.2139Y-5.1011
X0.2139Y-5.2139
X0.2372Y-5.1575
X7.0453Y0.1575
X7.0686Y0.2139
X7.0686Y0.1011
X7.125Y0.2372
X7.125Y0.0778
X7.1814Y0.2139
X7.1814Y0.1011
X7.2047Y0.1575
X14.0128Y-5.1575
X14.0361Y-5.1011
X14.0361Y-5.2139
X14.0925Y-5.0778
X14.0925Y-5.2372
X14.1489Y-5.1011
X14.1489Y-5.2139
X14.1722Y-5.1575
X3.5615Y-5.1575
X3.5849Y-5.1011
X3.5849Y-5.2139
X3.6412Y-5.0778
X3.6412Y-5.2372
X3.6976Y-5.1011
X3.6976Y-5.2139
X3.721Y-5.1575
X14.0128Y0.1575
X14.0361Y0.2139
X14.0361Y0.1011
X14.0925Y0.2372
X14.0925Y0.0778
X14.1489Y0.2139
X14.1489Y0.1011
X14.1722Y0.1575
X3.5615Y0.1575
X3.5849Y0.2139
X3.5849Y0.1011
X3.6412Y0.2372
X3.6412Y0.0778
X3.6976Y0.2139
X3.6976Y0.1011
X3.721Y0.1575
T4
X4.5039Y-4.626
X4.5748Y-4.7953
X4.6148Y-4.1917
X4.689Y-4.1535
X12.4291Y-1.1299
T5
X0.0931Y-0.825
X0.0931Y-0.875
X0.0931Y-0.925
X0.1431Y-0.825
X0.1431Y-0.875
X0.1431Y-0.925
T6
X0.1569Y-0.1941
X0.3274Y-0.0956
X0.4423Y-0.6885
X0.5276Y-0.6392
X0.6128Y-0.59
X0.9656Y-0.2766
X0.9656Y-0.375
X0.9656Y-0.4734
X1.064Y-0.2766
X1.064Y-0.4734
X13.7766Y-1.686
X13.7766Y-1.7844
X13.875Y-1.7844
X13.9734Y-1.686
X13.9734Y-1.7844
X13.5557Y-2.4036
X13.5941Y-2.4942
X13.6326Y-2.5848
X14.0812Y-2.1806
X14.1581Y-2.3618
T7
X6.35Y-0.275
X6.6Y-0.175
X0.225Y-3.525
X0.475Y-3.425
X13.975Y-3.1
X14.075Y-3.35
X8.35Y-2.025
X8.6Y-1.925
X10.225Y-0.275
X10.475Y-0.175
X4.4125Y-3.525
X4.6625Y-3.425
X5.6Y-0.275
X5.85Y-0.175
X12.975Y-2.775
X13.225Y-2.675
X3.6625Y-3.525
X3.9125Y-3.425
X9.475Y-1.275
X9.725Y-1.175
X1.4125Y-4.275
X1.6625Y-4.175
X11.725Y-3.525
X11.975Y-3.425
X3.475Y-1.275
X3.725Y-1.175
X12.675Y-2.4
X12.775Y-2.65
X8.9125Y-3.525
X9.1625Y-3.425
X7.975Y-1.275
X8.225Y-1.175
X2.35Y-4.275
X2.6Y-4.175
X12.725Y-2.775
X12.975Y-2.675
X6.475Y-1.275
X6.725Y-1.175
X5.35Y-0.275
X5.6Y-0.175
X4.225Y-1.275
X4.475Y-1.175
X7.1Y-0.275
X7.35Y-0.175
X3.475Y-0.275
X3.725Y-0.175
X10.0375Y-2.775
X10.2875Y-2.675
X12.975Y-1.025
X13.225Y-0.925
X13.475Y-4.525
X13.725Y-4.425
X4.6Y-2.025
X4.85Y-1.925
X2.5375Y-2.775
X2.7875Y-2.675
X0.225Y-0.275
X0.475Y-0.175
X13.975Y-3.85
X14.075Y-4.1
X5.5375Y-2.775
X5.7875Y-2.675
X4.0375Y-2.775
X4.2875Y-2.675
X7.85Y-0.275
X8.1Y-0.175
X2.2563Y-4.275
X2.5063Y-4.175
X2.725Y-0.275
X2.975Y-0.175
X10.6Y-2.025
X10.85Y-1.925
X10.7875Y-2.775
X11.0375Y-2.675
X3.725Y-0.275
X3.975Y-0.175
X10.0375Y-4.275
X10.2875Y-4.175
X12.725Y-2.025
X12.975Y-1.925
X6.0062Y-4.275
X6.2562Y-4.175
X7.6Y-2.025
X7.85Y-1.925
X1.6937Y-3.525
X1.9437Y-3.425
X1.3187Y-2.775
X1.5687Y-2.675
X5.35Y-2.025
X5.6Y-1.925
X12.725Y-3.775
X12.975Y-3.675
X13.725Y-0.275
X13.975Y-0.175
X13.725Y-2.775
X13.975Y-2.675
X2.1625Y-3.525
X2.4125Y-3.425
X2.725Y-1.275
X2.975Y-1.175
X9.475Y-0.275
X9.725Y-0.175
X5.9125Y-3.525
X6.1625Y-3.425
X1.2688Y-3.525
X1.3687Y-3.775
X7.4125Y-3.525
X7.6625Y-3.425
X3.1Y-2.025
X3.35Y-1.925
X12.975Y-1.275
X13.225Y-1.175
X0.225Y-4.525
X0.475Y-4.425
X0.225Y-3.025
X0.475Y-2.925
X1.975Y-1.275
X2.225Y-1.175
X6.85Y-0.275
X7.1Y-0.175
X9.6625Y-3.525
X9.9125Y-3.425
X9.1Y-2.025
X9.35Y-1.925
X6.2875Y-2.775
X6.5375Y-2.675
X13.725Y-1.025
X13.975Y-0.925
X13.725Y-1.275
X13.975Y-1.175
X0.225Y-2.025
X0.475Y-1.925
X7.0375Y-2.775
X7.2875Y-2.675
X1.4125Y-2.025
X1.6625Y-1.925
X3.85Y-2.025
X4.1Y-1.925
X12.975Y-3.525
X13.225Y-3.425
X7.975Y-0.275
X8.225Y-0.175
X9.2875Y-2.775
X9.5375Y-2.675
X0.225Y-1.525
X0.475Y-1.425
X11.5375Y-2.025
X11.7875Y-1.925
X1.5062Y-2.775
X1.7562Y-2.675
X2.225Y-0.275
X2.475Y-0.175
X1.3187Y-4.275
X1.5687Y-4.175
X6.85Y-2.025
X7.1Y-1.925
X9.725Y-0.275
X9.975Y-0.175
X11.225Y-4.525
X11.475Y-4.425
X1.225Y-1.275
X1.475Y-1.175
X10.6937Y-3.525
X10.9437Y-3.425
X12.975Y-0.275
X13.225Y-0.175
X11.975Y-3.775
X12.225Y-3.675
X3.2875Y-4.275
X3.5375Y-4.175
X9.85Y-2.025
X10.1Y-1.925
X6.725Y-4.225
X6.825Y-4.475
X9.85Y-4.275
X10.1Y-4.175
X0.225Y-2.775
X0.475Y-2.675
X0.225Y-2.275
X0.475Y-2.175
X1.975Y-0.275
X2.225Y-0.175
X6.6625Y-3.525
X6.9125Y-3.425
X10.975Y-1.275
X11.225Y-1.175
X5.1625Y-3.525
X5.4125Y-3.425
X5.725Y-1.275
X5.975Y-1.175
X3.1938Y-4.275
X3.4438Y-4.175
X8.9125Y-4.275
X9.1625Y-4.175
X0.225Y-3.775
X0.475Y-3.675
X10.475Y-0.275
X10.725Y-0.175
X12.975Y-2.025
X13.225Y-1.925
X10.7875Y-4.275
X11.0375Y-4.175
X10.225Y-1.275
X10.475Y-1.175
X0.225Y-1.275
X0.475Y-1.175
X13.725Y-3.525
X13.975Y-3.425
X12.725Y-4.525
X12.975Y-4.425
X11.225Y-0.275
X11.475Y-0.175
X4.475Y-0.275
X4.725Y-0.175
X6.1Y-0.275
X6.35Y-0.175
X11.2562Y-2.775
X11.5062Y-2.675
X8.725Y-1.275
X8.975Y-1.175
X7.7875Y-2.775
X8.0375Y-2.675
X2.975Y-0.275
X3.225Y-0.175
X4.6Y-0.275
X4.85Y-0.175
X3.2875Y-2.775
X3.5375Y-2.675
X11.35Y-1.275
X11.6Y-1.175
X2.35Y-2.025
X2.6Y-1.925
X4.7875Y-2.775
X5.0375Y-2.675
X1.225Y-0.275
X1.475Y-0.175
X13.725Y-4.275
X13.975Y-4.175
X6.1Y-2.025
X6.35Y-1.925
X8.5375Y-2.775
X8.7875Y-2.675
X12.225Y-0.275
X12.475Y-0.175
X0.225Y-4.275
X0.475Y-4.175
X11.675Y-1.275
X11.775Y-1.525
X2.9125Y-3.525
X3.1625Y-3.425
X8.975Y-0.275
X9.225Y-0.175
X11.0687Y-3.525
X11.3187Y-3.425
X11.975Y-4.525
X12.225Y-4.425
X4.975Y-1.275
X5.225Y-1.175
X13.725Y-2.025
X13.975Y-1.925
X13.225Y-2.35
X13.325Y-2.6
X11.8812Y-2.35
X11.9812Y-2.6
X8.725Y-0.275
X8.975Y-0.175
X7.225Y-1.275
X7.475Y-1.175
X6.1Y-4.275
X6.35Y-4.175
X8.1625Y-3.525
X8.4125Y-3.425
T8
X14.0925Y-5.1575
X10.6088Y-5.1575
X7.125Y-5.1575
X0.1575Y-5.1575
X3.6412Y-5.1575
X3.6412Y0.1575
X0.1575Y0.1575
X10.6088Y0.1575
X7.125Y0.1575
X14.0925Y0.1575
T7
G00X0.2018Y-0.5159
M15
G01X0.1762Y-0.4716
M16
G05
G00X0.5837Y-0.2954
M15
G01X0.5581Y-0.2511
M16
G05
G00X13.7562Y-2.1859
M15
G01X13.8034Y-2.1659
M16
G05
G00X13.9285Y-2.5918
M15
G01X13.9756Y-2.5718
M16
G05
T0
M30
