G04 #@! TF.GenerationSoftware,KiCad,Pcbnew,(5.1.0)-1*
G04 #@! TF.CreationDate,2019-05-14T20:04:05-07:00*
G04 #@! TF.ProjectId,mad cat,6d616420-6361-4742-9e6b-696361645f70,rev?*
G04 #@! TF.SameCoordinates,Original*
G04 #@! TF.FileFunction,Copper,L1,Top*
G04 #@! TF.FilePolarity,Positive*
%FSLAX46Y46*%
G04 Gerber Fmt 4.6, Leading zero omitted, Abs format (unit mm)*
G04 Created by KiCad (PCBNEW (5.1.0)-1) date 2019-05-14 20:04:05*
%MOMM*%
%LPD*%
G04 APERTURE LIST*
%ADD10C,2.250000*%
%ADD11C,2.000000*%
%ADD12C,0.100000*%
%ADD13R,1.800000X1.800000*%
%ADD14C,1.800000*%
%ADD15R,1.000000X1.000000*%
%ADD16O,1.000000X1.000000*%
%ADD17C,1.000000*%
%ADD18C,4.000000*%
%ADD19C,1.200000*%
%ADD20C,0.800000*%
%ADD21C,0.508000*%
%ADD22C,0.381000*%
%ADD23C,0.254000*%
G04 APERTURE END LIST*
D10*
X81121250Y-108585000D03*
X81781250Y-105375000D03*
X87471250Y-106045000D03*
X88081250Y-106625000D03*
X154940000Y-108585000D03*
X155600000Y-105375000D03*
X161290000Y-106045000D03*
X161900000Y-106625000D03*
D11*
X344679809Y-65084936D03*
X345929809Y-67250000D03*
D12*
G36*
X345563784Y-68616025D02*
G01*
X344563784Y-66883975D01*
X346295834Y-65883975D01*
X347295834Y-67616025D01*
X345563784Y-68616025D01*
X345563784Y-68616025D01*
G37*
D11*
X347179809Y-69415064D03*
D12*
G36*
X350210018Y-57352398D02*
G01*
X350307511Y-57363614D01*
X350403434Y-57384331D01*
X350496865Y-57414351D01*
X350586904Y-57453384D01*
X350672683Y-57501055D01*
X350753377Y-57556904D01*
X350828207Y-57620393D01*
X350896455Y-57690911D01*
X350957462Y-57767779D01*
X351010641Y-57850257D01*
X351039042Y-57903043D01*
X351039043Y-57903045D01*
X351078571Y-57992868D01*
X351109104Y-58086133D01*
X351130349Y-58181941D01*
X351142100Y-58279370D01*
X351144245Y-58377482D01*
X351136764Y-58475332D01*
X351119727Y-58571977D01*
X351093299Y-58666487D01*
X351057735Y-58757951D01*
X351013378Y-58845489D01*
X350960653Y-58928258D01*
X350900070Y-59005461D01*
X350832211Y-59076353D01*
X350757731Y-59140253D01*
X350644616Y-59216285D01*
X349605385Y-59816285D01*
X349518092Y-59861123D01*
X349426824Y-59897189D01*
X349332461Y-59924136D01*
X349235911Y-59941704D01*
X349138104Y-59949724D01*
X349039982Y-59948118D01*
X348942489Y-59936902D01*
X348846566Y-59916185D01*
X348753135Y-59886165D01*
X348663096Y-59847132D01*
X348577317Y-59799461D01*
X348496623Y-59743612D01*
X348421793Y-59680123D01*
X348353545Y-59609605D01*
X348292538Y-59532737D01*
X348239359Y-59450259D01*
X348210958Y-59397473D01*
X348210957Y-59397471D01*
X348171429Y-59307648D01*
X348140896Y-59214383D01*
X348119651Y-59118575D01*
X348107900Y-59021146D01*
X348105755Y-58923034D01*
X348113236Y-58825184D01*
X348130273Y-58728539D01*
X348156701Y-58634029D01*
X348192265Y-58542565D01*
X348236622Y-58455027D01*
X348289347Y-58372258D01*
X348349930Y-58295055D01*
X348417789Y-58224163D01*
X348492269Y-58160263D01*
X348605384Y-58084231D01*
X349644615Y-57484231D01*
X349731908Y-57439393D01*
X349823176Y-57403327D01*
X349917539Y-57376380D01*
X350014089Y-57358812D01*
X350111896Y-57350792D01*
X350210018Y-57352398D01*
X350210018Y-57352398D01*
G37*
D11*
X349625000Y-58650258D03*
D12*
G36*
X355810018Y-67051882D02*
G01*
X355907511Y-67063098D01*
X356003434Y-67083815D01*
X356096865Y-67113835D01*
X356186904Y-67152868D01*
X356272683Y-67200539D01*
X356353377Y-67256388D01*
X356428207Y-67319877D01*
X356496455Y-67390395D01*
X356557462Y-67467263D01*
X356610641Y-67549741D01*
X356639042Y-67602527D01*
X356639043Y-67602529D01*
X356678571Y-67692352D01*
X356709104Y-67785617D01*
X356730349Y-67881425D01*
X356742100Y-67978854D01*
X356744245Y-68076966D01*
X356736764Y-68174816D01*
X356719727Y-68271461D01*
X356693299Y-68365971D01*
X356657735Y-68457435D01*
X356613378Y-68544973D01*
X356560653Y-68627742D01*
X356500070Y-68704945D01*
X356432211Y-68775837D01*
X356357731Y-68839737D01*
X356244616Y-68915769D01*
X355205385Y-69515769D01*
X355118092Y-69560607D01*
X355026824Y-69596673D01*
X354932461Y-69623620D01*
X354835911Y-69641188D01*
X354738104Y-69649208D01*
X354639982Y-69647602D01*
X354542489Y-69636386D01*
X354446566Y-69615669D01*
X354353135Y-69585649D01*
X354263096Y-69546616D01*
X354177317Y-69498945D01*
X354096623Y-69443096D01*
X354021793Y-69379607D01*
X353953545Y-69309089D01*
X353892538Y-69232221D01*
X353839359Y-69149743D01*
X353810958Y-69096957D01*
X353810957Y-69096955D01*
X353771429Y-69007132D01*
X353740896Y-68913867D01*
X353719651Y-68818059D01*
X353707900Y-68720630D01*
X353705755Y-68622518D01*
X353713236Y-68524668D01*
X353730273Y-68428023D01*
X353756701Y-68333513D01*
X353792265Y-68242049D01*
X353836622Y-68154511D01*
X353889347Y-68071742D01*
X353949930Y-67994539D01*
X354017789Y-67923647D01*
X354092269Y-67859747D01*
X354205384Y-67783715D01*
X355244615Y-67183715D01*
X355331908Y-67138877D01*
X355423176Y-67102811D01*
X355517539Y-67075864D01*
X355614089Y-67058296D01*
X355711896Y-67050276D01*
X355810018Y-67051882D01*
X355810018Y-67051882D01*
G37*
D11*
X355225000Y-68349742D03*
X357237178Y-57834936D03*
X359737178Y-62165064D03*
D10*
X33496250Y-89535000D03*
X34156250Y-86325000D03*
X39846250Y-86995000D03*
X40456250Y-87575000D03*
D13*
X318770000Y-25400000D03*
D14*
X316230000Y-25400000D03*
D15*
X2365000Y-20955000D03*
D16*
X3635000Y-20955000D03*
X2365000Y-22225000D03*
X3635000Y-22225000D03*
X2365000Y-23495000D03*
D17*
X3635000Y-23495000D03*
D18*
X5000000Y5000000D03*
X356950000Y-132000000D03*
X5000000Y-132000000D03*
X180975000Y-132000000D03*
X92987500Y-132000000D03*
X268962500Y-132000000D03*
X356950000Y5000000D03*
X268962500Y5000000D03*
X180975000Y5000000D03*
X92987500Y5000000D03*
D11*
X9878809Y-17422773D03*
X12212760Y-16526853D03*
D12*
G36*
X13504708Y-17102065D02*
G01*
X11637548Y-17818801D01*
X10920812Y-15951641D01*
X12787972Y-15234905D01*
X13504708Y-17102065D01*
X13504708Y-17102065D01*
G37*
D11*
X14546711Y-15630933D03*
D12*
G36*
X4207003Y-9979564D02*
G01*
X4303648Y-9996601D01*
X4398158Y-10023029D01*
X4489622Y-10058593D01*
X4577160Y-10102950D01*
X4659929Y-10155675D01*
X4737132Y-10216258D01*
X4808024Y-10284117D01*
X4871924Y-10358597D01*
X4928216Y-10438983D01*
X4976357Y-10524498D01*
X5015510Y-10613344D01*
X5445552Y-11733641D01*
X5476183Y-11826873D01*
X5497528Y-11922659D01*
X5509381Y-12020076D01*
X5511629Y-12118186D01*
X5504250Y-12216043D01*
X5487314Y-12312706D01*
X5460986Y-12407244D01*
X5425518Y-12498745D01*
X5381251Y-12586330D01*
X5328614Y-12669154D01*
X5268111Y-12746420D01*
X5200327Y-12817383D01*
X5125913Y-12881361D01*
X5045587Y-12937737D01*
X4959186Y-12986436D01*
X4959184Y-12986437D01*
X4869361Y-13025965D01*
X4776096Y-13056498D01*
X4680288Y-13077743D01*
X4582859Y-13089494D01*
X4484747Y-13091639D01*
X4386897Y-13084158D01*
X4290252Y-13067121D01*
X4195742Y-13040693D01*
X4104278Y-13005129D01*
X4016740Y-12960772D01*
X3933971Y-12908047D01*
X3856768Y-12847464D01*
X3785876Y-12779605D01*
X3721976Y-12705125D01*
X3665684Y-12624739D01*
X3617543Y-12539224D01*
X3578390Y-12450378D01*
X3148348Y-11330081D01*
X3117717Y-11236849D01*
X3096372Y-11141063D01*
X3084519Y-11043646D01*
X3082271Y-10945536D01*
X3089650Y-10847679D01*
X3106586Y-10751016D01*
X3132914Y-10656478D01*
X3168382Y-10564977D01*
X3212649Y-10477392D01*
X3265286Y-10394568D01*
X3325789Y-10317302D01*
X3393573Y-10246339D01*
X3467987Y-10182361D01*
X3548313Y-10125985D01*
X3634714Y-10077286D01*
X3634716Y-10077285D01*
X3724539Y-10037757D01*
X3817804Y-10007224D01*
X3913612Y-9985979D01*
X4011041Y-9974228D01*
X4109153Y-9972083D01*
X4207003Y-9979564D01*
X4207003Y-9979564D01*
G37*
D11*
X4296950Y-11531861D03*
D12*
G36*
X14663103Y-5965842D02*
G01*
X14759748Y-5982879D01*
X14854258Y-6009307D01*
X14945722Y-6044871D01*
X15033260Y-6089228D01*
X15116029Y-6141953D01*
X15193232Y-6202536D01*
X15264124Y-6270395D01*
X15328024Y-6344875D01*
X15384316Y-6425261D01*
X15432457Y-6510776D01*
X15471610Y-6599622D01*
X15901652Y-7719919D01*
X15932283Y-7813151D01*
X15953628Y-7908937D01*
X15965481Y-8006354D01*
X15967729Y-8104464D01*
X15960350Y-8202321D01*
X15943414Y-8298984D01*
X15917086Y-8393522D01*
X15881618Y-8485023D01*
X15837351Y-8572608D01*
X15784714Y-8655432D01*
X15724211Y-8732698D01*
X15656427Y-8803661D01*
X15582013Y-8867639D01*
X15501687Y-8924015D01*
X15415286Y-8972714D01*
X15415284Y-8972715D01*
X15325461Y-9012243D01*
X15232196Y-9042776D01*
X15136388Y-9064021D01*
X15038959Y-9075772D01*
X14940847Y-9077917D01*
X14842997Y-9070436D01*
X14746352Y-9053399D01*
X14651842Y-9026971D01*
X14560378Y-8991407D01*
X14472840Y-8947050D01*
X14390071Y-8894325D01*
X14312868Y-8833742D01*
X14241976Y-8765883D01*
X14178076Y-8691403D01*
X14121784Y-8611017D01*
X14073643Y-8525502D01*
X14034490Y-8436656D01*
X13604448Y-7316359D01*
X13573817Y-7223127D01*
X13552472Y-7127341D01*
X13540619Y-7029924D01*
X13538371Y-6931814D01*
X13545750Y-6833957D01*
X13562686Y-6737294D01*
X13589014Y-6642756D01*
X13624482Y-6551255D01*
X13668749Y-6463670D01*
X13721386Y-6380846D01*
X13781889Y-6303580D01*
X13849673Y-6232617D01*
X13924087Y-6168639D01*
X14004413Y-6112263D01*
X14090814Y-6063564D01*
X14090816Y-6063563D01*
X14180639Y-6024035D01*
X14273904Y-5993502D01*
X14369712Y-5972257D01*
X14467141Y-5960506D01*
X14565253Y-5958361D01*
X14663103Y-5965842D01*
X14663103Y-5965842D01*
G37*
D11*
X14753050Y-7518139D03*
X4682473Y-3885857D03*
X9350375Y-2094017D03*
D10*
X93027500Y-89535000D03*
X93687500Y-86325000D03*
X99377500Y-86995000D03*
X99987500Y-87575000D03*
X56515000Y-6985000D03*
X57175000Y-3775000D03*
X62865000Y-4445000D03*
X63475000Y-5025000D03*
X31115000Y-6985000D03*
X31775000Y-3775000D03*
X37465000Y-4445000D03*
X38075000Y-5025000D03*
X285115000Y-6985000D03*
X285775000Y-3775000D03*
X291465000Y-4445000D03*
X292075000Y-5025000D03*
X180340000Y-6985000D03*
X181000000Y-3775000D03*
X186690000Y-4445000D03*
X187300000Y-5025000D03*
X75565000Y-6985000D03*
X76225000Y-3775000D03*
X81915000Y-4445000D03*
X82525000Y-5025000D03*
X310515000Y-6985000D03*
X311175000Y-3775000D03*
X316865000Y-4445000D03*
X317475000Y-5025000D03*
X199390000Y-6985000D03*
X200050000Y-3775000D03*
X205740000Y-4445000D03*
X206350000Y-5025000D03*
X329565000Y-6985000D03*
X330225000Y-3775000D03*
X335915000Y-4445000D03*
X336525000Y-5025000D03*
X227965000Y-6985000D03*
X228625000Y-3775000D03*
X234315000Y-4445000D03*
X234925000Y-5025000D03*
X94615000Y-6985000D03*
X95275000Y-3775000D03*
X100965000Y-4445000D03*
X101575000Y-5025000D03*
X247015000Y-6985000D03*
X247675000Y-3775000D03*
X253365000Y-4445000D03*
X253975000Y-5025000D03*
X161290000Y-6985000D03*
X161950000Y-3775000D03*
X167640000Y-4445000D03*
X168250000Y-5025000D03*
X5715000Y-6985000D03*
X6375000Y-3775000D03*
X12065000Y-4445000D03*
X12675000Y-5025000D03*
X113665000Y-6985000D03*
X114325000Y-3775000D03*
X120015000Y-4445000D03*
X120625000Y-5025000D03*
X142240000Y-6985000D03*
X142900000Y-3775000D03*
X148590000Y-4445000D03*
X149200000Y-5025000D03*
X348615000Y-6985000D03*
X349275000Y-3775000D03*
X354965000Y-4445000D03*
X355575000Y-5025000D03*
X266065000Y-6985000D03*
X266725000Y-3775000D03*
X272415000Y-4445000D03*
X273025000Y-5025000D03*
X183515000Y-32385000D03*
X184175000Y-29175000D03*
X189865000Y-29845000D03*
X190475000Y-30425000D03*
X126365000Y-32385000D03*
X127025000Y-29175000D03*
X132715000Y-29845000D03*
X133325000Y-30425000D03*
X145415000Y-32385000D03*
X146075000Y-29175000D03*
X151765000Y-29845000D03*
X152375000Y-30425000D03*
X50165000Y-32385000D03*
X50825000Y-29175000D03*
X56515000Y-29845000D03*
X57125000Y-30425000D03*
X164465000Y-32385000D03*
X165125000Y-29175000D03*
X170815000Y-29845000D03*
X171425000Y-30425000D03*
X5715000Y-32385000D03*
X6375000Y-29175000D03*
X12065000Y-29845000D03*
X12675000Y-30425000D03*
X329565000Y-26035000D03*
X330225000Y-22825000D03*
X335915000Y-23495000D03*
X336525000Y-24075000D03*
X107315000Y-32385000D03*
X107975000Y-29175000D03*
X113665000Y-29845000D03*
X114275000Y-30425000D03*
X259715000Y-32385000D03*
X260375000Y-29175000D03*
X266065000Y-29845000D03*
X266675000Y-30425000D03*
X202565000Y-32385000D03*
X203225000Y-29175000D03*
X208915000Y-29845000D03*
X209525000Y-30425000D03*
X348615000Y-26035000D03*
X349275000Y-22825000D03*
X354965000Y-23495000D03*
X355575000Y-24075000D03*
X240665000Y-32385000D03*
X241325000Y-29175000D03*
X247015000Y-29845000D03*
X247625000Y-30425000D03*
X221615000Y-32385000D03*
X222275000Y-29175000D03*
X227965000Y-29845000D03*
X228575000Y-30425000D03*
X69215000Y-32385000D03*
X69875000Y-29175000D03*
X75565000Y-29845000D03*
X76175000Y-30425000D03*
X31115000Y-32385000D03*
X31775000Y-29175000D03*
X37465000Y-29845000D03*
X38075000Y-30425000D03*
X88265000Y-32385000D03*
X88925000Y-29175000D03*
X94615000Y-29845000D03*
X95225000Y-30425000D03*
X193040000Y-51435000D03*
X193700000Y-48225000D03*
X199390000Y-48895000D03*
X200000000Y-49475000D03*
X212090000Y-51435000D03*
X212750000Y-48225000D03*
X218440000Y-48895000D03*
X219050000Y-49475000D03*
X78740000Y-51435000D03*
X79400000Y-48225000D03*
X85090000Y-48895000D03*
X85700000Y-49475000D03*
X250190000Y-51435000D03*
X250850000Y-48225000D03*
X256540000Y-48895000D03*
X257150000Y-49475000D03*
X231140000Y-51435000D03*
X231800000Y-48225000D03*
X237490000Y-48895000D03*
X238100000Y-49475000D03*
X116840000Y-51435000D03*
X117500000Y-48225000D03*
X123190000Y-48895000D03*
X123800000Y-49475000D03*
X97790000Y-51435000D03*
X98450000Y-48225000D03*
X104140000Y-48895000D03*
X104750000Y-49475000D03*
X173990000Y-51435000D03*
X174650000Y-48225000D03*
X180340000Y-48895000D03*
X180950000Y-49475000D03*
X297815000Y-32385000D03*
X298475000Y-29175000D03*
X304165000Y-29845000D03*
X304775000Y-30425000D03*
X269240000Y-51435000D03*
X269900000Y-48225000D03*
X275590000Y-48895000D03*
X276200000Y-49475000D03*
X154940000Y-51435000D03*
X155600000Y-48225000D03*
X161290000Y-48895000D03*
X161900000Y-49475000D03*
X59690000Y-51435000D03*
X60350000Y-48225000D03*
X66040000Y-48895000D03*
X66650000Y-49475000D03*
X5715000Y-51435000D03*
X6375000Y-48225000D03*
X12065000Y-48895000D03*
X12675000Y-49475000D03*
X135890000Y-51435000D03*
X136550000Y-48225000D03*
X142240000Y-48895000D03*
X142850000Y-49475000D03*
X348615000Y-51435000D03*
X349275000Y-48225000D03*
X354965000Y-48895000D03*
X355575000Y-49475000D03*
X254952500Y-70485000D03*
X255612500Y-67275000D03*
X261302500Y-67945000D03*
X261912500Y-68525000D03*
X5715000Y-70485000D03*
X6375000Y-67275000D03*
X12065000Y-67945000D03*
X12675000Y-68525000D03*
X235902500Y-70485000D03*
X236562500Y-67275000D03*
X242252500Y-67945000D03*
X242862500Y-68525000D03*
X64452500Y-70485000D03*
X65112500Y-67275000D03*
X70802500Y-67945000D03*
X71412500Y-68525000D03*
X216852500Y-70485000D03*
X217512500Y-67275000D03*
X223202500Y-67945000D03*
X223812500Y-68525000D03*
X83502500Y-70485000D03*
X84162500Y-67275000D03*
X89852500Y-67945000D03*
X90462500Y-68525000D03*
X102552500Y-70485000D03*
X103212500Y-67275000D03*
X108902500Y-67945000D03*
X109512500Y-68525000D03*
X121602500Y-70485000D03*
X122262500Y-67275000D03*
X127952500Y-67945000D03*
X128562500Y-68525000D03*
X197802500Y-70485000D03*
X198462500Y-67275000D03*
X204152500Y-67945000D03*
X204762500Y-68525000D03*
X274002500Y-70485000D03*
X274662500Y-67275000D03*
X280352500Y-67945000D03*
X280962500Y-68525000D03*
X140652500Y-70485000D03*
X141312500Y-67275000D03*
X147002500Y-67945000D03*
X147612500Y-68525000D03*
X159702500Y-70485000D03*
X160362500Y-67275000D03*
X166052500Y-67945000D03*
X166662500Y-68525000D03*
X178752500Y-70485000D03*
X179412500Y-67275000D03*
X185102500Y-67945000D03*
X185712500Y-68525000D03*
X131127500Y-89535000D03*
X131787500Y-86325000D03*
X137477500Y-86995000D03*
X138087500Y-87575000D03*
X297815000Y-89535000D03*
X298475000Y-86325000D03*
X304165000Y-86995000D03*
X304775000Y-87575000D03*
X73977500Y-89535000D03*
X74637500Y-86325000D03*
X80327500Y-86995000D03*
X80937500Y-87575000D03*
X5715000Y-89535000D03*
X6375000Y-86325000D03*
X12065000Y-86995000D03*
X12675000Y-87575000D03*
X188277500Y-89535000D03*
X188937500Y-86325000D03*
X194627500Y-86995000D03*
X195237500Y-87575000D03*
X112077500Y-89535000D03*
X112737500Y-86325000D03*
X118427500Y-86995000D03*
X119037500Y-87575000D03*
X323215000Y-95885000D03*
X323875000Y-92675000D03*
X329565000Y-93345000D03*
X330175000Y-93925000D03*
X226377500Y-89535000D03*
X227037500Y-86325000D03*
X232727500Y-86995000D03*
X233337500Y-87575000D03*
X245427500Y-89535000D03*
X246087500Y-86325000D03*
X251777500Y-86995000D03*
X252387500Y-87575000D03*
X207327500Y-89535000D03*
X207987500Y-86325000D03*
X213677500Y-86995000D03*
X214287500Y-87575000D03*
X169227500Y-89535000D03*
X169887500Y-86325000D03*
X175577500Y-86995000D03*
X176187500Y-87575000D03*
X150177500Y-89535000D03*
X150837500Y-86325000D03*
X156527500Y-86995000D03*
X157137500Y-87575000D03*
X54927500Y-89535000D03*
X55587500Y-86325000D03*
X61277500Y-86995000D03*
X61887500Y-87575000D03*
X250190000Y-108585000D03*
X250850000Y-105375000D03*
X256540000Y-106045000D03*
X257150000Y-106625000D03*
X342265000Y-114935000D03*
X342925000Y-111725000D03*
X348615000Y-112395000D03*
X349225000Y-112975000D03*
X59690000Y-108585000D03*
X60350000Y-105375000D03*
X66040000Y-106045000D03*
X66650000Y-106625000D03*
X323215000Y-114935000D03*
X323875000Y-111725000D03*
X329565000Y-112395000D03*
X330175000Y-112975000D03*
X5715000Y-108585000D03*
X6375000Y-105375000D03*
X12065000Y-106045000D03*
X12675000Y-106625000D03*
X304165000Y-114935000D03*
X304825000Y-111725000D03*
X310515000Y-112395000D03*
X311125000Y-112975000D03*
X221615000Y-6985000D03*
X222275000Y-3775000D03*
X227965000Y-4445000D03*
X228575000Y-5025000D03*
X240665000Y-6985000D03*
X241325000Y-3775000D03*
X247015000Y-4445000D03*
X247625000Y-5025000D03*
X259715000Y-6985000D03*
X260375000Y-3775000D03*
X266065000Y-4445000D03*
X266675000Y-5025000D03*
X50165000Y-6985000D03*
X50825000Y-3775000D03*
X56515000Y-4445000D03*
X57125000Y-5025000D03*
X69215000Y-6985000D03*
X69875000Y-3775000D03*
X75565000Y-4445000D03*
X76175000Y-5025000D03*
X88265000Y-6985000D03*
X88925000Y-3775000D03*
X94615000Y-4445000D03*
X95225000Y-5025000D03*
X116840000Y-6985000D03*
X117500000Y-3775000D03*
X123190000Y-4445000D03*
X123800000Y-5025000D03*
X135890000Y-6985000D03*
X136550000Y-3775000D03*
X142240000Y-4445000D03*
X142850000Y-5025000D03*
X154940000Y-6985000D03*
X155600000Y-3775000D03*
X161290000Y-4445000D03*
X161900000Y-5025000D03*
X173990000Y-6985000D03*
X174650000Y-3775000D03*
X180340000Y-4445000D03*
X180950000Y-5025000D03*
X202565000Y-6985000D03*
X203225000Y-3775000D03*
X208915000Y-4445000D03*
X209525000Y-5025000D03*
X278765000Y-32385000D03*
X279425000Y-29175000D03*
X285115000Y-29845000D03*
X285725000Y-30425000D03*
X348615000Y-89535000D03*
X349275000Y-86325000D03*
X354965000Y-86995000D03*
X355575000Y-87575000D03*
X304165000Y-95885000D03*
X304825000Y-92675000D03*
X310515000Y-93345000D03*
X311125000Y-93925000D03*
X5715000Y-114935000D03*
X6375000Y-111725000D03*
X12065000Y-112395000D03*
X12675000Y-112975000D03*
X285115000Y-114935000D03*
X285775000Y-111725000D03*
X291465000Y-112395000D03*
X292075000Y-112975000D03*
X43021250Y-89535000D03*
X43681250Y-86325000D03*
X49371250Y-86995000D03*
X49981250Y-87575000D03*
X285908750Y-70485000D03*
X286568750Y-67275000D03*
X292258750Y-67945000D03*
X292868750Y-68525000D03*
X281146250Y-89535000D03*
X281806250Y-86325000D03*
X287496250Y-86995000D03*
X288106250Y-87575000D03*
X38258750Y-70485000D03*
X38918750Y-67275000D03*
X44608750Y-67945000D03*
X45218750Y-68525000D03*
X271621250Y-89535000D03*
X272281250Y-86325000D03*
X277971250Y-86995000D03*
X278581250Y-87575000D03*
X33496250Y-70485000D03*
X34156250Y-67275000D03*
X39846250Y-67945000D03*
X40456250Y-68525000D03*
X33496250Y-108585000D03*
X34156250Y-105375000D03*
X39846250Y-106045000D03*
X40456250Y-106625000D03*
X57308750Y-108585000D03*
X57968750Y-105375000D03*
X63658750Y-106045000D03*
X64268750Y-106625000D03*
X301783750Y-59690000D03*
X304993750Y-60350000D03*
X304323750Y-66040000D03*
X303743750Y-66650000D03*
X293052500Y-51435000D03*
X293712500Y-48225000D03*
X299402500Y-48895000D03*
X300012500Y-49475000D03*
X35877500Y-51435000D03*
X36537500Y-48225000D03*
X42227500Y-48895000D03*
X42837500Y-49475000D03*
X35877500Y-108585000D03*
X36537500Y-105375000D03*
X42227500Y-106045000D03*
X42837500Y-106625000D03*
X83502500Y-108585000D03*
X84162500Y-105375000D03*
X89852500Y-106045000D03*
X90462500Y-106625000D03*
X226377500Y-108585000D03*
X227037500Y-105375000D03*
X232727500Y-106045000D03*
X233337500Y-106625000D03*
X274002500Y-108585000D03*
X274662500Y-105375000D03*
X280352500Y-106045000D03*
X280962500Y-106625000D03*
X254952500Y-108585000D03*
X255612500Y-105375000D03*
X261302500Y-106045000D03*
X261912500Y-106625000D03*
X288290000Y-32385000D03*
X288950000Y-29175000D03*
X294640000Y-29845000D03*
X295250000Y-30425000D03*
X354965000Y-78740000D03*
X358175000Y-79400000D03*
X357505000Y-85090000D03*
X356925000Y-85700000D03*
X354965000Y-104140000D03*
X358175000Y-104800000D03*
X357505000Y-110490000D03*
X356925000Y-111100000D03*
X329565000Y-59690000D03*
X332775000Y-60350000D03*
X332105000Y-66040000D03*
X331525000Y-66650000D03*
X335915000Y-59690000D03*
X339125000Y-60350000D03*
X338455000Y-66040000D03*
X337875000Y-66650000D03*
X152558750Y-108585000D03*
X153218750Y-105375000D03*
X158908750Y-106045000D03*
X159518750Y-106625000D03*
D11*
X346684237Y-54889594D03*
X345627692Y-57155363D03*
D12*
G36*
X344298766Y-57639053D02*
G01*
X345144002Y-55826437D01*
X346956618Y-56671673D01*
X346111382Y-58484289D01*
X344298766Y-57639053D01*
X344298766Y-57639053D01*
G37*
D11*
X344571146Y-59421133D03*
D12*
G36*
X354318767Y-53998620D02*
G01*
X354416196Y-54010371D01*
X354512004Y-54031616D01*
X354605269Y-54062149D01*
X354670496Y-54089796D01*
X355758065Y-54596938D01*
X355844864Y-54642726D01*
X355926757Y-54696802D01*
X356002955Y-54758643D01*
X356072724Y-54827656D01*
X356135394Y-54903175D01*
X356190359Y-54984473D01*
X356237091Y-55070767D01*
X356275140Y-55161226D01*
X356304139Y-55254979D01*
X356323809Y-55351123D01*
X356333960Y-55448732D01*
X356334495Y-55546866D01*
X356325409Y-55644579D01*
X356306789Y-55740932D01*
X356278814Y-55834996D01*
X356229874Y-55950460D01*
X356229873Y-55950462D01*
X356181732Y-56035977D01*
X356125440Y-56116363D01*
X356061540Y-56190843D01*
X355990648Y-56258702D01*
X355913445Y-56319285D01*
X355830676Y-56372010D01*
X355743138Y-56416367D01*
X355651674Y-56451931D01*
X355557164Y-56478359D01*
X355460519Y-56495396D01*
X355362669Y-56502877D01*
X355264557Y-56500732D01*
X355167128Y-56488981D01*
X355071320Y-56467736D01*
X354978055Y-56437203D01*
X354912828Y-56409556D01*
X353825259Y-55902414D01*
X353738460Y-55856626D01*
X353656567Y-55802550D01*
X353580369Y-55740709D01*
X353510600Y-55671696D01*
X353447930Y-55596177D01*
X353392965Y-55514879D01*
X353346233Y-55428585D01*
X353308184Y-55338126D01*
X353279185Y-55244373D01*
X353259515Y-55148229D01*
X353249364Y-55050620D01*
X353248829Y-54952486D01*
X353257915Y-54854773D01*
X353276535Y-54758420D01*
X353304510Y-54664356D01*
X353353450Y-54548892D01*
X353353451Y-54548890D01*
X353401592Y-54463375D01*
X353457884Y-54382989D01*
X353521784Y-54308509D01*
X353592676Y-54240650D01*
X353669879Y-54180067D01*
X353752648Y-54127342D01*
X353840186Y-54082985D01*
X353931650Y-54047421D01*
X354026160Y-54020993D01*
X354122805Y-54003956D01*
X354220655Y-53996475D01*
X354318767Y-53998620D01*
X354318767Y-53998620D01*
G37*
D11*
X354791662Y-55249676D03*
D12*
G36*
X349585443Y-64149268D02*
G01*
X349682872Y-64161019D01*
X349778680Y-64182264D01*
X349871945Y-64212797D01*
X349937172Y-64240444D01*
X351024741Y-64747586D01*
X351111540Y-64793374D01*
X351193433Y-64847450D01*
X351269631Y-64909291D01*
X351339400Y-64978304D01*
X351402070Y-65053823D01*
X351457035Y-65135121D01*
X351503767Y-65221415D01*
X351541816Y-65311874D01*
X351570815Y-65405627D01*
X351590485Y-65501771D01*
X351600636Y-65599380D01*
X351601171Y-65697514D01*
X351592085Y-65795227D01*
X351573465Y-65891580D01*
X351545490Y-65985644D01*
X351496550Y-66101108D01*
X351496549Y-66101110D01*
X351448408Y-66186625D01*
X351392116Y-66267011D01*
X351328216Y-66341491D01*
X351257324Y-66409350D01*
X351180121Y-66469933D01*
X351097352Y-66522658D01*
X351009814Y-66567015D01*
X350918350Y-66602579D01*
X350823840Y-66629007D01*
X350727195Y-66646044D01*
X350629345Y-66653525D01*
X350531233Y-66651380D01*
X350433804Y-66639629D01*
X350337996Y-66618384D01*
X350244731Y-66587851D01*
X350179504Y-66560204D01*
X349091935Y-66053062D01*
X349005136Y-66007274D01*
X348923243Y-65953198D01*
X348847045Y-65891357D01*
X348777276Y-65822344D01*
X348714606Y-65746825D01*
X348659641Y-65665527D01*
X348612909Y-65579233D01*
X348574860Y-65488774D01*
X348545861Y-65395021D01*
X348526191Y-65298877D01*
X348516040Y-65201268D01*
X348515505Y-65103134D01*
X348524591Y-65005421D01*
X348543211Y-64909068D01*
X348571186Y-64815004D01*
X348620126Y-64699540D01*
X348620127Y-64699538D01*
X348668268Y-64614023D01*
X348724560Y-64533637D01*
X348788460Y-64459157D01*
X348859352Y-64391298D01*
X348936555Y-64330715D01*
X349019324Y-64277990D01*
X349106862Y-64233633D01*
X349198326Y-64198069D01*
X349292836Y-64171641D01*
X349389481Y-64154604D01*
X349487331Y-64147123D01*
X349585443Y-64149268D01*
X349585443Y-64149268D01*
G37*
D11*
X350058338Y-65400324D03*
X359825700Y-61017558D03*
X357712609Y-65549097D03*
D10*
X252387500Y-106625000D03*
X251777500Y-106045000D03*
X246087500Y-105375000D03*
X245427500Y-108585000D03*
X171425000Y-106625000D03*
X170815000Y-106045000D03*
X165125000Y-105375000D03*
X164465000Y-108585000D03*
X64452500Y-108585000D03*
X65112500Y-105375000D03*
X70802500Y-106045000D03*
X71412500Y-106625000D03*
X152375000Y-106625000D03*
X151765000Y-106045000D03*
X146075000Y-105375000D03*
X145415000Y-108585000D03*
D19*
X120500000Y-118200000D03*
X122600000Y-121900000D03*
X353800000Y-72700000D03*
X123600000Y-106300000D03*
X126237258Y-110500000D03*
X121700000Y-101700000D03*
X117600000Y-108700000D03*
D17*
X124234315Y-116634315D03*
X127100000Y-119400000D03*
X23400000Y-26500000D03*
X20000000Y-26700000D03*
X132100000Y-122000000D03*
X140100000Y-114000000D03*
X133500000Y-104800000D03*
X6400000Y-22400000D03*
X121300000Y-109400000D03*
D20*
X130900000Y-100500000D03*
X130200000Y-18300000D03*
X3269800Y-16000000D03*
X29900000Y-16600000D03*
X16500000Y-41900000D03*
X28000000Y-41900000D03*
X304500000Y-36800000D03*
X326400000Y-35600000D03*
X129900000Y-100000000D03*
X127700000Y-44500000D03*
X16500000Y-61100000D03*
X32700000Y-61100000D03*
X311400000Y-42100000D03*
X336100000Y-42000000D03*
X136500000Y-62800000D03*
X138700000Y-100200000D03*
X16500000Y-80200000D03*
X30400000Y-80100000D03*
X310900000Y-60300000D03*
X317600000Y-60300000D03*
X139817985Y-100017985D03*
X139600000Y-81700000D03*
X16500000Y-99200000D03*
X30400000Y-99100000D03*
X18000000Y-119600000D03*
X137174012Y-106774012D03*
X78900000Y-118300000D03*
X28600000Y-118400000D03*
X142400000Y-112000000D03*
X28200000Y-120500000D03*
X8200000Y-25600000D03*
D17*
X316200000Y-106380200D03*
X316230000Y-97770000D03*
D20*
X279300000Y-123100000D03*
X176200000Y-102400000D03*
X29300000Y-120600000D03*
X301000000Y-124298190D03*
X195300000Y-102800000D03*
X216300000Y-122469350D03*
X127700000Y-100000000D03*
X227500000Y-122000000D03*
X157137500Y-101937500D03*
X128800000Y-100000000D03*
X143500000Y-101400000D03*
X228000000Y-123000000D03*
X119301600Y-119200000D03*
X136700000Y-124398400D03*
X341645315Y-124745315D03*
X337398400Y-73300000D03*
X27700000Y-24200000D03*
X27600000Y-16300000D03*
X330100000Y-124755400D03*
X118298400Y-119200000D03*
X136700000Y-125401600D03*
X342354685Y-125454685D03*
X343100000Y-64200000D03*
X25254351Y-29141600D03*
X8710000Y-27300000D03*
X6000000Y-17400000D03*
X26400000Y-120400000D03*
X27200000Y-118500000D03*
X17100000Y-30300000D03*
D21*
X120500000Y-118200000D02*
X120500000Y-119800000D01*
X120500000Y-119800000D02*
X122600000Y-121900000D01*
X345929809Y-67250000D02*
X348350000Y-67250000D01*
X348350000Y-67250000D02*
X353800000Y-72700000D01*
X123600000Y-106300000D02*
X126237258Y-108937258D01*
X126237258Y-108937258D02*
X126237258Y-110500000D01*
X123600000Y-106300000D02*
X123600000Y-103600000D01*
X123600000Y-103600000D02*
X121700000Y-101700000D01*
X117600000Y-115300000D02*
X120500000Y-118200000D01*
X117600000Y-108700000D02*
X117600000Y-115300000D01*
D22*
X124234315Y-116634315D02*
X127000000Y-119400000D01*
X127000000Y-119400000D02*
X127100000Y-119400000D01*
X23200000Y-26700000D02*
X23400000Y-26500000D01*
X20000000Y-26700000D02*
X23200000Y-26700000D01*
X132100000Y-122000000D02*
X130600000Y-123500000D01*
X130600000Y-123500000D02*
X129600000Y-123500000D01*
X127100000Y-121000000D02*
X127100000Y-119400000D01*
X129600000Y-123500000D02*
X127100000Y-121000000D01*
X132100000Y-122000000D02*
X140100000Y-114000000D01*
X141100000Y-112400000D02*
X141100000Y-113000000D01*
X133500000Y-104800000D02*
X141100000Y-112400000D01*
X140100000Y-114000000D02*
X141100000Y-113000000D01*
X2365000Y-23495000D02*
X2365000Y-24265000D01*
X2365000Y-24265000D02*
X2800000Y-24700000D01*
X4100000Y-24700000D02*
X6400000Y-22400000D01*
X2800000Y-24700000D02*
X4100000Y-24700000D01*
X20000000Y-26700000D02*
X10700000Y-26700000D01*
X10700000Y-26700000D02*
X6400000Y-22400000D01*
X124234315Y-116634315D02*
X120200000Y-112600000D01*
X120200000Y-110500000D02*
X121300000Y-109400000D01*
X120200000Y-112600000D02*
X120200000Y-110500000D01*
D23*
X3269800Y-16000000D02*
X5269800Y-14000000D01*
X5269800Y-14000000D02*
X27300000Y-14000000D01*
X27300000Y-14000000D02*
X29900000Y-16600000D01*
X123600000Y-24900000D02*
X130200000Y-18300000D01*
X128700000Y-45000000D02*
X128700000Y-42200000D01*
X123600000Y-37100000D02*
X123600000Y-24900000D01*
X128157210Y-62510618D02*
X128157210Y-45542790D01*
X132357209Y-66710617D02*
X128157210Y-62510618D01*
X132357210Y-76789382D02*
X132357209Y-66710617D01*
X128700000Y-42200000D02*
X123600000Y-37100000D01*
X130900000Y-99787723D02*
X129714419Y-98602142D01*
X128157210Y-45542790D02*
X128700000Y-45000000D01*
X130900000Y-100500000D02*
X130900000Y-99787723D01*
X129714419Y-98602142D02*
X129714418Y-96958734D01*
X129714418Y-96958734D02*
X123457210Y-90701526D01*
X123457210Y-90701526D02*
X123457210Y-85689382D01*
X123457210Y-85689382D02*
X132357210Y-76789382D01*
X16500000Y-41900000D02*
X28000000Y-41900000D01*
X304500000Y-36800000D02*
X325200000Y-36800000D01*
X325200000Y-36800000D02*
X326400000Y-35600000D01*
X127700000Y-62700000D02*
X127700000Y-44500000D01*
X131900000Y-66900000D02*
X127700000Y-62700000D01*
X131900000Y-76600000D02*
X131900000Y-66900000D01*
X129900000Y-99434315D02*
X129257210Y-98791525D01*
X129900000Y-100000000D02*
X129900000Y-99434315D01*
X129257209Y-97148117D02*
X123000000Y-90890908D01*
X123000000Y-90890908D02*
X123000000Y-85500000D01*
X129257210Y-98791525D02*
X129257209Y-97148117D01*
X123000000Y-85500000D02*
X131900000Y-76600000D01*
X16500000Y-61100000D02*
X32700000Y-61100000D01*
X311400000Y-42100000D02*
X336000000Y-42100000D01*
X336000000Y-42100000D02*
X336100000Y-42000000D01*
X135200000Y-88246592D02*
X135200000Y-64100000D01*
X135200000Y-64100000D02*
X136500000Y-62800000D01*
X136800000Y-89846592D02*
X135200000Y-88246592D01*
X136800000Y-89900000D02*
X136800000Y-89846592D01*
X137700000Y-90800000D02*
X136800000Y-89900000D01*
X137700000Y-98634315D02*
X137700000Y-90800000D01*
X138700000Y-99634315D02*
X137700000Y-98634315D01*
X138700000Y-100200000D02*
X138700000Y-99634315D01*
X16500000Y-80200000D02*
X30300000Y-80200000D01*
X30300000Y-80200000D02*
X30400000Y-80100000D01*
X310900000Y-60300000D02*
X317600000Y-60300000D01*
X135750000Y-85550000D02*
X139600000Y-81700000D01*
X135700000Y-85600000D02*
X135750000Y-85550000D01*
X135700000Y-88100000D02*
X135700000Y-85600000D01*
X138200000Y-90600000D02*
X135700000Y-88100000D01*
X138200000Y-97834315D02*
X138200000Y-90600000D01*
X139817985Y-99452300D02*
X138200000Y-97834315D01*
X139817985Y-100017985D02*
X139817985Y-99452300D01*
X16500000Y-99200000D02*
X30300000Y-99200000D01*
X30300000Y-99200000D02*
X30400000Y-99100000D01*
X137174012Y-106774012D02*
X131700000Y-101300000D01*
X131700000Y-101300000D02*
X127200000Y-101300000D01*
X127200000Y-101300000D02*
X125300000Y-99400000D01*
X125300000Y-99400000D02*
X106100000Y-99400000D01*
X106100000Y-99400000D02*
X87200000Y-118300000D01*
X87200000Y-118300000D02*
X78900000Y-118300000D01*
X27400000Y-119600000D02*
X28600000Y-118400000D01*
X18000000Y-119600000D02*
X27400000Y-119600000D01*
X137174012Y-106774012D02*
X142400000Y-112000000D01*
X355575000Y-5025000D02*
X355575000Y-24075000D01*
X355575000Y-24075000D02*
X355575000Y-49475000D01*
X359737178Y-53637178D02*
X355575000Y-49475000D01*
X359737178Y-62165064D02*
X359737178Y-53637178D01*
X359657292Y-62085178D02*
X359737178Y-62165064D01*
X359657292Y-62040797D02*
X359657292Y-62085178D01*
X359737178Y-62165064D02*
X359737178Y-67362822D01*
X357505000Y-83499010D02*
X356500000Y-82494010D01*
X357505000Y-85090000D02*
X357505000Y-83499010D01*
X356500000Y-70600000D02*
X359737178Y-67362822D01*
X356500000Y-82494010D02*
X356500000Y-70600000D01*
X355600000Y-86995000D02*
X354965000Y-86995000D01*
X357505000Y-85090000D02*
X355600000Y-86995000D01*
X349225000Y-112975000D02*
X349225000Y-99175000D01*
X355575000Y-92825000D02*
X355575000Y-87575000D01*
X349225000Y-99175000D02*
X355575000Y-92825000D01*
X349739999Y-111270001D02*
X348615000Y-112395000D01*
X349910000Y-111100000D02*
X349739999Y-111270001D01*
X356925000Y-111100000D02*
X349910000Y-111100000D01*
X359825700Y-62076542D02*
X359737178Y-62165064D01*
X359825700Y-61017558D02*
X359825700Y-62076542D01*
X23042790Y-125657210D02*
X12557210Y-125657210D01*
X28200000Y-120500000D02*
X23042790Y-125657210D01*
X12557210Y-125657210D02*
X10257210Y-125657210D01*
X10257210Y-125657210D02*
X2500000Y-117900000D01*
X2500000Y-117900000D02*
X2500000Y-28500000D01*
X2500000Y-28500000D02*
X4900000Y-26100000D01*
X4900000Y-26100000D02*
X7700000Y-26100000D01*
X7700000Y-26100000D02*
X8200000Y-25600000D01*
D22*
X316200000Y-106380200D02*
X316200000Y-97800000D01*
X316200000Y-97800000D02*
X316230000Y-97770000D01*
D23*
X266675000Y-39950000D02*
X276200000Y-49475000D01*
X266675000Y-30425000D02*
X266675000Y-39950000D01*
X280962500Y-54237500D02*
X280962500Y-68525000D01*
X276200000Y-49475000D02*
X280962500Y-54237500D01*
X280962500Y-80431250D02*
X288106250Y-87575000D01*
X280962500Y-68525000D02*
X280962500Y-80431250D01*
X280962500Y-84003750D02*
X280962500Y-80431250D01*
X277971250Y-86995000D02*
X280962500Y-84003750D01*
X288106250Y-99481250D02*
X280962500Y-106625000D01*
X288106250Y-87575000D02*
X288106250Y-99481250D01*
X288106250Y-109006250D02*
X292075000Y-112975000D01*
X288106250Y-99481250D02*
X288106250Y-109006250D01*
X292075000Y-114565990D02*
X292075000Y-112975000D01*
X292075000Y-118225000D02*
X292075000Y-114565990D01*
X287200000Y-123100000D02*
X292075000Y-118225000D01*
X279300000Y-123100000D02*
X287200000Y-123100000D01*
X295600000Y-8550000D02*
X292075000Y-5025000D01*
X295600000Y-22600000D02*
X295600000Y-8550000D01*
X292400000Y-25800000D02*
X295600000Y-22600000D01*
X266675000Y-30425000D02*
X271300000Y-25800000D01*
X271300000Y-25800000D02*
X292400000Y-25800000D01*
X187300000Y-5025000D02*
X184175000Y-1900000D01*
X176525000Y-1900000D02*
X174650000Y-3775000D01*
X184175000Y-1900000D02*
X176525000Y-1900000D01*
X175114999Y-8109999D02*
X173990000Y-6985000D01*
X175114999Y-26735001D02*
X175114999Y-8109999D01*
X171425000Y-30425000D02*
X175114999Y-26735001D01*
X171425000Y-39950000D02*
X180950000Y-49475000D01*
X171425000Y-30425000D02*
X171425000Y-39950000D01*
X180950000Y-63762500D02*
X185712500Y-68525000D01*
X180950000Y-49475000D02*
X180950000Y-63762500D01*
X185712500Y-78050000D02*
X176187500Y-87575000D01*
X185712500Y-68525000D02*
X185712500Y-78050000D01*
X176200000Y-87587500D02*
X176187500Y-87575000D01*
X176200000Y-102400000D02*
X176200000Y-87587500D01*
X57125000Y-39950000D02*
X66650000Y-49475000D01*
X57125000Y-30425000D02*
X57125000Y-39950000D01*
X66650000Y-63762500D02*
X71412500Y-68525000D01*
X66650000Y-49475000D02*
X66650000Y-63762500D01*
X71412500Y-78050000D02*
X61887500Y-87575000D01*
X71412500Y-68525000D02*
X71412500Y-78050000D01*
X63475000Y-5025000D02*
X60550000Y-2100000D01*
X52500000Y-2100000D02*
X50825000Y-3775000D01*
X60550000Y-2100000D02*
X52500000Y-2100000D01*
X33419302Y-116700000D02*
X42800000Y-116700000D01*
X42800000Y-116700000D02*
X56000000Y-103500000D01*
X60775000Y-103500000D02*
X61887500Y-102387500D01*
X56000000Y-103500000D02*
X60775000Y-103500000D01*
X61887500Y-87575000D02*
X61887500Y-102387500D01*
X65112500Y-105781250D02*
X64268750Y-106625000D01*
X65112500Y-105375000D02*
X65112500Y-105781250D01*
X63658750Y-104158750D02*
X61887500Y-102387500D01*
X63658750Y-106045000D02*
X63658750Y-104158750D01*
X33200000Y-116700000D02*
X33419302Y-116700000D01*
X29300000Y-120600000D02*
X33200000Y-116700000D01*
X48574010Y-6985000D02*
X50165000Y-6985000D01*
X57125000Y-28834010D02*
X55790990Y-27500000D01*
X55790990Y-27500000D02*
X44500000Y-27500000D01*
X57125000Y-30425000D02*
X57125000Y-28834010D01*
X44500000Y-27500000D02*
X41000000Y-24000000D01*
X41000000Y-24000000D02*
X41000000Y-14559010D01*
X41000000Y-14559010D02*
X48574010Y-6985000D01*
X82525000Y-5025000D02*
X79500000Y-2000000D01*
X71650000Y-2000000D02*
X69875000Y-3775000D01*
X79500000Y-2000000D02*
X71650000Y-2000000D01*
X84675000Y-30425000D02*
X76175000Y-30425000D01*
X76175000Y-39950000D02*
X85700000Y-49475000D01*
X76175000Y-30425000D02*
X76175000Y-39950000D01*
X89337501Y-67400001D02*
X90462500Y-68525000D01*
X85700000Y-63762500D02*
X89337501Y-67400001D01*
X85700000Y-49475000D02*
X85700000Y-63762500D01*
X90462500Y-78050000D02*
X80937500Y-87575000D01*
X90462500Y-68525000D02*
X90462500Y-78050000D01*
X80937500Y-99481250D02*
X88081250Y-106625000D01*
X80937500Y-87575000D02*
X80937500Y-99481250D01*
X84675000Y-30425000D02*
X91500000Y-23600000D01*
X91500000Y-21500000D02*
X82525000Y-12525000D01*
X91500000Y-23600000D02*
X91500000Y-21500000D01*
X82525000Y-5025000D02*
X82525000Y-12525000D01*
X295250000Y-28834010D02*
X311884010Y-12200000D01*
X295250000Y-30425000D02*
X295250000Y-28834010D01*
X311884010Y-12200000D02*
X315300000Y-12200000D01*
X317475000Y-10025000D02*
X317475000Y-5025000D01*
X315300000Y-12200000D02*
X317475000Y-10025000D01*
X295250000Y-30425000D02*
X292225000Y-27400000D01*
X285725000Y-28834010D02*
X285725000Y-30425000D01*
X287159010Y-27400000D02*
X285725000Y-28834010D01*
X292225000Y-27400000D02*
X287159010Y-27400000D01*
X298887501Y-48350001D02*
X300012500Y-49475000D01*
X295339799Y-44802299D02*
X298887501Y-48350001D01*
X295339799Y-32105789D02*
X295339799Y-44802299D01*
X295250000Y-32015990D02*
X295339799Y-32105789D01*
X295250000Y-30425000D02*
X295250000Y-32015990D01*
X304323750Y-66040000D02*
X307300000Y-63063750D01*
X307300000Y-56762500D02*
X300012500Y-49475000D01*
X307300000Y-63063750D02*
X307300000Y-56762500D01*
X292868750Y-68525000D02*
X294643750Y-70300000D01*
X300093750Y-70300000D02*
X303743750Y-66650000D01*
X294643750Y-70300000D02*
X300093750Y-70300000D01*
X305899999Y-86450001D02*
X304775000Y-87575000D01*
X308600000Y-83750000D02*
X305899999Y-86450001D01*
X308600000Y-64363750D02*
X308600000Y-83750000D01*
X307300000Y-63063750D02*
X308600000Y-64363750D01*
X304775000Y-87575000D02*
X311125000Y-93925000D01*
X311125000Y-111785000D02*
X310515000Y-112395000D01*
X311125000Y-93925000D02*
X311125000Y-111785000D01*
X311125000Y-112975000D02*
X311125000Y-117975000D01*
X304801810Y-124298190D02*
X301000000Y-124298190D01*
X311125000Y-117975000D02*
X304801810Y-124298190D01*
X190475000Y-39950000D02*
X200000000Y-49475000D01*
X190475000Y-30425000D02*
X190475000Y-39950000D01*
X200000000Y-63762500D02*
X204762500Y-68525000D01*
X200000000Y-49475000D02*
X200000000Y-63762500D01*
X204762500Y-78050000D02*
X195237500Y-87575000D01*
X204762500Y-68525000D02*
X204762500Y-78050000D01*
X195300000Y-87637500D02*
X195237500Y-87575000D01*
X195300000Y-102800000D02*
X195300000Y-87637500D01*
X207940990Y-5025000D02*
X209525000Y-5025000D01*
X206350000Y-5025000D02*
X207940990Y-5025000D01*
X211115990Y-5025000D02*
X213300000Y-7209010D01*
X209525000Y-5025000D02*
X211115990Y-5025000D01*
X213300000Y-7209010D02*
X213300000Y-10700000D01*
X193575000Y-30425000D02*
X190475000Y-30425000D01*
X213300000Y-10700000D02*
X193575000Y-30425000D01*
X234925000Y-5025000D02*
X231900000Y-2000000D01*
X224050000Y-2000000D02*
X222275000Y-3775000D01*
X231900000Y-2000000D02*
X224050000Y-2000000D01*
X222739999Y-8109999D02*
X221615000Y-6985000D01*
X222739999Y-17210001D02*
X222739999Y-8109999D01*
X209525000Y-30425000D02*
X222739999Y-17210001D01*
X209525000Y-39950000D02*
X219050000Y-49475000D01*
X209525000Y-30425000D02*
X209525000Y-39950000D01*
X219050000Y-63762500D02*
X223812500Y-68525000D01*
X219050000Y-49475000D02*
X219050000Y-63762500D01*
X223812500Y-78050000D02*
X214287500Y-87575000D01*
X223812500Y-68525000D02*
X223812500Y-78050000D01*
X216300000Y-122469350D02*
X217900000Y-120869350D01*
X217900000Y-91187500D02*
X214287500Y-87575000D01*
X217900000Y-120869350D02*
X217900000Y-91187500D01*
X101575000Y-5025000D02*
X98550000Y-2000000D01*
X90700000Y-2000000D02*
X88925000Y-3775000D01*
X98550000Y-2000000D02*
X90700000Y-2000000D01*
X95225000Y-30425000D02*
X95225000Y-16925000D01*
X89389999Y-8109999D02*
X88265000Y-6985000D01*
X89389999Y-11089999D02*
X89389999Y-8109999D01*
X95225000Y-16925000D02*
X89389999Y-11089999D01*
X103625001Y-48350001D02*
X104750000Y-49475000D01*
X95225000Y-39950000D02*
X103625001Y-48350001D01*
X95225000Y-30425000D02*
X95225000Y-39950000D01*
X104750000Y-63762500D02*
X109512500Y-68525000D01*
X104750000Y-49475000D02*
X104750000Y-63762500D01*
X109512500Y-78050000D02*
X99987500Y-87575000D01*
X109512500Y-68525000D02*
X109512500Y-78050000D01*
X127700000Y-100000000D02*
X125300000Y-97600000D01*
X101112499Y-88699999D02*
X99987500Y-87575000D01*
X110012500Y-97600000D02*
X101112499Y-88699999D01*
X125300000Y-97600000D02*
X110012500Y-97600000D01*
X253975000Y-5025000D02*
X250950000Y-2000000D01*
X243100000Y-2000000D02*
X241325000Y-3775000D01*
X250950000Y-2000000D02*
X243100000Y-2000000D01*
X241789999Y-8109999D02*
X240665000Y-6985000D01*
X241789999Y-17210001D02*
X241789999Y-8109999D01*
X228575000Y-30425000D02*
X241789999Y-17210001D01*
X228575000Y-39950000D02*
X238100000Y-49475000D01*
X228575000Y-30425000D02*
X228575000Y-39950000D01*
X238100000Y-63762500D02*
X242862500Y-68525000D01*
X238100000Y-49475000D02*
X238100000Y-63762500D01*
X242862500Y-78050000D02*
X233337500Y-87575000D01*
X242862500Y-68525000D02*
X242862500Y-78050000D01*
X233337500Y-87575000D02*
X233337500Y-106625000D01*
X233337500Y-112037500D02*
X233337500Y-106625000D01*
X233337500Y-116162500D02*
X233337500Y-112037500D01*
X227500000Y-122000000D02*
X233337500Y-116162500D01*
X168250000Y-5025000D02*
X165225000Y-2000000D01*
X157375000Y-2000000D02*
X155600000Y-3775000D01*
X165225000Y-2000000D02*
X157375000Y-2000000D01*
X156064999Y-8109999D02*
X154940000Y-6985000D01*
X156064999Y-26735001D02*
X156064999Y-8109999D01*
X152375000Y-30425000D02*
X156064999Y-26735001D01*
X152375000Y-39950000D02*
X161900000Y-49475000D01*
X152375000Y-30425000D02*
X152375000Y-39950000D01*
X161900000Y-63762500D02*
X166662500Y-68525000D01*
X161900000Y-49475000D02*
X161900000Y-63762500D01*
X166662500Y-78050000D02*
X157137500Y-87575000D01*
X166662500Y-68525000D02*
X166662500Y-78050000D01*
X157137500Y-87575000D02*
X157137500Y-101937500D01*
X161900000Y-106625000D02*
X159518750Y-106625000D01*
X149512500Y-101937500D02*
X146075000Y-105375000D01*
X157137500Y-101937500D02*
X149512500Y-101937500D01*
X166737500Y-101937500D02*
X171425000Y-106625000D01*
X157137500Y-101937500D02*
X166737500Y-101937500D01*
X159518750Y-104318750D02*
X157137500Y-101937500D01*
X159518750Y-106625000D02*
X159518750Y-104318750D01*
X123800000Y-5025000D02*
X120625000Y-5025000D01*
X123800000Y-20900000D02*
X114275000Y-30425000D01*
X123800000Y-5025000D02*
X123800000Y-20900000D01*
X122675001Y-48350001D02*
X123800000Y-49475000D01*
X114275000Y-39950000D02*
X122675001Y-48350001D01*
X114275000Y-30425000D02*
X114275000Y-39950000D01*
X123800000Y-63762500D02*
X128562500Y-68525000D01*
X123800000Y-49475000D02*
X123800000Y-63762500D01*
X128562500Y-78050000D02*
X119037500Y-87575000D01*
X128562500Y-68525000D02*
X128562500Y-78050000D01*
X128800000Y-97337500D02*
X119037500Y-87575000D01*
X128800000Y-100000000D02*
X128800000Y-97337500D01*
X149200000Y-5025000D02*
X146075000Y-1900000D01*
X138425000Y-1900000D02*
X136550000Y-3775000D01*
X146075000Y-1900000D02*
X138425000Y-1900000D01*
X137014999Y-8109999D02*
X135890000Y-6985000D01*
X137014999Y-26735001D02*
X137014999Y-8109999D01*
X133325000Y-30425000D02*
X137014999Y-26735001D01*
X133325000Y-39950000D02*
X142850000Y-49475000D01*
X133325000Y-30425000D02*
X133325000Y-39950000D01*
X142850000Y-63762500D02*
X147612500Y-68525000D01*
X142850000Y-49475000D02*
X142850000Y-63762500D01*
X147612500Y-78050000D02*
X138087500Y-87575000D01*
X147612500Y-68525000D02*
X147612500Y-78050000D01*
X143500000Y-92987500D02*
X138087500Y-87575000D01*
X143500000Y-101400000D02*
X143500000Y-92987500D01*
X273025000Y-5025000D02*
X269900000Y-1900000D01*
X262250000Y-1900000D02*
X260375000Y-3775000D01*
X269900000Y-1900000D02*
X262250000Y-1900000D01*
X247625000Y-39950000D02*
X257150000Y-49475000D01*
X247625000Y-30425000D02*
X247625000Y-39950000D01*
X257150000Y-63762500D02*
X261912500Y-68525000D01*
X257150000Y-49475000D02*
X257150000Y-63762500D01*
X261912500Y-78050000D02*
X252387500Y-87575000D01*
X261912500Y-68525000D02*
X261912500Y-78050000D01*
X246087500Y-105375000D02*
X247862500Y-103600000D01*
X254125000Y-103600000D02*
X257150000Y-106625000D01*
X247862500Y-103600000D02*
X254125000Y-103600000D01*
X252387500Y-101862500D02*
X254125000Y-103600000D01*
X252387500Y-87575000D02*
X252387500Y-101862500D01*
X242415000Y-108585000D02*
X245427500Y-108585000D01*
X228000000Y-123000000D02*
X242415000Y-108585000D01*
X247625000Y-30425000D02*
X243500000Y-26300000D01*
X258124010Y-6985000D02*
X257200000Y-7909010D01*
X259715000Y-6985000D02*
X258124010Y-6985000D01*
X257200000Y-7909010D02*
X257200000Y-10400000D01*
X243500000Y-24100000D02*
X243500000Y-26300000D01*
X257200000Y-10400000D02*
X243500000Y-24100000D01*
X119028600Y-119473000D02*
X119028600Y-120005310D01*
X119301600Y-119200000D02*
X119028600Y-119473000D01*
X136427000Y-124671400D02*
X136700000Y-124398400D01*
X123694690Y-124671400D02*
X136427000Y-124671400D01*
X119028600Y-120005310D02*
X123694690Y-124671400D01*
X338471400Y-118794690D02*
X338471400Y-77494690D01*
X341897485Y-124493145D02*
X341897485Y-122220775D01*
X341645315Y-124745315D02*
X341897485Y-124493145D01*
X338471400Y-77494690D02*
X337671400Y-76694690D01*
X341897485Y-122220775D02*
X338471400Y-118794690D01*
X337671400Y-73573000D02*
X337398400Y-73300000D01*
X337671400Y-73871400D02*
X337671400Y-73573000D01*
X337671400Y-76694690D02*
X337671400Y-73871400D01*
X27700000Y-24200000D02*
X27700000Y-16400000D01*
X27700000Y-16400000D02*
X27600000Y-16300000D01*
X336525000Y-5025000D02*
X336525000Y-24075000D01*
X336864010Y-66040000D02*
X332105000Y-66040000D01*
X338455000Y-66040000D02*
X336864010Y-66040000D01*
X337875000Y-65059010D02*
X337500000Y-64684010D01*
X337875000Y-66650000D02*
X337875000Y-65059010D01*
X337500000Y-64684010D02*
X337500000Y-30100000D01*
X336525000Y-29125000D02*
X336525000Y-24075000D01*
X337500000Y-30100000D02*
X336525000Y-29125000D01*
X330175000Y-74320000D02*
X330175000Y-93925000D01*
X338455000Y-66040000D02*
X330175000Y-74320000D01*
X330175000Y-93925000D02*
X330175000Y-112975000D01*
X304775000Y-30425000D02*
X305899999Y-31549999D01*
X334100001Y-31549999D02*
X333549999Y-31549999D01*
X336525000Y-29125000D02*
X334100001Y-31549999D01*
X305899999Y-31549999D02*
X333549999Y-31549999D01*
X330100000Y-113050000D02*
X330175000Y-112975000D01*
X330100000Y-124755400D02*
X330100000Y-113050000D01*
X118298400Y-119200000D02*
X118571400Y-119473000D01*
X118571400Y-119473000D02*
X118571400Y-120194690D01*
X118571400Y-120194690D02*
X123505310Y-125128600D01*
X123505310Y-125128600D02*
X136427000Y-125128600D01*
X136427000Y-125128600D02*
X136700000Y-125401600D01*
X338928600Y-77305310D02*
X338128600Y-76505310D01*
X342354685Y-122031395D02*
X338928600Y-118605310D01*
X342354685Y-125454685D02*
X342354685Y-125116643D01*
X338928600Y-118605310D02*
X338928600Y-77305310D01*
X342354685Y-125116643D02*
X342375516Y-125095812D01*
X342375516Y-125095812D02*
X342375516Y-124394818D01*
X342375516Y-124394818D02*
X342354685Y-124373987D01*
X342354685Y-124373987D02*
X342354685Y-122031395D01*
X338128600Y-76505310D02*
X338128600Y-73100000D01*
X338128600Y-73100000D02*
X338128600Y-69171400D01*
X338128600Y-69171400D02*
X343100000Y-64200000D01*
X25254351Y-29141600D02*
X13841600Y-29141600D01*
X13841600Y-29141600D02*
X12000000Y-27300000D01*
X12000000Y-27300000D02*
X8710000Y-27300000D01*
X6000000Y-17400000D02*
X6000000Y-21600000D01*
X5375000Y-22225000D02*
X3635000Y-22225000D01*
X6000000Y-21600000D02*
X5375000Y-22225000D01*
X9350375Y-2094017D02*
X12281358Y-5025000D01*
X12675000Y-111284898D02*
X12675000Y-112975000D01*
X12675000Y-30425000D02*
X12675000Y-111284898D01*
X26400000Y-120400000D02*
X21600000Y-125200000D01*
X21600000Y-125200000D02*
X15800000Y-125200000D01*
X12675000Y-122075000D02*
X15800000Y-125200000D01*
X12675000Y-112975000D02*
X12675000Y-122075000D01*
X38075000Y-5025000D02*
X38075000Y-30425000D01*
X38075000Y-44712500D02*
X42837500Y-49475000D01*
X38075000Y-30425000D02*
X38075000Y-44712500D01*
X42837500Y-66143750D02*
X45218750Y-68525000D01*
X42837500Y-49475000D02*
X42837500Y-66143750D01*
X42393750Y-65700000D02*
X42837500Y-66143750D01*
X35731250Y-65700000D02*
X42393750Y-65700000D01*
X34156250Y-67275000D02*
X35731250Y-65700000D01*
X45218750Y-82812500D02*
X49981250Y-87575000D01*
X45218750Y-68525000D02*
X45218750Y-82812500D01*
X43627760Y-82812500D02*
X45218750Y-82812500D01*
X40456250Y-85984010D02*
X43627760Y-82812500D01*
X40456250Y-87575000D02*
X40456250Y-85984010D01*
X43962499Y-105500001D02*
X42837500Y-106625000D01*
X49981250Y-99481250D02*
X43962499Y-105500001D01*
X49981250Y-87575000D02*
X49981250Y-99481250D01*
X40456250Y-106625000D02*
X42837500Y-106625000D01*
X27200000Y-117934315D02*
X31434315Y-113700000D01*
X27200000Y-118500000D02*
X27200000Y-117934315D01*
X31434315Y-113700000D02*
X44300000Y-113700000D01*
X44300000Y-113700000D02*
X46200000Y-111800000D01*
X46200000Y-109987500D02*
X42837500Y-106625000D01*
X46200000Y-111800000D02*
X46200000Y-109987500D01*
X17499999Y-30699999D02*
X27500001Y-30699999D01*
X17100000Y-30300000D02*
X17499999Y-30699999D01*
X27500001Y-30699999D02*
X31000000Y-27200000D01*
X34850000Y-27200000D02*
X38075000Y-30425000D01*
X31000000Y-27200000D02*
X34850000Y-27200000D01*
X346766503Y-55180201D02*
X346580067Y-54993765D01*
X347286828Y-55700526D02*
X346766503Y-55180201D01*
X344679809Y-65084936D02*
X347286828Y-62477917D01*
X347286828Y-62477917D02*
X347286828Y-55700526D01*
M02*
