G04 #@! TF.GenerationSoftware,KiCad,Pcbnew,(5.1.0)-1*
G04 #@! TF.CreationDate,2019-05-22T02:08:41-07:00*
G04 #@! TF.ProjectId,mad cat,6d616420-6361-4742-9e6b-696361645f70,rev?*
G04 #@! TF.SameCoordinates,Original*
G04 #@! TF.FileFunction,Copper,L2,Bot*
G04 #@! TF.FilePolarity,Positive*
%FSLAX46Y46*%
G04 Gerber Fmt 4.6, Leading zero omitted, Abs format (unit mm)*
G04 Created by KiCad (PCBNEW (5.1.0)-1) date 2019-05-22 02:08:41*
%MOMM*%
%LPD*%
G04 APERTURE LIST*
%ADD10C,0.100000*%
%ADD11C,0.875000*%
%ADD12C,2.000000*%
%ADD13C,1.200000*%
%ADD14C,0.550000*%
%ADD15R,1.000000X1.000000*%
%ADD16O,1.000000X1.000000*%
%ADD17C,1.000000*%
%ADD18C,4.000000*%
%ADD19R,1.800000X1.100000*%
%ADD20C,0.600000*%
%ADD21R,1.200000X0.900000*%
%ADD22R,0.900000X1.200000*%
%ADD23R,1.500000X1.600000*%
%ADD24R,1.200000X1.200000*%
%ADD25C,2.250000*%
%ADD26C,0.800000*%
%ADD27C,0.508000*%
%ADD28C,0.381000*%
%ADD29C,0.254000*%
%ADD30C,0.250000*%
G04 APERTURE END LIST*
D10*
G36*
X112438077Y-106503274D02*
G01*
X112459312Y-106506424D01*
X112480136Y-106511640D01*
X112500348Y-106518872D01*
X112519754Y-106528051D01*
X112538167Y-106539087D01*
X112555410Y-106551875D01*
X112571316Y-106566291D01*
X112933709Y-106928684D01*
X112948125Y-106944590D01*
X112960913Y-106961833D01*
X112971949Y-106980246D01*
X112981128Y-106999652D01*
X112988360Y-107019864D01*
X112993576Y-107040688D01*
X112996726Y-107061923D01*
X112997779Y-107083364D01*
X112996726Y-107104805D01*
X112993576Y-107126040D01*
X112988360Y-107146864D01*
X112981128Y-107167076D01*
X112971949Y-107186482D01*
X112960913Y-107204895D01*
X112948125Y-107222138D01*
X112933709Y-107238044D01*
X112624350Y-107547403D01*
X112608444Y-107561819D01*
X112591201Y-107574607D01*
X112572788Y-107585643D01*
X112553382Y-107594822D01*
X112533170Y-107602054D01*
X112512346Y-107607270D01*
X112491111Y-107610420D01*
X112469670Y-107611473D01*
X112448229Y-107610420D01*
X112426994Y-107607270D01*
X112406170Y-107602054D01*
X112385958Y-107594822D01*
X112366552Y-107585643D01*
X112348139Y-107574607D01*
X112330896Y-107561819D01*
X112314990Y-107547403D01*
X111952597Y-107185010D01*
X111938181Y-107169104D01*
X111925393Y-107151861D01*
X111914357Y-107133448D01*
X111905178Y-107114042D01*
X111897946Y-107093830D01*
X111892730Y-107073006D01*
X111889580Y-107051771D01*
X111888527Y-107030330D01*
X111889580Y-107008889D01*
X111892730Y-106987654D01*
X111897946Y-106966830D01*
X111905178Y-106946618D01*
X111914357Y-106927212D01*
X111925393Y-106908799D01*
X111938181Y-106891556D01*
X111952597Y-106875650D01*
X112261956Y-106566291D01*
X112277862Y-106551875D01*
X112295105Y-106539087D01*
X112313518Y-106528051D01*
X112332924Y-106518872D01*
X112353136Y-106511640D01*
X112373960Y-106506424D01*
X112395195Y-106503274D01*
X112416636Y-106502221D01*
X112438077Y-106503274D01*
X112438077Y-106503274D01*
G37*
D11*
X112443153Y-107056847D03*
D10*
G36*
X113551771Y-105389580D02*
G01*
X113573006Y-105392730D01*
X113593830Y-105397946D01*
X113614042Y-105405178D01*
X113633448Y-105414357D01*
X113651861Y-105425393D01*
X113669104Y-105438181D01*
X113685010Y-105452597D01*
X114047403Y-105814990D01*
X114061819Y-105830896D01*
X114074607Y-105848139D01*
X114085643Y-105866552D01*
X114094822Y-105885958D01*
X114102054Y-105906170D01*
X114107270Y-105926994D01*
X114110420Y-105948229D01*
X114111473Y-105969670D01*
X114110420Y-105991111D01*
X114107270Y-106012346D01*
X114102054Y-106033170D01*
X114094822Y-106053382D01*
X114085643Y-106072788D01*
X114074607Y-106091201D01*
X114061819Y-106108444D01*
X114047403Y-106124350D01*
X113738044Y-106433709D01*
X113722138Y-106448125D01*
X113704895Y-106460913D01*
X113686482Y-106471949D01*
X113667076Y-106481128D01*
X113646864Y-106488360D01*
X113626040Y-106493576D01*
X113604805Y-106496726D01*
X113583364Y-106497779D01*
X113561923Y-106496726D01*
X113540688Y-106493576D01*
X113519864Y-106488360D01*
X113499652Y-106481128D01*
X113480246Y-106471949D01*
X113461833Y-106460913D01*
X113444590Y-106448125D01*
X113428684Y-106433709D01*
X113066291Y-106071316D01*
X113051875Y-106055410D01*
X113039087Y-106038167D01*
X113028051Y-106019754D01*
X113018872Y-106000348D01*
X113011640Y-105980136D01*
X113006424Y-105959312D01*
X113003274Y-105938077D01*
X113002221Y-105916636D01*
X113003274Y-105895195D01*
X113006424Y-105873960D01*
X113011640Y-105853136D01*
X113018872Y-105832924D01*
X113028051Y-105813518D01*
X113039087Y-105795105D01*
X113051875Y-105777862D01*
X113066291Y-105761956D01*
X113375650Y-105452597D01*
X113391556Y-105438181D01*
X113408799Y-105425393D01*
X113427212Y-105414357D01*
X113446618Y-105405178D01*
X113466830Y-105397946D01*
X113487654Y-105392730D01*
X113508889Y-105389580D01*
X113530330Y-105388527D01*
X113551771Y-105389580D01*
X113551771Y-105389580D01*
G37*
D11*
X113556847Y-105943153D03*
D12*
X344679809Y-65084936D03*
X345929809Y-67250000D03*
D10*
G36*
X345563784Y-68616025D02*
G01*
X344563784Y-66883975D01*
X346295834Y-65883975D01*
X347295834Y-67616025D01*
X345563784Y-68616025D01*
X345563784Y-68616025D01*
G37*
D12*
X347179809Y-69415064D03*
D10*
G36*
X350210018Y-57352398D02*
G01*
X350307511Y-57363614D01*
X350403434Y-57384331D01*
X350496865Y-57414351D01*
X350586904Y-57453384D01*
X350672683Y-57501055D01*
X350753377Y-57556904D01*
X350828207Y-57620393D01*
X350896455Y-57690911D01*
X350957462Y-57767779D01*
X351010641Y-57850257D01*
X351039042Y-57903043D01*
X351039043Y-57903045D01*
X351078571Y-57992868D01*
X351109104Y-58086133D01*
X351130349Y-58181941D01*
X351142100Y-58279370D01*
X351144245Y-58377482D01*
X351136764Y-58475332D01*
X351119727Y-58571977D01*
X351093299Y-58666487D01*
X351057735Y-58757951D01*
X351013378Y-58845489D01*
X350960653Y-58928258D01*
X350900070Y-59005461D01*
X350832211Y-59076353D01*
X350757731Y-59140253D01*
X350644616Y-59216285D01*
X349605385Y-59816285D01*
X349518092Y-59861123D01*
X349426824Y-59897189D01*
X349332461Y-59924136D01*
X349235911Y-59941704D01*
X349138104Y-59949724D01*
X349039982Y-59948118D01*
X348942489Y-59936902D01*
X348846566Y-59916185D01*
X348753135Y-59886165D01*
X348663096Y-59847132D01*
X348577317Y-59799461D01*
X348496623Y-59743612D01*
X348421793Y-59680123D01*
X348353545Y-59609605D01*
X348292538Y-59532737D01*
X348239359Y-59450259D01*
X348210958Y-59397473D01*
X348210957Y-59397471D01*
X348171429Y-59307648D01*
X348140896Y-59214383D01*
X348119651Y-59118575D01*
X348107900Y-59021146D01*
X348105755Y-58923034D01*
X348113236Y-58825184D01*
X348130273Y-58728539D01*
X348156701Y-58634029D01*
X348192265Y-58542565D01*
X348236622Y-58455027D01*
X348289347Y-58372258D01*
X348349930Y-58295055D01*
X348417789Y-58224163D01*
X348492269Y-58160263D01*
X348605384Y-58084231D01*
X349644615Y-57484231D01*
X349731908Y-57439393D01*
X349823176Y-57403327D01*
X349917539Y-57376380D01*
X350014089Y-57358812D01*
X350111896Y-57350792D01*
X350210018Y-57352398D01*
X350210018Y-57352398D01*
G37*
D12*
X349625000Y-58650258D03*
D10*
G36*
X355810018Y-67051882D02*
G01*
X355907511Y-67063098D01*
X356003434Y-67083815D01*
X356096865Y-67113835D01*
X356186904Y-67152868D01*
X356272683Y-67200539D01*
X356353377Y-67256388D01*
X356428207Y-67319877D01*
X356496455Y-67390395D01*
X356557462Y-67467263D01*
X356610641Y-67549741D01*
X356639042Y-67602527D01*
X356639043Y-67602529D01*
X356678571Y-67692352D01*
X356709104Y-67785617D01*
X356730349Y-67881425D01*
X356742100Y-67978854D01*
X356744245Y-68076966D01*
X356736764Y-68174816D01*
X356719727Y-68271461D01*
X356693299Y-68365971D01*
X356657735Y-68457435D01*
X356613378Y-68544973D01*
X356560653Y-68627742D01*
X356500070Y-68704945D01*
X356432211Y-68775837D01*
X356357731Y-68839737D01*
X356244616Y-68915769D01*
X355205385Y-69515769D01*
X355118092Y-69560607D01*
X355026824Y-69596673D01*
X354932461Y-69623620D01*
X354835911Y-69641188D01*
X354738104Y-69649208D01*
X354639982Y-69647602D01*
X354542489Y-69636386D01*
X354446566Y-69615669D01*
X354353135Y-69585649D01*
X354263096Y-69546616D01*
X354177317Y-69498945D01*
X354096623Y-69443096D01*
X354021793Y-69379607D01*
X353953545Y-69309089D01*
X353892538Y-69232221D01*
X353839359Y-69149743D01*
X353810958Y-69096957D01*
X353810957Y-69096955D01*
X353771429Y-69007132D01*
X353740896Y-68913867D01*
X353719651Y-68818059D01*
X353707900Y-68720630D01*
X353705755Y-68622518D01*
X353713236Y-68524668D01*
X353730273Y-68428023D01*
X353756701Y-68333513D01*
X353792265Y-68242049D01*
X353836622Y-68154511D01*
X353889347Y-68071742D01*
X353949930Y-67994539D01*
X354017789Y-67923647D01*
X354092269Y-67859747D01*
X354205384Y-67783715D01*
X355244615Y-67183715D01*
X355331908Y-67138877D01*
X355423176Y-67102811D01*
X355517539Y-67075864D01*
X355614089Y-67058296D01*
X355711896Y-67050276D01*
X355810018Y-67051882D01*
X355810018Y-67051882D01*
G37*
D12*
X355225000Y-68349742D03*
X357237178Y-57834936D03*
X359737178Y-62165064D03*
D13*
X116487868Y-105643503D03*
D10*
G36*
X116417157Y-106562742D02*
G01*
X115568629Y-105714214D01*
X116558579Y-104724264D01*
X117407107Y-105572792D01*
X116417157Y-106562742D01*
X116417157Y-106562742D01*
G37*
D13*
X118043503Y-104087868D03*
D10*
G36*
X117972792Y-105007107D02*
G01*
X117124264Y-104158579D01*
X118114214Y-103168629D01*
X118962742Y-104017157D01*
X117972792Y-105007107D01*
X117972792Y-105007107D01*
G37*
D13*
X116912132Y-102956497D03*
D10*
G36*
X116841421Y-103875736D02*
G01*
X115992893Y-103027208D01*
X116982843Y-102037258D01*
X117831371Y-102885786D01*
X116841421Y-103875736D01*
X116841421Y-103875736D01*
G37*
D13*
X115356497Y-104512132D03*
D10*
G36*
X115285786Y-105431371D02*
G01*
X114437258Y-104582843D01*
X115427208Y-103592893D01*
X116275736Y-104441421D01*
X115285786Y-105431371D01*
X115285786Y-105431371D01*
G37*
D14*
X125202082Y-118858936D03*
D10*
G36*
X124477298Y-118523060D02*
G01*
X124866206Y-118134152D01*
X125926866Y-119194812D01*
X125537958Y-119583720D01*
X124477298Y-118523060D01*
X124477298Y-118523060D01*
G37*
D14*
X125767767Y-118293250D03*
D10*
G36*
X125042983Y-117957374D02*
G01*
X125431891Y-117568466D01*
X126492551Y-118629126D01*
X126103643Y-119018034D01*
X125042983Y-117957374D01*
X125042983Y-117957374D01*
G37*
D14*
X126333452Y-117727565D03*
D10*
G36*
X125608668Y-117391689D02*
G01*
X125997576Y-117002781D01*
X127058236Y-118063441D01*
X126669328Y-118452349D01*
X125608668Y-117391689D01*
X125608668Y-117391689D01*
G37*
D14*
X126899138Y-117161880D03*
D10*
G36*
X126174354Y-116826004D02*
G01*
X126563262Y-116437096D01*
X127623922Y-117497756D01*
X127235014Y-117886664D01*
X126174354Y-116826004D01*
X126174354Y-116826004D01*
G37*
D14*
X127464823Y-116596194D03*
D10*
G36*
X126740039Y-116260318D02*
G01*
X127128947Y-115871410D01*
X128189607Y-116932070D01*
X127800699Y-117320978D01*
X126740039Y-116260318D01*
X126740039Y-116260318D01*
G37*
D14*
X128030509Y-116030509D03*
D10*
G36*
X127305725Y-115694633D02*
G01*
X127694633Y-115305725D01*
X128755293Y-116366385D01*
X128366385Y-116755293D01*
X127305725Y-115694633D01*
X127305725Y-115694633D01*
G37*
D14*
X128596194Y-115464823D03*
D10*
G36*
X127871410Y-115128947D02*
G01*
X128260318Y-114740039D01*
X129320978Y-115800699D01*
X128932070Y-116189607D01*
X127871410Y-115128947D01*
X127871410Y-115128947D01*
G37*
D14*
X129161880Y-114899138D03*
D10*
G36*
X128437096Y-114563262D02*
G01*
X128826004Y-114174354D01*
X129886664Y-115235014D01*
X129497756Y-115623922D01*
X128437096Y-114563262D01*
X128437096Y-114563262D01*
G37*
D14*
X129727565Y-114333452D03*
D10*
G36*
X129002781Y-113997576D02*
G01*
X129391689Y-113608668D01*
X130452349Y-114669328D01*
X130063441Y-115058236D01*
X129002781Y-113997576D01*
X129002781Y-113997576D01*
G37*
D14*
X130293250Y-113767767D03*
D10*
G36*
X129568466Y-113431891D02*
G01*
X129957374Y-113042983D01*
X131018034Y-114103643D01*
X130629126Y-114492551D01*
X129568466Y-113431891D01*
X129568466Y-113431891D01*
G37*
D14*
X130858936Y-113202082D03*
D10*
G36*
X130134152Y-112866206D02*
G01*
X130523060Y-112477298D01*
X131583720Y-113537958D01*
X131194812Y-113926866D01*
X130134152Y-112866206D01*
X130134152Y-112866206D01*
G37*
D14*
X130858936Y-110797918D03*
D10*
G36*
X130523060Y-111522702D02*
G01*
X130134152Y-111133794D01*
X131194812Y-110073134D01*
X131583720Y-110462042D01*
X130523060Y-111522702D01*
X130523060Y-111522702D01*
G37*
D14*
X130293250Y-110232233D03*
D10*
G36*
X129957374Y-110957017D02*
G01*
X129568466Y-110568109D01*
X130629126Y-109507449D01*
X131018034Y-109896357D01*
X129957374Y-110957017D01*
X129957374Y-110957017D01*
G37*
D14*
X129727565Y-109666548D03*
D10*
G36*
X129391689Y-110391332D02*
G01*
X129002781Y-110002424D01*
X130063441Y-108941764D01*
X130452349Y-109330672D01*
X129391689Y-110391332D01*
X129391689Y-110391332D01*
G37*
D14*
X129161880Y-109100862D03*
D10*
G36*
X128826004Y-109825646D02*
G01*
X128437096Y-109436738D01*
X129497756Y-108376078D01*
X129886664Y-108764986D01*
X128826004Y-109825646D01*
X128826004Y-109825646D01*
G37*
D14*
X128596194Y-108535177D03*
D10*
G36*
X128260318Y-109259961D02*
G01*
X127871410Y-108871053D01*
X128932070Y-107810393D01*
X129320978Y-108199301D01*
X128260318Y-109259961D01*
X128260318Y-109259961D01*
G37*
D14*
X128030509Y-107969491D03*
D10*
G36*
X127694633Y-108694275D02*
G01*
X127305725Y-108305367D01*
X128366385Y-107244707D01*
X128755293Y-107633615D01*
X127694633Y-108694275D01*
X127694633Y-108694275D01*
G37*
D14*
X127464823Y-107403806D03*
D10*
G36*
X127128947Y-108128590D02*
G01*
X126740039Y-107739682D01*
X127800699Y-106679022D01*
X128189607Y-107067930D01*
X127128947Y-108128590D01*
X127128947Y-108128590D01*
G37*
D14*
X126899138Y-106838120D03*
D10*
G36*
X126563262Y-107562904D02*
G01*
X126174354Y-107173996D01*
X127235014Y-106113336D01*
X127623922Y-106502244D01*
X126563262Y-107562904D01*
X126563262Y-107562904D01*
G37*
D14*
X126333452Y-106272435D03*
D10*
G36*
X125997576Y-106997219D02*
G01*
X125608668Y-106608311D01*
X126669328Y-105547651D01*
X127058236Y-105936559D01*
X125997576Y-106997219D01*
X125997576Y-106997219D01*
G37*
D14*
X125767767Y-105706750D03*
D10*
G36*
X125431891Y-106431534D02*
G01*
X125042983Y-106042626D01*
X126103643Y-104981966D01*
X126492551Y-105370874D01*
X125431891Y-106431534D01*
X125431891Y-106431534D01*
G37*
D14*
X125202082Y-105141064D03*
D10*
G36*
X124866206Y-105865848D02*
G01*
X124477298Y-105476940D01*
X125537958Y-104416280D01*
X125926866Y-104805188D01*
X124866206Y-105865848D01*
X124866206Y-105865848D01*
G37*
D14*
X122797918Y-105141064D03*
D10*
G36*
X122073134Y-104805188D02*
G01*
X122462042Y-104416280D01*
X123522702Y-105476940D01*
X123133794Y-105865848D01*
X122073134Y-104805188D01*
X122073134Y-104805188D01*
G37*
D14*
X122232233Y-105706750D03*
D10*
G36*
X121507449Y-105370874D02*
G01*
X121896357Y-104981966D01*
X122957017Y-106042626D01*
X122568109Y-106431534D01*
X121507449Y-105370874D01*
X121507449Y-105370874D01*
G37*
D14*
X121666548Y-106272435D03*
D10*
G36*
X120941764Y-105936559D02*
G01*
X121330672Y-105547651D01*
X122391332Y-106608311D01*
X122002424Y-106997219D01*
X120941764Y-105936559D01*
X120941764Y-105936559D01*
G37*
D14*
X121100862Y-106838120D03*
D10*
G36*
X120376078Y-106502244D02*
G01*
X120764986Y-106113336D01*
X121825646Y-107173996D01*
X121436738Y-107562904D01*
X120376078Y-106502244D01*
X120376078Y-106502244D01*
G37*
D14*
X120535177Y-107403806D03*
D10*
G36*
X119810393Y-107067930D02*
G01*
X120199301Y-106679022D01*
X121259961Y-107739682D01*
X120871053Y-108128590D01*
X119810393Y-107067930D01*
X119810393Y-107067930D01*
G37*
D14*
X119969491Y-107969491D03*
D10*
G36*
X119244707Y-107633615D02*
G01*
X119633615Y-107244707D01*
X120694275Y-108305367D01*
X120305367Y-108694275D01*
X119244707Y-107633615D01*
X119244707Y-107633615D01*
G37*
D14*
X119403806Y-108535177D03*
D10*
G36*
X118679022Y-108199301D02*
G01*
X119067930Y-107810393D01*
X120128590Y-108871053D01*
X119739682Y-109259961D01*
X118679022Y-108199301D01*
X118679022Y-108199301D01*
G37*
D14*
X118838120Y-109100862D03*
D10*
G36*
X118113336Y-108764986D02*
G01*
X118502244Y-108376078D01*
X119562904Y-109436738D01*
X119173996Y-109825646D01*
X118113336Y-108764986D01*
X118113336Y-108764986D01*
G37*
D14*
X118272435Y-109666548D03*
D10*
G36*
X117547651Y-109330672D02*
G01*
X117936559Y-108941764D01*
X118997219Y-110002424D01*
X118608311Y-110391332D01*
X117547651Y-109330672D01*
X117547651Y-109330672D01*
G37*
D14*
X117706750Y-110232233D03*
D10*
G36*
X116981966Y-109896357D02*
G01*
X117370874Y-109507449D01*
X118431534Y-110568109D01*
X118042626Y-110957017D01*
X116981966Y-109896357D01*
X116981966Y-109896357D01*
G37*
D14*
X117141064Y-110797918D03*
D10*
G36*
X116416280Y-110462042D02*
G01*
X116805188Y-110073134D01*
X117865848Y-111133794D01*
X117476940Y-111522702D01*
X116416280Y-110462042D01*
X116416280Y-110462042D01*
G37*
D14*
X117141064Y-113202082D03*
D10*
G36*
X116805188Y-113926866D02*
G01*
X116416280Y-113537958D01*
X117476940Y-112477298D01*
X117865848Y-112866206D01*
X116805188Y-113926866D01*
X116805188Y-113926866D01*
G37*
D14*
X117706750Y-113767767D03*
D10*
G36*
X117370874Y-114492551D02*
G01*
X116981966Y-114103643D01*
X118042626Y-113042983D01*
X118431534Y-113431891D01*
X117370874Y-114492551D01*
X117370874Y-114492551D01*
G37*
D14*
X118272435Y-114333452D03*
D10*
G36*
X117936559Y-115058236D02*
G01*
X117547651Y-114669328D01*
X118608311Y-113608668D01*
X118997219Y-113997576D01*
X117936559Y-115058236D01*
X117936559Y-115058236D01*
G37*
D14*
X118838120Y-114899138D03*
D10*
G36*
X118502244Y-115623922D02*
G01*
X118113336Y-115235014D01*
X119173996Y-114174354D01*
X119562904Y-114563262D01*
X118502244Y-115623922D01*
X118502244Y-115623922D01*
G37*
D14*
X119403806Y-115464823D03*
D10*
G36*
X119067930Y-116189607D02*
G01*
X118679022Y-115800699D01*
X119739682Y-114740039D01*
X120128590Y-115128947D01*
X119067930Y-116189607D01*
X119067930Y-116189607D01*
G37*
D14*
X119969491Y-116030509D03*
D10*
G36*
X119633615Y-116755293D02*
G01*
X119244707Y-116366385D01*
X120305367Y-115305725D01*
X120694275Y-115694633D01*
X119633615Y-116755293D01*
X119633615Y-116755293D01*
G37*
D14*
X120535177Y-116596194D03*
D10*
G36*
X120199301Y-117320978D02*
G01*
X119810393Y-116932070D01*
X120871053Y-115871410D01*
X121259961Y-116260318D01*
X120199301Y-117320978D01*
X120199301Y-117320978D01*
G37*
D14*
X121100862Y-117161880D03*
D10*
G36*
X120764986Y-117886664D02*
G01*
X120376078Y-117497756D01*
X121436738Y-116437096D01*
X121825646Y-116826004D01*
X120764986Y-117886664D01*
X120764986Y-117886664D01*
G37*
D14*
X121666548Y-117727565D03*
D10*
G36*
X121330672Y-118452349D02*
G01*
X120941764Y-118063441D01*
X122002424Y-117002781D01*
X122391332Y-117391689D01*
X121330672Y-118452349D01*
X121330672Y-118452349D01*
G37*
D14*
X122232233Y-118293250D03*
D10*
G36*
X121896357Y-119018034D02*
G01*
X121507449Y-118629126D01*
X122568109Y-117568466D01*
X122957017Y-117957374D01*
X121896357Y-119018034D01*
X121896357Y-119018034D01*
G37*
D14*
X122797918Y-118858936D03*
D10*
G36*
X122462042Y-119583720D02*
G01*
X122073134Y-119194812D01*
X123133794Y-118134152D01*
X123522702Y-118523060D01*
X122462042Y-119583720D01*
X122462042Y-119583720D01*
G37*
D15*
X2365000Y-20955000D03*
D16*
X3635000Y-20955000D03*
X2365000Y-22225000D03*
X3635000Y-22225000D03*
X2365000Y-23495000D03*
D17*
X3635000Y-23495000D03*
D18*
X5000000Y5000000D03*
X356950000Y-132000000D03*
X5000000Y-132000000D03*
X180975000Y-132000000D03*
X92987500Y-132000000D03*
X268962500Y-132000000D03*
X356950000Y5000000D03*
X268962500Y5000000D03*
X180975000Y5000000D03*
X92987500Y5000000D03*
D19*
X9800000Y-24175000D03*
X16000000Y-24175000D03*
X9800000Y-20475000D03*
X16000000Y-20475000D03*
D12*
X11109936Y-17270191D03*
X13275000Y-16020191D03*
D10*
G36*
X14641025Y-16386216D02*
G01*
X12908975Y-17386216D01*
X11908975Y-15654166D01*
X13641025Y-14654166D01*
X14641025Y-16386216D01*
X14641025Y-16386216D01*
G37*
D12*
X15440064Y-14770191D03*
D10*
G36*
X4500332Y-10813236D02*
G01*
X4596977Y-10830273D01*
X4691487Y-10856701D01*
X4782951Y-10892265D01*
X4870489Y-10936622D01*
X4953258Y-10989347D01*
X5030461Y-11049930D01*
X5101353Y-11117789D01*
X5165253Y-11192269D01*
X5241285Y-11305384D01*
X5841285Y-12344615D01*
X5886123Y-12431908D01*
X5922189Y-12523176D01*
X5949136Y-12617539D01*
X5966704Y-12714089D01*
X5974724Y-12811896D01*
X5973118Y-12910018D01*
X5961902Y-13007511D01*
X5941185Y-13103434D01*
X5911165Y-13196865D01*
X5872132Y-13286904D01*
X5824461Y-13372683D01*
X5768612Y-13453377D01*
X5705123Y-13528207D01*
X5634605Y-13596455D01*
X5557737Y-13657462D01*
X5475259Y-13710641D01*
X5422473Y-13739042D01*
X5422471Y-13739043D01*
X5332648Y-13778571D01*
X5239383Y-13809104D01*
X5143575Y-13830349D01*
X5046146Y-13842100D01*
X4948034Y-13844245D01*
X4850184Y-13836764D01*
X4753539Y-13819727D01*
X4659029Y-13793299D01*
X4567565Y-13757735D01*
X4480027Y-13713378D01*
X4397258Y-13660653D01*
X4320055Y-13600070D01*
X4249163Y-13532211D01*
X4185263Y-13457731D01*
X4109231Y-13344616D01*
X3509231Y-12305385D01*
X3464393Y-12218092D01*
X3428327Y-12126824D01*
X3401380Y-12032461D01*
X3383812Y-11935911D01*
X3375792Y-11838104D01*
X3377398Y-11739982D01*
X3388614Y-11642489D01*
X3409331Y-11546566D01*
X3439351Y-11453135D01*
X3478384Y-11363096D01*
X3526055Y-11277317D01*
X3581904Y-11196623D01*
X3645393Y-11121793D01*
X3715911Y-11053545D01*
X3792779Y-10992538D01*
X3875257Y-10939359D01*
X3928043Y-10910958D01*
X3928045Y-10910957D01*
X4017868Y-10871429D01*
X4111133Y-10840896D01*
X4206941Y-10819651D01*
X4304370Y-10807900D01*
X4402482Y-10805755D01*
X4500332Y-10813236D01*
X4500332Y-10813236D01*
G37*
D12*
X4675258Y-12325000D03*
D10*
G36*
X14199816Y-5213236D02*
G01*
X14296461Y-5230273D01*
X14390971Y-5256701D01*
X14482435Y-5292265D01*
X14569973Y-5336622D01*
X14652742Y-5389347D01*
X14729945Y-5449930D01*
X14800837Y-5517789D01*
X14864737Y-5592269D01*
X14940769Y-5705384D01*
X15540769Y-6744615D01*
X15585607Y-6831908D01*
X15621673Y-6923176D01*
X15648620Y-7017539D01*
X15666188Y-7114089D01*
X15674208Y-7211896D01*
X15672602Y-7310018D01*
X15661386Y-7407511D01*
X15640669Y-7503434D01*
X15610649Y-7596865D01*
X15571616Y-7686904D01*
X15523945Y-7772683D01*
X15468096Y-7853377D01*
X15404607Y-7928207D01*
X15334089Y-7996455D01*
X15257221Y-8057462D01*
X15174743Y-8110641D01*
X15121957Y-8139042D01*
X15121955Y-8139043D01*
X15032132Y-8178571D01*
X14938867Y-8209104D01*
X14843059Y-8230349D01*
X14745630Y-8242100D01*
X14647518Y-8244245D01*
X14549668Y-8236764D01*
X14453023Y-8219727D01*
X14358513Y-8193299D01*
X14267049Y-8157735D01*
X14179511Y-8113378D01*
X14096742Y-8060653D01*
X14019539Y-8000070D01*
X13948647Y-7932211D01*
X13884747Y-7857731D01*
X13808715Y-7744616D01*
X13208715Y-6705385D01*
X13163877Y-6618092D01*
X13127811Y-6526824D01*
X13100864Y-6432461D01*
X13083296Y-6335911D01*
X13075276Y-6238104D01*
X13076882Y-6139982D01*
X13088098Y-6042489D01*
X13108815Y-5946566D01*
X13138835Y-5853135D01*
X13177868Y-5763096D01*
X13225539Y-5677317D01*
X13281388Y-5596623D01*
X13344877Y-5521793D01*
X13415395Y-5453545D01*
X13492263Y-5392538D01*
X13574741Y-5339359D01*
X13627527Y-5310958D01*
X13627529Y-5310957D01*
X13717352Y-5271429D01*
X13810617Y-5240896D01*
X13906425Y-5219651D01*
X14003854Y-5207900D01*
X14101966Y-5205755D01*
X14199816Y-5213236D01*
X14199816Y-5213236D01*
G37*
D12*
X14374742Y-6725000D03*
X3859936Y-4712822D03*
X8190064Y-2212822D03*
D10*
G36*
X24549505Y-24426204D02*
G01*
X24573773Y-24429804D01*
X24597572Y-24435765D01*
X24620671Y-24444030D01*
X24642850Y-24454520D01*
X24663893Y-24467132D01*
X24683599Y-24481747D01*
X24701777Y-24498223D01*
X24718253Y-24516401D01*
X24732868Y-24536107D01*
X24745480Y-24557150D01*
X24755970Y-24579329D01*
X24764235Y-24602428D01*
X24770196Y-24626227D01*
X24773796Y-24650495D01*
X24775000Y-24674999D01*
X24775000Y-25375001D01*
X24773796Y-25399505D01*
X24770196Y-25423773D01*
X24764235Y-25447572D01*
X24755970Y-25470671D01*
X24745480Y-25492850D01*
X24732868Y-25513893D01*
X24718253Y-25533599D01*
X24701777Y-25551777D01*
X24683599Y-25568253D01*
X24663893Y-25582868D01*
X24642850Y-25595480D01*
X24620671Y-25605970D01*
X24597572Y-25614235D01*
X24573773Y-25620196D01*
X24549505Y-25623796D01*
X24525001Y-25625000D01*
X23224999Y-25625000D01*
X23200495Y-25623796D01*
X23176227Y-25620196D01*
X23152428Y-25614235D01*
X23129329Y-25605970D01*
X23107150Y-25595480D01*
X23086107Y-25582868D01*
X23066401Y-25568253D01*
X23048223Y-25551777D01*
X23031747Y-25533599D01*
X23017132Y-25513893D01*
X23004520Y-25492850D01*
X22994030Y-25470671D01*
X22985765Y-25447572D01*
X22979804Y-25423773D01*
X22976204Y-25399505D01*
X22975000Y-25375001D01*
X22975000Y-24674999D01*
X22976204Y-24650495D01*
X22979804Y-24626227D01*
X22985765Y-24602428D01*
X22994030Y-24579329D01*
X23004520Y-24557150D01*
X23017132Y-24536107D01*
X23031747Y-24516401D01*
X23048223Y-24498223D01*
X23066401Y-24481747D01*
X23086107Y-24467132D01*
X23107150Y-24454520D01*
X23129329Y-24444030D01*
X23152428Y-24435765D01*
X23176227Y-24429804D01*
X23200495Y-24426204D01*
X23224999Y-24425000D01*
X24525001Y-24425000D01*
X24549505Y-24426204D01*
X24549505Y-24426204D01*
G37*
D13*
X23875000Y-25025000D03*
D10*
G36*
X24549505Y-18826204D02*
G01*
X24573773Y-18829804D01*
X24597572Y-18835765D01*
X24620671Y-18844030D01*
X24642850Y-18854520D01*
X24663893Y-18867132D01*
X24683599Y-18881747D01*
X24701777Y-18898223D01*
X24718253Y-18916401D01*
X24732868Y-18936107D01*
X24745480Y-18957150D01*
X24755970Y-18979329D01*
X24764235Y-19002428D01*
X24770196Y-19026227D01*
X24773796Y-19050495D01*
X24775000Y-19074999D01*
X24775000Y-19775001D01*
X24773796Y-19799505D01*
X24770196Y-19823773D01*
X24764235Y-19847572D01*
X24755970Y-19870671D01*
X24745480Y-19892850D01*
X24732868Y-19913893D01*
X24718253Y-19933599D01*
X24701777Y-19951777D01*
X24683599Y-19968253D01*
X24663893Y-19982868D01*
X24642850Y-19995480D01*
X24620671Y-20005970D01*
X24597572Y-20014235D01*
X24573773Y-20020196D01*
X24549505Y-20023796D01*
X24525001Y-20025000D01*
X23224999Y-20025000D01*
X23200495Y-20023796D01*
X23176227Y-20020196D01*
X23152428Y-20014235D01*
X23129329Y-20005970D01*
X23107150Y-19995480D01*
X23086107Y-19982868D01*
X23066401Y-19968253D01*
X23048223Y-19951777D01*
X23031747Y-19933599D01*
X23017132Y-19913893D01*
X23004520Y-19892850D01*
X22994030Y-19870671D01*
X22985765Y-19847572D01*
X22979804Y-19823773D01*
X22976204Y-19799505D01*
X22975000Y-19775001D01*
X22975000Y-19074999D01*
X22976204Y-19050495D01*
X22979804Y-19026227D01*
X22985765Y-19002428D01*
X22994030Y-18979329D01*
X23004520Y-18957150D01*
X23017132Y-18936107D01*
X23031747Y-18916401D01*
X23048223Y-18898223D01*
X23066401Y-18881747D01*
X23086107Y-18867132D01*
X23107150Y-18854520D01*
X23129329Y-18844030D01*
X23152428Y-18835765D01*
X23176227Y-18829804D01*
X23200495Y-18826204D01*
X23224999Y-18825000D01*
X24525001Y-18825000D01*
X24549505Y-18826204D01*
X24549505Y-18826204D01*
G37*
D13*
X23875000Y-19425000D03*
D10*
G36*
X20639703Y-23425722D02*
G01*
X20654264Y-23427882D01*
X20668543Y-23431459D01*
X20682403Y-23436418D01*
X20695710Y-23442712D01*
X20708336Y-23450280D01*
X20720159Y-23459048D01*
X20731066Y-23468934D01*
X20740952Y-23479841D01*
X20749720Y-23491664D01*
X20757288Y-23504290D01*
X20763582Y-23517597D01*
X20768541Y-23531457D01*
X20772118Y-23545736D01*
X20774278Y-23560297D01*
X20775000Y-23575000D01*
X20775000Y-23875000D01*
X20774278Y-23889703D01*
X20772118Y-23904264D01*
X20768541Y-23918543D01*
X20763582Y-23932403D01*
X20757288Y-23945710D01*
X20749720Y-23958336D01*
X20740952Y-23970159D01*
X20731066Y-23981066D01*
X20720159Y-23990952D01*
X20708336Y-23999720D01*
X20695710Y-24007288D01*
X20682403Y-24013582D01*
X20668543Y-24018541D01*
X20654264Y-24022118D01*
X20639703Y-24024278D01*
X20625000Y-24025000D01*
X19375000Y-24025000D01*
X19360297Y-24024278D01*
X19345736Y-24022118D01*
X19331457Y-24018541D01*
X19317597Y-24013582D01*
X19304290Y-24007288D01*
X19291664Y-23999720D01*
X19279841Y-23990952D01*
X19268934Y-23981066D01*
X19259048Y-23970159D01*
X19250280Y-23958336D01*
X19242712Y-23945710D01*
X19236418Y-23932403D01*
X19231459Y-23918543D01*
X19227882Y-23904264D01*
X19225722Y-23889703D01*
X19225000Y-23875000D01*
X19225000Y-23575000D01*
X19225722Y-23560297D01*
X19227882Y-23545736D01*
X19231459Y-23531457D01*
X19236418Y-23517597D01*
X19242712Y-23504290D01*
X19250280Y-23491664D01*
X19259048Y-23479841D01*
X19268934Y-23468934D01*
X19279841Y-23459048D01*
X19291664Y-23450280D01*
X19304290Y-23442712D01*
X19317597Y-23436418D01*
X19331457Y-23431459D01*
X19345736Y-23427882D01*
X19360297Y-23425722D01*
X19375000Y-23425000D01*
X20625000Y-23425000D01*
X20639703Y-23425722D01*
X20639703Y-23425722D01*
G37*
D20*
X20000000Y-23725000D03*
D10*
G36*
X20639703Y-22425722D02*
G01*
X20654264Y-22427882D01*
X20668543Y-22431459D01*
X20682403Y-22436418D01*
X20695710Y-22442712D01*
X20708336Y-22450280D01*
X20720159Y-22459048D01*
X20731066Y-22468934D01*
X20740952Y-22479841D01*
X20749720Y-22491664D01*
X20757288Y-22504290D01*
X20763582Y-22517597D01*
X20768541Y-22531457D01*
X20772118Y-22545736D01*
X20774278Y-22560297D01*
X20775000Y-22575000D01*
X20775000Y-22875000D01*
X20774278Y-22889703D01*
X20772118Y-22904264D01*
X20768541Y-22918543D01*
X20763582Y-22932403D01*
X20757288Y-22945710D01*
X20749720Y-22958336D01*
X20740952Y-22970159D01*
X20731066Y-22981066D01*
X20720159Y-22990952D01*
X20708336Y-22999720D01*
X20695710Y-23007288D01*
X20682403Y-23013582D01*
X20668543Y-23018541D01*
X20654264Y-23022118D01*
X20639703Y-23024278D01*
X20625000Y-23025000D01*
X19375000Y-23025000D01*
X19360297Y-23024278D01*
X19345736Y-23022118D01*
X19331457Y-23018541D01*
X19317597Y-23013582D01*
X19304290Y-23007288D01*
X19291664Y-22999720D01*
X19279841Y-22990952D01*
X19268934Y-22981066D01*
X19259048Y-22970159D01*
X19250280Y-22958336D01*
X19242712Y-22945710D01*
X19236418Y-22932403D01*
X19231459Y-22918543D01*
X19227882Y-22904264D01*
X19225722Y-22889703D01*
X19225000Y-22875000D01*
X19225000Y-22575000D01*
X19225722Y-22560297D01*
X19227882Y-22545736D01*
X19231459Y-22531457D01*
X19236418Y-22517597D01*
X19242712Y-22504290D01*
X19250280Y-22491664D01*
X19259048Y-22479841D01*
X19268934Y-22468934D01*
X19279841Y-22459048D01*
X19291664Y-22450280D01*
X19304290Y-22442712D01*
X19317597Y-22436418D01*
X19331457Y-22431459D01*
X19345736Y-22427882D01*
X19360297Y-22425722D01*
X19375000Y-22425000D01*
X20625000Y-22425000D01*
X20639703Y-22425722D01*
X20639703Y-22425722D01*
G37*
D20*
X20000000Y-22725000D03*
D10*
G36*
X20639703Y-21425722D02*
G01*
X20654264Y-21427882D01*
X20668543Y-21431459D01*
X20682403Y-21436418D01*
X20695710Y-21442712D01*
X20708336Y-21450280D01*
X20720159Y-21459048D01*
X20731066Y-21468934D01*
X20740952Y-21479841D01*
X20749720Y-21491664D01*
X20757288Y-21504290D01*
X20763582Y-21517597D01*
X20768541Y-21531457D01*
X20772118Y-21545736D01*
X20774278Y-21560297D01*
X20775000Y-21575000D01*
X20775000Y-21875000D01*
X20774278Y-21889703D01*
X20772118Y-21904264D01*
X20768541Y-21918543D01*
X20763582Y-21932403D01*
X20757288Y-21945710D01*
X20749720Y-21958336D01*
X20740952Y-21970159D01*
X20731066Y-21981066D01*
X20720159Y-21990952D01*
X20708336Y-21999720D01*
X20695710Y-22007288D01*
X20682403Y-22013582D01*
X20668543Y-22018541D01*
X20654264Y-22022118D01*
X20639703Y-22024278D01*
X20625000Y-22025000D01*
X19375000Y-22025000D01*
X19360297Y-22024278D01*
X19345736Y-22022118D01*
X19331457Y-22018541D01*
X19317597Y-22013582D01*
X19304290Y-22007288D01*
X19291664Y-21999720D01*
X19279841Y-21990952D01*
X19268934Y-21981066D01*
X19259048Y-21970159D01*
X19250280Y-21958336D01*
X19242712Y-21945710D01*
X19236418Y-21932403D01*
X19231459Y-21918543D01*
X19227882Y-21904264D01*
X19225722Y-21889703D01*
X19225000Y-21875000D01*
X19225000Y-21575000D01*
X19225722Y-21560297D01*
X19227882Y-21545736D01*
X19231459Y-21531457D01*
X19236418Y-21517597D01*
X19242712Y-21504290D01*
X19250280Y-21491664D01*
X19259048Y-21479841D01*
X19268934Y-21468934D01*
X19279841Y-21459048D01*
X19291664Y-21450280D01*
X19304290Y-21442712D01*
X19317597Y-21436418D01*
X19331457Y-21431459D01*
X19345736Y-21427882D01*
X19360297Y-21425722D01*
X19375000Y-21425000D01*
X20625000Y-21425000D01*
X20639703Y-21425722D01*
X20639703Y-21425722D01*
G37*
D20*
X20000000Y-21725000D03*
D10*
G36*
X20639703Y-20425722D02*
G01*
X20654264Y-20427882D01*
X20668543Y-20431459D01*
X20682403Y-20436418D01*
X20695710Y-20442712D01*
X20708336Y-20450280D01*
X20720159Y-20459048D01*
X20731066Y-20468934D01*
X20740952Y-20479841D01*
X20749720Y-20491664D01*
X20757288Y-20504290D01*
X20763582Y-20517597D01*
X20768541Y-20531457D01*
X20772118Y-20545736D01*
X20774278Y-20560297D01*
X20775000Y-20575000D01*
X20775000Y-20875000D01*
X20774278Y-20889703D01*
X20772118Y-20904264D01*
X20768541Y-20918543D01*
X20763582Y-20932403D01*
X20757288Y-20945710D01*
X20749720Y-20958336D01*
X20740952Y-20970159D01*
X20731066Y-20981066D01*
X20720159Y-20990952D01*
X20708336Y-20999720D01*
X20695710Y-21007288D01*
X20682403Y-21013582D01*
X20668543Y-21018541D01*
X20654264Y-21022118D01*
X20639703Y-21024278D01*
X20625000Y-21025000D01*
X19375000Y-21025000D01*
X19360297Y-21024278D01*
X19345736Y-21022118D01*
X19331457Y-21018541D01*
X19317597Y-21013582D01*
X19304290Y-21007288D01*
X19291664Y-20999720D01*
X19279841Y-20990952D01*
X19268934Y-20981066D01*
X19259048Y-20970159D01*
X19250280Y-20958336D01*
X19242712Y-20945710D01*
X19236418Y-20932403D01*
X19231459Y-20918543D01*
X19227882Y-20904264D01*
X19225722Y-20889703D01*
X19225000Y-20875000D01*
X19225000Y-20575000D01*
X19225722Y-20560297D01*
X19227882Y-20545736D01*
X19231459Y-20531457D01*
X19236418Y-20517597D01*
X19242712Y-20504290D01*
X19250280Y-20491664D01*
X19259048Y-20479841D01*
X19268934Y-20468934D01*
X19279841Y-20459048D01*
X19291664Y-20450280D01*
X19304290Y-20442712D01*
X19317597Y-20436418D01*
X19331457Y-20431459D01*
X19345736Y-20427882D01*
X19360297Y-20425722D01*
X19375000Y-20425000D01*
X20625000Y-20425000D01*
X20639703Y-20425722D01*
X20639703Y-20425722D01*
G37*
D20*
X20000000Y-20725000D03*
D10*
G36*
X112138077Y-109903274D02*
G01*
X112159312Y-109906424D01*
X112180136Y-109911640D01*
X112200348Y-109918872D01*
X112219754Y-109928051D01*
X112238167Y-109939087D01*
X112255410Y-109951875D01*
X112271316Y-109966291D01*
X112633709Y-110328684D01*
X112648125Y-110344590D01*
X112660913Y-110361833D01*
X112671949Y-110380246D01*
X112681128Y-110399652D01*
X112688360Y-110419864D01*
X112693576Y-110440688D01*
X112696726Y-110461923D01*
X112697779Y-110483364D01*
X112696726Y-110504805D01*
X112693576Y-110526040D01*
X112688360Y-110546864D01*
X112681128Y-110567076D01*
X112671949Y-110586482D01*
X112660913Y-110604895D01*
X112648125Y-110622138D01*
X112633709Y-110638044D01*
X112324350Y-110947403D01*
X112308444Y-110961819D01*
X112291201Y-110974607D01*
X112272788Y-110985643D01*
X112253382Y-110994822D01*
X112233170Y-111002054D01*
X112212346Y-111007270D01*
X112191111Y-111010420D01*
X112169670Y-111011473D01*
X112148229Y-111010420D01*
X112126994Y-111007270D01*
X112106170Y-111002054D01*
X112085958Y-110994822D01*
X112066552Y-110985643D01*
X112048139Y-110974607D01*
X112030896Y-110961819D01*
X112014990Y-110947403D01*
X111652597Y-110585010D01*
X111638181Y-110569104D01*
X111625393Y-110551861D01*
X111614357Y-110533448D01*
X111605178Y-110514042D01*
X111597946Y-110493830D01*
X111592730Y-110473006D01*
X111589580Y-110451771D01*
X111588527Y-110430330D01*
X111589580Y-110408889D01*
X111592730Y-110387654D01*
X111597946Y-110366830D01*
X111605178Y-110346618D01*
X111614357Y-110327212D01*
X111625393Y-110308799D01*
X111638181Y-110291556D01*
X111652597Y-110275650D01*
X111961956Y-109966291D01*
X111977862Y-109951875D01*
X111995105Y-109939087D01*
X112013518Y-109928051D01*
X112032924Y-109918872D01*
X112053136Y-109911640D01*
X112073960Y-109906424D01*
X112095195Y-109903274D01*
X112116636Y-109902221D01*
X112138077Y-109903274D01*
X112138077Y-109903274D01*
G37*
D11*
X112143153Y-110456847D03*
D10*
G36*
X113251771Y-108789580D02*
G01*
X113273006Y-108792730D01*
X113293830Y-108797946D01*
X113314042Y-108805178D01*
X113333448Y-108814357D01*
X113351861Y-108825393D01*
X113369104Y-108838181D01*
X113385010Y-108852597D01*
X113747403Y-109214990D01*
X113761819Y-109230896D01*
X113774607Y-109248139D01*
X113785643Y-109266552D01*
X113794822Y-109285958D01*
X113802054Y-109306170D01*
X113807270Y-109326994D01*
X113810420Y-109348229D01*
X113811473Y-109369670D01*
X113810420Y-109391111D01*
X113807270Y-109412346D01*
X113802054Y-109433170D01*
X113794822Y-109453382D01*
X113785643Y-109472788D01*
X113774607Y-109491201D01*
X113761819Y-109508444D01*
X113747403Y-109524350D01*
X113438044Y-109833709D01*
X113422138Y-109848125D01*
X113404895Y-109860913D01*
X113386482Y-109871949D01*
X113367076Y-109881128D01*
X113346864Y-109888360D01*
X113326040Y-109893576D01*
X113304805Y-109896726D01*
X113283364Y-109897779D01*
X113261923Y-109896726D01*
X113240688Y-109893576D01*
X113219864Y-109888360D01*
X113199652Y-109881128D01*
X113180246Y-109871949D01*
X113161833Y-109860913D01*
X113144590Y-109848125D01*
X113128684Y-109833709D01*
X112766291Y-109471316D01*
X112751875Y-109455410D01*
X112739087Y-109438167D01*
X112728051Y-109419754D01*
X112718872Y-109400348D01*
X112711640Y-109380136D01*
X112706424Y-109359312D01*
X112703274Y-109338077D01*
X112702221Y-109316636D01*
X112703274Y-109295195D01*
X112706424Y-109273960D01*
X112711640Y-109253136D01*
X112718872Y-109232924D01*
X112728051Y-109213518D01*
X112739087Y-109195105D01*
X112751875Y-109177862D01*
X112766291Y-109161956D01*
X113075650Y-108852597D01*
X113091556Y-108838181D01*
X113108799Y-108825393D01*
X113127212Y-108814357D01*
X113146618Y-108805178D01*
X113166830Y-108797946D01*
X113187654Y-108792730D01*
X113208889Y-108789580D01*
X113230330Y-108788527D01*
X113251771Y-108789580D01*
X113251771Y-108789580D01*
G37*
D11*
X113256847Y-109343153D03*
D10*
G36*
X129251771Y-102089580D02*
G01*
X129273006Y-102092730D01*
X129293830Y-102097946D01*
X129314042Y-102105178D01*
X129333448Y-102114357D01*
X129351861Y-102125393D01*
X129369104Y-102138181D01*
X129385010Y-102152597D01*
X129747403Y-102514990D01*
X129761819Y-102530896D01*
X129774607Y-102548139D01*
X129785643Y-102566552D01*
X129794822Y-102585958D01*
X129802054Y-102606170D01*
X129807270Y-102626994D01*
X129810420Y-102648229D01*
X129811473Y-102669670D01*
X129810420Y-102691111D01*
X129807270Y-102712346D01*
X129802054Y-102733170D01*
X129794822Y-102753382D01*
X129785643Y-102772788D01*
X129774607Y-102791201D01*
X129761819Y-102808444D01*
X129747403Y-102824350D01*
X129438044Y-103133709D01*
X129422138Y-103148125D01*
X129404895Y-103160913D01*
X129386482Y-103171949D01*
X129367076Y-103181128D01*
X129346864Y-103188360D01*
X129326040Y-103193576D01*
X129304805Y-103196726D01*
X129283364Y-103197779D01*
X129261923Y-103196726D01*
X129240688Y-103193576D01*
X129219864Y-103188360D01*
X129199652Y-103181128D01*
X129180246Y-103171949D01*
X129161833Y-103160913D01*
X129144590Y-103148125D01*
X129128684Y-103133709D01*
X128766291Y-102771316D01*
X128751875Y-102755410D01*
X128739087Y-102738167D01*
X128728051Y-102719754D01*
X128718872Y-102700348D01*
X128711640Y-102680136D01*
X128706424Y-102659312D01*
X128703274Y-102638077D01*
X128702221Y-102616636D01*
X128703274Y-102595195D01*
X128706424Y-102573960D01*
X128711640Y-102553136D01*
X128718872Y-102532924D01*
X128728051Y-102513518D01*
X128739087Y-102495105D01*
X128751875Y-102477862D01*
X128766291Y-102461956D01*
X129075650Y-102152597D01*
X129091556Y-102138181D01*
X129108799Y-102125393D01*
X129127212Y-102114357D01*
X129146618Y-102105178D01*
X129166830Y-102097946D01*
X129187654Y-102092730D01*
X129208889Y-102089580D01*
X129230330Y-102088527D01*
X129251771Y-102089580D01*
X129251771Y-102089580D01*
G37*
D11*
X129256847Y-102643153D03*
D10*
G36*
X128138077Y-103203274D02*
G01*
X128159312Y-103206424D01*
X128180136Y-103211640D01*
X128200348Y-103218872D01*
X128219754Y-103228051D01*
X128238167Y-103239087D01*
X128255410Y-103251875D01*
X128271316Y-103266291D01*
X128633709Y-103628684D01*
X128648125Y-103644590D01*
X128660913Y-103661833D01*
X128671949Y-103680246D01*
X128681128Y-103699652D01*
X128688360Y-103719864D01*
X128693576Y-103740688D01*
X128696726Y-103761923D01*
X128697779Y-103783364D01*
X128696726Y-103804805D01*
X128693576Y-103826040D01*
X128688360Y-103846864D01*
X128681128Y-103867076D01*
X128671949Y-103886482D01*
X128660913Y-103904895D01*
X128648125Y-103922138D01*
X128633709Y-103938044D01*
X128324350Y-104247403D01*
X128308444Y-104261819D01*
X128291201Y-104274607D01*
X128272788Y-104285643D01*
X128253382Y-104294822D01*
X128233170Y-104302054D01*
X128212346Y-104307270D01*
X128191111Y-104310420D01*
X128169670Y-104311473D01*
X128148229Y-104310420D01*
X128126994Y-104307270D01*
X128106170Y-104302054D01*
X128085958Y-104294822D01*
X128066552Y-104285643D01*
X128048139Y-104274607D01*
X128030896Y-104261819D01*
X128014990Y-104247403D01*
X127652597Y-103885010D01*
X127638181Y-103869104D01*
X127625393Y-103851861D01*
X127614357Y-103833448D01*
X127605178Y-103814042D01*
X127597946Y-103793830D01*
X127592730Y-103773006D01*
X127589580Y-103751771D01*
X127588527Y-103730330D01*
X127589580Y-103708889D01*
X127592730Y-103687654D01*
X127597946Y-103666830D01*
X127605178Y-103646618D01*
X127614357Y-103627212D01*
X127625393Y-103608799D01*
X127638181Y-103591556D01*
X127652597Y-103575650D01*
X127961956Y-103266291D01*
X127977862Y-103251875D01*
X127995105Y-103239087D01*
X128013518Y-103228051D01*
X128032924Y-103218872D01*
X128053136Y-103211640D01*
X128073960Y-103206424D01*
X128095195Y-103203274D01*
X128116636Y-103202221D01*
X128138077Y-103203274D01*
X128138077Y-103203274D01*
G37*
D11*
X128143153Y-103756847D03*
D10*
G36*
X131938077Y-115603274D02*
G01*
X131959312Y-115606424D01*
X131980136Y-115611640D01*
X132000348Y-115618872D01*
X132019754Y-115628051D01*
X132038167Y-115639087D01*
X132055410Y-115651875D01*
X132071316Y-115666291D01*
X132433709Y-116028684D01*
X132448125Y-116044590D01*
X132460913Y-116061833D01*
X132471949Y-116080246D01*
X132481128Y-116099652D01*
X132488360Y-116119864D01*
X132493576Y-116140688D01*
X132496726Y-116161923D01*
X132497779Y-116183364D01*
X132496726Y-116204805D01*
X132493576Y-116226040D01*
X132488360Y-116246864D01*
X132481128Y-116267076D01*
X132471949Y-116286482D01*
X132460913Y-116304895D01*
X132448125Y-116322138D01*
X132433709Y-116338044D01*
X132124350Y-116647403D01*
X132108444Y-116661819D01*
X132091201Y-116674607D01*
X132072788Y-116685643D01*
X132053382Y-116694822D01*
X132033170Y-116702054D01*
X132012346Y-116707270D01*
X131991111Y-116710420D01*
X131969670Y-116711473D01*
X131948229Y-116710420D01*
X131926994Y-116707270D01*
X131906170Y-116702054D01*
X131885958Y-116694822D01*
X131866552Y-116685643D01*
X131848139Y-116674607D01*
X131830896Y-116661819D01*
X131814990Y-116647403D01*
X131452597Y-116285010D01*
X131438181Y-116269104D01*
X131425393Y-116251861D01*
X131414357Y-116233448D01*
X131405178Y-116214042D01*
X131397946Y-116193830D01*
X131392730Y-116173006D01*
X131389580Y-116151771D01*
X131388527Y-116130330D01*
X131389580Y-116108889D01*
X131392730Y-116087654D01*
X131397946Y-116066830D01*
X131405178Y-116046618D01*
X131414357Y-116027212D01*
X131425393Y-116008799D01*
X131438181Y-115991556D01*
X131452597Y-115975650D01*
X131761956Y-115666291D01*
X131777862Y-115651875D01*
X131795105Y-115639087D01*
X131813518Y-115628051D01*
X131832924Y-115618872D01*
X131853136Y-115611640D01*
X131873960Y-115606424D01*
X131895195Y-115603274D01*
X131916636Y-115602221D01*
X131938077Y-115603274D01*
X131938077Y-115603274D01*
G37*
D11*
X131943153Y-116156847D03*
D10*
G36*
X133051771Y-114489580D02*
G01*
X133073006Y-114492730D01*
X133093830Y-114497946D01*
X133114042Y-114505178D01*
X133133448Y-114514357D01*
X133151861Y-114525393D01*
X133169104Y-114538181D01*
X133185010Y-114552597D01*
X133547403Y-114914990D01*
X133561819Y-114930896D01*
X133574607Y-114948139D01*
X133585643Y-114966552D01*
X133594822Y-114985958D01*
X133602054Y-115006170D01*
X133607270Y-115026994D01*
X133610420Y-115048229D01*
X133611473Y-115069670D01*
X133610420Y-115091111D01*
X133607270Y-115112346D01*
X133602054Y-115133170D01*
X133594822Y-115153382D01*
X133585643Y-115172788D01*
X133574607Y-115191201D01*
X133561819Y-115208444D01*
X133547403Y-115224350D01*
X133238044Y-115533709D01*
X133222138Y-115548125D01*
X133204895Y-115560913D01*
X133186482Y-115571949D01*
X133167076Y-115581128D01*
X133146864Y-115588360D01*
X133126040Y-115593576D01*
X133104805Y-115596726D01*
X133083364Y-115597779D01*
X133061923Y-115596726D01*
X133040688Y-115593576D01*
X133019864Y-115588360D01*
X132999652Y-115581128D01*
X132980246Y-115571949D01*
X132961833Y-115560913D01*
X132944590Y-115548125D01*
X132928684Y-115533709D01*
X132566291Y-115171316D01*
X132551875Y-115155410D01*
X132539087Y-115138167D01*
X132528051Y-115119754D01*
X132518872Y-115100348D01*
X132511640Y-115080136D01*
X132506424Y-115059312D01*
X132503274Y-115038077D01*
X132502221Y-115016636D01*
X132503274Y-114995195D01*
X132506424Y-114973960D01*
X132511640Y-114953136D01*
X132518872Y-114932924D01*
X132528051Y-114913518D01*
X132539087Y-114895105D01*
X132551875Y-114877862D01*
X132566291Y-114861956D01*
X132875650Y-114552597D01*
X132891556Y-114538181D01*
X132908799Y-114525393D01*
X132927212Y-114514357D01*
X132946618Y-114505178D01*
X132966830Y-114497946D01*
X132987654Y-114492730D01*
X133008889Y-114489580D01*
X133030330Y-114488527D01*
X133051771Y-114489580D01*
X133051771Y-114489580D01*
G37*
D11*
X133056847Y-115043153D03*
D10*
G36*
X128104805Y-121503274D02*
G01*
X128126040Y-121506424D01*
X128146864Y-121511640D01*
X128167076Y-121518872D01*
X128186482Y-121528051D01*
X128204895Y-121539087D01*
X128222138Y-121551875D01*
X128238044Y-121566291D01*
X128547403Y-121875650D01*
X128561819Y-121891556D01*
X128574607Y-121908799D01*
X128585643Y-121927212D01*
X128594822Y-121946618D01*
X128602054Y-121966830D01*
X128607270Y-121987654D01*
X128610420Y-122008889D01*
X128611473Y-122030330D01*
X128610420Y-122051771D01*
X128607270Y-122073006D01*
X128602054Y-122093830D01*
X128594822Y-122114042D01*
X128585643Y-122133448D01*
X128574607Y-122151861D01*
X128561819Y-122169104D01*
X128547403Y-122185010D01*
X128185010Y-122547403D01*
X128169104Y-122561819D01*
X128151861Y-122574607D01*
X128133448Y-122585643D01*
X128114042Y-122594822D01*
X128093830Y-122602054D01*
X128073006Y-122607270D01*
X128051771Y-122610420D01*
X128030330Y-122611473D01*
X128008889Y-122610420D01*
X127987654Y-122607270D01*
X127966830Y-122602054D01*
X127946618Y-122594822D01*
X127927212Y-122585643D01*
X127908799Y-122574607D01*
X127891556Y-122561819D01*
X127875650Y-122547403D01*
X127566291Y-122238044D01*
X127551875Y-122222138D01*
X127539087Y-122204895D01*
X127528051Y-122186482D01*
X127518872Y-122167076D01*
X127511640Y-122146864D01*
X127506424Y-122126040D01*
X127503274Y-122104805D01*
X127502221Y-122083364D01*
X127503274Y-122061923D01*
X127506424Y-122040688D01*
X127511640Y-122019864D01*
X127518872Y-121999652D01*
X127528051Y-121980246D01*
X127539087Y-121961833D01*
X127551875Y-121944590D01*
X127566291Y-121928684D01*
X127928684Y-121566291D01*
X127944590Y-121551875D01*
X127961833Y-121539087D01*
X127980246Y-121528051D01*
X127999652Y-121518872D01*
X128019864Y-121511640D01*
X128040688Y-121506424D01*
X128061923Y-121503274D01*
X128083364Y-121502221D01*
X128104805Y-121503274D01*
X128104805Y-121503274D01*
G37*
D11*
X128056847Y-122056847D03*
D10*
G36*
X126991111Y-120389580D02*
G01*
X127012346Y-120392730D01*
X127033170Y-120397946D01*
X127053382Y-120405178D01*
X127072788Y-120414357D01*
X127091201Y-120425393D01*
X127108444Y-120438181D01*
X127124350Y-120452597D01*
X127433709Y-120761956D01*
X127448125Y-120777862D01*
X127460913Y-120795105D01*
X127471949Y-120813518D01*
X127481128Y-120832924D01*
X127488360Y-120853136D01*
X127493576Y-120873960D01*
X127496726Y-120895195D01*
X127497779Y-120916636D01*
X127496726Y-120938077D01*
X127493576Y-120959312D01*
X127488360Y-120980136D01*
X127481128Y-121000348D01*
X127471949Y-121019754D01*
X127460913Y-121038167D01*
X127448125Y-121055410D01*
X127433709Y-121071316D01*
X127071316Y-121433709D01*
X127055410Y-121448125D01*
X127038167Y-121460913D01*
X127019754Y-121471949D01*
X127000348Y-121481128D01*
X126980136Y-121488360D01*
X126959312Y-121493576D01*
X126938077Y-121496726D01*
X126916636Y-121497779D01*
X126895195Y-121496726D01*
X126873960Y-121493576D01*
X126853136Y-121488360D01*
X126832924Y-121481128D01*
X126813518Y-121471949D01*
X126795105Y-121460913D01*
X126777862Y-121448125D01*
X126761956Y-121433709D01*
X126452597Y-121124350D01*
X126438181Y-121108444D01*
X126425393Y-121091201D01*
X126414357Y-121072788D01*
X126405178Y-121053382D01*
X126397946Y-121033170D01*
X126392730Y-121012346D01*
X126389580Y-120991111D01*
X126388527Y-120969670D01*
X126389580Y-120948229D01*
X126392730Y-120926994D01*
X126397946Y-120906170D01*
X126405178Y-120885958D01*
X126414357Y-120866552D01*
X126425393Y-120848139D01*
X126438181Y-120830896D01*
X126452597Y-120814990D01*
X126814990Y-120452597D01*
X126830896Y-120438181D01*
X126848139Y-120425393D01*
X126866552Y-120414357D01*
X126885958Y-120405178D01*
X126906170Y-120397946D01*
X126926994Y-120392730D01*
X126948229Y-120389580D01*
X126969670Y-120388527D01*
X126991111Y-120389580D01*
X126991111Y-120389580D01*
G37*
D11*
X126943153Y-120943153D03*
D10*
G36*
X115952691Y-117026053D02*
G01*
X115973926Y-117029203D01*
X115994750Y-117034419D01*
X116014962Y-117041651D01*
X116034368Y-117050830D01*
X116052781Y-117061866D01*
X116070024Y-117074654D01*
X116085930Y-117089070D01*
X116100346Y-117104976D01*
X116113134Y-117122219D01*
X116124170Y-117140632D01*
X116133349Y-117160038D01*
X116140581Y-117180250D01*
X116145797Y-117201074D01*
X116148947Y-117222309D01*
X116150000Y-117243750D01*
X116150000Y-117756250D01*
X116148947Y-117777691D01*
X116145797Y-117798926D01*
X116140581Y-117819750D01*
X116133349Y-117839962D01*
X116124170Y-117859368D01*
X116113134Y-117877781D01*
X116100346Y-117895024D01*
X116085930Y-117910930D01*
X116070024Y-117925346D01*
X116052781Y-117938134D01*
X116034368Y-117949170D01*
X116014962Y-117958349D01*
X115994750Y-117965581D01*
X115973926Y-117970797D01*
X115952691Y-117973947D01*
X115931250Y-117975000D01*
X115493750Y-117975000D01*
X115472309Y-117973947D01*
X115451074Y-117970797D01*
X115430250Y-117965581D01*
X115410038Y-117958349D01*
X115390632Y-117949170D01*
X115372219Y-117938134D01*
X115354976Y-117925346D01*
X115339070Y-117910930D01*
X115324654Y-117895024D01*
X115311866Y-117877781D01*
X115300830Y-117859368D01*
X115291651Y-117839962D01*
X115284419Y-117819750D01*
X115279203Y-117798926D01*
X115276053Y-117777691D01*
X115275000Y-117756250D01*
X115275000Y-117243750D01*
X115276053Y-117222309D01*
X115279203Y-117201074D01*
X115284419Y-117180250D01*
X115291651Y-117160038D01*
X115300830Y-117140632D01*
X115311866Y-117122219D01*
X115324654Y-117104976D01*
X115339070Y-117089070D01*
X115354976Y-117074654D01*
X115372219Y-117061866D01*
X115390632Y-117050830D01*
X115410038Y-117041651D01*
X115430250Y-117034419D01*
X115451074Y-117029203D01*
X115472309Y-117026053D01*
X115493750Y-117025000D01*
X115931250Y-117025000D01*
X115952691Y-117026053D01*
X115952691Y-117026053D01*
G37*
D11*
X115712500Y-117500000D03*
D10*
G36*
X117527691Y-117026053D02*
G01*
X117548926Y-117029203D01*
X117569750Y-117034419D01*
X117589962Y-117041651D01*
X117609368Y-117050830D01*
X117627781Y-117061866D01*
X117645024Y-117074654D01*
X117660930Y-117089070D01*
X117675346Y-117104976D01*
X117688134Y-117122219D01*
X117699170Y-117140632D01*
X117708349Y-117160038D01*
X117715581Y-117180250D01*
X117720797Y-117201074D01*
X117723947Y-117222309D01*
X117725000Y-117243750D01*
X117725000Y-117756250D01*
X117723947Y-117777691D01*
X117720797Y-117798926D01*
X117715581Y-117819750D01*
X117708349Y-117839962D01*
X117699170Y-117859368D01*
X117688134Y-117877781D01*
X117675346Y-117895024D01*
X117660930Y-117910930D01*
X117645024Y-117925346D01*
X117627781Y-117938134D01*
X117609368Y-117949170D01*
X117589962Y-117958349D01*
X117569750Y-117965581D01*
X117548926Y-117970797D01*
X117527691Y-117973947D01*
X117506250Y-117975000D01*
X117068750Y-117975000D01*
X117047309Y-117973947D01*
X117026074Y-117970797D01*
X117005250Y-117965581D01*
X116985038Y-117958349D01*
X116965632Y-117949170D01*
X116947219Y-117938134D01*
X116929976Y-117925346D01*
X116914070Y-117910930D01*
X116899654Y-117895024D01*
X116886866Y-117877781D01*
X116875830Y-117859368D01*
X116866651Y-117839962D01*
X116859419Y-117819750D01*
X116854203Y-117798926D01*
X116851053Y-117777691D01*
X116850000Y-117756250D01*
X116850000Y-117243750D01*
X116851053Y-117222309D01*
X116854203Y-117201074D01*
X116859419Y-117180250D01*
X116866651Y-117160038D01*
X116875830Y-117140632D01*
X116886866Y-117122219D01*
X116899654Y-117104976D01*
X116914070Y-117089070D01*
X116929976Y-117074654D01*
X116947219Y-117061866D01*
X116965632Y-117050830D01*
X116985038Y-117041651D01*
X117005250Y-117034419D01*
X117026074Y-117029203D01*
X117047309Y-117026053D01*
X117068750Y-117025000D01*
X117506250Y-117025000D01*
X117527691Y-117026053D01*
X117527691Y-117026053D01*
G37*
D11*
X117287500Y-117500000D03*
D10*
G36*
X114638077Y-120503274D02*
G01*
X114659312Y-120506424D01*
X114680136Y-120511640D01*
X114700348Y-120518872D01*
X114719754Y-120528051D01*
X114738167Y-120539087D01*
X114755410Y-120551875D01*
X114771316Y-120566291D01*
X115133709Y-120928684D01*
X115148125Y-120944590D01*
X115160913Y-120961833D01*
X115171949Y-120980246D01*
X115181128Y-120999652D01*
X115188360Y-121019864D01*
X115193576Y-121040688D01*
X115196726Y-121061923D01*
X115197779Y-121083364D01*
X115196726Y-121104805D01*
X115193576Y-121126040D01*
X115188360Y-121146864D01*
X115181128Y-121167076D01*
X115171949Y-121186482D01*
X115160913Y-121204895D01*
X115148125Y-121222138D01*
X115133709Y-121238044D01*
X114824350Y-121547403D01*
X114808444Y-121561819D01*
X114791201Y-121574607D01*
X114772788Y-121585643D01*
X114753382Y-121594822D01*
X114733170Y-121602054D01*
X114712346Y-121607270D01*
X114691111Y-121610420D01*
X114669670Y-121611473D01*
X114648229Y-121610420D01*
X114626994Y-121607270D01*
X114606170Y-121602054D01*
X114585958Y-121594822D01*
X114566552Y-121585643D01*
X114548139Y-121574607D01*
X114530896Y-121561819D01*
X114514990Y-121547403D01*
X114152597Y-121185010D01*
X114138181Y-121169104D01*
X114125393Y-121151861D01*
X114114357Y-121133448D01*
X114105178Y-121114042D01*
X114097946Y-121093830D01*
X114092730Y-121073006D01*
X114089580Y-121051771D01*
X114088527Y-121030330D01*
X114089580Y-121008889D01*
X114092730Y-120987654D01*
X114097946Y-120966830D01*
X114105178Y-120946618D01*
X114114357Y-120927212D01*
X114125393Y-120908799D01*
X114138181Y-120891556D01*
X114152597Y-120875650D01*
X114461956Y-120566291D01*
X114477862Y-120551875D01*
X114495105Y-120539087D01*
X114513518Y-120528051D01*
X114532924Y-120518872D01*
X114553136Y-120511640D01*
X114573960Y-120506424D01*
X114595195Y-120503274D01*
X114616636Y-120502221D01*
X114638077Y-120503274D01*
X114638077Y-120503274D01*
G37*
D11*
X114643153Y-121056847D03*
D10*
G36*
X115751771Y-119389580D02*
G01*
X115773006Y-119392730D01*
X115793830Y-119397946D01*
X115814042Y-119405178D01*
X115833448Y-119414357D01*
X115851861Y-119425393D01*
X115869104Y-119438181D01*
X115885010Y-119452597D01*
X116247403Y-119814990D01*
X116261819Y-119830896D01*
X116274607Y-119848139D01*
X116285643Y-119866552D01*
X116294822Y-119885958D01*
X116302054Y-119906170D01*
X116307270Y-119926994D01*
X116310420Y-119948229D01*
X116311473Y-119969670D01*
X116310420Y-119991111D01*
X116307270Y-120012346D01*
X116302054Y-120033170D01*
X116294822Y-120053382D01*
X116285643Y-120072788D01*
X116274607Y-120091201D01*
X116261819Y-120108444D01*
X116247403Y-120124350D01*
X115938044Y-120433709D01*
X115922138Y-120448125D01*
X115904895Y-120460913D01*
X115886482Y-120471949D01*
X115867076Y-120481128D01*
X115846864Y-120488360D01*
X115826040Y-120493576D01*
X115804805Y-120496726D01*
X115783364Y-120497779D01*
X115761923Y-120496726D01*
X115740688Y-120493576D01*
X115719864Y-120488360D01*
X115699652Y-120481128D01*
X115680246Y-120471949D01*
X115661833Y-120460913D01*
X115644590Y-120448125D01*
X115628684Y-120433709D01*
X115266291Y-120071316D01*
X115251875Y-120055410D01*
X115239087Y-120038167D01*
X115228051Y-120019754D01*
X115218872Y-120000348D01*
X115211640Y-119980136D01*
X115206424Y-119959312D01*
X115203274Y-119938077D01*
X115202221Y-119916636D01*
X115203274Y-119895195D01*
X115206424Y-119873960D01*
X115211640Y-119853136D01*
X115218872Y-119832924D01*
X115228051Y-119813518D01*
X115239087Y-119795105D01*
X115251875Y-119777862D01*
X115266291Y-119761956D01*
X115575650Y-119452597D01*
X115591556Y-119438181D01*
X115608799Y-119425393D01*
X115627212Y-119414357D01*
X115646618Y-119405178D01*
X115666830Y-119397946D01*
X115687654Y-119392730D01*
X115708889Y-119389580D01*
X115730330Y-119388527D01*
X115751771Y-119389580D01*
X115751771Y-119389580D01*
G37*
D11*
X115756847Y-119943153D03*
D10*
G36*
X118434264Y-100832733D02*
G01*
X118455499Y-100835883D01*
X118476323Y-100841099D01*
X118496535Y-100848331D01*
X118515941Y-100857510D01*
X118534354Y-100868546D01*
X118551597Y-100881334D01*
X118567503Y-100895750D01*
X118876862Y-101205109D01*
X118891278Y-101221015D01*
X118904066Y-101238258D01*
X118915102Y-101256671D01*
X118924281Y-101276077D01*
X118931513Y-101296289D01*
X118936729Y-101317113D01*
X118939879Y-101338348D01*
X118940932Y-101359789D01*
X118939879Y-101381230D01*
X118936729Y-101402465D01*
X118931513Y-101423289D01*
X118924281Y-101443501D01*
X118915102Y-101462907D01*
X118904066Y-101481320D01*
X118891278Y-101498563D01*
X118876862Y-101514469D01*
X118514469Y-101876862D01*
X118498563Y-101891278D01*
X118481320Y-101904066D01*
X118462907Y-101915102D01*
X118443501Y-101924281D01*
X118423289Y-101931513D01*
X118402465Y-101936729D01*
X118381230Y-101939879D01*
X118359789Y-101940932D01*
X118338348Y-101939879D01*
X118317113Y-101936729D01*
X118296289Y-101931513D01*
X118276077Y-101924281D01*
X118256671Y-101915102D01*
X118238258Y-101904066D01*
X118221015Y-101891278D01*
X118205109Y-101876862D01*
X117895750Y-101567503D01*
X117881334Y-101551597D01*
X117868546Y-101534354D01*
X117857510Y-101515941D01*
X117848331Y-101496535D01*
X117841099Y-101476323D01*
X117835883Y-101455499D01*
X117832733Y-101434264D01*
X117831680Y-101412823D01*
X117832733Y-101391382D01*
X117835883Y-101370147D01*
X117841099Y-101349323D01*
X117848331Y-101329111D01*
X117857510Y-101309705D01*
X117868546Y-101291292D01*
X117881334Y-101274049D01*
X117895750Y-101258143D01*
X118258143Y-100895750D01*
X118274049Y-100881334D01*
X118291292Y-100868546D01*
X118309705Y-100857510D01*
X118329111Y-100848331D01*
X118349323Y-100841099D01*
X118370147Y-100835883D01*
X118391382Y-100832733D01*
X118412823Y-100831680D01*
X118434264Y-100832733D01*
X118434264Y-100832733D01*
G37*
D11*
X118386306Y-101386306D03*
D10*
G36*
X119547958Y-101946427D02*
G01*
X119569193Y-101949577D01*
X119590017Y-101954793D01*
X119610229Y-101962025D01*
X119629635Y-101971204D01*
X119648048Y-101982240D01*
X119665291Y-101995028D01*
X119681197Y-102009444D01*
X119990556Y-102318803D01*
X120004972Y-102334709D01*
X120017760Y-102351952D01*
X120028796Y-102370365D01*
X120037975Y-102389771D01*
X120045207Y-102409983D01*
X120050423Y-102430807D01*
X120053573Y-102452042D01*
X120054626Y-102473483D01*
X120053573Y-102494924D01*
X120050423Y-102516159D01*
X120045207Y-102536983D01*
X120037975Y-102557195D01*
X120028796Y-102576601D01*
X120017760Y-102595014D01*
X120004972Y-102612257D01*
X119990556Y-102628163D01*
X119628163Y-102990556D01*
X119612257Y-103004972D01*
X119595014Y-103017760D01*
X119576601Y-103028796D01*
X119557195Y-103037975D01*
X119536983Y-103045207D01*
X119516159Y-103050423D01*
X119494924Y-103053573D01*
X119473483Y-103054626D01*
X119452042Y-103053573D01*
X119430807Y-103050423D01*
X119409983Y-103045207D01*
X119389771Y-103037975D01*
X119370365Y-103028796D01*
X119351952Y-103017760D01*
X119334709Y-103004972D01*
X119318803Y-102990556D01*
X119009444Y-102681197D01*
X118995028Y-102665291D01*
X118982240Y-102648048D01*
X118971204Y-102629635D01*
X118962025Y-102610229D01*
X118954793Y-102590017D01*
X118949577Y-102569193D01*
X118946427Y-102547958D01*
X118945374Y-102526517D01*
X118946427Y-102505076D01*
X118949577Y-102483841D01*
X118954793Y-102463017D01*
X118962025Y-102442805D01*
X118971204Y-102423399D01*
X118982240Y-102404986D01*
X118995028Y-102387743D01*
X119009444Y-102371837D01*
X119371837Y-102009444D01*
X119387743Y-101995028D01*
X119404986Y-101982240D01*
X119423399Y-101971204D01*
X119442805Y-101962025D01*
X119463017Y-101954793D01*
X119483841Y-101949577D01*
X119505076Y-101946427D01*
X119526517Y-101945374D01*
X119547958Y-101946427D01*
X119547958Y-101946427D01*
G37*
D11*
X119500000Y-102500000D03*
D10*
G36*
X129604805Y-120003274D02*
G01*
X129626040Y-120006424D01*
X129646864Y-120011640D01*
X129667076Y-120018872D01*
X129686482Y-120028051D01*
X129704895Y-120039087D01*
X129722138Y-120051875D01*
X129738044Y-120066291D01*
X130047403Y-120375650D01*
X130061819Y-120391556D01*
X130074607Y-120408799D01*
X130085643Y-120427212D01*
X130094822Y-120446618D01*
X130102054Y-120466830D01*
X130107270Y-120487654D01*
X130110420Y-120508889D01*
X130111473Y-120530330D01*
X130110420Y-120551771D01*
X130107270Y-120573006D01*
X130102054Y-120593830D01*
X130094822Y-120614042D01*
X130085643Y-120633448D01*
X130074607Y-120651861D01*
X130061819Y-120669104D01*
X130047403Y-120685010D01*
X129685010Y-121047403D01*
X129669104Y-121061819D01*
X129651861Y-121074607D01*
X129633448Y-121085643D01*
X129614042Y-121094822D01*
X129593830Y-121102054D01*
X129573006Y-121107270D01*
X129551771Y-121110420D01*
X129530330Y-121111473D01*
X129508889Y-121110420D01*
X129487654Y-121107270D01*
X129466830Y-121102054D01*
X129446618Y-121094822D01*
X129427212Y-121085643D01*
X129408799Y-121074607D01*
X129391556Y-121061819D01*
X129375650Y-121047403D01*
X129066291Y-120738044D01*
X129051875Y-120722138D01*
X129039087Y-120704895D01*
X129028051Y-120686482D01*
X129018872Y-120667076D01*
X129011640Y-120646864D01*
X129006424Y-120626040D01*
X129003274Y-120604805D01*
X129002221Y-120583364D01*
X129003274Y-120561923D01*
X129006424Y-120540688D01*
X129011640Y-120519864D01*
X129018872Y-120499652D01*
X129028051Y-120480246D01*
X129039087Y-120461833D01*
X129051875Y-120444590D01*
X129066291Y-120428684D01*
X129428684Y-120066291D01*
X129444590Y-120051875D01*
X129461833Y-120039087D01*
X129480246Y-120028051D01*
X129499652Y-120018872D01*
X129519864Y-120011640D01*
X129540688Y-120006424D01*
X129561923Y-120003274D01*
X129583364Y-120002221D01*
X129604805Y-120003274D01*
X129604805Y-120003274D01*
G37*
D11*
X129556847Y-120556847D03*
D10*
G36*
X128491111Y-118889580D02*
G01*
X128512346Y-118892730D01*
X128533170Y-118897946D01*
X128553382Y-118905178D01*
X128572788Y-118914357D01*
X128591201Y-118925393D01*
X128608444Y-118938181D01*
X128624350Y-118952597D01*
X128933709Y-119261956D01*
X128948125Y-119277862D01*
X128960913Y-119295105D01*
X128971949Y-119313518D01*
X128981128Y-119332924D01*
X128988360Y-119353136D01*
X128993576Y-119373960D01*
X128996726Y-119395195D01*
X128997779Y-119416636D01*
X128996726Y-119438077D01*
X128993576Y-119459312D01*
X128988360Y-119480136D01*
X128981128Y-119500348D01*
X128971949Y-119519754D01*
X128960913Y-119538167D01*
X128948125Y-119555410D01*
X128933709Y-119571316D01*
X128571316Y-119933709D01*
X128555410Y-119948125D01*
X128538167Y-119960913D01*
X128519754Y-119971949D01*
X128500348Y-119981128D01*
X128480136Y-119988360D01*
X128459312Y-119993576D01*
X128438077Y-119996726D01*
X128416636Y-119997779D01*
X128395195Y-119996726D01*
X128373960Y-119993576D01*
X128353136Y-119988360D01*
X128332924Y-119981128D01*
X128313518Y-119971949D01*
X128295105Y-119960913D01*
X128277862Y-119948125D01*
X128261956Y-119933709D01*
X127952597Y-119624350D01*
X127938181Y-119608444D01*
X127925393Y-119591201D01*
X127914357Y-119572788D01*
X127905178Y-119553382D01*
X127897946Y-119533170D01*
X127892730Y-119512346D01*
X127889580Y-119491111D01*
X127888527Y-119469670D01*
X127889580Y-119448229D01*
X127892730Y-119426994D01*
X127897946Y-119406170D01*
X127905178Y-119385958D01*
X127914357Y-119366552D01*
X127925393Y-119348139D01*
X127938181Y-119330896D01*
X127952597Y-119314990D01*
X128314990Y-118952597D01*
X128330896Y-118938181D01*
X128348139Y-118925393D01*
X128366552Y-118914357D01*
X128385958Y-118905178D01*
X128406170Y-118897946D01*
X128426994Y-118892730D01*
X128448229Y-118889580D01*
X128469670Y-118888527D01*
X128491111Y-118889580D01*
X128491111Y-118889580D01*
G37*
D11*
X128443153Y-119443153D03*
D10*
G36*
X9227691Y-14926053D02*
G01*
X9248926Y-14929203D01*
X9269750Y-14934419D01*
X9289962Y-14941651D01*
X9309368Y-14950830D01*
X9327781Y-14961866D01*
X9345024Y-14974654D01*
X9360930Y-14989070D01*
X9375346Y-15004976D01*
X9388134Y-15022219D01*
X9399170Y-15040632D01*
X9408349Y-15060038D01*
X9415581Y-15080250D01*
X9420797Y-15101074D01*
X9423947Y-15122309D01*
X9425000Y-15143750D01*
X9425000Y-15656250D01*
X9423947Y-15677691D01*
X9420797Y-15698926D01*
X9415581Y-15719750D01*
X9408349Y-15739962D01*
X9399170Y-15759368D01*
X9388134Y-15777781D01*
X9375346Y-15795024D01*
X9360930Y-15810930D01*
X9345024Y-15825346D01*
X9327781Y-15838134D01*
X9309368Y-15849170D01*
X9289962Y-15858349D01*
X9269750Y-15865581D01*
X9248926Y-15870797D01*
X9227691Y-15873947D01*
X9206250Y-15875000D01*
X8768750Y-15875000D01*
X8747309Y-15873947D01*
X8726074Y-15870797D01*
X8705250Y-15865581D01*
X8685038Y-15858349D01*
X8665632Y-15849170D01*
X8647219Y-15838134D01*
X8629976Y-15825346D01*
X8614070Y-15810930D01*
X8599654Y-15795024D01*
X8586866Y-15777781D01*
X8575830Y-15759368D01*
X8566651Y-15739962D01*
X8559419Y-15719750D01*
X8554203Y-15698926D01*
X8551053Y-15677691D01*
X8550000Y-15656250D01*
X8550000Y-15143750D01*
X8551053Y-15122309D01*
X8554203Y-15101074D01*
X8559419Y-15080250D01*
X8566651Y-15060038D01*
X8575830Y-15040632D01*
X8586866Y-15022219D01*
X8599654Y-15004976D01*
X8614070Y-14989070D01*
X8629976Y-14974654D01*
X8647219Y-14961866D01*
X8665632Y-14950830D01*
X8685038Y-14941651D01*
X8705250Y-14934419D01*
X8726074Y-14929203D01*
X8747309Y-14926053D01*
X8768750Y-14925000D01*
X9206250Y-14925000D01*
X9227691Y-14926053D01*
X9227691Y-14926053D01*
G37*
D11*
X8987500Y-15400000D03*
D10*
G36*
X7652691Y-14926053D02*
G01*
X7673926Y-14929203D01*
X7694750Y-14934419D01*
X7714962Y-14941651D01*
X7734368Y-14950830D01*
X7752781Y-14961866D01*
X7770024Y-14974654D01*
X7785930Y-14989070D01*
X7800346Y-15004976D01*
X7813134Y-15022219D01*
X7824170Y-15040632D01*
X7833349Y-15060038D01*
X7840581Y-15080250D01*
X7845797Y-15101074D01*
X7848947Y-15122309D01*
X7850000Y-15143750D01*
X7850000Y-15656250D01*
X7848947Y-15677691D01*
X7845797Y-15698926D01*
X7840581Y-15719750D01*
X7833349Y-15739962D01*
X7824170Y-15759368D01*
X7813134Y-15777781D01*
X7800346Y-15795024D01*
X7785930Y-15810930D01*
X7770024Y-15825346D01*
X7752781Y-15838134D01*
X7734368Y-15849170D01*
X7714962Y-15858349D01*
X7694750Y-15865581D01*
X7673926Y-15870797D01*
X7652691Y-15873947D01*
X7631250Y-15875000D01*
X7193750Y-15875000D01*
X7172309Y-15873947D01*
X7151074Y-15870797D01*
X7130250Y-15865581D01*
X7110038Y-15858349D01*
X7090632Y-15849170D01*
X7072219Y-15838134D01*
X7054976Y-15825346D01*
X7039070Y-15810930D01*
X7024654Y-15795024D01*
X7011866Y-15777781D01*
X7000830Y-15759368D01*
X6991651Y-15739962D01*
X6984419Y-15719750D01*
X6979203Y-15698926D01*
X6976053Y-15677691D01*
X6975000Y-15656250D01*
X6975000Y-15143750D01*
X6976053Y-15122309D01*
X6979203Y-15101074D01*
X6984419Y-15080250D01*
X6991651Y-15060038D01*
X7000830Y-15040632D01*
X7011866Y-15022219D01*
X7024654Y-15004976D01*
X7039070Y-14989070D01*
X7054976Y-14974654D01*
X7072219Y-14961866D01*
X7090632Y-14950830D01*
X7110038Y-14941651D01*
X7130250Y-14934419D01*
X7151074Y-14929203D01*
X7172309Y-14926053D01*
X7193750Y-14925000D01*
X7631250Y-14925000D01*
X7652691Y-14926053D01*
X7652691Y-14926053D01*
G37*
D11*
X7412500Y-15400000D03*
D10*
G36*
X18627691Y-10926053D02*
G01*
X18648926Y-10929203D01*
X18669750Y-10934419D01*
X18689962Y-10941651D01*
X18709368Y-10950830D01*
X18727781Y-10961866D01*
X18745024Y-10974654D01*
X18760930Y-10989070D01*
X18775346Y-11004976D01*
X18788134Y-11022219D01*
X18799170Y-11040632D01*
X18808349Y-11060038D01*
X18815581Y-11080250D01*
X18820797Y-11101074D01*
X18823947Y-11122309D01*
X18825000Y-11143750D01*
X18825000Y-11656250D01*
X18823947Y-11677691D01*
X18820797Y-11698926D01*
X18815581Y-11719750D01*
X18808349Y-11739962D01*
X18799170Y-11759368D01*
X18788134Y-11777781D01*
X18775346Y-11795024D01*
X18760930Y-11810930D01*
X18745024Y-11825346D01*
X18727781Y-11838134D01*
X18709368Y-11849170D01*
X18689962Y-11858349D01*
X18669750Y-11865581D01*
X18648926Y-11870797D01*
X18627691Y-11873947D01*
X18606250Y-11875000D01*
X18168750Y-11875000D01*
X18147309Y-11873947D01*
X18126074Y-11870797D01*
X18105250Y-11865581D01*
X18085038Y-11858349D01*
X18065632Y-11849170D01*
X18047219Y-11838134D01*
X18029976Y-11825346D01*
X18014070Y-11810930D01*
X17999654Y-11795024D01*
X17986866Y-11777781D01*
X17975830Y-11759368D01*
X17966651Y-11739962D01*
X17959419Y-11719750D01*
X17954203Y-11698926D01*
X17951053Y-11677691D01*
X17950000Y-11656250D01*
X17950000Y-11143750D01*
X17951053Y-11122309D01*
X17954203Y-11101074D01*
X17959419Y-11080250D01*
X17966651Y-11060038D01*
X17975830Y-11040632D01*
X17986866Y-11022219D01*
X17999654Y-11004976D01*
X18014070Y-10989070D01*
X18029976Y-10974654D01*
X18047219Y-10961866D01*
X18065632Y-10950830D01*
X18085038Y-10941651D01*
X18105250Y-10934419D01*
X18126074Y-10929203D01*
X18147309Y-10926053D01*
X18168750Y-10925000D01*
X18606250Y-10925000D01*
X18627691Y-10926053D01*
X18627691Y-10926053D01*
G37*
D11*
X18387500Y-11400000D03*
D10*
G36*
X17052691Y-10926053D02*
G01*
X17073926Y-10929203D01*
X17094750Y-10934419D01*
X17114962Y-10941651D01*
X17134368Y-10950830D01*
X17152781Y-10961866D01*
X17170024Y-10974654D01*
X17185930Y-10989070D01*
X17200346Y-11004976D01*
X17213134Y-11022219D01*
X17224170Y-11040632D01*
X17233349Y-11060038D01*
X17240581Y-11080250D01*
X17245797Y-11101074D01*
X17248947Y-11122309D01*
X17250000Y-11143750D01*
X17250000Y-11656250D01*
X17248947Y-11677691D01*
X17245797Y-11698926D01*
X17240581Y-11719750D01*
X17233349Y-11739962D01*
X17224170Y-11759368D01*
X17213134Y-11777781D01*
X17200346Y-11795024D01*
X17185930Y-11810930D01*
X17170024Y-11825346D01*
X17152781Y-11838134D01*
X17134368Y-11849170D01*
X17114962Y-11858349D01*
X17094750Y-11865581D01*
X17073926Y-11870797D01*
X17052691Y-11873947D01*
X17031250Y-11875000D01*
X16593750Y-11875000D01*
X16572309Y-11873947D01*
X16551074Y-11870797D01*
X16530250Y-11865581D01*
X16510038Y-11858349D01*
X16490632Y-11849170D01*
X16472219Y-11838134D01*
X16454976Y-11825346D01*
X16439070Y-11810930D01*
X16424654Y-11795024D01*
X16411866Y-11777781D01*
X16400830Y-11759368D01*
X16391651Y-11739962D01*
X16384419Y-11719750D01*
X16379203Y-11698926D01*
X16376053Y-11677691D01*
X16375000Y-11656250D01*
X16375000Y-11143750D01*
X16376053Y-11122309D01*
X16379203Y-11101074D01*
X16384419Y-11080250D01*
X16391651Y-11060038D01*
X16400830Y-11040632D01*
X16411866Y-11022219D01*
X16424654Y-11004976D01*
X16439070Y-10989070D01*
X16454976Y-10974654D01*
X16472219Y-10961866D01*
X16490632Y-10950830D01*
X16510038Y-10941651D01*
X16530250Y-10934419D01*
X16551074Y-10929203D01*
X16572309Y-10926053D01*
X16593750Y-10925000D01*
X17031250Y-10925000D01*
X17052691Y-10926053D01*
X17052691Y-10926053D01*
G37*
D11*
X16812500Y-11400000D03*
D10*
G36*
X351977691Y-70576053D02*
G01*
X351998926Y-70579203D01*
X352019750Y-70584419D01*
X352039962Y-70591651D01*
X352059368Y-70600830D01*
X352077781Y-70611866D01*
X352095024Y-70624654D01*
X352110930Y-70639070D01*
X352125346Y-70654976D01*
X352138134Y-70672219D01*
X352149170Y-70690632D01*
X352158349Y-70710038D01*
X352165581Y-70730250D01*
X352170797Y-70751074D01*
X352173947Y-70772309D01*
X352175000Y-70793750D01*
X352175000Y-71231250D01*
X352173947Y-71252691D01*
X352170797Y-71273926D01*
X352165581Y-71294750D01*
X352158349Y-71314962D01*
X352149170Y-71334368D01*
X352138134Y-71352781D01*
X352125346Y-71370024D01*
X352110930Y-71385930D01*
X352095024Y-71400346D01*
X352077781Y-71413134D01*
X352059368Y-71424170D01*
X352039962Y-71433349D01*
X352019750Y-71440581D01*
X351998926Y-71445797D01*
X351977691Y-71448947D01*
X351956250Y-71450000D01*
X351443750Y-71450000D01*
X351422309Y-71448947D01*
X351401074Y-71445797D01*
X351380250Y-71440581D01*
X351360038Y-71433349D01*
X351340632Y-71424170D01*
X351322219Y-71413134D01*
X351304976Y-71400346D01*
X351289070Y-71385930D01*
X351274654Y-71370024D01*
X351261866Y-71352781D01*
X351250830Y-71334368D01*
X351241651Y-71314962D01*
X351234419Y-71294750D01*
X351229203Y-71273926D01*
X351226053Y-71252691D01*
X351225000Y-71231250D01*
X351225000Y-70793750D01*
X351226053Y-70772309D01*
X351229203Y-70751074D01*
X351234419Y-70730250D01*
X351241651Y-70710038D01*
X351250830Y-70690632D01*
X351261866Y-70672219D01*
X351274654Y-70654976D01*
X351289070Y-70639070D01*
X351304976Y-70624654D01*
X351322219Y-70611866D01*
X351340632Y-70600830D01*
X351360038Y-70591651D01*
X351380250Y-70584419D01*
X351401074Y-70579203D01*
X351422309Y-70576053D01*
X351443750Y-70575000D01*
X351956250Y-70575000D01*
X351977691Y-70576053D01*
X351977691Y-70576053D01*
G37*
D11*
X351700000Y-71012500D03*
D10*
G36*
X351977691Y-72151053D02*
G01*
X351998926Y-72154203D01*
X352019750Y-72159419D01*
X352039962Y-72166651D01*
X352059368Y-72175830D01*
X352077781Y-72186866D01*
X352095024Y-72199654D01*
X352110930Y-72214070D01*
X352125346Y-72229976D01*
X352138134Y-72247219D01*
X352149170Y-72265632D01*
X352158349Y-72285038D01*
X352165581Y-72305250D01*
X352170797Y-72326074D01*
X352173947Y-72347309D01*
X352175000Y-72368750D01*
X352175000Y-72806250D01*
X352173947Y-72827691D01*
X352170797Y-72848926D01*
X352165581Y-72869750D01*
X352158349Y-72889962D01*
X352149170Y-72909368D01*
X352138134Y-72927781D01*
X352125346Y-72945024D01*
X352110930Y-72960930D01*
X352095024Y-72975346D01*
X352077781Y-72988134D01*
X352059368Y-72999170D01*
X352039962Y-73008349D01*
X352019750Y-73015581D01*
X351998926Y-73020797D01*
X351977691Y-73023947D01*
X351956250Y-73025000D01*
X351443750Y-73025000D01*
X351422309Y-73023947D01*
X351401074Y-73020797D01*
X351380250Y-73015581D01*
X351360038Y-73008349D01*
X351340632Y-72999170D01*
X351322219Y-72988134D01*
X351304976Y-72975346D01*
X351289070Y-72960930D01*
X351274654Y-72945024D01*
X351261866Y-72927781D01*
X351250830Y-72909368D01*
X351241651Y-72889962D01*
X351234419Y-72869750D01*
X351229203Y-72848926D01*
X351226053Y-72827691D01*
X351225000Y-72806250D01*
X351225000Y-72368750D01*
X351226053Y-72347309D01*
X351229203Y-72326074D01*
X351234419Y-72305250D01*
X351241651Y-72285038D01*
X351250830Y-72265632D01*
X351261866Y-72247219D01*
X351274654Y-72229976D01*
X351289070Y-72214070D01*
X351304976Y-72199654D01*
X351322219Y-72186866D01*
X351340632Y-72175830D01*
X351360038Y-72166651D01*
X351380250Y-72159419D01*
X351401074Y-72154203D01*
X351422309Y-72151053D01*
X351443750Y-72150000D01*
X351956250Y-72150000D01*
X351977691Y-72151053D01*
X351977691Y-72151053D01*
G37*
D11*
X351700000Y-72587500D03*
D10*
G36*
X342277691Y-58976053D02*
G01*
X342298926Y-58979203D01*
X342319750Y-58984419D01*
X342339962Y-58991651D01*
X342359368Y-59000830D01*
X342377781Y-59011866D01*
X342395024Y-59024654D01*
X342410930Y-59039070D01*
X342425346Y-59054976D01*
X342438134Y-59072219D01*
X342449170Y-59090632D01*
X342458349Y-59110038D01*
X342465581Y-59130250D01*
X342470797Y-59151074D01*
X342473947Y-59172309D01*
X342475000Y-59193750D01*
X342475000Y-59631250D01*
X342473947Y-59652691D01*
X342470797Y-59673926D01*
X342465581Y-59694750D01*
X342458349Y-59714962D01*
X342449170Y-59734368D01*
X342438134Y-59752781D01*
X342425346Y-59770024D01*
X342410930Y-59785930D01*
X342395024Y-59800346D01*
X342377781Y-59813134D01*
X342359368Y-59824170D01*
X342339962Y-59833349D01*
X342319750Y-59840581D01*
X342298926Y-59845797D01*
X342277691Y-59848947D01*
X342256250Y-59850000D01*
X341743750Y-59850000D01*
X341722309Y-59848947D01*
X341701074Y-59845797D01*
X341680250Y-59840581D01*
X341660038Y-59833349D01*
X341640632Y-59824170D01*
X341622219Y-59813134D01*
X341604976Y-59800346D01*
X341589070Y-59785930D01*
X341574654Y-59770024D01*
X341561866Y-59752781D01*
X341550830Y-59734368D01*
X341541651Y-59714962D01*
X341534419Y-59694750D01*
X341529203Y-59673926D01*
X341526053Y-59652691D01*
X341525000Y-59631250D01*
X341525000Y-59193750D01*
X341526053Y-59172309D01*
X341529203Y-59151074D01*
X341534419Y-59130250D01*
X341541651Y-59110038D01*
X341550830Y-59090632D01*
X341561866Y-59072219D01*
X341574654Y-59054976D01*
X341589070Y-59039070D01*
X341604976Y-59024654D01*
X341622219Y-59011866D01*
X341640632Y-59000830D01*
X341660038Y-58991651D01*
X341680250Y-58984419D01*
X341701074Y-58979203D01*
X341722309Y-58976053D01*
X341743750Y-58975000D01*
X342256250Y-58975000D01*
X342277691Y-58976053D01*
X342277691Y-58976053D01*
G37*
D11*
X342000000Y-59412500D03*
D10*
G36*
X342277691Y-60551053D02*
G01*
X342298926Y-60554203D01*
X342319750Y-60559419D01*
X342339962Y-60566651D01*
X342359368Y-60575830D01*
X342377781Y-60586866D01*
X342395024Y-60599654D01*
X342410930Y-60614070D01*
X342425346Y-60629976D01*
X342438134Y-60647219D01*
X342449170Y-60665632D01*
X342458349Y-60685038D01*
X342465581Y-60705250D01*
X342470797Y-60726074D01*
X342473947Y-60747309D01*
X342475000Y-60768750D01*
X342475000Y-61206250D01*
X342473947Y-61227691D01*
X342470797Y-61248926D01*
X342465581Y-61269750D01*
X342458349Y-61289962D01*
X342449170Y-61309368D01*
X342438134Y-61327781D01*
X342425346Y-61345024D01*
X342410930Y-61360930D01*
X342395024Y-61375346D01*
X342377781Y-61388134D01*
X342359368Y-61399170D01*
X342339962Y-61408349D01*
X342319750Y-61415581D01*
X342298926Y-61420797D01*
X342277691Y-61423947D01*
X342256250Y-61425000D01*
X341743750Y-61425000D01*
X341722309Y-61423947D01*
X341701074Y-61420797D01*
X341680250Y-61415581D01*
X341660038Y-61408349D01*
X341640632Y-61399170D01*
X341622219Y-61388134D01*
X341604976Y-61375346D01*
X341589070Y-61360930D01*
X341574654Y-61345024D01*
X341561866Y-61327781D01*
X341550830Y-61309368D01*
X341541651Y-61289962D01*
X341534419Y-61269750D01*
X341529203Y-61248926D01*
X341526053Y-61227691D01*
X341525000Y-61206250D01*
X341525000Y-60768750D01*
X341526053Y-60747309D01*
X341529203Y-60726074D01*
X341534419Y-60705250D01*
X341541651Y-60685038D01*
X341550830Y-60665632D01*
X341561866Y-60647219D01*
X341574654Y-60629976D01*
X341589070Y-60614070D01*
X341604976Y-60599654D01*
X341622219Y-60586866D01*
X341640632Y-60575830D01*
X341660038Y-60566651D01*
X341680250Y-60559419D01*
X341701074Y-60554203D01*
X341722309Y-60551053D01*
X341743750Y-60550000D01*
X342256250Y-60550000D01*
X342277691Y-60551053D01*
X342277691Y-60551053D01*
G37*
D11*
X342000000Y-60987500D03*
D10*
G36*
X119138077Y-121303274D02*
G01*
X119159312Y-121306424D01*
X119180136Y-121311640D01*
X119200348Y-121318872D01*
X119219754Y-121328051D01*
X119238167Y-121339087D01*
X119255410Y-121351875D01*
X119271316Y-121366291D01*
X119633709Y-121728684D01*
X119648125Y-121744590D01*
X119660913Y-121761833D01*
X119671949Y-121780246D01*
X119681128Y-121799652D01*
X119688360Y-121819864D01*
X119693576Y-121840688D01*
X119696726Y-121861923D01*
X119697779Y-121883364D01*
X119696726Y-121904805D01*
X119693576Y-121926040D01*
X119688360Y-121946864D01*
X119681128Y-121967076D01*
X119671949Y-121986482D01*
X119660913Y-122004895D01*
X119648125Y-122022138D01*
X119633709Y-122038044D01*
X119324350Y-122347403D01*
X119308444Y-122361819D01*
X119291201Y-122374607D01*
X119272788Y-122385643D01*
X119253382Y-122394822D01*
X119233170Y-122402054D01*
X119212346Y-122407270D01*
X119191111Y-122410420D01*
X119169670Y-122411473D01*
X119148229Y-122410420D01*
X119126994Y-122407270D01*
X119106170Y-122402054D01*
X119085958Y-122394822D01*
X119066552Y-122385643D01*
X119048139Y-122374607D01*
X119030896Y-122361819D01*
X119014990Y-122347403D01*
X118652597Y-121985010D01*
X118638181Y-121969104D01*
X118625393Y-121951861D01*
X118614357Y-121933448D01*
X118605178Y-121914042D01*
X118597946Y-121893830D01*
X118592730Y-121873006D01*
X118589580Y-121851771D01*
X118588527Y-121830330D01*
X118589580Y-121808889D01*
X118592730Y-121787654D01*
X118597946Y-121766830D01*
X118605178Y-121746618D01*
X118614357Y-121727212D01*
X118625393Y-121708799D01*
X118638181Y-121691556D01*
X118652597Y-121675650D01*
X118961956Y-121366291D01*
X118977862Y-121351875D01*
X118995105Y-121339087D01*
X119013518Y-121328051D01*
X119032924Y-121318872D01*
X119053136Y-121311640D01*
X119073960Y-121306424D01*
X119095195Y-121303274D01*
X119116636Y-121302221D01*
X119138077Y-121303274D01*
X119138077Y-121303274D01*
G37*
D11*
X119143153Y-121856847D03*
D10*
G36*
X120251771Y-120189580D02*
G01*
X120273006Y-120192730D01*
X120293830Y-120197946D01*
X120314042Y-120205178D01*
X120333448Y-120214357D01*
X120351861Y-120225393D01*
X120369104Y-120238181D01*
X120385010Y-120252597D01*
X120747403Y-120614990D01*
X120761819Y-120630896D01*
X120774607Y-120648139D01*
X120785643Y-120666552D01*
X120794822Y-120685958D01*
X120802054Y-120706170D01*
X120807270Y-120726994D01*
X120810420Y-120748229D01*
X120811473Y-120769670D01*
X120810420Y-120791111D01*
X120807270Y-120812346D01*
X120802054Y-120833170D01*
X120794822Y-120853382D01*
X120785643Y-120872788D01*
X120774607Y-120891201D01*
X120761819Y-120908444D01*
X120747403Y-120924350D01*
X120438044Y-121233709D01*
X120422138Y-121248125D01*
X120404895Y-121260913D01*
X120386482Y-121271949D01*
X120367076Y-121281128D01*
X120346864Y-121288360D01*
X120326040Y-121293576D01*
X120304805Y-121296726D01*
X120283364Y-121297779D01*
X120261923Y-121296726D01*
X120240688Y-121293576D01*
X120219864Y-121288360D01*
X120199652Y-121281128D01*
X120180246Y-121271949D01*
X120161833Y-121260913D01*
X120144590Y-121248125D01*
X120128684Y-121233709D01*
X119766291Y-120871316D01*
X119751875Y-120855410D01*
X119739087Y-120838167D01*
X119728051Y-120819754D01*
X119718872Y-120800348D01*
X119711640Y-120780136D01*
X119706424Y-120759312D01*
X119703274Y-120738077D01*
X119702221Y-120716636D01*
X119703274Y-120695195D01*
X119706424Y-120673960D01*
X119711640Y-120653136D01*
X119718872Y-120632924D01*
X119728051Y-120613518D01*
X119739087Y-120595105D01*
X119751875Y-120577862D01*
X119766291Y-120561956D01*
X120075650Y-120252597D01*
X120091556Y-120238181D01*
X120108799Y-120225393D01*
X120127212Y-120214357D01*
X120146618Y-120205178D01*
X120166830Y-120197946D01*
X120187654Y-120192730D01*
X120208889Y-120189580D01*
X120230330Y-120188527D01*
X120251771Y-120189580D01*
X120251771Y-120189580D01*
G37*
D11*
X120256847Y-120743153D03*
D10*
G36*
X118038077Y-120203274D02*
G01*
X118059312Y-120206424D01*
X118080136Y-120211640D01*
X118100348Y-120218872D01*
X118119754Y-120228051D01*
X118138167Y-120239087D01*
X118155410Y-120251875D01*
X118171316Y-120266291D01*
X118533709Y-120628684D01*
X118548125Y-120644590D01*
X118560913Y-120661833D01*
X118571949Y-120680246D01*
X118581128Y-120699652D01*
X118588360Y-120719864D01*
X118593576Y-120740688D01*
X118596726Y-120761923D01*
X118597779Y-120783364D01*
X118596726Y-120804805D01*
X118593576Y-120826040D01*
X118588360Y-120846864D01*
X118581128Y-120867076D01*
X118571949Y-120886482D01*
X118560913Y-120904895D01*
X118548125Y-120922138D01*
X118533709Y-120938044D01*
X118224350Y-121247403D01*
X118208444Y-121261819D01*
X118191201Y-121274607D01*
X118172788Y-121285643D01*
X118153382Y-121294822D01*
X118133170Y-121302054D01*
X118112346Y-121307270D01*
X118091111Y-121310420D01*
X118069670Y-121311473D01*
X118048229Y-121310420D01*
X118026994Y-121307270D01*
X118006170Y-121302054D01*
X117985958Y-121294822D01*
X117966552Y-121285643D01*
X117948139Y-121274607D01*
X117930896Y-121261819D01*
X117914990Y-121247403D01*
X117552597Y-120885010D01*
X117538181Y-120869104D01*
X117525393Y-120851861D01*
X117514357Y-120833448D01*
X117505178Y-120814042D01*
X117497946Y-120793830D01*
X117492730Y-120773006D01*
X117489580Y-120751771D01*
X117488527Y-120730330D01*
X117489580Y-120708889D01*
X117492730Y-120687654D01*
X117497946Y-120666830D01*
X117505178Y-120646618D01*
X117514357Y-120627212D01*
X117525393Y-120608799D01*
X117538181Y-120591556D01*
X117552597Y-120575650D01*
X117861956Y-120266291D01*
X117877862Y-120251875D01*
X117895105Y-120239087D01*
X117913518Y-120228051D01*
X117932924Y-120218872D01*
X117953136Y-120211640D01*
X117973960Y-120206424D01*
X117995195Y-120203274D01*
X118016636Y-120202221D01*
X118038077Y-120203274D01*
X118038077Y-120203274D01*
G37*
D11*
X118043153Y-120756847D03*
D10*
G36*
X119151771Y-119089580D02*
G01*
X119173006Y-119092730D01*
X119193830Y-119097946D01*
X119214042Y-119105178D01*
X119233448Y-119114357D01*
X119251861Y-119125393D01*
X119269104Y-119138181D01*
X119285010Y-119152597D01*
X119647403Y-119514990D01*
X119661819Y-119530896D01*
X119674607Y-119548139D01*
X119685643Y-119566552D01*
X119694822Y-119585958D01*
X119702054Y-119606170D01*
X119707270Y-119626994D01*
X119710420Y-119648229D01*
X119711473Y-119669670D01*
X119710420Y-119691111D01*
X119707270Y-119712346D01*
X119702054Y-119733170D01*
X119694822Y-119753382D01*
X119685643Y-119772788D01*
X119674607Y-119791201D01*
X119661819Y-119808444D01*
X119647403Y-119824350D01*
X119338044Y-120133709D01*
X119322138Y-120148125D01*
X119304895Y-120160913D01*
X119286482Y-120171949D01*
X119267076Y-120181128D01*
X119246864Y-120188360D01*
X119226040Y-120193576D01*
X119204805Y-120196726D01*
X119183364Y-120197779D01*
X119161923Y-120196726D01*
X119140688Y-120193576D01*
X119119864Y-120188360D01*
X119099652Y-120181128D01*
X119080246Y-120171949D01*
X119061833Y-120160913D01*
X119044590Y-120148125D01*
X119028684Y-120133709D01*
X118666291Y-119771316D01*
X118651875Y-119755410D01*
X118639087Y-119738167D01*
X118628051Y-119719754D01*
X118618872Y-119700348D01*
X118611640Y-119680136D01*
X118606424Y-119659312D01*
X118603274Y-119638077D01*
X118602221Y-119616636D01*
X118603274Y-119595195D01*
X118606424Y-119573960D01*
X118611640Y-119553136D01*
X118618872Y-119532924D01*
X118628051Y-119513518D01*
X118639087Y-119495105D01*
X118651875Y-119477862D01*
X118666291Y-119461956D01*
X118975650Y-119152597D01*
X118991556Y-119138181D01*
X119008799Y-119125393D01*
X119027212Y-119114357D01*
X119046618Y-119105178D01*
X119066830Y-119097946D01*
X119087654Y-119092730D01*
X119108889Y-119089580D01*
X119130330Y-119088527D01*
X119151771Y-119089580D01*
X119151771Y-119089580D01*
G37*
D11*
X119156847Y-119643153D03*
D10*
G36*
X7777691Y-22276053D02*
G01*
X7798926Y-22279203D01*
X7819750Y-22284419D01*
X7839962Y-22291651D01*
X7859368Y-22300830D01*
X7877781Y-22311866D01*
X7895024Y-22324654D01*
X7910930Y-22339070D01*
X7925346Y-22354976D01*
X7938134Y-22372219D01*
X7949170Y-22390632D01*
X7958349Y-22410038D01*
X7965581Y-22430250D01*
X7970797Y-22451074D01*
X7973947Y-22472309D01*
X7975000Y-22493750D01*
X7975000Y-22931250D01*
X7973947Y-22952691D01*
X7970797Y-22973926D01*
X7965581Y-22994750D01*
X7958349Y-23014962D01*
X7949170Y-23034368D01*
X7938134Y-23052781D01*
X7925346Y-23070024D01*
X7910930Y-23085930D01*
X7895024Y-23100346D01*
X7877781Y-23113134D01*
X7859368Y-23124170D01*
X7839962Y-23133349D01*
X7819750Y-23140581D01*
X7798926Y-23145797D01*
X7777691Y-23148947D01*
X7756250Y-23150000D01*
X7243750Y-23150000D01*
X7222309Y-23148947D01*
X7201074Y-23145797D01*
X7180250Y-23140581D01*
X7160038Y-23133349D01*
X7140632Y-23124170D01*
X7122219Y-23113134D01*
X7104976Y-23100346D01*
X7089070Y-23085930D01*
X7074654Y-23070024D01*
X7061866Y-23052781D01*
X7050830Y-23034368D01*
X7041651Y-23014962D01*
X7034419Y-22994750D01*
X7029203Y-22973926D01*
X7026053Y-22952691D01*
X7025000Y-22931250D01*
X7025000Y-22493750D01*
X7026053Y-22472309D01*
X7029203Y-22451074D01*
X7034419Y-22430250D01*
X7041651Y-22410038D01*
X7050830Y-22390632D01*
X7061866Y-22372219D01*
X7074654Y-22354976D01*
X7089070Y-22339070D01*
X7104976Y-22324654D01*
X7122219Y-22311866D01*
X7140632Y-22300830D01*
X7160038Y-22291651D01*
X7180250Y-22284419D01*
X7201074Y-22279203D01*
X7222309Y-22276053D01*
X7243750Y-22275000D01*
X7756250Y-22275000D01*
X7777691Y-22276053D01*
X7777691Y-22276053D01*
G37*
D11*
X7500000Y-22712500D03*
D10*
G36*
X7777691Y-23851053D02*
G01*
X7798926Y-23854203D01*
X7819750Y-23859419D01*
X7839962Y-23866651D01*
X7859368Y-23875830D01*
X7877781Y-23886866D01*
X7895024Y-23899654D01*
X7910930Y-23914070D01*
X7925346Y-23929976D01*
X7938134Y-23947219D01*
X7949170Y-23965632D01*
X7958349Y-23985038D01*
X7965581Y-24005250D01*
X7970797Y-24026074D01*
X7973947Y-24047309D01*
X7975000Y-24068750D01*
X7975000Y-24506250D01*
X7973947Y-24527691D01*
X7970797Y-24548926D01*
X7965581Y-24569750D01*
X7958349Y-24589962D01*
X7949170Y-24609368D01*
X7938134Y-24627781D01*
X7925346Y-24645024D01*
X7910930Y-24660930D01*
X7895024Y-24675346D01*
X7877781Y-24688134D01*
X7859368Y-24699170D01*
X7839962Y-24708349D01*
X7819750Y-24715581D01*
X7798926Y-24720797D01*
X7777691Y-24723947D01*
X7756250Y-24725000D01*
X7243750Y-24725000D01*
X7222309Y-24723947D01*
X7201074Y-24720797D01*
X7180250Y-24715581D01*
X7160038Y-24708349D01*
X7140632Y-24699170D01*
X7122219Y-24688134D01*
X7104976Y-24675346D01*
X7089070Y-24660930D01*
X7074654Y-24645024D01*
X7061866Y-24627781D01*
X7050830Y-24609368D01*
X7041651Y-24589962D01*
X7034419Y-24569750D01*
X7029203Y-24548926D01*
X7026053Y-24527691D01*
X7025000Y-24506250D01*
X7025000Y-24068750D01*
X7026053Y-24047309D01*
X7029203Y-24026074D01*
X7034419Y-24005250D01*
X7041651Y-23985038D01*
X7050830Y-23965632D01*
X7061866Y-23947219D01*
X7074654Y-23929976D01*
X7089070Y-23914070D01*
X7104976Y-23899654D01*
X7122219Y-23886866D01*
X7140632Y-23875830D01*
X7160038Y-23866651D01*
X7180250Y-23859419D01*
X7201074Y-23854203D01*
X7222309Y-23851053D01*
X7243750Y-23850000D01*
X7756250Y-23850000D01*
X7777691Y-23851053D01*
X7777691Y-23851053D01*
G37*
D11*
X7500000Y-24287500D03*
D10*
G36*
X6952691Y-16826053D02*
G01*
X6973926Y-16829203D01*
X6994750Y-16834419D01*
X7014962Y-16841651D01*
X7034368Y-16850830D01*
X7052781Y-16861866D01*
X7070024Y-16874654D01*
X7085930Y-16889070D01*
X7100346Y-16904976D01*
X7113134Y-16922219D01*
X7124170Y-16940632D01*
X7133349Y-16960038D01*
X7140581Y-16980250D01*
X7145797Y-17001074D01*
X7148947Y-17022309D01*
X7150000Y-17043750D01*
X7150000Y-17556250D01*
X7148947Y-17577691D01*
X7145797Y-17598926D01*
X7140581Y-17619750D01*
X7133349Y-17639962D01*
X7124170Y-17659368D01*
X7113134Y-17677781D01*
X7100346Y-17695024D01*
X7085930Y-17710930D01*
X7070024Y-17725346D01*
X7052781Y-17738134D01*
X7034368Y-17749170D01*
X7014962Y-17758349D01*
X6994750Y-17765581D01*
X6973926Y-17770797D01*
X6952691Y-17773947D01*
X6931250Y-17775000D01*
X6493750Y-17775000D01*
X6472309Y-17773947D01*
X6451074Y-17770797D01*
X6430250Y-17765581D01*
X6410038Y-17758349D01*
X6390632Y-17749170D01*
X6372219Y-17738134D01*
X6354976Y-17725346D01*
X6339070Y-17710930D01*
X6324654Y-17695024D01*
X6311866Y-17677781D01*
X6300830Y-17659368D01*
X6291651Y-17639962D01*
X6284419Y-17619750D01*
X6279203Y-17598926D01*
X6276053Y-17577691D01*
X6275000Y-17556250D01*
X6275000Y-17043750D01*
X6276053Y-17022309D01*
X6279203Y-17001074D01*
X6284419Y-16980250D01*
X6291651Y-16960038D01*
X6300830Y-16940632D01*
X6311866Y-16922219D01*
X6324654Y-16904976D01*
X6339070Y-16889070D01*
X6354976Y-16874654D01*
X6372219Y-16861866D01*
X6390632Y-16850830D01*
X6410038Y-16841651D01*
X6430250Y-16834419D01*
X6451074Y-16829203D01*
X6472309Y-16826053D01*
X6493750Y-16825000D01*
X6931250Y-16825000D01*
X6952691Y-16826053D01*
X6952691Y-16826053D01*
G37*
D11*
X6712500Y-17300000D03*
D10*
G36*
X8527691Y-16826053D02*
G01*
X8548926Y-16829203D01*
X8569750Y-16834419D01*
X8589962Y-16841651D01*
X8609368Y-16850830D01*
X8627781Y-16861866D01*
X8645024Y-16874654D01*
X8660930Y-16889070D01*
X8675346Y-16904976D01*
X8688134Y-16922219D01*
X8699170Y-16940632D01*
X8708349Y-16960038D01*
X8715581Y-16980250D01*
X8720797Y-17001074D01*
X8723947Y-17022309D01*
X8725000Y-17043750D01*
X8725000Y-17556250D01*
X8723947Y-17577691D01*
X8720797Y-17598926D01*
X8715581Y-17619750D01*
X8708349Y-17639962D01*
X8699170Y-17659368D01*
X8688134Y-17677781D01*
X8675346Y-17695024D01*
X8660930Y-17710930D01*
X8645024Y-17725346D01*
X8627781Y-17738134D01*
X8609368Y-17749170D01*
X8589962Y-17758349D01*
X8569750Y-17765581D01*
X8548926Y-17770797D01*
X8527691Y-17773947D01*
X8506250Y-17775000D01*
X8068750Y-17775000D01*
X8047309Y-17773947D01*
X8026074Y-17770797D01*
X8005250Y-17765581D01*
X7985038Y-17758349D01*
X7965632Y-17749170D01*
X7947219Y-17738134D01*
X7929976Y-17725346D01*
X7914070Y-17710930D01*
X7899654Y-17695024D01*
X7886866Y-17677781D01*
X7875830Y-17659368D01*
X7866651Y-17639962D01*
X7859419Y-17619750D01*
X7854203Y-17598926D01*
X7851053Y-17577691D01*
X7850000Y-17556250D01*
X7850000Y-17043750D01*
X7851053Y-17022309D01*
X7854203Y-17001074D01*
X7859419Y-16980250D01*
X7866651Y-16960038D01*
X7875830Y-16940632D01*
X7886866Y-16922219D01*
X7899654Y-16904976D01*
X7914070Y-16889070D01*
X7929976Y-16874654D01*
X7947219Y-16861866D01*
X7965632Y-16850830D01*
X7985038Y-16841651D01*
X8005250Y-16834419D01*
X8026074Y-16829203D01*
X8047309Y-16826053D01*
X8068750Y-16825000D01*
X8506250Y-16825000D01*
X8527691Y-16826053D01*
X8527691Y-16826053D01*
G37*
D11*
X8287500Y-17300000D03*
D10*
G36*
X17052691Y-12526053D02*
G01*
X17073926Y-12529203D01*
X17094750Y-12534419D01*
X17114962Y-12541651D01*
X17134368Y-12550830D01*
X17152781Y-12561866D01*
X17170024Y-12574654D01*
X17185930Y-12589070D01*
X17200346Y-12604976D01*
X17213134Y-12622219D01*
X17224170Y-12640632D01*
X17233349Y-12660038D01*
X17240581Y-12680250D01*
X17245797Y-12701074D01*
X17248947Y-12722309D01*
X17250000Y-12743750D01*
X17250000Y-13256250D01*
X17248947Y-13277691D01*
X17245797Y-13298926D01*
X17240581Y-13319750D01*
X17233349Y-13339962D01*
X17224170Y-13359368D01*
X17213134Y-13377781D01*
X17200346Y-13395024D01*
X17185930Y-13410930D01*
X17170024Y-13425346D01*
X17152781Y-13438134D01*
X17134368Y-13449170D01*
X17114962Y-13458349D01*
X17094750Y-13465581D01*
X17073926Y-13470797D01*
X17052691Y-13473947D01*
X17031250Y-13475000D01*
X16593750Y-13475000D01*
X16572309Y-13473947D01*
X16551074Y-13470797D01*
X16530250Y-13465581D01*
X16510038Y-13458349D01*
X16490632Y-13449170D01*
X16472219Y-13438134D01*
X16454976Y-13425346D01*
X16439070Y-13410930D01*
X16424654Y-13395024D01*
X16411866Y-13377781D01*
X16400830Y-13359368D01*
X16391651Y-13339962D01*
X16384419Y-13319750D01*
X16379203Y-13298926D01*
X16376053Y-13277691D01*
X16375000Y-13256250D01*
X16375000Y-12743750D01*
X16376053Y-12722309D01*
X16379203Y-12701074D01*
X16384419Y-12680250D01*
X16391651Y-12660038D01*
X16400830Y-12640632D01*
X16411866Y-12622219D01*
X16424654Y-12604976D01*
X16439070Y-12589070D01*
X16454976Y-12574654D01*
X16472219Y-12561866D01*
X16490632Y-12550830D01*
X16510038Y-12541651D01*
X16530250Y-12534419D01*
X16551074Y-12529203D01*
X16572309Y-12526053D01*
X16593750Y-12525000D01*
X17031250Y-12525000D01*
X17052691Y-12526053D01*
X17052691Y-12526053D01*
G37*
D11*
X16812500Y-13000000D03*
D10*
G36*
X18627691Y-12526053D02*
G01*
X18648926Y-12529203D01*
X18669750Y-12534419D01*
X18689962Y-12541651D01*
X18709368Y-12550830D01*
X18727781Y-12561866D01*
X18745024Y-12574654D01*
X18760930Y-12589070D01*
X18775346Y-12604976D01*
X18788134Y-12622219D01*
X18799170Y-12640632D01*
X18808349Y-12660038D01*
X18815581Y-12680250D01*
X18820797Y-12701074D01*
X18823947Y-12722309D01*
X18825000Y-12743750D01*
X18825000Y-13256250D01*
X18823947Y-13277691D01*
X18820797Y-13298926D01*
X18815581Y-13319750D01*
X18808349Y-13339962D01*
X18799170Y-13359368D01*
X18788134Y-13377781D01*
X18775346Y-13395024D01*
X18760930Y-13410930D01*
X18745024Y-13425346D01*
X18727781Y-13438134D01*
X18709368Y-13449170D01*
X18689962Y-13458349D01*
X18669750Y-13465581D01*
X18648926Y-13470797D01*
X18627691Y-13473947D01*
X18606250Y-13475000D01*
X18168750Y-13475000D01*
X18147309Y-13473947D01*
X18126074Y-13470797D01*
X18105250Y-13465581D01*
X18085038Y-13458349D01*
X18065632Y-13449170D01*
X18047219Y-13438134D01*
X18029976Y-13425346D01*
X18014070Y-13410930D01*
X17999654Y-13395024D01*
X17986866Y-13377781D01*
X17975830Y-13359368D01*
X17966651Y-13339962D01*
X17959419Y-13319750D01*
X17954203Y-13298926D01*
X17951053Y-13277691D01*
X17950000Y-13256250D01*
X17950000Y-12743750D01*
X17951053Y-12722309D01*
X17954203Y-12701074D01*
X17959419Y-12680250D01*
X17966651Y-12660038D01*
X17975830Y-12640632D01*
X17986866Y-12622219D01*
X17999654Y-12604976D01*
X18014070Y-12589070D01*
X18029976Y-12574654D01*
X18047219Y-12561866D01*
X18065632Y-12550830D01*
X18085038Y-12541651D01*
X18105250Y-12534419D01*
X18126074Y-12529203D01*
X18147309Y-12526053D01*
X18168750Y-12525000D01*
X18606250Y-12525000D01*
X18627691Y-12526053D01*
X18627691Y-12526053D01*
G37*
D11*
X18387500Y-13000000D03*
D10*
G36*
X350177691Y-68976053D02*
G01*
X350198926Y-68979203D01*
X350219750Y-68984419D01*
X350239962Y-68991651D01*
X350259368Y-69000830D01*
X350277781Y-69011866D01*
X350295024Y-69024654D01*
X350310930Y-69039070D01*
X350325346Y-69054976D01*
X350338134Y-69072219D01*
X350349170Y-69090632D01*
X350358349Y-69110038D01*
X350365581Y-69130250D01*
X350370797Y-69151074D01*
X350373947Y-69172309D01*
X350375000Y-69193750D01*
X350375000Y-69631250D01*
X350373947Y-69652691D01*
X350370797Y-69673926D01*
X350365581Y-69694750D01*
X350358349Y-69714962D01*
X350349170Y-69734368D01*
X350338134Y-69752781D01*
X350325346Y-69770024D01*
X350310930Y-69785930D01*
X350295024Y-69800346D01*
X350277781Y-69813134D01*
X350259368Y-69824170D01*
X350239962Y-69833349D01*
X350219750Y-69840581D01*
X350198926Y-69845797D01*
X350177691Y-69848947D01*
X350156250Y-69850000D01*
X349643750Y-69850000D01*
X349622309Y-69848947D01*
X349601074Y-69845797D01*
X349580250Y-69840581D01*
X349560038Y-69833349D01*
X349540632Y-69824170D01*
X349522219Y-69813134D01*
X349504976Y-69800346D01*
X349489070Y-69785930D01*
X349474654Y-69770024D01*
X349461866Y-69752781D01*
X349450830Y-69734368D01*
X349441651Y-69714962D01*
X349434419Y-69694750D01*
X349429203Y-69673926D01*
X349426053Y-69652691D01*
X349425000Y-69631250D01*
X349425000Y-69193750D01*
X349426053Y-69172309D01*
X349429203Y-69151074D01*
X349434419Y-69130250D01*
X349441651Y-69110038D01*
X349450830Y-69090632D01*
X349461866Y-69072219D01*
X349474654Y-69054976D01*
X349489070Y-69039070D01*
X349504976Y-69024654D01*
X349522219Y-69011866D01*
X349540632Y-69000830D01*
X349560038Y-68991651D01*
X349580250Y-68984419D01*
X349601074Y-68979203D01*
X349622309Y-68976053D01*
X349643750Y-68975000D01*
X350156250Y-68975000D01*
X350177691Y-68976053D01*
X350177691Y-68976053D01*
G37*
D11*
X349900000Y-69412500D03*
D10*
G36*
X350177691Y-70551053D02*
G01*
X350198926Y-70554203D01*
X350219750Y-70559419D01*
X350239962Y-70566651D01*
X350259368Y-70575830D01*
X350277781Y-70586866D01*
X350295024Y-70599654D01*
X350310930Y-70614070D01*
X350325346Y-70629976D01*
X350338134Y-70647219D01*
X350349170Y-70665632D01*
X350358349Y-70685038D01*
X350365581Y-70705250D01*
X350370797Y-70726074D01*
X350373947Y-70747309D01*
X350375000Y-70768750D01*
X350375000Y-71206250D01*
X350373947Y-71227691D01*
X350370797Y-71248926D01*
X350365581Y-71269750D01*
X350358349Y-71289962D01*
X350349170Y-71309368D01*
X350338134Y-71327781D01*
X350325346Y-71345024D01*
X350310930Y-71360930D01*
X350295024Y-71375346D01*
X350277781Y-71388134D01*
X350259368Y-71399170D01*
X350239962Y-71408349D01*
X350219750Y-71415581D01*
X350198926Y-71420797D01*
X350177691Y-71423947D01*
X350156250Y-71425000D01*
X349643750Y-71425000D01*
X349622309Y-71423947D01*
X349601074Y-71420797D01*
X349580250Y-71415581D01*
X349560038Y-71408349D01*
X349540632Y-71399170D01*
X349522219Y-71388134D01*
X349504976Y-71375346D01*
X349489070Y-71360930D01*
X349474654Y-71345024D01*
X349461866Y-71327781D01*
X349450830Y-71309368D01*
X349441651Y-71289962D01*
X349434419Y-71269750D01*
X349429203Y-71248926D01*
X349426053Y-71227691D01*
X349425000Y-71206250D01*
X349425000Y-70768750D01*
X349426053Y-70747309D01*
X349429203Y-70726074D01*
X349434419Y-70705250D01*
X349441651Y-70685038D01*
X349450830Y-70665632D01*
X349461866Y-70647219D01*
X349474654Y-70629976D01*
X349489070Y-70614070D01*
X349504976Y-70599654D01*
X349522219Y-70586866D01*
X349540632Y-70575830D01*
X349560038Y-70566651D01*
X349580250Y-70559419D01*
X349601074Y-70554203D01*
X349622309Y-70551053D01*
X349643750Y-70550000D01*
X350156250Y-70550000D01*
X350177691Y-70551053D01*
X350177691Y-70551053D01*
G37*
D11*
X349900000Y-70987500D03*
D10*
G36*
X343352691Y-62326053D02*
G01*
X343373926Y-62329203D01*
X343394750Y-62334419D01*
X343414962Y-62341651D01*
X343434368Y-62350830D01*
X343452781Y-62361866D01*
X343470024Y-62374654D01*
X343485930Y-62389070D01*
X343500346Y-62404976D01*
X343513134Y-62422219D01*
X343524170Y-62440632D01*
X343533349Y-62460038D01*
X343540581Y-62480250D01*
X343545797Y-62501074D01*
X343548947Y-62522309D01*
X343550000Y-62543750D01*
X343550000Y-63056250D01*
X343548947Y-63077691D01*
X343545797Y-63098926D01*
X343540581Y-63119750D01*
X343533349Y-63139962D01*
X343524170Y-63159368D01*
X343513134Y-63177781D01*
X343500346Y-63195024D01*
X343485930Y-63210930D01*
X343470024Y-63225346D01*
X343452781Y-63238134D01*
X343434368Y-63249170D01*
X343414962Y-63258349D01*
X343394750Y-63265581D01*
X343373926Y-63270797D01*
X343352691Y-63273947D01*
X343331250Y-63275000D01*
X342893750Y-63275000D01*
X342872309Y-63273947D01*
X342851074Y-63270797D01*
X342830250Y-63265581D01*
X342810038Y-63258349D01*
X342790632Y-63249170D01*
X342772219Y-63238134D01*
X342754976Y-63225346D01*
X342739070Y-63210930D01*
X342724654Y-63195024D01*
X342711866Y-63177781D01*
X342700830Y-63159368D01*
X342691651Y-63139962D01*
X342684419Y-63119750D01*
X342679203Y-63098926D01*
X342676053Y-63077691D01*
X342675000Y-63056250D01*
X342675000Y-62543750D01*
X342676053Y-62522309D01*
X342679203Y-62501074D01*
X342684419Y-62480250D01*
X342691651Y-62460038D01*
X342700830Y-62440632D01*
X342711866Y-62422219D01*
X342724654Y-62404976D01*
X342739070Y-62389070D01*
X342754976Y-62374654D01*
X342772219Y-62361866D01*
X342790632Y-62350830D01*
X342810038Y-62341651D01*
X342830250Y-62334419D01*
X342851074Y-62329203D01*
X342872309Y-62326053D01*
X342893750Y-62325000D01*
X343331250Y-62325000D01*
X343352691Y-62326053D01*
X343352691Y-62326053D01*
G37*
D11*
X343112500Y-62800000D03*
D10*
G36*
X344927691Y-62326053D02*
G01*
X344948926Y-62329203D01*
X344969750Y-62334419D01*
X344989962Y-62341651D01*
X345009368Y-62350830D01*
X345027781Y-62361866D01*
X345045024Y-62374654D01*
X345060930Y-62389070D01*
X345075346Y-62404976D01*
X345088134Y-62422219D01*
X345099170Y-62440632D01*
X345108349Y-62460038D01*
X345115581Y-62480250D01*
X345120797Y-62501074D01*
X345123947Y-62522309D01*
X345125000Y-62543750D01*
X345125000Y-63056250D01*
X345123947Y-63077691D01*
X345120797Y-63098926D01*
X345115581Y-63119750D01*
X345108349Y-63139962D01*
X345099170Y-63159368D01*
X345088134Y-63177781D01*
X345075346Y-63195024D01*
X345060930Y-63210930D01*
X345045024Y-63225346D01*
X345027781Y-63238134D01*
X345009368Y-63249170D01*
X344989962Y-63258349D01*
X344969750Y-63265581D01*
X344948926Y-63270797D01*
X344927691Y-63273947D01*
X344906250Y-63275000D01*
X344468750Y-63275000D01*
X344447309Y-63273947D01*
X344426074Y-63270797D01*
X344405250Y-63265581D01*
X344385038Y-63258349D01*
X344365632Y-63249170D01*
X344347219Y-63238134D01*
X344329976Y-63225346D01*
X344314070Y-63210930D01*
X344299654Y-63195024D01*
X344286866Y-63177781D01*
X344275830Y-63159368D01*
X344266651Y-63139962D01*
X344259419Y-63119750D01*
X344254203Y-63098926D01*
X344251053Y-63077691D01*
X344250000Y-63056250D01*
X344250000Y-62543750D01*
X344251053Y-62522309D01*
X344254203Y-62501074D01*
X344259419Y-62480250D01*
X344266651Y-62460038D01*
X344275830Y-62440632D01*
X344286866Y-62422219D01*
X344299654Y-62404976D01*
X344314070Y-62389070D01*
X344329976Y-62374654D01*
X344347219Y-62361866D01*
X344365632Y-62350830D01*
X344385038Y-62341651D01*
X344405250Y-62334419D01*
X344426074Y-62329203D01*
X344447309Y-62326053D01*
X344468750Y-62325000D01*
X344906250Y-62325000D01*
X344927691Y-62326053D01*
X344927691Y-62326053D01*
G37*
D11*
X344687500Y-62800000D03*
D12*
X346684237Y-54889594D03*
X345627692Y-57155363D03*
D10*
G36*
X344298766Y-57639053D02*
G01*
X345144002Y-55826437D01*
X346956618Y-56671673D01*
X346111382Y-58484289D01*
X344298766Y-57639053D01*
X344298766Y-57639053D01*
G37*
D12*
X344571146Y-59421133D03*
D10*
G36*
X354318767Y-53998620D02*
G01*
X354416196Y-54010371D01*
X354512004Y-54031616D01*
X354605269Y-54062149D01*
X354670496Y-54089796D01*
X355758065Y-54596938D01*
X355844864Y-54642726D01*
X355926757Y-54696802D01*
X356002955Y-54758643D01*
X356072724Y-54827656D01*
X356135394Y-54903175D01*
X356190359Y-54984473D01*
X356237091Y-55070767D01*
X356275140Y-55161226D01*
X356304139Y-55254979D01*
X356323809Y-55351123D01*
X356333960Y-55448732D01*
X356334495Y-55546866D01*
X356325409Y-55644579D01*
X356306789Y-55740932D01*
X356278814Y-55834996D01*
X356229874Y-55950460D01*
X356229873Y-55950462D01*
X356181732Y-56035977D01*
X356125440Y-56116363D01*
X356061540Y-56190843D01*
X355990648Y-56258702D01*
X355913445Y-56319285D01*
X355830676Y-56372010D01*
X355743138Y-56416367D01*
X355651674Y-56451931D01*
X355557164Y-56478359D01*
X355460519Y-56495396D01*
X355362669Y-56502877D01*
X355264557Y-56500732D01*
X355167128Y-56488981D01*
X355071320Y-56467736D01*
X354978055Y-56437203D01*
X354912828Y-56409556D01*
X353825259Y-55902414D01*
X353738460Y-55856626D01*
X353656567Y-55802550D01*
X353580369Y-55740709D01*
X353510600Y-55671696D01*
X353447930Y-55596177D01*
X353392965Y-55514879D01*
X353346233Y-55428585D01*
X353308184Y-55338126D01*
X353279185Y-55244373D01*
X353259515Y-55148229D01*
X353249364Y-55050620D01*
X353248829Y-54952486D01*
X353257915Y-54854773D01*
X353276535Y-54758420D01*
X353304510Y-54664356D01*
X353353450Y-54548892D01*
X353353451Y-54548890D01*
X353401592Y-54463375D01*
X353457884Y-54382989D01*
X353521784Y-54308509D01*
X353592676Y-54240650D01*
X353669879Y-54180067D01*
X353752648Y-54127342D01*
X353840186Y-54082985D01*
X353931650Y-54047421D01*
X354026160Y-54020993D01*
X354122805Y-54003956D01*
X354220655Y-53996475D01*
X354318767Y-53998620D01*
X354318767Y-53998620D01*
G37*
D12*
X354791662Y-55249676D03*
D10*
G36*
X349585443Y-64149268D02*
G01*
X349682872Y-64161019D01*
X349778680Y-64182264D01*
X349871945Y-64212797D01*
X349937172Y-64240444D01*
X351024741Y-64747586D01*
X351111540Y-64793374D01*
X351193433Y-64847450D01*
X351269631Y-64909291D01*
X351339400Y-64978304D01*
X351402070Y-65053823D01*
X351457035Y-65135121D01*
X351503767Y-65221415D01*
X351541816Y-65311874D01*
X351570815Y-65405627D01*
X351590485Y-65501771D01*
X351600636Y-65599380D01*
X351601171Y-65697514D01*
X351592085Y-65795227D01*
X351573465Y-65891580D01*
X351545490Y-65985644D01*
X351496550Y-66101108D01*
X351496549Y-66101110D01*
X351448408Y-66186625D01*
X351392116Y-66267011D01*
X351328216Y-66341491D01*
X351257324Y-66409350D01*
X351180121Y-66469933D01*
X351097352Y-66522658D01*
X351009814Y-66567015D01*
X350918350Y-66602579D01*
X350823840Y-66629007D01*
X350727195Y-66646044D01*
X350629345Y-66653525D01*
X350531233Y-66651380D01*
X350433804Y-66639629D01*
X350337996Y-66618384D01*
X350244731Y-66587851D01*
X350179504Y-66560204D01*
X349091935Y-66053062D01*
X349005136Y-66007274D01*
X348923243Y-65953198D01*
X348847045Y-65891357D01*
X348777276Y-65822344D01*
X348714606Y-65746825D01*
X348659641Y-65665527D01*
X348612909Y-65579233D01*
X348574860Y-65488774D01*
X348545861Y-65395021D01*
X348526191Y-65298877D01*
X348516040Y-65201268D01*
X348515505Y-65103134D01*
X348524591Y-65005421D01*
X348543211Y-64909068D01*
X348571186Y-64815004D01*
X348620126Y-64699540D01*
X348620127Y-64699538D01*
X348668268Y-64614023D01*
X348724560Y-64533637D01*
X348788460Y-64459157D01*
X348859352Y-64391298D01*
X348936555Y-64330715D01*
X349019324Y-64277990D01*
X349106862Y-64233633D01*
X349198326Y-64198069D01*
X349292836Y-64171641D01*
X349389481Y-64154604D01*
X349487331Y-64147123D01*
X349585443Y-64149268D01*
X349585443Y-64149268D01*
G37*
D12*
X350058338Y-65400324D03*
X359825700Y-61017558D03*
X357712609Y-65549097D03*
D21*
X1500000Y-13350000D03*
X1500000Y-16650000D03*
X31775000Y-13350000D03*
X31775000Y-16650000D03*
X61175000Y-13350000D03*
X61175000Y-16650000D03*
X80225000Y-13350000D03*
X80225000Y-16650000D03*
X99275000Y-13350000D03*
X99275000Y-16650000D03*
X120000000Y-13350000D03*
X120000000Y-16650000D03*
X146400000Y-13350000D03*
X146400000Y-16650000D03*
X165450000Y-13350000D03*
X165450000Y-16650000D03*
X184500000Y-13350000D03*
X184500000Y-16650000D03*
X206000000Y-13350000D03*
X206000000Y-16650000D03*
X232375000Y-13350000D03*
X232375000Y-16650000D03*
X251425000Y-13350000D03*
X251425000Y-16650000D03*
X270475000Y-13350000D03*
X270475000Y-16650000D03*
X285775000Y-13350000D03*
X285775000Y-16650000D03*
X311175000Y-13350000D03*
X311175000Y-16650000D03*
X330225000Y-13350000D03*
X330225000Y-16650000D03*
X349275000Y-13350000D03*
X349275000Y-16650000D03*
X18000000Y-38750000D03*
X18000000Y-42050000D03*
X31775000Y-38750000D03*
X31775000Y-42050000D03*
X50825000Y-38750000D03*
X50825000Y-42050000D03*
X69875000Y-38750000D03*
X69875000Y-42050000D03*
X88925000Y-38750000D03*
X88925000Y-42050000D03*
X107975000Y-38750000D03*
X107975000Y-42050000D03*
X127025000Y-38750000D03*
X127025000Y-42050000D03*
X146075000Y-38750000D03*
X146075000Y-42050000D03*
X165125000Y-38750000D03*
X165125000Y-42050000D03*
X184175000Y-38750000D03*
X184175000Y-42050000D03*
X203225000Y-38750000D03*
X203225000Y-42050000D03*
X222275000Y-38750000D03*
X222275000Y-42050000D03*
X241325000Y-38750000D03*
X241325000Y-42050000D03*
X260375000Y-38750000D03*
X260375000Y-42050000D03*
X288950000Y-38750000D03*
X288950000Y-42050000D03*
X330225000Y-32400000D03*
X330225000Y-35700000D03*
X349275000Y-32400000D03*
X349275000Y-35700000D03*
X18000000Y-57800000D03*
X18000000Y-61100000D03*
X36537500Y-57800000D03*
X36537500Y-61100000D03*
X60350000Y-57800000D03*
X60350000Y-61100000D03*
X79400000Y-57800000D03*
X79400000Y-61100000D03*
X98450000Y-57800000D03*
X98450000Y-61100000D03*
X117500000Y-57800000D03*
X117500000Y-61100000D03*
X136550000Y-57800000D03*
X136550000Y-61100000D03*
X155600000Y-57800000D03*
X155600000Y-61100000D03*
X174650000Y-57800000D03*
X174650000Y-61100000D03*
X193700000Y-57800000D03*
X193700000Y-61100000D03*
X212750000Y-57800000D03*
X212750000Y-61100000D03*
X231800000Y-57800000D03*
X231800000Y-61100000D03*
X250850000Y-57800000D03*
X250850000Y-61100000D03*
X269900000Y-57800000D03*
X269900000Y-61100000D03*
X293712500Y-57800000D03*
X293712500Y-61100000D03*
X310000000Y-38750000D03*
X310000000Y-42050000D03*
D22*
X345550000Y-46300000D03*
X342250000Y-46300000D03*
D21*
X18000000Y-76850000D03*
X18000000Y-80150000D03*
X45500000Y-76850000D03*
X45500000Y-80150000D03*
X65112500Y-76850000D03*
X65112500Y-80150000D03*
X84162500Y-76850000D03*
X84162500Y-80150000D03*
X103212500Y-76850000D03*
X103212500Y-80150000D03*
X122262500Y-76850000D03*
X122262500Y-80150000D03*
X141312500Y-76850000D03*
X141312500Y-80150000D03*
X160362500Y-76850000D03*
X160362500Y-80150000D03*
X179412500Y-76850000D03*
X179412500Y-80150000D03*
X198462500Y-76850000D03*
X198462500Y-80150000D03*
X217512500Y-76850000D03*
X217512500Y-80150000D03*
X236562500Y-76850000D03*
X236562500Y-80150000D03*
X255612500Y-76850000D03*
X255612500Y-80150000D03*
X274662500Y-76850000D03*
X274662500Y-80150000D03*
X286568750Y-76850000D03*
X286568750Y-80150000D03*
D22*
X322150000Y-60350000D03*
X318850000Y-60350000D03*
X347150000Y-78000000D03*
X343850000Y-78000000D03*
D21*
X18000000Y-95900000D03*
X18000000Y-99200000D03*
X44500000Y-95900000D03*
X44500000Y-99200000D03*
X55587500Y-95900000D03*
X55587500Y-99200000D03*
X74637500Y-95900000D03*
X74637500Y-99200000D03*
X93687500Y-95900000D03*
X93687500Y-99200000D03*
X112737500Y-95900000D03*
X112737500Y-99200000D03*
X131787500Y-95900000D03*
X131787500Y-99200000D03*
X150837500Y-95900000D03*
X150837500Y-99200000D03*
X169887500Y-95900000D03*
X169887500Y-99200000D03*
X188937500Y-95900000D03*
X188937500Y-99200000D03*
X207987500Y-95900000D03*
X207987500Y-99200000D03*
X227037500Y-95900000D03*
X227037500Y-99200000D03*
X246087500Y-95900000D03*
X246087500Y-99200000D03*
X268000000Y-95900000D03*
X268000000Y-99200000D03*
X293000000Y-95900000D03*
X293000000Y-99200000D03*
X323875000Y-102250000D03*
X323875000Y-105550000D03*
X18000000Y-114950000D03*
X18000000Y-118250000D03*
X30000000Y-114950000D03*
X30000000Y-118250000D03*
X54000000Y-114950000D03*
X54000000Y-118250000D03*
X77500000Y-114950000D03*
X77500000Y-118250000D03*
D22*
X146150000Y-113500000D03*
X142850000Y-113500000D03*
D21*
X229037500Y-114950000D03*
X229037500Y-118250000D03*
X250850000Y-114950000D03*
X250850000Y-118250000D03*
X274662500Y-114950000D03*
X274662500Y-118250000D03*
X304825000Y-120800000D03*
X304825000Y-124100000D03*
X323875000Y-120800000D03*
X323875000Y-124100000D03*
X339500000Y-120800000D03*
X339500000Y-124100000D03*
D23*
X318950000Y-31500000D03*
D24*
X315700000Y-32500000D03*
X315700000Y-30500000D03*
D10*
G36*
X315977691Y-34776053D02*
G01*
X315998926Y-34779203D01*
X316019750Y-34784419D01*
X316039962Y-34791651D01*
X316059368Y-34800830D01*
X316077781Y-34811866D01*
X316095024Y-34824654D01*
X316110930Y-34839070D01*
X316125346Y-34854976D01*
X316138134Y-34872219D01*
X316149170Y-34890632D01*
X316158349Y-34910038D01*
X316165581Y-34930250D01*
X316170797Y-34951074D01*
X316173947Y-34972309D01*
X316175000Y-34993750D01*
X316175000Y-35431250D01*
X316173947Y-35452691D01*
X316170797Y-35473926D01*
X316165581Y-35494750D01*
X316158349Y-35514962D01*
X316149170Y-35534368D01*
X316138134Y-35552781D01*
X316125346Y-35570024D01*
X316110930Y-35585930D01*
X316095024Y-35600346D01*
X316077781Y-35613134D01*
X316059368Y-35624170D01*
X316039962Y-35633349D01*
X316019750Y-35640581D01*
X315998926Y-35645797D01*
X315977691Y-35648947D01*
X315956250Y-35650000D01*
X315443750Y-35650000D01*
X315422309Y-35648947D01*
X315401074Y-35645797D01*
X315380250Y-35640581D01*
X315360038Y-35633349D01*
X315340632Y-35624170D01*
X315322219Y-35613134D01*
X315304976Y-35600346D01*
X315289070Y-35585930D01*
X315274654Y-35570024D01*
X315261866Y-35552781D01*
X315250830Y-35534368D01*
X315241651Y-35514962D01*
X315234419Y-35494750D01*
X315229203Y-35473926D01*
X315226053Y-35452691D01*
X315225000Y-35431250D01*
X315225000Y-34993750D01*
X315226053Y-34972309D01*
X315229203Y-34951074D01*
X315234419Y-34930250D01*
X315241651Y-34910038D01*
X315250830Y-34890632D01*
X315261866Y-34872219D01*
X315274654Y-34854976D01*
X315289070Y-34839070D01*
X315304976Y-34824654D01*
X315322219Y-34811866D01*
X315340632Y-34800830D01*
X315360038Y-34791651D01*
X315380250Y-34784419D01*
X315401074Y-34779203D01*
X315422309Y-34776053D01*
X315443750Y-34775000D01*
X315956250Y-34775000D01*
X315977691Y-34776053D01*
X315977691Y-34776053D01*
G37*
D11*
X315700000Y-35212500D03*
D10*
G36*
X315977691Y-36351053D02*
G01*
X315998926Y-36354203D01*
X316019750Y-36359419D01*
X316039962Y-36366651D01*
X316059368Y-36375830D01*
X316077781Y-36386866D01*
X316095024Y-36399654D01*
X316110930Y-36414070D01*
X316125346Y-36429976D01*
X316138134Y-36447219D01*
X316149170Y-36465632D01*
X316158349Y-36485038D01*
X316165581Y-36505250D01*
X316170797Y-36526074D01*
X316173947Y-36547309D01*
X316175000Y-36568750D01*
X316175000Y-37006250D01*
X316173947Y-37027691D01*
X316170797Y-37048926D01*
X316165581Y-37069750D01*
X316158349Y-37089962D01*
X316149170Y-37109368D01*
X316138134Y-37127781D01*
X316125346Y-37145024D01*
X316110930Y-37160930D01*
X316095024Y-37175346D01*
X316077781Y-37188134D01*
X316059368Y-37199170D01*
X316039962Y-37208349D01*
X316019750Y-37215581D01*
X315998926Y-37220797D01*
X315977691Y-37223947D01*
X315956250Y-37225000D01*
X315443750Y-37225000D01*
X315422309Y-37223947D01*
X315401074Y-37220797D01*
X315380250Y-37215581D01*
X315360038Y-37208349D01*
X315340632Y-37199170D01*
X315322219Y-37188134D01*
X315304976Y-37175346D01*
X315289070Y-37160930D01*
X315274654Y-37145024D01*
X315261866Y-37127781D01*
X315250830Y-37109368D01*
X315241651Y-37089962D01*
X315234419Y-37069750D01*
X315229203Y-37048926D01*
X315226053Y-37027691D01*
X315225000Y-37006250D01*
X315225000Y-36568750D01*
X315226053Y-36547309D01*
X315229203Y-36526074D01*
X315234419Y-36505250D01*
X315241651Y-36485038D01*
X315250830Y-36465632D01*
X315261866Y-36447219D01*
X315274654Y-36429976D01*
X315289070Y-36414070D01*
X315304976Y-36399654D01*
X315322219Y-36386866D01*
X315340632Y-36375830D01*
X315360038Y-36366651D01*
X315380250Y-36359419D01*
X315401074Y-36354203D01*
X315422309Y-36351053D01*
X315443750Y-36350000D01*
X315956250Y-36350000D01*
X315977691Y-36351053D01*
X315977691Y-36351053D01*
G37*
D11*
X315700000Y-36787500D03*
D25*
X316865000Y-4445000D03*
X310515000Y-6985000D03*
X348615000Y-6985000D03*
X354965000Y-4445000D03*
X335915000Y-4445000D03*
X329565000Y-6985000D03*
X148590000Y-4445000D03*
X142240000Y-6985000D03*
X100965000Y-4445000D03*
X94615000Y-6985000D03*
X253365000Y-4445000D03*
X247015000Y-6985000D03*
X272415000Y-4445000D03*
X266065000Y-6985000D03*
X186690000Y-4445000D03*
X180340000Y-6985000D03*
X227965000Y-6985000D03*
X234315000Y-4445000D03*
X62865000Y-4445000D03*
X56515000Y-6985000D03*
X199390000Y-6985000D03*
X205740000Y-4445000D03*
X81915000Y-4445000D03*
X75565000Y-6985000D03*
X161290000Y-6985000D03*
X167640000Y-4445000D03*
X37465000Y-4445000D03*
X31115000Y-6985000D03*
X113665000Y-6985000D03*
X120015000Y-4445000D03*
X12065000Y-4445000D03*
X5715000Y-6985000D03*
X285115000Y-6985000D03*
X291465000Y-4445000D03*
X208915000Y-29845000D03*
X202565000Y-32385000D03*
X56515000Y-29845000D03*
X50165000Y-32385000D03*
X259715000Y-32385000D03*
X266065000Y-29845000D03*
X227965000Y-29845000D03*
X221615000Y-32385000D03*
X107315000Y-32385000D03*
X113665000Y-29845000D03*
X189865000Y-29845000D03*
X183515000Y-32385000D03*
X37465000Y-29845000D03*
X31115000Y-32385000D03*
X69215000Y-32385000D03*
X75565000Y-29845000D03*
X151765000Y-29845000D03*
X145415000Y-32385000D03*
X329565000Y-26035000D03*
X335915000Y-23495000D03*
X12065000Y-29845000D03*
X5715000Y-32385000D03*
X348615000Y-26035000D03*
X354965000Y-23495000D03*
X132715000Y-29845000D03*
X126365000Y-32385000D03*
X88265000Y-32385000D03*
X94615000Y-29845000D03*
X288290000Y-32385000D03*
X294640000Y-29845000D03*
X247015000Y-29845000D03*
X240665000Y-32385000D03*
X164465000Y-32385000D03*
X170815000Y-29845000D03*
X297815000Y-32385000D03*
X304165000Y-29845000D03*
X78740000Y-51435000D03*
X85090000Y-48895000D03*
X231140000Y-51435000D03*
X237490000Y-48895000D03*
X35877500Y-51435000D03*
X42227500Y-48895000D03*
X299402500Y-48895000D03*
X293052500Y-51435000D03*
X193040000Y-51435000D03*
X199390000Y-48895000D03*
X173990000Y-51435000D03*
X180340000Y-48895000D03*
X212090000Y-51435000D03*
X218440000Y-48895000D03*
X275590000Y-48895000D03*
X269240000Y-51435000D03*
X135890000Y-51435000D03*
X142240000Y-48895000D03*
X154940000Y-51435000D03*
X161290000Y-48895000D03*
X250190000Y-51435000D03*
X256540000Y-48895000D03*
X123190000Y-48895000D03*
X116840000Y-51435000D03*
X5715000Y-51435000D03*
X12065000Y-48895000D03*
X104140000Y-48895000D03*
X97790000Y-51435000D03*
X348615000Y-51435000D03*
X354965000Y-48895000D03*
X66040000Y-48895000D03*
X59690000Y-51435000D03*
X108902500Y-67945000D03*
X102552500Y-70485000D03*
X140652500Y-70485000D03*
X147002500Y-67945000D03*
X166052500Y-67945000D03*
X159702500Y-70485000D03*
X5715000Y-70485000D03*
X12065000Y-67945000D03*
X127952500Y-67945000D03*
X121602500Y-70485000D03*
X280352500Y-67945000D03*
X274002500Y-70485000D03*
X254952500Y-70485000D03*
X261302500Y-67945000D03*
X185102500Y-67945000D03*
X178752500Y-70485000D03*
X235902500Y-70485000D03*
X242252500Y-67945000D03*
X38258750Y-70485000D03*
X44608750Y-67945000D03*
X70802500Y-67945000D03*
X64452500Y-70485000D03*
X223202500Y-67945000D03*
X216852500Y-70485000D03*
X357505000Y-85090000D03*
X354965000Y-78740000D03*
X89852500Y-67945000D03*
X83502500Y-70485000D03*
X292258750Y-67945000D03*
X285908750Y-70485000D03*
X329565000Y-59690000D03*
X332105000Y-66040000D03*
X204152500Y-67945000D03*
X197802500Y-70485000D03*
X169227500Y-89535000D03*
X175577500Y-86995000D03*
X323215000Y-95885000D03*
X329565000Y-93345000D03*
X73977500Y-89535000D03*
X80327500Y-86995000D03*
X156527500Y-86995000D03*
X150177500Y-89535000D03*
X43021250Y-89535000D03*
X49371250Y-86995000D03*
X137477500Y-86995000D03*
X131127500Y-89535000D03*
X99377500Y-86995000D03*
X93027500Y-89535000D03*
X5715000Y-89535000D03*
X12065000Y-86995000D03*
X251777500Y-86995000D03*
X245427500Y-89535000D03*
X112077500Y-89535000D03*
X118427500Y-86995000D03*
X188277500Y-89535000D03*
X194627500Y-86995000D03*
X304165000Y-86995000D03*
X297815000Y-89535000D03*
X54927500Y-89535000D03*
X61277500Y-86995000D03*
X232727500Y-86995000D03*
X226377500Y-89535000D03*
X207327500Y-89535000D03*
X213677500Y-86995000D03*
X277971250Y-86995000D03*
X271621250Y-89535000D03*
X304165000Y-114935000D03*
X310515000Y-112395000D03*
X161290000Y-106045000D03*
X154940000Y-108585000D03*
X348615000Y-112395000D03*
X342265000Y-114935000D03*
X323215000Y-114935000D03*
X329565000Y-112395000D03*
X89852500Y-106045000D03*
X83502500Y-108585000D03*
X256540000Y-106045000D03*
X250190000Y-108585000D03*
X226377500Y-108585000D03*
X232727500Y-106045000D03*
X280352500Y-106045000D03*
X274002500Y-108585000D03*
X35877500Y-108585000D03*
X42227500Y-106045000D03*
X59690000Y-108585000D03*
X66040000Y-106045000D03*
X5715000Y-108585000D03*
X12065000Y-106045000D03*
X227965000Y-4445000D03*
X221615000Y-6985000D03*
X247015000Y-4445000D03*
X240665000Y-6985000D03*
X259715000Y-6985000D03*
X266065000Y-4445000D03*
X56515000Y-4445000D03*
X50165000Y-6985000D03*
X75565000Y-4445000D03*
X69215000Y-6985000D03*
X88265000Y-6985000D03*
X94615000Y-4445000D03*
X116840000Y-6985000D03*
X123190000Y-4445000D03*
X142240000Y-4445000D03*
X135890000Y-6985000D03*
X154940000Y-6985000D03*
X161290000Y-4445000D03*
X173990000Y-6985000D03*
X180340000Y-4445000D03*
X202565000Y-6985000D03*
X208915000Y-4445000D03*
X278765000Y-32385000D03*
X285115000Y-29845000D03*
X39846250Y-67945000D03*
X33496250Y-70485000D03*
X304323750Y-66040000D03*
X301783750Y-59690000D03*
X338455000Y-66040000D03*
X335915000Y-59690000D03*
X354965000Y-86995000D03*
X348615000Y-89535000D03*
X39846250Y-86995000D03*
X33496250Y-89535000D03*
X287496250Y-86995000D03*
X281146250Y-89535000D03*
X304165000Y-95885000D03*
X310515000Y-93345000D03*
X335915000Y-86995000D03*
X329565000Y-89535000D03*
X5715000Y-114935000D03*
X12065000Y-112395000D03*
X39846250Y-106045000D03*
X33496250Y-108585000D03*
X261302500Y-106045000D03*
X254952500Y-108585000D03*
X245427500Y-108585000D03*
X251777500Y-106045000D03*
X291465000Y-112395000D03*
X285115000Y-114935000D03*
X357505000Y-110490000D03*
X354965000Y-104140000D03*
X57308750Y-108585000D03*
X63658750Y-106045000D03*
X70802500Y-106045000D03*
X64452500Y-108585000D03*
X81121250Y-108585000D03*
X87471250Y-106045000D03*
X158908750Y-106045000D03*
X152558750Y-108585000D03*
X164465000Y-108585000D03*
X170815000Y-106045000D03*
X151765000Y-106045000D03*
X145415000Y-108585000D03*
X5715000Y-38735000D03*
X12065000Y-36195000D03*
X12065000Y-55245000D03*
X5715000Y-57785000D03*
X5715000Y-76835000D03*
X12065000Y-74295000D03*
X12065000Y-93345000D03*
X5715000Y-95885000D03*
D13*
X114700000Y-118000000D03*
X116455347Y-121805861D03*
X353300000Y-72600000D03*
X344100000Y-34300000D03*
X27500000Y-22200000D03*
X22312810Y-22162810D03*
X117331215Y-106641766D03*
X120237258Y-110500000D03*
X315700000Y-28900000D03*
X323057201Y-18757201D03*
X3300000Y-19300000D03*
X7800000Y-19300000D03*
D17*
X118134314Y-116734314D03*
X121100000Y-119500000D03*
D26*
X23200000Y-26800000D03*
X20000000Y-26800000D03*
D17*
X126300000Y-122500000D03*
X132700000Y-117400000D03*
X129100000Y-104700000D03*
X114700000Y-108200000D03*
D26*
X129000000Y-17900000D03*
X125900000Y-100000000D03*
X29600000Y-16500000D03*
X3000000Y-16600000D03*
X124800000Y-100000000D03*
X127100000Y-44100000D03*
X19500000Y-42000000D03*
X27200000Y-42000000D03*
X130500000Y-101300000D03*
X136500000Y-63400000D03*
X19400000Y-61100000D03*
X32000000Y-60900000D03*
X307400000Y-32400000D03*
X308500000Y-38800000D03*
X130800000Y-100200000D03*
X141300000Y-81700000D03*
X19300000Y-80100000D03*
X29600000Y-80100000D03*
X19400000Y-99200000D03*
X29600000Y-99200000D03*
X19400000Y-118200000D03*
X28500000Y-118100000D03*
X134300000Y-102169800D03*
X142300000Y-111000000D03*
X132800000Y-110200000D03*
X79300000Y-118200000D03*
X24700000Y-29100000D03*
X14579000Y-26400000D03*
X7500000Y-25500000D03*
D17*
X318900000Y-29700000D03*
D26*
X299200000Y-123700000D03*
X175500000Y-99930200D03*
X28200000Y-122000000D03*
X114100000Y-99930200D03*
X301800000Y-124398190D03*
X194700000Y-100000000D03*
X243583262Y-122569350D03*
X122600000Y-100000000D03*
X244500000Y-123000000D03*
X135200000Y-103900000D03*
X123700000Y-100000000D03*
X135800000Y-102900000D03*
X245400000Y-123483770D03*
X116500000Y-116401600D03*
X124300000Y-123700000D03*
X336600000Y-124830200D03*
X348000000Y-75800000D03*
X329500000Y-124830200D03*
X116900000Y-115200000D03*
X123590629Y-124413843D03*
X337700000Y-125000000D03*
X341900000Y-64300000D03*
X26200000Y-122800000D03*
X27200000Y-122400000D03*
X315700000Y-38100000D03*
X315700000Y-106600000D03*
D27*
X116700000Y-122050514D02*
X113463324Y-125287190D01*
X113463324Y-125287190D02*
X25236676Y-125287190D01*
X25236676Y-125287190D02*
X22312810Y-122363324D01*
X20875000Y-20725000D02*
X20000000Y-20725000D01*
X22312810Y-22162810D02*
X20875000Y-20725000D01*
X22312810Y-122363324D02*
X22312810Y-22162810D01*
X116700000Y-120431371D02*
X116700000Y-122050514D01*
X120535177Y-116596194D02*
X116700000Y-120431371D01*
X115636820Y-122050514D02*
X114643153Y-121056847D01*
X116700000Y-122050514D02*
X115636820Y-122050514D01*
X115712500Y-117500000D02*
X115200000Y-117500000D01*
X115200000Y-117500000D02*
X114700000Y-118000000D01*
X20000000Y-20725000D02*
X16250000Y-20725000D01*
X128031364Y-120556847D02*
X129556847Y-120556847D01*
X125767767Y-118293250D02*
X128031364Y-120556847D01*
X128056847Y-120582330D02*
X128056847Y-122056847D01*
X128031364Y-120556847D02*
X128056847Y-120582330D01*
X127699993Y-102643153D02*
X129256847Y-102643153D01*
X125202082Y-105141064D02*
X127699993Y-102643153D01*
X131943153Y-115417670D02*
X131943153Y-116156847D01*
X130293250Y-113767767D02*
X131943153Y-115417670D01*
X118386306Y-101482323D02*
X116912132Y-102956497D01*
X118386306Y-101386306D02*
X118386306Y-101482323D01*
X351712500Y-72600000D02*
X351700000Y-72587500D01*
X353300000Y-72600000D02*
X351712500Y-72600000D01*
X342000000Y-59412500D02*
X340100000Y-61312500D01*
X340100000Y-61312500D02*
X340100000Y-64300000D01*
X343050000Y-67250000D02*
X345929809Y-67250000D01*
X340100000Y-64300000D02*
X343050000Y-67250000D01*
X344257137Y-57155363D02*
X342000000Y-59412500D01*
X345627692Y-57155363D02*
X344257137Y-57155363D01*
X130293250Y-113767767D02*
X129025483Y-112500000D01*
X129025483Y-112500000D02*
X129025483Y-112025483D01*
X129025483Y-112025483D02*
X129050966Y-112000000D01*
X129050966Y-112000000D02*
X131500000Y-112000000D01*
X125767767Y-118293250D02*
X124374517Y-116900000D01*
X124374517Y-116900000D02*
X123900000Y-116900000D01*
X123900000Y-116900000D02*
X124000000Y-117000000D01*
X124000000Y-117000000D02*
X124000000Y-119900000D01*
X120535177Y-116596194D02*
X122200000Y-114931371D01*
X122200000Y-114931371D02*
X122200000Y-114600000D01*
X119579912Y-111979912D02*
X116120088Y-111979912D01*
X122200000Y-114600000D02*
X119579912Y-111979912D01*
X118838120Y-109100862D02*
X120237258Y-110500000D01*
X116487868Y-105643503D02*
X116487868Y-105798419D01*
X116487868Y-105798419D02*
X117331215Y-106641766D01*
X112443153Y-107056847D02*
X115130651Y-107056847D01*
X118237080Y-108499822D02*
X118838120Y-109100862D01*
X118052632Y-108315374D02*
X118237080Y-108499822D01*
X116389178Y-108315374D02*
X118052632Y-108315374D01*
X115130651Y-107056847D02*
X116389178Y-108315374D01*
X112143153Y-107356847D02*
X112143153Y-110456847D01*
X112443153Y-107056847D02*
X112143153Y-107356847D01*
X112443153Y-107056847D02*
X112443153Y-105556847D01*
X115043503Y-102956497D02*
X116912132Y-102956497D01*
X112443153Y-105556847D02*
X115043503Y-102956497D01*
X344100000Y-26800000D02*
X344100000Y-34300000D01*
X336057201Y-18757201D02*
X344100000Y-26800000D01*
X27500000Y-22200000D02*
X30942799Y-18757201D01*
X315700000Y-30500000D02*
X315700000Y-28900000D01*
X30942799Y-18757201D02*
X323057201Y-18757201D01*
X323057201Y-18757201D02*
X336057201Y-18757201D01*
X13275000Y-14765491D02*
X13275000Y-16020191D01*
X13275000Y-14400000D02*
X13275000Y-14765491D01*
X16275000Y-11400000D02*
X13275000Y-14400000D01*
X16812500Y-11400000D02*
X16275000Y-11400000D01*
X12654809Y-15400000D02*
X13275000Y-16020191D01*
X8987500Y-15400000D02*
X12654809Y-15400000D01*
X15650000Y-20475000D02*
X16000000Y-20475000D01*
X13275000Y-18100000D02*
X15650000Y-20475000D01*
X13275000Y-16020191D02*
X13275000Y-18100000D01*
X10150000Y-20475000D02*
X9800000Y-20475000D01*
X12525000Y-18100000D02*
X10150000Y-20475000D01*
X13275000Y-18100000D02*
X12525000Y-18100000D01*
X2365000Y-20955000D02*
X2365000Y-20235000D01*
X2365000Y-20235000D02*
X3300000Y-19300000D01*
X8625000Y-19300000D02*
X9800000Y-20475000D01*
X7800000Y-19300000D02*
X8625000Y-19300000D01*
D28*
X117287500Y-117500000D02*
X117368629Y-117500000D01*
X118134314Y-116734314D02*
X119403806Y-115464823D01*
X117368629Y-117500000D02*
X118134314Y-116734314D01*
X121100000Y-119425483D02*
X122232233Y-118293250D01*
X121100000Y-119500000D02*
X121100000Y-119425483D01*
X20000000Y-26800000D02*
X20000000Y-23725000D01*
X115400000Y-118800000D02*
X115987500Y-118800000D01*
X113500000Y-120700000D02*
X115400000Y-118800000D01*
X115987500Y-118800000D02*
X117287500Y-117500000D01*
X23200000Y-26800000D02*
X22960520Y-27039480D01*
X22960520Y-27039480D02*
X22960520Y-122095034D01*
X22960520Y-122095034D02*
X25504966Y-124639480D01*
X25504966Y-124639480D02*
X111760520Y-124639480D01*
X111760520Y-124639480D02*
X113500000Y-122900000D01*
X113500000Y-122900000D02*
X113500000Y-120700000D01*
X126943153Y-120600007D02*
X125202082Y-118858936D01*
X126943153Y-120943153D02*
X126943153Y-120600007D01*
X132700007Y-115043153D02*
X130858936Y-113202082D01*
X133056847Y-115043153D02*
X132700007Y-115043153D01*
X127717670Y-103756847D02*
X128143153Y-103756847D01*
X125767767Y-105706750D02*
X127717670Y-103756847D01*
X126943153Y-120943153D02*
X126943153Y-121856847D01*
X126943153Y-121856847D02*
X126300000Y-122500000D01*
X133022550Y-117077450D02*
X132700000Y-117400000D01*
X133022550Y-115729464D02*
X133022550Y-117077450D01*
X133056847Y-115043153D02*
X133056847Y-115695167D01*
X133056847Y-115695167D02*
X133022550Y-115729464D01*
X128143153Y-103756847D02*
X128156847Y-103756847D01*
X128156847Y-103756847D02*
X129100000Y-104700000D01*
X113636916Y-108963084D02*
X113256847Y-109343153D01*
X118272435Y-109666548D02*
X117568971Y-108963084D01*
X115463084Y-108963084D02*
X114700000Y-108200000D01*
X116136916Y-108963084D02*
X115463084Y-108963084D01*
X116136916Y-108963084D02*
X113636916Y-108963084D01*
X117568971Y-108963084D02*
X116136916Y-108963084D01*
X19434315Y-26800000D02*
X18934315Y-27300000D01*
X20000000Y-26800000D02*
X19434315Y-26800000D01*
X18934315Y-27300000D02*
X6600000Y-27300000D01*
X5462894Y-27300000D02*
X6600000Y-27300000D01*
X2365000Y-24202106D02*
X5462894Y-27300000D01*
X2365000Y-23495000D02*
X2365000Y-24202106D01*
X5462894Y-24749606D02*
X7500000Y-22712500D01*
X5462894Y-27300000D02*
X5462894Y-24749606D01*
D29*
X116136916Y-119563084D02*
X115756847Y-119943153D01*
X116534242Y-119563084D02*
X116136916Y-119563084D01*
X119368451Y-116728875D02*
X116534242Y-119563084D01*
X119368451Y-116631549D02*
X119368451Y-116728875D01*
X119969491Y-116030509D02*
X119368451Y-116631549D01*
X118506581Y-107637952D02*
X116537952Y-107637952D01*
X119403806Y-108535177D02*
X118506581Y-107637952D01*
X114790812Y-105077817D02*
X115356497Y-104512132D01*
X114790812Y-105890812D02*
X114790812Y-105077817D01*
X114843153Y-105943153D02*
X113556847Y-105943153D01*
X115000000Y-106100000D02*
X114843153Y-105943153D01*
X115000000Y-106100000D02*
X114790812Y-105890812D01*
X116537952Y-107637952D02*
X115000000Y-106100000D01*
X118043503Y-106043503D02*
X119969491Y-107969491D01*
X118043503Y-104087868D02*
X118043503Y-106043503D01*
X118043503Y-103956497D02*
X119500000Y-102500000D01*
X118043503Y-104087868D02*
X118043503Y-103956497D01*
X128049040Y-119443153D02*
X128443153Y-119443153D01*
X126333452Y-117727565D02*
X128049040Y-119443153D01*
X4859935Y-6129935D02*
X5715000Y-6985000D01*
X4859935Y-5712821D02*
X4859935Y-6129935D01*
X3859936Y-4712822D02*
X4859935Y-5712821D01*
X4124010Y-6985000D02*
X5715000Y-6985000D01*
X1500000Y-9609010D02*
X4124010Y-6985000D01*
X1500000Y-13350000D02*
X1500000Y-9609010D01*
X31775000Y-16650000D02*
X349275000Y-16650000D01*
X122797918Y-105141064D02*
X122797918Y-104260006D01*
X122797918Y-104260006D02*
X124014420Y-103043504D01*
X124014420Y-101885580D02*
X124600000Y-101300000D01*
X127750000Y-16650000D02*
X129000000Y-17900000D01*
X120000000Y-16650000D02*
X127750000Y-16650000D01*
X124014420Y-101885580D02*
X125900000Y-100000000D01*
X124014420Y-102814420D02*
X124014420Y-101885580D01*
X124014420Y-103043504D02*
X124014420Y-102814420D01*
X31625000Y-16500000D02*
X31775000Y-16650000D01*
X29600000Y-16500000D02*
X31625000Y-16500000D01*
X1500000Y-16650000D02*
X2950000Y-16650000D01*
X2950000Y-16650000D02*
X3000000Y-16600000D01*
X31775000Y-7645000D02*
X31115000Y-6985000D01*
X31775000Y-13350000D02*
X31775000Y-7645000D01*
X60321000Y-13350000D02*
X61175000Y-13350000D01*
X56515000Y-9544000D02*
X60321000Y-13350000D01*
X56515000Y-4445000D02*
X56515000Y-9544000D01*
X79371000Y-13350000D02*
X80225000Y-13350000D01*
X75565000Y-9544000D02*
X79371000Y-13350000D01*
X75565000Y-4445000D02*
X75565000Y-9544000D01*
X98421000Y-13350000D02*
X99275000Y-13350000D01*
X94615000Y-9544000D02*
X98421000Y-13350000D01*
X94615000Y-4445000D02*
X94615000Y-9544000D01*
X115249010Y-6985000D02*
X113665000Y-6985000D01*
X116840000Y-6985000D02*
X115249010Y-6985000D01*
X119146000Y-13350000D02*
X120000000Y-13350000D01*
X117611302Y-13350000D02*
X119146000Y-13350000D01*
X113665000Y-9403698D02*
X117611302Y-13350000D01*
X113665000Y-6985000D02*
X113665000Y-9403698D01*
X146250000Y-13350000D02*
X146400000Y-13350000D01*
X142240000Y-9340000D02*
X146250000Y-13350000D01*
X142240000Y-4445000D02*
X142240000Y-9340000D01*
X165300000Y-13350000D02*
X165450000Y-13350000D01*
X161290000Y-9340000D02*
X165300000Y-13350000D01*
X161290000Y-4445000D02*
X161290000Y-9340000D01*
X184350000Y-13350000D02*
X184500000Y-13350000D01*
X180340000Y-9340000D02*
X184350000Y-13350000D01*
X180340000Y-4445000D02*
X180340000Y-9340000D01*
X202565000Y-6985000D02*
X199390000Y-6985000D01*
X205146000Y-13350000D02*
X206000000Y-13350000D01*
X203336302Y-13350000D02*
X205146000Y-13350000D01*
X199390000Y-9403698D02*
X203336302Y-13350000D01*
X199390000Y-6985000D02*
X199390000Y-9403698D01*
X231521000Y-13350000D02*
X232375000Y-13350000D01*
X227965000Y-9794000D02*
X231521000Y-13350000D01*
X227965000Y-4445000D02*
X227965000Y-9794000D01*
X250571000Y-13350000D02*
X251425000Y-13350000D01*
X247015000Y-9794000D02*
X250571000Y-13350000D01*
X247015000Y-4445000D02*
X247015000Y-9794000D01*
X269621000Y-13350000D02*
X270475000Y-13350000D01*
X266065000Y-9794000D02*
X269621000Y-13350000D01*
X266065000Y-4445000D02*
X266065000Y-9794000D01*
X285775000Y-7645000D02*
X285115000Y-6985000D01*
X285775000Y-13350000D02*
X285775000Y-7645000D01*
X311175000Y-7645000D02*
X310515000Y-6985000D01*
X311175000Y-13350000D02*
X311175000Y-7645000D01*
X330225000Y-7645000D02*
X329565000Y-6985000D01*
X330225000Y-13350000D02*
X330225000Y-7645000D01*
X349275000Y-7645000D02*
X348615000Y-6985000D01*
X349275000Y-13350000D02*
X349275000Y-7645000D01*
X31725000Y-42000000D02*
X31775000Y-42050000D01*
X27200000Y-42000000D02*
X31725000Y-42000000D01*
X31775000Y-42050000D02*
X260375000Y-42050000D01*
X260375000Y-42050000D02*
X275450000Y-42050000D01*
X275450000Y-42050000D02*
X277700000Y-39800000D01*
X277700000Y-39800000D02*
X283400000Y-39800000D01*
X285650000Y-42050000D02*
X288950000Y-42050000D01*
X283400000Y-39800000D02*
X285650000Y-42050000D01*
X121631193Y-105105710D02*
X121631193Y-104780139D01*
X122232233Y-105706750D02*
X121631193Y-105105710D01*
X121631193Y-104780139D02*
X123557210Y-102854122D01*
X123557210Y-102854122D02*
X123557210Y-101242790D01*
X123557210Y-101242790D02*
X124800000Y-100000000D01*
X127100000Y-42125000D02*
X127025000Y-42050000D01*
X127100000Y-44100000D02*
X127100000Y-42125000D01*
X329371000Y-35700000D02*
X330225000Y-35700000D01*
X288950000Y-42050000D02*
X300050000Y-42050000D01*
X300050000Y-42050000D02*
X305200000Y-36900000D01*
X305200000Y-36900000D02*
X312400000Y-36900000D01*
X312400000Y-36900000D02*
X315000000Y-39500000D01*
X315000000Y-39500000D02*
X325571000Y-39500000D01*
X325571000Y-39500000D02*
X329371000Y-35700000D01*
X330225000Y-35700000D02*
X349275000Y-35700000D01*
X18000000Y-42050000D02*
X19450000Y-42050000D01*
X19450000Y-42050000D02*
X19500000Y-42000000D01*
X5730000Y-38750000D02*
X5715000Y-38735000D01*
X18000000Y-38750000D02*
X5730000Y-38750000D01*
X5715000Y-33975990D02*
X5715000Y-38735000D01*
X5715000Y-32385000D02*
X5715000Y-33975990D01*
X31775000Y-33045000D02*
X31115000Y-32385000D01*
X31775000Y-38750000D02*
X31775000Y-33045000D01*
X50825000Y-33045000D02*
X50165000Y-32385000D01*
X50825000Y-38750000D02*
X50825000Y-33045000D01*
X69875000Y-33045000D02*
X69215000Y-32385000D01*
X69875000Y-38750000D02*
X69875000Y-33045000D01*
X88925000Y-33045000D02*
X88265000Y-32385000D01*
X88925000Y-38750000D02*
X88925000Y-33045000D01*
X107975000Y-33045000D02*
X107315000Y-32385000D01*
X107975000Y-38750000D02*
X107975000Y-33045000D01*
X127025000Y-33045000D02*
X126365000Y-32385000D01*
X127025000Y-38750000D02*
X127025000Y-33045000D01*
X146075000Y-33045000D02*
X145415000Y-32385000D01*
X146075000Y-38750000D02*
X146075000Y-33045000D01*
X165125000Y-33045000D02*
X164465000Y-32385000D01*
X165125000Y-38750000D02*
X165125000Y-33045000D01*
X184175000Y-33045000D02*
X183515000Y-32385000D01*
X184175000Y-38750000D02*
X184175000Y-33045000D01*
X203225000Y-33045000D02*
X202565000Y-32385000D01*
X203225000Y-38750000D02*
X203225000Y-33045000D01*
X222275000Y-33045000D02*
X221615000Y-32385000D01*
X222275000Y-38750000D02*
X222275000Y-33045000D01*
X241325000Y-33045000D02*
X240665000Y-32385000D01*
X241325000Y-38750000D02*
X241325000Y-33045000D01*
X260375000Y-33045000D02*
X259715000Y-32385000D01*
X260375000Y-38750000D02*
X260375000Y-33045000D01*
X288950000Y-33045000D02*
X288290000Y-32385000D01*
X288950000Y-38750000D02*
X288950000Y-33045000D01*
X280355990Y-32385000D02*
X288290000Y-32385000D01*
X278765000Y-32385000D02*
X280355990Y-32385000D01*
X330225000Y-26695000D02*
X329565000Y-26035000D01*
X330225000Y-32400000D02*
X330225000Y-26695000D01*
X349275000Y-26695000D02*
X348615000Y-26035000D01*
X349275000Y-32400000D02*
X349275000Y-26695000D01*
X5730000Y-57800000D02*
X5715000Y-57785000D01*
X18000000Y-57800000D02*
X5730000Y-57800000D01*
X5715000Y-54488698D02*
X5715000Y-57785000D01*
X5715000Y-51435000D02*
X5715000Y-54488698D01*
X36337500Y-60900000D02*
X36537500Y-61100000D01*
X32000000Y-60900000D02*
X36337500Y-60900000D01*
X36537500Y-61100000D02*
X293712500Y-61100000D01*
X294566500Y-61100000D02*
X300400000Y-55266500D01*
X293712500Y-61100000D02*
X294566500Y-61100000D01*
X300400000Y-55266500D02*
X300400000Y-53300000D01*
X310000000Y-43700000D02*
X310000000Y-42050000D01*
X300400000Y-53300000D02*
X310000000Y-43700000D01*
X342250000Y-46150000D02*
X342250000Y-46300000D01*
X338150000Y-42050000D02*
X342250000Y-46150000D01*
X310000000Y-42050000D02*
X338150000Y-42050000D01*
X126826017Y-105779870D02*
X130614446Y-105779870D01*
X126333452Y-106272435D02*
X126826017Y-105779870D01*
X132428370Y-103965946D02*
X132428370Y-103278764D01*
X130614446Y-105779870D02*
X132428370Y-103965946D01*
X132428370Y-103278764D02*
X130500000Y-101350394D01*
X130500000Y-101350394D02*
X130500000Y-101300000D01*
X136500000Y-61150000D02*
X136550000Y-61100000D01*
X136500000Y-63400000D02*
X136500000Y-61150000D01*
X18000000Y-61100000D02*
X19400000Y-61100000D01*
X36537500Y-52095000D02*
X35877500Y-51435000D01*
X36537500Y-57800000D02*
X36537500Y-52095000D01*
X60350000Y-52095000D02*
X59690000Y-51435000D01*
X60350000Y-57800000D02*
X60350000Y-52095000D01*
X79400000Y-52095000D02*
X78740000Y-51435000D01*
X79400000Y-57800000D02*
X79400000Y-52095000D01*
X98450000Y-52095000D02*
X97790000Y-51435000D01*
X98450000Y-57800000D02*
X98450000Y-52095000D01*
X117500000Y-52095000D02*
X116840000Y-51435000D01*
X117500000Y-57800000D02*
X117500000Y-52095000D01*
X136550000Y-52095000D02*
X135890000Y-51435000D01*
X136550000Y-57800000D02*
X136550000Y-52095000D01*
X155600000Y-52095000D02*
X154940000Y-51435000D01*
X155600000Y-57800000D02*
X155600000Y-52095000D01*
X174650000Y-52095000D02*
X173990000Y-51435000D01*
X174650000Y-57800000D02*
X174650000Y-52095000D01*
X193700000Y-52095000D02*
X193040000Y-51435000D01*
X193700000Y-57800000D02*
X193700000Y-52095000D01*
X212750000Y-52095000D02*
X212090000Y-51435000D01*
X212750000Y-57800000D02*
X212750000Y-52095000D01*
X231800000Y-52095000D02*
X231140000Y-51435000D01*
X231800000Y-57800000D02*
X231800000Y-52095000D01*
X250850000Y-52095000D02*
X250190000Y-51435000D01*
X250850000Y-57800000D02*
X250850000Y-52095000D01*
X269900000Y-52095000D02*
X269240000Y-51435000D01*
X269900000Y-57800000D02*
X269900000Y-52095000D01*
X293712500Y-51834649D02*
X293312851Y-51435000D01*
X293712500Y-57800000D02*
X293712500Y-51834649D01*
X297830000Y-32400000D02*
X297815000Y-32385000D01*
X307400000Y-32400000D02*
X297830000Y-32400000D01*
X310000000Y-38750000D02*
X308550000Y-38750000D01*
X308550000Y-38750000D02*
X308500000Y-38800000D01*
X345550000Y-48370000D02*
X345550000Y-46300000D01*
X348615000Y-51435000D02*
X345550000Y-48370000D01*
X357237178Y-57834936D02*
X359400000Y-55672114D01*
X359400000Y-55672114D02*
X359400000Y-52800000D01*
X358035000Y-51435000D02*
X348615000Y-51435000D01*
X359400000Y-52800000D02*
X358035000Y-51435000D01*
X357237178Y-65073666D02*
X357712609Y-65549097D01*
X357237178Y-57834936D02*
X357237178Y-65073666D01*
X45450000Y-80100000D02*
X45500000Y-80150000D01*
X29600000Y-80100000D02*
X45450000Y-80100000D01*
X46354000Y-80150000D02*
X274662500Y-80150000D01*
X45500000Y-80150000D02*
X46354000Y-80150000D01*
X285714750Y-80150000D02*
X286568750Y-80150000D01*
X286568750Y-80150000D02*
X296250000Y-80150000D01*
X316050000Y-60350000D02*
X318850000Y-60350000D01*
X296250000Y-80150000D02*
X316050000Y-60350000D01*
X343850000Y-78000000D02*
X333000000Y-78000000D01*
X318850000Y-63850000D02*
X318850000Y-60350000D01*
X333000000Y-78000000D02*
X318850000Y-63850000D01*
X127500178Y-106237080D02*
X130803828Y-106237080D01*
X126899138Y-106838120D02*
X127500178Y-106237080D01*
X130803828Y-106237080D02*
X132885580Y-104155328D01*
X132885580Y-103089382D02*
X131330291Y-101534093D01*
X132885580Y-104155328D02*
X132885580Y-103089382D01*
X131330291Y-101534093D02*
X131330291Y-100730291D01*
X131330291Y-100730291D02*
X130800000Y-100200000D01*
X141300000Y-80162500D02*
X141312500Y-80150000D01*
X141300000Y-81700000D02*
X141300000Y-80162500D01*
X18000000Y-80150000D02*
X19250000Y-80150000D01*
X19250000Y-80150000D02*
X19300000Y-80100000D01*
X285032375Y-79467625D02*
X280067625Y-79467625D01*
X285032375Y-79467625D02*
X285714750Y-80150000D01*
X275808500Y-78300000D02*
X278900000Y-78300000D01*
X274662500Y-79446000D02*
X275808500Y-78300000D01*
X274662500Y-80150000D02*
X274662500Y-79446000D01*
X280067625Y-79467625D02*
X278900000Y-78300000D01*
X5730000Y-76850000D02*
X5715000Y-76835000D01*
X18000000Y-76850000D02*
X5730000Y-76850000D01*
X5715000Y-70485000D02*
X5715000Y-76835000D01*
X45500000Y-76146000D02*
X45500000Y-76850000D01*
X45500000Y-72007760D02*
X45500000Y-76146000D01*
X41437240Y-67945000D02*
X45500000Y-72007760D01*
X39846250Y-67945000D02*
X41437240Y-67945000D01*
X38258750Y-69532500D02*
X38258750Y-70485000D01*
X39846250Y-67945000D02*
X38258750Y-69532500D01*
X65112500Y-71145000D02*
X64452500Y-70485000D01*
X65112500Y-76850000D02*
X65112500Y-71145000D01*
X84162500Y-71145000D02*
X83502500Y-70485000D01*
X84162500Y-76850000D02*
X84162500Y-71145000D01*
X103212500Y-71145000D02*
X102552500Y-70485000D01*
X103212500Y-76850000D02*
X103212500Y-71145000D01*
X122262500Y-71145000D02*
X121602500Y-70485000D01*
X122262500Y-76850000D02*
X122262500Y-71145000D01*
X141312500Y-71145000D02*
X140652500Y-70485000D01*
X141312500Y-76850000D02*
X141312500Y-71145000D01*
X160362500Y-71145000D02*
X159702500Y-70485000D01*
X160362500Y-76850000D02*
X160362500Y-71145000D01*
X179412500Y-71145000D02*
X178752500Y-70485000D01*
X179412500Y-76850000D02*
X179412500Y-71145000D01*
X198462500Y-71145000D02*
X197802500Y-70485000D01*
X198462500Y-76850000D02*
X198462500Y-71145000D01*
X217512500Y-71145000D02*
X216852500Y-70485000D01*
X217512500Y-76850000D02*
X217512500Y-71145000D01*
X236562500Y-71145000D02*
X235902500Y-70485000D01*
X236562500Y-76850000D02*
X236562500Y-71145000D01*
X255612500Y-71145000D02*
X254952500Y-70485000D01*
X255612500Y-76850000D02*
X255612500Y-71145000D01*
X274662500Y-71145000D02*
X274002500Y-70485000D01*
X274662500Y-76850000D02*
X274662500Y-71145000D01*
X286568750Y-71145000D02*
X285908750Y-70485000D01*
X286568750Y-76850000D02*
X286568750Y-71145000D01*
X296703750Y-59690000D02*
X301783750Y-59690000D01*
X285908750Y-70485000D02*
X296703750Y-59690000D01*
X328905000Y-60350000D02*
X329565000Y-59690000D01*
X322150000Y-60350000D02*
X328905000Y-60350000D01*
X329565000Y-59690000D02*
X335915000Y-59690000D01*
X347890000Y-78740000D02*
X347150000Y-78000000D01*
X354965000Y-78740000D02*
X347890000Y-78740000D01*
X348615000Y-79465000D02*
X348615000Y-89535000D01*
X347890000Y-78740000D02*
X348615000Y-79465000D01*
X5730000Y-95900000D02*
X5715000Y-95885000D01*
X18000000Y-95900000D02*
X5730000Y-95900000D01*
X5715000Y-89535000D02*
X5715000Y-95885000D01*
X44350000Y-99200000D02*
X41850000Y-96700000D01*
X44500000Y-99200000D02*
X44350000Y-99200000D01*
X32100000Y-96700000D02*
X29600000Y-99200000D01*
X41850000Y-96700000D02*
X32100000Y-96700000D01*
X44500000Y-99200000D02*
X55587500Y-99200000D01*
X55587500Y-98496000D02*
X57383500Y-96700000D01*
X55587500Y-99200000D02*
X55587500Y-98496000D01*
X73783500Y-99200000D02*
X74637500Y-99200000D01*
X71283500Y-96700000D02*
X73783500Y-99200000D01*
X57383500Y-96700000D02*
X71283500Y-96700000D01*
X74637500Y-99200000D02*
X268000000Y-99200000D01*
X323875000Y-105550000D02*
X296950000Y-105550000D01*
X293000000Y-101600000D02*
X293000000Y-99200000D01*
X296950000Y-105550000D02*
X293000000Y-101600000D01*
X131787500Y-101344710D02*
X131787500Y-99200000D01*
X133342790Y-102900000D02*
X131787500Y-101344710D01*
X133342790Y-104344710D02*
X133342790Y-102900000D01*
X130884734Y-106802766D02*
X133342790Y-104344710D01*
X128065863Y-106802766D02*
X130884734Y-106802766D01*
X127464823Y-107403806D02*
X128065863Y-106802766D01*
X18000000Y-99200000D02*
X19400000Y-99200000D01*
X268000000Y-99200000D02*
X269856236Y-99200000D01*
X271711446Y-97344790D02*
X274188554Y-97344790D01*
X269856236Y-99200000D02*
X271711446Y-97344790D01*
X276043764Y-99200000D02*
X274188554Y-97344790D01*
X293000000Y-99200000D02*
X276043764Y-99200000D01*
X44500000Y-91013750D02*
X43021250Y-89535000D01*
X44500000Y-95900000D02*
X44500000Y-91013750D01*
X33496250Y-89535000D02*
X43021250Y-89535000D01*
X55587500Y-90195000D02*
X54927500Y-89535000D01*
X55587500Y-95900000D02*
X55587500Y-90195000D01*
X74637500Y-90195000D02*
X73977500Y-89535000D01*
X74637500Y-95900000D02*
X74637500Y-90195000D01*
X93687500Y-90195000D02*
X93027500Y-89535000D01*
X93687500Y-95900000D02*
X93687500Y-90195000D01*
X112737500Y-90195000D02*
X112077500Y-89535000D01*
X112737500Y-95900000D02*
X112737500Y-90195000D01*
X131787500Y-90195000D02*
X131127500Y-89535000D01*
X131787500Y-95900000D02*
X131787500Y-90195000D01*
X150837500Y-90195000D02*
X150177500Y-89535000D01*
X150837500Y-95900000D02*
X150837500Y-90195000D01*
X169887500Y-90195000D02*
X169227500Y-89535000D01*
X169887500Y-95900000D02*
X169887500Y-90195000D01*
X188937500Y-90195000D02*
X188277500Y-89535000D01*
X188937500Y-95900000D02*
X188937500Y-90195000D01*
X207987500Y-90195000D02*
X207327500Y-89535000D01*
X207987500Y-95900000D02*
X207987500Y-90195000D01*
X227037500Y-90195000D02*
X226377500Y-89535000D01*
X227037500Y-95900000D02*
X227037500Y-90195000D01*
X246087500Y-90195000D02*
X245427500Y-89535000D01*
X246087500Y-95900000D02*
X246087500Y-90195000D01*
X270030260Y-89535000D02*
X271621250Y-89535000D01*
X268000000Y-91565260D02*
X270030260Y-89535000D01*
X268000000Y-95900000D02*
X268000000Y-91565260D01*
X271621250Y-89535000D02*
X281146250Y-89535000D01*
X296224010Y-89535000D02*
X297815000Y-89535000D01*
X293000000Y-92759010D02*
X296224010Y-89535000D01*
X293000000Y-95900000D02*
X293000000Y-92759010D01*
X302574010Y-95885000D02*
X304165000Y-95885000D01*
X301995330Y-95885000D02*
X302574010Y-95885000D01*
X297815000Y-91704670D02*
X301995330Y-95885000D01*
X297815000Y-89535000D02*
X297815000Y-91704670D01*
X323875000Y-96545000D02*
X323215000Y-95885000D01*
X323875000Y-102250000D02*
X323875000Y-96545000D01*
X323215000Y-94294010D02*
X323215000Y-95885000D01*
X327974010Y-89535000D02*
X323215000Y-94294010D01*
X329565000Y-89535000D02*
X327974010Y-89535000D01*
X18000000Y-118250000D02*
X19350000Y-118250000D01*
X19350000Y-118250000D02*
X19400000Y-118200000D01*
X29850000Y-118100000D02*
X30000000Y-118250000D01*
X28500000Y-118100000D02*
X29850000Y-118100000D01*
X30000000Y-118250000D02*
X77500000Y-118250000D01*
X229037500Y-118250000D02*
X274662500Y-118250000D01*
X305679000Y-124100000D02*
X339500000Y-124100000D01*
X304825000Y-124100000D02*
X305679000Y-124100000D01*
X275516500Y-118250000D02*
X277166500Y-119900000D01*
X274662500Y-118250000D02*
X275516500Y-118250000D01*
X303971000Y-124100000D02*
X304825000Y-124100000D01*
X299771000Y-119900000D02*
X303971000Y-124100000D01*
X277166500Y-119900000D02*
X299771000Y-119900000D01*
X128030509Y-107969491D02*
X128631549Y-107368451D01*
X142300000Y-112950000D02*
X142850000Y-113500000D01*
X142300000Y-111000000D02*
X142300000Y-112950000D01*
X128631549Y-107368451D02*
X130965641Y-107368451D01*
X130965641Y-107368451D02*
X133800000Y-104534092D01*
X133800000Y-102669800D02*
X134300000Y-102169800D01*
X133800000Y-104534092D02*
X133800000Y-102669800D01*
X229037500Y-118954000D02*
X225606370Y-122385130D01*
X229037500Y-118250000D02*
X229037500Y-118954000D01*
X225606370Y-122385130D02*
X134571498Y-122385130D01*
X134571498Y-122385130D02*
X133543260Y-121356892D01*
X133543260Y-121356892D02*
X133543260Y-116056740D01*
X133543260Y-116056740D02*
X134300000Y-115300000D01*
X134300000Y-115300000D02*
X134300000Y-111700000D01*
X134300000Y-111700000D02*
X132800000Y-110200000D01*
X77550000Y-118200000D02*
X77500000Y-118250000D01*
X79300000Y-118200000D02*
X77550000Y-118200000D01*
X17985000Y-114935000D02*
X18000000Y-114950000D01*
X5730000Y-114950000D02*
X5715000Y-114935000D01*
X18000000Y-114950000D02*
X5730000Y-114950000D01*
X5715000Y-108585000D02*
X5715000Y-114935000D01*
X31905260Y-108585000D02*
X33496250Y-108585000D01*
X30000000Y-110490260D02*
X31905260Y-108585000D01*
X30000000Y-114950000D02*
X30000000Y-110490260D01*
X33496250Y-108585000D02*
X35877500Y-108585000D01*
X55717760Y-108585000D02*
X57308750Y-108585000D01*
X54000000Y-110302760D02*
X55717760Y-108585000D01*
X54000000Y-114950000D02*
X54000000Y-110302760D01*
X57308750Y-108585000D02*
X59690000Y-108585000D01*
X59690000Y-106994010D02*
X62984010Y-103700000D01*
X59690000Y-108585000D02*
X59690000Y-106994010D01*
X68457500Y-103700000D02*
X70802500Y-106045000D01*
X62984010Y-103700000D02*
X68457500Y-103700000D01*
X79530260Y-108585000D02*
X81121250Y-108585000D01*
X77500000Y-110615260D02*
X79530260Y-108585000D01*
X77500000Y-114950000D02*
X77500000Y-110615260D01*
X81121250Y-108585000D02*
X83502500Y-108585000D01*
X150967760Y-108585000D02*
X152558750Y-108585000D01*
X148325330Y-108585000D02*
X150967760Y-108585000D01*
X146150000Y-110760330D02*
X148325330Y-108585000D01*
X146150000Y-113500000D02*
X146150000Y-110760330D01*
X152558750Y-108585000D02*
X154940000Y-108585000D01*
X156530990Y-108585000D02*
X164465000Y-108585000D01*
X154940000Y-108585000D02*
X156530990Y-108585000D01*
X151765000Y-107791250D02*
X152558750Y-108585000D01*
X151765000Y-106045000D02*
X151765000Y-107791250D01*
X228887500Y-114950000D02*
X229037500Y-114950000D01*
X226377500Y-112440000D02*
X228887500Y-114950000D01*
X226377500Y-108585000D02*
X226377500Y-112440000D01*
X246800000Y-109431510D02*
X246800000Y-112900000D01*
X248850000Y-114950000D02*
X250850000Y-114950000D01*
X246800000Y-112900000D02*
X248850000Y-114950000D01*
X247646510Y-108585000D02*
X246800000Y-109431510D01*
X250190000Y-108585000D02*
X247646510Y-108585000D01*
X250190000Y-107632500D02*
X250190000Y-108585000D01*
X251777500Y-106045000D02*
X250190000Y-107632500D01*
X251777500Y-106045000D02*
X254122500Y-103700000D01*
X258957500Y-103700000D02*
X261302500Y-106045000D01*
X254122500Y-103700000D02*
X258957500Y-103700000D01*
X274662500Y-109245000D02*
X274002500Y-108585000D01*
X274662500Y-114950000D02*
X274662500Y-109245000D01*
X285100000Y-114950000D02*
X285115000Y-114935000D01*
X274662500Y-114950000D02*
X285100000Y-114950000D01*
X304825000Y-115595000D02*
X304165000Y-114935000D01*
X304825000Y-120800000D02*
X304825000Y-115595000D01*
X323875000Y-115595000D02*
X323215000Y-114935000D01*
X323875000Y-120800000D02*
X323875000Y-115595000D01*
X339500000Y-120096000D02*
X339500000Y-120800000D01*
X339500000Y-116109010D02*
X339500000Y-120096000D01*
X340674010Y-114935000D02*
X339500000Y-116109010D01*
X342265000Y-114935000D02*
X340674010Y-114935000D01*
X342265000Y-113344010D02*
X342265000Y-114935000D01*
X351469010Y-104140000D02*
X342265000Y-113344010D01*
X354965000Y-104140000D02*
X351469010Y-104140000D01*
X11080127Y-17300000D02*
X11109936Y-17270191D01*
X8287500Y-17300000D02*
X11080127Y-17300000D01*
X16812500Y-13397755D02*
X15440064Y-14770191D01*
X16812500Y-13000000D02*
X16812500Y-13397755D01*
X348615000Y-124985000D02*
X348615000Y-112395000D01*
X347100000Y-126500000D02*
X348615000Y-124985000D01*
X122196878Y-119459976D02*
X122196878Y-120203122D01*
X122797918Y-118858936D02*
X122196878Y-119459976D01*
X122196878Y-120203122D02*
X120600000Y-121800000D01*
X120600000Y-121800000D02*
X120600000Y-123200000D01*
X120600000Y-123200000D02*
X123900000Y-126500000D01*
X123900000Y-126500000D02*
X347100000Y-126500000D01*
X118366443Y-121856847D02*
X113894690Y-126328600D01*
X119143153Y-121856847D02*
X118366443Y-121856847D01*
X113894690Y-126328600D02*
X24805310Y-126328600D01*
X20271400Y-22453600D02*
X20630310Y-22453600D01*
X20000000Y-22725000D02*
X20271400Y-22453600D01*
X20630310Y-22453600D02*
X21271400Y-23094690D01*
X21271400Y-122794690D02*
X24805310Y-126328600D01*
X21271400Y-23094690D02*
X21271400Y-122794690D01*
X118043153Y-120756847D02*
X118043153Y-121533557D01*
X118043153Y-121533557D02*
X113705310Y-125871400D01*
X113705310Y-125871400D02*
X24994690Y-125871400D01*
X20000000Y-21725000D02*
X20271400Y-21996400D01*
X20271400Y-21996400D02*
X20819690Y-21996400D01*
X20819690Y-21996400D02*
X21728600Y-22905310D01*
X21728600Y-22905310D02*
X21728600Y-122605310D01*
X21728600Y-122605310D02*
X24994690Y-125871400D01*
X117105710Y-109631193D02*
X114668807Y-109631193D01*
X117706750Y-110232233D02*
X117105710Y-109631193D01*
X114422215Y-109631193D02*
X110753408Y-113300000D01*
X114668807Y-109631193D02*
X114422215Y-109631193D01*
X110753408Y-113300000D02*
X110326704Y-113726704D01*
X110326704Y-113726704D02*
X110210846Y-113842562D01*
X110210846Y-113842562D02*
X104510618Y-113842562D01*
X90247779Y-113842563D02*
X84747782Y-119342560D01*
X104510618Y-113842562D02*
X90247779Y-113842563D01*
X52157436Y-119342564D02*
X51347778Y-119342564D01*
X84747782Y-119342560D02*
X52157440Y-119342560D01*
X52157440Y-119342560D02*
X52157436Y-119342564D01*
X51347778Y-119342564D02*
X48861972Y-121828370D01*
X48861972Y-121828370D02*
X32000000Y-121828370D01*
X32000000Y-121828370D02*
X29228370Y-121828370D01*
X29228370Y-121828370D02*
X28600000Y-121200000D01*
X28600000Y-121200000D02*
X24800000Y-121200000D01*
X24800000Y-121200000D02*
X24395630Y-120795630D01*
X24395630Y-120795630D02*
X24395630Y-31104370D01*
X9800000Y-24979000D02*
X11221000Y-26400000D01*
X14579000Y-26400000D02*
X11221000Y-26400000D01*
X16000000Y-24979000D02*
X14579000Y-26400000D01*
X24395630Y-31104370D02*
X24395630Y-29404370D01*
X24395630Y-29404370D02*
X24700000Y-29100000D01*
X7612500Y-24175000D02*
X7500000Y-24287500D01*
X9800000Y-24175000D02*
X7612500Y-24175000D01*
X7500000Y-24287500D02*
X7500000Y-25500000D01*
X16000000Y-24175000D02*
X16000000Y-24979000D01*
X9800000Y-24175000D02*
X9800000Y-24979000D01*
D28*
X318950000Y-31500000D02*
X318950000Y-29750000D01*
X318950000Y-29750000D02*
X318900000Y-29700000D01*
D29*
X120256847Y-118894870D02*
X120256847Y-119000353D01*
X120256847Y-119000353D02*
X120256847Y-120743153D01*
X121666548Y-117727565D02*
X121424152Y-117727565D01*
X121424152Y-117727565D02*
X120256847Y-118894870D01*
X121100862Y-117404275D02*
X119799647Y-118705490D01*
X121100862Y-117161880D02*
X121100862Y-117404275D01*
X119799647Y-118705490D02*
X119799647Y-119000353D01*
X119799647Y-119000353D02*
X119156847Y-119643153D01*
X298686030Y-124213970D02*
X299200000Y-123700000D01*
X133813970Y-124213970D02*
X298686030Y-124213970D01*
X131714420Y-122114420D02*
X133813970Y-124213970D01*
X131714420Y-119714420D02*
X131714420Y-122114420D01*
X128030509Y-116030509D02*
X131714420Y-119714420D01*
X130328605Y-109065508D02*
X131208360Y-109065508D01*
X129727565Y-109666548D02*
X130328605Y-109065508D01*
X131208360Y-109065508D02*
X136786934Y-103486934D01*
X175193266Y-100236934D02*
X175500000Y-99930200D01*
X140036934Y-100236934D02*
X175193266Y-100236934D01*
X136786934Y-103486934D02*
X140036934Y-100236934D01*
X116431549Y-110088403D02*
X114611597Y-110088403D01*
X117141064Y-110797918D02*
X116431549Y-110088403D01*
X114611597Y-110088403D02*
X110400228Y-114299772D01*
X110400228Y-114299772D02*
X104700000Y-114299772D01*
X104700000Y-114299772D02*
X90437162Y-114299772D01*
X90437162Y-114299772D02*
X84937164Y-119799770D01*
X72700228Y-119799772D02*
X51537161Y-119799773D01*
X84937164Y-119799770D02*
X72700230Y-119799770D01*
X72700230Y-119799770D02*
X72700228Y-119799772D01*
X51537161Y-119799773D02*
X49051354Y-122285580D01*
X28485580Y-122285580D02*
X28200000Y-122000000D01*
X28785580Y-122285580D02*
X28485580Y-122285580D01*
X49051354Y-122285580D02*
X28785580Y-122285580D01*
X119934137Y-106802766D02*
X119934137Y-104537419D01*
X120535177Y-107403806D02*
X119934137Y-106802766D01*
X114372990Y-99657210D02*
X114100000Y-99930200D01*
X119934137Y-104537419D02*
X122169691Y-102301865D01*
X122169691Y-102301865D02*
X122169691Y-100669691D01*
X122169691Y-100669691D02*
X121157210Y-99657210D01*
X121157210Y-99657210D02*
X114372990Y-99657210D01*
X301527010Y-124671180D02*
X301800000Y-124398190D01*
X133624588Y-124671180D02*
X301527010Y-124671180D01*
X131257211Y-122303803D02*
X133624588Y-124671180D01*
X131257210Y-119903802D02*
X131257211Y-122303803D01*
X128550642Y-117197234D02*
X131257210Y-119903802D01*
X128065863Y-117197234D02*
X128550642Y-117197234D01*
X127464823Y-116596194D02*
X128065863Y-117197234D01*
X130894290Y-109631193D02*
X131289267Y-109631193D01*
X130293250Y-110232233D02*
X130894290Y-109631193D01*
X131289267Y-109631193D02*
X139841169Y-101079291D01*
X139841169Y-101079291D02*
X140226316Y-100694144D01*
X140226316Y-100694144D02*
X194005856Y-100694144D01*
X194005856Y-100694144D02*
X194700000Y-100000000D01*
X130328605Y-116388829D02*
X133086050Y-119146274D01*
X129727565Y-114333452D02*
X130328605Y-114934492D01*
X130328605Y-114934492D02*
X130328605Y-116388829D01*
X133086050Y-119146274D02*
X133086050Y-121546274D01*
X133086050Y-121546274D02*
X134382116Y-122842340D01*
X134382116Y-122842340D02*
X243310272Y-122842340D01*
X243310272Y-122842340D02*
X243583262Y-122569350D01*
X120499822Y-104618326D02*
X122626901Y-102491247D01*
X121100862Y-106838120D02*
X120499822Y-106237080D01*
X120499822Y-106237080D02*
X120499822Y-104618326D01*
X122626901Y-102491247D02*
X122626901Y-100026901D01*
X122626901Y-100026901D02*
X122600000Y-100000000D01*
X129762920Y-115500178D02*
X129762920Y-116469736D01*
X129161880Y-114899138D02*
X129762920Y-115500178D01*
X129762920Y-116469736D02*
X132628840Y-119335656D01*
X132628840Y-119335656D02*
X132628840Y-121735656D01*
X132628840Y-121735656D02*
X134192734Y-123299550D01*
X134192734Y-123299550D02*
X244200450Y-123299550D01*
X244200450Y-123299550D02*
X244500000Y-123000000D01*
X129762920Y-108499822D02*
X131127454Y-108499822D01*
X129161880Y-109100862D02*
X129762920Y-108499822D01*
X131127454Y-108499822D02*
X135200000Y-104427276D01*
X135200000Y-104427276D02*
X135200000Y-103900000D01*
X121065508Y-105671395D02*
X121065508Y-104699232D01*
X121666548Y-106272435D02*
X121065508Y-105671395D01*
X121065508Y-104699232D02*
X123100000Y-102664740D01*
X123100000Y-102664740D02*
X123100000Y-100600000D01*
X123100000Y-100600000D02*
X123700000Y-100000000D01*
X129088759Y-108042612D02*
X130938072Y-108042612D01*
X128596194Y-108535177D02*
X129088759Y-108042612D01*
X130938072Y-108042612D02*
X134300000Y-104680684D01*
X134300000Y-103600000D02*
X135000000Y-102900000D01*
X134300000Y-104680684D02*
X134300000Y-103600000D01*
X135000000Y-102900000D02*
X135800000Y-102900000D01*
X129197234Y-116065863D02*
X129197234Y-116550642D01*
X128596194Y-115464823D02*
X129197234Y-116065863D01*
X129197234Y-116550642D02*
X132171630Y-119525038D01*
X132171630Y-119525038D02*
X132171630Y-121925038D01*
X132171630Y-121925038D02*
X134003352Y-123756760D01*
X134003352Y-123756760D02*
X245127010Y-123756760D01*
X245127010Y-123756760D02*
X245400000Y-123483770D01*
X118838120Y-114899138D02*
X118595725Y-114899138D01*
X118595725Y-114899138D02*
X117366263Y-116128600D01*
X117366263Y-116128600D02*
X116773000Y-116128600D01*
X116773000Y-116128600D02*
X116500000Y-116401600D01*
X124300000Y-124090553D02*
X125795047Y-125585600D01*
X124300000Y-123700000D02*
X124300000Y-124090553D01*
X351675000Y-70987500D02*
X351700000Y-71012500D01*
X349900000Y-70987500D02*
X351675000Y-70987500D01*
X335844600Y-125585600D02*
X336600000Y-124830200D01*
X335585600Y-125585600D02*
X335844600Y-125585600D01*
X125795047Y-125585600D02*
X335585600Y-125585600D01*
X348000000Y-72887500D02*
X349900000Y-70987500D01*
X348000000Y-75800000D02*
X348000000Y-72887500D01*
X18387500Y-11400000D02*
X18387500Y-13000000D01*
X91194690Y-116128600D02*
X117366263Y-116128600D01*
X52294690Y-121628600D02*
X85694690Y-121628600D01*
X49804510Y-124118780D02*
X52294690Y-121628600D01*
X25720648Y-124118780D02*
X49804510Y-124118780D01*
X85694690Y-121628600D02*
X91194690Y-116128600D01*
X19076710Y-11400000D02*
X25771400Y-18094690D01*
X18387500Y-11400000D02*
X19076710Y-11400000D01*
X25771400Y-18094690D02*
X25771400Y-26305310D01*
X25771400Y-26305310D02*
X23481220Y-28595490D01*
X23481220Y-28595490D02*
X23481220Y-121879352D01*
X23481220Y-121879352D02*
X25720648Y-124118780D01*
X329469800Y-124830200D02*
X329500000Y-124830200D01*
X329171610Y-125128390D02*
X329469800Y-124830200D01*
X130800000Y-122493184D02*
X133435206Y-125128390D01*
X130800000Y-120093184D02*
X130800000Y-122493184D01*
X128361260Y-117654444D02*
X130800000Y-120093184D01*
X127391702Y-117654444D02*
X128361260Y-117654444D01*
X133435206Y-125128390D02*
X329171610Y-125128390D01*
X126899138Y-117161880D02*
X127391702Y-117654444D01*
X335915000Y-23495000D02*
X328605000Y-23495000D01*
X328605000Y-23495000D02*
X324500000Y-27600000D01*
X305755990Y-29845000D02*
X304165000Y-29845000D01*
X308000990Y-27600000D02*
X305755990Y-29845000D01*
X324500000Y-27600000D02*
X308000990Y-27600000D01*
X118272435Y-114333452D02*
X118272435Y-114575848D01*
X118272435Y-114575848D02*
X117176883Y-115671400D01*
X117176883Y-115671400D02*
X117176883Y-115476883D01*
X117176883Y-115476883D02*
X116900000Y-115200000D01*
X123590629Y-124413843D02*
X123976710Y-124413843D01*
X123976710Y-124413843D02*
X125605667Y-126042800D01*
X342000000Y-61687500D02*
X343112500Y-62800000D01*
X342000000Y-60987500D02*
X342000000Y-61687500D01*
X336657200Y-126042800D02*
X337700000Y-125000000D01*
X335042800Y-126042800D02*
X336657200Y-126042800D01*
X125605667Y-126042800D02*
X335042800Y-126042800D01*
X341900000Y-64012500D02*
X343112500Y-62800000D01*
X341900000Y-64300000D02*
X341900000Y-64012500D01*
X6712500Y-16100000D02*
X7412500Y-15400000D01*
X6712500Y-17300000D02*
X6712500Y-16100000D01*
X6712500Y-17875000D02*
X6712500Y-17300000D01*
X6712500Y-19854606D02*
X6712500Y-17875000D01*
X4342106Y-22225000D02*
X6712500Y-19854606D01*
X3635000Y-22225000D02*
X4342106Y-22225000D01*
X91005310Y-115671400D02*
X117176883Y-115671400D01*
X49615130Y-123661580D02*
X52105310Y-121171400D01*
X25910028Y-123661580D02*
X49615130Y-123661580D01*
X52105310Y-121171400D02*
X85505310Y-121171400D01*
X23938420Y-121689972D02*
X25910028Y-123661580D01*
X23938420Y-28784870D02*
X23938420Y-121689972D01*
X26228600Y-26494690D02*
X23938420Y-28784870D01*
X8306250Y-14506250D02*
X11793750Y-14506250D01*
X11793750Y-14506250D02*
X16000000Y-10300000D01*
X85505310Y-121171400D02*
X91005310Y-115671400D01*
X7412500Y-15400000D02*
X8306250Y-14506250D01*
X16000000Y-10300000D02*
X18623290Y-10300000D01*
X18623290Y-10300000D02*
X26228600Y-17905310D01*
X26228600Y-17905310D02*
X26228600Y-26494690D01*
X49430118Y-123200000D02*
X26600000Y-123200000D01*
X51915927Y-120714191D02*
X49430118Y-123200000D01*
X26600000Y-123200000D02*
X26200000Y-122800000D01*
X117706750Y-113767767D02*
X117217441Y-114257076D01*
X117217441Y-114257076D02*
X116732662Y-114257076D01*
X116732662Y-114257076D02*
X115775548Y-115214190D01*
X115775548Y-115214190D02*
X90815928Y-115214190D01*
X90815928Y-115214190D02*
X85315928Y-120714190D01*
X85315928Y-120714190D02*
X51915927Y-120714191D01*
X6945000Y-29845000D02*
X12065000Y-29845000D01*
X1000000Y-23900000D02*
X6945000Y-29845000D01*
X1000000Y-22882894D02*
X1000000Y-23900000D01*
X1657894Y-22225000D02*
X1000000Y-22882894D01*
X2365000Y-22225000D02*
X1657894Y-22225000D01*
X12065000Y-4445000D02*
X12065000Y-10435000D01*
X12065000Y-10435000D02*
X10500000Y-12000000D01*
X10500000Y-12000000D02*
X8000000Y-12000000D01*
X8000000Y-12000000D02*
X5100000Y-14900000D01*
X5100000Y-14900000D02*
X5100000Y-16100000D01*
X5100000Y-16100000D02*
X1000000Y-20200000D01*
X1000000Y-21567106D02*
X1657894Y-22225000D01*
X1000000Y-20200000D02*
X1000000Y-21567106D01*
X10422242Y-4445000D02*
X12065000Y-4445000D01*
X8190064Y-2212822D02*
X10422242Y-4445000D01*
X117141064Y-113202082D02*
X115586164Y-114756982D01*
X115586164Y-114756982D02*
X104443018Y-114756982D01*
X104443018Y-114756982D02*
X90626545Y-114756981D01*
X90626545Y-114756981D02*
X85126546Y-120256980D01*
X84943018Y-120256982D02*
X51726544Y-120256982D01*
X85126546Y-120256980D02*
X84943020Y-120256980D01*
X84943020Y-120256980D02*
X84943018Y-120256982D01*
X51726544Y-120256982D02*
X49240736Y-122742790D01*
X49240736Y-122742790D02*
X28000000Y-122742790D01*
X28000000Y-122742790D02*
X27542790Y-122742790D01*
X27542790Y-122742790D02*
X27200000Y-122400000D01*
X344687500Y-65077245D02*
X344679809Y-65084936D01*
X344687500Y-62800000D02*
X344687500Y-65077245D01*
X347182373Y-69412500D02*
X347179809Y-69415064D01*
X349900000Y-69412500D02*
X347182373Y-69412500D01*
X345571145Y-60421132D02*
X344571146Y-59421133D01*
X348179808Y-63029795D02*
X345571145Y-60421132D01*
X348179808Y-68415065D02*
X348179808Y-63029795D01*
X347179809Y-69415064D02*
X348179808Y-68415065D01*
D30*
X315700000Y-32500000D02*
X315700000Y-35212500D01*
X315700000Y-36787500D02*
X315700000Y-38100000D01*
X130858936Y-110797918D02*
X140456854Y-101200000D01*
X140456854Y-101200000D02*
X204400000Y-101200000D01*
X204400000Y-101200000D02*
X205300000Y-100300000D01*
X205300000Y-100300000D02*
X269400000Y-100300000D01*
X297200000Y-106600000D02*
X315700000Y-106600000D01*
X269400000Y-100300000D02*
X271900000Y-97800000D01*
X271900000Y-97800000D02*
X274000000Y-97800000D01*
X278050000Y-101850000D02*
X292450000Y-101850000D01*
X274000000Y-97800000D02*
X278050000Y-101850000D01*
X292450000Y-101850000D02*
X297200000Y-106600000D01*
D29*
G36*
X124026113Y-118974245D02*
G01*
X125086773Y-120034905D01*
X125183464Y-120114257D01*
X125293778Y-120173222D01*
X125372953Y-120197239D01*
X125816309Y-120640596D01*
X125815677Y-120641778D01*
X125766919Y-120802512D01*
X125750455Y-120969670D01*
X125766919Y-121136828D01*
X125815677Y-121297562D01*
X125887835Y-121432559D01*
X125871361Y-121449033D01*
X125762376Y-121494176D01*
X125576480Y-121618388D01*
X125418388Y-121776480D01*
X125294176Y-121962376D01*
X125249033Y-122071361D01*
X124611601Y-122708793D01*
X124601898Y-122704774D01*
X124401939Y-122665000D01*
X124198061Y-122665000D01*
X123998102Y-122704774D01*
X123809744Y-122782795D01*
X123640226Y-122896063D01*
X123607948Y-122928342D01*
X122078618Y-121399012D01*
X122709224Y-120768406D01*
X122738300Y-120744544D01*
X122811941Y-120654812D01*
X122833523Y-120628515D01*
X122904279Y-120496138D01*
X122904280Y-120496137D01*
X122947852Y-120352500D01*
X122958878Y-120240548D01*
X122958878Y-120240545D01*
X122962564Y-120203122D01*
X122958878Y-120165699D01*
X122958878Y-119989254D01*
X123973887Y-118974245D01*
X124000000Y-118942426D01*
X124026113Y-118974245D01*
X124026113Y-118974245D01*
G37*
X124026113Y-118974245D02*
X125086773Y-120034905D01*
X125183464Y-120114257D01*
X125293778Y-120173222D01*
X125372953Y-120197239D01*
X125816309Y-120640596D01*
X125815677Y-120641778D01*
X125766919Y-120802512D01*
X125750455Y-120969670D01*
X125766919Y-121136828D01*
X125815677Y-121297562D01*
X125887835Y-121432559D01*
X125871361Y-121449033D01*
X125762376Y-121494176D01*
X125576480Y-121618388D01*
X125418388Y-121776480D01*
X125294176Y-121962376D01*
X125249033Y-122071361D01*
X124611601Y-122708793D01*
X124601898Y-122704774D01*
X124401939Y-122665000D01*
X124198061Y-122665000D01*
X123998102Y-122704774D01*
X123809744Y-122782795D01*
X123640226Y-122896063D01*
X123607948Y-122928342D01*
X122078618Y-121399012D01*
X122709224Y-120768406D01*
X122738300Y-120744544D01*
X122811941Y-120654812D01*
X122833523Y-120628515D01*
X122904279Y-120496138D01*
X122904280Y-120496137D01*
X122947852Y-120352500D01*
X122958878Y-120240548D01*
X122958878Y-120240545D01*
X122962564Y-120203122D01*
X122958878Y-120165699D01*
X122958878Y-119989254D01*
X123973887Y-118974245D01*
X124000000Y-118942426D01*
X124026113Y-118974245D01*
G36*
X126813739Y-103493345D02*
G01*
X126163394Y-104143690D01*
X126091621Y-104071917D01*
X125979369Y-104184169D01*
X125979369Y-103959665D01*
X125889776Y-103883964D01*
X125779166Y-103825555D01*
X125659287Y-103789849D01*
X125534745Y-103778215D01*
X125410326Y-103791102D01*
X125290813Y-103828015D01*
X125180797Y-103887534D01*
X125084506Y-103967372D01*
X124760671Y-104295541D01*
X124760671Y-104520047D01*
X125202082Y-104961459D01*
X125216225Y-104947317D01*
X125226074Y-104957166D01*
X124591798Y-105591441D01*
X124512446Y-105688132D01*
X124453481Y-105798446D01*
X124417171Y-105918144D01*
X124404911Y-106042626D01*
X124417171Y-106167108D01*
X124424795Y-106192241D01*
X124424795Y-106322463D01*
X124511864Y-106396032D01*
X124512446Y-106397120D01*
X124591798Y-106493811D01*
X124980706Y-106882719D01*
X125077397Y-106962071D01*
X125077875Y-106962327D01*
X125078131Y-106962805D01*
X125157483Y-107059496D01*
X125546391Y-107448404D01*
X125643082Y-107527756D01*
X125643562Y-107528012D01*
X125643817Y-107528490D01*
X125723169Y-107625181D01*
X126112077Y-108014089D01*
X126208768Y-108093441D01*
X126209246Y-108093696D01*
X126209502Y-108094176D01*
X126288854Y-108190867D01*
X126677762Y-108579775D01*
X126774453Y-108659127D01*
X126774933Y-108659383D01*
X126775188Y-108659861D01*
X126854540Y-108756552D01*
X127243448Y-109145460D01*
X127340139Y-109224812D01*
X127340617Y-109225067D01*
X127340873Y-109225547D01*
X127420225Y-109322238D01*
X127809133Y-109711146D01*
X127905824Y-109790498D01*
X127906304Y-109790754D01*
X127906559Y-109791232D01*
X127985911Y-109887923D01*
X128374819Y-110276831D01*
X128471510Y-110356183D01*
X128471988Y-110356438D01*
X128472244Y-110356918D01*
X128551596Y-110453609D01*
X128940504Y-110842517D01*
X129037195Y-110921869D01*
X129037673Y-110922125D01*
X129037929Y-110922603D01*
X129117281Y-111019294D01*
X129506189Y-111408202D01*
X129602880Y-111487554D01*
X129603360Y-111487810D01*
X129603615Y-111488288D01*
X129682967Y-111584979D01*
X130071875Y-111973887D01*
X130103694Y-112000000D01*
X130071875Y-112026113D01*
X129682967Y-112415021D01*
X129603615Y-112511712D01*
X129603035Y-112512797D01*
X129515963Y-112586368D01*
X129515963Y-112716594D01*
X129508340Y-112741724D01*
X129496080Y-112866206D01*
X129507484Y-112982000D01*
X129391689Y-112970596D01*
X129267207Y-112982856D01*
X129242074Y-112990480D01*
X129111851Y-112990480D01*
X129038282Y-113077550D01*
X129037195Y-113078131D01*
X128940504Y-113157483D01*
X128551596Y-113546391D01*
X128472244Y-113643082D01*
X128471988Y-113643562D01*
X128471510Y-113643817D01*
X128374819Y-113723169D01*
X127985911Y-114112077D01*
X127906559Y-114208768D01*
X127906304Y-114209246D01*
X127905824Y-114209502D01*
X127809133Y-114288854D01*
X127420225Y-114677762D01*
X127340873Y-114774453D01*
X127340617Y-114774933D01*
X127340139Y-114775188D01*
X127243448Y-114854540D01*
X126854540Y-115243448D01*
X126775188Y-115340139D01*
X126774933Y-115340617D01*
X126774453Y-115340873D01*
X126677762Y-115420225D01*
X126288854Y-115809133D01*
X126209502Y-115905824D01*
X126209246Y-115906304D01*
X126208768Y-115906559D01*
X126112077Y-115985911D01*
X125723169Y-116374819D01*
X125643817Y-116471510D01*
X125643562Y-116471988D01*
X125643082Y-116472244D01*
X125546391Y-116551596D01*
X125157483Y-116940504D01*
X125078131Y-117037195D01*
X125077550Y-117038282D01*
X124990480Y-117111851D01*
X124990480Y-117242074D01*
X124982856Y-117267207D01*
X124970596Y-117391689D01*
X124982000Y-117507484D01*
X124866206Y-117496080D01*
X124741724Y-117508340D01*
X124716594Y-117515963D01*
X124586368Y-117515963D01*
X124512797Y-117603035D01*
X124511712Y-117603615D01*
X124415021Y-117682967D01*
X124026113Y-118071875D01*
X124000000Y-118103694D01*
X123973887Y-118071875D01*
X123584979Y-117682967D01*
X123488288Y-117603615D01*
X123487810Y-117603360D01*
X123487554Y-117602880D01*
X123408202Y-117506189D01*
X123019294Y-117117281D01*
X122922603Y-117037929D01*
X122922125Y-117037673D01*
X122921869Y-117037195D01*
X122842517Y-116940504D01*
X122453609Y-116551596D01*
X122356918Y-116472244D01*
X122356438Y-116471988D01*
X122356183Y-116471510D01*
X122276831Y-116374819D01*
X121887923Y-115985911D01*
X121791232Y-115906559D01*
X121790147Y-115905979D01*
X121716576Y-115818907D01*
X121586350Y-115818907D01*
X121561220Y-115811284D01*
X121436738Y-115799024D01*
X121320943Y-115810428D01*
X121332347Y-115694633D01*
X121320087Y-115570151D01*
X121312464Y-115545021D01*
X121312464Y-115414795D01*
X121225392Y-115341224D01*
X121224812Y-115340139D01*
X121145460Y-115243448D01*
X120756552Y-114854540D01*
X120659861Y-114775188D01*
X120659383Y-114774933D01*
X120659127Y-114774453D01*
X120579775Y-114677762D01*
X120190867Y-114288854D01*
X120094176Y-114209502D01*
X120093696Y-114209246D01*
X120093441Y-114208768D01*
X120014089Y-114112077D01*
X119625181Y-113723169D01*
X119528490Y-113643817D01*
X119528012Y-113643562D01*
X119527756Y-113643082D01*
X119448404Y-113546391D01*
X119059496Y-113157483D01*
X118962805Y-113078131D01*
X118962327Y-113077875D01*
X118962071Y-113077397D01*
X118882719Y-112980706D01*
X118493811Y-112591798D01*
X118397120Y-112512446D01*
X118396640Y-112512190D01*
X118396385Y-112511712D01*
X118317033Y-112415021D01*
X117928125Y-112026113D01*
X117896306Y-112000000D01*
X117928125Y-111973887D01*
X118317033Y-111584979D01*
X118396385Y-111488288D01*
X118396640Y-111487810D01*
X118397120Y-111487554D01*
X118493811Y-111408202D01*
X118882719Y-111019294D01*
X118962071Y-110922603D01*
X118962327Y-110922125D01*
X118962805Y-110921869D01*
X119059496Y-110842517D01*
X119448404Y-110453609D01*
X119527756Y-110356918D01*
X119528338Y-110355830D01*
X119615407Y-110282261D01*
X119615407Y-110152039D01*
X119623031Y-110126906D01*
X119635291Y-110002424D01*
X119623887Y-109886629D01*
X119739682Y-109898033D01*
X119864164Y-109885773D01*
X119889297Y-109878149D01*
X120019519Y-109878149D01*
X120093088Y-109791080D01*
X120094176Y-109790498D01*
X120190867Y-109711146D01*
X120579775Y-109322238D01*
X120659127Y-109225547D01*
X120659383Y-109225067D01*
X120659861Y-109224812D01*
X120756552Y-109145460D01*
X121145460Y-108756552D01*
X121224812Y-108659861D01*
X121225067Y-108659383D01*
X121225547Y-108659127D01*
X121322238Y-108579775D01*
X121711146Y-108190867D01*
X121790498Y-108094176D01*
X121790754Y-108093696D01*
X121791232Y-108093441D01*
X121887923Y-108014089D01*
X122276831Y-107625181D01*
X122356183Y-107528490D01*
X122356438Y-107528012D01*
X122356918Y-107527756D01*
X122453609Y-107448404D01*
X122842517Y-107059496D01*
X122921869Y-106962805D01*
X122922125Y-106962327D01*
X122922603Y-106962071D01*
X123019294Y-106882719D01*
X123408202Y-106493811D01*
X123487554Y-106397120D01*
X123487810Y-106396640D01*
X123488288Y-106396385D01*
X123584979Y-106317033D01*
X123973887Y-105928125D01*
X124001013Y-105895072D01*
X124020683Y-105918351D01*
X124245190Y-105918351D01*
X125022477Y-105141064D01*
X124581065Y-104699653D01*
X124356559Y-104699653D01*
X124028390Y-105023488D01*
X124000064Y-105057652D01*
X123973887Y-105025755D01*
X123559918Y-104611786D01*
X123559918Y-104575636D01*
X124526767Y-103608787D01*
X124555842Y-103584926D01*
X124636261Y-103486935D01*
X124651065Y-103468897D01*
X124702781Y-103372142D01*
X124721822Y-103336519D01*
X124765394Y-103192882D01*
X124776420Y-103080930D01*
X124776420Y-103080927D01*
X124780106Y-103043504D01*
X124776420Y-103006081D01*
X124776420Y-102201210D01*
X125149012Y-101828618D01*
X126813739Y-103493345D01*
X126813739Y-103493345D01*
G37*
X126813739Y-103493345D02*
X126163394Y-104143690D01*
X126091621Y-104071917D01*
X125979369Y-104184169D01*
X125979369Y-103959665D01*
X125889776Y-103883964D01*
X125779166Y-103825555D01*
X125659287Y-103789849D01*
X125534745Y-103778215D01*
X125410326Y-103791102D01*
X125290813Y-103828015D01*
X125180797Y-103887534D01*
X125084506Y-103967372D01*
X124760671Y-104295541D01*
X124760671Y-104520047D01*
X125202082Y-104961459D01*
X125216225Y-104947317D01*
X125226074Y-104957166D01*
X124591798Y-105591441D01*
X124512446Y-105688132D01*
X124453481Y-105798446D01*
X124417171Y-105918144D01*
X124404911Y-106042626D01*
X124417171Y-106167108D01*
X124424795Y-106192241D01*
X124424795Y-106322463D01*
X124511864Y-106396032D01*
X124512446Y-106397120D01*
X124591798Y-106493811D01*
X124980706Y-106882719D01*
X125077397Y-106962071D01*
X125077875Y-106962327D01*
X125078131Y-106962805D01*
X125157483Y-107059496D01*
X125546391Y-107448404D01*
X125643082Y-107527756D01*
X125643562Y-107528012D01*
X125643817Y-107528490D01*
X125723169Y-107625181D01*
X126112077Y-108014089D01*
X126208768Y-108093441D01*
X126209246Y-108093696D01*
X126209502Y-108094176D01*
X126288854Y-108190867D01*
X126677762Y-108579775D01*
X126774453Y-108659127D01*
X126774933Y-108659383D01*
X126775188Y-108659861D01*
X126854540Y-108756552D01*
X127243448Y-109145460D01*
X127340139Y-109224812D01*
X127340617Y-109225067D01*
X127340873Y-109225547D01*
X127420225Y-109322238D01*
X127809133Y-109711146D01*
X127905824Y-109790498D01*
X127906304Y-109790754D01*
X127906559Y-109791232D01*
X127985911Y-109887923D01*
X128374819Y-110276831D01*
X128471510Y-110356183D01*
X128471988Y-110356438D01*
X128472244Y-110356918D01*
X128551596Y-110453609D01*
X128940504Y-110842517D01*
X129037195Y-110921869D01*
X129037673Y-110922125D01*
X129037929Y-110922603D01*
X129117281Y-111019294D01*
X129506189Y-111408202D01*
X129602880Y-111487554D01*
X129603360Y-111487810D01*
X129603615Y-111488288D01*
X129682967Y-111584979D01*
X130071875Y-111973887D01*
X130103694Y-112000000D01*
X130071875Y-112026113D01*
X129682967Y-112415021D01*
X129603615Y-112511712D01*
X129603035Y-112512797D01*
X129515963Y-112586368D01*
X129515963Y-112716594D01*
X129508340Y-112741724D01*
X129496080Y-112866206D01*
X129507484Y-112982000D01*
X129391689Y-112970596D01*
X129267207Y-112982856D01*
X129242074Y-112990480D01*
X129111851Y-112990480D01*
X129038282Y-113077550D01*
X129037195Y-113078131D01*
X128940504Y-113157483D01*
X128551596Y-113546391D01*
X128472244Y-113643082D01*
X128471988Y-113643562D01*
X128471510Y-113643817D01*
X128374819Y-113723169D01*
X127985911Y-114112077D01*
X127906559Y-114208768D01*
X127906304Y-114209246D01*
X127905824Y-114209502D01*
X127809133Y-114288854D01*
X127420225Y-114677762D01*
X127340873Y-114774453D01*
X127340617Y-114774933D01*
X127340139Y-114775188D01*
X127243448Y-114854540D01*
X126854540Y-115243448D01*
X126775188Y-115340139D01*
X126774933Y-115340617D01*
X126774453Y-115340873D01*
X126677762Y-115420225D01*
X126288854Y-115809133D01*
X126209502Y-115905824D01*
X126209246Y-115906304D01*
X126208768Y-115906559D01*
X126112077Y-115985911D01*
X125723169Y-116374819D01*
X125643817Y-116471510D01*
X125643562Y-116471988D01*
X125643082Y-116472244D01*
X125546391Y-116551596D01*
X125157483Y-116940504D01*
X125078131Y-117037195D01*
X125077550Y-117038282D01*
X124990480Y-117111851D01*
X124990480Y-117242074D01*
X124982856Y-117267207D01*
X124970596Y-117391689D01*
X124982000Y-117507484D01*
X124866206Y-117496080D01*
X124741724Y-117508340D01*
X124716594Y-117515963D01*
X124586368Y-117515963D01*
X124512797Y-117603035D01*
X124511712Y-117603615D01*
X124415021Y-117682967D01*
X124026113Y-118071875D01*
X124000000Y-118103694D01*
X123973887Y-118071875D01*
X123584979Y-117682967D01*
X123488288Y-117603615D01*
X123487810Y-117603360D01*
X123487554Y-117602880D01*
X123408202Y-117506189D01*
X123019294Y-117117281D01*
X122922603Y-117037929D01*
X122922125Y-117037673D01*
X122921869Y-117037195D01*
X122842517Y-116940504D01*
X122453609Y-116551596D01*
X122356918Y-116472244D01*
X122356438Y-116471988D01*
X122356183Y-116471510D01*
X122276831Y-116374819D01*
X121887923Y-115985911D01*
X121791232Y-115906559D01*
X121790147Y-115905979D01*
X121716576Y-115818907D01*
X121586350Y-115818907D01*
X121561220Y-115811284D01*
X121436738Y-115799024D01*
X121320943Y-115810428D01*
X121332347Y-115694633D01*
X121320087Y-115570151D01*
X121312464Y-115545021D01*
X121312464Y-115414795D01*
X121225392Y-115341224D01*
X121224812Y-115340139D01*
X121145460Y-115243448D01*
X120756552Y-114854540D01*
X120659861Y-114775188D01*
X120659383Y-114774933D01*
X120659127Y-114774453D01*
X120579775Y-114677762D01*
X120190867Y-114288854D01*
X120094176Y-114209502D01*
X120093696Y-114209246D01*
X120093441Y-114208768D01*
X120014089Y-114112077D01*
X119625181Y-113723169D01*
X119528490Y-113643817D01*
X119528012Y-113643562D01*
X119527756Y-113643082D01*
X119448404Y-113546391D01*
X119059496Y-113157483D01*
X118962805Y-113078131D01*
X118962327Y-113077875D01*
X118962071Y-113077397D01*
X118882719Y-112980706D01*
X118493811Y-112591798D01*
X118397120Y-112512446D01*
X118396640Y-112512190D01*
X118396385Y-112511712D01*
X118317033Y-112415021D01*
X117928125Y-112026113D01*
X117896306Y-112000000D01*
X117928125Y-111973887D01*
X118317033Y-111584979D01*
X118396385Y-111488288D01*
X118396640Y-111487810D01*
X118397120Y-111487554D01*
X118493811Y-111408202D01*
X118882719Y-111019294D01*
X118962071Y-110922603D01*
X118962327Y-110922125D01*
X118962805Y-110921869D01*
X119059496Y-110842517D01*
X119448404Y-110453609D01*
X119527756Y-110356918D01*
X119528338Y-110355830D01*
X119615407Y-110282261D01*
X119615407Y-110152039D01*
X119623031Y-110126906D01*
X119635291Y-110002424D01*
X119623887Y-109886629D01*
X119739682Y-109898033D01*
X119864164Y-109885773D01*
X119889297Y-109878149D01*
X120019519Y-109878149D01*
X120093088Y-109791080D01*
X120094176Y-109790498D01*
X120190867Y-109711146D01*
X120579775Y-109322238D01*
X120659127Y-109225547D01*
X120659383Y-109225067D01*
X120659861Y-109224812D01*
X120756552Y-109145460D01*
X121145460Y-108756552D01*
X121224812Y-108659861D01*
X121225067Y-108659383D01*
X121225547Y-108659127D01*
X121322238Y-108579775D01*
X121711146Y-108190867D01*
X121790498Y-108094176D01*
X121790754Y-108093696D01*
X121791232Y-108093441D01*
X121887923Y-108014089D01*
X122276831Y-107625181D01*
X122356183Y-107528490D01*
X122356438Y-107528012D01*
X122356918Y-107527756D01*
X122453609Y-107448404D01*
X122842517Y-107059496D01*
X122921869Y-106962805D01*
X122922125Y-106962327D01*
X122922603Y-106962071D01*
X123019294Y-106882719D01*
X123408202Y-106493811D01*
X123487554Y-106397120D01*
X123487810Y-106396640D01*
X123488288Y-106396385D01*
X123584979Y-106317033D01*
X123973887Y-105928125D01*
X124001013Y-105895072D01*
X124020683Y-105918351D01*
X124245190Y-105918351D01*
X125022477Y-105141064D01*
X124581065Y-104699653D01*
X124356559Y-104699653D01*
X124028390Y-105023488D01*
X124000064Y-105057652D01*
X123973887Y-105025755D01*
X123559918Y-104611786D01*
X123559918Y-104575636D01*
X124526767Y-103608787D01*
X124555842Y-103584926D01*
X124636261Y-103486935D01*
X124651065Y-103468897D01*
X124702781Y-103372142D01*
X124721822Y-103336519D01*
X124765394Y-103192882D01*
X124776420Y-103080930D01*
X124776420Y-103080927D01*
X124780106Y-103043504D01*
X124776420Y-103006081D01*
X124776420Y-102201210D01*
X125149012Y-101828618D01*
X126813739Y-103493345D01*
G36*
X115965095Y-110913227D02*
G01*
X117025755Y-111973887D01*
X117057574Y-112000000D01*
X117025755Y-112026113D01*
X115965095Y-113086773D01*
X115885743Y-113183464D01*
X115826778Y-113293778D01*
X115790468Y-113413476D01*
X115783741Y-113481775D01*
X115270534Y-113994982D01*
X114674588Y-113994982D01*
X113228618Y-112549012D01*
X114927228Y-110850403D01*
X115913537Y-110850403D01*
X115965095Y-110913227D01*
X115965095Y-110913227D01*
G37*
X115965095Y-110913227D02*
X117025755Y-111973887D01*
X117057574Y-112000000D01*
X117025755Y-112026113D01*
X115965095Y-113086773D01*
X115885743Y-113183464D01*
X115826778Y-113293778D01*
X115790468Y-113413476D01*
X115783741Y-113481775D01*
X115270534Y-113994982D01*
X114674588Y-113994982D01*
X113228618Y-112549012D01*
X114927228Y-110850403D01*
X115913537Y-110850403D01*
X115965095Y-110913227D01*
G36*
X132140226Y-111003937D02*
G01*
X132309744Y-111117205D01*
X132498102Y-111195226D01*
X132698061Y-111235000D01*
X132757370Y-111235000D01*
X133538001Y-112015632D01*
X133538000Y-113782394D01*
X133388522Y-113931872D01*
X133358222Y-113915677D01*
X133197488Y-113866919D01*
X133030330Y-113850455D01*
X132863172Y-113866919D01*
X132731230Y-113906943D01*
X132197239Y-113372953D01*
X132173222Y-113293778D01*
X132114257Y-113183464D01*
X132034905Y-113086773D01*
X130974245Y-112026113D01*
X130942426Y-112000000D01*
X130974245Y-111973887D01*
X132034905Y-110913227D01*
X132041491Y-110905202D01*
X132140226Y-111003937D01*
X132140226Y-111003937D01*
G37*
X132140226Y-111003937D02*
X132309744Y-111117205D01*
X132498102Y-111195226D01*
X132698061Y-111235000D01*
X132757370Y-111235000D01*
X133538001Y-112015632D01*
X133538000Y-113782394D01*
X133388522Y-113931872D01*
X133358222Y-113915677D01*
X133197488Y-113866919D01*
X133030330Y-113850455D01*
X132863172Y-113866919D01*
X132731230Y-113906943D01*
X132197239Y-113372953D01*
X132173222Y-113293778D01*
X132114257Y-113183464D01*
X132034905Y-113086773D01*
X130974245Y-112026113D01*
X130942426Y-112000000D01*
X130974245Y-111973887D01*
X132034905Y-110913227D01*
X132041491Y-110905202D01*
X132140226Y-111003937D01*
G36*
X114906137Y-107083767D02*
G01*
X114811788Y-107065000D01*
X114744606Y-107065000D01*
X114384759Y-106705153D01*
X114527523Y-106705153D01*
X114906137Y-107083767D01*
X114906137Y-107083767D01*
G37*
X114906137Y-107083767D02*
X114811788Y-107065000D01*
X114744606Y-107065000D01*
X114384759Y-106705153D01*
X114527523Y-106705153D01*
X114906137Y-107083767D01*
G36*
X116681616Y-105629361D02*
G01*
X116667473Y-105643503D01*
X117325483Y-106301513D01*
X117336102Y-106336518D01*
X117406858Y-106468895D01*
X117457084Y-106530095D01*
X117502082Y-106584925D01*
X117531152Y-106608782D01*
X117798322Y-106875952D01*
X117004286Y-106875952D01*
X117159089Y-106718836D01*
X117159089Y-106494329D01*
X116487868Y-105823108D01*
X116473726Y-105837251D01*
X116294121Y-105657646D01*
X116308263Y-105643503D01*
X116294121Y-105629361D01*
X116473726Y-105449756D01*
X116487868Y-105463898D01*
X116502011Y-105449756D01*
X116681616Y-105629361D01*
X116681616Y-105629361D01*
G37*
X116681616Y-105629361D02*
X116667473Y-105643503D01*
X117325483Y-106301513D01*
X117336102Y-106336518D01*
X117406858Y-106468895D01*
X117457084Y-106530095D01*
X117502082Y-106584925D01*
X117531152Y-106608782D01*
X117798322Y-106875952D01*
X117004286Y-106875952D01*
X117159089Y-106718836D01*
X117159089Y-106494329D01*
X116487868Y-105823108D01*
X116473726Y-105837251D01*
X116294121Y-105657646D01*
X116308263Y-105643503D01*
X116294121Y-105629361D01*
X116473726Y-105449756D01*
X116487868Y-105463898D01*
X116502011Y-105449756D01*
X116681616Y-105629361D01*
G36*
X117829990Y-100509596D02*
G01*
X117829990Y-100650385D01*
X118386306Y-101206701D01*
X118400449Y-101192559D01*
X118580054Y-101372164D01*
X118565911Y-101386306D01*
X118580054Y-101400449D01*
X118400449Y-101580054D01*
X118386306Y-101565911D01*
X117803473Y-102148744D01*
X117803473Y-102244761D01*
X117091737Y-102956497D01*
X117105880Y-102970640D01*
X116926275Y-103150245D01*
X116912132Y-103136102D01*
X116897990Y-103150245D01*
X116718385Y-102970640D01*
X116732527Y-102956497D01*
X116061306Y-102285276D01*
X115836799Y-102285276D01*
X115541708Y-102576023D01*
X115462355Y-102672714D01*
X115403391Y-102783028D01*
X115367082Y-102902726D01*
X115361312Y-102961311D01*
X115302726Y-102967081D01*
X115183028Y-103003391D01*
X115072714Y-103062356D01*
X114976023Y-103141708D01*
X113986073Y-104131658D01*
X113906721Y-104228349D01*
X113847756Y-104338663D01*
X113811446Y-104458361D01*
X113799186Y-104582843D01*
X113811446Y-104707325D01*
X113842905Y-104811031D01*
X113697488Y-104766919D01*
X113530330Y-104750455D01*
X113363172Y-104766919D01*
X113202438Y-104815677D01*
X113054305Y-104894856D01*
X112924465Y-105001412D01*
X112802742Y-105123136D01*
X112675408Y-104995802D01*
X112800826Y-104912000D01*
X113167000Y-104545826D01*
X113454701Y-104115251D01*
X113652873Y-103636822D01*
X113753900Y-103128924D01*
X113753900Y-102925706D01*
X114798442Y-101881164D01*
X116240911Y-101881164D01*
X116240911Y-102105671D01*
X116912132Y-102776892D01*
X117654064Y-102034960D01*
X117654064Y-101938943D01*
X118206701Y-101386306D01*
X117650385Y-100829990D01*
X117425878Y-100829990D01*
X117289886Y-100961637D01*
X117210533Y-101058329D01*
X117151569Y-101168643D01*
X117115260Y-101288341D01*
X117103175Y-101411038D01*
X116982843Y-101399186D01*
X116858361Y-101411447D01*
X116738663Y-101447756D01*
X116628349Y-101506720D01*
X116531658Y-101586073D01*
X116240911Y-101881164D01*
X114798442Y-101881164D01*
X116260396Y-100419210D01*
X117739604Y-100419210D01*
X117829990Y-100509596D01*
X117829990Y-100509596D01*
G37*
X117829990Y-100509596D02*
X117829990Y-100650385D01*
X118386306Y-101206701D01*
X118400449Y-101192559D01*
X118580054Y-101372164D01*
X118565911Y-101386306D01*
X118580054Y-101400449D01*
X118400449Y-101580054D01*
X118386306Y-101565911D01*
X117803473Y-102148744D01*
X117803473Y-102244761D01*
X117091737Y-102956497D01*
X117105880Y-102970640D01*
X116926275Y-103150245D01*
X116912132Y-103136102D01*
X116897990Y-103150245D01*
X116718385Y-102970640D01*
X116732527Y-102956497D01*
X116061306Y-102285276D01*
X115836799Y-102285276D01*
X115541708Y-102576023D01*
X115462355Y-102672714D01*
X115403391Y-102783028D01*
X115367082Y-102902726D01*
X115361312Y-102961311D01*
X115302726Y-102967081D01*
X115183028Y-103003391D01*
X115072714Y-103062356D01*
X114976023Y-103141708D01*
X113986073Y-104131658D01*
X113906721Y-104228349D01*
X113847756Y-104338663D01*
X113811446Y-104458361D01*
X113799186Y-104582843D01*
X113811446Y-104707325D01*
X113842905Y-104811031D01*
X113697488Y-104766919D01*
X113530330Y-104750455D01*
X113363172Y-104766919D01*
X113202438Y-104815677D01*
X113054305Y-104894856D01*
X112924465Y-105001412D01*
X112802742Y-105123136D01*
X112675408Y-104995802D01*
X112800826Y-104912000D01*
X113167000Y-104545826D01*
X113454701Y-104115251D01*
X113652873Y-103636822D01*
X113753900Y-103128924D01*
X113753900Y-102925706D01*
X114798442Y-101881164D01*
X116240911Y-101881164D01*
X116240911Y-102105671D01*
X116912132Y-102776892D01*
X117654064Y-102034960D01*
X117654064Y-101938943D01*
X118206701Y-101386306D01*
X117650385Y-100829990D01*
X117425878Y-100829990D01*
X117289886Y-100961637D01*
X117210533Y-101058329D01*
X117151569Y-101168643D01*
X117115260Y-101288341D01*
X117103175Y-101411038D01*
X116982843Y-101399186D01*
X116858361Y-101411447D01*
X116738663Y-101447756D01*
X116628349Y-101506720D01*
X116531658Y-101586073D01*
X116240911Y-101881164D01*
X114798442Y-101881164D01*
X116260396Y-100419210D01*
X117739604Y-100419210D01*
X117829990Y-100509596D01*
G36*
X24848711Y-18249632D02*
G01*
X24698255Y-18203992D01*
X24525001Y-18186928D01*
X23224999Y-18186928D01*
X23051745Y-18203992D01*
X22885149Y-18254528D01*
X22731613Y-18336595D01*
X22597038Y-18447038D01*
X22486595Y-18581613D01*
X22404528Y-18735149D01*
X22353992Y-18901745D01*
X22336928Y-19074999D01*
X22336928Y-19775001D01*
X22353992Y-19948255D01*
X22404528Y-20114851D01*
X22486595Y-20268387D01*
X22597038Y-20402962D01*
X22731613Y-20513405D01*
X22885149Y-20595472D01*
X23051745Y-20646008D01*
X23224999Y-20663072D01*
X24525001Y-20663072D01*
X24698255Y-20646008D01*
X24864851Y-20595472D01*
X25009400Y-20518209D01*
X25009401Y-23931792D01*
X24864851Y-23854528D01*
X24698255Y-23803992D01*
X24525001Y-23786928D01*
X23224999Y-23786928D01*
X23051745Y-23803992D01*
X22885149Y-23854528D01*
X22731613Y-23936595D01*
X22597038Y-24047038D01*
X22490600Y-24176733D01*
X22490600Y-22942733D01*
X22494286Y-22905310D01*
X22484079Y-22801675D01*
X22479574Y-22755932D01*
X22436002Y-22612295D01*
X22365246Y-22479919D01*
X22365245Y-22479917D01*
X22293879Y-22392958D01*
X22270022Y-22363888D01*
X22240953Y-22340032D01*
X21406206Y-21505285D01*
X21397929Y-21421255D01*
X21356398Y-21284342D01*
X21364502Y-21269180D01*
X21400812Y-21149482D01*
X21413072Y-21025000D01*
X21410000Y-21010750D01*
X21251250Y-20852000D01*
X20936093Y-20852000D01*
X20926582Y-20846916D01*
X20778745Y-20802071D01*
X20625000Y-20786928D01*
X19375000Y-20786928D01*
X19221255Y-20802071D01*
X19073418Y-20846916D01*
X19063907Y-20852000D01*
X18748750Y-20852000D01*
X18590000Y-21010750D01*
X18586928Y-21025000D01*
X18599188Y-21149482D01*
X18635498Y-21269180D01*
X18643602Y-21284342D01*
X18602071Y-21421255D01*
X18586928Y-21575000D01*
X18586928Y-21875000D01*
X18602071Y-22028745D01*
X18646916Y-22176582D01*
X18672796Y-22225000D01*
X18646916Y-22273418D01*
X18602071Y-22421255D01*
X18586928Y-22575000D01*
X18586928Y-22875000D01*
X18602071Y-23028745D01*
X18646916Y-23176582D01*
X18672796Y-23225000D01*
X18646916Y-23273418D01*
X18602071Y-23421255D01*
X18586928Y-23575000D01*
X18586928Y-23875000D01*
X18602071Y-24028745D01*
X18646916Y-24176582D01*
X18719742Y-24312829D01*
X18817749Y-24432251D01*
X18937171Y-24530258D01*
X19073418Y-24603084D01*
X19174501Y-24633747D01*
X19174500Y-26016168D01*
X19116881Y-26033647D01*
X18973472Y-26110301D01*
X18937009Y-26140226D01*
X18847774Y-26213459D01*
X18821921Y-26244961D01*
X18592383Y-26474500D01*
X17727000Y-26474500D01*
X17727000Y-20425000D01*
X18586928Y-20425000D01*
X18590000Y-20439250D01*
X18748750Y-20598000D01*
X19873000Y-20598000D01*
X19873000Y-19948750D01*
X20127000Y-19948750D01*
X20127000Y-20598000D01*
X21251250Y-20598000D01*
X21410000Y-20439250D01*
X21413072Y-20425000D01*
X21400812Y-20300518D01*
X21364502Y-20180820D01*
X21305537Y-20070506D01*
X21226185Y-19973815D01*
X21129494Y-19894463D01*
X21019180Y-19835498D01*
X20899482Y-19799188D01*
X20775000Y-19786928D01*
X20285750Y-19790000D01*
X20127000Y-19948750D01*
X19873000Y-19948750D01*
X19714250Y-19790000D01*
X19225000Y-19786928D01*
X19100518Y-19799188D01*
X18980820Y-19835498D01*
X18870506Y-19894463D01*
X18773815Y-19973815D01*
X18694463Y-20070506D01*
X18635498Y-20180820D01*
X18599188Y-20300518D01*
X18586928Y-20425000D01*
X17727000Y-20425000D01*
X17727000Y-17327000D01*
X23926079Y-17327000D01*
X24848711Y-18249632D01*
X24848711Y-18249632D01*
G37*
X24848711Y-18249632D02*
X24698255Y-18203992D01*
X24525001Y-18186928D01*
X23224999Y-18186928D01*
X23051745Y-18203992D01*
X22885149Y-18254528D01*
X22731613Y-18336595D01*
X22597038Y-18447038D01*
X22486595Y-18581613D01*
X22404528Y-18735149D01*
X22353992Y-18901745D01*
X22336928Y-19074999D01*
X22336928Y-19775001D01*
X22353992Y-19948255D01*
X22404528Y-20114851D01*
X22486595Y-20268387D01*
X22597038Y-20402962D01*
X22731613Y-20513405D01*
X22885149Y-20595472D01*
X23051745Y-20646008D01*
X23224999Y-20663072D01*
X24525001Y-20663072D01*
X24698255Y-20646008D01*
X24864851Y-20595472D01*
X25009400Y-20518209D01*
X25009401Y-23931792D01*
X24864851Y-23854528D01*
X24698255Y-23803992D01*
X24525001Y-23786928D01*
X23224999Y-23786928D01*
X23051745Y-23803992D01*
X22885149Y-23854528D01*
X22731613Y-23936595D01*
X22597038Y-24047038D01*
X22490600Y-24176733D01*
X22490600Y-22942733D01*
X22494286Y-22905310D01*
X22484079Y-22801675D01*
X22479574Y-22755932D01*
X22436002Y-22612295D01*
X22365246Y-22479919D01*
X22365245Y-22479917D01*
X22293879Y-22392958D01*
X22270022Y-22363888D01*
X22240953Y-22340032D01*
X21406206Y-21505285D01*
X21397929Y-21421255D01*
X21356398Y-21284342D01*
X21364502Y-21269180D01*
X21400812Y-21149482D01*
X21413072Y-21025000D01*
X21410000Y-21010750D01*
X21251250Y-20852000D01*
X20936093Y-20852000D01*
X20926582Y-20846916D01*
X20778745Y-20802071D01*
X20625000Y-20786928D01*
X19375000Y-20786928D01*
X19221255Y-20802071D01*
X19073418Y-20846916D01*
X19063907Y-20852000D01*
X18748750Y-20852000D01*
X18590000Y-21010750D01*
X18586928Y-21025000D01*
X18599188Y-21149482D01*
X18635498Y-21269180D01*
X18643602Y-21284342D01*
X18602071Y-21421255D01*
X18586928Y-21575000D01*
X18586928Y-21875000D01*
X18602071Y-22028745D01*
X18646916Y-22176582D01*
X18672796Y-22225000D01*
X18646916Y-22273418D01*
X18602071Y-22421255D01*
X18586928Y-22575000D01*
X18586928Y-22875000D01*
X18602071Y-23028745D01*
X18646916Y-23176582D01*
X18672796Y-23225000D01*
X18646916Y-23273418D01*
X18602071Y-23421255D01*
X18586928Y-23575000D01*
X18586928Y-23875000D01*
X18602071Y-24028745D01*
X18646916Y-24176582D01*
X18719742Y-24312829D01*
X18817749Y-24432251D01*
X18937171Y-24530258D01*
X19073418Y-24603084D01*
X19174501Y-24633747D01*
X19174500Y-26016168D01*
X19116881Y-26033647D01*
X18973472Y-26110301D01*
X18937009Y-26140226D01*
X18847774Y-26213459D01*
X18821921Y-26244961D01*
X18592383Y-26474500D01*
X17727000Y-26474500D01*
X17727000Y-20425000D01*
X18586928Y-20425000D01*
X18590000Y-20439250D01*
X18748750Y-20598000D01*
X19873000Y-20598000D01*
X19873000Y-19948750D01*
X20127000Y-19948750D01*
X20127000Y-20598000D01*
X21251250Y-20598000D01*
X21410000Y-20439250D01*
X21413072Y-20425000D01*
X21400812Y-20300518D01*
X21364502Y-20180820D01*
X21305537Y-20070506D01*
X21226185Y-19973815D01*
X21129494Y-19894463D01*
X21019180Y-19835498D01*
X20899482Y-19799188D01*
X20775000Y-19786928D01*
X20285750Y-19790000D01*
X20127000Y-19948750D01*
X19873000Y-19948750D01*
X19714250Y-19790000D01*
X19225000Y-19786928D01*
X19100518Y-19799188D01*
X18980820Y-19835498D01*
X18870506Y-19894463D01*
X18773815Y-19973815D01*
X18694463Y-20070506D01*
X18635498Y-20180820D01*
X18599188Y-20300518D01*
X18586928Y-20425000D01*
X17727000Y-20425000D01*
X17727000Y-17327000D01*
X23926079Y-17327000D01*
X24848711Y-18249632D01*
M02*
