M48
INCH
T1C0.0118
T2C0.0157
T3C0.0197
T4C0.0236
T5C0.0256
T6C0.0394
T7C0.0591
T8C0.1063
%
G90
G05
T1
X0.057Y-4.2616
X0.057Y-3.0378
X0.0574Y-3.9913
X0.0576Y-2.8509
X0.0576Y-3.7821
X0.0576Y-2.7149
X0.0583Y-0.257
X0.0584Y-1.0321
X0.059Y-4.9915
X0.0592Y-3.5795
X0.0593Y-1.774
X0.0594Y-3.6433
X0.0599Y-0.0189
X0.06Y-2.3741
X0.0603Y-4.594
X0.0607Y-3.9186
X0.0612Y-2.3014
X0.0615Y-3.3801
X0.062Y-4.1927
X0.0624Y-3.1131
X0.0631Y-1.7081
X0.0632Y-1.2938
X0.0633Y-1.5655
X0.0639Y-1.8428
X0.0642Y-2.9116
X0.0643Y-4.7959
X0.0643Y-4.9321
X0.0644Y-1.1634
X0.0648Y-3.3095
X0.0655Y-2.1682
X0.0656Y-4.1295
X0.0658Y-4.3203
X0.066Y-4.382
X0.0663Y-1.4912
X0.0665Y-4.0597
X0.0666Y-2.0396
X0.0666Y-1.4332
X0.0672Y-4.8632
X0.0676Y-3.1852
X0.0677Y-1.2246
X0.0678Y-1.3684
X0.068Y-2.4345
X0.0684Y-1.9
X0.0687Y-3.4485
X0.069Y-2.7685
X0.0691Y-3.7179
X0.0691Y-2.5679
X0.0692Y-4.4555
X0.0699Y-3.8524
X0.0704Y-2.6417
X0.0705Y-2.2373
X0.0706Y-0.0891
X0.0707Y-1.964
X0.0708Y-4.6602
X0.0709Y-1.6414
X0.0711Y-4.7319
X0.0711Y-2.9752
X0.072Y-3.251
X0.0723Y-3.509
X0.0729Y-2.107
X0.0731Y-1.0976
X0.0732Y-4.5242
X0.0734Y-2.5065
X0.0914Y-3.0191
X0.0915Y-2.5395
X0.0918Y-1.7284
X0.092Y-1.2624
X0.0925Y-0.0474
X0.093Y-4.1563
X0.0931Y-4.958
X0.0931Y-2.616
X0.0935Y-2.735
X0.0943Y-1.4676
X0.0945Y-4.8898
X0.0946Y-2.6794
X0.0952Y-4.8332
X0.0957Y-1.5258
X0.0959Y-3.2783
X0.0968Y-4.2947
X0.0972Y-2.0052
X0.0975Y-1.2018
X0.0977Y-4.0892
X0.0978Y-3.5496
X0.099Y-3.7579
X0.0994Y-4.2244
X0.1003Y-3.4857
X0.1004Y-2.4755
X0.1008Y-1.1205
X0.101Y-1.0614
X0.1015Y-1.7933
X0.1015Y-3.3482
X0.1016Y-4.4906
X0.1018Y-3.413
X0.1019Y-4.0217
X0.102Y-2.2107
X0.1037Y-1.9287
X0.1046Y-3.2174
X0.1057Y-4.7536
X0.106Y-2.2727
X0.1063Y-1.8683
X0.1071Y-3.9538
X0.1242Y-3.4558
X0.1264Y-0.0249
X0.1271Y-2.7008
X0.1279Y-3.9912
X0.128Y-2.6367
X0.1287Y-0.0861
X0.1291Y-1.0873
X0.1293Y-2.513
X0.1301Y-1.7684
X0.1338Y-4.869
X0.1347Y-4.1859
X0.135Y-4.788
X0.1352Y-3.2465
X0.1355Y-1.1577
X0.1363Y-4.7188
X0.1371Y-4.0481
X0.1384Y-4.1243
X0.1386Y-4.9355
X0.1386Y-3.3103
X0.1396Y-2.5791
X0.14Y-3.3866
X0.1401Y-1.9079
X0.1404Y-1.8323
X0.1581Y-1.875
X0.1625Y-4.9562
X0.1632Y-0.0613
X0.1633Y-4.1524
X0.1635Y-2.6023
X0.1636Y-1.1226
X0.1638Y-2.5362
X0.1641Y-4.023
X0.1646Y-3.3555
X0.1648Y-3.2149
X0.1679Y-4.8912
X0.1681Y-3.2813
X0.1685Y-2.4746
X0.1692Y-4.7583
X0.17Y-4.8251
X0.1708Y-1.797
X0.1717Y-4.087
X0.1717Y-1.7354
X0.1719Y-2.6817
X0.173Y-3.4231
X0.1929Y-1.8316
X0.1937Y-2.5814
X0.194Y-1.9019
X0.1949Y-2.6473
X0.1959Y-0.0158
X0.1973Y-4.7992
X0.1977Y-4.7306
X0.1985Y-0.0831
X0.1994Y-2.5101
X0.1994Y-4.8622
X0.1995Y-3.3788
X0.2001Y-4.0508
X0.2012Y-3.246
X0.2034Y-4.1159
X0.2035Y-3.3068
X0.2054Y-3.9834
X0.2067Y-1.1645
X0.207Y-4.9225
X0.2071Y-1.766
X0.2253Y-3.2132
X0.2268Y-2.6138
X0.2274Y-4.0866
X0.2279Y-1.8017
X0.2281Y-1.868
X0.2286Y-4.824
X0.2291Y-4.901
X0.231Y-2.5415
X0.2318Y-4.1465
X0.2327Y-1.7376
X0.2329Y-2.4685
X0.2365Y-4.0165
X0.2381Y-2.6694
X0.2383Y-1.1325
X0.2385Y-3.4184
X0.2388Y-4.9573
X0.2393Y-3.3422
X0.24Y-4.7623
X0.2416Y-3.2796
X0.2586Y-4.0506
X0.2613Y-1.1553
X0.2628Y-2.5821
X0.2641Y-2.6431
X0.2661Y-3.9944
X0.268Y-3.2507
X0.2682Y-1.7737
X0.2686Y-0.8192
X0.2687Y-1.8408
X0.27Y-4.9244
X0.2721Y-1.9016
X0.2723Y-4.7987
X0.2726Y-4.854
X0.2739Y-3.3081
X0.2748Y-4.1166
X0.2748Y-2.499
X0.2749Y-3.375
X0.2935Y-4.8326
X0.2939Y-1.1331
X0.294Y-4.1537
X0.2942Y-3.284
X0.2954Y-4.0828
X0.2966Y-1.8054
X0.2966Y-2.6048
X0.2976Y-3.4217
X0.2981Y-3.3477
X0.2983Y-2.5471
X0.2987Y-1.8755
X0.2996Y-0.1811
X0.3037Y-2.6804
X0.3067Y-4.019
X0.3068Y-1.929
X0.3086Y-4.8911
X0.3259Y-3.3146
X0.3259Y-1.8319
X0.3262Y-4.1252
X0.3272Y-2.6442
X0.3294Y-4.049
X0.331Y-1.7597
X0.3313Y-1.9024
X0.3316Y-4.8606
X0.332Y-2.701
X0.3331Y-1.1684
X0.3332Y-1.9646
X0.3335Y-4.1823
X0.3352Y-0.2204
X0.3369Y-1.2331
X0.3392Y-4.9352
X0.3407Y-3.4478
X0.3416Y-2.5749
X0.3417Y-3.3748
X0.3608Y-2.6786
X0.361Y-3.4826
X0.3618Y-4.8207
X0.3623Y-1.8004
X0.3623Y-4.1496
X0.3634Y-1.201
X0.3644Y-2.537
X0.3655Y-3.3491
X0.3658Y-2.6137
X0.3662Y-3.2731
X0.3662Y-4.2275
X0.3669Y-1.9331
X0.3683Y-4.0196
X0.3699Y-0.1905
X0.3705Y-4.8918
X0.3748Y-4.0927
X0.3752Y-1.8645
X0.3754Y-3.418
X0.3757Y-0.8628
X0.3937Y-0.8984
X0.3973Y-2.5802
X0.4024Y-1.8346
X0.4029Y-4.0472
X0.4032Y-4.9272
X0.404Y-3.319
X0.4059Y-4.8614
X0.4078Y-1.7698
X0.429Y-4.0239
X0.4298Y-3.2876
X0.4317Y-4.8942
X0.4334Y-0.8658
X0.4338Y-2.5107
X0.4365Y-4.8231
X0.4366Y-1.8048
X0.4648Y-0.8996
X0.4672Y-4.9357
X0.4675Y-0.9647
X0.4754Y-4.8594
X0.4943Y-4.7299
X0.4958Y-0.8542
X0.4981Y-0.9296
X0.4997Y-4.8889
X0.5064Y-4.8248
X0.5293Y-0.9615
X0.5308Y-1.8051
X0.5312Y-4.049
X0.5341Y-3.3185
X0.5345Y-2.4689
X0.5346Y-2.5355
X0.5347Y-1.7394
X0.5371Y-0.8884
X0.5392Y-4.8682
X0.54Y-0.8182
X0.5404Y-3.2469
X0.5409Y-4.936
X0.5427Y-3.987
X0.5429Y-2.7841
X0.5615Y-1.2631
X0.5622Y-4.8293
X0.5631Y-3.282
X0.5638Y-0.8555
X0.5674Y-1.7668
X0.5693Y-0.0835
X0.5693Y-4.8946
X0.5695Y-2.0015
X0.5696Y-4.0884
X0.5705Y-3.21
X0.5715Y-2.5775
X0.5717Y-2.672
X0.572Y-3.3531
X0.5721Y-2.5109
X0.5724Y-4.0144
X0.5726Y-4.7341
X0.5735Y-4.26
X0.5744Y-1.8344
X0.5753Y-2.7467
X0.5779Y-3.5147
X0.5952Y-3.7174
X0.5956Y-4.0508
X0.5958Y-2.6105
X0.597Y-1.1333
X0.5973Y-2.9782
X0.5974Y-4.1138
X0.5975Y-1.9425
X0.5976Y-3.2535
X0.5981Y-1.1916
X0.6006Y-3.9902
X0.6011Y-2.7702
X0.603Y-2.7131
X0.6034Y-1.797
X0.6036Y-0.1129
X0.6037Y-3.312
X0.6039Y-1.7407
X0.6041Y-4.8547
X0.6071Y-4.1953
X0.6072Y-2.4819
X0.6072Y-3.4476
X0.6075Y-4.9199
X0.6095Y-0.8957
X0.6096Y-2.5446
X0.6098Y-3.3762
X0.6106Y-1.8687
X0.6288Y-1.8361
X0.6307Y-0.161
X0.6312Y-4.1492
X0.6313Y-3.2813
X0.6317Y-2.5685
X0.6324Y-3.3518
X0.6358Y-3.4202
X0.6361Y-1.966
X0.6391Y-1.469
X0.6392Y-0.8592
X0.6392Y-2.7349
X0.6396Y-0.092
X0.6397Y-2.0387
X0.6398Y-4.4843
X0.6411Y-1.9023
X0.6411Y-1.1692
X0.6412Y-4.2231
X0.6414Y-4.7307
X0.6428Y-4.0834
X0.643Y-4.2959
X0.6433Y-3.4839
X0.6438Y-2.6502
X0.6446Y-1.2224
X0.6449Y-0.6897
X0.6626Y-4.4544
X0.664Y-3.3146
X0.6649Y-2.0673
X0.6654Y-4.0467
X0.6669Y-3.443
X0.6669Y-2.6002
X0.6677Y-0.1906
X0.6678Y-0.8943
X0.6687Y-2.2122
X0.6689Y-3.6504
X0.669Y-3.7213
X0.67Y-2.0108
X0.6709Y-4.5311
X0.6716Y-1.1904
X0.6717Y-3.3775
X0.6725Y-4.1889
X0.673Y-1.8736
X0.6733Y-0.3557
X0.6733Y-1.2577
X0.6739Y-4.3884
X0.6739Y-0.1243
X0.6747Y-4.114
X0.6752Y-2.7812
X0.6753Y-1.9336
X0.6753Y-1.8091
X0.6754Y-4.3225
X0.6758Y-1.3928
X0.6761Y-2.6695
X0.6764Y-4.2621
X0.6767Y-3.5835
X0.6767Y-2.534
X0.6769Y-2.9098
X0.677Y-2.8372
X0.6779Y-1.3262
X0.6779Y-3.5162
X0.6782Y-2.1398
X0.6786Y-0.2861
X0.696Y-2.1709
X0.696Y-4.091
X0.6962Y-0.222
X0.6968Y-2.8745
X0.6979Y-3.4806
X0.6982Y-2.0432
X0.6986Y-1.9013
X0.6989Y-4.2967
X0.6992Y-0.5934
X0.6993Y-1.2948
X0.6994Y-0.9291
X0.6995Y-3.553
X0.7001Y-2.6479
X0.7002Y-0.3285
X0.7004Y-1.8388
X0.7007Y-1.3581
X0.7008Y-3.6246
X0.7018Y-4.3562
X0.702Y-4.2231
X0.7022Y-2.098
X0.7025Y-0.656
X0.7026Y-0.1503
X0.7036Y-4.4832
X0.7043Y-2.9442
X0.706Y-2.8137
X0.706Y-3.4099
X0.7069Y-3.3515
X0.7079Y-2.5719
X0.709Y-2.7036
X0.7094Y-1.4307
X0.7102Y-0.8272
X0.7103Y-4.4178
X0.7109Y-4.1582
X0.7114Y-1.2224
X0.7114Y-4.5563
X0.7115Y-3.2859
X0.7123Y-1.9635
X0.7123Y-0.0899
X0.7124Y-3.6809
X0.7298Y-2.0728
X0.7298Y-4.1966
X0.7299Y-4.3878
X0.7303Y-1.3351
X0.7304Y-1.8733
X0.7306Y-2.6684
X0.7308Y-4.2523
X0.7315Y-0.3557
X0.7317Y-0.6289
X0.732Y-3.7251
X0.7321Y-2.1399
X0.7327Y-1.4687
X0.7341Y-4.0519
X0.7342Y-0.699
X0.7342Y-2.1982
X0.7353Y-2.8454
X0.7362Y-4.4504
X0.7364Y-1.9428
X0.7364Y-0.1151
X0.7366Y-3.0725
X0.7369Y-4.5315
X0.7375Y-1.7984
X0.7375Y-1.2558
X0.7377Y-3.4505
X0.7382Y-3.3802
X0.7383Y-2.9102
X0.7388Y-2.5438
X0.7392Y-4.5846
X0.7398Y-3.5225
X0.7402Y-2.3445
X0.7402Y-1.6071
X0.7404Y-2.7447
X0.7405Y-3.855
X0.7418Y-3.6581
X0.7419Y-4.3254
X0.7419Y-2.0016
X0.7433Y-2.6123
X0.7436Y-4.1155
X0.7439Y-3.3225
X0.744Y-0.2567
X0.7442Y-0.1791
X0.7449Y-3.5812
X0.7455Y-1.4027
X0.7634Y-2.6476
X0.7642Y-1.8309
X0.7646Y-4.0281
X0.7647Y-1.5018
X0.7647Y-1.439
X0.7654Y-4.0899
X0.7654Y-2.9487
X0.7669Y-1.7696
X0.7669Y-1.635
X0.7675Y-1.5709
X0.7676Y-0.6654
X0.7678Y-3.4074
X0.7679Y-3.889
X0.7682Y-4.7523
X0.7682Y-4.4978
X0.7685Y-2.2338
X0.7694Y-2.499
X0.7701Y-2.0957
X0.7701Y-1.2981
X0.7703Y-3.2844
X0.7707Y-3.6812
X0.7711Y-4.2174
X0.7715Y-2.885
X0.7716Y-2.3791
X0.7716Y-1.2312
X0.7718Y-3.0198
X0.7719Y-2.0334
X0.7719Y-4.5516
X0.7721Y-3.1094
X0.7723Y-0.2866
X0.7725Y-2.5685
X0.7729Y-3.4754
X0.7733Y-2.7752
X0.7737Y-3.5551
X0.7737Y-0.5854
X0.7748Y-4.632
X0.7751Y-4.4256
X0.7753Y-1.3658
X0.7755Y-4.1473
X0.776Y-3.7476
X0.7762Y-2.7055
X0.7763Y-0.1507
X0.7771Y-1.9742
X0.7772Y-3.3472
X0.7773Y-0.2228
X0.7776Y-4.9205
X0.7778Y-2.1628
X0.7778Y-2.2987
X0.7779Y-0.0907
X0.7781Y-4.3527
X0.7785Y-3.6205
X0.779Y-4.2832
X0.7793Y-3.8121
X0.7795Y-1.9005
X0.7966Y-0.6908
X0.7976Y-0.2469
X0.798Y-0.396
X0.7991Y-0.1837
X0.8029Y-0.1148
X0.8105Y-0.3146
X0.8117Y-0.6188
X0.8345Y-4.9308
X0.8367Y-0.2208
X0.8369Y-0.3557
X0.841Y-0.288
X0.8411Y-0.6632
X0.8427Y-0.089
X0.844Y-0.1605
X0.8466Y-0.4265
X0.8641Y-0.3258
X0.8647Y-0.1803
X0.8648Y-0.3815
X0.8674Y-0.1202
X0.869Y-0.249
X0.8778Y-0.4582
X0.8996Y-0.4877
X0.8999Y-0.2159
X0.9039Y-0.3474
X0.9075Y-0.0785
X0.9086Y-0.4201
X0.9089Y-4.9288
X0.9135Y-0.1517
X0.9138Y-0.2875
X0.9345Y-0.1911
X0.9353Y-0.3911
X0.9367Y-0.4494
X0.9391Y-0.3299
X0.9419Y-0.8282
X0.943Y-0.5214
X0.9431Y-0.1189
X0.9435Y-0.8978
X0.9439Y-0.2484
X0.966Y-0.2803
X0.9688Y-0.557
X0.9693Y-0.1471
X0.9711Y-0.4891
X0.9731Y-0.4302
X0.9757Y-0.8593
X0.9768Y-0.084
X0.9769Y-0.2253
X0.978Y-0.3476
X0.9799Y-0.9338
X0.9984Y-3.8817
X0.999Y-3.744
X0.999Y-0.3181
X0.9998Y-3.8168
X0.9999Y-3.4811
X1.0002Y-2.1316
X1.0016Y-0.5925
X1.0016Y-1.8634
X1.0017Y-2.7427
X1.0018Y-3.2838
X1.0028Y-4.3258
X1.0029Y-4.0477
X1.0034Y-2.6021
X1.0037Y-2.3466
X1.0039Y-3.3545
X1.0044Y-0.1223
X1.0045Y-3.6858
X1.005Y-2.8115
X1.0056Y-3.6133
X1.0064Y-1.9381
X1.0065Y-1.3672
X1.0067Y-2.5467
X1.0067Y-4.1822
X1.0075Y-1.5742
X1.0079Y-1.2278
X1.0083Y-1.2929
X1.0091Y-2.945
X1.0096Y-2.8807
X1.0097Y-2.0679
X1.0098Y-2.1979
X1.0101Y-0.2523
X1.0101Y-0.1928
X1.0106Y-3.0827
X1.0108Y-4.2568
X1.0118Y-1.428
X1.0121Y-2.6713
X1.0123Y-2.2723
X1.0123Y-3.4108
X1.0124Y-1.8029
X1.0125Y-3.1483
X1.0127Y-1.6315
X1.013Y-0.3848
X1.0132Y-1.5035
X1.0133Y-4.1192
X1.0138Y-3.0045
X1.0141Y-3.5568
X1.0146Y-2.0049
X1.0147Y-0.5223
X1.0151Y-0.4532
X1.0321Y-2.906
X1.033Y-2.9853
X1.0337Y-2.6384
X1.0339Y-4.152
X1.0341Y-1.5345
X1.0343Y-3.7144
X1.0344Y-3.3063
X1.0347Y-1.8329
X1.0348Y-0.3602
X1.0348Y-0.4279
X1.0351Y-2.1638
X1.0353Y-3.3775
X1.0355Y-2.3767
X1.0355Y-1.2623
X1.0357Y-0.5582
X1.0358Y-1.972
X1.0359Y-1.4571
X1.036Y-0.1468
X1.037Y-2.3005
X1.0375Y-2.7009
X1.0376Y-4.2911
X1.0379Y-0.086
X1.0394Y-0.2936
X1.0396Y-3.584
X1.0398Y-1.3957
X1.0399Y-0.4889
X1.0404Y-2.1114
X1.0419Y-1.3248
X1.0428Y-1.9022
X1.0428Y-2.2363
X1.043Y-3.5107
X1.0433Y-3.0488
X1.0434Y-0.6241
X1.0439Y-4.0958
X1.0441Y-0.2199
X1.0442Y-3.1129
X1.0443Y-1.5965
X1.0444Y-3.8603
X1.0448Y-2.5803
X1.0448Y-3.7788
X1.0467Y-2.4991
X1.0474Y-4.2201
X1.0474Y-2.8446
X1.048Y-3.4445
X1.0484Y-2.0326
X1.0485Y-3.6535
X1.0487Y-2.7803
X1.0663Y-3.3522
X1.0669Y-3.68
X1.067Y-3.49
X1.067Y-3.422
X1.0674Y-3.2791
X1.0677Y-3.548
X1.0683Y-4.3263
X1.0689Y-4.0521
X1.0699Y-2.072
X1.0707Y-1.7981
X1.0712Y-2.6799
X1.0718Y-2.6153
X1.0722Y-2.2022
X1.0724Y-2.8146
X1.0728Y-2.739
X1.073Y-2.0079
X1.0735Y-2.2741
X1.0738Y-4.1941
X1.0739Y-2.1357
X1.074Y-1.0023
X1.0741Y-1.234
X1.0744Y-3.0095
X1.0747Y-2.3418
X1.0753Y-3.7436
X1.0753Y-0.866
X1.0759Y-0.9281
X1.0767Y-2.5392
X1.0771Y-2.9366
X1.0772Y-0.2518
X1.0774Y-2.4109
X1.0774Y-4.1205
X1.0775Y-0.1928
X1.0778Y-3.153
X1.078Y-1.8734
X1.0781Y-3.6131
X1.0781Y-2.8803
X1.0783Y-4.2545
X1.079Y-1.9325
X1.0793Y-0.1247
X1.0798Y-1.0607
X1.0812Y-3.0753
X1.0996Y-2.0395
X1.0999Y-2.5023
X1.1Y-2.0982
X1.1001Y-3.7792
X1.101Y-2.7044
X1.1014Y-4.8612
X1.1016Y-3.5146
X1.1023Y-4.0928
X1.1026Y-1.0989
X1.1029Y-1.9731
X1.1031Y-3.4512
X1.1034Y-0.8997
X1.1035Y-3.6561
X1.1037Y-4.022
X1.1044Y-2.6384
X1.1056Y-2.3705
X1.1059Y-2.5709
X1.1061Y-2.1781
X1.1061Y-3.1187
X1.1071Y-3.3111
X1.1086Y-1.9014
X1.1091Y-3.3891
X1.1093Y-2.7828
X1.1101Y-3.7181
X1.1101Y-0.9605
X1.1106Y-0.1565
X1.1109Y-2.84
X1.1111Y-2.3088
X1.1112Y-3.5781
X1.1114Y-3.052
X1.1124Y-0.08
X1.113Y-1.7688
X1.1132Y-2.9148
X1.1134Y-2.9736
X1.1139Y-4.2155
X1.1147Y-4.149
X1.1148Y-1.8327
X1.1156Y-0.2182
X1.1156Y-0.8337
X1.1158Y-2.236
X1.1159Y-4.2967
X1.1159Y-1.0264
X1.1331Y-1.9959
X1.1333Y-3.3414
X1.1334Y-4.263
X1.1336Y-2.6698
X1.1337Y-3.0768
X1.134Y-0.9275
X1.1345Y-2.212
X1.1352Y-4.193
X1.1357Y-2.9407
X1.136Y-2.6047
X1.1363Y-3.4783
X1.1366Y-3.6866
X1.137Y-2.2747
X1.1373Y-2.3435
X1.1374Y-0.1886
X1.1378Y-3.7515
X1.138Y-1.8055
X1.1381Y-3.4154
X1.1381Y-1.8661
X1.1383Y-0.8649
X1.1393Y-3.614
X1.1404Y-4.0554
X1.1409Y-3.0124
X1.1409Y-3.1539
X1.1409Y-2.8821
X1.1423Y-3.55
X1.1425Y-0.9956
X1.1432Y-2.1432
X1.1448Y-0.1148
X1.1453Y-4.1198
X1.1456Y-1.0637
X1.1457Y-2.7503
X1.1458Y-0.4888
X1.1461Y-2.0748
X1.1485Y-3.2803
X1.1486Y-2.5408
X1.1489Y-1.9323
X1.149Y-1.4971
X1.1491Y-2.8059
X1.1495Y-2.413
X1.1667Y-2.0428
X1.1669Y-4.2189
X1.1672Y-4.088
X1.1676Y-2.2312
X1.1683Y-0.1583
X1.1685Y-1.529
X1.1687Y-4.8575
X1.1687Y-1.0222
X1.1689Y-2.1634
X1.1694Y-3.0463
X1.1696Y-2.5733
X1.1696Y-3.6478
X1.1698Y-2.3733
X1.1698Y-1.7689
X1.17Y-3.7905
X1.1711Y-3.3071
X1.1718Y-3.3819
X1.1722Y-1.0975
X1.1722Y-0.5909
X1.1723Y-1.9612
X1.1727Y-2.7054
X1.1732Y-2.6359
X1.1733Y-1.8403
X1.174Y-3.8908
X1.1742Y-0.6541
X1.1747Y-0.9584
X1.1748Y-1.5921
X1.1748Y-1.8962
X1.1753Y-2.7685
X1.1753Y-2.1038
X1.1754Y-3.4475
X1.176Y-3.7117
X1.1761Y-4.1558
X1.1765Y-2.8361
X1.1769Y-0.091
X1.177Y-2.909
X1.178Y-3.1137
X1.1781Y-0.5186
X1.1787Y-1.4649
X1.1788Y-2.3121
X1.1796Y-2.9817
X1.1796Y-0.7586
X1.1807Y-0.8944
X1.1818Y-0.8224
X1.183Y-1.675
X1.2008Y-3.9206
X1.2008Y-3.0825
X1.201Y-3.7533
X1.2014Y-0.7914
X1.2014Y-2.1304
X1.2022Y-2.203
X1.2025Y-1.8726
X1.2025Y-0.9866
X1.2027Y-1.931
X1.2031Y-0.1123
X1.2031Y-1.0687
X1.2037Y-2.5484
X1.2043Y-2.2735
X1.2044Y-3.2749
X1.2053Y-0.6246
X1.2064Y-2.607
X1.2075Y-0.8643
X1.2078Y-0.5499
X1.208Y-1.998
X1.2083Y-4.1848
X1.2086Y-1.5022
X1.2097Y-2.3408
X1.2099Y-2.0776
X1.211Y-2.6809
X1.2113Y-1.5714
X1.2117Y-3.3551
X1.2118Y-1.6409
X1.2119Y-0.4867
X1.2132Y-3.1395
X1.2141Y-1.8073
X1.2146Y-2.7401
X1.2146Y-4.1239
X1.215Y-0.9222
X1.2156Y-3.0149
X1.2157Y-3.4218
X1.2159Y-3.6836
X1.2337Y-2.9746
X1.2348Y-0.5274
X1.2353Y-0.0903
X1.2354Y-0.5856
X1.2357Y-1.5343
X1.2363Y-3.3817
X1.2364Y-1.8358
X1.237Y-2.1723
X1.2374Y-3.1177
X1.2374Y-1.7593
X1.2376Y-1.8986
X1.2376Y-1.6003
X1.2382Y-1.0356
X1.2384Y-2.2319
X1.2391Y-3.7175
X1.2392Y-4.8645
X1.24Y-3.0432
X1.2413Y-2.1015
X1.2417Y-0.8908
X1.2421Y-1.0893
X1.2422Y-3.947
X1.2424Y-1.9632
X1.243Y-0.4494
X1.2432Y-0.9566
X1.2432Y-3.7921
X1.2446Y-0.6603
X1.2453Y-2.639
X1.2455Y-3.6523
X1.246Y-1.4695
X1.2485Y-2.5816
X1.2489Y-0.8324
X1.249Y-1.6653
X1.2493Y-0.757
X1.2494Y-3.3095
X1.2495Y-0.1571
X1.2498Y-4.5501
X1.2501Y-3.8897
X1.2502Y-2.0408
X1.2503Y-4.1494
X1.2677Y-2.5438
X1.2683Y-1.5613
X1.2684Y-1.9997
X1.2689Y-1.9289
X1.2702Y-1.8673
X1.2704Y-3.0852
X1.2719Y-1.6327
X1.2721Y-3.0064
X1.2727Y-1.0567
X1.273Y-3.6923
X1.2738Y-1.5013
X1.2738Y-0.1127
X1.2754Y-4.6509
X1.2755Y-4.1277
X1.2763Y-0.7899
X1.2766Y-1.7968
X1.2781Y-0.9284
X1.2786Y-2.6075
X1.2808Y-0.9898
X1.2808Y-0.5625
X1.282Y-0.6208
X1.2822Y-0.4858
X1.2831Y-0.8619
X1.3012Y-3.0531
X1.3036Y-2.975
X1.3039Y-1.9021
X1.3049Y-1.0238
X1.3054Y-1.5402
X1.3061Y-1.9655
X1.3063Y-0.8218
X1.3066Y-0.0865
X1.3072Y-0.1534
X1.3073Y-0.6582
X1.3074Y-1.0943
X1.3091Y-1.7662
X1.3097Y-2.6413
X1.3102Y-0.9664
X1.3109Y-1.666
X1.311Y-0.5855
X1.3112Y-3.1149
X1.3116Y-3.6568
X1.3122Y-4.8561
X1.3142Y-1.832
X1.3144Y-0.517
X1.3148Y-0.7645
X1.3154Y-0.8928
X1.3159Y-2.5669
X1.3169Y-1.5917
X1.3348Y-2.2456
X1.3359Y-0.8562
X1.3367Y-0.9969
X1.3372Y-1.8091
X1.3373Y-1.2218
X1.3374Y-2.6094
X1.3382Y-1.0585
X1.3396Y-0.185
X1.3397Y-0.7978
X1.3403Y-1.8645
X1.3406Y-0.5517
X1.3407Y-2.3002
X1.3427Y-0.1143
X1.3431Y-1.6414
X1.3432Y-0.9247
X1.3432Y-1.574
X1.3434Y-2.5131
X1.3441Y-2.3768
X1.3453Y-4.6669
X1.3457Y-4.1184
X1.3462Y-0.6309
X1.3685Y-2.4128
X1.3695Y-2.5404
X1.3706Y-1.8325
X1.3707Y-1.527
X1.3709Y-0.8319
X1.3714Y-0.6526
X1.3724Y-1.7626
X1.3731Y-1.6656
X1.3732Y-3.4807
X1.374Y-2.2637
X1.3744Y-0.079
X1.3749Y-0.9544
X1.3752Y-0.5254
X1.3757Y-0.8868
X1.3769Y-0.5911
X1.3788Y-1.0331
X1.379Y-0.7534
X1.3807Y-1.8996
X1.3825Y-1.5935
X1.3826Y-2.3412
X1.3828Y-4.8668
X1.3843Y-1.0889
X1.4024Y-2.2457
X1.4024Y-2.5139
X1.4033Y-3.0183
X1.4035Y-1.8686
X1.4036Y-0.549
X1.4039Y-2.3032
X1.4045Y-0.8652
X1.405Y-1.5723
X1.4079Y-4.5542
X1.4081Y-1.0014
X1.4092Y-0.6247
X1.4095Y-0.9296
X1.4098Y-1.6403
X1.411Y-2.3718
X1.4144Y-4.1242
X1.4154Y-1.8022
X1.4163Y-4.6578
X1.4164Y-1.0658
X1.4176Y-0.7909
X1.437Y-2.4078
X1.4385Y-1.8421
X1.4388Y-1.9011
X1.4389Y-2.5452
X1.4419Y-3.1078
X1.444Y-4.8644
X1.4473Y-2.2696
X1.448Y-3.0518
X1.4494Y-2.6826
X1.4515Y-2.3335
X1.4709Y-2.3098
X1.4722Y-3.0154
X1.4734Y-1.869
X1.4745Y-4.5542
X1.4745Y-2.503
X1.4746Y-3.1494
X1.477Y-4.6509
X1.4777Y-3.0727
X1.483Y-2.3653
X1.5039Y-3.1061
X1.5071Y-1.973
X1.508Y-1.9018
X1.5098Y-3.9944
X1.5098Y-4.8543
X1.5101Y-2.2696
X1.5159Y-2.4081
X1.5162Y-2.3464
X1.5169Y-3.912
X1.5172Y-3.281
X1.5184Y-3.0523
X1.5191Y-2.5383
X1.5374Y-0.7665
X1.538Y-1.4931
X1.5382Y-3.0764
X1.5389Y-1.031
X1.5393Y-2.3122
X1.5419Y-1.9383
X1.5438Y-1.5732
X1.5444Y-3.3219
X1.5445Y-4.5634
X1.5459Y-3.9467
X1.5468Y-2.499
X1.5475Y-0.888
X1.5491Y-3.0187
X1.5499Y-0.9548
X1.55Y-0.4949
X1.5506Y-1.6248
X1.5511Y-3.1387
X1.5513Y-0.5565
X1.5522Y-2.3782
X1.5522Y-0.6316
X1.5525Y-0.8275
X1.5702Y-3.8488
X1.5706Y-2.5416
X1.5725Y-0.5849
X1.5731Y-0.1583
X1.5734Y-3.9216
X1.5739Y-1.464
X1.5749Y-3.1054
X1.575Y-0.2132
X1.5759Y-0.9223
X1.5759Y-3.7794
X1.5765Y-2.3321
X1.5769Y-3.0457
X1.5773Y-1.1911
X1.5775Y-0.9899
X1.5781Y-0.8611
X1.5783Y-3.2886
X1.5784Y-0.0786
X1.5792Y-0.5248
X1.5795Y-2.2781
X1.5805Y-0.6629
X1.5808Y-2.402
X1.582Y-3.992
X1.5823Y-1.2635
X1.5831Y-1.6619
X1.5833Y-1.0553
X1.5834Y-1.5997
X1.5837Y-1.5249
X1.5846Y-0.7971
X1.5853Y-0.2823
X1.5864Y-1.1242
X1.604Y-0.5599
X1.6051Y-3.9492
X1.6052Y-1.76
X1.6064Y-0.4905
X1.607Y-2.3702
X1.607Y-1.1569
X1.607Y-1.5735
X1.6081Y-0.6318
X1.6094Y-0.1149
X1.6098Y-3.0193
X1.6105Y-2.3058
X1.6116Y-3.7556
X1.6127Y-0.2463
X1.6129Y-3.8114
X1.6133Y-1.0197
X1.6136Y-3.1526
X1.614Y-0.8305
X1.6141Y-3.0808
X1.6148Y-0.7572
X1.6152Y-0.9682
X1.6152Y-0.9003
X1.6158Y-1.1005
X1.6159Y-1.5058
X1.616Y-3.8779
X1.6164Y-0.1882
X1.6185Y-1.2258
X1.6199Y-1.6342
X1.6371Y-1.1255
X1.6377Y-3.7096
X1.6382Y-0.5228
X1.6385Y-0.6595
X1.6404Y-0.856
X1.6405Y-3.0385
X1.6413Y-3.777
X1.6413Y-1.4638
X1.6418Y-1.054
X1.6421Y-1.8033
X1.6422Y-0.7959
X1.643Y-1.1948
X1.644Y-1.6656
X1.6448Y-3.9878
X1.6451Y-1.2598
X1.6467Y-3.9215
X1.6469Y-1.5976
X1.6473Y-0.9218
X1.6476Y-3.1168
X1.6476Y-1.5362
X1.6477Y-0.0941
X1.6489Y-3.852
X1.6492Y-0.1465
X1.6519Y-0.2815
X1.6521Y-0.5905
X1.6526Y-0.4601
X1.6527Y-0.987
X1.6532Y-0.2139
X1.671Y-1.3568
X1.6712Y-0.9687
X1.6713Y-1.0893
X1.6721Y-4.8601
X1.6735Y-0.3926
X1.6738Y-1.6299
X1.6741Y-0.2545
X1.6742Y-0.1937
X1.6755Y-0.5613
X1.6756Y-1.1632
X1.6757Y-1.4945
X1.6772Y-3.8177
X1.6788Y-0.1151
X1.6796Y-4.5567
X1.68Y-0.894
X1.6802Y-0.3243
X1.6808Y-1.7632
X1.6813Y-1.428
X1.6814Y-0.4953
X1.6818Y-0.628
X1.682Y-0.7523
X1.6823Y-3.0791
X1.6826Y-1.5579
X1.6826Y-3.8828
X1.683Y-3.4174
X1.6836Y-4.6595
X1.6836Y-0.833
X1.6854Y-3.1444
X1.6857Y-3.7485
X1.6861Y-1.0236
X1.6868Y-1.2911
X1.687Y-3.9603
X1.6872Y-1.2222
X1.6875Y-3.0115
X1.7047Y-1.0613
X1.7053Y-0.2158
X1.7062Y-3.8483
X1.707Y-0.8568
X1.7071Y-0.0871
X1.7072Y-0.6612
X1.7081Y-1.3973
X1.7084Y-2.0373
X1.709Y-1.1946
X1.7094Y-1.6643
X1.7098Y-0.5204
X1.71Y-3.725
X1.7102Y-1.5355
X1.7109Y-0.1579
X1.7109Y-3.9945
X1.7112Y-3.3734
X1.7116Y-1.3336
X1.7124Y-1.4692
X1.7126Y-2.5348
X1.7128Y-1.2641
X1.7128Y-3.0476
X1.7131Y-3.7919
X1.7134Y-0.9229
X1.7138Y-1.5921
X1.7139Y-0.9876
X1.7141Y-2.3054
X1.7142Y-2.2334
X1.7145Y-0.5951
X1.7145Y-3.9271
X1.7152Y-1.1358
X1.7169Y-2.3698
X1.7178Y-1.7937
X1.7181Y-0.2825
X1.7189Y-0.7867
X1.7193Y-0.3589
X1.721Y-0.4296
X1.721Y-3.1104
X1.7389Y-0.3164
X1.7391Y-4.2584
X1.7391Y-0.1908
X1.7391Y-1.2325
X1.7393Y-1.1661
X1.7393Y-0.2509
X1.7418Y-0.1272
X1.7419Y-1.6403
X1.7421Y-2.3359
X1.7423Y-1.3037
X1.7439Y-0.967
X1.7449Y-3.4204
X1.7449Y-0.8918
X1.745Y-1.565
X1.7451Y-1.4353
X1.7452Y-4.8645
X1.746Y-4.6621
X1.7463Y-2.5102
X1.7472Y-0.8298
X1.7474Y-0.3952
X1.7481Y-1.7607
X1.7482Y-2.5779
X1.7486Y-3.8872
X1.7488Y-1.9976
X1.7492Y-4.5545
X1.7493Y-1.3613
X1.7495Y-1.8276
X1.75Y-3.35
X1.7502Y-0.7651
X1.7503Y-2.2643
X1.7503Y-3.9596
X1.7506Y-0.4492
X1.7509Y-1.5068
X1.7522Y-0.5583
X1.7523Y-0.6282
X1.7529Y-3.8175
X1.7529Y-3.7472
X1.7532Y-1.1026
X1.7544Y-1.0288
X1.7545Y-2.4068
X1.7722Y-3.3863
X1.7723Y-4.1525
X1.7731Y-3.791
X1.7739Y-0.8536
X1.7739Y-0.5977
X1.7742Y-1.8082
X1.7742Y-0.226
X1.7746Y-1.3249
X1.7747Y-1.0532
X1.7749Y-0.4852
X1.7767Y-1.4
X1.7768Y-2.3768
X1.7771Y-0.9268
X1.7781Y-0.9936
X1.7786Y-4.2211
X1.7787Y-1.46
X1.7793Y-2.2382
X1.7798Y-3.8463
X1.7798Y-3.9207
X1.7799Y-1.6612
X1.7811Y-2.3078
X1.7812Y-1.1367
X1.782Y-2.5481
X1.7824Y-1.9279
X1.7826Y-0.1486
X1.7829Y-1.193
X1.7831Y-0.0814
X1.7837Y-0.3638
X1.7847Y-1.6055
X1.7847Y-1.5265
X1.7855Y-0.291
X1.7864Y-1.8663
X1.7864Y-1.2554
X1.7874Y-0.7844
X1.7876Y-0.4219
X1.788Y-0.6611
X1.7882Y-3.4566
X1.8055Y-3.1189
X1.8055Y-2.2678
X1.8057Y-2.3403
X1.807Y-0.2591
X1.8071Y-0.4629
X1.8081Y-2.9794
X1.8085Y-0.6209
X1.8097Y-0.5265
X1.8099Y-0.1909
X1.8104Y-0.1281
X1.8104Y-3.8105
X1.8114Y-0.3158
X1.8115Y-0.8892
X1.8119Y-0.9645
X1.8126Y-4.8609
X1.8132Y-1.091
X1.8143Y-0.765
X1.8147Y-4.6573
X1.8149Y-3.8805
X1.8153Y-3.4832
X1.8153Y-3.4124
X1.8159Y-1.977
X1.8164Y-2.7812
X1.8165Y-1.7623
X1.8171Y-1.025
X1.8172Y-4.1193
X1.8174Y-4.2475
X1.8174Y-0.8237
X1.8179Y-2.5813
X1.8182Y-1.2935
X1.8185Y-2.4993
X1.8189Y-1.1683
X1.819Y-3.0458
X1.8191Y-4.1841
X1.8196Y-1.2377
X1.8196Y-1.838
X1.8202Y-0.3843
X1.8205Y-4.551
X1.8207Y-2.4055
X1.821Y-2.0395
X1.8214Y-1.9061
X1.8403Y-1.1248
X1.8407Y-1.2022
X1.8409Y-4.2869
X1.841Y-4.2144
X1.8413Y-0.9923
X1.8417Y-0.5494
X1.844Y-2.2104
X1.8442Y-0.9215
X1.8451Y-1.257
X1.8454Y-4.462
X1.8464Y-3.7928
X1.8466Y-2.3764
X1.848Y-3.0849
X1.8484Y-2.0095
X1.8485Y-4.1496
X1.8485Y-1.8072
X1.8496Y-0.6625
X1.8497Y-1.9437
X1.8499Y-2.3137
X1.8501Y-3.1465
X1.8501Y-3.848
X1.8505Y-0.2911
X1.8508Y-1.0675
X1.851Y-0.7856
X1.8517Y-3.0134
X1.8524Y-0.2269
X1.8527Y-0.0794
X1.854Y-0.4888
X1.8542Y-1.8706
X1.8543Y-0.1615
X1.8544Y-2.5459
X1.8548Y-0.8614
X1.8731Y-0.1929
X1.8737Y-1.8294
X1.8738Y-1.9015
X1.874Y-4.3923
X1.8748Y-2.6465
X1.8748Y-3.285
X1.875Y-1.0875
X1.8751Y-4.2641
X1.8767Y-0.1143
X1.8769Y-0.8993
X1.8772Y-1.0208
X1.8777Y-3.8108
X1.8785Y-2.3348
X1.8787Y-4.3264
X1.8787Y-2.2363
X1.8789Y-0.7531
X1.879Y-2.5693
X1.8794Y-0.8292
X1.8798Y-3.1052
X1.8798Y-4.8658
X1.8799Y-2.0359
X1.8802Y-4.6542
X1.8804Y-2.7828
X1.8808Y-0.5924
X1.8817Y-4.1211
X1.8832Y-2.0993
X1.8837Y-4.1953
X1.8841Y-3.0507
X1.8843Y-0.5274
X1.8845Y-1.9616
X1.8847Y-2.1683
X1.8855Y-2.5106
X1.8858Y-1.1563
X1.8869Y-4.5522
X1.8878Y-2.4111
X1.888Y-2.9847
X1.8882Y-2.7011
X1.8885Y-0.9568
X1.8891Y-1.77
X1.9061Y-2.7361
X1.9061Y-1.9989
X1.9062Y-1.6595
X1.9063Y-3.1464
X1.9081Y-3.3095
X1.9083Y-4.1512
X1.9083Y-4.4222
X1.9088Y-2.1351
X1.9089Y-0.6199
X1.9091Y-1.8638
X1.9097Y-1.9284
X1.9105Y-2.2072
X1.9108Y-4.224
X1.9109Y-1.794
X1.9114Y-0.0821
X1.9116Y-1.5994
X1.9125Y-1.1274
X1.9131Y-0.9861
X1.9135Y-3.0738
X1.9158Y-4.3609
X1.9165Y-2.6027
X1.9175Y-0.8557
X1.9176Y-2.5381
X1.9183Y-0.9306
X1.9185Y-1.4667
X1.9187Y-0.1496
X1.9188Y-2.2748
X1.9194Y-2.3762
X1.9195Y-2.0738
X1.9196Y-1.062
X1.9205Y-0.7862
X1.9209Y-4.2919
X1.9212Y-1.5291
X1.9221Y-0.5651
X1.9224Y-3.0094
X1.9225Y-2.6767
X1.9225Y-0.4905
X1.9398Y-4.1821
X1.9398Y-2.0408
X1.9401Y-1.963
X1.9401Y-2.9823
X1.9408Y-0.1233
X1.9411Y-2.9039
X1.9414Y-2.2321
X1.9415Y-1.775
X1.9416Y-2.5702
X1.9426Y-1.64
X1.9429Y-3.1121
X1.9429Y-2.8496
X1.9458Y-2.6377
X1.946Y-2.1104
X1.9462Y-1.4961
X1.9463Y-1.1611
X1.9467Y-4.8589
X1.9468Y-2.4031
X1.9481Y-4.1239
X1.9491Y-4.326
X1.9492Y-1.0999
X1.9492Y-1.025
X1.95Y-2.716
X1.9505Y-4.5658
X1.9511Y-1.8292
X1.9511Y-2.299
X1.9525Y-4.6643
X1.9525Y-2.1685
X1.9529Y-4.3898
X1.9531Y-4.2519
X1.9535Y-2.7713
X1.9538Y-3.2783
X1.9543Y-1.5663
X1.9546Y-2.4998
X1.9562Y-1.9049
X1.9562Y-3.0511
X1.9737Y-4.2971
X1.9745Y-4.1576
X1.9748Y-1.9405
X1.9748Y-4.2192
X1.9752Y-2.3358
X1.9762Y-3.314
X1.9768Y-4.5274
X1.9776Y-0.0791
X1.9777Y-2.9497
X1.9777Y-2.1394
X1.9778Y-2.8085
X1.9788Y-1.1208
X1.9793Y-1.4621
X1.9795Y-1.7946
X1.9796Y-2.8691
X1.9804Y-1.0626
X1.9804Y-2.7489
X1.9813Y-1.5306
X1.9816Y-2.0027
X1.9824Y-0.158
X1.9824Y-1.8676
X1.9832Y-2.5377
X1.9841Y-2.0637
X1.9843Y-4.3513
X1.9848Y-3.0852
X1.9851Y-3.1425
X1.9853Y-4.09
X1.9855Y-2.6028
X1.9855Y-1.5939
X1.9861Y-3.7173
X1.9861Y-2.2781
X1.9863Y-3.0052
X1.9866Y-2.6702
X1.9879Y-2.2093
X1.9901Y-1.6655
X2.0071Y-0.795
X2.0074Y-2.5035
X2.0077Y-2.9806
X2.0081Y-3.512
X2.0083Y-4.2592
X2.0086Y-1.164
X2.0089Y-2.2403
X2.0097Y-4.1166
X2.0115Y-1.6356
X2.0116Y-1.8428
X2.0117Y-4.6519
X2.0118Y-4.1963
X2.0123Y-4.4953
X2.0123Y-1.7615
X2.0124Y-2.7759
X2.0126Y-3.1206
X2.0136Y-3.2886
X2.0141Y-3.0513
X2.0143Y-2.5669
X2.0144Y-0.6262
X2.0147Y-2.6477
X2.0148Y-4.3287
X2.0148Y-3.7519
X2.0155Y-0.1139
X2.0158Y-2.3691
X2.0159Y-1.5018
X2.0164Y-4.8632
X2.0164Y-1.9612
X2.0167Y-2.1013
X2.0168Y-2.7023
X2.0182Y-2.1739
X2.0184Y-1.097
X2.0191Y-0.5566
X2.0194Y-1.5707
X2.02Y-2.8469
X2.0202Y-2.3092
X2.0206Y-2.9171
X2.0216Y-4.0574
X2.022Y-1.9019
X2.0223Y-2.0342
X2.0224Y-0.8589
X2.023Y-0.4867
X2.0406Y-1.5288
X2.041Y-3.0154
X2.0412Y-2.8718
X2.0427Y-2.2073
X2.0431Y-0.8299
X2.0432Y-4.296
X2.0438Y-1.8685
X2.044Y-3.4454
X2.0442Y-3.086
X2.0448Y-0.8908
X2.0451Y-4.0217
X2.0454Y-4.1557
X2.0455Y-2.0683
X2.0456Y-0.6552
X2.0458Y-2.7498
X2.0458Y-4.0836
X2.0462Y-3.7217
X2.0463Y-3.1524
X2.0464Y-2.3455
X2.0471Y-2.6708
X2.0479Y-1.67
X2.0488Y-2.8178
X2.0489Y-0.0903
X2.049Y-2.1344
X2.0495Y-3.3145
X2.0497Y-1.7968
X2.0499Y-2.6159
X2.0501Y-1.6036
X2.0507Y-3.3764
X2.0508Y-2.5355
X2.0522Y-1.1281
X2.0529Y-2.4068
X2.0529Y-2.009
X2.0536Y-1.9283
X2.0539Y-2.9505
X2.0543Y-2.2699
X2.0557Y-0.5247
X2.0561Y-4.4625
X2.0567Y-4.2282
X2.0752Y-2.3089
X2.0754Y-2.5074
X2.0757Y-4.056
X2.0758Y-2.7821
X2.0763Y-1.1634
X2.0765Y-2.905
X2.0769Y-0.9292
X2.077Y-3.2743
X2.0775Y-2.6461
X2.078Y-1.9663
X2.0781Y-1.9013
X2.0784Y-2.1787
X2.0784Y-1.6308
X2.0789Y-2.7009
X2.079Y-2.0409
X2.0794Y-2.1117
X2.0797Y-1.5623
X2.08Y-0.792
X2.0805Y-4.2634
X2.0805Y-4.1879
X2.0808Y-1.8276
X2.0813Y-3.0377
X2.0813Y-2.2365
X2.0829Y-0.8613
X2.0832Y-4.484
X2.0835Y-3.3445
X2.0836Y-2.8361
X2.0852Y-4.1176
X2.0857Y-3.1059
X2.0865Y-2.367
X2.0866Y-2.9761
X2.0886Y-1.7718
X2.0887Y-3.4117
X2.089Y-1.2228
X2.0906Y-2.5795
X2.1082Y-1.672
X2.1085Y-3.3217
X2.109Y-1.5311
X2.1094Y-2.0102
X2.1102Y-2.8837
X2.1104Y-2.2652
X2.1108Y-3.087
X2.1109Y-4.0945
X2.111Y-1.8027
X2.1137Y-1.8712
X2.1142Y-0.9623
X2.1147Y-2.8106
X2.1148Y-2.6797
X2.1149Y-1.9429
X2.1153Y-4.4638
X2.1156Y-2.5476
X2.1159Y-3.1474
X2.1161Y-4.2263
X2.1172Y-0.8336
X2.1184Y-4.1626
X2.1199Y-2.3375
X2.1199Y-2.4101
X2.1201Y-2.6054
X2.1206Y-1.6077
X2.1207Y-2.737
X2.121Y-3.0058
X2.121Y-0.8937
X2.1212Y-3.3828
X2.1219Y-2.1971
X2.1219Y-2.0735
X2.1223Y-2.9475
X2.1227Y-0.5272
X2.1231Y-0.2126
X2.1232Y-3.9902
X2.124Y-2.1295
X2.124Y-1.1947
X2.1415Y-4.5642
X2.1418Y-0.9301
X2.1429Y-1.574
X2.1439Y-4.1222
X2.144Y-2.7747
X2.1442Y-2.2459
X2.1443Y-1.9732
X2.1458Y-2.9097
X2.1469Y-3.3429
X2.1471Y-2.5024
X2.1471Y-0.6553
X2.1472Y-0.9878
X2.1484Y-2.6372
X2.1488Y-4.0275
X2.1494Y-1.8428
X2.1505Y-3.4191
X2.1505Y-2.7156
X2.1509Y-2.9854
X2.1513Y-3.9555
X2.1514Y-1.8984
X2.1516Y-2.1688
X2.1517Y-2.3795
X2.1518Y-2.0439
X2.1524Y-2.2975
X2.1531Y-0.7906
X2.1532Y-1.6399
X2.1533Y-2.582
X2.1543Y-0.8595
X2.1555Y-3.111
X2.1556Y-4.1911
X2.1559Y-4.6533
X2.1563Y-2.1055
X2.1563Y-4.4894
X2.1568Y-2.8406
X2.1573Y-3.2832
X2.1575Y-1.7716
X2.1577Y-4.8587
X2.1581Y-3.0456
X2.1762Y-1.671
X2.1778Y-3.1488
X2.1778Y-2.5434
X2.1783Y-0.617
X2.1783Y-3.0158
X2.1789Y-2.9499
X2.1799Y-1.536
X2.1799Y-1.9988
X2.1799Y-0.7589
X2.1803Y-2.6772
X2.1805Y-1.7939
X2.1805Y-2.271
X2.1805Y-2.1422
X2.1816Y-4.1545
X2.1817Y-3.3857
X2.1822Y-2.7361
X2.1825Y-2.6132
X2.1831Y-1.033
X2.1835Y-0.8317
X2.1838Y-2.8797
X2.1857Y-4.0456
X2.1861Y-0.9606
X2.1864Y-2.0785
X2.1866Y-0.9016
X2.1878Y-2.2007
X2.1885Y-3.3213
X2.1887Y-1.6058
X2.1893Y-2.81
X2.1894Y-3.0836
X2.1898Y-1.8689
X2.1902Y-1.9333
X2.2099Y-2.9719
X2.2109Y-1.9102
X2.2114Y-2.6489
X2.212Y-3.0475
X2.2129Y-0.7861
X2.2131Y-1.0585
X2.2147Y-0.9874
X2.2153Y-1.627
X2.2167Y-2.7072
X2.2183Y-2.9144
X2.2204Y-0.5849
X2.2209Y-1.8373
X2.221Y-0.8547
X2.2212Y-4.8553
X2.2217Y-2.7754
X2.223Y-3.7447
X2.2234Y-1.9744
X2.2234Y-2.5679
X2.2234Y-0.9259
X2.2241Y-2.8364
X2.2241Y-1.7695
X2.2248Y-3.1179
X2.2254Y-0.6541
X2.2434Y-2.9502
X2.2437Y-2.882
X2.2462Y-0.7596
X2.2466Y-1.9422
X2.2466Y-0.8901
X2.2469Y-0.9585
X2.2475Y-1.8707
X2.2476Y-2.8103
X2.2501Y-3.0111
X2.2508Y-0.8307
X2.251Y-2.6115
X2.2531Y-2.7439
X2.2543Y-0.6198
X2.2547Y-2.6702
X2.2554Y-3.072
X2.257Y-1.7975
X2.2575Y-3.139
X2.2583Y-0.5546
X2.2585Y-2.5459
X2.259Y-1.034
X2.2767Y-2.3804
X2.2774Y-4.4889
X2.2781Y-2.9809
X2.2782Y-4.8544
X2.28Y-0.7944
X2.2812Y-0.5267
X2.2815Y-2.8461
X2.2817Y-2.9025
X2.2817Y-0.9346
X2.2825Y-4.6664
X2.2833Y-0.6593
X2.2836Y-2.5033
X2.2838Y-0.8583
X2.2841Y-1.8376
X2.2847Y-3.0475
X2.2856Y-1.068
X2.286Y-3.1138
X2.2863Y-0.5828
X2.2864Y-4.5501
X2.2873Y-1.7696
X2.2886Y-2.6435
X2.2888Y-1.4936
X2.2893Y-1.8984
X2.2896Y-2.3001
X2.2897Y-0.9911
X2.2905Y-2.5677
X2.2906Y-3.4779
X2.2917Y-2.2404
X2.2921Y-2.7155
X2.2921Y-2.7798
X2.3104Y-3.0731
X2.3105Y-4.5181
X2.3106Y-1.8708
X2.3109Y-2.7435
X2.311Y-1.4676
X2.3115Y-2.5464
X2.3116Y-0.7579
X2.3123Y-2.8082
X2.3143Y-2.3983
X2.3145Y-3.1532
X2.3155Y-1.033
X2.316Y-2.9434
X2.3167Y-0.9
X2.3168Y-0.9577
X2.3173Y-2.2647
X2.3174Y-2.3336
X2.3175Y-0.6187
X2.319Y-1.7941
X2.3196Y-0.5617
X2.3197Y-1.2575
X2.32Y-1.5379
X2.3232Y-2.6052
X2.3236Y-0.8182
X2.3237Y-2.6829
X2.3243Y-1.0925
X2.3251Y-3.0072
X2.3253Y-2.8849
X2.3432Y-0.1542
X2.3452Y-0.9903
X2.3455Y-2.9794
X2.3459Y-1.839
X2.3461Y-0.5304
X2.3463Y-3.0436
X2.3463Y-2.778
X2.3471Y-0.8593
X2.3471Y-1.5585
X2.3482Y-1.0694
X2.3492Y-3.1197
X2.3494Y-4.8627
X2.3497Y-1.1307
X2.3498Y-4.6552
X2.35Y-2.9153
X2.3508Y-1.4966
X2.351Y-0.5986
X2.3517Y-0.6565
X2.3523Y-0.7943
X2.3525Y-1.1944
X2.3526Y-2.2384
X2.3529Y-4.5624
X2.3534Y-0.9295
X2.354Y-0.2137
X2.3552Y-2.6494
X2.3556Y-2.7066
X2.3557Y-2.5018
X2.3564Y-2.3668
X2.3564Y-2.5673
X2.3571Y-2.2994
X2.3586Y-2.8385
X2.3588Y-1.8989
X2.3768Y-0.6317
X2.3772Y-0.9628
X2.3776Y-2.6075
X2.3794Y-1.4576
X2.3802Y-1.6066
X2.3807Y-1.0988
X2.3808Y-1.8013
X2.3819Y-2.3983
X2.3825Y-1.2375
X2.3828Y-0.5507
X2.3844Y-2.6701
X2.3847Y-2.2755
X2.3848Y-0.8258
X2.3863Y-1.5303
X2.3868Y-1.1608
X2.3882Y-4.5178
X2.3889Y-1.8662
X2.3891Y-0.7575
X2.3892Y-2.7419
X2.3911Y-0.8925
X2.3922Y-2.3342
X2.3929Y-1.0342
X2.3932Y-2.543
X2.4106Y-0.9972
X2.4123Y-2.6461
X2.4125Y-0.6514
X2.4132Y-0.8519
X2.4134Y-0.5846
X2.414Y-0.5295
X2.4143Y-2.3783
X2.4148Y-2.5141
X2.4151Y-0.9211
X2.4157Y-4.5527
X2.4158Y-2.7174
X2.4165Y-1.3321
X2.417Y-1.1317
X2.4182Y-0.7988
X2.4187Y-1.5013
X2.4191Y-1.8305
X2.4198Y-4.6626
X2.4213Y-1.2607
X2.4214Y-1.5607
X2.4222Y-1.392
X2.4227Y-1.1999
X2.4228Y-2.567
X2.4236Y-1.9103
X2.4242Y-2.3051
X2.4245Y-1.6375
X2.4257Y-4.8607
X2.4268Y-1.0579
X2.4443Y-2.4074
X2.4445Y-0.631
X2.4447Y-1.1582
X2.4456Y-0.5605
X2.4465Y-2.3409
X2.4474Y-2.9715
X2.4475Y-3.9557
X2.448Y-1.8673
X2.448Y-2.2646
X2.4481Y-2.6094
X2.4485Y-3.7196
X2.4497Y-0.8235
X2.4497Y-1.5327
X2.4514Y-3.8853
X2.4514Y-1.2974
X2.4522Y-0.7541
X2.4532Y-0.9001
X2.4535Y-1.1017
X2.4542Y-1.4291
X2.4548Y-1.5991
X2.4565Y-1.0301
X2.4568Y-0.9658
X2.4569Y-1.6716
X2.4571Y-2.5472
X2.4574Y-1.9399
X2.4582Y-1.2226
X2.4589Y-2.667
X2.4598Y-4.525
X2.4606Y-1.3647
X2.4777Y-0.4932
X2.4791Y-2.4991
X2.4802Y-0.9965
X2.4804Y-0.6515
X2.4806Y-3.7534
X2.4807Y-1.9706
X2.4808Y-1.8943
X2.4819Y-2.6443
X2.4824Y-3.9132
X2.4831Y-1.3897
X2.4855Y-3.0164
X2.4865Y-3.9914
X2.4865Y-0.7859
X2.4872Y-3.0805
X2.4874Y-3.1455
X2.4875Y-3.5202
X2.4884Y-1.3385
X2.4886Y-2.3788
X2.4904Y-1.4648
X2.491Y-2.5696
X2.4915Y-0.9269
X2.4918Y-2.308
X2.4924Y-1.5584
X2.4924Y-1.2625
X2.4925Y-1.6376
X2.4926Y-1.125
X2.4928Y-1.199
X2.493Y-0.5912
X2.4932Y-0.8575
X2.4942Y-1.0695
X2.5115Y-0.7622
X2.5116Y-1.2243
X2.5117Y-1.4955
X2.512Y-3.4148
X2.5123Y-3.0455
X2.5124Y-1.3719
X2.5128Y-2.4049
X2.5129Y-0.9583
X2.5131Y-0.2846
X2.5134Y-1.1615
X2.5159Y-0.8911
X2.5162Y-3.1072
X2.5166Y-2.3327
X2.5168Y-0.5187
X2.5182Y-2.5388
X2.5199Y-1.4334
X2.52Y-3.7193
X2.52Y-2.2731
X2.5203Y-0.6173
X2.5204Y-3.8853
X2.5214Y-2.9783
X2.5217Y-1.0217
X2.5222Y-1.6604
X2.5223Y-1.3041
X2.5249Y-1.6054
X2.525Y-3.4853
X2.5251Y-4.0161
X2.5254Y-3.9483
X2.526Y-0.8321
X2.5273Y-1.0872
X2.5274Y-2.6076
X2.545Y-1.3949
X2.5457Y-2.3746
X2.5458Y-3.0132
X2.5458Y-3.5209
X2.5466Y-1.5244
X2.5468Y-3.9242
X2.5477Y-3.4569
X2.5483Y-3.1449
X2.5484Y-0.9877
X2.5489Y-1.761
X2.5509Y-1.192
X2.5511Y-0.5565
X2.5523Y-3.3756
X2.5525Y-1.1228
X2.5534Y-2.5766
X2.5537Y-1.0604
X2.5539Y-0.798
X2.5541Y-3.7507
X2.555Y-0.9225
X2.5551Y-0.485
X2.5567Y-1.3247
X2.5567Y-1.2691
X2.5569Y-0.0898
X2.5588Y-2.6376
X2.5589Y-1.4674
X2.559Y-0.6503
X2.5595Y-2.3009
X2.5605Y-3.9881
X2.5614Y-0.8535
X2.5617Y-3.0853
X2.5796Y-0.8282
X2.5797Y-3.4881
X2.5803Y-2.6833
X2.5807Y-0.9613
X2.5818Y-3.0378
X2.5833Y-1.099
X2.5834Y-0.2599
X2.5843Y-3.5474
X2.5847Y-1.2252
X2.5849Y-3.4222
X2.5858Y-0.5247
X2.5867Y-1.8014
X2.5871Y-0.1944
X2.5896Y-1.1547
X2.5896Y-3.9542
X2.5897Y-0.1118
X2.5903Y-3.7133
X2.5903Y-0.7617
X2.591Y-0.8925
X2.5915Y-3.3447
X2.5918Y-3.1149
X2.5923Y-0.5937
X2.5931Y-4.0274
X2.5933Y-3.8842
X2.5939Y-1.0288
X2.5949Y-2.6023
X2.6125Y-0.929
X2.6129Y-3.3874
X2.6135Y-3.0716
X2.6135Y-0.4821
X2.6148Y-3.5873
X2.6153Y-0.6309
X2.6154Y-1.0591
X2.6167Y-3.3169
X2.617Y-3.5182
X2.6173Y-0.7989
X2.6176Y-4.6672
X2.6191Y-4.8684
X2.6196Y-0.1482
X2.62Y-0.8607
X2.6205Y-1.7674
X2.6208Y-1.1216
X2.6209Y-0.2187
X2.6217Y-3.7497
X2.6238Y-3.4547
X2.6242Y-0.5605
X2.6242Y-1.1975
X2.6244Y-1.0018
X2.6246Y-3.9251
X2.625Y-4.5163
X2.6251Y-3.0111
X2.6261Y-2.6488
X2.6268Y-0.08
X2.6277Y-3.9788
X2.6283Y-3.6536
X2.647Y-4.563
X2.6472Y-2.3798
X2.6486Y-2.6832
X2.6497Y-3.6106
X2.6504Y-3.4082
X2.6504Y-1.0304
X2.6504Y-3.3517
X2.6509Y-3.6786
X2.6509Y-3.2788
X2.6514Y-3.477
X2.6515Y-0.1164
X2.6525Y-3.5457
X2.6534Y-0.8329
X2.6535Y-0.5896
X2.6536Y-1.5267
X2.6538Y-1.4604
X2.6551Y-0.7628
X2.6561Y-0.5287
X2.6568Y-0.8985
X2.6569Y-2.3052
X2.6591Y-1.1579
X2.6601Y-0.9661
X2.6602Y-3.9512
X2.6603Y-2.2341
X2.6608Y-3.0477
X2.6613Y-0.6635
X2.6613Y-4.0286
X2.6621Y-1.7956
X2.6623Y-1.0899
X2.6624Y-3.7766
X2.6796Y-2.0074
X2.6803Y-2.2724
X2.6804Y-1.6269
X2.6809Y-4.5318
X2.6813Y-0.8552
X2.6815Y-0.1592
X2.6835Y-0.6182
X2.6847Y-3.6549
X2.6849Y-0.4848
X2.6849Y-2.3458
X2.685Y-0.9201
X2.6851Y-1.1355
X2.6852Y-2.7432
X2.6853Y-1.0562
X2.6862Y-3.9802
X2.6865Y-3.3801
X2.6876Y-3.5819
X2.6884Y-0.9969
X2.6891Y-3.8189
X2.6892Y-1.4933
X2.6892Y-1.7669
X2.6897Y-4.8623
X2.6897Y-0.5613
X2.6901Y-3.3069
X2.6903Y-3.5166
X2.6921Y-3.0062
X2.6929Y-1.8278
X2.6932Y-3.7225
X2.6939Y-3.4455
X2.6948Y-0.7955
X2.6949Y-2.4116
X2.6954Y-4.6664
X2.6956Y-1.5657
X2.6957Y-0.0796
X2.7139Y-1.1004
X2.714Y-2.3672
X2.7161Y-3.6861
X2.7169Y-3.478
X2.7173Y-1.8031
X2.7181Y-3.5438
X2.7189Y-4.5503
X2.7191Y-1.8606
X2.7192Y-0.1171
X2.7193Y-3.7483
X2.7193Y-3.2797
X2.7197Y-1.4726
X2.7198Y-1.5372
X2.7205Y-2.2302
X2.7206Y-3.3437
X2.7214Y-1.0257
X2.7219Y-1.1583
X2.7239Y-3.6156
X2.7245Y-2.3042
X2.7257Y-1.6602
X2.7265Y-1.6075
X2.7267Y-3.4189
X2.7277Y-1.9274
X2.729Y-4.0266
X2.7293Y-3.8533
X2.747Y-2.4055
X2.7492Y-1.5061
X2.7494Y-2.2678
X2.7496Y-3.3085
X2.7505Y-0.1587
X2.7509Y-1.0583
X2.7529Y-1.8975
X2.7533Y-2.3458
X2.7545Y-4.8686
X2.7545Y-4.0521
X2.7547Y-1.5741
X2.7552Y-0.091
X2.7565Y-4.529
X2.7574Y-2.0354
X2.7577Y-1.9743
X2.7579Y-2.5132
X2.7587Y-1.627
X2.7588Y-1.8363
X2.7588Y-1.1275
X2.7589Y-3.5133
X2.7597Y-3.4416
X2.7607Y-4.6657
X2.7624Y-1.7755
X2.7631Y-3.3891
X2.7808Y-1.6616
X2.7811Y-4.5664
X2.7812Y-0.656
X2.7815Y-2.0687
X2.782Y-0.1152
X2.7823Y-3.1469
X2.7829Y-3.475
X2.7831Y-0.598
X2.7836Y-1.1628
X2.7841Y-0.5275
X2.7849Y-3.2817
X2.786Y-1.8758
X2.7862Y-1.9356
X2.7863Y-2.1345
X2.787Y-1.531
X2.7879Y-0.8862
X2.7883Y-2.3751
X2.7889Y-2.0105
X2.789Y-2.312
X2.7909Y-1.8052
X2.7916Y-3.4134
X2.7918Y-1.6018
X2.792Y-2.1972
X2.7922Y-4.4926
X2.7935Y-0.8268
X2.7936Y-3.34
X2.7937Y-0.7646
X2.7958Y-2.5361
X2.7963Y-1.102
X2.797Y-4.0185
X2.814Y-2.0403
X2.8144Y-2.4051
X2.8145Y-1.8995
X2.8161Y-3.1043
X2.8161Y-3.3771
X2.8165Y-1.7633
X2.8168Y-4.8545
X2.819Y-2.1038
X2.8199Y-4.0473
X2.8201Y-1.1958
X2.8203Y-1.5636
X2.8219Y-1.626
X2.8226Y-4.2896
X2.8226Y-1.8308
X2.8232Y-1.1216
X2.8238Y-4.6574
X2.8241Y-1.9625
X2.8247Y-4.5219
X2.8249Y-0.7986
X2.8256Y-0.9319
X2.8264Y-3.4516
X2.8265Y-3.3076
X2.827Y-0.8542
X2.8273Y-0.088
X2.8278Y-2.5048
X2.8279Y-2.3436
X2.8284Y-2.2446
X2.8288Y-2.1771
X2.8301Y-4.4556
X2.8476Y-3.3419
X2.8481Y-4.5557
X2.8483Y-1.8606
X2.8485Y-1.7933
X2.8492Y-2.0734
X2.85Y-1.532
X2.8503Y-3.4072
X2.8504Y-3.715
X2.8506Y-2.5368
X2.8509Y-2.0028
X2.8512Y-1.6688
X2.8513Y-4.0128
X2.8516Y-3.1429
X2.8522Y-1.2295
X2.8524Y-4.4956
X2.8531Y-1.1571
X2.8531Y-3.8496
X2.8537Y-2.7736
X2.8548Y-2.9802
X2.8563Y-3.281
X2.8563Y-0.9014
X2.8569Y-3.7894
X2.857Y-3.9125
X2.8575Y-0.8194
X2.8586Y-3.0506
X2.8588Y-1.9379
X2.8589Y-2.1991
X2.8595Y-0.5234
X2.8601Y-0.954
X2.8616Y-1.5977
X2.8617Y-2.3749
X2.8619Y-0.2177
X2.8621Y-2.2766
X2.8641Y-2.1305
X2.8822Y-2.5751
X2.8828Y-4.1138
X2.8833Y-0.8616
X2.8836Y-2.2449
X2.8837Y-4.0583
X2.8837Y-2.5039
X2.8838Y-1.831
X2.8842Y-1.6365
X2.8844Y-2.301
X2.8855Y-3.019
X2.8856Y-2.0985
X2.8864Y-2.6359
X2.8864Y-2.037
X2.8864Y-3.3062
X2.8867Y-1.5641
X2.8868Y-3.0857
X2.8874Y-2.4043
X2.888Y-1.9728
X2.8886Y-4.1813
X2.8892Y-0.9303
X2.891Y-3.8882
X2.8914Y-3.7594
X2.8916Y-0.9945
X2.892Y-1.8952
X2.8931Y-2.1725
X2.8954Y-3.8196
X2.8961Y-0.7928
X2.8966Y-2.7173
X2.8968Y-3.3773
X2.8977Y-4.2536
X2.8977Y-1.7715
X2.9149Y-0.9626
X2.9151Y-3.4093
X2.9164Y-2.0653
X2.917Y-4.1474
X2.917Y-1.8719
X2.9174Y-3.7191
X2.9177Y-0.6182
X2.918Y-1.5341
X2.918Y-2.1307
X2.9181Y-2.9709
X2.9185Y-0.888
X2.9191Y-2.743
X2.9193Y-2.6745
X2.9203Y-2.205
X2.9206Y-3.3453
X2.9221Y-4.4841
X2.9223Y-3.8457
X2.9232Y-1.7933
X2.9238Y-3.1058
X2.9241Y-4.0266
X2.9241Y-1.5941
X2.9244Y-1.028
X2.9248Y-2.5437
X2.9252Y-4.0887
X2.9252Y-3.0407
X2.9261Y-1.929
X2.9267Y-0.8246
X2.9273Y-3.9251
X2.9275Y-1.6602
X2.9278Y-0.7663
X2.9279Y-3.2794
X2.9284Y-4.2246
X2.9291Y-2.004
X2.9293Y-3.783
X2.9307Y-2.6011
X2.9313Y-2.2685
X2.9502Y-0.5906
X2.9506Y-4.058
X2.9517Y-2.6354
X2.952Y-2.7714
X2.9526Y-1.6341
X2.9534Y-4.1852
X2.9536Y-2.5817
X2.9542Y-4.2554
X2.9543Y-3.0104
X2.9562Y-1.828
X2.9562Y-0.6637
X2.9568Y-3.3215
X2.9569Y-2.7125
X2.9572Y-3.747
X2.9577Y-3.385
X2.958Y-1.7598
X2.9586Y-1.9657
X2.9588Y-1.0571
X2.9598Y-3.8829
X2.96Y-0.9347
X2.9606Y-1.9097
X2.961Y-1.002
X2.9623Y-3.1475
X2.9626Y-3.8189
X2.9626Y-0.7849
X2.9627Y-4.1239
X2.9628Y-4.4502
X2.9643Y-0.8525
X2.9645Y-3.0716
X2.9823Y-2.6698
X2.9827Y-2.6082
X2.9831Y-1.9402
X2.9842Y-4.0274
X2.9854Y-1.8672
X2.9854Y-0.5605
X2.9869Y-3.9158
X2.9872Y-0.6217
X2.9873Y-3.1171
X2.9874Y-4.2209
X2.9887Y-4.2836
X2.9889Y-3.7819
X2.9891Y-2.5376
X2.9892Y-4.0805
X2.9905Y-3.3441
X2.991Y-0.754
X2.9912Y-3.0443
X2.9921Y-2.8043
X2.9922Y-0.9016
X2.9922Y-3.273
X2.9928Y-3.4223
X2.9931Y-4.4285
X2.9933Y-4.1619
X2.9946Y-2.8782
X2.9955Y-1.0336
X2.9956Y-0.819
X2.9956Y-4.4902
X2.9957Y-1.8037
X2.9963Y-3.8555
X2.9964Y-4.3537
X2.9977Y-2.7421
X2.9978Y-0.9661
X2.9979Y-2.9495
X3.0161Y-2.7694
X3.0169Y-0.6592
X3.0169Y-3.8264
X3.0169Y-2.6466
X3.0175Y-4.2505
X3.0177Y-1.0652
X3.0181Y-4.3253
X3.0183Y-4.6663
X3.019Y-0.9981
X3.0191Y-4.454
X3.0191Y-4.1227
X3.0216Y-2.2465
X3.0232Y-3.3767
X3.0233Y-1.8432
X3.0235Y-2.9811
X3.0237Y-4.0601
X3.0257Y-0.4911
X3.026Y-3.4465
X3.0265Y-1.7713
X3.027Y-0.9218
X3.0286Y-2.5819
X3.029Y-2.9114
X3.0293Y-2.7106
X3.0298Y-3.0841
X3.0299Y-1.4578
X3.0302Y-3.8822
X3.0303Y-4.518
X3.0308Y-3.3181
X3.0309Y-4.3968
X3.031Y-2.4007
X3.0311Y-2.8383
X3.0313Y-1.9051
X3.0313Y-4.1879
X3.032Y-0.5954
X3.0323Y-3.1524
X3.0498Y-2.672
X3.0501Y-2.8765
X3.0503Y-4.4959
X3.0506Y-4.5552
X3.051Y-1.5022
X3.0515Y-2.8059
X3.0521Y-4.016
X3.0531Y-3.4072
X3.0543Y-3.016
X3.0551Y-2.3462
X3.0553Y-1.8083
X3.0555Y-2.6107
X3.0557Y-4.0852
X3.0569Y-0.8948
X3.0572Y-2.7429
X3.0579Y-1.8766
X3.058Y-1.0963
X3.0584Y-0.6284
X3.0597Y-3.4806
X3.0603Y-2.943
X3.0604Y-2.5151
X3.0612Y-3.2738
X3.0613Y-3.9231
X3.0615Y-4.2226
X3.0622Y-0.5216
X3.0623Y-2.2752
X3.0624Y-3.7801
X3.0626Y-4.1585
X3.0635Y-3.3498
X3.0637Y-3.1063
X3.0641Y-3.8483
X3.0645Y-1.0263
X3.0657Y-1.2631
X3.066Y-0.9598
X3.0845Y-4.5163
X3.0845Y-1.8341
X3.0849Y-2.8453
X3.0849Y-1.128
X3.086Y-2.3046
X3.0871Y-2.9774
X3.0874Y-2.7811
X3.0883Y-4.1148
X3.0885Y-1.4577
X3.0886Y-0.1578
X3.089Y-1.2006
X3.0896Y-4.056
X3.0897Y-2.6366
X3.0899Y-0.2191
X3.09Y-3.3075
X3.0903Y-2.5418
X3.0904Y-4.1944
X3.091Y-2.9122
X3.0914Y-2.2422
X3.0914Y-0.9963
X3.0916Y-0.5567
X3.0916Y-3.0389
X3.092Y-2.3743
X3.0935Y-1.8984
X3.0948Y-1.064
X3.095Y-0.9245
X3.0956Y-3.1405
X3.0973Y-3.8212
X3.0975Y-0.6498
X3.0977Y-2.7156
X3.0986Y-4.6521
X3.0994Y-1.5275
X3.0995Y-3.8845
X3.1166Y-1.5001
X3.1171Y-2.9485
X3.1171Y-2.2648
X3.1182Y-2.3982
X3.1195Y-1.7944
X3.1204Y-4.083
X3.1205Y-3.2802
X3.1209Y-3.8521
X3.121Y-2.5068
X3.1212Y-4.1607
X3.1215Y-2.3421
X3.1221Y-1.8753
X3.1244Y-0.9639
X3.1253Y-1.2244
X3.1269Y-0.589
X3.1271Y-0.8885
X3.1277Y-2.8167
X3.1277Y-2.5664
X3.128Y-3.0179
X3.1281Y-2.7393
X3.1288Y-4.018
X3.129Y-1.5709
X3.1291Y-3.7884
X3.1297Y-1.1689
X3.1306Y-0.5156
X3.1308Y-0.1949
X3.1308Y-2.884
X3.1312Y-2.198
X3.1313Y-1.0949
X3.1316Y-1.0213
X3.1322Y-2.6784
X3.1513Y-1.5939
X3.152Y-0.9996
X3.1538Y-0.5586
X3.1548Y-1.4617
X3.1552Y-3.3168
X3.1555Y-1.8386
X3.1558Y-0.6276
X3.156Y-1.5263
X3.1563Y-0.9344
X3.1574Y-4.1223
X3.1582Y-2.2976
X3.1599Y-4.053
X3.1599Y-1.131
X3.1601Y-1.9101
X3.1601Y-1.0575
X3.1612Y-2.7054
X3.162Y-1.188
X3.163Y-1.2561
X3.1651Y-2.5412
X3.1662Y-2.3765
X3.1666Y-2.6067
X3.1844Y-1.3003
X3.1849Y-2.5664
X3.185Y-1.5689
X3.1854Y-2.5152
X3.1854Y-0.9658
X3.1861Y-1.0921
X3.1865Y-1.932
X3.1865Y-1.2228
X3.1871Y-4.0794
X3.1875Y-2.3388
X3.1881Y-4.5606
X3.1884Y-1.5054
X3.1885Y-1.8672
X3.1888Y-1.4357
X3.1899Y-2.4093
X3.1901Y-4.1594
X3.1909Y-0.8908
X3.1912Y-0.6642
X3.1913Y-0.5195
X3.1934Y-1.3703
X3.1948Y-0.5852
X3.1978Y-2.6495
X3.1987Y-1.0322
X3.1988Y-1.6259
X3.1989Y-3.2819
X3.2Y-2.2725
X3.2003Y-1.1664
X3.2174Y-1.1904
X3.2197Y-1.4717
X3.2199Y-1.2644
X3.2204Y-1.393
X3.2205Y-2.3006
X3.221Y-3.1185
X3.2211Y-4.664
X3.2212Y-3.0469
X3.2215Y-1.9685
X3.222Y-3.852
X3.2233Y-1.528
X3.2244Y-4.4915
X3.2244Y-3.7126
X3.2245Y-2.9784
X3.2249Y-1.3306
X3.2256Y-0.9198
X3.226Y-1.6712
X3.2261Y-0.488
X3.2264Y-3.7917
X3.2264Y-1.0686
X3.227Y-4.0574
X3.2273Y-2.5429
X3.2284Y-2.6719
X3.2294Y-1.1356
X3.2298Y-2.6098
X3.2301Y-1.6018
X3.2302Y-0.6166
X3.2304Y-4.1247
X3.2309Y-0.9904
X3.2312Y-1.8965
X3.2321Y-0.5601
X3.2333Y-2.3662
X3.251Y-0.8961
X3.251Y-3.0061
X3.2543Y-2.2801
X3.2543Y-2.5792
X3.2545Y-2.4113
X3.2548Y-3.4772
X3.2558Y-1.3635
X3.2576Y-3.7466
X3.2579Y-1.2991
X3.2583Y-0.9627
X3.2589Y-4.1465
X3.2604Y-2.5043
X3.2607Y-4.0935
X3.2608Y-4.5248
X3.2611Y-1.0274
X3.2628Y-1.1705
X3.2629Y-1.4267
X3.2629Y-0.6628
X3.2631Y-1.6334
X3.2631Y-0.4502
X3.2633Y-0.2935
X3.2634Y-1.2309
X3.2637Y-0.5264
X3.2641Y-1.4983
X3.2643Y-3.8112
X3.2651Y-3.1522
X3.2652Y-1.5575
X3.2657Y-1.0992
X3.2658Y-0.5931
X3.2666Y-3.0803
X3.2672Y-3.8806
X3.2675Y-2.6354
X3.2678Y-2.341
X3.2847Y-3.5221
X3.2864Y-3.7186
X3.2864Y-0.5553
X3.2874Y-0.628
X3.2874Y-3.4484
X3.2879Y-2.5363
X3.2883Y-1.0555
X3.2891Y-3.791
X3.2895Y-1.1877
X3.2897Y-1.5372
X3.2902Y-1.6678
X3.2909Y-3.8529
X3.2909Y-2.379
X3.2913Y-2.9837
X3.2916Y-1.5959
X3.2919Y-3.105
X3.2919Y-4.5661
X3.2921Y-4.1171
X3.2927Y-3.0391
X3.2928Y-1.4696
X3.2939Y-1.1249
X3.2944Y-2.6062
X3.2951Y-0.9893
X3.2953Y-2.6812
X3.2954Y-1.2552
X3.2966Y-4.6525
X3.2971Y-0.4842
X3.2974Y-0.919
X3.298Y-2.3076
X3.2992Y-1.3991
X3.3Y-1.336
X3.3005Y-3.3746
X3.3188Y-3.408
X3.3192Y-3.474
X3.3208Y-0.2927
X3.3213Y-3.146
X3.3215Y-0.5228
X3.3226Y-2.5692
X3.3239Y-3.8784
X3.3246Y-0.1576
X3.3252Y-0.594
X3.326Y-0.6527
X3.3265Y-4.5204
X3.3269Y-4.1565
X3.3272Y-3.8228
X3.3273Y-0.9592
X3.3275Y-3.3477
X3.328Y-3.0837
X3.3291Y-0.0839
X3.3294Y-2.6488
X3.3305Y-0.892
X3.3308Y-1.2288
X3.3308Y-3.0174
X3.331Y-1.0213
X3.332Y-0.2231
X3.332Y-1.165
X3.333Y-3.7586
X3.3339Y-1.7625
X3.3345Y-1.0893
X3.352Y-3.389
X3.352Y-1.136
X3.3521Y-3.1131
X3.353Y-3.7835
X3.3535Y-3.3065
X3.3544Y-3.5095
X3.355Y-0.4824
X3.3553Y-0.2552
X3.3561Y-3.7236
X3.3564Y-1.0635
X3.3566Y-0.1187
X3.3579Y-0.9886
X3.3582Y-0.5604
X3.3584Y-4.56
X3.3586Y-3.5825
X3.3607Y-3.4478
X3.361Y-0.1843
X3.362Y-0.63
X3.3621Y-3.9116
X3.3637Y-3.8599
X3.3641Y-3.0389
X3.3643Y-1.8089
X3.3661Y-2.6824
X3.3663Y-0.9339
X3.3663Y-3.6484
X3.3664Y-1.1877
X3.3685Y-2.6118
X3.3876Y-0.8939
X3.3888Y-3.0121
X3.3892Y-3.0844
X3.3897Y-1.1031
X3.3899Y-3.3468
X3.3903Y-1.774
X3.3903Y-3.4157
X3.3907Y-0.966
X3.3908Y-1.0364
X3.3915Y-2.0359
X3.3917Y-3.4904
X3.3923Y-4.5273
X3.3926Y-2.7075
X3.3927Y-2.3089
X3.3928Y-3.5524
X3.3928Y-0.6521
X3.3929Y-3.8185
X3.3939Y-1.5029
X3.3952Y-0.1522
X3.3958Y-3.6165
X3.3961Y-3.2745
X3.3966Y-3.6874
X3.3969Y-2.647
X3.3978Y-0.5319
X3.3985Y-0.0874
X3.3994Y-2.2425
X3.3995Y-0.5833
X3.3999Y-3.8853
X3.4002Y-1.1618
X3.4006Y-3.7463
X3.4022Y-2.3701
X3.4194Y-3.7151
X3.4196Y-0.4975
X3.4198Y-3.6443
X3.4202Y-1.056
X3.4209Y-1.4668
X3.4211Y-1.5919
X3.4216Y-0.556
X3.4226Y-0.6202
X3.4239Y-3.0535
X3.4239Y-0.1202
X3.4241Y-3.7913
X3.4243Y-3.3824
X3.4252Y-0.9897
X3.4256Y-3.4469
X3.426Y-2.4126
X3.4267Y-0.9346
X3.427Y-1.8073
X3.4283Y-1.6707
X3.4294Y-4.0159
X3.431Y-3.579
X3.4311Y-2.3424
X3.4336Y-3.3147
X3.4351Y-2.6675
X3.4352Y-3.8467
X3.4353Y-3.5105
X3.4355Y-2.2723
X3.4355Y-1.1322
X3.4356Y-1.5353
X3.4357Y-3.9153
X3.4528Y-0.5207
X3.454Y-3.4839
X3.4541Y-3.5484
X3.4552Y-2.2319
X3.4555Y-0.6654
X3.4561Y-3.8874
X3.4563Y-0.0914
X3.4564Y-1.6283
X3.4569Y-1.9668
X3.457Y-1.8993
X3.4573Y-2.3108
X3.4574Y-3.7597
X3.4575Y-2.0329
X3.4584Y-3.4212
X3.4588Y-1.8396
X3.4588Y-1.5065
X3.4591Y-4.0507
X3.4593Y-0.1463
X3.4605Y-1.0314
X3.461Y-3.8263
X3.4615Y-3.3521
X3.4626Y-1.1682
X3.4633Y-0.9575
X3.4638Y-1.0985
X3.4642Y-3.2808
X3.4645Y-2.3794
X3.4649Y-3.6092
X3.4651Y-0.5863
X3.4665Y-3.0145
X3.4669Y-3.6819
X3.4674Y-1.766
X3.468Y-1.5718
X3.468Y-0.8865
X3.4865Y-0.1251
X3.4868Y-0.4495
X3.4869Y-2.5035
X3.4869Y-3.3871
X3.4886Y-1.5375
X3.4888Y-3.5795
X3.4889Y-1.0581
X3.4899Y-2.0066
X3.4905Y-1.8635
X3.4909Y-0.6264
X3.4911Y-2.3453
X3.4916Y-1.6593
X3.492Y-0.9899
X3.4928Y-3.6547
X3.4948Y-3.4506
X3.4951Y-2.2657
X3.4952Y-1.7929
X3.4956Y-1.1301
X3.4957Y-3.7243
X3.4959Y-0.553
X3.4965Y-0.9253
X3.4972Y-1.9288
X3.4972Y-3.5098
X3.4972Y-2.4044
X3.4981Y-1.4693
X3.5007Y-4.7534
X3.5009Y-3.3207
X3.5016Y-3.7785
X3.5018Y-1.598
X3.5205Y-1.9053
X3.5206Y-2.2062
X3.5217Y-0.5932
X3.5219Y-3.3485
X3.5221Y-1.5049
X3.5228Y-3.1434
X3.5244Y-1.761
X3.5247Y-1.6341
X3.5253Y-0.4956
X3.5256Y-1.0312
X3.5264Y-1.836
X3.5272Y-2.0331
X3.5284Y-0.6548
X3.53Y-0.895
X3.5304Y-1.1629
X3.5317Y-3.4163
X3.532Y-1.0911
X3.5324Y-3.4887
X3.5327Y-0.9664
X3.5344Y-0.0929
X3.5345Y-2.5332
X3.5346Y-1.9712
X3.5349Y-1.5599
X3.5356Y-2.375
X3.5357Y-2.3045
X3.5359Y-3.2795
X3.5539Y-0.9966
X3.555Y-1.0551
X3.5554Y-1.8763
X3.5558Y-0.0137
X3.5565Y-1.6024
X3.5582Y-1.536
X3.56Y-1.6616
X3.5608Y-1.191
X3.561Y-2.3366
X3.5613Y-2.5096
X3.5617Y-2.2417
X3.5618Y-2.1295
X3.563Y-2.4017
X3.5636Y-3.1202
X3.5642Y-1.1265
X3.5643Y-3.4521
X3.5643Y-2.0772
X3.5644Y-1.8029
X3.5645Y-2.0024
X3.5668Y-0.9241
X3.5671Y-3.3801
X3.5682Y-3.3174
X3.5693Y-0.5183
X3.5702Y-1.942
X3.5872Y-2.2681
X3.5873Y-1.9009
X3.5879Y-3.8566
X3.588Y-3.2769
X3.5881Y-3.7193
X3.5902Y-1.7614
X3.5904Y-2.9754
X3.5922Y-3.4218
X3.5923Y-1.1591
X3.5925Y-1.0997
X3.5925Y-1.5707
X3.5925Y-3.0393
X3.593Y-2.3663
X3.5932Y-1.2346
X3.5933Y-2.1102
X3.5945Y-0.895
X3.5949Y-1.9772
X3.5951Y-3.783
X3.5951Y-1.6392
X3.5956Y-1.8376
X3.5958Y-3.3467
X3.596Y-0.0546
X3.5973Y-1.0249
X3.5977Y-0.9661
X3.598Y-2.5407
X3.5996Y-2.1698
X3.6004Y-2.0399
X3.6012Y-2.7696
X3.6019Y-3.1432
X3.6213Y-2.207
X3.6226Y-3.0078
X3.6229Y-3.3738
X3.6234Y-1.0532
X3.6246Y-3.0872
X3.6255Y-0.9198
X3.6257Y-2.5021
X3.6263Y-1.9287
X3.6267Y-2.1387
X3.6269Y-2.5793
X3.6274Y-2.0654
X3.6279Y-1.6719
X3.6283Y-1.5304
X3.6284Y-1.8697
X3.6289Y-4.2638
X3.6295Y-1.801
X3.6303Y-3.7545
X3.6312Y-2.4137
X3.6316Y-2.7386
X3.6319Y-1.6079
X3.6324Y-2.309
X3.6339Y-0.0215
X3.635Y-3.822
X3.6356Y-0.9895
X3.6363Y-3.3133
X3.6372Y-2.0013
X3.6549Y-2.5461
X3.6552Y-2.3383
X3.6567Y-1.9621
X3.6568Y-3.2782
X3.657Y-2.6791
X3.6572Y-3.0524
X3.6573Y-2.9811
X3.6578Y-2.0959
X3.658Y-2.0375
X3.6582Y-1.8383
X3.6592Y-2.6061
X3.6606Y-3.3422
X3.6611Y-0.8927
X3.6622Y-4.2252
X3.6624Y-1.0318
X3.6629Y-3.7139
X3.6635Y-3.1195
X3.6638Y-0.6225
X3.6639Y-1.5712
X3.6648Y-0.9628
X3.665Y-2.2329
X3.6653Y-1.7663
X3.6662Y-3.4121
X3.6679Y-3.7822
X3.6683Y-2.166
X3.6696Y-3.8594
X3.6697Y-1.625
X3.6703Y-1.896
X3.6712Y-2.7791
X3.6892Y-2.5812
X3.6897Y-1.5954
X3.69Y-0.6541
X3.6902Y-3.7481
X3.6902Y-1.7955
X3.6911Y-0.9297
X3.6913Y-4.2509
X3.6915Y-1.9277
X3.693Y-1.0666
X3.6938Y-1.6666
X3.6948Y-3.8123
X3.6956Y-3.073
X3.6979Y-1.8734
X3.6984Y-0.0251
X3.6986Y-2.6418
X3.6988Y-2.0008
X3.6994Y-3.3789
X3.7004Y-3.3104
X3.7032Y-3.0118
X3.7038Y-3.1525
X3.704Y-2.7146
X3.7041Y-4.766
X3.7042Y-0.9867
X3.7224Y-0.5873
X3.7229Y-2.546
X3.7243Y-3.0531
X3.7249Y-3.3455
X3.7284Y-3.8559
X3.7305Y-4.7341
X3.7305Y-2.7375
X3.7316Y-1.8995
X3.7318Y-2.6135
X3.7322Y-0.8916
X3.7323Y-2.8807
X3.7337Y-1.6285
X3.7338Y-1.9644
X3.7338Y-3.1147
X3.7344Y-3.4078
X3.7346Y-4.1827
X3.7348Y-3.2801
X3.7351Y-2.8111
X3.736Y-1.8422
X3.7364Y-4.2947
X3.7364Y-2.9393
X3.7365Y-1.7759
X3.7373Y-3.7898
X3.7374Y-2.6769
X3.7376Y-0.9671
X3.7382Y-1.0276
X3.7558Y-1.8757
X3.7565Y-2.8494
X3.7566Y-3.3863
X3.7577Y-3.15
X3.7579Y-1.7962
X3.7582Y-4.2145
X3.7593Y-0.6297
X3.7593Y-1.4662
X3.7593Y-2.2419
X3.7599Y-4.6226
X3.76Y-2.9822
X3.7616Y-0.5585
X3.7635Y-3.8266
X3.765Y-2.7758
X3.7651Y-2.5804
X3.767Y-2.6383
X3.7675Y-4.1549
X3.7675Y-1.9417
X3.7675Y-4.6955
X3.7678Y-0.4909
X3.768Y-3.0838
X3.7683Y-1.0022
X3.7686Y-0.9345
X3.7686Y-4.7523
X3.7686Y-3.9487
X3.7691Y-1.0613
X3.7708Y-2.7012
X3.771Y-3.3071
X3.7716Y-3.443
X3.7719Y-2.9172
X3.7889Y-4.6635
X3.7899Y-2.514
X3.7904Y-3.4118
X3.7905Y-2.7491
X3.7909Y-2.4058
X3.7922Y-2.8813
X3.7927Y-4.1805
X3.793Y-3.4752
X3.7932Y-0.6628
X3.7937Y-1.4931
X3.7942Y-1.8368
X3.7944Y-2.3321
X3.7945Y-4.4251
X3.7949Y-3.8577
X3.7952Y-3.1053
X3.7961Y-0.5873
X3.7962Y-2.6816
X3.7968Y-4.2589
X3.7969Y-1.7643
X3.7982Y-2.9478
X3.7987Y-1.0276
X3.7988Y-3.3543
X3.7989Y-0.8901
X3.7992Y-0.5193
X3.7994Y-2.2746
X3.7999Y-3.7874
X3.8Y-3.275
X3.8011Y-4.7244
X3.8013Y-2.6097
X3.8026Y-1.8976
X3.8028Y-1.2591
X3.8043Y-0.9551
X3.8047Y-2.8044
X3.8049Y-3.0033
X3.8052Y-4.1209
X3.8228Y-1.1329
X3.8234Y-0.2215
X3.824Y-4.7536
X3.825Y-4.6228
X3.8254Y-0.9281
X3.8255Y-2.9103
X3.8275Y-2.3772
X3.8275Y-1.0618
X3.828Y-3.3162
X3.8285Y-2.7712
X3.8298Y-4.3869
X3.83Y-2.3104
X3.8306Y-1.2265
X3.8306Y-1.4632
X3.8306Y-2.7036
X3.8307Y-1.5385
X3.8308Y-4.095
X3.832Y-3.8158
X3.8328Y-0.1511
X3.8332Y-0.625
X3.8332Y-1.861
X3.8334Y-1.7953
X3.8345Y-0.5633
X3.835Y-3.0535
X3.8351Y-2.976
X3.836Y-4.6898
X3.8362Y-4.2154
X3.8365Y-2.2403
X3.8371Y-3.1489
X3.8373Y-2.8512
X3.8375Y-0.9873
X3.8379Y-4.1623
X3.839Y-2.5387
X3.839Y-2.6439
X3.8564Y-0.5858
X3.8576Y-2.7487
X3.8591Y-1.0968
X3.8601Y-2.6715
X3.8607Y-0.9538
X3.861Y-4.4231
X3.8611Y-2.8038
X3.8621Y-2.8699
X3.8631Y-1.8967
X3.8633Y-3.8504
X3.8634Y-4.1288
X3.8637Y-4.3597
X3.8648Y-2.5006
X3.8649Y-3.2813
X3.8655Y-1.5696
X3.8656Y-1.2574
X3.8662Y-2.9366
X3.867Y-2.4051
X3.8672Y-3.7779
X3.8676Y-2.2802
X3.8689Y-4.7192
X3.8691Y-0.1866
X3.8696Y-4.0475
X3.8696Y-4.6527
X3.87Y-0.8881
X3.8703Y-1.0208
X3.8709Y-1.8326
X3.871Y-0.5256
X3.8714Y-2.5796
X3.8714Y-3.0195
X3.8716Y-2.3378
X3.8717Y-4.1898
X3.8723Y-0.6652
X3.8724Y-1.4924
X3.8902Y-4.6303
X3.8916Y-1.5393
X3.8924Y-0.5574
X3.8932Y-2.6091
X3.8939Y-1.4648
X3.8942Y-1.1231
X3.8945Y-1.225
X3.8947Y-2.707
X3.8947Y-4.0159
X3.8948Y-4.7564
X3.8952Y-4.0855
X3.8954Y-2.2371
X3.896Y-2.3045
X3.897Y-2.3715
X3.8977Y-4.323
X3.8979Y-0.9957
X3.8986Y-3.3144
X3.899Y-4.1479
X3.8992Y-2.777
X3.8993Y-3.7464
X3.8995Y-2.5488
X3.9002Y-4.3854
X3.9007Y-1.3034
X3.9015Y-1.868
X3.9018Y-1.0697
X3.9028Y-3.8198
X3.903Y-0.6239
X3.9042Y-0.9215
X3.9045Y-1.8006
X3.9047Y-1.6042
X3.9052Y-4.697
X3.9236Y-1.3958
X3.9242Y-1.5649
X3.9245Y-1.0329
X3.9254Y-2.7436
X3.9259Y-1.2673
X3.9262Y-2.4067
X3.927Y-1.9038
X3.9281Y-1.8306
X3.9283Y-1.3317
X3.9292Y-3.7779
X3.9302Y-3.9854
X3.9306Y-3.8552
X3.9312Y-2.6427
X3.9313Y-2.3469
X3.9315Y-4.7298
X3.9318Y-1.5054
X3.932Y-2.5077
X3.9329Y-4.2831
X3.9337Y-0.5921
X3.9342Y-2.5748
X3.936Y-1.0893
X3.9365Y-4.4277
X3.9365Y-3.7254
X3.9366Y-4.3629
X3.9367Y-3.2804
X3.9367Y-2.2644
X3.9367Y-1.6312
X3.939Y-4.1165
X3.9392Y-4.6542
X3.9393Y-0.6578
X3.9393Y-0.9657
X3.9395Y-4.0575
X3.9396Y-0.8918
X3.9398Y-0.5194
X3.9572Y-2.6045
X3.9573Y-1.3687
X3.9583Y-1.054
X3.9585Y-1.5928
X3.9594Y-1.8601
X3.9601Y-4.7649
X3.9603Y-1.1235
X3.9603Y-1.9422
X3.9606Y-4.3196
X3.9625Y-0.6252
X3.9625Y-2.313
X3.9627Y-1.6684
X3.9636Y-0.9964
X3.9637Y-1.5352
X3.9642Y-2.9848
X3.9647Y-4.0896
X3.9659Y-1.2351
X3.9671Y-4.0279
X3.968Y-1.428
X3.9686Y-0.5589
X3.9687Y-3.7503
X3.9687Y-1.2957
X3.9692Y-3.1424
X3.9697Y-0.9209
X3.97Y-2.6788
X3.9704Y-4.3831
X3.9707Y-4.6993
X3.9709Y-2.3683
X3.9715Y-2.5466
X3.972Y-3.8242
X3.9724Y-4.2575
X3.9728Y-4.623
X3.9909Y-4.6542
X3.9909Y-0.2845
X3.9912Y-4.2966
X3.9918Y-3.9924
X3.9931Y-3.784
X3.9936Y-1.5633
X3.994Y-4.0516
X3.9944Y-3.0833
X3.9947Y-3.0128
X3.9949Y-0.892
X3.9955Y-2.6445
X3.9958Y-1.9657
X3.996Y-0.6582
X3.9964Y-1.6397
X3.9969Y-0.5935
X3.9973Y-0.4547
X3.9974Y-1.0205
X3.9979Y-1.2668
X3.9981Y-2.3343
X3.9994Y-2.5056
X3.9996Y-4.3616
X3.9998Y-1.4052
X4.0014Y-3.8587
X4.0014Y-2.3986
X4.0015Y-3.7127
X4.0018Y-2.2677
X4.0023Y-0.5272
X4.0024Y-2.5699
X4.0037Y-4.2237
X4.0043Y-1.4636
X4.0044Y-0.9641
X4.0045Y-1.3261
X4.0051Y-1.9011
X4.0051Y-4.7311
X4.0059Y-4.4313
X4.0069Y-1.0965
X4.025Y-2.6756
X4.0253Y-4.3154
X4.0256Y-4.183
X4.0257Y-3.826
X4.0259Y-3.3781
X4.0271Y-2.5364
X4.0273Y-1.3653
X4.0274Y-3.7509
X4.0278Y-1.432
X4.0283Y-4.7524
X4.0287Y-1.6035
X4.03Y-2.6019
X4.0303Y-1.2992
X4.0304Y-4.0135
X4.0309Y-0.5554
X4.0315Y-1.1236
X4.0319Y-1.6631
X4.0319Y-1.2222
X4.0325Y-3.0394
X4.0327Y-4.388
X4.0327Y-2.3063
X4.0339Y-0.989
X4.034Y-0.4885
X4.0355Y-3.106
X4.0357Y-4.687
X4.0362Y-0.9311
X4.0367Y-0.6255
X4.0369Y-2.3759
X4.038Y-3.4473
X4.0386Y-4.6292
X4.0387Y-1.4944
X4.0397Y-2.9807
X4.0398Y-1.0567
X4.0407Y-4.2561
X4.058Y-3.0715
X4.0582Y-3.4157
X4.0583Y-1.7621
X4.0587Y-4.6525
X4.0594Y-0.6519
X4.0608Y-0.8944
X4.0613Y-0.9612
X4.0614Y-2.5743
X4.0623Y-4.4164
X4.0631Y-0.0824
X4.0638Y-4.1471
X4.0642Y-4.362
X4.0642Y-0.5952
X4.0643Y-0.2592
X4.0653Y-1.0906
X4.0668Y-4.2285
X4.0673Y-3.3419
X4.0686Y-2.6348
X4.0687Y-4.295
X4.0695Y-3.149
X4.0698Y-3.8501
X4.071Y-1.0348
X4.071Y-3.0036
X4.0712Y-3.7861
X4.0716Y-4.7264
X4.0717Y-3.7166
X4.0721Y-0.5211
X4.0725Y-3.4806
X4.0728Y-1.2654
X4.0919Y-4.7653
X4.0923Y-2.6824
X4.0943Y-3.0498
X4.0955Y-0.1273
X4.0967Y-3.746
X4.0968Y-0.5604
X4.0971Y-1.8076
X4.0972Y-0.9293
X4.0974Y-4.6864
X4.0978Y-4.6176
X4.0982Y-3.1108
X4.099Y-3.455
X4.0991Y-3.8159
X4.0997Y-3.3884
X4.1Y-4.1221
X4.101Y-4.3947
X4.1011Y-4.3272
X4.1016Y-3.5227
X4.1018Y-1.2354
X4.1022Y-1.0583
X4.1022Y-3.3223
X4.1046Y-4.1941
X4.1052Y-2.605
X4.1059Y-4.2567
X4.1071Y-1.1252
X4.1071Y-0.9989
X4.1078Y-0.6322
X4.1079Y-0.485
X4.1278Y-0.8922
X4.1286Y-2.7089
X4.1287Y-4.2852
X4.1289Y-4.4305
X4.1291Y-4.1516
X4.1302Y-0.1482
X4.1304Y-4.6666
X4.1309Y-3.0191
X4.1317Y-3.5476
X4.1319Y-0.9598
X4.1324Y-1.091
X4.1325Y-0.0886
X4.1336Y-0.5888
X4.1337Y-4.0823
X4.1348Y-3.4083
X4.1351Y-3.0821
X4.1351Y-0.6531
X4.1355Y-4.2161
X4.1363Y-1.7717
X4.1376Y-3.4843
X4.1378Y-2.6447
X4.138Y-3.7838
X4.1388Y-3.8516
X4.1391Y-3.2744
X4.1392Y-4.3572
X4.1399Y-0.5292
X4.1401Y-1.0352
X4.1409Y-3.345
X4.1418Y-4.7201
X4.1589Y-2.3029
X4.1592Y-4.1942
X4.1595Y-0.6307
X4.1605Y-1.7983
X4.1605Y-3.5749
X4.161Y-1.6747
X4.1613Y-2.6684
X4.1613Y-4.6895
X4.1616Y-0.5606
X4.162Y-4.2516
X4.1629Y-1.4635
X4.1641Y-0.1947
X4.1647Y-4.3917
X4.1651Y-0.9259
X4.1655Y-0.4875
X4.1655Y-1.0675
X4.1658Y-0.3607
X4.1674Y-3.037
X4.1676Y-0.9984
X4.1683Y-2.3715
X4.1686Y-4.6175
X4.1697Y-4.764
X4.1697Y-3.818
X4.1704Y-4.0483
X4.1707Y-3.515
X4.1708Y-0.1154
X4.1713Y-4.3151
X4.173Y-3.3145
X4.1733Y-4.118
X4.1735Y-3.3844
X4.1737Y-2.2413
X4.1744Y-0.4248
X4.1753Y-3.4551
X4.1753Y-1.6052
X4.1756Y-1.5268
X4.1927Y-4.3491
X4.1929Y-0.5181
X4.1937Y-3.4803
X4.1939Y-3.3396
X4.1944Y-1.7742
X4.1945Y-0.2266
X4.1946Y-2.4084
X4.195Y-3.0033
X4.196Y-1.8956
X4.1961Y-3.5527
X4.1983Y-3.8457
X4.1992Y-0.386
X4.1999Y-0.154
X4.2Y-1.0267
X4.2003Y-2.0354
X4.2004Y-1.501
X4.2014Y-0.8944
X4.2027Y-4.281
X4.2028Y-1.568
X4.2031Y-0.0872
X4.2034Y-1.9757
X4.2035Y-0.9588
X4.2038Y-1.8381
X4.2044Y-4.0883
X4.2045Y-4.729
X4.2051Y-4.6574
X4.2054Y-1.6275
X4.2055Y-3.4107
X4.2057Y-2.2665
X4.2063Y-0.4516
X4.2066Y-4.2157
X4.2067Y-0.6557
X4.2075Y-3.2837
X4.2077Y-4.4191
X4.2083Y-3.6229
X4.2085Y-0.5915
X4.2085Y-4.1612
X4.2086Y-2.3336
X4.2261Y-4.3151
X4.2266Y-4.1295
X4.227Y-2.3025
X4.2271Y-1.8024
X4.2279Y-0.4919
X4.2296Y-1.6727
X4.2297Y-1.94
X4.2305Y-1.5274
X4.2306Y-3.3132
X4.2308Y-0.6169
X4.2309Y-0.9351
X4.2321Y-0.194
X4.2329Y-1.6064
X4.2331Y-4.2501
X4.2334Y-2.0046
X4.234Y-4.3902
X4.2356Y-2.2372
X4.2357Y-0.419
X4.236Y-1.4607
X4.2361Y-4.7
X4.2367Y-3.5209
X4.2382Y-0.5494
X4.2384Y-1.0012
X4.2388Y-4.1891
X4.2389Y-2.3682
X4.239Y-4.0568
X4.2391Y-4.6247
X4.2394Y-0.1217
X4.2407Y-3.4466
X4.2412Y-3.577
X4.2412Y-2.5012
X4.2415Y-3.3887
X4.2416Y-0.2627
X4.2421Y-1.8765
X4.2428Y-4.7648
X4.2601Y-4.1558
X4.2605Y-0.9657
X4.2607Y-4.3511
X4.261Y-3.2824
X4.2611Y-0.5867
X4.2612Y-4.2862
X4.262Y-3.4771
X4.2622Y-1.5679
X4.2625Y-2.3444
X4.2625Y-3.3504
X4.2626Y-2.4051
X4.2631Y-4.7193
X4.2634Y-2.2799
X4.2657Y-1.1621
X4.2659Y-1.6381
X4.266Y-4.4225
X4.2673Y-0.2895
X4.2684Y-0.4572
X4.2685Y-0.1496
X4.2687Y-2.5381
X4.2689Y-1.7667
X4.2693Y-1.4944
X4.2701Y-1.9638
X4.2704Y-1.8956
X4.2707Y-0.087
X4.2713Y-0.5276
X4.2713Y-0.8967
X4.2717Y-2.2107
X4.2724Y-1.8363
X4.2727Y-4.2251
X4.2747Y-3.4133
X4.2747Y-2.0386
X4.2761Y-0.2174
X4.2762Y-0.6639
X4.2763Y-3.1379
X4.2936Y-0.117
X4.2937Y-3.3133
X4.2939Y-2.0033
X4.294Y-2.3102
X4.2941Y-0.9196
X4.2945Y-1.9367
X4.2953Y-0.2587
X4.2963Y-1.8036
X4.2969Y-2.0784
X4.2971Y-4.7556
X4.2971Y-3.1077
X4.2976Y-2.3718
X4.2979Y-1.1266
X4.301Y-1.6021
X4.301Y-2.5793
X4.3015Y-4.255
X4.303Y-2.1452
X4.303Y-0.1843
X4.3031Y-4.1825
X4.3035Y-2.2397
X4.3035Y-1.5243
X4.3041Y-4.3203
X4.3043Y-3.3838
X4.3045Y-3.4468
X4.3045Y-1.6594
X4.3046Y-1.8702
X4.305Y-4.3892
X4.31Y-2.5004
X4.3271Y-2.3389
X4.328Y-0.1458
X4.3289Y-1.8978
X4.3296Y-2.5488
X4.33Y-3.7132
X4.3306Y-2.9829
X4.3308Y-3.35
X4.3311Y-4.8562
X4.3316Y-0.088
X4.3317Y-1.0935
X4.3319Y-4.2854
X4.332Y-0.2208
X4.3322Y-2.1034
X4.333Y-2.7755
X4.333Y-3.4228
X4.3338Y-1.9667
X4.334Y-0.7957
X4.3342Y-1.5581
X4.3343Y-1.6405
X4.3344Y-1.1611
X4.3351Y-1.8344
X4.3352Y-4.3617
X4.3356Y-1.2359
X4.3367Y-4.2285
X4.3369Y-1.7669
X4.3373Y-0.8672
X4.3384Y-3.1527
X4.3385Y-3.2772
X4.3398Y-2.2656
X4.3408Y-2.4047
X4.3412Y-2.0402
X4.3413Y-3.0536
X4.3413Y-4.7979
X4.3413Y-2.1647
X4.3627Y-2.1399
X4.3633Y-3.3105
X4.3637Y-2.3702
X4.3638Y-0.1225
X4.3639Y-2.2982
X4.3647Y-4.1849
X4.365Y-3.0124
X4.3657Y-1.8724
X4.366Y-1.5385
X4.3668Y-1.8054
X4.3671Y-4.2617
X4.3684Y-1.1899
X4.3684Y-1.672
X4.3685Y-2.0685
X4.37Y-3.3776
X4.3703Y-3.0758
X4.3708Y-1.0661
X4.3715Y-0.8252
X4.3716Y-0.1813
X4.3726Y-2.2044
X4.3737Y-1.9349
X4.3739Y-2.5693
X4.3744Y-2.0012
X4.3749Y-2.5142
X4.3761Y-1.1237
X4.3767Y-3.7434
X4.3772Y-1.6014
X4.3944Y-2.1025
X4.3945Y-1.0311
X4.3948Y-3.2809
X4.3949Y-3.1195
X4.3953Y-2.2436
X4.3954Y-2.0423
X4.3957Y-1.5705
X4.3959Y-3.3431
X4.396Y-1.842
X4.397Y-2.6108
X4.3971Y-2.3355
X4.3974Y-2.3981
X4.3981Y-2.6747
X4.3994Y-4.2975
X4.3996Y-0.1496
X4.4003Y-0.0904
X4.401Y-3.0531
X4.4015Y-1.7664
X4.4017Y-1.973
X4.4031Y-1.6286
X4.4045Y-1.901
X4.4051Y-2.7355
X4.4058Y-2.5471
X4.4076Y-2.9718
X4.4084Y-3.7797
X4.4085Y-2.178
X4.4102Y-3.7161
X4.4108Y-3.4152
X4.4281Y-2.6469
X4.4295Y-1.8749
X4.4296Y-2.0746
X4.4312Y-1.6075
X4.4313Y-2.7102
X4.4316Y-1.8076
X4.4329Y-1.0012
X4.4347Y-2.5759
X4.4351Y-2.0044
X4.4353Y-3.7446
X4.4353Y-1.5339
X4.4359Y-2.7703
X4.4365Y-2.2681
X4.4366Y-3.1393
X4.4367Y-3.0717
X4.4369Y-1.6736
X4.438Y-2.141
X4.4384Y-0.1233
X4.4394Y-3.8178
X4.4402Y-1.0566
X4.4407Y-3.3102
X4.4407Y-3.3774
X4.4437Y-3.0175
X4.4439Y-1.9322
X4.4442Y-2.2129
X4.4616Y-0.4932
X4.4618Y-0.0839
X4.462Y-3.1044
X4.462Y-0.6277
X4.4621Y-1.7623
X4.4628Y-2.5333
X4.4631Y-0.1505
X4.464Y-2.7444
X4.4647Y-2.8065
X4.4649Y-2.9499
X4.4662Y-2.6145
X4.4663Y-1.976
X4.4666Y-3.0413
X4.4668Y-0.8585
X4.4672Y-0.9258
X4.4683Y-3.3497
X4.4695Y-3.2845
X4.4699Y-0.8007
X4.4702Y-3.4177
X4.471Y-1.8355
X4.4711Y-1.6373
X4.472Y-0.5578
X4.4729Y-1.0314
X4.4742Y-3.8556
X4.4747Y-2.678
X4.4763Y-1.9086
X4.4782Y-3.7833
X4.4951Y-1.9298
X4.4952Y-0.6618
X4.4969Y-0.9561
X4.4975Y-1.8663
X4.4987Y-3.3898
X4.4991Y-2.8449
X4.4992Y-2.7099
X4.501Y-0.8243
X4.5023Y-0.9018
X4.5025Y-1.8003
X4.5031Y-2.9729
X4.5036Y-3.0844
X4.5048Y-2.9136
X4.5054Y-2.7722
X4.5063Y-3.4508
X4.5063Y-0.5976
X4.5066Y-3.1521
X4.5071Y-1.0597
X4.5071Y-3.8118
X4.5077Y-0.5306
X4.5078Y-2.5747
X4.5093Y-0.7632
X4.5103Y-0.1225
X4.5107Y-2.6475
X4.5117Y-3.3105
X4.5294Y-2.9488
X4.5295Y-4.0178
X4.5301Y-2.7472
X4.5303Y-0.864
X4.5315Y-2.8766
X4.5316Y-0.9908
X4.5316Y-2.3778
X4.5322Y-0.7954
X4.5323Y-1.772
X4.5329Y-3.7908
X4.5342Y-2.681
X4.5351Y-0.5541
X4.5358Y-0.0888
X4.536Y-3.8591
X4.5367Y-2.2421
X4.537Y-2.8051
X4.5375Y-0.6309
X4.5383Y-1.5044
X4.5384Y-3.2764
X4.5389Y-2.6091
X4.5391Y-3.4155
X4.5395Y-3.0197
X4.5401Y-1.8429
X4.5404Y-3.1085
X4.5408Y-1.8992
X4.5419Y-0.1541
X4.542Y-2.3096
X4.5438Y-3.3495
X4.5447Y-2.5064
X4.5448Y-3.4874
X4.5449Y-0.9225
X4.5623Y-0.9607
X4.5624Y-2.8467
X4.5635Y-0.8924
X4.5642Y-2.9727
X4.5642Y-3.1429
X4.565Y-1.2707
X4.5664Y-0.6633
X4.568Y-0.5926
X4.5689Y-1.8612
X4.5694Y-2.7769
X4.5696Y-2.7097
X4.5706Y-1.4677
X4.5714Y-3.8189
X4.5722Y-0.7628
X4.5732Y-2.6402
X4.5736Y-3.3218
X4.5746Y-2.9137
X4.5749Y-1.7984
X4.5751Y-1.5343
X4.5754Y-0.5277
X4.5758Y-3.0454
X4.5758Y-2.2678
X4.5768Y-0.1227
X4.578Y-2.4055
X4.5784Y-2.3458
X4.5784Y-2.5331
X4.5789Y-0.8182
X4.5974Y-1.9087
X4.5983Y-3.0079
X4.5991Y-0.5553
X4.6001Y-3.0722
X4.6002Y-0.9297
X4.601Y-2.3043
X4.6013Y-2.9368
X4.6033Y-1.5026
X4.6038Y-2.6712
X4.6045Y-0.6199
X4.6048Y-1.5725
X4.6048Y-1.1262
X4.6049Y-0.8569
X4.6054Y-3.7902
X4.6055Y-0.7996
X4.6057Y-1.1881
X4.6061Y-2.2364
X4.6064Y-2.8689
X4.6067Y-0.0948
X4.6068Y-1.8405
X4.6073Y-3.2808
X4.6086Y-2.5763
X4.6095Y-2.3709
X4.6097Y-2.8131
X4.6101Y-3.8517
X4.6101Y-0.1489
X4.6112Y-2.5039
X4.6123Y-2.7439
X4.6305Y-2.6076
X4.6335Y-1.2272
X4.6341Y-2.541
X4.6352Y-1.1634
X4.6361Y-0.8968
X4.6362Y-3.8266
X4.6368Y-2.7049
X4.6383Y-1.0989
X4.6387Y-1.6044
X4.6388Y-0.5826
X4.639Y-3.751
X4.6397Y-1.4686
X4.6398Y-1.802
X4.6405Y-2.3466
X4.6407Y-0.7598
X4.6407Y-0.8195
X4.6414Y-2.4074
X4.6428Y-3.3217
X4.6429Y-1.5327
X4.6434Y-2.2653
X4.6451Y-1.8718
X4.6452Y-0.6617
X4.6457Y-2.7773
X4.6459Y-0.5195
X4.6643Y-0.5506
X4.6646Y-1.5729
X4.6658Y-3.7805
X4.6662Y-2.6362
X4.6666Y-4.8576
X4.6676Y-0.7897
X4.6681Y-1.396
X4.6682Y-1.8356
X4.6693Y-0.8539
X4.6695Y-1.1992
X4.6695Y-1.8952
X4.6701Y-4.9275
X4.6714Y-1.632
X4.6724Y-1.0578
X4.6728Y-1.3261
X4.674Y-1.2642
X4.6753Y-0.626
X4.6766Y-2.5148
X4.6767Y-2.5677
X4.6771Y-2.7442
X4.6773Y-1.1253
X4.6787Y-3.851
X4.6788Y-3.2872
X4.6792Y-2.298
X4.6793Y-2.3658
X4.6794Y-1.4969
X4.6991Y-1.8631
X4.6993Y-3.813
X4.6997Y-3.7186
X4.7001Y-0.7589
X4.7006Y-0.8287
X4.7016Y-2.6687
X4.7026Y-2.2784
X4.7029Y-0.5911
X4.7035Y-1.5999
X4.7048Y-1.3014
X4.7055Y-2.3981
X4.7056Y-1.0965
X4.7057Y-2.5383
X4.7064Y-1.4293
X4.7074Y-3.1516
X4.7076Y-0.5297
X4.7079Y-1.3632
X4.7088Y-1.9384
X4.7089Y-2.9864
X4.7092Y-1.5397
X4.7101Y-0.6517
X4.7103Y-2.3317
X4.7104Y-1.0223
X4.7115Y-1.6679
X4.7122Y-2.6097
X4.7122Y-1.2327
X4.7122Y-1.1668
X4.7304Y-1.5698
X4.7307Y-1.9037
X4.7308Y-2.5794
X4.7315Y-1.3363
X4.7325Y-0.6302
X4.7325Y-0.9886
X4.7325Y-1.3896
X4.7329Y-1.2712
X4.7337Y-3.0086
X4.7339Y-1.1911
X4.7339Y-3.7529
X4.7345Y-2.3724
X4.7353Y-1.1289
X4.7363Y-4.4554
X4.7364Y-0.7946
X4.739Y-2.641
X4.7417Y-3.0846
X4.7432Y-1.6402
X4.7433Y-2.3078
X4.7435Y-1.4718
X4.7436Y-0.5529
X4.7437Y-1.0612
X4.7447Y-1.9714
X4.7451Y-3.8458
X4.7469Y-2.5063
X4.7643Y-2.5451
X4.7648Y-1.0885
X4.7656Y-2.2675
X4.7657Y-0.5977
X4.7662Y-0.9525
X4.7663Y-2.6009
X4.7664Y-4.424
X4.7665Y-2.9836
X4.767Y-2.3319
X4.768Y-3.0492
X4.7685Y-1.5986
X4.7689Y-3.713
X4.7694Y-1.2986
X4.7699Y-0.6555
X4.7708Y-1.4319
X4.7709Y-2.6753
X4.7714Y-0.5256
X4.7714Y-1.0258
X4.7727Y-0.7545
X4.7731Y-3.1057
X4.7753Y-1.5022
X4.7766Y-1.2216
X4.7771Y-3.4229
X4.778Y-1.6635
X4.7789Y-1.3581
X4.7799Y-3.7878
X4.7803Y-2.4035
X4.7805Y-1.1699
X4.7994Y-3.8124
X4.8014Y-4.3551
X4.8015Y-0.6283
X4.8037Y-1.7655
X4.8039Y-1.1248
X4.804Y-3.749
X4.8044Y-0.5497
X4.8046Y-2.6391
X4.8047Y-3.3774
X4.8048Y-0.9286
X4.805Y-2.5699
X4.8061Y-4.4642
X4.8066Y-4.2924
X4.807Y-3.1453
X4.8073Y-3.4413
X4.8091Y-1.5388
X4.8098Y-0.99
X4.8103Y-2.368
X4.8113Y-1.0599
X4.8128Y-3.0749
X4.8133Y-2.2997
X4.8136Y-3.0121
X4.8321Y-2.6697
X4.8324Y-1.091
X4.8329Y-4.2597
X4.8335Y-3.8509
X4.8341Y-2.6075
X4.8342Y-3.421
X4.8358Y-0.586
X4.8359Y-3.7923
X4.8366Y-3.349
X4.8382Y-0.5313
X4.8382Y-1.021
X4.8382Y-1.8096
X4.8385Y-3.0384
X4.8401Y-0.9673
X4.8401Y-4.3887
X4.8407Y-4.319
X4.8411Y-3.1139
X4.8432Y-0.8944
X4.8455Y-3.7145
X4.8459Y-3.4778
X4.8673Y-3.0145
X4.8674Y-4.2896
X4.8678Y-2.6421
X4.8701Y-0.9232
X4.8714Y-3.4537
X4.8722Y-4.3572
X4.8726Y-4.5601
X4.8745Y-3.5168
X4.8753Y-3.3732
X4.8757Y-3.082
X4.8759Y-0.8679
X4.8768Y-1.7669
X4.8774Y-1.0552
X4.8785Y-4.4256
X4.8789Y-0.9933
X4.8809Y-4.4946
X4.8985Y-0.9676
X4.8987Y-1.6378
X4.9013Y-2.3075
X4.9015Y-4.318
X4.9017Y-3.0465
X4.9025Y-0.8283
X4.9028Y-1.8011
X4.9059Y-4.4567
X4.906Y-4.2519
X4.906Y-2.6694
X4.9076Y-2.3741
X4.9089Y-0.8907
X4.9094Y-4.5175
X4.9101Y-4.3929
X4.9125Y-1.0219
X4.914Y-2.2437
X4.9321Y-2.4089
X4.9323Y-4.2934
X4.9326Y-0.6194
X4.9333Y-0.4984
X4.9354Y-0.554
X4.9356Y-4.5549
X4.9364Y-1.9964
X4.9376Y-2.3399
X4.9379Y-1.4694
X4.9392Y-0.8585
X4.9396Y-0.9997
X4.9424Y-1.8299
X4.9429Y-0.2612
X4.9434Y-1.6735
X4.9439Y-4.3602
X4.9442Y-0.931
X4.9443Y-0.0852
X4.9449Y-3.0076
X4.9457Y-0.7906
X4.9464Y-4.4166
X4.9465Y-2.741
X4.947Y-2.2748
X4.9485Y-4.4875
X4.9683Y-2.2976
X4.9689Y-1.1664
X4.9691Y-0.7554
X4.9706Y-4.4512
X4.9707Y-1.497
X4.9709Y-4.326
X4.9718Y-4.3919
X4.9731Y-4.5275
X4.9735Y-0.186
X4.9756Y-2.2308
X4.9769Y-0.8901
X4.977Y-0.1253
X4.9773Y-0.5895
X4.9775Y-0.6575
X4.9795Y-1.9379
X4.9799Y-1.8716
X4.9813Y-0.8333
X4.9814Y-0.5286
X4.9824Y-2.3751
X4.9825Y-0.9648
X4.9997Y-0.1533
X4.9999Y-1.5364
X5.0Y-2.2764
X5.0018Y-0.9201
X5.0025Y-0.2265
X5.0029Y-0.4949
X5.0035Y-0.5615
X5.0042Y-4.3538
X5.0045Y-0.6314
X5.0049Y-2.0371
X5.0055Y-1.1301
X5.0068Y-2.3382
X5.0071Y-0.2833
X5.0072Y-4.4189
X5.008Y-2.5086
X5.0083Y-0.0916
X5.0088Y-0.7916
X5.0094Y-4.4893
X5.0101Y-1.8944
X5.0102Y-1.9685
X5.0115Y-0.8598
X5.0121Y-2.4124
X5.0349Y-0.2628
X5.0354Y-0.6653
X5.0357Y-3.3736
X5.0369Y-2.0058
X5.0374Y-0.7667
X5.0381Y-2.2044
X5.0395Y-2.0721
X5.0397Y-2.5334
X5.0401Y-0.8915
X5.0404Y-1.9333
X5.0409Y-1.0974
X5.0419Y-2.3046
X5.042Y-1.1561
X5.0422Y-0.4577
X5.0428Y-0.587
X5.0429Y-0.1946
X5.043Y-2.1455
X5.0437Y-3.4453
X5.0458Y-0.3863
X5.0464Y-0.3245
X5.0466Y-0.1147
X5.0469Y-0.824
X5.0469Y-4.8625
X5.0477Y-1.5676
X5.0488Y-0.5272
X5.0497Y-1.4917
X5.0497Y-2.3712
X5.0681Y-0.428
X5.0686Y-0.2804
X5.0696Y-1.5354
X5.0702Y-0.7983
X5.0708Y-0.0896
X5.0709Y-0.3537
X5.0711Y-0.6191
X5.0711Y-0.1545
X5.0713Y-1.1342
X5.0714Y-0.4971
X5.0715Y-0.5565
X5.0726Y-2.0309
X5.0735Y-2.4147
X5.075Y-1.6031
X5.0755Y-0.2163
X5.0758Y-2.2449
X5.076Y-1.9626
X5.0762Y-4.8918
X5.0765Y-3.423
X5.0774Y-2.1744
X5.0784Y-2.5108
X5.0794Y-1.057
X5.0801Y-2.1006
X5.0804Y-2.9788
X5.0808Y-2.7702
X5.0811Y-2.3383
X5.0811Y-3.314
X5.0817Y-1.1972
X5.0831Y-0.8627
X5.1003Y-2.1348
X5.1006Y-1.0999
X5.1017Y-1.0229
X5.1019Y-1.9953
X5.1036Y-4.8206
X5.1037Y-3.2736
X5.1039Y-1.6262
X5.1046Y-0.1265
X5.106Y-0.5864
X5.1061Y-0.6575
X5.1069Y-0.3255
X5.1071Y-2.2112
X5.1089Y-0.5166
X5.1092Y-0.1938
X5.1099Y-1.1679
X5.1109Y-0.2556
X5.112Y-0.7573
X5.112Y-2.5359
X5.1131Y-2.379
X5.1133Y-0.8267
X5.1133Y-0.4544
X5.1137Y-0.391
X5.1138Y-2.0739
X5.114Y-2.2731
X5.1156Y-1.2333
X5.1159Y-3.352
X5.1166Y-1.5634
X5.1355Y-0.7855
X5.1356Y-0.4216
X5.1394Y-2.7369
X5.1403Y-0.993
X5.1407Y-0.3538
X5.1422Y-0.2805
X5.1423Y-0.0843
X5.1432Y-0.1586
X5.1434Y-2.6164
X5.1437Y-3.3888
X5.1441Y-0.5642
X5.1449Y-1.5323
X5.1453Y-3.7144
X5.1458Y-3.3144
X5.1462Y-0.2161
X5.1464Y-1.0614
X5.1469Y-0.4833
X5.147Y-1.6037
X5.1479Y-0.6174
X5.148Y-4.8886
X5.1505Y-2.6802
X5.1693Y-0.5905
X5.1697Y-0.4637
X5.1699Y-3.4221
X5.1707Y-3.3562
X5.1733Y-3.2763
X5.1741Y-0.181
X5.175Y-0.5175
X5.1765Y-0.3179
X5.177Y-3.7573
X5.1792Y-0.251
X5.1797Y-1.023
X5.1808Y-1.6342
X5.1812Y-1.5722
X5.1816Y-0.1121
X5.1822Y-0.9601
X5.1829Y-0.3973
X5.183Y-3.1446
X5.1833Y-0.6593
X5.2017Y-1.6612
X5.2017Y-0.4909
X5.2018Y-1.9314
X5.2028Y-1.8704
X5.2033Y-1.7944
X5.2068Y-0.161
X5.2078Y-0.4268
X5.2084Y-0.6217
X5.2088Y-0.5618
X5.2098Y-0.3477
X5.2101Y-3.1106
X5.2105Y-0.08
X5.2113Y-0.2893
X5.2117Y-3.38
X5.2126Y-0.2274
X5.2132Y-3.3218
X5.2137Y-0.9331
X5.2138Y-0.9909
X5.2152Y-1.0641
X5.2177Y-3.7869
X5.2352Y-0.248
X5.236Y-3.421
X5.2369Y-3.2811
X5.2383Y-1.7685
X5.241Y-1.0359
X5.2428Y-3.3441
X5.2433Y-1.9719
X5.2433Y-1.9049
X5.2439Y-0.6577
X5.2451Y-1.8409
X5.2454Y-0.5957
X5.2454Y-0.8871
X5.2464Y-0.5259
X5.2475Y-0.1843
X5.2481Y-3.1402
X5.2498Y-0.1281
X5.2503Y-3.821
X5.2505Y-3.072
X5.2514Y-0.9554
X5.2692Y-2.7811
X5.2699Y-0.8582
X5.2703Y-2.2383
X5.2706Y-3.7803
X5.2711Y-3.037
X5.2717Y-1.8692
X5.272Y-2.6343
X5.2722Y-2.4101
X5.2731Y-3.4546
X5.2732Y-2.9132
X5.2738Y-0.9345
X5.2742Y-0.1506
X5.2747Y-0.6192
X5.2749Y-1.7982
X5.2755Y-1.9296
X5.2759Y-2.9708
X5.2761Y-2.8477
X5.2768Y-2.7069
X5.2772Y-3.1169
X5.2773Y-3.3765
X5.2788Y-0.9996
X5.2798Y-0.5651
X5.2812Y-0.4861
X5.2817Y-3.3075
X5.2838Y-0.0947
X5.2841Y-1.4611
X5.3021Y-1.8288
X5.3022Y-2.9379
X5.3023Y-0.9601
X5.3034Y-3.4188
X5.3038Y-2.7353
X5.3039Y-3.4763
X5.3044Y-2.8748
X5.3045Y-0.1234
X5.3047Y-1.76
X5.3051Y-2.5126
X5.3054Y-3.8251
X5.3055Y-3.3451
X5.3064Y-2.5776
X5.3071Y-0.8934
X5.3075Y-1.5013
X5.3077Y-1.9072
X5.3082Y-2.2668
X5.3083Y-0.598
X5.3084Y-4.6512
X5.3089Y-3.1543
X5.3091Y-3.0034
X5.3094Y-0.5164
X5.3105Y-4.7221
X5.311Y-3.0745
X5.3118Y-2.817
X5.3134Y-3.2735
X5.3135Y-2.3327
X5.3175Y-4.3591
X5.3183Y-1.2709
X5.3184Y-2.6731
X5.3366Y-0.153
X5.3374Y-4.3889
X5.3382Y-1.863
X5.3393Y-1.7956
X5.3395Y-2.7776
X5.3396Y-2.2428
X5.3398Y-3.106
X5.3405Y-2.7078
X5.3416Y-1.5243
X5.3418Y-4.5208
X5.3422Y-1.2266
X5.3423Y-3.7886
X5.3443Y-3.8528
X5.3446Y-2.3682
X5.3451Y-2.8389
X5.3455Y-1.4615
X5.3456Y-2.9106
X5.3458Y-2.5409
X5.3459Y-0.079
X5.3468Y-4.2837
X5.3469Y-4.7616
X5.3478Y-1.1666
X5.3478Y-4.6947
X5.3482Y-2.3132
X5.3488Y-3.0445
X5.3491Y-3.3147
X5.3495Y-4.4647
X5.3499Y-2.6003
X5.3504Y-2.9845
X5.3512Y-4.5904
X5.3707Y-1.8287
X5.3736Y-2.4007
X5.3737Y-4.7315
X5.3741Y-0.1185
X5.3742Y-2.4996
X5.3742Y-3.2824
X5.3742Y-1.2006
X5.3754Y-1.1248
X5.3764Y-2.3391
X5.3765Y-1.2623
X5.3773Y-2.6342
X5.378Y-2.2771
X5.3803Y-2.5698
X5.3817Y-4.6539
X5.382Y-1.5041
X5.3843Y-1.5648
X5.3851Y-2.746
X5.3858Y-1.9103
X5.4031Y-3.3079
X5.4049Y-0.9344
X5.4059Y-2.3649
X5.4061Y-2.6159
X5.4062Y-2.3005
X5.4075Y-4.756
X5.4079Y-0.9947
X5.4108Y-1.2921
X5.4114Y-1.1566
X5.4118Y-0.8638
X5.4121Y-2.549
X5.4142Y-1.2348
X5.4147Y-1.8744
X5.416Y-1.0666
X5.4169Y-0.0794
X5.417Y-1.5265
X5.4174Y-1.4369
X5.4187Y-2.6742
X5.419Y-1.5972
X5.4191Y-0.7992
X5.4372Y-1.0359
X5.4376Y-2.6469
X5.438Y-2.4061
X5.4389Y-2.2684
X5.4406Y-2.7045
X5.4408Y-1.6324
X5.4425Y-0.9649
X5.4426Y-1.256
X5.4434Y-1.3987
X5.4438Y-4.7245
X5.4445Y-1.1992
X5.4447Y-1.5653
X5.4453Y-1.0997
X5.446Y-2.5767
X5.4462Y-3.2882
X5.4463Y-1.8974
X5.4473Y-0.8999
X5.4476Y-0.8221
X5.4485Y-2.3436
X5.4494Y-2.5089
X5.4515Y-0.5268
X5.4518Y-1.4694
X5.4529Y-1.3246
X5.4702Y-4.7517
X5.4706Y-3.782
X5.471Y-2.5456
X5.4729Y-1.9408
X5.4742Y-2.3789
X5.4743Y-3.1129
X5.4745Y-1.367
X5.4747Y-2.3018
X5.4759Y-2.6111
X5.4765Y-1.5068
X5.4767Y-0.9923
X5.4768Y-0.7923
X5.4771Y-2.9723
X5.4787Y-1.0611
X5.4789Y-1.1258
X5.479Y-1.2366
X5.4797Y-3.0422
X5.4802Y-1.6674
X5.4803Y-1.2907
X5.4808Y-0.8625
X5.4808Y-1.4242
X5.4813Y-2.6731
X5.4819Y-1.5951
X5.4822Y-0.9196
X5.4837Y-3.7188
X5.4868Y-0.2152
X5.504Y-1.2607
X5.5051Y-3.4214
X5.5093Y-3.0761
X5.5095Y-1.5395
X5.5105Y-3.7464
X5.5105Y-2.2712
X5.5119Y-2.5811
X5.512Y-4.7332
X5.5125Y-1.4621
X5.513Y-1.0274
X5.513Y-1.165
X5.5135Y-1.3357
X5.5135Y-0.8951
X5.5144Y-0.8328
X5.5147Y-2.5077
X5.515Y-2.3329
X5.5172Y-3.0184
X5.5184Y-2.6358
X5.5186Y-3.1398
X5.5187Y-2.4026
X5.5188Y-0.9539
X5.519Y-3.4766
X5.5192Y-1.4001
X5.5195Y-1.6353
X5.5197Y-1.0869
X5.5198Y-3.819
X5.5375Y-0.8642
X5.538Y-0.9334
X5.5383Y-3.4516
X5.5394Y-4.7557
X5.5398Y-1.1878
X5.5416Y-1.0659
X5.5431Y-3.0474
X5.544Y-3.1178
X5.544Y-0.6277
X5.5448Y-2.3768
X5.5452Y-2.6796
X5.5455Y-3.3781
X5.546Y-3.7784
X5.5465Y-0.7561
X5.5467Y-2.9811
X5.5471Y-1.4242
X5.5473Y-2.3029
X5.5476Y-3.7194
X5.5484Y-1.291
X5.5494Y-1.3697
X5.5503Y-0.9935
X5.5509Y-3.8493
X5.5516Y-2.6009
X5.5518Y-1.4962
X5.5519Y-2.5403
X5.552Y-3.5109
X5.5527Y-1.1207
X5.5709Y-1.2288
X5.5716Y-3.0179
X5.5745Y-1.0363
X5.5751Y-0.6586
X5.5761Y-1.1641
X5.5762Y-1.7711
X5.5779Y-4.7293
X5.5789Y-3.3469
X5.5798Y-0.9653
X5.5809Y-3.0776
X5.581Y-1.099
X5.581Y-0.8901
X5.5812Y-3.4792
X5.5818Y-3.7512
X5.5837Y-3.4164
X5.5838Y-2.5785
X5.5846Y-0.7851
X5.5859Y-2.6482
X5.5866Y-0.5945
X5.5866Y-3.1418
X5.6049Y-3.3754
X5.605Y-0.5537
X5.6051Y-4.2835
X5.6057Y-3.3099
X5.6064Y-3.0468
X5.6071Y-3.7096
X5.6087Y-0.7547
X5.6092Y-1.0572
X5.6094Y-3.647
X5.6099Y-0.6222
X5.6106Y-1.1284
X5.6117Y-3.4502
X5.6118Y-0.8219
X5.6119Y-3.5151
X5.6123Y-0.921
X5.6123Y-0.9877
X5.6124Y-1.1901
X5.6127Y-4.4616
X5.6143Y-1.796
X5.6155Y-2.6079
X5.617Y-4.217
X5.6182Y-3.5812
X5.6196Y-4.7635
X5.6198Y-3.1173
X5.62Y-2.6764
X5.6384Y-3.3464
X5.6387Y-1.5038
X5.6392Y-3.4761
X5.6393Y-4.0945
X5.6396Y-0.4938
X5.6397Y-1.0221
X5.6398Y-2.2308
X5.6402Y-3.6806
X5.6404Y-2.7127
X5.6405Y-3.6203
X5.6421Y-1.7693
X5.6438Y-1.1602
X5.6443Y-3.748
X5.6458Y-0.7882
X5.6461Y-2.0409
X5.6469Y-3.0174
X5.6478Y-0.9606
X5.6482Y-2.6453
X5.6484Y-0.5983
X5.6489Y-4.1513
X5.6495Y-4.7227
X5.6499Y-2.3
X5.6502Y-2.3775
X5.6504Y-0.6513
X5.6514Y-3.2775
X5.6522Y-0.8654
X5.6524Y-1.1001
X5.6529Y-3.5525
X5.6541Y-3.0738
X5.6541Y-3.4083
X5.672Y-2.3408
X5.6745Y-0.5159
X5.6756Y-3.5763
X5.6759Y-3.7128
X5.6764Y-0.9964
X5.6766Y-0.6254
X5.6768Y-2.4106
X5.677Y-3.3839
X5.678Y-3.4461
X5.679Y-3.5176
X5.6793Y-0.7671
X5.6797Y-1.0663
X5.68Y-3.0426
X5.6813Y-2.2768
X5.6814Y-1.4631
X5.6821Y-1.5971
X5.6824Y-2.6816
X5.6825Y-4.1142
X5.6826Y-1.6613
X5.6838Y-3.8577
X5.6842Y-1.7962
X5.6843Y-1.5325
X5.6845Y-0.8953
X5.6852Y-3.7914
X5.6862Y-4.7569
X5.6869Y-3.3109
X5.6876Y-1.1311
X5.6878Y-3.6428
X5.6884Y-0.8233
X5.7059Y-1.7721
X5.7063Y-0.6652
X5.7066Y-2.3782
X5.7073Y-1.0236
X5.7074Y-0.9281
X5.7075Y-0.7922
X5.7075Y-3.2741
X5.7083Y-0.5601
X5.7087Y-1.5001
X5.7092Y-0.1605
X5.7104Y-2.3008
X5.7107Y-4.72
X5.7109Y-3.5512
X5.7126Y-3.4889
X5.7141Y-1.1635
X5.7142Y-3.6827
X5.7153Y-0.8551
X5.7154Y-1.9044
X5.7162Y-1.6337
X5.7169Y-3.8125
X5.7172Y-1.9758
X5.7175Y-3.4163
X5.7177Y-1.1026
X5.718Y-3.356
X5.7182Y-3.624
X5.7187Y-1.8384
X5.7197Y-1.5637
X5.7205Y-2.0324
X5.7206Y-3.0154
X5.7217Y-0.2198
X5.7217Y-2.2434
X5.7217Y-3.756
X5.7393Y-3.3069
X5.7395Y-3.3876
X5.7405Y-1.7967
X5.7421Y-3.4504
X5.7426Y-3.7783
X5.743Y-1.5969
X5.7431Y-1.5312
X5.7439Y-1.0649
X5.7441Y-3.5851
X5.7445Y-0.1841
X5.7448Y-1.8659
X5.7457Y-2.5029
X5.7464Y-2.399
X5.7474Y-1.1234
X5.7477Y-3.6557
X5.7478Y-4.4552
X5.7489Y-0.5161
X5.7494Y-0.895
X5.7499Y-0.9677
X5.7499Y-0.5946
X5.7503Y-1.9404
X5.7504Y-1.996
X5.7504Y-2.331
X5.7506Y-2.2757
X5.7513Y-3.7211
X5.7529Y-4.7612
X5.753Y-0.7587
X5.7535Y-1.4709
X5.7538Y-3.5148
X5.7553Y-0.8226
X5.7557Y-1.6617
X5.7739Y-1.9633
X5.7745Y-0.9896
X5.7747Y-4.115
X5.7749Y-2.2097
X5.7751Y-1.1658
X5.7753Y-1.0963
X5.7765Y-3.4125
X5.7765Y-1.9029
X5.7775Y-3.3442
X5.7775Y-1.7659
X5.7776Y-0.6272
X5.7779Y-1.838
X5.7783Y-2.0373
X5.7789Y-0.9228
X5.779Y-3.148
X5.7795Y-3.2869
X5.7796Y-0.5605
X5.7815Y-1.5681
X5.782Y-2.539
X5.783Y-2.3052
X5.7832Y-3.4852
X5.7835Y-2.3785
X5.7864Y-0.8545
X5.7876Y-4.722
X5.7882Y-1.6401
X5.7886Y-0.7881
X5.7888Y-1.4925
X5.8069Y-2.0003
X5.8077Y-2.1344
X5.808Y-0.5945
X5.8086Y-3.3193
X5.8109Y-1.0358
X5.8113Y-1.8638
X5.8114Y-1.1993
X5.8118Y-0.8229
X5.8119Y-1.9341
X5.8119Y-4.0924
X5.812Y-3.4469
X5.8126Y-0.6582
X5.8146Y-0.9624
X5.8147Y-1.8029
X5.8148Y-2.0646
X5.8155Y-0.7616
X5.8156Y-2.3356
X5.8157Y-2.2319
X5.8161Y-0.8916
X5.8162Y-0.5164
X5.8164Y-1.5296
X5.8168Y-3.3869
X5.8173Y-2.4101
X5.8178Y-3.1154
X5.8182Y-2.4994
X5.8196Y-1.5926
X5.8202Y-4.1626
X5.8212Y-1.6589
X5.8223Y-1.1297
X5.8228Y-4.7586
X5.8405Y-3.0485
X5.8414Y-0.9217
X5.8417Y-3.4129
X5.842Y-1.8408
X5.8422Y-3.2745
X5.8424Y-1.1631
X5.8426Y-0.8635
X5.843Y-4.1242
X5.8439Y-1.7608
X5.8442Y-0.5505
X5.8443Y-2.2659
X5.8446Y-0.799
X5.8449Y-2.0955
X5.845Y-0.6209
X5.8456Y-3.8478
X5.8464Y-3.7104
X5.8481Y-2.1716
X5.8485Y-2.5472
X5.8488Y-1.9025
X5.8492Y-3.3541
X5.8497Y-2.7706
X5.8506Y-1.2233
X5.8506Y-2.3651
X5.8507Y-1.068
X5.8512Y-1.9719
X5.852Y-3.153
X5.8521Y-2.0323
X5.8521Y-4.734
X5.8525Y-1.5642
X5.8534Y-0.9974
X5.8536Y-1.6284
X5.8538Y-2.9709
X5.8544Y-0.4878
X5.8545Y-4.1896
X5.8551Y-3.956
X5.8555Y-3.7868
X5.8737Y-0.9541
X5.8739Y-4.0899
X5.8739Y-0.6517
X5.8747Y-2.3029
X5.8753Y-1.9409
X5.8761Y-0.2962
X5.8762Y-4.7666
X5.8771Y-0.8855
X5.8771Y-3.082
X5.8778Y-0.5884
X5.8779Y-3.75
X5.8782Y-1.6674
X5.8784Y-2.0736
X5.8785Y-1.5925
X5.8787Y-0.8343
X5.8788Y-2.4081
X5.8788Y-1.7951
X5.8791Y-0.521
X5.8812Y-2.1409
X5.8813Y-2.6691
X5.8813Y-2.5073
X5.884Y-0.457
X5.8852Y-1.5328
X5.8853Y-2.7392
X5.8856Y-2.5779
X5.8856Y-3.3755
X5.8858Y-3.8194
X5.8861Y-1.0912
X5.8879Y-2.2007
X5.8884Y-0.767
X5.8885Y-1.0325
X5.8894Y-1.8641
X5.8895Y-3.0103
X5.8896Y-3.3219
X5.8897Y-1.9977
X5.9073Y-1.627
X5.9088Y-4.719
X5.9104Y-2.2369
X5.9113Y-2.9838
X5.9113Y-3.1089
X5.9114Y-2.0409
X5.9116Y-0.8562
X5.9122Y-3.3401
X5.9125Y-0.7952
X5.9126Y-1.5714
X5.9128Y-3.0472
X5.9129Y-0.6252
X5.9129Y-3.4227
X5.9131Y-0.992
X5.9143Y-3.7206
X5.9149Y-2.1747
X5.9152Y-2.7039
X5.9161Y-1.9009
X5.9165Y-0.4836
X5.9166Y-3.2879
X5.9172Y-2.6151
X5.9182Y-1.841
X5.9206Y-1.7684
X5.9207Y-3.7851
X5.9209Y-2.547
X5.921Y-1.9633
X5.9213Y-0.9214
X5.9223Y-0.5526
X5.9225Y-2.7751
X5.9226Y-2.338
X5.9228Y-2.1066
X5.9238Y-1.0582
X5.9413Y-3.3731
X5.9429Y-2.5735
X5.9429Y-3.3156
X5.9448Y-1.5977
X5.9451Y-2.6469
X5.9453Y-1.8019
X5.9453Y-1.6639
X5.9453Y-0.6513
X5.9457Y-3.7454
X5.9459Y-0.1897
X5.9467Y-1.867
X5.9471Y-0.5266
X5.9472Y-0.7557
X5.9478Y-2.751
X5.9479Y-0.8316
X5.9491Y-0.2557
X5.9501Y-0.9577
X5.9504Y-1.9348
X5.951Y-3.0705
X5.9523Y-0.8882
X5.9531Y-2.0014
X5.9534Y-0.5862
X5.9536Y-4.768
X5.9537Y-1.0339
X5.9538Y-0.0863
X5.9548Y-3.1509
X5.9563Y-3.0081
X5.9748Y-4.726
X5.9748Y-0.1195
X5.9757Y-3.1128
X5.9767Y-2.8419
X5.977Y-1.8419
X5.977Y-3.4165
X5.9781Y-3.0386
X5.9788Y-1.7735
X5.9791Y-2.9049
X5.9793Y-2.6027
X5.9801Y-0.9221
X5.9809Y-0.2157
X5.9813Y-2.7777
X5.9813Y-0.4833
X5.9822Y-2.6824
X5.9837Y-0.5553
X5.9839Y-0.8006
X5.9843Y-2.9827
X5.9847Y-1.6388
X5.985Y-3.2783
X5.9855Y-3.3501
X5.9857Y-0.8567
X5.986Y-1.0612
X5.9867Y-3.7827
X5.987Y-2.5414
X5.989Y-1.9074
X5.9894Y-0.9859
X5.9901Y-0.6198
X5.9908Y-1.9664
X6.0082Y-2.6493
X6.0083Y-2.2409
X6.0092Y-2.4077
X6.0094Y-1.4576
X6.0096Y-0.8917
X6.0104Y-3.1421
X6.0106Y-1.9333
X6.0118Y-0.0823
X6.0135Y-4.7586
X6.0145Y-3.3206
X6.0151Y-1.0239
X6.0154Y-0.8214
X6.0158Y-2.802
X6.0161Y-3.3764
X6.0164Y-0.1562
X6.0171Y-3.4561
X6.0181Y-1.8059
X6.0183Y-0.5206
X6.0183Y-2.9492
X6.0188Y-3.0846
X6.0189Y-0.7512
X6.0192Y-2.7013
X6.0194Y-1.8737
X6.0198Y-0.6661
X6.0215Y-3.0189
X6.0224Y-2.8814
X6.0238Y-2.5706
X6.024Y-0.9645
X6.0245Y-0.5832
X6.0417Y-3.8599
X6.0423Y-2.6044
X6.0429Y-1.9012
X6.0433Y-2.9044
X6.044Y-2.8501
X6.0448Y-0.7871
X6.0448Y-2.6762
X6.0454Y-3.4079
X6.046Y-1.8291
X6.0468Y-1.5014
X6.0482Y-0.9306
X6.0482Y-2.5109
X6.0483Y-1.27
X6.049Y-3.2798
X6.0496Y-0.6234
X6.0499Y-0.9985
X6.0502Y-2.3384
X6.0505Y-0.4513
X6.0516Y-0.5519
X6.0527Y-3.4861
X6.0528Y-3.7837
X6.0536Y-3.1099
X6.0546Y-2.2761
X6.0548Y-3.3406
X6.0555Y-2.7431
X6.056Y-3.0532
X6.0566Y-2.9788
X6.0569Y-0.1264
X6.0569Y-4.7273
X6.0571Y-0.8545
X6.0583Y-1.7731
X6.0754Y-2.7154
X6.0757Y-0.1564
X6.0764Y-3.017
X6.0771Y-3.3126
X6.0775Y-1.8078
X6.0777Y-1.5294
X6.078Y-2.6368
X6.0787Y-2.8771
X6.0792Y-2.3063
X6.0811Y-2.7795
X6.0812Y-4.7671
X6.0815Y-1.2242
X6.0829Y-1.8609
X6.0846Y-0.0844
X6.0847Y-2.3805
X6.0852Y-2.947
X6.086Y-3.1539
X6.087Y-2.54
X6.0875Y-2.2392
X6.0881Y-1.4594
X6.0903Y-3.0786
X6.0905Y-3.8144
X6.0909Y-1.1575
X6.1089Y-2.9075
X6.1111Y-4.7277
X6.1117Y-0.1157
X6.112Y-1.5034
X6.1123Y-3.7914
X6.1123Y-2.574
X6.1129Y-1.1899
X6.113Y-2.6701
X6.1143Y-2.9837
X6.1164Y-1.5693
X6.1171Y-1.1251
X6.1182Y-2.5082
X6.1186Y-1.8945
X6.1188Y-2.3432
X6.1191Y-4.0947
X6.1193Y-2.4042
X6.1199Y-2.743
X6.1208Y-2.811
X6.122Y-3.2801
X6.1224Y-1.2642
X6.1236Y-1.8312
X6.1237Y-2.1974
X6.1245Y-2.2778
X6.1426Y-2.6063
X6.1427Y-2.5346
X6.143Y-1.2223
X6.1432Y-0.7916
X6.144Y-1.46
X6.1447Y-1.2966
X6.1456Y-1.8036
X6.146Y-2.2431
X6.147Y-0.9256
X6.1474Y-4.1236
X6.1474Y-0.4956
X6.1485Y-3.3076
X6.1512Y-1.595
X6.1529Y-2.3051
X6.1531Y-0.0805
X6.1534Y-1.1549
X6.1543Y-4.7663
X6.155Y-1.8707
X6.1552Y-1.0018
X6.1558Y-2.3696
X6.1559Y-2.7119
X6.1561Y-0.8599
X6.1569Y-1.5331
X6.1586Y-1.0676
X6.1762Y-2.344
X6.1763Y-4.0865
X6.1764Y-2.5014
X6.1768Y-1.5698
X6.1777Y-0.5227
X6.1781Y-0.8925
X6.1785Y-1.3972
X6.1791Y-1.0879
X6.1799Y-1.9029
X6.1818Y-4.7215
X6.1819Y-2.412
X6.182Y-3.2882
X6.1821Y-1.5053
X6.1822Y-1.0349
X6.183Y-1.3316
X6.1836Y-2.5726
X6.1846Y-1.2687
X6.1848Y-0.954
X6.1859Y-1.1995
X6.1867Y-1.6314
X6.1869Y-2.6487
X6.1877Y-0.8229
X6.19Y-2.2718
X6.1902Y-1.8373
X6.2099Y-1.674
X6.2101Y-1.2934
X6.211Y-1.2363
X6.2111Y-0.9901
X6.2127Y-3.7869
X6.2129Y-2.3089
X6.2139Y-3.106
X6.214Y-2.3699
X6.2145Y-1.5949
X6.218Y-1.9355
X6.2181Y-1.3714
X6.2189Y-2.602
X6.2201Y-3.7212
X6.2206Y-1.0641
X6.2207Y-2.5329
X6.2213Y-2.6771
X6.2214Y-0.7954
X6.2217Y-1.4361
X6.2218Y-1.5275
X6.2222Y-2.9843
X6.2236Y-0.8573
X6.2237Y-1.8612
X6.2243Y-1.128
X6.225Y-0.9274
X6.2259Y-3.0401
X6.2263Y-4.7522
X6.2433Y-1.1027
X6.244Y-2.5755
X6.2441Y-1.6402
X6.2454Y-3.1543
X6.2455Y-1.0331
X6.2458Y-0.8338
X6.2468Y-1.463
X6.2474Y-2.5096
X6.2484Y-2.648
X6.2485Y-3.8234
X6.2501Y-3.0789
X6.2506Y-3.5202
X6.2506Y-2.4081
X6.251Y-2.3388
X6.2514Y-1.2702
X6.2523Y-3.0178
X6.2541Y-3.7529
X6.2556Y-0.8863
X6.2566Y-2.2781
X6.2578Y-1.3997
X6.2578Y-1.5613
X6.2582Y-1.3244
X6.2583Y-1.1555
X6.2584Y-4.7336
X6.259Y-0.9643
X6.2783Y-2.6087
X6.2794Y-3.4459
X6.2797Y-1.0618
X6.2805Y-1.1921
X6.2807Y-3.0497
X6.2811Y-3.7231
X6.2812Y-1.5028
X6.2818Y-1.594
X6.2819Y-2.6762
X6.2821Y-0.7537
X6.2824Y-1.6593
X6.2828Y-3.1169
X6.2832Y-2.3676
X6.2836Y-2.3096
X6.2838Y-1.3578
X6.2842Y-0.9892
X6.2854Y-0.8671
X6.2859Y-2.5467
X6.2862Y-0.6162
X6.2865Y-0.9261
X6.2874Y-2.9737
X6.2876Y-1.435
X6.289Y-1.1345
X6.2901Y-3.3753
X6.2911Y-4.7679
X6.2914Y-1.294
X6.311Y-3.0049
X6.3121Y-0.7984
X6.3126Y-1.0235
X6.3135Y-0.6567
X6.3137Y-1.0907
X6.3141Y-3.7558
X6.3142Y-0.9662
X6.3149Y-3.3472
X6.3169Y-3.4855
X6.3171Y-3.1449
X6.3172Y-0.5938
X6.3182Y-0.8886
X6.3196Y-4.7231
X6.3203Y-2.5726
X6.3205Y-3.4162
X6.3211Y-2.6491
X6.3225Y-3.0805
X6.3231Y-1.2277
X6.3264Y-1.1646
X6.3269Y-1.7752
X6.3449Y-3.3186
X6.3459Y-1.1994
X6.3461Y-3.6834
X6.3469Y-3.4542
X6.3494Y-1.1326
X6.3497Y-0.7556
X6.3503Y-3.3798
X6.3505Y-3.5869
X6.3509Y-4.5242
X6.352Y-0.5653
X6.3521Y-3.0524
X6.3539Y-3.5155
X6.3539Y-2.6019
X6.3547Y-0.6248
X6.3548Y-0.8237
X6.3548Y-0.9309
X6.355Y-1.0592
X6.3555Y-4.758
X6.3578Y-1.8047
X6.3593Y-0.9979
X6.3595Y-2.6726
X6.3604Y-3.1099
X6.3784Y-2.7056
X6.3794Y-3.0737
X6.3801Y-2.6364
X6.3817Y-3.8449
X6.3817Y-0.6634
X6.3833Y-3.7852
X6.3833Y-3.0109
X6.3844Y-0.7845
X6.3845Y-3.5541
X6.385Y-3.9529
X6.3851Y-1.022
X6.3878Y-1.1552
X6.3887Y-3.2724
X6.3891Y-0.9686
X6.3894Y-1.0912
X6.3902Y-4.7253
X6.3913Y-1.7705
X6.3914Y-3.4887
X6.3915Y-3.3505
X6.3924Y-3.7239
X6.393Y-0.5188
X6.3933Y-0.8613
X6.3936Y-3.6113
X6.394Y-3.4191
X6.3942Y-0.5828
X6.4121Y-3.5802
X6.4124Y-1.465
X6.4144Y-3.4554
X6.4162Y-3.5154
X6.4179Y-0.8221
X6.4185Y-2.2986
X6.4198Y-3.039
X6.4202Y-3.7464
X6.4202Y-0.55
X6.4206Y-2.669
X6.4207Y-4.5182
X6.4212Y-1.5933
X6.4215Y-0.6274
X6.422Y-1.0688
X6.4221Y-3.3861
X6.4224Y-2.3758
X6.4229Y-3.3183
X6.4231Y-1.8058
X6.4232Y-4.7675
X6.4237Y-0.8949
X6.4238Y-3.6447
X6.4241Y-3.8193
X6.4251Y-2.2434
X6.4256Y-1.1286
X6.4256Y-1.5368
X6.4269Y-1.6648
X6.4274Y-0.9861
X6.4456Y-4.7299
X6.4469Y-3.8505
X6.4473Y-1.6276
X6.4478Y-1.832
X6.4501Y-0.5173
X6.4506Y-1.0961
X6.4509Y-4.4936
X6.4509Y-0.5858
X6.4521Y-1.7727
X6.4524Y-3.0119
X6.4526Y-3.9561
X6.4526Y-3.4863
X6.453Y-1.8937
X6.4533Y-2.4008
X6.4536Y-3.7873
X6.4544Y-1.9663
X6.4551Y-1.4913
X6.4552Y-1.5639
X6.4553Y-3.2766
X6.4553Y-1.0268
X6.4557Y-0.2174
X6.456Y-0.6663
X6.4566Y-0.1498
X6.4572Y-3.6869
X6.4581Y-1.1574
X6.4586Y-2.2686
X6.459Y-3.5548
X6.4592Y-3.4153
X6.4596Y-3.3453
X6.46Y-2.0375
X6.4609Y-3.6095
X6.4617Y-2.3341
X6.4795Y-3.5824
X6.4805Y-1.9953
X6.4806Y-2.507
X6.482Y-1.602
X6.4835Y-1.054
X6.4839Y-1.1358
X6.4841Y-3.5102
X6.4855Y-1.5339
X6.4865Y-0.5552
X6.4881Y-1.929
X6.4889Y-3.6476
X6.4897Y-1.7996
X6.4904Y-3.4531
X6.4914Y-3.3887
X6.4921Y-2.2358
X6.4923Y-3.3109
X6.4925Y-3.726
X6.4935Y-2.3751
X6.4935Y-0.6266
X6.494Y-1.6636
X6.4941Y-0.1838
X6.4944Y-1.4642
X6.4949Y-4.531
X6.4949Y-1.8678
X6.4951Y-2.3009
X6.5173Y-1.0888
X6.5175Y-0.5834
X6.5179Y-1.6291
X6.5187Y-4.4855
X6.519Y-1.5018
X6.5196Y-4.0867
X6.5197Y-3.2812
X6.5198Y-2.0429
X6.5206Y-3.3423
X6.5233Y-3.1499
X6.5244Y-3.4206
X6.5245Y-2.3364
X6.5245Y-1.5616
X6.5245Y-3.4787
X6.5251Y-1.1635
X6.5253Y-1.9093
X6.5262Y-1.9744
X6.5266Y-1.7606
X6.5267Y-2.5335
X6.5267Y-2.278
X6.5277Y-0.5237
X6.5277Y-1.832
X6.528Y-0.8971
X6.528Y-2.2085
X6.5287Y-2.3984
X6.5461Y-1.5279
X6.5464Y-2.3782
X6.5465Y-3.384
X6.5466Y-4.5257
X6.5489Y-1.9435
X6.5499Y-1.6714
X6.5504Y-0.563
X6.5505Y-2.0029
X6.551Y-1.6039
X6.5514Y-1.1286
X6.5522Y-1.8022
X6.5525Y-3.4456
X6.5557Y-3.1081
X6.5562Y-3.3111
X6.5575Y-2.5085
X6.5578Y-2.5671
X6.5587Y-2.1422
X6.5591Y-2.2357
X6.5592Y-0.9265
X6.5598Y-2.2977
X6.561Y-2.0779
X6.5616Y-1.8648
X6.5622Y-4.1158
X6.58Y-3.1468
X6.5801Y-1.235
X6.5801Y-1.168
X6.5803Y-2.4023
X6.5824Y-3.2757
X6.5834Y-1.9631
X6.584Y-2.0982
X6.5849Y-2.2727
X6.5849Y-3.3423
X6.5849Y-0.5195
X6.5866Y-1.6309
X6.5867Y-2.9802
X6.5869Y-1.7611
X6.5875Y-2.1636
X6.5879Y-3.7816
X6.588Y-3.7174
X6.5883Y-3.052
X6.5886Y-4.2249
X6.5887Y-1.5718
X6.5893Y-0.9534
X6.5893Y-1.8957
X6.59Y-2.7737
X6.5922Y-3.4209
X6.5932Y-2.0299
X6.5936Y-4.0802
X6.5939Y-0.8854
X6.5944Y-2.3385
X6.5953Y-2.5337
X6.5959Y-1.8271
X6.6137Y-3.0823
X6.6143Y-2.5674
X6.6163Y-2.0065
X6.6167Y-1.8
X6.6177Y-3.95
X6.6177Y-2.0694
X6.6184Y-2.3048
X6.6184Y-3.8201
X6.6195Y-0.2823
X6.6196Y-0.9885
X6.6196Y-4.1136
X6.6207Y-2.1299
X6.6212Y-3.7454
X6.6232Y-0.4859
X6.6237Y-1.6712
X6.6257Y-2.1976
X6.6258Y-4.5291
X6.6259Y-0.9249
X6.6259Y-2.3776
X6.6261Y-1.8605
X6.6273Y-1.1892
X6.6274Y-2.5152
X6.6288Y-1.9323
X6.6291Y-3.0055
X6.6291Y-1.6065
X6.6293Y-1.5289
X6.6293Y-3.3787
X6.6293Y-3.3123
X6.6471Y-3.7891
X6.6476Y-1.9055
X6.648Y-3.7147
X6.6497Y-2.166
X6.6512Y-0.9613
X6.6512Y-1.8387
X6.6518Y-2.6056
X6.6525Y-3.1081
X6.6529Y-3.3446
X6.6537Y-2.9831
X6.6548Y-1.0213
X6.6551Y-3.0431
X6.6551Y-3.8551
X6.6551Y-1.7633
X6.6555Y-2.537
X6.657Y-1.5634
X6.6579Y-2.3387
X6.6581Y-2.112
X6.6587Y-2.6769
X6.6589Y-3.418
X6.6595Y-2.2363
X6.6596Y-2.414
X6.6601Y-3.2817
X6.6606Y-2.0369
X6.6606Y-2.7435
X6.6612Y-0.8953
X6.6625Y-1.974
X6.6632Y-1.634
X6.6807Y-3.7563
X6.6813Y-4.5204
X6.6815Y-1.6657
X6.6822Y-2.6469
X6.6824Y-1.9372
X6.683Y-0.9255
X6.6833Y-1.6074
X6.6848Y-0.2475
X6.6853Y-2.7773
X6.686Y-3.1535
X6.6862Y-3.0754
X6.6863Y-1.0565
X6.6866Y-3.3759
X6.687Y-1.7957
X6.6878Y-2.5784
X6.6896Y-1.8641
X6.6908Y-3.0145
X6.6908Y-0.0888
X6.694Y-2.7138
X6.6949Y-3.321
X6.6954Y-0.9863
X6.6954Y-1.9976
X6.7142Y-3.4171
X6.7159Y-1.8329
X6.7164Y-2.8731
X6.7181Y-3.2826
X6.7198Y-1.9047
X6.7204Y-0.8973
X6.7209Y-3.0404
X6.7212Y-0.6272
X6.7218Y-1.7594
X6.7229Y-2.9495
X6.7234Y-2.6017
X6.7241Y-0.9664
X6.7241Y-0.1886
X6.7257Y-1.6281
X6.7258Y-2.746
X6.7269Y-2.6711
X6.7279Y-0.1129
X6.728Y-1.0297
X6.7281Y-3.1105
X6.7282Y-2.8046
X6.7284Y-4.4972
X6.7288Y-1.9618
X6.7293Y-3.3461
X6.73Y-2.5478
X6.7484Y-2.976
X6.7487Y-2.848
X6.7505Y-1.8763
X6.7518Y-2.647
X6.752Y-4.4582
X6.7521Y-0.9318
X6.7526Y-1.9379
X6.7533Y-2.7099
X6.754Y-3.0815
X6.7543Y-2.5822
X6.7546Y-3.1436
X6.7548Y-4.2947
X6.7552Y-0.9959
X6.7562Y-1.7958
X6.7567Y-3.3825
X6.7572Y-0.162
X6.7573Y-2.7794
X6.7576Y-4.5249
X6.7596Y-3.4444
X6.7601Y-1.0694
X6.7604Y-0.0948
X6.7609Y-3.31
X6.7611Y-0.5826
X6.7614Y-0.6568
X6.7641Y-2.919
X6.7818Y-1.0322
X6.7826Y-3.8514
X6.7831Y-2.6723
X6.7834Y-3.416
X6.7838Y-2.243
X6.7841Y-2.8688
X6.7849Y-1.7724
X6.7858Y-3.116
X6.7862Y-2.5051
X6.7862Y-2.7447
X6.7867Y-0.9556
X6.7879Y-3.4852
X6.7879Y-0.5518
X6.7883Y-1.8303
X6.7884Y-3.3474
X6.7888Y-0.6255
X6.7898Y-2.9488
X6.7899Y-2.3797
X6.79Y-3.9492
X6.7905Y-2.3014
X6.7915Y-2.6102
X6.7925Y-1.9066
X6.7928Y-4.4885
X6.7938Y-3.2882
X6.7956Y-3.0151
X6.7962Y-3.7933
X6.7964Y-0.1193
X6.7967Y-2.8025
X6.7967Y-0.8902
X6.7969Y-1.5015
X6.8156Y-3.3177
X6.8161Y-0.9191
X6.8165Y-3.0482
X6.8181Y-2.5478
X6.8185Y-2.6351
X6.8198Y-1.5324
X6.8199Y-0.5213
X6.8206Y-4.0879
X6.821Y-3.8149
X6.8213Y-4.5289
X6.8232Y-2.342
X6.8234Y-1.4623
X6.8237Y-2.7818
X6.8243Y-2.9796
X6.826Y-2.4143
X6.8266Y-2.8373
X6.8267Y-0.0793
X6.8271Y-1.0588
X6.8274Y-3.1404
X6.8275Y-1.864
X6.8284Y-2.9122
X6.8286Y-0.6597
X6.8291Y-0.9992
X6.8297Y-1.2223
X6.83Y-4.253
X6.83Y-2.7027
X6.83Y-1.8092
X6.8309Y-2.267
X6.8312Y-0.1466
X6.8313Y-0.5984
X6.8489Y-1.2662
X6.8495Y-2.8724
X6.8499Y-0.9556
X6.85Y-3.7817
X6.8527Y-2.3046
X6.8529Y-4.122
X6.8533Y-2.9474
X6.8534Y-2.6717
X6.8535Y-2.8126
X6.8539Y-2.2324
X6.8541Y-1.5014
X6.8546Y-1.8317
X6.855Y-4.4963
X6.8555Y-4.1856
X6.857Y-0.6234
X6.8577Y-0.4908
X6.8583Y-1.1594
X6.8585Y-1.1019
X6.8585Y-2.7373
X6.8587Y-3.2845
X6.8599Y-2.5823
X6.8605Y-0.5492
X6.8622Y-3.0193
X6.8625Y-2.3694
X6.8625Y-0.1211
X6.8631Y-0.8884
X6.8632Y-1.9003
X6.8637Y-2.5084
X6.8649Y-1.0306
X6.8649Y-1.5611
X6.8824Y-4.1587
X6.8827Y-0.5203
X6.8843Y-4.2879
X6.8844Y-3.3112
X6.8845Y-2.28
X6.8852Y-1.121
X6.8857Y-2.7743
X6.8862Y-1.46
X6.8867Y-0.1536
X6.8876Y-0.6555
X6.8882Y-1.6061
X6.8882Y-2.342
X6.8884Y-4.2304
X6.8886Y-4.081
X6.8891Y-1.5346
X6.8892Y-1.869
X6.8894Y-1.7958
X6.8903Y-0.9215
X6.891Y-1.1908
X6.8914Y-4.5277
X6.8916Y-2.7049
X6.892Y-2.5369
X6.8927Y-0.5887
X6.8942Y-4.4585
X6.8951Y-0.084
X6.8959Y-0.9973
X6.8967Y-2.4063
X6.8975Y-1.0613
X6.8986Y-2.6
X6.9165Y-0.1194
X6.9166Y-2.7419
X6.9178Y-1.1648
X6.9182Y-4.1251
X6.9192Y-4.259
X6.92Y-1.5703
X6.9201Y-1.3718
X6.9202Y-1.0924
X6.9205Y-4.3151
X6.9209Y-0.9009
X6.9213Y-2.3677
X6.9215Y-1.4934
X6.9216Y-1.2938
X6.9218Y-1.0355
X6.9232Y-4.182
X6.925Y-2.5727
X6.9254Y-2.6376
X6.9264Y-2.5024
X6.9264Y-0.9547
X6.9266Y-4.4913
X6.9267Y-1.9074
X6.9278Y-3.2786
X6.9293Y-1.6334
X6.9295Y-1.4379
X6.9301Y-4.3972
X6.9307Y-1.8267
X6.9314Y-1.222
X6.9314Y-2.2996
X6.9499Y-1.6637
X6.9504Y-1.3346
X6.9518Y-1.9421
X6.9519Y-0.9337
X6.9528Y-4.5259
X6.9544Y-4.1528
X6.9546Y-4.2225
X6.9547Y-1.6014
X6.9547Y-4.0825
X6.955Y-2.2761
X6.9568Y-4.4176
X6.9573Y-0.5246
X6.9584Y-0.0827
X6.9589Y-0.9916
X6.96Y-1.5335
X6.9605Y-2.9855
X6.9607Y-1.2568
X6.9612Y-2.6819
X6.9618Y-2.3319
X6.9624Y-2.4058
X6.9627Y-1.1281
X6.963Y-3.7159
X6.9631Y-4.3564
X6.9631Y-1.8667
X6.9632Y-3.1438
X6.9634Y-3.7825
X6.964Y-2.6044
X6.9645Y-4.2968
X6.9654Y-1.4634
X6.9655Y-1.0575
X6.9659Y-1.2042
X6.9661Y-1.3971
X6.9662Y-2.5388
X6.9842Y-1.4955
X6.9852Y-1.4256
X6.9857Y-1.2933
X6.9858Y-2.3053
X6.986Y-3.5217
X6.9863Y-1.8971
X6.9866Y-0.229
X6.9882Y-2.3699
X6.9888Y-0.953
X6.9889Y-1.2235
X6.9894Y-1.5685
X6.9898Y-0.8897
X6.9903Y-3.0786
X6.9906Y-1.3633
X6.9912Y-3.7538
X6.9914Y-2.5065
X6.9914Y-1.0248
X6.9933Y-1.9642
X6.9933Y-1.169
X6.9944Y-1.6257
X6.9953Y-1.0914
X6.9954Y-2.6418
X6.996Y-3.0076
X6.9973Y-4.1185
X6.9989Y-2.5819
X7.0173Y-2.2675
X7.0174Y-1.6077
X7.0178Y-1.196
X7.0179Y-1.3321
X7.0181Y-2.6101
X7.02Y-1.6638
X7.0203Y-1.2572
X7.0207Y-1.5365
X7.0224Y-3.0432
X7.0238Y-3.1134
X7.0239Y-0.9881
X7.0249Y-3.477
X7.025Y-4.0832
X7.0255Y-0.9273
X7.0264Y-2.3311
X7.0271Y-2.6671
X7.0281Y-0.6659
X7.0281Y-1.128
X7.0283Y-2.402
X7.0288Y-2.9706
X7.0291Y-1.4647
X7.0302Y-2.5468
X7.0302Y-3.4083
X7.0306Y-1.0545
X7.0312Y-3.7249
X7.0313Y-1.4052
X7.0503Y-3.5236
X7.0514Y-0.8954
X7.0517Y-1.2338
X7.0519Y-0.588
X7.0528Y-0.027
X7.0537Y-1.4291
X7.0542Y-1.4948
X7.0548Y-2.5757
X7.0559Y-3.4544
X7.0564Y-3.0769
X7.0572Y-1.0909
X7.0577Y-3.0033
X7.0595Y-3.1412
X7.0595Y-1.372
X7.0614Y-2.6498
X7.0632Y-2.3005
X7.0639Y-0.9621
X7.0641Y-1.7675
X7.0641Y-3.7564
X7.0651Y-2.3776
X7.0651Y-1.2902
X7.0656Y-1.1679
X7.0657Y-3.3792
X7.0658Y-1.0226
X7.0858Y-3.0383
X7.0867Y-3.1128
X7.0892Y-1.1883
X7.0892Y-3.407
X7.0903Y-0.5625
X7.0914Y-4.0863
X7.0921Y-1.805
X7.0926Y-1.1253
X7.0929Y-1.0566
X7.094Y-1.2636
X7.0943Y-0.9321
X7.0944Y-3.5412
X7.0953Y-3.4887
X7.0956Y-3.7261
X7.0957Y-2.6734
X7.0967Y-0.6231
X7.0977Y-2.609
X7.0995Y-0.9936
X7.1005Y-3.3445
X7.1179Y-1.1693
X7.1179Y-3.5795
X7.1179Y-3.0751
X7.1185Y-4.6
X7.1198Y-3.4494
X7.1199Y-3.5193
X7.12Y-2.6375
X7.1203Y-3.3874
X7.1217Y-1.0982
X7.1222Y-1.7669
X7.1224Y-3.6504
X7.1228Y-0.5235
X7.1235Y-3.3098
X7.1252Y-3.01
X7.1287Y-3.9611
X7.1288Y-1.0291
X7.1292Y-0.0252
X7.1294Y-0.9563
X7.1296Y-4.121
X7.1298Y-0.5965
X7.1309Y-0.6626
X7.1311Y-3.7494
X7.1328Y-4.6674
X7.1334Y-3.8237
X7.1334Y-0.9004
X7.1514Y-1.6596
X7.1516Y-1.5915
X7.1518Y-4.1517
X7.1521Y-3.2886
X7.1534Y-4.0799
X7.1539Y-3.6914
X7.1541Y-4.6212
X7.1543Y-3.053
X7.1545Y-3.7905
X7.155Y-3.419
X7.1551Y-0.9262
X7.1554Y-3.6235
X7.1554Y-1.0622
X7.1566Y-3.8549
X7.157Y-2.6744
X7.1574Y-0.6301
X7.1577Y-2.301
X7.1584Y-1.1231
X7.1593Y-2.3689
X7.1603Y-0.9876
X7.1603Y-0.5516
X7.1611Y-3.3517
X7.1618Y-1.8079
X7.1631Y-1.4703
X7.1633Y-1.5403
X7.1647Y-2.2386
X7.1653Y-3.4862
X7.1678Y-3.5482
X7.1853Y-3.5826
X7.1857Y-3.004
X7.1867Y-0.8938
X7.1868Y-0.9645
X7.1871Y-4.5899
X7.1877Y-2.7488
X7.1887Y-2.002
X7.1896Y-3.8178
X7.1898Y-1.5622
X7.19Y-4.6665
X7.1901Y-0.6532
X7.1905Y-3.9512
X7.1912Y-3.6477
X7.1916Y-3.7241
X7.1923Y-2.2691
X7.1937Y-3.5092
X7.1941Y-3.4455
X7.1944Y-2.4142
X7.1966Y-1.035
X7.1972Y-3.3817
X7.1982Y-1.7677
X7.1985Y-2.3381
X7.1986Y-4.119
X7.1988Y-1.1018
X7.1989Y-0.5984
X7.1989Y-1.4946
X7.1993Y-0.0221
X7.1995Y-1.6303
X7.2003Y-1.8318
X7.2008Y-3.3191
X7.201Y-0.526
X7.2014Y-1.1586
X7.2185Y-2.374
X7.2189Y-4.6336
X7.2191Y-3.5421
X7.2194Y-3.4159
X7.2199Y-0.6217
X7.2202Y-0.9324
X7.2218Y-1.9274
X7.2229Y-2.5041
X7.2239Y-0.5501
X7.225Y-1.6685
X7.2253Y-3.2828
X7.2254Y-3.3408
X7.2259Y-1.8054
X7.226Y-3.6803
X7.2262Y-2.2316
X7.2265Y-3.7583
X7.2281Y-1.0603
X7.2284Y-4.0798
X7.2285Y-1.602
X7.2286Y-1.4583
X7.2286Y-1.5338
X7.2286Y-3.488
X7.2286Y-0.2156
X7.2291Y-0.1516
X7.2294Y-0.9991
X7.2303Y-2.2999
X7.2307Y-1.8696
X7.233Y-1.1301
X7.2333Y-3.8478
X7.2337Y-3.6211
X7.2525Y-3.3824
X7.2533Y-1.5068
X7.2535Y-1.0302
X7.2538Y-1.9618
X7.2548Y-2.3428
X7.2558Y-4.113
X7.2561Y-1.0984
X7.2564Y-2.4128
X7.2572Y-3.4443
X7.2573Y-2.5406
X7.2574Y-4.595
X7.2576Y-0.6636
X7.2591Y-1.5577
X7.2606Y-0.5972
X7.2611Y-0.9666
X7.2613Y-1.8967
X7.2625Y-1.1653
X7.2626Y-1.8324
X7.2627Y-2.2658
X7.2627Y-3.3201
X7.2636Y-0.5189
X7.2649Y-1.6351
X7.2649Y-0.899
X7.2652Y-4.6674
X7.2658Y-3.5224
X7.2671Y-2.0354
X7.2678Y-1.7616
X7.2856Y-1.8704
X7.2867Y-1.5351
X7.2869Y-3.4089
X7.287Y-2.5676
X7.2872Y-2.1964
X7.2875Y-2.5105
X7.2892Y-1.9369
X7.2893Y-0.5506
X7.2894Y-0.9202
X7.2894Y-2.1396
X7.29Y-2.0041
X7.2917Y-1.1348
X7.2921Y-2.068
X7.2933Y-0.6235
X7.2935Y-1.8037
X7.2956Y-4.0882
X7.296Y-2.3022
X7.2964Y-4.6265
X7.2966Y-3.2819
X7.2972Y-3.1425
X7.2979Y-3.4885
X7.2993Y-2.37
X7.2993Y-0.986
X7.3005Y-3.3518
X7.3011Y-1.6635
X7.3019Y-1.0643
X7.3023Y-1.5953
X7.3197Y-1.8993
X7.3199Y-0.966
X7.3204Y-4.1214
X7.3204Y-0.5842
X7.3206Y-3.7831
X7.3209Y-1.1662
X7.3221Y-3.1076
X7.3228Y-1.9709
X7.3237Y-2.2367
X7.3245Y-2.1762
X7.3248Y-2.5431
X7.3251Y-2.7702
X7.3252Y-2.3347
X7.3254Y-3.3173
X7.3257Y-3.3735
X7.3258Y-1.5721
X7.3265Y-1.234
X7.3269Y-2.9826
X7.3277Y-3.0488
X7.3281Y-0.5283
X7.3282Y-1.1012
X7.3284Y-4.5925
X7.3285Y-0.6527
X7.3301Y-0.8998
X7.3303Y-2.4054
X7.3311Y-4.657
X7.3312Y-2.1026
X7.3313Y-1.6315
X7.3333Y-1.0216
X7.3336Y-1.7608
X7.3345Y-1.8382
X7.3348Y-3.7212
X7.3356Y-2.0292
X7.3531Y-0.9282
X7.3541Y-2.2084
X7.3549Y-1.0547
X7.3554Y-2.2689
X7.3556Y-1.5389
X7.3564Y-3.3453
X7.3568Y-1.2001
X7.357Y-3.4149
X7.3572Y-1.6073
X7.3573Y-3.0781
X7.3586Y-2.1386
X7.3586Y-4.0956
X7.359Y-2.3703
X7.3591Y-1.1363
X7.3607Y-0.6194
X7.3616Y-1.8723
X7.3622Y-0.4915
X7.3623Y-0.991
X7.3627Y-1.932
X7.3629Y-2.5727
X7.3637Y-2.0642
X7.3642Y-1.8043
X7.3643Y-3.0059
X7.3648Y-1.6702
X7.365Y-3.9456
X7.365Y-3.1397
X7.365Y-3.8254
X7.366Y-4.625
X7.3664Y-3.2862
X7.3672Y-3.7564
X7.3676Y-2.0022
X7.3678Y-0.5627
X7.3678Y-2.5019
X7.3878Y-2.6739
X7.3882Y-1.9772
X7.3886Y-1.0199
X7.3891Y-3.0467
X7.3898Y-2.2401
X7.3899Y-0.9578
X7.3903Y-1.5611
X7.3905Y-3.3093
X7.3909Y-4.6617
X7.3911Y-2.7368
X7.3914Y-2.3015
X7.3914Y-3.7164
X7.3917Y-1.901
X7.3919Y-1.6354
X7.3933Y-2.9751
X7.3936Y-2.5484
X7.3941Y-2.0963
X7.3944Y-4.5962
X7.3957Y-0.8852
X7.3964Y-0.2904
X7.3965Y-1.7711
X7.3966Y-1.8391
X7.3974Y-2.608
X7.3981Y-2.4122
X7.3983Y-0.5916
X7.3996Y-4.1145
X7.4Y-0.6533
X7.4017Y-0.5225
X7.4021Y-2.0286
X7.4024Y-3.3793
X7.4026Y-3.1085
X7.4032Y-2.1744
X7.4201Y-2.2636
X7.4202Y-1.5384
X7.4224Y-3.083
X7.4225Y-0.49
X7.4232Y-2.568
X7.4237Y-2.7028
X7.424Y-0.9217
X7.424Y-2.7825
X7.4245Y-1.9308
X7.4251Y-2.1368
X7.4255Y-3.2874
X7.4258Y-1.8726
X7.4259Y-2.0014
X7.426Y-2.6356
X7.427Y-3.3452
X7.4274Y-0.9993
X7.4279Y-3.0188
X7.4301Y-3.4184
X7.4306Y-0.5499
X7.4309Y-3.7456
X7.4312Y-1.6653
X7.4313Y-1.8059
X7.4315Y-2.0707
X7.4321Y-3.1381
X7.4326Y-1.0581
X7.434Y-0.6325
X7.4343Y-0.087
X7.436Y-2.2086
X7.4362Y-1.6025
X7.4364Y-4.0905
X7.4368Y-4.6222
X7.4542Y-4.5909
X7.4557Y-3.385
X7.4573Y-1.0252
X7.4573Y-1.969
X7.4574Y-0.1143
X7.458Y-0.9014
X7.4593Y-1.6283
X7.4601Y-0.5831
X7.4608Y-2.6006
X7.4608Y-0.2557
X7.461Y-3.3208
X7.461Y-3.0494
X7.4617Y-2.742
X7.4627Y-0.956
X7.4633Y-2.9739
X7.4636Y-1.8289
X7.4649Y-1.7614
X7.4651Y-0.1939
X7.4658Y-2.5473
X7.4663Y-3.1149
X7.4665Y-0.5252
X7.4665Y-4.1287
X7.468Y-1.9065
X7.4686Y-2.6682
X7.4688Y-0.6575
X7.4697Y-4.6564
X7.4881Y-0.6266
X7.4892Y-3.0192
X7.4914Y-0.9254
X7.4917Y-1.794
X7.4944Y-4.6272
X7.4946Y-1.8629
X7.495Y-0.9887
X7.4964Y-3.1482
X7.4969Y-3.4233
X7.498Y-3.2805
X7.4981Y-3.3481
X7.499Y-0.2151
X7.4998Y-3.0793
X7.5004Y-2.7844
X7.5005Y-4.0875
X7.5006Y-0.4971
X7.5008Y-2.7166
X7.5015Y-2.5718
X7.5017Y-0.0808
X7.5019Y-1.9282
X7.5021Y-2.6465
X7.5024Y-0.5529
X7.5028Y-1.0552
X7.503Y-0.1571
X7.5031Y-2.848
X7.5033Y-2.9046
X7.5212Y-4.6647
X7.5228Y-0.9001
X7.5238Y-3.4489
X7.5242Y-4.5915
X7.5252Y-2.6003
X7.5254Y-1.0315
X7.5259Y-3.3085
X7.5263Y-0.4604
X7.5264Y-2.3988
X7.5265Y-0.5311
X7.5268Y-0.113
X7.527Y-3.0531
X7.5281Y-1.7703
X7.5283Y-3.9465
X7.5289Y-3.3763
X7.5291Y-1.4719
X7.5294Y-2.6713
X7.5297Y-2.8045
X7.53Y-2.2363
X7.5305Y-0.6597
X7.5319Y-0.1876
X7.532Y-0.5956
X7.5333Y-2.545
X7.5333Y-4.1164
X7.5341Y-2.738
X7.5346Y-1.9087
X7.535Y-3.7918
X7.5354Y-2.8788
X7.5363Y-3.8585
X7.5365Y-0.9567
X7.5372Y-2.9487
X7.5376Y-0.2604
X7.5376Y-3.1163
X7.5377Y-1.8286
X7.5547Y-0.2911
X7.5548Y-2.6404
X7.5549Y-0.9902
X7.5552Y-2.8389
X7.5555Y-1.8731
X7.5558Y-2.912
X7.5563Y-3.4112
X7.5567Y-2.7136
X7.5571Y-4.0934
X7.5574Y-2.9857
X7.5578Y-0.6192
X7.558Y-0.5638
X7.5582Y-0.091
X7.5583Y-1.4953
X7.5589Y-3.3404
X7.5594Y-0.2244
X7.5599Y-3.811
X7.5615Y-2.3396
X7.5626Y-2.5681
X7.5635Y-2.7728
X7.5635Y-3.1401
X7.5638Y-2.2727
X7.5646Y-0.4294
X7.565Y-1.2717
X7.5651Y-3.0844
X7.5655Y-3.2885
X7.5659Y-4.1482
X7.5667Y-0.1522
X7.5669Y-2.5027
X7.5681Y-1.0585
X7.5693Y-0.363
X7.5695Y-1.7943
X7.5702Y-3.4864
X7.5708Y-0.4963
X7.5708Y-4.6294
X7.5709Y-0.9329
X7.5884Y-2.802
X7.5885Y-3.0145
X7.5886Y-0.5926
X7.5886Y-0.9652
X7.5893Y-3.8476
X7.5897Y-0.1931
X7.5904Y-1.9041
X7.5907Y-1.8354
X7.5917Y-3.7898
X7.5917Y-0.1256
X7.592Y-1.0358
X7.5921Y-2.6793
X7.5924Y-2.2356
X7.5925Y-2.952
X7.5926Y-0.3301
X7.5927Y-2.2986
X7.5935Y-0.6662
X7.5936Y-2.6024
X7.5938Y-2.5445
X7.5947Y-2.7365
X7.5969Y-0.8871
X7.5975Y-0.396
X7.5985Y-1.0889
X7.6005Y-4.1149
X7.6006Y-3.308
X7.601Y-4.6541
X7.6014Y-2.3809
X7.6017Y-2.885
X7.6018Y-3.955
X7.6023Y-3.1047
X7.6026Y-1.5308
X7.6037Y-0.4528
X7.604Y-4.5969
X7.6041Y-0.5258
X7.6043Y-0.2493
X7.6044Y-1.4572
X7.6045Y-1.2261
X7.6227Y-4.6212
X7.6239Y-1.4936
X7.6243Y-0.2902
X7.6251Y-4.0817
X7.6251Y-0.0868
X7.6261Y-0.1485
X7.6262Y-0.3502
X7.6264Y-2.3466
X7.6269Y-1.0537
X7.6275Y-2.5099
X7.6275Y-1.5626
X7.6281Y-2.4034
X7.6282Y-0.9886
X7.6284Y-0.422
X7.6291Y-0.5574
X7.6292Y-2.646
X7.6293Y-1.868
X7.6296Y-2.7846
X7.6303Y-3.2781
X7.6315Y-0.9292
X7.6325Y-2.2706
X7.6341Y-2.7151
X7.6343Y-1.8036
X7.6347Y-1.2679
X7.6349Y-1.1249
X7.6362Y-0.2219
X7.6376Y-0.6238
X7.6376Y-0.4884
X7.6386Y-2.5788
X7.6562Y-2.7434
X7.6577Y-2.5489
X7.6586Y-0.6535
X7.6595Y-4.5865
X7.66Y-1.3692
X7.6606Y-2.3111
X7.6609Y-1.597
X7.6619Y-2.367
X7.6631Y-1.4253
X7.6635Y-1.027
X7.6644Y-2.681
X7.665Y-1.8299
X7.6654Y-0.3819
X7.6655Y-1.9086
X7.6658Y-1.2269
X7.6663Y-1.0937
X7.6668Y-0.5834
X7.6668Y-0.9633
X7.6673Y-2.6141
X7.6677Y-0.4638
X7.6678Y-0.3242
X7.668Y-3.3197
X7.6684Y-0.1873
X7.669Y-0.5305
X7.669Y-4.6588
X7.6691Y-0.8991
X7.6697Y-0.2517
X7.6699Y-1.54
X7.6701Y-0.1152
X7.6716Y-4.1222
X7.6718Y-1.2918
X7.6897Y-0.0881
X7.6897Y-2.6399
X7.6908Y-1.3948
X7.6909Y-3.2743
X7.6916Y-1.3292
X7.6921Y-2.4997
X7.6922Y-2.3422
X7.6926Y-1.6376
X7.6927Y-1.473
X7.6929Y-0.2962
X7.6935Y-1.5585
X7.6939Y-2.5816
X7.6946Y-0.9964
X7.6959Y-1.9313
X7.6967Y-2.2706
X7.6984Y-0.9324
X7.6986Y-4.0917
X7.699Y-1.8615
X7.6991Y-0.1527
X7.6996Y-4.6255
X7.7003Y-2.4018
X7.7003Y-0.2213
X7.7026Y-1.2699
X7.7051Y-1.0638
X7.7236Y-3.1163
X7.7239Y-1.9724
X7.7243Y-3.7149
X7.7255Y-2.9827
X7.7259Y-1.8975
X7.7263Y-3.0394
X7.7271Y-0.1239
X7.7282Y-4.5839
X7.7292Y-1.5954
X7.7297Y-0.9607
X7.7299Y-3.9559
X7.7304Y-2.3689
X7.7305Y-1.2266
X7.7307Y-1.4248
X7.7309Y-2.5469
X7.731Y-0.8934
X7.7313Y-2.6086
X7.7317Y-3.5115
X7.732Y-2.307
X7.7333Y-1.3633
X7.7335Y-0.1905
X7.7345Y-0.2552
X7.736Y-4.6649
X7.736Y-1.4974
X7.7362Y-1.6653
X7.7363Y-3.7856
X7.7364Y-1.0259
X7.7371Y-4.1211
X7.7372Y-1.3006
X7.7382Y-3.8503
X7.7392Y-2.6823
X7.7565Y-2.3419
X7.7577Y-0.4925
X7.7578Y-0.9861
X7.759Y-2.5776
X7.7593Y-0.9235
X7.7596Y-1.5309
X7.7602Y-1.636
X7.7605Y-3.4205
X7.7613Y-2.2687
X7.7616Y-4.6226
X7.7618Y-1.2604
X7.762Y-0.0819
X7.7623Y-3.4785
X7.7636Y-1.3913
X7.7639Y-1.3355
X7.7643Y-2.509
X7.7653Y-1.4666
X7.7658Y-3.0083
X7.7664Y-3.743
X7.7679Y-3.8138
X7.7686Y-1.2021
X7.7686Y-3.0811
X7.7692Y-3.9823
X7.7696Y-4.0893
X7.7703Y-2.4088
X7.7712Y-3.1438
X7.7713Y-2.641
X7.7715Y-4.1502
X7.7716Y-0.1595
X7.7905Y-0.6588
X7.7905Y-3.1126
X7.7909Y-4.5972
X7.7911Y-0.8967
X7.7913Y-1.297
X7.7916Y-2.9781
X7.7928Y-3.4557
X7.793Y-4.1179
X7.7934Y-2.601
X7.7934Y-3.0389
X7.7935Y-0.7506
X7.7944Y-0.5955
X7.7963Y-2.6709
X7.7967Y-3.5119
X7.7968Y-2.5455
X7.7979Y-1.4943
X7.7993Y-0.1152
X7.7997Y-1.3689
X7.7997Y-0.9558
X7.8Y-4.7287
X7.8006Y-1.2229
X7.8008Y-2.377
X7.8008Y-2.3131
X7.8009Y-3.3777
X7.8024Y-3.7174
X7.8024Y-0.5203
X7.8027Y-4.6629
X7.8041Y-0.8194
X7.805Y-1.4362
X7.805Y-1.1706
X7.8249Y-2.5809
X7.8263Y-4.7001
X7.8277Y-0.8518
X7.8285Y-3.1413
X7.8285Y-3.3406
X7.8288Y-4.7625
X7.8307Y-1.258
X7.8314Y-0.9286
X7.8314Y-4.0935
X7.8315Y-1.1261
X7.8324Y-4.6176
X7.8329Y-0.5583
X7.8329Y-3.486
X7.8332Y-3.4202
X7.8336Y-0.1462
X7.8337Y-1.773
X7.8341Y-0.4872
X7.8342Y-0.7864
X7.8344Y-0.6293
X7.8357Y-2.6362
X7.8368Y-0.0916
X7.8386Y-3.0775
X7.839Y-3.0122
X7.8392Y-3.7494
X7.8403Y-1.1947
X7.8576Y-3.723
X7.8577Y-3.644
X7.8584Y-1.2296
X7.8585Y-0.7597
X7.8594Y-1.0909
X7.8603Y-3.1119
X7.8609Y-2.6045
X7.8616Y-0.8223
X7.8629Y-1.1593
X7.8634Y-0.5163
X7.8638Y-4.1267
X7.8641Y-0.8913
X7.8645Y-4.5905
X7.8656Y-3.3073
X7.8659Y-4.6646
X7.8668Y-2.6715
X7.8689Y-0.1169
X7.8705Y-4.7243
X7.8714Y-0.5927
X7.8722Y-3.3763
X7.8725Y-3.0466
X7.8728Y-3.4544
X7.8732Y-3.5188
X7.8733Y-3.5865
X7.8737Y-0.6648
X7.8738Y-1.8036
X7.8932Y-3.6105
X7.8933Y-0.1501
X7.8934Y-2.7078
X7.8936Y-3.5566
X7.8939Y-0.5646
X7.8949Y-1.0538
X7.8956Y-4.6199
X7.896Y-2.2344
X7.896Y-2.3669
X7.8963Y-3.4883
X7.8968Y-2.3024
X7.8975Y-2.041
X7.8985Y-4.0869
X7.899Y-3.0076
X7.8992Y-4.1486
X7.9006Y-0.0933
X7.9017Y-3.7478
X7.9018Y-1.7701
X7.9025Y-0.7911
X7.9031Y-3.0776
X7.9032Y-1.1368
X7.9036Y-4.7601
X7.9041Y-0.8556
X7.9043Y-4.6907
X7.9046Y-3.4177
X7.905Y-0.4894
X7.9052Y-2.6444
X7.9055Y-3.2767
X7.9056Y-3.6787
X7.9066Y-0.6287
X7.9069Y-3.3433
X7.9072Y-1.5005
X7.9248Y-1.0349
X7.9252Y-3.4526
X7.926Y-1.6079
X7.9267Y-0.5866
X7.9268Y-4.5911
X7.9272Y-3.3218
X7.9277Y-3.3795
X7.9282Y-1.0869
X7.9285Y-4.7244
X7.929Y-3.7205
X7.9291Y-3.8556
X7.9294Y-1.6691
X7.93Y-3.5916
X7.93Y-2.7367
X7.9309Y-3.514
X7.9311Y-0.8334
X7.9317Y-4.666
X7.932Y-1.7947
X7.9324Y-1.5363
X7.9338Y-2.4128
X7.9341Y-0.65
X7.9349Y-1.4607
X7.9355Y-0.5175
X7.9358Y-3.6529
X7.937Y-2.2672
X7.9372Y-3.957
X7.9377Y-3.7889
X7.9378Y-4.1149
X7.9382Y-3.0428
X7.9393Y-0.7577
X7.9397Y-2.3439
X7.9406Y-2.6747
X7.941Y-1.1678
X7.9412Y-0.1228
X7.9588Y-3.5531
X7.9597Y-4.7638
X7.96Y-1.8308
X7.9606Y-4.6941
X7.9608Y-3.8242
X7.9609Y-3.7503
X7.961Y-3.3516
X7.9614Y-3.2788
X7.9616Y-3.4197
X7.9626Y-1.7678
X7.963Y-1.129
X7.9632Y-4.1466
X7.9636Y-1.0624
X7.9638Y-0.7955
X7.9645Y-3.0111
X7.9647Y-0.1479
X7.9648Y-0.5618
X7.9656Y-0.9958
X7.9657Y-0.0872
X7.9657Y-2.3806
X7.966Y-1.4903
X7.9674Y-3.9853
X7.9674Y-3.474
X7.9681Y-1.9712
X7.9705Y-1.5728
X7.9725Y-3.6099
X7.9727Y-2.231
X7.9733Y-0.6175
X7.9736Y-3.6869
X7.9739Y-2.3138
X7.9744Y-1.9039
X7.9744Y-1.633
X7.9745Y-4.6326
X7.9922Y-2.334
X7.9931Y-4.654
X7.9937Y-0.5949
X7.9941Y-1.7993
X7.9943Y-3.4533
X7.9943Y-4.5997
X7.9946Y-0.5192
X7.9947Y-1.9962
X7.9964Y-1.6694
X7.997Y-0.6612
X7.9979Y-1.9368
X7.999Y-2.4129
X7.9991Y-3.7222
X7.9998Y-1.8735
X8.0006Y-3.5176
X8.0014Y-1.0343
X8.0024Y-1.5988
X8.0025Y-2.2713
X8.0027Y-0.1201
X8.0027Y-3.582
X8.0032Y-1.1626
X8.0038Y-3.3887
X8.004Y-1.0877
X8.0042Y-0.9671
X8.0056Y-0.7603
X8.0061Y-3.3161
X8.0066Y-1.4603
X8.0072Y-3.7845
X8.0072Y-4.7289
X8.0081Y-2.5081
X8.0081Y-1.5334
X8.0082Y-3.6579
X8.0283Y-1.9651
X8.0288Y-1.4977
X8.029Y-1.1291
X8.0293Y-3.3506
X8.0311Y-1.9031
X8.0311Y-1.0579
X8.0318Y-1.8282
X8.0331Y-0.6209
X8.0342Y-2.0435
X8.0346Y-1.6366
X8.0348Y-3.4835
X8.0349Y-0.55
X8.0355Y-2.3052
X8.0356Y-0.9885
X8.0364Y-2.3699
X8.0378Y-1.7685
X8.0379Y-2.5455
X8.0381Y-3.1522
X8.0383Y-1.5586
X8.0386Y-0.9302
X8.0404Y-3.4134
X8.0407Y-3.2775
X8.0409Y-4.7595
X8.0413Y-2.2114
X8.0593Y-0.5841
X8.0597Y-2.3438
X8.0597Y-0.5256
X8.0609Y-0.8901
X8.0612Y-3.3118
X8.0621Y-2.4101
X8.0621Y-1.1016
X8.0624Y-1.6683
X8.0624Y-2.0009
X8.0628Y-1.7962
X8.063Y-0.9669
X8.0632Y-1.1697
X8.064Y-1.0297
X8.0653Y-2.0761
X8.0659Y-1.5289
X8.0667Y-1.8687
X8.0667Y-2.4989
X8.0672Y-1.9348
X8.0677Y-2.2417
X8.0683Y-0.6663
X8.0697Y-1.6036
X8.0705Y-3.1088
X8.0722Y-3.3764
X8.0725Y-2.1357
X8.0748Y-3.4499
X8.093Y-2.9847
X8.0933Y-1.9084
X8.0934Y-1.8325
X8.0949Y-1.6258
X8.0955Y-3.281
X8.0968Y-3.8562
X8.0976Y-3.4182
X8.0979Y-1.1322
X8.098Y-1.1996
X8.0988Y-0.6269
X8.0989Y-0.9992
X8.0992Y-2.547
X8.0995Y-2.0416
X8.1001Y-3.3428
X8.1003Y-3.7777
X8.1012Y-1.5601
X8.1043Y-3.1392
X8.1045Y-2.1728
X8.1055Y-0.8593
X8.1056Y-2.3711
X8.1063Y-1.7682
X8.1063Y-0.5568
X8.1065Y-1.0604
X8.1066Y-2.7822
X8.1066Y-2.1034
X8.1069Y-3.0501
X8.1077Y-1.9706
X8.1077Y-0.9262
X8.1089Y-3.7245
X8.1093Y-2.2662
X8.1274Y-2.5692
X8.1282Y-2.2099
X8.1287Y-2.0685
X8.1291Y-1.6078
X8.13Y-2.3043
X8.1301Y-1.8724
X8.1304Y-3.3211
X8.131Y-3.0156
X8.1313Y-2.1358
X8.1318Y-1.9396
X8.1322Y-3.0709
X8.1328Y-2.3994
X8.1333Y-2.6774
X8.1335Y-2.5119
X8.1363Y-0.8966
X8.1371Y-1.5401
X8.1381Y-1.8025
X8.1388Y-1.6642
X8.1395Y-3.7545
X8.1398Y-1.0964
X8.1399Y-1.0295
X8.1399Y-3.8266
X8.1406Y-0.588
X8.1408Y-1.9953
X8.142Y-2.748
X8.1422Y-3.3759
X8.1423Y-0.9569
X8.1425Y-0.5195
X8.1425Y-0.8308
X8.1598Y-2.031
X8.1621Y-2.6099
X8.1623Y-1.8946
X8.1625Y-1.641
X8.1633Y-0.923
X8.1638Y-0.5544
X8.1647Y-3.1184
X8.165Y-0.7941
X8.1654Y-3.0382
X8.1655Y-3.2737
X8.1656Y-2.3375
X8.1656Y-0.6164
X8.167Y-3.3521
X8.167Y-1.0682
X8.1683Y-3.4123
X8.1688Y-2.096
X8.1691Y-1.5576
X8.1692Y-2.5353
X8.1696Y-1.7704
X8.1715Y-0.9943
X8.1722Y-1.8299
X8.1735Y-3.7165
X8.1739Y-2.712
X8.1742Y-2.24
X8.1744Y-2.1709
X8.1745Y-0.863
X8.1754Y-2.7727
X8.1759Y-2.9718
X8.1762Y-1.964
X8.1935Y-1.0294
X8.1936Y-3.1382
X8.1939Y-2.0012
X8.1966Y-0.8274
X8.1967Y-3.7571
X8.1975Y-1.6593
X8.1991Y-3.3169
X8.1994Y-3.0074
X8.2005Y-0.9
X8.2009Y-0.9607
X8.2027Y-0.5873
X8.203Y-0.5235
X8.2038Y-2.5678
X8.2039Y-2.7356
X8.204Y-2.6444
X8.2058Y-4.7648
X8.206Y-3.077
X8.2066Y-3.3792
X8.2078Y-1.8724
X8.2078Y-1.7996
X8.209Y-1.9362
X8.2273Y-0.8637
X8.2274Y-3.2874
X8.2289Y-1.7687
X8.2296Y-2.779
X8.2303Y-0.9266
X8.2305Y-2.9137
X8.2319Y-2.6025
X8.2332Y-1.9655
X8.2334Y-3.4123
X8.2334Y-1.0637
X8.2352Y-3.045
X8.2379Y-2.5333
X8.2388Y-3.3435
X8.2392Y-2.9833
X8.2393Y-3.116
X8.2394Y-0.9968
X8.2394Y-2.8416
X8.2402Y-1.834
X8.2406Y-1.9103
X8.2419Y-0.7529
X8.2423Y-2.6759
X8.2611Y-0.9614
X8.2621Y-2.4106
X8.2625Y-2.7068
X8.2625Y-1.4726
X8.2652Y-2.2327
X8.2653Y-2.5788
X8.2655Y-0.7891
X8.2684Y-3.0843
X8.2685Y-3.0125
X8.2713Y-0.8883
X8.2719Y-2.9471
X8.2724Y-3.3831
X8.2726Y-3.1383
X8.2727Y-1.9309
X8.273Y-3.3177
X8.2732Y-1.8015
X8.2739Y-3.4557
X8.2743Y-1.8678
X8.2746Y-2.6382
X8.2762Y-2.8155
X8.2764Y-1.0359
X8.2765Y-2.8821
X8.2945Y-0.9276
X8.2955Y-1.7645
X8.2961Y-2.6829
X8.2968Y-1.8969
X8.2968Y-0.9892
X8.2968Y-1.4944
X8.2979Y-3.8563
X8.2986Y-3.053
X8.2986Y-2.9739
X8.2998Y-3.4894
X8.2999Y-0.7667
X8.3002Y-3.7894
X8.3006Y-3.4179
X8.3018Y-3.276
X8.3018Y-2.6107
X8.3023Y-2.2745
X8.3026Y-0.4897
X8.3028Y-0.0885
X8.3032Y-2.5154
X8.3047Y-2.7402
X8.3065Y-1.8297
X8.3067Y-2.8433
X8.3076Y-1.27
X8.3077Y-3.1043
X8.309Y-0.826
X8.3094Y-2.9081
X8.3097Y-0.561
X8.31Y-0.6318
X8.31Y-3.3409
X8.31Y-2.3394
X8.3289Y-2.5344
X8.3298Y-0.5244
X8.3301Y-2.3655
X8.3308Y-3.0049
X8.331Y-1.5292
X8.3312Y-2.7102
X8.3324Y-2.777
X8.3334Y-0.855
X8.3335Y-3.3154
X8.3337Y-0.5883
X8.3339Y-3.0717
X8.3344Y-1.162
X8.3344Y-0.2485
X8.3351Y-3.1382
X8.3355Y-2.2439
X8.3363Y-1.8072
X8.3367Y-2.301
X8.337Y-0.1838
X8.3386Y-3.8237
X8.3387Y-1.4609
X8.3391Y-2.9361
X8.3395Y-2.8788
X8.3403Y-0.1222
X8.3408Y-2.6453
X8.3413Y-0.7942
X8.3419Y-1.2255
X8.3432Y-1.8696
X8.3436Y-0.9561
X8.3436Y-0.6639
X8.3633Y-2.1964
X8.3635Y-0.8978
X8.3639Y-0.4868
X8.3643Y-1.894
X8.3645Y-2.745
X8.3651Y-2.4121
X8.3657Y-2.5109
X8.3662Y-0.5621
X8.3663Y-1.1234
X8.3664Y-2.8126
X8.3667Y-0.6167
X8.3669Y-2.5715
X8.367Y-0.0838
X8.3673Y-2.9131
X8.3678Y-1.2693
X8.3682Y-0.2173
X8.3692Y-0.1509
X8.3698Y-3.8593
X8.3704Y-0.8327
X8.3705Y-1.498
X8.371Y-0.7559
X8.3717Y-1.5716
X8.3717Y-2.3413
X8.3726Y-2.6825
X8.3727Y-2.2753
X8.3737Y-3.7795
X8.3753Y-2.9758
X8.376Y-1.8409
X8.3761Y-1.2033
X8.3764Y-3.281
X8.3956Y-0.8655
X8.3957Y-0.786
X8.3959Y-1.1578
X8.3965Y-0.4533
X8.3965Y-1.2366
X8.3965Y-0.1929
X8.3976Y-0.2585
X8.398Y-3.7474
X8.3994Y-1.467
X8.4005Y-3.3192
X8.401Y-1.5333
X8.4015Y-1.8621
X8.4026Y-2.2353
X8.4032Y-2.5487
X8.4038Y-1.0911
X8.4043Y-0.5955
X8.4044Y-2.7102
X8.4047Y-4.7581
X8.405Y-1.5921
X8.4061Y-2.3658
X8.4091Y-0.5284
X8.4096Y-0.6615
X8.4097Y-2.3027
X8.4101Y-1.2939
X8.4102Y-0.1237
X8.4103Y-2.6123
X8.4115Y-3.8191
X8.429Y-1.2627
X8.4302Y-3.7817
X8.4302Y-0.6311
X8.4312Y-3.9511
X8.4315Y-1.5698
X8.432Y-0.5628
X8.432Y-0.0893
X8.4322Y-0.2897
X8.4325Y-2.6477
X8.4336Y-2.2679
X8.434Y-3.8529
X8.4347Y-2.5674
X8.4353Y-0.1607
X8.4363Y-1.2036
X8.437Y-1.0623
X8.4379Y-1.3311
X8.4385Y-3.7112
X8.4385Y-0.8222
X8.4388Y-2.4014
X8.439Y-4.6896
X8.4393Y-0.2201
X8.4395Y-1.4926
X8.4405Y-1.9027
X8.4411Y-0.4877
X8.4411Y-1.1358
X8.4413Y-1.6377
X8.4416Y-1.3983
X8.4419Y-0.35
X8.4421Y-4.6185
X8.4421Y-0.421
X8.4422Y-3.2738
X8.4423Y-2.5014
X8.443Y-0.7556
X8.4444Y-2.3419
X8.4634Y-2.5402
X8.4652Y-2.9743
X8.4664Y-0.7874
X8.4666Y-2.6728
X8.4667Y-1.2373
X8.4671Y-3.8158
X8.4674Y-0.1879
X8.4675Y-3.1193
X8.4682Y-1.9411
X8.4683Y-4.0538
X8.469Y-3.7536
X8.469Y-1.1673
X8.4694Y-1.5344
X8.4706Y-4.6594
X8.4708Y-0.656
X8.471Y-2.3749
X8.4711Y-1.0222
X8.4723Y-1.5978
X8.4724Y-1.3043
X8.4726Y-4.5923
X8.4726Y-1.4336
X8.4727Y-3.0478
X8.4732Y-0.1157
X8.4734Y-0.3897
X8.4746Y-2.3005
X8.4752Y-0.5991
X8.4752Y-1.6727
X8.4761Y-0.456
X8.477Y-1.3624
X8.477Y-1.1005
X8.4771Y-0.5159
X8.4777Y-3.991
X8.478Y-0.2485
X8.4782Y-2.6159
X8.4784Y-4.725
X8.4787Y-0.3265
X8.4962Y-3.784
X8.4972Y-0.7526
X8.4981Y-2.5091
X8.4982Y-0.0784
X8.4986Y-0.9955
X8.4987Y-1.1978
X8.4988Y-4.6313
X8.4991Y-2.4036
X8.5Y-1.458
X8.5002Y-2.5806
X8.5011Y-4.7664
X8.5016Y-4.0922
X8.5023Y-3.0852
X8.5025Y-2.3425
X8.5035Y-2.6407
X8.5039Y-1.2602
X8.5043Y-0.2865
X8.5045Y-1.3974
X8.5048Y-3.7216
X8.5053Y-0.363
X8.5053Y-3.1461
X8.5069Y-1.5613
X8.5074Y-0.156
X8.5075Y-2.2672
X8.5077Y-1.332
X8.5083Y-0.4193
X8.5084Y-1.1218
X8.5089Y-0.5521
X8.5089Y-3.8544
X8.5094Y-0.2272
X8.5101Y-4.6976
X8.5111Y-0.4889
X8.5112Y-0.6261
X8.5112Y-4.0119
X8.5113Y-1.0563
X8.5119Y-1.632
X8.5121Y-3.0158
X8.5124Y-3.9586
X8.5301Y-2.6066
X8.5303Y-0.2565
X8.5304Y-4.6592
X8.5304Y-1.3578
X8.5305Y-0.1141
X8.5305Y-1.0931
X8.5308Y-1.6645
X8.5315Y-3.3742
X8.532Y-2.6752
X8.5325Y-3.4459
X8.5344Y-2.5433
X8.5348Y-0.5841
X8.535Y-0.3145
X8.5352Y-3.0533
X8.5353Y-1.0356
X8.536Y-2.9761
X8.5368Y-1.2917
X8.5382Y-0.6511
X8.5383Y-1.2276
X8.5387Y-1.4924
X8.5391Y-0.4542
X8.5395Y-2.3035
X8.5411Y-1.5991
X8.542Y-3.119
X8.5421Y-0.394
X8.5425Y-3.7434
X8.5428Y-4.5879
X8.5432Y-4.7278
X8.5433Y-2.3759
X8.5434Y-0.185
X8.5445Y-0.5255
X8.5452Y-1.4257
X8.5457Y-0.9569
X8.5463Y-1.1697
X8.5636Y-0.4866
X8.5644Y-2.6481
X8.5646Y-2.5738
X8.5653Y-3.7158
X8.5659Y-1.1257
X8.566Y-0.2256
X8.5669Y-0.6224
X8.5675Y-3.1422
X8.5678Y-0.285
X8.5682Y-1.2671
X8.5688Y-4.0239
X8.5693Y-1.0634
X8.5708Y-0.1503
X8.5722Y-4.6201
X8.5727Y-0.9898
X8.5731Y-0.923
X8.5739Y-0.4202
X8.5745Y-1.1921
X8.5746Y-0.3508
X8.575Y-3.4797
X8.5756Y-0.5541
X8.5766Y-0.0887
X8.5772Y-3.0829
X8.578Y-1.7702
X8.5788Y-3.4085
X8.579Y-3.3419
X8.5793Y-3.0114
X8.5978Y-0.8969
X8.5987Y-2.6004
X8.5987Y-3.3829
X8.5988Y-3.441
X8.5998Y-3.5134
X8.6003Y-3.7457
X8.6011Y-0.4624
X8.6019Y-1.0317
X8.6028Y-3.3206
X8.603Y-0.6611
X8.6031Y-4.6594
X8.6033Y-0.1165
X8.6036Y-0.9685
X8.6044Y-1.2239
X8.6081Y-0.5934
X8.6085Y-1.8084
X8.6085Y-0.5258
X8.609Y-4.5957
X8.6098Y-3.0515
X8.6109Y-0.1947
X8.6115Y-1.0968
X8.6124Y-2.6823
X8.6129Y-1.1623
X8.6133Y-0.2571
X8.6134Y-3.1114
X8.6309Y-0.9997
X8.6325Y-3.0074
X8.6327Y-1.7708
X8.6329Y-0.9321
X8.6336Y-0.8589
X8.6343Y-0.0944
X8.6349Y-3.3495
X8.6362Y-0.4947
X8.6375Y-3.2778
X8.6377Y-0.6255
X8.6378Y-2.2344
X8.6382Y-2.3049
X8.6385Y-0.5575
X8.6388Y-1.0661
X8.6396Y-3.4826
X8.6399Y-3.0768
X8.6412Y-3.4185
X8.6415Y-4.0284
X8.6417Y-3.5493
X8.6417Y-1.1307
X8.6428Y-1.1998
X8.6432Y-2.0409
X8.6436Y-2.7075
X8.6445Y-2.3797
X8.645Y-1.4986
X8.6453Y-2.642
X8.6456Y-4.6243
X8.6462Y-0.1551
X8.6642Y-0.5861
X8.6649Y-0.9546
X8.6653Y-3.7789
X8.6655Y-0.8916
X8.6665Y-3.5084
X8.6666Y-4.0549
X8.6676Y-1.8032
X8.6677Y-3.0422
X8.6681Y-4.5891
X8.6681Y-1.1664
X8.6688Y-3.8488
X8.669Y-0.5309
X8.6694Y-1.5276
X8.6695Y-1.5935
X8.67Y-3.9456
X8.6703Y-2.6822
X8.6713Y-1.1014
X8.6715Y-3.3203
X8.6721Y-1.0341
X8.6722Y-1.4664
X8.6742Y-0.1182
X8.6748Y-1.6629
X8.675Y-3.5784
X8.6763Y-0.8292
X8.6763Y-3.4427
X8.678Y-3.3779
X8.6782Y-2.3364
X8.6798Y-4.663
X8.6799Y-2.4006
X8.6804Y-2.2766
X8.6981Y-3.5421
X8.6985Y-3.8185
X8.6988Y-2.0413
X8.6995Y-3.415
X8.7006Y-1.1242
X8.7026Y-4.2914
X8.7039Y-1.9638
X8.7045Y-3.0142
X8.7051Y-0.861
X8.7055Y-0.9262
X8.7062Y-1.5726
X8.7072Y-4.0819
X8.7072Y-3.284
X8.7074Y-1.0594
X8.7079Y-0.0811
X8.7082Y-3.4746
X8.7083Y-0.7932
X8.7093Y-3.3439
X8.7095Y-2.2993
X8.7095Y-0.9957
X8.7095Y-1.8377
X8.7101Y-2.2426
X8.7106Y-3.9914
X8.7111Y-1.5029
X8.7113Y-3.6135
X8.7129Y-1.6257
X8.7132Y-1.909
X8.7132Y-4.2289
X8.7135Y-2.3766
X8.7135Y-1.7662
X8.7143Y-0.1508
X8.7315Y-2.5071
X8.7317Y-3.4446
X8.7321Y-4.1949
X8.7321Y-2.3355
X8.7327Y-4.0505
X8.735Y-1.0234
X8.7358Y-4.2622
X8.7362Y-1.8748
X8.7377Y-1.097
X8.7378Y-3.5801
X8.738Y-1.8012
X8.738Y-1.6708
X8.7384Y-1.5932
X8.7391Y-1.4639
X8.7391Y-1.9333
X8.7397Y-0.8966
X8.7402Y-2.4146
X8.7408Y-0.8343
X8.7409Y-2.28
X8.7411Y-3.3864
X8.7417Y-0.1223
X8.7424Y-3.5238
X8.7449Y-0.9549
X8.745Y-1.17
X8.7452Y-2.0099
X8.7476Y-1.5378
X8.7476Y-3.3131
X8.7654Y-0.8593
X8.7655Y-2.2049
X8.7658Y-0.7628
X8.7673Y-3.3538
X8.7676Y-2.3699
X8.7678Y-0.4935
X8.7687Y-1.9091
X8.7687Y-1.4996
X8.7692Y-1.5712
X8.7699Y-1.842
X8.7718Y-3.1525
X8.7719Y-0.0783
X8.772Y-3.2823
X8.7733Y-1.6268
X8.7739Y-3.4225
X8.7742Y-2.3094
X8.7742Y-1.7738
X8.7748Y-1.9661
X8.7748Y-1.0585
X8.7758Y-1.1279
X8.7759Y-0.9988
X8.7761Y-0.9213
X8.7772Y-4.2251
X8.7782Y-3.4901
X8.7788Y-2.0385
X8.779Y-2.5469
X8.799Y-2.5064
X8.7998Y-1.8021
X8.8Y-1.6674
X8.8017Y-1.1608
X8.8023Y-3.3156
X8.8029Y-3.1105
X8.8035Y-2.3471
X8.8037Y-1.029
X8.8042Y-1.5993
X8.8043Y-2.4037
X8.8045Y-2.5729
X8.8045Y-0.8967
X8.8045Y-4.1889
X8.8056Y-4.498
X8.8062Y-3.4427
X8.8064Y-1.9319
X8.8068Y-0.7961
X8.8069Y-2.1351
X8.8104Y-0.5297
X8.8106Y-2.07
X8.8109Y-1.5377
X8.8114Y-1.872
X8.8115Y-1.9982
X8.8116Y-3.3761
X8.8119Y-4.7615
X8.8134Y-0.9551
X8.8137Y-2.2382
X8.8153Y-0.65
X8.8154Y-1.1023
X8.8326Y-2.2709
X8.8328Y-0.9282
X8.8346Y-3.7249
X8.8346Y-3.0487
X8.836Y-1.9055
X8.8368Y-1.5692
X8.8369Y-1.1252
X8.8373Y-2.768
X8.8378Y-0.8277
X8.838Y-1.8393
X8.8387Y-2.1657
X8.8391Y-2.3731
X8.8396Y-2.1008
X8.8412Y-3.2815
X8.8415Y-0.9859
X8.8425Y-3.4102
X8.8429Y-2.0315
X8.8441Y-2.976
X8.8444Y-1.19
X8.8447Y-4.5328
X8.8452Y-1.7639
X8.8461Y-2.5341
X8.8463Y-1.0558
X8.8474Y-1.6333
X8.8475Y-1.9761
X8.8475Y-4.7994
X8.8479Y-3.1467
X8.8487Y-3.3427
X8.8667Y-3.3779
X8.8674Y-0.7904
X8.8679Y-2.5087
X8.8681Y-1.1655
X8.8684Y-2.064
X8.8691Y-1.8063
X8.8694Y-2.3013
X8.8697Y-2.4074
X8.8701Y-0.8625
X8.8717Y-1.5375
X8.8719Y-2.0079
X8.8722Y-1.0936
X8.8732Y-1.6591
X8.8733Y-3.7556
X8.8746Y-1.2351
X8.8752Y-1.0278
X8.8752Y-2.208
X8.8763Y-2.5799
X8.8767Y-4.4837
X8.8772Y-0.2182
X8.8773Y-1.8664
X8.8781Y-3.312
X8.8785Y-2.1396
X8.8785Y-1.6073
X8.8794Y-1.9288
X8.8805Y-0.9664
X8.8812Y-3.0189
X8.8819Y-3.0849
X8.9Y-0.9898
X8.9Y-2.6726
X8.9003Y-1.9102
X8.9006Y-1.5739
X8.9009Y-1.8312
X8.9013Y-1.0595
X8.9014Y-2.9847
X8.9015Y-3.0447
X8.9016Y-0.6316
X8.9019Y-3.1089
X8.9022Y-1.6284
X8.9024Y-2.1715
X8.9028Y-0.8919
X8.9031Y-2.7432
X8.9038Y-2.2305
X8.9052Y-4.7974
X8.9052Y-1.7635
X8.9062Y-3.7126
X8.9066Y-2.1097
X8.9071Y-3.3525
X8.9074Y-2.603
X8.9084Y-1.9754
X8.9085Y-0.7599
X8.9089Y-2.5446
X8.9112Y-0.8307
X8.9117Y-2.0371
X8.9119Y-3.4076
X8.9125Y-2.3418
X8.9126Y-4.5253
X8.9134Y-3.7774
X8.9147Y-3.2748
X8.9339Y-3.0857
X8.9343Y-3.3763
X8.9346Y-2.7732
X8.9353Y-0.7946
X8.9356Y-3.7462
X8.9358Y-2.6497
X8.9359Y-1.8026
X8.9359Y-3.018
X8.9362Y-1.0265
X8.9372Y-4.4877
X8.9373Y-1.5947
X8.9379Y-1.6685
X8.9389Y-2.5755
X8.9392Y-1.9435
X8.9396Y-2.7086
X8.9397Y-3.8135
X8.9403Y-3.3158
X8.9414Y-0.6607
X8.9431Y-4.7543
X8.9438Y-0.855
X8.9442Y-3.1528
X8.9443Y-1.865
X8.9446Y-2.01
X8.9449Y-0.5978
X8.9463Y-0.9254
X8.9684Y-2.747
X8.9684Y-2.6756
X8.9705Y-3.4228
X8.9709Y-4.796
X8.9711Y-4.5173
X8.9713Y-1.9072
X8.9724Y-3.2866
X8.973Y-2.6047
X8.9731Y-0.8287
X8.9736Y-1.8344
X8.9736Y-1.9676
X8.9738Y-1.6301
X8.9747Y-3.7873
X8.9774Y-0.5494
X8.9779Y-3.0432
X8.9781Y-2.5355
X8.9782Y-2.8127
X8.9784Y-2.8751
X8.9787Y-0.7593
X8.9789Y-0.9539
X8.9793Y-1.7744
X8.981Y-2.9384
X8.9811Y-3.3531
X8.9815Y-0.8912
X8.9828Y-3.1155
X8.983Y-1.0649
X8.9835Y-0.6321
X9.0022Y-2.6367
X9.0023Y-2.5752
X9.0027Y-4.1888
X9.0027Y-3.1452
X9.0032Y-1.8087
X9.0034Y-0.9867
X9.0036Y-1.9393
X9.0053Y-2.9177
X9.0066Y-2.9854
X9.0069Y-0.9208
X9.007Y-2.7814
X9.0071Y-3.076
X9.0072Y-0.6528
X9.0075Y-3.4481
X9.0084Y-2.7147
X9.0085Y-3.3166
X9.0098Y-0.7866
X9.0105Y-0.5892
X9.0114Y-0.5203
X9.0118Y-2.8354
X9.0119Y-0.854
X9.0125Y-3.3796
X9.013Y-4.5558
X9.013Y-1.8723
X9.034Y-4.7917
X9.0342Y-3.4777
X9.0351Y-3.4191
X9.0356Y-2.2974
X9.0359Y-1.7688
X9.0363Y-2.8742
X9.0367Y-4.5985
X9.0371Y-1.841
X9.0376Y-0.765
X9.0377Y-1.0345
X9.0385Y-3.0187
X9.0414Y-2.9492
X9.0418Y-3.2808
X9.0426Y-2.7355
X9.0431Y-2.5127
X9.0431Y-0.6294
X9.0432Y-3.1183
X9.0438Y-2.2354
X9.0443Y-1.9072
X9.0443Y-4.5258
X9.0444Y-3.791
X9.0462Y-2.676
X9.0463Y-4.2182
X9.047Y-3.3418
X9.047Y-0.8227
X9.0472Y-2.8052
X9.0474Y-0.5619
X9.0476Y-1.4939
X9.0478Y-2.3772
X9.0489Y-0.958
X9.0499Y-0.8913
X9.0502Y-2.606
X9.0683Y-1.2375
X9.0686Y-2.3453
X9.0694Y-1.5254
X9.0699Y-4.7595
X9.0702Y-2.7836
X9.0708Y-2.8459
X9.0709Y-2.9712
X9.0711Y-3.0477
X9.0714Y-0.2134
X9.0723Y-1.1561
X9.0736Y-0.162
X9.0739Y-2.637
X9.0759Y-2.9126
X9.0769Y-3.3167
X9.0769Y-0.9214
X9.077Y-0.5243
X9.0773Y-2.5427
X9.0774Y-0.6608
X9.0774Y-1.4605
X9.0775Y-0.7853
X9.0776Y-0.5897
X9.0779Y-1.7948
X9.0781Y-2.4001
X9.0782Y-1.8664
X9.0782Y-4.5563
X9.0799Y-2.7113
X9.0818Y-3.14
X9.0825Y-0.9943
X9.0831Y-0.859
X9.0838Y-2.2766
X9.1014Y-3.8558
X9.1022Y-0.8182
X9.1024Y-1.1311
X9.1025Y-0.9621
X9.1032Y-0.1838
X9.1032Y-2.9428
X9.1035Y-1.8381
X9.104Y-4.5976
X9.1048Y-3.789
X9.1059Y-4.5306
X9.1065Y-2.6684
X9.1066Y-2.5078
X9.1075Y-2.7364
X9.1085Y-3.948
X9.1086Y-3.0093
X9.1096Y-1.2591
X9.1102Y-2.3657
X9.1103Y-1.4973
X9.1126Y-3.287
X9.1128Y-2.3059
X9.114Y-2.5705
X9.1157Y-2.8756
X9.1157Y-1.5635
X9.116Y-0.7555
X9.1163Y-1.2036
X9.1163Y-0.6175
X9.1165Y-2.8082
X9.1165Y-0.5569
X9.1167Y-2.237
X9.1177Y-1.9043
X9.1179Y-0.8854
X9.1354Y-3.3208
X9.1366Y-1.0891
X9.1369Y-1.525
X9.1373Y-1.7931
X9.1377Y-1.2285
X9.1381Y-2.3474
X9.1395Y-0.7954
X9.1396Y-0.8576
X9.1402Y-2.4075
X9.1412Y-0.6638
X9.1431Y-0.5863
X9.1434Y-1.4723
X9.1444Y-1.1576
X9.1446Y-2.6045
X9.1458Y-0.9285
X9.1462Y-2.2705
X9.1463Y-1.6035
X9.1483Y-2.7842
X9.1491Y-1.8648
X9.1492Y-2.5341
X9.1507Y-0.5197
X9.151Y-2.7131
X9.1703Y-3.9567
X9.1706Y-0.8941
X9.1707Y-1.3231
X9.1714Y-1.2017
X9.1722Y-2.503
X9.1735Y-0.6216
X9.1736Y-1.0611
X9.1763Y-2.6417
X9.1765Y-2.5786
X9.1766Y-1.2566
X9.1773Y-1.6411
X9.179Y-1.3982
X9.1796Y-0.7664
X9.1799Y-1.4974
X9.1801Y-2.7499
X9.1802Y-1.1225
X9.1807Y-0.5643
X9.181Y-2.311
X9.1812Y-1.9086
X9.1825Y-0.8192
X9.1829Y-2.3766
X9.1834Y-3.2865
X9.1842Y-1.8427
X9.1846Y-1.5604
X9.2024Y-0.663
X9.2033Y-1.6652
X9.2035Y-1.9316
X9.2044Y-2.411
X9.205Y-1.8676
X9.2059Y-1.372
X9.2064Y-2.9861
X9.2066Y-4.6288
X9.2069Y-1.0251
X9.2076Y-2.5355
X9.2095Y-3.7216
X9.2103Y-4.4986
X9.2107Y-2.346
X9.2108Y-0.7909
X9.2112Y-2.2738
X9.2115Y-4.5589
X9.2121Y-1.2941
X9.2127Y-0.866
X9.213Y-1.2244
X9.2133Y-1.1672
X9.2134Y-1.4304
X9.2137Y-2.6111
X9.2143Y-3.1417
X9.2153Y-1.5973
X9.2159Y-2.6831
X9.217Y-1.5354
X9.2176Y-0.5899
X9.2176Y-1.0983
X9.2184Y-0.5205
X9.2357Y-3.0196
X9.2365Y-1.4595
X9.2367Y-0.6292
X9.2392Y-3.5163
X9.2393Y-3.0717
X9.2394Y-1.3257
X9.2398Y-2.2978
X9.2416Y-2.6454
X9.2417Y-3.7518
X9.2422Y-2.3671
X9.2427Y-2.5672
X9.243Y-0.7587
X9.2435Y-0.9893
X9.2436Y-2.5017
X9.2437Y-4.263
X9.2451Y-4.5975
X9.2454Y-0.8199
X9.2454Y-4.6657
X9.2475Y-1.4061
X9.2481Y-1.2708
X9.2487Y-4.5246
X9.2494Y-4.7651
X9.2495Y-1.9667
X9.251Y-0.4826
X9.2513Y-1.5729
X9.2514Y-1.127
X9.2521Y-1.8999
X9.2522Y-1.199
X9.2523Y-1.634
X9.2524Y-0.5541
X9.2525Y-1.0557
X9.27Y-0.7849
X9.2713Y-3.7194
X9.2715Y-1.2931
X9.2718Y-2.6684
X9.2721Y-4.1503
X9.2723Y-1.0291
X9.2726Y-2.4054
X9.2729Y-3.4076
X9.2739Y-4.7916
X9.2744Y-3.4874
X9.2747Y-1.2371
X9.275Y-1.0927
X9.2758Y-0.6633
X9.2764Y-1.6658
X9.277Y-1.4236
X9.2777Y-3.1097
X9.2777Y-0.9635
X9.2789Y-0.5991
X9.2793Y-3.0493
X9.2797Y-2.9782
X9.2802Y-1.6062
X9.2804Y-4.4974
X9.2807Y-2.2641
X9.2818Y-4.5518
X9.2818Y-1.1601
X9.2821Y-0.5162
X9.2824Y-2.3404
X9.2845Y-2.5432
X9.2848Y-2.6114
X9.2849Y-1.4927
X9.2849Y-4.2215
X9.2849Y-4.6177
X9.2856Y-3.7919
X9.2857Y-1.3571
X9.303Y-3.827
X9.3032Y-4.7605
X9.3043Y-3.3765
X9.3046Y-3.1507
X9.3051Y-4.5179
X9.3052Y-3.0047
X9.3054Y-0.2552
X9.3061Y-2.6425
X9.3071Y-1.0696
X9.3073Y-2.368
X9.3074Y-3.0852
X9.3078Y-1.0007
X9.3088Y-1.5364
X9.3092Y-1.3364
X9.31Y-3.4454
X9.3106Y-4.5961
X9.311Y-3.5156
X9.3117Y-1.2608
X9.3117Y-0.4948
X9.3123Y-4.6516
X9.3127Y-1.4618
X9.3133Y-4.1845
X9.314Y-1.3997
X9.3144Y-1.7748
X9.3154Y-4.2579
X9.3158Y-1.122
X9.3163Y-2.5676
X9.3164Y-3.7551
X9.3166Y-0.5578
X9.3167Y-4.0892
X9.3181Y-0.9253
X9.3182Y-0.0879
X9.3184Y-0.6179
X9.3184Y-1.1979
X9.3188Y-2.3037
X9.338Y-4.6297
X9.3383Y-4.1263
X9.3392Y-0.5874
X9.3403Y-1.7975
X9.3405Y-2.6698
X9.3412Y-3.1058
X9.3413Y-0.1281
X9.3414Y-0.1797
X9.3415Y-3.4906
X9.3425Y-0.6614
X9.3428Y-3.4147
X9.3429Y-3.5483
X9.343Y-2.6127
X9.3431Y-3.0516
X9.3433Y-1.0896
X9.3441Y-1.2379
X9.3452Y-4.5511
X9.3462Y-0.5164
X9.3469Y-3.7846
X9.3471Y-4.7953
X9.3473Y-0.966
X9.3478Y-3.3407
X9.3484Y-1.1573
X9.3486Y-4.4553
X9.3506Y-0.8886
X9.3511Y-4.2856
X9.3523Y-3.7113
X9.3528Y-4.2201
X9.3533Y-1.0224
X9.3704Y-0.4907
X9.3708Y-0.9199
X9.3713Y-4.388
X9.3722Y-0.5541
X9.3727Y-0.1505
X9.3738Y-0.0837
X9.3739Y-1.0656
X9.374Y-4.157
X9.3747Y-1.198
X9.3748Y-4.3191
X9.3754Y-3.3105
X9.376Y-3.6478
X9.3763Y-4.0846
X9.3765Y-4.6518
X9.3769Y-3.7459
X9.377Y-0.8618
X9.3772Y-3.0764
X9.3774Y-4.2521
X9.38Y-4.4988
X9.3804Y-3.5795
X9.381Y-1.1205
X9.3827Y-0.6217
X9.3828Y-2.6485
X9.3831Y-3.4416
X9.3833Y-0.9911
X9.3836Y-4.5998
X9.3841Y-3.5204
X9.3847Y-1.7684
X9.385Y-4.7655
X9.386Y-3.007
X9.3861Y-3.3825
X9.4038Y-3.6849
X9.4045Y-1.0336
X9.4048Y-2.3136
X9.4055Y-3.2756
X9.4065Y-3.4765
X9.4069Y-4.5206
X9.4069Y-0.834
X9.407Y-4.4174
X9.407Y-4.3616
X9.4074Y-1.1667
X9.4083Y-3.5549
X9.4084Y-4.1962
X9.4091Y-2.6784
X9.4103Y-3.6244
X9.4116Y-0.5971
X9.4118Y-1.0993
X9.412Y-1.8028
X9.4121Y-0.5294
X9.4124Y-2.2307
X9.4129Y-3.7782
X9.4142Y-2.3729
X9.4143Y-4.2852
X9.4149Y-4.1162
X9.4152Y-0.9586
X9.4153Y-1.4574
X9.4154Y-0.1279
X9.417Y-4.7873
X9.4172Y-1.6071
X9.4179Y-3.4103
X9.4179Y-0.9005
X9.4185Y-4.6271
X9.4191Y-1.6589
X9.4194Y-1.5386
X9.42Y-3.3454
X9.4205Y-3.0385
X9.438Y-4.4636
X9.4391Y-3.5169
X9.4399Y-3.5824
X9.44Y-2.3353
X9.4412Y-3.3789
X9.4412Y-2.0072
X9.4422Y-1.0615
X9.4426Y-0.7876
X9.443Y-3.0167
X9.4445Y-0.9983
X9.4446Y-3.7105
X9.4455Y-1.5617
X9.4457Y-1.1283
X9.4457Y-4.5613
X9.446Y-1.7738
X9.4464Y-0.858
X9.4469Y-4.1598
X9.447Y-4.2183
X9.4472Y-1.4984
X9.4477Y-0.9331
X9.4494Y-0.0886
X9.4502Y-4.3918
X9.4503Y-3.4439
X9.4518Y-3.6455
X9.4522Y-2.2752
X9.4524Y-2.4078
X9.4527Y-0.1493
X9.4528Y-3.3152
X9.453Y-1.8322
X9.4537Y-4.3195
X9.4541Y-1.6276
X9.4711Y-3.7546
X9.4726Y-4.5983
X9.4727Y-3.6865
X9.4735Y-4.1932
X9.4743Y-2.3792
X9.4744Y-0.9593
X9.4745Y-1.095
X9.4763Y-1.876
X9.4763Y-1.1654
X9.4768Y-1.9307
X9.4769Y-2.2985
X9.477Y-1.6049
X9.477Y-0.1151
X9.477Y-0.8885
X9.4774Y-1.8009
X9.4777Y-3.4875
X9.478Y-1.4675
X9.478Y-4.4319
X9.4786Y-3.8108
X9.4805Y-3.2773
X9.4805Y-3.6206
X9.4811Y-2.2401
X9.4819Y-3.5426
X9.4828Y-0.8279
X9.483Y-2.5149
X9.4833Y-3.3475
X9.4833Y-1.6608
X9.4838Y-1.0252
X9.4849Y-4.3573
X9.4853Y-4.2585
X9.4864Y-1.534
X9.487Y-4.4944
X9.4876Y-3.4168
X9.5047Y-0.5596
X9.5062Y-0.9953
X9.5068Y-4.5243
X9.5072Y-0.7531
X9.5075Y-4.2291
X9.5077Y-1.0536
X9.508Y-2.3376
X9.5086Y-4.2839
X9.5097Y-1.8323
X9.5098Y-4.3842
X9.5099Y-3.3749
X9.512Y-2.2717
X9.5121Y-1.9087
X9.5133Y-3.3171
X9.5134Y-3.5167
X9.5137Y-3.4562
X9.5141Y-1.1269
X9.5162Y-0.0824
X9.5164Y-2.543
X9.517Y-1.5007
X9.517Y-1.9618
X9.5183Y-0.6251
X9.5185Y-0.9348
X9.5186Y-2.4099
X9.5192Y-1.627
X9.5194Y-1.7611
X9.5196Y-4.4556
X9.5198Y-0.8631
X9.5206Y-2.0408
X9.5207Y-0.1517
X9.521Y-0.4912
X9.5213Y-1.5664
X9.5386Y-1.1588
X9.5388Y-4.2532
X9.5392Y-0.1206
X9.5399Y-3.1403
X9.5404Y-0.7949
X9.5418Y-3.288
X9.5422Y-2.366
X9.5429Y-1.0948
X9.543Y-1.0235
X9.5432Y-4.5606
X9.5433Y-2.0008
X9.5444Y-2.1984
X9.5458Y-3.4899
X9.5458Y-1.5355
X9.5465Y-2.3118
X9.5467Y-1.8609
X9.5474Y-1.9326
X9.5476Y-2.5086
X9.5478Y-2.0707
X9.5482Y-0.5206
X9.5499Y-0.9557
X9.5509Y-1.8083
X9.5511Y-1.6067
X9.5513Y-3.4128
X9.5515Y-2.5682
X9.5526Y-0.8956
X9.5527Y-0.6613
X9.5535Y-3.3476
X9.5537Y-4.4928
X9.5547Y-2.1397
X9.555Y-1.665
X9.5729Y-2.1088
X9.5741Y-2.0282
X9.5749Y-4.5311
X9.5752Y-3.0451
X9.5763Y-3.781
X9.5776Y-2.543
X9.5777Y-1.0535
X9.578Y-2.9729
X9.5791Y-1.6311
X9.5791Y-1.8388
X9.5796Y-3.7104
X9.5796Y-0.8199
X9.5799Y-2.7832
X9.5799Y-0.9267
X9.5811Y-1.1976
X9.5817Y-1.1212
X9.5823Y-1.9777
X9.5825Y-3.3091
X9.5829Y-2.3315
X9.583Y-3.8799
X9.583Y-0.9875
X9.5832Y-2.4035
X9.5833Y-2.2371
X9.5838Y-4.656
X9.5838Y-1.7659
X9.584Y-1.5576
X9.5848Y-1.8959
X9.5849Y-4.5973
X9.5862Y-0.0811
X9.5863Y-4.0958
X9.5869Y-4.7596
X9.5869Y-3.1083
X9.5882Y-3.3776
X9.5885Y-2.1794
X9.6065Y-1.2342
X9.6072Y-1.5954
X9.6072Y-1.928
X9.6077Y-1.0282
X9.608Y-3.1524
X9.608Y-3.3514
X9.6091Y-0.9649
X9.6094Y-2.5069
X9.6097Y-3.0808
X9.61Y-1.1636
X9.6103Y-1.5313
X9.6103Y-2.1324
X9.611Y-2.3765
X9.6111Y-3.8102
X9.6111Y-1.8082
X9.6117Y-3.7548
X9.6117Y-2.5804
X9.6122Y-3.0116
X9.6147Y-0.7978
X9.6156Y-3.2843
X9.6158Y-4.6305
X9.6158Y-2.2109
X9.6164Y-1.8633
X9.6167Y-0.2188
X9.6168Y-3.4137
X9.6169Y-3.9257
X9.6181Y-2.27
X9.6186Y-4.1277
X9.6186Y-1.6643
X9.6199Y-4.4634
X9.6202Y-0.8669
X9.6203Y-2.0719
X9.6203Y-2.0036
X9.6204Y-4.5666
X9.6206Y-1.0968
X9.6394Y-3.8588
X9.64Y-2.6032
X9.6407Y-2.4081
X9.6414Y-3.71
X9.6416Y-3.3889
X9.6417Y-3.7872
X9.6418Y-3.1183
X9.6431Y-3.3217
X9.6432Y-1.9723
X9.6435Y-1.6397
X9.6439Y-2.6693
X9.6447Y-1.0542
X9.6447Y-1.9079
X9.6455Y-4.0946
X9.6456Y-3.0535
X9.6477Y-0.9957
X9.6481Y-2.7444
X9.6483Y-0.6645
X9.6492Y-2.1787
X9.6493Y-1.8265
X9.6495Y-2.1051
X9.6497Y-1.5701
X9.6499Y-2.9701
X9.65Y-2.0288
X9.6512Y-2.305
X9.6513Y-0.8342
X9.6513Y-2.5413
X9.6532Y-2.232
X9.6542Y-4.1497
X9.6554Y-1.7692
X9.6558Y-0.89
X9.6729Y-1.8654
X9.6729Y-1.807
X9.6734Y-3.077
X9.6735Y-0.5859
X9.6735Y-4.1285
X9.6741Y-3.2745
X9.6742Y-1.5984
X9.6757Y-3.0081
X9.6766Y-2.0629
X9.6778Y-3.139
X9.6783Y-3.341
X9.6783Y-2.5768
X9.6784Y-2.0065
X9.6791Y-1.6672
X9.6795Y-3.8917
X9.681Y-2.6426
X9.6812Y-0.7608
X9.6818Y-2.7118
X9.6829Y-2.7822
X9.683Y-2.1423
X9.683Y-2.2664
X9.6834Y-3.8209
X9.6836Y-1.9434
X9.6843Y-1.0308
X9.6855Y-3.75
X9.6864Y-2.2064
X9.6865Y-0.8551
X9.6872Y-0.9293
X9.6882Y-1.5252
X9.6884Y-3.412
X9.7073Y-2.9804
X9.7074Y-3.3828
X9.7074Y-2.668
X9.7082Y-0.5543
X9.709Y-0.8893
X9.7092Y-1.829
X9.7098Y-0.7903
X9.7102Y-4.4932
X9.7102Y-1.7699
X9.7109Y-1.9085
X9.7134Y-2.6118
X9.7136Y-0.6223
X9.7145Y-3.7883
X9.7152Y-3.9245
X9.7181Y-3.0491
X9.7184Y-3.1067
X9.7186Y-2.5468
X9.7187Y-1.6292
X9.7193Y-2.7455
X9.7198Y-3.3095
X9.7211Y-1.9679
X9.7214Y-4.0857
X9.7215Y-3.854
X9.7409Y-3.2756
X9.7411Y-2.567
X9.7418Y-1.8078
X9.742Y-0.826
X9.7423Y-3.8823
X9.7427Y-1.9405
X9.743Y-2.9064
X9.7436Y-4.5174
X9.7438Y-3.1459
X9.7442Y-2.6464
X9.7442Y-1.8753
X9.7444Y-0.6608
X9.7488Y-3.342
X9.7495Y-0.7639
X9.7495Y-2.8448
X9.7501Y-3.0753
X9.7503Y-3.4107
X9.7503Y-2.7723
X9.7509Y-4.7853
X9.7531Y-3.8216
X9.7545Y-0.5924
X9.755Y-0.5239
X9.7559Y-3.0194
X9.756Y-2.704
X9.7737Y-2.7427
X9.7757Y-1.9102
X9.7757Y-3.4459
X9.7758Y-4.6306
X9.7761Y-1.5361
X9.777Y-3.3212
X9.7771Y-2.2409
X9.7774Y-3.7885
X9.7782Y-1.4723
X9.7783Y-2.8152
X9.7795Y-2.3788
X9.7798Y-4.8203
X9.7817Y-3.3879
X9.7818Y-0.9882
X9.7835Y-3.9245
X9.7841Y-0.6208
X9.785Y-1.8429
X9.7854Y-2.9512
X9.7859Y-2.6688
X9.7865Y-2.6069
X9.7871Y-0.7909
X9.7876Y-2.5073
X9.7883Y-2.3139
X9.7884Y-1.7729
X9.7887Y-2.8731
X9.7894Y-1.0591
X9.7896Y-3.8515
X9.7896Y-0.5589
X9.7897Y-4.7651
X9.79Y-3.11
X9.79Y-3.0408
X9.8073Y-0.6658
X9.8081Y-1.2647
X9.8081Y-3.3492
X9.8087Y-1.0264
X9.809Y-3.2868
X9.8091Y-1.8658
X9.8096Y-4.6616
X9.8115Y-0.7596
X9.8127Y-2.7125
X9.8133Y-1.0946
X9.8137Y-1.5722
X9.8142Y-3.4787
X9.8146Y-1.4953
X9.8147Y-0.5979
X9.8151Y-2.6336
X9.8163Y-2.264
X9.8166Y-0.9669
X9.8173Y-3.0718
X9.8174Y-3.1414
X9.8175Y-2.9063
X9.8175Y-4.791
X9.8183Y-4.5244
X9.8184Y-3.8847
X9.8185Y-2.8409
X9.819Y-2.5371
X9.8191Y-2.9729
X9.8192Y-2.4108
X9.8193Y-0.5161
X9.8194Y-2.3347
X9.8199Y-2.771
X9.8211Y-3.8216
X9.8233Y-1.8064
X9.8412Y-3.7801
X9.8414Y-2.2986
X9.8421Y-2.2405
X9.8431Y-0.2226
X9.8434Y-1.5389
X9.8436Y-0.9293
X9.8458Y-2.747
X9.8462Y-3.9222
X9.8462Y-0.9893
X9.8465Y-2.8035
X9.8467Y-1.9083
X9.8473Y-3.3157
X9.8481Y-3.1127
X9.8492Y-0.5537
X9.8516Y-2.8695
X9.8517Y-2.6707
X9.8523Y-2.5018
X9.8527Y-4.6321
X9.8531Y-3.0172
X9.8541Y-3.8527
X9.8541Y-0.1497
X9.8546Y-2.9407
X9.8554Y-1.604
X9.8555Y-4.8274
X9.8558Y-1.1251
X9.856Y-2.3658
X9.8561Y-1.0615
X9.8561Y-4.7548
X9.8561Y-0.6328
X9.8568Y-1.1896
X9.857Y-1.843
X9.8572Y-2.5761
X9.8751Y-0.594
X9.8757Y-3.811
X9.8773Y-2.4146
X9.8778Y-2.5462
X9.8787Y-4.6666
X9.8793Y-0.8877
X9.8798Y-1.0331
X9.8809Y-2.6099
X9.8817Y-4.7987
X9.8833Y-1.5713
X9.8841Y-1.2257
X9.8846Y-4.5187
X9.8846Y-0.9599
X9.8855Y-1.6253
X9.8857Y-0.6662
X9.8865Y-3.8895
X9.8869Y-3.2743
X9.887Y-2.7818
X9.8877Y-1.8698
X9.8879Y-2.7069
X9.8879Y-1.7981
X9.8892Y-1.4569
X9.8896Y-1.1673
X9.89Y-2.3339
X9.8902Y-0.5184
X9.8906Y-2.2698
X9.8911Y-1.089
X9.9084Y-4.7602
X9.9085Y-0.8665
X9.9099Y-1.4004
X9.9115Y-0.9998
X9.9117Y-2.3007
X9.9131Y-3.7515
X9.9131Y-1.9071
X9.9135Y-1.3387
X9.915Y-1.2555
X9.915Y-1.8416
X9.9153Y-2.5685
X9.916Y-3.3115
X9.9163Y-1.1972
X9.9179Y-2.5001
X9.9179Y-0.9267
X9.919Y-1.6041
X9.9206Y-0.6226
X9.9211Y-2.6364
X9.9221Y-1.1244
X9.9225Y-2.7384
X9.9229Y-0.5545
X9.923Y-3.9196
X9.9233Y-1.067
X9.9235Y-3.8476
X9.9236Y-1.4943
X9.9243Y-4.6291
X9.9247Y-2.3708
X9.9422Y-2.2702
X9.9427Y-1.6384
X9.9427Y-1.8657
X9.9429Y-2.5401
X9.9442Y-1.9293
X9.9444Y-3.7182
X9.9444Y-2.6723
X9.9452Y-1.5389
X9.9454Y-1.2984
X9.9458Y-0.5312
X9.946Y-3.893
X9.946Y-2.4043
X9.9464Y-4.5199
X9.9464Y-0.9015
X9.9476Y-0.5887
X9.9485Y-1.1681
X9.949Y-1.098
X9.9492Y-1.0349
X9.9493Y-3.7878
X9.9501Y-1.424
X9.9502Y-0.9614
X9.9503Y-1.3587
X9.9515Y-2.9716
X9.9519Y-2.6104
X9.9519Y-4.658
X9.9545Y-2.3427
X9.955Y-1.2351
X9.9579Y-3.2866
X9.9766Y-1.8978
X9.9769Y-1.6684
X9.9778Y-1.001
X9.9788Y-3.8221
X9.9795Y-1.0532
X9.9798Y-1.9718
X9.9801Y-4.6339
X9.9804Y-1.3348
X9.9822Y-1.4003
X9.9825Y-2.5686
X9.9828Y-1.1895
X9.9831Y-0.5526
X9.9839Y-2.3701
X9.9842Y-1.2618
X9.9856Y-1.5642
X9.986Y-0.6222
X9.9861Y-3.0743
X9.9861Y-2.3129
X9.9878Y-3.7453
X9.988Y-0.9199
X9.9887Y-0.4845
X9.989Y-3.9142
X9.9891Y-3.0056
X9.9899Y-1.4632
X9.9904Y-1.124
X9.9907Y-2.6339
X9.9909Y-2.4994
X9.9915Y-3.1521
X10.01Y-0.5198
X10.01Y-1.1681
X10.0104Y-1.4254
X10.0111Y-4.5188
X10.0123Y-0.9019
X10.013Y-1.2317
X10.0139Y-3.8496
X10.0144Y-0.5923
X10.015Y-2.9861
X10.0154Y-3.79
X10.0164Y-4.6593
X10.0172Y-2.3378
X10.0175Y-2.2757
X10.0187Y-3.72
X10.0187Y-2.5417
X10.0192Y-0.9625
X10.0196Y-0.2879
X10.0208Y-1.3658
X10.0213Y-3.4155
X10.0219Y-2.608
X10.0223Y-1.036
X10.0228Y-1.4992
X10.0236Y-2.4095
X10.0244Y-3.0531
X10.0245Y-1.6009
X10.0246Y-1.1028
X10.0252Y-1.3016
X10.0254Y-3.1055
X10.0435Y-0.4952
X10.0439Y-1.2696
X10.0446Y-3.3896
X10.0452Y-0.9985
X10.0465Y-3.8137
X10.0468Y-1.0692
X10.0479Y-0.0933
X10.0488Y-3.1503
X10.05Y-1.1978
X10.0503Y-3.4409
X10.0514Y-0.9197
X10.052Y-1.457
X10.052Y-2.5799
X10.0525Y-3.0745
X10.0526Y-3.8849
X10.0541Y-2.6431
X10.0544Y-1.7593
X10.0546Y-1.3306
X10.0551Y-2.3131
X10.0552Y-1.5246
X10.0554Y-1.1237
X10.0557Y-0.5534
X10.0565Y-2.3797
X10.0567Y-3.7481
X10.0569Y-3.0042
X10.0588Y-4.6273
X10.0594Y-1.4043
X10.0763Y-1.1591
X10.0763Y-1.2258
X10.0795Y-3.481
X10.0809Y-2.611
X10.0811Y-0.1191
X10.0818Y-4.528
X10.0819Y-3.8516
X10.0827Y-1.8006
X10.0839Y-3.722
X10.0841Y-0.1822
X10.0842Y-3.913
X10.0848Y-3.3442
X10.0866Y-0.8907
X10.0873Y-3.0429
X10.0882Y-0.962
X10.0891Y-1.1027
X10.0895Y-3.7788
X10.0898Y-1.0211
X10.0902Y-3.421
X10.0918Y-4.6535
X10.0919Y-2.6836
X10.092Y-0.249
X10.0925Y-3.105
X10.0927Y-0.5238
X10.1107Y-3.5096
X10.1126Y-0.9895
X10.1128Y-3.7472
X10.1129Y-0.9313
X10.114Y-3.4525
X10.1148Y-1.765
X10.1162Y-3.0164
X10.1166Y-3.3784
X10.1167Y-0.4962
X10.1183Y-1.1363
X10.1183Y-3.0855
X10.1195Y-1.1976
X10.1201Y-2.6452
X10.121Y-1.0671
X10.1211Y-3.8146
X10.122Y-0.0796
X10.1221Y-0.2168
X10.1224Y-4.6183
X10.1233Y-3.3215
X10.1237Y-3.8873
X10.1237Y-0.1482
X10.1438Y-2.368
X10.1446Y-3.7809
X10.1451Y-2.2381
X10.1453Y-3.9213
X10.1475Y-3.3561
X10.1484Y-1.4927
X10.1498Y-4.658
X10.1502Y-3.4879
X10.1506Y-0.8988
X10.1508Y-0.6163
X10.1519Y-3.0511
X10.1527Y-2.3088
X10.1527Y-3.5468
X10.1537Y-2.671
X10.1538Y-1.7969
X10.154Y-3.844
X10.1551Y-3.2761
X10.1554Y-3.4194
X10.1555Y-0.1885
X10.1567Y-0.1185
X10.1568Y-1.0312
X10.1583Y-0.9686
X10.159Y-1.0951
X10.1596Y-1.1622
X10.1783Y-0.5959
X10.1785Y-0.9986
X10.1786Y-1.535
X10.1787Y-1.4657
X10.1788Y-3.5206
X10.179Y-3.8914
X10.1793Y-3.8109
X10.1803Y-1.6727
X10.1835Y-2.3358
X10.1839Y-2.2665
X10.184Y-2.4053
X10.1842Y-4.5932
X10.1844Y-1.8268
X10.185Y-1.6022
X10.1867Y-0.9301
X10.1867Y-3.5909
X10.1869Y-1.0637
X10.1878Y-0.0792
X10.1889Y-3.3223
X10.1901Y-1.1293
X10.1902Y-1.7643
X10.1919Y-0.15
X10.192Y-2.0112
X10.1923Y-3.3797
X10.1934Y-2.7161
X10.1936Y-3.0073
X10.1939Y-0.6601
X10.1939Y-3.4484
X10.211Y-3.5539
X10.2132Y-1.5706
X10.2134Y-4.5643
X10.2138Y-0.6228
X10.2147Y-1.0961
X10.2149Y-0.1132
X10.215Y-0.5568
X10.2151Y-1.8746
X10.2161Y-1.1663
X10.2179Y-1.6343
X10.2182Y-3.2743
X10.2194Y-3.9196
X10.2199Y-2.3705
X10.2201Y-2.3006
X10.2213Y-3.479
X10.2216Y-1.9425
X10.222Y-1.0326
X10.2222Y-0.8958
X10.2223Y-3.4132
X10.2232Y-3.8494
X10.2235Y-3.6116
X10.2235Y-2.2334
X10.224Y-1.8007
X10.2241Y-4.6203
X10.2242Y-3.3456
X10.2251Y-0.9657
X10.2253Y-1.5022
X10.2445Y-1.7679
X10.2446Y-0.0791
X10.2448Y-1.971
X10.2448Y-3.5821
X10.2458Y-2.5026
X10.246Y-2.3384
X10.2481Y-1.136
X10.2487Y-2.4119
X10.2489Y-1.8342
X10.2494Y-4.5292
X10.2495Y-3.4571
X10.2498Y-3.6457
X10.2508Y-3.3172
X10.2517Y-3.3806
X10.2526Y-1.4579
X10.2541Y-0.5261
X10.2543Y-0.1603
X10.2546Y-1.0616
X10.2548Y-0.9241
X10.2556Y-1.6638
X10.2558Y-4.5952
X10.2567Y-0.5938
X10.257Y-0.6607
X10.257Y-3.5091
X10.2571Y-1.904
X10.2572Y-4.6659
X10.2575Y-1.5981
X10.2581Y-0.997
X10.2587Y-2.2713
X10.2593Y-3.8941
X10.2603Y-2.0333
X10.261Y-1.5337
X10.2819Y-2.0035
X10.2821Y-1.8604
X10.2825Y-2.0681
X10.2828Y-4.5549
X10.2829Y-3.4758
X10.2836Y-3.6881
X10.2838Y-3.6239
X10.2838Y-0.5629
X10.2842Y-3.4228
X10.2843Y-4.6192
X10.2859Y-1.7999
X10.2869Y-0.1134
X10.287Y-1.1632
X10.2872Y-1.0325
X10.2874Y-3.144
X10.2876Y-2.2125
X10.2877Y-3.3429
X10.2879Y-1.5639
X10.2884Y-0.9605
X10.2891Y-2.5491
X10.2893Y-4.4965
X10.2905Y-3.5472
X10.2907Y-2.3108
X10.2913Y-0.8996
X10.2916Y-1.4935
X10.2933Y-3.927
X10.294Y-0.6192
X10.2941Y-3.2783
X10.2942Y-1.63
X10.2945Y-1.9436
X10.2946Y-1.1006
X10.2947Y-2.3803
X10.3119Y-1.1943
X10.3126Y-4.459
X10.3136Y-1.0025
X10.3138Y-4.5201
X10.3141Y-0.5197
X10.3143Y-3.7175
X10.3144Y-3.3838
X10.3145Y-3.508
X10.3158Y-1.1275
X10.3159Y-4.6658
X10.3166Y-0.9259
X10.3166Y-3.6461
X10.3174Y-1.5927
X10.318Y-0.0861
X10.3183Y-3.1134
X10.3185Y-1.764
X10.319Y-1.0667
X10.3193Y-1.9629
X10.3205Y-1.5313
X10.321Y-3.4505
X10.3213Y-2.5131
X10.3215Y-1.9073
X10.3226Y-2.0301
X10.3227Y-3.317
X10.3236Y-2.1735
X10.3242Y-3.5879
X10.3256Y-2.3365
X10.3256Y-4.6001
X10.3268Y-1.8361
X10.3269Y-2.2387
X10.3279Y-2.0966
X10.3281Y-2.401
X10.3283Y-1.6629
X10.3453Y-1.8737
X10.3454Y-2.2678
X10.3459Y-3.4901
X10.3459Y-2.1418
X10.3464Y-3.6239
X10.3467Y-2.0643
X10.347Y-3.2855
X10.3471Y-3.1459
X10.3479Y-3.5489
X10.3482Y-1.2252
X10.3485Y-1.0263
X10.3487Y-3.3415
X10.3498Y-4.6279
X10.3507Y-2.2032
X10.3508Y-3.7468
X10.3512Y-3.6804
X10.3522Y-1.1612
X10.3528Y-0.9591
X10.3529Y-4.5639
X10.3535Y-1.7934
X10.354Y-1.0884
X10.3548Y-2.784
X10.3557Y-2.006
X10.356Y-2.5476
X10.3565Y-1.9302
X10.3576Y-4.4914
X10.3587Y-3.4232
X10.3591Y-0.227
X10.3594Y-0.8959
X10.3595Y-2.9726
X10.3609Y-2.3745
X10.3614Y-1.6376
X10.3617Y-3.0496
X10.3618Y-1.5699
X10.3788Y-3.4443
X10.3799Y-2.7395
X10.38Y-1.6746
X10.38Y-1.5258
X10.3805Y-3.6485
X10.3812Y-3.7125
X10.3814Y-1.9728
X10.3815Y-3.3771
X10.3815Y-2.6816
X10.3816Y-3.3138
X10.382Y-4.5883
X10.3822Y-0.9891
X10.3828Y-1.8991
X10.383Y-4.6669
X10.3839Y-2.4044
X10.3845Y-1.6001
X10.3848Y-1.7662
X10.3854Y-2.298
X10.3862Y-2.1094
X10.3863Y-4.1923
X10.3868Y-1.0585
X10.3882Y-3.511
X10.3885Y-4.5283
X10.3885Y-0.9207
X10.3886Y-3.5756
X10.3897Y-2.2445
X10.3905Y-3.0078
X10.3906Y-1.8377
X10.3909Y-4.4604
X10.391Y-2.5687
X10.3913Y-4.0834
X10.3932Y-2.0434
X10.3942Y-3.792
X10.3951Y-3.0865
X10.3951Y-2.5082
X10.3953Y-2.1644
X10.4133Y-1.5575
X10.4136Y-1.8688
X10.4142Y-3.2792
X10.4142Y-1.8046
X10.4151Y-3.6247
X10.4153Y-3.4863
X10.4155Y-3.5516
X10.4155Y-3.0511
X10.4162Y-2.0061
X10.417Y-3.7548
X10.417Y-2.0638
X10.4173Y-1.0358
X10.4179Y-3.3421
X10.4182Y-0.8954
X10.4183Y-0.9646
X10.4196Y-3.814
X10.4197Y-2.6104
X10.42Y-2.2015
X10.42Y-0.6276
X10.4202Y-4.1151
X10.4204Y-2.2778
X10.421Y-2.5415
X10.4213Y-2.9743
X10.4225Y-2.7031
X10.4233Y-1.6295
X10.4235Y-3.6892
X10.4248Y-2.7777
X10.4263Y-1.9409
X10.4268Y-4.2265
X10.427Y-4.4919
X10.4276Y-3.4213
X10.4277Y-3.1089
X10.4278Y-4.5576
X10.4284Y-2.1451
X10.429Y-4.624
X10.4465Y-3.0794
X10.4494Y-1.0673
X10.45Y-3.6585
X10.4505Y-1.7749
X10.451Y-0.6548
X10.4516Y-4.526
X10.4516Y-2.5792
X10.4519Y-2.6335
X10.4519Y-1.6609
X10.452Y-4.0817
X10.452Y-4.1483
X10.4522Y-1.9753
X10.4522Y-0.9202
X10.4525Y-4.2622
X10.4533Y-3.7215
X10.4534Y-2.7343
X10.4537Y-0.5984
X10.4537Y-0.9967
X10.4539Y-4.6579
X10.4542Y-3.019
X10.4545Y-3.1448
X10.4549Y-3.5175
X10.455Y-3.8477
X10.455Y-3.3783
X10.4552Y-1.8317
X10.4577Y-3.7865
X10.458Y-4.596
X10.4581Y-3.4484
X10.4585Y-3.5766
X10.46Y-3.3225
X10.46Y-1.9096
X10.4627Y-4.4585
X10.48Y-4.2913
X10.4805Y-3.5479
X10.4808Y-2.8433
X10.4818Y-1.8051
X10.4826Y-3.8889
X10.4832Y-3.4206
X10.4837Y-0.9647
X10.4842Y-2.9749
X10.4853Y-2.9185
X10.4856Y-3.7529
X10.4857Y-3.2854
X10.4857Y-0.6288
X10.4863Y-4.1296
X10.4873Y-1.025
X10.4878Y-4.3634
X10.4889Y-3.8264
X10.4889Y-1.8604
X10.4892Y-1.9427
X10.4894Y-4.4854
X10.49Y-0.5622
X10.49Y-2.7833
X10.4909Y-2.5431
X10.4912Y-3.4812
X10.4912Y-3.1066
X10.4915Y-4.6243
X10.4916Y-3.0379
X10.4921Y-2.67
X10.4922Y-4.1872
X10.4922Y-3.6241
X10.4933Y-4.4193
X10.4943Y-3.6825
X10.4943Y-4.5548
X10.4951Y-2.6007
X10.4958Y-0.9
X10.4964Y-3.349
X10.5137Y-4.4645
X10.5143Y-2.9472
X10.515Y-3.7191
X10.5151Y-0.655
X10.5153Y-4.5839
X10.5157Y-4.5299
X10.5159Y-3.0826
X10.5162Y-2.5737
X10.5164Y-4.1616
X10.5165Y-3.9132
X10.5169Y-3.6425
X10.5172Y-1.4729
X10.5176Y-2.8695
X10.5177Y-1.9101
X10.5184Y-2.4097
X10.5188Y-0.9924
X10.5195Y-3.5137
X10.52Y-1.7634
X10.5206Y-2.8137
X10.5212Y-0.928
X10.5223Y-3.3143
X10.5224Y-3.7784
X10.5229Y-0.5946
X10.5232Y-2.6335
X10.5247Y-3.0138
X10.5253Y-3.5872
X10.5261Y-3.1379
X10.5264Y-2.2452
X10.5265Y-4.2244
X10.5274Y-4.6538
X10.5274Y-0.021
X10.5277Y-3.3828
X10.5278Y-3.4568
X10.5282Y-2.7011
X10.5284Y-0.4934
X10.5285Y-4.3174
X10.5289Y-4.3935
X10.529Y-1.8291
X10.5295Y-3.8476
X10.5472Y-3.34
X10.5473Y-4.6211
X10.5485Y-3.2873
X10.5486Y-3.1112
X10.5488Y-3.826
X10.5491Y-0.8934
X10.5495Y-3.8806
X10.5496Y-3.55
X10.5497Y-0.6311
X10.5499Y-3.4177
X10.5503Y-3.6144
X10.5512Y-0.5196
X10.5515Y-2.7346
X10.5519Y-4.4972
X10.5524Y-4.562
X10.5526Y-2.5142
X10.5527Y-1.8633
X10.5535Y-2.9167
X10.5537Y-3.0475
X10.5549Y-1.2717
X10.5552Y-2.9746
X10.5561Y-2.2688
X10.5565Y-4.185
X10.5571Y-0.9584
X10.5575Y-3.7559
X10.5575Y-2.8437
X10.5582Y-3.4776
X10.5589Y-4.3505
X10.5591Y-4.2479
X10.5595Y-4.418
X10.5596Y-1.4972
X10.5599Y-3.6824
X10.5603Y-2.6013
X10.5609Y-2.339
X10.562Y-1.8061
X10.5622Y-2.6746
X10.583Y-3.7879
X10.583Y-2.8813
X10.583Y-4.3834
X10.5835Y-3.3146
X10.5847Y-0.0176
X10.5851Y-2.5421
X10.5861Y-1.4644
X10.5866Y-2.7043
X10.5868Y-4.6659
X10.5875Y-3.5218
X10.5879Y-1.9056
X10.5879Y-2.6492
X10.5881Y-3.7105
X10.5888Y-2.3041
X10.5888Y-2.7691
X10.5895Y-0.9341
X10.5904Y-4.5913
X10.5907Y-3.1508
X10.5908Y-4.4522
X10.5911Y-3.0128
X10.5911Y-1.8373
X10.5912Y-3.8565
X10.5914Y-0.5616
X10.5916Y-4.5261
X10.5916Y-1.1549
X10.5918Y-4.2243
X10.5923Y-2.9507
X10.5924Y-3.9273
X10.5926Y-0.6654
X10.5933Y-1.5325
X10.5939Y-0.2215
X10.5954Y-1.234
X10.5956Y-0.1576
X10.5956Y-3.0848
X10.5956Y-3.3808
X10.5959Y-2.2383
X10.5963Y-4.2938
X10.5966Y-2.3718
X10.5967Y-3.4548
X10.6144Y-1.5595
X10.6145Y-2.5725
X10.6162Y-0.598
X10.6164Y-3.4073
X10.6174Y-3.3421
X10.6181Y-4.2586
X10.6182Y-4.3263
X10.6185Y-2.4081
X10.6188Y-1.8764
X10.6193Y-1.2007
X10.6194Y-2.2046
X10.6194Y-2.7454
X10.6203Y-2.809
X10.6204Y-2.5086
X10.6205Y-1.4971
X10.6207Y-3.8151
X10.621Y-3.2773
X10.6213Y-1.2612
X10.623Y-0.1894
X10.6231Y-2.3408
X10.6233Y-1.8073
X10.6236Y-4.4918
X10.6241Y-0.5173
X10.6244Y-2.2681
X10.6245Y-2.676
X10.6247Y-3.7466
X10.6247Y-1.1221
X10.625Y-2.9792
X10.6256Y-2.9111
X10.6283Y-4.4269
X10.6291Y-0.8928
X10.6479Y-3.7111
X10.6482Y-1.4573
X10.6484Y-1.8977
X10.6496Y-0.0237
X10.651Y-1.2299
X10.6526Y-1.5289
X10.6549Y-3.7913
X10.6553Y-4.2281
X10.6569Y-2.5458
X10.6573Y-0.5592
X10.6583Y-2.7095
X10.6589Y-2.3027
X10.6589Y-2.3812
X10.6597Y-1.2972
X10.6604Y-1.842
X10.6609Y-1.1574
X10.6612Y-0.6179
X10.6613Y-2.6111
X10.6619Y-1.5985
X10.6625Y-1.0964
X10.6816Y-1.3281
X10.682Y-1.4008
X10.6829Y-1.4925
X10.6837Y-0.5216
X10.6845Y-1.6316
X10.6853Y-0.0517
X10.6858Y-2.6413
X10.6864Y-1.9337
X10.6867Y-3.7437
X10.6876Y-0.6617
X10.6889Y-2.272
X10.6897Y-1.5579
X10.6899Y-1.2042
X10.69Y-2.5747
X10.6916Y-2.3371
X10.6919Y-1.0546
X10.6926Y-2.5146
X10.6946Y-1.1331
X10.6955Y-2.3996
X10.6958Y-1.8632
X10.6976Y-1.2564
X10.6981Y-0.5932
X10.7155Y-3.0375
X10.7159Y-3.7214
X10.7161Y-1.291
X10.7173Y-1.0337
X10.7183Y-0.6298
X10.7192Y-4.6176
X10.7201Y-1.4323
X10.7205Y-1.6616
X10.7207Y-4.5607
X10.7208Y-1.0902
X10.721Y-3.7777
X10.722Y-2.3686
X10.7224Y-1.9639
X10.7225Y-2.9714
X10.7226Y-3.1148
X10.723Y-2.6024
X10.724Y-1.2267
X10.7267Y-2.3114
X10.727Y-1.6058
X10.7273Y-1.526
X10.7274Y-2.6761
X10.7276Y-0.4891
X10.7282Y-1.1602
X10.7286Y-0.5512
X10.7292Y-2.534
X10.7298Y-1.9016
X10.7299Y-1.3565
X10.7313Y-4.4881
X10.7488Y-1.5595
X10.7492Y-2.5791
X10.7498Y-1.1358
X10.75Y-4.522
X10.7507Y-1.0697
X10.7515Y-1.338
X10.7524Y-2.4013
X10.7525Y-0.2937
X10.7529Y-0.5898
X10.7532Y-4.5913
X10.7546Y-3.7452
X10.756Y-2.2733
X10.7565Y-0.6612
X10.7569Y-2.3379
X10.7574Y-2.5141
X10.7575Y-2.6397
X10.7576Y-1.2032
X10.7579Y-0.9896
X10.7603Y-1.2622
X10.7603Y-0.5312
X10.7607Y-1.6337
X10.7608Y-1.4026
X10.7609Y-1.4644
X10.7609Y-3.0055
X10.7613Y-0.462
X10.7633Y-3.0815
X10.765Y-4.6538
X10.7824Y-2.6152
X10.7834Y-1.492
X10.784Y-1.2916
X10.7843Y-2.5441
X10.7843Y-2.3074
X10.7845Y-4.4919
X10.7846Y-4.5625
X10.7847Y-3.7898
X10.7869Y-1.5964
X10.7874Y-2.9726
X10.7879Y-2.3709
X10.789Y-2.6694
X10.7904Y-1.1644
X10.7913Y-4.6338
X10.7917Y-1.0203
X10.7928Y-0.9572
X10.7942Y-0.5489
X10.7946Y-3.2191
X10.7947Y-1.2331
X10.7952Y-0.6284
X10.7953Y-0.4943
X10.797Y-1.4266
X10.7982Y-1.3668
X10.7983Y-1.0959
X10.7989Y-3.0462
X10.8165Y-1.1979
X10.8169Y-2.5015
X10.8172Y-1.2646
X10.8172Y-0.9886
X10.8181Y-1.5253
X10.8185Y-4.5971
X10.819Y-0.0797
X10.8191Y-0.5847
X10.8193Y-1.4695
X10.8195Y-1.3357
X10.8196Y-4.5194
X10.8199Y-0.6587
X10.8214Y-4.6625
X10.8214Y-0.5183
X10.8216Y-1.0676
X10.8217Y-0.2542
X10.8227Y-0.1906
X10.824Y-3.8202
X10.8266Y-1.7737
X10.8272Y-2.4051
X10.8273Y-1.1317
X10.8278Y-3.4805
X10.8315Y-1.4048
X10.832Y-0.9221
X10.8323Y-3.0057
X10.85Y-0.4944
X10.8502Y-0.9624
X10.8502Y-4.5653
X10.851Y-0.5526
X10.8511Y-1.0944
X10.8516Y-1.5038
X10.8556Y-1.8027
X10.8571Y-1.0358
X10.8573Y-1.159
X10.8579Y-0.6313
X10.8599Y-1.2262
X10.8617Y-0.1243
X10.8617Y-4.6232
X10.8637Y-0.2232
X10.8645Y-1.5678
X10.8654Y-0.8905
X10.8658Y-3.7838
X10.8835Y-2.2445
X10.8835Y-4.5231
X10.8836Y-3.9226
X10.8845Y-0.2585
X10.8849Y-1.1223
X10.8855Y-2.0416
X10.887Y-1.1985
X10.8872Y-1.7303
X10.8873Y-4.6624
X10.8874Y-0.9992
X10.8888Y-1.5353
X10.8889Y-4.5874
X10.8898Y-3.0113
X10.8901Y-0.5229
X10.8904Y-0.0878
X10.8942Y-1.0654
X10.8953Y-0.1596
X10.8953Y-0.4513
X10.898Y-0.5885
X10.8989Y-0.9327
X10.8996Y-0.654
X10.9174Y-0.6185
X10.9177Y-0.4282
X10.9184Y-3.7508
X10.9187Y-4.5634
X10.919Y-0.5541
X10.9192Y-0.348
X10.9199Y-0.9573
X10.9212Y-1.4721
X10.9216Y-0.1122
X10.9217Y-4.6268
X10.9217Y-0.8929
X10.9221Y-0.4879
X10.9239Y-2.2662
X10.9246Y-1.8282
X10.9256Y-0.1918
X10.9281Y-0.2954
X10.9504Y-4.6615
X10.9516Y-0.3846
X10.9528Y-1.8712
X10.9529Y-0.4546
X10.9534Y-4.5912
X10.9541Y-3.0079
X10.9546Y-4.523
X10.9552Y-0.6506
X10.9569Y-3.7802
X10.957Y-0.5933
X10.9579Y-1.9329
X10.9588Y-2.2323
X10.9603Y-1.499
X10.9606Y-0.3281
X10.9613Y-0.5166
X10.9616Y-0.1524
X10.9621Y-2.3107
X10.9635Y-0.2284
X10.9663Y-1.9979
X10.9667Y-0.9284
X10.9671Y-0.0926
X10.9851Y-1.9647
X10.9863Y-0.1811
X10.9885Y-0.9558
X10.9891Y-3.721
X10.99Y-0.6198
X10.991Y-0.4816
X10.991Y-1.4639
X10.9914Y-0.3582
X10.9924Y-2.3432
X10.9926Y-0.1171
X10.9926Y-0.5509
X10.9939Y-0.416
X10.9943Y-2.2731
X10.9951Y-3.9119
X10.9967Y-1.905
X10.997Y-0.2604
X10.9982Y-4.6266
X10.9989Y-4.5599
X10.9993Y-0.8993
X11.0183Y-0.284
X11.0191Y-3.7523
X11.0194Y-0.1481
X11.0204Y-0.6533
X11.0221Y-0.0859
X11.0225Y-1.5016
X11.0227Y-4.5985
X11.023Y-4.0142
X11.0231Y-2.0028
X11.0238Y-0.2127
X11.0239Y-2.3032
X11.0241Y-0.5164
X11.0244Y-3.9592
X11.0252Y-1.9441
X11.0265Y-2.3656
X11.0265Y-0.9214
X11.027Y-0.5915
X11.0273Y-3.8893
X11.0303Y-0.3961
X11.0319Y-0.4518
X11.0319Y-4.5205
X11.0327Y-2.2025
X11.0334Y-1.8341
X11.0335Y-4.6562
X11.0529Y-1.9674
X11.0536Y-0.8925
X11.0542Y-2.1696
X11.0546Y-2.2387
X11.0547Y-4.4938
X11.0568Y-2.4
X11.0569Y-2.3423
X11.0571Y-1.8733
X11.0572Y-2.0418
X11.0575Y-0.4284
X11.0581Y-0.1938
X11.0587Y-4.6172
X11.0598Y-0.2575
X11.061Y-0.4975
X11.061Y-0.3201
X11.0625Y-3.7104
X11.0626Y-0.9593
X11.0627Y-3.9831
X11.0653Y-3.914
X11.0655Y-0.113
X11.0664Y-2.1081
X11.0667Y-4.5575
X11.0852Y-1.8965
X11.0859Y-2.3653
X11.0894Y-1.2342
X11.0904Y-0.2234
X11.0906Y-3.8599
X11.0909Y-4.0151
X11.0911Y-2.9848
X11.0912Y-3.9506
X11.0923Y-0.1481
X11.0926Y-2.7706
X11.0942Y-2.0025
X11.0951Y-2.2103
X11.0954Y-2.2801
X11.0962Y-0.9289
X11.0971Y-2.1303
X11.0981Y-0.0832
X11.0986Y-1.8278
X11.0993Y-3.3115
X11.1002Y-3.388
X11.1006Y-4.5217
X11.1011Y-2.5383
X11.1015Y-2.0692
X11.1204Y-0.1278
X11.1234Y-2.2987
X11.124Y-3.3412
X11.1249Y-0.1871
X11.125Y-3.9927
X11.1252Y-3.0195
X11.1264Y-2.5796
X11.1272Y-1.9357
X11.1287Y-2.2365
X11.1294Y-2.1052
X11.1313Y-3.8183
X11.1314Y-0.8905
X11.1327Y-2.17
X11.1327Y-0.9577
X11.1333Y-3.2737
X11.1346Y-1.8694
X11.1349Y-2.0352
X11.135Y-2.4996
X11.1351Y-3.8836
X11.1352Y-2.4118
X11.1525Y-0.9895
X11.1526Y-2.778
X11.1527Y-0.4903
X11.1537Y-0.9265
X11.1538Y-1.8278
X11.1541Y-0.1619
X11.1548Y-2.2642
X11.1554Y-2.338
X11.1562Y-2.0677
X11.1576Y-2.1418
X11.1578Y-1.7716
X11.1592Y-2.2072
X11.1596Y-2.5424
X11.16Y-2.6087
X11.16Y-3.38
X11.1617Y-1.9084
X11.1619Y-3.7766
X11.1638Y-1.9757
X11.1643Y-3.8515
X11.1647Y-0.6272
X11.1647Y-2.9709
X11.165Y-1.529
X11.1655Y-2.683
X11.1664Y-0.0886
X11.167Y-3.912
X11.168Y-1.0645
X11.1687Y-0.552
X11.1688Y-3.3072
X11.1863Y-3.3561
X11.1868Y-2.6357
X11.187Y-2.2326
X11.1875Y-3.1458
X11.1878Y-1.8096
X11.1881Y-2.5746
X11.1885Y-1.8647
X11.1896Y-3.9498
X11.1897Y-2.1071
X11.1898Y-2.007
X11.1909Y-0.5883
X11.191Y-1.0277
X11.191Y-3.8183
X11.191Y-1.9378
X11.1913Y-3.2829
X11.1921Y-2.1708
X11.1921Y-0.958
X11.1926Y-2.3728
X11.1934Y-0.8858
X11.1934Y-3.4901
X11.1961Y-0.6577
X11.1982Y-3.8805
X11.1988Y-0.1253
X11.1989Y-2.5034
X11.1993Y-2.31
X11.1996Y-0.5213
X11.2204Y-2.6043
X11.2205Y-1.9674
X11.2221Y-1.9057
X11.2233Y-2.1306
X11.2233Y-0.9962
X11.2238Y-2.1979
X11.2253Y-1.8403
X11.2253Y-2.4092
X11.2268Y-3.922
X11.2269Y-2.2648
X11.2279Y-2.5423
X11.2283Y-2.336
X11.2287Y-0.0891
X11.2295Y-0.4918
X11.2304Y-3.8513
X11.2305Y-0.1529
X11.231Y-2.0293
X11.231Y-3.1201
X11.2315Y-3.3079
X11.2316Y-3.7842
X11.2319Y-0.9234
X11.2319Y-0.5613
X11.2331Y-1.776
X11.2331Y-1.0547
X11.2352Y-0.6284
X11.2535Y-0.8962
X11.2545Y-3.2762
X11.2555Y-0.5848
X11.256Y-0.9676
X11.2563Y-3.812
X11.2563Y-2.3025
X11.2575Y-2.1676
X11.2577Y-3.8932
X11.258Y-3.1531
X11.2586Y-2.2399
X11.2587Y-3.0843
X11.2588Y-1.8712
X11.2589Y-1.932
X11.2612Y-2.5015
X11.2612Y-2.6375
X11.2626Y-0.6531
X11.2627Y-0.1267
X11.2631Y-2.0022
X11.2631Y-2.5793
X11.2633Y-1.5067
X11.264Y-0.5165
X11.2659Y-1.0268
X11.2668Y-2.3699
X11.2678Y-2.0777
X11.2683Y-1.8026
X11.2685Y-3.9501
X11.287Y-1.7688
X11.2873Y-1.6011
X11.291Y-0.1617
X11.2915Y-0.084
X11.2922Y-2.402
X11.2935Y-1.8413
X11.2945Y-4.1177
X11.2951Y-2.5345
X11.2955Y-1.9006
X11.2971Y-4.4266
X11.2974Y-3.051
X11.2977Y-0.9986
X11.2981Y-0.8624
X11.2982Y-2.6019
X11.2985Y-0.9333
X11.2997Y-0.5613
X11.3001Y-4.3634
X11.3004Y-3.3131
X11.3009Y-1.057
X11.3013Y-0.6293
X11.3016Y-1.6686
X11.3023Y-3.1093
X11.303Y-1.5368
X11.3208Y-0.1801
X11.3212Y-1.5644
X11.3219Y-4.4553
X11.322Y-2.5095
X11.3227Y-0.5257
X11.3227Y-3.1396
X11.3251Y-1.491
X11.3251Y-0.8278
X11.3265Y-0.8878
X11.3285Y-3.0857
X11.3289Y-2.5684
X11.3294Y-0.9549
X11.3297Y-1.8636
X11.3297Y-3.2861
X11.3303Y-1.6249
X11.3307Y-1.0969
X11.3315Y-1.8003
X11.3357Y-1.0239
X11.336Y-0.1193
X11.336Y-0.5896
X11.3363Y-4.3845
X11.3365Y-4.1521
X11.354Y-4.4931
X11.3547Y-1.8405
X11.3549Y-0.9273
X11.3561Y-2.5396
X11.3564Y-1.5291
X11.3567Y-2.2365
X11.357Y-0.222
X11.3582Y-0.0828
X11.3594Y-3.8523
X11.3597Y-0.7862
X11.3608Y-4.1894
X11.3618Y-3.9126
X11.363Y-1.1355
X11.3635Y-3.7154
X11.3639Y-3.3146
X11.3639Y-0.9944
X11.365Y-2.1761
X11.365Y-1.7617
X11.3654Y-0.1588
X11.3657Y-0.5527
X11.3668Y-4.4272
X11.3677Y-1.0575
X11.3677Y-3.7838
X11.3685Y-0.8577
X11.3688Y-1.5961
X11.3689Y-0.6206
X11.3702Y-3.1073
X11.3885Y-3.7431
X11.3887Y-0.5166
X11.3888Y-2.271
X11.3889Y-1.0975
X11.389Y-3.2738
X11.3891Y-3.824
X11.3904Y-3.5193
X11.3913Y-4.1543
X11.3916Y-1.5617
X11.3928Y-3.1412
X11.3929Y-2.7147
X11.3945Y-2.2131
X11.3953Y-0.9607
X11.3958Y-0.8907
X11.3975Y-1.5026
X11.3989Y-3.8929
X11.3994Y-0.5835
X11.3997Y-1.7998
X11.3997Y-3.9479
X11.4009Y-1.0208
X11.4013Y-0.8235
X11.4217Y-0.9238
X11.4221Y-0.7581
X11.4234Y-0.5513
X11.4239Y-3.1135
X11.424Y-0.8612
X11.424Y-3.7103
X11.4254Y-2.2389
X11.4259Y-3.8511
X11.426Y-1.1369
X11.4274Y-3.9813
X11.4294Y-3.3832
X11.4314Y-3.9116
X11.4326Y-1.7349
X11.4338Y-1.0675
X11.4342Y-3.3118
X11.4343Y-1.5256
X11.4364Y-3.7792
X11.4364Y-3.4538
X11.4372Y-1.001
X11.4556Y-3.743
X11.456Y-3.1449
X11.4575Y-1.1026
X11.4589Y-0.7939
X11.4605Y-3.822
X11.4614Y-0.8861
X11.462Y-1.0313
X11.4635Y-3.287
X11.4652Y-2.4061
X11.4654Y-1.702
X11.4662Y-3.4743
X11.4662Y-3.4134
X11.4666Y-3.9479
X11.4681Y-3.3467
X11.4682Y-1.2293
X11.4686Y-3.8907
X11.4689Y-0.9612
X11.4913Y-3.4475
X11.4915Y-0.7575
X11.4923Y-2.3683
X11.4925Y-3.7831
X11.4925Y-3.72
X11.4937Y-1.0667
X11.4937Y-1.1346
X11.4938Y-2.4352
X11.4942Y-3.3106
X11.4947Y-3.1062
X11.4978Y-3.381
X11.4989Y-3.516
X11.4993Y-0.8214
X11.4996Y-1.8687
X11.5006Y-0.9206
X11.5012Y-0.998
X11.5034Y-1.66
X11.5234Y-3.1488
X11.5239Y-2.7785
X11.5243Y-4.5222
X11.5244Y-0.7947
X11.5248Y-2.4129
X11.5255Y-3.4764
X11.5255Y-1.0291
X11.526Y-0.9556
X11.5263Y-3.4173
X11.5273Y-0.5635
X11.5288Y-1.8424
X11.5303Y-3.3518
X11.5317Y-3.2838
X11.5324Y-1.6398
X11.5331Y-0.6243
X11.534Y-0.8562
X11.5355Y-3.5443
X11.5357Y-1.9089
X11.5365Y-2.3463
X11.5384Y-0.4861
X11.5571Y-0.6518
X11.5572Y-3.08
X11.5573Y-3.4547
X11.5581Y-3.5224
X11.5616Y-0.2627
X11.562Y-1.8616
X11.5662Y-2.5447
X11.5669Y-3.3166
X11.5695Y-2.3105
X11.5706Y-3.3756
X11.5709Y-0.5299
X11.5718Y-0.0849
X11.5719Y-0.5986
X11.5723Y-2.3788
X11.5899Y-3.7783
X11.5913Y-1.8994
X11.5914Y-4.1187
X11.5923Y-4.49
X11.5927Y-0.1897
X11.5933Y-4.351
X11.5935Y-0.491
X11.5943Y-0.624
X11.5944Y-3.0437
X11.5948Y-3.7195
X11.5951Y-3.4883
X11.5967Y-2.9715
X11.5967Y-2.3326
X11.5976Y-0.1176
X11.5977Y-2.5722
X11.5986Y-2.5014
X11.5994Y-1.8337
X11.5998Y-3.1072
X11.6016Y-2.2802
X11.6023Y-4.4306
X11.6042Y-0.5516
X11.6241Y-0.2239
X11.625Y-2.4696
X11.6251Y-1.8641
X11.6257Y-3.7569
X11.6257Y-2.2996
X11.6257Y-3.0042
X11.6266Y-0.0783
X11.6272Y-4.3823
X11.6278Y-1.9377
X11.628Y-2.5332
X11.628Y-0.2821
X11.6325Y-0.5947
X11.6332Y-3.0806
X11.6341Y-4.1561
X11.6347Y-2.6831
X11.6349Y-0.15
X11.6367Y-4.5327
X11.6367Y-2.6156
X11.6371Y-4.4602
X11.6379Y-0.5287
X11.6571Y-2.634
X11.6575Y-0.556
X11.6578Y-0.7987
X11.6583Y-1.0664
X11.6596Y-0.8641
X11.6598Y-0.1918
X11.6605Y-2.7016
X11.6615Y-1.9767
X11.6617Y-0.3143
X11.6621Y-0.1158
X11.6632Y-0.4585
X11.6642Y-0.9205
X11.6649Y-0.2608
X11.665Y-4.5627
X11.6653Y-4.4199
X11.6658Y-2.331
X11.6667Y-3.788
X11.6673Y-2.2755
X11.6675Y-4.1876
X11.6676Y-4.1181
X11.668Y-0.3886
X11.6681Y-0.9896
X11.6689Y-4.4939
X11.6694Y-3.7118
X11.6699Y-4.6195
X11.6711Y-1.899
X11.6721Y-2.9718
X11.6732Y-3.0454
X11.6908Y-4.1552
X11.691Y-0.2138
X11.691Y-2.8723
X11.6916Y-3.0042
X11.6924Y-0.0926
X11.6928Y-2.939
X11.6933Y-4.5982
X11.694Y-0.2848
X11.6941Y-1.0988
X11.6956Y-0.1608
X11.6969Y-0.3609
X11.697Y-4.527
X11.6975Y-0.4883
X11.6988Y-1.0298
X11.6999Y-4.2248
X11.7005Y-4.4656
X11.7011Y-4.83
X11.7019Y-0.9659
X11.7021Y-3.2177
X11.7027Y-2.8138
X11.7034Y-0.8992
X11.7042Y-4.7309
X11.7043Y-4.6523
X11.7059Y-0.8213
X11.7059Y-0.7533
X11.7061Y-0.4268
X11.7066Y-3.7593
X11.724Y-2.9074
X11.7245Y-3.7142
X11.7245Y-2.8359
X11.7253Y-4.5636
X11.7264Y-0.5236
X11.7273Y-4.1204
X11.7293Y-3.1798
X11.7303Y-4.1864
X11.7311Y-4.6989
X11.7316Y-0.7905
X11.7321Y-0.1251
X11.7325Y-0.3931
X11.7336Y-4.4987
X11.7339Y-1.136
X11.7342Y-0.3151
X11.7351Y-0.8551
X11.7358Y-3.7828
X11.7365Y-1.0573
X11.7368Y-2.9713
X11.7376Y-0.2565
X11.738Y-0.1906
X11.7383Y-4.6251
X11.7389Y-0.9312
X11.7396Y-0.462
X11.7396Y-0.9982
X11.7576Y-0.0921
X11.7579Y-1.6267
X11.7583Y-2.9447
X11.7585Y-0.3481
X11.7587Y-4.8259
X11.7593Y-2.8054
X11.7605Y-1.0922
X11.7614Y-0.4899
X11.7622Y-1.0254
X11.7625Y-0.151
X11.7627Y-0.8856
X11.763Y-3.8164
X11.7649Y-0.76
X11.7675Y-0.292
X11.7681Y-4.1563
X11.7684Y-4.5215
X11.7692Y-0.2152
X11.7692Y-0.4242
X11.7695Y-2.8736
X11.7695Y-1.7595
X11.7699Y-0.8244
X11.7709Y-0.9662
X11.7718Y-4.2138
X11.7726Y-3.7541
X11.7729Y-1.1707
X11.793Y-4.1135
X11.7937Y-1.7979
X11.7953Y-0.319
X11.7956Y-0.7922
X11.7971Y-4.1946
X11.7972Y-2.8367
X11.7973Y-0.4511
X11.7978Y-0.3884
X11.7979Y-4.3561
X11.7984Y-4.4852
X11.8001Y-0.2601
X11.8003Y-1.0657
X11.8007Y-2.9122
X11.801Y-0.6198
X11.8014Y-1.6624
X11.8017Y-0.9996
X11.8021Y-0.1891
X11.8022Y-3.7919
X11.8059Y-3.4141
X11.806Y-0.8576
X11.8064Y-0.1159
X11.8072Y-0.93
X11.8287Y-3.8856
X11.8295Y-2.8699
X11.8302Y-0.5989
X11.8306Y-0.2159
X11.8309Y-3.3396
X11.8312Y-0.6643
X11.8316Y-0.2939
X11.8326Y-3.4543
X11.8327Y-3.952
X11.8327Y-0.4255
X11.8329Y-0.9639
X11.8331Y-0.8899
X11.8332Y-0.7531
X11.8341Y-4.2283
X11.8343Y-0.3581
X11.8367Y-0.1541
X11.8373Y-0.8192
X11.8376Y-4.821
X11.8386Y-0.0886
X11.8401Y-3.8156
X11.8401Y-2.8042
X11.8406Y-1.0283
X11.8585Y-0.1227
X11.8586Y-1.8362
X11.8589Y-4.3536
X11.8591Y-4.719
X11.8594Y-0.3185
X11.86Y-3.4834
X11.8601Y-0.1869
X11.8608Y-3.0467
X11.861Y-0.9348
X11.8637Y-0.9992
X11.8658Y-0.6219
X11.8665Y-0.5507
X11.8665Y-2.24
X11.8685Y-0.8673
X11.8722Y-3.3807
X11.8726Y-0.397
X11.8731Y-3.7889
X11.8735Y-0.7858
X11.8742Y-2.8499
X11.8749Y-0.2539
X11.8921Y-0.7638
X11.8938Y-0.1617
X11.8944Y-4.8278
X11.8954Y-0.5961
X11.8958Y-0.3519
X11.8963Y-0.8241
X11.8978Y-1.8602
X11.8986Y-3.0061
X11.9014Y-4.2271
X11.9049Y-0.518
X11.9057Y-0.0817
X11.9071Y-0.228
X11.9073Y-0.9538
X11.9076Y-1.9372
X11.9078Y-0.6661
X11.9079Y-0.2846
X11.9083Y-0.8932
X11.9086Y-2.7804
X11.9264Y-0.5586
X11.9275Y-0.1146
X11.9285Y-0.321
X11.9295Y-2.974
X11.9298Y-0.7885
X11.9311Y-2.745
X11.9327Y-0.9341
X11.9336Y-0.8663
X11.9341Y-2.2396
X11.9354Y-2.4783
X11.9354Y-1.9014
X11.9358Y-4.3624
X11.9371Y-0.4822
X11.9372Y-1.9661
X11.9376Y-0.2514
X11.9402Y-4.7288
X11.9409Y-0.1823
X11.9418Y-3.0481
X11.942Y-0.618
X11.9421Y-2.809
X11.9598Y-4.1814
X11.9602Y-0.527
X11.9603Y-0.5985
X11.9605Y-0.96
X11.9607Y-1.8275
X11.9639Y-0.6534
X11.9639Y-0.7631
X11.9642Y-2.7007
X11.9656Y-2.7691
X11.9656Y-0.2961
X11.9657Y-4.116
X11.966Y-1.5668
X11.968Y-4.8231
X11.9682Y-0.8912
X11.969Y-0.8256
X11.97Y-0.4605
X11.9706Y-0.0825
X11.9709Y-0.2244
X11.9735Y-3.9841
X11.9737Y-3.0851
X11.974Y-0.1604
X11.9754Y-1.2259
X11.9934Y-1.4699
X11.9952Y-0.2528
X11.9971Y-3.2831
X11.9971Y-4.0279
X11.9972Y-0.9296
X11.9976Y-0.4203
X11.9989Y-4.1554
X12.0Y-0.4817
X12.0005Y-0.1194
X12.0011Y-4.3537
X12.0012Y-4.7295
X12.0013Y-0.865
X12.0028Y-1.8697
X12.0033Y-4.2232
X12.0037Y-0.6178
X12.0044Y-3.1101
X12.0068Y-2.736
X12.0072Y-0.1931
X12.0084Y-0.5582
X12.0095Y-0.7906
X12.0263Y-0.7587
X12.0264Y-3.1545
X12.0267Y-1.3936
X12.0271Y-0.8191
X12.0274Y-0.3842
X12.0274Y-1.5607
X12.0277Y-1.3311
X12.0286Y-2.3092
X12.0311Y-0.969
X12.0314Y-2.2456
X12.032Y-2.1748
X12.0321Y-4.1235
X12.0323Y-2.3763
X12.0342Y-0.1472
X12.0351Y-1.9102
X12.0353Y-2.7046
X12.0356Y-3.2167
X12.0357Y-0.6594
X12.0358Y-1.2299
X12.036Y-1.8324
X12.037Y-0.5972
X12.0373Y-0.0874
X12.0373Y-0.2184
X12.0389Y-2.438
X12.039Y-4.1839
X12.0393Y-0.4494
X12.0401Y-4.8328
X12.0414Y-0.5214
X12.0428Y-0.8988
X12.0428Y-2.7741
X12.0605Y-1.194
X12.0614Y-1.8721
X12.0624Y-2.7369
X12.0639Y-0.8596
X12.0652Y-4.151
X12.0658Y-1.4287
X12.0659Y-2.2789
X12.0661Y-3.1807
X12.0666Y-4.0144
X12.0667Y-2.337
X12.0669Y-0.7888
X12.0678Y-0.9977
X12.068Y-2.4032
X12.068Y-3.2461
X12.0686Y-0.9214
X12.0686Y-0.1274
X12.0686Y-2.466
X12.0686Y-3.1163
X12.0721Y-1.356
X12.0738Y-2.1972
X12.0742Y-0.1927
X12.094Y-1.574
X12.0962Y-1.6318
X12.0963Y-0.8891
X12.0969Y-3.153
X12.097Y-2.5058
X12.0971Y-1.8359
X12.0974Y-1.328
X12.0976Y-1.0902
X12.0979Y-1.397
X12.0995Y-3.7169
X12.0997Y-1.9028
X12.0998Y-2.5763
X12.1Y-1.6928
X12.1001Y-2.3787
X12.1002Y-2.3111
X12.1005Y-0.9607
X12.1009Y-3.2214
X12.101Y-2.4411
X12.1012Y-1.1678
X12.1016Y-2.2337
X12.1025Y-4.8338
X12.1029Y-0.1523
X12.1029Y-3.3789
X12.1053Y-1.035
X12.1062Y-1.2329
X12.1063Y-4.1217
X12.1068Y-0.8201
X12.1068Y-0.0847
X12.1078Y-1.4667
X12.1084Y-3.4499
X12.1087Y-2.7717
X12.1103Y-2.1641
X12.128Y-3.1857
X12.1289Y-3.0769
X12.1301Y-2.3983
X12.1306Y-3.4229
X12.1306Y-0.8674
X12.1313Y-2.4733
X12.1324Y-1.6634
X12.1328Y-0.1242
X12.1328Y-0.9276
X12.1338Y-2.1964
X12.134Y-1.2036
X12.134Y-1.001
X12.1341Y-1.126
X12.1343Y-2.2691
X12.1371Y-1.4292
X12.1384Y-2.538
X12.1397Y-1.7351
X12.1402Y-2.1416
X12.1404Y-1.3631
X12.1408Y-3.4828
X12.1408Y-1.5936
X12.1411Y-1.059
X12.1413Y-1.8655
X12.1414Y-0.788
X12.1416Y-2.3392
X12.1423Y-4.1622
X12.1425Y-2.6023
X12.1433Y-3.3405
X12.1438Y-4.0209
X12.162Y-0.0894
X12.1627Y-1.8381
X12.163Y-1.706
X12.1633Y-2.443
X12.1636Y-3.3166
X12.1639Y-1.0897
X12.1641Y-2.3022
X12.1641Y-1.9086
X12.1652Y-1.3352
X12.1652Y-2.1758
X12.1658Y-0.6306
X12.1658Y-3.4545
X12.1659Y-0.9676
X12.166Y-2.6498
X12.1669Y-2.5818
X12.167Y-0.9017
X12.1677Y-1.394
X12.1679Y-4.1175
X12.1689Y-1.5592
X12.1698Y-2.3695
X12.1707Y-0.8304
X12.1709Y-1.6371
X12.1724Y-1.0233
X12.1729Y-3.3893
X12.1732Y-0.7617
X12.1739Y-2.2461
X12.1741Y-1.9692
X12.1745Y-1.1589
X12.1747Y-4.1933
X12.1753Y-3.5169
X12.1756Y-0.4956
X12.1758Y-1.4613
X12.1758Y-0.5634
X12.1761Y-2.1019
X12.1766Y-1.2327
X12.1769Y-2.5091
X12.1947Y-2.6006
X12.195Y-2.14
X12.1954Y-1.3689
X12.1963Y-0.7935
X12.1967Y-1.6067
X12.1967Y-1.1246
X12.1975Y-2.533
X12.1977Y-1.7378
X12.1978Y-1.1897
X12.1981Y-0.127
X12.1984Y-4.022
X12.1987Y-1.0018
X12.1988Y-0.5229
X12.1993Y-2.3441
X12.1994Y-2.2026
X12.2012Y-3.3552
X12.2014Y-3.2747
X12.202Y-2.6807
X12.2025Y-1.4243
X12.2036Y-1.6689
X12.2038Y-1.0564
X12.2039Y-2.0679
X12.2042Y-1.9369
X12.2043Y-4.2261
X12.2046Y-0.59
X12.2047Y-1.863
X12.2051Y-3.5551
X12.2055Y-2.0067
X12.2059Y-2.4128
X12.2069Y-3.4902
X12.2077Y-0.8681
X12.2081Y-3.4153
X12.2085Y-4.1486
X12.2105Y-0.9309
X12.2105Y-0.6618
X12.2106Y-2.2744
X12.2111Y-2.4782
X12.2289Y-2.0322
X12.2293Y-2.24
X12.2299Y-2.5017
X12.2299Y-0.6213
X12.2299Y-2.5713
X12.2308Y-3.253
X12.231Y-0.0916
X12.2314Y-1.5582
X12.2314Y-0.7563
X12.2315Y-1.7038
X12.2317Y-1.0942
X12.2321Y-1.8284
X12.2322Y-3.3078
X12.2323Y-1.4601
X12.2325Y-0.5578
X12.2327Y-4.1916
X12.2332Y-2.7166
X12.2337Y-2.6407
X12.2337Y-2.442
X12.234Y-1.9737
X12.2342Y-2.3791
X12.235Y-0.8878
X12.235Y-0.9596
X12.2353Y-1.4051
X12.2357Y-3.9898
X12.236Y-1.9093
X12.2362Y-2.1636
X12.2379Y-0.8286
X12.2386Y-3.5172
X12.2398Y-1.3348
X12.2413Y-0.4969
X12.2415Y-1.0321
X12.2419Y-2.3129
X12.2419Y-4.1205
X12.2422Y-3.447
X12.2423Y-1.6274
X12.2435Y-2.0994
X12.2435Y-1.1628
X12.2442Y-3.3848
X12.2449Y-1.2302
X12.262Y-0.5934
X12.2622Y-3.1068
X12.2623Y-1.3564
X12.2623Y-2.74
X12.2625Y-2.4764
X12.2632Y-2.9185
X12.2638Y-2.9863
X12.2641Y-2.6119
X12.2644Y-0.6643
X12.2645Y-0.1228
X12.2647Y-1.1914
X12.265Y-4.1567
X12.2657Y-3.4779
X12.2658Y-1.1303
X12.2662Y-3.3493
X12.2662Y-3.4142
X12.2669Y-3.0526
X12.2669Y-3.1761
X12.2671Y-0.8588
X12.2679Y-2.2008
X12.2689Y-0.7945
X12.2689Y-1.4274
X12.2691Y-2.0786
X12.2691Y-0.5244
X12.2704Y-2.2799
X12.2711Y-4.2191
X12.2715Y-1.5991
X12.2715Y-1.6752
X12.2731Y-4.0143
X12.2732Y-2.1451
X12.2747Y-2.5382
X12.2749Y-3.5496
X12.275Y-3.2771
X12.2755Y-2.3337
X12.276Y-2.0044
X12.2761Y-2.6724
X12.2761Y-1.9292
X12.2772Y-2.4054
X12.2774Y-1.8666
X12.2958Y-1.4603
X12.2961Y-4.1924
X12.2964Y-0.0852
X12.2975Y-1.4016
X12.2978Y-3.9869
X12.2983Y-4.7309
X12.2989Y-0.8917
X12.3028Y-1.3223
X12.3049Y-4.8323
X12.306Y-1.164
X12.3063Y-1.2338
X12.3077Y-4.1231
X12.308Y-0.6236
X12.3082Y-0.5496
X12.3096Y-0.8262
X12.3117Y-0.7665
X12.3121Y-4.5195
X12.3292Y-0.2164
X12.3302Y-1.3637
X12.3304Y-4.2263
X12.3305Y-4.3604
X12.3306Y-0.5195
X12.3307Y-4.4254
X12.3318Y-4.4931
X12.3319Y-4.1557
X12.3337Y-1.2037
X12.3344Y-1.4316
X12.3356Y-0.1212
X12.3359Y-1.1291
X12.3389Y-0.8597
X12.3389Y-0.8
X12.3407Y-0.6533
X12.3417Y-4.8671
X12.3445Y-0.5901
X12.3448Y-4.0146
X12.3635Y-0.825
X12.3636Y-2.769
X12.3641Y-3.518
X12.3646Y-4.1244
X12.365Y-4.5192
X12.3655Y-2.4349
X12.3659Y-4.835
X12.3665Y-3.1856
X12.3672Y-0.7597
X12.3682Y-2.033
X12.3683Y-0.5634
X12.3683Y-2.5139
X12.3684Y-1.6941
X12.3705Y-1.8272
X12.3705Y-0.6192
X12.3709Y-1.3924
X12.3718Y-4.3872
X12.3718Y-3.9833
X12.3719Y-2.7125
X12.3726Y-1.6278
X12.3734Y-3.1042
X12.3734Y-2.308
X12.3735Y-4.191
X12.3735Y-2.1013
X12.3739Y-3.0443
X12.3742Y-0.0947
X12.3745Y-3.3094
X12.3751Y-2.9849
X12.3751Y-2.5726
X12.3757Y-2.2352
X12.3757Y-2.1776
X12.3761Y-0.9001
X12.3762Y-2.9125
X12.3767Y-3.5895
X12.3768Y-4.4537
X12.3778Y-2.3727
X12.378Y-3.3764
X12.3781Y-3.2531
X12.3782Y-2.6356
X12.3782Y-3.4549
X12.3789Y-1.9701
X12.3793Y-1.9032
X12.3982Y-3.553
X12.3984Y-4.4278
X12.3986Y-2.2757
X12.3986Y-2.402
X12.3988Y-1.9342
X12.3994Y-4.3508
X12.3994Y-1.8714
X12.3994Y-4.4962
X12.3995Y-4.0207
X12.4001Y-0.6567
X12.4001Y-3.9474
X12.4001Y-0.8631
X12.4004Y-0.7952
X12.401Y-2.1416
X12.4011Y-2.4775
X12.4012Y-4.2166
X12.4015Y-3.4838
X12.4027Y-2.3475
X12.4031Y-4.5662
X12.4033Y-2.6705
X12.4036Y-2.9503
X12.4037Y-2.6007
X12.4039Y-3.1405
X12.4043Y-3.2809
X12.4056Y-2.7355
X12.4062Y-2.2088
X12.4064Y-4.1569
X12.4077Y-2.0691
X12.4084Y-0.5989
X12.4093Y-1.7301
X12.4098Y-3.0087
X12.4098Y-3.083
X12.4099Y-3.6201
X12.4105Y-0.5275
X12.4109Y-3.4113
X12.4115Y-3.3437
X12.4116Y-1.6637
X12.4117Y-2.5491
X12.4118Y-3.2082
X12.4122Y-1.995
X12.4122Y-1.5914
X12.4301Y-2.5084
X12.431Y-0.6169
X12.4314Y-4.183
X12.4316Y-2.5698
X12.432Y-2.646
X12.4325Y-2.3663
X12.4327Y-2.4455
X12.4333Y-2.7721
X12.4339Y-2.1695
X12.4342Y-1.6275
X12.4343Y-0.5494
X12.4345Y-0.7612
X12.4351Y-0.8213
X12.4354Y-3.1796
X12.4362Y-2.309
X12.4365Y-2.2333
X12.4391Y-1.6994
X12.44Y-3.5085
X12.4407Y-4.599
X12.4418Y-3.3129
X12.4424Y-1.8325
X12.4426Y-3.6444
X12.4437Y-0.8944
X12.4437Y-2.7014
X12.4438Y-3.5799
X12.444Y-4.3826
X12.4441Y-3.107
X12.4443Y-4.4548
X12.4445Y-3.3839
X12.4452Y-1.9071
X12.4458Y-3.4479
X12.4458Y-3.254
X12.446Y-4.531
X12.4641Y-4.485
X12.4647Y-3.1384
X12.4655Y-2.6717
X12.466Y-0.597
X12.4664Y-4.5519
X12.4665Y-2.54
X12.4667Y-2.2033
X12.4674Y-3.4816
X12.4676Y-3.6879
X12.4687Y-2.7482
X12.4687Y-2.6071
X12.4703Y-1.5643
X12.4704Y-3.5536
X12.4704Y-2.336
X12.4704Y-0.9305
X12.4706Y-1.8705
X12.4719Y-3.625
X12.4722Y-0.8578
X12.473Y-4.6182
X12.4738Y-0.6599
X12.4739Y-3.2857
X12.474Y-0.7944
X12.474Y-3.3464
X12.4741Y-2.471
X12.4746Y-4.2233
X12.4747Y-3.4096
X12.4747Y-1.7411
X12.4762Y-2.4128
X12.4766Y-4.3573
X12.4778Y-0.4906
X12.478Y-1.6752
X12.4781Y-2.2801
X12.4784Y-4.4197
X12.479Y-3.2149
X12.4975Y-3.3143
X12.4982Y-0.6225
X12.4983Y-3.119
X12.4994Y-1.8375
X12.4994Y-0.2821
X12.5014Y-3.3884
X12.5014Y-0.8986
X12.5019Y-2.4474
X12.5022Y-4.4624
X12.503Y-2.7136
X12.5036Y-2.5019
X12.504Y-0.7605
X12.5045Y-4.695
X12.5051Y-0.4517
X12.5057Y-1.6062
X12.5063Y-3.7105
X12.507Y-2.5713
X12.5072Y-3.2405
X12.5081Y-3.6499
X12.5082Y-1.4273
X12.5086Y-3.5185
X12.5093Y-2.6453
X12.5095Y-3.179
X12.5096Y-4.5309
X12.51Y-0.5307
X12.51Y-1.699
X12.5103Y-2.3105
X12.5107Y-4.8304
X12.5109Y-2.3787
X12.5116Y-2.2429
X12.5117Y-2.176
X12.5118Y-1.3599
X12.5121Y-3.4541
X12.5123Y-0.8179
X12.5128Y-3.5826
X12.5133Y-4.3984
X12.5137Y-2.7811
X12.5312Y-2.4087
X12.5313Y-4.5523
X12.5317Y-1.3381
X12.5318Y-3.2159
X12.5329Y-3.5512
X12.533Y-1.7335
X12.534Y-2.3432
X12.5353Y-2.6733
X12.5353Y-1.5677
X12.5354Y-2.2803
X12.5356Y-4.3612
X12.5374Y-0.5623
X12.5374Y-2.4673
X12.5383Y-0.9341
X12.5395Y-3.3504
X12.54Y-0.8677
X12.5402Y-1.6266
X12.541Y-4.8557
X12.5411Y-3.4749
X12.5416Y-3.1476
X12.5416Y-4.4317
X12.5417Y-0.4865
X12.5423Y-3.6184
X12.543Y-3.2785
X12.5431Y-2.5397
X12.5443Y-2.6147
X12.5448Y-1.3897
X12.5448Y-4.4971
X12.5449Y-2.7367
X12.5453Y-0.6573
X12.5455Y-3.6902
X12.5459Y-0.7999
X12.546Y-3.7437
X12.5461Y-2.2016
X12.5463Y-3.4204
X12.5464Y-1.4704
X12.5472Y-1.8641
X12.5643Y-2.5677
X12.565Y-2.5029
X12.5652Y-0.8338
X12.5656Y-4.4594
X12.5671Y-0.7543
X12.5677Y-2.4411
X12.5681Y-0.2629
X12.5683Y-1.8355
X12.5687Y-2.3662
X12.569Y-1.4385
X12.5692Y-4.3863
X12.5701Y-0.5307
X12.5709Y-0.9019
X12.5733Y-0.0851
X12.5743Y-2.2442
X12.5746Y-1.3647
X12.5773Y-4.5207
X12.578Y-0.5839
X12.5783Y-4.8281
X12.5787Y-1.6001
X12.5789Y-1.6597
X12.579Y-2.1705
X12.5797Y-2.308
X12.598Y-1.4571
X12.5986Y-4.4276
X12.5994Y-1.4048
X12.5995Y-0.8609
X12.6016Y-1.8605
X12.6017Y-2.2678
X12.6021Y-0.4816
X12.6024Y-1.5655
X12.6036Y-1.33
X12.6038Y-1.6368
X12.6052Y-4.4991
X12.6052Y-4.3618
X12.6056Y-2.2016
X12.6061Y-0.1177
X12.6079Y-0.1872
X12.6081Y-0.6241
X12.6081Y-4.8547
X12.6091Y-1.7052
X12.6114Y-0.5599
X12.6118Y-2.5435
X12.6127Y-0.7954
X12.6133Y-2.6138
X12.6323Y-1.2885
X12.6326Y-1.8341
X12.6332Y-0.8933
X12.6355Y-3.6791
X12.6356Y-2.5755
X12.6357Y-0.7668
X12.6375Y-0.8297
X12.6377Y-3.34
X12.639Y-4.7317
X12.6391Y-0.6585
X12.6392Y-0.2205
X12.6401Y-1.6056
X12.6402Y-1.906
X12.6402Y-0.4497
X12.6408Y-2.242
X12.6423Y-0.5292
X12.6424Y-1.7409
X12.6429Y-1.4386
X12.6432Y-3.5427
X12.6435Y-0.2896
X12.6437Y-3.4155
X12.6439Y-0.5943
X12.6445Y-1.6633
X12.6445Y-4.3924
X12.6453Y-1.368
X12.6455Y-3.4775
X12.6463Y-0.0784
X12.6472Y-0.1618
X12.6473Y-3.613
X12.6473Y-3.288
X12.6475Y-4.831
X12.6475Y-2.5084
X12.6662Y-3.2152
X12.6663Y-2.6098
X12.6674Y-3.3195
X12.6675Y-0.2607
X12.6693Y-1.3278
X12.6697Y-0.8602
X12.6714Y-1.4058
X12.6719Y-3.3761
X12.6723Y-1.6319
X12.6723Y-2.5474
X12.6727Y-1.4718
X12.6732Y-1.703
X12.6733Y-0.4957
X12.6735Y-0.1797
X12.6747Y-0.7895
X12.6749Y-0.3283
X12.6758Y-3.4418
X12.6762Y-0.1146
X12.6767Y-1.8685
X12.6768Y-4.3152
X12.6775Y-3.5812
X12.6776Y-0.5619
X12.6778Y-3.1383
X12.6787Y-3.5169
X12.679Y-3.6446
X12.6793Y-0.3832
X12.6795Y-2.2653
X12.6797Y-4.8538
X12.6808Y-4.4278
X12.6815Y-0.631
X12.6817Y-1.2281
X12.6818Y-1.5588
X12.6989Y-0.5227
X12.6995Y-0.834
X12.7004Y-0.2136
X12.7005Y-1.4248
X12.701Y-2.2446
X12.7013Y-4.2855
X12.7018Y-0.36
X12.7025Y-1.894
X12.7026Y-3.422
X12.703Y-4.7187
X12.7047Y-3.1073
X12.7048Y-0.286
X12.7052Y-1.5939
X12.7055Y-3.1865
X12.7057Y-2.5047
X12.7057Y-4.3563
X12.7075Y-0.8994
X12.7081Y-0.1595
X12.7092Y-0.4147
X12.7092Y-1.8361
X12.7095Y-1.7296
X12.7105Y-0.6662
X12.7107Y-4.8285
X12.7114Y-1.1877
X12.7115Y-3.6229
X12.7117Y-3.5538
X12.7118Y-1.2629
X12.7121Y-1.361
X12.7127Y-3.478
X12.7137Y-3.2537
X12.7148Y-3.3433
X12.7148Y-0.758
X12.7152Y-1.6655
X12.7155Y-0.5942
X12.7155Y-0.0823
X12.733Y-0.8602
X12.7336Y-4.8582
X12.7344Y-1.2244
X12.7345Y-0.7919
X12.7348Y-1.8687
X12.7349Y-0.1285
X12.7349Y-0.452
X12.7366Y-1.6939
X12.7368Y-3.3853
X12.737Y-1.2912
X12.738Y-1.5643
X12.7394Y-0.3834
X12.7398Y-3.2768
X12.7399Y-3.1474
X12.74Y-1.1612
X12.7404Y-0.3266
X12.7406Y-3.4413
X12.7426Y-0.2479
X12.743Y-0.1822
X12.7435Y-3.5099
X12.7441Y-3.5855
X12.7444Y-4.3821
X12.7447Y-0.5592
X12.7458Y-4.3197
X12.7462Y-1.6341
X12.7465Y-0.6244
X12.7475Y-2.2737
X12.7475Y-1.4024
X12.7482Y-1.4732
X12.7489Y-3.2144
X12.7662Y-0.3535
X12.7662Y-2.2998
X12.7666Y-1.6657
X12.7677Y-0.7579
X12.7685Y-0.1526
X12.7687Y-4.4279
X12.7687Y-1.4292
X12.7689Y-3.2519
X12.769Y-0.0883
X12.7701Y-3.4905
X12.7709Y-4.8353
X12.771Y-1.269
X12.7711Y-3.1876
X12.7717Y-0.9582
X12.7719Y-1.9105
X12.7724Y-0.2871
X12.7727Y-3.5461
X12.7742Y-3.3219
X12.7743Y-0.4835
X12.7748Y-0.5844
X12.7752Y-0.6525
X12.7757Y-1.1302
X12.7758Y-0.8283
X12.7761Y-2.2389
X12.7767Y-0.901
X12.7772Y-3.9883
X12.7781Y-3.4092
X12.7782Y-1.1986
X12.7791Y-1.3357
X12.7794Y-1.7382
X12.7794Y-1.5938
X12.7794Y-1.8306
X12.7799Y-0.4166
X12.7802Y-4.3492
X12.7817Y-0.2171
X12.7997Y-0.3924
X12.8007Y-0.4543
X12.8009Y-1.1555
X12.8028Y-1.8626
X12.8041Y-0.9308
X12.8041Y-0.1872
X12.8069Y-3.4456
X12.8075Y-0.2535
X12.8075Y-1.6259
X12.8077Y-1.6948
X12.808Y-1.2296
X12.8089Y-0.8567
X12.8093Y-3.2117
X12.8093Y-1.5734
X12.8098Y-4.0281
X12.8105Y-4.8567
X12.8106Y-0.7871
X12.8125Y-0.5294
X12.8126Y-0.1228
X12.8128Y-3.3504
X12.8131Y-3.2755
X12.814Y-0.3202
X12.8144Y-4.3848
X12.8154Y-3.5078
X12.8337Y-4.4284
X12.8347Y-0.2192
X12.8356Y-4.8253
X12.8364Y-1.5999
X12.8365Y-3.2469
X12.8376Y-1.6664
X12.8378Y-1.8286
X12.8385Y-0.8335
X12.839Y-4.0568
X12.8405Y-1.7352
X12.841Y-3.4788
X12.843Y-1.5244
X12.8432Y-1.8995
X12.8433Y-3.3814
X12.8451Y-3.7187
X12.8456Y-0.0898
X12.8458Y-0.8889
X12.8484Y-3.3167
X12.8494Y-0.1575
X12.8674Y-0.1275
X12.8686Y-1.572
X12.8693Y-1.8748
X12.8701Y-3.2857
X12.8705Y-0.8573
X12.8713Y-3.347
X12.8725Y-0.1796
X12.8728Y-4.1614
X12.8755Y-4.2233
X12.8766Y-4.8648
X12.8779Y-1.7036
X12.8783Y-0.7857
X12.8789Y-3.4162
X12.88Y-4.0851
X12.8803Y-4.4986
X12.8819Y-4.0148
X12.8835Y-1.6261
X12.9009Y-0.8284
X12.9028Y-1.2284
X12.9036Y-4.2475
X12.9038Y-1.5267
X12.9042Y-0.5633
X12.9045Y-4.1936
X12.9045Y-0.4885
X12.9056Y-3.3122
X12.9076Y-4.8344
X12.9077Y-3.3824
X12.9079Y-0.6213
X12.9088Y-4.0462
X12.9103Y-1.7301
X12.9104Y-1.2908
X12.9105Y-1.3572
X12.9108Y-1.6726
X12.9127Y-0.0937
X12.9129Y-4.1216
X12.9136Y-0.1464
X12.9138Y-3.12
X12.9151Y-0.7612
X12.9156Y-1.6003
X12.9351Y-1.563
X12.9362Y-4.2179
X12.9378Y-1.6927
X12.938Y-0.5903
X12.9387Y-3.4203
X12.9395Y-0.5171
X12.9398Y-0.7984
X12.9405Y-1.2606
X12.9421Y-1.3225
X12.9428Y-4.2879
X12.9428Y-3.1424
X12.9439Y-0.1183
X12.9446Y-0.6584
X12.9448Y-3.3528
X12.9466Y-4.0913
X12.9468Y-0.8517
X12.9469Y-1.6284
X12.9483Y-1.3952
X12.9494Y-4.1566
X12.9496Y-3.0798
X12.9498Y-4.0161
X12.9678Y-2.3734
X12.9684Y-3.388
X12.9686Y-4.0622
X12.9701Y-3.9787
X12.9701Y-3.1844
X12.9714Y-1.5954
X12.9724Y-1.5355
X12.9734Y-0.7524
X12.9739Y-4.3284
X12.9756Y-0.5511
X12.976Y-0.4841
X12.9774Y-1.3707
X12.9775Y-4.2518
X12.9779Y-0.0905
X12.978Y-1.2937
X12.9787Y-3.1196
X12.9788Y-1.2281
X12.9792Y-0.6277
X12.9812Y-4.1855
X12.9813Y-0.819
X12.9813Y-3.0048
X12.9823Y-4.1139
X12.9833Y-1.6599
X12.984Y-0.1468
X12.9842Y-2.3103
X12.9843Y-1.7276
X13.0014Y-3.3548
X13.0024Y-3.2113
X13.0029Y-0.5979
X13.0051Y-4.1543
X13.0055Y-4.29
X13.0056Y-2.3364
X13.0058Y-0.6649
X13.006Y-3.0461
X13.0086Y-1.3283
X13.0089Y-3.7783
X13.0089Y-1.6966
X13.01Y-0.1225
X13.0106Y-4.2161
X13.0111Y-4.0149
X13.0117Y-4.0804
X13.0118Y-3.1465
X13.012Y-0.5297
X13.0134Y-1.2564
X13.0136Y-2.9744
X13.0145Y-1.5603
X13.0146Y-1.3943
X13.0146Y-3.4117
X13.0148Y-0.8003
X13.0178Y-0.854
X13.018Y-1.6393
X13.0369Y-4.3282
X13.0375Y-3.0719
X13.0378Y-4.8197
X13.0388Y-1.7282
X13.0391Y-1.5354
X13.0395Y-1.6745
X13.0397Y-3.1818
X13.041Y-0.7672
X13.0413Y-4.7302
X13.0417Y-4.0517
X13.0422Y-0.5642
X13.0432Y-4.1818
X13.0444Y-4.2635
X13.0448Y-3.3855
X13.0466Y-3.2456
X13.0467Y-4.5326
X13.0475Y-4.1151
X13.0477Y-1.3641
X13.0483Y-0.8241
X13.0487Y-0.6229
X13.0491Y-1.297
X13.0497Y-0.1517
X13.0502Y-3.9869
X13.0507Y-0.0897
X13.0515Y-1.6038
X13.0697Y-3.4765
X13.0697Y-4.2294
X13.071Y-3.7826
X13.0718Y-0.5888
X13.0726Y-4.428
X13.0727Y-1.6375
X13.0732Y-0.112
X13.0743Y-3.205
X13.0749Y-3.3446
X13.0752Y-1.3365
X13.0753Y-1.4035
X13.0759Y-4.028
X13.0761Y-0.1914
X13.0762Y-4.0888
X13.077Y-4.3532
X13.0782Y-0.5289
X13.0783Y-4.1579
X13.0804Y-1.7033
X13.0807Y-0.7847
X13.0809Y-1.5703
X13.0819Y-0.6536
X13.0823Y-1.8325
X13.0826Y-3.4172
X13.0829Y-0.8637
X13.0841Y-4.4969
X13.0844Y-4.2965
X13.0848Y-3.1147
X13.0854Y-1.267
X13.103Y-1.6751
X13.1036Y-4.3881
X13.104Y-0.1513
X13.1045Y-1.8759
X13.1056Y-1.5352
X13.106Y-0.5618
X13.106Y-1.3031
X13.1066Y-3.2546
X13.1072Y-1.7359
X13.1084Y-4.3175
X13.1097Y-3.1512
X13.1099Y-4.2533
X13.1107Y-3.3756
X13.111Y-3.4485
X13.1111Y-0.2179
X13.1112Y-3.9791
X13.1112Y-0.6207
X13.1118Y-0.7614
X13.1123Y-0.825
X13.114Y-0.0845
X13.1145Y-4.1894
X13.1147Y-4.1195
X13.115Y-1.5982
X13.1158Y-4.0527
X13.1171Y-1.3716
X13.1363Y-1.5702
X13.139Y-1.6265
X13.1417Y-1.3346
X13.1439Y-1.8318
X13.144Y-0.5935
X13.1449Y-0.525
X13.1474Y-0.7968
X13.1474Y-0.6656
X13.1478Y-1.2696
X13.1496Y-3.7913
X13.1502Y-3.1145
X13.1509Y-3.1786
X13.1511Y-1.6984
X13.1522Y-1.3944
X13.1696Y-0.6205
X13.1708Y-1.6684
X13.1765Y-0.5607
X13.177Y-3.2104
X13.179Y-1.5295
X13.1799Y-3.1533
X13.181Y-1.6027
X13.1845Y-1.3013
X13.185Y-3.8252
X13.1855Y-1.3572
X13.204Y-3.7912
X13.2125Y-3.2397
X13.2158Y-3.1837
X13.2382Y-3.7511
X13.2404Y-3.2054
X13.2523Y-2.2462
X13.2729Y-1.6671
X13.2734Y-0.4861
X13.274Y-1.5363
X13.276Y-3.2403
X13.2762Y-3.7197
X13.277Y-0.5566
X13.2771Y-1.3703
X13.2773Y-0.6185
X13.2778Y-4.822
X13.2781Y-1.2374
X13.2783Y-0.7964
X13.2785Y-4.0599
X13.2793Y-2.4784
X13.2801Y-3.994
X13.2813Y-1.6033
X13.284Y-1.2949
X13.285Y-1.0248
X13.2856Y-4.8874
X13.3046Y-1.9976
X13.3047Y-1.3367
X13.3048Y-0.5874
X13.3057Y-3.9602
X13.307Y-0.662
X13.3072Y-4.3266
X13.3074Y-0.079
X13.3074Y-3.5216
X13.3084Y-4.0282
X13.3094Y-4.8681
X13.3124Y-0.2594
X13.3136Y-0.5238
X13.314Y-4.2636
X13.3149Y-1.5717
X13.315Y-0.7547
X13.3154Y-4.9355
X13.3162Y-1.6955
X13.3171Y-1.6356
X13.3194Y-1.3928
X13.3194Y-1.8345
X13.3198Y-1.262
X13.32Y-0.8235
X13.3377Y-0.4873
X13.3388Y-0.6282
X13.3391Y-4.2854
X13.3394Y-3.9125
X13.34Y-4.8925
X13.3415Y-1.6028
X13.3425Y-0.1835
X13.3427Y-4.2283
X13.3435Y-0.9341
X13.3436Y-4.3573
X13.344Y-1.3052
X13.3451Y-1.8672
X13.3477Y-1.2217
X13.348Y-1.3595
X13.3482Y-0.5595
X13.3494Y-1.6669
X13.3495Y-4.8289
X13.3495Y-1.5364
X13.3499Y-1.741
X13.3511Y-3.9909
X13.3511Y-0.1269
X13.3518Y-0.9985
X13.3528Y-0.8596
X13.3539Y-0.7954
X13.3714Y-0.7534
X13.3726Y-0.5976
X13.3729Y-1.5686
X13.3738Y-4.3161
X13.3744Y-4.9343
X13.3745Y-1.3974
X13.3756Y-0.6515
X13.3756Y-1.2663
X13.3757Y-0.8228
X13.3762Y-3.8802
X13.3762Y-4.1833
X13.3766Y-0.9533
X13.3767Y-1.6322
X13.3771Y-2.4363
X13.3778Y-4.7346
X13.3779Y-4.2627
X13.379Y-0.0902
X13.3793Y-2.2402
X13.3795Y-0.2852
X13.3797Y-2.3793
X13.3808Y-2.7713
X13.3809Y-0.5239
X13.3836Y-0.2205
X13.384Y-4.8657
X13.3842Y-1.9093
X13.3843Y-1.8313
X13.385Y-1.0233
X13.3863Y-3.955
X13.3864Y-4.797
X13.3869Y-0.1464
X13.3869Y-1.3384
X13.3871Y-1.6964
X13.3872Y-0.8903
X13.3879Y-2.3092
X13.4059Y-4.2814
X13.406Y-1.87
X13.4069Y-0.3186
X13.407Y-0.7914
X13.407Y-1.6686
X13.4076Y-4.3649
X13.409Y-1.2925
X13.4094Y-0.2628
X13.41Y-1.0604
X13.4104Y-4.8941
X13.4115Y-0.6236
X13.4118Y-0.1931
X13.4118Y-4.8277
X13.4119Y-0.9241
X13.4122Y-1.5956
X13.4124Y-2.2086
X13.4126Y-2.2656
X13.4128Y-3.9124
X13.4128Y-4.7661
X13.4129Y-1.7284
X13.4131Y-0.4589
X13.4132Y-2.4684
X13.4138Y-4.1558
X13.414Y-2.4055
X13.4149Y-0.9988
X13.4152Y-1.5306
X13.4153Y-4.2225
X13.4153Y-0.8547
X13.416Y-2.809
X13.4178Y-3.8485
X13.4185Y-0.122
X13.4189Y-1.3599
X13.4193Y-1.1235
X13.4195Y-2.7446
X13.4205Y-2.3339
X13.4209Y-0.3941
X13.4212Y-1.1888
X13.4212Y-0.5569
X13.4386Y-1.3912
X13.4403Y-0.088
X13.4403Y-0.9615
X13.4407Y-4.7982
X13.4411Y-0.2258
X13.4414Y-2.1786
X13.4415Y-4.925
X13.4415Y-0.6511
X13.4427Y-1.3367
X13.443Y-2.3112
X13.4438Y-1.1027
X13.4442Y-1.7072
X13.445Y-0.8335
X13.4451Y-1.2271
X13.4453Y-1.8274
X13.4456Y-4.3226
X13.4459Y-4.2614
X13.446Y-4.8544
X13.4462Y-4.1239
X13.4463Y-2.2353
X13.4464Y-0.9016
X13.4466Y-0.7511
X13.4468Y-1.6249
X13.4468Y-3.8826
X13.4474Y-0.1461
X13.4475Y-0.2922
X13.4477Y-0.3572
X13.448Y-1.5673
X13.4491Y-1.0221
X13.4494Y-4.1831
X13.4496Y-0.5833
X13.4507Y-0.4898
X13.4513Y-1.1633
X13.4529Y-4.7254
X13.4532Y-0.4174
X13.4727Y-1.3684
X13.4737Y-0.2526
X13.4737Y-0.1191
X13.4737Y-0.3254
X13.4737Y-2.2679
X13.4743Y-0.7947
X13.4745Y-0.1796
X13.4747Y-1.1356
X13.4763Y-1.0536
X13.4773Y-0.9352
X13.4777Y-4.0921
X13.4781Y-4.161
X13.4782Y-0.4556
X13.4791Y-1.6061
X13.4795Y-1.8672
X13.4798Y-3.8519
X13.4799Y-1.7333
X13.4807Y-1.0014
X13.482Y-1.674
X13.4827Y-0.5154
X13.4831Y-0.3842
X13.4839Y-2.2053
X13.4841Y-1.1905
X13.4848Y-1.2557
X13.4852Y-4.7597
X13.4857Y-1.5373
X13.4868Y-0.8543
X13.4869Y-4.9016
X13.487Y-0.6257
X13.4884Y-4.8259
X13.5057Y-0.4241
X13.5058Y-4.789
X13.5062Y-2.2381
X13.5064Y-4.1263
X13.5069Y-0.3478
X13.5074Y-0.552
X13.5095Y-1.1682
X13.5098Y-0.9682
X13.5099Y-0.7582
X13.5102Y-1.2274
X13.5108Y-0.6664
X13.5108Y-1.8396
X13.5115Y-1.0929
X13.5128Y-0.4967
X13.5131Y-1.697
X13.514Y-4.7199
X13.5144Y-1.402
X13.5144Y-1.6354
X13.5155Y-3.1191
X13.516Y-0.2229
X13.5166Y-4.8568
X13.5167Y-4.9275
X13.5169Y-0.1467
X13.517Y-1.5671
X13.5174Y-4.0583
X13.5174Y-0.0817
X13.5182Y-0.2857
X13.519Y-0.8244
X13.5196Y-1.2932
X13.5197Y-2.1646
X13.5207Y-1.0261
X13.5221Y-0.9015
X13.5394Y-0.5309
X13.5397Y-1.6059
X13.5413Y-2.2731
X13.5414Y-1.0005
X13.5425Y-4.8925
X13.5425Y-1.5294
X13.5431Y-0.792
X13.5434Y-0.1138
X13.5437Y-4.0799
X13.5437Y-0.326
X13.5439Y-0.1872
X13.5441Y-0.8589
X13.5447Y-1.1364
X13.5467Y-0.4531
X13.5473Y-1.0558
X13.5483Y-2.1989
X13.549Y-0.3943
X13.551Y-0.2514
X13.5514Y-0.9294
X13.5514Y-4.148
X13.5514Y-1.6655
X13.5517Y-4.0141
X13.5536Y-1.736
X13.5542Y-4.8276
X13.5551Y-4.7613
X13.5553Y-1.1985
X13.5558Y-1.2674
X13.5735Y-0.8314
X13.5741Y-3.9832
X13.5756Y-0.2232
X13.5759Y-4.7949
X13.578Y-1.5617
X13.5789Y-2.0992
X13.5795Y-1.6979
X13.5814Y-0.1598
X13.5822Y-4.118
X13.5832Y-1.0251
X13.5832Y-1.6403
X13.5841Y-2.167
X13.5844Y-0.0783
X13.5851Y-4.0541
X13.5867Y-0.9599
X13.5876Y-0.893
X13.6071Y-2.0024
X13.6081Y-1.6034
X13.6092Y-2.9826
X13.6102Y-1.6688
X13.6113Y-4.0916
X13.6116Y-0.1125
X13.6132Y-4.1479
X13.6132Y-0.9296
X13.6138Y-4.2146
X13.6157Y-0.7842
X13.6177Y-1.5399
X13.6179Y-0.1818
X13.6193Y-4.025
X13.6206Y-4.7582
X13.6213Y-3.8507
X13.6214Y-1.7266
X13.6219Y-0.9975
X13.6227Y-0.8639
X13.6232Y-3.9471
X13.6407Y-4.1212
X13.6414Y-1.7001
X13.6419Y-0.0841
X13.6419Y-3.992
X13.642Y-4.1944
X13.6421Y-1.3952
X13.6423Y-1.2258
X13.6438Y-0.8932
X13.6455Y-1.5708
X13.6484Y-4.0512
X13.6492Y-0.8303
X13.6502Y-0.6646
X13.653Y-0.4974
X13.6533Y-0.1605
X13.6543Y-1.638
X13.6561Y-3.1467
X13.6757Y-1.8037
X13.6768Y-0.8585
X13.6782Y-3.1136
X13.6784Y-4.0173
X13.6785Y-0.1249
X13.6793Y-4.0905
X13.6798Y-0.5944
X13.6807Y-1.601
X13.6808Y-1.4944
X13.6809Y-1.7319
X13.6811Y-3.7199
X13.6812Y-1.4323
X13.6815Y-4.1475
X13.6817Y-1.3261
X13.6817Y-3.7893
X13.682Y-1.6588
X13.6829Y-3.1832
X13.6834Y-1.8669
X13.6837Y-0.7674
X13.6861Y-1.2708
X13.6861Y-0.6837
X13.6865Y-3.2474
X13.6867Y-0.5281
X13.6875Y-4.7635
X13.709Y-1.4689
X13.7106Y-3.2879
X13.7107Y-1.3024
X13.7107Y-0.7294
X13.7113Y-1.6347
X13.712Y-1.5294
X13.7132Y-0.0817
X13.7153Y-1.8349
X13.7159Y-0.7959
X13.7176Y-1.772
X13.7181Y-3.0794
X13.7191Y-0.617
X13.7198Y-0.5594
X13.7198Y-1.7023
X13.7199Y-0.1517
X13.7199Y-0.8874
X13.7202Y-1.2247
X13.7204Y-1.3643
X13.7211Y-3.1509
X13.7216Y-3.2074
X13.722Y-0.4823
X13.7231Y-1.9049
X13.7413Y-0.1283
X13.7418Y-3.1162
X13.7435Y-0.6632
X13.7446Y-1.3331
X13.7446Y-1.5051
X13.7448Y-0.4536
X13.7453Y-0.5967
X13.7488Y-1.669
X13.7499Y-1.873
X13.7515Y-0.5176
X13.7521Y-0.7635
X13.7537Y-1.4038
X13.7544Y-1.7977
X13.7548Y-0.827
X13.7549Y-1.2635
X13.7559Y-1.7265
X13.7568Y-1.5631
X13.7764Y-4.859
X13.7769Y-4.733
X13.7773Y-4.934
X13.7775Y-4.7917
X13.7775Y-1.4314
X13.7784Y-3.8197
X13.7792Y-1.7712
X13.7796Y-1.7001
X13.7802Y-0.8587
X13.7811Y-0.6214
X13.7822Y-1.5388
X13.7829Y-1.8391
X13.7838Y-0.7889
X13.7843Y-1.2936
X13.7857Y-1.3694
X13.7857Y-0.5531
X13.7858Y-4.1193
X13.786Y-0.084
X13.7869Y-0.1529
X13.7879Y-0.9197
X13.7885Y-3.7547
X13.7894Y-1.9016
X13.7898Y-1.5967
X13.7908Y-0.6974
X13.8092Y-0.5226
X13.8095Y-0.1818
X13.8096Y-4.758
X13.8124Y-4.8356
X13.8129Y-1.7387
X13.8131Y-1.865
X13.8138Y-1.4608
X13.8143Y-1.3245
X13.8149Y-1.3911
X13.8164Y-0.5862
X13.817Y-0.119
X13.8177Y-0.8927
X13.8182Y-4.8978
X13.8204Y-1.8007
X13.8218Y-1.637
X13.8224Y-0.6525
X13.8231Y-1.9287
X13.8232Y-2.6368
X13.8233Y-0.7252
X13.8237Y-1.2633
X13.8242Y-0.834
X13.8249Y-1.5629
X13.8421Y-1.3631
X13.8424Y-1.7724
X13.8424Y-0.7622
X13.8428Y-1.6645
X13.8437Y-0.5571
X13.8458Y-4.7896
X13.8474Y-1.3015
X13.8491Y-0.6295
X13.8492Y-4.9281
X13.8498Y-2.28
X13.85Y-1.5944
X13.8506Y-1.4373
X13.8508Y-0.1578
X13.8509Y-0.6858
X13.8511Y-1.8366
X13.8517Y-1.9708
X13.8529Y-0.2207
X13.8532Y-0.8585
X13.8534Y-2.4135
X13.8544Y-0.0814
X13.8544Y-4.8567
X13.8547Y-1.9104
X13.8559Y-4.5261
X13.8562Y-0.9337
X13.8572Y-1.4912
X13.8574Y-2.3405
X13.858Y-4.7268
X13.858Y-2.6838
X13.8759Y-0.597
X13.8775Y-1.5277
X13.8777Y-1.4019
X13.8785Y-1.8076
X13.8792Y-0.7249
X13.8808Y-1.4586
X13.8811Y-4.8347
X13.8816Y-1.6407
X13.8823Y-0.5217
X13.8833Y-4.7587
X13.8849Y-1.2668
X13.886Y-0.787
X13.8868Y-0.6506
X13.8869Y-2.4396
X13.8874Y-4.9023
X13.8878Y-2.3752
X13.8878Y-2.3092
X13.8889Y-1.6992
X13.8899Y-1.3248
X13.9092Y-1.5737
X13.9095Y-4.9265
X13.9111Y-2.4081
X13.9127Y-0.6176
X13.9137Y-4.5854
X13.9161Y-2.3464
X13.9168Y-0.7535
X13.9174Y-2.2719
X13.9175Y-4.6553
X13.919Y-1.2943
X13.9193Y-4.8648
X13.9196Y-4.7263
X13.9198Y-4.7995
X13.9203Y-4.5196
X13.9204Y-1.6701
X13.9207Y-1.4348
X13.9222Y-1.4914
X13.9225Y-0.5652
X13.9232Y-0.8285
X13.9237Y-0.6894
X13.9246Y-1.7377
X13.9256Y-2.4816
X13.9258Y-1.3678
X13.9466Y-4.7656
X13.9467Y-2.3106
X13.9494Y-2.4482
X13.9533Y-4.6855
X13.9533Y-4.8956
X13.9552Y-2.3753
X13.9572Y-4.8275
X13.9576Y-4.6264
X13.9587Y-4.5513
X13.9795Y-4.4934
X13.9797Y-2.3357
X13.9823Y-4.7884
X13.9839Y-2.4665
X13.9849Y-4.7325
X13.9862Y-4.5851
X13.9881Y-4.9337
X13.99Y-0.0503
X13.9907Y-2.2347
X13.9909Y-4.6525
X13.9916Y-2.4142
X13.9928Y-4.8535
X14.0102Y-0.0245
X14.0113Y-2.273
X14.0116Y-4.7597
X14.0116Y-1.7603
X14.0136Y-0.2863
X14.0141Y-1.6409
X14.0145Y-0.5605
X14.0155Y-2.771
X14.0158Y-0.624
X14.0159Y-0.756
X14.0164Y-1.2237
X14.0168Y-1.5741
X14.0173Y-1.4397
X14.0176Y-4.6846
X14.0179Y-4.9588
X14.0185Y-4.2812
X14.0188Y-0.4907
X14.0191Y-1.3694
X14.0191Y-1.2969
X14.0197Y-4.5271
X14.02Y-3.9518
X14.0202Y-4.9016
X14.021Y-1.0212
X14.0217Y-1.4966
X14.0232Y-4.6297
X14.0234Y-2.3708
X14.0246Y-2.4371
X14.0257Y-3.2131
X14.0259Y-0.6888
X14.0263Y-4.8326
X14.0263Y-1.7013
X14.0453Y-0.5161
X14.0457Y-0.7234
X14.0463Y-0.0592
X14.0463Y-1.4704
X14.0464Y-1.258
X14.0464Y-1.4041
X14.0466Y-0.6606
X14.0492Y-0.79
X14.0512Y-4.7263
X14.0517Y-4.8603
X14.0538Y-1.663
X14.0539Y-1.7285
X14.0554Y-2.3079
X14.0561Y-1.5333
X14.0562Y-4.5658
X14.0563Y-1.3225
X14.0569Y-2.4708
X14.0573Y-0.5875
X14.0574Y-1.7953
X14.0574Y-4.9359
X14.058Y-2.3985
X14.058Y-1.5954
X14.0585Y-4.66
X14.0587Y-4.7872
X14.0775Y-4.9015
X14.0781Y-0.0787
X14.0783Y-1.5047
X14.0783Y-0.686
X14.0784Y-0.1536
X14.0789Y-0.9541
X14.0804Y-1.4325
X14.081Y-4.9568
X14.0813Y-0.8319
X14.0816Y-0.5532
X14.0818Y-2.4319
X14.0825Y-0.7622
X14.0828Y-0.4925
X14.0832Y-4.5858
X14.0835Y-1.3608
X14.0838Y-0.2208
X14.0838Y-4.6954
X14.0846Y-4.7674
X14.0859Y-4.2178
X14.0861Y-2.2733
X14.0864Y-1.7021
X14.0876Y-4.8329
X14.0885Y-1.7756
X14.0887Y-1.02
X14.0888Y-0.8851
X14.0903Y-2.6399
X14.0906Y-1.3028
X14.0908Y-1.5711
X14.0911Y-1.8956
X14.0913Y-0.0197
X14.0915Y-1.6362
X14.0931Y-0.6279
X14.0934Y-1.2263
X14.0935Y-1.8281
X14.1126Y-1.5979
X14.1127Y-3.9854
X14.1132Y-0.257
X14.1135Y-4.7256
X14.1139Y-1.9383
X14.1145Y-1.5277
X14.1146Y-0.1254
X14.1154Y-4.7898
X14.1154Y-1.3895
X14.1155Y-1.3367
X14.1164Y-0.8621
X14.1164Y-3.9223
X14.117Y-3.1881
X14.1176Y-1.6667
X14.1183Y-0.922
X14.1188Y-0.1915
X14.1189Y-4.9208
X14.1205Y-0.5868
X14.1211Y-3.1053
X14.1212Y-3.2439
X14.1214Y-1.2636
X14.1215Y-3.0422
X14.1217Y-4.2474
X14.1222Y-0.5288
X14.123Y-2.6047
X14.1232Y-3.8496
X14.1241Y-1.729
X14.1243Y-0.9917
X14.1249Y-0.6588
X14.1251Y-1.8718
X14.1254Y-2.9743
X14.1256Y-1.799
X14.1258Y-0.7969
X14.1259Y-0.7284
X14.1265Y-1.4589
X14.1266Y-0.0481
X14.1267Y-4.8612
X14.127Y-4.6335
X14.1447Y-0.2803
X14.1447Y-4.9
X14.1464Y-3.2138
X14.1467Y-0.0132
X14.1476Y-2.5771
X14.1476Y-4.5855
X14.1484Y-3.9447
X14.1484Y-1.9646
X14.1485Y-0.8183
X14.1487Y-4.2892
X14.1487Y-1.6367
X14.1489Y-1.3684
X14.1492Y-4.19
X14.1498Y-1.773
X14.1502Y-1.494
X14.1503Y-1.9052
X14.1505Y-1.8423
X14.1519Y-0.4633
X14.152Y-4.9553
X14.1522Y-3.0118
X14.153Y-1.293
X14.1531Y-0.5497
X14.1542Y-0.9667
X14.1543Y-4.6622
X14.1547Y-4.7642
X14.1549Y-0.0832
X14.1554Y-1.4281
X14.1562Y-1.0334
X14.1563Y-3.8885
X14.1567Y-2.9499
X14.1573Y-3.148
X14.1574Y-0.8917
X14.1576Y-0.6319
X14.1576Y-2.6494
X14.1577Y-1.2038
X14.1583Y-4.8237
X14.1587Y-1.5616
X14.1587Y-0.7601
X14.1591Y-0.2257
X14.1595Y-0.6879
X14.1598Y-0.1472
X14.16Y-1.6972
X14.1604Y-3.0756
X14.1783Y-4.2205
X14.1797Y-1.2248
X14.1799Y-4.6947
X14.18Y-2.9845
X14.18Y-0.2475
X14.1805Y-3.9934
X14.1806Y-0.7842
X14.1808Y-3.2548
X14.1822Y-4.8581
X14.1823Y-0.3228
X14.1825Y-4.7855
X14.1827Y-4.3161
X14.1831Y-3.1753
X14.1833Y-1.8698
X14.1834Y-4.9934
X14.1837Y-0.6592
X14.1837Y-4.933
X14.1838Y-4.0584
X14.1839Y-1.9377
X14.1842Y-0.4885
X14.1845Y-0.7211
X14.1848Y-3.3097
X14.1849Y-1.0026
X14.1852Y-2.6025
X14.1853Y-4.6291
X14.1856Y-3.9221
X14.1862Y-0.0483
X14.1871Y-0.8626
X14.1871Y-0.5923
X14.1878Y-1.3973
X14.1879Y-1.7393
X14.1881Y-4.127
X14.1884Y-0.9192
X14.1887Y-3.0466
X14.1891Y-3.8458
X14.1892Y-1.8039
X14.1897Y-3.1102
X14.1898Y-1.5934
X14.1906Y-1.123
X14.1908Y-1.999
X14.1912Y-1.4613
X14.1912Y-0.3963
X14.1917Y-0.1909
X14.1921Y-2.9083
X14.1925Y-2.5341
X14.1928Y-1.0607
X14.1929Y-1.5328
X14.1937Y-0.1183
X14.1941Y-1.331
X14.1948Y-3.3882
X14.1949Y-1.6626
T2
X0.2047Y-0.7165
X0.2953Y-1.0079
X0.6299Y-0.9834
X0.689Y-4.8583
X0.6929Y-1.7126
X0.6929Y-2.4646
X0.6929Y-3.2126
X0.6929Y-3.9646
X0.9673Y-4.6614
X0.9673Y-4.7034
X0.9685Y-1.1299
X0.9803Y-4.3898
X1.0Y-1.1614
X1.0079Y-4.6614
X1.0276Y-1.7126
X1.0394Y-3.9646
X1.0748Y-4.5079
X1.1024Y-0.7598
X1.1181Y-4.6181
X1.2126Y-2.4646
X1.3071Y-3.2126
X1.315Y-4.4567
X1.3228Y-4.5551
X1.6063Y-4.6575
X1.6102Y-4.5551
X1.6102Y-4.8386
X2.0748Y-4.5551
X2.0787Y-4.6654
X2.0827Y-4.8465
X2.252Y-4.0787
X2.3543Y-4.126
X2.437Y-4.2362
X2.5394Y-4.5512
X2.5394Y-4.6614
X2.5394Y-4.8425
X2.9409Y-4.5551
X2.9409Y-4.6654
X2.9488Y-4.8465
X4.1807Y-3.9571
X4.3504Y-3.9284
X4.4252Y-4.8386
X4.5709Y-4.5827
X4.5984Y-4.9488
X4.6063Y-4.5393
X4.7774Y-4.8329
X4.8053Y-4.8049
X4.811Y-4.9213
X4.8701Y-3.9291
X4.9096Y-3.9291
X4.9488Y-4.874
X4.9491Y-3.9291
X4.9764Y-3.315
X4.9886Y-3.9291
X5.0276Y-1.7835
X5.2244Y-2.5472
X5.2283Y-3.9291
X5.2283Y-4.1378
X5.2598Y-0.7717
X5.2717Y-3.9291
X5.2913Y-4.0512
X5.4843Y-3.9284
X5.5512Y-4.1378
X5.6102Y-3.8425
X5.6142Y-3.9409
X5.7244Y-3.9752
X5.9724Y-3.8504
X5.9724Y-3.9488
X6.1614Y-3.9606
X6.3228Y-3.8465
X6.3228Y-3.9488
X6.7244Y-3.8425
X6.7244Y-3.9528
X6.9094Y-3.9932
X7.0394Y-3.8425
X7.0394Y-3.9488
X7.437Y-3.8386
X7.4409Y-3.9488
X7.6614Y-4.0112
X7.8543Y-3.8346
X7.8583Y-3.9488
X8.2205Y-3.8386
X8.2244Y-3.9449
X8.5906Y-3.8346
X8.5906Y-3.9488
X8.5906Y-4.0945
X8.622Y-4.7244
X8.7126Y-4.7835
X9.0079Y-4.7283
X9.0276Y-3.8543
X9.0276Y-3.9449
X9.0709Y-4.6614
X9.1575Y-4.0197
X9.1614Y-4.8216
X9.2323Y-4.0906
X9.4016Y-3.8543
X9.4016Y-3.9449
X9.5039Y-4.6693
X9.5039Y-4.7638
X9.6614Y-4.8396
X9.9291Y-4.0787
X10.0197Y-4.1457
X10.2283Y-4.2598
X10.3504Y-4.2717
X11.2087Y-4.0236
X11.2126Y-4.126
X11.4528Y-4.2362
X11.4724Y-4.7974
X11.4961Y-4.3386
X11.6181Y-4.7047
X11.6181Y-4.8268
X11.6693Y-1.5236
X11.685Y-1.6575
X11.878Y-4.0315
X11.8819Y-4.1299
X12.1024Y-4.2402
X12.1063Y-4.3386
X12.2244Y-4.8756
X12.4291Y-1.4843
X12.4331Y-4.7126
X12.437Y-4.8307
X12.685Y-2.9646
X12.7598Y-3.0394
X12.7913Y-4.1299
X12.9724Y-4.8936
X13.1417Y-4.7008
X13.1417Y-4.8268
X13.1692Y-4.5157
X13.1692Y-4.8858
X13.2087Y-4.5157
X13.2087Y-4.8858
X13.2323Y-4.6732
X13.3425Y-4.4488
X13.3701Y-3.2874
X13.5Y-4.6142
X13.5315Y-3.2874
X13.5394Y-4.2362
X13.5945Y-4.3386
X13.6299Y-2.248
X13.6417Y-2.3504
X13.6417Y-4.8504
X13.6732Y-4.5118
X13.6957Y-3.3807
X13.7126Y-4.9213
X13.7795Y-4.5157
T3
X0.7835Y-1.0472
X0.9173Y-1.0472
X4.5197Y-4.2559
X4.66Y-4.5852
X4.7717Y-4.6969
X4.9528Y-4.8071
X5.0276Y-4.122
X5.252Y-4.5827
X12.5571Y-1.1772
X7.0453Y0.1575
X7.0686Y0.2139
X7.0686Y0.1011
X7.125Y0.2372
X7.125Y0.0778
X7.1814Y0.2139
X7.1814Y0.1011
X7.2047Y0.1575
X14.0128Y-5.1575
X14.0361Y-5.1011
X14.0361Y-5.2139
X14.0925Y-5.0778
X14.0925Y-5.2372
X14.1489Y-5.1011
X14.1489Y-5.2139
X14.1722Y-5.1575
X7.0453Y-5.1575
X7.0686Y-5.1011
X7.0686Y-5.2139
X7.125Y-5.0778
X7.125Y-5.2372
X7.1814Y-5.1011
X7.1814Y-5.2139
X7.2047Y-5.1575
X0.0778Y0.1575
X0.1011Y0.2139
X0.1011Y0.1011
X0.1575Y0.2372
X0.1575Y0.0778
X0.2139Y0.2139
X0.2139Y0.1011
X0.2372Y0.1575
X14.0128Y0.1575
X14.0361Y0.2139
X14.0361Y0.1011
X14.0925Y0.2372
X14.0925Y0.0778
X14.1489Y0.2139
X14.1489Y0.1011
X14.1722Y0.1575
X3.5615Y0.1575
X3.5849Y0.2139
X3.5849Y0.1011
X3.6412Y0.2372
X3.6412Y0.0778
X3.6976Y0.2139
X3.6976Y0.1011
X3.721Y0.1575
X10.529Y-5.1575
X10.5524Y-5.1011
X10.5524Y-5.2139
X10.6088Y-5.0778
X10.6088Y-5.2372
X10.6651Y-5.1011
X10.6651Y-5.2139
X10.6885Y-5.1575
X10.529Y0.1575
X10.5524Y0.2139
X10.5524Y0.1011
X10.6088Y0.2372
X10.6088Y0.0778
X10.6651Y0.2139
X10.6651Y0.1011
X10.6885Y0.1575
X0.0778Y-5.1575
X0.1011Y-5.1011
X0.1011Y-5.2139
X0.1575Y-5.0778
X0.1575Y-5.2372
X0.2139Y-5.1011
X0.2139Y-5.2139
X0.2372Y-5.1575
X3.5615Y-5.1575
X3.5849Y-5.1011
X3.5849Y-5.2139
X3.6412Y-5.0778
X3.6412Y-5.2372
X3.6976Y-5.1011
X3.6976Y-5.2139
X3.721Y-5.1575
T4
X1.6614Y-2.7362
X4.5039Y-4.626
X4.5748Y-4.7953
X4.6148Y-4.1917
X5.1024Y-3.8504
X12.4291Y-1.1299
T5
X0.0931Y-0.825
X0.0931Y-0.875
X0.0931Y-0.925
X0.1431Y-0.825
X0.1431Y-0.875
X0.1431Y-0.925
T6
X0.152Y-0.1855
X0.3224Y-0.0871
X0.4374Y-0.6799
X0.5226Y-0.6307
X0.6079Y-0.5815
X13.5647Y-2.3998
X13.6032Y-2.4904
X13.6417Y-2.581
X14.0902Y-2.1767
X14.1671Y-2.3579
T7
X4.225Y-1.275
X4.475Y-1.175
X4.4125Y-3.525
X4.6625Y-3.425
X11.675Y-1.275
X11.775Y-1.525
X12.975Y-2.025
X13.225Y-1.925
X5.1625Y-3.525
X5.4125Y-3.425
X9.2875Y-2.775
X9.5375Y-2.675
X11.8812Y-2.35
X11.9812Y-2.6
X13.725Y-0.275
X13.975Y-0.175
X3.2875Y-4.275
X3.5375Y-4.175
X9.1Y-2.025
X9.35Y-1.925
X3.725Y-0.275
X3.975Y-0.175
X9.475Y-0.275
X9.725Y-0.175
X12.975Y-2.775
X13.225Y-2.675
X3.1Y-2.025
X3.35Y-1.925
X13.725Y-1.025
X13.975Y-0.925
X2.1625Y-3.525
X2.4125Y-3.425
X11.225Y-4.525
X11.475Y-4.425
X1.225Y-1.275
X1.475Y-1.175
X2.225Y-0.275
X2.475Y-0.175
X0.225Y-3.775
X0.475Y-3.675
X3.85Y-2.025
X4.1Y-1.925
X13.975Y-3.85
X14.075Y-4.1
X2.725Y-0.275
X2.975Y-0.175
X11.2562Y-2.775
X11.5062Y-2.675
X13.725Y-2.025
X13.975Y-1.925
X10.225Y-1.275
X10.475Y-1.175
X1.6937Y-3.525
X1.9437Y-3.425
X10.0375Y-2.775
X10.2875Y-2.675
X1.3187Y-2.775
X1.5687Y-2.675
X10.975Y-1.275
X11.225Y-1.175
X5.6Y-0.275
X5.85Y-0.175
X8.1625Y-3.525
X8.4125Y-3.425
X7.975Y-1.275
X8.225Y-1.175
X12.975Y-0.275
X13.225Y-0.175
X10.7875Y-4.275
X11.0375Y-4.175
X2.725Y-1.275
X2.975Y-1.175
X12.975Y-3.525
X13.225Y-3.425
X1.975Y-0.275
X2.225Y-0.175
X11.225Y-0.275
X11.475Y-0.175
X0.225Y-4.525
X0.475Y-4.425
X1.5062Y-2.775
X1.7562Y-2.675
X8.35Y-2.025
X8.6Y-1.925
X13.725Y-2.775
X13.975Y-2.675
X0.225Y-2.775
X0.475Y-2.675
X12.225Y-0.275
X12.475Y-0.175
X1.4125Y-4.275
X1.6625Y-4.175
X13.975Y-3.1
X14.075Y-3.35
X1.3187Y-4.275
X1.5687Y-4.175
X6.1937Y-4.275
X6.4437Y-4.175
X4.6Y-2.025
X4.85Y-1.925
X0.225Y-3.525
X0.475Y-3.425
X4.475Y-0.275
X4.725Y-0.175
X3.6625Y-3.525
X3.9125Y-3.425
X4.7875Y-2.775
X5.0375Y-2.675
X2.5375Y-4.275
X2.7875Y-4.175
X2.975Y-0.275
X3.225Y-0.175
X7.0375Y-2.775
X7.2875Y-2.675
X9.475Y-1.275
X9.725Y-1.175
X9.6625Y-4.275
X9.9125Y-4.175
X0.225Y-0.275
X0.475Y-0.175
X2.5375Y-2.775
X2.7875Y-2.675
X10.0375Y-4.275
X10.2875Y-4.175
X7.7875Y-2.775
X8.0375Y-2.675
X11.975Y-3.775
X12.225Y-3.675
X7.1Y-0.275
X7.35Y-0.175
X11.725Y-3.525
X11.975Y-3.425
X6.475Y-4.275
X6.725Y-4.175
X3.475Y-0.275
X3.725Y-0.175
X1.4125Y-2.025
X1.6625Y-1.925
X3.475Y-1.275
X3.725Y-1.175
X5.9125Y-3.525
X6.1625Y-3.425
X5.5375Y-2.775
X5.7875Y-2.675
X4.6Y-0.275
X4.85Y-0.175
X10.475Y-0.275
X10.725Y-0.175
X3.2875Y-2.775
X3.5375Y-2.675
X7.6Y-2.025
X7.85Y-1.925
X4.975Y-1.275
X5.225Y-1.175
X8.9125Y-3.525
X9.1625Y-3.425
X0.225Y-2.275
X0.475Y-2.175
X7.975Y-0.275
X8.225Y-0.175
X2.35Y-4.275
X2.6Y-4.175
X8.5375Y-2.775
X8.7875Y-2.675
X12.975Y-1.025
X13.225Y-0.925
X9.85Y-4.275
X10.1Y-4.175
X9.85Y-2.025
X10.1Y-1.925
X2.2563Y-4.275
X2.5063Y-4.175
X6.85Y-0.275
X7.1Y-0.175
X1.975Y-1.275
X2.225Y-1.175
X12.725Y-4.525
X12.975Y-4.425
X6.2875Y-2.775
X6.5375Y-2.675
X3.1938Y-4.275
X3.4438Y-4.175
X5.35Y-0.275
X5.6Y-0.175
X8.975Y-0.275
X9.225Y-0.175
X10.6937Y-3.525
X10.9437Y-3.425
X6.05Y-4.275
X6.15Y-4.525
X7.225Y-1.275
X7.475Y-1.175
X12.725Y-2.025
X12.975Y-1.925
X11.975Y-4.525
X12.225Y-4.425
X5.35Y-2.025
X5.6Y-1.925
X13.725Y-4.275
X13.975Y-4.175
X6.35Y-0.275
X6.6Y-0.175
X13.475Y-4.525
X13.725Y-4.425
X5.725Y-1.275
X5.975Y-1.175
X9.725Y-0.275
X9.975Y-0.175
X8.725Y-0.275
X8.975Y-0.175
X12.675Y-2.4
X12.775Y-2.65
X10.6Y-2.025
X10.85Y-1.925
X1.2688Y-3.525
X1.3687Y-3.775
X0.225Y-1.525
X0.475Y-1.425
X10.7875Y-2.775
X11.0375Y-2.675
X11.0687Y-3.525
X11.3187Y-3.425
X6.475Y-1.275
X6.725Y-1.175
X8.725Y-1.275
X8.975Y-1.175
X6.6625Y-3.525
X6.9125Y-3.425
X10.225Y-0.275
X10.475Y-0.175
X13.725Y-3.525
X13.975Y-3.425
X11.5375Y-2.025
X11.7875Y-1.925
X12.725Y-2.775
X12.975Y-2.675
X0.225Y-3.025
X0.475Y-2.925
X5.725Y-4.275
X5.975Y-4.175
X0.225Y-1.275
X0.475Y-1.175
X2.9125Y-3.525
X3.1625Y-3.425
X6.1Y-2.025
X6.35Y-1.925
X1.225Y-0.275
X1.475Y-0.175
X9.6625Y-3.525
X9.9125Y-3.425
X13.225Y-2.35
X13.325Y-2.6
X0.225Y-4.275
X0.475Y-4.175
X6.1Y-0.275
X6.35Y-0.175
X7.85Y-0.275
X8.1Y-0.175
X7.4125Y-3.525
X7.6625Y-3.425
X2.35Y-2.025
X2.6Y-1.925
X12.725Y-3.775
X12.975Y-3.675
X6.85Y-2.025
X7.1Y-1.925
X0.225Y-2.025
X0.475Y-1.925
X11.35Y-1.275
X11.6Y-1.175
X8.9125Y-4.275
X9.1625Y-4.175
X4.0375Y-2.775
X4.2875Y-2.675
T8
X0.1575Y0.1575
X3.6412Y0.1575
X3.6412Y-5.1575
X7.125Y0.1575
X14.0925Y-5.1575
X7.125Y-5.1575
X14.0925Y0.1575
X10.6088Y-5.1575
X10.6088Y0.1575
X0.1575Y-5.1575
T7
G00X0.1969Y-0.5074
M15
G01X0.1713Y-0.4631
M16
G05
G00X0.5787Y-0.2869
M15
G01X0.5531Y-0.2426
M16
G05
G00X13.7653Y-2.1821
M15
G01X13.8124Y-2.1621
M16
G05
G00X13.9376Y-2.5879
M15
G01X13.9847Y-2.5679
M16
G05
T0
M30
