G04 #@! TF.GenerationSoftware,KiCad,Pcbnew,(5.1.4)-1*
G04 #@! TF.CreationDate,2019-12-12T03:40:57-08:00*
G04 #@! TF.ProjectId,mad cat,6d616420-6361-4742-9e6b-696361645f70,rev?*
G04 #@! TF.SameCoordinates,Original*
G04 #@! TF.FileFunction,Paste,Top*
G04 #@! TF.FilePolarity,Positive*
%FSLAX46Y46*%
G04 Gerber Fmt 4.6, Leading zero omitted, Abs format (unit mm)*
G04 Created by KiCad (PCBNEW (5.1.4)-1) date 2019-12-12 03:40:57*
%MOMM*%
%LPD*%
G04 APERTURE LIST*
%ADD10C,0.100000*%
%ADD11C,1.300000*%
G04 APERTURE END LIST*
D10*
G36*
X318899504Y-25601204D02*
G01*
X318923773Y-25604804D01*
X318947571Y-25610765D01*
X318970671Y-25619030D01*
X318992849Y-25629520D01*
X319013893Y-25642133D01*
X319033598Y-25656747D01*
X319051777Y-25673223D01*
X319068253Y-25691402D01*
X319082867Y-25711107D01*
X319095480Y-25732151D01*
X319105970Y-25754329D01*
X319114235Y-25777429D01*
X319120196Y-25801227D01*
X319123796Y-25825496D01*
X319125000Y-25850000D01*
X319125000Y-26650000D01*
X319123796Y-26674504D01*
X319120196Y-26698773D01*
X319114235Y-26722571D01*
X319105970Y-26745671D01*
X319095480Y-26767849D01*
X319082867Y-26788893D01*
X319068253Y-26808598D01*
X319051777Y-26826777D01*
X319033598Y-26843253D01*
X319013893Y-26857867D01*
X318992849Y-26870480D01*
X318970671Y-26880970D01*
X318947571Y-26889235D01*
X318923773Y-26895196D01*
X318899504Y-26898796D01*
X318875000Y-26900000D01*
X318050000Y-26900000D01*
X318025496Y-26898796D01*
X318001227Y-26895196D01*
X317977429Y-26889235D01*
X317954329Y-26880970D01*
X317932151Y-26870480D01*
X317911107Y-26857867D01*
X317891402Y-26843253D01*
X317873223Y-26826777D01*
X317856747Y-26808598D01*
X317842133Y-26788893D01*
X317829520Y-26767849D01*
X317819030Y-26745671D01*
X317810765Y-26722571D01*
X317804804Y-26698773D01*
X317801204Y-26674504D01*
X317800000Y-26650000D01*
X317800000Y-25850000D01*
X317801204Y-25825496D01*
X317804804Y-25801227D01*
X317810765Y-25777429D01*
X317819030Y-25754329D01*
X317829520Y-25732151D01*
X317842133Y-25711107D01*
X317856747Y-25691402D01*
X317873223Y-25673223D01*
X317891402Y-25656747D01*
X317911107Y-25642133D01*
X317932151Y-25629520D01*
X317954329Y-25619030D01*
X317977429Y-25610765D01*
X318001227Y-25604804D01*
X318025496Y-25601204D01*
X318050000Y-25600000D01*
X318875000Y-25600000D01*
X318899504Y-25601204D01*
X318899504Y-25601204D01*
G37*
D11*
X318462500Y-26250000D03*
D10*
G36*
X316974504Y-25601204D02*
G01*
X316998773Y-25604804D01*
X317022571Y-25610765D01*
X317045671Y-25619030D01*
X317067849Y-25629520D01*
X317088893Y-25642133D01*
X317108598Y-25656747D01*
X317126777Y-25673223D01*
X317143253Y-25691402D01*
X317157867Y-25711107D01*
X317170480Y-25732151D01*
X317180970Y-25754329D01*
X317189235Y-25777429D01*
X317195196Y-25801227D01*
X317198796Y-25825496D01*
X317200000Y-25850000D01*
X317200000Y-26650000D01*
X317198796Y-26674504D01*
X317195196Y-26698773D01*
X317189235Y-26722571D01*
X317180970Y-26745671D01*
X317170480Y-26767849D01*
X317157867Y-26788893D01*
X317143253Y-26808598D01*
X317126777Y-26826777D01*
X317108598Y-26843253D01*
X317088893Y-26857867D01*
X317067849Y-26870480D01*
X317045671Y-26880970D01*
X317022571Y-26889235D01*
X316998773Y-26895196D01*
X316974504Y-26898796D01*
X316950000Y-26900000D01*
X316125000Y-26900000D01*
X316100496Y-26898796D01*
X316076227Y-26895196D01*
X316052429Y-26889235D01*
X316029329Y-26880970D01*
X316007151Y-26870480D01*
X315986107Y-26857867D01*
X315966402Y-26843253D01*
X315948223Y-26826777D01*
X315931747Y-26808598D01*
X315917133Y-26788893D01*
X315904520Y-26767849D01*
X315894030Y-26745671D01*
X315885765Y-26722571D01*
X315879804Y-26698773D01*
X315876204Y-26674504D01*
X315875000Y-26650000D01*
X315875000Y-25850000D01*
X315876204Y-25825496D01*
X315879804Y-25801227D01*
X315885765Y-25777429D01*
X315894030Y-25754329D01*
X315904520Y-25732151D01*
X315917133Y-25711107D01*
X315931747Y-25691402D01*
X315948223Y-25673223D01*
X315966402Y-25656747D01*
X315986107Y-25642133D01*
X316007151Y-25629520D01*
X316029329Y-25619030D01*
X316052429Y-25610765D01*
X316076227Y-25604804D01*
X316100496Y-25601204D01*
X316125000Y-25600000D01*
X316950000Y-25600000D01*
X316974504Y-25601204D01*
X316974504Y-25601204D01*
G37*
D11*
X316537500Y-26250000D03*
M02*
