M48
; DRILL file {KiCad (5.1.2)-1} date 6/17/2019 5:48:04 AM
; FORMAT={-:-/ absolute / inch / decimal}
; #@! TF.CreationDate,2019-06-17T05:48:04-07:00
; #@! TF.GenerationSoftware,Kicad,Pcbnew,(5.1.2)-1
; #@! TF.FileFunction,Plated,1,2,PTH
FMAT,2
INCH
T1C0.0118
T2C0.0157
T3C0.0197
T4C0.0236
T5C0.0256
T6C0.0394
T7C0.0591
T8C0.1063
%
G90
G05
T1
X0.0569Y-2.6408
X0.0572Y-4.1867
X0.0572Y-2.9838
X0.0574Y-3.046
X0.0577Y-2.0443
X0.0579Y-2.58
X0.0583Y-4.5312
X0.0584Y-4.5955
X0.0587Y-3.7246
X0.0592Y-2.4367
X0.0595Y-4.9925
X0.0595Y-0.1933
X0.0604Y-3.8451
X0.0606Y-3.3877
X0.0609Y-2.4997
X0.061Y-2.2387
X0.0615Y-4.7317
X0.0624Y-4.6569
X0.0625Y-3.5187
X0.0626Y-4.8565
X0.0627Y-1.3027
X0.0631Y-1.9704
X0.0633Y-4.0476
X0.0634Y-1.8938
X0.0636Y-1.0326
X0.0637Y-3.1158
X0.0638Y-1.0996
X0.0638Y-3.1854
X0.0639Y-1.3616
X0.064Y-3.9154
X0.064Y-3.2541
X0.0647Y-3.7823
X0.0657Y-4.7978
X0.0658Y-1.5688
X0.0659Y-2.1633
X0.066Y-3.3126
X0.0663Y-4.3964
X0.0666Y-3.5762
X0.0667Y-2.0994
X0.0671Y-1.6314
X0.0675Y-1.1554
X0.0678Y-0.2465
X0.0678Y-1.2367
X0.0686Y-2.7804
X0.0687Y-4.9311
X0.0689Y-1.8285
X0.0689Y-3.9824
X0.069Y-3.6456
X0.0692Y-1.4242
X0.0697Y-3.4425
X0.0697Y-2.7095
X0.0697Y-1.5051
X0.0711Y-2.365
X0.0713Y-0.0912
X0.0713Y-4.3195
X0.0714Y-2.9029
X0.0715Y-1.7008
X0.0719Y-4.4565
X0.0721Y-0.0252
X0.0724Y-2.3022
X0.0726Y-1.7704
X0.0732Y-4.2531
X0.0734Y-2.8377
X0.0736Y-4.1179
X0.091Y-4.4922
X0.0912Y-1.5406
X0.0912Y-0.0456
X0.0916Y-4.22
X0.0921Y-4.0858
X0.0922Y-3.4202
X0.0928Y-2.7384
X0.0935Y-1.267
X0.0935Y-4.1565
X0.0947Y-4.0256
X0.0947Y-2.4814
X0.0948Y-1.8763
X0.0948Y-2.6
X0.0951Y-3.5563
X0.0955Y-4.83
X0.0959Y-1.1271
X0.0968Y-4.2869
X0.0987Y-3.221
X0.0991Y-2.5492
X0.0995Y-1.0585
X0.1003Y-2.2716
X0.1007Y-1.7983
X0.1009Y-2.2005
X0.1009Y-3.9547
X0.1012Y-1.9363
X0.1024Y-2.68
X0.1024Y-3.7493
X0.1037Y-4.9536
X0.1038Y-1.1932
X0.1039Y-4.8872
X0.1039Y-1.7325
X0.1047Y-2.0089
X0.1055Y-4.7631
X0.1057Y-3.0083
X0.1061Y-3.4836
X0.1065Y-3.2866
X0.1065Y-1.4676
X0.107Y-3.3538
X0.1244Y-1.8952
X0.1257Y-3.2451
X0.1265Y-1.093
X0.127Y-1.7626
X0.1273Y-2.5135
X0.1286Y-1.1613
X0.1289Y-3.3865
X0.1295Y-0.0201
X0.1299Y-2.5827
X0.1302Y-4.1939
X0.1312Y-4.7302
X0.1329Y-1.8384
X0.1345Y-4.1201
X0.136Y-3.3164
X0.1364Y-2.7046
X0.1366Y-2.6391
X0.1369Y-0.0841
X0.1378Y-4.9248
X0.1384Y-3.9857
X0.1393Y-3.4462
X0.1396Y-4.0612
X0.14Y-4.7892
X0.1404Y-4.865
X0.158Y-4.8948
X0.1591Y-4.0216
X0.1601Y-3.2107
X0.161Y-1.7364
X0.1622Y-2.6701
X0.163Y-1.8011
X0.1639Y-2.5407
X0.1646Y-4.1543
X0.1653Y-4.0804
X0.1656Y-0.0555
X0.167Y-3.2743
X0.1675Y-4.8254
X0.1706Y-2.6018
X0.1711Y-4.754
X0.1713Y-2.4765
X0.1715Y-1.1353
X0.1715Y-1.8765
X0.1717Y-3.4199
X0.1718Y-4.9597
X0.1737Y-3.3407
X0.1916Y-4.0498
X0.1939Y-2.501
X0.1959Y-0.0886
X0.1959Y-2.6462
X0.196Y-1.1666
X0.1963Y-4.116
X0.1973Y-3.3207
X0.1978Y-1.8964
X0.1982Y-1.8299
X0.1986Y-4.7915
X0.2002Y-4.8564
X0.201Y-4.7234
X0.2024Y-3.3774
X0.2029Y-1.7701
X0.2047Y-4.9302
X0.2062Y-0.0139
X0.2072Y-3.2458
X0.2075Y-3.9908
X0.208Y-2.5806
X0.225Y-4.0256
X0.2275Y-2.6786
X0.2277Y-1.7415
X0.2282Y-3.4157
X0.2285Y-1.8605
X0.229Y-4.154
X0.2297Y-3.3482
X0.2297Y-1.126
X0.2301Y-4.8323
X0.2301Y-3.2869
X0.2308Y-3.2189
X0.2314Y-4.8871
X0.2316Y-2.4689
X0.2322Y-1.7958
X0.2341Y-2.536
X0.2344Y-4.7664
X0.237Y-2.6086
X0.2372Y-4.9685
X0.2402Y-4.093
X0.259Y-2.5003
X0.2597Y-3.383
X0.2604Y-1.8969
X0.2615Y-4.1176
X0.2633Y-0.8259
X0.2642Y-3.988
X0.2654Y-2.5697
X0.2655Y-1.8351
X0.2666Y-1.1586
X0.2682Y-4.9235
X0.2683Y-4.866
X0.2693Y-3.3188
X0.2703Y-1.7712
X0.2711Y-3.2552
X0.2718Y-4.7944
X0.2741Y-4.048
X0.2752Y-2.638
X0.2924Y-2.5492
X0.2952Y-1.934
X0.2958Y-1.7981
X0.2967Y-3.3515
X0.2975Y-4.889
X0.2976Y-4.1532
X0.2988Y-2.6711
X0.3004Y-1.8757
X0.3007Y-3.4134
X0.3009Y-4.0217
X0.3028Y-2.6132
X0.3029Y-1.1212
X0.3042Y-4.8217
X0.307Y-3.2825
X0.3084Y-4.0826
X0.3271Y-4.0605
X0.3277Y-2.7157
X0.3278Y-4.195
X0.3296Y-1.7667
X0.3303Y-3.3141
X0.331Y-4.8608
X0.3314Y-1.8306
X0.3318Y-1.1559
X0.3365Y-4.9204
X0.3368Y-1.9101
X0.337Y-2.6472
X0.3383Y-1.9765
X0.3385Y-3.4543
X0.3392Y-1.2215
X0.3403Y-4.1293
X0.3407Y-2.5689
X0.341Y-0.1917
X0.3415Y-3.3857
X0.3608Y-4.0854
X0.362Y-0.2193
X0.3627Y-2.5355
X0.3636Y-4.0287
X0.3638Y-3.2761
X0.3641Y-4.8268
X0.3641Y-4.9022
X0.3642Y-4.161
X0.3699Y-2.6009
X0.3702Y-3.3481
X0.3705Y-1.8709
X0.3716Y-4.2209
X0.3728Y-2.6789
X0.3736Y-0.8582
X0.3743Y-1.1884
X0.3749Y-3.41
X0.375Y-3.4753
X0.3753Y-1.9292
X0.3758Y-1.8024
X0.3942Y-4.8528
X0.3987Y-0.8943
X0.4015Y-4.0514
X0.4017Y-1.765
X0.4073Y-1.8402
X0.408Y-3.3124
X0.4085Y-4.9268
X0.4096Y-2.5823
X0.4268Y-4.0213
X0.4293Y-2.5094
X0.4299Y-1.8074
X0.4301Y-3.2809
X0.4343Y-0.8666
X0.4375Y-4.8223
X0.4425Y-4.8887
X0.467Y-4.8662
X0.4684Y-4.9236
X0.4716Y-0.8947
X0.4735Y-0.9689
X0.4981Y-4.7191
X0.5004Y-0.9292
X0.5049Y-4.8211
X0.5085Y-0.8587
X0.509Y-4.9009
X0.5292Y-0.9629
X0.5294Y-3.3079
X0.5304Y-4.9304
X0.5305Y-2.7839
X0.5315Y-0.8919
X0.533Y-3.9879
X0.5336Y-0.8341
X0.5343Y-1.7385
X0.5357Y-1.8022
X0.5393Y-2.5467
X0.5403Y-3.2462
X0.5426Y-4.8543
X0.5433Y-2.4723
X0.5437Y-4.0576
X0.5612Y-3.2172
X0.5628Y-4.0902
X0.5634Y-4.7252
X0.5637Y-4.8887
X0.5644Y-2.0038
X0.5647Y-4.82
X0.5652Y-3.5137
X0.5675Y-2.6791
X0.5681Y-0.8573
X0.5686Y-4.2514
X0.5687Y-4.0241
X0.5696Y-2.7382
X0.571Y-1.7599
X0.5729Y-3.3479
X0.5737Y-1.2683
X0.5742Y-2.5672
X0.5751Y-0.0861
X0.5764Y-2.5076
X0.5773Y-1.8316
X0.578Y-3.2769
X0.5951Y-2.4818
X0.5952Y-1.132
X0.5965Y-4.931
X0.5966Y-3.9815
X0.5993Y-2.5417
X0.5993Y-4.1179
X0.5994Y-1.1981
X0.5999Y-3.7151
X0.602Y-1.7952
X0.6021Y-3.318
X0.6022Y-0.9001
X0.6031Y-2.7082
X0.6033Y-4.8652
X0.6042Y-4.0554
X0.6051Y-2.6031
X0.606Y-3.3835
X0.6061Y-2.9728
X0.6071Y-3.4419
X0.6086Y-2.7749
X0.6097Y-1.9345
X0.6103Y-0.1226
X0.6106Y-1.7392
X0.6106Y-3.2529
X0.6106Y-4.1864
X0.6112Y-1.8715
X0.6285Y-2.7364
X0.6292Y-4.7347
X0.6301Y-2.0318
X0.6307Y-0.0889
X0.632Y-4.0871
X0.6321Y-4.2966
X0.6326Y-1.8314
X0.6336Y-4.2239
X0.634Y-3.4741
X0.6342Y-3.4166
X0.6362Y-1.4574
X0.6362Y-4.1518
X0.6363Y-0.8554
X0.6364Y-1.2339
X0.6377Y-1.9032
X0.6403Y-3.2816
X0.6407Y-1.1557
X0.6413Y-2.5728
X0.6427Y-3.3438
X0.6433Y-2.6468
X0.6437Y-1.9758
X0.6444Y-0.1495
X0.6444Y-4.4983
X0.6631Y-3.4512
X0.6632Y-2.073
X0.6632Y-3.5121
X0.6635Y-4.0479
X0.6653Y-0.6901
X0.6659Y-1.8682
X0.6666Y-2.6802
X0.6666Y-4.1156
X0.6668Y-0.1916
X0.6671Y-1.8052
X0.6673Y-2.8471
X0.6674Y-2.9152
X0.6676Y-4.2578
X0.6678Y-4.3912
X0.6682Y-3.6435
X0.6684Y-1.2695
X0.669Y-4.3286
X0.6693Y-2.7694
X0.6695Y-4.4507
X0.6695Y-0.1185
X0.67Y-4.1887
X0.6701Y-1.194
X0.6708Y-0.8889
X0.6716Y-1.4034
X0.6719Y-2.6145
X0.6724Y-4.529
X0.6725Y-3.3734
X0.6731Y-3.5821
X0.6735Y-1.9349
X0.675Y-2.2105
X0.6756Y-1.9981
X0.676Y-3.724
X0.6769Y-3.3107
X0.6771Y-2.1319
X0.6781Y-2.5442
X0.6788Y-1.3312
X0.6964Y-0.2916
X0.6965Y-4.2239
X0.6965Y-2.1032
X0.6965Y-1.9058
X0.6967Y-4.293
X0.6969Y-0.3633
X0.6971Y-0.5982
X0.6971Y-2.809
X0.6972Y-2.1698
X0.6977Y-3.3539
X0.6978Y-4.4869
X0.6979Y-2.6444
X0.6985Y-0.2231
X0.6989Y-0.1484
X0.6998Y-0.9313
X0.6999Y-0.8256
X0.7007Y-3.2734
X0.7009Y-3.6173
X0.7018Y-1.9679
X0.7024Y-1.2314
X0.7024Y-2.5769
X0.7033Y-2.9426
X0.7038Y-1.2962
X0.7039Y-0.0906
X0.7048Y-3.5459
X0.7054Y-4.4207
X0.7056Y-1.3569
X0.7056Y-4.3567
X0.7061Y-2.7124
X0.7063Y-1.4349
X0.7067Y-0.6512
X0.708Y-3.4135
X0.7083Y-2.0309
X0.7084Y-4.5575
X0.7087Y-1.8389
X0.7091Y-4.0872
X0.7092Y-2.8699
X0.7101Y-4.1592
X0.7101Y-3.4755
X0.7125Y-3.6814
X0.7296Y-4.2587
X0.7304Y-1.3325
X0.7304Y-2.6672
X0.7307Y-1.257
X0.7308Y-3.5874
X0.7314Y-4.3278
X0.7317Y-0.2538
X0.7317Y-4.1162
X0.7331Y-1.8643
X0.7339Y-0.3213
X0.7349Y-2.7455
X0.7365Y-4.5981
X0.7369Y-3.3126
X0.737Y-3.444
X0.7372Y-4.056
X0.7375Y-4.3871
X0.7376Y-1.4628
X0.738Y-1.8075
X0.7383Y-2.0015
X0.7384Y-1.6077
X0.7391Y-2.9152
X0.7394Y-1.3937
X0.7395Y-4.1812
X0.74Y-0.1185
X0.7401Y-2.5456
X0.7403Y-4.4613
X0.7403Y-2.3441
X0.7405Y-4.5177
X0.7408Y-3.3817
X0.7409Y-3.5232
X0.741Y-2.075
X0.7419Y-1.9438
X0.7421Y-3.0791
X0.7422Y-0.6302
X0.7426Y-3.6528
X0.7428Y-0.1799
X0.7433Y-2.8514
X0.7448Y-2.603
X0.7454Y-2.1999
X0.7456Y-3.8459
X0.7456Y-2.1341
X0.7457Y-0.6983
X0.7461Y-3.7247
X0.763Y-1.5699
X0.7631Y-1.497
X0.7632Y-4.7552
X0.7632Y-4.9342
X0.7633Y-0.0855
X0.7633Y-0.2917
X0.7638Y-1.7679
X0.764Y-2.7078
X0.7642Y-4.0823
X0.7653Y-2.9417
X0.7656Y-3.6085
X0.7656Y-4.4935
X0.7657Y-1.6414
X0.7658Y-2.7684
X0.766Y-2.5828
X0.7662Y-3.1071
X0.7663Y-4.5532
X0.7664Y-4.4235
X0.7666Y-2.3651
X0.767Y-0.1588
X0.7671Y-1.839
X0.7679Y-4.282
X0.7681Y-2.2322
X0.7682Y-2.6335
X0.7684Y-1.3622
X0.7686Y-1.9015
X0.7687Y-4.0213
X0.7688Y-2.8837
X0.7688Y-4.6237
X0.7704Y-0.3505
X0.7704Y-4.1562
X0.771Y-3.687
X0.7712Y-3.4159
X0.7717Y-3.5517
X0.7733Y-3.0049
X0.7736Y-2.3062
X0.7737Y-3.4765
X0.7744Y-4.2268
X0.7747Y-1.2279
X0.7748Y-1.4384
X0.7754Y-1.9673
X0.7754Y-2.1063
X0.7759Y-3.2849
X0.7761Y-3.3544
X0.7763Y-4.3515
X0.7766Y-2.5092
X0.7768Y-3.753
X0.7772Y-0.6555
X0.7775Y-2.1752
X0.7778Y-2.0346
X0.778Y-1.2985
X0.778Y-3.8142
X0.7781Y-0.2173
X0.7783Y-3.8934
X0.7788Y-0.5858
X0.7991Y-0.3239
X0.8012Y-0.1919
X0.8044Y-0.3906
X0.8062Y-0.631
X0.8071Y-0.2527
X0.8096Y-0.1188
X0.8121Y-0.6906
X0.8351Y-0.2873
X0.8368Y-0.1616
X0.8372Y-0.0811
X0.8434Y-4.9281
X0.8458Y-0.6525
X0.8463Y-0.3624
X0.8467Y-0.427
X0.8468Y-0.2153
X0.865Y-0.1127
X0.8664Y-0.1801
X0.8676Y-0.3971
X0.8702Y-0.3234
X0.8726Y-0.4504
X0.8763Y-0.2509
X0.9059Y-0.0843
X0.9064Y-0.1554
X0.9065Y-4.9251
X0.9067Y-0.2182
X0.9078Y-0.3574
X0.91Y-0.4227
X0.9119Y-0.2924
X0.9123Y-0.4954
X0.9319Y-0.2483
X0.9383Y-0.1282
X0.9385Y-0.3289
X0.9396Y-0.1851
X0.941Y-0.4605
X0.9423Y-0.517
X0.9428Y-0.3853
X0.9456Y-0.8901
X0.9462Y-0.8344
X0.9655Y-0.5541
X0.9672Y-0.2215
X0.9693Y-0.3615
X0.9715Y-0.0814
X0.9716Y-0.8639
X0.9753Y-0.1486
X0.9764Y-0.43
X0.9778Y-0.9223
X0.9794Y-0.2861
X0.9806Y-0.4867
X0.9985Y-1.2324
X0.999Y-3.6108
X0.9991Y-4.2493
X0.9993Y-1.4299
X0.9996Y-3.3442
X0.9997Y-2.5376
X1.0Y-0.53
X1.0002Y-1.3697
X1.001Y-1.9291
X1.0016Y-0.5941
X1.0017Y-0.2625
X1.0017Y-2.2074
X1.0018Y-3.0066
X1.002Y-3.8816
X1.0023Y-0.1181
X1.0033Y-1.4993
X1.0035Y-2.6148
X1.0041Y-2.8773
X1.0043Y-0.4564
X1.0047Y-0.1856
X1.0054Y-3.4119
X1.0056Y-1.3004
X1.0058Y-1.5658
X1.006Y-3.8182
X1.0062Y-2.3474
X1.0073Y-4.1285
X1.0075Y-3.7467
X1.0077Y-3.5578
X1.0087Y-3.144
X1.0087Y-4.1816
X1.0091Y-1.8027
X1.0093Y-4.0468
X1.0094Y-1.6286
X1.0095Y-2.9468
X1.0098Y-0.3821
X1.0099Y-2.7387
X1.0103Y-2.0003
X1.0103Y-3.6822
X1.0105Y-3.0843
X1.0109Y-0.3198
X1.0114Y-2.2763
X1.012Y-2.6743
X1.012Y-2.1411
X1.0122Y-4.331
X1.0126Y-2.074
X1.0127Y-3.2862
X1.0134Y-1.8656
X1.0147Y-3.4757
X1.015Y-2.8023
X1.032Y-2.5792
X1.032Y-2.2317
X1.032Y-0.4886
X1.0325Y-1.3269
X1.0327Y-2.8408
X1.0335Y-1.5285
X1.0342Y-3.6579
X1.0353Y-0.0887
X1.0354Y-2.0395
X1.0357Y-3.5766
X1.0371Y-1.9672
X1.0372Y-1.2558
X1.0379Y-3.7139
X1.0382Y-0.4199
X1.0383Y-3.4542
X1.0384Y-3.1191
X1.039Y-2.9133
X1.039Y-1.8371
X1.0394Y-1.3946
X1.0395Y-1.8992
X1.0396Y-3.3082
X1.0397Y-2.9802
X1.0404Y-2.7756
X1.0405Y-3.7774
X1.0411Y-0.3589
X1.0425Y-1.4674
X1.0429Y-2.3703
X1.0429Y-4.2896
X1.0431Y-0.5503
X1.0439Y-2.1632
X1.0444Y-4.2184
X1.0451Y-2.6347
X1.0453Y-0.6316
X1.046Y-4.0918
X1.0463Y-2.0962
X1.0464Y-0.283
X1.0466Y-3.042
X1.0466Y-4.1618
X1.0471Y-3.8567
X1.0472Y-3.3761
X1.0475Y-0.2216
X1.0475Y-1.5973
X1.0476Y-2.2976
X1.0479Y-2.7042
X1.0479Y-0.1454
X1.0485Y-2.5086
X1.0486Y-3.519
X1.0658Y-2.0622
X1.0662Y-0.9958
X1.0667Y-4.0545
X1.0667Y-1.9396
X1.0674Y-0.1254
X1.0677Y-2.2727
X1.0678Y-0.9215
X1.0679Y-1.2255
X1.0691Y-3.1415
X1.0691Y-4.321
X1.0697Y-3.3556
X1.0701Y-2.4072
X1.0704Y-3.7533
X1.0704Y-2.3345
X1.0709Y-4.2624
X1.071Y-3.4859
X1.0712Y-2.1416
X1.0714Y-2.6151
X1.0717Y-2.5464
X1.0723Y-1.8767
X1.0728Y-1.0608
X1.0737Y-2.6691
X1.0738Y-3.6863
X1.0739Y-2.1996
X1.0739Y-1.7974
X1.0741Y-2.7371
X1.0743Y-2.936
X1.0747Y-0.1904
X1.0747Y-3.4151
X1.0763Y-3.2729
X1.0765Y-2.8844
X1.0785Y-4.1916
X1.0793Y-0.8558
X1.0793Y-4.1177
X1.0795Y-3.6189
X1.0795Y-1.9982
X1.0806Y-0.2599
X1.0813Y-3.0143
X1.0814Y-2.8042
X1.0814Y-3.5449
X1.0822Y-3.0762
X1.0992Y-3.7199
X1.0998Y-2.6355
X1.1008Y-2.2391
X1.101Y-2.712
X1.1016Y-1.9657
X1.1018Y-4.2175
X1.1022Y-1.903
X1.1026Y-4.019
X1.1027Y-4.2841
X1.1029Y-1.0202
X1.103Y-3.5865
X1.1036Y-2.7764
X1.1036Y-0.8958
X1.1037Y-0.1558
X1.1039Y-0.0814
X1.1044Y-3.1052
X1.1052Y-1.8339
X1.1053Y-2.0351
X1.1058Y-3.7805
X1.1061Y-2.9838
X1.107Y-0.216
X1.107Y-0.8189
X1.1076Y-4.149
X1.1084Y-1.7598
X1.1087Y-2.1779
X1.1088Y-4.0824
X1.1089Y-2.5769
X1.1094Y-4.866
X1.1097Y-2.5045
X1.1103Y-3.5239
X1.1103Y-3.0435
X1.1103Y-2.3066
X1.1105Y-0.9666
X1.111Y-3.4474
X1.1119Y-3.6509
X1.112Y-2.3764
X1.1132Y-2.8518
X1.1135Y-2.0997
X1.1136Y-1.0872
X1.1136Y-2.9134
X1.1149Y-3.3067
X1.1158Y-3.3825
X1.1331Y-3.558
X1.1332Y-2.5405
X1.1334Y-4.0534
X1.1335Y-2.0671
X1.1339Y-3.1469
X1.1342Y-3.2858
X1.1348Y-2.8773
X1.1349Y-4.1187
X1.1352Y-2.6047
X1.1355Y-3.6885
X1.1361Y-0.116
X1.1367Y-2.8039
X1.138Y-0.9352
X1.1387Y-4.1805
X1.1392Y-2.4139
X1.1395Y-3.34
X1.1396Y-0.4839
X1.14Y-3.0104
X1.1403Y-3.7506
X1.1404Y-2.0015
X1.1407Y-3.4139
X1.1411Y-4.2555
X1.1423Y-2.7446
X1.1425Y-3.6093
X1.1431Y-2.2701
X1.1436Y-1.4956
X1.1446Y-2.6794
X1.1447Y-1.874
X1.145Y-3.4821
X1.1457Y-2.9368
X1.1467Y-1.0635
X1.1467Y-0.9897
X1.1475Y-2.3428
X1.1479Y-0.1956
X1.1487Y-1.8004
X1.1487Y-1.9391
X1.1491Y-2.2044
X1.1492Y-2.1349
X1.1494Y-3.0805
X1.1494Y-0.8588
X1.1669Y-4.8626
X1.1669Y-1.9729
X1.1671Y-2.3135
X1.1678Y-3.8798
X1.1678Y-1.8327
X1.1682Y-0.7515
X1.1688Y-0.6626
X1.1688Y-0.5257
X1.169Y-1.6669
X1.1693Y-2.7789
X1.1694Y-1.6054
X1.1695Y-3.1164
X1.1699Y-1.4573
X1.17Y-1.7639
X1.1705Y-0.0822
X1.171Y-2.8497
X1.1711Y-1.5325
X1.1722Y-3.3105
X1.1722Y-0.8341
X1.1723Y-2.2463
X1.1724Y-4.084
X1.1727Y-1.033
X1.1733Y-2.7018
X1.1734Y-3.0488
X1.1743Y-2.9086
X1.1743Y-2.1662
X1.1744Y-2.035
X1.175Y-0.956
X1.1753Y-3.4473
X1.1759Y-2.5788
X1.1765Y-4.1501
X1.1767Y-2.3732
X1.1774Y-1.9041
X1.178Y-3.7848
X1.1799Y-2.6337
X1.1819Y-0.5889
X1.1824Y-3.6518
X1.1828Y-1.0947
X1.1828Y-4.2297
X1.1828Y-0.1618
X1.183Y-2.9797
X1.183Y-0.9014
X1.183Y-2.0997
X1.1831Y-3.7145
X1.1831Y-3.3873
X1.2002Y-2.6736
X1.2004Y-3.743
X1.2007Y-2.0098
X1.2013Y-0.1223
X1.2014Y-1.6385
X1.2015Y-4.1274
X1.2024Y-2.2761
X1.2025Y-0.8561
X1.2033Y-3.4119
X1.2034Y-0.9905
X1.2042Y-3.6909
X1.206Y-3.0077
X1.2062Y-0.788
X1.2073Y-1.0572
X1.2074Y-3.1494
X1.2077Y-2.0779
X1.2087Y-4.1867
X1.2088Y-1.5699
X1.209Y-1.933
X1.2093Y-2.3408
X1.2096Y-2.7403
X1.2102Y-1.8754
X1.2112Y-2.6039
X1.2116Y-2.1344
X1.2116Y-2.543
X1.2116Y-1.796
X1.213Y-0.5537
X1.2133Y-3.2889
X1.2135Y-0.9251
X1.214Y-3.3445
X1.2148Y-2.2061
X1.2161Y-0.4911
X1.2163Y-3.9152
X1.2164Y-1.4994
X1.2166Y-3.0857
X1.2166Y-0.6181
X1.2341Y-1.91
X1.2344Y-3.1172
X1.235Y-2.1062
X1.2352Y-3.3134
X1.2358Y-1.024
X1.2359Y-0.0817
X1.2362Y-4.5601
X1.2369Y-0.766
X1.2369Y-3.0376
X1.2369Y-0.9688
X1.2373Y-1.6731
X1.2384Y-3.376
X1.2386Y-3.6446
X1.2393Y-0.6559
X1.2396Y-4.8597
X1.2396Y-3.711
X1.2403Y-4.1471
X1.2408Y-2.5783
X1.2411Y-2.9715
X1.2415Y-0.8282
X1.2419Y-0.1553
X1.2426Y-1.9772
X1.2438Y-0.8984
X1.2438Y-1.0976
X1.2445Y-0.591
X1.2453Y-2.0382
X1.246Y-1.4623
X1.2465Y-3.9486
X1.2479Y-0.4487
X1.248Y-1.5295
X1.2481Y-1.8269
X1.2483Y-2.6435
X1.2485Y-1.7641
X1.2486Y-0.5157
X1.2488Y-1.5969
X1.2489Y-3.7888
X1.2489Y-2.2308
X1.2494Y-3.8875
X1.2498Y-2.1636
X1.2678Y-2.5477
X1.2681Y-1.9306
X1.2682Y-3.0719
X1.2685Y-2.6028
X1.2687Y-0.9909
X1.2692Y-1.9965
X1.2696Y-0.7861
X1.2698Y-4.1248
X1.2711Y-0.1146
X1.2721Y-0.622
X1.2721Y-3.6843
X1.2721Y-0.4828
X1.274Y-1.6339
X1.2757Y-4.666
X1.2778Y-1.5583
X1.2789Y-0.8672
X1.2796Y-1.0584
X1.2803Y-0.5549
X1.2824Y-3.0197
X1.2825Y-1.8007
X1.2829Y-1.4909
X1.2833Y-1.8711
X1.2841Y-0.9336
X1.3019Y-1.5323
X1.3022Y-0.5905
X1.3028Y-3.0496
X1.3043Y-0.0795
X1.3048Y-1.0218
X1.3064Y-2.6346
X1.3076Y-0.767
X1.3082Y-1.8379
X1.3085Y-3.1116
X1.3086Y-1.9016
X1.3087Y-0.516
X1.3091Y-2.5762
X1.3099Y-0.9653
X1.31Y-1.6034
X1.311Y-0.8189
X1.3112Y-2.9804
X1.312Y-0.8955
X1.3122Y-1.9623
X1.3128Y-1.0946
X1.313Y-1.6637
X1.3139Y-1.7609
X1.3141Y-3.652
X1.3144Y-4.8658
X1.317Y-0.1562
X1.3174Y-0.656
X1.3358Y-4.6592
X1.3364Y-0.9976
X1.3374Y-0.9245
X1.3387Y-1.869
X1.3396Y-1.571
X1.3402Y-0.7901
X1.341Y-1.8013
X1.341Y-1.0661
X1.3415Y-0.8681
X1.3417Y-0.619
X1.3426Y-0.1824
X1.3434Y-1.2243
X1.3437Y-0.1181
X1.3441Y-2.5106
X1.3447Y-2.2444
X1.3448Y-4.1187
X1.3456Y-2.613
X1.3466Y-2.3791
X1.3468Y-0.5502
X1.3484Y-2.2975
X1.3488Y-1.6279
X1.3689Y-1.1021
X1.3699Y-0.7515
X1.371Y-1.8334
X1.3713Y-2.3334
X1.3714Y-1.665
X1.3717Y-3.474
X1.3734Y-0.655
X1.3739Y-1.9046
X1.3751Y-4.8622
X1.3754Y-0.8939
X1.3779Y-2.4119
X1.379Y-1.7634
X1.379Y-0.5237
X1.3805Y-1.5999
X1.381Y-2.2687
X1.3811Y-0.9665
X1.3812Y-0.0881
X1.3817Y-2.5357
X1.3823Y-1.0257
X1.3828Y-0.8275
X1.3829Y-1.5361
X1.3848Y-0.5986
X1.4024Y-2.3709
X1.4025Y-0.5604
X1.4028Y-1.0537
X1.4033Y-0.9871
X1.4046Y-2.305
X1.405Y-0.7973
X1.4051Y-0.9201
X1.4056Y-4.5514
X1.4069Y-4.129
X1.4075Y-3.0033
X1.4086Y-0.8578
X1.4088Y-1.8754
X1.4099Y-2.509
X1.4118Y-2.2391
X1.4136Y-1.7991
X1.4138Y-0.6166
X1.4142Y-1.5715
X1.4177Y-1.6303
X1.4182Y-4.6542
X1.4384Y-2.4143
X1.4387Y-4.8563
X1.439Y-2.2766
X1.4423Y-2.6819
X1.4425Y-2.347
X1.4449Y-1.8415
X1.4453Y-3.106
X1.4453Y-1.9059
X1.447Y-2.5373
X1.4511Y-3.049
X1.4721Y-1.8629
X1.4752Y-4.5543
X1.4752Y-2.4997
X1.4776Y-3.1431
X1.4782Y-3.0842
X1.4822Y-2.298
X1.4822Y-4.6591
X1.4831Y-2.3695
X1.485Y-3.0149
X1.5037Y-1.9058
X1.5047Y-3.9787
X1.506Y-3.2821
X1.5074Y-2.3444
X1.5078Y-3.1169
X1.5079Y-1.965
X1.5116Y-2.5338
X1.5134Y-3.9143
X1.5157Y-4.8685
X1.5173Y-2.2659
X1.5183Y-2.4138
X1.5185Y-3.0508
X1.5371Y-0.8986
X1.5375Y-3.1395
X1.5387Y-4.5529
X1.5395Y-1.9397
X1.5408Y-2.3097
X1.5411Y-1.5006
X1.542Y-0.6195
X1.5433Y-0.9651
X1.5435Y-2.5087
X1.5452Y-0.5548
X1.5453Y-1.0328
X1.5454Y-3.0191
X1.5459Y-1.5617
X1.546Y-0.8236
X1.5492Y-2.3788
X1.5497Y-1.6306
X1.5497Y-3.9538
X1.55Y-3.3193
X1.5501Y-0.4908
X1.5504Y-0.7547
X1.553Y-3.0758
X1.57Y-3.78
X1.5707Y-3.9115
X1.5708Y-1.1983
X1.5714Y-1.2701
X1.5715Y-0.2896
X1.5718Y-3.8501
X1.572Y-1.0664
X1.5737Y-0.5165
X1.5737Y-1.66
X1.5739Y-0.598
X1.5744Y-3.2831
X1.5753Y-0.787
X1.5754Y-1.132
X1.5756Y-0.9942
X1.5759Y-3.1075
X1.5765Y-0.159
X1.5772Y-1.5374
X1.5772Y-2.2746
X1.5804Y-3.9883
X1.5805Y-0.2294
X1.582Y-0.0935
X1.5825Y-2.5458
X1.5827Y-0.652
X1.5834Y-3.049
X1.5836Y-2.3452
X1.5841Y-1.5948
X1.5842Y-1.4626
X1.5843Y-0.9331
X1.5854Y-0.8588
X1.5864Y-2.4029
X1.6037Y-3.9506
X1.6042Y-0.2557
X1.6042Y-1.0278
X1.6042Y-1.6342
X1.6061Y-0.1245
X1.6062Y-3.8262
X1.6072Y-0.49
X1.6075Y-2.2986
X1.6077Y-0.9664
X1.6077Y-0.631
X1.6085Y-1.5636
X1.609Y-3.0142
X1.6095Y-1.2364
X1.6106Y-1.1661
X1.611Y-1.7613
X1.6111Y-0.8854
X1.6112Y-3.7492
X1.6114Y-1.0963
X1.6126Y-3.8885
X1.6126Y-0.8191
X1.6137Y-0.7624
X1.6143Y-0.1947
X1.6153Y-1.4954
X1.6172Y-3.1475
X1.6186Y-3.0867
X1.6196Y-0.5497
X1.6199Y-2.3733
X1.6376Y-3.9278
X1.6377Y-0.0893
X1.6384Y-1.5267
X1.6388Y-0.4533
X1.6391Y-1.5938
X1.6403Y-0.9324
X1.6406Y-1.0544
X1.6408Y-0.2892
X1.6413Y-1.6597
X1.6417Y-0.2203
X1.6419Y-0.162
X1.6423Y-3.0405
X1.6432Y-1.19
X1.6446Y-3.9927
X1.645Y-1.1268
X1.6463Y-1.7988
X1.6468Y-3.7152
X1.6476Y-0.8603
X1.6482Y-0.9954
X1.6489Y-1.2704
X1.6501Y-0.6557
X1.6507Y-3.1187
X1.6515Y-1.4652
X1.6517Y-3.8491
X1.6517Y-0.79
X1.6518Y-0.5979
X1.6534Y-3.7799
X1.6538Y-0.5319
X1.671Y-1.5616
X1.6721Y-3.4123
X1.6722Y-1.4327
X1.6732Y-3.0152
X1.6737Y-4.8555
X1.6738Y-1.7754
X1.6741Y-1.6358
X1.6742Y-1.5005
X1.6745Y-1.1687
X1.6745Y-0.4872
X1.6745Y-0.3941
X1.6746Y-0.1132
X1.676Y-0.1853
X1.6768Y-4.555
X1.677Y-3.9539
X1.6772Y-3.8122
X1.6776Y-0.8292
X1.6782Y-4.6612
X1.6786Y-0.5648
X1.6793Y-3.08
X1.6794Y-0.8983
X1.6804Y-0.9612
X1.6811Y-3.747
X1.6811Y-0.2576
X1.6817Y-1.0323
X1.6818Y-1.2953
X1.6819Y-3.1417
X1.6833Y-1.2331
X1.6842Y-0.7668
X1.6852Y-1.099
X1.6854Y-0.6176
X1.6857Y-3.8857
X1.6858Y-1.3651
X1.686Y-0.3188
X1.7048Y-2.0302
X1.7049Y-3.382
X1.7058Y-1.3917
X1.7063Y-3.0446
X1.7067Y-0.0821
X1.7069Y-0.9966
X1.7078Y-0.5296
X1.7079Y-0.1548
X1.708Y-3.7127
X1.7083Y-1.4715
X1.7097Y-1.1324
X1.7097Y-1.1892
X1.7098Y-0.8566
X1.7098Y-0.9293
X1.7103Y-0.6656
X1.7109Y-0.584
X1.7116Y-2.2384
X1.7118Y-3.7908
X1.7123Y-1.524
X1.7125Y-1.3389
X1.7131Y-2.376
X1.7132Y-2.3114
X1.714Y-0.8004
X1.715Y-3.8497
X1.7152Y-1.2574
X1.7155Y-0.2183
X1.7157Y-1.7955
X1.7161Y-0.4234
X1.7162Y-0.3552
X1.7172Y-0.2854
X1.7172Y-3.9129
X1.7185Y-2.534
X1.719Y-1.0626
X1.7192Y-1.5984
X1.7193Y-3.105
X1.72Y-3.9935
X1.721Y-1.6635
X1.7382Y-4.6593
X1.7387Y-1.5644
X1.739Y-0.8181
X1.7404Y-3.8146
X1.7405Y-0.8966
X1.7406Y-3.9598
X1.7409Y-4.8574
X1.7411Y-2.5013
X1.7415Y-1.2997
X1.7425Y-1.496
X1.7429Y-0.1923
X1.743Y-2.4054
X1.7431Y-1.3611
X1.7431Y-3.7456
X1.7431Y-1.1583
X1.744Y-2.2715
X1.7442Y-0.9589
X1.7442Y-0.4484
X1.7455Y-1.7663
X1.7457Y-3.8916
X1.7459Y-0.3277
X1.7465Y-0.2488
X1.7467Y-3.3401
X1.7471Y-1.0266
X1.7476Y-0.6244
X1.748Y-0.396
X1.7484Y-1.0929
X1.7496Y-0.1182
X1.7507Y-1.2294
X1.7509Y-2.3345
X1.7519Y-1.6329
X1.7523Y-1.4309
X1.7524Y-4.5539
X1.7527Y-4.2494
X1.7533Y-0.5613
X1.7535Y-2.006
X1.7546Y-3.4116
X1.7546Y-1.8385
X1.7547Y-0.7661
X1.7547Y-2.5794
X1.7726Y-3.4559
X1.7733Y-1.2598
X1.7744Y-1.5957
X1.7753Y-3.8592
X1.7754Y-1.662
X1.7754Y-1.3237
X1.7759Y-0.7938
X1.7766Y-1.4704
X1.7772Y-0.4178
X1.7778Y-0.8522
X1.7778Y-0.6549
X1.7787Y-0.0922
X1.7788Y-0.2842
X1.7791Y-1.5255
X1.7792Y-2.3766
X1.7803Y-1.0005
X1.7811Y-2.5415
X1.7814Y-1.2002
X1.7817Y-0.5829
X1.7822Y-3.9136
X1.7822Y-3.3759
X1.783Y-2.2392
X1.7832Y-1.799
X1.7833Y-2.3087
X1.7846Y-4.2278
X1.7849Y-1.1238
X1.7854Y-0.352
X1.7856Y-3.7903
X1.7857Y-1.3895
X1.7857Y-0.156
X1.7859Y-1.0638
X1.786Y-0.9223
X1.7861Y-0.4918
X1.7865Y-1.9341
X1.7866Y-1.8678
X1.7872Y-4.156
X1.7884Y-0.2134
X1.8054Y-3.0452
X1.8058Y-4.1284
X1.8058Y-0.3284
X1.8058Y-3.4138
X1.8064Y-2.5806
X1.8076Y-1.9655
X1.8082Y-0.2522
X1.8085Y-2.4052
X1.8094Y-0.8254
X1.8099Y-1.8374
X1.8105Y-0.8958
X1.8106Y-2.9784
X1.811Y-2.0402
X1.8111Y-2.3409
X1.8113Y-2.5135
X1.8118Y-1.9006
X1.8119Y-0.5278
X1.8122Y-4.2596
X1.8126Y-3.8245
X1.8134Y-1.1636
X1.8137Y-0.3809
X1.8148Y-3.1193
X1.815Y-1.2264
X1.8152Y-0.9528
X1.8155Y-4.1876
X1.8156Y-0.1276
X1.8156Y-2.7769
X1.8159Y-0.6209
X1.8165Y-1.0335
X1.8166Y-1.3024
X1.8176Y-4.6523
X1.8176Y-0.7672
X1.8178Y-4.5599
X1.8181Y-0.1835
X1.8189Y-0.4572
X1.8197Y-3.8787
X1.8199Y-3.4858
X1.8207Y-4.8652
X1.8212Y-1.1027
X1.8213Y-1.7718
X1.8215Y-2.2729
X1.8389Y-1.2641
X1.8392Y-3.0859
X1.8392Y-2.3682
X1.8393Y-0.7859
X1.8411Y-3.7806
X1.8416Y-0.6523
X1.8416Y-4.2168
X1.8427Y-0.2134
X1.8432Y-4.4607
X1.8435Y-0.4863
X1.846Y-1.0015
X1.8462Y-1.0545
X1.8479Y-1.9299
X1.8482Y-3.1413
X1.8485Y-2.3121
X1.8488Y-1.126
X1.8489Y-0.5519
X1.849Y-4.1571
X1.8491Y-1.8027
X1.8506Y-3.8521
X1.8514Y-3.0188
X1.8515Y-2.0058
X1.8516Y-0.1497
X1.8519Y-2.5396
X1.8523Y-0.0884
X1.8525Y-1.8619
X1.8526Y-1.1961
X1.8527Y-0.8621
X1.8528Y-4.2963
X1.8531Y-2.1977
X1.8535Y-0.2852
X1.8555Y-0.9214
X1.8726Y-1.0955
X1.873Y-0.1271
X1.8731Y-2.7092
X1.8741Y-2.2325
X1.8744Y-3.2771
X1.875Y-2.5665
X1.8759Y-4.8606
X1.8759Y-4.3933
X1.8772Y-4.1923
X1.8774Y-2.0369
X1.8777Y-1.1544
X1.878Y-2.7703
X1.8791Y-2.3424
X1.8797Y-1.8957
X1.8807Y-1.8269
X1.8811Y-4.3303
X1.8816Y-1.9735
X1.8819Y-4.1148
X1.8821Y-4.2479
X1.8822Y-2.1721
X1.8823Y-0.194
X1.8828Y-0.8277
X1.8829Y-2.1024
X1.8836Y-2.9836
X1.8837Y-0.9006
X1.8843Y-3.1113
X1.8843Y-0.9577
X1.8853Y-1.0344
X1.8855Y-4.66
X1.8857Y-3.8132
X1.8862Y-4.5523
X1.8863Y-2.5034
X1.887Y-2.4
X1.8873Y-0.7632
X1.8884Y-0.5298
X1.8884Y-0.5866
X1.8886Y-3.0456
X1.8887Y-2.6342
X1.8893Y-1.7697
X1.9061Y-1.8726
X1.9064Y-2.3753
X1.9068Y-2.1988
X1.907Y-1.8063
X1.9079Y-2.6684
X1.9082Y-4.2259
X1.9088Y-0.9286
X1.9095Y-3.0174
X1.9102Y-1.938
X1.9104Y-2.2761
X1.9108Y-0.0906
X1.9108Y-2.0786
X1.911Y-1.672
X1.9123Y-0.5519
X1.9126Y-1.5368
X1.913Y-1.4692
X1.9131Y-4.4233
X1.9136Y-2.0061
X1.9136Y-2.612
X1.914Y-1.1244
X1.9151Y-4.2828
X1.9152Y-4.3618
X1.9153Y-0.7907
X1.9159Y-1.0643
X1.9166Y-0.6173
X1.9167Y-3.3117
X1.9167Y-0.4931
X1.9168Y-2.1443
X1.9182Y-0.9873
X1.9183Y-0.8651
X1.9184Y-4.1576
X1.9192Y-3.1538
X1.9193Y-1.5927
X1.9195Y-0.1553
X1.9216Y-2.5467
X1.9219Y-3.0783
X1.9221Y-2.7349
X1.9403Y-1.6375
X1.9404Y-2.5774
X1.9407Y-2.0391
X1.9409Y-2.972
X1.9417Y-2.51
X1.9417Y-1.4977
X1.9417Y-1.9772
X1.9432Y-2.1004
X1.9436Y-0.122
X1.9437Y-1.0238
X1.9438Y-2.3081
X1.944Y-1.7728
X1.9443Y-4.3185
X1.9445Y-4.5653
X1.945Y-1.574
X1.9466Y-3.1109
X1.9471Y-4.254
X1.9472Y-2.84
X1.9483Y-2.4039
X1.9491Y-4.6623
X1.9495Y-3.2831
X1.9497Y-1.9073
X1.95Y-4.1137
X1.9504Y-2.2376
X1.9509Y-1.8294
X1.951Y-2.9144
X1.9511Y-1.1024
X1.9513Y-2.7808
X1.9518Y-4.8679
X1.9525Y-1.1677
X1.9539Y-4.3878
X1.9543Y-2.7028
X1.9545Y-2.1668
X1.9554Y-3.0386
X1.9554Y-4.1827
X1.9555Y-2.6434
X1.974Y-2.3365
X1.9743Y-4.2205
X1.9747Y-3.0729
X1.9748Y-1.6722
X1.9751Y-0.1616
X1.9751Y-2.5328
X1.9752Y-1.527
X1.9761Y-1.8639
X1.9772Y-2.0043
X1.9773Y-2.9526
X1.9777Y-3.0042
X1.9785Y-2.8729
X1.9792Y-2.2683
X1.98Y-1.7955
X1.9803Y-1.5958
X1.9804Y-2.805
X1.9822Y-4.297
X1.9826Y-1.1354
X1.9842Y-2.6114
X1.9848Y-1.4643
X1.9851Y-3.1464
X1.9853Y-4.5252
X1.9853Y-2.1456
X1.986Y-1.0648
X1.9862Y-4.353
X1.9868Y-3.7205
X1.9872Y-4.1469
X1.9873Y-2.0634
X1.9874Y-2.2117
X1.9878Y-0.0899
X1.9879Y-2.7465
X1.9886Y-4.0894
X1.9887Y-3.319
X1.99Y-1.9294
X1.9901Y-2.6759
X2.007Y-3.1064
X2.0074Y-4.4888
X2.0077Y-2.6382
X2.0078Y-0.4931
X2.0088Y-2.3667
X2.0092Y-0.8604
X2.0095Y-4.0591
X2.0097Y-4.253
X2.0103Y-3.7441
X2.0104Y-1.6282
X2.0119Y-1.9768
X2.0126Y-1.1589
X2.0128Y-2.5721
X2.013Y-3.5222
X2.0131Y-4.3257
X2.014Y-2.9129
X2.0143Y-2.1095
X2.0152Y-0.1221
X2.0155Y-2.7769
X2.0155Y-1.7593
X2.0163Y-2.3006
X2.0163Y-4.8548
X2.0166Y-1.8266
X2.0167Y-2.8352
X2.0167Y-3.0519
X2.0168Y-1.9046
X2.0177Y-4.6657
X2.0178Y-0.6211
X2.018Y-2.7136
X2.0181Y-0.7848
X2.0181Y-2.972
X2.0185Y-1.4984
X2.019Y-2.5109
X2.0191Y-2.2372
X2.0193Y-2.0381
X2.0208Y-4.1265
X2.0211Y-3.286
X2.0213Y-2.173
X2.0215Y-4.1847
X2.0218Y-1.5575
X2.022Y-1.0955
X2.0237Y-0.5543
X2.0409Y-0.5171
X2.0411Y-0.0843
X2.0412Y-2.2732
X2.0437Y-4.0201
X2.0439Y-1.5345
X2.0442Y-2.7447
X2.0448Y-2.9492
X2.0456Y-2.4087
X2.0458Y-1.6721
X2.0462Y-1.8606
X2.0464Y-2.8756
X2.0468Y-4.0925
X2.0468Y-1.1282
X2.0474Y-2.1458
X2.048Y-0.8269
X2.0485Y-2.5409
X2.0486Y-3.0076
X2.0487Y-1.598
X2.0495Y-1.9297
X2.05Y-1.9947
X2.05Y-3.4478
X2.0513Y-2.8154
X2.0514Y-4.2973
X2.0515Y-2.0762
X2.0521Y-1.7951
X2.0523Y-4.1547
X2.0526Y-2.6698
X2.0528Y-4.2262
X2.0529Y-3.3083
X2.0541Y-3.0757
X2.0545Y-2.6052
X2.0554Y-3.3739
X2.0557Y-2.3326
X2.056Y-3.725
X2.0562Y-3.1545
X2.0564Y-2.2084
X2.0568Y-4.4554
X2.0572Y-0.6542
X2.0574Y-0.9014
X2.0751Y-2.5134
X2.0754Y-1.2274
X2.0767Y-1.5682
X2.0776Y-2.98
X2.0777Y-2.9077
X2.0783Y-1.7745
X2.0785Y-4.1189
X2.0787Y-2.3023
X2.0789Y-2.649
X2.0789Y-0.9222
X2.0793Y-2.1084
X2.0793Y-1.1699
X2.0797Y-2.0394
X2.0799Y-3.042
X2.0799Y-3.4212
X2.0802Y-2.7712
X2.0812Y-4.4874
X2.0814Y-0.7981
X2.0815Y-1.9668
X2.0825Y-4.2599
X2.0837Y-3.3398
X2.0841Y-4.1937
X2.0841Y-2.5731
X2.0842Y-0.8594
X2.0858Y-1.835
X2.0871Y-1.9044
X2.0877Y-2.2461
X2.0878Y-3.2734
X2.0884Y-1.6297
X2.0892Y-2.3661
X2.09Y-4.0552
X2.0908Y-2.8497
X2.0908Y-3.1191
X2.0909Y-2.1703
X2.091Y-2.7132
X2.1085Y-2.6838
X2.1086Y-4.4551
X2.1092Y-2.7348
X2.1095Y-1.9363
X2.1096Y-1.9953
X2.1099Y-2.266
X2.1105Y-1.7964
X2.1117Y-0.2262
X2.1123Y-2.1319
X2.1123Y-1.5257
X2.1123Y-2.8721
X2.1133Y-2.9408
X2.1136Y-3.9899
X2.1137Y-4.149
X2.1143Y-2.3367
X2.1145Y-2.8138
X2.1148Y-0.9592
X2.1153Y-1.6059
X2.1164Y-0.8187
X2.1167Y-4.222
X2.1169Y-4.0825
X2.1174Y-2.068
X2.1188Y-2.6033
X2.1191Y-2.5412
X2.1192Y-3.0185
X2.1193Y-0.8952
X2.1194Y-2.4078
X2.1197Y-0.5289
X2.1205Y-3.153
X2.1209Y-2.2055
X2.1215Y-3.3815
X2.1223Y-1.1881
X2.1233Y-1.6593
X2.1236Y-3.0808
X2.1239Y-3.3114
X2.1245Y-1.8687
X2.1415Y-3.9518
X2.1422Y-2.9097
X2.1428Y-0.6547
X2.1436Y-2.7793
X2.1443Y-4.0166
X2.1446Y-3.2743
X2.1454Y-0.9959
X2.1458Y-4.558
X2.1466Y-2.65
X2.1476Y-4.66
X2.1482Y-1.5598
X2.1483Y-2.8451
X2.1492Y-0.8004
X2.1493Y-0.9237
X2.1495Y-2.5122
X2.1507Y-2.7136
X2.1512Y-2.2466
X2.1518Y-4.8589
X2.1537Y-3.1141
X2.1544Y-2.3032
X2.1546Y-3.0479
X2.1546Y-0.8546
X2.1547Y-2.0972
X2.1547Y-2.1684
X2.1549Y-3.4173
X2.1553Y-1.6279
X2.1556Y-4.1916
X2.1558Y-1.8937
X2.1558Y-2.3809
X2.1563Y-1.7701
X2.1565Y-4.1244
X2.1566Y-4.4835
X2.1569Y-3.3531
X2.1572Y-2.0297
X2.1574Y-2.5786
X2.1575Y-1.8282
X2.1577Y-1.9673
X2.1579Y-2.9776
X2.1751Y-1.8063
X2.1763Y-3.3824
X2.1764Y-2.6772
X2.1777Y-2.2056
X2.1782Y-1.5288
X2.179Y-2.2755
X2.1795Y-2.1294
X2.1798Y-0.8314
X2.18Y-3.0854
X2.1805Y-1.8675
X2.1808Y-3.3143
X2.1809Y-0.7528
X2.1817Y-2.0673
X2.1821Y-3.1472
X2.1826Y-2.7429
X2.1826Y-0.9684
X2.183Y-2.6019
X2.183Y-4.0549
X2.183Y-2.5413
X2.1836Y-2.9371
X2.1844Y-1.0297
X2.1855Y-1.9432
X2.1861Y-2.0008
X2.1866Y-2.8108
X2.1882Y-1.5914
X2.1882Y-2.8813
X2.189Y-0.891
X2.1892Y-1.6747
X2.191Y-4.1624
X2.1914Y-3.0086
X2.1915Y-0.6219
X2.2098Y-2.8496
X2.2102Y-1.6339
X2.2108Y-2.5667
X2.2111Y-1.907
X2.2146Y-0.8006
X2.2153Y-1.0607
X2.2156Y-2.7738
X2.216Y-2.7112
X2.2163Y-0.651
X2.2165Y-0.8531
X2.2178Y-0.9236
X2.2183Y-3.7586
X2.2184Y-1.84
X2.2185Y-2.9192
X2.2189Y-3.0493
X2.2194Y-0.9937
X2.2199Y-1.7749
X2.2218Y-4.8595
X2.2227Y-3.1074
X2.2231Y-2.65
X2.2236Y-2.97
X2.2238Y-0.5963
X2.2252Y-1.9677
X2.2428Y-1.9351
X2.2432Y-0.8314
X2.2449Y-1.8089
X2.2452Y-2.8101
X2.2455Y-2.6776
X2.2456Y-2.7401
X2.2459Y-0.8963
X2.247Y-1.0198
X2.2494Y-0.7621
X2.2499Y-2.6165
X2.2501Y-2.5398
X2.2508Y-0.5543
X2.2512Y-1.8615
X2.2517Y-3.0065
X2.2537Y-2.9493
X2.254Y-0.6171
X2.2552Y-2.8789
X2.2557Y-3.1428
X2.256Y-3.0736
X2.2582Y-0.9651
X2.2762Y-3.1199
X2.2764Y-4.6671
X2.2774Y-1.8335
X2.2779Y-2.635
X2.2794Y-0.8621
X2.2797Y-2.8456
X2.2799Y-2.7171
X2.2801Y-2.311
X2.2805Y-2.7821
X2.2805Y-2.5721
X2.2805Y-0.9914
X2.2812Y-1.0633
X2.2819Y-3.0386
X2.2822Y-0.653
X2.2845Y-0.5236
X2.2862Y-0.9333
X2.2874Y-2.2381
X2.2879Y-1.5033
X2.2882Y-4.8633
X2.2882Y-2.9155
X2.2885Y-2.5042
X2.2886Y-4.5528
X2.2888Y-1.7748
X2.2892Y-2.3689
X2.2894Y-1.9038
X2.2896Y-4.4932
X2.2905Y-3.4899
X2.2922Y-0.7908
X2.2924Y-0.5952
X2.2927Y-2.9843
X2.3099Y-2.8717
X2.3106Y-4.5232
X2.3118Y-1.1009
X2.3127Y-2.7344
X2.3138Y-3.1386
X2.3141Y-0.6272
X2.3145Y-1.7996
X2.3147Y-0.7631
X2.3148Y-2.274
X2.3149Y-2.8131
X2.3171Y-1.4643
X2.3177Y-2.6058
X2.3181Y-2.6728
X2.3187Y-2.3374
X2.3189Y-1.5327
X2.3195Y-1.8713
X2.3199Y-0.9606
X2.32Y-3.0092
X2.3204Y-0.5583
X2.3205Y-0.9018
X2.322Y-3.0731
X2.3229Y-2.9475
X2.323Y-1.2616
X2.324Y-2.4055
X2.3256Y-2.535
X2.3258Y-0.825
X2.3262Y-1.0227
X2.3432Y-2.3684
X2.3434Y-0.5279
X2.3436Y-4.5618
X2.3438Y-2.2308
X2.3442Y-2.2988
X2.3442Y-2.9816
X2.3443Y-0.9944
X2.3443Y-1.0604
X2.3448Y-1.4968
X2.3452Y-0.7912
X2.3455Y-0.1566
X2.3458Y-0.5868
X2.347Y-2.6362
X2.3479Y-3.0498
X2.3493Y-3.106
X2.3494Y-2.5687
X2.3509Y-2.7124
X2.3519Y-4.6648
X2.352Y-0.6552
X2.3522Y-2.5045
X2.3534Y-0.9338
X2.3535Y-0.8558
X2.3542Y-1.8327
X2.3543Y-2.903
X2.3545Y-4.8575
X2.3574Y-2.8494
X2.3578Y-2.7735
X2.3579Y-1.8967
X2.358Y-1.131
X2.3585Y-1.5718
X2.3589Y-1.1921
X2.3598Y-0.2247
X2.3793Y-0.9591
X2.3794Y-1.8724
X2.3795Y-2.2671
X2.3799Y-1.4594
X2.38Y-1.0257
X2.3805Y-0.6289
X2.3814Y-1.8013
X2.3814Y-2.601
X2.3815Y-2.3458
X2.3827Y-0.5578
X2.3828Y-1.536
X2.3833Y-1.5923
X2.3834Y-0.7591
X2.3843Y-2.6789
X2.385Y-0.833
X2.3878Y-0.8913
X2.3885Y-1.167
X2.389Y-1.2335
X2.3898Y-2.4067
X2.3903Y-1.1006
X2.3905Y-2.7494
X2.3929Y-4.5183
X2.3929Y-2.5459
X2.4112Y-1.4025
X2.4115Y-2.5025
X2.4129Y-0.5843
X2.413Y-0.8643
X2.4137Y-0.9892
X2.4141Y-0.793
X2.4143Y-0.9197
X2.4176Y-1.6251
X2.4179Y-1.1333
X2.4181Y-2.7095
X2.4189Y-1.3343
X2.4199Y-1.9001
X2.4201Y-0.6582
X2.4201Y-2.3792
X2.4202Y-1.2576
X2.4214Y-1.8347
X2.4217Y-4.6626
X2.4219Y-2.5665
X2.4223Y-1.0565
X2.4225Y-1.5611
X2.4237Y-4.8607
X2.4237Y-2.6492
X2.4252Y-4.0877
X2.4254Y-0.5305
X2.4255Y-1.2013
X2.4263Y-4.5648
X2.4265Y-1.5013
X2.4272Y-2.3073
X2.4451Y-1.9399
X2.4453Y-0.8319
X2.4462Y-0.9533
X2.4468Y-4.5262
X2.4469Y-3.7174
X2.4473Y-2.6802
X2.4474Y-0.756
X2.4477Y-1.8607
X2.448Y-2.6127
X2.4486Y-1.3006
X2.4494Y-3.8924
X2.4502Y-0.5587
X2.4509Y-1.0254
X2.4512Y-2.3376
X2.4517Y-2.3998
X2.4534Y-0.8923
X2.4536Y-1.0983
X2.4548Y-1.1701
X2.4549Y-0.6215
X2.4556Y-1.6059
X2.4557Y-1.5362
X2.4568Y-3.9552
X2.4571Y-1.2306
X2.4573Y-2.9771
X2.4573Y-1.3646
X2.4579Y-2.2654
X2.459Y-1.672
X2.4599Y-2.5355
X2.4607Y-1.4257
X2.4791Y-0.6537
X2.4794Y-1.5654
X2.4799Y-0.5972
X2.4801Y-1.3231
X2.4802Y-3.9157
X2.4802Y-1.401
X2.4803Y-1.0564
X2.4808Y-3.019
X2.4811Y-2.5122
X2.4814Y-1.4647
X2.4816Y-1.9738
X2.4825Y-2.3677
X2.4828Y-0.7908
X2.4832Y-0.9933
X2.4846Y-1.636
X2.4852Y-2.6458
X2.4858Y-0.4921
X2.4858Y-3.0793
X2.486Y-1.2022
X2.4884Y-2.5743
X2.4895Y-0.852
X2.4903Y-1.2699
X2.4904Y-0.925
X2.4915Y-2.305
X2.4917Y-1.9076
X2.4921Y-3.5139
X2.4921Y-3.1544
X2.4934Y-3.7559
X2.4938Y-1.135
X2.5116Y-3.9465
X2.5117Y-0.7635
X2.5117Y-0.8898
X2.5124Y-1.3
X2.5133Y-2.9769
X2.5156Y-1.6679
X2.5159Y-2.4117
X2.5162Y-1.0898
X2.5171Y-2.5359
X2.5183Y-1.2362
X2.5183Y-3.1055
X2.5191Y-1.16
X2.5196Y-0.6259
X2.5198Y-0.9619
X2.5204Y-2.6096
X2.5212Y-2.2717
X2.5217Y-1.4239
X2.5219Y-1.594
X2.522Y-1.4926
X2.5225Y-2.3382
X2.5238Y-3.423
X2.5243Y-3.4806
X2.5244Y-3.88
X2.5264Y-1.026
X2.5267Y-0.823
X2.5271Y-3.0484
X2.5272Y-0.5309
X2.5276Y-3.7239
X2.5276Y-0.2938
X2.5279Y-1.3647
X2.5469Y-1.4707
X2.5475Y-1.1334
X2.5479Y-2.6496
X2.5479Y-3.4461
X2.5482Y-0.4891
X2.5487Y-1.5378
X2.5488Y-0.8623
X2.5491Y-1.3965
X2.5495Y-1.2623
X2.5504Y-3.9816
X2.5508Y-3.9236
X2.5509Y-3.0859
X2.5512Y-1.1948
X2.5512Y-0.9884
X2.5525Y-0.5503
X2.5526Y-0.6651
X2.5532Y-0.7873
X2.5538Y-3.5214
X2.554Y-3.7502
X2.5541Y-1.7662
X2.5546Y-3.1498
X2.5547Y-4.0524
X2.5551Y-0.9276
X2.5556Y-3.3784
X2.5559Y-2.5692
X2.5581Y-2.3086
X2.5583Y-0.0935
X2.5583Y-3.0183
X2.5589Y-1.3275
X2.5603Y-2.3738
X2.5607Y-1.0568
X2.5786Y-1.0919
X2.5801Y-3.1044
X2.5813Y-0.7667
X2.5813Y-1.8048
X2.5821Y-3.7132
X2.583Y-0.8284
X2.5833Y-3.4162
X2.5839Y-1.2271
X2.5839Y-0.5957
X2.585Y-1.1553
X2.5851Y-3.9562
X2.5853Y-1.0264
X2.5864Y-3.8891
X2.5876Y-2.6022
X2.5878Y-0.5318
X2.5879Y-0.1153
X2.5879Y-0.8858
X2.5891Y-3.5449
X2.5895Y-4.0236
X2.5901Y-0.1948
X2.5902Y-0.2571
X2.5912Y-3.3438
X2.5923Y-0.9637
X2.5929Y-3.4907
X2.5946Y-2.6722
X2.5946Y-3.0505
X2.6126Y-1.1294
X2.6129Y-3.0055
X2.6131Y-0.562
X2.6136Y-0.788
X2.6148Y-0.8566
X2.615Y-3.442
X2.6158Y-0.9876
X2.6159Y-3.6461
X2.6159Y-3.5898
X2.6164Y-3.308
X2.6191Y-4.5556
X2.6197Y-0.1562
X2.6212Y-3.3813
X2.6212Y-2.6427
X2.6212Y-4.4952
X2.6213Y-4.0622
X2.6216Y-0.2291
X2.6237Y-1.7663
X2.6239Y-3.7464
X2.624Y-0.4938
X2.6247Y-1.0603
X2.6249Y-3.5083
X2.625Y-0.0809
X2.625Y-0.6322
X2.626Y-4.8652
X2.6262Y-0.9347
X2.6263Y-1.1895
X2.6269Y-4.6642
X2.6272Y-3.0791
X2.6277Y-3.9139
X2.6278Y-3.9785
X2.6461Y-1.0903
X2.6466Y-3.0465
X2.6476Y-2.3685
X2.6487Y-2.6715
X2.6489Y-3.5422
X2.6505Y-3.7817
X2.6517Y-0.9014
X2.6518Y-0.9525
X2.6527Y-4.5284
X2.6527Y-3.4861
X2.6531Y-3.2791
X2.6531Y-3.6921
X2.6533Y-0.1177
X2.6534Y-0.5891
X2.6535Y-3.6091
X2.6543Y-1.4692
X2.6544Y-1.8003
X2.6554Y-3.352
X2.6558Y-4.0273
X2.6561Y-1.1677
X2.6567Y-3.4192
X2.6581Y-1.0275
X2.6582Y-0.5197
X2.6589Y-2.3012
X2.6592Y-2.2462
X2.6593Y-1.5385
X2.6603Y-0.7582
X2.661Y-3.9585
X2.6621Y-0.6563
X2.6623Y-0.8236
X2.6797Y-2.737
X2.6799Y-1.6393
X2.6809Y-1.001
X2.6809Y-3.5831
X2.6811Y-4.5606
X2.6811Y-0.8521
X2.6814Y-0.0948
X2.6816Y-4.0515
X2.6824Y-0.621
X2.6826Y-4.487
X2.6841Y-3.9875
X2.6842Y-1.491
X2.6859Y-4.8629
X2.6862Y-0.7904
X2.6867Y-3.3105
X2.6868Y-1.1252
X2.6873Y-3.8237
X2.688Y-3.0099
X2.6885Y-3.4518
X2.6891Y-2.344
X2.6891Y-3.5144
X2.6894Y-1.838
X2.6895Y-0.9201
X2.6901Y-2.2679
X2.6904Y-1.0583
X2.6919Y-3.3792
X2.6921Y-3.7172
X2.6923Y-2.4131
X2.6923Y-0.1554
X2.6927Y-0.5645
X2.6929Y-1.5721
X2.694Y-4.2546
X2.6945Y-1.7685
X2.6947Y-2.008
X2.6947Y-3.654
X2.6952Y-4.6515
X2.6956Y-0.49
X2.7139Y-1.0292
X2.7158Y-3.6146
X2.7169Y-3.4109
X2.7181Y-1.8665
X2.7186Y-4.0932
X2.7188Y-1.9413
X2.719Y-3.4804
X2.7195Y-3.7507
X2.7197Y-2.305
X2.7198Y-4.2301
X2.7199Y-4.0231
X2.7206Y-1.4677
X2.7208Y-3.342
X2.721Y-1.5956
X2.7219Y-2.3732
X2.7225Y-3.5474
X2.7225Y-1.1653
X2.7227Y-3.8534
X2.7231Y-3.6804
X2.7249Y-1.5242
X2.7257Y-1.7941
X2.726Y-3.2841
X2.7261Y-2.2457
X2.7278Y-4.5209
X2.7286Y-1.1025
X2.7288Y-4.1628
X2.7288Y-1.6737
X2.7298Y-0.1277
X2.7472Y-4.1261
X2.7475Y-2.0329
X2.7479Y-1.1299
X2.748Y-1.0648
X2.7481Y-4.4925
X2.7481Y-2.406
X2.7482Y-1.7754
X2.7485Y-3.3808
X2.7488Y-2.3405
X2.7496Y-1.9051
X2.7501Y-1.4912
X2.7519Y-1.8318
X2.752Y-0.0903
X2.752Y-1.5601
X2.7542Y-4.5656
X2.7551Y-4.0578
X2.7556Y-4.66
X2.7558Y-3.5241
X2.7559Y-1.6329
X2.7573Y-2.2766
X2.7581Y-3.3079
X2.7587Y-4.1831
X2.759Y-4.8674
X2.7595Y-0.149
X2.7606Y-4.2497
X2.761Y-3.4438
X2.7612Y-2.5072
X2.763Y-1.9701
X2.7807Y-4.4522
X2.781Y-3.3459
X2.7812Y-1.0939
X2.7814Y-0.1214
X2.7816Y-4.5205
X2.7818Y-0.7639
X2.7826Y-4.0818
X2.7836Y-0.6519
X2.7843Y-2.1399
X2.7852Y-4.0188
X2.7872Y-1.9357
X2.7874Y-4.391
X2.7876Y-3.1433
X2.7882Y-3.4894
X2.7886Y-3.2733
X2.7886Y-0.8905
X2.7891Y-1.6666
X2.7896Y-3.4194
X2.7897Y-0.5292
X2.7906Y-4.214
X2.7908Y-0.5936
X2.7908Y-4.2852
X2.791Y-2.0667
X2.7911Y-0.8211
X2.7919Y-1.5246
X2.7927Y-1.5996
X2.7929Y-1.8025
X2.7932Y-2.3108
X2.7933Y-1.8647
X2.7935Y-2.0024
X2.7946Y-4.1476
X2.7954Y-2.1985
X2.7964Y-1.1562
X2.7967Y-2.5423
X2.797Y-2.3792
X2.8142Y-4.6514
X2.8153Y-2.5155
X2.8158Y-4.1918
X2.8159Y-1.1219
X2.8159Y-3.1113
X2.8164Y-1.9695
X2.8168Y-0.9257
X2.8178Y-4.8676
X2.8182Y-2.3987
X2.8194Y-1.571
X2.8194Y-4.5563
X2.8198Y-4.4227
X2.82Y-2.2301
X2.8202Y-4.4962
X2.8209Y-0.8668
X2.821Y-0.794
X2.8215Y-4.0609
X2.8219Y-2.0999
X2.8245Y-2.0311
X2.8247Y-3.3091
X2.8252Y-3.4429
X2.8262Y-4.323
X2.8265Y-1.6391
X2.8266Y-4.1251
X2.8269Y-4.2583
X2.8286Y-0.0856
X2.8293Y-1.7616
X2.8297Y-1.8383
X2.8298Y-3.3891
X2.8299Y-2.3471
X2.8299Y-2.1765
X2.8302Y-1.9016
X2.8304Y-1.1997
X2.8482Y-2.1386
X2.8483Y-0.9564
X2.8494Y-3.348
X2.8497Y-4.5167
X2.8498Y-2.0639
X2.851Y-2.5453
X2.8511Y-0.5283
X2.8516Y-1.2287
X2.8519Y-2.7684
X2.8528Y-3.9217
X2.8533Y-2.0039
X2.8535Y-2.9769
X2.8536Y-1.9354
X2.8537Y-2.212
X2.8539Y-1.5342
X2.8539Y-3.7783
X2.8547Y-1.6022
X2.855Y-3.7121
X2.8552Y-4.0889
X2.8552Y-3.2836
X2.8567Y-3.1405
X2.8575Y-3.412
X2.8576Y-3.8451
X2.8578Y-4.355
X2.858Y-4.2931
X2.8581Y-1.1608
X2.8594Y-4.2186
X2.8595Y-0.8244
X2.8605Y-4.0247
X2.8608Y-4.1468
X2.8612Y-2.3807
X2.8615Y-0.2264
X2.8621Y-1.6713
X2.8628Y-4.4528
X2.8631Y-0.8995
X2.8632Y-1.8065
X2.8637Y-1.8721
X2.8641Y-3.0522
X2.8642Y-2.2753
X2.882Y-4.2477
X2.8826Y-3.0182
X2.8836Y-1.9662
X2.8841Y-1.5616
X2.8842Y-4.4908
X2.8844Y-4.3885
X2.8846Y-4.3199
X2.8851Y-1.6324
X2.887Y-4.1198
X2.8874Y-2.3009
X2.8882Y-2.5694
X2.889Y-3.3786
X2.8892Y-3.8225
X2.8895Y-3.8776
X2.89Y-3.0807
X2.8903Y-1.7595
X2.891Y-2.2309
X2.8915Y-4.0491
X2.8931Y-1.8403
X2.8934Y-2.3997
X2.8944Y-1.894
X2.8948Y-3.7526
X2.895Y-0.9895
X2.8951Y-2.5108
X2.8951Y-0.8658
X2.8953Y-3.315
X2.8958Y-0.9289
X2.8967Y-2.0419
X2.8969Y-2.7013
X2.897Y-2.1678
X2.8972Y-2.1095
X2.8975Y-2.6431
X2.8975Y-4.1842
X2.8979Y-0.7876
X2.9148Y-3.1076
X2.9148Y-2.2741
X2.9149Y-2.7433
X2.9149Y-4.2933
X2.9161Y-1.5266
X2.9161Y-2.6775
X2.9166Y-1.0237
X2.9184Y-2.2077
X2.9186Y-2.0003
X2.9188Y-4.0241
X2.92Y-1.6043
X2.92Y-0.9559
X2.9208Y-0.8236
X2.9215Y-2.1399
X2.9218Y-4.4297
X2.9219Y-0.751
X2.9224Y-3.9156
X2.9224Y-3.787
X2.9231Y-4.1612
X2.9238Y-2.6028
X2.924Y-0.8967
X2.924Y-2.0636
X2.9241Y-0.6205
X2.925Y-1.8764
X2.9252Y-3.7094
X2.9256Y-3.0384
X2.9263Y-3.4069
X2.9264Y-3.2873
X2.9265Y-3.8548
X2.927Y-2.9822
X2.9271Y-2.5491
X2.9276Y-3.353
X2.9289Y-4.3629
X2.929Y-1.937
X2.9308Y-4.0832
X2.9309Y-1.8017
X2.931Y-1.6701
X2.9313Y-4.2255
X2.9488Y-3.7481
X2.9488Y-1.9
X2.9492Y-0.861
X2.9497Y-4.127
X2.9498Y-3.3222
X2.9505Y-4.4626
X2.9508Y-4.3207
X2.9509Y-0.9865
X2.9516Y-3.3776
X2.9518Y-3.0809
X2.952Y-1.8431
X2.9532Y-3.8149
X2.9533Y-2.7018
X2.9542Y-0.6601
X2.957Y-1.0532
X2.9571Y-4.1909
X2.9581Y-0.9346
X2.9587Y-0.7892
X2.959Y-4.3864
X2.9594Y-4.2605
X2.9595Y-0.5869
X2.9595Y-2.6344
X2.9597Y-1.9718
X2.9598Y-3.0053
X2.9599Y-4.053
X2.9604Y-3.8798
X2.9615Y-1.6373
X2.9619Y-2.7824
X2.9635Y-2.57
X2.9646Y-1.7697
X2.9647Y-3.1527
X2.9822Y-0.7639
X2.9833Y-1.0257
X2.9849Y-0.8858
X2.9855Y-1.8754
X2.9861Y-4.3647
X2.9868Y-4.1582
X2.987Y-3.3462
X2.9871Y-3.7898
X2.9873Y-1.9336
X2.9877Y-0.5513
X2.9882Y-4.083
X2.9886Y-1.8006
X2.9887Y-4.2199
X2.9888Y-3.2804
X2.9893Y-4.4852
X2.9896Y-3.1174
X2.9912Y-2.8026
X2.9916Y-3.8504
X2.992Y-0.6194
X2.9921Y-2.8807
X2.9924Y-0.9626
X2.9925Y-3.9137
X2.9929Y-3.4186
X2.993Y-2.7502
X2.9932Y-4.0242
X2.9936Y-2.681
X2.9937Y-4.2845
X2.9944Y-0.8282
X2.9962Y-2.543
X2.9968Y-2.9456
X2.9984Y-4.4318
X2.9984Y-2.6091
X2.9985Y-3.0498
X3.0156Y-4.5298
X3.0159Y-0.9336
X3.016Y-3.8806
X3.0161Y-4.4556
X3.0162Y-4.1172
X3.0165Y-3.3802
X3.0171Y-0.4906
X3.0176Y-4.3909
X3.0179Y-4.0581
X3.0199Y-3.3114
X3.0205Y-1.4716
X3.0208Y-0.5941
X3.021Y-2.9795
X3.0211Y-3.144
X3.0212Y-1.0628
X3.0215Y-3.0756
X3.0218Y-2.7781
X3.0234Y-1.9096
X3.0235Y-2.6458
X3.0245Y-2.237
X3.0245Y-1.8299
X3.0248Y-0.9882
X3.0272Y-2.8502
X3.0279Y-2.4052
X3.0283Y-3.8231
X3.0288Y-4.3277
X3.0289Y-4.252
X3.0294Y-3.4518
X3.0297Y-4.1834
X3.0302Y-0.6501
X3.0304Y-2.7068
X3.0309Y-4.6526
X3.031Y-2.9173
X3.0312Y-2.5708
X3.0314Y-1.7633
X3.0494Y-1.7942
X3.0499Y-4.5526
X3.051Y-1.0884
X3.0517Y-4.2155
X3.0523Y-2.2658
X3.0526Y-1.874
X3.0535Y-1.4987
X3.0541Y-4.0235
X3.0541Y-3.1174
X3.0562Y-3.2759
X3.0562Y-2.5113
X3.0567Y-0.9586
X3.0573Y-2.3333
X3.0575Y-3.4803
X3.0575Y-4.1514
X3.0579Y-3.0086
X3.0582Y-2.7411
X3.0588Y-3.4221
X3.0592Y-1.0199
X3.0592Y-4.4969
X3.0594Y-2.8735
X3.0597Y-3.3513
X3.0602Y-2.6701
X3.0604Y-2.9394
X3.0612Y-3.9266
X3.0612Y-2.6077
X3.0615Y-2.8142
X3.062Y-1.269
X3.0626Y-0.8984
X3.063Y-0.5231
X3.0631Y-3.8569
X3.0647Y-4.0859
X3.0649Y-3.782
X3.0652Y-0.6297
X3.0832Y-2.5375
X3.0834Y-3.0471
X3.085Y-0.2177
X3.0856Y-0.665
X3.0857Y-1.5264
X3.0857Y-4.6521
X3.0857Y-1.1894
X3.086Y-1.1367
X3.0864Y-2.7093
X3.0867Y-2.3657
X3.0887Y-2.6346
X3.0894Y-3.824
X3.0918Y-4.1235
X3.0924Y-4.5217
X3.0926Y-1.0581
X3.0928Y-0.5606
X3.0929Y-4.0564
X3.0936Y-1.8342
X3.0936Y-0.9988
X3.0937Y-2.8365
X3.0938Y-4.1856
X3.0939Y-2.9077
X3.0942Y-2.7808
X3.0943Y-2.9857
X3.0948Y-2.3135
X3.0948Y-0.9263
X3.0949Y-2.2389
X3.095Y-0.1494
X3.0955Y-3.3162
X3.0974Y-1.4635
X3.0984Y-3.8853
X3.0986Y-1.8961
X3.0987Y-3.1517
X3.1169Y-0.5958
X3.117Y-4.0233
X3.1174Y-4.1591
X3.1184Y-2.6671
X3.1184Y-3.0036
X3.1186Y-1.225
X3.1202Y-1.0994
X3.1207Y-2.3447
X3.1215Y-2.7438
X3.1215Y-0.8891
X3.1216Y-2.273
X3.1234Y-1.797
X3.1234Y-1.4997
X3.1237Y-2.9449
X3.1241Y-2.818
X3.1262Y-0.1813
X3.1264Y-3.2734
X3.1281Y-3.7902
X3.1287Y-2.8727
X3.1291Y-1.1622
X3.1295Y-2.508
X3.1298Y-3.8505
X3.13Y-0.5181
X3.1302Y-2.5706
X3.1308Y-2.4073
X3.131Y-4.0821
X3.1315Y-0.9621
X3.1322Y-1.8616
X3.1324Y-1.573
X3.1326Y-1.0295
X3.1326Y-2.203
X3.1507Y-0.998
X3.1518Y-2.6128
X3.1522Y-1.2651
X3.1524Y-1.9005
X3.1546Y-0.5547
X3.1549Y-2.7089
X3.1559Y-1.4626
X3.1562Y-2.5386
X3.1576Y-1.6046
X3.1577Y-0.629
X3.158Y-1.5341
X3.1582Y-4.058
X3.1583Y-1.0606
X3.1591Y-2.313
X3.1599Y-3.3213
X3.1599Y-0.9205
X3.1607Y-1.1337
X3.1626Y-4.12
X3.1659Y-2.3776
X3.1668Y-1.8358
X3.1669Y-1.1928
X3.1844Y-2.5827
X3.1851Y-2.3378
X3.1854Y-0.6612
X3.1859Y-1.8622
X3.1862Y-0.9689
X3.1864Y-1.4336
X3.1878Y-0.8871
X3.1883Y-4.1586
X3.1891Y-1.2927
X3.1897Y-0.524
X3.1898Y-2.6383
X3.1904Y-1.9347
X3.1907Y-2.507
X3.192Y-3.2758
X3.1921Y-2.2782
X3.1922Y-1.4975
X3.1924Y-1.3559
X3.1928Y-0.5888
X3.193Y-4.0878
X3.1935Y-4.5666
X3.1944Y-1.0352
X3.1948Y-1.567
X3.1951Y-1.2361
X3.1961Y-1.0963
X3.1971Y-1.6339
X3.1981Y-2.401
X3.1983Y-1.1541
X3.2178Y-1.6676
X3.2182Y-2.5383
X3.2183Y-3.7863
X3.2188Y-1.1242
X3.2198Y-0.5638
X3.22Y-2.3023
X3.2203Y-1.2642
X3.2207Y-1.2016
X3.2211Y-2.9742
X3.2213Y-4.4928
X3.2221Y-1.054
X3.2229Y-4.6527
X3.2231Y-2.6017
X3.2232Y-1.9102
X3.2235Y-2.6778
X3.2235Y-4.0506
X3.2247Y-1.5945
X3.2251Y-4.1245
X3.2257Y-3.8577
X3.2269Y-2.377
X3.227Y-3.1141
X3.2282Y-1.5327
X3.2284Y-0.6324
X3.2289Y-1.3977
X3.2298Y-1.459
X3.2305Y-1.3271
X3.2311Y-3.7145
X3.2317Y-1.9708
X3.2317Y-0.9302
X3.2319Y-0.9886
X3.2335Y-3.0438
X3.2336Y-0.4962
X3.2512Y-0.9662
X3.253Y-1.16
X3.2532Y-1.0927
X3.2533Y-0.5922
X3.2539Y-0.4587
X3.2544Y-2.511
X3.2545Y-2.3469
X3.255Y-3.7541
X3.2551Y-4.0868
X3.2558Y-3.8814
X3.2559Y-3.0721
X3.2566Y-2.5789
X3.2571Y-1.2236
X3.2571Y-0.6558
X3.2579Y-1.2895
X3.2579Y-3.0168
X3.258Y-4.1502
X3.2584Y-2.408
X3.2587Y-1.6372
X3.259Y-0.5159
X3.2592Y-2.6387
X3.2595Y-1.4381
X3.2598Y-4.5192
X3.2612Y-2.2665
X3.2624Y-0.9002
X3.2628Y-3.1472
X3.2641Y-1.3717
X3.2643Y-1.4995
X3.2647Y-3.8165
X3.2653Y-1.0219
X3.2662Y-1.5647
X3.2674Y-0.2929
X3.2676Y-3.4905
X3.2846Y-2.3085
X3.2854Y-1.1255
X3.2857Y-1.6031
X3.2884Y-1.5394
X3.2886Y-2.6082
X3.2889Y-2.377
X3.2892Y-3.4566
X3.2892Y-1.3364
X3.2894Y-0.628
X3.2896Y-4.5627
X3.29Y-1.1941
X3.29Y-3.5222
X3.2906Y-3.3874
X3.2927Y-3.1048
X3.2932Y-2.9778
X3.2944Y-0.9299
X3.2944Y-1.6593
X3.2946Y-1.4681
X3.2947Y-1.3947
X3.2947Y-3.8534
X3.2949Y-3.7222
X3.295Y-3.7854
X3.295Y-2.6703
X3.2955Y-0.9873
X3.2962Y-3.0448
X3.2968Y-4.6627
X3.2975Y-4.1268
X3.2975Y-2.5489
X3.2986Y-1.0678
X3.2992Y-0.5533
X3.3004Y-0.4847
X3.3013Y-1.2702
X3.3203Y-1.1686
X3.3203Y-0.1588
X3.3211Y-1.764
X3.3212Y-3.8935
X3.3212Y-0.5963
X3.3223Y-1.032
X3.3226Y-1.234
X3.3233Y-0.227
X3.3234Y-3.0852
X3.3236Y-0.6647
X3.3254Y-3.0147
X3.3265Y-0.0877
X3.3266Y-2.5759
X3.327Y-2.6397
X3.3285Y-3.409
X3.3286Y-4.1576
X3.33Y-3.1428
X3.3302Y-3.8185
X3.3304Y-3.49
X3.3306Y-0.2869
X3.3306Y-3.7582
X3.3315Y-1.0891
X3.3319Y-3.3409
X3.3322Y-0.5192
X3.3335Y-4.5211
X3.334Y-0.9594
X3.3345Y-0.8982
X3.3523Y-3.3761
X3.3525Y-3.3218
X3.3528Y-3.85
X3.3535Y-1.1259
X3.3536Y-0.4947
X3.3542Y-0.6244
X3.3544Y-4.5662
X3.3551Y-1.002
X3.3567Y-3.039
X3.3567Y-3.7807
X3.3572Y-0.5573
X3.3582Y-0.1939
X3.3587Y-1.1883
X3.359Y-0.256
X3.3591Y-3.6563
X3.3604Y-3.92
X3.3619Y-3.1201
X3.3622Y-2.6151
X3.3625Y-0.1173
X3.3626Y-3.5909
X3.3636Y-1.0614
X3.3644Y-2.6782
X3.3657Y-0.9282
X3.3659Y-3.4492
X3.3665Y-3.7109
X3.3675Y-1.7944
X3.3684Y-3.5225
X3.3865Y-2.3014
X3.3872Y-2.0317
X3.3873Y-4.5217
X3.3878Y-2.7145
X3.3892Y-0.6534
X3.39Y-3.4193
X3.3902Y-1.1641
X3.3904Y-0.5212
X3.3906Y-0.5908
X3.3914Y-3.4818
X3.3916Y-3.818
X3.3917Y-3.35
X3.3917Y-3.5538
X3.3925Y-3.7485
X3.393Y-3.2771
X3.393Y-3.8859
X3.3931Y-1.7617
X3.3933Y-1.0209
X3.3942Y-0.1517
X3.3942Y-3.6907
X3.3946Y-0.0799
X3.3954Y-2.3698
X3.3957Y-2.6454
X3.3958Y-3.0101
X3.3959Y-2.2378
X3.3961Y-1.4926
X3.3991Y-1.0962
X3.4007Y-3.0761
X3.4009Y-0.9642
X3.401Y-3.6156
X3.4016Y-0.8938
X3.4192Y-2.3333
X3.4196Y-3.8548
X3.4201Y-1.0536
X3.4222Y-3.0369
X3.4228Y-0.9939
X3.4231Y-1.6652
X3.4236Y-4.0139
X3.4243Y-2.6748
X3.4247Y-0.5656
X3.4255Y-1.5242
X3.4258Y-3.7115
X3.4268Y-1.5991
X3.4271Y-1.7981
X3.4272Y-1.1318
X3.4278Y-2.2733
X3.4279Y-3.3753
X3.4306Y-3.591
X3.4308Y-3.6552
X3.4308Y-1.4699
X3.4309Y-3.7874
X3.4319Y-0.4979
X3.4327Y-3.4565
X3.4344Y-3.3164
X3.4345Y-0.1242
X3.4346Y-3.912
X3.4347Y-3.52
X3.4349Y-2.4128
X3.4349Y-0.6212
X3.435Y-0.9316
X3.4527Y-1.9101
X3.4531Y-0.1509
X3.4536Y-2.0392
X3.4536Y-3.8849
X3.4542Y-0.6526
X3.4551Y-3.6121
X3.4554Y-3.5425
X3.4562Y-0.0795
X3.4566Y-3.7562
X3.4567Y-3.2725
X3.4573Y-1.1568
X3.4584Y-0.8939
X3.459Y-2.3049
X3.4597Y-1.5738
X3.4598Y-0.5261
X3.46Y-1.8272
X3.4606Y-1.0966
X3.4606Y-1.7652
X3.4619Y-3.6775
X3.462Y-2.381
X3.462Y-0.9577
X3.463Y-1.5013
X3.4631Y-4.0599
X3.4633Y-1.6377
X3.4637Y-0.5986
X3.464Y-3.4853
X3.4641Y-1.9635
X3.4644Y-3.812
X3.4649Y-1.0329
X3.4658Y-2.2411
X3.4669Y-3.3504
X3.4672Y-3.414
X3.4677Y-3.0045
X3.488Y-3.7166
X3.488Y-0.1148
X3.4882Y-2.2681
X3.489Y-2.5117
X3.4892Y-3.5862
X3.4903Y-1.0668
X3.4903Y-1.8611
X3.4909Y-1.5282
X3.4919Y-1.1239
X3.492Y-0.5567
X3.4923Y-0.6265
X3.4938Y-3.7891
X3.4944Y-2.3385
X3.4952Y-3.3878
X3.4954Y-1.0015
X3.4972Y-1.663
X3.4976Y-1.5957
X3.4982Y-3.5227
X3.4984Y-1.4711
X3.4986Y-3.6468
X3.4992Y-3.3171
X3.4992Y-1.8035
X3.5006Y-1.9426
X3.5008Y-3.4428
X3.501Y-0.921
X3.501Y-2.4129
X3.5016Y-4.7648
X3.5016Y-0.4494
X3.5019Y-4.0282
X3.502Y-2.0107
X3.5205Y-0.665
X3.5206Y-1.6288
X3.5214Y-3.3516
X3.5218Y-0.4831
X3.5222Y-0.9015
X3.5226Y-4.0524
X3.5227Y-2.3027
X3.5231Y-1.9743
X3.5235Y-1.7647
X3.5242Y-2.3731
X3.5243Y-0.967
X3.5246Y-1.1584
X3.5247Y-4.7198
X3.5259Y-0.0942
X3.5259Y-3.2873
X3.5267Y-0.5908
X3.5269Y-2.0397
X3.5275Y-3.4746
X3.5279Y-1.8301
X3.5281Y-1.562
X3.5316Y-3.4221
X3.5316Y-3.1505
X3.532Y-1.0935
X3.533Y-1.024
X3.5345Y-1.5024
X3.5351Y-1.9087
X3.5352Y-2.5459
X3.5352Y-2.2064
X3.5537Y-1.9418
X3.5562Y-0.9864
X3.5577Y-1.188
X3.5579Y-4.7612
X3.5599Y-1.6659
X3.5603Y-2.1446
X3.5605Y-1.0585
X3.5612Y-1.7997
X3.5613Y-3.3849
X3.5615Y-2.2436
X3.5616Y-3.12
X3.563Y-2.3365
X3.5632Y-0.926
X3.5636Y-3.3126
X3.564Y-2.0109
X3.5648Y-1.8608
X3.5649Y-1.1249
X3.5649Y-4.0215
X3.5657Y-4.6886
X3.566Y-0.5228
X3.566Y-2.0689
X3.5661Y-2.401
X3.5661Y-1.6058
X3.5661Y-3.4439
X3.5667Y-0.022
X3.5689Y-2.5137
X3.5693Y-1.5386
X3.5879Y-3.4175
X3.5881Y-4.6654
X3.5882Y-3.1459
X3.5893Y-0.8895
X3.5902Y-2.2712
X3.5904Y-3.8559
X3.5907Y-0.9559
X3.5918Y-2.775
X3.5919Y-2.1672
X3.5922Y-3.9504
X3.5938Y-1.8422
X3.5939Y-2.0414
X3.594Y-4.0555
X3.5945Y-3.0471
X3.5946Y-1.6358
X3.5947Y-4.7326
X3.595Y-1.1703
X3.5953Y-1.7624
X3.5963Y-1.021
X3.5964Y-2.371
X3.5964Y-1.2294
X3.5971Y-2.5345
X3.5972Y-3.3486
X3.5973Y-1.9735
X3.5979Y-2.1035
X3.5983Y-3.7193
X3.599Y-1.5613
X3.5992Y-3.7857
X3.5994Y-1.0875
X3.5994Y-2.9698
X3.5996Y-0.0549
X3.6012Y-3.2749
X3.6022Y-1.9035
X3.621Y-3.7573
X3.6217Y-2.4036
X3.6241Y-3.3813
X3.6243Y-4.2477
X3.6247Y-3.0865
X3.6248Y-2.302
X3.6251Y-2.198
X3.6253Y-1.6746
X3.6259Y-1.5957
X3.6262Y-4.0931
X3.6263Y-2.5795
X3.6271Y-0.9979
X3.6275Y-1.9327
X3.6277Y-2.7432
X3.6278Y-2.0036
X3.6288Y-3.8136
X3.6288Y-2.0651
X3.629Y-2.1385
X3.6301Y-2.5097
X3.6326Y-1.0689
X3.6342Y-1.5305
X3.6346Y-1.8069
X3.6348Y-4.6921
X3.6356Y-4.6209
X3.6356Y-3.9866
X3.6358Y-1.8738
X3.6358Y-3.3121
X3.6358Y-4.7674
X3.6364Y-0.0186
X3.6371Y-0.9251
X3.6373Y-3.018
X3.6545Y-1.5697
X3.6553Y-0.9608
X3.6555Y-2.0979
X3.6561Y-2.5492
X3.6582Y-1.6385
X3.6584Y-2.1634
X3.6591Y-2.6703
X3.6597Y-1.03
X3.6607Y-2.7833
X3.6608Y-3.7125
X3.661Y-3.9582
X3.6612Y-2.6039
X3.6613Y-2.3433
X3.6623Y-4.0165
X3.6626Y-1.9035
X3.663Y-2.9762
X3.6647Y-3.7896
X3.6649Y-0.6256
X3.6651Y-4.2268
X3.6654Y-3.1129
X3.6656Y-4.6649
X3.6657Y-1.9624
X3.6667Y-3.2805
X3.667Y-0.8984
X3.6673Y-3.8524
X3.668Y-1.8282
X3.6682Y-3.0401
X3.6687Y-2.2362
X3.6697Y-4.7288
X3.6698Y-3.3525
X3.67Y-3.4129
X3.671Y-2.043
X3.6711Y-1.7741
X3.6882Y-1.604
X3.6892Y-3.815
X3.6894Y-4.2526
X3.6905Y-3.0043
X3.6906Y-3.1427
X3.6906Y-1.0576
X3.6907Y-1.8094
X3.6909Y-3.3139
X3.691Y-4.0569
X3.6912Y-1.6635
X3.6914Y-3.0787
X3.692Y-3.3897
X3.6925Y-2.6444
X3.6948Y-1.9971
X3.6949Y-2.7156
X3.6969Y-4.6269
X3.6979Y-3.7569
X3.698Y-0.9212
X3.6981Y-4.697
X3.6991Y-0.0269
X3.7001Y-1.9314
X3.7006Y-4.7624
X3.701Y-3.9911
X3.7011Y-1.8627
X3.7029Y-0.6643
X3.7043Y-2.5822
X3.7047Y-0.9903
X3.7219Y-0.9581
X3.723Y-3.0526
X3.7233Y-4.295
X3.7239Y-2.9406
X3.7249Y-4.0187
X3.725Y-2.6095
X3.7265Y-3.3524
X3.7265Y-3.7867
X3.7266Y-4.7266
X3.7279Y-2.8124
X3.7287Y-1.9084
X3.729Y-0.589
X3.7294Y-3.2887
X3.7304Y-1.9631
X3.7309Y-1.7754
X3.7309Y-3.4212
X3.7325Y-1.835
X3.7331Y-2.5427
X3.7333Y-3.8548
X3.7344Y-1.0228
X3.7345Y-2.8852
X3.735Y-4.1815
X3.7355Y-4.6595
X3.7363Y-1.64
X3.7364Y-0.8928
X3.7365Y-2.6744
X3.7367Y-3.9458
X3.7371Y-3.1092
X3.7377Y-2.7446
X3.7559Y-3.0746
X3.7561Y-1.9382
X3.7562Y-3.9921
X3.7574Y-1.4675
X3.7574Y-0.6251
X3.7575Y-3.1448
X3.7577Y-4.4266
X3.7578Y-4.1508
X3.7586Y-2.7156
X3.7586Y-1.8757
X3.759Y-1.0656
X3.7627Y-0.9898
X3.7628Y-2.9709
X3.7632Y-2.8382
X3.7639Y-4.7678
X3.7647Y-1.7949
X3.765Y-0.5647
X3.7654Y-3.8133
X3.7659Y-3.3068
X3.7661Y-3.3795
X3.7661Y-3.449
X3.7667Y-4.2279
X3.7674Y-2.5795
X3.7679Y-2.915
X3.7681Y-2.7714
X3.7681Y-2.6482
X3.7682Y-2.2355
X3.7694Y-0.4964
X3.7698Y-4.6174
X3.7706Y-0.9268
X3.771Y-4.6922
X3.789Y-3.8537
X3.7893Y-4.3948
X3.7894Y-1.7645
X3.7898Y-2.2794
X3.79Y-2.9492
X3.791Y-3.0155
X3.7911Y-1.2608
X3.7932Y-2.8853
X3.7935Y-3.4832
X3.7939Y-0.8993
X3.7956Y-2.6675
X3.7957Y-3.2865
X3.7969Y-0.5869
X3.7972Y-2.742
X3.7976Y-3.4104
X3.7982Y-4.7184
X3.7994Y-4.1263
X3.8007Y-2.6066
X3.8012Y-4.1917
X3.8018Y-1.8265
X3.802Y-3.7821
X3.8021Y-0.5196
X3.8027Y-0.6629
X3.8028Y-4.653
X3.8029Y-3.1179
X3.8032Y-1.021
X3.8036Y-0.9525
X3.8036Y-2.5106
X3.804Y-2.8125
X3.8045Y-1.8997
X3.8053Y-2.346
X3.8054Y-3.3472
X3.8056Y-2.4129
X3.8056Y-1.4983
X3.8232Y-1.8033
X3.8234Y-2.5446
X3.8236Y-1.0004
X3.8238Y-0.228
X3.8242Y-1.1289
X3.8256Y-4.3539
X3.8263Y-4.1539
X3.8264Y-3.3122
X3.8264Y-1.2221
X3.8271Y-3.1379
X3.8273Y-0.157
X3.8282Y-0.9232
X3.8292Y-2.9797
X3.8299Y-4.6225
X3.8303Y-1.8661
X3.8308Y-2.3003
X3.831Y-4.7657
X3.8316Y-4.6886
X3.8317Y-1.4568
X3.8324Y-3.8138
X3.8326Y-4.0937
X3.8328Y-3.0389
X3.8334Y-1.059
X3.8346Y-1.5261
X3.8354Y-2.717
X3.8355Y-2.8401
X3.836Y-2.9045
X3.8361Y-2.7753
X3.8366Y-2.2343
X3.8367Y-0.6209
X3.8367Y-2.6368
X3.8368Y-2.3652
X3.8374Y-0.5538
X3.838Y-4.4274
X3.8562Y-1.0336
X3.8564Y-2.7467
X3.8565Y-2.8739
X3.8572Y-0.1951
X3.8573Y-2.6734
X3.8584Y-3.284
X3.8586Y-4.6526
X3.8595Y-2.8023
X3.8619Y-2.3996
X3.8626Y-4.0621
X3.863Y-1.5601
X3.8632Y-2.2682
X3.8642Y-3.7809
X3.865Y-0.9632
X3.8652Y-0.6602
X3.8653Y-2.3443
X3.866Y-1.4976
X3.8671Y-4.3276
X3.8675Y-0.8903
X3.8677Y-1.9097
X3.8682Y-2.567
X3.8683Y-4.1167
X3.8684Y-0.5192
X3.8695Y-3.0163
X3.8699Y-4.725
X3.87Y-3.8517
X3.87Y-2.9425
X3.8701Y-1.2657
X3.8701Y-1.0974
X3.8707Y-2.5095
X3.871Y-0.5862
X3.8721Y-1.8418
X3.8722Y-4.3981
X3.8899Y-1.874
X3.8904Y-2.2441
X3.8905Y-4.7002
X3.8906Y-2.7138
X3.8909Y-4.0855
X3.891Y-2.7718
X3.891Y-0.9337
X3.8925Y-1.0639
X3.8934Y-1.5291
X3.8934Y-1.2246
X3.8938Y-4.0193
X3.8952Y-4.6191
X3.8963Y-3.747
X3.8965Y-2.3007
X3.8965Y-0.6226
X3.8969Y-4.7659
X3.8981Y-1.1361
X3.8982Y-4.4292
X3.8983Y-3.8173
X3.8985Y-0.9991
X3.9013Y-1.4714
X3.9017Y-2.6041
X3.9028Y-1.5986
X3.903Y-1.8093
X3.9036Y-2.5481
X3.9046Y-1.305
X3.9048Y-4.3509
X3.9049Y-2.3738
X3.9054Y-3.308
X3.9054Y-0.5647
X3.9062Y-4.2813
X3.9237Y-3.8589
X3.924Y-2.5148
X3.9243Y-0.5262
X3.9254Y-1.2619
X3.9258Y-1.5663
X3.9262Y-3.7231
X3.9262Y-4.3882
X3.927Y-0.8975
X3.927Y-0.9579
X3.9273Y-3.2773
X3.9276Y-2.4047
X3.9279Y-4.0497
X3.9299Y-4.7247
X3.9301Y-1.5051
X3.9302Y-2.5789
X3.9303Y-1.8972
X3.9307Y-3.7887
X3.9311Y-2.7395
X3.9325Y-1.0333
X3.9325Y-2.2699
X3.9341Y-4.249
X3.9344Y-1.0945
X3.9351Y-4.3272
X3.9353Y-1.4024
X3.9356Y-2.6453
X3.937Y-0.5843
X3.9374Y-1.6343
X3.9379Y-1.3335
X3.9386Y-1.8316
X3.9397Y-2.3465
X3.9397Y-0.6644
X3.9398Y-3.995
X3.9398Y-4.6566
X3.9575Y-2.9856
X3.9578Y-4.4191
X3.9582Y-0.5627
X3.9588Y-3.743
X3.9593Y-0.6224
X3.9596Y-1.3639
X3.9596Y-1.2904
X3.9601Y-2.6765
X3.9602Y-1.0536
X3.9603Y-1.5379
X3.9604Y-2.3778
X3.9604Y-4.7566
X3.9605Y-2.539
X3.9619Y-1.9372
X3.9625Y-1.1362
X3.9626Y-4.022
X3.9657Y-2.6134
X3.9665Y-0.9203
X3.9669Y-4.3595
X3.9672Y-3.8234
X3.9675Y-3.1513
X3.9677Y-1.2303
X3.9678Y-4.2253
X3.9678Y-1.4282
X3.9684Y-1.8606
X3.9689Y-4.2868
X3.9691Y-4.6291
X3.9695Y-0.9963
X3.9723Y-1.6053
X3.9729Y-4.6872
X3.973Y-1.6648
X3.9733Y-2.3005
X3.9907Y-0.6663
X3.991Y-4.2637
X3.9913Y-1.9648
X3.9917Y-0.8902
X3.9919Y-4.6626
X3.9928Y-1.4658
X3.9931Y-4.3859
X3.9932Y-2.4036
X3.9939Y-0.291
X3.9955Y-1.2682
X3.9961Y-0.5885
X3.9963Y-1.3272
X3.9964Y-2.5761
X3.9964Y-3.0818
X3.9969Y-1.4022
X3.997Y-1.0228
X3.9975Y-1.5665
X3.998Y-4.1912
X3.999Y-3.8546
X3.9995Y-0.9563
X4.0001Y-2.3364
X4.0003Y-1.6344
X4.0006Y-3.7872
X4.0006Y-3.0145
X4.0012Y-0.4544
X4.0025Y-2.503
X4.004Y-4.7185
X4.0043Y-4.3273
X4.0046Y-3.9788
X4.0048Y-0.5228
X4.0054Y-1.0948
X4.0059Y-1.9022
X4.0061Y-3.7223
X4.0062Y-2.2642
X4.0071Y-2.6371
X4.0249Y-1.0675
X4.0252Y-4.1558
X4.0256Y-1.6012
X4.0258Y-0.998
X4.0259Y-0.9256
X4.026Y-1.305
X4.0263Y-3.3802
X4.0265Y-3.0468
X4.0267Y-4.4174
X4.0267Y-1.4903
X4.028Y-2.3074
X4.0291Y-4.2292
X4.0292Y-3.107
X4.0297Y-0.5636
X4.0297Y-4.627
X4.0307Y-0.6213
X4.0308Y-1.3703
X4.0336Y-4.6895
X4.0337Y-1.6713
X4.0349Y-3.8227
X4.0351Y-0.4854
X4.0359Y-3.7464
X4.0362Y-3.4414
X4.0369Y-4.2825
X4.0371Y-1.4307
X4.0377Y-4.3603
X4.0378Y-1.1266
X4.038Y-2.9712
X4.0381Y-2.3786
X4.0387Y-1.2303
X4.0391Y-4.7669
X4.0394Y-2.6777
X4.0397Y-2.6032
X4.0402Y-2.5327
X4.0579Y-3.0841
X4.058Y-0.9543
X4.0591Y-3.4899
X4.0603Y-1.0282
X4.0604Y-3.8477
X4.0606Y-0.6649
X4.0613Y-1.0914
X4.0621Y-0.5301
X4.0635Y-1.7664
X4.0635Y-3.154
X4.064Y-0.5849
X4.0642Y-0.2576
X4.0645Y-0.8975
X4.0652Y-3.0144
X4.0654Y-0.0925
X4.0674Y-3.4221
X4.0677Y-2.5799
X4.0684Y-4.3247
X4.0689Y-4.719
X4.0689Y-4.6674
X4.0693Y-3.7921
X4.0695Y-3.7118
X4.0697Y-4.1869
X4.0714Y-4.2493
X4.0721Y-1.2638
X4.0739Y-3.3539
X4.0742Y-2.6416
X4.0747Y-4.3897
X4.0925Y-4.2884
X4.0928Y-1.234
X4.094Y-0.1139
X4.0955Y-3.3745
X4.0958Y-3.119
X4.0961Y-2.6041
X4.0962Y-0.4907
X4.0968Y-3.5128
X4.0972Y-0.5645
X4.0975Y-0.6308
X4.1006Y-3.4437
X4.1006Y-4.2233
X4.1007Y-2.683
X4.1032Y-4.7574
X4.1036Y-3.7593
X4.1046Y-4.3607
X4.1051Y-1.7977
X4.1054Y-0.9295
X4.1056Y-3.3156
X4.1073Y-3.0432
X4.108Y-0.9977
X4.108Y-1.1347
X4.1081Y-3.8106
X4.1081Y-4.4193
X4.1082Y-1.0609
X4.1254Y-3.0189
X4.1272Y-4.1832
X4.1273Y-0.5225
X4.1274Y-3.5549
X4.1293Y-0.8903
X4.1301Y-2.6334
X4.1303Y-0.0787
X4.131Y-4.3256
X4.1317Y-3.0726
X4.1321Y-3.788
X4.1321Y-4.2545
X4.1327Y-0.6502
X4.1352Y-0.1505
X4.1353Y-0.5837
X4.136Y-1.0895
X4.1362Y-2.7037
X4.1363Y-0.9617
X4.1381Y-3.4777
X4.1385Y-1.0354
X4.1392Y-4.3985
X4.1392Y-1.7741
X4.14Y-3.2729
X4.1406Y-3.417
X4.141Y-3.3414
X4.1414Y-3.8532
X4.1599Y-2.6806
X4.161Y-1.5939
X4.1611Y-4.4179
X4.1614Y-4.3552
X4.1615Y-2.2325
X4.1616Y-0.9193
X4.1619Y-4.2164
X4.1647Y-4.285
X4.165Y-1.8022
X4.1653Y-0.1945
X4.167Y-3.5237
X4.1672Y-0.9969
X4.1673Y-0.417
X4.1686Y-1.0679
X4.1689Y-0.1188
X4.1691Y-0.5546
X4.1692Y-1.4633
X4.1696Y-3.8108
X4.1698Y-2.2981
X4.1699Y-1.5326
X4.1706Y-0.4868
X4.1706Y-3.0429
X4.1708Y-3.3059
X4.1716Y-1.6735
X4.1724Y-3.443
X4.1724Y-3.5772
X4.1725Y-0.348
X4.1726Y-3.3758
X4.1736Y-2.3706
X4.1756Y-0.6173
X4.1925Y-4.2488
X4.1926Y-0.4603
X4.1929Y-3.3409
X4.193Y-3.2723
X4.1935Y-1.8408
X4.1939Y-1.035
X4.1952Y-2.0447
X4.1952Y-4.1844
X4.1953Y-1.6316
X4.1954Y-2.413
X4.1958Y-0.3884
X4.1959Y-0.1592
X4.196Y-4.3201
X4.1961Y-0.5228
X4.1972Y-0.2265
X4.1981Y-2.3335
X4.1992Y-0.5924
X4.1995Y-1.768
X4.1998Y-0.9523
X4.2001Y-1.5729
X4.2005Y-3.4132
X4.2018Y-3.489
X4.2024Y-3.0034
X4.2025Y-0.6544
X4.2037Y-0.0792
X4.2053Y-1.8959
X4.2057Y-3.5522
X4.2058Y-4.3961
X4.2069Y-1.97
X4.207Y-3.6112
X4.2078Y-2.2725
X4.2084Y-3.8533
X4.2087Y-1.495
X4.2088Y-0.8884
X4.2261Y-4.4299
X4.2262Y-1.939
X4.2264Y-4.3561
X4.2277Y-4.2139
X4.2278Y-0.6257
X4.228Y-0.1135
X4.228Y-1.5326
X4.228Y-2.3023
X4.2281Y-4.2816
X4.2283Y-2.2342
X4.2288Y-3.3067
X4.2293Y-1.7988
X4.2293Y-3.5132
X4.2315Y-0.4956
X4.2316Y-0.1892
X4.2319Y-1.5946
X4.2343Y-0.9989
X4.2349Y-3.381
X4.2355Y-3.4404
X4.2358Y-3.5854
X4.2368Y-2.3783
X4.2369Y-1.9952
X4.2369Y-0.9265
X4.2381Y-0.557
X4.2383Y-0.4278
X4.2396Y-1.8728
X4.2398Y-1.6742
X4.2401Y-1.4627
X4.2418Y-0.2613
X4.2422Y-2.511
X4.26Y-0.9663
X4.2601Y-0.2235
X4.2602Y-4.2609
X4.2604Y-1.5639
X4.2614Y-0.5884
X4.2619Y-3.3511
X4.262Y-0.085
X4.2631Y-3.4897
X4.2636Y-2.03
X4.2637Y-3.2863
X4.2642Y-0.4488
X4.2659Y-2.4129
X4.2661Y-2.3357
X4.2661Y-1.8386
X4.2665Y-0.1556
X4.2672Y-1.6411
X4.268Y-3.1413
X4.2687Y-4.7644
X4.2704Y-4.3308
X4.271Y-1.4965
X4.2712Y-1.1685
X4.2718Y-4.396
X4.2731Y-2.5344
X4.2734Y-4.1846
X4.2736Y-2.207
X4.2738Y-2.2766
X4.2738Y-1.7616
X4.2741Y-0.5205
X4.2748Y-1.9675
X4.2756Y-1.9026
X4.2759Y-0.8874
X4.2759Y-0.6509
X4.2761Y-0.2823
X4.2762Y-3.413
X4.2937Y-3.3799
X4.2941Y-4.3641
X4.2943Y-0.1953
X4.2944Y-2.5133
X4.2957Y-2.5811
X4.2966Y-2.245
X4.2966Y-3.1137
X4.2969Y-1.8725
X4.2969Y-2.1443
X4.2976Y-3.3199
X4.2978Y-4.224
X4.299Y-1.5297
X4.2995Y-2.0697
X4.3004Y-0.9315
X4.3007Y-2.2975
X4.3018Y-4.2833
X4.3024Y-1.9965
X4.3053Y-1.1313
X4.3056Y-4.4201
X4.3063Y-1.7932
X4.3067Y-0.2585
X4.3072Y-0.124
X4.3085Y-2.3791
X4.3086Y-1.6655
X4.3088Y-3.4509
X4.3096Y-1.9419
X4.31Y-1.5937
X4.327Y-2.4103
X4.3275Y-2.339
X4.3279Y-2.5355
X4.328Y-1.2301
X4.3282Y-3.2846
X4.3284Y-3.1488
X4.3289Y-4.1932
X4.329Y-4.8555
X4.3293Y-1.9079
X4.3298Y-2.1659
X4.3299Y-0.0939
X4.3314Y-2.0303
X4.3328Y-0.2177
X4.3331Y-0.8655
X4.3336Y-0.7984
X4.3344Y-1.8304
X4.3352Y-4.2495
X4.3354Y-3.3532
X4.3354Y-0.1512
X4.3357Y-1.1592
X4.3358Y-1.5711
X4.336Y-4.8005
X4.3377Y-3.4134
X4.3381Y-1.6378
X4.3383Y-1.0956
X4.3388Y-2.9777
X4.3389Y-1.9616
X4.3397Y-2.1074
X4.3398Y-2.7835
X4.3416Y-3.0441
X4.3419Y-4.324
X4.3419Y-3.7167
X4.3428Y-4.39
X4.3428Y-2.2743
X4.3433Y-1.7729
X4.3607Y-2.2104
X4.3609Y-3.7503
X4.361Y-4.2938
X4.361Y-1.6627
X4.3632Y-0.1867
X4.3639Y-1.2011
X4.3664Y-2.512
X4.367Y-2.5674
X4.367Y-1.5353
X4.3674Y-3.3783
X4.3678Y-1.058
X4.3681Y-3.0114
X4.3693Y-2.0646
X4.3695Y-1.6069
X4.3698Y-1.9328
X4.3705Y-3.0787
X4.3705Y-1.1352
X4.3723Y-0.8275
X4.3736Y-4.2206
X4.3736Y-2.1382
X4.374Y-1.8757
X4.3746Y-2.0064
X4.3747Y-2.3109
X4.3757Y-3.3137
X4.3757Y-0.1129
X4.3764Y-1.8087
X4.3764Y-2.3656
X4.3941Y-3.1158
X4.3952Y-2.0446
X4.3965Y-1.6361
X4.3967Y-1.9741
X4.3978Y-2.3982
X4.3983Y-0.0829
X4.3988Y-3.2728
X4.4011Y-3.7168
X4.4011Y-3.0462
X4.4011Y-1.8387
X4.402Y-1.897
X4.4021Y-2.1757
X4.4042Y-1.7652
X4.4046Y-2.6702
X4.407Y-3.3533
X4.4072Y-1.0309
X4.4076Y-2.2421
X4.4078Y-3.789
X4.4079Y-2.1102
X4.4082Y-3.4204
X4.4082Y-2.3469
X4.4088Y-0.155
X4.4096Y-1.5629
X4.4099Y-2.5459
X4.4101Y-2.9708
X4.4106Y-2.6089
X4.4107Y-2.7403
X4.4278Y-0.1248
X4.429Y-3.08
X4.4295Y-3.0148
X4.43Y-3.8165
X4.4309Y-0.9911
X4.431Y-3.7574
X4.4312Y-2.0087
X4.4317Y-2.2636
X4.4323Y-2.7827
X4.4328Y-1.5313
X4.4331Y-1.0617
X4.4359Y-1.6591
X4.436Y-2.5808
X4.4363Y-3.376
X4.439Y-2.6499
X4.4391Y-2.2074
X4.4392Y-1.9407
X4.4406Y-2.0675
X4.4408Y-2.715
X4.442Y-1.6045
X4.4425Y-3.3085
X4.4426Y-3.1385
X4.4426Y-2.138
X4.4432Y-1.808
X4.4445Y-1.8664
X4.4627Y-0.6219
X4.4629Y-3.0394
X4.4639Y-0.0871
X4.465Y-0.4835
X4.4654Y-3.3418
X4.4658Y-2.5426
X4.4659Y-1.9013
X4.4666Y-2.6057
X4.4669Y-0.558
X4.4672Y-3.4173
X4.4684Y-1.0282
X4.4684Y-1.7676
X4.4687Y-0.8659
X4.469Y-2.9489
X4.4696Y-2.8085
X4.4711Y-2.7357
X4.4723Y-2.6825
X4.4727Y-0.7878
X4.4729Y-1.9699
X4.4734Y-3.8479
X4.474Y-1.6252
X4.4758Y-3.2772
X4.4765Y-0.9338
X4.4767Y-1.8378
X4.4773Y-3.1067
X4.4778Y-3.7783
X4.478Y-0.1466
X4.4952Y-0.6568
X4.4955Y-3.3808
X4.4966Y-0.8901
X4.4976Y-2.7165
X4.5002Y-0.5157
X4.5003Y-2.986
X4.5014Y-3.8205
X4.5017Y-2.8456
X4.5018Y-1.9411
X4.5018Y-1.8031
X4.5022Y-0.1142
X4.5027Y-0.9552
X4.5033Y-3.4505
X4.5045Y-0.5897
X4.5054Y-2.9146
X4.5073Y-3.1499
X4.508Y-0.7661
X4.508Y-1.0535
X4.5091Y-2.5684
X4.5092Y-3.3108
X4.5093Y-1.8657
X4.5095Y-2.7825
X4.5109Y-0.8304
X4.511Y-2.6376
X4.5116Y-3.081
X4.529Y-0.9861
X4.5291Y-1.4977
X4.5301Y-2.3016
X4.5305Y-0.8006
X4.5306Y-2.2319
X4.532Y-0.0859
X4.5324Y-2.8738
X4.5327Y-0.6218
X4.5334Y-2.8068
X4.5345Y-2.5029
X4.5346Y-2.7491
X4.5347Y-3.409
X4.5351Y-0.8529
X4.5353Y-3.3416
X4.5355Y-3.1066
X4.5355Y-4.0152
X4.5359Y-3.8538
X4.5359Y-0.9321
X4.5366Y-3.7873
X4.537Y-0.1588
X4.5375Y-3.0077
X4.5385Y-3.2806
X4.5401Y-0.5497
X4.5426Y-1.8295
X4.5427Y-2.3671
X4.5427Y-3.4901
X4.5431Y-1.7595
X4.5432Y-2.6111
X4.5449Y-2.6781
X4.545Y-1.8999
X4.5452Y-2.9466
X4.5627Y-3.8211
X4.5631Y-3.3078
X4.5645Y-1.2603
X4.5648Y-1.8071
X4.5652Y-1.4673
X4.5658Y-0.6534
X4.5661Y-2.8376
X4.5671Y-0.9004
X4.5675Y-2.9113
X4.5675Y-2.7828
X4.5681Y-2.5415
X4.5687Y-2.9792
X4.5695Y-1.5283
X4.5703Y-2.7019
X4.5706Y-2.2703
X4.5716Y-0.5933
X4.5716Y-2.3414
X4.572Y-0.1268
X4.5721Y-0.8239
X4.5726Y-1.869
X4.5729Y-3.1382
X4.573Y-0.5228
X4.5732Y-2.408
X4.5737Y-0.7592
X4.5741Y-3.0496
X4.5779Y-2.635
X4.5786Y-0.9688
X4.596Y-1.9071
X4.5981Y-1.1981
X4.5984Y-2.2344
X4.5986Y-3.0775
X4.6003Y-0.8007
X4.6005Y-2.5032
X4.6005Y-0.6164
X4.6006Y-2.5769
X4.6009Y-2.3686
X4.6016Y-3.2769
X4.6031Y-2.2988
X4.6045Y-2.7344
X4.605Y-3.855
X4.6067Y-3.7776
X4.6067Y-1.5586
X4.6079Y-0.0821
X4.6092Y-2.9461
X4.6093Y-2.6742
X4.6093Y-1.8357
X4.6094Y-0.8563
X4.6096Y-1.4966
X4.6096Y-3.0164
X4.6097Y-0.5489
X4.6098Y-0.9248
X4.6108Y-2.8811
X4.6111Y-1.1286
X4.6113Y-0.161
X4.6113Y-2.8173
X4.6297Y-0.5926
X4.6297Y-0.5285
X4.6306Y-2.7796
X4.6308Y-3.7521
X4.6313Y-1.1598
X4.6318Y-0.8916
X4.632Y-0.8257
X4.6321Y-0.6504
X4.6328Y-2.7073
X4.633Y-1.0912
X4.635Y-1.872
X4.6359Y-1.2348
X4.6368Y-1.6074
X4.6388Y-1.4623
X4.6388Y-1.7972
X4.6397Y-2.3429
X4.6401Y-3.8118
X4.6411Y-2.6127
X4.6413Y-1.5317
X4.6421Y-2.5464
X4.6433Y-0.7629
X4.6437Y-2.4029
X4.6439Y-3.3161
X4.6459Y-2.2735
X4.6642Y-3.2852
X4.6643Y-2.5006
X4.6658Y-1.2017
X4.6659Y-0.6293
X4.6659Y-2.373
X4.6662Y-1.1207
X4.6668Y-0.7895
X4.6677Y-1.5057
X4.6683Y-2.3083
X4.6689Y-4.8679
X4.6714Y-1.629
X4.6725Y-1.5658
X4.6726Y-2.6481
X4.6726Y-1.8951
X4.6727Y-1.326
X4.6735Y-0.5517
X4.6735Y-1.4045
X4.6743Y-2.5724
X4.6746Y-3.8532
X4.6749Y-2.7508
X4.6751Y-1.0627
X4.677Y-4.931
X4.677Y-0.8526
X4.6778Y-1.8419
X4.6795Y-3.7932
X4.6796Y-1.2706
X4.6968Y-2.6766
X4.6983Y-2.5345
X4.699Y-3.8158
X4.7004Y-3.1516
X4.7016Y-2.9858
X4.7017Y-3.7192
X4.7022Y-1.1643
X4.7023Y-1.3598
X4.7027Y-1.4351
X4.7041Y-1.2254
X4.7045Y-2.2667
X4.7046Y-1.5308
X4.7053Y-1.6711
X4.7053Y-0.5318
X4.7053Y-1.1033
X4.7059Y-2.6104
X4.706Y-1.0315
X4.7071Y-0.7613
X4.7073Y-0.8223
X4.7081Y-1.5932
X4.7087Y-0.5904
X4.7094Y-2.3999
X4.7099Y-2.343
X4.7102Y-1.9302
X4.7109Y-1.8739
X4.7116Y-0.6567
X4.712Y-1.289
X4.7309Y-1.5624
X4.7321Y-1.9044
X4.7331Y-0.9936
X4.7339Y-3.7513
X4.7347Y-1.0648
X4.735Y-4.463
X4.7357Y-0.5548
X4.7359Y-1.3263
X4.7371Y-1.1925
X4.7374Y-1.472
X4.7376Y-2.512
X4.738Y-2.5664
X4.738Y-1.6368
X4.7381Y-2.301
X4.7395Y-1.3913
X4.7407Y-0.7985
X4.741Y-2.3772
X4.7414Y-3.8586
X4.7423Y-1.9699
X4.7431Y-1.2585
X4.7442Y-3.0191
X4.7455Y-0.6299
X4.7462Y-2.6431
X4.7465Y-1.1267
X4.7471Y-3.0747
X4.7645Y-1.672
X4.7657Y-1.5059
X4.7659Y-2.5459
X4.7661Y-3.4202
X4.7662Y-1.1021
X4.7673Y-2.6146
X4.7683Y-4.4157
X4.7687Y-2.6724
X4.7688Y-1.0357
X4.769Y-0.7578
X4.77Y-3.7803
X4.7704Y-2.3335
X4.771Y-3.0426
X4.7711Y-1.4378
X4.7732Y-1.5984
X4.7738Y-2.3986
X4.7744Y-1.2241
X4.7764Y-3.1054
X4.7771Y-1.3699
X4.7775Y-0.9596
X4.7776Y-3.7135
X4.7785Y-0.5909
X4.7795Y-0.6587
X4.7801Y-1.1589
X4.7801Y-2.9791
X4.7803Y-1.2903
X4.7805Y-0.5246
X4.7805Y-2.269
X4.7983Y-2.65
X4.7989Y-1.7601
X4.799Y-0.6284
X4.7996Y-1.1296
X4.8005Y-2.5807
X4.8016Y-4.4616
X4.8017Y-2.2988
X4.8028Y-3.0138
X4.8032Y-3.0735
X4.8035Y-2.3678
X4.8048Y-4.2897
X4.8058Y-1.0652
X4.8073Y-3.4569
X4.8082Y-3.8187
X4.8086Y-3.3737
X4.8087Y-0.9272
X4.8092Y-3.7586
X4.8099Y-1.0003
X4.8129Y-1.5262
X4.8129Y-4.3514
X4.813Y-0.5648
X4.8131Y-3.1519
X4.8319Y-0.9544
X4.832Y-3.7783
X4.8324Y-0.5201
X4.8327Y-4.3186
X4.8334Y-3.0495
X4.8347Y-1.802
X4.8349Y-3.1077
X4.8359Y-4.2604
X4.838Y-2.6758
X4.8396Y-3.3488
X4.8404Y-3.4752
X4.8409Y-3.7109
X4.8424Y-1.0324
X4.843Y-3.8505
X4.8448Y-1.0983
X4.8449Y-0.899
X4.8472Y-3.4203
X4.8475Y-2.61
X4.8477Y-4.393
X4.8477Y-0.5861
X4.8659Y-4.5573
X4.8667Y-3.5161
X4.8673Y-3.0816
X4.8676Y-4.3551
X4.8689Y-3.0083
X4.8693Y-1.0591
X4.8701Y-0.866
X4.8735Y-0.9907
X4.8736Y-4.4211
X4.875Y-4.2837
X4.876Y-4.4865
X4.8765Y-1.773
X4.8767Y-2.6469
X4.8774Y-0.926
X4.8779Y-3.4448
X4.8813Y-3.3883
X4.8985Y-1.8049
X4.9028Y-4.3272
X4.9029Y-0.8185
X4.9048Y-2.3717
X4.9051Y-4.2587
X4.9058Y-1.0323
X4.9064Y-0.9532
X4.9066Y-3.0464
X4.9067Y-2.2302
X4.909Y-2.3024
X4.9092Y-4.397
X4.9102Y-4.4569
X4.911Y-0.8987
X4.9141Y-4.5262
X4.9144Y-2.6695
X4.9152Y-1.6387
X4.9333Y-1.828
X4.9337Y-2.4115
X4.9338Y-4.5509
X4.9339Y-3.0182
X4.9345Y-0.9893
X4.9349Y-0.263
X4.9352Y-0.086
X4.9355Y-2.2788
X4.9364Y-0.4939
X4.9367Y-0.5581
X4.9382Y-1.6589
X4.9389Y-4.4303
X4.9407Y-4.4965
X4.9407Y-1.9954
X4.9409Y-0.6217
X4.9416Y-0.9311
X4.9426Y-1.4664
X4.9436Y-0.7975
X4.9453Y-2.7352
X4.9461Y-4.3563
X4.9481Y-2.3339
X4.9487Y-4.2922
X4.9487Y-0.8566
X4.9682Y-1.1708
X4.969Y-2.3023
X4.9695Y-4.3261
X4.9701Y-0.6534
X4.9718Y-4.5257
X4.972Y-0.5868
X4.9728Y-1.4987
X4.9728Y-0.5262
X4.9741Y-4.3901
X4.9745Y-4.4643
X4.9772Y-1.9424
X4.978Y-0.8959
X4.9781Y-0.1917
X4.9786Y-0.8344
X4.9787Y-1.8683
X4.9788Y-0.7519
X4.9807Y-0.9617
X4.981Y-2.3812
X4.9813Y-0.1144
X4.9815Y-2.2435
X5.0018Y-0.8617
X5.0026Y-0.7977
X5.0026Y-0.6183
X5.0039Y-0.2835
X5.0049Y-2.0399
X5.0052Y-1.1209
X5.0061Y-0.1469
X5.0071Y-1.9766
X5.0075Y-2.3446
X5.0092Y-2.4047
X5.0097Y-4.4177
X5.0097Y-0.0825
X5.0099Y-0.9327
X5.0104Y-0.2256
X5.0106Y-2.5036
X5.0111Y-1.8954
X5.0116Y-4.3582
X5.0118Y-0.555
X5.0134Y-4.4942
X5.0138Y-0.4911
X5.0155Y-2.2768
X5.0156Y-1.5264
X5.0347Y-0.6637
X5.0361Y-2.5335
X5.0362Y-0.7573
X5.0366Y-1.1685
X5.0368Y-0.1283
X5.0376Y-0.8934
X5.0389Y-1.9414
X5.0389Y-4.8583
X5.0395Y-2.1452
X5.0402Y-2.2984
X5.0419Y-1.4989
X5.0423Y-1.0955
X5.0425Y-0.5933
X5.0436Y-1.9951
X5.0442Y-1.5665
X5.0444Y-3.4499
X5.0456Y-3.3779
X5.0458Y-2.3656
X5.0461Y-0.1944
X5.047Y-2.0732
X5.0471Y-0.3267
X5.0472Y-0.2536
X5.0475Y-0.8336
X5.0479Y-2.2083
X5.048Y-0.4511
X5.0488Y-0.3942
X5.0493Y-0.5233
X5.0667Y-0.2915
X5.0672Y-0.3613
X5.0678Y-2.0379
X5.0699Y-1.2033
X5.07Y-1.0656
X5.0704Y-3.3195
X5.0705Y-0.0885
X5.0714Y-0.8643
X5.0714Y-2.1738
X5.0715Y-2.9697
X5.072Y-2.5052
X5.072Y-0.2134
X5.0728Y-2.7774
X5.0729Y-0.4916
X5.0735Y-2.2381
X5.0741Y-1.5239
X5.0744Y-0.1525
X5.0746Y-1.6019
X5.0752Y-1.9747
X5.0757Y-0.5613
X5.0762Y-0.7944
X5.0784Y-3.4205
X5.0785Y-2.3315
X5.0799Y-2.4098
X5.0802Y-1.1208
X5.0802Y-4.8935
X5.0817Y-2.1025
X5.082Y-0.4297
X5.0821Y-0.625
X5.1012Y-2.2042
X5.1016Y-0.4572
X5.1019Y-4.8272
X5.1024Y-2.0012
X5.1027Y-1.1003
X5.1033Y-2.5332
X5.1036Y-0.3207
X5.1041Y-1.5665
X5.1054Y-2.3656
X5.1059Y-0.8192
X5.1059Y-0.7656
X5.107Y-0.3956
X5.1076Y-2.1296
X5.1085Y-0.5926
X5.1089Y-0.6562
X5.109Y-1.1636
X5.1095Y-3.3493
X5.1098Y-0.1186
X5.1098Y-2.0739
X5.1108Y-0.5253
X5.1118Y-0.25
X5.1118Y-0.1823
X5.1126Y-2.2695
X5.1133Y-1.6401
X5.1149Y-3.2805
X5.1154Y-1.0234
X5.1165Y-1.2325
X5.1347Y-2.6826
X5.1351Y-0.7875
X5.1356Y-0.083
X5.1358Y-0.2885
X5.136Y-3.307
X5.1364Y-0.6294
X5.1365Y-2.6144
X5.1374Y-1.5925
X5.1386Y-4.9014
X5.1394Y-1.0626
X5.1409Y-0.2151
X5.142Y-0.4269
X5.144Y-0.9964
X5.1441Y-0.4899
X5.1447Y-3.7178
X5.1457Y-0.1508
X5.1461Y-2.7472
X5.1468Y-0.3576
X5.1475Y-3.3828
X5.1503Y-0.5514
X5.1505Y-1.5386
X5.1688Y-1.0235
X5.1689Y-0.463
X5.169Y-0.1895
X5.1692Y-0.5202
X5.1699Y-0.5966
X5.1699Y-0.9661
X5.1702Y-1.63
X5.1705Y-0.6654
X5.1723Y-0.1169
X5.1724Y-3.1507
X5.173Y-3.2812
X5.1752Y-3.7521
X5.1752Y-0.3939
X5.1767Y-3.411
X5.178Y-0.2539
X5.1786Y-3.348
X5.1796Y-0.3163
X5.1801Y-1.5605
X5.2011Y-0.0849
X5.2012Y-0.5541
X5.2013Y-1.0688
X5.2025Y-0.999
X5.2068Y-0.4244
X5.2072Y-3.7795
X5.2081Y-0.2892
X5.2086Y-3.3884
X5.2092Y-1.9409
X5.2099Y-1.8617
X5.2105Y-3.3098
X5.2111Y-0.2191
X5.2121Y-0.3524
X5.2122Y-1.8034
X5.2125Y-0.1475
X5.2133Y-0.6177
X5.2142Y-0.4974
X5.2155Y-1.6709
X5.2155Y-0.9303
X5.216Y-3.1133
X5.2358Y-1.898
X5.236Y-0.6648
X5.2392Y-1.7709
X5.2395Y-0.8901
X5.2404Y-1.8317
X5.2408Y-0.9618
X5.2412Y-3.0773
X5.2417Y-3.3456
X5.2429Y-1.9713
X5.2438Y-3.8133
X5.2438Y-0.1944
X5.2454Y-0.2547
X5.2472Y-1.0241
X5.2476Y-3.4149
X5.2477Y-3.2727
X5.2479Y-0.1206
X5.2495Y-3.1492
X5.2502Y-0.5189
X5.2513Y-0.5968
X5.2683Y-2.9131
X5.2685Y-3.7776
X5.269Y-1.8029
X5.2696Y-0.5529
X5.2707Y-0.4929
X5.2711Y-1.0003
X5.2711Y-3.0412
X5.2719Y-1.462
X5.272Y-2.2353
X5.2729Y-2.7099
X5.2729Y-0.0931
X5.273Y-2.847
X5.2735Y-2.6379
X5.2745Y-3.4527
X5.2745Y-2.408
X5.2752Y-3.3793
X5.2752Y-3.1118
X5.2761Y-0.1608
X5.2794Y-0.8616
X5.2796Y-1.9345
X5.2798Y-3.3215
X5.2809Y-2.9805
X5.2816Y-0.6254
X5.2818Y-0.9199
X5.2823Y-2.7757
X5.2846Y-1.8664
X5.3029Y-0.8856
X5.3037Y-1.8984
X5.3049Y-2.5117
X5.3055Y-4.3487
X5.3063Y-2.9468
X5.3066Y-3.0143
X5.3071Y-3.1508
X5.3072Y-2.5805
X5.3073Y-2.8772
X5.3073Y-3.3459
X5.3074Y-2.3408
X5.3075Y-2.8121
X5.3075Y-4.7316
X5.3093Y-3.4743
X5.3094Y-3.4119
X5.3099Y-3.8177
X5.31Y-1.8394
X5.31Y-0.5921
X5.3104Y-2.674
X5.3111Y-0.1125
X5.3115Y-2.7436
X5.3123Y-1.4983
X5.3129Y-2.265
X5.3131Y-1.2658
X5.3145Y-3.2811
X5.3151Y-0.5272
X5.3164Y-4.651
X5.3164Y-0.9669
X5.3166Y-3.0848
X5.3166Y-1.7609
X5.336Y-1.4688
X5.3367Y-0.0898
X5.3381Y-2.7008
X5.3381Y-3.1184
X5.339Y-2.6096
X5.3393Y-2.3739
X5.3401Y-2.9749
X5.3417Y-1.5343
X5.3419Y-2.5443
X5.3425Y-4.4654
X5.343Y-4.7518
X5.3434Y-0.1596
X5.3445Y-1.8756
X5.3447Y-4.6956
X5.345Y-4.5871
X5.345Y-3.0493
X5.3453Y-3.778
X5.3455Y-2.309
X5.3464Y-1.2213
X5.3476Y-1.1575
X5.3476Y-2.7699
X5.3476Y-4.3961
X5.3482Y-4.2957
X5.3484Y-1.7972
X5.3484Y-3.8447
X5.3502Y-3.3189
X5.3504Y-2.8373
X5.3505Y-2.9032
X5.3506Y-2.2451
X5.3508Y-4.5262
X5.3696Y-4.7301
X5.3723Y-1.1232
X5.373Y-1.573
X5.3732Y-2.6394
X5.3739Y-1.9095
X5.3741Y-1.5009
X5.3744Y-2.335
X5.375Y-1.8366
X5.376Y-2.5141
X5.3774Y-2.4063
X5.3786Y-1.267
X5.3789Y-2.7485
X5.3806Y-2.5664
X5.3822Y-2.2699
X5.384Y-3.2839
X5.3843Y-0.119
X5.3856Y-1.1936
X5.3858Y-4.6541
X5.4035Y-0.8617
X5.406Y-0.9896
X5.4069Y-0.9332
X5.4079Y-4.7645
X5.4087Y-1.864
X5.4087Y-2.6037
X5.4112Y-0.0899
X5.4122Y-2.37
X5.4125Y-1.5941
X5.414Y-1.2222
X5.4143Y-3.3182
X5.4155Y-1.4265
X5.4158Y-1.1569
X5.4162Y-1.0617
X5.4168Y-2.3089
X5.4169Y-2.6744
X5.4173Y-1.2997
X5.4176Y-1.5259
X5.4177Y-2.5429
X5.4186Y-0.7996
X5.4372Y-0.8996
X5.4378Y-1.3297
X5.438Y-2.7063
X5.4387Y-1.1896
X5.4389Y-2.3396
X5.4399Y-1.5694
X5.4411Y-1.6272
X5.4424Y-2.5673
X5.4434Y-1.3958
X5.4442Y-2.4032
X5.4447Y-2.2719
X5.4448Y-3.2746
X5.4455Y-1.0952
X5.4461Y-1.2683
X5.4466Y-0.9608
X5.4468Y-1.4717
X5.447Y-1.0241
X5.4475Y-0.8345
X5.4485Y-1.9075
X5.4504Y-4.7283
X5.4506Y-0.5165
X5.4508Y-2.5068
X5.4518Y-2.6356
X5.4721Y-0.218
X5.4725Y-1.9317
X5.4726Y-1.3602
X5.4729Y-3.7231
X5.473Y-2.9813
X5.4758Y-1.0001
X5.476Y-4.7602
X5.4766Y-2.5381
X5.4767Y-2.613
X5.4773Y-3.0387
X5.4786Y-1.4944
X5.4789Y-3.1065
X5.4791Y-1.2214
X5.4796Y-0.8647
X5.4807Y-0.9346
X5.4812Y-1.2929
X5.482Y-1.5996
X5.4822Y-2.6679
X5.4825Y-1.6677
X5.483Y-1.065
X5.4847Y-3.7925
X5.4851Y-0.789
X5.4854Y-1.4255
X5.4856Y-2.3743
X5.486Y-2.3068
X5.4862Y-1.1342
X5.5042Y-1.4704
X5.5064Y-2.2702
X5.5065Y-3.4784
X5.5075Y-4.7256
X5.5077Y-1.156
X5.5084Y-0.8987
X5.5086Y-3.4223
X5.5092Y-3.0187
X5.5103Y-1.6351
X5.5106Y-2.4012
X5.5113Y-3.1412
X5.5123Y-3.8187
X5.5126Y-1.5399
X5.5134Y-1.337
X5.5138Y-2.5141
X5.5139Y-0.8321
X5.5142Y-1.3937
X5.5159Y-2.6482
X5.5161Y-2.5722
X5.5173Y-3.0867
X5.5175Y-2.3442
X5.5177Y-1.0267
X5.5182Y-3.7492
X5.5186Y-1.2589
X5.5203Y-0.9566
X5.5203Y-1.0933
X5.5376Y-2.3681
X5.5381Y-0.9231
X5.539Y-2.3046
X5.5396Y-0.9985
X5.54Y-3.0389
X5.5404Y-1.2939
X5.5404Y-3.7896
X5.5432Y-3.1061
X5.5435Y-2.9748
X5.544Y-1.3627
X5.5441Y-3.3775
X5.5442Y-1.4389
X5.5453Y-3.5201
X5.5463Y-1.1303
X5.5466Y-1.4928
X5.5468Y-3.725
X5.5473Y-2.6001
X5.5494Y-2.6829
X5.5498Y-4.7675
X5.5508Y-3.8468
X5.5516Y-1.0679
X5.5519Y-0.8615
X5.552Y-0.7521
X5.552Y-1.1947
X5.5524Y-3.4563
X5.5526Y-0.6249
X5.5528Y-2.538
X5.5713Y-3.0751
X5.572Y-0.7991
X5.5736Y-3.7563
X5.5739Y-1.0224
X5.5764Y-1.7615
X5.5781Y-3.1387
X5.5799Y-0.6542
X5.5813Y-3.3544
X5.5817Y-2.5749
X5.5831Y-1.1541
X5.5836Y-3.0064
X5.5841Y-3.4219
X5.5844Y-0.9004
X5.5851Y-4.7208
X5.5857Y-2.6432
X5.5862Y-3.4764
X5.5863Y-0.9639
X5.5868Y-1.1035
X5.5871Y-0.5926
X5.5872Y-1.2284
X5.6053Y-3.3806
X5.6064Y-0.6162
X5.6067Y-3.5169
X5.6073Y-3.6584
X5.6074Y-0.752
X5.608Y-4.3561
X5.6085Y-0.8224
X5.6103Y-4.4161
X5.6106Y-0.5524
X5.611Y-4.7679
X5.612Y-1.1363
X5.6132Y-3.5802
X5.6137Y-4.2881
X5.6138Y-1.8052
X5.6148Y-0.9955
X5.6154Y-3.4543
X5.6162Y-4.2285
X5.6164Y-0.9208
X5.6175Y-1.0667
X5.6188Y-3.3224
X5.6192Y-3.0529
X5.6195Y-3.1045
X5.6196Y-2.6084
X5.6197Y-1.2031
X5.6201Y-2.668
X5.6211Y-3.7167
X5.6385Y-3.6873
X5.6385Y-1.7615
X5.6391Y-3.7509
X5.6405Y-0.9654
X5.6406Y-1.1637
X5.6407Y-1.5014
X5.6419Y-2.6481
X5.6421Y-0.5918
X5.6423Y-1.0897
X5.6425Y-2.0356
X5.643Y-4.3232
X5.6434Y-2.3742
X5.6445Y-3.0179
X5.6448Y-0.4836
X5.6459Y-0.6649
X5.6461Y-3.2774
X5.6473Y-2.7028
X5.6482Y-3.5567
X5.65Y-3.4887
X5.6513Y-1.0299
X5.6516Y-2.2407
X5.6516Y-4.0802
X5.6516Y-3.6143
X5.6518Y-3.4169
X5.6522Y-2.2982
X5.6527Y-0.7917
X5.6529Y-4.7268
X5.6529Y-4.3885
X5.6536Y-4.2587
X5.6541Y-3.081
X5.6542Y-4.147
X5.6543Y-0.8668
X5.6548Y-3.3536
X5.6719Y-2.6796
X5.6719Y-0.7609
X5.6726Y-4.1803
X5.6736Y-0.8267
X5.6737Y-2.4014
X5.6751Y-3.4441
X5.6751Y-0.5227
X5.6771Y-4.3482
X5.6773Y-0.6319
X5.6781Y-2.3378
X5.6788Y-3.6461
X5.6803Y-3.777
X5.6807Y-1.4645
X5.6809Y-1.1333
X5.6809Y-4.7543
X5.6818Y-3.3165
X5.6824Y-3.5846
X5.6829Y-3.8566
X5.6831Y-3.3816
X5.6834Y-2.2791
X5.6834Y-0.9914
X5.6838Y-1.0677
X5.6843Y-1.6078
X5.6861Y-0.895
X5.6862Y-3.0482
X5.6868Y-4.1291
X5.687Y-3.5163
X5.6873Y-4.2886
X5.6875Y-1.6746
X5.6879Y-1.53
X5.6882Y-3.7214
X5.6884Y-1.8028
X5.7056Y-3.7576
X5.7058Y-2.2443
X5.7059Y-1.9772
X5.706Y-1.8314
X5.7069Y-3.285
X5.7072Y-1.5629
X5.7075Y-1.0327
X5.7086Y-0.6538
X5.7089Y-0.1558
X5.7099Y-1.6413
X5.71Y-3.0105
X5.7119Y-4.2215
X5.7119Y-4.733
X5.7121Y-4.1606
X5.7129Y-2.0317
X5.7144Y-3.8109
X5.7155Y-2.369
X5.7162Y-3.3408
X5.7163Y-1.0951
X5.7164Y-3.6775
X5.7169Y-1.767
X5.7173Y-0.2179
X5.718Y-3.6116
X5.7184Y-1.9033
X5.7185Y-0.5592
X5.7191Y-0.9201
X5.7193Y-0.7974
X5.7195Y-3.4112
X5.7202Y-0.8548
X5.7211Y-4.3304
X5.7211Y-1.5033
X5.7213Y-3.5516
X5.7215Y-3.4843
X5.7217Y-1.1572
X5.7219Y-2.2993
X5.7391Y-1.0631
X5.7395Y-0.955
X5.7396Y-0.8895
X5.7397Y-3.6534
X5.7399Y-3.5144
X5.7402Y-4.7644
X5.7404Y-0.5974
X5.7417Y-3.4526
X5.7418Y-0.1875
X5.7421Y-4.1901
X5.7425Y-2.0087
X5.7437Y-2.2745
X5.7444Y-1.1307
X5.7446Y-2.4015
X5.7447Y-2.3387
X5.7458Y-3.316
X5.7469Y-1.8757
X5.7474Y-1.6687
X5.7474Y-3.5765
X5.7479Y-0.5188
X5.7488Y-4.2525
X5.7492Y-1.6009
X5.7494Y-2.5072
X5.7498Y-0.7609
X5.7509Y-1.9351
X5.7525Y-3.7153
X5.7526Y-1.5396
X5.7529Y-1.7984
X5.753Y-4.1282
X5.7531Y-0.8261
X5.7539Y-3.7778
X5.7553Y-1.4609
X5.7558Y-3.3823
X5.7728Y-1.8296
X5.7731Y-4.7255
X5.7738Y-2.3004
X5.7741Y-4.1543
X5.7747Y-4.2168
X5.7756Y-1.9623
X5.7757Y-1.8944
X5.776Y-1.4936
X5.7762Y-0.5504
X5.7762Y-2.5404
X5.7766Y-2.381
X5.7771Y-2.2127
X5.778Y-0.9325
X5.7782Y-1.639
X5.7803Y-3.4821
X5.7818Y-3.1408
X5.782Y-4.2818
X5.782Y-0.9958
X5.7823Y-0.7934
X5.7832Y-1.1601
X5.7838Y-2.0346
X5.7845Y-3.3558
X5.7858Y-1.7759
X5.788Y-0.62
X5.7886Y-3.285
X5.789Y-1.566
X5.7891Y-3.4105
X5.7892Y-0.865
X5.7893Y-1.094
X5.8066Y-2.0651
X5.8077Y-2.4996
X5.8081Y-4.4549
X5.8086Y-0.8925
X5.8087Y-3.4418
X5.8093Y-1.5983
X5.8093Y-1.1285
X5.8094Y-1.0287
X5.8103Y-1.8636
X5.8122Y-0.9572
X5.8125Y-0.524
X5.8128Y-1.1945
X5.8129Y-2.0026
X5.8133Y-1.664
X5.8138Y-2.3451
X5.8138Y-0.8181
X5.814Y-1.936
X5.8143Y-4.1943
X5.8147Y-4.1271
X5.8149Y-2.24
X5.8157Y-2.143
X5.8159Y-0.5902
X5.817Y-2.4009
X5.8175Y-1.8
X5.8175Y-4.2587
X5.8188Y-3.3883
X5.8191Y-1.5307
X5.8195Y-3.3127
X5.8214Y-3.1188
X5.8221Y-0.6654
X5.8225Y-0.7519
X5.823Y-4.7605
X5.8403Y-2.1762
X5.8403Y-4.1569
X5.8404Y-0.7871
X5.8407Y-2.3803
X5.8415Y-0.9308
X5.8425Y-0.6205
X5.8425Y-1.5584
X5.8426Y-1.9761
X5.8426Y-3.3434
X5.844Y-1.7695
X5.8442Y-1.9041
X5.8443Y-4.4268
X5.8444Y-0.8576
X5.8445Y-3.9573
X5.8445Y-0.9948
X5.8446Y-2.5333
X5.845Y-3.7209
X5.8455Y-1.0594
X5.8456Y-2.1051
X5.8463Y-3.4198
X5.8467Y-2.9761
X5.8477Y-3.7808
X5.8479Y-2.2717
X5.8502Y-4.222
X5.8502Y-0.5558
X5.8509Y-3.0414
X5.8519Y-1.6314
X5.8521Y-1.8343
X5.8522Y-0.4886
X5.853Y-2.0299
X5.8531Y-3.1454
X5.8532Y-3.8484
X5.8534Y-2.7682
X5.8536Y-1.1628
X5.855Y-4.7186
X5.8552Y-1.227
X5.8554Y-3.2845
X5.8736Y-2.4024
X5.8736Y-0.8309
X5.8741Y-1.5371
X5.8745Y-2.6725
X5.8745Y-4.7524
X5.8749Y-3.0059
X5.8751Y-1.8603
X5.8752Y-2.5732
X5.8757Y-0.287
X5.8759Y-3.3821
X5.8779Y-2.0659
X5.8785Y-2.7367
X5.8786Y-1.0933
X5.8793Y-2.3093
X5.8794Y-0.6501
X5.8799Y-1.6643
X5.8804Y-1.0349
X5.8804Y-3.7533
X5.881Y-0.9628
X5.8812Y-1.7957
X5.8827Y-0.4641
X5.8828Y-4.1901
X5.8829Y-4.454
X5.884Y-2.1432
X5.8843Y-0.7655
X5.8844Y-1.6006
X5.8845Y-2.2061
X5.8847Y-1.9997
X5.8859Y-3.8218
X5.8862Y-3.3166
X5.8863Y-4.122
X5.8875Y-1.9412
X5.8886Y-0.531
X5.8895Y-0.5831
X5.8897Y-0.8851
X5.8899Y-3.0813
X5.8899Y-2.5112
X5.9075Y-1.7661
X5.9084Y-0.9931
X5.9086Y-2.7155
X5.9093Y-2.6164
X5.9094Y-1.0568
X5.9095Y-0.5593
X5.9096Y-2.1717
X5.9097Y-1.8419
X5.9102Y-3.3524
X5.9104Y-0.4889
X5.9116Y-3.7227
X5.9119Y-0.6243
X5.9127Y-3.4216
X5.9129Y-2.784
X5.9139Y-0.8663
X5.9141Y-2.2322
X5.9157Y-4.7243
X5.9158Y-2.9744
X5.9159Y-2.3338
X5.9162Y-0.9211
X5.9162Y-1.9705
X5.917Y-3.2755
X5.9174Y-2.0334
X5.9178Y-2.5469
X5.918Y-1.9101
X5.9182Y-3.047
X5.919Y-3.1112
X5.9206Y-2.098
X5.9209Y-3.7827
X5.921Y-1.567
X5.9214Y-1.6316
X5.9227Y-4.1513
X5.9236Y-0.7893
X5.941Y-1.9299
X5.9435Y-0.9634
X5.9439Y-4.1182
X5.9439Y-3.7527
X5.944Y-2.749
X5.9445Y-3.1408
X5.9446Y-0.5892
X5.9447Y-0.8275
X5.9449Y-2.0091
X5.945Y-1.6602
X5.945Y-0.5254
X5.9451Y-3.0849
X5.9462Y-1.8707
X5.9465Y-3.3062
X5.9467Y-1.8068
X5.9468Y-1.6072
X5.9488Y-1.0323
X5.9491Y-0.7569
X5.9492Y-0.8886
X5.9502Y-0.2567
X5.9507Y-0.0848
X5.9514Y-4.7638
X5.9525Y-0.1853
X5.9527Y-3.3893
X5.9529Y-2.5708
X5.953Y-2.6421
X5.9533Y-3.0137
X5.9565Y-0.6574
X5.9746Y-0.7897
X5.975Y-4.7236
X5.9762Y-0.496
X5.9774Y-0.1274
X5.9774Y-0.8586
X5.9776Y-1.6291
X5.9777Y-3.2826
X5.9778Y-4.162
X5.9783Y-3.3478
X5.9792Y-2.5485
X5.9797Y-2.8499
X5.9798Y-3.1171
X5.9802Y-0.6294
X5.9809Y-1.8269
X5.9811Y-0.9966
X5.9821Y-2.6099
X5.9826Y-0.9326
X5.9826Y-3.0419
X5.9827Y-2.6685
X5.9828Y-1.9645
X5.9841Y-2.7699
X5.9841Y-0.213
X5.9851Y-3.7898
X5.986Y-3.4127
X5.9872Y-0.561
X5.9878Y-2.9755
X5.9887Y-1.0622
X5.9889Y-1.9052
X5.989Y-1.77
X5.9898Y-2.9049
X6.0082Y-4.7602
X6.0096Y-3.4461
X6.0104Y-0.9571
X6.0107Y-1.8067
X6.0116Y-2.7134
X6.0118Y-0.8183
X6.0122Y-1.4604
X6.013Y-3.1412
X6.0131Y-3.0112
X6.0141Y-2.2434
X6.0144Y-0.6501
X6.0148Y-2.8842
X6.0152Y-0.5869
X6.0156Y-2.4037
X6.0171Y-0.5194
X6.0176Y-2.8095
X6.0179Y-0.1527
X6.0182Y-0.0903
X6.0182Y-1.9316
X6.0184Y-2.6489
X6.0187Y-3.3789
X6.02Y-4.1209
X6.0204Y-1.0261
X6.0216Y-0.8853
X6.0217Y-3.3219
X6.0217Y-2.947
X6.0223Y-3.0779
X6.0228Y-2.5665
X6.0233Y-0.7549
X6.0242Y-1.8644
X6.0416Y-4.7348
X6.0424Y-4.1526
X6.0424Y-0.6192
X6.0426Y-2.5012
X6.0429Y-2.7397
X6.0432Y-1.8385
X6.0447Y-0.9337
X6.045Y-1.5043
X6.0457Y-0.8005
X6.0463Y-1.7758
X6.0468Y-2.3433
X6.0469Y-2.844
X6.047Y-3.2803
X6.0472Y-2.2656
X6.0477Y-3.8507
X6.0477Y-2.9044
X6.048Y-0.8647
X6.0489Y-3.9535
X6.0489Y-0.5606
X6.0496Y-3.7918
X6.0504Y-3.039
X6.0518Y-2.9819
X6.0518Y-3.478
X6.0522Y-1.9027
X6.053Y-3.4232
X6.0535Y-1.0024
X6.0544Y-1.2642
X6.0554Y-0.4576
X6.0557Y-3.1203
X6.0558Y-2.608
X6.0567Y-0.1229
X6.057Y-3.3432
X6.0578Y-2.6697
X6.0758Y-4.7555
X6.0768Y-0.1487
X6.0771Y-3.0069
X6.0807Y-2.9396
X6.0823Y-1.867
X6.084Y-0.0786
X6.0841Y-2.7077
X6.0848Y-1.531
X6.0849Y-2.2327
X6.0851Y-1.1551
X6.0855Y-2.3728
X6.086Y-2.7804
X6.0863Y-3.3091
X6.0865Y-1.7964
X6.0866Y-3.8233
X6.0871Y-2.8789
X6.0878Y-2.5388
X6.088Y-2.6363
X6.0887Y-1.2287
X6.0903Y-4.1241
X6.0906Y-3.1464
X6.0909Y-3.0806
X6.0911Y-2.3123
X6.092Y-1.4627
X6.1092Y-4.158
X6.1095Y-2.276
X6.1099Y-2.811
X6.1107Y-2.7407
X6.1108Y-0.1118
X6.1117Y-3.2813
X6.1121Y-2.5724
X6.1124Y-2.9081
X6.1136Y-1.1228
X6.1141Y-4.7329
X6.1142Y-2.6727
X6.1149Y-2.4087
X6.1161Y-2.9769
X6.1168Y-2.3379
X6.1175Y-1.2566
X6.1177Y-2.509
X6.1212Y-1.8347
X6.1217Y-1.1877
X6.1219Y-2.1978
X6.1234Y-3.7829
X6.124Y-1.8939
X6.1242Y-1.5717
X6.1246Y-1.5056
X6.1433Y-3.3195
X6.1445Y-1.0695
X6.1446Y-0.9268
X6.1454Y-2.2318
X6.1464Y-1.5322
X6.1476Y-1.5982
X6.1487Y-2.7131
X6.1496Y-1.4611
X6.1502Y-2.5998
X6.1508Y-2.2987
X6.1516Y-1.7939
X6.1519Y-0.4909
X6.1522Y-1.2378
X6.1524Y-1.8727
X6.1537Y-0.9898
X6.1551Y-1.2999
X6.1553Y-2.3759
X6.1556Y-0.7883
X6.1558Y-4.7677
X6.1559Y-0.8673
X6.1561Y-0.0818
X6.1573Y-2.54
X6.159Y-1.1584
X6.1762Y-0.9525
X6.1772Y-1.2582
X6.1785Y-1.3246
X6.1788Y-1.8431
X6.1805Y-2.3322
X6.1806Y-2.2685
X6.1807Y-1.0354
X6.1812Y-1.6257
X6.1815Y-2.5814
X6.1827Y-0.5236
X6.1846Y-4.7337
X6.1849Y-0.9013
X6.1869Y-1.4915
X6.1877Y-3.2852
X6.1882Y-1.3921
X6.1886Y-2.6405
X6.1906Y-1.9059
X6.1907Y-2.4014
X6.1912Y-0.8294
X6.1918Y-2.5003
X6.1921Y-1.5623
X6.1923Y-1.1951
X6.1927Y-1.0973
X6.2098Y-3.7895
X6.2101Y-2.379
X6.2103Y-1.0625
X6.2107Y-1.0025
X6.2109Y-1.3715
X6.2116Y-1.4274
X6.2116Y-2.3008
X6.212Y-2.9847
X6.2123Y-1.6075
X6.2125Y-1.5359
X6.2137Y-4.7545
X6.2144Y-1.6642
X6.2144Y-1.863
X6.2146Y-0.8003
X6.2157Y-2.6046
X6.2177Y-1.9283
X6.2179Y-1.2363
X6.2192Y-2.6671
X6.221Y-2.548
X6.2212Y-3.0462
X6.2221Y-0.935
X6.2237Y-1.1268
X6.2243Y-0.8682
X6.2245Y-3.1204
X6.225Y-1.2953
X6.2262Y-3.7218
X6.2438Y-3.1457
X6.2459Y-1.0928
X6.2482Y-1.3953
X6.2486Y-2.5094
X6.2486Y-1.6279
X6.2491Y-0.9675
X6.2496Y-3.5202
X6.2502Y-2.3384
X6.2503Y-2.2675
X6.2506Y-1.0294
X6.2508Y-1.5632
X6.2509Y-3.0718
X6.2511Y-3.9506
X6.2517Y-2.4061
X6.2518Y-3.0044
X6.2521Y-0.8257
X6.2545Y-0.9016
X6.2549Y-4.725
X6.2551Y-1.3271
X6.2551Y-2.6445
X6.2553Y-2.5767
X6.256Y-1.2695
X6.2566Y-1.4585
X6.2575Y-3.8126
X6.2579Y-3.7454
X6.2588Y-1.1614
X6.2775Y-0.6234
X6.2783Y-0.923
X6.2791Y-3.1079
X6.2798Y-1.3565
X6.2816Y-2.3775
X6.2822Y-1.497
X6.283Y-4.7538
X6.2836Y-2.9791
X6.2839Y-1.2941
X6.2842Y-2.6004
X6.2844Y-3.0374
X6.2851Y-0.9901
X6.2858Y-2.6766
X6.2866Y-1.1351
X6.2872Y-1.1968
X6.2872Y-1.6055
X6.2886Y-2.5423
X6.2894Y-2.3026
X6.2898Y-0.867
X6.2906Y-0.7591
X6.2906Y-1.6723
X6.2909Y-3.7249
X6.2918Y-3.3812
X6.292Y-1.0632
X6.2927Y-1.4323
X6.2931Y-3.4544
X6.3113Y-3.1383
X6.312Y-3.7568
X6.3125Y-0.6563
X6.3129Y-0.892
X6.3141Y-1.1578
X6.3142Y-3.4765
X6.3147Y-3.0081
X6.3172Y-0.797
X6.3174Y-0.5884
X6.3178Y-2.6399
X6.3198Y-1.77
X6.321Y-3.3451
X6.3228Y-1.0203
X6.3233Y-3.4116
X6.3233Y-1.0962
X6.3244Y-3.0832
X6.3246Y-1.2219
X6.3255Y-0.9598
X6.3262Y-2.5724
X6.3269Y-4.7194
X6.3442Y-2.6832
X6.3457Y-1.1241
X6.347Y-0.8222
X6.3477Y-1.8092
X6.3478Y-1.001
X6.3479Y-3.5205
X6.3482Y-1.0617
X6.3499Y-4.7541
X6.3508Y-3.3208
X6.3511Y-0.6247
X6.3514Y-3.3797
X6.3516Y-3.6855
X6.3529Y-1.1979
X6.3529Y-3.1197
X6.3542Y-2.6132
X6.3568Y-3.0427
X6.3574Y-0.9248
X6.3576Y-0.5613
X6.36Y-3.5894
X6.36Y-0.751
X6.3608Y-3.4553
X6.3788Y-1.7736
X6.3789Y-4.7318
X6.3791Y-3.2774
X6.3808Y-3.5473
X6.3811Y-3.0732
X6.3812Y-3.0123
X6.3813Y-3.6173
X6.384Y-1.1562
X6.3842Y-3.8536
X6.3847Y-3.9453
X6.3848Y-3.7104
X6.3849Y-0.6642
X6.3851Y-3.3464
X6.3852Y-3.4832
X6.3861Y-2.6482
X6.3884Y-0.7853
X6.389Y-0.5319
X6.3891Y-1.0888
X6.3898Y-2.7051
X6.3906Y-1.0231
X6.3918Y-3.7825
X6.3931Y-0.856
X6.3933Y-0.962
X6.3938Y-3.4176
X6.3944Y-0.5949
X6.412Y-0.5494
X6.4121Y-3.3771
X6.4128Y-3.4412
X6.4129Y-3.3106
X6.4131Y-0.8855
X6.4137Y-2.2354
X6.414Y-1.6717
X6.4142Y-0.626
X6.4142Y-2.3674
X6.4147Y-1.1311
X6.4155Y-3.7595
X6.416Y-1.604
X6.4162Y-4.756
X6.4165Y-2.3013
X6.4167Y-2.6757
X6.4187Y-0.8197
X6.4187Y-1.8041
X6.4192Y-1.0601
X6.4196Y-1.4688
X6.42Y-3.5151
X6.4211Y-3.5907
X6.4214Y-3.0492
X6.4228Y-1.5369
X6.423Y-3.6513
X6.4249Y-3.8216
X6.4268Y-1.0022
X6.4453Y-1.8972
X6.4454Y-3.2777
X6.4456Y-1.491
X6.4459Y-4.7249
X6.4459Y-3.0174
X6.4464Y-1.7674
X6.4464Y-1.8376
X6.4471Y-0.16
X6.4471Y-0.5281
X6.4473Y-1.6331
X6.4476Y-2.4124
X6.4477Y-4.1562
X6.4479Y-3.6809
X6.4483Y-1.567
X6.4499Y-3.5539
X6.45Y-1.9618
X6.4502Y-3.9499
X6.4515Y-3.8512
X6.4515Y-0.2167
X6.4524Y-3.4749
X6.454Y-0.656
X6.4543Y-1.024
X6.4545Y-3.4224
X6.4562Y-2.2698
X6.4566Y-0.5929
X6.4568Y-4.2968
X6.4571Y-1.1622
X6.4575Y-3.6238
X6.4587Y-2.04
X6.4593Y-1.0875
X6.4594Y-4.0946
X6.4602Y-3.7918
X6.4613Y-3.3463
X6.4617Y-2.3326
X6.4788Y-2.5065
X6.4789Y-2.0035
X6.4798Y-3.6576
X6.4815Y-1.806
X6.4816Y-1.8656
X6.4817Y-1.0605
X6.4836Y-1.6691
X6.4841Y-2.2377
X6.4843Y-3.5817
X6.4845Y-1.5266
X6.4845Y-2.3133
X6.4846Y-2.3782
X6.4848Y-0.5634
X6.4851Y-1.134
X6.4858Y-3.7138
X6.4867Y-1.9352
X6.487Y-0.1804
X6.4878Y-3.3734
X6.4885Y-3.51
X6.4902Y-1.6012
X6.4903Y-1.459
X6.493Y-3.3148
X6.4939Y-0.626
X6.495Y-4.1242
X6.495Y-3.4529
X6.5127Y-1.5587
X6.5133Y-3.4743
X6.5135Y-1.5005
X6.5146Y-2.3999
X6.5155Y-4.1558
X6.5166Y-0.8933
X6.5173Y-2.2039
X6.5177Y-2.2679
X6.5185Y-1.1598
X6.5202Y-2.5413
X6.5204Y-4.0892
X6.5205Y-2.3388
X6.5217Y-1.0869
X6.5246Y-0.5961
X6.5249Y-2.031
X6.5254Y-0.5183
X6.5256Y-1.9042
X6.5257Y-1.7679
X6.5258Y-3.4172
X6.5258Y-1.6346
X6.526Y-1.8337
X6.5262Y-3.3506
X6.5275Y-1.9646
X6.5276Y-3.148
X6.5276Y-3.2815
X6.5459Y-3.3098
X6.546Y-2.2307
X6.5481Y-2.3058
X6.5481Y-2.3707
X6.5499Y-2.5142
X6.5505Y-0.9261
X6.5506Y-1.9304
X6.5513Y-3.3812
X6.5516Y-0.555
X6.5521Y-3.4535
X6.5526Y-1.6712
X6.5543Y-1.1312
X6.5544Y-1.9988
X6.5569Y-1.606
X6.5577Y-2.1353
X6.5586Y-1.8637
X6.5602Y-1.5375
X6.5608Y-3.1175
X6.5609Y-1.7952
X6.561Y-2.5707
X6.5615Y-2.0646
X6.581Y-2.0349
X6.5814Y-1.7617
X6.5822Y-2.3381
X6.5831Y-0.957
X6.5834Y-1.9627
X6.5855Y-1.2259
X6.5871Y-3.785
X6.5874Y-2.5351
X6.5874Y-2.1687
X6.588Y-1.6396
X6.5883Y-0.5208
X6.5887Y-3.7094
X6.5888Y-1.904
X6.589Y-3.1529
X6.5891Y-2.2781
X6.5895Y-3.2782
X6.5899Y-2.7846
X6.5899Y-3.3554
X6.5913Y-1.8422
X6.5913Y-3.0458
X6.5914Y-1.5641
X6.5917Y-0.8994
X6.5926Y-2.1054
X6.5941Y-2.9859
X6.5948Y-1.1707
X6.5951Y-2.4064
X6.5955Y-3.4198
X6.6137Y-4.0877
X6.6143Y-1.8083
X6.6144Y-3.0854
X6.6147Y-3.9606
X6.6154Y-1.8644
X6.6156Y-2.5024
X6.6156Y-0.9214
X6.6166Y-2.5721
X6.6169Y-1.1983
X6.6172Y-0.2907
X6.6173Y-3.3876
X6.6175Y-2.0654
X6.6179Y-2.3742
X6.618Y-3.3201
X6.6185Y-2.2034
X6.6203Y-2.3086
X6.6217Y-2.139
X6.6233Y-0.4949
X6.6235Y-3.0174
X6.6239Y-3.7513
X6.6256Y-1.6749
X6.6261Y-1.5381
X6.6263Y-1.5927
X6.6264Y-2.0047
X6.6279Y-3.8222
X6.6283Y-1.9423
X6.6292Y-1.0018
X6.6486Y-0.8877
X6.6504Y-1.9087
X6.6509Y-3.2787
X6.6528Y-3.7918
X6.6532Y-3.7214
X6.6538Y-1.57
X6.6539Y-3.4137
X6.6543Y-2.0445
X6.6547Y-1.6292
X6.6552Y-2.6706
X6.6554Y-3.8575
X6.6555Y-2.2356
X6.6558Y-1.7665
X6.656Y-2.4005
X6.6572Y-1.838
X6.6577Y-1.9748
X6.6577Y-3.0525
X6.6578Y-2.7432
X6.6587Y-2.5388
X6.6593Y-3.1044
X6.6595Y-1.0324
X6.6599Y-2.9742
X6.6612Y-2.1675
X6.6612Y-2.105
X6.6619Y-0.9567
X6.6621Y-2.6065
X6.6625Y-2.3355
X6.6629Y-3.355
X6.6829Y-3.0824
X6.6832Y-2.5666
X6.6841Y-1.601
X6.6842Y-0.934
X6.6845Y-3.0083
X6.6862Y-2.7763
X6.6867Y-1.7973
X6.6875Y-3.31
X6.6881Y-2.0077
X6.6883Y-2.6368
X6.6891Y-0.2466
X6.6905Y-3.1507
X6.6907Y-1.8624
X6.6913Y-3.3752
X6.6929Y-3.758
X6.693Y-1.0674
X6.6952Y-1.6702
X6.6958Y-4.0934
X6.6959Y-0.9943
X6.6966Y-1.9278
X6.6969Y-2.7097
X6.697Y-0.0847
X6.7141Y-0.896
X6.7151Y-1.9649
X6.7157Y-0.1148
X6.7173Y-2.6031
X6.7176Y-2.9518
X6.7179Y-0.9672
X6.718Y-1.6314
X6.7183Y-2.6829
X6.7184Y-2.5352
X6.7191Y-2.8704
X6.7192Y-3.4186
X6.7199Y-3.0508
X6.7212Y-2.7435
X6.723Y-2.8078
X6.7239Y-1.0337
X6.724Y-1.898
X6.7242Y-1.84
X6.7256Y-4.1137
X6.7272Y-0.1872
X6.7277Y-3.283
X6.7287Y-1.7684
X6.7288Y-3.3546
X6.7293Y-0.6172
X6.7307Y-3.1191
X6.7485Y-1.8083
X6.7485Y-3.4466
X6.7488Y-0.5898
X6.749Y-2.7112
X6.7502Y-0.1486
X6.7506Y-3.1463
X6.7507Y-3.3845
X6.7509Y-3.0801
X6.7513Y-2.6442
X6.7517Y-0.0922
X6.7539Y-1.066
X6.7557Y-0.9188
X6.7566Y-2.9858
X6.7576Y-2.768
X6.7578Y-2.8358
X6.7588Y-1.8641
X6.759Y-2.5709
X6.7607Y-1.9301
X6.7614Y-0.6509
X6.7616Y-2.914
X6.7618Y-4.0812
X6.7623Y-0.9862
X6.7643Y-3.3131
X6.7814Y-1.0227
X6.7825Y-1.896
X6.7835Y-3.8518
X6.7836Y-1.8289
X6.7837Y-3.0121
X6.7846Y-0.9558
X6.7846Y-3.4758
X6.7849Y-2.669
X6.7856Y-0.1171
X6.7863Y-4.1134
X6.7871Y-2.7427
X6.7874Y-0.6302
X6.7877Y-3.1127
X6.7879Y-2.2368
X6.789Y-2.3649
X6.7891Y-2.9508
X6.7898Y-2.8776
X6.7903Y-2.3059
X6.7904Y-0.55
X6.791Y-3.3411
X6.7915Y-4.3302
X6.7917Y-0.897
X6.7928Y-2.4993
X6.7936Y-1.4942
X6.7946Y-3.9474
X6.7947Y-3.2733
X6.7954Y-2.8114
X6.7961Y-3.7845
X6.7966Y-2.615
X6.7972Y-1.7691
X6.798Y-3.4121
X6.8154Y-2.6462
X6.8164Y-1.2329
X6.8182Y-0.5241
X6.8183Y-0.9192
X6.8185Y-0.5845
X6.819Y-0.9982
X6.8192Y-1.8055
X6.8201Y-4.0882
X6.8205Y-2.2653
X6.8206Y-3.3149
X6.8211Y-4.357
X6.8213Y-2.4023
X6.8223Y-1.8733
X6.8223Y-3.8228
X6.8224Y-2.8359
X6.8234Y-4.2919
X6.8237Y-2.9187
X6.8238Y-2.7839
X6.8252Y-0.0949
X6.8253Y-2.5423
X6.8255Y-1.0651
X6.8261Y-1.464
X6.8264Y-0.6502
X6.8264Y-2.7017
X6.8273Y-4.2298
X6.8282Y-2.9767
X6.8294Y-3.139
X6.8297Y-3.0491
X6.8313Y-1.5269
X6.8313Y-4.1537
X6.8314Y-0.1618
X6.8317Y-2.3469
X6.8494Y-2.879
X6.851Y-1.4982
X6.8511Y-4.2588
X6.8515Y-1.8378
X6.8516Y-1.17
X6.8517Y-0.9558
X6.8521Y-3.2877
X6.8526Y-0.1183
X6.8533Y-2.2349
X6.8535Y-1.0346
X6.8547Y-2.679
X6.8548Y-4.1258
X6.8548Y-0.8975
X6.855Y-3.0152
X6.8569Y-2.5678
X6.8583Y-1.5588
X6.8589Y-1.8981
X6.8589Y-4.1913
X6.859Y-0.4919
X6.8594Y-4.3211
X6.8596Y-1.2593
X6.8599Y-2.9504
X6.86Y-1.0951
X6.8605Y-0.5518
X6.8606Y-0.6307
X6.8606Y-2.7404
X6.861Y-2.8183
X6.8617Y-3.7878
X6.8619Y-2.3006
X6.8619Y-2.5068
X6.8649Y-2.3694
X6.8826Y-4.2267
X6.8835Y-1.5967
X6.8847Y-0.9214
X6.8874Y-2.3332
X6.8883Y-1.0009
X6.8884Y-4.2895
X6.8886Y-1.8768
X6.8888Y-4.1619
X6.889Y-1.526
X6.8891Y-0.0856
X6.8892Y-4.3592
X6.8897Y-2.711
X6.8903Y-1.1897
X6.891Y-2.6129
X6.8911Y-1.8048
X6.8924Y-2.5463
X6.8928Y-1.1285
X6.8928Y-0.5973
X6.8939Y-2.275
X6.8944Y-2.4059
X6.8947Y-1.0612
X6.895Y-0.154
X6.8952Y-4.0855
X6.8961Y-2.7738
X6.8962Y-1.4584
X6.8968Y-0.6585
X6.8971Y-0.5197
X6.8973Y-3.3144
X6.9158Y-4.1255
X6.9162Y-1.304
X6.9165Y-1.365
X6.9169Y-3.2823
X6.9173Y-2.381
X6.9176Y-4.5306
X6.9182Y-0.124
X6.9182Y-2.5046
X6.9191Y-2.735
X6.9194Y-0.8859
X6.9198Y-1.2294
X6.9204Y-1.1698
X6.9208Y-1.5673
X6.9223Y-1.0904
X6.9223Y-1.6394
X6.9223Y-2.3007
X6.9225Y-4.1946
X6.9229Y-2.5735
X6.9231Y-4.392
X6.9231Y-4.3239
X6.9232Y-1.4267
X6.9234Y-1.8423
X6.9234Y-1.9
X6.9249Y-2.6335
X6.9263Y-1.4913
X6.9277Y-1.0319
X6.9309Y-0.9535
X6.9311Y-4.2496
X6.9494Y-4.4925
X6.9499Y-1.1297
X6.9503Y-2.2763
X6.9506Y-4.221
X6.9509Y-4.3597
X6.9519Y-4.4304
X6.952Y-1.5398
X6.9528Y-4.1526
X6.9528Y-4.0801
X6.953Y-2.3354
X6.9532Y-0.0916
X6.9536Y-2.9771
X6.954Y-1.2582
X6.9551Y-2.6834
X6.9552Y-2.5363
X6.9556Y-1.8727
X6.9556Y-3.7186
X6.956Y-2.4076
X6.956Y-1.1914
X6.9561Y-0.9958
X6.9584Y-3.1403
X6.9586Y-1.6596
X6.9589Y-1.5929
X6.9598Y-0.5178
X6.9602Y-4.2932
X6.9602Y-3.7886
X6.9604Y-1.3366
X6.9605Y-1.3983
X6.9632Y-2.6151
X6.9636Y-1.9318
X6.9643Y-1.4571
X6.9649Y-0.9269
X6.9662Y-1.0606
X6.9831Y-2.3756
X6.9854Y-0.9611
X6.986Y-3.0833
X6.9887Y-4.1168
X6.9891Y-1.6385
X6.9896Y-1.0275
X6.9899Y-1.3625
X6.9915Y-1.3026
X6.9915Y-2.3063
X6.9919Y-3.5083
X6.9924Y-3.7446
X6.993Y-2.5062
X6.9932Y-1.0917
X6.9932Y-2.6426
X6.9938Y-1.4315
X6.9944Y-1.2321
X6.9948Y-0.2144
X6.9956Y-1.5733
X6.9956Y-1.1561
X6.9965Y-3.0148
X6.9967Y-2.5697
X6.9967Y-0.8883
X6.9968Y-1.5019
X6.9973Y-1.9074
X6.9995Y-1.9648
X7.0174Y-2.3408
X7.0174Y-0.9191
X7.0175Y-3.4198
X7.0182Y-3.7108
X7.0187Y-1.1947
X7.0191Y-1.4627
X7.0195Y-1.059
X7.0199Y-1.5329
X7.0201Y-1.6074
X7.0214Y-2.6064
X7.0215Y-1.6604
X7.0217Y-3.11
X7.0233Y-0.6546
X7.0235Y-2.5374
X7.0238Y-3.0533
X7.026Y-1.2664
X7.0263Y-2.399
X7.0266Y-0.9963
X7.0273Y-3.486
X7.0279Y-1.3302
X7.0281Y-2.2712
X7.0284Y-2.6676
X7.0293Y-2.9819
X7.0301Y-1.1338
X7.0306Y-1.3929
X7.0316Y-4.0809
X7.0513Y-2.6353
X7.0514Y-3.0849
X7.0519Y-3.376
X7.052Y-0.8993
X7.0522Y-3.4459
X7.0564Y-0.5895
X7.0572Y-1.0205
X7.0584Y-2.5665
X7.0589Y-0.011
X7.0592Y-2.3667
X7.0601Y-1.4386
X7.0613Y-1.3688
X7.0624Y-3.1485
X7.063Y-1.1013
X7.0632Y-1.7688
X7.0639Y-3.5176
X7.064Y-3.0197
X7.0649Y-1.503
X7.0658Y-0.9614
X7.0663Y-3.7478
X7.0665Y-1.1576
X7.0668Y-1.2272
X7.067Y-2.3123
X7.067Y-1.3038
X7.0861Y-2.6056
X7.0865Y-1.7979
X7.0893Y-1.1358
X7.0894Y-0.6303
X7.0897Y-3.4092
X7.0902Y-0.9897
X7.0905Y-1.2631
X7.0905Y-1.204
X7.0909Y-0.9306
X7.0931Y-3.1052
X7.0939Y-4.0802
X7.094Y-0.555
X7.0954Y-3.712
X7.0957Y-3.3514
X7.0965Y-3.0483
X7.0967Y-2.6713
X7.0981Y-3.5557
X7.0989Y-3.4786
X7.099Y-1.0651
X7.1179Y-4.3969
X7.1183Y-1.0203
X7.1195Y-4.3207
X7.1208Y-0.6525
X7.1209Y-3.449
X7.1231Y-4.1898
X7.1231Y-3.513
X7.1238Y-4.1139
X7.1239Y-4.5896
X7.1239Y-3.9586
X7.1246Y-3.6528
X7.1247Y-0.5969
X7.1248Y-1.767
X7.1249Y-1.092
X7.126Y-3.5877
X7.1262Y-2.6363
X7.1265Y-3.0082
X7.1275Y-0.0162
X7.1278Y-3.3186
X7.1286Y-1.1555
X7.1289Y-4.5225
X7.1299Y-0.8893
X7.1302Y-3.7473
X7.131Y-0.518
X7.1311Y-4.4628
X7.1319Y-3.8145
X7.132Y-4.2625
X7.1325Y-4.6515
X7.1326Y-3.3747
X7.1326Y-0.9545
X7.1334Y-3.0717
X7.1513Y-4.5511
X7.1517Y-1.5383
X7.1523Y-4.1549
X7.1545Y-3.6775
X7.1547Y-3.2869
X7.1548Y-4.4207
X7.1551Y-2.6809
X7.1557Y-2.3056
X7.157Y-1.671
X7.1576Y-3.6115
X7.1578Y-0.9344
X7.1578Y-3.8574
X7.1594Y-2.2435
X7.1597Y-1.6035
X7.1606Y-3.4793
X7.1617Y-0.5628
X7.1617Y-0.9862
X7.1624Y-4.2166
X7.1625Y-4.3559
X7.1627Y-3.4179
X7.1631Y-1.1326
X7.1636Y-4.094
X7.1637Y-1.4664
X7.1638Y-1.0554
X7.1638Y-3.0411
X7.1638Y-4.4988
X7.1639Y-3.7888
X7.1641Y-0.6321
X7.1657Y-4.6304
X7.1669Y-1.8036
X7.1669Y-2.3713
X7.1672Y-3.3426
X7.1675Y-3.5532
X7.1679Y-4.2828
X7.1849Y-1.559
X7.1849Y-0.6637
X7.1853Y-1.8415
X7.1857Y-4.6513
X7.1859Y-3.4421
X7.1875Y-4.2526
X7.1876Y-3.3755
X7.1878Y-1.9973
X7.1885Y-4.1954
X7.1886Y-1.4958
X7.1888Y-1.7625
X7.1891Y-3.6565
X7.1893Y-4.3822
X7.1895Y-2.4061
X7.1901Y-1.1011
X7.1904Y-2.7496
X7.1905Y-3.5865
X7.1906Y-4.52
X7.1907Y-0.0118
X7.1915Y-3.0075
X7.1915Y-2.2712
X7.1935Y-0.5873
X7.1942Y-1.1655
X7.1944Y-1.6401
X7.1946Y-3.7161
X7.1956Y-1.0255
X7.1959Y-2.3338
X7.1969Y-0.8922
X7.1983Y-4.3191
X7.1986Y-3.5094
X7.199Y-3.3204
X7.1991Y-3.9525
X7.1992Y-0.5184
X7.1997Y-4.1289
X7.1998Y-4.5888
X7.2012Y-0.9616
X7.2013Y-4.4588
X7.2013Y-3.8122
X7.2185Y-0.9895
X7.2202Y-2.5107
X7.221Y-3.6085
X7.221Y-4.6172
X7.2211Y-1.8706
X7.2215Y-1.0569
X7.2217Y-4.3508
X7.2218Y-0.9204
X7.2221Y-3.8548
X7.2224Y-4.4311
X7.2225Y-4.5568
X7.224Y-3.4792
X7.2247Y-3.411
X7.2249Y-1.5919
X7.225Y-2.2452
X7.2253Y-4.0942
X7.2271Y-1.1321
X7.2272Y-2.3656
X7.228Y-1.9299
X7.2283Y-4.4992
X7.2284Y-0.1614
X7.2286Y-1.4706
X7.2294Y-3.3464
X7.2304Y-4.1536
X7.2308Y-1.5268
X7.2315Y-3.7568
X7.2325Y-2.3102
X7.2325Y-4.2837
X7.2327Y-3.289
X7.2333Y-3.5428
X7.2336Y-0.6266
X7.2339Y-1.7991
X7.2341Y-1.6747
X7.2341Y-3.6858
X7.2346Y-0.549
X7.2346Y-4.2226
X7.2351Y-0.2236
X7.2522Y-4.3248
X7.2526Y-3.3882
X7.2527Y-1.5622
X7.2532Y-0.5884
X7.2537Y-0.8979
X7.2541Y-4.5946
X7.2546Y-1.0361
X7.256Y-2.5476
X7.2568Y-1.8271
X7.2569Y-4.3922
X7.257Y-4.1945
X7.2584Y-0.6645
X7.2585Y-2.3381
X7.26Y-1.9675
X7.2606Y-0.9586
X7.2616Y-1.0917
X7.2618Y-1.8954
X7.2621Y-1.6269
X7.2622Y-3.4503
X7.2624Y-1.1541
X7.2631Y-0.5198
X7.264Y-3.3082
X7.2645Y-4.5283
X7.2647Y-2.033
X7.2649Y-4.2629
X7.265Y-4.4593
X7.2654Y-1.775
X7.266Y-3.5117
X7.266Y-1.4945
X7.2671Y-2.414
X7.2676Y-4.1139
X7.2676Y-2.2711
X7.268Y-4.6557
X7.2858Y-4.4154
X7.2869Y-4.628
X7.287Y-4.2937
X7.2876Y-1.0003
X7.2879Y-0.564
X7.2885Y-0.9281
X7.2895Y-1.9391
X7.2899Y-2.0743
X7.2902Y-2.5016
X7.2911Y-1.7958
X7.2917Y-4.5584
X7.2918Y-4.2258
X7.2919Y-1.6683
X7.2924Y-1.5246
X7.2927Y-2.3757
X7.2936Y-4.1543
X7.2942Y-1.055
X7.2946Y-3.1496
X7.2954Y-2.1295
X7.2956Y-0.6182
X7.2963Y-2.5772
X7.2971Y-4.3494
X7.2973Y-3.2831
X7.2974Y-1.1351
X7.2982Y-3.3474
X7.2986Y-3.4861
X7.2992Y-2.3077
X7.2998Y-4.4883
X7.3Y-3.4079
X7.3005Y-4.0901
X7.3008Y-1.6076
X7.302Y-2.2035
X7.3021Y-2.0052
X7.3021Y-1.8646
X7.3194Y-1.0931
X7.3197Y-3.1187
X7.3198Y-2.9798
X7.3207Y-1.5591
X7.3211Y-3.7898
X7.3218Y-4.2528
X7.3229Y-1.9722
X7.3231Y-3.0387
X7.3243Y-4.1134
X7.3245Y-2.2427
X7.3247Y-0.5172
X7.325Y-4.4616
X7.3256Y-1.0239
X7.3262Y-1.2331
X7.3263Y-4.5968
X7.3268Y-4.6657
X7.3271Y-1.7757
X7.3273Y-0.6533
X7.3281Y-1.6382
X7.3288Y-2.7748
X7.3294Y-2.5404
X7.3298Y-2.104
X7.3302Y-4.3169
X7.3305Y-2.1751
X7.3317Y-4.3914
X7.3318Y-3.7143
X7.3321Y-1.8964
X7.3321Y-4.5202
X7.3327Y-3.316
X7.3328Y-2.4017
X7.3332Y-0.5832
X7.3332Y-1.8349
X7.3335Y-0.969
X7.3341Y-1.1649
X7.3341Y-0.8905
X7.3345Y-3.3874
X7.3348Y-2.3422
X7.3348Y-4.1804
X7.3354Y-2.0436
X7.3532Y-4.2946
X7.3544Y-1.0011
X7.3547Y-0.6185
X7.3552Y-2.0006
X7.356Y-1.2041
X7.3563Y-0.5521
X7.3564Y-2.5077
X7.3576Y-2.21
X7.358Y-3.4119
X7.3585Y-4.2256
X7.3585Y-1.6038
X7.3587Y-3.2806
X7.3589Y-2.065
X7.3594Y-1.0659
X7.3594Y-3.08
X7.3596Y-4.4317
X7.3596Y-3.8259
X7.3607Y-1.1311
X7.3609Y-2.2642
X7.3612Y-2.3751
X7.3614Y-3.0131
X7.3618Y-2.1381
X7.3619Y-1.7984
X7.362Y-4.1569
X7.3627Y-1.5284
X7.3627Y-0.4924
X7.3627Y-4.5614
X7.3632Y-1.9354
X7.3632Y-4.0835
X7.3649Y-3.7446
X7.3652Y-2.5718
X7.3652Y-4.3504
X7.3659Y-0.9257
X7.3659Y-1.6608
X7.366Y-1.8719
X7.3661Y-3.9602
X7.3671Y-3.3429
X7.3675Y-4.6289
X7.3679Y-4.4847
X7.3681Y-3.1385
X7.3867Y-4.522
X7.3867Y-0.5241
X7.387Y-0.2845
X7.3878Y-0.5891
X7.3879Y-1.9665
X7.388Y-2.6723
X7.3887Y-4.6579
X7.3888Y-3.7135
X7.3891Y-3.0524
X7.3893Y-0.6651
X7.3896Y-2.9761
X7.3897Y-1.6307
X7.3899Y-3.3829
X7.3902Y-2.3132
X7.3909Y-2.6084
X7.3913Y-3.3174
X7.3914Y-1.5687
X7.392Y-4.4599
X7.3925Y-1.8424
X7.3928Y-2.2378
X7.3938Y-3.1069
X7.394Y-4.3841
X7.3945Y-1.8996
X7.3956Y-4.2537
X7.3961Y-2.1765
X7.3961Y-4.1255
X7.3969Y-4.3295
X7.3971Y-1.0213
X7.3979Y-2.0385
X7.398Y-0.8989
X7.398Y-2.5405
X7.3983Y-0.967
X7.3986Y-2.3988
X7.3988Y-4.1814
X7.4016Y-2.0979
X7.4029Y-1.7704
X7.4031Y-4.5991
X7.4031Y-2.7408
X7.4202Y-4.0826
X7.4207Y-3.745
X7.421Y-4.6246
X7.4214Y-0.4967
X7.4219Y-1.7952
X7.422Y-4.4162
X7.4221Y-4.1545
X7.4224Y-3.1455
X7.4234Y-2.6488
X7.4234Y-1.5255
X7.4237Y-3.3546
X7.4248Y-4.2174
X7.4248Y-4.3502
X7.4252Y-1.8764
X7.426Y-2.7051
X7.4265Y-4.4913
X7.4266Y-0.5518
X7.4267Y-0.995
X7.4271Y-1.6688
X7.4275Y-3.2809
X7.428Y-2.0057
X7.4288Y-0.63
X7.4289Y-1.5988
X7.4295Y-2.5807
X7.4296Y-2.1298
X7.4298Y-1.0601
X7.4307Y-2.0632
X7.4312Y-4.5571
X7.4321Y-3.4206
X7.4334Y-0.0878
X7.4341Y-2.2121
X7.4342Y-2.2758
X7.4349Y-4.2924
X7.4349Y-1.9429
X7.4351Y-0.9343
X7.4351Y-2.7718
X7.4366Y-3.0802
X7.4366Y-3.0088
X7.4539Y-1.7633
X7.4541Y-3.1055
X7.4544Y-0.5158
X7.4545Y-1.8322
X7.4549Y-0.1916
X7.455Y-3.3812
X7.4551Y-0.1171
X7.4554Y-0.8871
X7.4561Y-4.5263
X7.4567Y-4.6594
X7.4569Y-1.905
X7.4576Y-1.6335
X7.4579Y-0.9628
X7.4587Y-4.4494
X7.4588Y-4.2542
X7.4591Y-0.591
X7.4597Y-3.3166
X7.4608Y-1.0331
X7.4612Y-2.6696
X7.4627Y-4.3223
X7.463Y-4.396
X7.4632Y-4.1818
X7.4636Y-0.6573
X7.4638Y-2.7357
X7.4646Y-2.6043
X7.4652Y-3.0416
X7.4653Y-2.9706
X7.466Y-2.5332
X7.4661Y-4.1179
X7.4664Y-4.5923
X7.4679Y-0.2543
X7.47Y-1.9715
X7.4882Y-4.3562
X7.4884Y-3.0177
X7.4894Y-0.0939
X7.491Y-0.9963
X7.4916Y-0.483
X7.4916Y-0.2212
X7.4919Y-3.2822
X7.4922Y-4.6196
X7.493Y-2.58
X7.4936Y-2.7133
X7.4938Y-4.4969
X7.4944Y-3.073
X7.4945Y-2.9146
X7.4947Y-4.1537
X7.4951Y-1.938
X7.4957Y-4.557
X7.496Y-0.929
X7.4963Y-3.4141
X7.4964Y-1.8697
X7.4966Y-3.1381
X7.4973Y-4.2974
X7.4974Y-0.5527
X7.498Y-3.3516
X7.4984Y-1.0692
X7.4997Y-4.2182
X7.5001Y-0.6286
X7.5005Y-1.8062
X7.5011Y-2.6408
X7.5018Y-2.8498
X7.5031Y-0.1541
X7.5032Y-4.423
X7.5038Y-4.0908
X7.5041Y-2.783
X7.5221Y-0.6533
X7.5225Y-1.9068
X7.5231Y-2.7413
X7.5234Y-3.7927
X7.5241Y-3.379
X7.5243Y-4.1256
X7.5247Y-1.7624
X7.5251Y-4.3256
X7.5266Y-4.5189
X7.527Y-2.6797
X7.5283Y-4.1934
X7.5287Y-1.4674
X7.5292Y-2.2313
X7.5293Y-0.8972
X7.5296Y-2.4037
X7.5298Y-3.9448
X7.5307Y-0.5203
X7.5308Y-1.8429
X7.5309Y-3.3178
X7.5314Y-1.0301
X7.532Y-0.2582
X7.5324Y-2.874
X7.5325Y-4.6521
X7.5326Y-3.8517
X7.5331Y-0.5987
X7.5334Y-2.6018
X7.5337Y-0.4563
X7.5338Y-3.4434
X7.534Y-3.1042
X7.5342Y-0.9548
X7.5349Y-4.4653
X7.5351Y-2.9443
X7.5359Y-4.3852
X7.536Y-4.2617
X7.5363Y-4.5934
X7.5371Y-0.1923
X7.5371Y-2.5486
X7.5374Y-2.8107
X7.5374Y-0.1255
X7.5377Y-3.0447
X7.5551Y-0.6268
X7.5554Y-1.4908
X7.5559Y-0.9324
X7.5568Y-0.4883
X7.5572Y-3.3506
X7.5576Y-0.9993
X7.5578Y-2.3439
X7.5581Y-0.0872
X7.5585Y-3.4773
X7.5587Y-4.4233
X7.5588Y-2.7097
X7.5589Y-4.3646
X7.5607Y-3.2727
X7.5609Y-4.4973
X7.5611Y-2.9092
X7.5628Y-2.2687
X7.5632Y-2.9779
X7.5635Y-3.071
X7.5639Y-1.0575
X7.5641Y-4.566
X7.5642Y-3.8146
X7.5648Y-4.0922
X7.5654Y-1.2663
X7.5656Y-4.6315
X7.5663Y-3.4114
X7.5663Y-0.4184
X7.5663Y-0.2945
X7.5668Y-4.2192
X7.5671Y-2.5667
X7.5679Y-1.7973
X7.5687Y-2.8423
X7.5694Y-0.1605
X7.5695Y-2.6424
X7.5698Y-4.1466
X7.57Y-0.3625
X7.5702Y-1.867
X7.5703Y-3.1522
X7.5703Y-2.7787
X7.5705Y-0.555
X7.571Y-4.2849
X7.571Y-0.2247
X7.5711Y-2.5134
X7.5885Y-2.9367
X7.5888Y-1.5352
X7.5892Y-0.4539
X7.5893Y-4.5895
X7.5895Y-2.2322
X7.5905Y-2.3124
X7.5913Y-4.6611
X7.5917Y-4.3907
X7.5918Y-1.4644
X7.5919Y-3.8552
X7.5919Y-0.124
X7.5921Y-0.6553
X7.5928Y-1.2269
X7.5936Y-1.0316
X7.594Y-1.8391
X7.594Y-1.8943
X7.594Y-2.8772
X7.5944Y-0.3232
X7.5955Y-4.322
X7.5958Y-3.9607
X7.5963Y-1.1026
X7.5968Y-4.2583
X7.5968Y-0.9598
X7.5978Y-0.395
X7.598Y-0.5238
X7.5981Y-4.4614
X7.5988Y-2.6723
X7.599Y-2.8118
X7.6009Y-3.1144
X7.601Y-4.118
X7.6014Y-0.9007
X7.6021Y-4.5314
X7.6033Y-2.7442
X7.6036Y-2.3809
X7.6036Y-0.2485
X7.6037Y-0.5873
X7.6037Y-3.3108
X7.6038Y-0.1848
X7.604Y-3.7833
X7.6043Y-4.1937
X7.6045Y-2.5348
X7.6047Y-3.0181
X7.6049Y-2.6009
X7.623Y-1.1342
X7.6233Y-0.3605
X7.6236Y-4.5586
X7.6237Y-2.3392
X7.6241Y-2.508
X7.6241Y-0.1459
X7.6253Y-2.6466
X7.6254Y-0.5606
X7.6257Y-0.4913
X7.6257Y-0.2852
X7.6267Y-4.1572
X7.6267Y-0.4264
X7.6282Y-0.2259
X7.6283Y-1.2592
X7.6287Y-2.7009
X7.6295Y-4.6296
X7.6296Y-4.3519
X7.6301Y-0.0841
X7.6303Y-4.0838
X7.6304Y-1.4957
X7.6304Y-1.866
X7.6317Y-2.7724
X7.632Y-2.4002
X7.6323Y-0.6251
X7.6324Y-1.055
X7.6329Y-2.2771
X7.633Y-4.4887
X7.633Y-1.8011
X7.6333Y-2.5712
X7.6338Y-4.2156
X7.6343Y-4.4308
X7.6343Y-0.99
X7.6345Y-4.2916
X7.6351Y-0.9314
X7.6376Y-3.2751
X7.6376Y-1.5743
X7.6557Y-2.3035
X7.6559Y-0.5826
X7.6561Y-4.1856
X7.6568Y-2.5387
X7.6573Y-1.4297
X7.6581Y-0.9005
X7.6594Y-1.2983
X7.6596Y-0.652
X7.66Y-1.9056
X7.6607Y-1.2348
X7.6608Y-0.4629
X7.661Y-2.669
X7.6628Y-0.391
X7.6633Y-4.5847
X7.6633Y-4.3827
X7.6637Y-1.1025
X7.664Y-0.128
X7.6642Y-2.6025
X7.6648Y-1.0326
X7.6653Y-4.2486
X7.6655Y-4.4586
X7.666Y-1.5367
X7.6666Y-4.5289
X7.6669Y-2.7412
X7.6677Y-1.6054
X7.668Y-0.964
X7.6701Y-1.3723
X7.6704Y-4.6562
X7.6706Y-4.3262
X7.6707Y-0.5238
X7.671Y-0.1905
X7.6713Y-0.2573
X7.6716Y-0.3282
X7.6718Y-1.835
X7.6719Y-3.3178
X7.6721Y-2.3812
X7.6722Y-4.125
X7.6893Y-0.1488
X7.6895Y-4.0951
X7.6896Y-2.3999
X7.6913Y-1.4039
X7.6916Y-2.5056
X7.6927Y-2.6375
X7.6942Y-1.5609
X7.6948Y-2.5805
X7.6952Y-4.2175
X7.6953Y-1.8653
X7.6957Y-1.2691
X7.6957Y-0.9993
X7.6963Y-1.463
X7.6977Y-0.9285
X7.6981Y-1.9379
X7.6988Y-4.6303
X7.6992Y-4.3557
X7.7001Y-1.6327
X7.7011Y-3.2871
X7.7019Y-4.4229
X7.7031Y-0.2215
X7.7035Y-4.493
X7.7036Y-4.5548
X7.7036Y-1.3376
X7.7038Y-2.3398
X7.7049Y-4.2943
X7.7051Y-0.2881
X7.7053Y-1.0664
X7.7054Y-4.1498
X7.7057Y-0.0794
X7.7059Y-2.2772
X7.7233Y-1.4998
X7.7238Y-2.5489
X7.7252Y-4.1807
X7.7258Y-4.3973
X7.7262Y-0.8954
X7.7264Y-3.8502
X7.7265Y-3.0472
X7.7266Y-1.3586
X7.7266Y-4.6638
X7.7275Y-1.6681
X7.728Y-4.5948
X7.7281Y-4.2567
X7.7281Y-4.125
X7.7285Y-4.4512
X7.7294Y-1.2943
X7.73Y-0.26
X7.7306Y-1.9699
X7.7306Y-1.0213
X7.7307Y-3.5187
X7.7319Y-2.3751
X7.7319Y-2.9717
X7.7326Y-4.3185
X7.7326Y-1.8958
X7.7329Y-0.9655
X7.7331Y-0.187
X7.7331Y-3.9521
X7.7335Y-1.4305
X7.7336Y-3.7186
X7.7338Y-2.3039
X7.7341Y-3.7863
X7.7342Y-2.6705
X7.7365Y-4.5169
X7.7373Y-1.6062
X7.7373Y-3.1068
X7.7386Y-2.6037
X7.7387Y-0.122
X7.7393Y-1.2281
X7.7569Y-2.6499
X7.7571Y-1.6312
X7.7574Y-4.49
X7.7583Y-3.9803
X7.7586Y-1.1927
X7.759Y-3.757
X7.7594Y-0.9234
X7.7597Y-4.3508
X7.7598Y-3.0863
X7.7621Y-0.083
X7.7624Y-0.9962
X7.7629Y-1.5251
X7.7631Y-4.4212
X7.7638Y-3.42
X7.765Y-2.5144
X7.7662Y-2.5798
X7.7664Y-2.3459
X7.7666Y-4.6183
X7.7668Y-3.1539
X7.7669Y-1.3367
X7.7671Y-3.8258
X7.7672Y-3.4812
X7.7673Y-2.4059
X7.7675Y-2.2761
X7.7683Y-4.5647
X7.7685Y-0.4951
X7.7697Y-4.0906
X7.7698Y-0.1528
X7.7701Y-1.4679
X7.7705Y-4.2828
X7.7706Y-4.2217
X7.7708Y-1.2707
X7.7711Y-3.0153
X7.7715Y-1.3931
X7.7725Y-4.1537
X7.791Y-4.7337
X7.7924Y-4.3208
X7.7929Y-1.4327
X7.7931Y-2.5383
X7.7932Y-4.5934
X7.794Y-3.1055
X7.7957Y-0.1266
X7.7965Y-1.5002
X7.7968Y-0.5852
X7.7975Y-1.227
X7.7986Y-0.6522
X7.7988Y-1.1631
X7.7991Y-4.3941
X7.7996Y-3.7261
X7.8002Y-4.184
X7.8007Y-2.311
X7.8015Y-1.3027
X7.8018Y-2.6148
X7.8019Y-2.3718
X7.8023Y-0.7618
X7.8023Y-4.5172
X7.8024Y-0.965
X7.8025Y-4.6618
X7.8026Y-0.8896
X7.8028Y-4.4622
X7.8029Y-3.4438
X7.8035Y-2.6835
X7.8035Y-0.5233
X7.804Y-3.3835
X7.8044Y-2.9844
X7.8048Y-3.0479
X7.8052Y-4.1149
X7.8056Y-4.2542
X7.806Y-1.3572
X7.8061Y-0.8331
X7.8063Y-3.5092
X7.8242Y-4.3576
X7.8247Y-4.0887
X7.8247Y-0.1483
X7.825Y-4.1577
X7.8253Y-0.5645
X7.8266Y-3.4783
X7.8266Y-2.6386
X7.827Y-1.2714
X7.8277Y-4.7636
X7.8288Y-3.4109
X7.829Y-4.484
X7.8306Y-2.5822
X7.8314Y-0.6302
X7.8315Y-0.7874
X7.8315Y-4.5662
X7.8318Y-1.1893
X7.8326Y-0.8524
X7.8326Y-1.1215
X7.8344Y-3.0743
X7.8344Y-4.4276
X7.8344Y-0.927
X7.8345Y-4.6315
X7.835Y-3.7537
X7.8356Y-1.7617
X7.8361Y-3.0039
X7.8367Y-4.2937
X7.8371Y-0.4875
X7.8372Y-0.0803
X7.8373Y-3.1518
X7.8377Y-4.2144
X7.8391Y-3.3414
X7.8396Y-4.693
X7.8579Y-3.0481
X7.8586Y-4.6515
X7.8586Y-1.1588
X7.8587Y-2.6104
X7.8593Y-3.6472
X7.8598Y-3.3201
X7.8614Y-1.7954
X7.8615Y-4.454
X7.8618Y-0.818
X7.8623Y-0.8887
X7.8624Y-4.7258
X7.8635Y-3.5152
X7.8637Y-3.5836
X7.8646Y-1.0949
X7.8657Y-3.3793
X7.8667Y-3.4538
X7.8668Y-0.1239
X7.8672Y-4.5173
X7.8674Y-0.5869
X7.8684Y-3.7124
X7.8692Y-0.518
X7.8695Y-0.7669
X7.8708Y-1.2225
X7.8709Y-4.5908
X7.8709Y-4.3917
X7.8716Y-0.6532
X7.8718Y-4.3305
X7.8719Y-4.2562
X7.8722Y-4.1232
X7.8722Y-4.1961
X7.873Y-3.1086
X7.8734Y-2.6673
X7.8915Y-4.2833
X7.8918Y-2.7163
X7.8929Y-3.61
X7.8939Y-4.2199
X7.8964Y-0.4907
X7.8968Y-2.3712
X7.898Y-4.6969
X7.8992Y-3.7509
X7.8994Y-4.6321
X7.8994Y-0.5592
X7.8995Y-3.3553
X7.8995Y-2.6449
X7.9016Y-2.0414
X7.9017Y-4.3489
X7.9024Y-0.0799
X7.903Y-3.4224
X7.9033Y-3.4853
X7.9037Y-3.5481
X7.9041Y-0.146
X7.9041Y-4.4295
X7.9043Y-3.0739
X7.9043Y-1.4921
X7.9044Y-4.1495
X7.9045Y-2.2407
X7.9049Y-0.8604
X7.9049Y-2.2977
X7.9056Y-4.7628
X7.9058Y-1.1224
X7.906Y-0.7861
X7.9062Y-0.6323
X7.9063Y-4.0911
X7.9065Y-1.0562
X7.9067Y-4.4933
X7.9068Y-3.6847
X7.9068Y-4.5582
X7.9072Y-1.7669
X7.9075Y-3.2845
X7.9076Y-3.0127
X7.9246Y-4.1144
X7.925Y-3.3737
X7.9253Y-3.9521
X7.9254Y-3.6428
X7.9257Y-2.3403
X7.9263Y-4.6595
X7.9269Y-3.7114
X7.927Y-2.7374
X7.927Y-0.7624
X7.9271Y-4.3303
X7.9279Y-2.4118
X7.9283Y-0.8288
X7.9296Y-3.8584
X7.9301Y-1.5979
X7.9303Y-3.0385
X7.931Y-0.1233
X7.9315Y-1.6597
X7.9317Y-1.4683
X7.932Y-1.8069
X7.9335Y-1.0286
X7.9345Y-4.3964
X7.9349Y-4.7316
X7.9355Y-3.7903
X7.9356Y-0.585
X7.9361Y-3.3098
X7.9363Y-4.1939
X7.9365Y-0.6538
X7.9369Y-0.5198
X7.9375Y-4.2531
X7.9377Y-3.5906
X7.9381Y-2.2663
X7.9382Y-1.1576
X7.9384Y-1.5264
X7.9389Y-4.4539
X7.9389Y-4.5169
X7.939Y-1.0892
X7.9393Y-4.5843
X7.9406Y-3.454
X7.9408Y-3.5175
X7.9411Y-2.6696
X7.9584Y-3.013
X7.9585Y-0.9981
X7.9586Y-4.6327
X7.9589Y-1.8325
X7.9591Y-4.4925
X7.9594Y-3.8143
X7.9599Y-0.0884
X7.9602Y-1.5019
X7.9602Y-4.161
X7.961Y-3.3549
X7.9617Y-3.9905
X7.9618Y-3.6205
X7.962Y-4.2923
X7.9624Y-4.6898
X7.9625Y-1.1304
X7.9629Y-1.5689
X7.9635Y-4.2239
X7.9637Y-3.5475
X7.9654Y-0.1523
X7.9657Y-3.4864
X7.9658Y-3.4112
X7.9668Y-1.7653
X7.9669Y-2.373
X7.9679Y-4.4186
X7.9694Y-2.2463
X7.9696Y-4.5619
X7.9701Y-0.5601
X7.9706Y-1.0569
X7.9713Y-1.9686
X7.9717Y-4.7585
X7.972Y-0.6222
X7.9727Y-4.3602
X7.9731Y-0.7936
X7.9732Y-3.7503
X7.9733Y-1.91
X7.9734Y-1.6251
X7.9734Y-2.3042
X7.9736Y-3.6842
X7.9747Y-3.2836
X7.9923Y-4.3879
X7.9936Y-4.6671
X7.9937Y-2.3425
X7.9939Y-3.6566
X7.994Y-4.3306
X7.9943Y-4.4499
X7.9945Y-0.967
X7.9945Y-1.9366
X7.9947Y-1.7933
X7.9952Y-0.1222
X7.9958Y-1.8726
X7.9965Y-2.5155
X7.9971Y-1.0903
X7.9994Y-0.5883
X7.9997Y-4.1899
X7.9999Y-0.6584
X8.0007Y-1.5263
X8.0013Y-4.5985
X8.0013Y-1.6039
X8.0022Y-3.4556
X8.0029Y-3.7168
X8.0033Y-4.2491
X8.0034Y-1.4602
X8.0038Y-3.7786
X8.0038Y-4.5223
X8.0042Y-2.4076
X8.0045Y-1.17
X8.0047Y-0.5228
X8.0047Y-1.6675
X8.0056Y-3.3199
X8.0058Y-3.5197
X8.0058Y-3.3796
X8.0062Y-4.7276
X8.0063Y-1.9953
X8.0065Y-1.0257
X8.0072Y-2.267
X8.0079Y-0.767
X8.0079Y-3.5857
X8.0254Y-0.9321
X8.0259Y-0.5514
X8.0266Y-4.4846
X8.0268Y-4.3617
X8.027Y-3.2789
X8.0277Y-2.2005
X8.0278Y-3.3521
X8.028Y-2.3106
X8.0287Y-4.4311
X8.0293Y-2.045
X8.0293Y-3.4223
X8.0308Y-4.2913
X8.0309Y-3.4833
X8.0325Y-1.6369
X8.0335Y-2.3705
X8.0337Y-0.6323
X8.0342Y-1.1252
X8.0343Y-1.8353
X8.035Y-1.7614
X8.0359Y-1.0556
X8.0359Y-2.5331
X8.0371Y-3.1497
X8.039Y-4.225
X8.0396Y-1.5059
X8.0402Y-1.8999
X8.0405Y-0.9978
X8.0415Y-1.9692
X8.0418Y-1.5711
X8.0419Y-4.7537
X8.059Y-1.8609
X8.0607Y-1.1653
X8.0612Y-1.796
X8.0629Y-0.5891
X8.0631Y-0.965
X8.0631Y-4.53
X8.0635Y-2.1376
X8.0636Y-4.3901
X8.0638Y-0.6588
X8.0641Y-2.3409
X8.0651Y-2.0772
X8.0658Y-4.3271
X8.066Y-0.5189
X8.0662Y-4.465
X8.0664Y-1.9349
X8.0667Y-1.0296
X8.0667Y-4.2495
X8.067Y-3.1131
X8.0682Y-3.3094
X8.0687Y-2.5155
X8.0697Y-2.4006
X8.0701Y-3.3787
X8.0702Y-1.6596
X8.071Y-3.4447
X8.0722Y-2.2323
X8.0728Y-1.5374
X8.0735Y-1.5948
X8.0743Y-1.0959
X8.0744Y-2.0105
X8.0747Y-0.8929
X8.0753Y-4.1821
X8.0926Y-3.273
X8.0929Y-1.8962
X8.093Y-2.784
X8.0937Y-4.4316
X8.094Y-3.1414
X8.095Y-3.781
X8.0952Y-4.2863
X8.0967Y-4.4971
X8.0968Y-1.6379
X8.0969Y-2.098
X8.0972Y-2.0344
X8.0972Y-3.8474
X8.0976Y-2.3764
X8.098Y-4.2295
X8.0982Y-0.9941
X8.0993Y-2.9781
X8.0997Y-3.41
X8.1001Y-1.5702
X8.1002Y-1.1274
X8.1004Y-3.0386
X8.1005Y-2.1644
X8.1005Y-0.6317
X8.1008Y-2.27
X8.1009Y-0.5524
X8.1011Y-3.7199
X8.102Y-1.057
X8.1022Y-1.1958
X8.1035Y-4.3562
X8.104Y-3.3502
X8.105Y-2.5443
X8.1056Y-0.9354
X8.1062Y-1.9627
X8.1067Y-1.8278
X8.109Y-1.7667
X8.1092Y-0.8638
X8.1265Y-2.7429
X8.1267Y-2.0087
X8.1273Y-3.0765
X8.1282Y-0.5219
X8.1287Y-2.5692
X8.1291Y-1.8609
X8.1296Y-3.8252
X8.1302Y-0.5859
X8.1313Y-1.9365
X8.1314Y-2.403
X8.1332Y-0.8982
X8.1335Y-4.1894
X8.1335Y-2.1336
X8.1343Y-1.0915
X8.1343Y-1.036
X8.1343Y-2.6806
X8.1344Y-2.0667
X8.1346Y-1.7988
X8.1361Y-3.3089
X8.1366Y-2.3085
X8.1375Y-3.0186
X8.1377Y-1.5332
X8.1392Y-0.9566
X8.1394Y-2.2001
X8.1395Y-3.375
X8.14Y-4.3982
X8.1402Y-3.7485
X8.1402Y-4.263
X8.1403Y-1.6605
X8.1404Y-2.5036
X8.1404Y-1.5918
X8.1405Y-4.5312
X8.1407Y-4.3287
X8.1411Y-0.8186
X8.1428Y-4.4589
X8.1599Y-3.7142
X8.1606Y-4.4879
X8.1606Y-2.0983
X8.1607Y-4.4239
X8.1608Y-2.2391
X8.1616Y-2.711
X8.1619Y-1.7623
X8.162Y-1.0693
X8.1629Y-2.9777
X8.163Y-2.3373
X8.1634Y-2.7718
X8.1637Y-0.9345
X8.1641Y-4.3505
X8.1641Y-1.6302
X8.1643Y-4.2974
X8.1649Y-0.6235
X8.1663Y-3.4091
X8.1667Y-1.8999
X8.1687Y-0.5599
X8.1688Y-3.0498
X8.1709Y-2.5453
X8.1725Y-1.9661
X8.1731Y-0.8557
X8.1732Y-0.7991
X8.1734Y-2.6013
X8.1737Y-2.1724
X8.1744Y-1.0005
X8.1747Y-1.5705
X8.1755Y-1.8399
X8.1759Y-3.3518
X8.1759Y-4.2245
X8.176Y-3.2784
X8.176Y-3.115
X8.1761Y-2.0385
X8.1936Y-4.196
X8.1946Y-3.3883
X8.1951Y-4.4523
X8.1952Y-1.6605
X8.1955Y-2.7403
X8.1968Y-1.9946
X8.1971Y-4.533
X8.1977Y-3.0742
X8.1981Y-3.1408
X8.1982Y-0.9556
X8.1995Y-4.3872
X8.1995Y-0.8965
X8.2005Y-1.7977
X8.2008Y-3.0147
X8.2011Y-3.3154
X8.203Y-2.6472
X8.2031Y-4.7623
X8.2033Y-4.3269
X8.2042Y-1.0267
X8.2044Y-0.5914
X8.2053Y-1.9389
X8.2054Y-3.7589
X8.2066Y-2.5751
X8.2074Y-0.5299
X8.2084Y-0.8277
X8.2093Y-4.2609
X8.2094Y-1.8752
X8.2274Y-2.6728
X8.2278Y-1.9611
X8.2286Y-0.9354
X8.2287Y-0.7551
X8.2292Y-4.2205
X8.2298Y-2.8516
X8.2299Y-0.9983
X8.2309Y-2.5444
X8.2315Y-2.7712
X8.2317Y-1.8389
X8.2321Y-3.1185
X8.2323Y-2.6037
X8.2325Y-4.5556
X8.2329Y-4.7278
X8.234Y-4.4183
X8.2345Y-3.0517
X8.2366Y-3.3478
X8.2372Y-1.7622
X8.2383Y-1.0607
X8.2383Y-4.2854
X8.2389Y-3.413
X8.2405Y-2.9736
X8.2405Y-3.2762
X8.2421Y-4.3612
X8.2421Y-0.8679
X8.2423Y-1.9044
X8.2423Y-4.4942
X8.2438Y-2.9062
X8.261Y-3.0079
X8.2611Y-2.6467
X8.2612Y-4.5283
X8.2617Y-2.2306
X8.2625Y-2.9513
X8.2627Y-4.4622
X8.2636Y-0.8914
X8.2637Y-0.9611
X8.2639Y-4.3895
X8.2642Y-2.8073
X8.2645Y-1.4591
X8.2651Y-4.7604
X8.2653Y-3.3158
X8.2664Y-2.7065
X8.2676Y-4.1581
X8.2681Y-2.4018
X8.2688Y-3.1455
X8.2693Y-1.0284
X8.2699Y-3.3797
X8.2703Y-1.7949
X8.2715Y-2.5704
X8.2716Y-1.8696
X8.2731Y-4.5902
X8.2735Y-4.2566
X8.2737Y-1.9354
X8.2738Y-4.3168
X8.274Y-2.878
X8.2743Y-0.791
X8.2743Y-4.6547
X8.2748Y-3.4505
X8.2753Y-3.0727
X8.2946Y-2.9708
X8.295Y-1.8345
X8.2951Y-4.6894
X8.2958Y-2.5135
X8.296Y-3.7859
X8.2963Y-4.4239
X8.2971Y-4.1139
X8.2971Y-1.4977
X8.2977Y-2.7371
X8.2979Y-3.414
X8.2984Y-4.1867
X8.2989Y-1.9034
X8.2993Y-3.9459
X8.3003Y-3.8518
X8.301Y-0.757
X8.302Y-2.6826
X8.3032Y-3.1183
X8.3049Y-0.0849
X8.3055Y-2.6059
X8.3059Y-1.7686
X8.3061Y-2.9135
X8.3064Y-3.2857
X8.3068Y-4.3602
X8.307Y-4.6232
X8.3071Y-0.9329
X8.3072Y-0.4921
X8.3072Y-3.0537
X8.3074Y-0.9962
X8.3074Y-1.2571
X8.3076Y-2.2651
X8.3079Y-2.3322
X8.308Y-4.4958
X8.3082Y-0.6307
X8.3086Y-3.3487
X8.3092Y-4.2837
X8.3095Y-0.5636
X8.3095Y-0.8268
X8.3102Y-4.5638
X8.3102Y-2.8421
X8.3108Y-3.4769
X8.3283Y-4.7221
X8.3284Y-4.3231
X8.3292Y-1.4627
X8.3301Y-2.313
X8.3302Y-4.2246
X8.3304Y-2.2353
X8.3307Y-1.8761
X8.3311Y-4.5328
X8.3313Y-4.5849
X8.3321Y-0.6505
X8.3323Y-0.1133
X8.3325Y-4.1506
X8.3326Y-2.7827
X8.3327Y-0.5875
X8.3328Y-3.3158
X8.3332Y-2.9441
X8.3336Y-3.0829
X8.3351Y-0.2567
X8.3354Y-0.8647
X8.3356Y-3.8146
X8.3358Y-0.1804
X8.3361Y-0.5209
X8.3367Y-3.0197
X8.3369Y-0.7874
X8.3376Y-1.2249
X8.3378Y-3.1542
X8.3379Y-4.0915
X8.3394Y-4.3977
X8.3398Y-1.801
X8.3398Y-1.168
X8.3399Y-2.5365
X8.3405Y-2.3726
X8.3407Y-2.8758
X8.3412Y-0.9553
X8.3419Y-2.6459
X8.3424Y-4.4494
X8.3429Y-2.7153
X8.3436Y-1.5258
X8.3446Y-4.6559
X8.3623Y-1.1918
X8.3631Y-3.2885
X8.3633Y-0.0902
X8.3634Y-2.3985
X8.3645Y-2.8111
X8.3646Y-0.4854
X8.3646Y-1.8326
X8.3647Y-4.4161
X8.3648Y-4.4932
X8.3649Y-4.5554
X8.3655Y-2.9864
X8.3657Y-1.5597
X8.3658Y-0.8946
X8.3659Y-2.9095
X8.366Y-1.903
X8.3662Y-0.7585
X8.3669Y-2.265
X8.368Y-4.6228
X8.3684Y-4.3506
X8.3685Y-1.5042
X8.3687Y-4.7004
X8.3689Y-2.6834
X8.3696Y-0.2253
X8.3696Y-3.854
X8.3702Y-2.3431
X8.3702Y-0.5561
X8.3708Y-2.5801
X8.371Y-3.9606
X8.3711Y-1.1207
X8.3712Y-4.1271
X8.3721Y-0.625
X8.3721Y-3.7921
X8.3726Y-1.2617
X8.373Y-2.1972
X8.3759Y-0.1464
X8.3763Y-2.5014
X8.3768Y-0.8187
X8.377Y-4.2574
X8.3777Y-4.184
X8.3778Y-4.7616
X8.3782Y-2.7474
X8.3954Y-4.7253
X8.3957Y-1.5926
X8.3958Y-3.7557
X8.3962Y-1.2236
X8.3966Y-3.8142
X8.3973Y-4.659
X8.3982Y-1.1547
X8.3983Y-0.1174
X8.399Y-0.7923
X8.3995Y-0.1861
X8.4005Y-1.8664
X8.4014Y-2.3659
X8.4014Y-4.4517
X8.4017Y-0.8599
X8.4021Y-1.4714
X8.4041Y-4.5184
X8.4042Y-1.5383
X8.4043Y-2.6099
X8.4047Y-0.2513
X8.4051Y-4.2819
X8.4052Y-3.3095
X8.4053Y-0.4534
X8.4058Y-1.2964
X8.407Y-2.243
X8.4073Y-4.1536
X8.4074Y-4.3867
X8.408Y-2.7043
X8.408Y-0.5286
X8.4082Y-1.0886
X8.4087Y-4.2287
X8.4093Y-2.5344
X8.4099Y-0.5833
X8.4106Y-0.6567
X8.411Y-4.5839
X8.4113Y-4.085
X8.4118Y-2.3128
X8.429Y-3.2888
X8.4291Y-1.8963
X8.4295Y-0.2216
X8.4299Y-0.152
X8.4301Y-1.3981
X8.4304Y-1.2664
X8.4308Y-3.9603
X8.4314Y-2.414
X8.4321Y-2.64
X8.4324Y-3.8516
X8.4327Y-4.7612
X8.4335Y-2.2763
X8.4336Y-0.5592
X8.4336Y-0.753
X8.4346Y-4.6187
X8.4356Y-0.4828
X8.436Y-2.5751
X8.4364Y-1.5606
X8.4376Y-1.6353
X8.4376Y-4.1849
X8.4381Y-0.6196
X8.4385Y-2.3434
X8.4387Y-4.2592
X8.4389Y-4.3248
X8.4395Y-4.5662
X8.4414Y-0.2941
X8.4416Y-4.4929
X8.4419Y-3.7829
X8.4422Y-4.4203
X8.4426Y-1.1361
X8.4429Y-0.3631
X8.443Y-0.0881
X8.4433Y-3.7185
X8.4433Y-0.4174
X8.4434Y-1.1914
X8.4436Y-0.8316
X8.444Y-2.5128
X8.4442Y-1.3365
X8.4447Y-1.0553
X8.4447Y-1.5025
X8.4448Y-4.6891
X8.445Y-4.1189
X8.4627Y-0.5902
X8.4634Y-1.4352
X8.4635Y-2.6163
X8.4636Y-0.5255
X8.4637Y-0.1171
X8.4638Y-4.0875
X8.4641Y-2.3732
X8.4648Y-1.2364
X8.4653Y-0.1912
X8.4654Y-4.1613
X8.4657Y-0.3169
X8.4665Y-1.0229
X8.4665Y-0.3938
X8.467Y-1.667
X8.4672Y-4.2218
X8.4673Y-0.2561
X8.4676Y-1.1603
X8.4678Y-0.6633
X8.468Y-3.7554
X8.4686Y-2.6833
X8.4686Y-1.3048
X8.4693Y-3.8104
X8.4694Y-3.0467
X8.4712Y-1.6075
X8.4723Y-1.538
X8.4733Y-2.9793
X8.4739Y-4.5291
X8.4741Y-4.667
X8.4745Y-0.793
X8.4754Y-4.4629
X8.4754Y-2.5488
X8.4755Y-4.3584
X8.4756Y-2.3007
X8.4757Y-4.7228
X8.476Y-3.1108
X8.4764Y-4.5918
X8.4769Y-1.1019
X8.477Y-1.9357
X8.4771Y-4.2883
X8.4772Y-0.4529
X8.4784Y-1.3623
X8.4971Y-1.3894
X8.4972Y-2.6428
X8.4987Y-3.0125
X8.4997Y-2.2686
X8.4999Y-3.9471
X8.5005Y-0.2949
X8.5006Y-4.763
X8.5008Y-4.3155
X8.5011Y-0.3631
X8.5011Y-0.5628
X8.5012Y-3.7793
X8.5013Y-0.7658
X8.5013Y-0.998
X8.5018Y-0.4229
X8.5029Y-2.3988
X8.503Y-4.5579
X8.5035Y-1.4684
X8.504Y-2.5092
X8.5043Y-1.1984
X8.5053Y-1.1357
X8.5056Y-2.3475
X8.5059Y-3.1473
X8.5059Y-1.5674
X8.5066Y-4.7002
X8.5068Y-3.7259
X8.5069Y-2.5828
X8.507Y-4.2625
X8.5071Y-4.4917
X8.5073Y-0.093
X8.5074Y-4.1865
X8.5081Y-4.1207
X8.5085Y-4.3939
X8.5091Y-0.6291
X8.5104Y-0.2198
X8.5107Y-1.2638
X8.5108Y-3.8483
X8.5109Y-1.0635
X8.511Y-4.6213
X8.5114Y-0.4839
X8.5116Y-1.6262
X8.5117Y-0.1563
X8.5118Y-1.3362
X8.5119Y-3.0811
X8.5307Y-1.3646
X8.5307Y-0.5898
X8.532Y-2.547
X8.5321Y-4.5992
X8.5328Y-0.3232
X8.5328Y-4.2819
X8.533Y-3.0407
X8.533Y-3.7533
X8.5333Y-0.3864
X8.5345Y-1.0326
X8.5347Y-4.1561
X8.5355Y-4.5252
X8.5358Y-0.9572
X8.536Y-2.6008
X8.5367Y-1.5034
X8.5373Y-1.6598
X8.5381Y-0.1897
X8.5383Y-1.0993
X8.5384Y-2.3682
X8.5386Y-1.2252
X8.539Y-3.1049
X8.5391Y-4.4179
X8.5391Y-3.3744
X8.5392Y-1.4329
X8.5393Y-2.9715
X8.5397Y-4.6549
X8.5398Y-4.2249
X8.5399Y-4.7344
X8.5404Y-1.1622
X8.5409Y-1.5944
X8.5411Y-1.3034
X8.5414Y-3.4516
X8.5417Y-2.3045
X8.542Y-0.5201
X8.5437Y-4.3566
X8.5437Y-0.4611
X8.5438Y-0.6566
X8.5441Y-4.0883
X8.5452Y-2.6704
X8.5459Y-0.2523
X8.5462Y-0.1203
X8.5636Y-1.1251
X8.5638Y-1.2618
X8.5642Y-2.5742
X8.5647Y-3.0816
X8.5653Y-4.4591
X8.5655Y-4.1945
X8.5657Y-1.1916
X8.5659Y-4.6265
X8.5659Y-4.397
X8.5659Y-3.3514
X8.5662Y-3.4228
X8.5673Y-3.7211
X8.5676Y-1.7607
X8.5686Y-0.3548
X8.5689Y-0.5608
X8.5694Y-3.01
X8.5698Y-4.5664
X8.5705Y-0.2961
X8.5707Y-0.1622
X8.5712Y-0.0909
X8.572Y-4.3282
X8.5728Y-0.9339
X8.5737Y-2.6377
X8.574Y-3.4816
X8.5742Y-3.1524
X8.5751Y-4.264
X8.5758Y-4.1182
X8.5769Y-4.6894
X8.5769Y-1.0641
X8.5771Y-0.2292
X8.5773Y-0.4228
X8.5777Y-0.9907
X8.5778Y-0.4853
X8.5785Y-0.6255
X8.5793Y-4.7683
X8.5973Y-3.5156
X8.5994Y-3.3742
X8.5995Y-1.2284
X8.5997Y-4.3602
X8.6Y-0.4551
X8.6001Y-3.7459
X8.6013Y-2.6057
X8.6015Y-4.4276
X8.6019Y-4.0954
X8.6031Y-0.2602
X8.6032Y-0.1836
X8.6034Y-1.0945
X8.6044Y-1.8021
X8.6045Y-1.03
X8.6048Y-0.6558
X8.6052Y-4.4886
X8.6055Y-4.7265
X8.6067Y-4.1581
X8.6078Y-4.2242
X8.608Y-0.8873
X8.6083Y-0.961
X8.6085Y-3.0513
X8.6087Y-1.1587
X8.6088Y-4.5937
X8.6099Y-0.5173
X8.6112Y-0.5826
X8.6122Y-3.4535
X8.6122Y-3.1151
X8.6126Y-4.2847
X8.6128Y-4.6586
X8.6128Y-3.3146
X8.6128Y-2.68
X8.6137Y-0.1135
X8.6313Y-3.0737
X8.632Y-4.5322
X8.6321Y-2.7059
X8.6329Y-3.0039
X8.6329Y-1.0009
X8.6329Y-4.6184
X8.6337Y-0.9229
X8.6337Y-4.3892
X8.6343Y-0.5527
X8.6343Y-3.3409
X8.6355Y-4.1948
X8.6356Y-2.3756
X8.6367Y-0.8647
X8.6372Y-4.1238
X8.638Y-2.6438
X8.6389Y-1.1338
X8.639Y-4.2543
X8.6394Y-2.0315
X8.6394Y-3.4087
X8.6401Y-2.2429
X8.6408Y-1.2017
X8.641Y-0.4837
X8.6411Y-1.0598
X8.6412Y-3.5445
X8.6415Y-1.4949
X8.6422Y-2.3095
X8.6433Y-4.697
X8.6444Y-3.289
X8.6446Y-3.4905
X8.6451Y-0.0819
X8.646Y-0.6204
X8.6464Y-1.7613
X8.6466Y-4.3307
X8.647Y-4.452
X8.6473Y-0.1538
X8.6646Y-1.804
X8.6649Y-1.5297
X8.6651Y-3.7831
X8.6658Y-3.0471
X8.6664Y-4.6551
X8.6665Y-3.4434
X8.6668Y-1.596
X8.6671Y-2.4032
X8.6681Y-0.8961
X8.6682Y-4.2914
X8.6684Y-3.3106
X8.6685Y-0.5197
X8.6693Y-3.5157
X8.67Y-2.6764
X8.6704Y-4.493
X8.6705Y-2.34
X8.6715Y-3.5798
X8.6741Y-1.6627
X8.6746Y-4.3564
X8.6753Y-1.1694
X8.6763Y-0.8265
X8.6773Y-1.1027
X8.6777Y-4.2292
X8.6779Y-3.3798
X8.6785Y-3.9522
X8.6786Y-0.9665
X8.6787Y-1.4731
X8.6787Y-4.0851
X8.6789Y-3.8445
X8.679Y-4.5581
X8.6791Y-0.1135
X8.6792Y-2.2758
X8.6793Y-4.4154
X8.6795Y-1.0341
X8.6801Y-0.5852
X8.6807Y-4.1569
X8.6985Y-1.9688
X8.6994Y-1.8311
X8.6995Y-4.7893
X8.6996Y-0.7937
X8.6996Y-3.6088
X8.7007Y-3.4165
X8.7022Y-4.2606
X8.7035Y-2.3736
X8.7048Y-1.627
X8.705Y-0.1471
X8.7056Y-0.9246
X8.7056Y-3.352
X8.7057Y-1.9084
X8.7062Y-1.5636
X8.7064Y-4.1158
X8.7072Y-0.0909
X8.7075Y-4.3238
X8.7082Y-3.2751
X8.709Y-1.1342
X8.7098Y-2.236
X8.7098Y-1.5056
X8.7099Y-3.5478
X8.7101Y-1.76
X8.7112Y-3.008
X8.7119Y-0.9981
X8.7129Y-1.0586
X8.7129Y-2.0385
X8.7136Y-0.8562
X8.7139Y-4.1944
X8.714Y-3.8252
X8.714Y-3.4753
X8.7144Y-2.3063
X8.7318Y-3.3219
X8.7323Y-2.5069
X8.7328Y-1.1654
X8.733Y-1.6721
X8.7344Y-3.5179
X8.7354Y-3.3777
X8.736Y-2.3429
X8.7363Y-1.8095
X8.7364Y-0.9578
X8.7376Y-1.6053
X8.7381Y-2.2776
X8.7382Y-2.4119
X8.7388Y-1.4705
X8.7392Y-3.5768
X8.7397Y-0.1222
X8.7402Y-1.8716
X8.7402Y-1.0235
X8.7412Y-1.9984
X8.7429Y-0.8222
X8.743Y-4.0892
X8.7436Y-4.2859
X8.7446Y-4.1632
X8.7463Y-3.457
X8.7465Y-1.0898
X8.7466Y-1.9391
X8.747Y-4.2162
X8.7472Y-1.5278
X8.7476Y-0.8984
X8.7659Y-0.8556
X8.7663Y-4.7922
X8.7668Y-2.3668
X8.7672Y-1.0626
X8.7679Y-0.9288
X8.768Y-2.0332
X8.7684Y-4.2634
X8.7697Y-3.4839
X8.7698Y-2.3139
X8.7702Y-1.6273
X8.7707Y-4.1878
X8.771Y-2.5413
X8.7717Y-1.7682
X8.7728Y-2.208
X8.7732Y-1.5059
X8.7736Y-1.9706
X8.7753Y-3.3432
X8.7754Y-1.1253
X8.7765Y-0.997
X8.7765Y-4.1226
X8.7767Y-0.4912
X8.7772Y-0.7515
X8.7779Y-3.278
X8.7786Y-3.4231
X8.7789Y-3.1522
X8.7789Y-1.8966
X8.7799Y-1.8302
X8.78Y-1.5608
X8.7801Y-0.082
X8.7989Y-3.1177
X8.7993Y-4.4951
X8.7995Y-1.103
X8.7998Y-1.5334
X8.7999Y-2.0688
X8.8007Y-1.036
X8.8018Y-2.5707
X8.8022Y-0.7842
X8.8029Y-0.5203
X8.8034Y-1.6676
X8.8035Y-2.1443
X8.8051Y-0.8857
X8.8056Y-4.0847
X8.8059Y-4.2146
X8.8064Y-4.1524
X8.8072Y-3.3839
X8.8087Y-2.3345
X8.81Y-2.5107
X8.8102Y-1.8626
X8.8106Y-2.399
X8.8107Y-2.2309
X8.8112Y-3.3121
X8.8122Y-4.5612
X8.8126Y-1.801
X8.8137Y-0.9619
X8.814Y-4.6225
X8.8141Y-3.4489
X8.8142Y-2.0043
X8.8144Y-1.9308
X8.8147Y-0.66
X8.8149Y-1.6073
X8.8153Y-1.1636
X8.8153Y-4.7521
X8.8329Y-4.1241
X8.8333Y-2.2755
X8.8336Y-1.5592
X8.834Y-4.6555
X8.8342Y-0.9909
X8.8344Y-1.9733
X8.8353Y-3.4115
X8.8354Y-1.1369
X8.836Y-2.7744
X8.8366Y-2.1673
X8.8366Y-1.1966
X8.8371Y-2.9823
X8.8384Y-1.9033
X8.8385Y-2.0298
X8.8391Y-3.2803
X8.841Y-2.5399
X8.8416Y-4.7988
X8.8433Y-1.636
X8.8439Y-1.8315
X8.8447Y-0.8273
X8.8457Y-4.5188
X8.8464Y-1.0631
X8.8466Y-3.1526
X8.8471Y-3.353
X8.8473Y-1.7606
X8.8473Y-2.3685
X8.8478Y-0.9269
X8.8484Y-3.0456
X8.8485Y-2.0989
X8.8488Y-4.5889
X8.849Y-3.7225
X8.8659Y-1.025
X8.8663Y-3.0722
X8.8672Y-4.1513
X8.8676Y-0.8615
X8.8681Y-3.3797
X8.8693Y-2.2114
X8.8702Y-4.5654
X8.8707Y-1.8657
X8.8708Y-0.7942
X8.8708Y-1.9335
X8.8721Y-4.0913
X8.8721Y-3.7467
X8.8728Y-1.0897
X8.8738Y-1.7967
X8.8738Y-1.1692
X8.874Y-2.4136
X8.8747Y-4.4956
X8.8759Y-0.2272
X8.8769Y-2.1385
X8.8787Y-1.6595
X8.8789Y-3.312
X8.8789Y-0.9565
X8.8792Y-1.2214
X8.8795Y-2.5694
X8.8797Y-2.0075
X8.8801Y-2.5103
X8.8801Y-3.0057
X8.8805Y-2.0634
X8.8815Y-1.5369
X8.8817Y-2.3037
X8.8825Y-1.5972
X8.8996Y-2.1081
X8.9007Y-2.2439
X8.9009Y-0.7526
X8.9009Y-1.0678
X8.9013Y-0.8235
X8.9016Y-2.9713
X8.9018Y-0.9941
X8.9023Y-4.5198
X8.9029Y-2.0298
X8.9035Y-4.59
X8.9038Y-0.6197
X8.9041Y-1.9048
X8.9041Y-3.2839
X8.9043Y-3.7127
X8.9045Y-1.5677
X8.905Y-1.6294
X8.9057Y-1.7615
X8.9085Y-3.416
X8.9091Y-3.0371
X8.9092Y-4.1277
X8.9092Y-2.1696
X8.91Y-2.6137
X8.9109Y-2.748
X8.9115Y-3.105
X8.9118Y-3.791
X8.912Y-2.5365
X8.9125Y-1.8331
X8.9134Y-2.3316
X8.9135Y-0.8916
X8.9148Y-3.3551
X8.915Y-1.971
X8.9156Y-2.6732
X8.9333Y-0.5889
X8.9336Y-3.015
X8.9339Y-1.869
X8.9341Y-3.3818
X8.9346Y-2.7722
X8.9353Y-1.804
X8.9363Y-0.8546
X8.9372Y-0.7848
X8.9383Y-3.0775
X8.9389Y-2.0042
X8.9399Y-3.1507
X8.9407Y-1.6731
X8.9409Y-2.7054
X8.9411Y-2.5757
X8.9418Y-1.9403
X8.9421Y-4.0879
X8.9421Y-4.1503
X8.944Y-4.4912
X8.9451Y-4.5553
X8.9457Y-2.6376
X8.9457Y-1.606
X8.9458Y-1.0239
X8.946Y-3.7549
X8.9474Y-3.3157
X8.9475Y-3.8112
X8.9491Y-0.9309
X8.9495Y-0.6539
X8.967Y-3.7929
X8.9675Y-2.7483
X8.9689Y-2.5453
X8.9693Y-0.7666
X8.9708Y-4.1195
X8.9711Y-3.2814
X8.9713Y-3.1171
X8.974Y-0.9584
X8.974Y-0.6279
X8.9741Y-2.8054
X8.9753Y-1.8364
X8.9758Y-2.6732
X8.9765Y-0.5564
X8.9776Y-0.8257
X8.9778Y-0.8965
X8.9785Y-2.9375
X8.9785Y-1.9025
X8.9788Y-1.9717
X8.9791Y-3.4087
X8.9793Y-3.3528
X8.9797Y-1.0677
X8.98Y-4.5289
X8.9801Y-2.8756
X8.9808Y-1.7671
X8.9812Y-4.5899
X8.9822Y-2.6043
X8.9827Y-1.6404
X8.9834Y-3.0426
X9.0007Y-3.3062
X9.0007Y-2.8454
X9.0017Y-4.1553
X9.0023Y-2.6422
X9.0024Y-2.5665
X9.0027Y-3.4475
X9.0031Y-1.7997
X9.0046Y-1.0001
X9.0047Y-2.7808
X9.0064Y-0.6573
X9.0065Y-2.7015
X9.0066Y-3.0859
X9.0074Y-0.9353
X9.0077Y-0.5271
X9.0079Y-4.559
X9.0093Y-0.8563
X9.0116Y-4.6262
X9.0117Y-2.9859
X9.0118Y-0.7858
X9.0121Y-2.9076
X9.0125Y-1.93
X9.0139Y-3.38
X9.0141Y-1.8654
X9.0157Y-3.1507
X9.0164Y-4.7645
X9.0165Y-0.5961
X9.0344Y-2.3077
X9.0347Y-2.75
X9.0347Y-2.2433
X9.0351Y-1.0232
X9.0358Y-2.8166
X9.0358Y-4.1929
X9.0358Y-0.5554
X9.0359Y-2.5157
X9.0375Y-3.3527
X9.0377Y-3.0049
X9.0377Y-1.4912
X9.0382Y-2.3796
X9.0398Y-3.4083
X9.0399Y-3.4799
X9.0411Y-2.603
X9.0412Y-4.6628
X9.0418Y-0.8232
X9.0433Y-3.7924
X9.0433Y-1.9085
X9.0436Y-4.5837
X9.0437Y-4.5179
X9.0443Y-2.9518
X9.0443Y-2.8778
X9.0444Y-3.1183
X9.0446Y-0.8993
X9.0447Y-4.7854
X9.045Y-0.7585
X9.0463Y-1.7721
X9.0468Y-2.6735
X9.0471Y-0.6243
X9.0494Y-0.9537
X9.0498Y-3.2739
X9.0504Y-1.8337
X9.0678Y-0.9246
X9.068Y-2.7053
X9.0692Y-1.795
X9.0696Y-3.1422
X9.0702Y-0.6589
X9.0707Y-2.9844
X9.0711Y-2.7808
X9.0734Y-2.3324
X9.0735Y-2.6348
X9.0742Y-1.8708
X9.0746Y-1.2262
X9.0755Y-1.4573
X9.0757Y-2.8474
X9.0764Y-4.5626
X9.0768Y-1.5386
X9.0773Y-3.0512
X9.0775Y-0.585
X9.0778Y-2.5353
X9.0781Y-2.2759
X9.0789Y-3.3059
X9.079Y-4.6329
X9.08Y-0.221
X9.0802Y-2.9048
X9.0805Y-0.5281
X9.0812Y-4.7519
X9.0812Y-1.1572
X9.0826Y-0.1616
X9.083Y-0.7848
X9.0833Y-0.865
X9.0833Y-0.9957
X9.0842Y-2.4083
X9.1021Y-2.9394
X9.1042Y-1.1922
X9.1044Y-2.37
X9.1054Y-0.8232
X9.1058Y-1.9035
X9.1068Y-3.9457
X9.1069Y-3.004
X9.107Y-1.5615
X9.1074Y-0.7511
X9.1082Y-2.3062
X9.1085Y-2.5116
X9.1086Y-0.9599
X9.1091Y-0.1922
X9.1097Y-4.5313
X9.1103Y-4.5892
X9.1104Y-3.2763
X9.1113Y-0.5615
X9.1119Y-3.793
X9.1119Y-2.5738
X9.112Y-2.2416
X9.1127Y-2.88
X9.1129Y-1.2626
X9.1139Y-0.8865
X9.1144Y-1.5011
X9.1157Y-2.6706
X9.1158Y-0.6207
X9.1158Y-2.8124
X9.1172Y-1.1284
X9.1174Y-2.7456
X9.1175Y-1.8324
X9.135Y-1.596
X9.1367Y-2.7714
X9.1369Y-2.5409
X9.1375Y-1.8004
X9.1407Y-0.5887
X9.1414Y-0.7966
X9.1416Y-2.3474
X9.1428Y-2.4073
X9.1432Y-1.5333
X9.144Y-1.2356
X9.1446Y-0.6573
X9.1451Y-3.3099
X9.1457Y-2.7149
X9.1458Y-1.1582
X9.1466Y-2.273
X9.1479Y-1.8618
X9.1485Y-0.8517
X9.1492Y-0.9219
X9.1492Y-0.5181
X9.1506Y-2.6014
X9.1509Y-1.0935
X9.1513Y-1.462
X9.1687Y-1.4907
X9.1699Y-1.1339
X9.1711Y-1.9039
X9.1722Y-1.3934
X9.174Y-3.953
X9.1743Y-0.5563
X9.1748Y-2.3038
X9.1752Y-2.7402
X9.1753Y-1.5619
X9.1754Y-1.324
X9.1764Y-0.8228
X9.1766Y-1.262
X9.1774Y-0.7591
X9.1783Y-2.513
X9.18Y-2.5824
X9.181Y-1.0691
X9.1811Y-3.2829
X9.1815Y-1.8336
X9.1831Y-2.3768
X9.1837Y-1.6405
X9.1837Y-0.8902
X9.1841Y-2.6409
X9.1845Y-1.1899
X9.1851Y-0.6275
X9.2026Y-2.9812
X9.2033Y-0.852
X9.2035Y-1.2913
X9.204Y-1.4275
X9.204Y-1.5969
X9.2051Y-1.2338
X9.2053Y-1.0275
X9.2056Y-1.1677
X9.2063Y-1.3568
X9.208Y-2.6771
X9.2088Y-0.517
X9.2095Y-0.6504
X9.21Y-0.5941
X9.211Y-2.6157
X9.2121Y-3.7145
X9.2122Y-1.5378
X9.2126Y-3.1447
X9.2133Y-2.4109
X9.2139Y-4.5666
X9.2139Y-2.5468
X9.214Y-2.3312
X9.2144Y-4.6192
X9.2159Y-4.4875
X9.2166Y-0.7865
X9.217Y-2.2698
X9.2174Y-1.9402
X9.2177Y-1.8705
X9.2184Y-1.0934
X9.2186Y-1.666
X9.2359Y-1.3299
X9.2368Y-1.2682
X9.2378Y-4.0844
X9.2381Y-3.5196
X9.2383Y-1.4633
X9.2383Y-3.0073
X9.2384Y-2.512
X9.2388Y-4.6547
X9.2397Y-2.3702
X9.2398Y-3.7456
X9.2398Y-4.5956
X9.2399Y-1.1224
X9.2405Y-4.2511
X9.241Y-1.404
X9.2429Y-0.6267
X9.2432Y-0.4919
X9.2432Y-2.3033
X9.2436Y-1.197
X9.2448Y-3.0768
X9.2448Y-1.8955
X9.245Y-2.634
X9.2453Y-1.0674
X9.246Y-0.5498
X9.2474Y-1.6251
X9.2481Y-1.562
X9.2481Y-0.9986
X9.249Y-2.5776
X9.2496Y-4.5227
X9.2497Y-0.7642
X9.2498Y-4.7521
X9.2511Y-0.8301
X9.2524Y-1.9674
X9.2703Y-1.5937
X9.2707Y-1.3597
X9.2713Y-1.0279
X9.2713Y-3.1076
X9.272Y-1.67
X9.2723Y-1.2935
X9.2725Y-3.7836
X9.2726Y-0.583
X9.273Y-4.566
X9.2731Y-1.4247
X9.2736Y-1.0948
X9.2743Y-2.6057
X9.2744Y-1.2275
X9.2744Y-3.7148
X9.2744Y-2.336
X9.2771Y-0.9589
X9.2788Y-4.6268
X9.2789Y-2.9802
X9.2794Y-2.4099
X9.2801Y-4.182
X9.2804Y-1.169
X9.2811Y-3.4198
X9.2812Y-2.2706
X9.2819Y-4.4859
X9.2822Y-4.1196
X9.2824Y-0.7938
X9.283Y-2.6822
X9.2837Y-1.5035
X9.2843Y-3.4859
X9.2844Y-0.5272
X9.2855Y-3.0469
X9.2858Y-4.7983
X9.286Y-2.5359
X9.286Y-0.6638
X9.3032Y-0.9193
X9.304Y-0.2486
X9.3044Y-0.4869
X9.3048Y-4.519
X9.3052Y-1.1957
X9.306Y-3.3824
X9.3061Y-2.3785
X9.3067Y-3.0087
X9.3068Y-3.4472
X9.3071Y-1.0634
X9.3072Y-4.1539
X9.3073Y-4.5914
X9.3075Y-1.5345
X9.3078Y-1.3375
X9.3086Y-0.9941
X9.3088Y-2.65
X9.309Y-4.6651
X9.3103Y-1.137
X9.3119Y-4.0837
X9.3119Y-1.406
X9.3123Y-0.0812
X9.3135Y-3.0865
X9.3137Y-2.3128
X9.3149Y-0.5623
X9.3151Y-3.5109
X9.3154Y-1.4629
X9.316Y-1.2578
X9.3162Y-4.227
X9.3167Y-0.6317
X9.3188Y-3.756
X9.319Y-2.5662
X9.3191Y-3.8267
X9.3192Y-3.1531
X9.3192Y-1.7636
X9.3195Y-4.7681
X9.3372Y-2.6711
X9.3373Y-3.71
X9.3381Y-0.5175
X9.3382Y-1.1583
X9.3388Y-0.5919
X9.3391Y-4.4502
X9.3392Y-1.0328
X9.3393Y-3.4767
X9.3402Y-3.0457
X9.3407Y-3.1104
X9.3414Y-4.2505
X9.3422Y-4.1852
X9.3438Y-0.9671
X9.346Y-4.5584
X9.3482Y-1.7939
X9.3483Y-0.654
X9.3483Y-0.1244
X9.3483Y-0.8957
X9.3486Y-3.35
X9.3492Y-4.6329
X9.3499Y-4.12
X9.3502Y-2.6113
X9.3503Y-4.7942
X9.351Y-1.0901
X9.3513Y-3.4104
X9.3515Y-3.5577
X9.3516Y-3.7875
X9.3526Y-0.1942
X9.3529Y-1.2257
X9.3706Y-3.0754
X9.3709Y-3.5195
X9.3712Y-1.7757
X9.3716Y-3.3222
X9.3726Y-3.7444
X9.3726Y-0.9955
X9.3728Y-3.3766
X9.3733Y-4.4262
X9.3735Y-4.2168
X9.3736Y-4.2832
X9.3745Y-3.5916
X9.3768Y-4.4967
X9.3768Y-0.9308
X9.3769Y-3.6469
X9.3784Y-4.5975
X9.3789Y-0.1583
X9.3791Y-0.0799
X9.3795Y-2.6479
X9.3797Y-3.0081
X9.3798Y-0.8543
X9.3799Y-1.1948
X9.3808Y-1.1318
X9.3812Y-4.3506
X9.3815Y-0.4956
X9.3816Y-0.5528
X9.3817Y-4.1627
X9.3843Y-3.4406
X9.3849Y-1.0629
X9.386Y-0.6202
X9.4045Y-3.6168
X9.4062Y-4.3305
X9.4066Y-3.6794
X9.4077Y-4.187
X9.4077Y-3.2851
X9.4086Y-0.8857
X9.4091Y-3.0463
X9.4093Y-0.1156
X9.41Y-1.465
X9.4104Y-3.5419
X9.4104Y-1.5311
X9.4104Y-3.7814
X9.4108Y-1.1679
X9.411Y-0.5262
X9.4113Y-1.5955
X9.4118Y-3.3553
X9.4123Y-0.5895
X9.4135Y-2.3078
X9.4141Y-3.4893
X9.4141Y-1.091
X9.4142Y-0.9567
X9.4146Y-3.411
X9.415Y-2.2376
X9.4151Y-4.3942
X9.4157Y-4.4521
X9.4165Y-1.0216
X9.4167Y-1.6688
X9.4174Y-4.2567
X9.4178Y-4.5208
X9.4184Y-0.8295
X9.4184Y-2.6813
X9.4184Y-1.8073
X9.4186Y-2.3761
X9.4378Y-0.9216
X9.4378Y-0.1477
X9.4388Y-2.3344
X9.439Y-2.4121
X9.4405Y-3.4476
X9.4408Y-2.0022
X9.442Y-4.429
X9.4435Y-3.3858
X9.4437Y-4.35
X9.4455Y-0.8546
X9.4455Y-4.4896
X9.4463Y-0.0894
X9.4468Y-4.2168
X9.4469Y-1.5031
X9.4476Y-3.3178
X9.4478Y-0.7955
X9.4482Y-3.0163
X9.4485Y-3.7154
X9.4486Y-1.5693
X9.4486Y-1.6312
X9.4488Y-1.0001
X9.4494Y-1.8361
X9.4494Y-4.283
X9.4496Y-1.0542
X9.4501Y-2.2782
X9.4506Y-1.776
X9.4517Y-4.5658
X9.452Y-1.1282
X9.4523Y-3.587
X9.4526Y-3.6477
X9.4536Y-3.5197
X9.4728Y-3.2723
X9.4733Y-1.4667
X9.4737Y-0.959
X9.4741Y-3.8267
X9.475Y-2.2427
X9.4752Y-1.8689
X9.4752Y-4.5952
X9.4763Y-3.6815
X9.4771Y-3.6183
X9.4771Y-1.8061
X9.4772Y-1.659
X9.4773Y-1.5403
X9.4777Y-1.1585
X9.4777Y-3.3418
X9.4788Y-0.1249
X9.4791Y-1.9311
X9.4793Y-1.0869
X9.4801Y-4.4571
X9.4804Y-3.55
X9.4805Y-4.3258
X9.4812Y-0.8243
X9.4813Y-3.744
X9.4831Y-4.6664
X9.4835Y-4.2608
X9.4837Y-0.892
X9.4838Y-2.512
X9.4847Y-4.3864
X9.485Y-4.752
X9.4851Y-3.4859
X9.486Y-1.0248
X9.4863Y-3.4112
X9.4869Y-4.5267
X9.4872Y-2.3681
X9.4875Y-1.6059
X9.4878Y-2.3117
X9.5047Y-0.0794
X9.505Y-1.8284
X9.5055Y-4.5572
X9.5066Y-0.7612
X9.5066Y-0.5577
X9.5078Y-4.4282
X9.5082Y-0.9992
X9.5082Y-4.4911
X9.5083Y-1.9083
X9.5085Y-0.6311
X9.509Y-3.3878
X9.5094Y-0.9214
X9.5097Y-4.349
X9.5108Y-0.4954
X9.5113Y-4.7885
X9.5115Y-1.5039
X9.5121Y-1.0663
X9.5127Y-1.1207
X9.5133Y-2.0382
X9.5141Y-1.6294
X9.5142Y-0.1539
X9.5143Y-1.7656
X9.5149Y-3.3223
X9.5149Y-2.3308
X9.5152Y-2.2644
X9.5163Y-2.3982
X9.5167Y-3.5223
X9.5169Y-1.5662
X9.5184Y-1.9659
X9.5191Y-3.4473
X9.5192Y-4.2931
X9.5195Y-4.6231
X9.5197Y-2.5377
X9.52Y-0.8618
X9.5386Y-2.3787
X9.5401Y-4.0956
X9.5408Y-3.1396
X9.5415Y-4.5984
X9.5417Y-4.5273
X9.5417Y-0.9625
X9.542Y-3.2743
X9.5421Y-1.7946
X9.5423Y-0.5256
X9.5429Y-1.8736
X9.5443Y-1.6063
X9.5446Y-1.9436
X9.5458Y-3.4151
X9.5466Y-4.7619
X9.5477Y-0.9006
X9.5477Y-3.4774
X9.5485Y-2.3139
X9.5492Y-0.7989
X9.5492Y-1.5397
X9.5492Y-2.0706
X9.5496Y-3.3447
X9.5502Y-0.1272
X9.5503Y-2.1347
X9.5504Y-1.1006
X9.5507Y-4.4515
X9.551Y-1.6648
X9.551Y-2.2052
X9.5511Y-0.658
X9.5513Y-4.3272
X9.5514Y-2.0065
X9.552Y-2.5063
X9.5522Y-1.1664
X9.5523Y-1.0234
X9.5526Y-2.5796
X9.5541Y-4.6543
X9.5545Y-4.3926
X9.5721Y-1.8283
X9.5722Y-2.0305
X9.5729Y-4.1264
X9.5729Y-4.6211
X9.573Y-0.0822
X9.5738Y-1.0533
X9.5747Y-3.1194
X9.5747Y-4.4166
X9.5753Y-2.7702
X9.5756Y-3.3095
X9.5757Y-3.3812
X9.5759Y-3.7839
X9.5768Y-1.6352
X9.5769Y-0.9248
X9.5774Y-2.41
X9.5775Y-1.9641
X9.5779Y-2.1746
X9.5781Y-4.49
X9.5782Y-1.1913
X9.5785Y-1.7745
X9.5787Y-2.3339
X9.5805Y-4.3623
X9.581Y-2.2404
X9.5813Y-3.7239
X9.5815Y-3.8797
X9.5822Y-2.0986
X9.5828Y-1.5577
X9.5845Y-2.5371
X9.5854Y-4.7992
X9.5855Y-1.0027
X9.5861Y-0.8209
X9.5867Y-4.5661
X9.5869Y-1.1263
X9.5871Y-3.0485
X9.5875Y-1.8973
X9.5886Y-2.9792
X9.6057Y-1.533
X9.6061Y-4.5895
X9.6062Y-2.2653
X9.6062Y-1.67
X9.6064Y-0.9561
X9.6069Y-1.8004
X9.6069Y-1.1669
X9.6069Y-3.4102
X9.6075Y-1.0895
X9.6077Y-1.0233
X9.6077Y-2.5771
X9.6082Y-1.2267
X9.6084Y-0.8597
X9.6096Y-2.5071
X9.6101Y-2.3739
X9.6103Y-1.6061
X9.6113Y-1.8641
X9.6115Y-2.2028
X9.6119Y-3.2793
X9.6127Y-3.8173
X9.613Y-0.7938
X9.6131Y-2.0089
X9.614Y-4.0794
X9.6141Y-2.0776
X9.6149Y-3.1442
X9.6153Y-3.3552
X9.616Y-3.7515
X9.6172Y-1.9288
X9.6177Y-4.4527
X9.6181Y-0.2188
X9.6195Y-3.9152
X9.6201Y-4.3972
X9.6204Y-4.1563
X9.6207Y-3.0855
X9.6208Y-4.5222
X9.6211Y-3.0184
X9.622Y-2.1371
X9.6393Y-3.314
X9.6397Y-2.7366
X9.64Y-2.3094
X9.6404Y-2.9703
X9.6411Y-3.7121
X9.6416Y-3.9449
X9.6418Y-1.8388
X9.6419Y-2.5362
X9.642Y-3.1164
X9.6423Y-2.4088
X9.6428Y-4.1175
X9.643Y-3.7928
X9.6436Y-1.7612
X9.6447Y-3.3818
X9.6453Y-1.9645
X9.6469Y-1.6253
X9.6473Y-4.1847
X9.6477Y-1.0583
X9.6478Y-2.2316
X9.6496Y-2.0361
X9.6502Y-2.682
X9.6505Y-2.1115
X9.6527Y-1.0009
X9.653Y-0.8304
X9.654Y-2.1795
X9.654Y-3.044
X9.6541Y-0.8952
X9.6546Y-1.9025
X9.6549Y-2.6113
X9.6552Y-3.8546
X9.6553Y-0.6605
X9.6557Y-1.5726
X9.6731Y-0.5969
X9.6731Y-1.8629
X9.6733Y-2.5765
X9.6737Y-1.6042
X9.6738Y-2.0776
X9.6741Y-2.0109
X9.6744Y-1.5324
X9.6748Y-4.085
X9.6752Y-1.0314
X9.6763Y-0.935
X9.6769Y-3.143
X9.6771Y-0.8546
X9.6773Y-2.6337
X9.6776Y-1.929
X9.6779Y-1.6721
X9.678Y-3.087
X9.6784Y-3.4099
X9.6791Y-2.7817
X9.6792Y-2.1409
X9.6804Y-2.212
X9.6806Y-3.884
X9.6817Y-2.7158
X9.6819Y-3.7471
X9.6833Y-3.2727
X9.6837Y-3.8133
X9.6842Y-4.159
X9.6847Y-3.3522
X9.6875Y-2.2766
X9.6877Y-0.7644
X9.6882Y-1.8016
X9.6893Y-3.0059
X9.7064Y-1.6267
X9.7067Y-3.3082
X9.7074Y-2.6028
X9.7077Y-0.562
X9.708Y-3.0393
X9.7083Y-3.7902
X9.7088Y-0.8887
X9.7122Y-2.668
X9.7124Y-3.9203
X9.7138Y-0.6171
X9.7153Y-1.8334
X9.7157Y-3.1138
X9.7172Y-4.1187
X9.7172Y-1.9731
X9.718Y-2.9844
X9.7181Y-3.8528
X9.7189Y-1.7708
X9.7193Y-2.7504
X9.7212Y-3.3827
X9.7223Y-0.785
X9.7224Y-1.909
X9.7225Y-2.547
X9.7405Y-3.0811
X9.7412Y-2.6436
X9.7424Y-2.5769
X9.743Y-3.2764
X9.744Y-1.8695
X9.745Y-3.8128
X9.7454Y-3.4201
X9.7475Y-0.7643
X9.748Y-2.7133
X9.7481Y-3.0116
X9.7482Y-4.8
X9.7489Y-2.917
X9.7493Y-4.0872
X9.7502Y-3.3424
X9.7503Y-3.9473
X9.7505Y-2.8373
X9.7515Y-0.5856
X9.7529Y-2.7826
X9.7532Y-0.6522
X9.7536Y-1.9365
X9.7538Y-0.8299
X9.7554Y-0.5307
X9.7556Y-3.138
X9.7563Y-1.794
X9.7564Y-3.8921
X9.7737Y-4.4856
X9.7737Y-2.3742
X9.7745Y-2.9525
X9.7753Y-0.9898
X9.7754Y-1.8321
X9.7757Y-3.044
X9.7769Y-2.6825
X9.7771Y-0.7894
X9.7775Y-4.8212
X9.7778Y-2.5048
X9.7781Y-2.309
X9.7788Y-1.0542
X9.7789Y-4.5527
X9.7791Y-4.1252
X9.7795Y-3.3825
X9.7797Y-4.7621
X9.7818Y-1.4625
X9.7819Y-3.9119
X9.7821Y-3.1054
X9.7823Y-3.3116
X9.7835Y-1.767
X9.7849Y-0.6173
X9.7849Y-2.8076
X9.7852Y-4.6185
X9.7853Y-3.7885
X9.7855Y-1.539
X9.7857Y-3.4528
X9.7868Y-1.9031
X9.7878Y-0.5612
X9.7888Y-2.2432
X9.789Y-2.8786
X9.7892Y-2.7362
X9.7898Y-2.6023
X9.7903Y-3.8553
X9.8078Y-4.5288
X9.8083Y-1.808
X9.8084Y-3.8879
X9.8086Y-4.5933
X9.8089Y-2.6384
X9.809Y-2.5398
X9.8092Y-1.0928
X9.8097Y-2.8355
X9.8104Y-2.2799
X9.8105Y-4.6542
X9.8108Y-0.5215
X9.8108Y-0.6645
X9.8114Y-2.7711
X9.8116Y-2.9802
X9.8116Y-1.5025
X9.812Y-2.4131
X9.8127Y-2.7173
X9.8133Y-0.5841
X9.8155Y-2.3319
X9.8163Y-3.2771
X9.8163Y-3.811
X9.8163Y-1.574
X9.8171Y-3.0849
X9.8178Y-4.8005
X9.8181Y-1.2577
X9.8186Y-0.9531
X9.8186Y-4.086
X9.8201Y-3.488
X9.8202Y-3.148
X9.8203Y-3.9451
X9.8216Y-3.3502
X9.822Y-0.7647
X9.8236Y-1.8744
X9.8238Y-1.022
X9.8239Y-2.9104
X9.8415Y-1.8946
X9.8423Y-3.0119
X9.8443Y-2.2311
X9.8446Y-2.6776
X9.8448Y-0.9908
X9.8449Y-0.2254
X9.8449Y-4.5639
X9.8452Y-1.5348
X9.8455Y-3.9231
X9.8458Y-0.5529
X9.8464Y-0.1613
X9.8464Y-2.3091
X9.8479Y-1.1929
X9.8481Y-0.6175
X9.8485Y-3.3147
X9.849Y-2.7356
X9.8494Y-1.8299
X9.85Y-2.8157
X9.85Y-1.5994
X9.8507Y-4.7522
X9.8511Y-2.8721
X9.8515Y-3.7828
X9.8518Y-3.1053
X9.8522Y-1.0591
X9.8526Y-2.5071
X9.8527Y-2.5755
X9.8527Y-4.1277
X9.853Y-3.8445
X9.8543Y-2.3802
X9.8545Y-4.4834
X9.8554Y-4.8343
X9.8555Y-2.939
X9.8563Y-1.1317
X9.8566Y-0.9346
X9.8573Y-4.6227
X9.8758Y-2.7793
X9.8764Y-1.5592
X9.8769Y-1.6388
X9.8778Y-0.5206
X9.8778Y-4.6512
X9.8779Y-0.5958
X9.878Y-3.9563
X9.8782Y-1.2268
X9.8786Y-0.9006
X9.8792Y-3.8801
X9.8792Y-2.2691
X9.8797Y-2.6161
X9.8801Y-2.3357
X9.8806Y-4.5225
X9.8807Y-4.0871
X9.8813Y-2.7091
X9.8813Y-2.5348
X9.8818Y-1.0969
X9.8824Y-2.4034
X9.8835Y-4.5836
X9.884Y-1.457
X9.8842Y-0.6545
X9.8862Y-0.9529
X9.8873Y-1.1615
X9.8877Y-3.273
X9.8884Y-1.0219
X9.8886Y-1.8637
X9.8891Y-4.8007
X9.8901Y-1.8088
X9.8905Y-3.8109
X9.9081Y-4.1261
X9.9086Y-1.9018
X9.9087Y-3.9128
X9.911Y-1.1205
X9.9111Y-1.0634
X9.9122Y-3.7581
X9.9125Y-1.5982
X9.9132Y-3.3176
X9.9143Y-0.9912
X9.9145Y-4.5555
X9.9151Y-2.3728
X9.9152Y-1.8382
X9.9153Y-1.2009
X9.9154Y-4.627
X9.9158Y-1.4906
X9.9159Y-0.8619
X9.9168Y-2.6381
X9.921Y-0.9275
X9.9216Y-1.336
X9.9217Y-3.8483
X9.9221Y-0.5604
X9.9222Y-1.403
X9.9234Y-2.7465
X9.9234Y-2.5673
X9.9235Y-1.2713
X9.9241Y-2.3097
X9.9244Y-0.6254
X9.9244Y-4.7656
X9.9245Y-2.5064
X9.9419Y-4.0823
X9.942Y-4.6518
X9.9424Y-1.3024
X9.9425Y-0.8937
X9.9443Y-3.9606
X9.9445Y-0.5846
X9.9445Y-1.0924
X9.9458Y-1.23
X9.9459Y-1.0322
X9.9478Y-3.8864
X9.9482Y-4.5973
X9.9493Y-1.4354
X9.95Y-1.1671
X9.9507Y-2.4004
X9.9525Y-2.5481
X9.9527Y-3.7206
X9.9529Y-4.5163
X9.9546Y-3.2804
X9.9549Y-1.8739
X9.9552Y-2.6162
X9.9555Y-2.2664
X9.9556Y-3.7865
X9.9561Y-1.3594
X9.9561Y-2.3455
X9.9566Y-2.9776
X9.9567Y-2.6747
X9.9572Y-0.5283
X9.9572Y-0.9627
X9.9575Y-1.94
X9.9582Y-1.626
X9.9585Y-1.5297
X9.9759Y-1.5608
X9.9772Y-3.7468
X9.9782Y-3.8231
X9.9782Y-2.6361
X9.9792Y-3.138
X9.9795Y-4.5645
X9.9798Y-0.4933
X9.9802Y-3.9278
X9.9807Y-0.6287
X9.9819Y-0.9193
X9.9821Y-0.5493
X9.9821Y-1.6732
X9.9822Y-3.0123
X9.9823Y-1.9686
X9.9845Y-4.6292
X9.9852Y-1.8979
X9.9853Y-3.0729
X9.9858Y-0.9994
X9.9868Y-1.4694
X9.987Y-1.4031
X9.9883Y-2.38
X9.9886Y-1.2609
X9.9892Y-2.513
X9.9895Y-1.1288
X9.9906Y-2.5749
X9.9907Y-2.2988
X9.9912Y-1.0549
X9.9915Y-1.199
X9.9919Y-1.3371
X9.9922Y-4.1189
X10.0101Y-4.6658
X10.0104Y-2.9859
X10.0112Y-2.6078
X10.0115Y-3.8592
X10.0116Y-1.5978
X10.0124Y-0.9651
X10.0127Y-2.2794
X10.0129Y-1.1579
X10.013Y-1.0294
X10.0141Y-4.5317
X10.0142Y-1.4247
X10.0148Y-1.3684
X10.0157Y-1.1008
X10.0161Y-0.53
X10.0163Y-2.4107
X10.017Y-3.4115
X10.0189Y-4.5991
X10.019Y-3.9482
X10.0194Y-3.1085
X10.0196Y-3.0394
X10.0197Y-3.717
X10.0199Y-2.3381
X10.02Y-1.2977
X10.0209Y-3.7843
X10.021Y-0.9009
X10.0226Y-2.5428
X10.0233Y-0.2962
X10.0238Y-0.5847
X10.0241Y-1.2241
X10.0244Y-1.5011
X10.0245Y-4.0908
X10.0427Y-3.7507
X10.0429Y-1.1314
X10.0433Y-1.1957
X10.0449Y-3.0131
X10.0449Y-4.6186
X10.0452Y-2.5798
X10.0455Y-3.8834
X10.046Y-0.9246
X10.0462Y-3.151
X10.0464Y-3.0835
X10.0468Y-2.3088
X10.0477Y-4.5525
X10.0484Y-1.3973
X10.0485Y-3.8243
X10.0486Y-0.5501
X10.0507Y-2.3645
X10.051Y-1.3303
X10.0532Y-0.4855
X10.0532Y-0.0787
X10.0533Y-0.9976
X10.0538Y-1.0545
X10.0538Y-3.4456
X10.0544Y-1.5254
X10.0551Y-3.3843
X10.0561Y-1.2665
X10.058Y-2.6399
X10.0587Y-1.7709
X10.0594Y-1.4614
X10.077Y-1.1633
X10.0774Y-2.6163
X10.0776Y-0.5223
X10.0785Y-3.7132
X10.0787Y-3.1125
X10.079Y-1.0305
X10.08Y-3.9254
X10.0812Y-3.3443
X10.0824Y-0.966
X10.0824Y-3.8579
X10.0825Y-0.1864
X10.0828Y-3.7883
X10.0835Y-4.5877
X10.0837Y-0.8938
X10.0845Y-0.2575
X10.0867Y-1.2237
X10.0869Y-1.7992
X10.0878Y-1.0923
X10.088Y-3.04
X10.0887Y-2.67
X10.089Y-3.4081
X10.0892Y-4.5199
X10.0896Y-0.1161
X10.0898Y-4.6573
X10.0907Y-3.4755
X10.111Y-0.4894
X10.1118Y-3.7453
X10.1119Y-1.0564
X10.1134Y-3.0076
X10.1137Y-3.315
X10.1138Y-3.3859
X10.1139Y-3.4411
X10.1146Y-3.8142
X10.1148Y-0.919
X10.1156Y-1.1987
X10.1165Y-4.6302
X10.1182Y-1.1313
X10.1182Y-0.2259
X10.1186Y-2.6373
X10.1187Y-3.5173
X10.1197Y-3.9515
X10.12Y-1.7719
X10.1204Y-3.89
X10.1206Y-0.1568
X10.1238Y-4.5592
X10.1238Y-0.0809
X10.124Y-0.9957
X10.1258Y-3.0818
X10.1439Y-1.0986
X10.1441Y-1.803
X10.1445Y-4.527
X10.1451Y-1.507
X10.146Y-2.2421
X10.1475Y-0.6292
X10.1481Y-3.8539
X10.1483Y-0.9596
X10.1488Y-0.1219
X10.1492Y-4.6528
X10.1499Y-0.1942
X10.15Y-2.6795
X10.1502Y-3.5475
X10.151Y-1.0347
X10.1521Y-0.8887
X10.1523Y-3.2784
X10.1534Y-4.59
X10.1535Y-3.4835
X10.1537Y-3.3426
X10.1549Y-3.7799
X10.155Y-2.3652
X10.1566Y-3.043
X10.1566Y-3.4078
X10.1568Y-2.312
X10.1572Y-3.9256
X10.1592Y-1.1553
X10.1772Y-1.834
X10.1776Y-3.0056
X10.1778Y-0.5951
X10.1779Y-3.4433
X10.1803Y-3.5879
X10.1806Y-0.1466
X10.1815Y-1.7748
X10.1817Y-0.9188
X10.1822Y-4.6202
X10.1824Y-4.0944
X10.1825Y-3.951
X10.1829Y-1.5991
X10.1834Y-1.1295
X10.1837Y-2.332
X10.184Y-2.0091
X10.1845Y-1.6645
X10.1849Y-3.8217
X10.1869Y-3.3844
X10.1871Y-0.6611
X10.1872Y-0.0886
X10.1876Y-1.5399
X10.1876Y-1.4634
X10.188Y-3.8792
X10.1889Y-2.279
X10.1891Y-0.9908
X10.1895Y-1.0609
X10.1903Y-3.3171
X10.1906Y-2.7133
X10.1908Y-4.556
X10.1921Y-3.5168
X10.1925Y-2.4102
X10.2107Y-4.5287
X10.2109Y-1.8608
X10.2112Y-1.9303
X10.2121Y-3.4772
X10.2124Y-2.3066
X10.2126Y-1.0215
X10.2137Y-0.8914
X10.2139Y-3.8504
X10.2144Y-2.2439
X10.2146Y-0.6298
X10.2161Y-3.2735
X10.2167Y-4.597
X10.2184Y-1.8008
X10.2189Y-1.6372
X10.2193Y-3.619
X10.2197Y-3.3541
X10.2202Y-1.505
X10.2206Y-0.9579
X10.2208Y-1.1684
X10.221Y-2.3736
X10.2212Y-0.1121
X10.2216Y-1.0882
X10.2229Y-3.5435
X10.2236Y-3.9155
X10.2252Y-4.6663
X10.2254Y-0.5588
X10.2263Y-1.5731
X10.227Y-3.421
X10.2445Y-2.3355
X10.2458Y-3.3734
X10.2459Y-2.0416
X10.2459Y-0.1527
X10.2461Y-0.0802
X10.2461Y-0.5833
X10.2465Y-3.5174
X10.2468Y-2.2655
X10.2473Y-1.9059
X10.248Y-2.5093
X10.2503Y-3.6545
X10.2506Y-3.9545
X10.2507Y-1.5264
X10.2508Y-2.4056
X10.2511Y-1.6008
X10.2511Y-4.6278
X10.2515Y-1.0644
X10.2515Y-1.4612
X10.2517Y-0.9273
X10.2546Y-0.5272
X10.2558Y-3.3138
X10.2559Y-3.4465
X10.2563Y-3.8922
X10.2563Y-1.6734
X10.2579Y-1.8427
X10.2581Y-1.7642
X10.259Y-3.5749
X10.259Y-0.6665
X10.2593Y-4.5656
X10.2597Y-0.9883
X10.2599Y-1.9639
X10.2606Y-1.1355
X10.2787Y-0.8965
X10.2792Y-3.6858
X10.2808Y-2.0781
X10.2812Y-2.0028
X10.2812Y-3.2879
X10.2824Y-1.808
X10.2827Y-0.5527
X10.2841Y-1.6392
X10.2844Y-2.2047
X10.2849Y-1.0891
X10.2851Y-3.1444
X10.2859Y-3.4139
X10.287Y-0.9608
X10.2874Y-3.4844
X10.2877Y-3.5525
X10.288Y-4.4992
X10.2882Y-1.567
X10.2884Y-4.6563
X10.2884Y-2.3726
X10.2894Y-1.8654
X10.2895Y-4.5911
X10.29Y-2.5369
X10.2901Y-2.3105
X10.291Y-1.16
X10.291Y-0.6192
X10.2911Y-3.6112
X10.2913Y-1.4972
X10.2918Y-3.3549
X10.2922Y-1.0245
X10.2931Y-0.1142
X10.2938Y-1.9341
X10.294Y-3.9231
X10.3121Y-3.5195
X10.3121Y-1.6599
X10.3127Y-1.7695
X10.3131Y-4.296
X10.3132Y-2.4049
X10.314Y-4.6197
X10.3141Y-0.9991
X10.3144Y-2.4993
X10.3152Y-0.5241
X10.3154Y-2.2425
X10.3154Y-3.582
X10.3164Y-0.0812
X10.3166Y-1.9646
X10.3174Y-0.9348
X10.3182Y-1.5956
X10.3183Y-3.3895
X10.3194Y-2.03
X10.3195Y-3.6546
X10.3202Y-1.5357
X10.3212Y-3.7126
X10.3215Y-2.0986
X10.3226Y-1.8321
X10.3237Y-3.1106
X10.3248Y-1.1883
X10.3258Y-3.3205
X10.3261Y-4.5266
X10.3264Y-1.8959
X10.3265Y-3.9471
X10.3269Y-1.135
X10.3271Y-4.4646
X10.3271Y-2.3385
X10.3277Y-3.4486
X10.3279Y-1.0682
X10.3281Y-2.1663
X10.3455Y-0.9561
X10.3457Y-2.5455
X10.3458Y-2.9713
X10.3462Y-3.4231
X10.3467Y-3.557
X10.3469Y-3.1528
X10.3476Y-1.021
X10.348Y-2.0684
X10.3492Y-2.3802
X10.3499Y-3.3534
X10.35Y-2.1406
X10.3509Y-2.202
X10.3517Y-2.2696
X10.3523Y-3.6107
X10.3527Y-1.8717
X10.3528Y-1.0968
X10.3543Y-4.6624
X10.3547Y-1.6388
X10.3556Y-4.551
X10.3556Y-2.7751
X10.356Y-3.7437
X10.3561Y-3.0446
X10.3561Y-4.4989
X10.3564Y-0.8951
X10.357Y-3.2748
X10.3571Y-1.2222
X10.3571Y-1.802
X10.3576Y-1.1644
X10.3581Y-0.2178
X10.3599Y-1.9961
X10.3603Y-3.677
X10.3604Y-1.5613
X10.3606Y-3.4783
X10.3611Y-1.9405
X10.3788Y-1.7665
X10.3793Y-2.5118
X10.3796Y-1.9696
X10.3797Y-0.9348
X10.3802Y-1.6695
X10.3804Y-1.0666
X10.3812Y-3.6547
X10.3812Y-3.7139
X10.3813Y-2.674
X10.3814Y-1.0026
X10.3822Y-4.4512
X10.3834Y-2.5744
X10.384Y-2.7424
X10.3845Y-1.9043
X10.3851Y-3.5774
X10.3859Y-3.7894
X10.3861Y-4.5216
X10.3868Y-1.5266
X10.387Y-3.0121
X10.3874Y-3.3856
X10.3875Y-4.1844
X10.3875Y-4.0905
X10.3884Y-3.5091
X10.389Y-2.3124
X10.3893Y-2.2441
X10.3913Y-1.6013
X10.3916Y-3.3106
X10.3918Y-4.592
X10.3918Y-4.2485
X10.392Y-3.0746
X10.3921Y-2.1007
X10.3925Y-2.3995
X10.3938Y-3.453
X10.3939Y-2.1668
X10.3941Y-1.8397
X10.3943Y-2.0393
X10.4126Y-0.8862
X10.4128Y-0.6265
X10.4134Y-2.9779
X10.4136Y-3.415
X10.4137Y-2.7742
X10.4138Y-2.2641
X10.4139Y-3.6872
X10.4141Y-1.8695
X10.4144Y-3.2774
X10.4146Y-1.0313
X10.4147Y-0.9544
X10.4148Y-4.6247
X10.4151Y-2.6044
X10.4162Y-2.1974
X10.4171Y-3.3497
X10.4171Y-3.4851
X10.4175Y-3.0532
X10.4175Y-2.5427
X10.4183Y-3.8102
X10.4186Y-3.5479
X10.4188Y-3.1123
X10.419Y-3.6136
X10.4194Y-4.554
X10.4203Y-4.1239
X10.4214Y-1.5697
X10.4234Y-1.9287
X10.4244Y-2.7163
X10.4246Y-2.0037
X10.4249Y-4.2159
X10.4252Y-4.4922
X10.4258Y-2.0624
X10.4265Y-1.8007
X10.4269Y-3.75
X10.4274Y-2.1322
X10.4276Y-1.6341
X10.4468Y-3.141
X10.447Y-0.5953
X10.4471Y-3.5087
X10.4471Y-4.4641
X10.449Y-1.9074
X10.449Y-4.517
X10.4493Y-3.4481
X10.4499Y-3.01
X10.4499Y-3.0724
X10.4505Y-4.5876
X10.4506Y-3.5837
X10.4524Y-4.2549
X10.4528Y-4.0869
X10.4549Y-4.6523
X10.4549Y-0.6632
X10.4562Y-3.6569
X10.4572Y-3.3169
X10.4573Y-1.0564
X10.4582Y-4.1531
X10.4584Y-2.6437
X10.4588Y-2.5805
X10.4596Y-1.6735
X10.4598Y-1.7695
X10.4608Y-3.7112
X10.4609Y-1.835
X10.4609Y-3.3812
X10.4611Y-0.9272
X10.4616Y-0.9969
X10.4618Y-1.9645
X10.462Y-3.8483
X10.4622Y-2.7457
X10.4625Y-3.785
X10.4802Y-2.6029
X10.4807Y-0.9537
X10.481Y-3.3526
X10.4817Y-2.914
X10.4828Y-4.1909
X10.4829Y-1.9423
X10.4829Y-3.5559
X10.4829Y-3.1085
X10.4836Y-4.5641
X10.4838Y-0.8951
X10.4838Y-3.8187
X10.4862Y-4.3544
X10.4863Y-2.7834
X10.4865Y-3.2804
X10.4871Y-0.5507
X10.4875Y-4.4828
X10.4876Y-3.7492
X10.4878Y-1.028
X10.488Y-4.6327
X10.4882Y-3.0377
X10.489Y-3.6211
X10.4891Y-1.7957
X10.4892Y-2.979
X10.4894Y-2.8402
X10.4899Y-3.4894
X10.4901Y-2.5348
X10.4903Y-4.4173
X10.4914Y-2.6677
X10.4921Y-4.1209
X10.4927Y-0.6216
X10.4931Y-3.4132
X10.4933Y-3.6849
X10.4936Y-3.8857
X10.4942Y-4.2869
X10.4963Y-1.876
X10.5139Y-3.5872
X10.5141Y-4.3967
X10.5145Y-2.802
X10.5148Y-1.768
X10.5149Y-3.3805
X10.515Y-2.8848
X10.5151Y-3.0077
X10.516Y-3.5085
X10.5164Y-4.5308
X10.5172Y-3.4531
X10.5177Y-2.5798
X10.518Y-0.4888
X10.5185Y-2.6348
X10.5189Y-0.6551
X10.519Y-3.7229
X10.5195Y-4.3262
X10.5207Y-2.7035
X10.5211Y-3.6539
X10.5212Y-1.9047
X10.5214Y-4.4507
X10.5219Y-1.8331
X10.5221Y-2.9435
X10.5221Y-3.3194
X10.5221Y-3.8464
X10.5223Y-4.2213
X10.5231Y-2.244
X10.5232Y-4.6003
X10.5239Y-3.7921
X10.5239Y-0.5966
X10.5264Y-1.4713
X10.527Y-3.0723
X10.5273Y-4.1595
X10.5274Y-2.4095
X10.5276Y-0.0209
X10.5278Y-4.6609
X10.5289Y-3.9161
X10.5297Y-0.9989
X10.5298Y-0.9305
X10.5298Y-3.1443
X10.5473Y-3.5452
X10.5475Y-3.4809
X10.5482Y-4.6243
X10.5483Y-4.1859
X10.549Y-0.8869
X10.55Y-2.9749
X10.5502Y-2.6024
X10.5511Y-2.7375
X10.5513Y-3.2875
X10.5515Y-4.252
X10.5518Y-3.9462
X10.5518Y-4.5657
X10.5522Y-0.5245
X10.5528Y-3.7461
X10.5528Y-3.879
X10.5529Y-3.3447
X10.5548Y-1.2555
X10.5551Y-2.3341
X10.5553Y-1.491
X10.5553Y-2.9126
X10.5557Y-4.4276
X10.5561Y-1.8722
X10.5561Y-3.6891
X10.5568Y-0.9527
X10.5572Y-0.6295
X10.5573Y-3.4133
X10.5575Y-2.6768
X10.5594Y-2.5096
X10.5596Y-1.7978
X10.5616Y-3.0381
X10.5619Y-4.364
X10.5623Y-3.6087
X10.5624Y-3.1121
X10.563Y-3.8232
X10.5636Y-4.4949
X10.5636Y-2.2675
X10.5637Y-2.8458
X10.5821Y-2.8722
X10.5826Y-3.0863
X10.5828Y-1.2275
X10.5836Y-0.0271
X10.5839Y-0.6594
X10.5842Y-0.5579
X10.585Y-0.9349
X10.5852Y-2.9458
X10.5855Y-4.2875
X10.5859Y-0.2256
X10.5867Y-3.3884
X10.5867Y-2.3653
X10.5867Y-4.4616
X10.5869Y-1.5268
X10.588Y-2.6452
X10.5882Y-4.3858
X10.5883Y-2.3126
X10.5884Y-4.2152
X10.5885Y-2.7073
X10.5891Y-3.0192
X10.5901Y-0.1498
X10.5903Y-2.533
X10.5904Y-3.5236
X10.5915Y-3.4568
X10.5918Y-4.6584
X10.5919Y-2.7791
X10.5921Y-1.1633
X10.5929Y-1.9074
X10.5929Y-3.7772
X10.5933Y-3.8466
X10.5937Y-1.4678
X10.594Y-2.2422
X10.5941Y-3.7138
X10.5942Y-4.5251
X10.5946Y-3.1444
X10.5959Y-4.5969
X10.5961Y-1.8325
X10.5963Y-3.313
X10.5967Y-3.917
X10.6147Y-2.2085
X10.6149Y-1.5639
X10.6151Y-0.5215
X10.6153Y-2.5762
X10.6156Y-3.8224
X10.6167Y-0.1819
X10.6171Y-3.7573
X10.6183Y-4.3304
X10.6187Y-3.2808
X10.6189Y-1.8081
X10.6205Y-2.6834
X10.6211Y-4.494
X10.6219Y-1.1274
X10.6221Y-2.9737
X10.6222Y-2.3318
X10.6224Y-1.4963
X10.6225Y-2.5033
X10.6231Y-0.8901
X10.6244Y-2.9079
X10.625Y-1.2566
X10.6256Y-3.4213
X10.6258Y-4.2594
X10.6263Y-0.5979
X10.6265Y-2.7454
X10.6266Y-1.8654
X10.6271Y-2.2748
X10.6275Y-3.3448
X10.6287Y-2.4093
X10.6302Y-4.4296
X10.6304Y-1.194
X10.6309Y-2.8054
X10.6479Y-2.5419
X10.6499Y-0.5654
X10.6502Y-0.6219
X10.6512Y-1.1569
X10.652Y-4.2298
X10.652Y-2.3098
X10.6557Y-2.7072
X10.6569Y-1.2929
X10.6577Y-1.8945
X10.6578Y-1.8383
X10.658Y-2.3778
X10.658Y-0.0229
X10.6612Y-1.465
X10.6616Y-1.5399
X10.6622Y-1.2345
X10.6636Y-1.5942
X10.6638Y-3.7775
X10.6644Y-2.6066
X10.6645Y-3.7112
X10.6646Y-1.0997
X10.683Y-2.509
X10.6844Y-0.6605
X10.6847Y-2.3423
X10.6853Y-2.2733
X10.686Y-1.1344
X10.6865Y-1.3975
X10.6867Y-1.1948
X10.6882Y-2.6468
X10.6888Y-1.2551
X10.689Y-1.8678
X10.6897Y-2.4138
X10.6903Y-1.3299
X10.6904Y-0.5177
X10.6904Y-1.9378
X10.6912Y-1.0555
X10.6928Y-3.7521
X10.6932Y-1.6296
X10.6944Y-2.5818
X10.695Y-0.0529
X10.6954Y-0.5937
X10.6963Y-1.5008
X10.6979Y-1.571
X10.7151Y-2.374
X10.7152Y-1.2348
X10.7166Y-1.0996
X10.7167Y-1.0331
X10.7172Y-4.6184
X10.7178Y-3.791
X10.7181Y-4.5619
X10.7185Y-0.6296
X10.7199Y-1.1675
X10.7199Y-0.555
X10.7201Y-3.7207
X10.7203Y-1.294
X10.7211Y-0.4976
X10.7211Y-1.5942
X10.7221Y-2.615
X10.7226Y-2.6676
X10.7232Y-1.3647
X10.7234Y-1.9771
X10.7235Y-2.3119
X10.7241Y-2.9787
X10.7252Y-4.4845
X10.7261Y-3.1139
X10.7263Y-1.6651
X10.7267Y-2.54
X10.7268Y-1.5383
X10.7288Y-3.0445
X10.7289Y-1.9049
X10.7316Y-1.4284
X10.7492Y-2.5712
X10.7504Y-0.9957
X10.7514Y-1.3363
X10.7515Y-2.338
X10.7522Y-4.6662
X10.7522Y-2.6492
X10.7524Y-2.2682
X10.7531Y-1.2042
X10.7546Y-1.1284
X10.7552Y-3.0174
X10.7557Y-3.7538
X10.7557Y-1.5712
X10.756Y-1.6405
X10.7566Y-0.5883
X10.7575Y-3.0727
X10.7579Y-1.4051
X10.758Y-2.4028
X10.761Y-1.4668
X10.7614Y-0.2889
X10.7616Y-1.27
X10.7633Y-4.5301
X10.7635Y-0.5302
X10.7638Y-2.5103
X10.7644Y-4.5912
X10.7645Y-0.4643
X10.7648Y-0.657
X10.7655Y-1.0669
X10.7848Y-4.4914
X10.7851Y-2.6083
X10.7851Y-4.6201
X10.7859Y-2.2989
X10.787Y-0.489
X10.7874Y-1.2944
X10.7874Y-3.7805
X10.7877Y-1.4906
X10.7881Y-1.5951
X10.7886Y-2.9764
X10.7896Y-1.3681
X10.7902Y-2.5331
X10.7906Y-0.9675
X10.7906Y-1.4371
X10.7923Y-1.0278
X10.7924Y-3.2149
X10.7932Y-0.6161
X10.794Y-3.0488
X10.7943Y-2.6802
X10.7944Y-1.1593
X10.7945Y-1.0919
X10.797Y-0.5527
X10.7977Y-1.2306
X10.7979Y-4.5616
X10.7985Y-2.371
X10.8163Y-1.3277
X10.8165Y-0.1887
X10.8176Y-1.464
X10.818Y-2.4027
X10.8181Y-0.5855
X10.8188Y-2.5118
X10.819Y-0.5221
X10.8197Y-1.7643
X10.8199Y-4.6568
X10.8203Y-0.079
X10.8209Y-0.2601
X10.8211Y-0.926
X10.8219Y-0.6548
X10.823Y-0.9876
X10.8232Y-1.0548
X10.8244Y-3.4815
X10.8245Y-1.202
X10.825Y-3.8197
X10.825Y-1.3984
X10.8255Y-4.5947
X10.826Y-1.2677
X10.8266Y-1.1331
X10.8289Y-1.5402
X10.8294Y-4.5265
X10.8318Y-3.0126
X10.8503Y-4.6302
X10.8506Y-0.6191
X10.8525Y-1.0303
X10.8533Y-0.1151
X10.8534Y-0.8975
X10.8536Y-1.2232
X10.8539Y-0.491
X10.8577Y-1.5062
X10.8586Y-1.0989
X10.861Y-1.565
X10.8625Y-1.7948
X10.8635Y-0.2227
X10.864Y-1.156
X10.8648Y-0.556
X10.8651Y-0.9566
X10.8654Y-4.5649
X10.8655Y-3.7859
X10.8832Y-3.9208
X10.8857Y-0.0946
X10.886Y-1.1983
X10.8865Y-4.5854
X10.8867Y-0.5302
X10.8874Y-1.5277
X10.8877Y-4.6548
X10.8881Y-0.9986
X10.8882Y-3.0048
X10.8899Y-1.7267
X10.8913Y-1.0619
X10.8926Y-0.45
X10.8928Y-2.0361
X10.8952Y-0.6505
X10.8958Y-4.5329
X10.8959Y-0.5847
X10.8963Y-0.1565
X10.8967Y-0.2629
X10.8973Y-0.9278
X10.8981Y-1.1334
X10.8987Y-2.2436
X10.918Y-0.63
X10.918Y-1.4672
X10.9189Y-4.6305
X10.9191Y-0.1142
X10.9202Y-0.2823
X10.9223Y-0.9606
X10.9224Y-3.7514
X10.9241Y-4.5643
X10.9245Y-0.5572
X10.9247Y-2.2738
X10.9259Y-0.1835
X10.9271Y-0.4227
X10.9274Y-0.3557
X10.9278Y-1.8424
X10.9284Y-0.9011
X10.9303Y-0.4886
X10.9513Y-0.33
X10.9515Y-0.0791
X10.9519Y-0.9337
X10.9523Y-2.2988
X10.9527Y-0.5264
X10.9532Y-0.3813
X10.9545Y-3.7867
X10.9577Y-0.4556
X10.9579Y-3.0192
X10.9602Y-2.009
X10.9613Y-1.4936
X10.9616Y-4.5973
X10.962Y-4.5238
X10.9628Y-1.9319
X10.9633Y-0.6633
X10.9634Y-0.1532
X10.9634Y-0.5952
X10.9637Y-4.6631
X10.9642Y-1.8683
X10.9646Y-0.2276
X10.9662Y-2.2463
X10.9847Y-1.9776
X10.9849Y-0.6179
X10.985Y-0.496
X10.9859Y-0.1873
X10.9861Y-4.629
X10.9869Y-0.2553
X10.9875Y-2.2794
X10.9883Y-4.5636
X10.9885Y-0.8892
X10.991Y-0.4288
X10.9913Y-2.3412
X10.9918Y-3.9111
X10.9923Y-0.5597
X10.9951Y-0.355
X10.9952Y-0.9618
X10.9965Y-3.7206
X10.9967Y-1.8958
X10.997Y-0.1139
X11.0002Y-1.4677
X11.0177Y-4.6562
X11.0178Y-0.6546
X11.0187Y-3.951
X11.0189Y-3.8933
X11.0194Y-0.5891
X11.0195Y-0.5213
X11.0197Y-2.2022
X11.0207Y-4.5835
X11.021Y-0.4548
X11.0224Y-0.1507
X11.0225Y-0.2835
X11.0229Y-0.9286
X11.0232Y-0.3971
X11.0237Y-3.747
X11.024Y-1.9416
X11.0246Y-1.4975
X11.0259Y-2.3741
X11.0282Y-0.09
X11.0292Y-4.0128
X11.0309Y-1.8317
X11.031Y-2.3008
X11.0311Y-4.5183
X11.0331Y-0.2184
X11.0337Y-2.0078
X11.0521Y-2.0295
X11.053Y-0.1945
X11.055Y-1.8633
X11.0555Y-2.0976
X11.0568Y-0.486
X11.0573Y-0.3294
X11.0582Y-2.4086
X11.0587Y-0.9005
X11.0598Y-2.3371
X11.0611Y-0.4273
X11.0625Y-4.6218
X11.0625Y-0.9662
X11.0629Y-2.1736
X11.0632Y-2.2437
X11.0632Y-4.5578
X11.0643Y-1.9613
X11.0649Y-3.7124
X11.0662Y-0.1207
X11.0662Y-3.9246
X11.0664Y-3.9879
X11.0664Y-0.2498
X11.0678Y-4.4879
X11.0854Y-2.2739
X11.0855Y-2.7834
X11.0863Y-4.5291
X11.0863Y-2.2094
X11.0869Y-4.0209
X11.0871Y-2.1394
X11.089Y-3.376
X11.0894Y-0.1559
X11.0897Y-0.9277
X11.091Y-3.3218
X11.0927Y-0.2285
X11.0942Y-2.5408
X11.0943Y-2.0754
X11.0954Y-3.8457
X11.0972Y-2.9843
X11.0995Y-1.2264
X11.1003Y-1.9085
X11.1005Y-2.3764
X11.1006Y-1.8425
X11.1007Y-3.9541
X11.1009Y-1.998
X11.1014Y-0.093
X11.119Y-0.1822
X11.1219Y-2.24
X11.1222Y-3.0189
X11.1235Y-2.1088
X11.1236Y-3.3555
X11.1238Y-2.4032
X11.1239Y-1.9397
X11.125Y-2.3114
X11.1251Y-3.8155
X11.1283Y-2.5084
X11.1285Y-0.9647
X11.1303Y-2.1774
X11.1307Y-0.1228
X11.1317Y-3.8886
X11.1324Y-2.0384
X11.1328Y-3.2735
X11.133Y-2.5718
X11.1345Y-1.8657
X11.1348Y-0.8931
X11.135Y-3.99
X11.1525Y-0.9973
X11.154Y-2.9841
X11.1557Y-0.4854
X11.1561Y-2.1442
X11.1571Y-3.918
X11.1578Y-1.9714
X11.1593Y-2.544
X11.1593Y-1.8957
X11.1594Y-3.7797
X11.1594Y-0.1544
X11.16Y-0.6201
X11.16Y-2.0716
X11.1602Y-1.7708
X11.1605Y-1.8285
X11.1605Y-1.5371
X11.1608Y-2.6152
X11.1611Y-0.0892
X11.1613Y-0.5549
X11.1614Y-2.3448
X11.1619Y-3.3807
X11.1622Y-3.3071
X11.1629Y-3.8556
X11.1631Y-2.209
X11.1631Y-2.7777
X11.1651Y-2.6744
X11.1663Y-1.0649
X11.1681Y-2.2707
X11.1686Y-0.9277
X11.1864Y-1.8741
X11.1872Y-2.0109
X11.1889Y-2.5696
X11.189Y-0.9658
X11.189Y-3.2797
X11.1891Y-0.6526
X11.1896Y-0.8927
X11.1911Y-3.3402
X11.1921Y-0.519
X11.1928Y-2.3732
X11.193Y-0.1241
X11.1931Y-3.1485
X11.1932Y-3.488
X11.1934Y-0.587
X11.1936Y-2.3027
X11.1936Y-1.0288
X11.1939Y-3.8855
X11.1948Y-2.6373
X11.1952Y-2.178
X11.1955Y-1.9413
X11.1969Y-2.0957
X11.1971Y-2.2411
X11.1972Y-3.9544
X11.1977Y-2.5085
X11.1992Y-1.7998
X11.2019Y-3.8124
X11.2207Y-0.1604
X11.2211Y-3.9212
X11.2212Y-0.4885
X11.224Y-1.0573
X11.2242Y-0.5509
X11.2248Y-0.6274
X11.2261Y-3.7884
X11.2263Y-2.6102
X11.2265Y-2.2123
X11.2268Y-1.8426
X11.2269Y-0.0808
X11.2272Y-3.3089
X11.2281Y-2.5373
X11.2285Y-2.2718
X11.2296Y-1.7637
X11.2304Y-2.0399
X11.2313Y-1.9675
X11.2333Y-3.1152
X11.2336Y-2.1423
X11.2337Y-0.988
X11.2339Y-2.3346
X11.2349Y-0.9224
X11.2355Y-1.9071
X11.2359Y-3.8547
X11.2359Y-2.3994
X11.2532Y-0.9686
X11.2539Y-3.2778
X11.2563Y-2.0694
X11.2566Y-2.5049
X11.2572Y-1.5033
X11.2583Y-2.3748
X11.2592Y-1.0349
X11.2596Y-3.953
X11.2597Y-3.8262
X11.2599Y-2.0027
X11.2616Y-0.1253
X11.2616Y-1.9307
X11.262Y-1.8745
X11.2625Y-3.0727
X11.2629Y-2.1773
X11.263Y-0.5858
X11.2639Y-0.665
X11.265Y-2.5711
X11.2652Y-2.3012
X11.266Y-0.526
X11.2668Y-2.2338
X11.2677Y-1.7979
X11.2679Y-0.891
X11.2686Y-2.6403
X11.2688Y-3.8857
X11.269Y-3.1404
X11.2875Y-2.5398
X11.2876Y-0.6274
X11.2899Y-0.5642
X11.2912Y-0.1594
X11.2919Y-4.1262
X11.2944Y-0.0818
X11.2949Y-1.5273
X11.2958Y-1.6066
X11.2962Y-0.9877
X11.2967Y-3.3223
X11.2968Y-1.0584
X11.2972Y-2.3988
X11.2972Y-1.8401
X11.2984Y-3.1152
X11.2988Y-4.3581
X11.2989Y-2.6123
X11.2998Y-0.9203
X11.301Y-3.0414
X11.3022Y-1.6594
X11.3032Y-0.8639
X11.3032Y-4.4203
X11.3034Y-1.7649
X11.3034Y-1.9078
X11.3221Y-2.5145
X11.3227Y-3.279
X11.3242Y-0.9545
X11.3248Y-1.8754
X11.3255Y-3.0751
X11.3256Y-4.4562
X11.3266Y-3.1422
X11.3288Y-0.8995
X11.3289Y-1.5697
X11.3291Y-4.1529
X11.3293Y-0.1204
X11.3303Y-1.6312
X11.3307Y-1.0309
X11.3312Y-0.8187
X11.3317Y-0.1811
X11.3317Y-0.5862
X11.3323Y-2.5811
X11.3331Y-4.3848
X11.3341Y-1.1022
X11.3356Y-0.5269
X11.3364Y-1.4986
X11.3368Y-1.8048
X11.3542Y-0.6215
X11.3543Y-2.23
X11.3579Y-2.1774
X11.358Y-1.5293
X11.3601Y-4.4841
X11.3602Y-1.1243
X11.3604Y-3.3122
X11.3609Y-4.4201
X11.3612Y-0.7909
X11.3612Y-1.7672
X11.3613Y-0.5496
X11.3622Y-0.9252
X11.3623Y-1.842
X11.3635Y-0.9875
X11.3642Y-0.0853
X11.3646Y-3.7889
X11.3652Y-1.6028
X11.3652Y-4.1881
X11.3661Y-3.9114
X11.3673Y-1.06
X11.3674Y-2.534
X11.3686Y-0.1493
X11.37Y-0.2272
X11.3703Y-3.847
X11.3703Y-3.7151
X11.3703Y-0.8515
X11.3707Y-3.1179
X11.3889Y-4.1613
X11.389Y-1.0322
X11.389Y-0.9624
X11.3896Y-2.703
X11.3903Y-0.5288
X11.3913Y-3.5219
X11.3922Y-3.8173
X11.3937Y-2.266
X11.3946Y-1.5656
X11.3959Y-1.4995
X11.3961Y-0.825
X11.3972Y-1.098
X11.3998Y-0.8885
X11.4Y-3.8786
X11.4004Y-3.2754
X11.4007Y-1.808
X11.4009Y-0.5958
X11.4018Y-3.7535
X11.4021Y-2.2023
X11.4033Y-3.9602
X11.4041Y-3.1457
X11.4218Y-1.0592
X11.4223Y-0.852
X11.4228Y-1.7382
X11.4228Y-3.4524
X11.4229Y-0.9227
X11.4229Y-0.7579
X11.4248Y-3.3167
X11.425Y-0.9898
X11.4259Y-3.9274
X11.4264Y-3.9824
X11.4264Y-1.1309
X11.4307Y-3.7137
X11.4331Y-3.1156
X11.4336Y-3.3891
X11.4341Y-3.8469
X11.435Y-2.2422
X11.436Y-1.534
X11.4369Y-3.7866
X11.4378Y-0.5555
X11.4553Y-3.951
X11.4565Y-2.4054
X11.4577Y-3.3421
X11.4582Y-3.8111
X11.4589Y-3.4755
X11.4607Y-1.226
X11.4608Y-0.8858
X11.4609Y-3.7531
X11.4621Y-1.7031
X11.4622Y-3.8814
X11.4623Y-1.0324
X11.4626Y-0.7981
X11.4646Y-0.96
X11.4663Y-3.4148
X11.4686Y-1.0912
X11.4703Y-3.1476
X11.4709Y-3.2818
X11.4885Y-3.5203
X11.4887Y-0.9989
X11.4889Y-1.6688
X11.4891Y-3.7136
X11.49Y-3.4512
X11.4901Y-1.1336
X11.4926Y-2.3809
X11.4936Y-3.3769
X11.4949Y-2.437
X11.5003Y-3.7838
X11.5007Y-1.863
X11.5019Y-0.7668
X11.5033Y-3.1134
X11.5033Y-0.8221
X11.5034Y-3.3115
X11.5042Y-0.9257
X11.5042Y-1.0565
X11.5222Y-0.7934
X11.5229Y-3.5445
X11.524Y-3.4841
X11.5244Y-3.2889
X11.5251Y-0.9571
X11.5258Y-2.7725
X11.5265Y-2.3369
X11.5267Y-0.6298
X11.5279Y-3.3429
X11.5302Y-0.4839
X11.5305Y-0.562
X11.5306Y-4.5212
X11.5312Y-3.4131
X11.5324Y-1.8961
X11.5332Y-1.8344
X11.5341Y-1.6407
X11.5346Y-3.1429
X11.5369Y-1.0264
X11.5377Y-0.8669
X11.538Y-2.4031
X11.5578Y-3.3128
X11.5588Y-0.0914
X11.559Y-0.5941
X11.5594Y-0.6595
X11.5607Y-1.8674
X11.5629Y-0.2468
X11.5662Y-0.5162
X11.5664Y-3.3753
X11.5664Y-2.3719
X11.5679Y-2.304
X11.5682Y-3.0785
X11.5691Y-3.449
X11.5708Y-3.5232
X11.5711Y-2.5381
X11.5899Y-4.3573
X11.5902Y-4.4865
X11.5911Y-1.9093
X11.592Y-0.6215
X11.592Y-3.4859
X11.5933Y-0.1144
X11.5936Y-3.1107
X11.5957Y-1.8406
X11.5957Y-3.0411
X11.5961Y-2.5662
X11.597Y-2.513
X11.5987Y-2.3465
X11.5996Y-4.4216
X11.6003Y-3.78
X11.6011Y-2.2713
X11.602Y-3.7232
X11.6029Y-0.5518
X11.6033Y-0.4857
X11.6042Y-4.1288
X11.6046Y-2.9735
X11.6046Y-0.1809
X11.6234Y-1.8731
X11.6235Y-2.6063
X11.6235Y-0.5943
X11.6238Y-3.0163
X11.6244Y-0.0831
X11.626Y-2.5424
X11.626Y-0.227
X11.6264Y-4.396
X11.627Y-2.3066
X11.6272Y-4.1568
X11.6281Y-3.0776
X11.6291Y-0.5226
X11.6302Y-0.2959
X11.6303Y-4.4549
X11.6326Y-2.4813
X11.6351Y-0.1538
X11.6362Y-2.6732
X11.6382Y-4.5216
X11.6393Y-3.7584
X11.6393Y-1.9401
X11.6573Y-3.0422
X11.6575Y-4.6247
X11.6576Y-2.703
X11.6577Y-4.4293
X11.6577Y-2.3355
X11.6581Y-0.1238
X11.6589Y-0.5648
X11.6589Y-0.8602
X11.6594Y-0.3817
X11.6611Y-1.9061
X11.6617Y-0.1898
X11.662Y-0.9265
X11.6638Y-4.4944
X11.6649Y-2.9855
X11.665Y-4.1947
X11.6651Y-1.9681
X11.6657Y-0.255
X11.6658Y-0.7893
X11.6668Y-4.1167
X11.6681Y-4.5577
X11.6682Y-0.3194
X11.6682Y-1.0019
X11.6695Y-2.2718
X11.6705Y-0.4485
X11.6708Y-3.7237
X11.6713Y-3.788
X11.672Y-2.6466
X11.6728Y-1.0655
X11.6904Y-4.1587
X11.6906Y-0.8199
X11.6908Y-3.2086
X11.6916Y-0.4202
X11.692Y-0.1488
X11.6929Y-0.4937
X11.6939Y-4.5255
X11.6947Y-1.0197
X11.6952Y-3.008
X11.6954Y-4.8262
X11.6955Y-4.2209
X11.6959Y-3.7459
X11.6976Y-4.7273
X11.6983Y-1.0979
X11.6987Y-0.2164
X11.6993Y-4.6577
X11.6997Y-0.8924
X11.7002Y-2.9506
X11.7006Y-0.2873
X11.7012Y-0.9632
X11.7013Y-0.0914
X11.7016Y-0.3557
X11.7019Y-0.7651
X11.7043Y-4.5946
X11.7045Y-4.4642
X11.7049Y-2.8136
X11.7058Y-2.8772
X11.7249Y-0.1893
X11.725Y-0.5234
X11.7269Y-3.1718
X11.7271Y-0.3174
X11.7273Y-4.1166
X11.7284Y-0.2626
X11.7303Y-0.99
X11.7304Y-0.3847
X11.7317Y-3.7774
X11.7323Y-4.4979
X11.733Y-0.4575
X11.734Y-1.0573
X11.7342Y-2.9025
X11.7361Y-2.9763
X11.7371Y-0.9294
X11.7377Y-4.6957
X11.7381Y-1.1258
X11.7383Y-4.562
X11.7385Y-3.7121
X11.7385Y-4.196
X11.7388Y-0.1276
X11.7392Y-4.6313
X11.7392Y-2.838
X11.7393Y-0.862
X11.7401Y-0.7906
X11.7577Y-2.8124
X11.7579Y-0.8897
X11.7606Y-3.7559
X11.7606Y-1.7653
X11.7609Y-4.5292
X11.7612Y-0.1562
X11.7617Y-0.4865
X11.7619Y-0.3549
X11.765Y-1.1642
X11.7651Y-0.7519
X11.7652Y-3.8152
X11.7652Y-0.4269
X11.7655Y-1.0306
X11.7658Y-1.0961
X11.7673Y-2.9409
X11.7685Y-4.8332
X11.769Y-4.1489
X11.7699Y-0.2291
X11.77Y-4.2266
X11.7712Y-0.2927
X11.7717Y-2.8715
X11.7728Y-0.8254
X11.7732Y-1.6254
X11.7738Y-0.9662
X11.7739Y-0.0947
X11.791Y-1.8033
X11.7914Y-1.6638
X11.7917Y-0.3966
X11.7933Y-4.4885
X11.7937Y-0.1826
X11.7941Y-3.421
X11.7956Y-4.3562
X11.797Y-4.1819
X11.7978Y-0.999
X11.7984Y-2.9126
X11.7985Y-1.0595
X11.7989Y-0.3152
X11.7995Y-0.6259
X11.8006Y-0.795
X11.8009Y-0.4599
X11.8013Y-0.8604
X11.8019Y-0.9326
X11.8026Y-0.1211
X11.8042Y-4.1153
X11.8048Y-3.7883
X11.8069Y-2.8437
X11.8072Y-0.2587
X11.8251Y-3.3479
X11.8253Y-0.4167
X11.8267Y-0.3552
X11.8283Y-0.8227
X11.8295Y-3.8826
X11.8298Y-3.9563
X11.8306Y-0.2185
X11.8314Y-0.0912
X11.8316Y-4.2206
X11.832Y-0.1588
X11.8321Y-0.294
X11.8338Y-1.0363
X11.8339Y-3.8115
X11.8356Y-0.6582
X11.8361Y-0.7619
X11.8363Y-4.826
X11.8364Y-0.9671
X11.8369Y-2.8794
X11.8378Y-3.4486
X11.8402Y-0.8992
X11.8413Y-0.5962
X11.8413Y-2.8075
X11.8589Y-2.8507
X11.8602Y-0.8679
X11.861Y-0.3848
X11.861Y-0.5503
X11.8622Y-3.0398
X11.8629Y-4.7334
X11.863Y-0.6284
X11.863Y-2.2435
X11.8634Y-3.4797
X11.8665Y-4.3509
X11.8685Y-3.3811
X11.8688Y-0.9979
X11.8709Y-0.3229
X11.8717Y-0.9245
X11.8717Y-0.2546
X11.8734Y-0.1238
X11.874Y-1.8328
X11.8741Y-0.1803
X11.8742Y-0.7856
X11.8743Y-3.7811
X11.8928Y-0.3478
X11.8934Y-0.1456
X11.8943Y-1.8738
X11.8959Y-1.9334
X11.8968Y-0.2246
X11.8985Y-0.2955
X11.8997Y-0.7558
X11.9013Y-0.5922
X11.9013Y-4.8207
X11.9014Y-0.9611
X11.9016Y-0.0922
X11.9025Y-3.0133
X11.9034Y-0.5272
X11.9043Y-0.889
X11.9068Y-2.7761
X11.9069Y-0.8335
X11.9076Y-0.6581
X11.9081Y-4.226
X11.9257Y-0.8002
X11.926Y-4.7237
X11.9269Y-0.8514
X11.9272Y-0.4864
X11.9273Y-1.9076
X11.9285Y-0.1883
X11.9288Y-0.5606
X11.929Y-0.2541
X11.9296Y-2.8043
X11.9308Y-2.9725
X11.9325Y-0.6273
X11.9329Y-0.3223
X11.9345Y-3.0377
X11.9358Y-0.9334
X11.9374Y-4.3549
X11.9378Y-1.9636
X11.9381Y-2.4753
X11.9384Y-2.7404
X11.9416Y-2.2409
X11.9421Y-0.1266
X11.9611Y-4.1886
X11.962Y-1.573
X11.9626Y-1.8405
X11.9633Y-0.5292
X11.9644Y-4.1243
X11.9656Y-0.1589
X11.9662Y-2.7073
X11.9671Y-0.2923
X11.9673Y-0.2188
X11.9674Y-0.8865
X11.968Y-0.9625
X11.9685Y-1.228
X11.9686Y-4.8323
X11.9691Y-0.6641
X11.9694Y-3.9783
X11.9694Y-0.7507
X11.9703Y-0.5955
X11.9705Y-2.7684
X11.9729Y-3.0722
X11.9736Y-0.0816
X11.9743Y-0.8237
X11.9757Y-0.45
X11.9938Y-0.6178
X11.9942Y-0.4839
X11.9943Y-3.1126
X11.9981Y-0.1894
X11.9988Y-3.2742
X11.9994Y-0.1118
X11.9997Y-0.8682
X12.0005Y-4.1478
X12.0022Y-2.7378
X12.0023Y-0.4244
X12.0023Y-4.2257
X12.0032Y-0.55
X12.0038Y-1.8614
X12.0044Y-0.7919
X12.005Y-4.7218
X12.0071Y-4.3612
X12.0073Y-0.2572
X12.0083Y-4.0191
X12.0087Y-0.9234
X12.0087Y-1.4595
X12.0265Y-2.7092
X12.0267Y-2.4325
X12.0269Y-2.2436
X12.0271Y-3.2067
X12.028Y-1.8425
X12.0281Y-0.7596
X12.029Y-0.9544
X12.0301Y-0.3924
X12.0304Y-2.3034
X12.0324Y-0.8227
X12.0327Y-1.5723
X12.033Y-4.8313
X12.0339Y-0.6562
X12.0342Y-0.1558
X12.0343Y-2.1679
X12.0343Y-0.8922
X12.0346Y-0.4491
X12.0364Y-0.53
X12.037Y-0.2203
X12.0371Y-0.0948
X12.0372Y-1.2273
X12.0377Y-0.5936
X12.0381Y-2.7688
X12.0382Y-1.3906
X12.0384Y-1.8992
X12.0396Y-3.1382
X12.04Y-4.1287
X12.0405Y-2.3808
X12.0407Y-1.3296
X12.0407Y-4.1855
X12.0635Y-0.8669
X12.0647Y-0.791
X12.065Y-1.4274
X12.0658Y-3.1788
X12.066Y-3.1155
X12.0662Y-0.1865
X12.0664Y-2.3987
X12.0672Y-0.1118
X12.0678Y-2.2049
X12.0681Y-2.3324
X12.0695Y-2.4704
X12.0699Y-4.0274
X12.07Y-0.9249
X12.0707Y-1.3692
X12.0711Y-0.9906
X12.0731Y-2.7441
X12.0738Y-3.2527
X12.074Y-1.861
X12.0745Y-1.1897
X12.0757Y-4.1517
X12.076Y-2.2689
X12.0937Y-1.8296
X12.094Y-0.1617
X12.0944Y-2.5035
X12.0954Y-3.7139
X12.0958Y-4.1276
X12.0961Y-1.337
X12.0971Y-1.0888
X12.0974Y-2.1719
X12.0984Y-3.2136
X12.0986Y-1.5732
X12.099Y-2.3079
X12.0993Y-2.5738
X12.0999Y-2.7693
X12.1002Y-0.8957
X12.1009Y-0.9625
X12.101Y-0.081
X12.1016Y-1.626
X12.1021Y-4.8311
X12.1021Y-1.031
X12.1022Y-2.2408
X12.1035Y-2.3712
X12.1037Y-3.3783
X12.1039Y-3.4462
X12.104Y-1.1667
X12.104Y-1.4021
X12.1062Y-1.8956
X12.1064Y-2.4474
X12.1065Y-1.4716
X12.1069Y-1.2329
X12.1071Y-1.6973
X12.1093Y-0.8334
X12.1102Y-3.1405
X12.1273Y-3.4756
X12.1284Y-1.199
X12.1284Y-2.6119
X12.1286Y-4.0152
X12.1288Y-3.0746
X12.1301Y-3.4218
X12.1308Y-0.1279
X12.1311Y-3.3401
X12.1314Y-1.3569
X12.132Y-2.2772
X12.1322Y-1.1225
X12.1325Y-1.668
X12.1329Y-0.799
X12.1342Y-1.6012
X12.1346Y-0.8657
X12.1361Y-1.876
X12.1369Y-3.1793
X12.1375Y-1.4307
X12.1376Y-2.2042
X12.1382Y-2.468
X12.1383Y-2.5479
X12.139Y-2.3446
X12.1403Y-2.142
X12.1406Y-0.922
X12.1409Y-1.0648
X12.1425Y-1.738
X12.143Y-4.1547
X12.1436Y-0.9962
X12.1436Y-2.4031
X12.1608Y-4.1967
X12.1612Y-1.1561
X12.1614Y-2.5772
X12.1629Y-1.974
X12.1633Y-3.3852
X12.1633Y-2.3703
X12.1641Y-3.5191
X12.1652Y-3.3175
X12.1659Y-0.9608
X12.1665Y-2.1755
X12.1672Y-1.3321
X12.1673Y-1.5741
X12.1687Y-1.396
X12.169Y-1.8942
X12.1695Y-1.0331
X12.1702Y-3.4406
X12.1705Y-0.9006
X12.1706Y-2.5003
X12.171Y-2.2354
X12.1717Y-0.0887
X12.172Y-1.6924
X12.1721Y-2.6346
X12.1726Y-2.1058
X12.1733Y-0.7645
X12.1735Y-1.0879
X12.1735Y-0.5517
X12.1741Y-1.2336
X12.1742Y-0.8231
X12.1746Y-1.8412
X12.1753Y-4.1256
X12.1761Y-1.4597
X12.1765Y-0.4923
X12.1767Y-2.4481
X12.1769Y-0.6326
X12.1774Y-1.6375
X12.1775Y-2.3003
X12.1946Y-2.0649
X12.1949Y-2.2097
X12.195Y-3.2835
X12.1959Y-4.1596
X12.1971Y-1.064
X12.1974Y-0.9241
X12.198Y-1.1266
X12.1987Y-0.1127
X12.1987Y-3.4192
X12.199Y-0.6589
X12.199Y-1.1937
X12.1992Y-2.6694
X12.1995Y-0.5172
X12.1999Y-1.6734
X12.2Y-0.8622
X12.2001Y-3.5431
X12.2003Y-0.5908
X12.2021Y-4.0227
X12.2023Y-2.6082
X12.2023Y-2.3378
X12.2026Y-1.4324
X12.2037Y-2.0083
X12.205Y-3.3407
X12.2056Y-2.2753
X12.2059Y-3.4815
X12.2065Y-1.9356
X12.2065Y-1.6006
X12.2076Y-2.4065
X12.2077Y-1.8683
X12.2088Y-2.4707
X12.2094Y-2.1295
X12.2098Y-4.2253
X12.2103Y-0.7904
X12.2106Y-1.7285
X12.2107Y-1.3641
X12.2109Y-0.9966
X12.2111Y-2.5491
X12.2282Y-1.2332
X12.2282Y-4.182
X12.2286Y-2.5679
X12.23Y-3.3754
X12.2303Y-0.0805
X12.2305Y-3.5106
X12.2309Y-3.993
X12.2312Y-1.3311
X12.2314Y-1.8406
X12.2314Y-3.2493
X12.2319Y-1.3967
X12.2321Y-4.1239
X12.2322Y-0.5548
X12.2332Y-1.6307
X12.234Y-1.9033
X12.2343Y-0.8287
X12.2344Y-2.435
X12.2351Y-2.3692
X12.2353Y-0.492
X12.2357Y-2.6424
X12.2358Y-1.9723
X12.236Y-2.5075
X12.2363Y-2.2378
X12.2372Y-1.5701
X12.239Y-2.7128
X12.2396Y-2.1628
X12.2397Y-0.6223
X12.2397Y-1.0914
X12.2401Y-2.3046
X12.2404Y-0.7608
X12.2408Y-3.3152
X12.241Y-3.4557
X12.2413Y-1.1597
X12.2418Y-2.1081
X12.242Y-2.0332
X12.2422Y-1.0273
X12.2422Y-0.8921
X12.2429Y-0.9686
X12.2431Y-1.6929
X12.2434Y-1.4674
X12.2622Y-1.4301
X12.2622Y-2.9801
X12.2632Y-4.0209
X12.264Y-2.7392
X12.2649Y-0.1152
X12.265Y-3.4898
X12.265Y-2.0653
X12.2655Y-3.5547
X12.2659Y-3.1205
X12.2661Y-1.598
X12.2662Y-2.1351
X12.2672Y-2.9124
X12.2673Y-2.4762
X12.2673Y-1.2013
X12.2674Y-2.2765
X12.2684Y-4.2255
X12.269Y-1.1321
X12.2696Y-3.4172
X12.2697Y-3.2809
X12.2703Y-0.7958
X12.2706Y-2.5331
X12.2709Y-3.3555
X12.271Y-0.6609
X12.2716Y-1.8621
X12.273Y-2.6005
X12.2737Y-0.5291
X12.2738Y-2.2049
X12.2739Y-2.0095
X12.2739Y-2.68
X12.2744Y-4.1575
X12.2745Y-1.935
X12.2749Y-3.0435
X12.2753Y-0.862
X12.2759Y-3.1787
X12.2763Y-2.4134
X12.2768Y-1.6664
X12.277Y-1.3726
X12.2778Y-0.5974
X12.2779Y-2.3391
X12.2956Y-0.761
X12.2961Y-4.5238
X12.2963Y-1.3336
X12.2994Y-1.2364
X12.2998Y-4.8342
X12.2999Y-0.6264
X12.3001Y-1.469
X12.3005Y-4.1882
X12.301Y-1.4007
X12.3024Y-0.8976
X12.3032Y-4.7255
X12.304Y-0.559
X12.3049Y-0.8322
X12.3078Y-0.0945
X12.3083Y-1.1627
X12.3086Y-4.1286
X12.3087Y-3.9911
X12.33Y-0.5202
X12.3304Y-4.1623
X12.3314Y-1.427
X12.3338Y-4.4294
X12.3344Y-1.1942
X12.3345Y-0.6562
X12.3346Y-4.0155
X12.3346Y-1.1244
X12.336Y-0.2216
X12.3365Y-0.853
X12.3365Y-0.7865
X12.3371Y-4.4937
X12.3377Y-0.1144
X12.338Y-0.5925
X12.3392Y-4.3488
X12.3408Y-1.3646
X12.3423Y-4.8604
X12.3457Y-4.224
X12.3626Y-0.0866
X12.3627Y-4.5191
X12.3633Y-0.9004
X12.3637Y-1.6346
X12.3645Y-3.4546
X12.3648Y-4.4503
X12.3656Y-1.4035
X12.3659Y-1.9648
X12.3662Y-2.4419
X12.3666Y-3.1774
X12.3667Y-2.5004
X12.3668Y-0.5601
X12.3669Y-3.1107
X12.3673Y-2.7123
X12.3675Y-4.1925
X12.3681Y-3.3881
X12.369Y-1.8314
X12.3691Y-3.2467
X12.3698Y-2.9155
X12.3706Y-0.8346
X12.3712Y-2.572
X12.3714Y-2.3096
X12.3716Y-2.2445
X12.3718Y-1.7007
X12.3718Y-2.041
X12.3719Y-1.9027
X12.3722Y-2.1714
X12.3722Y-4.3894
X12.3729Y-2.6401
X12.3745Y-0.7561
X12.3747Y-3.5117
X12.3755Y-0.6311
X12.3757Y-3.0509
X12.376Y-4.8336
X12.3761Y-2.1081
X12.3761Y-3.9908
X12.3769Y-2.7774
X12.3773Y-3.3083
X12.3776Y-4.1278
X12.3785Y-3.588
X12.3788Y-2.9779
X12.379Y-2.3758
X12.3962Y-2.2792
X12.3963Y-1.7391
X12.3964Y-1.671
X12.3965Y-1.9304
X12.3965Y-0.5926
X12.3972Y-4.158
X12.3977Y-3.6235
X12.4Y-4.3577
X12.4003Y-2.6025
X12.4007Y-1.5976
X12.4007Y-2.9509
X12.4007Y-4.5657
X12.4009Y-4.4946
X12.4014Y-0.7868
X12.4017Y-3.4783
X12.4022Y-2.3402
X12.4027Y-2.409
X12.4029Y-2.7461
X12.4035Y-1.8749
X12.4036Y-0.5282
X12.4048Y-2.4735
X12.4062Y-2.1311
X12.4063Y-2.0705
X12.4065Y-3.0785
X12.4071Y-3.355
X12.4073Y-3.0111
X12.4074Y-3.2805
X12.4075Y-4.4223
X12.4078Y-2.0025
X12.4091Y-4.2186
X12.4092Y-2.2064
X12.4093Y-2.6831
X12.4094Y-4.0205
X12.41Y-3.9523
X12.4101Y-3.5415
X12.4103Y-0.6642
X12.4111Y-3.1428
X12.4113Y-2.5469
X12.4115Y-0.8674
X12.4118Y-3.2177
X12.4124Y-3.4203
X12.4299Y-0.8916
X12.4307Y-0.8214
X12.4317Y-2.7064
X12.4322Y-3.5126
X12.4323Y-2.4359
X12.4323Y-2.6494
X12.4326Y-4.5875
X12.433Y-2.1639
X12.4333Y-3.1773
X12.4338Y-4.4622
X12.4352Y-3.1069
X12.436Y-0.6308
X12.4366Y-0.5522
X12.4368Y-2.3684
X12.4369Y-1.6994
X12.4372Y-2.5738
X12.4379Y-3.3773
X12.4389Y-3.6527
X12.4397Y-2.7692
X12.4399Y-4.1958
X12.44Y-3.5876
X12.4405Y-1.6312
X12.4409Y-3.4564
X12.4413Y-2.5133
X12.4418Y-2.2445
X12.4422Y-3.319
X12.4427Y-4.3887
X12.4433Y-0.7623
X12.4436Y-3.2553
X12.4437Y-1.8982
X12.4444Y-1.829
X12.4448Y-4.5194
X12.446Y-2.2997
X12.4652Y-1.7409
X12.4653Y-2.6048
X12.4653Y-0.9341
X12.4662Y-4.2207
X12.4663Y-4.4977
X12.4665Y-0.6631
X12.4674Y-3.3412
X12.4676Y-2.6688
X12.4686Y-3.6148
X12.4688Y-1.872
X12.4688Y-4.4155
X12.47Y-4.5599
X12.4702Y-4.3532
X12.4703Y-0.8542
X12.4709Y-3.679
X12.4716Y-0.7984
X12.472Y-2.4148
X12.473Y-3.2772
X12.4739Y-4.6198
X12.4742Y-0.4938
X12.4745Y-3.5488
X12.475Y-2.2691
X12.4754Y-2.5376
X12.4772Y-3.2131
X12.4776Y-3.1495
X12.4782Y-3.4154
X12.4783Y-1.6597
X12.4788Y-3.4792
X12.479Y-0.5927
X12.479Y-2.343
X12.4792Y-2.7489
X12.4795Y-1.5727
X12.4796Y-2.2017
X12.4797Y-2.4815
X12.4971Y-0.8873
X12.4975Y-4.6855
X12.4986Y-4.8349
X12.499Y-2.7797
X12.4994Y-3.7177
X12.4998Y-3.1078
X12.5006Y-1.3561
X12.5008Y-2.239
X12.5011Y-4.519
X12.5012Y-2.6495
X12.5013Y-3.3746
X12.5016Y-0.8287
X12.5025Y-3.3118
X12.5028Y-1.6968
X12.5029Y-0.7589
X12.5037Y-2.3072
X12.5041Y-2.3808
X12.5042Y-4.462
X12.5049Y-0.6226
X12.5054Y-3.4567
X12.5054Y-0.2892
X12.5059Y-2.1763
X12.5063Y-1.8309
X12.507Y-1.6042
X12.5097Y-3.5108
X12.5098Y-2.5814
X12.5103Y-0.5187
X12.5103Y-0.4539
X12.5104Y-2.7156
X12.5104Y-2.4326
X12.5111Y-3.175
X12.5117Y-3.2461
X12.5117Y-1.4254
X12.5119Y-3.6503
X12.5121Y-4.3828
X12.5126Y-2.512
X12.5137Y-3.5888
X12.5311Y-4.5643
X12.5312Y-3.6773
X12.5313Y-1.5575
X12.532Y-2.2065
X12.5335Y-2.6143
X12.5335Y-4.8636
X12.5351Y-3.6212
X12.5352Y-1.3344
X12.5358Y-2.6807
X12.536Y-1.6362
X12.5361Y-1.3997
X12.5382Y-4.4309
X12.5383Y-0.4881
X12.5389Y-0.6625
X12.5392Y-2.3411
X12.5393Y-3.2125
X12.5393Y-2.7403
X12.5394Y-0.8668
X12.5396Y-3.3501
X12.5401Y-2.2726
X12.5404Y-2.4764
X12.5404Y-3.7574
X12.5404Y-4.3588
X12.5418Y-3.4098
X12.5421Y-2.4012
X12.5425Y-1.8751
X12.5429Y-2.5351
X12.5433Y-3.145
X12.5434Y-3.273
X12.5435Y-3.4774
X12.544Y-0.7962
X12.5442Y-0.5525
X12.5455Y-0.9258
X12.5456Y-1.7345
X12.5459Y-3.5425
X12.5461Y-4.4897
X12.5465Y-1.4651
X12.5645Y-4.52
X12.5652Y-1.8292
X12.5656Y-0.5882
X12.5662Y-1.3706
X12.5664Y-4.4628
X12.5665Y-4.3881
X12.5674Y-2.2315
X12.5676Y-1.6631
X12.5676Y-0.7646
X12.5679Y-0.2484
X12.5685Y-1.5929
X12.5687Y-2.3025
X12.5688Y-0.8961
X12.5693Y-0.0884
X12.5705Y-2.506
X12.5712Y-2.5788
X12.5729Y-4.8335
X12.5741Y-2.4387
X12.5749Y-0.8313
X12.5758Y-2.3782
X12.5778Y-2.1646
X12.578Y-1.4292
X12.5787Y-0.5199
X12.5985Y-4.8585
X12.5988Y-4.355
X12.5993Y-0.1281
X12.6004Y-4.4955
X12.6011Y-1.5723
X12.6012Y-2.5374
X12.6014Y-1.6332
X12.604Y-4.4265
X12.6043Y-1.4683
X12.6051Y-0.6264
X12.6054Y-0.801
X12.6057Y-2.6082
X12.6076Y-2.2654
X12.6084Y-1.8626
X12.6086Y-1.4042
X12.61Y-0.8622
X12.612Y-2.2015
X12.6125Y-0.1914
X12.6129Y-0.4858
X12.6143Y-1.7018
X12.6144Y-1.3324
X12.6145Y-0.5626
X12.6316Y-3.4097
X12.6321Y-0.216
X12.6331Y-1.7289
X12.6333Y-3.542
X12.6334Y-4.729
X12.6339Y-1.5998
X12.6339Y-3.6162
X12.6342Y-4.8278
X12.6352Y-0.7597
X12.6365Y-0.6544
X12.6377Y-2.232
X12.6377Y-1.4309
X12.6385Y-0.4614
X12.6394Y-0.5933
X12.64Y-0.89
X12.6401Y-0.2807
X12.6404Y-0.8202
X12.6405Y-1.8971
X12.6408Y-1.13
X12.6418Y-0.5277
X12.6423Y-1.8391
X12.6427Y-2.578
X12.6435Y-3.4907
X12.644Y-0.0925
X12.6444Y-0.1522
X12.645Y-4.3834
X12.6452Y-1.356
X12.6462Y-2.5129
X12.6468Y-3.354
X12.6468Y-3.2841
X12.6473Y-1.6672
X12.6475Y-3.6781
X12.6661Y-3.3879
X12.6661Y-0.8517
X12.6671Y-0.3958
X12.6671Y-4.3145
X12.6674Y-3.1522
X12.6676Y-0.3139
X12.6684Y-1.4613
X12.6687Y-0.1244
X12.6703Y-2.5468
X12.6705Y-3.5831
X12.6706Y-3.5203
X12.6724Y-3.3175
X12.6729Y-0.1924
X12.6729Y-1.3958
X12.673Y-0.5551
X12.6731Y-1.2931
X12.6732Y-3.446
X12.6736Y-3.2067
X12.6739Y-0.6325
X12.6746Y-0.2496
X12.6751Y-1.6278
X12.6753Y-2.6032
X12.6761Y-3.6477
X12.6764Y-1.7032
X12.6766Y-0.4825
X12.6783Y-1.8649
X12.6796Y-2.2795
X12.6798Y-0.7989
X12.6798Y-4.4279
X12.6815Y-4.8677
X12.699Y-4.8238
X12.6998Y-0.6561
X12.6998Y-0.0853
X12.7007Y-1.7325
X12.7013Y-1.3377
X12.7021Y-0.4291
X12.7022Y-1.4293
X12.7027Y-4.3565
X12.7031Y-3.2414
X12.7033Y-3.6117
X12.7052Y-0.524
X12.7054Y-3.1059
X12.7054Y-3.4231
X12.7068Y-0.3628
X12.7085Y-1.8384
X12.7088Y-4.7246
X12.7091Y-4.2886
X12.7094Y-1.2649
X12.71Y-0.8854
X12.7103Y-0.2282
X12.7105Y-2.2434
X12.7107Y-0.8213
X12.7112Y-1.662
X12.7113Y-3.1794
X12.7121Y-3.3475
X12.7123Y-0.7613
X12.7126Y-0.2878
X12.7128Y-3.5554
X12.7129Y-3.4894
X12.713Y-1.8986
X12.7137Y-0.5931
X12.7146Y-2.5076
X12.7155Y-0.1515
X12.7331Y-1.8708
X12.7335Y-2.2796
X12.7337Y-0.6277
X12.7354Y-0.3223
X12.7362Y-0.3857
X12.7362Y-3.2174
X12.7366Y-3.4547
X12.7367Y-0.7989
X12.7368Y-4.385
X12.7398Y-1.2297
X12.7399Y-0.1828
X12.74Y-1.2958
X12.7402Y-3.3825
X12.7404Y-4.3161
X12.7404Y-1.4621
X12.7421Y-0.1141
X12.7423Y-0.4554
X12.7423Y-3.5842
X12.7439Y-0.5518
X12.7451Y-1.7026
X12.7452Y-0.853
X12.7455Y-3.1518
X12.7464Y-3.2849
X12.7465Y-3.5145
X12.7474Y-0.2574
X12.7486Y-4.858
X12.7491Y-1.3689
X12.7668Y-3.5479
X12.7675Y-3.2481
X12.7692Y-0.7539
X12.7698Y-0.8988
X12.7701Y-4.8272
X12.7707Y-2.2371
X12.771Y-0.4222
X12.771Y-3.4764
X12.7727Y-1.2006
X12.7736Y-3.9795
X12.7738Y-1.3291
X12.7739Y-0.3587
X12.774Y-0.9689
X12.7741Y-2.3018
X12.7743Y-0.2957
X12.7744Y-0.0848
X12.7755Y-1.2672
X12.7764Y-3.4096
X12.777Y-1.902
X12.777Y-1.7394
X12.7773Y-4.4175
X12.7774Y-1.8276
X12.7784Y-0.6575
X12.7786Y-3.3091
X12.779Y-3.1746
X12.779Y-4.3564
X12.7794Y-0.1605
X12.7798Y-1.5044
X12.7799Y-0.2149
X12.7802Y-0.4858
X12.7803Y-0.8296
X12.7824Y-1.3925
X12.7827Y-0.5894
X12.7997Y-0.928
X12.8006Y-1.3687
X12.8048Y-0.8545
X12.8059Y-3.3405
X12.8062Y-0.4538
X12.807Y-4.3924
X12.8079Y-1.8744
X12.8085Y-0.3178
X12.809Y-0.5202
X12.8096Y-4.0269
X12.81Y-0.7936
X12.8102Y-1.1691
X12.8105Y-3.5125
X12.8115Y-3.2731
X12.8118Y-0.2527
X12.8118Y-0.1943
X12.813Y-3.446
X12.8136Y-0.1233
X12.8138Y-1.2376
X12.8139Y-0.3822
X12.8145Y-3.21
X12.8147Y-1.2962
X12.8156Y-1.4276
X12.8159Y-4.8564
X12.8338Y-3.2548
X12.8352Y-0.0947
X12.8354Y-0.8257
X12.836Y-0.8957
X12.8368Y-1.2565
X12.8369Y-1.4663
X12.8372Y-0.1461
X12.8387Y-4.053
X12.8393Y-4.4294
X12.8401Y-3.3818
X12.8409Y-3.322
X12.8414Y-1.7391
X12.8434Y-3.4767
X12.844Y-1.8354
X12.8456Y-0.2235
X12.8457Y-1.1881
X12.8472Y-1.9007
X12.8479Y-4.8341
X12.8483Y-3.7157
X12.867Y-3.4121
X12.8711Y-1.863
X12.8739Y-4.0821
X12.8751Y-0.1234
X12.8753Y-0.797
X12.876Y-0.8551
X12.878Y-4.0274
X12.8784Y-4.1615
X12.8784Y-4.2239
X12.8798Y-0.1859
X12.8802Y-4.8636
X12.8816Y-4.4879
X12.8821Y-3.2838
X12.8822Y-3.3458
X12.9009Y-0.5615
X12.901Y-1.5917
X12.9011Y-0.6247
X12.902Y-4.2533
X12.9036Y-4.8231
X12.906Y-4.1181
X12.906Y-4.1916
X12.906Y-3.3134
X12.9062Y-0.0819
X12.909Y-0.765
X12.9091Y-4.0554
X12.9103Y-3.1182
X12.9107Y-1.74
X12.913Y-0.486
X12.9132Y-3.3896
X12.9156Y-0.8284
X12.9158Y-0.1454
X12.935Y-4.1483
X12.9353Y-1.6355
X12.9353Y-4.0903
X12.9361Y-3.356
X12.9364Y-0.6606
X12.9366Y-4.2864
X12.9366Y-3.0826
X12.9372Y-0.5287
X12.9388Y-0.7893
X12.9395Y-0.1272
X12.9425Y-3.4153
X12.9433Y-3.1456
X12.9457Y-4.0231
X12.946Y-4.2251
X12.9464Y-0.863
X12.9474Y-1.5737
X12.9496Y-0.5937
X12.9678Y-0.8333
X12.9681Y-1.7365
X12.9692Y-0.1482
X12.9693Y-1.5351
X12.9694Y-2.3006
X12.9695Y-0.4973
X12.9698Y-3.3768
X12.9704Y-0.0946
X12.9709Y-4.259
X12.9715Y-4.1178
X12.9718Y-0.7527
X12.9728Y-3.0125
X12.9731Y-3.1159
X12.9736Y-4.0552
X12.9737Y-0.5612
X12.9745Y-4.3233
X12.979Y-1.6068
X12.9816Y-2.3695
X12.9824Y-0.6255
X12.9832Y-3.9897
X12.9832Y-4.1956
X12.9838Y-3.1783
X13.004Y-3.7824
X13.0042Y-0.6567
X13.0052Y-4.2936
X13.0059Y-1.6406
X13.0065Y-4.1488
X13.0067Y-3.4164
X13.0072Y-3.3503
X13.0073Y-0.5879
X13.0074Y-2.9754
X13.0083Y-4.2219
X13.0095Y-4.024
X13.0099Y-1.4988
X13.0105Y-4.0882
X13.011Y-3.0376
X13.0116Y-1.5633
X13.012Y-0.5169
X13.0127Y-3.1496
X13.0133Y-0.8596
X13.0146Y-0.124
X13.0179Y-0.79
X13.0179Y-3.2054
X13.018Y-2.3439
X13.0367Y-3.245
X13.0385Y-1.6026
X13.0386Y-1.5314
X13.0386Y-3.0797
X13.039Y-0.5631
X13.0403Y-0.629
X13.0422Y-4.7259
X13.0429Y-1.7421
X13.0431Y-4.2559
X13.0437Y-3.3734
X13.0456Y-3.1715
X13.0459Y-4.053
X13.0472Y-4.1231
X13.0483Y-4.8287
X13.0483Y-4.5187
X13.0483Y-0.0907
X13.0486Y-4.3277
X13.0501Y-3.9938
X13.0503Y-4.1856
X13.0508Y-0.7636
X13.0512Y-0.1524
X13.0517Y-0.8253
X13.069Y-3.4839
X13.0694Y-3.1144
X13.0695Y-3.3433
X13.0697Y-4.4309
X13.0713Y-0.6506
X13.0717Y-0.8594
X13.0727Y-4.2216
X13.0729Y-4.1617
X13.075Y-1.5585
X13.0751Y-0.5941
X13.0755Y-4.3493
X13.0767Y-4.0152
X13.0785Y-0.1837
X13.0787Y-1.8302
X13.0792Y-3.7855
X13.0794Y-0.5308
X13.0802Y-3.2201
X13.0805Y-4.2877
X13.081Y-3.4141
X13.0811Y-1.6264
X13.0819Y-4.0805
X13.0827Y-0.1284
X13.083Y-4.4949
X13.0838Y-0.7844
X13.1023Y-4.3983
X13.1029Y-3.4524
X13.103Y-0.8285
X13.1043Y-0.7534
X13.1045Y-4.3157
X13.1045Y-4.1872
X13.1047Y-3.9806
X13.1055Y-0.6187
X13.1056Y-1.5337
X13.1081Y-4.2559
X13.1086Y-3.3807
X13.1103Y-0.2238
X13.1113Y-1.7308
X13.1116Y-0.0827
X13.1127Y-0.1457
X13.1132Y-1.8739
X13.1134Y-4.122
X13.1135Y-1.5933
X13.1143Y-0.5488
X13.1155Y-3.1423
X13.1166Y-4.0461
X13.1185Y-3.2508
X13.1377Y-1.6391
X13.1381Y-0.786
X13.1385Y-1.5689
X13.1435Y-0.5314
X13.144Y-3.7879
X13.1451Y-3.1176
X13.147Y-0.5837
X13.1486Y-1.8328
X13.1497Y-0.6538
X13.1519Y-3.1794
X13.1695Y-3.8176
X13.1701Y-3.2186
X13.1725Y-0.5566
X13.1775Y-0.6269
X13.1811Y-1.5955
X13.1825Y-3.1488
X13.1847Y-1.5397
X13.2077Y-3.7799
X13.2131Y-3.2439
X13.2179Y-3.1803
X13.2395Y-2.2441
X13.2503Y-3.215
X13.2521Y-3.7551
X13.2717Y-1.4654
X13.2786Y-3.7123
X13.2805Y-4.0615
X13.2812Y-0.7877
X13.2816Y-1.0303
X13.2816Y-3.9813
X13.2821Y-1.5328
X13.2825Y-0.4973
X13.2826Y-0.628
X13.2828Y-3.2432
X13.2845Y-1.5982
X13.2848Y-0.5633
X13.2853Y-4.8929
X13.2858Y-2.4752
X13.2859Y-4.831
X13.3051Y-1.2677
X13.3064Y-4.8643
X13.3064Y-0.0897
X13.307Y-3.9489
X13.3082Y-0.5959
X13.3096Y-0.663
X13.3106Y-0.7642
X13.3111Y-0.2593
X13.3134Y-0.8199
X13.3138Y-1.5598
X13.3139Y-2.0055
X13.3142Y-1.5033
X13.3145Y-0.5227
X13.3164Y-1.6313
X13.3181Y-4.2575
X13.3184Y-4.9333
X13.3185Y-4.3312
X13.319Y-4.0201
X13.3194Y-1.8277
X13.3195Y-1.7276
X13.3201Y-3.522
X13.3377Y-1.4634
X13.3382Y-1.5268
X13.3394Y-1.8616
X13.3405Y-0.9237
X13.3407Y-0.1165
X13.3423Y-4.364
X13.3424Y-4.2817
X13.3426Y-4.2254
X13.3426Y-0.8579
X13.3429Y-0.7882
X13.3434Y-4.8321
X13.3444Y-0.9872
X13.3448Y-0.5575
X13.3449Y-3.9816
X13.3452Y-4.8883
X13.3455Y-0.1909
X13.3462Y-1.5996
X13.3494Y-1.2284
X13.3495Y-0.6309
X13.3501Y-3.9265
X13.3513Y-0.4833
X13.3723Y-1.7268
X13.3725Y-1.8998
X13.3733Y-1.5676
X13.3736Y-0.8981
X13.3746Y-4.8533
X13.3753Y-4.1902
X13.3764Y-0.1474
X13.377Y-2.4321
X13.3774Y-1.8366
X13.3778Y-1.4988
X13.3782Y-0.7666
X13.3784Y-4.7289
X13.3785Y-2.3793
X13.3786Y-0.8205
X13.3787Y-4.7934
X13.3798Y-4.3214
X13.38Y-0.6586
X13.3802Y-1.2689
X13.3809Y-3.9575
X13.3821Y-4.2563
X13.3821Y-0.5971
X13.3824Y-0.9596
X13.3827Y-4.9252
X13.3837Y-0.281
X13.384Y-0.093
X13.3843Y-0.5261
X13.3852Y-0.2157
X13.3852Y-1.6272
X13.3852Y-2.7697
X13.3856Y-1.0306
X13.3858Y-2.3039
X13.3859Y-2.2338
X13.3877Y-3.8805
X13.405Y-2.269
X13.4058Y-0.7908
X13.4061Y-1.6058
X13.4062Y-0.2517
X13.4067Y-1.2896
X13.4072Y-2.1979
X13.4073Y-4.8943
X13.4074Y-4.1464
X13.4075Y-4.8286
X13.4085Y-0.1949
X13.4096Y-3.9148
X13.4096Y-1.5405
X13.4099Y-0.1154
X13.4101Y-1.4316
X13.4109Y-2.7465
X13.4111Y-0.5497
X13.4116Y-1.132
X13.412Y-1.1932
X13.412Y-0.4593
X13.4127Y-0.9274
X13.413Y-0.868
X13.4132Y-0.3136
X13.4141Y-3.8447
X13.4141Y-1.0644
X13.4145Y-0.9938
X13.4147Y-2.8042
X13.4147Y-1.364
X13.4157Y-4.2923
X13.4161Y-4.3501
X13.4173Y-1.8607
X13.4174Y-2.4111
X13.4178Y-0.6189
X13.4183Y-2.4658
X13.4188Y-2.3449
X13.4202Y-4.7595
X13.421Y-4.2145
X13.4214Y-0.3817
X13.4385Y-1.0871
X13.4391Y-1.5598
X13.4391Y-0.36
X13.4392Y-4.9348
X13.4393Y-0.0818
X13.4393Y-0.7591
X13.4393Y-1.3225
X13.4396Y-1.1687
X13.4402Y-0.6624
X13.4403Y-0.219
X13.4403Y-0.4931
X13.4406Y-0.8878
X13.4408Y-1.2348
X13.4413Y-0.5927
X13.4414Y-1.7309
X13.4414Y-1.3945
X13.4432Y-2.3042
X13.4439Y-2.2321
X13.4445Y-0.8204
X13.4457Y-1.4611
X13.4457Y-1.8345
X13.4465Y-4.2478
X13.4472Y-4.1874
X13.4476Y-0.1541
X13.4482Y-0.4275
X13.4484Y-4.8533
X13.4488Y-3.8837
X13.4499Y-4.7299
X13.4517Y-2.1778
X13.4521Y-4.7862
X13.4524Y-1.0281
X13.4524Y-4.3205
X13.4542Y-4.1254
X13.4545Y-1.6378
X13.4551Y-0.9638
X13.4551Y-0.2874
X13.475Y-0.5291
X13.4761Y-0.262
X13.4765Y-0.9343
X13.4767Y-4.0843
X13.4767Y-0.9868
X13.4768Y-1.3614
X13.4777Y-4.8983
X13.4781Y-1.1909
X13.4782Y-4.7523
X13.4782Y-1.8754
X13.4785Y-0.3861
X13.479Y-4.8336
X13.4792Y-2.1994
X13.4793Y-0.861
X13.4793Y-2.2709
X13.4806Y-3.8546
X13.4815Y-0.4598
X13.4816Y-0.7942
X13.4819Y-1.6041
X13.4819Y-1.1363
X13.4822Y-1.5029
X13.4823Y-1.4394
X13.4823Y-1.2605
X13.4844Y-1.0632
X13.4849Y-0.3262
X13.4857Y-0.6304
X13.4876Y-0.1806
X13.4877Y-4.1465
X13.4886Y-0.1241
X13.5058Y-1.394
X13.5062Y-0.4889
X13.5066Y-4.047
X13.507Y-4.7236
X13.507Y-4.8601
X13.5075Y-1.8303
X13.5078Y-0.0853
X13.5093Y-4.9209
X13.5094Y-0.2805
X13.5099Y-4.1245
X13.51Y-0.1554
X13.5106Y-1.54
X13.5109Y-1.0933
X13.5111Y-0.6663
X13.5114Y-1.4664
X13.5115Y-0.8861
X13.5133Y-2.179
X13.515Y-1.6363
X13.5158Y-0.4205
X13.5161Y-1.2916
X13.5163Y-0.3553
X13.5166Y-0.8341
X13.5167Y-0.753
X13.5172Y-4.8003
X13.5174Y-1.1588
X13.5188Y-1.0251
X13.5201Y-0.964
X13.5201Y-1.2276
X13.5205Y-0.224
X13.5208Y-3.1121
X13.5212Y-2.2454
X13.5213Y-0.5563
X13.5219Y-1.7379
X13.5397Y-4.0906
X13.5404Y-1.4271
X13.5405Y-0.9194
X13.5406Y-0.9979
X13.5414Y-1.3242
X13.5425Y-0.1168
X13.5433Y-2.2677
X13.5438Y-0.1862
X13.5442Y-4.8302
X13.5453Y-0.329
X13.5462Y-0.8576
X13.5471Y-0.4623
X13.5472Y-1.1992
X13.5484Y-4.0188
X13.5485Y-1.1298
X13.5493Y-1.4968
X13.5501Y-0.5168
X13.5502Y-0.2563
X13.5505Y-1.5912
X13.5508Y-2.2106
X13.5511Y-1.0573
X13.5513Y-1.2575
X13.5543Y-4.1465
X13.5553Y-4.8918
X13.5555Y-0.3939
X13.5556Y-0.7986
X13.5559Y-4.7609
X13.5735Y-4.7926
X13.5742Y-1.7275
X13.5753Y-1.1627
X13.577Y-3.9932
X13.5773Y-1.0257
X13.5792Y-4.0467
X13.5837Y-1.2353
X13.5838Y-1.2987
X13.5842Y-0.2264
X13.5845Y-2.164
X13.5849Y-2.1108
X13.5866Y-0.0783
X13.587Y-0.9624
X13.5873Y-1.4679
X13.5874Y-4.1285
X13.5877Y-0.8329
X13.5879Y-0.1531
X13.5881Y-1.3692
X13.5882Y-1.0924
X13.589Y-0.8879
X13.6094Y-0.1845
X13.6095Y-0.1243
X13.6114Y-0.9908
X13.6123Y-1.9971
X13.6134Y-4.1549
X13.6139Y-4.0211
X13.6146Y-0.8647
X13.6147Y-4.7544
X13.6154Y-3.9491
X13.6156Y-4.0798
X13.6165Y-0.9221
X13.6175Y-1.2668
X13.6181Y-4.2292
X13.6197Y-2.9827
X13.6216Y-3.8597
X13.6228Y-0.8006
X13.6405Y-1.6017
X13.641Y-4.0484
X13.6419Y-3.1397
X13.6422Y-0.4846
X13.6422Y-4.182
X13.6424Y-0.1577
X13.6441Y-4.1211
X13.6445Y-0.8874
X13.6452Y-0.0786
X13.6467Y-3.9893
X13.6488Y-0.8267
X13.6533Y-0.6528
X13.6565Y-1.7292
X13.674Y-1.761
X13.6753Y-4.7637
X13.6757Y-0.5903
X13.6775Y-3.2524
X13.6781Y-0.6852
X13.6784Y-1.5715
X13.6789Y-0.8535
X13.6791Y-3.1861
X13.6796Y-0.7594
X13.6808Y-4.0181
X13.6819Y-3.1092
X13.6827Y-1.8304
X13.6848Y-0.1193
X13.6851Y-1.9053
X13.6853Y-0.5284
X13.6869Y-3.7182
X13.6871Y-4.1625
X13.6885Y-1.6293
X13.6886Y-1.7064
X13.6892Y-3.7876
X13.6899Y-4.0937
X13.708Y-0.5649
X13.712Y-3.2158
X13.713Y-0.1566
X13.7153Y-3.278
X13.7157Y-0.7191
X13.7161Y-0.0802
X13.7164Y-3.0754
X13.7178Y-0.6316
X13.7179Y-0.4984
X13.7186Y-3.1521
X13.7191Y-0.7949
X13.7192Y-0.8931
X13.7192Y-1.5372
X13.7193Y-1.7374
X13.7208Y-1.6724
X13.722Y-1.6031
X13.7233Y-1.7953
X13.7242Y-1.8624
X13.7419Y-1.5672
X13.7431Y-0.8217
X13.7449Y-0.1162
X13.7463Y-0.5171
X13.7474Y-3.106
X13.7483Y-1.8974
X13.7498Y-1.8335
X13.7498Y-1.6927
X13.7515Y-1.7716
X13.7522Y-1.6283
X13.7534Y-1.5052
X13.7542Y-0.5961
X13.7549Y-0.4567
X13.7551Y-0.6631
X13.7577Y-0.761
X13.775Y-0.5523
X13.7759Y-0.0896
X13.7771Y-1.6068
X13.7772Y-3.751
X13.7784Y-4.8
X13.7787Y-0.9326
X13.7802Y-1.5265
X13.7803Y-4.8596
X13.7807Y-4.7201
X13.7815Y-0.8006
X13.7818Y-4.1143
X13.7819Y-0.8678
X13.7828Y-4.9207
X13.7831Y-0.6226
X13.7849Y-1.8017
X13.7855Y-1.8704
X13.7856Y-0.1601
X13.7869Y-1.739
X13.7892Y-1.6696
X13.7898Y-3.8194
X13.7912Y-0.6837
X13.8085Y-4.7639
X13.8112Y-0.5243
X13.8119Y-0.8297
X13.8126Y-4.8871
X13.8133Y-0.7273
X13.8141Y-0.5968
X13.8141Y-0.1844
X13.8143Y-1.8293
X13.8145Y-1.7079
X13.8172Y-2.6421
X13.8199Y-1.5731
X13.8205Y-1.8953
X13.8206Y-0.1269
X13.8215Y-0.8941
X13.8222Y-0.661
X13.8225Y-4.8257
X13.8236Y-1.7693
X13.8243Y-1.638
X13.8424Y-1.6011
X13.8427Y-0.7635
X13.843Y-1.5298
X13.8443Y-1.8005
X13.8452Y-0.8666
X13.8461Y-2.676
X13.847Y-0.2285
X13.848Y-0.6275
X13.8487Y-0.685
X13.8496Y-4.7318
X13.8499Y-0.081
X13.851Y-4.7976
X13.8515Y-0.1485
X13.852Y-1.9356
X13.8524Y-4.8629
X13.8525Y-1.67
X13.8527Y-0.9272
X13.8533Y-4.9249
X13.8536Y-2.266
X13.8536Y-4.5295
X13.8539Y-1.872
X13.8545Y-0.5649
X13.8551Y-1.7349
X13.876Y-1.5592
X13.8791Y-1.6974
X13.8813Y-0.5992
X13.8816Y-1.8316
X13.8817Y-2.4656
X13.8818Y-0.785
X13.8836Y-4.8884
X13.8843Y-0.6549
X13.885Y-0.7249
X13.8872Y-1.6265
X13.8872Y-4.8225
X13.8899Y-4.7536
X13.8903Y-1.7593
X13.8919Y-0.5314
X13.9092Y-4.5991
X13.9113Y-4.9333
X13.9119Y-1.7416
X13.9138Y-4.531
X13.9138Y-4.7882
X13.9146Y-0.7601
X13.9153Y-4.7305
X13.9171Y-0.6315
X13.9179Y-1.6692
X13.9182Y-0.6921
X13.9183Y-0.8309
X13.9189Y-1.6061
X13.9196Y-1.8025
X13.9203Y-4.8554
X13.9204Y-0.5608
X13.9224Y-1.5253
X13.9242Y-4.6529
X13.9252Y-2.2712
X13.9445Y-4.8249
X13.9464Y-4.8896
X13.9478Y-2.3054
X13.9497Y-4.7648
X13.9555Y-4.6863
X13.9556Y-4.6174
X13.9576Y-2.4351
X13.9583Y-2.3743
X13.9584Y-4.5631
X13.9768Y-2.4816
X13.978Y-0.0613
X13.9821Y-4.8671
X13.9827Y-2.4069
X13.9839Y-4.7333
X13.9857Y-4.5985
X13.9859Y-4.7916
X13.9862Y-2.339
X13.9865Y-4.6608
X13.9871Y-2.2409
X13.9897Y-4.4979
X13.99Y-4.923
X14.0109Y-2.448
X14.0113Y-0.687
X14.0114Y-1.6728
X14.0129Y-2.3797
X14.0136Y-0.558
X14.0141Y-4.9027
X14.0149Y-0.623
X14.0154Y-1.5957
X14.0155Y-0.0112
X14.0164Y-4.5243
X14.0165Y-4.83
X14.0167Y-3.2153
X14.0172Y-1.4674
X14.0174Y-1.0302
X14.0174Y-0.764
X14.0179Y-0.4853
X14.0183Y-4.6324
X14.0196Y-1.7937
X14.0196Y-4.7595
X14.0201Y-2.2711
X14.0202Y-1.5268
X14.0216Y-2.7844
X14.0218Y-1.742
X14.023Y-4.296
X14.0234Y-0.2903
X14.0237Y-3.9589
X14.026Y-4.6884
X14.0264Y-4.9577
X14.0441Y-1.6978
X14.0446Y-1.2687
X14.0454Y-1.6322
X14.0455Y-0.589
X14.0462Y-1.7726
X14.0464Y-1.4924
X14.0467Y-0.7179
X14.0479Y-2.4058
X14.0482Y-4.7329
X14.0496Y-0.0555
X14.0523Y-0.5242
X14.0524Y-2.4755
X14.0533Y-0.6502
X14.0534Y-1.5626
X14.0543Y-4.5634
X14.0546Y-4.7928
X14.0547Y-0.7955
X14.0548Y-4.8573
X14.0551Y-2.3063
X14.0554Y-4.6568
X14.0571Y-1.8346
X14.0576Y-4.9362
X14.0781Y-0.0936
X14.0786Y-0.8859
X14.0786Y-1.5265
X14.0816Y-0.6247
X14.0826Y-1.8634
X14.0827Y-0.5493
X14.0831Y-1.5975
X14.084Y-1.7323
X14.0842Y-4.6953
X14.0844Y-0.7525
X14.0851Y-4.9025
X14.0852Y-0.8273
X14.0853Y-0.0253
X14.0856Y-1.4654
X14.0864Y-0.6853
X14.0867Y-0.1568
X14.0867Y-4.9541
X14.0877Y-0.9616
X14.0885Y-1.9328
X14.0887Y-1.6674
X14.0887Y-1.2217
X14.0889Y-4.7609
X14.0898Y-4.5876
X14.0907Y-1.799
X14.0909Y-0.22
X14.0911Y-1.0347
X14.0915Y-4.2178
X14.0927Y-0.4902
X14.0938Y-2.6427
X14.0939Y-2.2688
X14.094Y-4.8288
X14.1113Y-1.7691
X14.1113Y-0.5827
X14.112Y-1.4928
X14.1123Y-3.0507
X14.1124Y-1.2716
X14.1136Y-3.1852
X14.1139Y-0.922
X14.1139Y-3.1178
X14.1148Y-2.6097
X14.1151Y-0.0459
X14.1157Y-1.9725
X14.1163Y-2.9744
X14.1167Y-1.5709
X14.1169Y-4.9298
X14.1187Y-0.8636
X14.1192Y-1.696
X14.1198Y-0.2475
X14.1201Y-4.7263
X14.1205Y-3.8455
X14.1205Y-0.5178
X14.1209Y-0.7997
X14.1212Y-1.8952
X14.1219Y-4.6174
X14.122Y-3.2452
X14.1222Y-0.1175
X14.1222Y-3.9869
X14.1225Y-3.9171
X14.1228Y-0.1928
X14.1233Y-1.0002
X14.1242Y-4.8589
X14.125Y-0.7183
X14.1252Y-1.6377
X14.1254Y-0.6565
X14.1271Y-1.8326
X14.1273Y-4.2612
X14.1274Y-4.7869
X14.1448Y-3.0144
X14.1452Y-2.6448
X14.1452Y-0.8877
X14.1454Y-0.2811
X14.1455Y-4.7554
X14.1455Y-0.216
X14.146Y-4.821
X14.1461Y-1.5329
X14.1462Y-1.9408
X14.1477Y-1.7935
X14.1477Y-3.2207
X14.1483Y-2.5681
X14.1484Y-2.9373
X14.149Y-1.4727
X14.1492Y-3.0819
X14.1503Y-1.8635
X14.1503Y-4.2883
X14.1505Y-1.0318
X14.1509Y-1.733
X14.1514Y-0.6849
X14.1514Y-0.5629
X14.1516Y-3.8934
X14.1527Y-0.453
X14.1531Y-4.6563
X14.1537Y-3.1438
X14.1543Y-4.5995
X14.1543Y-0.0178
X14.1546Y-0.6208
X14.1551Y-1.5945
X14.1555Y-1.1905
X14.1555Y-4.1882
X14.1559Y-0.8222
X14.1561Y-4.8862
X14.1561Y-1.6679
X14.157Y-3.9571
X14.1571Y-4.9604
X14.1572Y-0.7553
X14.1573Y-0.093
X14.1589Y-0.1599
X14.1601Y-1.998
X14.1605Y-0.9575
X14.1609Y-1.2947
X14.1783Y-4.9927
X14.1787Y-1.7617
X14.1789Y-4.6871
X14.179Y-3.1858
X14.179Y-0.5887
X14.1792Y-0.2558
X14.1796Y-2.5428
X14.1808Y-3.0521
X14.1818Y-4.3201
X14.1819Y-2.6121
X14.1823Y-1.3342
X14.1824Y-3.253
X14.1825Y-3.9915
X14.1828Y-1.2333
X14.1833Y-4.2223
X14.1837Y-1.4039
X14.184Y-1.0586
X14.1843Y-2.9147
X14.1846Y-4.8647
X14.1846Y-3.3147
X14.185Y-0.1189
X14.1856Y-1.8406
X14.1856Y-0.6582
X14.1856Y-0.7893
X14.1862Y-3.116
X14.1864Y-2.9854
X14.1871Y-0.4926
X14.1873Y-0.9224
X14.1875Y-0.3839
X14.1884Y-0.86
X14.1887Y-4.6336
X14.189Y-0.0514
X14.1893Y-3.922
X14.1902Y-1.1269
X14.1907Y-4.128
X14.1909Y-1.6374
X14.1909Y-0.1909
X14.1911Y-1.5618
X14.1911Y-1.6967
X14.1918Y-4.9253
X14.1918Y-4.055
X14.1924Y-1.4963
X14.1926Y-0.3182
X14.1931Y-1.8986
X14.1935Y-1.9695
X14.1935Y-0.727
X14.1938Y-2.0379
X14.1942Y-3.3871
X14.1944Y-3.8487
X14.1945Y-4.7876
X14.1946Y-0.9957
T2
X0.2047Y-0.7165
X0.2953Y-1.0079
X0.6299Y-0.9834
X0.689Y-4.8583
X0.6929Y-1.7126
X0.6929Y-2.4646
X0.6929Y-3.2126
X0.6929Y-3.9646
X0.9673Y-4.6614
X0.9673Y-4.7034
X0.9685Y-1.1299
X0.9803Y-4.3898
X1.0Y-1.1614
X1.0079Y-4.6614
X1.0276Y-1.7126
X1.0394Y-3.9646
X1.0748Y-4.5079
X1.1024Y-0.7598
X1.1181Y-4.6181
X1.2126Y-2.4646
X1.3071Y-3.2126
X1.315Y-4.4567
X1.3228Y-4.5551
X1.6063Y-4.6575
X1.6102Y-4.5551
X1.6102Y-4.8386
X2.0748Y-4.5551
X2.0787Y-4.6654
X2.0827Y-4.8465
X2.252Y-4.0787
X2.3543Y-4.126
X2.437Y-4.2362
X2.5394Y-4.5512
X2.5394Y-4.6614
X2.5394Y-4.8425
X2.9409Y-4.5551
X2.9409Y-4.6654
X2.9488Y-4.8465
X4.1378Y-3.9571
X4.3504Y-3.9284
X4.4252Y-4.8386
X4.5709Y-4.5827
X4.5984Y-4.9488
X4.6063Y-4.5393
X4.7774Y-4.8329
X4.8053Y-4.8049
X4.811Y-4.9213
X4.8701Y-3.9291
X4.9096Y-3.9291
X4.9488Y-4.874
X4.9491Y-3.9291
X4.9764Y-3.315
X4.9886Y-3.9291
X5.0276Y-1.7835
X5.2244Y-2.5472
X5.2283Y-3.9291
X5.2283Y-4.1378
X5.2598Y-0.7717
X5.2717Y-3.9291
X5.2913Y-4.0512
X5.4843Y-3.9284
X5.5512Y-4.1378
X5.6102Y-3.8425
X5.6142Y-3.9409
X5.7244Y-3.9752
X5.9724Y-3.8504
X5.9724Y-3.9488
X6.3228Y-3.8465
X6.3228Y-3.9488
X6.7244Y-3.8425
X6.7244Y-3.9528
X6.9094Y-3.9932
X7.0394Y-3.8425
X7.0394Y-3.9488
X7.437Y-3.8386
X7.4409Y-3.9488
X7.6614Y-4.0112
X7.8543Y-3.8346
X7.8583Y-3.9488
X8.2205Y-3.8386
X8.2244Y-3.9449
X8.5906Y-3.8346
X8.5906Y-3.9488
X8.937Y-4.6555
X8.937Y-4.7736
X9.0276Y-3.8543
X9.0276Y-3.9449
X9.1614Y-4.8216
X9.4016Y-3.8543
X9.4016Y-3.9449
X9.4094Y-4.6555
X9.4094Y-4.7835
X9.6614Y-4.8396
X11.2087Y-4.0236
X11.2126Y-4.126
X11.4528Y-4.2362
X11.4724Y-4.7974
X11.4961Y-4.3386
X11.6181Y-4.7047
X11.6181Y-4.8268
X11.6693Y-1.5236
X11.685Y-1.6575
X11.878Y-4.0315
X11.8819Y-4.1299
X12.1024Y-4.2402
X12.1063Y-4.3386
X12.2244Y-4.8756
X12.4291Y-1.4843
X12.4331Y-4.7126
X12.437Y-4.8307
X12.685Y-2.9646
X12.7598Y-3.0394
X12.7913Y-4.1299
X12.9724Y-4.8936
X13.1417Y-4.7008
X13.1417Y-4.8268
X13.1692Y-4.5157
X13.1692Y-4.8858
X13.2087Y-4.5157
X13.2087Y-4.8858
X13.2323Y-4.6732
X13.3425Y-4.4488
X13.3701Y-3.2874
X13.5Y-4.6142
X13.5315Y-3.2874
X13.5394Y-4.2362
X13.5945Y-4.3386
X13.6299Y-2.248
X13.6417Y-2.3504
X13.6417Y-4.8504
X13.6732Y-4.5118
X13.6957Y-3.3807
X13.7126Y-4.9213
X13.7795Y-4.5157
T3
X0.7835Y-1.0472
X0.9173Y-1.0472
X4.5197Y-4.2559
X4.66Y-4.5852
X4.7717Y-4.6969
X4.9528Y-4.8071
X5.0276Y-4.122
X5.252Y-4.5827
X12.5571Y-1.1772
X10.529Y-5.1575
X10.5524Y-5.1011
X10.5524Y-5.2139
X10.6088Y-5.0778
X10.6088Y-5.2372
X10.6651Y-5.1011
X10.6651Y-5.2139
X10.6885Y-5.1575
X7.0453Y-5.1575
X7.0686Y-5.1011
X7.0686Y-5.2139
X7.125Y-5.0778
X7.125Y-5.2372
X7.1814Y-5.1011
X7.1814Y-5.2139
X7.2047Y-5.1575
X0.0778Y0.1575
X0.1011Y0.2139
X0.1011Y0.1011
X0.1575Y0.2372
X0.1575Y0.0778
X0.2139Y0.2139
X0.2139Y0.1011
X0.2372Y0.1575
X10.529Y0.1575
X10.5524Y0.2139
X10.5524Y0.1011
X10.6088Y0.2372
X10.6088Y0.0778
X10.6651Y0.2139
X10.6651Y0.1011
X10.6885Y0.1575
X7.0453Y0.1575
X7.0686Y0.2139
X7.0686Y0.1011
X7.125Y0.2372
X7.125Y0.0778
X7.1814Y0.2139
X7.1814Y0.1011
X7.2047Y0.1575
X3.5615Y-5.1575
X3.5849Y-5.1011
X3.5849Y-5.2139
X3.6412Y-5.0778
X3.6412Y-5.2372
X3.6976Y-5.1011
X3.6976Y-5.2139
X3.721Y-5.1575
X0.0778Y-5.1575
X0.1011Y-5.1011
X0.1011Y-5.2139
X0.1575Y-5.0778
X0.1575Y-5.2372
X0.2139Y-5.1011
X0.2139Y-5.2139
X0.2372Y-5.1575
X14.0128Y-5.1575
X14.0361Y-5.1011
X14.0361Y-5.2139
X14.0925Y-5.0778
X14.0925Y-5.2372
X14.1489Y-5.1011
X14.1489Y-5.2139
X14.1722Y-5.1575
X3.5615Y0.1575
X3.5849Y0.2139
X3.5849Y0.1011
X3.6412Y0.2372
X3.6412Y0.0778
X3.6976Y0.2139
X3.6976Y0.1011
X3.721Y0.1575
X14.0128Y0.1575
X14.0361Y0.2139
X14.0361Y0.1011
X14.0925Y0.2372
X14.0925Y0.0778
X14.1489Y0.2139
X14.1489Y0.1011
X14.1722Y0.1575
T4
X4.5039Y-4.626
X4.5748Y-4.7953
X4.6148Y-4.1917
X12.4291Y-1.1299
T5
X0.0931Y-0.825
X0.0931Y-0.875
X0.0931Y-0.925
X0.1431Y-0.825
X0.1431Y-0.875
X0.1431Y-0.925
T6
X13.5557Y-2.4036
X13.5941Y-2.4942
X13.6326Y-2.5848
X14.0812Y-2.1806
X14.1581Y-2.3618
X0.1569Y-0.1941
X0.3274Y-0.0956
X0.4423Y-0.6885
X0.5276Y-0.6392
X0.6128Y-0.59
T7
X8.35Y-2.025
X8.6Y-1.925
X10.225Y-0.275
X10.475Y-0.175
X1.3187Y-4.275
X1.5687Y-4.175
X5.6Y-0.275
X5.85Y-0.175
X0.225Y-3.775
X0.475Y-3.675
X6.85Y-0.275
X7.1Y-0.175
X13.725Y-4.275
X13.975Y-4.175
X8.725Y-1.275
X8.975Y-1.175
X8.725Y-0.275
X8.975Y-0.175
X12.975Y-1.025
X13.225Y-0.925
X0.225Y-3.025
X0.475Y-2.925
X5.725Y-1.275
X5.975Y-1.175
X12.725Y-3.775
X12.975Y-3.675
X6.1Y-4.275
X6.35Y-4.175
X11.35Y-1.275
X11.6Y-1.175
X6.85Y-2.025
X7.1Y-1.925
X12.975Y-3.525
X13.225Y-3.425
X3.2875Y-4.275
X3.5375Y-4.175
X3.725Y-0.275
X3.975Y-0.175
X7.7875Y-2.775
X8.0375Y-2.675
X2.5375Y-2.775
X2.7875Y-2.675
X6.6625Y-3.525
X6.9125Y-3.425
X11.225Y-0.275
X11.475Y-0.175
X6.1Y-2.025
X6.35Y-1.925
X0.225Y-1.275
X0.475Y-1.175
X3.2875Y-2.775
X3.5375Y-2.675
X12.725Y-2.775
X12.975Y-2.675
X0.225Y-1.525
X0.475Y-1.425
X2.35Y-2.025
X2.6Y-1.925
X5.35Y-2.025
X5.6Y-1.925
X10.7875Y-4.275
X11.0375Y-4.175
X11.8812Y-2.35
X11.9812Y-2.6
X7.975Y-1.275
X8.225Y-1.175
X4.7875Y-2.775
X5.0375Y-2.675
X7.0375Y-2.775
X7.2875Y-2.675
X3.475Y-0.275
X3.725Y-0.175
X4.975Y-1.275
X5.225Y-1.175
X8.1625Y-3.525
X8.4125Y-3.425
X9.85Y-2.025
X10.1Y-1.925
X11.975Y-4.525
X12.225Y-4.425
X11.975Y-3.775
X12.225Y-3.675
X9.725Y-0.275
X9.975Y-0.175
X2.725Y-0.275
X2.975Y-0.175
X13.725Y-1.025
X13.975Y-0.925
X11.2562Y-2.775
X11.5062Y-2.675
X13.725Y-3.525
X13.975Y-3.425
X12.975Y-2.025
X13.225Y-1.925
X2.975Y-0.275
X3.225Y-0.175
X5.1625Y-3.525
X5.4125Y-3.425
X10.0375Y-4.275
X10.2875Y-4.175
X12.225Y-0.275
X12.475Y-0.175
X3.85Y-2.025
X4.1Y-1.925
X0.225Y-4.525
X0.475Y-4.425
X13.725Y-1.275
X13.975Y-1.175
X9.475Y-1.275
X9.725Y-1.175
X13.475Y-4.525
X13.725Y-4.425
X0.225Y-2.775
X0.475Y-2.675
X4.225Y-1.275
X4.475Y-1.175
X11.675Y-1.275
X11.775Y-1.525
X3.6625Y-3.525
X3.9125Y-3.425
X11.225Y-4.525
X11.475Y-4.425
X7.1Y-0.275
X7.35Y-0.175
X10.7875Y-2.775
X11.0375Y-2.675
X1.975Y-0.275
X2.225Y-0.175
X2.225Y-0.275
X2.475Y-0.175
X13.975Y-3.1
X14.075Y-3.35
X9.2875Y-2.775
X9.5375Y-2.675
X1.4125Y-4.275
X1.6625Y-4.175
X13.975Y-3.85
X14.075Y-4.1
X3.475Y-1.275
X3.725Y-1.175
X1.4125Y-2.025
X1.6625Y-1.925
X9.6625Y-3.525
X9.9125Y-3.425
X12.725Y-4.525
X12.975Y-4.425
X6.725Y-4.225
X6.825Y-4.475
X6.475Y-1.275
X6.725Y-1.175
X8.5375Y-2.775
X8.7875Y-2.675
X13.225Y-2.35
X13.325Y-2.6
X8.9125Y-4.275
X9.1625Y-4.175
X1.2688Y-3.525
X1.3687Y-3.775
X13.725Y-0.275
X13.975Y-0.175
X6.35Y-0.275
X6.6Y-0.175
X2.1625Y-3.525
X2.4125Y-3.425
X2.9125Y-3.525
X3.1625Y-3.425
X1.225Y-1.275
X1.475Y-1.175
X6.1Y-0.275
X6.35Y-0.175
X4.6Y-2.025
X4.85Y-1.925
X2.35Y-4.275
X2.6Y-4.175
X13.725Y-2.025
X13.975Y-1.925
X4.6Y-0.275
X4.85Y-0.175
X12.975Y-0.275
X13.225Y-0.175
X11.5375Y-2.025
X11.7875Y-1.925
X5.35Y-0.275
X5.6Y-0.175
X0.225Y-3.525
X0.475Y-3.425
X1.225Y-0.275
X1.475Y-0.175
X10.6937Y-3.525
X10.9437Y-3.425
X1.3187Y-2.775
X1.5687Y-2.675
X0.225Y-0.275
X0.475Y-0.175
X0.225Y-2.275
X0.475Y-2.175
X12.975Y-1.275
X13.225Y-1.175
X10.475Y-0.275
X10.725Y-0.175
X7.975Y-0.275
X8.225Y-0.175
X11.0687Y-3.525
X11.3187Y-3.425
X8.975Y-0.275
X9.225Y-0.175
X1.5062Y-2.775
X1.7562Y-2.675
X12.675Y-2.4
X12.775Y-2.65
X8.9125Y-3.525
X9.1625Y-3.425
X0.225Y-2.025
X0.475Y-1.925
X7.85Y-0.275
X8.1Y-0.175
X11.725Y-3.525
X11.975Y-3.425
X10.975Y-1.275
X11.225Y-1.175
X12.975Y-2.775
X13.225Y-2.675
X4.475Y-0.275
X4.725Y-0.175
X7.6Y-2.025
X7.85Y-1.925
X10.0375Y-2.775
X10.2875Y-2.675
X7.4125Y-3.525
X7.6625Y-3.425
X2.2563Y-4.275
X2.5063Y-4.175
X7.225Y-1.275
X7.475Y-1.175
X9.1Y-2.025
X9.35Y-1.925
X3.1Y-2.025
X3.35Y-1.925
X5.9125Y-3.525
X6.1625Y-3.425
X0.225Y-4.275
X0.475Y-4.175
X2.725Y-1.275
X2.975Y-1.175
X4.0375Y-2.775
X4.2875Y-2.675
X4.4125Y-3.525
X4.6625Y-3.425
X9.475Y-0.275
X9.725Y-0.175
X3.1938Y-4.275
X3.4438Y-4.175
X10.6Y-2.025
X10.85Y-1.925
X6.2875Y-2.775
X6.5375Y-2.675
X9.85Y-4.275
X10.1Y-4.175
X13.725Y-2.775
X13.975Y-2.675
X10.225Y-1.275
X10.475Y-1.175
X1.6937Y-3.525
X1.9437Y-3.425
X1.975Y-1.275
X2.225Y-1.175
X5.5375Y-2.775
X5.7875Y-2.675
X6.0062Y-4.275
X6.2562Y-4.175
X12.725Y-2.025
X12.975Y-1.925
T8
X10.6088Y-5.1575
X7.125Y-5.1575
X0.1575Y0.1575
X10.6088Y0.1575
X7.125Y0.1575
X3.6412Y-5.1575
X0.1575Y-5.1575
X14.0925Y-5.1575
X3.6412Y0.1575
X14.0925Y0.1575
T7
G00X0.2018Y-0.5159
M15
G01X0.1762Y-0.4716
M16
G05
G00X0.5837Y-0.2954
M15
G01X0.5581Y-0.2511
M16
G05
G00X13.7562Y-2.1859
M15
G01X13.8034Y-2.1659
M16
G05
G00X13.9285Y-2.5918
M15
G01X13.9756Y-2.5718
M16
G05
T0
M30
