G04 #@! TF.GenerationSoftware,KiCad,Pcbnew,(5.1.0)-1*
G04 #@! TF.CreationDate,2019-05-14T20:04:06-07:00*
G04 #@! TF.ProjectId,mad cat,6d616420-6361-4742-9e6b-696361645f70,rev?*
G04 #@! TF.SameCoordinates,Original*
G04 #@! TF.FileFunction,Profile,NP*
%FSLAX46Y46*%
G04 Gerber Fmt 4.6, Leading zero omitted, Abs format (unit mm)*
G04 Created by KiCad (PCBNEW (5.1.0)-1) date 2019-05-14 20:04:06*
%MOMM*%
%LPD*%
G04 APERTURE LIST*
%ADD10C,0.100000*%
G04 APERTURE END LIST*
D10*
X200500000Y-120000000D02*
G75*
G02X200500000Y-121000000I0J-500000D01*
G01*
X232500000Y-123000000D02*
G75*
G02X232500000Y-122000000I0J500000D01*
G01*
X276500000Y-122000000D02*
G75*
G02X276500000Y-123000000I0J-500000D01*
G01*
X232500000Y-122000000D02*
X276500000Y-122000000D01*
X232500000Y-123000000D02*
X276500000Y-123000000D01*
X87500000Y-119100000D02*
G75*
G02X87500000Y-120100000I0J-500000D01*
G01*
X247000000Y-24000000D02*
G75*
G02X247000000Y-23000000I0J500000D01*
G01*
X247000000Y-24000000D02*
X292000000Y-24000000D01*
X247000000Y-23000000D02*
X292000000Y-23000000D01*
X292000000Y-23000000D02*
G75*
G02X292000000Y-24000000I0J-500000D01*
G01*
X32500000Y-120100000D02*
G75*
G02X32500000Y-119100000I0J500000D01*
G01*
X144500000Y-121000000D02*
G75*
G02X144500000Y-120000000I0J500000D01*
G01*
X144500000Y-120000000D02*
X200500000Y-120000000D01*
X144500000Y-121000000D02*
X200500000Y-121000000D01*
X32500000Y-120100000D02*
X87500000Y-120100000D01*
X32500000Y-119100000D02*
X87500000Y-119100000D01*
X89500000Y-23000000D02*
G75*
G02X89500000Y-24000000I0J-500000D01*
G01*
X44500000Y-24000000D02*
G75*
G02X44500000Y-23000000I0J500000D01*
G01*
X44500000Y-23000000D02*
X89500000Y-23000000D01*
X44500000Y-24000000D02*
X89500000Y-24000000D01*
X0Y-127000000D02*
X0Y0D01*
X361950000Y-127000000D02*
X361950000Y0D01*
X361950000Y-132000000D02*
G75*
G02X351950000Y-132000000I-5000000J0D01*
G01*
X97987500Y-132000000D02*
X97987500Y-127000000D01*
X263962500Y-132000000D02*
X263962500Y-127000000D01*
X175975000Y-127000000D02*
X97987500Y-127000000D01*
X185975000Y-132000000D02*
X185975000Y-127000000D01*
X185975000Y-132000000D02*
G75*
G02X175975000Y-132000000I-5000000J0D01*
G01*
X0Y-127000000D02*
X0Y-132000000D01*
X87987500Y-127000000D02*
X10000000Y-127000000D01*
X263962500Y-127000000D02*
X185975000Y-127000000D01*
X175975000Y-132000000D02*
X175975000Y-127000000D01*
X10000000Y-127000000D02*
X10000000Y-132000000D01*
X97987500Y-132000000D02*
G75*
G02X87987500Y-132000000I-5000000J0D01*
G01*
X87987500Y-132000000D02*
X87987500Y-127000000D01*
X361950000Y-127000000D02*
X361950000Y-132000000D01*
X351950000Y-127000000D02*
X273962500Y-127000000D01*
X273962500Y-132000000D02*
G75*
G02X263962500Y-132000000I-5000000J0D01*
G01*
X273962500Y-132000000D02*
X273962500Y-127000000D01*
X10000000Y-132000000D02*
G75*
G02X0Y-132000000I-5000000J0D01*
G01*
X351950000Y-127000000D02*
X351950000Y-132000000D01*
X273962500Y0D02*
X351950000Y0D01*
X185975000Y0D02*
X263962500Y0D01*
X97987500Y0D02*
X175975000Y0D01*
X10000000Y0D02*
X87987500Y0D01*
X273962500Y5000000D02*
X273962500Y0D01*
X263962500Y5000000D02*
X263962500Y0D01*
X263962500Y5000000D02*
G75*
G02X273962500Y5000000I5000000J0D01*
G01*
X87987500Y5000000D02*
X87987500Y0D01*
X97987500Y5000000D02*
X97987500Y0D01*
X87987500Y5000000D02*
G75*
G02X97987500Y5000000I5000000J0D01*
G01*
X185975000Y5000000D02*
X185975000Y0D01*
X175975000Y5000000D02*
X175975000Y0D01*
X175975000Y5000000D02*
G75*
G02X185975000Y5000000I5000000J0D01*
G01*
X351950000Y5000000D02*
G75*
G02X361950000Y5000000I5000000J0D01*
G01*
X351950000Y0D02*
X351950000Y5000000D01*
X361950000Y0D02*
X361950000Y5000000D01*
X0Y5000000D02*
G75*
G02X10000000Y5000000I5000000J0D01*
G01*
X10000000Y0D02*
X10000000Y5000000D01*
X0Y0D02*
X0Y5000000D01*
M02*
