M48
; DRILL file {KiCad (5.1.0)-1} date 5/14/2019 8:04:07 PM
; FORMAT={-:-/ absolute / inch / decimal}
; #@! TF.CreationDate,2019-05-14T20:04:07-07:00
; #@! TF.GenerationSoftware,Kicad,Pcbnew,(5.1.0)-1
; #@! TF.FileFunction,Plated,1,2,PTH
FMAT,2
INCH
T1C0.0157
T2C0.0197
T3C0.0236
T4C0.0256
T5C0.0354
T6C0.0394
T7C0.0591
T8C0.1260
%
G90
G05
T1
X0.1287Y-0.6299
X0.2362Y-0.685
X0.3228Y-1.0079
X0.3429Y-1.0748
X0.6496Y-1.6496
X0.6496Y-2.4055
X0.6496Y-3.1575
X0.6496Y-3.9055
X0.6732Y-1.1929
X0.7087Y-4.7087
X0.9943Y-1.1473
X1.0394Y-4.7402
X1.0709Y-4.6654
X1.0866Y-0.6417
X1.0906Y-0.9528
X1.1024Y-1.6496
X1.1102Y-4.7441
X1.126Y-4.6614
X1.1535Y-4.748
X1.1772Y-0.6535
X1.1969Y-3.1535
X1.1969Y-3.9016
X1.2874Y-2.4055
X3.1063Y-4.6575
X4.6574Y-4.6929
X4.6969Y-4.6929
X5.0276Y-1.752
X5.0276Y-3.937
X5.0709Y-3.937
X5.1142Y-3.937
X5.126Y-0.7205
X5.1535Y-3.9567
X5.374Y-2.4724
X5.3819Y-4.8976
X5.3819Y-4.9371
X5.4006Y-4.2037
X5.4606Y-3.9449
X5.4961Y-3.2165
X5.5046Y-3.9377
X5.6063Y-4.4094
X5.6496Y-3.9921
X6.1865Y-4.0133
X6.937Y-4.0315
X7.689Y-4.0472
X8.5157Y-4.8216
X8.9567Y-4.8031
X8.9764Y-4.8425
X10.9961Y-4.8465
X11.8504Y-4.8936
X11.9882Y-1.4488
X12.2402Y-2.374
X12.2598Y-1.6575
X12.5039Y-2.374
X12.8504Y-1.4016
X12.9961Y-4.9116
X13.2323Y-1.6535
X13.2834Y-2.8858
X13.4506Y-4.9112
X13.4785Y-4.9392
X13.5079Y-2.5276
T2
X0.252Y-0.8819
X0.7874Y-1.0512
X0.9213Y-1.0433
X4.7756Y-4.3071
X4.8911Y-4.5919
X5.0039Y-4.7008
X5.2008Y-4.8031
X5.2559Y-4.126
X5.5157Y-4.4882
X12.4488Y-4.1882
X12.45Y-3.8492
T3
X4.6299Y-4.2795
X4.7441Y-4.6535
X4.7913Y-4.0039
X4.8268Y-4.7992
X4.8661Y-4.185
X4.97Y-4.3504
X13.9291Y-2.8622
T4
X0.0931Y-0.825
X0.0931Y-0.875
X0.0931Y-0.925
X0.1431Y-0.825
X0.1431Y-0.875
X0.1431Y-0.925
T5
X12.45Y-1.0
X12.55Y-1.0
T6
X13.5701Y-2.5624
X13.6193Y-2.6476
X13.6685Y-2.7329
X14.0645Y-2.277
X14.1629Y-2.4474
X13.5658Y-2.3394
X13.6074Y-2.2502
X13.649Y-2.161
X14.0832Y-2.5807
X14.1664Y-2.4023
X0.1843Y-0.153
X0.3681Y-0.0824
X0.3889Y-0.6859
X0.4808Y-0.6507
X0.5727Y-0.6154
T7
X6.85Y-2.025
X6.876Y-1.8986
X7.1Y-1.925
X7.124Y-1.9478
X6.6625Y-3.525
X6.6885Y-3.3986
X6.9125Y-3.425
X6.9365Y-3.4478
X2.35Y-2.025
X2.376Y-1.8986
X2.6Y-1.925
X2.624Y-1.9478
X9.85Y-4.275
X9.876Y-4.1486
X10.1Y-4.175
X10.124Y-4.1978
X10.7875Y-4.275
X10.8135Y-4.1486
X11.0375Y-4.175
X11.0615Y-4.1978
X2.5375Y-2.775
X2.5635Y-2.6486
X2.7875Y-2.675
X2.8115Y-2.6978
X2.225Y-0.275
X2.251Y-0.1486
X2.475Y-0.175
X2.499Y-0.1978
X3.475Y-0.275
X3.501Y-0.1486
X3.725Y-0.175
X3.749Y-0.1978
X3.2875Y-2.775
X3.3135Y-2.6486
X3.5375Y-2.675
X3.5615Y-2.6978
X9.475Y-0.275
X9.501Y-0.1486
X9.725Y-0.175
X9.749Y-0.1978
X6.475Y-1.275
X6.501Y-1.1486
X6.725Y-1.175
X6.749Y-1.1978
X10.975Y-1.275
X11.001Y-1.1486
X11.225Y-1.175
X11.249Y-1.1978
X1.4125Y-2.025
X1.4385Y-1.8986
X1.6625Y-1.925
X1.6865Y-1.9478
X11.725Y-1.275
X11.751Y-1.1486
X11.975Y-1.175
X11.999Y-1.1978
X7.4125Y-3.525
X7.4385Y-3.3986
X7.6625Y-3.425
X7.6865Y-3.4478
X11.0687Y-3.525
X11.0947Y-3.3986
X11.3187Y-3.425
X11.3428Y-3.4478
X9.6625Y-4.275
X9.6885Y-4.1486
X9.9125Y-4.175
X9.9365Y-4.1978
X4.475Y-0.275
X4.501Y-0.1486
X4.725Y-0.175
X4.749Y-0.1978
X11.725Y-3.525
X11.751Y-3.3986
X11.975Y-3.425
X11.999Y-3.4478
X11.8812Y-2.35
X11.9584Y-2.624
X11.9812Y-2.6
X12.0076Y-2.376
X5.5375Y-2.775
X5.5635Y-2.6486
X5.7875Y-2.675
X5.8115Y-2.6978
X6.475Y-4.275
X6.501Y-4.1486
X6.725Y-4.175
X6.749Y-4.1978
X13.475Y-4.525
X13.501Y-4.3986
X13.725Y-4.425
X13.749Y-4.4478
X13.975Y-3.1
X14.0522Y-3.374
X14.075Y-3.35
X14.1014Y-3.126
X5.6Y-0.275
X5.626Y-0.1486
X5.85Y-0.175
X5.874Y-0.1978
X8.1625Y-3.525
X8.1885Y-3.3986
X8.4125Y-3.425
X8.4365Y-3.4478
X8.5375Y-2.775
X8.5635Y-2.6486
X8.7875Y-2.675
X8.8115Y-2.6978
X1.5062Y-2.775
X1.5322Y-2.6486
X1.7562Y-2.675
X1.7803Y-2.6978
X7.6Y-2.025
X7.626Y-1.8986
X7.85Y-1.925
X7.874Y-1.9478
X12.975Y-0.275
X13.001Y-0.1486
X13.225Y-0.175
X13.249Y-0.1978
X10.475Y-0.275
X10.501Y-0.1486
X10.725Y-0.175
X10.749Y-0.1978
X1.975Y-0.275
X2.001Y-0.1486
X2.225Y-0.175
X2.249Y-0.1978
X4.0375Y-2.775
X4.0635Y-2.6486
X4.2875Y-2.675
X4.3115Y-2.6978
X9.2875Y-2.775
X9.3135Y-2.6486
X9.5375Y-2.675
X9.5615Y-2.6978
X12.225Y-0.275
X12.251Y-0.1486
X12.475Y-0.175
X12.499Y-0.1978
X8.975Y-0.275
X9.001Y-0.1486
X9.225Y-0.175
X9.249Y-0.1978
X11.2562Y-2.775
X11.2822Y-2.6486
X11.5062Y-2.675
X11.5303Y-2.6978
X7.975Y-1.275
X8.001Y-1.1486
X8.225Y-1.175
X8.249Y-1.1978
X8.35Y-2.025
X8.376Y-1.8986
X8.6Y-1.925
X8.624Y-1.9478
X0.225Y-1.275
X0.251Y-1.1486
X0.475Y-1.175
X0.499Y-1.1978
X0.225Y-4.275
X0.251Y-4.1486
X0.475Y-4.175
X0.499Y-4.1978
X1.3187Y-2.775
X1.3447Y-2.6486
X1.5687Y-2.675
X1.5928Y-2.6978
X3.85Y-2.025
X3.876Y-1.8986
X4.1Y-1.925
X4.124Y-1.9478
X4.4125Y-3.525
X4.4385Y-3.3986
X4.6625Y-3.425
X4.6865Y-3.4478
X13.725Y-2.025
X13.751Y-1.8986
X13.975Y-1.925
X13.999Y-1.9478
X1.225Y-0.275
X1.251Y-0.1486
X1.475Y-0.175
X1.499Y-0.1978
X12.725Y-4.525
X12.751Y-4.3986
X12.975Y-4.425
X12.999Y-4.4478
X12.975Y-2.35
X13.0522Y-2.624
X13.075Y-2.6
X13.1014Y-2.376
X2.5375Y-4.275
X2.5635Y-4.1486
X2.7875Y-4.175
X2.8115Y-4.1978
X8.725Y-1.275
X8.751Y-1.1486
X8.975Y-1.175
X8.999Y-1.1978
X11.225Y-0.275
X11.251Y-0.1486
X11.475Y-0.175
X11.499Y-0.1978
X4.6Y-0.275
X4.626Y-0.1486
X4.85Y-0.175
X4.874Y-0.1978
X3.1938Y-4.275
X3.2197Y-4.1486
X3.4438Y-4.175
X3.4678Y-4.1978
X9.6625Y-3.525
X9.6885Y-3.3986
X9.9125Y-3.425
X9.9365Y-3.4478
X2.725Y-1.275
X2.751Y-1.1486
X2.975Y-1.175
X2.999Y-1.1978
X11.975Y-4.525
X12.001Y-4.3986
X12.225Y-4.425
X12.249Y-4.4478
X10.225Y-1.275
X10.251Y-1.1486
X10.475Y-1.175
X10.499Y-1.1978
X13.725Y-3.525
X13.751Y-3.3986
X13.975Y-3.425
X13.999Y-3.4478
X5.35Y-2.025
X5.376Y-1.8986
X5.6Y-1.925
X5.624Y-1.9478
X8.9125Y-3.525
X8.9385Y-3.3986
X9.1625Y-3.425
X9.1865Y-3.4478
X3.2875Y-4.275
X3.3135Y-4.1486
X3.5375Y-4.175
X3.5615Y-4.1978
X6.35Y-0.275
X6.376Y-0.1486
X6.6Y-0.175
X6.624Y-0.1978
X0.225Y-3.525
X0.251Y-3.3986
X0.475Y-3.425
X0.499Y-3.4478
X11.5375Y-2.025
X11.5635Y-1.8986
X11.7875Y-1.925
X11.8115Y-1.9478
X7.7875Y-2.775
X7.8135Y-2.6486
X8.0375Y-2.675
X8.0615Y-2.6978
X10.225Y-0.275
X10.251Y-0.1486
X10.475Y-0.175
X10.499Y-0.1978
X13.975Y-4.1
X14.0522Y-4.374
X14.075Y-4.35
X14.1014Y-4.126
X9.1Y-2.025
X9.126Y-1.8986
X9.35Y-1.925
X9.374Y-1.9478
X6.0062Y-4.275
X6.0322Y-4.1486
X6.2562Y-4.175
X6.2803Y-4.1978
X2.975Y-0.275
X3.001Y-0.1486
X3.225Y-0.175
X3.249Y-0.1978
X3.725Y-0.275
X3.751Y-0.1486
X3.975Y-0.175
X3.999Y-0.1978
X7.975Y-0.275
X8.001Y-0.1486
X8.225Y-0.175
X8.249Y-0.1978
X6.2875Y-2.775
X6.3135Y-2.6486
X6.5375Y-2.675
X6.5615Y-2.6978
X3.475Y-1.275
X3.501Y-1.1486
X3.725Y-1.175
X3.749Y-1.1978
X3.6625Y-3.525
X3.6885Y-3.3986
X3.9125Y-3.425
X3.9365Y-3.4478
X9.725Y-0.275
X9.751Y-0.1486
X9.975Y-0.175
X9.999Y-0.1978
X2.1625Y-3.525
X2.1885Y-3.3986
X2.4125Y-3.425
X2.4365Y-3.4478
X8.9125Y-4.275
X8.9385Y-4.1486
X9.1625Y-4.175
X9.1865Y-4.1978
X10.7875Y-2.775
X10.8135Y-2.6486
X11.0375Y-2.675
X11.0615Y-2.6978
X9.85Y-2.025
X9.876Y-1.8986
X10.1Y-1.925
X10.124Y-1.9478
X1.975Y-1.275
X2.001Y-1.1486
X2.225Y-1.175
X2.249Y-1.1978
X12.725Y-3.775
X12.751Y-3.6486
X12.975Y-3.675
X12.999Y-3.6978
X1.3187Y-4.275
X1.3447Y-4.1486
X1.5687Y-4.175
X1.5928Y-4.1978
X1.225Y-1.275
X1.251Y-1.1486
X1.475Y-1.175
X1.499Y-1.1978
X9.475Y-1.275
X9.501Y-1.1486
X9.725Y-1.175
X9.749Y-1.1978
X12.975Y-1.025
X13.001Y-0.8986
X13.225Y-0.925
X13.249Y-0.9478
X2.9125Y-3.525
X2.9385Y-3.3986
X3.1625Y-3.425
X3.1865Y-3.4478
X1.3187Y-3.525
X1.3447Y-3.3986
X1.5687Y-3.425
X1.5928Y-3.4478
X10.6Y-2.025
X10.626Y-1.8986
X10.85Y-1.925
X10.874Y-1.9478
X5.9125Y-3.525
X5.9385Y-3.3986
X6.1625Y-3.425
X6.1865Y-3.4478
X10.0375Y-4.275
X10.0635Y-4.1486
X10.2875Y-4.175
X10.3115Y-4.1978
X0.225Y-2.775
X0.251Y-2.6486
X0.475Y-2.675
X0.499Y-2.6978
X8.725Y-0.275
X8.751Y-0.1486
X8.975Y-0.175
X8.999Y-0.1978
X1.4125Y-4.275
X1.4385Y-4.1486
X1.6625Y-4.175
X1.6865Y-4.1978
X6.1Y-4.275
X6.126Y-4.1486
X6.35Y-4.175
X6.374Y-4.1978
X4.7875Y-2.775
X4.8135Y-2.6486
X5.0375Y-2.675
X5.0615Y-2.6978
X6.1Y-0.275
X6.126Y-0.1486
X6.35Y-0.175
X6.374Y-0.1978
X4.225Y-1.275
X4.251Y-1.1486
X4.475Y-1.175
X4.499Y-1.1978
X6.85Y-0.275
X6.876Y-0.1486
X7.1Y-0.175
X7.124Y-0.1978
X3.1Y-2.025
X3.126Y-1.8986
X3.35Y-1.925
X3.374Y-1.9478
X11.975Y-3.775
X12.001Y-3.6486
X12.225Y-3.675
X12.249Y-3.6978
X10.6937Y-3.525
X10.7197Y-3.3986
X10.9437Y-3.425
X10.9678Y-3.4478
X13.725Y-0.275
X13.751Y-0.1486
X13.975Y-0.175
X13.999Y-0.1978
X5.35Y-0.275
X5.376Y-0.1486
X5.6Y-0.175
X5.624Y-0.1978
X10.0375Y-2.775
X10.0635Y-2.6486
X10.2875Y-2.675
X10.3115Y-2.6978
X13.225Y-2.35
X13.3022Y-2.624
X13.325Y-2.6
X13.3514Y-2.376
X2.35Y-4.275
X2.376Y-4.1486
X2.6Y-4.175
X2.624Y-4.1978
X11.35Y-1.275
X11.376Y-1.1486
X11.6Y-1.175
X11.624Y-1.1978
X7.225Y-1.275
X7.251Y-1.1486
X7.475Y-1.175
X7.499Y-1.1978
X11.225Y-4.525
X11.251Y-4.3986
X11.475Y-4.425
X11.499Y-4.4478
X6.1Y-2.025
X6.126Y-1.8986
X6.35Y-1.925
X6.374Y-1.9478
X4.6Y-2.025
X4.626Y-1.8986
X4.85Y-1.925
X4.874Y-1.9478
X7.1Y-0.275
X7.126Y-0.1486
X7.35Y-0.175
X7.374Y-0.1978
X0.225Y-0.275
X0.251Y-0.1486
X0.475Y-0.175
X0.499Y-0.1978
X0.225Y-4.525
X0.251Y-4.3986
X0.475Y-4.425
X0.499Y-4.4478
X7.0375Y-2.775
X7.0635Y-2.6486
X7.2875Y-2.675
X7.3115Y-2.6978
X0.225Y-2.025
X0.251Y-1.8986
X0.475Y-1.925
X0.499Y-1.9478
X5.725Y-1.275
X5.751Y-1.1486
X5.975Y-1.175
X5.999Y-1.1978
X1.6937Y-3.525
X1.7197Y-3.3986
X1.9437Y-3.425
X1.9678Y-3.4478
X5.1625Y-3.525
X5.1885Y-3.3986
X5.4125Y-3.425
X5.4365Y-3.4478
X13.725Y-1.025
X13.751Y-0.8986
X13.975Y-0.925
X13.999Y-0.9478
X7.85Y-0.275
X7.876Y-0.1486
X8.1Y-0.175
X8.124Y-0.1978
X4.975Y-1.275
X5.001Y-1.1486
X5.225Y-1.175
X5.249Y-1.1978
X2.725Y-0.275
X2.751Y-0.1486
X2.975Y-0.175
X2.999Y-0.1978
X2.2563Y-4.275
X2.2822Y-4.1486
X2.5063Y-4.175
X2.5303Y-4.1978
X5.725Y-4.275
X5.751Y-4.1486
X5.975Y-4.175
X5.999Y-4.1978
T8
X0.1969Y0.1969
X7.125Y-5.1969
X14.0531Y-5.1969
X0.1969Y-5.1969
X10.5891Y-5.1969
X3.6609Y-5.1969
X10.5891Y0.1969
X14.0531Y0.1969
X3.6609Y0.1969
X7.125Y0.1969
T7
G00X0.1783Y-0.4779
M15
G01X0.16Y-0.4301
M16
G05
G00X0.59Y-0.3199
M15
G01X0.5717Y-0.2721
M16
G05
G00X13.7426Y-2.3219
M15
G01X13.7869Y-2.2963
M16
G05
G00X13.9631Y-2.7037
M15
G01X14.0074Y-2.6781
M16
G05
G00X13.7586Y-2.564
M15
G01X13.805Y-2.5856
M16
G05
G00X13.945Y-2.1644
M15
G01X13.9914Y-2.186
M16
G05
T0
M30
