G04 #@! TF.GenerationSoftware,KiCad,Pcbnew,(5.1.0)-1*
G04 #@! TF.CreationDate,2019-05-22T02:08:41-07:00*
G04 #@! TF.ProjectId,mad cat,6d616420-6361-4742-9e6b-696361645f70,rev?*
G04 #@! TF.SameCoordinates,Original*
G04 #@! TF.FileFunction,Profile,NP*
%FSLAX46Y46*%
G04 Gerber Fmt 4.6, Leading zero omitted, Abs format (unit mm)*
G04 Created by KiCad (PCBNEW (5.1.0)-1) date 2019-05-22 02:08:41*
%MOMM*%
%LPD*%
G04 APERTURE LIST*
%ADD10C,0.100000*%
G04 APERTURE END LIST*
D10*
X180000000Y-117000000D02*
G75*
G02X179500000Y-116500000I0J500000D01*
G01*
X200000000Y-117000000D02*
X180000000Y-117000000D01*
X200000000Y-117000000D02*
G75*
G02X200000000Y-118000000I0J-500000D01*
G01*
X178500000Y-105500000D02*
G75*
G02X179500000Y-105500000I500000J0D01*
G01*
X178500000Y-116500000D02*
X178500000Y-105500000D01*
X179500000Y-105500000D02*
X179500000Y-116500000D01*
X139000000Y-118000000D02*
G75*
G02X138000000Y-117000000I0J1000000D01*
G01*
X139000000Y-118000000D02*
X200000000Y-118000000D01*
X138000000Y-105500000D02*
X138000000Y-117000000D01*
X139500000Y-117000000D02*
G75*
G02X139000000Y-116500000I0J500000D01*
G01*
X138000000Y-105500000D02*
G75*
G02X139000000Y-105500000I500000J0D01*
G01*
X139000000Y-116500000D02*
X139000000Y-105500000D01*
X139500000Y-117000000D02*
X178000000Y-117000000D01*
X178500000Y-116500000D02*
G75*
G02X178000000Y-117000000I-500000J0D01*
G01*
X255000000Y-123250000D02*
X295000000Y-123250000D01*
X255000000Y-123250000D02*
G75*
G02X255000000Y-122250000I0J500000D01*
G01*
X255000000Y-122250000D02*
X295000000Y-122250000D01*
X295000000Y-122250000D02*
G75*
G02X295000000Y-123250000I0J-500000D01*
G01*
X54000000Y-123250000D02*
X104000000Y-123250000D01*
X104000000Y-122250000D02*
G75*
G02X104000000Y-123250000I0J-500000D01*
G01*
X251625000Y-21000000D02*
G75*
G02X251625000Y-20000000I0J500000D01*
G01*
X251625000Y-21000000D02*
X301625000Y-21000000D01*
X251625000Y-20000000D02*
X301625000Y-20000000D01*
X301625000Y-20000000D02*
G75*
G02X301625000Y-21000000I0J-500000D01*
G01*
X54000000Y-123250000D02*
G75*
G02X54000000Y-122250000I0J500000D01*
G01*
X54000000Y-122250000D02*
X104000000Y-122250000D01*
X84925000Y-20000000D02*
G75*
G02X84925000Y-21000000I0J-500000D01*
G01*
X34925000Y-21000000D02*
G75*
G02X34925000Y-20000000I0J500000D01*
G01*
X34925000Y-20000000D02*
X84925000Y-20000000D01*
X34925000Y-21000000D02*
X84925000Y-21000000D01*
X0Y-127000000D02*
X0Y0D01*
X361950000Y-127000000D02*
X361950000Y0D01*
X361950000Y-132000000D02*
G75*
G02X351950000Y-132000000I-5000000J0D01*
G01*
X97987500Y-132000000D02*
X97987500Y-127000000D01*
X263962500Y-132000000D02*
X263962500Y-127000000D01*
X175975000Y-127000000D02*
X97987500Y-127000000D01*
X185975000Y-132000000D02*
X185975000Y-127000000D01*
X185975000Y-132000000D02*
G75*
G02X175975000Y-132000000I-5000000J0D01*
G01*
X0Y-127000000D02*
X0Y-132000000D01*
X87987500Y-127000000D02*
X10000000Y-127000000D01*
X263962500Y-127000000D02*
X185975000Y-127000000D01*
X175975000Y-132000000D02*
X175975000Y-127000000D01*
X10000000Y-127000000D02*
X10000000Y-132000000D01*
X97987500Y-132000000D02*
G75*
G02X87987500Y-132000000I-5000000J0D01*
G01*
X87987500Y-132000000D02*
X87987500Y-127000000D01*
X361950000Y-127000000D02*
X361950000Y-132000000D01*
X351950000Y-127000000D02*
X273962500Y-127000000D01*
X273962500Y-132000000D02*
G75*
G02X263962500Y-132000000I-5000000J0D01*
G01*
X273962500Y-132000000D02*
X273962500Y-127000000D01*
X10000000Y-132000000D02*
G75*
G02X0Y-132000000I-5000000J0D01*
G01*
X351950000Y-127000000D02*
X351950000Y-132000000D01*
X273962500Y0D02*
X351950000Y0D01*
X185975000Y0D02*
X263962500Y0D01*
X97987500Y0D02*
X175975000Y0D01*
X10000000Y0D02*
X87987500Y0D01*
X273962500Y5000000D02*
X273962500Y0D01*
X263962500Y5000000D02*
X263962500Y0D01*
X263962500Y5000000D02*
G75*
G02X273962500Y5000000I5000000J0D01*
G01*
X87987500Y5000000D02*
X87987500Y0D01*
X97987500Y5000000D02*
X97987500Y0D01*
X87987500Y5000000D02*
G75*
G02X97987500Y5000000I5000000J0D01*
G01*
X185975000Y5000000D02*
X185975000Y0D01*
X175975000Y5000000D02*
X175975000Y0D01*
X175975000Y5000000D02*
G75*
G02X185975000Y5000000I5000000J0D01*
G01*
X351950000Y5000000D02*
G75*
G02X361950000Y5000000I5000000J0D01*
G01*
X351950000Y0D02*
X351950000Y5000000D01*
X361950000Y0D02*
X361950000Y5000000D01*
X0Y5000000D02*
G75*
G02X10000000Y5000000I5000000J0D01*
G01*
X10000000Y0D02*
X10000000Y5000000D01*
X0Y0D02*
X0Y5000000D01*
M02*
