M48
; DRILL file {KiCad (5.1.2)-1} date 5/29/2019 5:21:23 AM
; FORMAT={-:-/ absolute / inch / decimal}
; #@! TF.CreationDate,2019-05-29T05:21:23-07:00
; #@! TF.GenerationSoftware,Kicad,Pcbnew,(5.1.2)-1
; #@! TF.FileFunction,Plated,1,2,PTH
FMAT,2
INCH
T1C0.0118
T2C0.0157
T3C0.0197
T4C0.0236
T5C0.0256
T6C0.0394
T7C0.0591
T8C0.1063
%
G90
G05
T1
X0.0537Y-0.1833
X0.0538Y-2.2701
X0.0538Y-4.9271
X0.0542Y-2.8509
X0.0548Y-1.2274
X0.0548Y-4.4536
X0.056Y-4.5564
X0.0565Y-3.2198
X0.0569Y-2.0916
X0.0569Y-2.1797
X0.0573Y-1.9987
X0.0574Y-4.3594
X0.0578Y0.0023
X0.0584Y-1.806
X0.0587Y-3.606
X0.059Y-4.1793
X0.0591Y-3.0424
X0.0593Y-2.4735
X0.0596Y-3.7014
X0.06Y-4.2631
X0.06Y-4.8432
X0.0601Y-1.7088
X0.0607Y-1.4241
X0.0607Y-4.7389
X0.0611Y-2.7448
X0.0613Y-0.0953
X0.0613Y-1.8909
X0.0619Y-2.5612
X0.0627Y-3.9815
X0.0631Y-1.5188
X0.0633Y-1.1387
X0.064Y-1.0372
X0.0645Y-3.4173
X0.065Y-2.9444
X0.0653Y-3.89
X0.0655Y-4.0828
X0.0662Y-2.3786
X0.0662Y-1.6121
X0.0665Y-2.6542
X0.067Y-4.653
X0.0672Y-3.513
X0.0677Y-3.8008
X0.0679Y-1.3295
X0.068Y-3.3222
X0.0682Y-3.1316
X0.0998Y-4.9924
X0.117Y-2.4965
X0.1172Y-2.9668
X0.1188Y-3.4514
X0.1193Y-1.1764
X0.1194Y-4.7736
X0.1195Y-1.2659
X0.1198Y-1.7375
X0.1205Y-2.2173
X0.1217Y-2.5961
X0.1239Y-3.7375
X0.1244Y-4.0225
X0.1249Y-1.0677
X0.1251Y-4.2022
X0.1253Y-4.872
X0.1265Y-1.9232
X0.1283Y-3.2499
X0.1285Y-1.8285
X0.1289Y-2.0286
X0.1302Y-2.7751
X0.1302Y-3.3441
X0.1318Y-0.0366
X0.1321Y-2.6839
X0.1322Y-4.1074
X0.1324Y-4.5158
X0.154Y-0.1
X0.1588Y-4.9352
X0.1804Y-2.5679
X0.1827Y-1.7682
X0.1837Y-3.2318
X0.1851Y-2.4678
X0.1857Y-4.8434
X0.187Y-4.1705
X0.1875Y-2.6522
X0.1885Y-1.1417
X0.1891Y-1.8594
X0.1909Y-4.0858
X0.1911Y-3.3202
X0.1915Y-4.7386
X0.192Y-3.4094
X0.1923Y-3.9885
X0.2148Y-0.0354
X0.2171Y-4.8948
X0.2179Y-1.9316
X0.2199Y-4.9882
X0.2454Y-2.5004
X0.2465Y-4.1077
X0.2469Y-1.7125
X0.2476Y-1.7968
X0.2477Y-3.3467
X0.2502Y-4.0179
X0.2508Y-4.8081
X0.2542Y-2.5907
X0.2566Y-4.7101
X0.2575Y-3.255
X0.2579Y-1.1641
X0.2772Y-1.8668
X0.2797Y-3.4142
X0.2817Y-2.6534
X0.2835Y-4.1771
X0.2839Y-4.8704
X0.3073Y-1.7716
X0.3075Y-1.9356
X0.3103Y-0.7551
X0.3152Y-2.5328
X0.3159Y-4.7718
X0.3159Y-3.2901
X0.3161Y-4.9304
X0.3185Y-4.039
X0.3214Y-0.1923
X0.3401Y-1.2324
X0.3435Y-4.2059
X0.3464Y-4.8366
X0.3491Y-2.6841
X0.3493Y-1.8326
X0.3497Y-2.5924
X0.3499Y-3.4409
X0.3504Y-4.1139
X0.3519Y-0.8895
X0.3534Y-3.3443
X0.3702Y-4.0192
X0.3706Y-1.9988
X0.3851Y-4.8941
X0.4063Y-2.5275
X0.4066Y-4.7808
X0.4086Y-3.2891
X0.41Y-4.0812
X0.4111Y-1.7742
X0.4337Y-0.0633
X0.4339Y-4.8372
X0.4448Y-0.8831
X0.4466Y-4.9383
X0.4664Y-0.948
X0.4787Y-0.7939
X0.4791Y-4.7364
X0.4989Y-4.8944
X0.5003Y-4.8002
X0.5089Y-0.8522
X0.5281Y-0.9165
X0.5297Y-2.0186
X0.53Y-1.743
X0.5323Y-4.0761
X0.5347Y-3.2222
X0.5351Y-0.7594
X0.5373Y-2.7852
X0.5375Y-2.4603
X0.5378Y-3.9765
X0.5421Y-3.3149
X0.5428Y-2.5666
X0.5434Y-0.0657
X0.5595Y-4.8689
X0.5609Y-3.5109
X0.5634Y-1.2583
X0.5665Y-1.7971
X0.5676Y-4.2672
X0.5918Y-1.8634
X0.5918Y-2.6818
X0.5921Y-3.2527
X0.5921Y-3.7365
X0.5929Y-3.3506
X0.5939Y-1.4866
X0.5959Y-4.0123
X0.5971Y-4.1977
X0.5981Y-3.4406
X0.5983Y-2.4936
X0.5997Y-1.9579
X0.6Y-0.0885
X0.6025Y-2.9661
X0.6028Y-2.5969
X0.6043Y-0.7191
X0.6045Y-4.9352
X0.6053Y-4.108
X0.6065Y-0.8823
X0.6245Y-1.7371
X0.6252Y-2.0237
X0.6267Y-2.7572
X0.6281Y-1.2386
X0.6288Y-0.1621
X0.6334Y-2.2071
X0.6546Y-0.0615
X0.6547Y-0.6909
X0.6547Y-2.8215
X0.6566Y-1.2911
X0.658Y-2.6574
X0.6586Y-3.5115
X0.6589Y-4.871
X0.6594Y-2.122
X0.6599Y-1.8073
X0.6602Y-3.2181
X0.6603Y-4.4515
X0.6614Y-3.9906
X0.6619Y-4.0834
X0.6621Y-4.1694
X0.6646Y-4.2715
X0.665Y-1.4512
X0.6662Y-1.8945
X0.6665Y-2.5561
X0.6668Y-3.636
X0.6675Y-3.3151
X0.6676Y-2.937
X0.669Y-3.4082
X0.6694Y-2.462
X0.6866Y-0.2161
X0.6872Y-0.8863
X0.6876Y-2.1836
X0.6893Y-1.0114
X0.6898Y-4.8126
X0.6899Y-0.1207
X0.6913Y-4.9252
X0.692Y-3.7022
X0.6942Y-2.0559
X0.6954Y-0.3222
X0.6957Y-1.9552
X0.697Y-2.8734
X0.7Y-2.7175
X0.7006Y-4.3362
X0.7008Y-1.3552
X0.7014Y-3.5727
X0.7016Y-1.7072
X0.7177Y-2.5845
X0.7181Y-4.211
X0.7188Y-1.7738
X0.7204Y-0.6558
X0.7207Y-1.8573
X0.7213Y-2.9749
X0.7216Y-4.402
X0.7222Y-0.7548
X0.723Y-4.1119
X0.7233Y-4.0205
X0.7235Y-1.4175
X0.7248Y-3.4383
X0.7255Y-1.2376
X0.7258Y-2.4962
X0.7281Y-3.2523
X0.7305Y-2.7806
X0.7322Y-0.5607
X0.7324Y-3.3577
X0.7503Y-0.1577
X0.7506Y-3.8298
X0.7508Y-0.2484
X0.7512Y-2.8519
X0.7526Y-1.583
X0.7533Y-0.3426
X0.7536Y-4.2757
X0.7537Y-2.3318
X0.7552Y-1.2999
X0.7561Y-2.1147
X0.7562Y-1.9312
X0.757Y-2.6595
X0.7573Y-3.6071
X0.7576Y-4.8984
X0.7586Y-4.4604
X0.7621Y-2.0266
X0.7629Y-3.5087
X0.763Y-2.2084
X0.764Y-0.0698
X0.7813Y-3.7549
X0.783Y-4.0793
X0.7836Y-2.9162
X0.7845Y-0.5965
X0.7851Y-4.5149
X0.7854Y-2.9993
X0.7864Y-1.3644
X0.7868Y-3.9776
X0.7875Y-3.2905
X0.7881Y-0.691
X0.7884Y-2.2687
X0.7889Y-4.1751
X0.789Y-1.7347
X0.789Y-2.7227
X0.7919Y-1.4581
X0.7921Y-2.5284
X0.793Y-3.6743
X0.7931Y-4.3367
X0.794Y-3.3871
X0.7942Y-1.8268
X0.8153Y-0.3831
X0.8163Y-0.187
X0.8193Y-4.9324
X0.8241Y-0.0879
X0.8243Y-0.7659
X0.8267Y-0.2837
X0.8534Y-0.6265
X0.8784Y-0.1588
X0.8804Y-0.6885
X0.8809Y-0.0623
X0.8862Y-0.3502
X0.8864Y-0.2468
X0.8907Y-0.4458
X0.922Y-0.8207
X0.9416Y-0.3822
X0.953Y-0.8898
X0.9536Y-0.2863
X0.9539Y-0.0887
X0.9544Y-0.1915
X0.9755Y-0.4441
X0.9852Y-0.5413
X1.0021Y-0.1613
X1.0034Y-2.68
X1.0037Y-2.1253
X1.0044Y-3.5144
X1.0049Y-2.3062
X1.0052Y-1.7373
X1.0055Y-0.2467
X1.0055Y-3.6967
X1.0056Y-4.3609
X1.0066Y-1.8358
X1.0069Y-0.3464
X1.0069Y-1.545
X1.0071Y-4.0713
X1.0078Y-4.1811
X1.0086Y-2.4977
X1.0087Y-3.5991
X1.0088Y-3.4187
X1.0092Y-3.7925
X1.0094Y-2.5938
X1.0099Y-3.984
X1.0101Y-2.9711
X1.0108Y-1.9279
X1.0109Y-2.0305
X1.0111Y-1.2666
X1.0114Y-2.7785
X1.0128Y-4.4638
X1.0132Y-0.6041
X1.0138Y-4.2742
X1.0142Y-1.366
X1.0156Y-2.2132
X1.0164Y-3.3186
X1.0167Y-1.455
X1.0168Y-2.8834
X1.0171Y-0.0611
X1.0176Y-3.0599
X1.0177Y-3.2255
X1.0343Y-3.8624
X1.0654Y-3.386
X1.0655Y-3.0278
X1.0657Y-2.5547
X1.0658Y-1.5184
X1.066Y-0.9515
X1.0661Y-1.2282
X1.0679Y-3.5696
X1.0682Y-1.7654
X1.0682Y-4.4261
X1.0692Y-3.6658
X1.0702Y-2.7505
X1.0704Y-0.3747
X1.0704Y-3.4767
X1.0706Y-2.4709
X1.0707Y-4.2405
X1.071Y-0.7594
X1.071Y-4.1422
X1.072Y-1.4293
X1.0721Y-4.0505
X1.0723Y-3.2874
X1.0724Y-0.2842
X1.0726Y-3.9578
X1.0729Y-2.845
X1.0731Y-2.2433
X1.0731Y-2.1426
X1.0731Y-1.3213
X1.0735Y-1.9669
X1.0747Y-3.7629
X1.0748Y-0.8486
X1.0753Y-0.0876
X1.0753Y-2.3383
X1.0762Y-2.0487
X1.0767Y-1.0473
X1.077Y-3.1997
X1.077Y-1.8634
X1.0773Y-0.1876
X1.0774Y-0.6626
X1.0789Y-4.3262
X1.0791Y-2.6517
X1.0805Y-0.5739
X1.0811Y-2.9358
X1.1056Y-1.1105
X1.1087Y-3.8218
X1.1109Y-4.4864
X1.1112Y-1.5751
X1.1286Y-2.0255
X1.1293Y-1.4782
X1.1299Y-0.1512
X1.1303Y-4.172
X1.1306Y-3.7281
X1.1307Y-4.0751
X1.1319Y-4.356
X1.1321Y-4.2747
X1.1334Y-3.2598
X1.1336Y-0.8191
X1.1337Y-0.9211
X1.1344Y-1.8257
X1.135Y-3.5439
X1.1353Y-0.7227
X1.1363Y-2.8778
X1.1365Y-1.9222
X1.1371Y-1.0184
X1.1376Y-2.7766
X1.138Y-2.213
X1.138Y-0.0595
X1.139Y-3.9775
X1.1391Y-2.9726
X1.1393Y-2.5924
X1.1395Y-2.3018
X1.14Y-3.3496
X1.14Y-1.7359
X1.1401Y-2.1131
X1.1404Y-0.629
X1.1433Y-3.6282
X1.1437Y-2.6885
X1.1438Y-3.4512
X1.144Y-3.0588
X1.1443Y-2.501
X1.1615Y-4.8373
X1.1629Y-0.4779
X1.167Y-1.0773
X1.1683Y-1.5552
X1.1684Y-3.7878
X1.1929Y-3.2815
X1.1931Y-2.6523
X1.1934Y-2.0814
X1.1963Y-0.8523
X1.1978Y-1.985
X1.1981Y-4.0227
X1.1992Y-2.5615
X1.1993Y-4.2059
X1.1999Y-0.7632
X1.2011Y-2.4696
X1.2011Y-2.9968
X1.2012Y-2.184
X1.2016Y-2.275
X1.2033Y-1.6999
X1.2033Y-0.0873
X1.2046Y-1.8022
X1.2047Y-2.7515
X1.2053Y-3.3779
X1.2056Y-3.4798
X1.2057Y-1.1397
X1.2058Y-0.9424
X1.2064Y-1.8949
X1.2066Y-4.106
X1.2237Y-1.0158
X1.2299Y-0.151
X1.234Y-3.0672
X1.2354Y-3.2179
X1.2368Y-3.7347
X1.2554Y-1.0702
X1.2568Y-2.4936
X1.2578Y-2.315
X1.2581Y-1.8338
X1.2594Y-2.9645
X1.2599Y-2.0178
X1.2605Y-4.8327
X1.2624Y-1.9286
X1.2625Y-1.7386
X1.2626Y-4.1706
X1.263Y-4.0723
X1.2635Y-2.5943
X1.2635Y-0.7236
X1.2639Y-0.0609
X1.2649Y-0.8177
X1.2649Y-3.4082
X1.2659Y-4.4914
X1.2662Y-2.2099
X1.2671Y-0.9124
X1.2682Y-2.117
X1.2871Y-3.7661
X1.2878Y-0.1233
X1.2881Y-4.5494
X1.2907Y-1.5763
X1.2932Y-3.1917
X1.2939Y-0.6014
X1.2954Y-0.9771
X1.297Y-3.0413
X1.3012Y-2.659
X1.3013Y-1.1455
X1.3197Y-0.786
X1.3237Y-2.2486
X1.3267Y-1.7947
X1.3267Y-0.5415
X1.3271Y-1.893
X1.3271Y-0.8915
X1.3275Y-2.473
X1.3288Y-1.7004
X1.3299Y-4.1093
X1.3314Y-0.1818
X1.3316Y-1.2294
X1.332Y-1.5132
X1.3322Y-1.0442
X1.3323Y-3.1014
X1.3324Y-2.5557
X1.3325Y-0.6885
X1.3341Y-2.3459
X1.3499Y-1.6075
X1.3527Y-4.4879
X1.354Y-0.9485
X1.3546Y-2.6161
X1.3588Y-3.0095
X1.3599Y-1.1106
X1.3606Y-3.23
X1.3612Y-0.0581
X1.3631Y-4.8308
X1.3632Y-3.7363
X1.3643Y-4.1788
X1.3824Y-0.5612
X1.3841Y-0.7304
X1.3843Y-1.5558
X1.3853Y-2.4934
X1.3865Y-1.8368
X1.3872Y-1.7453
X1.3927Y-4.5484
X1.3951Y-0.825
X1.3951Y-3.0734
X1.3967Y-1.012
X1.4172Y-2.5666
X1.4173Y-3.4786
X1.4182Y-0.8825
X1.4193Y-4.1163
X1.4203Y-1.8974
X1.4215Y-3.1918
X1.426Y-1.07
X1.4289Y-3.757
X1.447Y-4.1768
X1.448Y-0.0557
X1.4517Y-3.0371
X1.4527Y-1.8039
X1.4589Y-2.4632
X1.4776Y-4.0775
X1.4873Y-2.3398
X1.4881Y-1.8625
X1.4894Y-2.5365
X1.4907Y-3.0957
X1.4915Y-3.2283
X1.508Y-2.28
X1.5089Y-1.5808
X1.51Y-0.4808
X1.5106Y-3.9565
X1.5115Y-1.4925
X1.5153Y-0.814
X1.5168Y-0.7287
X1.518Y-3.2895
X1.5184Y-1.0062
X1.5191Y-0.2812
X1.5193Y-1.9325
X1.5197Y-3.8499
X1.5226Y-0.5606
X1.5227Y-0.9138
X1.523Y-3.7657
X1.5434Y-3.1868
X1.5439Y-4.0128
X1.5473Y-1.2572
X1.5483Y-3.0087
X1.5488Y-1.0775
X1.5493Y-0.055
X1.5519Y-4.8311
X1.5524Y-2.4591
X1.5731Y-0.7874
X1.5732Y-4.529
X1.5735Y-3.0718
X1.5736Y-0.6933
X1.5736Y-1.1345
X1.5739Y-3.2486
X1.5768Y-3.8928
X1.5793Y-0.8823
X1.5794Y-3.7344
X1.5796Y-2.3095
X1.5814Y-0.1329
X1.5836Y-1.7129
X1.5838Y-1.6124
X1.5839Y-1.5243
X1.5848Y-0.5027
X1.5851Y-0.601
X1.5852Y-0.2163
X1.5857Y-0.9765
X1.6032Y-3.9537
X1.6048Y-0.2835
X1.6072Y-4.0417
X1.6076Y-1.2038
X1.6156Y-1.7668
X1.6182Y-1.0436
X1.6377Y-1.5539
X1.6395Y-0.725
X1.6404Y-0.8181
X1.6407Y-4.5604
X1.6414Y-0.1574
X1.6414Y-3.1971
X1.6416Y-4.8362
X1.6422Y-0.4786
X1.643Y-1.1105
X1.6435Y-3.7669
X1.6442Y-0.0567
X1.6464Y-1.2669
X1.6466Y-3.0415
X1.6485Y-1.4473
X1.6501Y-0.5744
X1.6501Y-0.917
X1.6673Y-4.4823
X1.6687Y-0.2263
X1.6705Y-3.407
X1.674Y-3.1059
X1.6747Y-1.7096
X1.6758Y-1.8077
X1.6763Y-1.1621
X1.6766Y-1.6104
X1.6789Y-0.4154
X1.6798Y-4.0221
X1.68Y-0.9806
X1.68Y-1.3218
X1.6802Y-0.3203
X1.6803Y-3.9138
X1.6985Y-0.7871
X1.7Y-1.3854
X1.7021Y-2.3121
X1.7025Y-0.886
X1.7026Y-2.2097
X1.7038Y-0.0943
X1.7043Y-1.0452
X1.7055Y-1.4908
X1.7064Y-0.6001
X1.7077Y-1.2271
X1.7079Y-2.4962
X1.7092Y-0.6974
X1.7123Y-0.4988
X1.7294Y-0.2447
X1.7297Y-0.346
X1.7338Y-1.2954
X1.7343Y-3.9846
X1.7344Y-4.8403
X1.7354Y-1.1074
X1.7356Y-0.4461
X1.7362Y-2.0194
X1.7362Y-0.9543
X1.7402Y-3.3575
X1.7406Y-0.1643
X1.7409Y-1.8392
X1.7423Y-1.7312
X1.7429Y-1.5462
X1.7614Y-2.3362
X1.7636Y-0.8166
X1.7637Y-2.2464
X1.7641Y-3.4123
X1.7661Y-1.6075
X1.7665Y-1.8903
X1.7698Y-0.7284
X1.7704Y-1.1768
X1.7705Y-1.4602
X1.7713Y-4.1791
X1.7724Y-0.5369
X1.773Y-1.3542
X1.7732Y-2.459
X1.7751Y-1.0158
X1.7759Y-0.0663
X1.793Y-0.6041
X1.793Y-1.9654
X1.7931Y-1.8005
X1.7937Y-0.2277
X1.7959Y-1.5208
X1.7966Y-4.237
X1.7968Y-2.5223
X1.8001Y-4.5815
X1.8041Y-0.4112
X1.8045Y-1.0729
X1.8053Y-0.1245
X1.8064Y-3.8313
X1.8064Y-1.2402
X1.8064Y-3.4707
X1.8069Y-1.7012
X1.8072Y-0.8911
X1.8078Y-0.3103
X1.8243Y-1.3946
X1.8258Y-4.8315
X1.8266Y-1.2979
X1.8275Y-2.308
X1.8277Y-0.6979
X1.8298Y-2.2124
X1.8299Y-0.7954
X1.8311Y-0.4703
X1.8311Y-0.9511
X1.8344Y-2.0215
X1.8354Y-1.8714
X1.8357Y-1.5736
X1.8367Y-1.1358
X1.8376Y-2.9681
X1.838Y-3.7681
X1.8392Y-4.1062
X1.856Y-3.0323
X1.856Y-0.8486
X1.8566Y-3.1874
X1.857Y-1.9318
X1.8573Y-0.1536
X1.8576Y-4.6196
X1.858Y-0.0617
X1.8586Y-1.4912
X1.8587Y-0.2467
X1.8605Y-4.1744
X1.8618Y-2.4707
X1.8637Y-0.5395
X1.8638Y-2.6615
X1.8642Y-4.518
X1.8656Y-2.5623
X1.8678Y-3.8539
X1.8679Y-1.0088
X1.8685Y-4.2625
X1.8699Y-1.1958
X1.8703Y-1.7427
X1.8705Y-2.0932
X1.8876Y-3.1023
X1.8881Y-4.045
X1.8894Y-2.1454
X1.8895Y-0.9211
X1.89Y-2.2373
X1.8904Y-3.2566
X1.8928Y-3.788
X1.8944Y-2.7225
X1.8952Y-1.5417
X1.8967Y-1.7957
X1.897Y-0.6003
X1.8983Y-4.3311
X1.8984Y-0.72
X1.8984Y-1.9859
X1.9024Y-2.3437
X1.9028Y-1.0811
X1.92Y-4.1119
X1.9204Y-0.474
X1.9204Y-2.9667
X1.9206Y-0.7904
X1.923Y-2.4992
X1.9232Y-2.5914
X1.9242Y-4.4573
X1.9249Y-1.1449
X1.9271Y-1.7002
X1.9278Y-0.9767
X1.9282Y-0.093
X1.9293Y-2.0621
X1.9313Y-3.3263
X1.9317Y-1.8667
X1.9331Y-1.6042
X1.9343Y-4.2117
X1.9345Y-2.778
X1.9525Y-2.3126
X1.9537Y-2.2155
X1.9546Y-4.5151
X1.955Y-3.0293
X1.9566Y-1.936
X1.9575Y-1.7714
X1.9578Y-0.1512
X1.9584Y-3.9828
X1.9587Y-2.839
X1.9597Y-3.2008
X1.9601Y-4.2713
X1.9602Y-2.6585
X1.9616Y-1.0359
X1.965Y-2.1249
X1.983Y-0.0633
X1.9854Y-3.1008
X1.9858Y-1.0995
X1.9861Y-2.726
X1.9894Y-4.0505
X1.9898Y-2.9062
X1.9919Y-1.9855
X1.9922Y-1.8346
X1.9947Y-2.4661
X1.9954Y-3.8182
X1.9956Y-3.2555
X1.997Y-2.5628
X1.9971Y-3.7367
X1.9976Y-4.3876
X1.9979Y-4.1376
X2.0144Y-2.6185
X2.0149Y-4.2084
X2.0153Y-0.8212
X2.0175Y-3.3181
X2.0177Y-0.132
X2.0177Y-0.7311
X2.0188Y-2.0597
X2.02Y-1.1621
X2.0209Y-2.152
X2.0209Y-2.2396
X2.0209Y-3.5092
X2.0214Y-2.9718
X2.0217Y-2.7879
X2.024Y-4.5487
X2.0253Y-1.9006
X2.0258Y-0.5036
X2.0264Y-4.833
X2.0269Y-2.333
X2.0272Y-1.7009
X2.0286Y-4.4537
X2.0291Y-3.9595
X2.046Y-3.3823
X2.0466Y-2.8468
X2.0482Y-1.9642
X2.0488Y-3.863
X2.0488Y-4.1143
X2.0498Y-0.8859
X2.0502Y-0.5735
X2.0528Y-3.7616
X2.0529Y-4.3246
X2.0543Y-3.0418
X2.056Y-1.7725
X2.0565Y-4.617
X2.0577Y-3.1983
X2.0581Y-2.4995
X2.0596Y-1.5728
X2.0602Y-4.0178
X2.0604Y-2.6816
X2.0776Y-2.3084
X2.0776Y-0.6936
X2.0785Y-1.1399
X2.0786Y-1.5247
X2.0787Y-2.021
X2.0787Y-2.5548
X2.0787Y-2.1125
X2.0788Y-3.0964
X2.0801Y-0.7837
X2.0803Y-0.9557
X2.0804Y-1.8343
X2.0806Y-2.75
X2.0823Y-0.0678
X2.0832Y-2.9056
X2.0853Y-4.4
X2.0872Y-3.257
X2.0907Y-1.2257
X2.0926Y-2.2149
X2.1092Y-3.7365
X2.1093Y-4.0408
X2.1094Y-1.6176
X2.1109Y-0.8509
X2.1119Y-1.9031
X2.1135Y-1.7128
X2.1153Y-3.8304
X2.116Y-0.2147
X2.1168Y-3.9467
X2.1172Y-2.8065
X2.1175Y-3.3129
X2.1182Y-4.8437
X2.1213Y-3.4161
X2.1234Y-2.9717
X2.1241Y-2.459
X2.1241Y-0.5391
X2.1242Y-2.6315
X2.1407Y-0.603
X2.1412Y-2.0616
X2.1418Y-2.8831
X2.1445Y-0.9164
X2.1476Y-1.7633
X2.1489Y-2.1465
X2.149Y-3.1856
X2.1498Y-1.9567
X2.1499Y-1.0061
X2.1512Y-2.6808
X2.1529Y-3.0412
X2.154Y-0.7309
X2.1542Y-1.5491
X2.1554Y-2.5332
X2.156Y-2.3316
X2.1562Y-2.2461
X2.1734Y-3.0996
X2.1756Y-2.758
X2.1794Y-4.5774
X2.1799Y-0.7914
X2.1802Y-3.3489
X2.1826Y-2.9376
X2.1831Y-2.5845
X2.1842Y-4.0104
X2.1852Y-1.8305
X2.1853Y-3.2626
X2.204Y-1.8995
X2.2052Y-2.6624
X2.206Y-0.9418
X2.208Y-4.4956
X2.2084Y-0.6893
X2.2087Y-1.0446
X2.2092Y-0.8511
X2.2092Y-4.1804
X2.2094Y-2.2079
X2.2101Y-1.7058
X2.211Y-2.1257
X2.2111Y-2.3016
X2.212Y-4.8418
X2.2123Y-2.4666
X2.2131Y-2.9967
X2.2135Y-1.9903
X2.2139Y-0.4997
X2.2147Y-2.8181
X2.2381Y-2.5343
X2.2386Y-3.1968
X2.2388Y-4.5496
X2.2394Y-2.8692
X2.2423Y-0.5669
X2.2433Y-3.0597
X2.2466Y-1.7722
X2.2467Y-2.7233
X2.2498Y-0.7649
X2.2707Y-3.4775
X2.2719Y-2.7801
X2.2722Y-2.5919
X2.2726Y-3.7563
X2.2727Y-0.8199
X2.2743Y-2.941
X2.2754Y-1.9331
X2.2761Y-2.3447
X2.2769Y-4.1375
X2.2797Y-1.4878
X2.2799Y-0.9158
X2.2812Y-1.841
X2.2813Y-1.0153
X2.2826Y-2.2485
X2.3029Y-2.6522
X2.3046Y-3.1007
X2.3053Y-0.6906
X2.3054Y-2.8428
X2.3056Y-3.0036
X2.3059Y-1.7324
X2.3071Y-2.4697
X2.3105Y-1.0823
X2.3107Y-1.2616
X2.3115Y-3.231
X2.313Y-1.5533
X2.3135Y-4.4934
X2.3136Y-0.5426
X2.3328Y-0.5999
X2.3337Y-2.9048
X2.3342Y-0.9427
X2.3343Y-0.8596
X2.3383Y-1.8964
X2.3384Y-1.1362
X2.3404Y-0.7636
X2.3413Y-0.1239
X2.3423Y-0.2215
X2.3438Y-2.7204
X2.3444Y-1.8042
X2.3449Y-2.5329
X2.3645Y-2.7822
X2.3653Y-1.2033
X2.3663Y-1.4815
X2.3668Y-3.0628
X2.3693Y-1.0074
X2.3695Y-3.1944
X2.3739Y-4.5157
X2.3743Y-2.9738
X2.3766Y-2.5993
X2.3768Y-1.5793
X2.3944Y-0.7213
X2.3994Y-0.8193
X2.4004Y-2.4681
X2.4007Y-1.0729
X2.402Y-0.9155
X2.4044Y-1.8341
X2.4047Y-2.8758
X2.4053Y-1.2633
X2.4053Y-2.6499
X2.4062Y-4.8403
X2.4088Y-4.5826
X2.4261Y-0.9735
X2.4263Y-2.7146
X2.4277Y-3.2264
X2.4281Y-1.5124
X2.4302Y-1.6097
X2.4307Y-2.5352
X2.4315Y-3.0029
X2.4329Y-1.1321
X2.436Y-1.3324
X2.4371Y-1.9002
X2.438Y-2.2793
X2.4381Y-1.4155
X2.4386Y-3.3143
X2.4407Y-3.1
X2.457Y-4.6103
X2.4584Y-2.5952
X2.4591Y-4.5198
X2.4603Y-0.6942
X2.4605Y-3.7265
X2.461Y-0.0653
X2.4617Y-0.5081
X2.4635Y-1.9558
X2.4639Y-1.2063
X2.4648Y-3.8874
X2.4658Y-2.3379
X2.4666Y-1.0479
X2.4673Y-0.7852
X2.4685Y-0.8879
X2.4703Y-0.6025
X2.4706Y-3.9894
X2.4891Y-1.7048
X2.4902Y-1.2581
X2.4924Y-2.6548
X2.4932Y-0.2796
X2.4933Y-1.1133
X2.4976Y-3.5142
X2.498Y-0.9493
X2.4989Y-2.4606
X2.4994Y-1.5454
X2.4998Y-1.3666
X2.5012Y-4.8401
X2.5013Y-1.4548
X2.5017Y-3.1931
X2.5031Y-3.0725
X2.5037Y-2.9664
X2.5209Y-0.7205
X2.5214Y-0.827
X2.5217Y-1.7759
X2.5225Y-3.861
X2.524Y-2.2768
X2.5241Y-1.1772
X2.5245Y-3.953
X2.5254Y-4.5606
X2.5272Y-2.5278
X2.5279Y-0.4704
X2.5282Y-1.0072
X2.5283Y-3.7668
X2.5314Y-1.6144
X2.5341Y-3.4131
X2.5341Y-0.5701
X2.5516Y-0.2556
X2.5526Y-2.3374
X2.5539Y-1.3275
X2.5576Y-1.0725
X2.5589Y-4.0163
X2.5604Y-3.4713
X2.5608Y-2.5957
X2.5627Y-4.6168
X2.5628Y-0.8787
X2.5634Y-1.5231
X2.5642Y-0.067
X2.5661Y-1.2282
X2.5672Y-1.4209
X2.5836Y-3.5414
X2.584Y-1.5772
X2.5846Y-1.8062
X2.5849Y-3.8883
X2.5853Y-0.1324
X2.586Y-1.7018
X2.5869Y-0.695
X2.5878Y-4.5173
X2.5884Y-0.7963
X2.5899Y-2.6571
X2.5911Y-0.9549
X2.593Y-0.5002
X2.5945Y-3.7018
X2.5957Y-4.831
X2.5966Y-1.1444
X2.597Y-0.598
X2.5973Y-3.357
X2.6148Y-3.5984
X2.6151Y-0.2868
X2.6151Y-1.2079
X2.6199Y-3.4196
X2.6201Y-0.8556
X2.6218Y-3.7672
X2.6227Y-3.04
X2.6227Y-1.4785
X2.6246Y-1.0131
X2.6259Y-0.1968
X2.6275Y-3.9579
X2.647Y-0.4708
X2.6519Y-2.3472
X2.653Y-2.7121
X2.6542Y-1.5566
X2.6549Y-0.561
X2.655Y-0.0672
X2.655Y-2.6238
X2.6551Y-3.4778
X2.6559Y-1.0769
X2.6571Y-1.7316
X2.6572Y-2.0209
X2.6574Y-3.2867
X2.6588Y-2.2491
X2.66Y-3.853
X2.6609Y-4.0129
X2.6616Y-3.6685
X2.6618Y-0.7277
X2.6619Y-0.9087
X2.6793Y-2.4688
X2.6794Y-0.9829
X2.6806Y-3.7332
X2.6809Y-1.7958
X2.6825Y-3.3453
X2.6845Y-1.6146
X2.6852Y-0.7895
X2.6868Y-4.5173
X2.6877Y-3.0696
X2.6879Y-3.5347
X2.6883Y-3.9247
X2.6891Y-0.118
X2.6894Y-1.1311
X2.7108Y-2.2836
X2.711Y-1.04
X2.7136Y-1.7133
X2.7161Y-3.6056
X2.7168Y-3.9794
X2.7178Y-3.4191
X2.7181Y-1.8619
X2.7225Y-1.9557
X2.7242Y-2.5234
X2.7243Y-3.2325
X2.7253Y-4.5767
X2.7415Y-0.1516
X2.7437Y-3.6616
X2.7448Y-4.0484
X2.7452Y-3.2916
X2.746Y-3.4816
X2.746Y-2.0181
X2.7503Y-1.7624
X2.7513Y-3.7644
X2.7518Y-1.1031
X2.7535Y-2.3434
X2.7539Y-3.8594
X2.7561Y-4.8312
X2.7569Y-0.0605
X2.773Y-2.2121
X2.7745Y-1.9249
X2.7759Y-4.5184
X2.7774Y-0.5127
X2.7789Y-0.8247
X2.7791Y-3.1893
X2.7796Y-1.1646
X2.7796Y-0.7263
X2.7803Y-3.3475
X2.781Y-2.5557
X2.7813Y-3.9129
X2.7818Y-3.5343
X2.7848Y-2.46
X2.7863Y-1.8354
X2.7872Y-4.621
X2.8057Y-3.4193
X2.8062Y-1.5142
X2.8067Y-1.7003
X2.8071Y-3.9758
X2.8083Y-1.9844
X2.8091Y-2.0846
X2.8095Y-0.8785
X2.8124Y-1.6132
X2.8128Y-2.2752
X2.8133Y-3.259
X2.8135Y-0.5745
X2.816Y-0.0966
X2.8183Y-4.4612
X2.8187Y-3.7293
X2.8388Y-2.3412
X2.8389Y-2.7767
X2.8404Y-3.0619
X2.8407Y-1.2344
X2.8425Y-0.6934
X2.8429Y-1.7706
X2.8429Y-4.0416
X2.8431Y-2.5019
X2.8434Y-3.3188
X2.8439Y-0.7881
X2.8442Y-1.8603
X2.8459Y-0.9487
X2.847Y-2.1528
X2.8478Y-2.9726
X2.8503Y-1.1409
X2.8505Y-4.8332
X2.8509Y-4.5488
X2.8714Y-3.3829
X2.8716Y-2.5587
X2.8728Y-4.4896
X2.8734Y-0.5362
X2.8739Y-3.1885
X2.8762Y-2.2152
X2.8762Y-0.8606
X2.8789Y-1.5467
X2.8813Y-4.2734
X2.8819Y-2.0208
X2.8824Y-1.9204
X2.8826Y-3.7684
X2.8832Y-3.9595
X2.9005Y-3.2577
X2.9009Y-4.1153
X2.9016Y-3.0919
X2.9021Y-2.2714
X2.9026Y-3.0032
X2.9041Y-1.6153
X2.9042Y-2.7114
X2.9051Y-2.6286
X2.908Y-1.7077
X2.9096Y-0.918
X2.9097Y-2.0788
X2.9123Y-4.0077
X2.9127Y-1.8049
X2.913Y-2.4632
X2.9133Y-1.0113
X2.9137Y-0.7323
X2.9146Y-4.2066
X2.915Y-0.6036
X2.9313Y-2.7857
X2.9336Y-1.8615
X2.9338Y-2.3333
X2.935Y-3.3148
X2.9352Y-2.532
X2.9359Y-2.1541
X2.9375Y-1.9636
X2.9386Y-4.5204
X2.9412Y-3.414
X2.9463Y-0.7926
X2.9627Y-4.1779
X2.9644Y-0.5069
X2.9644Y-2.9738
X2.9645Y-1.737
X2.9648Y-3.9858
X2.9664Y-2.0229
X2.9668Y-4.2668
X2.9685Y-4.4579
X2.9708Y-2.585
X2.9712Y-3.2002
X2.9731Y-0.9444
X2.9731Y-0.7021
X2.9738Y-2.6889
X2.9739Y-3.0597
X2.9743Y-2.2112
X2.975Y-0.8492
X2.9755Y-1.0373
X2.9764Y-2.8791
X2.9784Y-4.0816
X2.9946Y-0.5692
X2.9962Y-4.328
X2.9996Y-3.3438
X3.0006Y-3.7674
X3.0015Y-3.4494
X3.003Y-2.7478
X3.0052Y-3.8528
X3.0056Y-1.7977
X3.0065Y-4.5766
X3.0065Y-2.271
X3.0069Y-2.4626
X3.0083Y-1.8916
X3.0096Y-3.2493
X3.0268Y-4.1384
X3.027Y-2.5212
X3.0294Y-3.0065
X3.0295Y-1.0125
X3.0299Y-2.9111
X3.0315Y-4.2425
X3.0315Y-4.043
X3.0324Y-3.0931
X3.0327Y-1.4795
X3.0334Y-3.9448
X3.0343Y-0.7306
X3.0347Y-2.3461
X3.0356Y-2.8101
X3.0356Y-0.9088
X3.0403Y-2.6226
X3.0627Y-3.2801
X3.0627Y-1.271
X3.0628Y-2.2439
X3.0644Y-3.1852
X3.0648Y-1.5496
X3.065Y-1.7324
X3.0653Y-1.0737
X3.0659Y-0.6074
X3.0698Y-3.7925
X3.0707Y-1.8351
X3.0726Y-2.681
X3.0892Y-0.124
X3.0895Y-0.2139
X3.091Y-2.7466
X3.0932Y-0.9462
X3.0956Y-3.0347
X3.0957Y-0.6976
X3.097Y-3.9785
X3.0983Y-4.0734
X3.0983Y-1.1335
X3.0996Y-2.9475
X3.1004Y-2.4606
X3.1008Y-4.1708
X3.1011Y-2.5681
X3.1015Y-1.898
X3.1041Y-2.8394
X3.1242Y-3.3125
X3.1244Y-1.574
X3.1249Y-1.4825
X3.1266Y-4.4913
X3.1276Y-1.0114
X3.1287Y-4.5796
X3.1295Y-3.0982
X3.1303Y-2.6316
X3.1319Y-1.7999
X3.132Y-3.2201
X3.1355Y-1.2068
X3.1554Y-1.2655
X3.1557Y-1.8624
X3.1574Y-4.1147
X3.1604Y-4.0098
X3.1614Y-2.6892
X3.1623Y-2.4916
X3.1623Y-2.7745
X3.1628Y-2.9761
X3.1628Y-0.7204
X3.165Y-1.0778
X3.1666Y-0.912
X3.1847Y-0.0576
X3.1869Y-1.519
X3.1887Y-1.9215
X3.1897Y-1.1326
X3.1899Y-4.5181
X3.1901Y-3.8327
X3.1919Y-3.1903
X3.1923Y-0.9841
X3.1924Y-3.2818
X3.1952Y-3.0351
X3.1954Y-3.5391
X3.1957Y-4.1681
X3.1964Y-2.5549
X3.1967Y-1.426
X3.1972Y-1.6158
X3.1976Y-1.3221
X3.1977Y-2.2728
X3.199Y-3.724
X3.2158Y-1.041
X3.216Y-0.6018
X3.2236Y-2.4737
X3.2239Y-4.5917
X3.224Y-0.6928
X3.2247Y-1.1996
X3.2269Y-3.1001
X3.2271Y-2.6237
X3.2286Y-4.0477
X3.2296Y-2.3459
X3.2302Y-0.4996
X3.249Y-1.4574
X3.2497Y-1.2667
X3.2499Y-1.3664
X3.2518Y-1.7015
X3.2558Y-2.5256
X3.2561Y-4.1037
X3.2562Y-3.2235
X3.2566Y-2.9657
X3.2574Y-1.9972
X3.2577Y-1.1121
X3.2578Y-1.5513
X3.2589Y-0.276
X3.2604Y-3.7573
X3.2612Y-3.8564
X3.262Y-0.9175
X3.2628Y-3.5169
X3.2796Y-1.6079
X3.2801Y-0.5638
X3.281Y-0.9827
X3.285Y-4.6151
X3.2853Y-0.0649
X3.2896Y-0.7234
X3.2911Y-4.5198
X3.2918Y-2.5925
X3.292Y-1.7702
X3.292Y-3.3784
X3.2929Y-2.2745
X3.2929Y-0.4687
X3.2941Y-1.1618
X3.2946Y-4.167
X3.3122Y-1.2341
X3.3134Y-3.4421
X3.3165Y-3.7299
X3.3182Y-0.2592
X3.3187Y-1.3273
X3.3212Y-1.0452
X3.3218Y-1.4205
X3.322Y-3.8239
X3.3232Y-1.5238
X3.3254Y-2.654
X3.3429Y-3.6352
X3.3443Y-3.9569
X3.3443Y-3.3176
X3.3447Y-0.6025
X3.3477Y-1.1065
X3.3482Y-0.1877
X3.3485Y-4.5524
X3.3486Y-1.5838
X3.35Y-0.6883
X3.3526Y-3.5134
X3.3538Y-0.102
X3.3543Y-0.9085
X3.3547Y-0.5062
X3.3547Y-1.7077
X3.3562Y-1.8062
X3.3751Y-2.6262
X3.3764Y-3.3895
X3.3774Y-3.7018
X3.3778Y-3.7894
X3.3792Y-3.0346
X3.381Y-3.5761
X3.3822Y-4.0163
X3.3835Y-1.1705
X3.3855Y-0.9778
X3.3857Y-1.489
X3.4064Y-0.0694
X3.4069Y-0.7224
X3.4075Y-3.2583
X3.4079Y-0.16
X3.408Y-1.5435
X3.4106Y-0.4719
X3.4109Y-3.4538
X3.411Y-1.0434
X3.412Y-2.6832
X3.4132Y-2.3445
X3.4136Y-3.8556
X3.4137Y-0.5739
X3.4165Y-2.0307
X3.4166Y-2.2422
X3.4166Y-4.5142
X3.419Y-1.7356
X3.4376Y-1.6128
X3.4377Y-1.0999
X3.4386Y-1.8079
X3.4386Y-3.3191
X3.4399Y-3.7246
X3.4417Y-2.4628
X3.4436Y-0.9148
X3.4448Y-3.9537
X3.4451Y-3.0653
X3.4455Y-3.5061
X3.4497Y-4.0428
X3.4512Y-3.6066
X3.4692Y-1.8598
X3.4709Y-3.2272
X3.4718Y-2.5301
X3.4718Y-3.7924
X3.4727Y-0.7015
X3.4735Y-0.5087
X3.4739Y-3.3892
X3.4742Y-0.604
X3.4768Y-1.9601
X3.479Y-2.2711
X3.4791Y-0.0946
X3.4802Y-0.9792
X3.4818Y-1.706
X3.4823Y-3.6647
X3.484Y-1.1761
X3.5007Y-2.2118
X3.5008Y-1.7632
X3.5042Y-3.8569
X3.5044Y-0.1501
X3.5059Y-3.2822
X3.5071Y-2.0195
X3.5088Y-4.7365
X3.5102Y-2.3393
X3.5105Y-3.5362
X3.5117Y-3.4526
X3.5138Y-1.0464
X3.5343Y-3.6912
X3.5359Y-3.353
X3.5369Y-0.5405
X3.5383Y-0.719
X3.5387Y-1.1106
X3.5404Y-1.9294
X3.5416Y-0.9108
X3.5424Y-2.4682
X3.5427Y-1.8282
X3.5433Y-0.0659
X3.5437Y-2.5649
X3.5459Y-2.1226
X3.5461Y-3.2008
X3.5647Y-2.1742
X3.565Y-1.6063
X3.5666Y-3.2535
X3.5675Y-3.7671
X3.5681Y-1.71
X3.5683Y-0.6042
X3.5687Y-2.2825
X3.5719Y-1.9901
X3.5722Y-1.1669
X3.5726Y-3.4207
X3.5763Y-0.974
X3.5768Y-1.5166
X3.5958Y-3.0646
X3.5968Y-1.2322
X3.597Y-0.6875
X3.5984Y-1.0417
X3.5991Y-0.0336
X3.6002Y-1.8641
X3.6003Y-3.833
X3.6006Y-3.3226
X3.6018Y-4.2701
X3.6038Y-2.5026
X3.605Y-2.0581
X3.608Y-2.9715
X3.6088Y-2.3441
X3.6092Y-1.7666
X3.6092Y-2.7789
X3.6339Y-2.21
X3.6341Y-2.1199
X3.6346Y-1.11
X3.6347Y-2.5555
X3.6365Y-0.9142
X3.6373Y-1.9292
X3.6378Y-1.5509
X3.6379Y-0.5312
X3.6393Y-3.186
X3.6402Y-3.3855
X3.6597Y-2.9989
X3.6598Y-0.0605
X3.6602Y-4.2292
X3.6604Y-3.0975
X3.6608Y-0.725
X3.6611Y-0.6057
X3.6619Y-3.2641
X3.6622Y-1.7094
X3.6622Y-2.6205
X3.6627Y-2.4591
X3.6673Y-1.808
X3.6696Y-2.7248
X3.6706Y-2.2728
X3.6707Y-0.983
X3.6717Y-1.6198
X3.6733Y-1.9917
X3.6905Y-2.536
X3.6926Y-2.1548
X3.6959Y-0.5054
X3.696Y-3.3269
X3.6976Y-2.0529
X3.6982Y-1.8704
X3.6988Y-1.042
X3.7014Y-2.7804
X3.7015Y-3.4119
X3.7034Y-2.3348
X3.7222Y-2.6851
X3.7222Y-2.5934
X3.7228Y-2.2063
X3.7233Y-0.5614
X3.7236Y-0.6912
X3.7238Y-2.946
X3.7277Y0.006
X3.7283Y-0.9106
X3.7284Y-4.7491
X3.7292Y-1.7332
X3.7331Y-3.0324
X3.7333Y-3.1967
X3.734Y-1.9297
X3.7347Y-4.2683
X3.7365Y-2.8524
X3.7534Y-1.8076
X3.7534Y-0.9811
X3.7539Y-2.752
X3.7542Y-4.6147
X3.7552Y-3.7566
X3.757Y-3.2554
X3.7591Y-3.3471
X3.7604Y-3.8573
X3.7611Y-3.4457
X3.7621Y-4.0445
X3.7642Y-3.1026
X3.7643Y-3.9582
X3.7656Y-0.0607
X3.7669Y-2.2705
X3.7677Y-2.463
X3.7859Y-2.3441
X3.787Y-1.0426
X3.7886Y-2.6204
X3.7889Y-1.8717
X3.7913Y-0.5426
X3.7923Y-0.7292
X3.7927Y-3.0026
X3.7933Y-4.1123
X3.7956Y-1.4918
X3.7958Y-2.808
X3.7962Y-4.3945
X3.7972Y-2.9068
X3.7973Y-2.5243
X3.8004Y-4.6847
X3.8193Y-1.226
X3.8201Y-3.2946
X3.8237Y-3.0688
X3.8243Y-1.1088
X3.8244Y-1.7319
X3.8248Y-0.1818
X3.8254Y-1.5535
X3.8268Y-3.978
X3.8276Y-3.1946
X3.8278Y-0.6067
X3.83Y-4.7484
X3.8316Y-3.7867
X3.8317Y-2.682
X3.832Y-0.9196
X3.8502Y-2.8412
X3.8509Y-2.4671
X3.8514Y-3.8557
X3.8535Y-4.6163
X3.8541Y-1.8033
X3.8552Y-4.3306
X3.8558Y-0.0702
X3.8561Y-0.9781
X3.8588Y-2.9393
X3.8597Y-1.8948
X3.8601Y-4.0463
X3.8614Y-2.746
X3.8618Y-2.5607
X3.8628Y-4.4282
X3.8814Y-0.7208
X3.8822Y-1.4924
X3.8826Y-3.9464
X3.8833Y-4.675
X3.884Y-3.3184
X3.8842Y-3.7666
X3.8849Y-1.5782
X3.8852Y-1.2597
X3.8873Y-3.0954
X3.8903Y-1.1318
X3.8922Y-2.6209
X3.8937Y-3.0063
X3.8943Y-1.0459
X3.895Y-3.2172
X3.9137Y-2.7899
X3.915Y-1.4224
X3.9153Y-4.3689
X3.9159Y-0.9166
X3.9164Y-1.8311
X3.9184Y-1.3294
X3.9197Y-3.8184
X3.9206Y-4.0145
X3.9224Y-2.3368
X3.9247Y-1.9262
X3.9252Y-2.4972
X3.9258Y-4.2699
X3.9258Y-2.6851
X3.9264Y-4.7425
X3.9454Y-0.5944
X3.9455Y-1.6151
X3.9457Y-3.1859
X3.9469Y-1.075
X3.9486Y-0.9744
X3.9502Y-3.0657
X3.951Y-2.2727
X3.9513Y-4.428
X3.9522Y-3.5362
X3.953Y-0.0701
X3.956Y-3.287
X3.9564Y-2.9782
X3.9564Y-4.6216
X3.9576Y-3.7257
X3.9577Y-1.2364
X3.9579Y-1.5159
X3.9585Y-2.5538
X3.9758Y-3.9499
X3.9779Y-2.629
X3.9784Y-4.2973
X3.9817Y-4.6766
X3.9834Y-0.7023
X3.984Y-3.789
X3.9844Y-1.3951
X3.9856Y-1.1411
X3.9862Y-0.5011
X3.9884Y-1.2958
X3.9885Y-2.4596
X3.9887Y-4.2028
X3.9899Y-1.8982
X4.0062Y-3.4154
X4.0083Y-3.0975
X4.0083Y-0.9084
X4.0084Y-0.5681
X4.0102Y-1.0166
X4.0126Y-2.3102
X4.0129Y-1.4463
X4.0154Y-1.5444
X4.0181Y-4.371
X4.019Y-3.8532
X4.019Y-4.7424
X4.0191Y-1.7008
X4.0193Y-2.5216
X4.0392Y-4.1348
X4.0395Y-4.4267
X4.0406Y-0.0547
X4.0412Y-1.3323
X4.0438Y-2.6001
X4.044Y-4.2385
X4.0442Y-3.4714
X4.0445Y-1.0724
X4.0451Y-0.7234
X4.0456Y-1.2343
X4.0464Y-1.609
X4.0486Y-1.77
X4.0493Y-3.7373
X4.0499Y-4.6097
X4.051Y-0.4665
X4.072Y-4.2999
X4.0722Y-1.3961
X4.0723Y-0.1233
X4.0753Y-2.6606
X4.079Y-0.5367
X4.0791Y-0.9414
X4.0816Y-1.4932
X4.0844Y-3.7926
X4.0845Y-3.3512
X4.1018Y-3.7043
X4.1037Y-0.1838
X4.1057Y-3.4177
X4.106Y-3.5018
X4.1065Y-1.7996
X4.1067Y-0.605
X4.1068Y-3.0981
X4.1078Y-4.3694
X4.1079Y-3.862
X4.1083Y-0.6968
X4.109Y-4.2012
X4.1093Y-1.019
X4.1104Y-1.2712
X4.1121Y-1.7085
X4.1167Y-1.5438
X4.1356Y-3.0402
X4.1359Y-2.2199
X4.1359Y-3.5786
X4.136Y-3.2879
X4.1374Y-0.2583
X4.1387Y-0.477
X4.139Y-4.4257
X4.1398Y-2.714
X4.1408Y-2.3006
X4.1425Y-0.9088
X4.1427Y-0.0659
X4.1438Y-1.6165
X4.145Y-3.7639
X4.1462Y-4.2676
X4.1478Y-2.6187
X4.1646Y-4.3358
X4.1647Y-0.1304
X4.1647Y-3.4426
X4.1666Y-3.3527
X4.1676Y-1.7412
X4.1684Y-1.8356
X4.1717Y-0.5384
X4.176Y-0.9856
X4.1765Y-3.8301
X4.1775Y-1.4899
X4.1791Y-1.1721
X4.1797Y-0.7267
X4.1798Y-2.0242
X4.1978Y-0.1921
X4.199Y-0.6023
X4.1997Y-4.2045
X4.1999Y-2.4618
X4.2006Y-3.5108
X4.202Y-3.2289
X4.2026Y-2.2453
X4.2045Y-3.6076
X4.2056Y-2.3416
X4.2068Y-1.578
X4.2069Y-0.2855
X4.2077Y-4.3983
X4.2092Y-1.8919
X4.2276Y-0.692
X4.2295Y-1.1108
X4.2305Y-3.3828
X4.2317Y-1.9569
X4.2327Y-0.0694
X4.2347Y-3.6746
X4.2376Y-3.2834
X4.2378Y-1.8093
X4.2379Y-0.9241
X4.2397Y-2.5318
X4.2417Y-0.3432
X4.2419Y-4.2746
X4.2423Y-3.7901
X4.243Y-1.7117
X4.2603Y-0.2276
X4.2615Y-3.1855
X4.2618Y-3.453
X4.2627Y-0.5634
X4.2641Y-2.031
X4.2643Y-4.4227
X4.2644Y-1.1631
X4.2645Y-2.2124
X4.2661Y-3.8515
X4.2663Y-4.3347
X4.2699Y-0.1214
X4.2703Y-2.3058
X4.2742Y-1.8634
X4.2748Y-3.5399
X4.2913Y-3.2587
X4.2915Y-1.0401
X4.2918Y-1.9358
X4.2922Y-0.3755
X4.2923Y-0.7342
X4.2935Y-4.2128
X4.2974Y-2.5632
X4.2983Y-1.7402
X4.2996Y-3.3531
X4.3014Y-2.0915
X4.3018Y-1.5772
X4.3027Y-2.4687
X4.3043Y-0.2832
X4.3237Y-0.4392
X4.3244Y-3.0703
X4.3245Y-2.7855
X4.3248Y-0.7859
X4.3249Y-3.4187
X4.3254Y-3.7962
X4.3259Y-2.252
X4.3265Y-1.5132
X4.3277Y-2.9681
X4.3293Y-4.2742
X4.3301Y-0.0664
X4.3326Y-0.1561
X4.3337Y-1.1073
X4.3347Y-2.1541
X4.3356Y-4.7811
X4.3359Y-2.3374
X4.3361Y-1.9975
X4.3376Y-1.198
X4.3379Y-1.7941
X4.3379Y-4.371
X4.3574Y-4.8429
X4.3603Y-0.977
X4.3606Y-1.8716
X4.3606Y-3.8579
X4.3613Y-3.1956
X4.3628Y-1.6043
X4.3636Y-1.7021
X4.364Y-2.0472
X4.3666Y-3.2804
X4.3674Y-2.4915
X4.3681Y-0.2181
X4.3858Y-3.3478
X4.3859Y-1.5433
X4.3903Y-2.3069
X4.3916Y-0.4665
X4.3921Y-1.7683
X4.3923Y-2.9996
X4.3931Y-1.0354
X4.3952Y-2.659
X4.3958Y-2.2101
X4.3958Y-1.9203
X4.3963Y-2.1141
X4.3976Y-0.0971
X4.3987Y-2.5613
X4.3995Y-2.7469
X4.4006Y-3.1
X4.4186Y-0.9215
X4.4208Y-1.9946
X4.4209Y-0.1578
X4.4244Y-2.471
X4.429Y-4.7695
X4.4294Y-0.5316
X4.431Y-3.4101
X4.4314Y-1.8285
X4.4315Y-3.2185
X4.4493Y-3.2899
X4.4509Y-0.6876
X4.452Y-2.0592
X4.4542Y-0.6002
X4.4551Y-2.6256
X4.4555Y-1.0741
X4.4555Y-1.8971
X4.4563Y-0.9786
X4.4574Y-0.0652
X4.4581Y-2.7224
X4.4583Y-3.0601
X4.4605Y-1.7113
X4.4607Y-2.3395
X4.4607Y-0.7929
X4.4608Y-2.9796
X4.4612Y-2.1506
X4.4627Y-2.5219
X4.4628Y-2.2462
X4.4817Y-3.1953
X4.483Y-0.8508
X4.4854Y-3.8214
X4.4873Y-2.8797
X4.4878Y-0.124
X4.4878Y-2.788
X4.4887Y-0.4771
X4.4929Y-1.7689
X4.493Y-1.9626
X4.4958Y-3.3444
X4.5127Y-3.4132
X4.5135Y-0.724
X4.5136Y-1.4779
X4.5181Y-2.9441
X4.5181Y-3.0385
X4.5188Y-1.0131
X4.5205Y-0.9198
X4.5227Y-2.5657
X4.5228Y-2.6588
X4.5238Y-0.53
X4.5263Y-1.8334
X4.5272Y-2.4725
X4.5274Y-2.2767
X4.5276Y-3.2615
X4.5458Y-2.7119
X4.5466Y-0.7942
X4.5468Y-3.4723
X4.5474Y-1.8928
X4.5477Y-2.3401
X4.5491Y-1.2715
X4.5496Y-1.5551
X4.5503Y-0.0695
X4.5504Y-0.1568
X4.5527Y-2.2203
X4.553Y-3.0999
X4.5544Y-3.3206
X4.5554Y-3.7959
X4.558Y-1.7461
X4.5585Y-0.5974
X4.5587Y-2.8105
X4.5765Y-2.969
X4.5767Y-2.4922
X4.5774Y-3.1883
X4.5784Y-0.8453
X4.5786Y-2.8804
X4.5789Y-2.5902
X4.5801Y-0.693
X4.5831Y-0.9465
X4.5894Y-1.7999
X4.5903Y-1.1752
X4.6073Y-3.0369
X4.6084Y-1.4785
X4.6108Y-2.6599
X4.6112Y-1.574
X4.6121Y-0.5763
X4.6159Y-1.2294
X4.6183Y-2.7457
X4.6185Y-3.8259
X4.6185Y-1.8693
X4.6186Y-0.0934
X4.6186Y-3.2609
X4.6201Y-0.7537
X4.639Y-1.2918
X4.6395Y-3.3228
X4.6411Y-0.9137
X4.6435Y-2.4702
X4.6445Y-4.9266
X4.6445Y-2.5565
X4.6477Y-3.1052
X4.6488Y-2.8195
X4.6511Y-1.1027
X4.6532Y-2.9012
X4.6535Y-0.8223
X4.6706Y-2.9686
X4.6745Y-1.5567
X4.675Y-1.459
X4.6756Y-0.0639
X4.6759Y-1.8349
X4.6765Y-1.1723
X4.6765Y-2.6279
X4.6779Y-2.7156
X4.6792Y-1.9357
X4.6794Y-3.1981
X4.6832Y-0.723
X4.684Y-1.366
X4.6847Y-2.3425
X4.6848Y-0.5935
X4.703Y-1.6153
X4.7069Y-3.2489
X4.7072Y-0.7972
X4.7099Y-2.4919
X4.7122Y-3.0426
X4.7135Y-2.2775
X4.7165Y-4.4285
X4.7167Y-1.0465
X4.7171Y-1.2261
X4.7354Y-3.0917
X4.7359Y-2.6556
X4.7361Y-1.9031
X4.7363Y-1.4912
X4.7416Y-1.7451
X4.7418Y-3.7298
X4.7457Y-2.568
X4.7467Y-1.9946
X4.7469Y-1.2954
X4.7471Y-1.395
X4.7483Y-3.51
X4.7659Y-4.4578
X4.7671Y-3.4143
X4.77Y-0.6015
X4.7716Y-2.9661
X4.7737Y-2.3018
X4.7765Y-0.0655
X4.7772Y-2.4722
X4.7991Y-1.7755
X4.8028Y-3.7659
X4.8031Y-2.5328
X4.8032Y-3.4815
X4.8048Y-4.2948
X4.8077Y-4.3949
X4.8084Y-0.5432
X4.8086Y-2.6188
X4.8286Y-1.267
X4.8314Y-3.8306
X4.8323Y-0.9459
X4.8343Y-1.3513
X4.8347Y-1.4476
X4.8352Y-4.4831
X4.8403Y-1.5448
X4.841Y-1.1653
X4.861Y-2.5963
X4.8624Y-3.0949
X4.8653Y-4.359
X4.8662Y-4.5527
X4.8674Y-1.6055
X4.8684Y-1.0079
X4.8699Y-4.268
X4.8716Y-0.8775
X4.8734Y-0.064
X4.8734Y-2.6947
X4.8935Y-3.0372
X4.894Y-1.483
X4.901Y-4.4254
X4.9025Y-2.2182
X4.904Y-1.0774
X4.9051Y-2.3071
X4.9239Y-4.4836
X4.9266Y-1.5564
X4.9269Y-0.924
X4.9303Y-2.0245
X4.9327Y-1.1443
X4.9362Y-1.7119
X4.9365Y-4.3055
X4.9382Y-0.8215
X4.9388Y-0.0887
X4.939Y-2.6485
X4.9555Y-3.5423
X4.956Y-0.9866
X4.956Y-0.4716
X4.9575Y-0.1615
X4.9577Y-0.5659
X4.9592Y-0.2472
X4.9594Y-4.3587
X4.9634Y-3.6354
X4.9639Y-2.2412
X4.9658Y-3.4431
X4.9661Y-2.4682
X4.9672Y-0.6946
X4.9704Y-2.3403
X4.9876Y-3.7056
X4.9908Y-0.0672
X4.9925Y-1.0382
X4.9933Y-0.7606
X4.9969Y-4.4319
X4.9995Y-2.5246
X5.0006Y-0.8584
X5.0007Y-1.1626
X5.0185Y-2.3109
X5.0187Y-1.1106
X5.0211Y-0.2271
X5.0298Y-0.9133
X5.0304Y-0.5031
X5.031Y-0.598
X5.0316Y-3.4849
X5.0328Y-0.1334
X5.0501Y-3.346
X5.0502Y-2.4595
X5.0513Y-0.9786
X5.0516Y-3.7288
X5.0529Y-0.6871
X5.0533Y-0.793
X5.0566Y-0.2904
X5.0574Y-0.3709
X5.0584Y-1.5122
X5.0586Y-1.7141
X5.0603Y-2.5558
X5.0614Y-3.8189
X5.0618Y-1.7976
X5.0636Y-1.6137
X5.0819Y-1.9625
X5.0821Y-2.0519
X5.0852Y-1.2383
X5.0868Y-2.1563
X5.0871Y-3.0658
X5.0882Y-1.1306
X5.0906Y-1.8685
X5.0908Y-0.1613
X5.0913Y-3.4113
X5.0915Y-2.7748
X5.0925Y-1.0443
X5.0929Y-0.44
X5.0934Y-0.0596
X5.0946Y-2.9775
X5.0949Y-0.5381
X5.0952Y-0.8518
X5.1148Y-0.2232
X5.1157Y-3.283
X5.1162Y-3.7635
X5.1172Y-1.7391
X5.1194Y-0.9188
X5.1203Y-3.8593
X5.1215Y-0.3084
X5.124Y-2.2198
X5.1246Y-2.4938
X5.1255Y-0.5929
X5.1263Y-2.5911
X5.1268Y-4.8949
X5.127Y-1.5533
X5.1275Y-0.7309
X5.145Y-0.0967
X5.1457Y-1.8922
X5.1461Y-3.3555
X5.1463Y-2.7505
X5.1472Y-1.0781
X5.1475Y-1.9947
X5.1475Y-1.7989
X5.1497Y-3.0034
X5.1507Y-0.7917
X5.1528Y-2.6607
X5.153Y-0.4743
X5.1535Y-0.3753
X5.1552Y-1.6089
X5.1582Y-0.9839
X5.1583Y-2.0886
X5.1788Y-3.2238
X5.1815Y-2.5247
X5.1815Y-2.1438
X5.1835Y-0.5332
X5.1855Y-0.2496
X5.1862Y-0.6947
X5.1865Y-3.4122
X5.1867Y-0.1502
X5.1887Y-1.5219
X5.1888Y-2.2416
X5.1908Y-1.701
X5.1916Y-0.8533
X5.2095Y-1.7715
X5.2101Y-1.0037
X5.2102Y-0.3166
X5.2114Y-2.7895
X5.2118Y-0.059
X5.2123Y-2.3044
X5.2125Y-2.6815
X5.2132Y-1.9662
X5.2138Y-2.0578
X5.2173Y-0.6057
X5.2175Y-1.8721
X5.2186Y-0.7514
X5.2193Y-0.4416
X5.2203Y-3.2804
X5.2208Y-0.9165
X5.2225Y-2.5895
X5.242Y-3.1968
X5.2422Y-3.3535
X5.2445Y-3.8532
X5.248Y-3.7628
X5.2486Y-2.8476
X5.2487Y-3.4445
X5.2496Y-2.2156
X5.251Y-0.498
X5.2527Y-0.2175
X5.2539Y-0.8144
X5.2547Y-0.1281
X5.2726Y-1.7368
X5.2734Y-0.563
X5.2739Y-2.2778
X5.2752Y-1.4908
X5.2753Y-0.8867
X5.2772Y-3.254
X5.2783Y-2.6563
X5.2809Y-0.6934
X5.2809Y-1.8286
X5.2812Y-2.7489
X5.2813Y-1.9297
X5.2838Y-2.5676
X5.2857Y-0.9786
X5.3028Y-1.5409
X5.3028Y-3.3185
X5.3053Y-0.7552
X5.3064Y-4.6149
X5.3068Y-0.469
X5.3117Y-0.0668
X5.3144Y-1.2599
X5.3149Y-0.1618
X5.3156Y-3.4114
X5.3168Y-4.7105
X5.317Y-2.3351
X5.3354Y-3.1966
X5.3359Y-1.8702
X5.3365Y-4.7724
X5.337Y-4.4577
X5.3375Y-3.7671
X5.3397Y-4.3652
X5.3429Y-3.0712
X5.3445Y-4.5588
X5.3454Y-1.7714
X5.347Y-1.1393
X5.3673Y-1.5775
X5.3736Y-0.1
X5.3761Y-3.2628
X5.3762Y-4.2433
X5.3762Y-1.4902
X5.3782Y-4.6547
X5.3802Y-1.2026
X5.3979Y-0.7326
X5.4013Y-0.9224
X5.4038Y-0.8178
X5.4041Y-3.0029
X5.4054Y-1.0998
X5.4091Y-0.5092
X5.4096Y-1.8305
X5.4097Y-3.3153
X5.4107Y-1.0174
X5.4112Y-4.7183
X5.4113Y-3.0929
X5.4115Y-1.2673
X5.4297Y-1.5189
X5.4307Y-1.3268
X5.4309Y-0.5745
X5.4342Y-0.0693
X5.4354Y-2.7856
X5.4364Y-4.781
X5.4377Y-2.2834
X5.4389Y-1.1746
X5.4389Y-1.4283
X5.4394Y-1.6077
X5.4404Y-2.6592
X5.4411Y-2.5613
X5.4427Y-1.8966
X5.4439Y-3.1886
X5.4616Y-1.0769
X5.4621Y-1.9524
X5.4623Y-2.3351
X5.4625Y-3.2592
X5.4626Y-3.7381
X5.4636Y-0.6972
X5.4664Y-0.9786
X5.4668Y-0.8836
X5.4675Y-2.9721
X5.469Y-3.0635
X5.4699Y-0.7929
X5.4703Y-2.4689
X5.4731Y-1.238
X5.4927Y-1.5864
X5.4933Y-2.5367
X5.4946Y-1.7073
X5.4959Y-2.6235
X5.4974Y-0.5343
X5.499Y-0.2255
X5.5003Y-4.7042
X5.5018Y-1.4932
X5.5036Y-3.5102
X5.5037Y-1.1299
X5.5054Y-1.3911
X5.5055Y-1.2971
X5.524Y-0.9165
X5.5256Y-0.7299
X5.5263Y-4.2094
X5.5263Y-4.7795
X5.5282Y-0.8255
X5.5305Y-3.7673
X5.5311Y-4.4598
X5.5337Y-4.3618
X5.5341Y-1.199
X5.5344Y-3.3884
X5.5345Y-1.0084
X5.5373Y-3.8614
X5.5378Y-0.5939
X5.5391Y-1.7633
X5.5391Y-2.2685
X5.5559Y-2.5617
X5.556Y-1.2612
X5.5587Y-3.4527
X5.5622Y-1.3619
X5.5629Y-1.4479
X5.5635Y-1.5458
X5.5644Y-4.5214
X5.5676Y-1.0704
X5.5682Y-2.6632
X5.5878Y-1.6054
X5.5888Y-1.7973
X5.5918Y-3.3257
X5.5932Y-3.793
X5.5935Y-1.1354
X5.5939Y-3.5042
X5.5947Y-4.7083
X5.5953Y-4.039
X5.5973Y-3.6957
X5.5974Y-0.6954
X5.5978Y-1.701
X5.5979Y-0.8804
X5.5998Y-0.7882
X5.6002Y-0.9869
X5.6011Y-0.5079
X5.6201Y-1.0453
X5.6227Y-3.8575
X5.6233Y-2.5951
X5.6233Y-1.4789
X5.6246Y-4.7792
X5.6278Y-1.2025
X5.6286Y-3.0299
X5.6293Y-3.3788
X5.63Y-2.6903
X5.631Y-0.5749
X5.6317Y-3.5739
X5.6537Y-0.7278
X5.6546Y-1.7412
X5.6549Y-2.019
X5.6549Y-2.3376
X5.6557Y-3.7247
X5.6562Y-0.8204
X5.6567Y-4.0727
X5.6573Y-1.1123
X5.659Y-2.2419
X5.6599Y-1.5536
X5.6619Y-0.9098
X5.6641Y-3.4432
X5.6648Y-3.6345
X5.6649Y-3.2502
X5.6834Y-4.5268
X5.6856Y-3.5039
X5.6857Y-3.0636
X5.6869Y-0.5377
X5.6873Y-1.1698
X5.689Y-3.7935
X5.6895Y-4.7133
X5.6924Y-3.3254
X5.6935Y-2.471
X5.6939Y-1.8001
X5.6948Y-0.974
X5.6959Y-1.6079
X5.696Y-4.1405
X5.7144Y-3.5773
X5.7155Y-2.2778
X5.716Y-0.7537
X5.7163Y-2.5319
X5.7169Y-3.8574
X5.7175Y-0.1227
X5.7195Y-1.0424
X5.7201Y-4.0508
X5.7207Y-1.9553
X5.7229Y-1.8596
X5.7229Y-3.3761
X5.7233Y-4.771
X5.7235Y-0.2153
X5.7261Y-0.6035
X5.7288Y-3.2215
X5.7292Y-1.7108
X5.7294Y-3.6665
X5.7294Y-0.8523
X5.7476Y-3.445
X5.7489Y-1.1014
X5.7489Y-4.1124
X5.749Y-2.3379
X5.7503Y-2.2181
X5.7514Y-1.7668
X5.7522Y-0.9165
X5.753Y-3.2892
X5.7545Y-2.028
X5.759Y-3.7377
X5.7793Y-1.1646
X5.7829Y-4.707
X5.7837Y-0.7309
X5.7848Y-2.4677
X5.786Y-1.8404
X5.7862Y-2.556
X5.7864Y-0.9825
X5.7868Y-3.5116
X5.7881Y-1.9279
X5.7883Y-3.1874
X5.7906Y-3.7989
X5.7915Y-0.8277
X5.792Y-3.3438
X5.8099Y-3.2519
X5.8102Y-1.7071
X5.8122Y-3.8508
X5.8127Y-1.5185
X5.8152Y-1.6111
X5.8163Y-0.0686
X5.8164Y-2.2746
X5.8166Y-4.5235
X5.818Y-2.1876
X5.8181Y-1.9864
X5.8204Y-4.7719
X5.8206Y-0.5998
X5.8207Y-4.0453
X5.821Y-2.0858
X5.8213Y-0.8915
X5.8218Y-3.4215
X5.8239Y-1.0391
X5.8405Y-2.3451
X5.8411Y-0.955
X5.8413Y-1.195
X5.8427Y-3.3125
X5.8427Y-3.0704
X5.8435Y-1.7667
X5.8437Y-2.9698
X5.8459Y-0.7948
X5.847Y-1.1117
X5.8486Y-0.6983
X5.8495Y-3.7327
X5.8517Y-1.8706
X5.8519Y-2.4913
X5.8544Y-0.5069
X5.8559Y-2.7873
X5.8742Y-4.7131
X5.8748Y-0.8511
X5.878Y-4.2434
X5.8782Y-2.2075
X5.881Y-1.0119
X5.8813Y-3.7876
X5.8817Y-1.9304
X5.8823Y-3.3837
X5.8832Y-0.2804
X5.8847Y-3.2001
X5.8852Y-2.1209
X5.8863Y-0.5708
X5.887Y-2.0268
X5.8873Y-1.5434
X5.8876Y-2.5592
X5.9041Y-4.7693
X5.9046Y-2.7202
X5.9053Y-3.2617
X5.9058Y-2.6306
X5.9081Y-1.8083
X5.9083Y-0.4683
X5.9095Y-0.7195
X5.9108Y-3.0009
X5.9113Y-1.7124
X5.9129Y-2.4734
X5.9132Y-3.1016
X5.9148Y-0.067
X5.9149Y-2.2713
X5.916Y-1.0747
X5.9168Y-0.9228
X5.9188Y-1.6087
X5.9191Y-4.5228
X5.9355Y-3.3156
X5.9374Y-0.2519
X5.939Y-2.5241
X5.9393Y-2.3379
X5.9407Y-3.4219
X5.9412Y-0.79
X5.9435Y-1.8683
X5.945Y-0.9738
X5.9451Y-2.1501
X5.9454Y-0.5433
X5.9492Y-2.7802
X5.9495Y-2.0534
X5.9501Y-1.9579
X5.9668Y-4.7065
X5.9683Y-1.7363
X5.9683Y-0.1903
X5.9697Y-2.5963
X5.971Y-4.4887
X5.9731Y-0.6944
X5.9737Y-3.0589
X5.9738Y-0.5991
X5.9738Y-0.8565
X5.9761Y-1.0377
X5.9803Y-0.0927
X5.9812Y-2.8761
X5.9814Y-2.2135
X5.9815Y-3.1883
X5.9818Y-2.968
X5.982Y-2.6923
X5.9993Y-1.8067
X5.9993Y-3.7652
X6.0005Y-3.2602
X6.0029Y-0.9173
X6.0033Y-1.8985
X6.0035Y-2.7558
X6.0039Y-3.3484
X6.0054Y-3.8538
X6.0058Y-2.2768
X6.0088Y-0.466
X6.0101Y-4.771
X6.0118Y-2.4621
X6.0121Y-3.4386
X6.0131Y-0.7516
X6.0306Y-2.3448
X6.0307Y-0.821
X6.0311Y-0.5378
X6.0322Y-2.9012
X6.033Y-4.5266
X6.0368Y-3.0943
X6.0369Y-0.157
X6.0377Y-0.9733
X6.0388Y-2.8152
X6.0422Y-3.0059
X6.0434Y-2.6177
X6.0442Y-0.0599
X6.0444Y-1.4794
X6.0449Y-2.5364
X6.0626Y-4.7175
X6.065Y-2.6928
X6.0673Y-3.1865
X6.0702Y-3.2829
X6.0717Y-1.7347
X6.0741Y-1.5472
X6.0748Y-1.8315
X6.0753Y-4.1716
X6.0758Y-3.7861
X6.076Y-1.2619
X6.0762Y-2.2437
X6.0955Y-2.8426
X6.0967Y-2.7555
X6.097Y-2.9381
X6.099Y-1.9005
X6.1007Y-4.7695
X6.1009Y-1.1354
X6.1014Y-3.038
X6.1015Y-2.5656
X6.1046Y-0.0981
X6.1073Y-2.4672
X6.1284Y-2.6213
X6.1289Y-4.5252
X6.1312Y-1.202
X6.1321Y-3.0909
X6.1348Y-3.2177
X6.1359Y-3.3232
X6.1361Y-4.144
X6.1382Y-1.4787
X6.1383Y-1.5745
X6.1386Y-0.1612
X6.1405Y-1.7976
X6.1597Y-1.2655
X6.1603Y-0.0683
X6.1604Y-0.886
X6.161Y-2.5042
X6.1613Y-4.7065
X6.1615Y-0.5056
X6.1615Y-0.7025
X6.1626Y-0.5925
X6.1633Y-2.9725
X6.1646Y-2.6911
X6.1647Y-0.7976
X6.1678Y-1.8587
X6.1694Y-1.3653
X6.1699Y-2.7829
X6.1701Y-1.0789
X6.1719Y-0.9836
X6.1898Y-1.9298
X6.1902Y-3.0363
X6.1907Y-4.7686
X6.1924Y-3.1882
X6.1928Y-2.2752
X6.1938Y-1.4188
X6.1991Y-2.5617
X6.2018Y-1.5098
X6.2027Y-3.2905
X6.2032Y-1.1306
X6.2037Y-1.6052
X6.2207Y-3.7384
X6.2209Y-2.3365
X6.2235Y-3.8319
X6.2244Y-0.8232
X6.2244Y-2.6291
X6.2262Y-0.54
X6.2293Y-1.1952
X6.2298Y-2.4593
X6.2302Y-0.9087
X6.2305Y-3.0975
X6.2322Y-4.527
X6.2333Y-1.016
X6.2335Y-4.0477
X6.2338Y-0.7318
X6.2342Y-1.298
X6.2518Y-0.6015
X6.2528Y-3.5155
X6.2528Y-2.9751
X6.254Y-1.0747
X6.2564Y-1.3627
X6.2606Y-1.7049
X6.2609Y-2.5252
X6.2611Y-4.7132
X6.2628Y-1.4572
X6.2635Y-1.5419
X6.2839Y-1.2264
X6.2857Y-1.6161
X6.2859Y-3.8566
X6.2879Y-1.1317
X6.2885Y-0.7002
X6.289Y-4.7723
X6.2895Y-2.2763
X6.2896Y-3.7621
X6.2927Y-0.9744
X6.2928Y-0.7911
X6.2928Y-1.7624
X6.2929Y-0.8893
X6.2953Y-3.3886
X6.2964Y-2.5997
X6.3166Y-1.3875
X6.3197Y-2.6604
X6.3204Y-3.441
X6.3218Y-4.5145
X6.3247Y-1.2955
X6.3249Y-1.0437
X6.3263Y-4.0497
X6.3271Y-3.5366
X6.3275Y-0.5064
X6.3276Y-1.4901
X6.3468Y-3.313
X6.348Y-0.8255
X6.3493Y-1.7938
X6.3521Y-1.7086
X6.3522Y-3.6052
X6.3534Y-0.9209
X6.354Y-3.7983
X6.3559Y-1.2081
X6.3584Y-1.554
X6.3587Y-1.1053
X6.3588Y-0.5714
X6.3593Y-3.7014
X6.36Y-0.731
X6.3608Y-4.7065
X6.3818Y-3.8596
X6.3819Y-3.3888
X6.382Y-2.63
X6.3833Y-0.9723
X6.3843Y-4.7743
X6.3891Y-1.6179
X6.39Y-3.0324
X6.3903Y-3.4775
X6.3907Y-2.7216
X6.3911Y-4.4926
X6.4094Y-2.2523
X6.411Y-2.0155
X6.4128Y-1.1389
X6.4132Y-1.8376
X6.4152Y-1.038
X6.4153Y-3.6378
X6.4173Y-3.7356
X6.4176Y-0.5437
X6.4179Y-3.5388
X6.418Y-3.2522
X6.4219Y-1.4929
X6.4244Y-1.7319
X6.4246Y-2.3321
X6.425Y-4.0515
X6.4432Y-4.115
X6.4438Y-3.3233
X6.4448Y-4.529
X6.4453Y-2.4615
X6.446Y-0.5965
X6.4494Y-1.9225
X6.4528Y-3.7888
X6.4538Y-0.1861
X6.4538Y-1.5767
X6.4539Y-4.718
X6.4552Y-3.4204
X6.4734Y-3.4729
X6.4736Y-1.9936
X6.4762Y-3.6657
X6.4766Y-2.5359
X6.4767Y-3.2288
X6.4782Y-1.0815
X6.4803Y-3.8587
X6.4803Y-1.8007
X6.4828Y-1.6999
X6.486Y-0.8787
X6.4861Y-3.5702
X6.4869Y-2.275
X6.4872Y-1.172
X6.5069Y-4.0431
X6.5075Y-0.9425
X6.5123Y-3.7288
X6.5151Y-2.2197
X6.5151Y-3.285
X6.5151Y-4.49
X6.5152Y-1.8582
X6.5163Y-3.39
X6.5178Y-2.347
X6.5378Y-4.1112
X6.5387Y-3.5336
X6.5395Y-2.1172
X6.54Y-3.199
X6.5434Y-2.0306
X6.5435Y-1.7325
X6.5444Y-1.9332
X6.5472Y-3.4411
X6.5484Y-1.1445
X6.5484Y-2.5681
X6.5495Y-3.7897
X6.55Y-2.4679
X6.551Y-1.5834
X6.5699Y-2.2764
X6.5705Y-3.0604
X6.5712Y-1.2021
X6.5719Y-2.782
X6.5725Y-1.5164
X6.5744Y-4.5271
X6.5749Y-3.2499
X6.5752Y-3.3579
X6.5784Y-0.0575
X6.5788Y-0.9087
X6.5803Y-1.8081
X6.5818Y-3.8525
X6.5825Y-2.1762
X6.5825Y-1.0173
X6.5827Y-2.9694
X6.6007Y-3.4192
X6.6009Y-1.7026
X6.603Y-2.0597
X6.6035Y-1.8714
X6.6036Y-2.5011
X6.6037Y-1.9566
X6.6052Y-4.2366
X6.6108Y-1.6066
X6.6119Y-2.3383
X6.6119Y-4.0442
X6.6134Y-0.7313
X6.6146Y-3.7233
X6.6342Y-1.7687
X6.6349Y-3.8329
X6.637Y-1.5555
X6.6376Y-3.0007
X6.6381Y-2.114
X6.6394Y-2.7465
X6.6394Y-2.219
X6.6394Y-3.1923
X6.64Y-2.5633
X6.6423Y-0.9528
X6.6427Y-3.1059
X6.6427Y-2.6553
X6.6452Y-3.2892
X6.6458Y-1.0425
X6.6629Y-0.6886
X6.6648Y-2.0224
X6.6657Y-1.9237
X6.6705Y-2.2716
X6.6725Y-4.5259
X6.6735Y-2.4645
X6.6749Y-1.8348
X6.6765Y-0.0643
X6.678Y-3.3523
X6.6948Y-0.2174
X6.6962Y-0.5737
X6.6965Y-1.7112
X6.6995Y-0.4807
X6.7004Y-2.9714
X6.7008Y-2.0785
X6.7014Y-3.4152
X6.7033Y-2.3456
X6.7043Y-2.1821
X6.7053Y-0.9093
X6.7056Y-4.0476
X6.707Y-2.6248
X6.7076Y-2.53
X6.7079Y-0.1218
X6.7091Y-1.0189
X6.7095Y-3.2305
X6.7095Y-2.7202
X6.7096Y-3.0589
X6.7258Y-4.4922
X6.728Y-3.8219
X6.7295Y-1.7655
X6.7298Y-2.789
X6.7318Y-1.9652
X6.733Y-1.0733
X6.7335Y-2.2407
X6.7342Y-1.8668
X6.7375Y-2.8692
X6.7382Y-0.7307
X6.7405Y-3.2887
X6.7578Y-3.3543
X6.7588Y-2.6491
X6.7606Y-3.7572
X6.7608Y-0.0634
X6.7608Y-2.4685
X6.7615Y-2.3017
X6.7616Y-0.1653
X6.7621Y-0.9488
X6.7628Y-3.4496
X6.7653Y-2.5684
X6.7659Y-0.5098
X6.768Y-2.9434
X6.7681Y-3.1971
X6.7684Y-3.0276
X6.7685Y-1.4927
X6.7704Y-0.6079
X6.7905Y-3.8549
X6.7906Y-1.8326
X6.7921Y-3.0918
X6.7932Y-1.0104
X6.795Y-2.8162
X6.7963Y-2.7251
X6.7963Y-1.261
X6.7966Y-0.701
X6.797Y-1.7347
X6.7975Y-4.0429
X6.7979Y-2.2124
X6.7985Y-3.2492
X6.799Y-4.2752
X6.8024Y-4.5195
X6.822Y-1.9015
X6.822Y-2.967
X6.8221Y-3.3139
X6.8244Y-2.3402
X6.8251Y-4.2047
X6.8275Y-4.1101
X6.8284Y-0.4812
X6.8286Y-1.1652
X6.8288Y-0.5689
X6.8296Y-2.869
X6.832Y-0.9142
X6.8336Y-1.0777
X6.8338Y-0.1001
X6.8339Y-2.4965
X6.8355Y-2.598
X6.8361Y-1.5141
X6.8362Y-3.8006
X6.8536Y-4.4859
X6.8585Y-3.1906
X6.8596Y-0.7335
X6.8598Y-1.7759
X6.8613Y-1.585
X6.8637Y-0.1539
X6.8654Y-3.0303
X6.8655Y-2.6541
X6.8659Y-1.233
X6.8666Y-2.7453
X6.8675Y-0.9847
X6.8837Y-4.0464
X6.8843Y-1.1368
X6.8855Y-2.4625
X6.8864Y-1.0489
X6.8879Y-0.6002
X6.8882Y-1.8367
X6.8887Y-4.2397
X6.8888Y-2.9039
X6.8897Y-4.1412
X6.8902Y-3.0992
X6.8909Y-2.5646
X6.8923Y-1.4827
X6.8938Y-2.8151
X6.8958Y-3.2549
X6.8966Y-0.0701
X6.8985Y-0.5079
X6.9163Y-3.3251
X6.9165Y-1.8945
X6.9167Y-2.6278
X6.9174Y-2.3392
X6.9175Y-4.3974
X6.9181Y-0.9146
X6.9198Y-4.5206
X6.9201Y-2.9665
X6.9206Y-1.5528
X6.9212Y-1.2085
X6.9218Y-0.1181
X6.9233Y-1.3906
X6.9236Y-0.6931
X6.9261Y-1.2956
X6.9276Y-4.3076
X6.9301Y-2.7256
X6.9482Y-4.0783
X6.9487Y-0.9738
X6.951Y-1.606
X6.9512Y-3.0426
X6.9516Y-4.4524
X6.952Y-4.1708
X6.9527Y-2.4976
X6.9553Y-0.5447
X6.9556Y-3.7364
X6.9565Y-1.07
X6.9567Y-2.279
X6.9587Y-1.4528
X6.9599Y-1.9522
X6.9616Y-3.1875
X6.9796Y-3.2491
X6.9834Y-0.7227
X6.9834Y-0.5928
X6.9847Y-2.6585
X6.9855Y-2.5631
X6.9856Y-1.3221
X6.9863Y-0.0554
X6.9872Y-1.2289
X6.991Y-0.2158
X6.9913Y-1.5194
X6.9914Y-1.143
X6.9919Y-3.1033
X7.0103Y-1.3885
X7.0105Y-1.0073
X7.0128Y-2.3106
X7.0132Y-4.018
X7.0143Y-4.1032
X7.0155Y-0.9167
X7.0165Y-2.9776
X7.018Y-1.708
X7.0196Y-3.5138
X7.0209Y-2.4678
X7.0221Y-1.5793
X7.0222Y-3.4067
X7.0422Y-1.2584
X7.0427Y-1.0766
X7.0449Y-1.7632
X7.0458Y-2.5273
X7.0462Y-1.4475
X7.0469Y0.0076
X7.0477Y-2.6176
X7.0533Y-1.1724
X7.0545Y-0.53
X7.056Y-0.6933
X7.0774Y-1.3227
X7.0785Y-1.6186
X7.08Y-1.5192
X7.0832Y-0.9404
X7.0835Y-3.4487
X7.084Y-3.3504
X7.0862Y-0.6052
X7.0868Y-3.8193
X7.0877Y-3.9909
X7.0879Y-3.5481
X7.0886Y-4.0777
X7.1059Y-2.5921
X7.111Y-2.6813
X7.1137Y-1.7063
X7.1149Y-0.4702
X7.1152Y-4.678
X7.1168Y-1.2058
X7.1183Y-3.1041
X7.1185Y-1.1078
X7.1188Y-0.7204
X7.1191Y-1.0132
X7.1191Y-1.807
X7.1197Y-3.6055
X7.1208Y-0.0373
X7.1367Y-4.3026
X7.1379Y-1.4782
X7.138Y-4.0116
X7.1399Y-4.3974
X7.1406Y-4.582
X7.1412Y-0.9172
X7.1418Y-2.206
X7.1419Y-4.1974
X7.1421Y-3.0314
X7.1435Y-1.575
X7.144Y-0.5349
X7.1459Y-2.3028
X7.1466Y-3.2909
X7.1496Y-3.8577
X7.1503Y-3.388
X7.1505Y-4.491
X7.1518Y-3.7676
X7.1518Y-3.471
X7.1523Y-4.1061
X7.1685Y-2.6633
X7.1695Y-4.6481
X7.1704Y-0.9851
X7.1711Y-1.7374
X7.1738Y-0.5929
X7.1744Y-0.6893
X7.1757Y-2.029
X7.1761Y-1.8338
X7.1762Y-1.0717
X7.1797Y-3.5423
X7.1802Y-1.1615
X7.2002Y-4.1747
X7.2003Y-4.0777
X7.2007Y-4.5525
X7.2011Y-3.9867
X7.2011Y-3.2207
X7.2012Y-2.4718
X7.2018Y-2.2407
X7.2023Y-0.0015
X7.2067Y-1.9007
X7.2097Y-3.6963
X7.2097Y-0.2261
X7.2106Y-3.3271
X7.2108Y-2.3334
X7.2127Y-4.2676
X7.2131Y-0.1297
X7.2132Y-4.4567
X7.2134Y-4.3619
X7.2139Y-3.7936
X7.2156Y-3.4205
X7.2316Y-2.5233
X7.2337Y-1.7946
X7.2348Y-1.0996
X7.2348Y-0.9241
X7.2382Y-3.4713
X7.2383Y-3.8535
X7.2429Y-1.7119
X7.2432Y-4.6167
X7.2434Y-0.7275
X7.2445Y-1.0096
X7.2447Y-1.9572
X7.2633Y-3.6435
X7.2637Y-4.3909
X7.2644Y-1.8685
X7.2654Y-4.6779
X7.2663Y-4.2009
X7.2706Y-4.4892
X7.2709Y-3.1965
X7.2727Y-4.2955
X7.2732Y-1.1678
X7.274Y-3.3776
X7.2742Y-3.7305
X7.2743Y-4.1117
X7.2745Y-2.3095
X7.2769Y-4.0118
X7.2773Y-2.0308
X7.2779Y-2.2144
X7.2788Y-3.2914
X7.2978Y-2.5542
X7.2998Y-2.4638
X7.3005Y-1.0475
X7.3014Y-3.7999
X7.3039Y-1.5792
X7.3047Y-2.0852
X7.3048Y-4.5488
X7.3058Y-1.7458
X7.3072Y-0.9439
X7.3104Y-1.9299
X7.3275Y-0.0584
X7.3282Y-1.5121
X7.3315Y-3.3201
X7.332Y-2.3455
X7.3324Y-1.2059
X7.3333Y-0.5958
X7.334Y-4.4606
X7.334Y-0.4993
X7.3342Y-4.1699
X7.3347Y-1.8006
X7.3349Y-2.1514
X7.3352Y-0.6982
X7.3363Y-3.0659
X7.3367Y-3.2247
X7.3378Y-4.0742
X7.3381Y-1.1139
X7.3384Y-4.3692
X7.3387Y-3.9873
X7.3396Y-4.6165
X7.3396Y-2.7897
X7.3406Y-2.9732
X7.3411Y-4.271
X7.3412Y-1.9861
X7.342Y-3.8516
X7.3421Y-2.2425
X7.3585Y-4.5242
X7.359Y-1.0148
X7.3604Y-1.6072
X7.3638Y-2.4976
X7.3647Y-3.7241
X7.3651Y-3.3773
X7.3653Y-0.9098
X7.366Y-1.7072
X7.3695Y-4.6756
X7.37Y-1.8649
X7.3727Y-2.0482
X7.391Y-1.7734
X7.3919Y-2.2145
X7.393Y-4.4021
X7.3935Y-3.1018
X7.3942Y-0.4805
X7.3957Y-3.1894
X7.396Y-4.5772
X7.396Y-1.5431
X7.3966Y-0.5646
X7.3973Y-4.2127
X7.3974Y-0.7249
X7.3975Y-2.7476
X7.3975Y-2.5669
X7.3976Y-2.9973
X7.3977Y-4.0077
X7.3982Y-4.3031
X7.3989Y-2.3089
X7.399Y-1.0679
X7.3993Y-2.6626
X7.3998Y-0.281
X7.4013Y-4.1126
X7.4034Y-3.2829
X7.4036Y-2.1218
X7.4047Y-1.9315
X7.427Y-4.6431
X7.4284Y-0.063
X7.4285Y-4.4608
X7.4287Y-1.989
X7.4308Y-0.9405
X7.4319Y-1.8387
X7.432Y-3.3513
X7.433Y-2.468
X7.453Y-3.9764
X7.4558Y-0.2186
X7.4558Y-4.3612
X7.4567Y-0.5124
X7.4574Y-2.0591
X7.4574Y-2.9729
X7.4576Y-2.1839
X7.4578Y-0.1327
X7.4581Y-0.5979
X7.4582Y-4.2678
X7.4585Y-1.8908
X7.4587Y-2.533
X7.4595Y-4.0812
X7.4615Y-3.059
X7.4628Y-1.713
X7.4637Y-2.714
X7.4642Y-4.1658
X7.4656Y-2.6219
X7.4657Y-4.5284
X7.4663Y-3.2212
X7.4671Y-1.0052
X7.4674Y-0.6888
X7.4674Y-2.2739
X7.4868Y-2.343
X7.487Y-4.5796
X7.4872Y-1.9672
X7.4883Y-2.8737
X7.4884Y-3.3832
X7.4886Y-1.7773
X7.4903Y-0.9171
X7.4912Y-4.4198
X7.4916Y-4.6782
X7.4917Y-3.829
X7.4927Y-2.7782
X7.4939Y-1.0732
X7.4947Y-0.2762
X7.499Y-3.2942
X7.5164Y-4.4928
X7.5172Y-2.245
X7.5172Y-0.9727
X7.5177Y-2.9443
X7.5187Y-0.7306
X7.5188Y-3.4807
X7.5193Y-2.6482
X7.5198Y-4.0079
X7.5207Y-0.1517
X7.5208Y-2.4709
X7.5218Y-0.5737
X7.5232Y-2.5656
X7.5233Y-3.0352
X7.5242Y-3.1882
X7.5267Y-0.4726
X7.5268Y-4.2968
X7.5269Y-3.7663
X7.5282Y-4.202
X7.5283Y-1.4861
X7.5294Y-4.104
X7.5312Y-1.8286
X7.5319Y-0.059
X7.5489Y-4.3591
X7.5498Y-0.3187
X7.5512Y-0.2235
X7.552Y-1.7399
X7.5547Y-2.721
X7.5552Y-1.5565
X7.5558Y-3.3574
X7.5563Y-2.3033
X7.5569Y-3.8513
X7.5571Y-1.9008
X7.5572Y-2.818
X7.5572Y-0.4145
X7.5577Y-4.6545
X7.5597Y-3.0988
X7.5609Y-4.5581
X7.5618Y-1.267
X7.5621Y-3.25
X7.5806Y-0.9179
X7.581Y-3.7971
X7.582Y-1.1332
X7.5823Y-0.0988
X7.5824Y-0.6975
X7.5839Y-4.2729
X7.585Y-1.8078
X7.5868Y-4.4293
X7.587Y-3.9908
X7.5881Y-0.5943
X7.5892Y-2.8772
X7.5896Y-2.5975
X7.591Y-4.1769
X7.5917Y-2.4922
X7.593Y-4.0775
X7.5933Y-0.5115
X7.5945Y-2.9677
X7.6116Y-2.6585
X7.6118Y-3.2818
X7.612Y-3.0354
X7.6126Y-3.1911
X7.6134Y-0.2558
X7.6147Y-1.5818
X7.6148Y-4.5776
X7.6149Y-0.1616
X7.6153Y-0.4485
X7.6168Y-1.8625
X7.6189Y-0.3446
X7.6194Y-4.4964
X7.6196Y-2.7574
X7.6221Y-1.2086
X7.6233Y-1.4865
X7.6238Y-4.3241
X7.6241Y-4.681
X7.6438Y-2.4664
X7.6453Y-2.9431
X7.6458Y-4.0109
X7.6467Y-4.1133
X7.6477Y-3.7588
X7.6483Y-1.2586
X7.6494Y-0.7314
X7.6503Y-1.0773
X7.6524Y-0.0631
X7.6538Y-0.5315
X7.6543Y-4.4017
X7.6543Y-2.5599
X7.6545Y-4.2044
X7.6556Y-2.8069
X7.6572Y-3.8523
X7.6573Y-3.1055
X7.6746Y-0.1314
X7.6748Y-3.313
X7.6753Y-3.2274
X7.6755Y-2.6292
X7.6766Y-0.4029
X7.6779Y-1.3223
X7.6784Y-1.132
X7.6788Y-0.2157
X7.6788Y-1.518
X7.6793Y-4.2682
X7.6795Y-2.9972
X7.6799Y-4.6512
X7.6808Y-4.4515
X7.6826Y-1.6059
X7.6829Y-1.9349
X7.6834Y-1.8338
X7.6837Y-0.6023
X7.6848Y-4.5453
X7.6869Y-0.3177
X7.6884Y-2.7215
X7.689Y-2.2718
X7.6891Y-1.415
X7.707Y-1.2062
X7.7091Y-3.9783
X7.7099Y-1.0065
X7.7108Y-3.8275
X7.7121Y-4.1751
X7.7131Y-2.3371
X7.7145Y-3.7298
X7.715Y-2.4951
X7.7157Y-0.6907
X7.7168Y-3.0639
X7.7179Y-0.4735
X7.7206Y-4.3271
X7.7207Y-4.0712
X7.7376Y-1.4559
X7.7381Y-3.513
X7.7396Y-1.7094
X7.7418Y-4.2371
X7.7429Y-2.5639
X7.7437Y-0.2455
X7.7443Y-1.9856
X7.7453Y-0.0548
X7.7466Y-2.9695
X7.7469Y-1.5521
X7.7479Y-1.9018
X7.7486Y-4.4015
X7.7494Y-1.0758
X7.7498Y-2.6616
X7.7504Y-4.5882
X7.7507Y-0.1621
X7.7507Y-1.3597
X7.7508Y-3.1867
X7.7518Y-4.6816
X7.7519Y-4.4854
X7.7532Y-0.5317
X7.7533Y-1.2576
X7.7721Y-4.2944
X7.7723Y-3.8575
X7.7725Y-4.0107
X7.773Y-3.7661
X7.7733Y-0.9515
X7.7756Y-0.6016
X7.7767Y-2.2752
X7.7771Y-1.7761
X7.7807Y-4.1111
X7.7815Y-1.1371
X7.7816Y-0.7311
X7.7821Y-1.6076
X7.7822Y-3.4097
X7.7823Y-2.4627
X7.801Y-4.7467
X7.8012Y-1.2901
X7.8021Y-3.4803
X7.8029Y-0.0863
X7.8036Y-4.5528
X7.8059Y-1.3905
X7.8059Y-4.3611
X7.8059Y-2.6194
X7.8076Y-2.5229
X7.8088Y-4.4636
X7.8096Y-1.4871
X7.8103Y-0.4782
X7.8123Y-2.3399
X7.8132Y-4.6431
X7.8136Y-1.0148
X7.8139Y-1.2046
X7.8166Y-4.1714
X7.8361Y-1.0779
X7.8377Y-3.6959
X7.8384Y-3.9768
X7.8385Y-3.3479
X7.8407Y-1.7997
X7.8408Y-0.5318
X7.842Y-3.7891
X7.8429Y-4.0862
X7.8439Y-0.8818
X7.8455Y-0.6951
X7.8456Y-3.5335
X7.8464Y-4.2434
X7.8467Y-1.5507
X7.847Y-0.164
X7.8477Y-1.7139
X7.8642Y-0.9402
X7.8647Y-1.2389
X7.8647Y-4.3932
X7.8651Y-3.4121
X7.8691Y-1.6199
X7.8693Y-0.5937
X7.87Y-4.5769
X7.8709Y-4.4931
X7.8723Y-3.6043
X7.8725Y-4.293
X7.8728Y-2.5917
X7.8736Y-4.6818
X7.8752Y-0.056
X7.8754Y-4.1496
X7.8766Y-3.8562
X7.8768Y-2.694
X7.8786Y-3.0272
X7.8786Y-4.7758
X7.8792Y-1.1325
X7.8977Y-1.0167
X7.8977Y-3.7608
X7.898Y-3.4831
X7.8988Y-3.674
X7.899Y-4.2128
X7.8996Y-4.0174
X7.9017Y-0.1265
X7.9033Y-1.4923
X7.9035Y-0.8207
X7.9044Y-3.2898
X7.9053Y-2.2434
X7.9064Y-2.3377
X7.9075Y-1.731
X7.908Y-0.5089
X7.9088Y-2.0166
X7.9276Y-2.6623
X7.9278Y-1.8038
X7.928Y-3.3489
X7.9291Y-1.0772
X7.9316Y-1.1695
X7.9332Y-4.2709
X7.9356Y-4.5553
X7.9359Y-4.7377
X7.9372Y-3.5387
X7.9374Y-4.4628
X7.9377Y-1.5441
X7.9391Y-4.6481
X7.9395Y-4.0717
X7.9396Y-0.8835
X7.94Y-3.8247
X7.9403Y-2.4658
X7.9407Y-4.3675
X7.9428Y-3.0622
X7.943Y-0.5631
X7.9589Y-1.9654
X7.962Y-3.2269
X7.9622Y-4.1345
X7.9623Y-2.2722
X7.9632Y-3.6105
X7.9632Y-0.0602
X7.9646Y-1.7052
X7.9666Y-3.9902
X7.9687Y-3.4142
X7.9689Y-2.5275
X7.9707Y-0.1533
X7.9709Y-0.762
X7.9732Y-1.8584
X7.9738Y-3.6932
X7.974Y-0.9497
X7.9916Y-4.2943
X7.9935Y-3.8608
X7.9941Y-1.7759
X7.9943Y-2.3381
X7.9949Y-1.0047
X7.9993Y-4.3904
X8.0001Y-0.8139
X8.0009Y-4.4902
X8.0011Y-3.7545
X8.0023Y-4.5873
X8.0027Y-3.4755
X8.0029Y-1.1093
X8.0031Y-2.0185
X8.0049Y-4.6839
X8.005Y-3.2916
X8.0053Y-4.7811
X8.0053Y-4.2129
X8.025Y-3.1934
X8.025Y-1.1673
X8.0259Y-0.7283
X8.0292Y-1.9262
X8.0311Y-2.2075
X8.0339Y-3.5414
X8.0342Y-3.3486
X8.0343Y-1.8256
X8.0349Y-2.5607
X8.0357Y-2.4616
X8.0377Y-0.8808
X8.0554Y-4.239
X8.0562Y-0.0618
X8.0563Y-2.0851
X8.0572Y-1.9845
X8.0581Y-2.2695
X8.0616Y-1.7007
X8.0617Y-4.5151
X8.0617Y-3.7264
X8.0617Y-1.5101
X8.0627Y-3.4204
X8.0646Y-0.9553
X8.0648Y-3.8219
X8.0652Y-4.4247
X8.0655Y-1.0472
X8.0668Y-1.6072
X8.0672Y-4.3312
X8.0675Y-0.7943
X8.0695Y-3.2621
X8.0865Y-1.2008
X8.0876Y-2.1549
X8.0877Y-3.0602
X8.0886Y-1.8578
X8.0887Y-1.0997
X8.0889Y-4.7715
X8.0896Y-2.4902
X8.0925Y-0.851
X8.093Y-2.9656
X8.0954Y-3.3266
X8.0961Y-2.7824
X8.0978Y-1.7757
X8.0982Y-2.3363
X8.117Y-0.7279
X8.1188Y-3.1932
X8.1192Y-4.2953
X8.1204Y-1.0058
X8.1207Y-4.4967
X8.1212Y-4.2016
X8.1216Y-4.3873
X8.1226Y-2.5578
X8.1257Y-1.5559
X8.1259Y-3.8538
X8.1288Y-3.3797
X8.131Y-0.915
X8.1311Y-1.9224
X8.1316Y-2.2137
X8.1325Y-3.7633
X8.1327Y-2.0193
X8.1496Y-2.2719
X8.1498Y-1.6157
X8.1499Y-3.1048
X8.1532Y-1.0767
X8.1546Y-2.7261
X8.1551Y-0.0608
X8.157Y-2.0846
X8.1571Y-0.5996
X8.1582Y-1.7036
X8.1591Y-3.2612
X8.1602Y-2.6275
X8.1605Y-3.0023
X8.1617Y-1.8048
X8.1621Y-2.4622
X8.1639Y-0.7944
X8.1811Y-4.3349
X8.1812Y-2.7846
X8.183Y-4.234
X8.1834Y-0.7004
X8.1845Y-4.5192
X8.1852Y-4.7698
X8.1857Y-2.5293
X8.1859Y-3.4081
X8.1864Y-0.9524
X8.1873Y-2.1488
X8.1881Y-1.5149
X8.1893Y-0.8593
X8.1899Y-3.3248
X8.1926Y-2.3423
X8.1935Y-4.427
X8.1951Y-1.8663
X8.1959Y-1.9582
X8.2132Y-2.5961
X8.2147Y-3.0365
X8.2148Y-4.1806
X8.2159Y-0.7609
X8.2164Y-2.9378
X8.2168Y-2.6794
X8.2173Y-1.7311
X8.2185Y-0.5112
X8.2188Y-3.1917
X8.2193Y-2.2102
X8.2227Y-1.0172
X8.2241Y-2.0247
X8.2437Y-0.5721
X8.246Y-4.4576
X8.2466Y-2.4648
X8.247Y-1.9002
X8.2476Y-2.8467
X8.2478Y-4.6404
X8.2498Y-3.8541
X8.2508Y-0.8291
X8.2508Y-3.103
X8.2509Y-0.9168
X8.254Y-0.0558
X8.2546Y-3.7614
X8.2547Y-4.7443
X8.2547Y-2.2808
X8.255Y-4.2752
X8.2553Y-3.3489
X8.2553Y-4.5479
X8.2573Y-3.2499
X8.2577Y-2.7467
X8.2579Y-1.7998
X8.2581Y-4.3569
X8.259Y-3.4517
X8.2763Y-0.9753
X8.2764Y-2.5231
X8.2764Y-0.6923
X8.2795Y-2.6264
X8.2826Y-0.4751
X8.2831Y-2.91
X8.2832Y-1.4897
X8.2846Y-3.0003
X8.2856Y-4.2033
X8.2874Y-4.082
X8.2875Y-3.9767
X8.2893Y-2.3358
X8.3074Y-0.5323
X8.3075Y-0.0994
X8.3075Y-2.247
X8.3079Y-0.7576
X8.3082Y-3.0738
X8.3091Y-4.1436
X8.3099Y-4.7749
X8.31Y-3.1924
X8.3101Y-2.6853
X8.3112Y-4.4961
X8.3126Y-1.8322
X8.3128Y-1.7377
X8.3133Y-4.3942
X8.3134Y-0.8562
X8.3135Y-0.258
X8.3139Y-4.3044
X8.3142Y-4.6807
X8.3161Y-4.5872
X8.3173Y-1.2618
X8.3178Y-2.7865
X8.3178Y-1.5511
X8.322Y-3.8013
X8.3225Y-3.281
X8.3392Y-4.0229
X8.3396Y-3.8607
X8.3415Y-2.472
X8.3421Y-0.6033
X8.3423Y-0.9227
X8.3423Y-2.8484
X8.3475Y-4.2398
X8.3475Y-1.9044
X8.3504Y-2.9383
X8.3506Y-0.1549
X8.3516Y-2.5544
X8.3524Y-1.1414
X8.3711Y-1.204
X8.3712Y-4.3358
X8.372Y-4.4241
X8.3723Y-3.7547
X8.3725Y-3.0098
X8.3733Y-1.4915
X8.3733Y-2.7203
X8.3736Y-4.7074
X8.375Y-3.222
X8.3753Y-1.7956
X8.3768Y-4.5267
X8.3804Y-4.1787
X8.3809Y-3.0994
X8.3811Y-4.086
X8.3819Y-1.5778
X8.3819Y-0.2159
X8.382Y-0.7828
X8.3827Y-0.062
X8.3832Y-3.3177
X8.3837Y-4.609
X8.3849Y-0.7005
X8.3849Y-0.4752
X8.3856Y-2.6177
X8.4025Y-2.7756
X8.404Y-4.2761
X8.4052Y-0.2788
X8.4069Y-1.2714
X8.4075Y-0.5425
X8.4077Y-0.3799
X8.4078Y-0.1248
X8.4091Y-2.5035
X8.4106Y-0.8542
X8.4115Y-3.8296
X8.4123Y-1.0767
X8.4124Y-4.7734
X8.4134Y-3.9837
X8.4155Y-1.8637
X8.4336Y-4.1401
X8.4344Y-1.1449
X8.4346Y-2.6526
X8.4353Y-4.4514
X8.4369Y-3.1907
X8.4382Y-4.55
X8.4385Y-3.2851
X8.4394Y-3.0726
X8.4397Y-4.3643
X8.4406Y-0.4488
X8.4406Y-2.9759
X8.4407Y-0.6007
X8.4413Y-1.5238
X8.443Y-0.7231
X8.4435Y-1.4207
X8.4435Y-2.563
X8.4439Y-1.6086
X8.4445Y-3.7325
X8.4449Y-0.182
X8.4449Y-4.6457
X8.4463Y-2.2713
X8.4467Y-1.3246
X8.4474Y-1.9282
X8.4475Y-4.0545
X8.449Y-3.5364
X8.4667Y-0.3397
X8.4668Y-1.0073
X8.4683Y-4.7044
X8.4684Y-0.2541
X8.4696Y-0.0568
X8.4706Y-2.4715
X8.4721Y-4.1973
X8.4721Y-0.7842
X8.4737Y-0.5021
X8.4741Y-3.7932
X8.4749Y-4.3074
X8.4757Y-1.1958
X8.4801Y-2.3352
X8.4967Y-4.0745
X8.4969Y-0.1303
X8.4969Y-1.5487
X8.4971Y-2.6181
X8.4972Y-3.986
X8.4976Y-0.4025
X8.4988Y-4.4021
X8.499Y-4.5812
X8.4992Y-3.2295
X8.5016Y-1.08
X8.5019Y-3.1011
X8.5024Y-4.4838
X8.5039Y-1.459
X8.504Y-1.3669
X8.5053Y-0.5672
X8.5056Y-2.5228
X8.5071Y-4.7749
X8.5079Y-0.6973
X8.5081Y-2.9964
X8.5083Y-1.9878
X8.5085Y-1.7114
X8.5099Y-1.2715
X8.5102Y-3.8528
X8.5282Y-0.2881
X8.5289Y-4.6472
X8.5303Y-4.2416
X8.5304Y-3.7317
X8.5334Y-4.3377
X8.5344Y-0.752
X8.5376Y-3.3751
X8.538Y-1.777
X8.5383Y-1.6048
X8.5389Y-0.942
X8.5396Y-0.4777
X8.5411Y-1.1379
X8.5429Y-2.2789
X8.5432Y-4.1388
X8.5434Y-0.1872
X8.5609Y-0.5419
X8.5618Y-2.6534
X8.5625Y-2.556
X8.5653Y-1.4779
X8.5653Y-0.0701
X8.566Y-4.4297
X8.5674Y-1.0058
X8.5678Y-1.2054
X8.5683Y-0.3426
X8.5694Y-3.7983
X8.5695Y-4.5268
X8.5702Y-1.3908
X8.5708Y-4.0172
X8.5744Y-1.2963
X8.5748Y-4.7033
X8.5916Y-4.181
X8.5947Y-0.5934
X8.5947Y-4.2736
X8.5965Y-4.3599
X8.5966Y-3.4112
X8.5967Y-0.8846
X8.597Y-0.1231
X8.5993Y-3.8531
X8.6002Y-3.3178
X8.6002Y-1.7076
X8.6011Y-1.0697
X8.6046Y-1.7955
X8.6055Y-0.7332
X8.6059Y-3.6984
X8.606Y-1.5449
X8.6063Y-4.5889
X8.6064Y-4.0738
X8.6065Y-0.2218
X8.6065Y-4.7678
X8.624Y-0.475
X8.626Y-3.9824
X8.6268Y-1.6089
X8.627Y-1.142
X8.6275Y-4.4636
X8.6322Y-3.7622
X8.6327Y-0.9535
X8.6341Y-3.0424
X8.6361Y-2.6936
X8.6369Y-3.4756
X8.6374Y-4.6504
X8.6375Y-2.5846
X8.6547Y-3.2564
X8.6557Y-0.1514
X8.6559Y-4.0454
X8.6572Y-3.353
X8.6573Y-4.331
X8.6578Y-3.8215
X8.6581Y-4.5198
X8.6583Y-4.1491
X8.659Y-2.0184
X8.659Y-0.8247
X8.6599Y-2.2501
X8.6641Y-4.2424
X8.6649Y-0.5366
X8.6665Y-2.3358
X8.6666Y-1.7359
X8.6669Y-1.0141
X8.6672Y-4.7123
X8.668Y-1.4835
X8.669Y-0.0591
X8.6894Y-1.5421
X8.6904Y-1.0766
X8.6907Y-2.4617
X8.6914Y-4.7684
X8.6932Y-4.4015
X8.6934Y-3.7342
X8.6943Y-1.7964
X8.6952Y-3.5162
X8.6965Y-3.0613
X8.6976Y-4.5905
X8.698Y-3.413
X8.7005Y-0.8784
X8.701Y-1.1614
X8.7185Y-3.7944
X8.7191Y-0.7505
X8.7192Y-3.3183
X8.7192Y-4.1674
X8.7193Y-2.5231
X8.7195Y-1.7015
X8.7199Y-3.5745
X8.7244Y-4.6428
X8.7263Y-0.0953
X8.7267Y-4.2644
X8.7274Y-4.0852
X8.7276Y-4.4505
X8.729Y-2.279
X8.7301Y-3.9908
X8.7304Y-1.8728
X8.7305Y-0.9468
X8.7322Y-3.2217
X8.7336Y-1.9546
X8.7509Y-3.8622
X8.7513Y-1.0119
X8.7515Y-0.8255
X8.7515Y-1.1129
X8.7516Y-3.3877
X8.7516Y-3.473
X8.755Y-0.1593
X8.7579Y-4.5236
X8.7608Y-2.3417
X8.7614Y-4.3388
X8.7621Y-1.7697
X8.7636Y-2.0153
X8.7645Y-4.7048
X8.7651Y-2.2165
X8.7812Y-1.1742
X8.7814Y-2.1183
X8.7842Y-0.5086
X8.7868Y-1.9213
X8.7881Y-0.7026
X8.7885Y-4.78
X8.7891Y-3.2921
X8.7898Y-3.5373
X8.7901Y-2.5591
X8.7912Y-0.8905
X8.7932Y-2.4736
X8.7944Y-0.0573
X8.7948Y-4.2051
X8.795Y-0.6016
X8.7966Y-1.8331
X8.7968Y-3.2006
X8.8151Y-1.7134
X8.8154Y-3.4434
X8.8203Y-2.1755
X8.8219Y-0.7537
X8.8221Y-1.5168
X8.8224Y-4.4941
X8.8245Y-1.9914
X8.8248Y-2.2819
X8.8251Y-3.3525
X8.8254Y-1.6157
X8.8261Y-0.9504
X8.8277Y-1.0385
X8.8463Y-1.7767
X8.8464Y-1.196
X8.8472Y-2.336
X8.8484Y-2.4924
X8.8498Y-3.0682
X8.8514Y-2.0607
X8.8517Y-3.2302
X8.8525Y-1.1101
X8.8536Y-0.5344
X8.8565Y-1.8638
X8.8572Y-2.9786
X8.859Y-0.8189
X8.8592Y-2.7796
X8.876Y-1.5436
X8.8777Y-4.7793
X8.8778Y-0.6055
X8.8794Y-0.8879
X8.8814Y-3.3883
X8.8816Y-4.5191
X8.8828Y-0.7007
X8.8835Y-3.2857
X8.8877Y-2.1257
X8.8894Y-2.5654
X8.8896Y-0.9873
X8.8908Y-2.2063
X8.8914Y-1.9281
X8.909Y-1.0499
X8.9094Y-1.7102
X8.9107Y-1.8066
X8.9127Y-2.7128
X8.9156Y-0.7576
X8.9188Y-3.1912
X8.9193Y-1.6053
X8.9195Y-2.4672
X8.9201Y-3.0904
X8.9213Y-2.6261
X8.9213Y-3.0113
X8.9225Y-2.2835
X8.9225Y-1.9961
X8.9403Y-1.8649
X8.9415Y-2.0504
X8.9418Y-2.7878
X8.9439Y-3.3501
X8.9441Y-0.9097
X8.9451Y-3.2573
X8.9467Y-0.5
X8.9479Y-2.5257
X8.9496Y-2.3337
X8.9527Y-2.1496
X8.9548Y-0.8228
X8.9728Y-1.7361
X8.9738Y-1.9267
X8.976Y-4.1727
X8.9767Y-2.9461
X8.9776Y-2.5934
X8.978Y-3.0284
X8.9804Y-1.0674
X8.9808Y-4.7483
X8.981Y-2.6939
X8.9812Y-2.2166
X8.9827Y-0.6898
X8.984Y-3.42
X8.985Y-2.8471
X8.985Y-0.5696
X8.9865Y-0.9841
X9.0024Y-3.0931
X9.0037Y-0.7604
X9.0038Y-3.761
X9.0038Y-2.2742
X9.0076Y-4.0401
X9.008Y-1.7974
X9.0098Y-3.1945
X9.0116Y-0.8553
X9.013Y-2.7505
X9.014Y-3.2951
X9.0173Y-2.4736
X9.0341Y-1.871
X9.0352Y-0.5369
X9.0353Y-3.819
X9.0363Y-3.0032
X9.0384Y-3.4426
X9.0396Y-2.8185
X9.0398Y-4.7086
X9.0398Y-2.5302
X9.0414Y-1.0183
X9.0419Y-2.9086
X9.0446Y-1.4865
X9.045Y-2.3462
X9.0451Y-0.9197
X9.0463Y-2.6316
X9.0494Y-3.3573
X9.0657Y-2.6795
X9.0665Y-0.595
X9.0676Y-4.6185
X9.0682Y-1.167
X9.0705Y-1.7424
X9.0714Y-3.0687
X9.072Y-0.6906
X9.0736Y-4.5274
X9.0757Y-0.7827
X9.0757Y-1.5561
X9.076Y-4.7768
X9.0798Y-1.2711
X9.0809Y-3.2259
X9.0979Y-3.7548
X9.0995Y-2.4707
X9.0996Y-1.8032
X9.1001Y-1.8954
X9.1056Y-2.8527
X9.1065Y-0.8476
X9.1092Y-2.7554
X9.1095Y-2.5645
X9.1099Y-2.9452
X9.1112Y-3.2806
X9.1117Y-0.9548
X9.1118Y-0.1497
X9.1305Y-4.554
X9.1351Y-2.618
X9.1361Y-3.094
X9.1376Y-1.1954
X9.1377Y-0.7293
X9.1397Y-4.711
X9.1401Y-1.4828
X9.1412Y-1.5802
X9.142Y-1.1052
X9.1421Y-3.0054
X9.1422Y-3.1894
X9.1609Y-1.8355
X9.1623Y-0.8861
X9.1632Y-2.3453
X9.1633Y-4.6176
X9.1647Y-4.7726
X9.1654Y-2.6927
X9.1685Y-4.4867
X9.1694Y-0.7873
X9.1695Y-1.3637
X9.1712Y-1.2654
X9.1737Y-3.2529
X9.1742Y-1.9222
X9.1745Y-2.7785
X9.176Y-2.501
X9.1928Y-1.0363
X9.1957Y-1.5106
X9.1961Y-3.7379
X9.1987Y-3.8225
X9.1991Y-1.4234
X9.2009Y-3.0712
X9.2009Y-1.1393
X9.2016Y-2.2692
X9.2018Y-0.057
X9.2019Y-1.6098
X9.2023Y-3.5379
X9.2036Y-2.968
X9.2061Y-2.556
X9.2073Y-4.0077
X9.2076Y-0.6049
X9.2247Y-1.2969
X9.225Y-4.7047
X9.2284Y-4.0823
X9.2298Y-0.5022
X9.2313Y-3.1983
X9.2314Y-1.2009
X9.2329Y-1.903
X9.2339Y-0.6895
X9.2346Y-2.4687
X9.2369Y-2.6178
X9.2375Y-0.8242
X9.2377Y-4.56
X9.2566Y-3.767
X9.2577Y-1.3576
X9.2578Y-2.3121
X9.2582Y-1.7085
X9.2583Y-1.0783
X9.2588Y-0.7642
X9.2598Y-3.0949
X9.2602Y-1.543
X9.2637Y-0.5696
X9.2643Y-0.2861
X9.2648Y-0.9825
X9.2649Y-3.5072
X9.2653Y-3.9871
X9.2654Y-4.1713
X9.2657Y-3.4085
X9.2682Y-4.6184
X9.2698Y-2.5287
X9.2702Y-1.456
X9.2707Y-3.8544
X9.2711Y-4.776
X9.2908Y-4.0536
X9.2909Y-0.0681
X9.2942Y-1.7737
X9.2946Y-1.1444
X9.2951Y-0.4702
X9.2963Y-2.5899
X9.2979Y-1.6101
X9.3024Y-1.2331
X9.3191Y-0.5356
X9.3191Y-4.2111
X9.3193Y-1.4855
X9.32Y-4.1159
X9.3217Y-1.0073
X9.3225Y-3.3467
X9.3244Y-3.8222
X9.3256Y-1.3939
X9.3261Y-3.5343
X9.3268Y-1.2974
X9.3285Y-3.7252
X9.3286Y-0.9109
X9.3291Y-4.7049
X9.3295Y-0.2167
X9.3301Y-2.6584
X9.3311Y-0.1285
X9.3334Y-3.4525
X9.3341Y-0.6882
X9.351Y-4.2681
X9.3514Y-4.7787
X9.3523Y-3.6047
X9.3525Y-1.7991
X9.3529Y-3.096
X9.3536Y-1.0724
X9.3549Y-3.9858
X9.3566Y-1.5499
X9.3576Y-0.6008
X9.3613Y-1.7128
X9.3634Y-1.1666
X9.3647Y-0.2904
X9.3828Y-2.315
X9.383Y-2.7225
X9.3832Y-3.4845
X9.3853Y-0.4699
X9.3864Y-2.6289
X9.3876Y-0.0568
X9.3879Y-3.3814
X9.3894Y-0.941
X9.391Y-4.0544
X9.3918Y-2.2197
X9.3922Y-1.6154
X9.3923Y-3.7571
X9.393Y-4.1476
X9.3934Y-0.8583
X9.3934Y-0.1641
X9.3938Y-3.033
X9.394Y-3.6608
X9.3948Y-3.8613
X9.3954Y-3.2936
X9.3966Y-4.5279
X9.4138Y-1.8325
X9.4157Y-3.5396
X9.4172Y-0.5391
X9.4201Y-4.1982
X9.4232Y-1.1074
X9.4232Y-4.3058
X9.4244Y-1.4792
X9.4257Y-1.0134
X9.426Y-4.739
X9.4263Y-2.0254
X9.4268Y-1.7371
X9.4468Y-2.473
X9.4468Y-3.4104
X9.4483Y-1.1619
X9.4486Y-3.796
X9.449Y-3.3164
X9.4496Y-3.9849
X9.4497Y-1.5766
X9.4498Y-2.2372
X9.4518Y-0.7874
X9.4527Y-1.8967
X9.4532Y-3.6081
X9.4559Y-0.0998
X9.4565Y-3.7031
X9.4566Y-0.8805
X9.4575Y-2.3469
X9.4587Y-4.0795
X9.4604Y-3.2207
X9.4795Y-4.24
X9.4814Y-0.1571
X9.4825Y-1.9558
X9.4839Y-1.0499
X9.4857Y-0.9518
X9.4874Y-1.703
X9.4875Y-3.8593
X9.4876Y-3.4743
X9.4881Y-2.5237
X9.4891Y-4.1368
X9.4897Y-1.807
X9.5106Y-3.3773
X9.5113Y-3.7364
X9.5124Y-3.287
X9.5127Y-2.3017
X9.5133Y-2.0214
X9.5141Y-4.0109
X9.5152Y-1.8633
X9.5152Y-0.8263
X9.5164Y-1.1042
X9.5165Y-4.2951
X9.5173Y-3.5479
X9.5177Y-0.5096
X9.5179Y-0.7326
X9.52Y-0.0685
X9.5205Y-3.6365
X9.5213Y-2.2056
X9.5223Y-3.1967
X9.5226Y-4.4021
X9.5427Y-1.745
X9.5428Y-0.1309
X9.5431Y-2.4612
X9.5435Y-3.7922
X9.545Y-0.8773
X9.5472Y-1.5739
X9.548Y-0.5749
X9.5487Y-2.0864
X9.5496Y-4.1705
X9.5498Y-4.0864
X9.5499Y-2.5652
X9.5509Y-0.9724
X9.5517Y-1.9297
X9.5528Y-3.449
X9.5544Y-1.1635
X9.5726Y-0.7942
X9.5726Y-1.8025
X9.5737Y-3.0673
X9.5747Y-2.2405
X9.5753Y-1.2253
X9.5763Y-3.9781
X9.5803Y-1.9856
X9.5809Y-3.3184
X9.5814Y-1.5245
X9.5816Y-1.0349
X9.5823Y-3.2309
X9.5823Y-2.784
X9.5833Y-2.1464
X9.5837Y-2.3354
X9.5842Y-0.6899
X9.5872Y-3.8526
X9.5874Y-2.9795
X9.6034Y-1.8707
X9.6048Y-3.3772
X9.6092Y-3.7283
X9.6099Y-0.055
X9.6099Y-0.947
X9.6102Y-2.5015
X9.6104Y-1.6062
X9.6113Y-4.0463
X9.6117Y-4.135
X9.6128Y-0.8488
X9.6131Y-1.1056
X9.6162Y-0.2176
X9.6171Y-0.5307
X9.6182Y-2.051
X9.6185Y-1.7063
X9.6351Y-2.6584
X9.6366Y-3.0017
X9.6385Y-2.3033
X9.6385Y-2.1227
X9.6385Y-1.9321
X9.6389Y-2.2112
X9.6406Y-2.5591
X9.6422Y-2.7496
X9.6438Y-3.2807
X9.6449Y-1.5438
X9.6465Y-3.1964
X9.6468Y-3.8306
X9.6472Y-3.1029
X9.6476Y-0.6062
X9.6481Y-0.7285
X9.6494Y-1.0113
X9.65Y-1.7714
X9.6671Y-3.9762
X9.6674Y-4.0723
X9.6682Y-0.8865
X9.6692Y-2.4671
X9.6706Y-1.0757
X9.6729Y-4.1751
X9.6732Y-3.3464
X9.6775Y-1.8258
X9.6783Y-1.9966
X9.6815Y-0.7936
X9.6987Y-0.5044
X9.6995Y-2.2394
X9.7006Y-1.9032
X9.7015Y-4.5511
X9.7018Y-2.5246
X9.7019Y-2.0573
X9.7028Y-3.224
X9.7035Y-3.421
X9.7045Y-2.3396
X9.7045Y-0.7019
X9.7049Y-2.9661
X9.7053Y-2.1525
X9.708Y-2.7254
X9.7086Y-2.6165
X9.7088Y-3.0598
X9.7107Y-1.7113
X9.7304Y-1.7671
X9.7307Y-0.5672
X9.7312Y-4.6193
X9.7322Y-2.8715
X9.7334Y-1.9576
X9.7346Y-0.7596
X9.735Y-3.2914
X9.735Y-4.1152
X9.7364Y-4.0075
X9.7427Y-2.7891
X9.7436Y-4.8322
X9.7452Y-3.8265
X9.7616Y-3.7593
X9.762Y-2.459
X9.7624Y-0.9094
X9.7626Y-1.0101
X9.7672Y-1.4826
X9.7674Y-3.347
X9.768Y-2.2705
X9.7701Y-2.5582
X9.7704Y-4.7175
X9.7716Y-3.1905
X9.7732Y-2.6495
X9.7757Y-3.4472
X9.7757Y-1.8331
X9.7767Y-2.937
X9.7768Y-3.0367
X9.7942Y-3.9801
X9.7955Y-3.8501
X9.7966Y-0.6956
X9.7974Y-1.264
X9.7984Y-3.093
X9.8001Y-2.3337
X9.8006Y-1.7335
X9.8012Y-1.5463
X9.8014Y-4.5817
X9.8015Y-4.7819
X9.8043Y-3.2592
X9.8045Y-0.5337
X9.806Y-1.8952
X9.8061Y-2.81
X9.8078Y-2.7247
X9.8079Y-2.2072
X9.8084Y-1.0696
X9.8251Y-2.8715
X9.8253Y-2.9672
X9.8268Y-3.3147
X9.8272Y-4.8359
X9.8314Y-1.1338
X9.8324Y-0.5946
X9.835Y-1.7974
X9.8351Y-0.8521
X9.8373Y-3.797
X9.8377Y-0.122
X9.8381Y-2.6
X9.8381Y-2.5009
X9.8382Y-0.2244
X9.8398Y-0.9454
X9.8583Y-2.7447
X9.8588Y-1.1997
X9.8589Y-1.5775
X9.859Y-3.0336
X9.8611Y-3.1951
X9.862Y-1.4829
X9.8642Y-1.0133
X9.8645Y-1.8658
X9.8658Y-4.7082
X9.8683Y-2.6579
X9.8905Y-3.0953
X9.8909Y-2.9158
X9.8937Y-2.8077
X9.8981Y-1.0786
X9.8986Y-0.7927
X9.9002Y-2.5539
X9.9002Y-1.2659
X9.9006Y-4.7769
X9.9007Y-3.2539
X9.902Y-0.8921
X9.903Y-2.4641
X9.9199Y-4.8432
X9.9216Y-1.9227
X9.9239Y-2.9696
X9.9249Y-2.6285
X9.9255Y-1.4211
X9.9259Y-2.7146
X9.9275Y-1.8332
X9.9277Y-3.3222
X9.9294Y-0.955
X9.931Y-1.5231
X9.9316Y-2.3342
X9.9326Y-1.6057
X9.9326Y-4.5831
X9.9351Y-1.331
X9.9352Y-1.133
X9.9513Y-4.7177
X9.9529Y-2.276
X9.954Y-4.5215
X9.9546Y-3.8308
X9.9563Y-3.0374
X9.958Y-1.0037
X9.9592Y-0.0657
X9.9601Y-1.2021
X9.962Y-3.7293
X9.963Y-3.2
X9.9654Y-2.5049
X9.984Y-3.1045
X9.984Y-3.5024
X9.9849Y-1.7094
X9.9862Y-2.6477
X9.9863Y-1.4497
X9.9875Y-1.8962
X9.9897Y-3.2516
X9.9897Y-1.9897
X9.9898Y-1.2598
X9.9903Y-1.3601
X9.9907Y-1.0778
X9.9941Y-2.5677
X9.9962Y-1.5477
X9.9974Y-0.8921
X10.0165Y-3.7686
X10.0169Y-3.4158
X10.0174Y-3.8497
X10.019Y-1.7726
X10.0195Y-0.6877
X10.02Y-3.9792
X10.0206Y-1.6199
X10.0227Y-2.4592
X10.0235Y-2.3047
X10.0254Y-2.9794
X10.0257Y-1.1417
X10.0273Y-0.9407
X10.0461Y-4.5152
X10.0463Y-1.4818
X10.0482Y-1.208
X10.0499Y-2.6193
X10.0512Y-2.5334
X10.0518Y-0.4789
X10.0523Y-1.0073
X10.0525Y-0.5762
X10.0595Y-1.2931
X10.0596Y-3.4791
X10.0596Y-1.3966
X10.06Y-0.0569
X10.0796Y-3.7947
X10.0801Y-0.1308
X10.0802Y-3.7014
X10.081Y-3.3542
X10.0815Y-1.5443
X10.0826Y-4.0153
X10.0832Y-1.0729
X10.0836Y-0.2203
X10.0885Y-3.5369
X10.0898Y-0.8794
X10.0905Y-1.8082
X10.0921Y-1.7015
X10.1099Y-3.5994
X10.1108Y-0.9427
X10.112Y-3.1008
X10.1139Y-4.7162
X10.115Y-1.1324
X10.1156Y-1.2254
X10.1156Y-2.5996
X10.1172Y-3.4217
X10.1192Y-0.5967
X10.1214Y-2.6805
X10.1216Y-0.501
X10.1228Y-0.6932
X10.1229Y-4.5534
X10.124Y-3.8538
X10.1247Y-1.6041
X10.1411Y-1.4816
X10.1446Y-1.738
X10.1454Y-3.2857
X10.1461Y-0.0639
X10.1467Y-3.4754
X10.1486Y-3.9852
X10.1489Y-1.0122
X10.1501Y-0.1523
X10.1506Y-3.7594
X10.1508Y-3.0408
X10.1512Y-2.2062
X10.1542Y-2.3056
X10.1552Y-4.6219
X10.1557Y-3.6596
X10.1726Y-2.6562
X10.1729Y-4.7402
X10.1732Y-2.0264
X10.174Y-0.47
X10.176Y-1.177
X10.1761Y-3.8208
X10.1783Y-1.0754
X10.1783Y-0.883
X10.18Y-3.536
X10.1814Y-1.5453
X10.1851Y-0.5749
X10.1854Y-3.3462
X10.1869Y-1.8009
X10.1875Y-4.5184
X10.2062Y-3.2319
X10.2087Y-2.4654
X10.2094Y-1.8666
X10.2107Y-0.0883
X10.2108Y-3.4086
X10.2112Y-4.013
X10.2133Y-4.5858
X10.2148Y-1.9565
X10.2165Y-2.3411
X10.2169Y-0.6982
X10.217Y-1.7023
X10.2184Y-0.9492
X10.2184Y-3.603
X10.2194Y-2.2392
X10.2194Y-3.7059
X10.236Y-4.7135
X10.2375Y-1.0109
X10.2381Y-3.2802
X10.2381Y-1.7694
X10.2388Y-0.5115
X10.2427Y-3.8647
X10.2457Y-3.7632
X10.2463Y-3.4757
X10.2463Y-0.1651
X10.2479Y-2.5354
X10.2483Y-0.6058
X10.2497Y-1.1019
X10.2677Y-4.5177
X10.2716Y-2.3073
X10.2733Y-3.5413
X10.2738Y-0.882
X10.2747Y-4.6151
X10.2747Y-0.0668
X10.2774Y-1.841
X10.2783Y-3.3518
X10.2796Y-2.2118
X10.2804Y-1.1678
X10.2812Y-3.9814
X10.2819Y-1.9333
X10.2822Y-2.0212
X10.2826Y-3.6373
X10.2828Y-3.1934
X10.2999Y-1.521
X10.3007Y-2.0818
X10.3014Y-3.7041
X10.302Y-2.5597
X10.3027Y-1.7112
X10.3075Y-0.5301
X10.3081Y-3.2519
X10.3084Y-3.7986
X10.3086Y-0.9544
X10.3088Y-4.0473
X10.3089Y-1.6191
X10.3091Y-1.0435
X10.3098Y-2.471
X10.3121Y-0.6969
X10.3145Y-3.4171
X10.3315Y-1.203
X10.3349Y-1.9565
X10.3354Y-2.7794
X10.3363Y-3.0697
X10.3384Y-3.5702
X10.3386Y-3.8563
X10.3393Y-3.3199
X10.3394Y-2.3464
X10.3395Y-1.1081
X10.3395Y-3.4816
X10.3401Y-2.2473
X10.3409Y-1.8621
X10.3414Y-4.482
X10.3419Y-1.7737
X10.3447Y-0.5954
X10.3451Y-2.9759
X10.3452Y-2.1454
X10.3626Y-4.0757
X10.3647Y-3.389
X10.3664Y-0.8901
X10.3672Y-0.2222
X10.3679Y-1.5532
X10.3682Y-2.4972
X10.369Y-3.7376
X10.3691Y-2.0237
X10.3706Y-4.2639
X10.3707Y-0.98
X10.3725Y-3.6426
X10.3753Y-3.9793
X10.377Y-3.193
X10.3771Y-2.5847
X10.3946Y-3.797
X10.3997Y-1.0384
X10.401Y-2.9978
X10.4011Y-0.7022
X10.4012Y-1.8978
X10.4012Y-1.7036
X10.4022Y-2.1876
X10.4026Y-1.6104
X10.4027Y-3.5462
X10.403Y-0.5354
X10.4031Y-2.0919
X10.404Y-3.0946
X10.4045Y-2.6555
X10.4046Y-2.2756
X10.4072Y-4.1458
X10.4074Y-3.4414
X10.4083Y-4.5186
X10.4083Y-1.799
X10.4085Y-2.7573
X10.4088Y-3.2559
X10.4279Y-3.3271
X10.4282Y-3.8635
X10.4311Y-4.5887
X10.4323Y-2.568
X10.4327Y-3.7028
X10.4348Y-1.9604
X10.4375Y-2.3353
X10.4376Y-0.9212
X10.4386Y-4.7064
X10.439Y-4.0176
X10.4397Y-4.208
X10.4403Y-3.6036
X10.4407Y-2.4638
X10.4408Y-1.5143
X10.441Y-0.5979
X10.4572Y-2.0182
X10.4578Y-1.0707
X10.4578Y-3.1984
X10.4582Y-4.0827
X10.46Y-3.7628
X10.4622Y-2.2204
X10.4642Y-2.6161
X10.4645Y-0.511
X10.4665Y-3.4798
X10.4667Y-0.9744
X10.4667Y-3.061
X10.4677Y-1.7409
X10.4682Y-4.2654
X10.4683Y-3.3894
X10.469Y-2.9662
X10.4692Y-2.721
X10.4708Y-4.456
X10.4714Y-1.8349
X10.4891Y-1.8914
X10.4892Y-4.5224
X10.4908Y-4.1471
X10.4921Y-3.8298
X10.4924Y-4.3387
X10.496Y-4.7361
X10.4972Y-2.8693
X10.4981Y-3.5433
X10.4991Y-0.5757
X10.4993Y-3.6328
X10.4994Y-2.2819
X10.4995Y-2.4988
X10.4997Y-0.8902
X10.4999Y-0.6924
X10.5019Y-3.2521
X10.5026Y-4.623
X10.503Y-3.9855
X10.504Y-2.7875
X10.5203Y-3.3145
X10.5207Y-2.6537
X10.5227Y-2.5575
X10.5228Y-2.9423
X10.523Y-3.0379
X10.5251Y-1.0457
X10.5252Y-1.4819
X10.5258Y-1.7735
X10.5264Y-2.3335
X10.5269Y-0.9419
X10.5271Y-4.3948
X10.5299Y0.0029
X10.5315Y-3.4174
X10.5331Y-4.051
X10.5359Y-4.2085
X10.5525Y-3.101
X10.5526Y-1.8285
X10.5539Y-0.5936
X10.5539Y-1.2646
X10.5546Y-4.2657
X10.5547Y-2.4659
X10.556Y-4.7075
X10.556Y-1.5433
X10.5563Y-4.5522
X10.5566Y-2.7223
X10.5585Y-3.186
X10.5586Y-4.4565
X10.5593Y-3.4707
X10.5596Y-4.1099
X10.5601Y-2.8125
X10.5665Y-2.2186
X10.5838Y-3.3588
X10.5855Y-0.9788
X10.5859Y-0.1274
X10.5877Y-0.8822
X10.5883Y-2.8761
X10.5884Y-0.6952
X10.589Y-3.9851
X10.5899Y-4.3273
X10.5921Y-0.2251
X10.5925Y-0.0377
X10.5928Y-1.9035
X10.5934Y-1.139
X10.5934Y-2.969
X10.5952Y-4.177
X10.5967Y-2.5329
X10.5983Y-2.6317
X10.5989Y-3.2508
X10.6162Y-1.7941
X10.6173Y-4.4934
X10.6196Y-1.4842
X10.6209Y-2.783
X10.6215Y-3.7267
X10.6215Y-4.3891
X10.6219Y-4.2301
X10.6228Y-4.0547
X10.6245Y-3.0425
X10.626Y-3.8199
X10.6269Y-1.2023
X10.628Y-1.5767
X10.6287Y-3.4127
X10.6304Y-2.6877
X10.6485Y-4.302
X10.6489Y-1.2661
X10.649Y-1.0769
X10.6537Y-3.1873
X10.655Y-2.5559
X10.6555Y-3.1039
X10.6571Y-0.9188
X10.6579Y-1.8726
X10.6601Y-2.463
X10.6615Y-2.9368
X10.662Y-4.1053
X10.6792Y-1.1409
X10.6797Y-1.6149
X10.6804Y-2.9959
X10.6807Y-4.5153
X10.6818Y-2.7233
X10.6824Y-2.2836
X10.6832Y-0.007
X10.6844Y-2.6162
X10.6874Y-1.4178
X10.6889Y-1.9294
X10.6891Y-1.3259
X10.6897Y-3.7547
X10.6913Y-1.5194
X10.694Y-4.1742
X10.7131Y-2.338
X10.7139Y-0.4974
X10.714Y-4.7082
X10.7156Y-4.5843
X10.716Y-0.8843
X10.7207Y-0.0691
X10.7213Y-1.042
X10.7221Y-3.2191
X10.7231Y-0.7015
X10.7237Y-0.605
X10.7246Y-2.5036
X10.7249Y-1.1932
X10.725Y-3.0644
X10.7417Y-1.2568
X10.7435Y-1.3623
X10.7461Y-2.5571
X10.7464Y-2.6611
X10.7481Y-1.5535
X10.749Y-1.1128
X10.7495Y-1.4469
X10.7507Y-0.2914
X10.7513Y-1.9944
X10.7516Y-1.707
X10.7525Y-3.7917
X10.754Y-4.4874
X10.7543Y-4.1086
X10.7573Y-2.9725
X10.7768Y-1.1621
X10.7774Y-4.1665
X10.778Y-0.4661
X10.7786Y-0.5708
X10.7795Y-2.2694
X10.7809Y-4.7425
X10.7844Y-1.6129
X10.7851Y-0.9197
X10.787Y-2.4681
X10.7871Y-1.7629
X10.8073Y-1.5153
X10.8074Y-0.6968
X10.8077Y-3.7687
X10.8093Y-0.2584
X10.811Y-2.531
X10.813Y-1.0432
X10.8139Y-1.4234
X10.814Y-1.2367
X10.8163Y-2.6266
X10.8174Y-3.4721
X10.8188Y-0.0646
X10.8189Y-2.3376
X10.8206Y-1.3223
X10.8371Y-0.6078
X10.8402Y-1.5759
X10.8406Y-4.0785
X10.8412Y-1.7981
X10.845Y-0.4998
X10.8451Y-1.1087
X10.8463Y-0.8917
X10.8463Y-0.1254
X10.8463Y-1.7114
X10.8697Y-1.2666
X10.8746Y-4.5803
X10.8767Y-1.1686
X10.8773Y-3.0359
X10.8778Y-2.4708
X10.8799Y-0.2903
X10.8801Y-0.1836
X10.883Y-1.4871
X10.8837Y-3.787
X10.8837Y-4.1395
X10.9007Y-2.7139
X10.9014Y-0.9108
X10.9058Y-2.2391
X10.9062Y-0.6957
X10.9084Y-1.0443
X10.9088Y-0.4447
X10.9128Y-2.0191
X10.9138Y-0.0683
X10.9151Y-4.2018
X10.9154Y-0.5393
X10.9333Y-4.6179
X10.9369Y-0.3085
X10.9376Y-1.8336
X10.9415Y-2.3134
X10.942Y-0.2181
X10.9433Y-0.6051
X10.944Y-0.1281
X10.9467Y-1.5168
X10.9633Y-1.9927
X10.9641Y-0.4744
X10.9717Y-0.8781
X10.9724Y-3.03
X10.9757Y-0.3718
X10.9762Y-4.6831
X10.9779Y-1.8963
X10.9963Y-1.4924
X10.9964Y-4.0135
X10.9976Y-0.6991
X10.9985Y-2.3459
X10.9995Y-3.8305
X11.0017Y-4.5919
X11.003Y-0.0563
X11.0052Y-0.2577
X11.0061Y-0.5412
X11.0078Y-0.1565
X11.0087Y-2.2101
X11.0103Y-3.7363
X11.0263Y-0.4182
X11.0306Y-1.8307
X11.0316Y-0.5992
X11.0318Y-1.9266
X11.0326Y-0.9208
X11.0354Y-2.0297
X11.0376Y-4.0746
X11.038Y-2.2743
X11.04Y-0.3119
X11.0603Y-3.8543
X11.0643Y-0.4713
X11.065Y-2.0858
X11.066Y-4.2931
X11.0661Y-3.3835
X11.0666Y-2.1773
X11.0703Y-1.5246
X11.0705Y-0.0987
X11.0711Y-0.1919
X11.0722Y-3.7555
X11.0731Y-4.4614
X11.0734Y-3.9883
X11.0897Y-3.2904
X11.0899Y-1.2251
X11.0917Y-2.9699
X11.0921Y-0.5375
X11.0928Y-2.3435
X11.0947Y-3.0589
X11.0963Y-4.0506
X11.0966Y-3.1906
X11.0979Y-1.9651
X11.0984Y-0.6891
X11.1012Y-0.2465
X11.1018Y-2.7828
X11.102Y-1.8597
X11.1027Y-2.4957
X11.1029Y-2.2492
X11.1043Y-0.8847
X11.122Y-3.3555
X11.1224Y-2.1196
X11.1235Y-0.1511
X11.1259Y-0.6078
X11.1277Y-2.5657
X11.1303Y-3.7894
X11.134Y-0.0606
X11.1351Y-2.0296
X11.154Y-3.2303
X11.1547Y-3.8528
X11.1555Y-0.4709
X11.1557Y-2.1746
X11.1557Y-4.1789
X11.1576Y-3.0028
X11.159Y-4.0748
X11.1597Y-1.7691
X11.16Y-2.4653
X11.1602Y-3.9786
X11.1605Y-1.5116
X11.1627Y-2.6303
X11.1632Y-1.8911
X11.164Y-1.0486
X11.1671Y-0.9129
X11.1675Y-2.2711
X11.1859Y-3.4713
X11.1881Y-1.7062
X11.1881Y-3.071
X11.189Y-0.0893
X11.1894Y-2.3468
X11.1904Y-3.3822
X11.1904Y-4.2357
X11.1904Y-1.9667
X11.1922Y-2.5251
X11.1924Y-1.8347
X11.1927Y-3.7683
X11.1933Y-2.0577
X11.1946Y-0.6969
X11.1964Y-3.2853
X11.1972Y-0.5315
X11.2165Y-0.8873
X11.2177Y-2.9765
X11.2183Y-1.5546
X11.2186Y-4.0101
X11.2192Y-3.1872
X11.2213Y-4.1137
X11.2223Y-2.5968
X11.2228Y-0.1522
X11.223Y-2.2091
X11.2277Y-3.8331
X11.2283Y-1.0715
X11.2306Y-2.1107
X11.2476Y-2.2702
X11.2491Y-1.9838
X11.2501Y-0.0684
X11.2507Y-1.7461
X11.2519Y-2.6546
X11.2524Y-0.7335
X11.2553Y-4.776
X11.2555Y-3.2541
X11.2582Y-1.8704
X11.2593Y-2.4659
X11.2593Y-1.4915
X11.2605Y-4.1713
X11.2619Y-4.2656
X11.2796Y-2.3411
X11.2842Y-3.3127
X11.2843Y-3.7579
X11.2847Y-0.7874
X11.2852Y-0.1328
X11.2854Y-2.5249
X11.2854Y-1.8042
X11.2856Y-1.5816
X11.2864Y-3.9861
X11.2868Y-3.8646
X11.2877Y-0.9113
X11.2882Y-4.8339
X11.2886Y-1.0359
X11.2933Y-4.0845
X11.2934Y-2.0488
X11.2942Y-4.338
X11.2945Y-2.149
X11.2948Y-1.9263
X11.3136Y-0.6923
X11.3144Y-2.5959
X11.3153Y-3.2206
X11.3164Y-0.1812
X11.3165Y-1.1065
X11.3166Y-0.5425
X11.3187Y-1.7001
X11.3189Y-4.2387
X11.3194Y-0.8568
X11.3196Y-1.5107
X11.3221Y-2.2095
X11.3241Y-4.149
X11.3426Y-3.5395
X11.3429Y-0.7547
X11.3433Y-4.7766
X11.3441Y-0.5967
X11.3442Y-3.2934
X11.3442Y-0.06
X11.3442Y-3.7369
X11.3446Y-3.8332
X11.3448Y-1.776
X11.3464Y-3.0912
X11.3466Y-4.298
X11.3505Y-2.4689
X11.3543Y-4.496
X11.3544Y-4.017
X11.3566Y-1.8584
X11.3578Y-2.272
X11.3754Y-4.8408
X11.3765Y-1.1369
X11.3767Y-4.0735
X11.3778Y-2.1755
X11.3819Y-4.1691
X11.3823Y-0.8231
X11.3835Y-2.3349
X11.3839Y-3.1906
X11.3848Y-0.9188
X11.3879Y-1.0388
X11.3894Y-2.5223
X11.4064Y-0.5443
X11.4067Y-3.5166
X11.4116Y-3.3589
X11.4117Y-3.2549
X11.4129Y-2.2478
X11.4139Y-1.8037
X11.4163Y-3.9873
X11.4184Y-3.7591
X11.4184Y-3.8559
X11.4197Y-0.699
X11.4205Y-4.2438
X11.4211Y-1.7125
X11.44Y-0.8569
X11.4409Y-4.7813
X11.4415Y-1.51
X11.4422Y-3.4104
X11.4423Y-2.4656
X11.4424Y-1.6176
X11.4439Y-1.0717
X11.4444Y-4.3036
X11.4451Y-0.5973
X11.4464Y-4.0547
X11.447Y-1.8622
X11.4492Y-0.7653
X11.4507Y-0.0618
X11.4522Y-4.139
X11.4527Y-2.3117
X11.4724Y-0.9219
X11.4731Y-3.8279
X11.475Y-1.1432
X11.4751Y-3.724
X11.4758Y-4.2048
X11.4764Y-4.8306
X11.4765Y-3.4847
X11.4769Y-3.1979
X11.4787Y-3.2842
X11.4811Y-2.2086
X11.4826Y-1.235
X11.4837Y-0.5104
X11.4844Y-1.7329
X11.5045Y-1.8909
X11.5052Y-0.2817
X11.5055Y-4.2732
X11.5063Y-0.6903
X11.5084Y-2.3391
X11.5107Y-1.0477
X11.5112Y-3.5393
X11.5115Y-0.5625
X11.5128Y-1.8071
X11.5149Y-1.5416
X11.5154Y-3.3541
X11.5155Y-4.0801
X11.5161Y-0.7969
X11.533Y-3.0916
X11.5368Y-3.2209
X11.5382Y-0.0637
X11.5407Y-4.1461
X11.5428Y-0.8513
X11.5444Y-4.3332
X11.5454Y-4.7737
X11.5461Y-3.4205
X11.5471Y-0.4741
X11.5664Y-3.4795
X11.5678Y-4.8363
X11.57Y-4.4342
X11.5707Y-0.5371
X11.5711Y-0.9238
X11.5716Y-4.2016
X11.5753Y-1.8261
X11.5758Y-3.2811
X11.5771Y-2.5541
X11.5777Y-0.7247
X11.5964Y-0.7864
X11.597Y-0.5967
X11.5973Y-0.193
X11.5996Y-3.8224
X11.6004Y-1.0432
X11.6008Y-3.0657
X11.6025Y-2.9693
X11.6032Y-4.2717
X11.6058Y-4.3553
X11.6062Y-3.1947
X11.6075Y-0.0868
X11.6111Y-3.7302
X11.6112Y-1.9013
X11.6302Y-0.2525
X11.6306Y-2.6895
X11.6307Y-2.5977
X11.631Y-2.2695
X11.6316Y-0.696
X11.6328Y-4.4551
X11.6337Y-0.4696
X11.6347Y-2.497
X11.6348Y-0.852
X11.6407Y-1.9542
X11.6599Y-0.1543
X11.6606Y-4.517
X11.6608Y-0.9233
X11.6625Y-0.7595
X11.6626Y-4.3329
X11.6635Y-4.8324
X11.6646Y-3.2292
X11.6673Y-1.0742
X11.6674Y-0.5347
X11.6693Y-1.4869
X11.6705Y-3.0101
X11.6712Y-1.5837
X11.6715Y-0.0602
X11.6729Y-4.2345
X11.6741Y-3.7622
X11.6929Y-2.9399
X11.6937Y-0.8188
X11.6951Y-2.6207
X11.6969Y-0.5985
X11.6975Y-0.3197
X11.6978Y-0.2163
X11.7002Y-1.7122
X11.7007Y-2.8393
X11.7027Y-4.3893
X11.722Y-0.6888
X11.7221Y-1.0389
X11.7225Y-1.6136
X11.7228Y-1.5111
X11.7241Y-0.5101
X11.7241Y-4.1073
X11.7248Y-3.1931
X11.7268Y-3.7378
X11.7268Y-4.2725
X11.7278Y-0.1015
X11.7352Y-4.4616
X11.7357Y-0.8823
X11.7362Y-4.5492
X11.7375Y-1.7701
X11.754Y-4.3326
X11.7541Y-0.7614
X11.7574Y-3.7861
X11.7587Y-2.8697
X11.7595Y-0.5733
X11.7602Y-0.1609
X11.7614Y-2.9755
X11.7638Y-0.3411
X11.768Y-4.6159
X11.7687Y-0.2562
X11.7852Y-1.549
X11.7909Y-4.0862
X11.792Y-0.0702
X11.7929Y-1.714
X11.7941Y-0.8149
X11.7954Y-0.9128
X11.7956Y-4.3902
X11.7962Y-1.806
X11.7969Y-4.4874
X11.7993Y-0.4153
X11.8001Y-4.2396
X11.8192Y-1.1694
X11.8205Y-2.8503
X11.8227Y-3.8216
X11.8254Y-4.6441
X11.8255Y-0.2137
X11.8255Y-0.6873
X11.8265Y-3.3529
X11.8268Y-0.3119
X11.8273Y-0.1252
X11.8281Y-4.297
X11.8281Y-4.5595
X11.8298Y-3.4428
X11.8319Y-3.9249
X11.8322Y-4.0226
X11.8497Y-0.7624
X11.8506Y-1.8264
X11.8528Y-4.4589
X11.8528Y-1.2336
X11.8553Y-0.4734
X11.8568Y-1.5103
X11.8586Y-0.3718
X11.8598Y-0.8516
X11.8603Y-4.111
X11.8637Y-4.3658
X11.8808Y-1.9351
X11.8808Y-0.1597
X11.8822Y-0.0548
X11.8849Y-2.2113
X11.8851Y-0.2499
X11.8871Y-3.9774
X11.8876Y-4.2317
X11.8936Y-3.0422
X11.9126Y-4.4016
X11.913Y-1.8596
X11.9138Y-0.814
X11.9169Y-0.4034
X11.9176Y-0.5032
X11.9179Y-0.7197
X11.92Y-0.3077
X11.9217Y-2.4663
X11.9223Y-4.7183
X11.9234Y-4.046
X11.9269Y-4.2951
X11.9451Y-0.5749
X11.9463Y-0.1948
X11.9466Y-4.1091
X11.9481Y-0.0973
X11.9754Y-0.2567
X11.9801Y-4.4246
X11.9831Y-0.4482
X11.9832Y-3.9915
X11.9879Y-0.3425
X11.988Y-4.3307
X11.9884Y-4.2341
X12.0084Y-1.5437
X12.0094Y-0.5966
X12.0119Y-0.5007
X12.0122Y-0.064
X12.0123Y-0.9856
X12.0142Y-3.5482
X12.0158Y-4.0498
X12.0165Y-0.1549
X12.0408Y-4.3698
X12.0413Y-3.2308
X12.0422Y-0.2201
X12.0427Y-0.4076
X12.0439Y-2.2416
X12.0446Y-4.2724
X12.0447Y-2.1458
X12.0472Y-0.7302
X12.0486Y-2.3381
X12.0501Y-4.1114
X12.0502Y-3.3261
X12.0504Y-4.8043
X12.0506Y-3.1326
X12.0517Y-2.4313
X12.0533Y-0.3114
X12.0699Y-1.5152
X12.0716Y-1.0084
X12.0721Y-4.0101
X12.0752Y-0.4754
X12.0761Y-4.4199
X12.0767Y-0.1018
X12.0776Y-3.7269
X12.078Y-2.495
X12.0799Y-2.8454
X12.0815Y-3.3785
X12.0828Y-0.9151
X12.0834Y-0.5728
X12.1025Y-2.5547
X12.1027Y-3.2551
X12.1043Y-1.6197
X12.1047Y-0.2588
X12.1056Y-4.4831
X12.1061Y-4.78
X12.1074Y-3.1683
X12.1089Y-4.3325
X12.1091Y-2.3715
X12.1093Y-4.0709
X12.1098Y-1.6994
X12.1101Y-2.2817
X12.111Y-0.1499
X12.111Y-3.4484
X12.1125Y-4.2337
X12.1127Y-2.1846
X12.1149Y-1.1945
X12.1163Y-1.8934
X12.135Y-2.7862
X12.136Y-0.0557
X12.1385Y-3.5078
X12.1395Y-0.5106
X12.1402Y-2.431
X12.1412Y-0.8503
X12.1419Y-3.3201
X12.1427Y-0.9469
X12.1427Y-0.5974
X12.1468Y-1.0498
X12.1694Y-2.4925
X12.1716Y-1.2656
X12.1716Y-1.9283
X12.1724Y-2.3008
X12.1727Y-2.9666
X12.173Y-1.8262
X12.1731Y-2.2181
X12.1738Y-3.3819
X12.1752Y-3.2299
X12.1761Y-2.8412
X12.1761Y-1.143
X12.1771Y-2.1182
X12.1776Y-2.0245
X12.1788Y-0.1239
X12.1794Y-3.1242
X12.1795Y-4.2694
X12.1803Y-4.0195
X12.1968Y-0.885
X12.1992Y-2.7114
X12.2002Y-3.4484
X12.2007Y-3.0351
X12.2008Y-0.9823
X12.2012Y-0.7931
X12.2013Y-2.3708
X12.2014Y-2.9022
X12.2057Y-0.4753
X12.2067Y-3.2888
X12.2085Y-3.5409
X12.2092Y-1.3218
X12.2107Y-1.1942
X12.228Y-2.2398
X12.2294Y-1.395
X12.2296Y-3.3467
X12.2298Y-2.7762
X12.2317Y-1.0442
X12.2319Y-1.9638
X12.2328Y-0.1547
X12.2336Y-0.0658
X12.2348Y-2.4279
X12.2361Y-1.8662
X12.2365Y-3.1646
X12.238Y-2.06
X12.2414Y-2.1467
X12.2415Y-1.7765
X12.2596Y-1.1402
X12.2596Y-4.7086
X12.2602Y-2.3017
X12.2623Y-1.6128
X12.2625Y-1.2308
X12.2627Y-2.6618
X12.2652Y-3.4151
X12.2662Y-0.8515
X12.2671Y-3.5034
X12.2691Y-3.2218
X12.2699Y-1.5216
X12.271Y-4.8002
X12.2715Y-2.8405
X12.2716Y-4.0746
X12.2716Y-0.7556
X12.2734Y-1.6992
X12.2737Y-4.2355
X12.2742Y-3.9851
X12.2744Y-2.9429
X12.2916Y-3.5699
X12.2918Y-3.7658
X12.2919Y-3.0067
X12.2923Y-2.72
X12.2924Y-2.0849
X12.2927Y-1.8922
X12.2944Y-0.0878
X12.2946Y-3.291
X12.2952Y-3.1301
X12.296Y-1.2977
X12.2969Y-4.516
X12.301Y-2.1842
X12.3026Y-2.3787
X12.3032Y-4.3049
X12.3042Y-1.9944
X12.3045Y-1.8064
X12.3238Y-0.691
X12.3241Y-3.3513
X12.3245Y-3.6304
X12.3254Y-4.7355
X12.3266Y-3.1909
X12.3278Y-0.8794
X12.3296Y-1.1727
X12.3306Y-0.7942
X12.3314Y-1.5729
X12.3317Y-2.7882
X12.3336Y-0.1623
X12.334Y-4.0229
X12.3343Y-4.1144
X12.3343Y-1.7362
X12.3344Y-3.4429
X12.3348Y-1.3543
X12.3356Y-2.5856
X12.3358Y-2.8834
X12.3361Y-4.3593
X12.3364Y-4.843
X12.3377Y-4.4619
X12.3384Y-2.2508
X12.3551Y-1.4204
X12.3552Y-0.066
X12.3562Y-3.5049
X12.3563Y-1.8314
X12.3568Y-3.2535
X12.3586Y-2.9361
X12.3593Y-2.1198
X12.3607Y-3.6931
X12.361Y-3.0411
X12.3615Y-2.0248
X12.3626Y-2.301
X12.3645Y-1.2266
X12.3651Y-2.6596
X12.3659Y-4.2607
X12.3666Y-0.2244
X12.3666Y-1.9227
X12.3921Y-0.8284
X12.3925Y-4.3247
X12.3927Y-4.526
X12.3941Y-4.4302
X12.3951Y-4.7041
X12.397Y-0.7239
X12.3983Y-4.8014
X12.4178Y-0.5714
X12.4231Y-4.5842
X12.4329Y-0.8848
X12.4515Y-4.2937
X12.455Y-0.6978
X12.4554Y-4.7503
X12.4566Y-4.4914
X12.4576Y-4.8333
X12.4588Y-0.789
X12.4598Y-0.063
X12.4635Y-4.6476
X12.4648Y-4.4002
X12.4813Y-3.1552
X12.482Y-3.7333
X12.4831Y-3.4416
X12.4843Y-2.2717
X12.4847Y-3.2516
X12.4854Y-1.3522
X12.4862Y-1.7322
X12.4863Y-2.7475
X12.4863Y-3.6348
X12.4869Y-4.0214
X12.4869Y-0.603
X12.4869Y-2.5603
X12.4873Y-2.4608
X12.4878Y-1.2702
X12.4895Y-0.8551
X12.4902Y-3.8208
X12.4908Y-4.558
X12.4913Y-3.9182
X12.4914Y-2.1777
X12.4922Y-2.6507
X12.4928Y-0.5021
X12.4928Y-3.346
X12.4946Y-1.8341
X12.4959Y-3.5392
X12.5127Y-4.4199
X12.5135Y-4.7117
X12.5141Y-1.6095
X12.5167Y-1.5171
X12.5183Y-1.4167
X12.5188Y-2.8144
X12.5194Y-4.0763
X12.5194Y-4.203
X12.5205Y-4.6218
X12.5215Y-4.333
X12.5216Y-0.2782
X12.5227Y-4.8021
X12.5241Y-0.9166
X12.5277Y-0.7197
X12.5449Y-3.3126
X12.5453Y-2.5305
X12.5461Y-2.7153
X12.5463Y-1.8091
X12.549Y-0.5719
X12.5501Y-3.2297
X12.5503Y-2.6302
X12.551Y-3.5105
X12.5516Y-4.267
X12.5517Y-1.7117
X12.5534Y-2.2145
X12.5542Y-0.0564
X12.5547Y-4.4922
X12.5556Y-1.8903
X12.5564Y-2.433
X12.5565Y-3.4105
X12.5572Y-2.3149
X12.5577Y-0.4812
X12.5581Y-1.3291
X12.5582Y-3.1279
X12.5585Y-0.792
X12.5764Y-2.7784
X12.5775Y-0.8526
X12.5783Y-4.3595
X12.5805Y-4.56
X12.5826Y-4.744
X12.5827Y-0.6956
X12.5839Y-1.3833
X12.5852Y-4.0465
X12.5855Y-1.4934
X12.587Y-0.2264
X12.5876Y-4.6408
X12.5889Y-0.1305
X12.5903Y-4.834
X12.6092Y-3.4396
X12.6099Y-1.8321
X12.6104Y-4.1147
X12.6118Y-3.3458
X12.6126Y-2.4731
X12.6131Y-0.2878
X12.6145Y-4.2117
X12.6152Y-3.1567
X12.6158Y-0.7535
X12.6158Y-4.2973
X12.616Y-2.6593
X12.6163Y-0.5053
X12.6175Y-1.7458
X12.6187Y-4.4323
X12.6192Y-0.6007
X12.6203Y-2.5539
X12.6223Y-1.6177
X12.6229Y-3.2507
X12.6414Y-1.2249
X12.6419Y-1.8959
X12.6421Y-3.6016
X12.6432Y-1.3306
X12.6446Y-0.0645
X12.6458Y-0.8162
X12.6476Y-1.5167
X12.6508Y-0.1642
X12.652Y-1.1309
X12.654Y-1.4263
X12.6543Y-4.7703
X12.6708Y-3.4221
X12.6711Y-0.8804
X12.6718Y-0.3213
X12.6732Y-0.4158
X12.6737Y-0.6935
X12.6743Y-4.8452
X12.6746Y-2.2067
X12.676Y-2.4322
X12.6762Y-0.5427
X12.677Y-3.3274
X12.6783Y-0.2204
X12.6784Y-3.2208
X12.6799Y-1.7067
X12.6804Y-4.2415
X12.681Y-3.6707
X12.6819Y-4.3392
X12.6834Y-4.7169
X12.6854Y-2.5255
X12.6854Y-1.8093
X12.6862Y-2.6215
X12.7026Y-1.8596
X12.7039Y-4.3908
X12.7065Y-1.2704
X12.7068Y-3.5363
X12.7099Y-0.5935
X12.71Y-0.0902
X12.7101Y-1.6097
X12.713Y-1.1736
X12.7135Y-0.4752
X12.7144Y-1.4613
X12.7166Y-0.7543
X12.7171Y-1.3582
X12.7342Y-0.9212
X12.7368Y-2.5002
X12.7369Y-4.2662
X12.7419Y-0.3405
X12.742Y-0.8205
X12.7433Y-3.6018
X12.7441Y-0.2467
X12.745Y-2.5871
X12.7468Y-0.1645
X12.7476Y-1.765
X12.7489Y-3.2951
X12.767Y-3.1306
X12.768Y-4.3285
X12.7692Y-0.057
X12.7706Y-0.9796
X12.7715Y-3.4727
X12.7756Y-0.4978
X12.7773Y-0.6931
X12.7789Y-1.8304
X12.7795Y-2.6527
X12.7804Y-0.4053
X12.7978Y-0.5739
X12.7984Y-0.1282
X12.8Y-4.8132
X12.8026Y-0.8544
X12.8045Y-4.2418
X12.8049Y-4.0854
X12.8052Y-0.3167
X12.8052Y-1.8946
X12.8059Y-0.2158
X12.8073Y-4.389
X12.8083Y-0.7635
X12.8102Y-3.5405
X12.8307Y-4.4644
X12.833Y-1.3007
X12.8334Y-4.2964
X12.8345Y-4.1435
X12.8354Y-0.3836
X12.8362Y-3.6963
X12.8364Y-1.3885
X12.8373Y-3.1561
X12.8389Y-3.4097
X12.8396Y-0.4694
X12.8418Y-1.2072
X12.843Y-4.0082
X12.8443Y-0.9128
X12.8617Y-4.3704
X12.8617Y-0.6958
X12.862Y-1.5847
X12.8645Y-0.069
X12.8647Y-0.7908
X12.8657Y-3.4849
X12.8664Y-4.2107
X12.8678Y-1.7065
X12.8685Y-0.1548
X12.8696Y-0.5433
X12.8717Y-0.2468
X12.8744Y-4.7745
X12.8944Y-3.1898
X12.8967Y-0.6056
X12.8981Y-1.7665
X12.9012Y-1.3299
X12.9019Y-4.273
X12.9033Y-0.8487
X12.9045Y-4.8347
X12.9048Y-3.0949
X12.9059Y-3.3457
X12.9061Y-1.2332
X12.9077Y-4.0511
X12.927Y-1.5161
X12.9287Y-0.0891
X12.9357Y-3.4107
X12.9361Y-0.7326
X12.9374Y-1.6113
X12.9374Y-4.1041
X12.9393Y-0.4672
X12.9566Y-0.1589
X12.9589Y-4.1697
X12.961Y-0.8859
X12.9618Y-0.7849
X12.9628Y-4.3013
X12.9682Y-1.802
X12.9684Y-4.0181
X12.9691Y-1.7011
X12.9876Y-4.0717
X12.988Y-1.5783
X12.9918Y-3.3493
X12.9937Y-4.2369
X13.0003Y-0.0692
X13.0005Y-1.4821
X13.0202Y-3.1928
X13.0276Y-0.8287
X13.0276Y-3.008
X13.0291Y-4.1395
X13.0299Y-3.9776
X13.03Y-3.4188
X13.0312Y-0.1242
X13.0314Y-3.096
X13.0316Y-1.7391
X13.0319Y-4.7488
X13.0336Y-0.7212
X13.0502Y-0.5937
X13.0508Y-4.0395
X13.0528Y-1.5522
X13.0537Y-4.7993
X13.0543Y-4.2103
X13.0547Y-1.7972
X13.0567Y-0.8788
X13.0584Y-4.5229
X13.0614Y-1.3552
X13.0615Y-0.4999
X13.0648Y-1.262
X13.0655Y-1.4499
X13.0658Y-0.1867
X13.0825Y-4.3922
X13.0837Y-0.6997
X13.0856Y-3.3242
X13.0867Y-0.7856
X13.0881Y-3.2238
X13.0913Y-3.129
X13.092Y-1.606
X13.0928Y-0.0557
X13.0956Y-1.7011
X13.0956Y-0.9754
X13.0961Y-1.8693
X13.0966Y-4.1058
X13.1139Y-1.478
X13.1144Y-4.831
X13.1169Y-4.1709
X13.1174Y-0.2237
X13.121Y-1.7751
X13.1216Y-3.387
X13.1245Y-4.7352
X13.1269Y-1.2929
X13.1269Y-3.9774
X13.1271Y-0.5341
X13.1272Y-4.4545
X13.128Y-0.1309
X13.1286Y-0.8573
X13.1478Y-4.521
X13.1491Y-0.5967
X13.1504Y-1.5523
X13.1504Y-1.8319
X13.1515Y-3.762
X13.152Y-4.3353
X13.1559Y-3.1898
X13.1575Y-4.0492
X13.158Y-1.3517
X13.1582Y-3.0936
X13.1589Y-0.7329
X13.1768Y-4.7694
X13.1786Y-4.3875
X13.1807Y-0.0564
X13.1814Y-0.7942
X13.183Y-3.3191
X13.183Y-4.6814
X13.1841Y-1.6102
X13.1848Y-1.4578
X13.1851Y-4.5803
X13.1865Y-4.1074
X13.1885Y-1.7052
X13.1893Y-1.2581
X13.2098Y-1.7655
X13.2098Y-2.238
X13.2103Y-4.4558
X13.2192Y-3.1345
X13.2193Y-1.522
X13.22Y-4.2617
X13.2223Y-3.2206
X13.2231Y-1.3258
X13.2421Y-1.0389
X13.2461Y-1.2281
X13.2472Y-3.061
X13.2495Y-1.5836
X13.2523Y-3.5369
X13.2726Y-1.8095
X13.2731Y-0.2784
X13.2733Y-0.7289
X13.2742Y-1.7113
X13.2764Y-0.4755
X13.2775Y-0.8175
X13.2794Y-1.461
X13.2803Y-1.2953
X13.2816Y-0.5688
X13.2819Y-2.021
X13.2825Y-2.7856
X13.2835Y-0.0626
X13.284Y-3.1608
X13.2842Y-2.4686
X13.2866Y-3.3193
X13.3033Y-3.5152
X13.3041Y-3.2213
X13.3045Y-3.0948
X13.3064Y-1.3585
X13.307Y-1.5228
X13.3082Y-1.0138
X13.3148Y-1.6121
X13.3357Y-1.8615
X13.3362Y-4.2321
X13.3364Y-0.6886
X13.3366Y-0.6029
X13.3375Y-3.8222
X13.3376Y-4.1427
X13.3381Y-1.7713
X13.3394Y-0.8813
X13.3399Y-4.3276
X13.3423Y-0.1942
X13.3428Y-1.2347
X13.3431Y-4.4245
X13.344Y-0.7891
X13.3472Y-0.5096
X13.3483Y-4.0535
X13.3485Y-0.0977
X13.3492Y-2.7155
X13.3706Y-2.7868
X13.3716Y-1.2964
X13.3748Y-3.891
X13.3752Y-2.4276
X13.3762Y-1.4592
X13.3763Y-1.5527
X13.3769Y-0.9556
X13.38Y-2.2468
X13.381Y-0.2556
X13.3819Y-2.3445
X13.3984Y-0.7237
X13.3989Y-4.0864
X13.3996Y-1.1996
X13.4014Y-0.5404
X13.4023Y-0.1588
X13.4029Y-4.1748
X13.4056Y-0.4434
X13.4062Y-1.0131
X13.4064Y-4.272
X13.4076Y-4.3704
X13.4082Y-1.8342
X13.4086Y-1.3605
X13.4097Y-0.0631
X13.4105Y-1.6068
X13.4106Y-0.8233
X13.4115Y-2.6836
X13.4136Y-3.7624
X13.4355Y-3.9185
X13.4358Y-0.8842
X13.4367Y-1.6781
X13.4372Y-1.4913
X13.4376Y-1.8907
X13.4386Y-4.8355
X13.4395Y-0.6014
X13.4399Y-3.4777
X13.4399Y-3.3849
X13.4406Y-0.2224
X13.4408Y-3.2904
X13.4414Y-2.1442
X13.4417Y-4.9378
X13.4419Y-0.315
X13.4426Y-1.2607
X13.4427Y-2.2786
X13.4448Y-1.0666
X13.4612Y-0.0949
X13.4636Y-3.2191
X13.4646Y-0.4811
X13.4653Y-0.7859
X13.4653Y-0.3808
X13.4668Y-4.0447
X13.467Y-1.5448
X13.4682Y-4.1342
X13.4697Y-1.1372
X13.4701Y-0.9534
X13.4713Y-0.6912
X13.4721Y-2.2135
X13.4734Y-4.2357
X13.476Y-1.322
X13.4769Y-4.3304
X13.4939Y-1.6188
X13.4961Y-1.9275
X13.4962Y-0.1554
X13.4965Y-2.1246
X13.4968Y-0.542
X13.4972Y-3.3117
X13.4973Y-1.1985
X13.4975Y-0.2506
X13.4975Y-3.4068
X13.4984Y-4.8665
X13.5012Y-1.4516
X13.5014Y-1.0163
X13.507Y-1.7088
X13.5085Y-0.8544
X13.5253Y-3.9201
X13.5253Y-1.9989
X13.5277Y-3.2535
X13.5277Y-4.2633
X13.5284Y-3.1573
X13.529Y-1.5244
X13.5292Y-0.411
X13.5298Y-4.175
X13.5301Y-1.2574
X13.5307Y-4.0813
X13.531Y-0.7249
X13.5315Y-0.0582
X13.5316Y-0.6039
X13.5319Y-2.9411
X13.533Y-0.3153
X13.5331Y-0.9207
X13.5344Y-1.7747
X13.5359Y-1.3554
X13.5365Y-1.8641
X13.5389Y-4.9257
X13.5398Y-1.0725
X13.5582Y-1.6697
X13.5585Y-2.0478
X13.5599Y-0.9775
X13.5629Y-0.2156
X13.5639Y-2.9993
X13.565Y-3.3454
X13.565Y-1.1383
X13.5676Y-1.5831
X13.5677Y-0.7911
X13.5697Y-0.1204
X13.5699Y-0.4762
X13.5881Y-3.2193
X13.5881Y-4.1374
X13.5894Y-3.1263
X13.5899Y-4.2412
X13.5924Y-0.2787
X13.5927Y-1.2977
X13.5938Y-4.423
X13.5945Y-0.5425
X13.5954Y-1.0439
X13.5956Y-1.4492
X13.5958Y-4.0464
X13.5967Y-1.7434
X13.5998Y-0.6948
X13.6011Y-1.2012
X13.6018Y-0.8495
X13.6019Y-4.8653
X13.6195Y-3.2922
X13.6204Y-4.9388
X13.6209Y-4.4858
X13.6239Y-1.3667
X13.6248Y-1.6045
X13.6254Y-0.0699
X13.6258Y-0.5974
X13.6289Y-2.0278
X13.6298Y-0.9127
X13.6309Y-0.1577
X13.6316Y-1.5235
X13.6327Y-2.945
X13.6334Y-0.7567
X13.634Y-3.9128
X13.6529Y-0.827
X13.6533Y-1.2371
X13.6535Y-3.166
X13.6543Y-1.7731
X13.6549Y-4.1753
X13.6561Y-1.6709
X13.6619Y-4.0715
X13.6635Y-0.4792
X13.664Y-1.8644
X13.6654Y-4.835
X13.6837Y-0.8902
X13.6839Y-1.5473
X13.6841Y-3.7359
X13.6844Y-0.5311
X13.6854Y-1.2985
X13.6862Y-1.4576
X13.6899Y-0.0913
X13.6904Y-3.8203
X13.6938Y-0.694
X13.7143Y-1.6089
X13.7163Y-4.295
X13.7167Y-0.7651
X13.7197Y-1.8088
X13.7206Y-1.9023
X13.7221Y-4.0516
X13.7229Y-0.1536
X13.724Y-1.7109
X13.7255Y-3.8947
X13.7465Y-2.4414
X13.7476Y-0.0665
X13.7481Y-1.4849
X13.7512Y-3.77
X13.7539Y-0.9094
X13.7539Y-0.8273
X13.7798Y-1.8337
X13.7811Y-2.9736
X13.7815Y-1.9293
X13.7833Y-3.9189
X13.7833Y-4.8424
X13.7843Y-4.7405
X13.7857Y-3.829
X13.7869Y-4.9393
X13.7873Y-1.6415
X13.789Y-1.5517
X13.7898Y-0.1334
X13.7911Y-2.8728
X13.7913Y-0.719
X13.792Y-4.5261
X13.7923Y-1.7412
X13.8121Y-0.6347
X13.813Y-0.1845
X13.8174Y-2.4593
X13.8186Y-0.7964
X13.8193Y-1.3537
X13.8229Y-0.5392
X13.823Y-1.4564
X13.8242Y-0.877
X13.8246Y-1.2584
X13.8437Y-1.901
X13.8461Y-0.6885
X13.8471Y-2.9062
X13.8474Y-1.6055
X13.8475Y-0.9467
X13.8478Y-2.4047
X13.848Y-3.7656
X13.851Y-3.8572
X13.8512Y-1.708
X13.8513Y-1.5173
X13.8546Y-1.8011
X13.8548Y-4.8696
X13.8554Y-0.0555
X13.8558Y-2.6892
X13.8562Y-4.7682
X13.873Y-0.7516
X13.8731Y-2.4983
X13.8775Y-0.5677
X13.8828Y-0.8549
X13.8849Y-4.7102
X13.8855Y-1.2956
X13.8855Y-2.3036
X13.8865Y-1.3834
X13.8872Y-3.9151
X13.8875Y-4.9401
X13.9039Y-0.635
X13.9069Y-2.3638
X13.9089Y-1.6433
X13.9095Y-2.9386
X13.9118Y-3.7951
X13.9119Y-1.5462
X13.9124Y-2.8152
X13.9132Y-4.8097
X13.9139Y-1.447
X13.9145Y-1.7364
X13.9152Y-2.5533
X13.9173Y-4.555
X13.9404Y-2.427
X13.9406Y-4.8756
X13.9415Y-2.8759
X13.944Y-0.0628
X13.9497Y-4.7457
X13.9503Y-4.6136
X13.9685Y-2.3378
X13.9744Y-2.4933
X13.9772Y-4.3971
X13.9801Y-4.6854
X13.9807Y-4.4891
X13.9813Y-4.9347
X13.9818Y-2.9702
X14.0024Y-4.78
X14.008Y-4.5575
X14.0084Y-4.9893
X14.0089Y-2.8132
X14.0117Y0.0005
X14.0131Y-2.3947
X14.0138Y-2.9154
X14.0315Y-0.065
X14.0315Y-0.5615
X14.034Y-0.6711
X14.0341Y-1.5112
X14.0348Y-4.6115
X14.0362Y-0.4666
X14.0372Y-1.4205
X14.0377Y-4.4629
X14.0383Y-1.2359
X14.0385Y-4.8326
X14.0393Y-1.7986
X14.04Y-1.3339
X14.0423Y-3.8536
X14.0431Y-1.7047
X14.0435Y-0.2806
X14.044Y-1.605
X14.0449Y-0.7595
X14.063Y-4.5267
X14.0638Y-1.0078
X14.0669Y-4.8961
X14.0755Y-3.914
X14.0757Y-3.5058
X14.0774Y-0.8165
X14.0937Y-0.6886
X14.095Y-1.8301
X14.0968Y-1.7415
X14.0968Y-4.9714
X14.0978Y-0.1209
X14.1006Y-0.0325
X14.1016Y-1.5483
X14.1017Y-0.6047
X14.1018Y-1.271
X14.1029Y-4.5772
X14.106Y-0.4987
X14.1071Y-1.4588
X14.1078Y-3.9859
X14.1082Y-1.3656
X14.1086Y-1.6391
X14.1088Y-0.2219
X14.109Y-0.8791
X14.1266Y-4.1423
X14.1267Y-4.4546
X14.1268Y-2.996
X14.1297Y-3.1972
X14.1297Y-3.4443
X14.1311Y-2.9065
X14.1323Y-0.281
X14.1328Y-4.8411
X14.1329Y-1.9043
X14.1335Y-0.7656
X14.1339Y-3.0925
X14.1351Y-0.9472
X14.1368Y-4.244
X14.1375Y-4.0524
X14.1578Y-1.6806
X14.1582Y-1.3902
X14.161Y-1.1969
X14.1621Y-1.3026
X14.1622Y-0.1536
X14.1636Y-1.102
X14.164Y-0.5691
X14.1641Y-4.994
X14.1643Y-3.5158
X14.1648Y-3.2574
X14.1661Y-0.3753
X14.1679Y-4.5188
X14.1681Y-3.5972
X14.1682Y-0.6615
X14.1685Y-3.9235
X14.1694Y-1.7775
X14.1694Y-4.8996
X14.1699Y-0.0595
X14.1706Y-1.5786
X14.1714Y-1.0098
X14.1718Y-0.4757
X14.172Y-1.4798
X14.1721Y-0.8268
T2
X0.0551Y-0.3228
X0.1063Y-0.3976
X0.122Y-0.6969
X0.126Y-0.6024
X0.2953Y-1.0039
X0.3583Y-1.0236
X0.3622Y-1.1614
X0.4409Y-0.5276
X0.5Y-0.4803
X0.5197Y-0.4252
X0.574Y-1.0394
X0.6299Y-4.685
X0.6299Y-4.8031
X0.6417Y-4.5906
X0.7598Y-3.1535
X0.7638Y-2.4055
X0.7638Y-3.9055
X0.7677Y-1.6535
X0.7874Y-1.0551
X0.7913Y-4.689
X0.7913Y-4.811
X0.9134Y-1.0551
X0.9712Y-4.6535
X0.9724Y-1.1457
X0.9724Y-4.7402
X1.0018Y-1.175
X1.0197Y-4.6929
X1.0394Y-4.5433
X1.0709Y-0.4803
X1.0709Y-1.6535
X1.0787Y-4.8386
X1.0984Y-4.5866
X1.1654Y-3.1535
X1.1654Y-3.9055
X1.2598Y-2.3976
X1.4803Y-4.8346
X1.4843Y-4.5669
X1.6102Y-2.5354
X1.6339Y-2.752
X1.6496Y-2.6299
X1.7205Y-2.5709
X1.8228Y-2.7638
X1.9567Y-4.6102
X1.9567Y-4.8346
X2.3228Y-4.6102
X2.3228Y-4.8346
X2.3425Y-4.1339
X2.4409Y-4.2402
X2.6535Y-4.6102
X2.6575Y-4.8346
X2.9331Y-4.6102
X2.9331Y-4.8346
X3.122Y-4.6535
X4.437Y-4.4764
X4.4921Y-3.9343
X4.5709Y-4.9567
X4.5866Y-4.4094
X4.5866Y-4.5827
X4.6024Y-4.5354
X4.685Y-4.1496
X4.685Y-4.8622
X4.7874Y-4.9567
X4.7992Y-1.0906
X4.8268Y-3.937
X4.8658Y-4.8982
X4.8701Y-3.937
X4.8937Y-4.8701
X4.9134Y-3.937
X4.9567Y-3.937
X4.9764Y-3.374
X4.9921Y-1.9173
X5.0039Y-3.937
X5.0512Y-3.937
X5.2362Y-4.4606
X5.2402Y-4.3504
X5.2874Y-4.0224
X5.2874Y-4.2795
X5.3071Y-3.9528
X5.315Y-3.8465
X5.3228Y-4.0906
X5.3465Y-4.0512
X5.374Y-2.4961
X5.4528Y-3.9488
X5.4567Y-3.8386
X5.5591Y-4.2795
X5.6024Y-4.3701
X5.6417Y-4.2835
X6.3898Y-4.315
X6.9094Y-3.9343
X6.9528Y-3.9409
X9.2047Y-4.2795
X9.3622Y-4.4409
X9.4449Y-4.3701
X9.4843Y-4.5709
X9.5551Y-4.4921
X9.5669Y-4.7244
X9.5899Y-4.8256
X9.626Y-4.8425
X9.6614Y-4.8616
X9.7087Y-4.7677
X9.937Y-4.0748
X10.0157Y-4.1496
X10.0354Y-4.6102
X10.0354Y-4.7008
X10.3425Y-4.6063
X10.3425Y-4.7047
X10.6496Y-4.6063
X10.6496Y-4.7047
X11.0591Y-4.6732
X11.0591Y-4.7677
X11.6614Y-4.6772
X11.6614Y-4.7638
X11.7795Y-4.8701
X11.8622Y-2.7047
X11.8819Y-4.8976
X11.9331Y-2.7756
X12.1024Y-1.2756
X12.1457Y-1.5276
X12.4291Y-1.5
X12.4291Y-4.1969
X12.6693Y-2.2874
X12.7756Y-1.0866
X12.7795Y-2.4016
X12.7835Y-2.2992
X12.8189Y-3.2717
X12.9291Y-2.2402
X12.9724Y-4.9146
X13.0Y-3.2717
X13.0197Y-2.2441
X13.252Y-4.9146
X13.2953Y-4.9213
X13.3203Y-3.9711
X13.4606Y-2.5315
X13.7008Y-2.9843
X13.975Y-3.9711
X14.0197Y-2.0709
X14.0709Y-2.1969
X14.0709Y-2.6496
X14.1181Y-2.5118
X14.122Y-1.9764
X14.1969Y-2.6772
X14.2087Y-2.5394
T3
X4.5157Y-4.2598
X4.651Y-4.5958
X4.7677Y-4.7047
X4.9724Y-4.8228
X5.0827Y-4.122
X5.2244Y-4.622
X12.5551Y-1.1693
X0.0778Y-5.1575
X0.1011Y-5.1011
X0.1011Y-5.2139
X0.1575Y-5.0778
X0.1575Y-5.2372
X0.2139Y-5.1011
X0.2139Y-5.2139
X0.2372Y-5.1575
X10.529Y-5.1575
X10.5524Y-5.1011
X10.5524Y-5.2139
X10.6088Y-5.0778
X10.6088Y-5.2372
X10.6651Y-5.1011
X10.6651Y-5.2139
X10.6885Y-5.1575
X3.5615Y0.1575
X3.5849Y0.2139
X3.5849Y0.1011
X3.6412Y0.2372
X3.6412Y0.0778
X3.6976Y0.2139
X3.6976Y0.1011
X3.721Y0.1575
X10.529Y0.1575
X10.5524Y0.2139
X10.5524Y0.1011
X10.6088Y0.2372
X10.6088Y0.0778
X10.6651Y0.2139
X10.6651Y0.1011
X10.6885Y0.1575
X0.0778Y0.1575
X0.1011Y0.2139
X0.1011Y0.1011
X0.1575Y0.2372
X0.1575Y0.0778
X0.2139Y0.2139
X0.2139Y0.1011
X0.2372Y0.1575
X14.0128Y0.1575
X14.0361Y0.2139
X14.0361Y0.1011
X14.0925Y0.2372
X14.0925Y0.0778
X14.1489Y0.2139
X14.1489Y0.1011
X14.1722Y0.1575
X14.0128Y-5.1575
X14.0361Y-5.1011
X14.0361Y-5.2139
X14.0925Y-5.0778
X14.0925Y-5.2372
X14.1489Y-5.1011
X14.1489Y-5.2139
X14.1722Y-5.1575
X3.5615Y-5.1575
X3.5849Y-5.1011
X3.5849Y-5.2139
X3.6412Y-5.0778
X3.6412Y-5.2372
X3.6976Y-5.1011
X3.6976Y-5.2139
X3.721Y-5.1575
X7.0453Y-5.1575
X7.0686Y-5.1011
X7.0686Y-5.2139
X7.125Y-5.0778
X7.125Y-5.2372
X7.1814Y-5.1011
X7.1814Y-5.2139
X7.2047Y-5.1575
X7.0453Y0.1575
X7.0686Y0.2139
X7.0686Y0.1011
X7.125Y0.2372
X7.125Y0.0778
X7.1814Y0.2139
X7.1814Y0.1011
X7.2047Y0.1575
T4
X4.4921Y-4.626
X4.5878Y-4.7925
X4.6201Y-4.2
X12.4291Y-1.1378
T5
X0.0931Y-0.825
X0.0931Y-0.875
X0.0931Y-0.925
X0.1431Y-0.825
X0.1431Y-0.875
X0.1431Y-0.925
T6
X13.5658Y-2.3394
X13.6074Y-2.2502
X13.649Y-2.161
X14.0832Y-2.5807
X14.1664Y-2.4023
X0.152Y-0.1855
X0.3224Y-0.0871
X0.4374Y-0.6799
X0.5226Y-0.6307
X0.6079Y-0.5815
X13.5701Y-2.5624
X13.6193Y-2.6476
X13.6685Y-2.7329
X14.0645Y-2.277
X14.1629Y-2.4474
T7
X1.975Y-1.275
X2.225Y-1.175
X1.5062Y-2.775
X1.7562Y-2.675
X3.725Y-0.275
X3.975Y-0.175
X10.7875Y-2.775
X11.0375Y-2.675
X2.2563Y-4.275
X2.5063Y-4.175
X0.225Y-2.275
X0.475Y-2.175
X9.725Y-0.275
X9.975Y-0.175
X9.6625Y-3.525
X9.9125Y-3.425
X8.975Y-0.275
X9.225Y-0.175
X12.725Y-4.525
X12.975Y-4.425
X1.3187Y-4.275
X1.5687Y-4.175
X10.225Y-1.275
X10.475Y-1.175
X11.725Y-3.525
X11.975Y-3.425
X13.725Y-1.025
X13.975Y-0.925
X0.225Y-4.275
X0.475Y-4.175
X10.975Y-1.275
X11.225Y-1.175
X11.725Y-1.275
X11.975Y-1.175
X4.4125Y-3.525
X4.6625Y-3.425
X12.725Y-2.775
X12.975Y-2.675
X9.85Y-2.025
X10.1Y-1.925
X0.225Y-3.525
X0.475Y-3.425
X13.725Y-3.525
X13.975Y-3.425
X11.5375Y-2.025
X11.7875Y-1.925
X11.975Y-4.525
X12.225Y-4.425
X3.1938Y-4.275
X3.4438Y-4.175
X4.975Y-1.275
X5.225Y-1.175
X8.9125Y-3.525
X9.1625Y-3.425
X8.35Y-2.025
X8.6Y-1.925
X8.725Y-0.275
X8.975Y-0.175
X7.1Y-0.275
X7.35Y-0.175
X6.1Y-4.275
X6.35Y-4.175
X6.1Y-2.025
X6.35Y-1.925
X3.475Y-0.275
X3.725Y-0.175
X5.725Y-4.275
X5.975Y-4.175
X1.6937Y-3.525
X1.9437Y-3.425
X3.85Y-2.025
X4.1Y-1.925
X1.3187Y-2.775
X1.5687Y-2.675
X8.725Y-1.275
X8.975Y-1.175
X13.975Y-3.1
X14.075Y-3.35
X12.225Y-0.275
X12.475Y-0.175
X4.0375Y-2.775
X4.2875Y-2.675
X9.6625Y-4.275
X9.9125Y-4.175
X9.2875Y-2.775
X9.5375Y-2.675
X5.725Y-1.275
X5.975Y-1.175
X0.225Y-2.775
X0.475Y-2.675
X13.975Y-4.1
X14.075Y-4.35
X9.475Y-1.275
X9.725Y-1.175
X12.975Y-2.35
X13.075Y-2.6
X9.1Y-2.025
X9.35Y-1.925
X10.0375Y-2.775
X10.2875Y-2.675
X2.5375Y-4.275
X2.7875Y-4.175
X5.6Y-0.275
X5.85Y-0.175
X5.1625Y-3.525
X5.4125Y-3.425
X6.35Y-0.275
X6.6Y-0.175
X10.7875Y-4.275
X11.0375Y-4.175
X4.6Y-0.275
X4.85Y-0.175
X2.725Y-1.275
X2.975Y-1.175
X2.1625Y-3.525
X2.4125Y-3.425
X0.225Y-1.525
X0.475Y-1.425
X10.225Y-0.275
X10.475Y-0.175
X13.225Y-2.35
X13.325Y-2.6
X3.1Y-2.025
X3.35Y-1.925
X11.2562Y-2.775
X11.5062Y-2.675
X7.85Y-0.275
X8.1Y-0.175
X13.475Y-4.525
X13.725Y-4.425
X0.225Y-4.525
X0.475Y-4.425
X7.6Y-2.025
X7.85Y-1.925
X8.9125Y-4.275
X9.1625Y-4.175
X12.975Y-2.775
X13.225Y-2.675
X0.225Y-0.275
X0.475Y-0.175
X8.1625Y-3.525
X8.4125Y-3.425
X10.6Y-2.025
X10.85Y-1.925
X9.475Y-0.275
X9.725Y-0.175
X1.225Y-0.275
X1.475Y-0.175
X5.9125Y-3.525
X6.1625Y-3.425
X6.0062Y-4.275
X6.2562Y-4.175
X4.6Y-2.025
X4.85Y-1.925
X5.35Y-0.275
X5.6Y-0.175
X12.725Y-2.025
X12.975Y-1.925
X7.975Y-1.275
X8.225Y-1.175
X9.85Y-4.275
X10.1Y-4.175
X13.725Y-2.025
X13.975Y-1.925
X11.8812Y-2.35
X11.9812Y-2.6
X11.35Y-1.275
X11.6Y-1.175
X7.7875Y-2.775
X8.0375Y-2.675
X2.975Y-0.275
X3.225Y-0.175
X5.5375Y-2.775
X5.7875Y-2.675
X6.85Y-0.275
X7.1Y-0.175
X12.975Y-0.275
X13.225Y-0.175
X8.5375Y-2.775
X8.7875Y-2.675
X6.475Y-4.275
X6.725Y-4.175
X3.475Y-1.275
X3.725Y-1.175
X4.7875Y-2.775
X5.0375Y-2.675
X1.3187Y-3.525
X1.5687Y-3.425
X13.725Y-0.275
X13.975Y-0.175
X3.6625Y-3.525
X3.9125Y-3.425
X7.0375Y-2.775
X7.2875Y-2.675
X11.0687Y-3.525
X11.3187Y-3.425
X2.225Y-0.275
X2.475Y-0.175
X7.4125Y-3.525
X7.6625Y-3.425
X4.225Y-1.275
X4.475Y-1.175
X2.35Y-4.275
X2.6Y-4.175
X11.975Y-3.775
X12.225Y-3.675
X0.225Y-1.275
X0.475Y-1.175
X10.6937Y-3.525
X10.9437Y-3.425
X0.225Y-3.025
X0.475Y-2.925
X2.725Y-0.275
X2.975Y-0.175
X7.975Y-0.275
X8.225Y-0.175
X1.225Y-1.275
X1.475Y-1.175
X1.4125Y-2.025
X1.6625Y-1.925
X12.725Y-3.775
X12.975Y-3.675
X12.975Y-2.025
X13.225Y-1.925
X4.475Y-0.275
X4.725Y-0.175
X2.9125Y-3.525
X3.1625Y-3.425
X10.0375Y-4.275
X10.2875Y-4.175
X6.85Y-2.025
X7.1Y-1.925
X1.4125Y-4.275
X1.6625Y-4.175
X7.225Y-1.275
X7.475Y-1.175
X3.2875Y-4.275
X3.5375Y-4.175
X5.35Y-2.025
X5.6Y-1.925
X1.975Y-0.275
X2.225Y-0.175
X10.475Y-0.275
X10.725Y-0.175
X2.5375Y-2.775
X2.7875Y-2.675
X0.225Y-2.025
X0.475Y-1.925
X6.1Y-0.275
X6.35Y-0.175
X0.225Y-3.775
X0.475Y-3.675
X12.975Y-1.025
X13.225Y-0.925
X6.6625Y-3.525
X6.9125Y-3.425
X2.35Y-2.025
X2.6Y-1.925
X12.975Y-3.525
X13.225Y-3.425
X6.475Y-1.275
X6.725Y-1.175
X3.2875Y-2.775
X3.5375Y-2.675
X11.225Y-0.275
X11.475Y-0.175
X6.2875Y-2.775
X6.5375Y-2.675
X11.225Y-4.525
X11.475Y-4.425
T8
X3.6412Y-5.1575
X7.125Y-5.1575
X7.125Y0.1575
X0.1575Y-5.1575
X10.6088Y-5.1575
X3.6412Y0.1575
X10.6088Y0.1575
X0.1575Y0.1575
X14.0925Y0.1575
X14.0925Y-5.1575
T7
G00X13.7426Y-2.3219
M15
G01X13.7869Y-2.2963
M16
G05
G00X13.9631Y-2.7037
M15
G01X14.0074Y-2.6781
M16
G05
G00X13.7586Y-2.564
M15
G01X13.805Y-2.5856
M16
G05
G00X13.945Y-2.1644
M15
G01X13.9914Y-2.186
M16
G05
G00X0.1969Y-0.5074
M15
G01X0.1713Y-0.4631
M16
G05
G00X0.5787Y-0.2869
M15
G01X0.5531Y-0.2426
M16
G05
T0
M30
